<svg xmlns="http://www.w3.org/2000/svg" viewBox="0 0 55 55"><path d="M15.852 7.328v40.344a23.287 23.287 0 0 1 0-40.344z"/><path d="M50.8 27.5a23.312 23.312 0 0 1-11.648 20.172V7.328A23.325 23.325 0 0 1 50.8 27.5z" fill="#007937"/><path d="M39.152 7.328v40.344a23.26 23.26 0 0 1-23.3 0V7.328a23.26 23.26 0 0 1 23.3 0z" fill="#d22011"/><path fill="#fff" d="M30.685 25.66h-6.38l-.472-.582h7.328l-.475.58zM29.45 24.89h-3.91l.6-.54h2.714l.596.54zM24.43 23.258h.84v1.59h-.84zM24.43 22.903h.84v.23h-.84zM25.27 22.762h-.84V22.5a.426.426 0 0 1 .423-.424.424.424 0 0 1 .418.424zM29.717 23.258h.847v1.59h-.847zM29.717 22.903h.847v.23h-.847zM30.564 22.762h-.847V22.5a.425.425 0 0 1 .424-.424.43.43 0 0 1 .424.424zM28.943 22.87a1.088 1.088 0 0 0-.952-.835.65.65 0 0 1-.5-.5.64.64 0 0 1-.5.5 1.094 1.094 0 0 0-.95.836 1.425 1.425 0 0 0 .324 1.3h2.254a1.434 1.434 0 0 0 .325-1.3zm-2.626.52a1.125 1.125 0 0 1-.015-.4.826.826 0 0 1 .14-.378.75.75 0 0 1 .3-.25 1.233 1.233 0 0 0-.3.648 2.067 2.067 0 0 0-.015.36 3.17 3.17 0 0 0 .052.372.864.864 0 0 1-.163-.353zm.414.187a3.17 3.17 0 0 0 .053.372.838.838 0 0 1-.157-.357 1.15 1.15 0 0 1-.016-.4.828.828 0 0 1 .142-.377.755.755 0 0 1 .3-.25 1.24 1.24 0 0 0-.3.648 2.066 2.066 0 0 0-.02.363zm1.638.016a.942.942 0 0 1-.162.356 2.265 2.265 0 0 0 .052-.373 2.067 2.067 0 0 0-.016-.36 1.2 1.2 0 0 0-.3-.65.692.692 0 0 1 .3.252.9.9 0 0 1 .146.376 1.423 1.423 0 0 1-.02.397zm.31-.2a.93.93 0 0 1-.164.356 2.265 2.265 0 0 0 .052-.373 2.066 2.066 0 0 0-.015-.36 1.2 1.2 0 0 0-.3-.65.686.686 0 0 1 .3.252.9.9 0 0 1 .148.376 1.5 1.5 0 0 1-.02.393zM24.382 25.785h6.224v.136h-6.224zM24.382 29.63h.973v.57h-.973zM24.382 27.986h.973v.335h-.973zM25.355 27.83h-.973l-.094-.33h1.16l-.093.33zM24.382 26.05v1.293h.973V26.05zm.832 1.115h-.14v-.795h-.41v.795h-.14v-.936h.69zM24.8 29.074h.137v.235H24.8zM24.56 28.902h.21v.136h-.21zM24.973 28.902h.204v.136h-.204zM24.8 28.635h.137v.235H24.8zM24.382 28.462v1.02h.973v-1.02zm.87.916h-.76v-.81h.76zM29.633 29.63h.973v.57h-.973zM30.606 30.356h-.973a1.47 1.47 0 0 1-.58 1.025h2.134a1.47 1.47 0 0 1-.58-1.024zM29.633 27.986h.973v.335h-.973zM30.606 27.83h-.973l-.094-.33h1.16l-.094.33zM29.633 26.05v1.293h.973V26.05zm.832 1.115h-.14v-.795h-.41v.795h-.14v-.936h.69zM30.052 29.074h.136v.235h-.136zM29.81 28.902h.205v.136h-.204zM30.224 28.902h.204v.136h-.204zM30.052 28.635h.136v.235h-.136zM29.633 28.462v1.02h.973v-1.02zm.87.916h-.765v-.81h.762zM24.382 30.356h.973s.14.36.92.36v.665H23.77s.612-.58.612-1.024zM32.295 32.27h-9.602l.91-.7h7.782l.91.7zM29.225 28.473h.14v.847h-.14zM25.533 26.14v.743a1.615 1.615 0 0 1 .607-.743zM29.45 26.14v.743a1.625 1.625 0 0 0-.6-.743zM33.755 28.912a.375.375 0 0 0-.01-.057 3.96 3.96 0 0 1-.08-.978 1.54 1.54 0 0 0-.616-1.277 7.97 7.97 0 0 1-.592-.622l.015-.026a.21.21 0 0 0 .058 0 .27.27 0 1 0-.192-.084l-1.82 3.154.057.21 1.1-1.9a1.6 1.6 0 0 1 .915 1.4 2.994 2.994 0 0 0 .3 1.06l.027.037.03-.032c.818-.813.813-.87.808-.886zm-1.4-1.088l.016-.03a1.012 1.012 0 0 1 .314-.378c.037-.026.08-.052.12-.078a1.358 1.358 0 0 0 .283-.2.51.51 0 0 0 .11-.293 1.353 1.353 0 0 1 .4 1.036v.194a.715.715 0 0 1-.2.21.882.882 0 0 1-.278.12 1.05 1.05 0 0 0-.173.057.716.716 0 0 0-.283.252 2.28 2.28 0 0 0-.31-.888zM22.06 29.8l.032.03.02-.04a2.9 2.9 0 0 0 .3-1.062 1.594 1.594 0 0 1 .915-1.39l1.1 1.9.058-.21-1.825-3.154a.26.26 0 0 0 .073-.183.267.267 0 1 0-.267.268.276.276 0 0 0 .063-.01l.015.03a8.168 8.168 0 0 1-.59.623 1.526 1.526 0 0 0-.62 1.278 3.847 3.847 0 0 1-.082.978.57.57 0 0 0-.01.057c0 .015-.004.072.817.887zm.288-1.088a.716.716 0 0 0-.283-.25.946.946 0 0 0-.177-.064.778.778 0 0 1-.272-.115.846.846 0 0 1-.21-.21 1.24 1.24 0 0 0 0-.192 1.378 1.378 0 0 1 .4-1.035.558.558 0 0 0 .116.293 1.473 1.473 0 0 0 .277.2l.125.078a1 1 0 0 1 .308.377.1.1 0 0 1 .02.03 2.112 2.112 0 0 0-.305.885zM26.82 28.73v.81h.33v-1.575h-1.356v1.575h.33v-.81a.346.346 0 0 1 .345-.35.35.35 0 0 1 .35.35zM26.338 28.73h.262v.81h-.262zM27.74 28.39h.24v.166h-.24zM28.106 28.933h.24v.162h-.24zM28.807 30.115h.24v.167h-.24zM28.54 29.52h.246v.16h-.246zM28.32 29.43l-.46-.215v-.35l-.334-.146v-.44l-.152-.105v1.365h.455l.736.826v-.293l-.245-.256v-.387zM29.633 30.753l-.45-.335v-.408l-.256-.2v-.41l-.43-.2v-.387l-.36-.157v-.377l-.758-.335v-.278h-1.622a1.734 1.734 0 0 1 3.467.006v.6h.142v-.6a1.875 1.875 0 0 0-3.75 0v2.562h.622v1.146h.072v-.627h.644l.12.628h.643l-.2-.627h.46l.382.628h.925l-.575-.627zm-.517-.706v.3h-.382v-.3zm-.644-.6h.382v.308h-.382zm-.052-.586v.3h-.382v-.3zm-.753-.538h.387v.3h-.387zm-1.475.408v.88h-.47V27.9h1.5v1.71h-.472v-.878a.277.277 0 0 0-.554 0zm.08.88v-.948h.4v.947zm.04.553v-.47h.434l.094.47zm.7.523l-.09-.45h.362l.14.45zm.32-.523l-.147-.47h.15l.29.47zm.988.523h-.3l-.272-.45h.393l.414.45zm.32-.136l-.843-.94h-.5v-1.566l.3.2v.43l.33.145v.35l.465.22v.4l.246.26zM32.112 36.035c-.45-.4-.957-.72-1.38-1.145a.588.588 0 0 0-.136-.115c-.3-.162-.77.12-1.04.235a5.955 5.955 0 0 1-4.112 0c-.267-.115-.737-.4-1.04-.235a.684.684 0 0 0-.132.115c-.423.424-.936.748-1.385 1.145-.21.184-.486.435-.13.68a5.26 5.26 0 0 0 1.36.367.438.438 0 0 1-.043.376c-.152.267-.094.34 0 .356a1.22 1.22 0 0 1 .89-.183c.6.116 1.034.362 1.212.23.152-.12-.026-.4.194-.564.345.016.722.02 1.13.02s.784-.004 1.13-.02c.224.162.04.444.2.565.17.126.61-.114 1.212-.23s.795.2.89.184.152-.09 0-.356a.443.443 0 0 1-.048-.376 5.166 5.166 0 0 0 1.36-.367c.356-.245.078-.496-.132-.68zm-6.1 1.638c-.09.067-.14.02-.622-.157a1.6 1.6 0 0 0-1.15-.01 1.03 1.03 0 0 0 .067-.393c.43.063.957.125 1.61.162a.29.29 0 0 1 .092.398zm3.61-.157c-.483.177-.54.224-.624.157a.285.285 0 0 1 .094-.4c.65-.037 1.182-.1 1.61-.162a1.14 1.14 0 0 0 .064.393 1.58 1.58 0 0 0-1.148.013zm2.567-.91c-.132.062-1.325.59-4.688.59s-4.555-.528-4.68-.585c-.074-.052-.11-.1-.11-.146-.006-.1.13-.225.26-.34.184-.157.378-.308.566-.455a8.518 8.518 0 0 0 .82-.69l.027-.027a.454.454 0 0 1 .08-.073.363.363 0 0 1 .156-.032 1.648 1.648 0 0 1 .628.21c.058.026.11.047.152.067a6.142 6.142 0 0 0 4.21 0c.042-.02.094-.04.147-.068a1.7 1.7 0 0 1 .632-.21.274.274 0 0 1 .15.038.226.226 0 0 1 .08.068l.026.02a8.4 8.4 0 0 0 .82.69c.19.148.388.3.57.46.132.116.268.242.262.34a.22.22 0 0 1-.112.143zM29.853 35.915c-.037.08.136.11.157-.015 0 0-.12-.068-.157.015zM32.008 36.15c-.178-.156-.377-.308-.57-.46a8.4 8.4 0 0 1-.82-.69l-.022-.026c-.032-.026-.053-.047-.074-.063a.34.34 0 0 0-.136-.025 1.625 1.625 0 0 0-.617.2c-.053.026-.1.047-.152.068a6.457 6.457 0 0 1-2.12.376 6.624 6.624 0 0 1-2.116-.377c-.043-.02-.09-.042-.152-.068a1.6 1.6 0 0 0-.612-.2.26.26 0 0 0-.136.026.452.452 0 0 0-.074.064l-.026.026a8.495 8.495 0 0 1-.82.7c-.194.146-.388.3-.57.455-.085.073-.257.224-.252.313a.2.2 0 0 0 .1.115c.12.058 1.308.58 4.66.58s4.54-.522 4.666-.58c.057-.04.094-.083.094-.115.004-.093-.17-.244-.252-.317zm-2.563-.7a.165.165 0 0 1 .084-.067c.03-.006.04.005.11.015.1.016.155 0 .166.032 0 0 0 .01-.01.047-.037.068-.058.11-.1.12s-.058-.03-.147-.047-.122.016-.137-.005.016-.074.032-.095zm-.638.283a.146.146 0 0 1 .084-.068c.032-.01.048 0 .11.01.105.016.157 0 .173.032 0 0 0 .01-.016.047-.036.068-.057.11-.1.12s-.058-.03-.146-.04-.12.014-.135-.012.025-.074.032-.09zm-2.448.063a1.854 1.854 0 0 1 .193-.094s.183.073.19.14-.232.116-.232.116l-.125-.094a.8.8 0 0 1-.166.078c-.023-.005-.154-.01-.148-.14a.165.165 0 0 1 .287-.002zm-1.187-.3c.11.015.21.11.2.172s-.152.1-.256.074c-.074-.02-.173-.08-.168-.142s.123-.12.223-.1zm-.147 1a.817.817 0 0 1-.576-.047c-.09-.032-.512-.18-.507-.378 0-.078.068-.13.14-.193a.95.95 0 0 1 .567-.216.233.233 0 0 1-.027.074c-.068.1-.25.036-.34.136a.26.26 0 0 0-.016.256c.08.188.356.21.5.22.12.01.324.03.4-.084.047-.068.01-.126.073-.215s.173-.145.2-.12-.01.132-.026.168a.693.693 0 0 1-.388.402zm3.43.22c-.026.03-.057.015-.308.015a1.852 1.852 0 0 0-.293.017c-.1.02-.094.03-.152.037-.125 0-.156-.058-.277-.08-.1-.015-.13.027-.272.038-.183.02-.287.03-.345-.032-.048-.047-.043-.11-.09-.12s-.078.037-.1.058c-.1.078-.225.03-.492-.02-.413-.085-.5-.06-.59-.163a.342.342 0 0 1-.085-.2c0-.053.02-.08.173-.346a.272.272 0 0 0 .057-.2c0-.042-.026-.053-.02-.084.01-.09.2-.162.246-.115 0 .006.014.016.01.074a.434.434 0 0 1-.09.225c-.13.208-.147.245-.152.3a.208.208 0 0 0 .037.14.24.24 0 0 0 .167.09 4.5 4.5 0 0 1 .466.11 1.962 1.962 0 0 0-.042-.242c.01-.094.157-.15.178-.1a1.744 1.744 0 0 1 0 .34c.178-.047.288-.183.324-.152s-.02.073 0 .136c.042.12.33.188.534.09.11-.053.188-.147.2-.137s-.063.08-.047.13a.13.13 0 0 0 .162.048c.042-.026.026-.068.078-.14.043-.06.105-.11.126-.1s-.046.114-.01.188c.063.12.445.084.466-.005a.142.142 0 0 0-.058-.1c-.036-.032-.057-.026-.073-.052a.127.127 0 0 1 .052-.152c.064-.01.126.132.157.19.047.07.13.242.063.32zm2.108-.382a1.668 1.668 0 0 1-1.13.14.8.8 0 0 1-.67.2c-.244-.072-.407-.663-.423-.7s-.05.012-.108.053-.235-.057-.278-.088.084-.143.12-.153a.067.067 0 0 1 .032 0c.032.01.063.02.09.032a.12.12 0 0 1 .078-.08c.1-.03.172.1.214.178a1.874 1.874 0 0 1 .157.33.285.285 0 0 0 .355.21.258.258 0 0 0 .173-.11c-.125-.027-.287-.038-.26-.21.035-.24.506-.068.616-.006.088.053.02.1 0 .178 0 .005-.007.02 0 .026s.01.006.02.006a1.867 1.867 0 0 0 .5-.063 2.168 2.168 0 0 0 .314-.054c-.027-.062-.084-.235-.178-.2-.037.016-.074.027-.11.042a.594.594 0 0 1-.235.026.227.227 0 0 1-.062-.407.185.185 0 0 1 .167-.02 1.437 1.437 0 0 1 .31.2.847.847 0 0 1 .25.27c.012.034.095.176.06.202zm.215.047c-.01 0-.017-.025-.017-.03a1.12 1.12 0 0 0-.35-.466c-.152-.136-.2-.13-.257-.24s-.083-.22-.057-.236.062.042.11.09c.06.077.1.14.114.156.08.125.13.1.293.256.1.1.214.215.2.345a.27.27 0 0 1-.038.13zM24.832 33.232a3.333 3.333 0 0 1 .35.942 1.1 1.1 0 0 0 .6.758 2.88 2.88 0 0 1-.39-.785c-.08-.34-.324-.873-.56-.915zM25.256 33.232a3.35 3.35 0 0 1 .35.942 1.118 1.118 0 0 0 .6.758 2.9 2.9 0 0 1-.393-.785c-.076-.34-.322-.873-.557-.915zM26.48 33.818a.723.723 0 0 0-.2.057.352.352 0 0 0-.115.074.274.274 0 0 0 .13.344c.048.01.053-.016.168-.037s.157.005.21-.03a.2.2 0 0 0 .083-.148c0-.016.037-.184-.058-.257-.046-.03-.098-.023-.218-.005zM26.95 33.85c-.083.067-.062.21-.05.256a.225.225 0 0 0 .076.162c.058.036.105-.01.2.026.063.02.085.052.115.042.012-.006.033-.016.06-.13.025-.132.036-.195 0-.252a.237.237 0 0 0-.126-.1c-.024-.015-.18-.088-.273-.005zM26.307 34.582s.063.387.4.444c.045-.01-.03-.25-.4-.444zM26.626 34.634s.518.57.8.392c.037-.073-.042-.26-.8-.392zM30.172 33.232a3.35 3.35 0 0 0-.35.942 1.118 1.118 0 0 1-.6.758 2.88 2.88 0 0 0 .392-.785c.077-.34.323-.873.558-.915zM29.743 33.232a3.26 3.26 0 0 0-.345.942 1.12 1.12 0 0 1-.607.758 2.86 2.86 0 0 0 .4-.785c.077-.34.318-.873.553-.915zM28.525 33.818a.67.67 0 0 1 .193.057c.068.032.1.048.116.074a.27.27 0 0 1-.132.344c-.04.01-.047-.016-.167-.037s-.157.005-.21-.03a.24.24 0 0 1-.083-.148c0-.016-.036-.184.058-.257.052-.03.11-.023.225-.005zM28.054 33.85c.084.067.057.21.052.256a.25.25 0 0 1-.078.162c-.063.036-.105-.01-.21.026-.062.02-.078.052-.11.042-.015-.006-.036-.016-.057-.13-.025-.132-.04-.195 0-.252a.228.228 0 0 1 .12-.1c.03-.015.19-.088.284-.005zM28.692 34.582s-.063.387-.392.444c-.053-.01.02-.25.392-.444zM28.373 34.634s-.513.57-.8.392c-.032-.073.047-.26.8-.392zM26.29 32.892a.188.188 0 0 0 .033.063 2.794 2.794 0 0 1 .13.277c.032.068.042.178.09.34.052-.052.057-.193.062-.26a.93.93 0 0 0-.172-.608.057.057 0 0 0-.027-.026c-.036-.016-.068.02-.083.052a.2.2 0 0 0-.042.105.228.228 0 0 0 .01.057zM26.935 32.662c-.047.058-.1.157-.047.23a2.318 2.318 0 0 1 .245.644c0 .135.08-.12.08-.12s.02-.288-.043-.356a.4.4 0 0 0 .152-.4c-.08.047-.037.105-.13.12s-.142-.015-.168-.078a.07.07 0 0 0-.09-.04zM27.913 33.1a1.71 1.71 0 0 1-.01-.256.145.145 0 0 0-.095-.167c-.063-.026-.14.026-.188.068a.29.29 0 0 0-.053.37.2.2 0 0 0 .236.043s-.02.33.115.37a.315.315 0 0 0 .1-.192 1.476 1.476 0 0 1-.105-.236zm-.19-.094a.057.057 0 0 1-.046-.057c0-.033.026-.07.053-.064s.03.03.03.03c.01.04-.01.084-.036.09zM28.122 33.305a.236.236 0 0 0-.01.063.628.628 0 0 0 .005.173c0 .01 0 .016.01.016s.02 0 .027-.01a1.874 1.874 0 0 0 .24-.586 2.452 2.452 0 0 0 .09.262c.02.042.036.09.056.13a.856.856 0 0 0 .1.163.145.145 0 0 0 .052.047.513.513 0 0 0 .01-.283.577.577 0 0 0-.11-.2 2.388 2.388 0 0 1-.183-.356c0-.02-.016-.047-.02-.068a.41.41 0 0 0-.054.146c-.025.09-.042.178-.073.262a.626.626 0 0 1-.1.183.143.143 0 0 0-.04.058zM18.95 33.2c.024.005.1.162.124.183a2.74 2.74 0 0 0 .35.4 1.393 1.393 0 0 0 1.38.356c.54-.148 1.01-.477 1.533-.655a3.546 3.546 0 0 1 .9-.183 2.458 2.458 0 0 1 .4-.005c.062.005.308.015.34.078a1.89 1.89 0 0 0-2.338-.784c-1.363.5-1.484.8-2.69.61zM17.384 27.887a.768.768 0 0 1 .006.22 2.46 2.46 0 0 0 .083.523 1.393 1.393 0 0 0 .973 1.046c.534.162 1.11.136 1.648.266a3.525 3.525 0 0 1 .852.33 2.415 2.415 0 0 1 .345.214c.048.037.252.178.247.25a1.887 1.887 0 0 0-1.553-1.918c-1.423-.303-1.684-.118-2.6-.93zM18.54 25.413s1.946 2.155 1.84 3.29a2.385 2.385 0 0 0 .106-2.5 6.77 6.77 0 0 0-1.025-1.574l-.1.71zM20.832 35.424s1.087.993 1.84.9c.3-.03.12-.288-.084-.34a9.824 9.824 0 0 1-1.756-.56zM19.848 34.19a1.9 1.9 0 0 0 1.014.512c.476-.002.116-.366-1.014-.513zM20.345 34.806c.01 0 .062.058.073.068a1.388 1.388 0 0 0 .23.136 1.418 1.418 0 0 0 .59.095c.12-.006.44.01.456-.163.005-.1-.073-.146-.167-.14a3.208 3.208 0 0 0-.382.04 2.17 2.17 0 0 1-.37.022c-.075 0-.148 0-.22-.016a1.757 1.757 0 0 0-.21-.042zM20.967 35.193c.01 0 .058.048.068.058a1.168 1.168 0 0 0 .21.106 1.28 1.28 0 0 0 .522.062c.11-.01.393-.01.4-.162 0-.094-.073-.125-.152-.125a3.3 3.3 0 0 0-.335.058 1.738 1.738 0 0 1-.33.032 1.256 1.256 0 0 1-.193 0 1.167 1.167 0 0 0-.19-.027zM21.49 35.528c.01 0 .068.037.084.042a.855.855 0 0 0 .22.063 1.21 1.21 0 0 0 .528-.042c.1-.03.38-.083.355-.234-.015-.09-.094-.11-.172-.09a1.783 1.783 0 0 0-.32.12 1.94 1.94 0 0 1-.313.095c-.063.017-.126.027-.188.038a1.12 1.12 0 0 0-.194.01zM22.165 35.7a.664.664 0 0 1 .08.04 1.018 1.018 0 0 0 .223.07 1.183 1.183 0 0 0 .532-.052c.1-.026.382-.083.356-.235-.016-.09-.094-.11-.173-.09a2.366 2.366 0 0 0-.32.12 1.586 1.586 0 0 1-.312.095 1.11 1.11 0 0 1-.193.037c-.057.015-.135 0-.192.015zM21.093 34.09a1.357 1.357 0 0 0 .047.167 1.156 1.156 0 0 0 .167.3.45.45 0 0 0 .146.115c.063.026.152.047.2-.016a.137.137 0 0 0 .01-.126.682.682 0 0 0-.255-.287 1.088 1.088 0 0 0-.315-.153zM21.657 34.19l.126.376a1.1 1.1 0 0 0 .115.282.306.306 0 0 0 .115.1.19.19 0 0 0 .12.015.157.157 0 0 0 .042-.266c-.14-.147-.423-.424-.518-.508zM22.07 34.19c.053.135.11.27.168.407a2.254 2.254 0 0 0 .183.413.515.515 0 0 0 .247.19c.115.035.178-.048.152-.153a1.224 1.224 0 0 0-.425-.565c-.073-.073-.15-.14-.225-.21-.026-.015-.09-.05-.1-.083zM22.447 34.142a6.28 6.28 0 0 0 .508.915c.094.116.335.445.517.35a.125.125 0 0 0 .063-.104c0-.09-.094-.167-.152-.23s-.14-.14-.214-.21c-.163-.16-.33-.323-.493-.485-.047-.042-.09-.09-.136-.136-.025-.027-.077-.063-.093-.1zM22.965 34.5a2.082 2.082 0 0 0 .6.35 1.344 1.344 0 0 0 .247.047.24.24 0 0 0 .12-.026c.156-.1-.037-.276-.152-.292-.25-.038-.512-.038-.815-.078zM22.588 34.006a1.957 1.957 0 0 0 .6.35.758.758 0 0 0 .24.048.21.21 0 0 0 .126-.02c.157-.106-.037-.278-.152-.294-.25-.037-.515-.037-.814-.084zM22.38 33.61a1.83 1.83 0 0 0 .527.307.974.974 0 0 0 .215.042.178.178 0 0 0 .1-.022c.142-.09-.03-.24-.13-.256-.216-.03-.45-.03-.713-.073zM23.08 34.885a1.988 1.988 0 0 0 .6.345 1.04 1.04 0 0 0 .247.052.238.238 0 0 0 .12-.026c.158-.1-.036-.277-.15-.293-.247-.036-.514-.036-.816-.078zM24.205 33.76a2.058 2.058 0 0 1 .162.675 1.418 1.418 0 0 1-.02.25.182.182 0 0 1-.063.1c-.142.126-.252-.11-.236-.224.036-.245.115-.5.157-.8zM23.828 33.253a2.05 2.05 0 0 1 .162.675 1.332 1.332 0 0 1-.02.246.212.212 0 0 1-.064.11c-.14.125-.25-.11-.235-.225.038-.253.11-.51.158-.807zM23.478 32.866a1.857 1.857 0 0 1 .14.6.81.81 0 0 1-.014.22.24.24 0 0 1-.053.1c-.13.1-.23-.1-.214-.2.032-.223.1-.453.142-.72zM22.986 32.584a1.787 1.787 0 0 1 .147.6.748.748 0 0 1-.022.22.156.156 0 0 1-.05.1c-.126.105-.226-.1-.21-.2.03-.224.1-.454.136-.72zM18.76 32.286s.628.716 1.062.742c.078.005.188.01.24-.057a.14.14 0 0 0 .016-.135.23.23 0 0 0-.14-.13c-.268-.1-.55-.153-.817-.257a.994.994 0 0 1-.36-.162zM19.545 30.863s.465.816.33 1.177c-.022.062-.06.15-.142.167a.19.19 0 0 1-.136-.047.235.235 0 0 1-.073-.167c0-.257.052-.508.047-.764a.875.875 0 0 0-.025-.367zM20 31.715s.49.686.392.968c-.016.052-.042.12-.12.126a.205.205 0 0 1-.13-.05.23.23 0 0 1-.085-.14c-.016-.21.016-.4-.01-.612a.642.642 0 0 0-.047-.293zM17.16 29.315s.627.716 1.067.737c.073.006.183.01.235-.057a.144.144 0 0 0 .016-.136.234.234 0 0 0-.142-.132c-.266-.1-.55-.152-.816-.25a1.2 1.2 0 0 1-.36-.163zM18.347 31.715a1.545 1.545 0 0 0 .47.46c.314.2.534.294.665.262s.068-.256-.084-.314a6.68 6.68 0 0 1-1.05-.408zM17.944 31.114a2.27 2.27 0 0 0 .528.533c.314.215.513.267.55.157s-.063-.245-.24-.293a6.77 6.77 0 0 1-.838-.396zM17.578 29.906a2.265 2.265 0 0 0 .58.48c.335.184.534.215.565.1s-.088-.24-.272-.26a7.417 7.417 0 0 1-.872-.32zM18 30.4a2.046 2.046 0 0 0 .476.48c.277.194.455.24.49.137s-.056-.22-.218-.256A6.815 6.815 0 0 1 18 30.4zM17.85 30.654a5.022 5.022 0 0 0 .445.512 1.668 1.668 0 0 0 .282.2c.1.058.246.14.36.058a.15.15 0 0 0 .063-.117c-.015-.125-.183-.167-.277-.21-.146-.072-.3-.13-.444-.213s-.29-.157-.43-.23zM18.844 32.756c.11.068.225.136.334.21.053.036.11.073.163.114a.42.42 0 0 0 .137.08c.03.01.073.01.088-.017a.063.063 0 0 0-.005-.083c-.052-.08-.178-.115-.26-.163a.85.85 0 0 0-.456-.14zM19.147 29.98a2.4 2.4 0 0 1-.058.5c-.048.11-.12.412.026.46s.24-.163.2-.388a3.1 3.1 0 0 0-.17-.573zM19.524 30.612a2.957 2.957 0 0 1-.25.486c-.09.1-.273.382-.153.487s.283-.08.34-.325a3.933 3.933 0 0 0 .064-.648zM18.776 29.618a2.22 2.22 0 0 1 .02.46c-.026.11-.046.393.095.414s.194-.178.126-.382a2.923 2.923 0 0 0-.24-.492zM18.457 28.95a2.215 2.215 0 0 1 .02.46c-.026.11-.047.39.095.412s.193-.178.125-.382a2.94 2.94 0 0 0-.24-.49zM20.287 30.947a5.066 5.066 0 0 0 .727.816c.246.167.445.183.4 0s-.975-.722-1.127-.816zM20.857 31.81a.712.712 0 0 0 .356.476c.324.193.455.224.523.13s-.026-.235-.224-.277a3.3 3.3 0 0 1-.655-.33zM19.456 30a.368.368 0 0 0 0 .267c.047.09.11.078.178.15.147.17.03.456.078.467s.115-.126.13-.262a.455.455 0 0 0-.088-.33c-.078-.083-.14-.05-.2-.135-.068-.105-.03-.23-.057-.235s-.036.062-.04.078zM19.973 31.05a.384.384 0 0 0 .084.315c.052.058.08.037.12.09.068.077.037.15.068.27a.583.583 0 0 0 .267.372c.094.053.21.08.225.053s-.094-.09-.183-.252a2.82 2.82 0 0 1-.126-.33c-.052-.135-.067-.172-.1-.208-.073-.08-.126-.058-.188-.12-.12-.126-.058-.346-.09-.35s-.066.083-.077.16zM20 30.33c-.027.026.172.27.318.423a3.1 3.1 0 0 0 .832.586c.037.015.094.04.115.02.042-.037-.02-.194-.11-.3a.834.834 0 0 0-.43-.23 2.547 2.547 0 0 1-.725-.5zM20.23 30.1s.03.36.225.482.377.047.287-.116a1.657 1.657 0 0 0-.512-.366zM21.8 31.056a.9.9 0 0 1-.11.408c-.105.152-.2.3-.084.4s.283-.052.3-.288a1.4 1.4 0 0 0-.106-.52zM22.024 31.538a.634.634 0 0 1-.074.355c-.094.136-.2.267-.125.366a.174.174 0 0 0 .3-.1.78.78 0 0 0-.1-.622zM22.316 31.81s-.047.224-.088.35.073.282.15.183a.5.5 0 0 0-.062-.533zM21.637 30.612a1.5 1.5 0 0 1-.168.288.458.458 0 0 0-.12.214.318.318 0 0 0 .015.2c.042.062.136.047.193.015a.3.3 0 0 0 .13-.184 1.282 1.282 0 0 0-.036-.59zM20.8 30.246a.818.818 0 0 0 .225.612.18.18 0 0 0 .235.026.143.143 0 0 0 .068-.09.1.1 0 0 0-.016-.078.964.964 0 0 0-.3-.245c-.07-.052-.202-.125-.212-.224zM20.575 32.26s-.063.413.282.454.272-.21.246-.225a.49.49 0 0 1-.528-.23zM20.55 32.75a1.275 1.275 0 0 0-.148.278c-.036.12-.15.372.058.42s.09-.697.09-.697zM17.384 27.526s.4.858.7.92.324-.135.194-.282-.84-.538-.894-.638zM17.48 26.825s.244.863.506.968.32-.08.225-.235-.7-.633-.73-.733zM17.494 26.208s.236.832.492.93.3-.072.21-.23-.67-.6-.702-.7zM17.526 25.607s.23.82.486.92.3-.073.21-.225-.665-.602-.696-.695zM17.72 25.042s.057.706.25.82.25-.01.2-.145-.44-.59-.45-.675zM18.96 27.6s-.063.79-.31.937-.335 0-.272-.157.57-.686.58-.78zM19.084 26.857s-.24.863-.507.967-.32-.078-.225-.235.7-.634.732-.733zM19.048 26.245s-.23.83-.487.93-.3-.072-.213-.23.674-.6.7-.7zM19.048 25.622s-.23.822-.487.92-.3-.072-.208-.224.664-.596.696-.696zM18.74 25.105s-.058.7-.247.82-.256-.01-.21-.146.446-.592.457-.675zM18.19 24.435a.884.884 0 0 0-.047.12 1.235 1.235 0 0 0-.052.152 1.55 1.55 0 0 0-.067.31.757.757 0 0 0 .01.344c.02.08.094.194.2.184a.18.18 0 0 0 .115-.105.994.994 0 0 0-.052-.67c-.038-.11-.07-.225-.106-.335zM18.97 28.222c.02.01.03.14.036.162a.836.836 0 0 0 .068.2c.052.12.15.24.3.214a.09.09 0 0 0 .073-.042.106.106 0 0 0 .01-.09.427.427 0 0 0-.13-.208 3.368 3.368 0 0 0-.358-.236zM19 27.74a.762.762 0 0 1 .032.163c.02.068.042.136.068.2.057.12.15.246.3.22a.1.1 0 0 0 .073-.047.107.107 0 0 0 .016-.09.43.43 0 0 0-.137-.208A3.436 3.436 0 0 0 19 27.74zM19.1 27.13a1.1 1.1 0 0 1-.02.166 1.457 1.457 0 0 0 0 .21c.015.13.072.276.22.3a.124.124 0 0 0 .082-.022.11.11 0 0 0 .042-.083.466.466 0 0 0-.063-.235 3.42 3.42 0 0 0-.26-.336zM20.062 28.222a.764.764 0 0 0-.03.162c-.022.068-.043.136-.07.2-.057.12-.15.24-.3.214a.1.1 0 0 1-.078-.042.134.134 0 0 1-.01-.09.42.42 0 0 1 .13-.208 3.866 3.866 0 0 1 .358-.236zM20.036 27.74a.706.706 0 0 0-.03.163.908.908 0 0 1-.07.2c-.052.12-.15.246-.3.22a.1.1 0 0 1-.073-.047.11.11 0 0 1-.015-.09.476.476 0 0 1 .136-.208 3.34 3.34 0 0 1 .352-.237zM19.843 27.1a1 1 0 0 0 .02.168 1.458 1.458 0 0 1 0 .21c-.015.13-.073.276-.22.3a.1.1 0 0 1-.083-.022.122.122 0 0 1-.042-.084.476.476 0 0 1 .063-.235 3.436 3.436 0 0 1 .263-.337zM19.482 26.48c0 .016-.08.12-.09.14a1.182 1.182 0 0 0-.083.19c-.043.125-.058.282.067.36a.1.1 0 0 0 .084.02.116.116 0 0 0 .074-.056.443.443 0 0 0 .047-.246 3.773 3.773 0 0 0-.098-.408zM19.335 24.142a.136.136 0 0 1 .02-.073.356.356 0 0 1 .127-.142.76.76 0 0 1 .643-.042.51.51 0 0 1 .084.026c-.022-.01-.1.068-.11.08a1.327 1.327 0 0 1-.284.187.634.634 0 0 1-.34.093.136.136 0 0 1-.14-.13zM18.886 24.524a.166.166 0 0 1 .036-.068.406.406 0 0 1 .162-.1.775.775 0 0 1 .633.125c.026.017.047.033.073.048-.02-.01-.115.047-.13.053a1.283 1.283 0 0 1-.32.1.682.682 0 0 1-.355 0 .136.136 0 0 1-.1-.156zM19.77 23.625a.2.2 0 0 1 .016-.08.44.44 0 0 1 .114-.145.64.64 0 0 1 .575-.08.31.31 0 0 0 .068.022c-.015 0-.083.08-.094.094a1.58 1.58 0 0 1-.252.2.584.584 0 0 1-.3.115.123.123 0 0 1-.13-.125zM20.062 23.08c0-.266.36-.33.555-.36.03-.006.25-.047.245-.09.022.31-.313.466-.564.545a.264.264 0 0 1-.11.015.127.127 0 0 1-.115-.062.076.076 0 0 1-.01-.047zM20.355 22.563c0-.23.314-.288.487-.314.026 0 .22-.043.22-.085.015.272-.278.413-.5.48a.284.284 0 0 1-.1.017.11.11 0 0 1-.1-.057.138.138 0 0 1-.007-.042zM20.664 22.066c-.1-.3.314-.518.538-.633a2.206 2.206 0 0 0 .382-.272 1.258 1.258 0 0 1-.595.916.344.344 0 0 1-.128.063.17.17 0 0 1-.167-.027.087.087 0 0 1-.03-.047zM19.2 21.72a7.722 7.722 0 0 0 .058 1.11c.02.167.025.334.052.5a.86.86 0 0 0 .073.367c.09.125.2.015.23-.084a1.556 1.556 0 0 0-.13-.837l-.22-.79a.918.918 0 0 1-.063-.265zM18.708 22.186a9.154 9.154 0 0 0 .115 1.11c.03.16.047.33.078.49a.923.923 0 0 0 .09.362c.1.12.2 0 .23-.1a1.61 1.61 0 0 0-.172-.826c-.09-.256-.173-.518-.262-.78a1.323 1.323 0 0 1-.078-.256zM18.52 22.662a8.422 8.422 0 0 0-.037 1.114c0 .168 0 .335.01.5a.78.78 0 0 0 .042.366c.073.136.194.037.235-.062a1.572 1.572 0 0 0-.057-.848c-.047-.266-.1-.533-.147-.805a1.2 1.2 0 0 1-.047-.265zM19.738 21.16a8.02 8.02 0 0 0-.042 1.063c0 .162 0 .32.01.48a.86.86 0 0 0 .037.35c.073.132.19.038.23-.056a1.537 1.537 0 0 0-.057-.81l-.14-.77a1.07 1.07 0 0 1-.038-.256zM20.1 20.884a5.23 5.23 0 0 0-.036.89c0 .135 0 .27.01.4 0 .093-.02.213.037.3.074.1.184.025.23-.053.1-.193-.015-.475-.057-.68l-.14-.643a.766.766 0 0 1-.043-.213zM20.407 20.335a3.958 3.958 0 0 0-.046.77c0 .156-.005.312 0 .47a.186.186 0 0 0 .042.135.133.133 0 0 0 .162.01.19.19 0 0 0 .08-.088c.083-.173-.022-.382-.064-.555s-.09-.37-.13-.554c-.016-.057-.022-.123-.043-.188zM21.244 20.612a1.42 1.42 0 0 1-.183.21 2.033 2.033 0 0 0-.224.23.44.44 0 0 0-.073.224.49.49 0 0 0-.005.152.124.124 0 0 0 .052.09.16.16 0 0 0 .12 0c.22-.07.257-.294.278-.493a3.587 3.587 0 0 0 .036-.413zM21.056 22.746a1.21 1.21 0 0 0-.152.34.9.9 0 0 0-.02.335c.01.09.04.283.162.283.193 0 .146-.4.094-.507a1.5 1.5 0 0 1-.042-.513zM20.7 23.31a1.377 1.377 0 0 0-.11.356.807.807 0 0 0 .016.335c.026.09.073.278.194.268.193-.026.1-.42.036-.518a1.5 1.5 0 0 1-.1-.507zM20.345 23.828a1.42 1.42 0 0 0-.053.367.777.777 0 0 0 .07.33c.035.083.12.26.234.23.183-.053.03-.43-.047-.52a1.56 1.56 0 0 1-.184-.48zM20.115 24.236a1.092 1.092 0 0 0-.053.367.773.773 0 0 0 .068.33c.037.083.12.26.236.23.183-.053.03-.43-.053-.52a1.532 1.532 0 0 1-.177-.48zM21.36 22.16a1.164 1.164 0 0 0-.152.34.81.81 0 0 0-.02.335c.01.09.04.282.16.282.19 0 .147-.4.095-.507a1.5 1.5 0 0 1-.043-.51zM21.846 21.47a1.358 1.358 0 0 0-.215.334 1.073 1.073 0 0 0-.082.356c-.006.1-.01.31.11.33.188.03.214-.4.183-.523a1.892 1.892 0 0 1 .058-.555zM22.1 23.17a1.3 1.3 0 0 1-.167.33.88.88 0 0 1-.252.23c-.077.04-.244.14-.318.046-.12-.146.22-.36.335-.392a1.53 1.53 0 0 0 .43-.288zM21.85 23.77a1.12 1.12 0 0 1-.2.31.78.78 0 0 1-.27.2c-.085.037-.262.115-.33.016-.1-.162.266-.34.38-.35a1.548 1.548 0 0 0 .462-.24zM21.61 24.372a1.36 1.36 0 0 1-.25.272.825.825 0 0 1-.3.152c-.085.026-.278.073-.325-.037-.073-.178.314-.293.434-.288a1.52 1.52 0 0 0 .485-.162zM21.47 24.848a1.374 1.374 0 0 1-.257.272.8.8 0 0 1-.3.152c-.09.026-.277.073-.324-.037-.074-.177.312-.293.433-.287a1.53 1.53 0 0 0 .487-.162zM19.88 24.676a1.5 1.5 0 0 0-.053.37.906.906 0 0 0 .068.33c.037.08.12.262.235.225.183-.05.032-.422-.047-.51a1.662 1.662 0 0 1-.183-.49zM21.124 25.455a1.14 1.14 0 0 1-.282.24.788.788 0 0 1-.314.12c-.09.01-.283.043-.32-.072-.052-.183.346-.257.46-.236a1.69 1.69 0 0 0 .508-.11zM22.31 22.584a1.11 1.11 0 0 1-.17.33.742.742 0 0 1-.247.23c-.08.046-.246.146-.324.046-.117-.146.223-.36.34-.387a1.643 1.643 0 0 0 .427-.292zM22.562 21.8a1.428 1.428 0 0 1-.13.377.97.97 0 0 1-.22.287c-.073.063-.236.2-.324.12-.142-.125.177-.423.292-.475a1.73 1.73 0 0 0 .4-.388zM22.578 21.24c0 .005-.177.073-.194.083a1.124 1.124 0 0 0-.2.13.508.508 0 0 0-.22.414.133.133 0 0 0 .037.094.16.16 0 0 0 .17.027.87.87 0 0 0 .266-.235.813.813 0 0 0 .142-.512zM36.05 33.2c-.026.005-.1.162-.12.183a3.156 3.156 0 0 1-.35.4 1.4 1.4 0 0 1-1.38.356c-.54-.148-1.01-.477-1.538-.655a3.508 3.508 0 0 0-.895-.183 2.527 2.527 0 0 0-.408-.005c-.058.005-.31.015-.34.078a1.894 1.894 0 0 1 2.342-.784c1.36.5 1.486.8 2.69.61zM37.62 27.887a.768.768 0 0 0-.006.22 3.316 3.316 0 0 1-.083.523 1.4 1.4 0 0 1-.977 1.046c-.534.162-1.1.136-1.648.266a3.692 3.692 0 0 0-.852.33 2.075 2.075 0 0 0-.34.214c-.053.037-.25.178-.246.25a1.884 1.884 0 0 1 1.553-1.918c1.423-.303 1.68-.118 2.6-.93zM36.46 25.413s-1.947 2.155-1.842 3.29a2.4 2.4 0 0 1-.105-2.5 6.77 6.77 0 0 1 1.025-1.574l.105.71zM34.178 35.424s-1.093.993-1.84.9c-.3-.03-.126-.288.078-.34a10 10 0 0 0 1.762-.56zM35.15 34.19a1.9 1.9 0 0 1-1.014.512c-.476-.002-.11-.366 1.015-.513zM34.66 34.806c-.016 0-.07.058-.08.068a1.142 1.142 0 0 1-.224.136 1.426 1.426 0 0 1-.59.095c-.12-.006-.445.01-.456-.163-.01-.1.074-.146.162-.14a3.03 3.03 0 0 1 .383.04 2.152 2.152 0 0 0 .37.022c.074 0 .147 0 .22-.016a1.617 1.617 0 0 1 .214-.042zM34.037 35.193c-.016 0-.063.048-.073.058a.983.983 0 0 1-.2.106 1.293 1.293 0 0 1-.528.062c-.1-.01-.393-.01-.393-.162 0-.094.068-.125.152-.125a3.3 3.3 0 0 1 .335.058 1.656 1.656 0 0 0 .324.032 1.322 1.322 0 0 0 .2 0 1.12 1.12 0 0 1 .183-.027zM33.51 35.528c-.012 0-.07.037-.08.042a.876.876 0 0 1-.225.063 1.218 1.218 0 0 1-.528-.042c-.1-.03-.382-.083-.355-.234.016-.09.1-.11.177-.09a1.735 1.735 0 0 1 .313.12 2.14 2.14 0 0 0 .314.095c.063.017.13.027.194.038a1.083 1.083 0 0 1 .19.01zM32.84 35.7a.638.638 0 0 0-.084.04 1 1 0 0 1-.22.07 1.176 1.176 0 0 1-.528-.048c-.105-.026-.382-.083-.356-.235.016-.09.094-.11.173-.09a2.038 2.038 0 0 1 .314.12 1.62 1.62 0 0 0 .318.095 1.116 1.116 0 0 0 .188.037c.063.01.136-.005.193.01zM33.912 34.09c-.005.02-.048.152-.053.167a1.03 1.03 0 0 1-.168.3.433.433 0 0 1-.14.115c-.064.026-.153.047-.2-.016a.137.137 0 0 1-.012-.126.677.677 0 0 1 .257-.287 1.183 1.183 0 0 1 .315-.153zM33.347 34.19l-.126.376a1.33 1.33 0 0 1-.12.282.285.285 0 0 1-.11.1.19.19 0 0 1-.12.015.16.16 0 0 1-.046-.266c.146-.147.423-.424.523-.508zM32.934 34.19c-.058.135-.11.27-.168.407a1.926 1.926 0 0 1-.188.413.5.5 0 0 1-.246.19c-.115.035-.173-.048-.15-.153a1.268 1.268 0 0 1 .427-.565c.072-.073.146-.14.224-.21.02-.015.09-.05.1-.083zM32.557 34.142a5.973 5.973 0 0 1-.513.915c-.094.116-.33.445-.512.35a.115.115 0 0 1-.063-.104c0-.09.093-.167.15-.23s.137-.14.21-.21c.162-.16.33-.323.5-.485l.136-.136c.023-.027.075-.063.09-.1zM32.04 34.5a2.138 2.138 0 0 1-.608.35 1.186 1.186 0 0 1-.24.047.224.224 0 0 1-.12-.026c-.157-.1.036-.276.146-.292.25-.038.518-.038.82-.078zM32.416 34.006a1.96 1.96 0 0 1-.6.35.83.83 0 0 1-.247.048.19.19 0 0 1-.12-.02c-.157-.106.036-.278.15-.294.246-.037.512-.037.816-.084zM32.625 33.61a1.83 1.83 0 0 1-.528.307 1.022 1.022 0 0 1-.215.042.2.2 0 0 1-.11-.022c-.136-.09.037-.24.136-.256.215-.03.45-.03.717-.073zM31.914 34.874a2.055 2.055 0 0 1-.6.35 1.2 1.2 0 0 1-.24.048.182.182 0 0 1-.126-.026c-.157-.1.037-.277.152-.293.25-.037.516-.037.814-.08zM30.8 33.76a2 2 0 0 0-.168.675 1.07 1.07 0 0 0 .026.25.214.214 0 0 0 .058.1c.14.126.256-.11.24-.224-.036-.245-.115-.5-.156-.8zM31.176 33.253a2.14 2.14 0 0 0-.167.675.96.96 0 0 0 .025.246.2.2 0 0 0 .058.11c.14.125.256-.11.24-.225-.033-.253-.115-.51-.157-.807zM31.527 32.866a1.8 1.8 0 0 0-.147.6 1.016 1.016 0 0 0 .02.22.24.24 0 0 0 .053.1c.126.1.225-.1.21-.2-.032-.223-.1-.453-.136-.72zM32.013 32.584a1.8 1.8 0 0 0-.146.6 1.092 1.092 0 0 0 .02.22.238.238 0 0 0 .053.1c.13.105.23-.1.214-.2-.03-.224-.1-.454-.14-.72zM36.244 32.286s-.627.716-1.067.742a.282.282 0 0 1-.24-.057.14.14 0 0 1-.01-.135.226.226 0 0 1 .135-.13c.272-.1.555-.153.82-.257a1.042 1.042 0 0 0 .362-.162zM35.454 30.863s-.46.816-.33 1.177c.027.062.058.15.143.167a.19.19 0 0 0 .135-.047.223.223 0 0 0 .08-.167c0-.257-.054-.508-.054-.764a1.08 1.08 0 0 1 .026-.367zM35.01 31.715s-.5.686-.4.968c.02.052.042.12.12.126a.2.2 0 0 0 .13-.05.192.192 0 0 0 .085-.14c.02-.21-.01-.4.01-.612a.724.724 0 0 1 .055-.293zM37.845 29.315s-.628.716-1.067.737c-.08.006-.19.01-.24-.057a.14.14 0 0 1-.01-.136.234.234 0 0 1 .135-.132c.266-.1.55-.152.815-.25a1.3 1.3 0 0 0 .367-.163zM36.652 31.715a1.58 1.58 0 0 1-.465.46c-.314.2-.54.294-.665.262s-.068-.256.084-.314a6.675 6.675 0 0 0 1.046-.408zM37.055 31.114a2.27 2.27 0 0 1-.528.533c-.314.215-.508.267-.55.157s.068-.245.246-.293a7 7 0 0 0 .832-.396zM37.42 29.906a2.265 2.265 0 0 1-.58.48c-.334.184-.533.215-.56.1s.09-.24.273-.26a7.21 7.21 0 0 0 .868-.32zM37 30.4a2.07 2.07 0 0 1-.476.48c-.283.194-.46.24-.492.137s.057-.22.22-.256A7.41 7.41 0 0 0 37 30.4zM37.154 30.654a5.156 5.156 0 0 1-.444.512 1.532 1.532 0 0 1-.288.2c-.1.058-.246.14-.356.058a.137.137 0 0 1-.057-.12c.01-.126.177-.168.27-.21.152-.073.3-.13.45-.214s.278-.153.424-.226zM36.156 32.756c-.11.068-.22.136-.33.21a1.955 1.955 0 0 0-.162.114.46.46 0 0 1-.142.08.08.08 0 0 1-.09-.017.083.083 0 0 1 .007-.083c.056-.08.182-.115.265-.163a.82.82 0 0 1 .45-.14zM35.857 29.98a2.1 2.1 0 0 0 .058.5c.047.11.115.412-.032.46s-.235-.163-.2-.388a3.4 3.4 0 0 1 .174-.573zM35.48 30.612a2.747 2.747 0 0 0 .246.486c.09.1.273.382.157.487s-.287-.08-.34-.325a3.887 3.887 0 0 1-.062-.648zM36.228 29.618a2.143 2.143 0 0 0-.026.46c.032.11.047.393-.094.414s-.188-.178-.125-.382a3.33 3.33 0 0 1 .245-.492zM36.547 28.95a1.87 1.87 0 0 0-.02.46c.026.11.04.39-.095.412s-.193-.178-.13-.382a3.355 3.355 0 0 1 .245-.49zM34.712 30.947a4.97 4.97 0 0 1-.722.816c-.25.167-.45.183-.4 0s.97-.722 1.122-.816zM34.147 31.81a.73.73 0 0 1-.36.476c-.32.193-.455.224-.52.13s.022-.235.22-.277a3.393 3.393 0 0 0 .66-.33zM35.543 30a.32.32 0 0 1-.005.267c-.047.09-.1.078-.173.15-.15.17-.036.456-.083.467-.032.01-.11-.126-.126-.262a.42.42 0 0 1 .084-.33c.08-.083.146-.05.2-.135.068-.105.03-.23.057-.235s.046.062.046.078zM35.026 31.05a.4.4 0 0 1-.08.315c-.05.058-.077.037-.124.09-.068.077-.037.15-.063.27a.6.6 0 0 1-.268.372c-.094.053-.21.08-.23.053s.1-.09.188-.252a3.307 3.307 0 0 0 .12-.33.64.64 0 0 1 .1-.208c.08-.08.127-.058.19-.12.12-.126.057-.346.094-.35.024-.006.06.083.072.16zM35.01 30.33c.026.026-.178.27-.32.423a3.2 3.2 0 0 1-.835.586c-.032.015-.09.04-.116.02-.042-.037.025-.194.11-.3a.868.868 0 0 1 .433-.23 2.677 2.677 0 0 0 .727-.5zM34.77 30.1s-.026.36-.22.482-.377.047-.288-.116a1.6 1.6 0 0 1 .507-.366zM33.2 31.056a.9.9 0 0 0 .11.408c.1.152.2.3.08.4s-.28-.052-.294-.288a1.288 1.288 0 0 1 .104-.52zM32.975 31.538a.66.66 0 0 0 .08.355c.093.136.2.267.12.366a.175.175 0 0 1-.3-.1.83.83 0 0 1 .1-.622zM32.688 31.81s.042.224.083.35-.072.282-.145.183a.5.5 0 0 1 .063-.533zM33.368 30.612a1.056 1.056 0 0 0 .167.288.45.45 0 0 1 .115.214.26.26 0 0 1-.016.2c-.04.062-.136.047-.193.015a.3.3 0 0 1-.125-.184 1.212 1.212 0 0 1 .037-.59zM34.2 30.246a.8.8 0 0 1-.22.612.186.186 0 0 1-.24.026.163.163 0 0 1-.068-.09.107.107 0 0 1 .02-.078.92.92 0 0 1 .3-.245c.072-.052.202-.125.208-.224zM34.43 32.26s.057.413-.283.454-.277-.21-.25-.225a.5.5 0 0 0 .533-.23zM34.455 32.75a1.275 1.275 0 0 1 .147.278c.037.12.152.372-.058.42s-.09-.697-.09-.697zM37.614 27.526s-.392.858-.69.92-.324-.135-.2-.282.844-.538.89-.638zM37.52 26.825s-.24.863-.507.968-.314-.08-.22-.235.696-.633.727-.733zM37.505 26.208s-.23.832-.487.93-.3-.072-.214-.23.674-.6.7-.7zM37.473 25.607s-.23.82-.48.92-.3-.073-.21-.225.664-.602.69-.695zM37.28 25.042s-.058.706-.246.82-.256-.01-.2-.145.44-.59.446-.675zM36.045 27.6s.063.79.31.937.334 0 .27-.157-.57-.686-.58-.78zM35.92 26.857s.24.863.507.967.314-.078.22-.235-.7-.634-.727-.733zM35.95 26.245s.237.83.493.93.3-.072.21-.23-.67-.6-.702-.7zM35.956 25.622s.23.822.482.92.3-.072.214-.224-.67-.596-.696-.696zM36.265 25.105s.058.7.246.82.257-.01.2-.146-.44-.592-.445-.675zM36.814 24.435c.016.037.037.094.047.12a1.43 1.43 0 0 1 .054.152 1.623 1.623 0 0 1 .068.31.93.93 0 0 1-.01.344c-.027.08-.1.194-.2.184a.17.17 0 0 1-.116-.105.96.96 0 0 1 .053-.67c.03-.11.068-.225.104-.335zM36.03 28.222a.706.706 0 0 0-.03.162 1.336 1.336 0 0 1-.07.2c-.057.12-.15.24-.3.214a.085.085 0 0 1-.074-.042.107.107 0 0 1-.016-.09.436.436 0 0 1 .136-.208 3.436 3.436 0 0 1 .354-.236zM36 27.74a.7.7 0 0 0-.032.163.858.858 0 0 1-.068.2c-.052.12-.15.246-.3.22a.113.113 0 0 1-.073-.047.106.106 0 0 1-.01-.09.427.427 0 0 1 .13-.208A3.436 3.436 0 0 1 36 27.74zM35.9 27.13a.7.7 0 0 0 .02.166.982.982 0 0 1 0 .21c-.015.13-.067.276-.214.3a.11.11 0 0 1-.083-.022.1.1 0 0 1-.042-.083.42.42 0 0 1 .064-.235 3.42 3.42 0 0 1 .256-.336zM34.942 28.222a.706.706 0 0 1 .03.162.935.935 0 0 0 .07.2c.052.12.15.24.3.214a.093.093 0 0 0 .073-.042.11.11 0 0 0 .015-.09.467.467 0 0 0-.136-.208 3.34 3.34 0 0 0-.352-.236zM34.963 27.74a.764.764 0 0 1 .03.163c.022.068.043.136.07.2.057.12.15.246.3.22a.126.126 0 0 0 .073-.047.106.106 0 0 0 .01-.09.425.425 0 0 0-.13-.208 3.988 3.988 0 0 0-.353-.237zM35.156 27.1a.617.617 0 0 1-.02.168.914.914 0 0 0 .005.21c.016.13.07.276.215.3a.1.1 0 0 0 .084-.022.1.1 0 0 0 .04-.084.42.42 0 0 0-.062-.235 3.6 3.6 0 0 0-.262-.337zM35.522 26.48c0 .016.074.12.084.14a.88.88 0 0 1 .09.19.294.294 0 0 1-.074.36.1.1 0 0 1-.084.02.13.13 0 0 1-.073-.056.477.477 0 0 1-.04-.246 3.6 3.6 0 0 1 .097-.408zM35.67 24.142a.128.128 0 0 0-.022-.073.422.422 0 0 0-.13-.142.76.76 0 0 0-.644-.042.476.476 0 0 0-.078.026c.02-.01.094.068.11.08a1.453 1.453 0 0 0 .276.187.646.646 0 0 0 .346.093.138.138 0 0 0 .14-.13zM36.12 24.524a.14.14 0 0 0-.043-.068.374.374 0 0 0-.162-.1.764.764 0 0 0-.628.125l-.073.048c.016-.01.11.047.125.053a1.37 1.37 0 0 0 .318.1.682.682 0 0 0 .356 0 .14.14 0 0 0 .105-.156zM35.23 23.625a.148.148 0 0 0-.016-.08.4.4 0 0 0-.114-.145.63.63 0 0 0-.57-.08.327.327 0 0 1-.074.022c.016 0 .084.08.1.094a1.54 1.54 0 0 0 .246.2.626.626 0 0 0 .3.115.12.12 0 0 0 .128-.125zM34.942 23.08c0-.266-.36-.33-.555-.36-.03-.006-.25-.047-.25-.09-.016.31.318.466.564.545a.262.262 0 0 0 .11.015.135.135 0 0 0 .12-.062.14.14 0 0 0 .012-.047zM34.644 22.563c0-.23-.314-.288-.48-.314-.033 0-.226-.043-.22-.085-.017.272.277.413.5.48a.28.28 0 0 0 .093.017.122.122 0 0 0 .105-.057.124.124 0 0 0 .002-.042zM34.335 22.066c.1-.3-.314-.518-.54-.633a2.51 2.51 0 0 1-.38-.272 1.285 1.285 0 0 0 .6.916.445.445 0 0 0 .125.063.182.182 0 0 0 .173-.027.133.133 0 0 0 .022-.047zM35.8 21.72a8.86 8.86 0 0 1-.058 1.11c-.02.167-.03.334-.057.5a.977.977 0 0 1-.068.367c-.09.125-.2.015-.236-.084a1.62 1.62 0 0 1 .137-.837c.068-.267.147-.528.215-.79a1.2 1.2 0 0 0 .068-.265zM36.29 22.186a8.43 8.43 0 0 1-.11 1.11c-.03.16-.046.33-.082.49a.844.844 0 0 1-.09.362c-.093.12-.2 0-.224-.1a1.61 1.61 0 0 1 .172-.826c.084-.256.173-.518.257-.78a.87.87 0 0 0 .078-.256zM36.48 22.662a8.987 8.987 0 0 1 .042 1.114c-.01.168 0 .335-.01.5a.972.972 0 0 1-.042.366c-.08.136-.194.037-.242-.062a1.636 1.636 0 0 1 .063-.848c.048-.266.1-.533.148-.805a.924.924 0 0 0 .04-.265zM35.267 21.16a7.62 7.62 0 0 1 .036 1.063v.48a.88.88 0 0 1-.042.35c-.073.132-.182.038-.224-.056a1.535 1.535 0 0 1 .052-.81l.14-.77a.875.875 0 0 0 .04-.256zM34.9 20.884a5.635 5.635 0 0 1 .042.89c-.01.135 0 .27-.01.4a.636.636 0 0 1-.037.3c-.074.1-.19.025-.23-.053-.1-.193.01-.475.057-.68s.094-.428.136-.643a.62.62 0 0 0 .042-.213zM34.59 20.335a4.326 4.326 0 0 1 .054.77c-.01.156.005.312 0 .47a.208.208 0 0 1-.037.135.14.14 0 0 1-.167.01.215.215 0 0 1-.074-.088c-.083-.173.02-.382.063-.555s.088-.37.13-.554c.005-.057.016-.123.03-.188zM33.76 20.612a1.39 1.39 0 0 0 .178.21 1.666 1.666 0 0 1 .23.23.563.563 0 0 1 .073.224.788.788 0 0 1 .006.152.138.138 0 0 1-.052.09.16.16 0 0 1-.12 0c-.225-.07-.257-.294-.283-.493-.014-.13-.025-.272-.03-.413zM33.948 22.746a1.287 1.287 0 0 1 .147.34.83.83 0 0 1 .026.335c-.015.09-.046.283-.167.283-.188 0-.14-.4-.09-.507a1.656 1.656 0 0 0 .044-.513zM34.3 23.31a1.207 1.207 0 0 1 .11.356.807.807 0 0 1-.016.335c-.02.09-.074.278-.194.268-.188-.026-.1-.42-.03-.518a1.634 1.634 0 0 0 .1-.507zM34.654 23.828a1.092 1.092 0 0 1 .053.367.792.792 0 0 1-.068.33c-.038.083-.117.26-.237.23-.182-.053-.025-.43.052-.52a1.516 1.516 0 0 0 .178-.48zM34.89 24.236a1.465 1.465 0 0 1 .052.367.96.96 0 0 1-.068.33c-.042.083-.12.26-.235.23-.185-.053-.033-.43.046-.52a1.532 1.532 0 0 0 .177-.48zM33.645 22.16a1.3 1.3 0 0 1 .146.34.8.8 0 0 1 .027.335c-.015.09-.04.282-.167.282-.188 0-.14-.4-.09-.507a1.647 1.647 0 0 0 .04-.51zM33.158 21.47a1.5 1.5 0 0 1 .21.334.993.993 0 0 1 .09.356c0 .1.01.31-.11.33-.19.03-.22-.4-.19-.523a1.77 1.77 0 0 0-.052-.555zM32.907 23.17a1.13 1.13 0 0 0 .168.33.844.844 0 0 0 .246.23c.08.04.246.14.325.046.12-.146-.225-.36-.34-.392a1.486 1.486 0 0 1-.424-.288zM33.148 23.77a1.137 1.137 0 0 0 .21.31.744.744 0 0 0 .27.2c.08.037.263.115.325.016.1-.162-.26-.34-.38-.35a1.563 1.563 0 0 1-.456-.24zM33.394 24.372a1.1 1.1 0 0 0 .25.272.8.8 0 0 0 .3.152c.09.026.28.073.325-.037.078-.178-.31-.293-.43-.288a1.515 1.515 0 0 1-.49-.162zM33.535 24.848a1.218 1.218 0 0 0 .25.272.8.8 0 0 0 .3.152c.09.026.278.073.33-.037.074-.177-.313-.293-.433-.287a1.514 1.514 0 0 1-.492-.162zM35.12 24.676a1.14 1.14 0 0 1 .052.37.813.813 0 0 1-.068.33c-.037.08-.115.262-.235.225-.184-.05-.028-.422.05-.51a1.612 1.612 0 0 0 .18-.49zM33.88 25.455a1.137 1.137 0 0 0 .277.24.81.81 0 0 0 .32.12c.088.01.282.043.313-.072.058-.183-.34-.257-.46-.236a1.64 1.64 0 0 1-.5-.11zM32.693 22.584a1.2 1.2 0 0 0 .168.33.836.836 0 0 0 .246.23c.08.046.25.146.324.046.12-.146-.22-.36-.334-.387a1.635 1.635 0 0 1-.43-.292zM32.442 21.8a1.416 1.416 0 0 0 .125.377 1.08 1.08 0 0 0 .225.287c.074.063.23.2.325.12.14-.125-.178-.423-.293-.475a1.73 1.73 0 0 1-.4-.388zM32.426 21.24c0 .005.173.073.188.083a1.1 1.1 0 0 1 .21.13.52.52 0 0 1 .22.414.16.16 0 0 1-.037.094.163.163 0 0 1-.168.027.888.888 0 0 1-.273-.235.78.78 0 0 1-.14-.512zM26.134 21.344c-.083.037-.12.016-.162.058a.115.115 0 0 0-.036.09c.01.05.083.077.13.082a.165.165 0 0 0 .157-.057c.032-.042.02-.073.048-.09s.063.043.13.064a.283.283 0 0 0 .174-.036c.063-.047.057-.1.115-.21a.822.822 0 0 1 .2-.26 2.006 2.006 0 0 1 .208-.158c.084-.052.136-.078.14-.125a.1.1 0 0 0-.067-.1c-.035-.005-.062.042-.1.09-.088.104-.104.067-.287.224a.815.815 0 0 0-.2.21c-.058.094-.068.177-.105.177s-.062-.124-.12-.13c-.026 0-.03.037-.105.095a.365.365 0 0 1-.12.08zM27.14 20.905a.335.335 0 0 0-.122.052c-.02.02-.067.058-.057.094s.043.033.058.07a.125.125 0 0 1-.015.093 1.4 1.4 0 0 0-.047.21c0 .057-.016.136.01.15s.1-.02.136-.082c.073-.13-.063-.3.006-.392a.244.244 0 0 1 .072-.073c.02-.016.037-.02.047-.042a.062.062 0 0 0 0-.078c-.015-.016-.047-.01-.088 0zM27.9 21.255c-.1.042-.1.026-.147.053a.178.178 0 0 0-.083.088c-.016.042-.016.11.026.136a.094.094 0 0 0 .11-.01c.03-.026.026-.063.063-.078a.043.043 0 0 1 .046-.006c.032.016 0 .09.036.142a.15.15 0 0 0 .1.04c.068.007.078-.04.152-.067.1-.04.13.016.235-.015a.265.265 0 0 0 .16-.115c.06-.094.06-.23 0-.262a.09.09 0 0 0-.093.017c-.037.03 0 .078-.04.146-.023.042-.065.084-.096.073-.004 0-.015-.005-.036-.078s-.02-.13-.025-.13-.012.114-.09.182c0 .006-.058.047-.1.032-.022-.006-.043-.042-.085-.11-.026-.037-.03-.047-.052-.052s-.038 0-.083.015zM28.2 20.764c0 .1-.052.13-.026.172a.076.076 0 0 0 .084.042c.015-.005.02-.02.03-.14s.006-.132 0-.142a.056.056 0 0 0-.072.015.093.093 0 0 0-.016.054zM28.886 20.92c-.048.032-.052.032-.095.063a.375.375 0 0 0-.05.058c-.048.058.01.132.025.262.016.152-.036.246 0 .262s.074-.016.1-.052c.068-.11-.068-.24 0-.367a.52.52 0 0 1 .073-.088c.06-.053.1-.053.116-.095a.09.09 0 0 0-.02-.1.063.063 0 0 0-.034-.02c-.03-.005-.052.03-.114.08zM21.92 21.062c-.042.015-.074-.042-.127-.02a.11.11 0 0 0-.068.1c.006.078.116.146.21.135a.2.2 0 0 0 .12-.062c.052-.063.047-.142.037-.293-.027-.3-.042-.372-.01-.387s.072.057.2.157.245.2.35.167c.057-.017.104-.09.193-.242.078-.13.068-.15.115-.188.1-.09.2-.016.293-.094a.378.378 0 0 0 .078-.314.687.687 0 0 0-.13-.314c-.036-.052-.23-.34-.38-.3a.12.12 0 0 0-.085.074c0 .015-.016.073.12.224.11.126.136.11.19.183.077.104.13.277.06.345-.046.047-.15.026-.218-.016-.047-.032-.058-.064-.115-.168-.1-.152-.163-.267-.257-.272-.036-.006-.078 0-.09.03s.012.08.106.19c.147.177.158.172.18.224a.386.386 0 0 1-.033.3c-.026.052-.073.15-.146.156s-.15-.1-.28-.292c-.1-.152-.132-.236-.19-.236s-.094.115-.1.12c-.026.09.01.13.03.3a1.08 1.08 0 0 1 0 .235c-.004.23-.035.25-.05.255zM21.564 20.44c-.037-.016-.11-.022-.137.015-.047.052.032.215.11.215.047-.006.08-.058.084-.063a.115.115 0 0 0 .022-.11.132.132 0 0 0-.078-.058zM21.537 19.9c.005.03-.073.042-.13.13-.016.02-.048.068-.032.105a.086.086 0 0 0 .068.042c.084 0 .152-.105.21-.194a.217.217 0 0 0 .057-.12c-.005-.115-.173-.193-.288-.2-.03 0-.084-.01-.1.016s0 .077.026.11c.074.085.19.074.19.11zM22.03 19.576c-.033.016-.07-.026-.1-.01s-.033.068-.038.073a.1.1 0 0 0 .026.072.124.124 0 0 0 .13.027.165.165 0 0 0 .084-.075c.016-.036 0-.047.016-.073s.037-.026.14-.047.106-.026.122-.047a.135.135 0 0 0 .036-.094.25.25 0 0 0-.083-.188c-.027-.027-.1-.11-.173-.09-.03.01-.068.037-.063.063s.068.026.11.088a.1.1 0 0 1 .026.09.087.087 0 0 1-.042.067c-.046.016-.1-.057-.134-.036-.01 0-.01.014-.022.067s-.02.1-.035.11zM21.867 19.142c-.026.032.036.11.063.142s.036.036.046.036.027-.047.027-.073a.1.1 0 0 0-.032-.08c-.035-.03-.088-.04-.103-.025zM22.5 18.572a.164.164 0 0 0-.094.094c-.015.032-.036.1-.015.12s.116-.04.158-.088c.02-.02.088-.09.068-.126-.016-.02-.08-.015-.116 0zM22.88 18.394c-.02.168.127.236.3.523.09.142.07.152.236.45.08.13.157.267.3.3.026 0 .074.02.094-.006s-.04-.15-.146-.318c-.31-.476-.3-.43-.36-.55-.074-.14-.158-.28-.23-.422-.032-.063-.064-.136-.11-.136s-.072.092-.083.16zM23.514 17.96c-.015.02 0 .053.01.115.027.09.048.09.048.126-.006.064-.084.074-.09.142 0 .026.01.063.032.073.063.027.246-.136.23-.3a.182.182 0 0 0-.063-.13c-.056-.046-.14-.056-.166-.025zM25.5 18.227c-.073 0-.1.068-.2.152-.125.093-.21.1-.2.14s.085.063.152.063c.2 0 .4-.225.356-.31-.028-.035-.08-.046-.108-.046zM25.01 19c-.026.068.02.157.073.157s.068-.042.084-.068c.02-.048.026-.132-.02-.153s-.11.012-.137.063zM26.04 17.406c-.036 0-.078.073-.115.146s-.052.13-.072.13c-.038 0-.053-.114-.09-.12s-.037.137-.125.184a.2.2 0 0 1-.173-.01c-.068-.037-.063-.1-.11-.11-.03-.006-.052.026-.157.125a.937.937 0 0 1-.146.127.32.32 0 0 1-.2.03c-.115-.04-.105-.177-.194-.192s-.16.068-.2.14a.254.254 0 0 0 .037.31c.067.036.135-.048.235-.006.01.004.073.03.083.083s-.042.115-.12.188c-.105.106-.178.18-.225.22a.958.958 0 0 1-.157-.318l-.072-.293c-.037-.153-.042-.23-.094-.247s-.1.02-.126.063c-.042.068 0 .15.032.246.094.26.036.245.12.465a.868.868 0 0 0 .116.214c-.147.08-.242.1-.29.2-.004.007-.046.116-.01.148.053.047.215-.052.4-.178l.022.037a.784.784 0 0 1 .08.664.643.643 0 0 1-.456.273.437.437 0 0 1-.267-.032c-.167-.082-.2-.3-.267-.28-.026 0-.036.04-.046.072a.36.36 0 0 0 .04.267.48.48 0 0 0 .378.187.774.774 0 0 0 .61-.293.872.872 0 0 0 .216-.486 1 1 0 0 0-.11-.5l-.016-.03a1.06 1.06 0 0 0 .31-.268c.093-.152.05-.215.172-.413.062-.1.162-.257.283-.257.088 0 .114.08.213.068s.1-.057.183-.073c.117-.016.153.058.242.03a.238.238 0 0 0 .14-.14c.07-.155-.012-.364-.072-.37zm-1.35.633c-.015.01-.067-.022-.083-.07-.01-.025-.01-.062 0-.067s.026.01.053.036a.238.238 0 0 1 .042.036c.005.024.005.058-.01.063zM27.447 18.384c-.2 0-.5-.01-.518-.084 0-.02.015-.036.12-.115a3.663 3.663 0 0 1 .308-.225c.183-.083.257-.02.33-.1a.246.246 0 0 0 0-.314.2.2 0 0 0-.246-.042.106.106 0 0 0-.042.115c.026.036.1.01.12.05s-.03.09-.036.096a.29.29 0 0 1-.2.094.907.907 0 0 0-.455.214c-.08.08-.153.215-.1.293.02.042.094.063.245.105s.2.047.2.078-.067.058-.157.14a.57.57 0 0 0-.115.148c-.026-.047-.052-.09-.073-.13-.178-.3-.26-.456-.277-.5-.09-.278-.032-.456-.162-.534-.04-.02-.11-.042-.146-.01-.015.01-.052.04-.025.188a1.347 1.347 0 0 0 .176.4c.115.225.178.34.152.47-.01.07-.037.116-.042.163a3.752 3.752 0 0 1-.42.3.44.44 0 0 1-.333.052.123.123 0 0 1-.053-.037l.1-.126a2.182 2.182 0 0 0 .246-.4c.058-.147.12-.293.053-.387a.176.176 0 0 0-.18-.068.147.147 0 0 0-.104.108c0 .037.01.058.037.11a.664.664 0 0 1 .083.215c.006.078-.073.11-.2.25a.847.847 0 0 0-.11.147.887.887 0 0 1-.02-.413c0-.005.02-.037 0-.052s-.052-.016-.08 0a.112.112 0 0 0-.046.057.623.623 0 0 0 .037.382c.016.042.03.078.047.115a.693.693 0 0 1-.1.12c-.078.083-.136.12-.246.25-.08.1-.12.157-.1.215a.086.086 0 0 0 .062.063c.08.015.147-.115.283-.3.09-.115.125-.157.167-.2a.288.288 0 0 0 .136.126c.167.073.35-.042.65-.23a.8.8 0 0 0 .2-.178.48.48 0 0 1 .078.03c.14.085.11.21.262.34.078.07.193.132.23.106.01-.01.026-.047-.142-.382-.026-.052-.047-.094-.073-.136.127-.24.252-.324.352-.35.135-.037.224.02.423-.037.14-.042.288-.13.277-.173s-.198-.015-.575-.02zM27.337 17.13a.456.456 0 0 0-.24.318c-.016.047-.01.057-.005.063.03.027.183-.083.287-.2.046-.046.146-.15.12-.193s-.11-.01-.163.012zM26.84 17.3c-.057-.01-.115.03-.22.115-.062.047-.072.068-.072.08.01.025.062.035.1.035.063 0 .11-.036.188-.094s.08-.09.08-.094c-.008-.03-.05-.042-.076-.042zM26.85 17.673a.207.207 0 0 1-.083.078c-.042.017-.068-.01-.09 0a.08.08 0 0 0-.01.11c.022.027.064.022.153.017a.186.186 0 0 0 .1-.026c.037-.04.016-.114 0-.15 0-.017-.02-.07-.04-.07s-.008.022-.03.043zM28.274 17.51a.257.257 0 0 0-.13.152c-.017.042-.038.084-.017.105s.073.01.11 0 .026-.037.094-.11a.133.133 0 0 0 .048-.063s.01-.047-.01-.068-.084-.015-.094-.015zM28.6 17.96c-.01.006.005.058.036.1a.27.27 0 0 0 .136.078c.064.016.074-.005.21 0 .073 0 .083 0 .1-.005.073-.047.026-.225.016-.25-.01-.053-.042-.142-.068-.137-.042.005-.027.24-.084.246-.03 0-.052-.063-.09-.058s-.036.12-.088.136-.15-.125-.168-.11zM28.78 17.558a.112.112 0 0 0 .09.136.1.1 0 0 0 .068-.115.082.082 0 0 0-.058-.075.088.088 0 0 0-.1.053zM27.52 18.776c-.036 0-.09.08-.11.168a.457.457 0 0 0 .042.26c.068.2.115.336.19.34.046 0 .082-.04.187-.177.287-.366.324-.366.334-.36.047.02-.105.282.01.475a.347.347 0 0 0 .33.168c.146-.037.162-.225.272-.225s.14.21.277.225c.094.01.178-.08.24-.152a.93.93 0 0 0 .2-.476c.053-.225.09-.4 0-.48-.068-.064-.2-.064-.23-.012-.016.032.047.074.073.173a.393.393 0 0 1 0 .214c-.068.414-.12.46-.146.476a.192.192 0 0 1-.146.042c-.084-.02-.12-.12-.13-.146a.3.3 0 0 1-.017-.158c.042-.366.1-.528.026-.664-.02-.032-.068-.084-.1-.08s-.058.09-.074.3c-.02.408.015.5-.063.612s-.194.157-.272.12c-.026-.01-.074-.052-.09-.26-.02-.372.1-.618.053-.644-.02-.01-.084.047-.256.267-.282.35-.377.507-.445.486-.036-.01-.057-.1-.094-.278-.036-.143-.03-.21-.063-.216zM30.256 18.89a1.464 1.464 0 0 1-.105-.292c.027-.062.053-.13.08-.21.115-.3.22-.464.146-.558a.135.135 0 0 0-.136-.047c-.084.03-.068.188-.11.413a1.305 1.305 0 0 1-.047.183c-.01-.017-.016-.038-.026-.054-.157-.282-.24-.235-.45-.59-.04-.063-.084-.147-.13-.137s-.1.146-.074.26c.037.168.215.194.4.367a.887.887 0 0 1 .2.32 1.7 1.7 0 0 0-.09.266c-.067.256-.03.23-.1.465-.06.215-.12.34-.067.387.032.032.105.02.157-.01.11-.073.084-.246.1-.45a1.672 1.672 0 0 1 .084-.43c.16.45.11.78.24.807a.14.14 0 0 0 .136-.063c.075-.11-.063-.284-.207-.63zM30.475 18.405c-.03 0-.068.047-.072.094-.006.067.067.135.14.156s.194-.016.21-.094a.1.1 0 0 0-.053-.12c-.047-.016-.083.057-.136.04s-.052-.077-.09-.077zM30.653 18.2c.063.073.24-.02.262-.032s.1-.047.094-.078-.084-.037-.163-.042c-.1-.01-.152-.016-.183.016a.12.12 0 0 0-.01.136zM29.79 19.812a.143.143 0 0 0-.02.14c.057.1.313.048.4.027a.91.91 0 0 0 .475-.215 1.146 1.146 0 0 0 .24-.508c.12-.376.063-.47.195-.627.083-.094.16-.13.177-.24a.455.455 0 0 0-.09-.268c-.035-.057-.05-.057-.062-.057-.042 0-.057.136-.068.2-.01.084 0 0-.2.617a3.762 3.762 0 0 1-.188.544c-.094.183-.142.277-.236.33-.237.13-.514-.08-.624.056zM31.58 18.326a1.253 1.253 0 0 0-.21.57 3.5 3.5 0 0 1-.36.89c.03.02.2-.215.208-.225.288-.4.2-.533.445-.883.11-.157.23-.283.188-.387a.134.134 0 0 0-.093-.073c-.016-.006-.08-.01-.178.11zM31.678 19.19c-.042.04-.09.114-.057.156.016.026.048.032.1.037.04.005.132.016.148-.016s-.026-.036-.047-.1-.005-.11-.025-.126-.085.023-.117.05zM31.49 19.7c-.01.042-.03.057-.026.073.01.032.09.032.115.032.255 0 .34.088.412.02.037-.03.063-.083.047-.115s-.1-.01-.24-.02c-.17-.016-.29-.08-.31-.042-.01.012 0 .017 0 .052zM33.127 19.142c-.057 0-.09.126-.188.335a3.744 3.744 0 0 1-.242.476c-.01-.078-.02-.183-.042-.3-.01-.084-.026-.162-.036-.24.057-.085.11-.174.167-.257s.12-.173.084-.236a.144.144 0 0 0-.16-.052c-.085.032-.1.157-.137.32a1.407 1.407 0 0 0-.194-.492c-.037-.053-.085-.11-.132-.1s-.094.115-.1.194c-.015.178.115.282.24.486a1.2 1.2 0 0 1 .08.167 3.83 3.83 0 0 0-.242.414 1.52 1.52 0 0 1-.235.423c-.025.026-.214.24-.308.194-.015-.01-.03-.026-.083-.293-.028-.135-.028-.172-.064-.2s-.105 0-.225.033a1.62 1.62 0 0 1-.308.115.247.247 0 0 1-.177-.016c-.1-.063-.063-.215-.142-.24a.1.1 0 0 0-.1.025c-.063.068-.026.24.073.33a.537.537 0 0 0 .565 0c.09-.047.132-.105.168-.09.064.038-.026.215.068.425a.283.283 0 0 0 .126.157c.167.067.408-.18.445-.216.277-.282.135-.44.423-.837.02-.026.042-.057.063-.09a3.566 3.566 0 0 1 .078.425c.007.03.007.068.012.1a.914.914 0 0 1-.068.09 1.32 1.32 0 0 0-.147.23.335.335 0 0 0-.046.22c.006.03.016.072.042.083.058.01.09-.225.23-.487.016.246 0 .408.058.424.03.005.078-.042.094-.084.03-.068 0-.125-.02-.225-.01-.057 0-.03-.027-.26v-.017a1.11 1.11 0 0 1 .147-.172 1.67 1.67 0 0 0 .355-.47.29.29 0 0 0 .015-.1c-.008-.087-.06-.186-.108-.192zM31.96 20.826a.12.12 0 0 0-.04.13c.04.137.412.216.694.106.163-.063.257-.183.445-.424.287-.36.25-.512.49-.716a.392.392 0 0 0 .1-.152c.064-.167-.035-.382-.1-.377-.03 0-.05.058-.062.095-.084.224-.21.44-.293.664-.073.193-.235.617-.586.737a.616.616 0 0 1-.5.01c-.045-.032-.102-.09-.15-.074zM28.932 20.492l.816-.262-.857.424a2.678 2.678 0 0 0-1.4-.293 2.687 2.687 0 0 0-1.4.294l-.857-.424.816.262s-.226-.267-.257-.293c.026 0 .455.218.455.218l-.36-.49.68.407-.17-.324.34.278-.135-.57.508.538v-.38l.21.38.167-.575.173.576.21-.38v.38l.5-.538-.132.57.335-.277-.167.325.68-.408-.36.49s.433-.213.454-.218z"/></svg>