<svg xmlns="http://www.w3.org/2000/svg" viewBox="0 0 55 55"><path d="M49.472 35.267a22.994 22.994 0 0 1-1.8 3.88 23.4 23.4 0 0 1-12.4 10.32 23.278 23.278 0 0 1-15.534 0 23.38 23.38 0 0 1-14.2-14.2zM49.472 19.733H5.534a23.16 23.16 0 0 1 1.794-3.886 23.46 23.46 0 0 1 12.405-10.32 23.377 23.377 0 0 1 15.534 0 23.423 23.423 0 0 1 12.4 10.32 22.873 22.873 0 0 1 1.805 3.886z" fill="#fff"/><path d="M35.267 5.528v43.938a23.278 23.278 0 0 1-15.534 0V5.528a23.377 23.377 0 0 1 15.534 0z" fill="#db171d"/><path d="M50.8 27.5a23.333 23.333 0 0 1-1.328 7.767H5.534a23.278 23.278 0 0 1 0-15.534h43.938A23.29 23.29 0 0 1 50.8 27.5z" fill="#062a85"/><path fill="#fff" d="M17.124 25.617l.465 1.438h1.505l-1.218.884.465 1.438-1.218-.89-1.224.89.47-1.44-1.223-.883h1.51l.467-1.438zM37.882 25.617l.465 1.438h1.512l-1.225.884.466 1.438-1.218-.89-1.22.89.467-1.44-1.225-.883h1.51l.467-1.438zM23.787 20.445l.465 1.433h1.512l-1.224.89.465 1.432-1.218-.89-1.22.89.467-1.433-1.224-.89h1.51l.467-1.432zM31.22 20.445l.464 1.433h1.507l-1.218.89.465 1.432-1.218-.89-1.225.89.465-1.433-1.218-.89h1.51l.467-1.432zM23.787 30.795l.465 1.433h1.512l-1.224.89.465 1.432-1.218-.884-1.22.884.467-1.433-1.224-.89h1.51l.467-1.432zM31.22 30.795l.464 1.433h1.507l-1.218.89.465 1.432-1.218-.884-1.225.884.465-1.433-1.218-.89h1.51l.467-1.432z"/></svg>