<svg xmlns="http://www.w3.org/2000/svg" viewBox="0 0 55 55"><path d="M50.8 27.5a23.3 23.3 0 1 1-46.6 0z" fill="#1e1815"/><path d="M50.8 27.5H4.2a23.295 23.295 0 0 1 43.472-11.647A23.133 23.133 0 0 1 50.8 27.5z" fill="#d7241b"/><path fill="#f6d324" d="M26.522 16.82l.93 2.856h3.003l-2.432 1.768.93 2.855-2.43-1.77-2.428 1.77.926-2.856-2.426-1.768h3.002l.926-2.856zM25.3 29.77a.083.083 0 0 1-.016-.115.084.084 0 0 1 .116-.016l10.38 7.98c.088-.094.14-.157.14-.157l-.12-.094c-.517-.4-1.03-.8-1.548-1.2l-2.7-2.088q-1.5-1.152-3-2.316c-.815-.64-1.637-1.27-2.452-1.9-.36-.277-.722-.56-1.072-.848a20.03 20.03 0 0 1-1.978-1.8 4.89 4.89 0 0 1-.784-.952 9.016 9.016 0 0 1-.554-1.14 13.12 13.12 0 0 0-.56 1.308 3.7 3.7 0 0 0-.1 1.516c.23 1.648 1.584 2.86 2.9 3.735 4.916 3.11 10.82 7.113 10.82 7.113l.9-1.04zM40.036 40.8c-.177-.178-3.87-3.1-3.87-3.1l-.946 1.166 3.07 2.364s.288.905.94.947a.885.885 0 0 0 .942-.607.83.83 0 0 0-.136-.77zm-2.913-1.538a.15.15 0 1 1 0-.3.15.15 0 0 1 0 .3zm.743.576a.152.152 0 1 1 .152-.152.152.152 0 0 1-.152.147zm.706.55a.15.15 0 0 1-.15-.148.15.15 0 1 1 .3 0 .15.15 0 0 1-.15.142zM23.61 35.55a10.54 10.54 0 0 1-5.655-2.2l-1.04 1.307c.313.246.632.476.967.69l-.445 1.125 1.815.93.66-1.014a12.393 12.393 0 0 0 2.43.69l.023 1.214 2.028.167.22-1.2a12.045 12.045 0 0 0 2.51-.288l.482 1.114 1.94-.628-.256-1.182c.218-.094.433-.193.642-.3l-1.674-1.088a10.478 10.478 0 0 1-4.65.66zM37.75 27.113l.168-2.035-1.2-.214a11.768 11.768 0 0 0-.288-2.51l1.114-.487-.628-1.94-1.182.256a12.418 12.418 0 0 0-1.23-2.207l.843-.873-1.318-1.554-1 .69a12.275 12.275 0 0 0-1.984-1.57l.445-1.13-1.808-.93-.66 1.02a12.22 12.22 0 0 0-1.96-.6l-.325 1.643a10.58 10.58 0 0 1 4.456 18.5l2.228 1.82.5-.423-.7-.994a12.028 12.028 0 0 0 1.575-1.982l1.13.444.93-1.814-1.02-.654a12.153 12.153 0 0 0 .692-2.432z"/></svg>