<svg xmlns="http://www.w3.org/2000/svg" viewBox="0 0 55 55"><path d="M50.8 27.5a23.14 23.14 0 0 1-1.334 7.767H5.528a23.377 23.377 0 0 1 0-15.534h43.938A23.14 23.14 0 0 1 50.8 27.5z" fill="#fff"/><path d="M49.466 19.733H5.528a23.308 23.308 0 0 1 43.938 0zM49.466 35.267a23.314 23.314 0 0 1-43.938 0z" fill="#74abde"/><path d="M29.278 23.206l-.837 1.81c-.04-.016-.082-.032-.13-.047l1.596-3.4a.04.04 0 0 1 .057-.022.046.046 0 0 1 .027.058l-1.282 3.53a.834.834 0 0 0-.12-.058zM27.918 24.88a4.356 4.356 0 0 1 .22-1.45 2.148 2.148 0 0 1 .11-.22 2.227 2.227 0 0 0 .105-.218 2.25 2.25 0 0 0 .146-.55 1.455 1.455 0 0 0 .01-.308 1.938 1.938 0 0 1 0-.24.886.886 0 0 1 .104-.35.623.623 0 0 1 .215-.242h-.007a.565.565 0 0 1-.073.136.686.686 0 0 0-.11.24 1.713 1.713 0 0 0 .026.435 2.7 2.7 0 0 1 .042.366 3.1 3.1 0 0 1-.245.904 2.784 2.784 0 0 0-.184.78 3.445 3.445 0 0 0-.022.4 1.143 1.143 0 0 1-.057.37c-.025-.005-.057-.015-.088-.02a1.5 1.5 0 0 0 .02-.19c.01-.088.017-.187.022-.3s0-.224 0-.34a1.723 1.723 0 0 1 .047-.334 2.6 2.6 0 0 1 .08-.287c.03-.08.057-.147.073-.194a.362.362 0 0 0 .026-.074l-.032.068c-.02.047-.047.115-.084.193s-.068.178-.1.283a3.05 3.05 0 0 0-.068.34c-.015.115-.015.235-.026.34s-.02.21-.03.293c-.012.068-.027.13-.032.177a.625.625 0 0 0-.09-.01zM27.28 24.854l.173-3.756c0-.036.037-.04.047-.04a.04.04 0 0 1 .042.04l.172 3.756c-.047-.006-.088-.006-.136-.01l-.078-1.988-.078 1.987c-.048.005-.095.005-.142.01zM26.38 22.155a1.888 1.888 0 0 1-.093-.22.865.865 0 0 1-.037-.366.59.59 0 0 1 .105-.3.784.784 0 0 1-.02.15.92.92 0 0 0-.012.267 1.76 1.76 0 0 0 .194.392 2.386 2.386 0 0 1 .178.324 3.114 3.114 0 0 1 .12.925 2.8 2.8 0 0 0 .125.79c.042.125.084.25.136.38a1.3 1.3 0 0 1 .095.367l-.094.016a1.777 1.777 0 0 0-.047-.183c-.027-.084-.063-.183-.1-.283s-.09-.21-.127-.32a2.06 2.06 0 0 1-.083-.323 2.088 2.088 0 0 1-.036-.3c-.006-.084-.006-.157-.01-.21a2.137 2.137 0 0 0-.007.215c0 .083.006.187.017.3a1.53 1.53 0 0 0 .067.334c.027.115.074.225.106.33s.057.2.078.282c.016.068.032.125.042.172-.03.006-.063.016-.094.02a4.166 4.166 0 0 1-.345-1.42 1.8 1.8 0 0 1 .01-.242 1.848 1.848 0 0 0 .016-.246 2.25 2.25 0 0 0-.073-.56 1.826 1.826 0 0 0-.11-.295zM25.722 23.206l.69 1.872c-.04.016-.084.037-.125.058l-1.276-3.53a.042.042 0 0 1 .027-.058c.005 0 .036-.016.057.02l1.59 3.4-.13.048zM25.513 24.655c.073.094.15.183.22.26a2.76 2.76 0 0 1 .182.23l.105.148c-.026.02-.052.037-.08.057a4.242 4.242 0 0 1-.862-1.182c-.03-.073-.057-.15-.083-.23a1.64 1.64 0 0 0-.08-.23 2.152 2.152 0 0 0-.28-.49 1.7 1.7 0 0 0-.216-.226 1.81 1.81 0 0 1-.168-.173.784.784 0 0 1-.172-.32.57.57 0 0 1-.02-.32l.04.147a.664.664 0 0 0 .09.25 1.65 1.65 0 0 0 .33.284 3.228 3.228 0 0 1 .282.236 2.973 2.973 0 0 1 .47.81 2.64 2.64 0 0 0 .42.68c.082.1.17.2.27.3a1.216 1.216 0 0 1 .225.3v.007a.6.6 0 0 0-.078.047 1.937 1.937 0 0 0-.12-.152 2.48 2.48 0 0 0-.2-.225c-.08-.078-.163-.157-.237-.246a1.93 1.93 0 0 1-.2-.267c-.057-.094-.1-.183-.14-.256s-.07-.146-.09-.193a.336.336 0 0 1-.03-.073.27.27 0 0 0 .026.074 2.032 2.032 0 0 0 .077.2 2.284 2.284 0 0 0 .125.268 2.074 2.074 0 0 0 .19.287zM24.216 24.216l1.354 1.464c-.03.03-.063.063-.094.1l-2.53-2.772a.043.043 0 0 1 0-.062.04.04 0 0 1 .06-.006l2.78 2.537c-.038.03-.075.063-.106.094zM23.823 25.167a1.363 1.363 0 0 0-.162-.183 2.24 2.24 0 0 0-.45-.345 1.215 1.215 0 0 0-.28-.126c-.074-.032-.153-.058-.22-.095a.752.752 0 0 1-.283-.23.55.55 0 0 1-.14-.288c.03.036.06.078.093.12a.646.646 0 0 0 .178.2 1.648 1.648 0 0 0 .413.136 2.428 2.428 0 0 1 .35.1 3.135 3.135 0 0 1 .75.57 2.592 2.592 0 0 0 .648.47 2.655 2.655 0 0 0 .366.174 1.31 1.31 0 0 1 .32.193h.004l-.058.073c-.04-.02-.1-.057-.167-.088a2.586 2.586 0 0 0-.272-.13c-.1-.048-.208-.09-.307-.137a2.307 2.307 0 0 1-.293-.173 2.227 2.227 0 0 1-.23-.183c-.068-.057-.12-.11-.157-.146a.274.274 0 0 0-.047-.04.316.316 0 0 0 .047.046c.03.037.083.09.147.152a2.814 2.814 0 0 0 .22.2 2.4 2.4 0 0 0 .286.194c.1.057.21.1.3.157s.183.1.256.14.115.073.152.1l-.047.08a4.29 4.29 0 0 1-1.256-.76c-.052-.057-.104-.12-.157-.183zM24.974 26.684l-3.405-1.59a.05.05 0 0 1-.022-.063.052.052 0 0 1 .058-.025l3.53 1.282c-.02.04-.037.083-.058.125l-1.867-.69 1.8.83a1.105 1.105 0 0 0-.036.132zM21.543 26.38a.628.628 0 0 1-.24-.208h.005c.042.02.083.047.13.073a.7.7 0 0 0 .24.115 1.676 1.676 0 0 0 .435-.032 2.157 2.157 0 0 1 .366-.036 2.882 2.882 0 0 1 .904.24 2.78 2.78 0 0 0 .78.19c.13.01.26.014.4.014a1.3 1.3 0 0 1 .37.058c-.005.03-.015.057-.02.09-.048 0-.11-.017-.19-.022a2.38 2.38 0 0 0-.3-.016h-.34a2.18 2.18 0 0 1-.333-.052 2.376 2.376 0 0 1-.282-.08 1.915 1.915 0 0 1-.2-.072.32.32 0 0 0-.068-.02.424.424 0 0 1 .063.025c.047.02.115.053.193.084s.178.07.283.1a2.132 2.132 0 0 0 .34.07c.114.015.234.02.34.025s.208.02.292.037.13.02.177.03c0 .033-.01.06-.016.09a4.206 4.206 0 0 1-1.45-.22c-.072-.03-.145-.067-.22-.104a1.494 1.494 0 0 0-.218-.11 2.458 2.458 0 0 0-.544-.146 2.083 2.083 0 0 0-.314-.01 1.142 1.142 0 0 1-.24 0 .736.736 0 0 1-.345-.11zM21.1 27.453l3.75-.173a1.116 1.116 0 0 0-.006.142l-1.992.078 1.992.073a1.11 1.11 0 0 0 .006.14l-3.75-.17a.042.042 0 0 1-.047-.043.045.045 0 0 1 .047-.047zM21.27 28.64c.048 0 .095.01.147.02a.69.69 0 0 0 .272.012 1.53 1.53 0 0 0 .386-.194 2.3 2.3 0 0 1 .325-.173 2.96 2.96 0 0 1 .926-.125 2.814 2.814 0 0 0 .8-.126c.12-.036.245-.083.38-.136a1.3 1.3 0 0 1 .362-.094l.016.094c-.047.01-.11.032-.183.053s-.182.058-.282.1-.21.09-.32.127a2.526 2.526 0 0 1-.323.083c-.11.016-.21.026-.293.032s-.162.01-.214.01h-.08a.565.565 0 0 0 .08 0c.052 0 .126.006.214.006s.188-.006.3-.02a1.974 1.974 0 0 0 .335-.064c.115-.03.225-.073.33-.11s.2-.057.282-.078c.067-.016.124-.027.17-.037.007.03.017.057.022.088a4.168 4.168 0 0 1-1.417.35 2.03 2.03 0 0 1-.246-.015l-.247-.016a2.513 2.513 0 0 0-.56.073 1.784 1.784 0 0 0-.292.115 1.843 1.843 0 0 1-.22.09.806.806 0 0 1-.365.036.59.59 0 0 1-.3-.104zM21.606 29.99a.046.046 0 0 1-.058-.027.04.04 0 0 1 .02-.057l3.406-1.595a.825.825 0 0 0 .042.13l-1.8.833 1.867-.69c.02.04.038.083.058.125zM23.1 30.193a3.01 3.01 0 0 1 .81-.465 2.812 2.812 0 0 0 .68-.424 2.75 2.75 0 0 0 .3-.272 1.207 1.207 0 0 1 .3-.22h.007c.015.027.03.058.047.084-.042.026-.09.068-.152.115s-.14.127-.225.2-.157.163-.24.236a1.77 1.77 0 0 1-.273.2c-.088.058-.177.105-.256.147l-.193.09a.268.268 0 0 1-.068.025c.01 0 .036-.01.073-.02s.115-.048.193-.08.173-.078.272-.13a2.445 2.445 0 0 0 .283-.19c.094-.072.183-.155.26-.223s.163-.13.23-.184.11-.072.153-.1c.017.022.033.048.053.074a4.34 4.34 0 0 1-1.182.87 2.378 2.378 0 0 1-.23.077c-.072.027-.15.048-.23.08a2.874 2.874 0 0 0-.49.282 1.463 1.463 0 0 0-.225.22c-.053.057-.11.115-.168.167a.93.93 0 0 1-.323.17.657.657 0 0 1-.325.022h.004a.644.644 0 0 1 .146-.04.747.747 0 0 0 .25-.096 1.58 1.58 0 0 0 .29-.324 2.452 2.452 0 0 1 .23-.29zM24.216 30.78l1.464-1.35a.822.822 0 0 0 .105.09l-2.778 2.535a.044.044 0 0 1-.062-.062l2.53-2.778c.032.037.064.068.095.105zM26.11 29.76a4.188 4.188 0 0 1-.76 1.25 1.916 1.916 0 0 1-.182.162c-.063.052-.126.1-.184.162a2.7 2.7 0 0 0-.345.45 1.764 1.764 0 0 0-.126.287 1.9 1.9 0 0 1-.095.22.845.845 0 0 1-.23.283.6.6 0 0 1-.288.14 1.132 1.132 0 0 1 .12-.093.735.735 0 0 0 .2-.183 1.58 1.58 0 0 0 .136-.413 2.638 2.638 0 0 1 .1-.35 3.1 3.1 0 0 1 .57-.743 2.713 2.713 0 0 0 .47-.648 3.442 3.442 0 0 0 .174-.366 1.368 1.368 0 0 1 .193-.324.776.776 0 0 1 .073.058c-.02.04-.052.094-.088.162s-.09.172-.13.272-.084.21-.137.313a2.5 2.5 0 0 1-.173.288c-.063.09-.125.167-.183.235s-.11.116-.14.152a.34.34 0 0 0-.053.058.453.453 0 0 1 .052-.053c.037-.036.094-.083.152-.146a2.7 2.7 0 0 0 .392-.506c.058-.105.11-.21.157-.31a2.78 2.78 0 0 1 .146-.255c.037-.064.07-.11.094-.153.03.016.056.037.082.052zM25.722 31.79l.83-1.81.133.046-1.59 3.4c-.022.036-.053.026-.058.02a.04.04 0 0 1-.026-.057l1.277-3.53a1.153 1.153 0 0 0 .125.056zM26.172 33.692a.966.966 0 0 1 .073-.13.72.72 0 0 0 .115-.246 1.488 1.488 0 0 0-.032-.434 2.68 2.68 0 0 1-.036-.366 3.23 3.23 0 0 1 .24-.9 2.58 2.58 0 0 0 .19-.78c.01-.125.02-.256.02-.4a1.307 1.307 0 0 1 .052-.37c.03 0 .063.015.09.02 0 .053-.017.115-.022.19 0 .088-.016.192-.016.3v.34s-.027.224-.048.33-.057.2-.084.286a2.037 2.037 0 0 1-.073.2.683.683 0 0 1-.025.068c0-.01.016-.037.03-.068.022-.047.054-.115.085-.194a2.034 2.034 0 0 0 .1-.282 1.73 1.73 0 0 0 .07-.335c.014-.12.02-.234.024-.344s.027-.2.037-.293c.012-.068.022-.125.032-.172l.09.016a4.083 4.083 0 0 1-.22 1.444 1.63 1.63 0 0 1-.105.22 2.306 2.306 0 0 0-.105.22 2.262 2.262 0 0 0-.15.548 1.5 1.5 0 0 0 0 .314v.235a.817.817 0 0 1-.11.35.653.653 0 0 1-.21.247zM27.453 33.9l-.173-3.755a1.337 1.337 0 0 0 .142.01l.078 1.988.078-1.987a1.226 1.226 0 0 0 .136-.01l-.172 3.754a.04.04 0 0 1-.042.042c-.01-.004-.047-.01-.047-.042zM27.918 30.5a1.315 1.315 0 0 1-.09-.366c.033-.006.06-.006.09-.01.016.046.032.11.053.177.027.085.058.184.1.29s.09.2.127.313a2.6 2.6 0 0 1 .083.33c.016.104.027.2.032.292s.01.157.01.21a.483.483 0 0 0 0 .078v-.08c0-.05.006-.124.006-.208s-.006-.194-.016-.3a2.92 2.92 0 0 0-.068-.34c-.03-.115-.073-.225-.105-.324s-.063-.2-.084-.282-.027-.13-.037-.178a.4.4 0 0 0 .088-.02 4.117 4.117 0 0 1 .35 1.422 2.185 2.185 0 0 1-.015.246c-.006.078-.016.157-.016.24a2.973 2.973 0 0 0 .073.565 1.788 1.788 0 0 0 .116.288 1.94 1.94 0 0 1 .088.22.813.813 0 0 1 .037.367.618.618 0 0 1-.1.308v-.005a.837.837 0 0 1 .017-.152.664.664 0 0 0 .01-.266 1.378 1.378 0 0 0-.193-.387 3.6 3.6 0 0 1-.172-.325 2.97 2.97 0 0 1-.126-.93 2.6 2.6 0 0 0-.126-.79 2.88 2.88 0 0 0-.132-.38zM29.906 33.426l-1.595-3.4c.048-.016.09-.03.13-.047l.838 1.81-.69-1.874a1.072 1.072 0 0 0 .125-.057l1.277 3.53a.044.044 0 0 1-.027.057.04.04 0 0 1-.057-.02zM29.032 30.105a1.21 1.21 0 0 1-.22-.3.91.91 0 0 0 .084-.047c.026.037.068.09.115.147s.127.146.2.225.163.157.242.246a2.235 2.235 0 0 1 .2.266 2.734 2.734 0 0 1 .147.262c.035.078.067.14.088.188a.49.49 0 0 0 .026.063.015.015 0 0 1 .005.01.015.015 0 0 0-.006-.01.436.436 0 0 0-.02-.063c-.022-.047-.048-.115-.08-.2a2.46 2.46 0 0 0-.13-.266 2.187 2.187 0 0 0-.19-.288c-.072-.094-.15-.178-.223-.262s-.13-.162-.183-.23-.073-.11-.1-.146a.548.548 0 0 1 .073-.052 4.107 4.107 0 0 1 .87 1.176 1.682 1.682 0 0 1 .077.23c.026.08.047.157.078.23a2.694 2.694 0 0 0 .283.492 1.834 1.834 0 0 0 .22.23c.057.053.115.11.167.168a.817.817 0 0 1 .173.324.62.62 0 0 1 .02.314.618.618 0 0 1-.04-.147.78.78 0 0 0-.09-.25 1.81 1.81 0 0 0-.33-.283 3.28 3.28 0 0 1-.288-.23 2.972 2.972 0 0 1-.465-.816 2.753 2.753 0 0 0-.424-.68 3.3 3.3 0 0 0-.278-.3zM30.784 30.78l-1.354-1.46c.03-.037.063-.068.09-.105l2.535 2.772a.04.04 0 0 1-.005.063.034.034 0 0 1-.057.005l-2.778-2.536c.037-.027.068-.06.105-.09zM29.916 29.32a1.22 1.22 0 0 1-.324-.193l.058-.074c.04.026.1.058.162.094s.172.084.272.13.21.085.314.137a2.1 2.1 0 0 1 .287.168c.09.062.167.13.236.188s.116.1.152.14a.61.61 0 0 1 .052.048l-.046-.052c-.037-.037-.084-.09-.147-.152a2.122 2.122 0 0 0-.224-.2 2.22 2.22 0 0 0-.282-.193c-.105-.057-.21-.1-.31-.156a2.806 2.806 0 0 1-.255-.14c-.06-.038-.11-.074-.153-.1a.322.322 0 0 0 .052-.074 4.186 4.186 0 0 1 1.25.753c.057.058.11.12.162.183a2.352 2.352 0 0 0 .162.183 2.224 2.224 0 0 0 .45.345 1.42 1.42 0 0 0 .288.13 1.894 1.894 0 0 1 .22.09.87.87 0 0 1 .28.23.615.615 0 0 1 .142.287 1.244 1.244 0 0 1-.094-.12.714.714 0 0 0-.182-.194 1.426 1.426 0 0 0-.41-.14 2.027 2.027 0 0 1-.354-.106 3.052 3.052 0 0 1-.743-.57 2.776 2.776 0 0 0-.648-.47c-.115-.057-.235-.114-.366-.172zM33.426 29.906a.04.04 0 0 1 .02.057c0 .01-.015.037-.052.027l-3.535-1.282.062-.125 1.867.69-1.81-.832.046-.13zM33.452 28.614a.58.58 0 0 1 .246.214h-.005a.538.538 0 0 1-.13-.073.773.773 0 0 0-.247-.115 1.676 1.676 0 0 0-.43.03 2.776 2.776 0 0 1-.365.043 3.064 3.064 0 0 1-.91-.246 2.587 2.587 0 0 0-.773-.183 3.533 3.533 0 0 0-.408-.02 1.134 1.134 0 0 1-.367-.058c.01-.032.015-.058.026-.09.046.006.108.017.182.022.09.01.193.016.3.02s.225 0 .34 0a1.767 1.767 0 0 1 .335.048 2.5 2.5 0 0 1 .282.08c.083.03.15.056.2.072l.067.026c-.01 0-.03-.016-.068-.03s-.11-.054-.195-.085-.177-.07-.282-.1a2.336 2.336 0 0 0-.335-.07c-.12-.014-.235-.014-.345-.025s-.2-.02-.293-.036c-.068-.012-.125-.022-.172-.033 0-.026.01-.057.015-.09a4.222 4.222 0 0 1 1.444.22 1.66 1.66 0 0 1 .22.11c.073.038.146.074.22.106a2.25 2.25 0 0 0 .548.146 2.06 2.06 0 0 0 .314.01 1.842 1.842 0 0 1 .234 0 .862.862 0 0 1 .348.104zM33.9 27.453a.04.04 0 0 1 .042.047.037.037 0 0 1-.042.042l-3.75.172c0-.047.006-.094.006-.14l1.992-.074-1.992-.078c0-.048-.006-.095-.006-.142zM33.73 26.355a.865.865 0 0 1-.153-.02.762.762 0 0 0-.266-.012 1.723 1.723 0 0 0-.386.194 3.1 3.1 0 0 1-.325.178 3.19 3.19 0 0 1-.932.12 2.828 2.828 0 0 0-.79.125c-.125.037-.245.084-.38.136a1.318 1.318 0 0 1-.362.095.615.615 0 0 0-.01-.094 1.438 1.438 0 0 0 .182-.052c.084-.026.178-.057.283-.1s.21-.084.315-.12a1.512 1.512 0 0 1 .33-.084 2.094 2.094 0 0 1 .292-.037c.09-.005.157-.005.21-.01h.078a.773.773 0 0 1-.08-.006h-.208c-.09 0-.188.006-.3.016a2.022 2.022 0 0 0-.34.063c-.115.03-.225.073-.324.11s-.2.057-.283.078-.13.032-.178.037c0-.025-.01-.057-.015-.088a4.28 4.28 0 0 1 1.417-.35c.084 0 .162.01.246.015a1.76 1.76 0 0 0 .24.016 2.262 2.262 0 0 0 .565-.073 1.564 1.564 0 0 0 .293-.115c.068-.032.147-.063.22-.09a.85.85 0 0 1 .36-.036.593.593 0 0 1 .31.104zM33.39 25.005a.045.045 0 0 1 .057.026.046.046 0 0 1-.02.064l-3.4 1.59c-.017-.042-.032-.09-.047-.13l1.81-.832-1.868.69-.063-.125zM29.806 26.187l-.047-.078c.036-.033.088-.074.146-.12a2.62 2.62 0 0 0 .225-.2c.08-.08.158-.163.247-.237a1.983 1.983 0 0 1 .266-.2 2.8 2.8 0 0 1 .262-.14c.078-.043.146-.07.188-.09l.068-.03a.3.3 0 0 0-.067.025 1.854 1.854 0 0 0-.193.08 2 2 0 0 0-.272.124 2.14 2.14 0 0 0-.288.194c-.094.068-.178.15-.262.22a2.815 2.815 0 0 1-.23.182c-.057.042-.1.08-.146.105-.016-.026-.036-.052-.052-.08a4.206 4.206 0 0 1 1.176-.862 1.638 1.638 0 0 1 .236-.08 1.888 1.888 0 0 0 .225-.08 2.208 2.208 0 0 0 .5-.28 1.7 1.7 0 0 0 .225-.216 1.763 1.763 0 0 1 .168-.167.774.774 0 0 1 .324-.172.6.6 0 0 1 .32-.027v.006a1.246 1.246 0 0 1-.147.036.773.773 0 0 0-.257.094 1.65 1.65 0 0 0-.282.33 2.437 2.437 0 0 1-.23.282 3.068 3.068 0 0 1-.816.47 2.75 2.75 0 0 0-.68.42c-.1.083-.2.172-.3.27a1.37 1.37 0 0 1-.306.22zM30.784 24.216L29.32 25.57c-.037-.03-.068-.063-.105-.094l2.772-2.53c.032-.033.058-.012.063 0a.038.038 0 0 1 .005.06L29.52 25.78c-.027-.032-.06-.07-.09-.1zM29.064 25.136c-.037.063-.068.115-.094.152l-.08-.047a4.235 4.235 0 0 1 .76-1.255 1.465 1.465 0 0 1 .183-.162c.057-.052.12-.1.177-.162a2.455 2.455 0 0 0 .35-.45 1.908 1.908 0 0 0 .126-.28c.027-.08.058-.153.09-.22a.78.78 0 0 1 .235-.283.548.548 0 0 1 .288-.147v.006a.85.85 0 0 1-.12.094.69.69 0 0 0-.194.178 1.554 1.554 0 0 0-.14.413 2.7 2.7 0 0 1-.1.35 2.914 2.914 0 0 1-.577.744 2.74 2.74 0 0 0-.465.648c-.063.115-.12.236-.178.366a1.35 1.35 0 0 1-.188.325h-.005c-.02-.016-.047-.037-.073-.053.026-.047.058-.1.094-.167s.085-.173.132-.272.084-.208.136-.307a1.765 1.765 0 0 1 .173-.293 1.636 1.636 0 0 1 .184-.23c.057-.068.105-.12.14-.157a.52.52 0 0 1 .053-.053c-.01.006-.026.02-.057.047s-.09.09-.152.147-.13.14-.2.225a1.915 1.915 0 0 0-.193.286c-.058.1-.1.21-.152.3s-.102.187-.15.26z" fill="#f5b31a"/><path d="M29.906 31.156a.015.015 0 0 1 .005.01.015.015 0 0 0-.004-.01z" fill="#83330b"/><path d="M28.468 26.993a.617.617 0 0 1 .272.188.476.476 0 0 1-.32.147.184.184 0 0 0 .136-.177.182.182 0 0 0-.088-.157zM28.065 27.165a.414.414 0 0 1 .246-.183.182.182 0 0 0-.12.168.175.175 0 0 0 .095.156.43.43 0 0 1-.22-.14z" fill="#f5b31a"/><path d="M28.373 26.92a.608.608 0 0 0-.45.245.672.672 0 0 0 .953.032.752.752 0 0 0-.503-.278zm-.088.386a.43.43 0 0 1-.22-.14.434.434 0 0 1 .246-.19.183.183 0 0 0-.114.174.18.18 0 0 0 .09.156zm.135.016a.178.178 0 0 0 .136-.172.182.182 0 0 0-.088-.157.577.577 0 0 1 .272.188.45.45 0 0 1-.32.142zM27.824 27.275c0-.037.064-.047.09-.037a.508.508 0 0 1 .05.037c.017.016.038.026.054.042a.7.7 0 0 0 .826-.026.487.487 0 0 1-.49.194.928.928 0 0 1-.457-.13c-.02-.016-.078-.054-.073-.08zM27.877 27.13a.108.108 0 0 1-.08 0c-.014-.007-.04-.012-.046-.033-.004-.047.095-.047.12-.057.054-.02.08-.08.122-.115a.546.546 0 0 1 .554-.105.88.88 0 0 1 .33.188c.03.032.062.058.094.09a.243.243 0 0 1 .03.036s0 .026-.046 0a1.053 1.053 0 0 1-.09-.068 1.018 1.018 0 0 0-.083-.058.935.935 0 0 0-.386-.136.45.45 0 0 0-.2.027 1.418 1.418 0 0 0-.183.13c-.025.02-.056.036-.077.057s-.033.03-.056.042zM27.615 27.218a.8.8 0 0 0 .026.272.526.526 0 0 0 .074.172.21.21 0 0 0 .053.063c.01.01.047.037.042.052s-.012.016-.017.02a.086.086 0 0 1-.126-.035 1.192 1.192 0 0 1-.093-.7.775.775 0 0 1 .083-.325.415.415 0 0 1 .162-.15.865.865 0 0 1 .465-.127 1.04 1.04 0 0 1 .585.22.89.89 0 0 1 .25.235c-.03-.015-.06-.042-.088-.057a.8.8 0 0 0-.094-.053 1.625 1.625 0 0 0-.16-.083.945.945 0 0 0-1.043.11.3.3 0 0 0-.094.13 1.068 1.068 0 0 0-.025.256zM27.5 29.09a.357.357 0 0 0-.356.314v-.042a.356.356 0 0 1 .712 0c0 .016-.006.03-.006.042a.35.35 0 0 0-.35-.314z" fill="#83330b"/><path d="M27.18 28.75a.37.37 0 0 0-.193-.078v-.01a.974.974 0 0 1 .435.025.247.247 0 0 0 .152 0 .992.992 0 0 1 .44-.026v.012a.353.353 0 0 0-.195.078c-.032.026-.058.058-.095.084a.393.393 0 0 1-.225.078.408.408 0 0 1-.23-.078c-.032-.026-.058-.058-.09-.084z" fill="#f5b31a"/><path d="M27.04 28.217c-.136-.016-.168-.236 0-.356 0 0-.08.173.04.226s.163-.1.163-.1a.314.314 0 0 0 .524 0s.04.157.162.1.04-.225.04-.225c.163.12.132.34 0 .357-.172.02-.188-.058-.22-.142a.068.068 0 0 1-.01.02l-.016.017-.03.03a.5.5 0 0 1-.074.038.272.272 0 0 1-.11.026h-.016a.416.416 0 0 1-.125-.037.206.206 0 0 1-.1-.095c-.042.084-.058.162-.23.142zM26.987 28.66a.765.765 0 0 1 .45-.036.226.226 0 0 0 .12 0 .775.775 0 0 1 .456.037.992.992 0 0 0-.44.027.247.247 0 0 1-.15 0 .974.974 0 0 0-.436-.026z" fill="#83330b"/><path d="M26.987 28.672a.5.5 0 0 0-.125-.01.434.434 0 0 0 .235-.126.266.266 0 0 1 .147-.068c.11-.006.188.052.256.052s.146-.058.25-.052a.233.233 0 0 1 .147.068.447.447 0 0 0 .24.125.48.48 0 0 0-.124.012v-.01a.775.775 0 0 0-.455-.038.226.226 0 0 1-.12 0 .765.765 0 0 0-.45.037z" fill="#f5b31a"/><path d="M26.836 28.66h.026a.5.5 0 0 1 .125.012.37.37 0 0 1 .194.078c.032.026.058.058.09.084a.408.408 0 0 0 .23.078.393.393 0 0 0 .225-.078c.037-.026.063-.058.094-.084a.353.353 0 0 1 .193-.078.48.48 0 0 1 .125-.01h.026a.57.57 0 0 0-.345.193.43.43 0 0 1-.64 0 .57.57 0 0 0-.344-.194zM26.836 28.66a.216.216 0 0 0 .167-.12.37.37 0 0 1 .293-.187.338.338 0 0 1 .136.04c.037.022.068.043.068.043a.45.45 0 0 1 .2-.083.377.377 0 0 1 .293.188.216.216 0 0 0 .167.12h-.026a.447.447 0 0 1-.24-.124.233.233 0 0 0-.147-.068c-.105-.006-.188.052-.25.052s-.147-.058-.257-.052a.266.266 0 0 0-.147.068.434.434 0 0 1-.235.125h-.026z" fill="#83330b"/><path d="M26.8 27.15a.175.175 0 0 0-.12-.168.433.433 0 0 1 .25.183.43.43 0 0 1-.22.14.18.18 0 0 0 .09-.155z" fill="#f5b31a"/><path d="M26.647 27.484c-.38.026-.49-.193-.49-.193a.69.69 0 0 0 .82.027l.058-.042c.016-.01.03-.026.052-.037s.084 0 .09.037-.054.063-.074.08a.928.928 0 0 1-.456.13z" fill="#83330b"/><path d="M26.26 27.18a.617.617 0 0 1 .272-.187.182.182 0 0 0-.088.157.186.186 0 0 0 .13.177.477.477 0 0 1-.314-.146z" fill="#f5b31a"/><path d="M26.62 26.92a.766.766 0 0 0-.5.277.677.677 0 0 0 .958-.032.61.61 0 0 0-.457-.246zm-.36.26a.577.577 0 0 1 .272-.187.182.182 0 0 0-.088.157.18.18 0 0 0 .13.172.45.45 0 0 1-.314-.14zm.455.126a.18.18 0 0 0 .09-.156.183.183 0 0 0-.116-.173.43.43 0 0 1 .245.188.43.43 0 0 1-.22.14zM25.88 26.914a.827.827 0 0 1 .25-.235 1.04 1.04 0 0 1 .58-.22.87.87 0 0 1 .47.125.452.452 0 0 1 .163.15.785.785 0 0 1 .08.326 1.155 1.155 0 0 1-.096.7.078.078 0 0 1-.12.037.038.038 0 0 1-.02-.02c0-.016.036-.043.046-.053a.322.322 0 0 0 .053-.063.526.526 0 0 0 .073-.17 1.168 1.168 0 0 0 .025-.273 1.075 1.075 0 0 0-.03-.257.284.284 0 0 0-.09-.13.943.943 0 0 0-1.04-.11 1.538 1.538 0 0 0-.163.083.8.8 0 0 0-.094.053c-.032.016-.058.044-.09.058z" fill="#83330b"/><path d="M27.5 24.99A2.508 2.508 0 1 0 30 27.5a2.51 2.51 0 0 0-2.5-2.51zm.262 2.99s.04.158.162.1.052-.2.04-.224c.158.125.133.34 0 .356-.17.02-.187-.058-.218-.142 0 .006-.01.016-.01.02l-.017.017a.192.192 0 0 1-.037.03.418.418 0 0 1-.068.043.382.382 0 0 1-.11.02h-.02a.34.34 0 0 1-.12-.036.206.206 0 0 1-.1-.094c-.033.084-.05.162-.22.142-.137-.016-.17-.23-.012-.356 0 .02-.062.178.047.225s.162-.1.162-.1a.366.366 0 0 0 .262.142.38.38 0 0 0 .258-.14zm-1.883-1.066a.827.827 0 0 1 .25-.235 1.04 1.04 0 0 1 .58-.22.916.916 0 0 1 .47.125.415.415 0 0 1 .163.15.785.785 0 0 1 .08.326 1.124 1.124 0 0 1-.096.7.083.083 0 0 1-.125.037.063.063 0 0 1-.016-.02c0-.016.037-.043.047-.053a.322.322 0 0 0 .053-.063.66.66 0 0 0 .073-.17 1.2 1.2 0 0 0 .025-.273 1.075 1.075 0 0 0-.03-.257.284.284 0 0 0-.09-.13.935.935 0 0 0-1.04-.11 1.538 1.538 0 0 0-.163.083.8.8 0 0 0-.094.053c-.032.016-.058.044-.09.058zm.12.22s.025-.026.03-.037l.09-.09a.964.964 0 0 1 .33-.187.583.583 0 0 1 .558.105c.037.036.068.094.12.11.027.015.126.015.12.062 0 .02-.03.032-.046.037a.143.143 0 0 1-.08 0c-.02-.01-.03-.032-.05-.042s-.058-.037-.08-.058a1.15 1.15 0 0 0-.188-.13.43.43 0 0 0-.2-.027.91.91 0 0 0-.38.136l-.09.058a.418.418 0 0 1-.09.07c-.044.02-.044-.006-.044-.006zm.62-.215a.61.61 0 0 1 .456.245.677.677 0 0 1-.957.032.766.766 0 0 1 .5-.278zm-.464.376a.7.7 0 0 0 .82.02l.06-.04c.015-.01.03-.027.05-.038s.085 0 .09.037-.053.063-.073.08a.928.928 0 0 1-.456.13.5.5 0 0 1-.49-.185zM27.85 29.4a.35.35 0 0 0-.35-.314.347.347 0 0 0-.35.314.09.09 0 0 1-.006-.042.356.356 0 0 1 .712 0c0 .02-.006.035-.006.042zm-.03-.555a.42.42 0 0 1-.64 0 .582.582 0 0 0-.344-.188.215.215 0 0 0 .164-.12.377.377 0 0 1 .293-.184.43.43 0 0 1 .136.036l.067.046a.45.45 0 0 1 .2-.083.382.382 0 0 1 .293.183.215.215 0 0 0 .167.125.582.582 0 0 0-.338.19zm.533-1.365a.928.928 0 0 1-.456-.13c-.02-.016-.078-.053-.073-.08s.064-.046.09-.036.03.027.05.037.038.027.054.043a.7.7 0 0 0 .82-.02.48.48 0 0 1-.485.19zm-.43-.32a.608.608 0 0 1 .45-.245.752.752 0 0 1 .5.278.672.672 0 0 1-.95-.028zm1.03-.03a1.053 1.053 0 0 1-.088-.068 1.018 1.018 0 0 0-.084-.058.906.906 0 0 0-.386-.136.41.41 0 0 0-.2.027 1.15 1.15 0 0 0-.19.13c-.025.02-.056.037-.077.058s-.032.03-.052.042a.145.145 0 0 1-.08 0c-.014 0-.04-.016-.046-.037-.006-.047.093-.047.12-.062.052-.016.078-.074.114-.11a.6.6 0 0 1 .565-.105.9.9 0 0 1 .324.19c.03.03.062.057.094.088.005.01.03.032.03.037s.002.035-.044.01zm.08-.277a.8.8 0 0 0-.095-.053 1.625 1.625 0 0 0-.16-.083.935.935 0 0 0-1.043.11.3.3 0 0 0-.094.13 1.043 1.043 0 0 0-.025.257 1.193 1.193 0 0 0 .02.272.536.536 0 0 0 .08.172.36.36 0 0 0 .052.063c.01.01.047.038.042.053s-.012.016-.017.02a.086.086 0 0 1-.126-.035 1.2 1.2 0 0 1-.093-.7.858.858 0 0 1 .083-.325.415.415 0 0 1 .162-.15.9.9 0 0 1 .465-.127 1.04 1.04 0 0 1 .585.22.89.89 0 0 1 .25.235c-.03-.01-.06-.038-.088-.053z" fill="#f5b31a"/><path d="M26.13 27.066a.6.6 0 0 1-.09.068c-.04.026-.04 0-.04 0a.243.243 0 0 1 .03-.037c.027-.03.058-.057.09-.09a.964.964 0 0 1 .33-.187.552.552 0 0 1 .558.105c.037.036.068.094.115.115.032.01.13.01.126.057 0 .02-.032.026-.048.032a.108.108 0 0 1-.08 0c-.02-.012-.03-.033-.05-.043s-.053-.037-.08-.058a1.15 1.15 0 0 0-.188-.13.44.44 0 0 0-.2-.028.91.91 0 0 0-.38.136zM23.2 26.61zM33.9 27.338l-3.38-.152h.017c.13-.052.25-.094.37-.13a2.628 2.628 0 0 1 .76-.126 3.226 3.226 0 0 0 .972-.126 3.694 3.694 0 0 0 .34-.183 1.636 1.636 0 0 1 .35-.182.632.632 0 0 1 .224.01 1.02 1.02 0 0 0 .173.02.1.1 0 0 0 .115-.077.1.1 0 0 0-.02-.093.588.588 0 0 0-.383-.152.937.937 0 0 0-.414.042 1.307 1.307 0 0 0-.23.094 1.6 1.6 0 0 1-.272.106 2.377 2.377 0 0 1-.54.073c-.07 0-.155-.01-.228-.017a2.215 2.215 0 0 0-.257-.015 3.864 3.864 0 0 0-1.2.256l3.174-1.485a.16.16 0 0 0 .073-.2.15.15 0 0 0-.193-.09l-3.185 1.15c.004 0 .01 0 .015-.01.1-.1.193-.183.292-.267a2.545 2.545 0 0 1 .654-.4 3.31 3.31 0 0 0 .843-.492 2.714 2.714 0 0 0 .246-.3 1.578 1.578 0 0 1 .255-.3.7.7 0 0 1 .214-.078 1.03 1.03 0 0 0 .167-.042.124.124 0 0 0 .078-.12.11.11 0 0 0-.057-.08.58.58 0 0 0-.413.007.9.9 0 0 0-.367.2c-.062.053-.12.116-.177.173a1.915 1.915 0 0 1-.21.2 2.3 2.3 0 0 1-.47.267c-.067.03-.146.052-.214.078a1.574 1.574 0 0 0-.25.084 3.862 3.862 0 0 0-1.01.7l2.37-2.595a.157.157 0 0 0-.225-.22l-2.5 2.275a.044.044 0 0 0 .007-.016c.057-.125.11-.24.172-.35a2.33 2.33 0 0 1 .444-.622 3.44 3.44 0 0 0 .6-.78 2.476 2.476 0 0 0 .11-.37 1.572 1.572 0 0 1 .125-.378.54.54 0 0 1 .167-.15 1.2 1.2 0 0 0 .13-.106.106.106 0 0 0-.052-.193.632.632 0 0 0-.382.162 1 1 0 0 0-.26.324 1.707 1.707 0 0 0-.095.23 2.462 2.462 0 0 1-.115.268 2.4 2.4 0 0 1-.335.43 1.533 1.533 0 0 1-.173.15c-.068.058-.13.115-.193.173a4.035 4.035 0 0 0-.67 1.036l1.2-3.3a.157.157 0 0 0-.09-.2.158.158 0 0 0-.2.078L28.37 24.59v-.022c.005-.14.01-.267.02-.392a2.558 2.558 0 0 1 .18-.748 3.236 3.236 0 0 0 .25-.947 1.86 1.86 0 0 0-.04-.38 1.643 1.643 0 0 1-.033-.4.617.617 0 0 1 .1-.2 1.144 1.144 0 0 0 .08-.148.11.11 0 0 0-.027-.14.1.1 0 0 0-.094-.016.6.6 0 0 0-.288.3.913.913 0 0 0-.12.392 1.75 1.75 0 0 0 0 .25 2.55 2.55 0 0 1-.006.294 2.218 2.218 0 0 1-.146.523 1.6 1.6 0 0 1-.1.21 1.583 1.583 0 0 0-.11.234 3.93 3.93 0 0 0-.225 1.2l-.156-3.5a.154.154 0 0 0-.157-.147.16.16 0 0 0-.105.036.166.166 0 0 0-.057.11l-.152 3.383v-.02a3.832 3.832 0 0 1-.13-.372 2.532 2.532 0 0 1-.12-.758 3.155 3.155 0 0 0-.132-.967 3.23 3.23 0 0 0-.182-.345 1.508 1.508 0 0 1-.183-.35.55.55 0 0 1 .016-.226c0-.052.016-.11.016-.167a.106.106 0 0 0-.073-.12.115.115 0 0 0-.1.02.635.635 0 0 0-.152.382.962.962 0 0 0 .043.418 1.848 1.848 0 0 0 .094.23 1.823 1.823 0 0 1 .11.272 2.585 2.585 0 0 1 .068.533c0 .08-.01.157-.016.236a2.123 2.123 0 0 0-.016.255 3.85 3.85 0 0 0 .256 1.192l-1.485-3.17a.157.157 0 0 0-.2-.077.15.15 0 0 0-.084.2l1.152 3.18c-.006 0-.01-.01-.016-.01-.1-.1-.183-.2-.267-.3a2.61 2.61 0 0 1-.4-.65 3.243 3.243 0 0 0-.493-.846 3.29 3.29 0 0 0-.3-.246 1.52 1.52 0 0 1-.3-.256.554.554 0 0 1-.074-.215 1.647 1.647 0 0 0-.047-.162.126.126 0 0 0-.115-.084.106.106 0 0 0-.082.064.557.557 0 0 0 0 .408.87.87 0 0 0 .2.366 1.95 1.95 0 0 0 .173.178 1.537 1.537 0 0 1 .2.21 2.353 2.353 0 0 1 .273.47c.026.073.047.146.073.22s.052.167.084.246a4 4 0 0 0 .7 1l-2.588-2.36a.15.15 0 0 0-.214 0 .154.154 0 0 0-.006.216l2.28 2.5s-.01-.006-.015-.006c-.13-.057-.246-.115-.356-.172a2.65 2.65 0 0 1-.62-.45 3.335 3.335 0 0 0-.78-.6c-.095-.037-.236-.073-.372-.11a1.657 1.657 0 0 1-.377-.12.6.6 0 0 1-.15-.168.9.9 0 0 0-.105-.136.115.115 0 0 0-.136-.03.1.1 0 0 0-.053.083.563.563 0 0 0 .162.38.914.914 0 0 0 .318.262c.073.036.157.068.23.1a1.4 1.4 0 0 1 .267.115 2.412 2.412 0 0 1 .434.33c.05.052.1.115.15.178a1.887 1.887 0 0 0 .174.188 3.865 3.865 0 0 0 1.03.67l-3.3-1.2a.16.16 0 0 0-.12.292l3.064 1.433h-.016a3.33 3.33 0 0 1-.4-.02 2.524 2.524 0 0 1-.743-.18 3.305 3.305 0 0 0-.953-.25 2.824 2.824 0 0 0-.382.042 1.685 1.685 0 0 1-.4.03.67.67 0 0 1-.2-.1.79.79 0 0 0-.146-.083.126.126 0 0 0-.143.026.107.107 0 0 0-.015.1.618.618 0 0 0 .3.288.9.9 0 0 0 .4.12c.084.007.167 0 .25 0a1.306 1.306 0 0 1 .29.007 2.208 2.208 0 0 1 .522.14c.074.032.14.07.21.1a1.65 1.65 0 0 0 .234.116 3.747 3.747 0 0 0 1.2.22l-3.5.157a.163.163 0 0 0-.15.162.16.16 0 0 0 .15.157l3.38.15a.06.06 0 0 0-.017 0c-.13.053-.25.095-.375.132a2.576 2.576 0 0 1-.76.125 3.155 3.155 0 0 0-.966.13 2.567 2.567 0 0 0-.34.18 1.58 1.58 0 0 1-.356.182.674.674 0 0 1-.226-.012.887.887 0 0 0-.167-.02.117.117 0 0 0-.12.078.1.1 0 0 0 .027.094.557.557 0 0 0 .382.152.735.735 0 0 0 .108.01 1.225 1.225 0 0 0 .3-.047 1.875 1.875 0 0 0 .23-.1 1.9 1.9 0 0 1 .272-.105 2.078 2.078 0 0 1 .533-.068c.08 0 .157 0 .236.01a1.37 1.37 0 0 0 .255.016 3.864 3.864 0 0 0 1.2-.256L21.522 29.8a.16.16 0 0 0 .063.3.186.186 0 0 0 .057-.01l3.18-1.15a.01.01 0 0 1-.01.01 3.712 3.712 0 0 1-.293.266 2.966 2.966 0 0 1-.655.4 3.123 3.123 0 0 0-.847.492 3.29 3.29 0 0 0-.246.3 1.294 1.294 0 0 1-.256.3.558.558 0 0 1-.215.08 1.067 1.067 0 0 0-.16.046.12.12 0 0 0-.085.115.1.1 0 0 0 .063.077.352.352 0 0 0 .162.037.932.932 0 0 0 .246-.042.875.875 0 0 0 .372-.193c.062-.06.12-.122.172-.18a1.863 1.863 0 0 1 .215-.2 2.4 2.4 0 0 1 .465-.266c.073-.03.152-.052.22-.078a1.374 1.374 0 0 0 .246-.084 3.766 3.766 0 0 0 1.01-.7l-2.365 2.59a.153.153 0 0 0 .007.214.144.144 0 0 0 .11.052.15.15 0 0 0 .104-.047l2.5-2.274s-.005.01-.005.015c-.057.127-.115.242-.172.357a2.65 2.65 0 0 1-.45.622 3.066 3.066 0 0 0-.59.78 2.813 2.813 0 0 0-.116.365 1.716 1.716 0 0 1-.12.382.675.675 0 0 1-.168.146c-.047.037-.095.068-.137.1a.123.123 0 0 0-.03.14.14.14 0 0 0 .088.053h.02a.664.664 0 0 0 .355-.162.954.954 0 0 0 .267-.324l.094-.23a2.146 2.146 0 0 1 .115-.267 2.377 2.377 0 0 1 .33-.43 1.59 1.59 0 0 1 .18-.15c.06-.058.13-.11.192-.173a3.83 3.83 0 0 0 .66-1.03L24.9 33.352a.157.157 0 0 0 .09.2.124.124 0 0 0 .06.01.152.152 0 0 0 .143-.088l1.433-3.065v.02a3.244 3.244 0 0 1-.02.392 2.57 2.57 0 0 1-.174.748 2.985 2.985 0 0 0-.25.947 2.138 2.138 0 0 0 .036.38 1.69 1.69 0 0 1 .03.4.62.62 0 0 1-.1.2c-.026.048-.057.1-.078.147a.118.118 0 0 0 .02.142.1.1 0 0 0 .064.02.09.09 0 0 0 .036-.005.587.587 0 0 0 .288-.292.942.942 0 0 0 .12-.4 1.752 1.752 0 0 0 0-.25 1.767 1.767 0 0 1 .006-.294 2.607 2.607 0 0 1 .14-.523c.032-.072.07-.14.1-.208s.08-.152.11-.23a3.78 3.78 0 0 0 .22-1.2l.158 3.5a.158.158 0 0 0 .162.146.156.156 0 0 0 .105-.037.178.178 0 0 0 .05-.108l.153-3.38v.017a2.55 2.55 0 0 1 .13.37 2.444 2.444 0 0 1 .126.758 3.218 3.218 0 0 0 .13.973 2.442 2.442 0 0 0 .183.34 1.547 1.547 0 0 1 .178.352.662.662 0 0 1-.01.224c0 .058-.015.11-.02.168a.113.113 0 0 0 .078.12.04.04 0 0 0 .026 0 .12.12 0 0 0 .068-.026.593.593 0 0 0 .157-.382 1.006 1.006 0 0 0-.043-.413 2.353 2.353 0 0 0-.1-.235 1.845 1.845 0 0 1-.105-.267 2.687 2.687 0 0 1-.068-.538c0-.078.01-.156.016-.23a2.226 2.226 0 0 0 .01-.26 3.827 3.827 0 0 0-.256-1.194l1.485 3.17a.156.156 0 0 0 .14.09.128.128 0 0 0 .063-.012.157.157 0 0 0 .09-.2l-1.15-3.18c.004.006.01.01.01.016a2.775 2.775 0 0 1 .266.293 2.57 2.57 0 0 1 .4.654 3.17 3.17 0 0 0 .49.84 2.714 2.714 0 0 0 .3.247 1.645 1.645 0 0 1 .3.256.7.7 0 0 1 .075.214 1.665 1.665 0 0 0 .047.163.114.114 0 0 0 .1.083h.01a.12.12 0 0 0 .085-.057.64.64 0 0 0-.006-.413.96.96 0 0 0-.2-.367 2.125 2.125 0 0 0-.177-.177 1.86 1.86 0 0 1-.2-.21 2.366 2.366 0 0 1-.272-.47 1.89 1.89 0 0 1-.072-.22 2.282 2.282 0 0 0-.09-.247 3.808 3.808 0 0 0-.69-1l2.585 2.36a.156.156 0 0 0 .1.046.166.166 0 0 0 .12-.268l-2.28-2.5s.01.006.016.006c.124.052.244.11.354.167a2.622 2.622 0 0 1 .622.45 3.235 3.235 0 0 0 .78.6 3.142 3.142 0 0 0 .366.11 1.616 1.616 0 0 1 .382.12.75.75 0 0 1 .146.168c.037.047.07.094.1.136a.138.138 0 0 0 .094.04.158.158 0 0 0 .047-.01.1.1 0 0 0 .053-.084.6.6 0 0 0-.162-.382 1.013 1.013 0 0 0-.323-.26 1.707 1.707 0 0 0-.23-.095 2.027 2.027 0 0 1-.267-.122 2.372 2.372 0 0 1-.43-.33 2.292 2.292 0 0 1-.15-.172 1.89 1.89 0 0 0-.173-.193 3.85 3.85 0 0 0-1.03-.664l3.3 1.19a.154.154 0 0 0 .052.012.148.148 0 0 0 .14-.1.16.16 0 0 0-.078-.2l-3.06-1.433h.016a3.132 3.132 0 0 1 .4.02 2.57 2.57 0 0 1 .743.178 3.318 3.318 0 0 0 .948.25 3 3 0 0 0 .387-.04 1.643 1.643 0 0 1 .392-.032.734.734 0 0 1 .21.1.64.64 0 0 0 .146.084.1.1 0 0 0 .052.01.093.093 0 0 0 .084-.036.09.09 0 0 0 .014-.094c-.026-.1-.125-.194-.293-.288a1.045 1.045 0 0 0-.4-.126h-.25a1.294 1.294 0 0 1-.293 0 2.26 2.26 0 0 1-.523-.14 1.974 1.974 0 0 1-.21-.1 1.31 1.31 0 0 0-.23-.11 3.762 3.762 0 0 0-1.2-.226l3.5-.157a.154.154 0 0 0 .147-.157.158.158 0 0 0-.12-.168zm-2.4-.806a2.032 2.032 0 0 1 .246.016c.078.005.162.016.24.016a2.558 2.558 0 0 0 .565-.073 1.564 1.564 0 0 0 .294-.114c.068-.032.147-.063.215-.09a.805.805 0 0 1 .365-.036.63.63 0 0 1 .308.105h-.005a.865.865 0 0 1-.152-.02.762.762 0 0 0-.266-.012 1.626 1.626 0 0 0-.387.194 2.183 2.183 0 0 1-.325.172 2.97 2.97 0 0 1-.93.125 2.828 2.828 0 0 0-.79.125c-.126.037-.246.084-.382.136a1.3 1.3 0 0 1-.366.095c-.006-.03-.006-.062-.01-.094a1.2 1.2 0 0 0 .177-.052c.09-.026.183-.057.288-.1s.2-.09.314-.12a1.866 1.866 0 0 1 .328-.084 2.094 2.094 0 0 1 .293-.037c.09-.005.158-.01.21-.01h.084a.5.5 0 0 0-.084-.006h-.21a2 2 0 0 0-.3.016 2.022 2.022 0 0 0-.34.063c-.114.03-.224.073-.323.11s-.2.057-.283.078c-.068.016-.13.032-.172.037a.4.4 0 0 1-.02-.088 4.312 4.312 0 0 1 1.418-.35zm1.888-1.527a.045.045 0 0 1 .058.026.046.046 0 0 1-.02.064l-3.4 1.59c-.017-.042-.032-.09-.047-.13l1.808-.832-1.867.69-.062-.125zm-2.563.073a1.854 1.854 0 0 1 .23-.083 1.98 1.98 0 0 0 .236-.08 2.288 2.288 0 0 0 .492-.28 1.7 1.7 0 0 0 .225-.216 1.323 1.323 0 0 1 .168-.168.865.865 0 0 1 .324-.178.645.645 0 0 1 .318-.02.646.646 0 0 1-.146.04.7.7 0 0 0-.25.095 1.408 1.408 0 0 0-.29.324 2.154 2.154 0 0 1-.23.287 3.068 3.068 0 0 1-.815.472 2.75 2.75 0 0 0-.68.418 3.674 3.674 0 0 0-.3.272 1.37 1.37 0 0 1-.3.225l-.047-.078c.042-.033.09-.07.147-.12s.146-.122.225-.2.157-.163.246-.237a1.983 1.983 0 0 1 .266-.2 2.8 2.8 0 0 1 .262-.14c.078-.043.14-.074.188-.095a.242.242 0 0 0 .058-.02c-.01 0-.032.01-.058.02-.047.016-.115.042-.2.08a2.845 2.845 0 0 0-.266.124 2.908 2.908 0 0 0-.288.194c-.09.068-.178.15-.256.22a2.834 2.834 0 0 1-.236.182c-.057.042-.1.08-.146.105-.016-.026-.036-.052-.052-.08a4.206 4.206 0 0 1 1.176-.865zm1.16-2.133a.043.043 0 0 1 .064 0 .038.038 0 0 1 .004.062l-2.536 2.772c-.032-.037-.058-.07-.09-.1l1.35-1.465-1.458 1.355c-.03-.03-.068-.063-.105-.094zm-2.342 1.04c.058-.057.12-.11.183-.162a2.352 2.352 0 0 0 .183-.162 2.268 2.268 0 0 0 .35-.45 1.908 1.908 0 0 0 .125-.28c.027-.08.058-.153.09-.22a.78.78 0 0 1 .235-.283.625.625 0 0 1 .287-.147v.006a1.185 1.185 0 0 1-.115.09.735.735 0 0 0-.2.182 1.758 1.758 0 0 0-.14.413 2.488 2.488 0 0 1-.1.35 3.035 3.035 0 0 1-.577.744 3.067 3.067 0 0 0-.47.648c-.058.115-.115.236-.173.372a1.428 1.428 0 0 1-.188.32h-.005c-.022-.017-.05-.038-.075-.054.026-.047.058-.1.094-.167s.083-.173.13-.272.084-.208.136-.307a2.307 2.307 0 0 1 .173-.293 1.636 1.636 0 0 1 .182-.23 1.675 1.675 0 0 1 .14-.157.52.52 0 0 1 .053-.053c-.01.006-.026.02-.057.047s-.09.09-.152.147a2.226 2.226 0 0 0-.2.225 1.915 1.915 0 0 0-.193.286c-.058.1-.1.21-.157.3a2.806 2.806 0 0 1-.14.256c-.038.063-.07.115-.095.152l-.078-.047a4.234 4.234 0 0 1 .752-1.252zm.262-2.416a.04.04 0 0 1 .057-.022c.01 0 .037.016.027.058l-1.278 3.53a.964.964 0 0 0-.13-.058l.7-1.872-.837 1.81c-.04-.016-.083-.032-.13-.047zm-1.768 1.86a2.148 2.148 0 0 1 .11-.22c.037-.072.073-.14.105-.218a2.438 2.438 0 0 0 .15-.55 1.886 1.886 0 0 0 0-.308 1.937 1.937 0 0 1 0-.24.886.886 0 0 1 .106-.35.647.647 0 0 1 .215-.247.955.955 0 0 1-.08.136.648.648 0 0 0-.11.24 1.514 1.514 0 0 0 .033.435c.015.13.036.272.036.366a3.1 3.1 0 0 1-.245.905 2.62 2.62 0 0 0-.184.778 3.445 3.445 0 0 0-.02.4 1.544 1.544 0 0 1-.053.376.823.823 0 0 0-.094-.026c.005-.052.016-.11.02-.188s.017-.188.022-.3 0-.23 0-.34a1.723 1.723 0 0 1 .047-.335c.026-.1.052-.2.08-.287s.056-.147.072-.2c0-.016.015-.026.015-.042a.368.368 0 0 1-.02.042c-.02.047-.053.115-.084.193s-.068.18-.1.284-.052.225-.068.34-.015.235-.026.34-.02.21-.03.293-.027.13-.032.177c-.032 0-.063-.015-.1-.02a4.222 4.222 0 0 1 .236-1.433zm-.684-2.33a.046.046 0 0 1 .047-.04.04.04 0 0 1 .042.04l.172 3.756c-.047-.006-.088-.006-.136-.01l-.078-1.99-.078 1.987c-.048 0-.095 0-.136.01zm-.915 2.4a1.8 1.8 0 0 1 .01-.24c.005-.085.016-.163.016-.247a2.513 2.513 0 0 0-.073-.56 1.826 1.826 0 0 0-.11-.292 1.888 1.888 0 0 1-.093-.22.865.865 0 0 1-.037-.365.63.63 0 0 1 .105-.308c0 .052-.01.1-.016.15a.8.8 0 0 0-.017.273 1.857 1.857 0 0 0 .194.387 3.1 3.1 0 0 1 .178.325 3.114 3.114 0 0 1 .12.925 2.8 2.8 0 0 0 .125.79c.042.126.084.25.136.382a1.31 1.31 0 0 1 .095.36c-.03 0-.062 0-.094.01a1.217 1.217 0 0 0-.052-.177 2.917 2.917 0 0 0-.094-.283c-.042-.1-.088-.21-.126-.32a2.06 2.06 0 0 1-.083-.323c-.02-.11-.025-.21-.035-.3s-.006-.157-.006-.21v-.078.078c0 .052-.007.125-.007.21a2.946 2.946 0 0 0 .017.3 1.858 1.858 0 0 0 .067.34c.026.114.073.224.105.328s.057.2.078.283c.016.067.032.124.042.17-.03.007-.063.017-.094.022a4.2 4.2 0 0 1-.35-1.418zm-1.527-1.888c-.015-.042.016-.058.02-.058a.045.045 0 0 1 .064.02l1.595 3.4c-.048.016-.095.032-.137.048l-.83-1.81.69 1.872c-.042.016-.085.037-.126.058zm.068 2.562a1.518 1.518 0 0 1-.083-.23 1.9 1.9 0 0 0-.08-.23 2.288 2.288 0 0 0-.28-.49 2.236 2.236 0 0 0-.216-.232 1.015 1.015 0 0 1-.168-.167.81.81 0 0 1-.178-.32.615.615 0 0 1-.015-.318 1.246 1.246 0 0 1 .035.146.775.775 0 0 0 .094.25 1.65 1.65 0 0 0 .33.284 3.232 3.232 0 0 1 .287.235 3.208 3.208 0 0 1 .465.81 2.64 2.64 0 0 0 .42.68c.082.1.17.2.27.3a1.216 1.216 0 0 1 .225.3v.007a.6.6 0 0 0-.078.046 1.937 1.937 0 0 0-.12-.152c-.06-.068-.122-.14-.2-.225s-.163-.158-.237-.242a3.06 3.06 0 0 1-.2-.272 2.762 2.762 0 0 1-.14-.256c-.042-.078-.07-.146-.09-.193a.37.37 0 0 0-.03-.063l.026.063c.02.047.04.12.077.2a2.284 2.284 0 0 0 .125.267 2.074 2.074 0 0 0 .194.288c.073.094.15.178.22.26a2.76 2.76 0 0 1 .182.23l.105.148c-.026.02-.052.037-.08.057a4.242 4.242 0 0 1-.865-1.19zm-2.133-1.16a.044.044 0 1 1 .062-.063l2.772 2.532c-.032.03-.07.063-.1.094l-1.465-1.354 1.355 1.458c-.03.03-.063.063-.094.1zm1.04 2.342c-.057-.057-.1-.12-.162-.183a1.83 1.83 0 0 0-.162-.183 1.93 1.93 0 0 0-.45-.345 2 2 0 0 0-.28-.13 1.5 1.5 0 0 1-.22-.09.8.8 0 0 1-.283-.23.55.55 0 0 1-.14-.287.69.69 0 0 1 .088.12.825.825 0 0 0 .183.2 1.722 1.722 0 0 0 .413.136 2.428 2.428 0 0 1 .35.1 3.01 3.01 0 0 1 .744.57 2.833 2.833 0 0 0 .648.47c.12.064.236.116.372.174a1.31 1.31 0 0 1 .32.193h.004a.74.74 0 0 0-.058.074c-.047-.026-.1-.052-.167-.088a2.586 2.586 0 0 0-.272-.13c-.1-.048-.208-.09-.307-.142a1.817 1.817 0 0 1-.293-.168c-.09-.063-.168-.13-.23-.183s-.12-.11-.157-.14a.12.12 0 0 0-.027-.032.17.17 0 0 0 .02.032c.038.037.09.09.148.152s.14.13.225.2a2 2 0 0 0 .286.194c.105.057.21.1.3.157s.183.1.256.14.115.074.152.1a.717.717 0 0 0-.047.08 4.29 4.29 0 0 1-1.252-.765zm-2.41-.256a.055.055 0 0 1-.027-.063.052.052 0 0 1 .058-.026l3.535 1.283-.062.125-1.867-.69 1.8.83c-.015.043-.025.09-.04.132zm1.86 1.763c-.077-.032-.15-.068-.224-.105a1.494 1.494 0 0 0-.218-.11 2.387 2.387 0 0 0-.544-.146 1.5 1.5 0 0 0-.314 0h-.24a.817.817 0 0 1-.35-.11.628.628 0 0 1-.242-.21.72.72 0 0 1 .136.074.7.7 0 0 0 .24.115 1.676 1.676 0 0 0 .435-.03 2.11 2.11 0 0 1 .366-.037 2.882 2.882 0 0 1 .904.24 2.78 2.78 0 0 0 .78.19c.13.01.26.014.4.014a1.545 1.545 0 0 1 .37.058c-.01.026-.015.057-.026.09-.052 0-.11-.017-.188-.022s-.188-.016-.3-.02-.225 0-.34-.006a2.192 2.192 0 0 1-.334-.042c-.105-.026-.205-.058-.288-.084s-.147-.05-.194-.072a.32.32 0 0 0-.068-.02.683.683 0 0 0 .068.025c.042.02.11.053.188.084a2.236 2.236 0 0 0 .288.1 2.092 2.092 0 0 0 .335.068c.115.016.235.02.34.026s.21.022.293.038.13.02.177.03c0 .033-.01.06-.015.09a4.178 4.178 0 0 1-1.434-.23zm-2.33.685a.037.037 0 0 1-.043-.042.04.04 0 0 1 .042-.047l3.75-.174c-.006.047-.006.094-.01.142l-1.988.078 1.987.078c0 .042 0 .09.01.136zm2.394.92a2.03 2.03 0 0 1-.247-.015c-.078-.006-.162-.016-.246-.016a2.257 2.257 0 0 0-.56.078 1.5 1.5 0 0 0-.292.11c-.073.032-.147.063-.22.09a.79.79 0 0 1-.36.036.606.606 0 0 1-.3-.1.884.884 0 0 1 .15.017.758.758 0 0 0 .267.01 1.53 1.53 0 0 0 .387-.193 2.3 2.3 0 0 1 .324-.173 2.96 2.96 0 0 1 .925-.124 2.743 2.743 0 0 0 .79-.126c.125-.036.25-.083.386-.136a1.35 1.35 0 0 1 .36-.094l.017.094a1.665 1.665 0 0 0-.183.053c-.084.026-.178.057-.283.1s-.21.09-.32.126a2.526 2.526 0 0 1-.323.083c-.11.016-.21.026-.293.032s-.16.01-.208.01h-.084a.6.6 0 0 0 .084 0c.047 0 .12.006.21.006a2.2 2.2 0 0 0 .3-.02 1.974 1.974 0 0 0 .334-.064c.115-.03.225-.073.33-.11s.2-.057.282-.078c.068-.016.125-.027.172-.037.006.03.016.058.02.09a4.168 4.168 0 0 1-1.42.347zm-1.894 1.522a.046.046 0 0 1-.058-.027c0-.01-.01-.04.02-.057l3.406-1.595c.016.048.026.09.042.13l-1.8.833 1.867-.69a1.317 1.317 0 0 0 .063.125zm2.562-.068a2.378 2.378 0 0 1-.23.078c-.073.026-.15.047-.23.078a2.577 2.577 0 0 0-.49.283 1.762 1.762 0 0 0-.226.215 1.054 1.054 0 0 1-.173.168.742.742 0 0 1-.32.177.637.637 0 0 1-.32.02.58.58 0 0 1 .147-.04.844.844 0 0 0 .25-.09 1.462 1.462 0 0 0 .284-.33 2.64 2.64 0 0 1 .236-.287 3.01 3.01 0 0 1 .81-.465 2.72 2.72 0 0 0 .68-.424 3.3 3.3 0 0 0 .3-.272 1.092 1.092 0 0 1 .3-.22h.007c.015.027.03.048.047.08a1.56 1.56 0 0 0-.152.114c-.068.058-.14.126-.225.2s-.157.162-.24.24a2.215 2.215 0 0 1-.273.2 1.843 1.843 0 0 1-.256.143c-.078.04-.146.072-.193.093a.2.2 0 0 0-.04.02.18.18 0 0 1 .046-.015c.042-.02.115-.047.193-.08s.172-.077.27-.13a1.82 1.82 0 0 0 .29-.193c.088-.068.177-.15.255-.22s.162-.13.23-.183a1.354 1.354 0 0 1 .152-.1c.016.02.032.047.052.073a4.218 4.218 0 0 1-1.182.867zm-1.16 2.133a.04.04 0 0 1-.063-.005.044.044 0 0 1 0-.063l2.53-2.772c.032.037.064.068.095.105l-1.354 1.46 1.464-1.35a1.324 1.324 0 0 1 .1.09zm2.342-1.046a1.45 1.45 0 0 1-.182.162c-.063.052-.126.1-.184.162a2.416 2.416 0 0 0-.345.45 1.418 1.418 0 0 0-.126.287 1.527 1.527 0 0 1-.095.216.712.712 0 0 1-.23.282.576.576 0 0 1-.288.146 1.132 1.132 0 0 1 .12-.094.735.735 0 0 0 .2-.183 1.58 1.58 0 0 0 .136-.413 2.887 2.887 0 0 1 .1-.35 3.1 3.1 0 0 1 .57-.743 2.713 2.713 0 0 0 .47-.648c.064-.115.116-.235.174-.366a1.368 1.368 0 0 1 .193-.324c.026.02.053.037.073.052a1.765 1.765 0 0 1-.088.168c-.042.078-.09.172-.13.272s-.09.21-.137.308a2.194 2.194 0 0 1-.173.293 2.34 2.34 0 0 1-.183.23c-.057.068-.1.12-.14.157a.34.34 0 0 0-.053.058.453.453 0 0 1 .052-.053 1.746 1.746 0 0 0 .152-.146c.062-.062.13-.135.2-.224a2.66 2.66 0 0 0 .188-.288c.058-.1.11-.2.157-.3s.1-.183.14-.256.075-.11.1-.152a.386.386 0 0 0 .08.052 4.188 4.188 0 0 1-.753 1.247zm-.256 2.416a.046.046 0 0 1-.063.02s-.035-.015-.02-.057l1.277-3.53.125.062-.69 1.867.83-1.81.137.046zm1.763-1.862a1.984 1.984 0 0 1-.105.22 2.306 2.306 0 0 0-.105.22 2.262 2.262 0 0 0-.15.548 1.5 1.5 0 0 0 0 .314v.235a.886.886 0 0 1-.106.352.7.7 0 0 1-.213.246v-.006a.966.966 0 0 1 .073-.13.68.68 0 0 0 .115-.246 1.488 1.488 0 0 0-.032-.434 2.77 2.77 0 0 1-.036-.36 2.917 2.917 0 0 1 .246-.91 2.783 2.783 0 0 0 .183-.775c.01-.13.016-.267.02-.408a1.307 1.307 0 0 1 .053-.372.545.545 0 0 0 .088.02c0 .053-.016.115-.02.19-.012.088-.012.192-.017.3s0 .23 0 .34a2.35 2.35 0 0 1-.047.334c-.026.1-.057.2-.084.287a2.037 2.037 0 0 1-.074.2c-.01.025-.016.046-.02.056a.6.6 0 0 0 .025-.057c.022-.048.054-.11.085-.195a2.034 2.034 0 0 0 .1-.282 1.706 1.706 0 0 0 .07-.34c.014-.115.02-.23.024-.34s.026-.2.036-.293c.01-.068.02-.125.03-.172l.09.015a4.083 4.083 0 0 1-.23 1.44zm.685 2.332a.037.037 0 0 1-.042.042.043.043 0 0 1-.047-.042l-.167-3.755a1.118 1.118 0 0 0 .136.012l.078 1.987.078-1.988a1.226 1.226 0 0 0 .136-.01zm-.042-3.89a2.508 2.508 0 1 1 2.5-2.5 2.51 2.51 0 0 1-2.5 2.5zm.963 1.5a2.185 2.185 0 0 1-.016.245c-.006.08-.016.158-.016.24a2.625 2.625 0 0 0 .08.566 2.14 2.14 0 0 0 .11.293c.03.067.067.14.093.214a.885.885 0 0 1 .032.366.7.7 0 0 1-.1.308v-.005a.793.793 0 0 1 .016-.152.762.762 0 0 0 .017-.265 1.824 1.824 0 0 0-.2-.393 2.453 2.453 0 0 1-.172-.32 2.97 2.97 0 0 1-.126-.93 2.627 2.627 0 0 0-.127-.79 3.824 3.824 0 0 0-.136-.38 1.62 1.62 0 0 1-.094-.367c.037-.006.068-.006.094-.01.016.046.032.11.053.177.026.09.057.183.1.288s.09.2.126.314a2.756 2.756 0 0 1 .083.324c.015.11.026.21.03.3s.01.157.01.21a.483.483 0 0 0 0 .078v-.08c0-.05.007-.12.007-.208s-.006-.194-.016-.3a2.92 2.92 0 0 0-.067-.34c-.03-.115-.073-.225-.105-.33a2.657 2.657 0 0 1-.078-.277c-.02-.067-.032-.13-.042-.177.03 0 .063-.015.09-.02a4.232 4.232 0 0 1 .355 1.417zm1.527 1.887c.01.042-.016.058-.027.058a.04.04 0 0 1-.057-.02l-1.595-3.4c.048-.016.09-.03.13-.047l.838 1.81-.7-1.867c.047-.02.09-.042.13-.063zm-.068-2.563c.03.074.052.152.078.23a2.02 2.02 0 0 0 .084.236 2.5 2.5 0 0 0 .277.49 2.215 2.215 0 0 0 .22.226 1.767 1.767 0 0 1 .168.168.817.817 0 0 1 .173.324.62.62 0 0 1 .02.314.618.618 0 0 1-.04-.147.677.677 0 0 0-.09-.25 1.81 1.81 0 0 0-.33-.282 2.557 2.557 0 0 1-.287-.23 2.972 2.972 0 0 1-.465-.816 2.81 2.81 0 0 0-.418-.68c-.084-.1-.173-.2-.278-.3a1.21 1.21 0 0 1-.22-.3.807.807 0 0 1 .08-.047c.025.037.067.09.114.147s.126.146.2.225.162.157.24.246a2.235 2.235 0 0 1 .2.266 2.734 2.734 0 0 1 .148.26c.036.08.068.142.09.19a.43.43 0 0 1 .025.067.32.32 0 0 0-.022-.068l-.08-.2a2.46 2.46 0 0 0-.13-.267 1.9 1.9 0 0 0-.188-.288c-.073-.094-.15-.178-.224-.262s-.13-.162-.184-.23-.073-.11-.1-.146a.548.548 0 0 1 .073-.052 4.107 4.107 0 0 1 .867 1.17zm2.133 1.16a.05.05 0 0 1-.068.07l-2.772-2.537.105-.09 1.46 1.35-1.35-1.463c.03-.037.063-.068.09-.105zM31.01 29.65c.057.058.11.12.167.183a1.583 1.583 0 0 0 .157.184 2.448 2.448 0 0 0 .45.35 1.738 1.738 0 0 0 .288.126c.072.027.15.058.214.09a.79.79 0 0 1 .287.235.558.558 0 0 1 .14.282 1.244 1.244 0 0 1-.093-.12.73.73 0 0 0-.182-.194 1.6 1.6 0 0 0-.41-.14 2.574 2.574 0 0 1-.354-.106 3.018 3.018 0 0 1-.743-.57 2.64 2.64 0 0 0-.648-.47c-.115-.058-.235-.115-.366-.173a1.36 1.36 0 0 1-.324-.188v-.005a.888.888 0 0 0 .058-.073c.04.026.1.058.162.094s.172.085.272.132.21.084.314.136a1.688 1.688 0 0 1 .287.168c.09.062.167.13.236.188a1.378 1.378 0 0 1 .152.14.33.33 0 0 1 .032.027c-.006-.01-.016-.014-.026-.03-.037-.037-.084-.09-.147-.152a2.8 2.8 0 0 0-.218-.2 2.834 2.834 0 0 0-.288-.193c-.105-.058-.21-.1-.31-.157s-.177-.094-.255-.14c-.06-.038-.11-.07-.153-.1a.322.322 0 0 0 .052-.074 4.186 4.186 0 0 1 1.25.75zm2.416.262a.04.04 0 0 1 .02.057c0 .01-.015.037-.057.027l-3.53-1.282a1.317 1.317 0 0 0 .062-.125l1.867.69-1.81-.832.046-.13zm-1.862-1.768c.078.03.146.068.225.1a1.728 1.728 0 0 0 .213.11 2.9 2.9 0 0 0 .55.15 1.937 1.937 0 0 0 .313 0 1.842 1.842 0 0 1 .235 0 .862.862 0 0 1 .352.106.58.58 0 0 1 .246.214h-.005a.82.82 0 0 1-.13-.078.773.773 0 0 0-.247-.115 1.676 1.676 0 0 0-.43.03 2.062 2.062 0 0 1-.365.037 2.828 2.828 0 0 1-.904-.24 2.658 2.658 0 0 0-.78-.184 3.533 3.533 0 0 0-.407-.02 1.47 1.47 0 0 1-.367-.053c.01-.026.015-.058.026-.09.046.006.108.017.182.022.09.01.193.016.3.02s.225 0 .335 0a1.66 1.66 0 0 1 .335.048 2.323 2.323 0 0 1 .287.08c.083.03.146.056.2.072l.067.026c-.01 0-.03-.016-.068-.03s-.11-.054-.195-.085-.177-.068-.282-.1a2.272 2.272 0 0 0-.34-.068c-.115-.015-.23-.02-.335-.026s-.21-.022-.3-.032c-.068-.016-.125-.026-.172-.037 0-.025.01-.056.015-.088a4.2 4.2 0 0 1 1.444.226zm2.332-.6l-3.755.172a1.354 1.354 0 0 0 .012-.136l1.987-.078-1.988-.078a1.337 1.337 0 0 0-.01-.142l3.754.173a.04.04 0 0 1 .042.047.037.037 0 0 1-.038.042z" fill="#83330b"/></svg>