<svg xmlns="http://www.w3.org/2000/svg" viewBox="0 0 55 55"><path d="M50.8 27.5a23.192 23.192 0 0 1-1.334 7.772H5.534A23.3 23.3 0 1 1 50.8 27.5z" fill="#4289db"/><path d="M46.867 40.44a22.534 22.534 0 0 1-2.014 2.588H10.14a23.214 23.214 0 0 1-2.012-2.59z" fill="#f8d523"/><path d="M44.853 43.028a23.265 23.265 0 0 1-34.712 0zM48.368 37.856c-.22.44-.45.873-.7 1.3-.257.44-.523.868-.806 1.286H8.128c-.283-.418-.55-.847-.806-1.286-.24-.424-.476-.858-.69-1.3z" fill="#4289db"/><path d="M49.466 35.272a22.116 22.116 0 0 1-1.1 2.584H6.632a22.116 22.116 0 0 1-1.1-2.584z" fill="#f8d523"/><path fill="#fff" d="M17.6 16.36l-5.848-1.825 5.848-1.83 1.83-5.848 1.825 5.847 5.848 1.83-5.848 1.826-1.824 5.847-1.83-5.847z"/><path fill="#d11133" d="M19.43 8.598l1.413 4.525 4.523 1.412-4.523 1.412-1.412 4.524-1.417-4.523-4.52-1.412 4.52-1.412 1.418-4.525z"/></svg>