<svg xmlns="http://www.w3.org/2000/svg" viewBox="0 0 55 55"><path d="M49.467 19.732H5.533a23.3 23.3 0 0 1 43.934 0z" fill="#06b8e3"/><path d="M49.467 35.268a23.3 23.3 0 0 1-43.934 0z" fill="#3d9b37"/><path d="M50.8 27.5a23.164 23.164 0 0 1-1.333 7.768H5.533a23.3 23.3 0 0 1 0-15.536h43.934A23.164 23.164 0 0 1 50.8 27.5z" fill="#ec2938"/><path d="M26.664 33.313a5.813 5.813 0 1 1 4.213-9.813 6.99 6.99 0 1 0 0 8.008 5.8 5.8 0 0 1-4.213 1.805zM32.916 23.574l.753 2.112 2.022-.962-.962 2.023 2.112.753-2.112.753.962 2.023-2.023-.962-.754 2.112-.753-2.112-2.023.962.962-2.023-2.112-.753 2.112-.753-.962-2.023 2.023.962.753-2.112z" fill="#fff"/></svg>