<svg xmlns="http://www.w3.org/2000/svg" viewBox="0 0 55 55"><path d="M50.8 27.5a23.37 23.37 0 0 1-13.874 21.3 22.608 22.608 0 0 1-3.6 1.255A23.292 23.292 0 0 1 4.2 27.5a22.934 22.934 0 0 1 .183-2.892c.026-.215.052-.424.09-.633A21.322 21.322 0 0 1 4.99 21.5c.15-.586.33-1.156.528-1.72a23.013 23.013 0 0 1 1.265-2.93l.042-.125.01.03A23.283 23.283 0 0 1 27.3 4.206h.4A23.33 23.33 0 0 1 50.8 27.5z" fill="#062493"/><path d="M44.373 11.453V43.54a23.2 23.2 0 0 1-3.933 3.322L8.148 14.54A23.3 23.3 0 0 1 27.3 4.204h.4a23.21 23.21 0 0 1 16.673 7.248z" fill="#fdca16"/><path d="M36.926 48.8a22.608 22.608 0 0 1-3.6 1.255l-1.556-1.127h3.21l.994-3.054zM30.15 40.043l.987 3.054h3.216l-2.6 1.888.995 3.06-2.6-1.89-2.598 1.89.988-3.06-2.6-1.888h3.217l.994-3.054zM24.318 34.212l.993 3.054h3.212l-2.6 1.893.995 3.053-2.6-1.888-2.598 1.888.992-3.054-2.598-1.894h3.21l.994-3.054zM18.487 28.38l.994 3.06h3.21l-2.598 1.888.994 3.054-2.6-1.888-2.598 1.888.994-3.054-2.6-1.888h3.21l.995-3.06zM12.656 22.556l.994 3.054h3.21l-2.598 1.887.993 3.054-2.6-1.886-2.598 1.887.994-3.053-2.598-1.887h3.21l.994-3.054zM8.43 21.667l.994 3.054-2.6-1.887-2.44 1.778c.025-.214.05-.423.088-.632l.748-2.31-.23-.168c.15-.586.33-1.156.528-1.72h.314l.95-2.93.043-.124.01.03.984 3.024h3.21z" fill="#fff"/></svg>