<svg xmlns="http://www.w3.org/2000/svg" viewBox="0 0 55 55"><path d="M15.85 7.328v40.344a23.288 23.288 0 0 1 0-40.344z" fill="#04267d"/><path d="M39.148 7.328v40.344a23.253 23.253 0 0 1-23.3 0V7.328a23.253 23.253 0 0 1 23.3 0z" fill="#fec62d"/><path d="M50.8 27.5a23.3 23.3 0 0 1-11.652 20.172V7.328A23.318 23.318 0 0 1 50.8 27.5z" fill="#04267d"/><path d="M37.413 19.42a9.817 9.817 0 0 0-5.157 2.625.035.035 0 0 0 .037.058c.26-.068.685-.173.95-.236a.133.133 0 0 1 .158.173c-.24.674-.5 1.344-.757 2.008a16.517 16.517 0 0 0-.78 2.673c-.135.57-.255 1.15-.365 1.727-.058.293-.11.58-.162.873-.032.2-.13.89-.184 1.28a.19.19 0 0 1-.22.17l-2.258-.33v-8.667a11.13 11.13 0 0 1 1.97.262C29.25 21 27.5 16.213 27.5 16.208s-1.746 4.8-3.148 5.827a11.2 11.2 0 0 1 1.972-.262v8.666l-2.26.33a.193.193 0 0 1-.22-.17c-.05-.39-.15-1.076-.182-1.28-.052-.293-.105-.58-.162-.873-.11-.576-.23-1.156-.366-1.726a16.517 16.517 0 0 0-.78-2.672c-.256-.664-.517-1.334-.758-2.008a.134.134 0 0 1 .157-.173c.267.063.69.168.952.236a.035.035 0 0 0 .037-.058 9.82 9.82 0 0 0-5.157-2.625.064.064 0 0 0-.062.1 41.767 41.767 0 0 1 3 6.072 26.555 26.555 0 0 1 1.34 5.288 19.082 19.082 0 0 1 .245 2.374l4.215-.633v6.173h2.348V32.62l4.216.633a19.08 19.08 0 0 1 .245-2.374 26.624 26.624 0 0 1 1.34-5.29 41.3 41.3 0 0 1 3.007-6.07.068.068 0 0 0-.064-.1z"/></svg>