<svg xmlns="http://www.w3.org/2000/svg" viewBox="0 0 55 55"><defs><clipPath id="a"><circle cx="97.5" cy="27.5" r="23.3" fill="none"/></clipPath></defs><path d="M50.8 27.5a23.134 23.134 0 0 1-1.872 9.153l-8.77-5.267a13.325 13.325 0 0 0 0-7.777l8.77-5.263A23.22 23.22 0 0 1 50.8 27.5z" fill="#19b43d"/><path d="M45.648 42.1a23.275 23.275 0 0 1-36.3-.005l8.766-5.256a13.24 13.24 0 0 0 18.776.004z" fill="#cd1225"/><path d="M14.263 27.5a13.03 13.03 0 0 0 .58 3.886l-8.77 5.26a23.3 23.3 0 0 1 0-18.3l8.77 5.263a13.086 13.086 0 0 0-.58 3.89z" fill="#19b43d"/><path d="M45.648 12.908l-8.76 5.256a13.24 13.24 0 0 0-18.77 0l-8.76-5.256a23.265 23.265 0 0 1 36.3 0z" fill="#cd1225"/><path d="M48.928 36.653a23.254 23.254 0 0 1-3.28 5.444l-8.76-5.256a13.24 13.24 0 0 1-18.776-.004l-8.766 5.256a23.444 23.444 0 0 1-3.274-5.445l8.77-5.26a13.325 13.325 0 0 1 0-7.778l-8.77-5.263a23.12 23.12 0 0 1 3.28-5.44l8.76 5.257a13.24 13.24 0 0 1 18.77 0l8.76-5.256a23.12 23.12 0 0 1 3.28 5.44l-8.77 5.26a13.325 13.325 0 0 1 0 7.778zM48.928 36.653a23.254 23.254 0 0 1-3.28 5.444l-8.76-5.256L27.5 31.2l-3.185-1.91-.042-.025-2.95-1.765-6.48-3.89-8.77-5.263a23.12 23.12 0 0 1 3.28-5.44l8.76 5.257 6.657 3.99.026.017 2.7 1.617L33.67 27.5l6.487 3.886zM48.928 18.347l-8.77 5.262-6.487 3.89-2.948 1.768-.037.026L27.5 31.2l-9.388 5.633-8.766 5.26a23.444 23.444 0 0 1-3.274-5.446l8.77-5.26 6.48-3.887 6.178-3.708 2.693-1.616.032-.02 6.653-3.992 8.76-5.256a23.12 23.12 0 0 1 3.29 5.44zM40.737 27.5a13.24 13.24 0 0 1-22.625 9.336 13.24 13.24 0 0 1 18.77-18.672 13.193 13.193 0 0 1 3.855 9.336z" fill="#fff"/><path fill="#19b43d" d="M20.67 32.437h-1.826l.915-1.585-.916-1.584h1.826l.915-1.58.915 1.58h1.825l-.914 1.584.915 1.585H22.5l-.915 1.58-.915-1.58z"/><path fill="#cd1225" d="M21.585 28.394l.71 1.23h1.418l-.71 1.228.71 1.23h-1.417l-.71 1.23-.713-1.23h-1.417l.712-1.23-.712-1.23h1.417l.712-1.228z"/><path fill="#19b43d" d="M32.5 32.437h-1.83l.915-1.585-.916-1.584h1.83l.91-1.58.915 1.58h1.826l-.91 1.584.91 1.585h-1.825l-.915 1.58-.91-1.58z"/><path fill="#cd1225" d="M33.41 28.394l.71 1.23h1.42l-.707 1.228.706 1.23h-1.42l-.71 1.23-.706-1.23H31.28l.713-1.23-.712-1.23h1.424l.706-1.228z"/><path fill="#19b43d" d="M26.585 22.176H24.76l.91-1.585-.91-1.578h1.825l.915-1.585.91 1.585h1.83l-.915 1.58.916 1.584h-1.83l-.91 1.58-.915-1.58z"/><path fill="#cd1225" d="M27.5 18.133l.706 1.23h1.423l-.713 1.228.712 1.23h-1.424l-.706 1.23-.71-1.23h-1.42l.708-1.23-.707-1.228h1.42l.71-1.23z"/><g clip-path="url(#a)"><path fill="#ce202c" d="M54.388 3.545h86.233v47.91H54.39z"/><path fill="#273376" d="M54.388 3.545h43.116V27.5H54.388z"/><path fill="#fff" d="M97.535 27.502h-4.79l-13.117-7.286-.033 7.286h-7.248l.055-7.265-13.18 7.265H54.4v-2.684l9.49-5.26-9.49-.058v-7.954l9.47-.01-9.47-5.308V3.544h4.653L72.35 10.89l-.007-7.346h7.24l.01 7.298 13.088-7.298h4.855v2.743l-9.493 5.247 9.493-.024v8.012l-9.42-.01 9.42 5.295v2.695z"/><path d="M97.7 13.254V18.1q-9.634 0-19.27-.005c-.173 0-.225.037-.225.245q.01 4.725 0 9.45h-4.33v-9.4c0-.223-.03-.294-.248-.294Q64 18.108 54.38 18.1v-4.846q9.638 0 19.277.005c.18 0 .224-.047.223-.25q-.01-4.726 0-9.454h4.332v9.4c0 .238.043.3.265.3q9.606-.008 19.223-.002zM54.444 3.55c.607.385 1.242.708 1.867 1.055Q62.42 8 68.53 11.4c.06.034.135.047.188.145h-2.91a.84.84 0 0 1-.433-.115Q60 8.44 54.617 5.457c-.068-.038-.13-.106-.216-.087v-1.7c0-.036-.05-.116.044-.12zM54.442 27.5c1.032-.58 2.064-1.16 3.1-1.736L68.59 19.62a.885.885 0 0 1 .452-.116c.89.006 1.782 0 2.673 0h.224a.55.55 0 0 1-.25.18q-6.94 3.86-13.885 7.72c-.05.028-.1.06-.148.092z" fill="#ce202c"/></g></svg>