<svg xmlns="http://www.w3.org/2000/svg" viewBox="0 0 55 55"><defs><clipPath id="a"><circle cx="27.5" cy="27.5" r="23.3" fill="none"/></clipPath></defs><g clip-path="url(#a)"><path fill="#ce202c" d="M-15.612 3.545H70.62v47.91H-15.61z"/><path d="M48.128 24.5v9.224c0 2.464-5.385 3.264-5.385 3.264s-5.386-.8-5.386-3.264V24.5z" fill="#fff"/><path d="M48.128 33.728c0 2.464-5.385 3.264-5.385 3.264s-5.386-.8-5.386-3.264a.512.512 0 0 1 .11-.312.867.867 0 0 0 .284.72.875.875 0 0 1-.005-.867 1 1 0 0 0 .28.87 1.222 1.222 0 0 1 .026-.956s-.115.824.295.99a1.313 1.313 0 0 0-.05-.78s.28.1.266.792c0 0 .09-.1.114-.6 0 0 .012.566.226.7 0 0 .065-.057-.024-.314s.04-.348.06-.342a.566.566 0 0 0 .213.5s-.114-.446.044-.507c0 0-.033.378.293.463a.353.353 0 0 0-.047-.233.387.387 0 0 1-.015-.258s.1.343.247.4a.57.57 0 0 1-.006-.4.493.493 0 0 0 .3.4.555.555 0 0 1-.11-.463l1.793.08.928.04 2.787-.18.48-.377s.19.24-.11.62a.55.55 0 0 0 .393-.472.518.518 0 0 1-.045.5 1.292 1.292 0 0 0 .377-.643.7.7 0 0 1-.184.687.68.68 0 0 0 .4-.463s.095.228-.175.55a.883.883 0 0 0 .49-.752.587.587 0 0 1-.03.662.838.838 0 0 0 .283-.525s.142.14-.012.532a1.18 1.18 0 0 0 .363-.564.765.765 0 0 1-.2.614s.184-.042.36-.375c0 0 .047.13-.114.372 0 0 .17-.028.287-.33a.945.945 0 0 1-.03.343s.134-.08.164-.422a.52.52 0 0 1 .077.253c-.007.137-.01.045-.01.045z" fill="#318f44"/><path d="M45.355 28.4a1.112 1.112 0 0 1-.427-.038.507.507 0 0 0-.413 0s.1-.177-.14-.316c0 0 .078.178-.03.26 0 0-.047.042-.1-.02a1.72 1.72 0 0 0-.17-.138s.2-.064.165-.25a.27.27 0 0 0-.206-.237.3.3 0 0 1 0 .143s-.22-.112.078-.27.244-.252.19-.333a.76.76 0 0 0-.224-.2.264.264 0 0 1 .05.157c-.01.073-.146.12-.12-.008s0-.1 0-.242a.305.305 0 0 0 .37-.155s.1-.245-.233-.366c0 0 .08.1.04.175 0 0-.07.123-.155.023s-.138-.12-.13-.237c0 0 .3.04.222-.264 0 0-.05.2-.443-.07 0 0 .255-.24.156-.435 0 0-.03-.09-.31-.038 0 0 .242-.14.14-.258 0 0-.053-.08-.278.024 0 0 .087-.138-.134-.287a1.374 1.374 0 0 0-.227.138 2.066 2.066 0 0 0-.248-.245.365.365 0 0 0-.22.245.535.535 0 0 0-.267-.13.25.25 0 0 0 .026.282.812.812 0 0 1-.244-.066s-.18-.078-.153.063a.64.64 0 0 0 .076.238s-.4-.086-.387.114a.49.49 0 0 0 .193.356s-.226.27-.42.067c0 0-.065.065.08.238 0 0 .143.146.024.238 0 0-.16.116-.236-.11a.24.24 0 0 0 .046.413.374.374 0 0 0 .393-.053s-.06.45-.25.362c0 0-.115-.077.09-.17 0 0-.3-.033-.343.228a.26.26 0 0 0 .22.283s.2.067-.006.208a.183.183 0 0 0-.05.252s.114.166-.176.182a1.087 1.087 0 0 1-.214-.02.3.3 0 0 0-.02.23s-.143-.1-.47.01-.3.033-.33.066-.09.144-.09.144.17.19.174.187-.032.218-.032.218l.084.037.676-.275.685-.327.552.03.35.077.46.03.328-.16h.47l.524.24.6.325.312.05.24-.01v-.444zM39.917 28.914s.26.12.37-.026c0 0 .142-.25-.17-.335a.25.25 0 0 0-.013-.36.242.242 0 0 0-.262-.024.26.26 0 0 0-.232-.128.206.206 0 0 0-.19.14s-.2-.073-.3.034a.2.2 0 0 0 .07.33l.18.016.18-.076.2.052a.39.39 0 0 0 .167.376z" fill="#d21f26" stroke="#000" stroke-linejoin="round" stroke-width=".05"/><path d="M45.747 28.477a.4.4 0 0 1 .24.758.738.738 0 0 1 .03.183.466.466 0 0 1 .406.562l-.163-.124c-.285-.1-.58.12-.79.493s-.11.546-.074.987.82.7.82.7-.37.874-.612 1.435a.543.543 0 0 1-.887.21c-.146-.118-.182-.053-.255 0s.33.34-.4.61a2.9 2.9 0 0 0-.982.548 1.2 1.2 0 0 1-.68-.036c-.05-.057-.02-.057-.21-.164s-.51-.2-.86-.356-.343-.355-.34-.4.122-.375-.288-.11a.6.6 0 0 1-.76-.126c-.08-.1-.42-.933-.42-.933a5 5 0 0 0-.274-.676c.01 0-.018.037.285-.122a1.2 1.2 0 0 0 .543-.684 1.4 1.4 0 0 0-.036-.8c-.038-.09-.264-.5-.543-.59a.462.462 0 0 0-.467.128.466.466 0 0 1 .407-.562.738.738 0 0 1 .03-.183.4.4 0 0 1 .24-.758l-.076.13s-.078.723 1.078.238 1.122-.574 1.78-.27l.482-.01s.694-.293.917-.166 1.024.537 1.024.537.775.264.927-.226z" fill="#64b3d0" stroke="#000" stroke-width=".05"/><path d="M42.267 31.61s-.04-.222-.083-.366a.4.4 0 0 1 .06-.384l.183-.19a.46.46 0 0 1 .252-.158s.14 0 .152-.03.166-.256.53 0a.506.506 0 0 1 .294-.2.28.28 0 0 1 .285.078.288.288 0 0 1 .4.092.35.35 0 0 1 .445.13.33.33 0 0 1 .41.128c.155.242.124.34.124.34l.114.383.41.463-.953.328h-.426l-.855.21-1.52.106-.422-.455z" fill="#fff" stroke="#273376" stroke-miterlimit="10" stroke-width=".05"/><path d="M40.984 33.917a1.245 1.245 0 0 0-.343.065c-.115.054-.2.11-.337.19 0 0-.063.075-.325.03 0 0-.454-.1-.454.224 0 0-.544.04-.32.476a.28.28 0 0 0 .462.1s-.2.263.187.366a.3.3 0 0 0 .356-.2.23.23 0 0 0-.063-.23.4.4 0 0 0 .227-.156s-.285.33.027.448c0 0 .392.09.414-.284a.215.215 0 0 1 .12-.234.7.7 0 0 0 .455-.384s-.45-.217-.406-.41zM40.067 30.642s-.35-.147-.517 0a.522.522 0 0 0-.475 0 2.584 2.584 0 0 0-.39.29s-.114.09-.072.368a.636.636 0 0 1 .023.294s-.077-.014-.23.154c0 0-.2.207-.37.024a.307.307 0 0 0 .378.214s-.158.112-.02.4a.5.5 0 0 1-.06.463.428.428 0 0 0 .27-.41.665.665 0 0 1 .06-.35s-.084.132.11.414a.4.4 0 0 1 .025.413.388.388 0 0 0 .252-.4c-.027-.31-.2-.18-.086-.466a.445.445 0 0 0 .11.22.393.393 0 0 1 .145.4.524.524 0 0 0 .13-.383.747.747 0 0 0-.082-.253l.526-.272.26-.432z" fill="#d21f26" stroke="#000" stroke-linejoin="round" stroke-width=".05"/><path d="M39.27 31.863s-.218-.014-.254-.168M38.636 31.594a.224.224 0 0 1 .144.06.153.153 0 0 0 .126.063" stroke="#000" stroke-miterlimit="10" stroke-width=".05" fill="none"/><path d="M39.59 31.28a.33.33 0 0 1-.176-.05.073.073 0 0 0-.1.025.087.087 0 0 0 .05.134s.137.062-.08.188c0 0 .258-.085.155-.2 0 0-.114-.074-.073-.1 0 0 .012-.022.057 0a.21.21 0 0 0 .165.002z"/><path fill="#794622" stroke="#000" stroke-width=".05" d="M43.13 31.802l-.87-2.74-.03.008.766 2.773.133-.04z"/><path d="M40.107 34.877a.385.385 0 0 0-.374.018s.017-.068.146-.1a.268.268 0 0 1 .265-.165 1.226 1.226 0 0 1-.187.162s.113.008.15.085z"/><path d="M39.386 35.312a.366.366 0 0 1-.15-.5.15.15 0 0 1 .15-.072s.2.057.044.314a.432.432 0 0 0-.044.258zM40.044 35.608s-.463-.193-.32-.52c0 0 .044-.112.146-.1 0 0 .18.007.143.225a.684.684 0 0 0 .03.395z" fill="#64b3d0" stroke="#273376" stroke-miterlimit="2.613" stroke-width=".05"/><path d="M39.946 34.382a1.407 1.407 0 0 0-.2.157.533.533 0 0 0-.13-.1.216.216 0 0 1 .13.024.387.387 0 0 1 .2-.082z"/><path d="M40.358 35.526a.373.373 0 0 0 .3-.427.17.17 0 0 0-.19-.13s-.184.043-.063.26a.294.294 0 0 1-.047.296z" fill="#64b3d0" stroke="#273376" stroke-miterlimit="2.613" stroke-width=".05"/><path d="M42 28.274s.234.065.36.113a1.2 1.2 0 0 0 .77 0s.29-.106.328-.113l-.222.31-.01.16.138.186s-.084.03-.333-.108a.572.572 0 0 0-.6 0 .754.754 0 0 1-.33.108l.213-.218-.083-.2z" fill="#f4ce10" stroke="#000" stroke-miterlimit="2.613" stroke-width=".05"/><path d="M40.5 35.116s.014-.016 0-.023c0 0-.015-.006-.027.014a.142.142 0 0 0-.005.13.154.154 0 0 1 .015.106s0 .016.012.018a.024.024 0 0 0 .015-.015.136.136 0 0 0-.013-.1s-.042-.085.003-.13z" fill="#fff"/><path d="M45.524 28.914s-.26.12-.37-.026c0 0-.143-.25.17-.335a.252.252 0 0 1 .012-.36.244.244 0 0 1 .263-.024.26.26 0 0 1 .23-.128.206.206 0 0 1 .192.14s.2-.073.3.034a.2.2 0 0 1-.07.33l-.182.016-.178-.076-.2.052a.39.39 0 0 1-.168.376z" fill="#d21f26" stroke="#000" stroke-linejoin="round" stroke-width=".05"/><path d="M43.456 28.72a.067.067 0 0 1-.06.055.076.076 0 0 1-.09-.047v-.02a.18.18 0 0 1 .087-.186s.164-.123.48.026c0 0 .248.11.42.2 0 0 .445.22.5.235a1.42 1.42 0 0 0 .5.1.706.706 0 0 0 .583-.235s.132-.2 0-.327a.173.173 0 0 0-.14-.046.183.183 0 0 0-.118.062.11.11 0 0 0 .01.148.086.086 0 0 0 .13-.06s0-.01 0 0a.214.214 0 0 1-.026.167s-.247.343-.927-.01l-.9-.46a.625.625 0 0 0-.72.118.3.3 0 0 0 .064.453.263.263 0 0 0 .337-.066s.108-.178-.062-.256a.158.158 0 0 0-.21.073c-.06.138.116.173.133.076 0 .006.003-.016.008.004z" fill="#f4ce10" stroke="#000" stroke-miterlimit="2.613" stroke-width=".05"/><path d="M39.9 30.13v-.512a.126.126 0 0 1 .067-.123c.066-.05.138-.127.24.094a1.924 1.924 0 0 1 .267-.222.127.127 0 0 1 .2.04.7.7 0 0 1 .19-.184s.2-.12.21.238l.157-.13a.2.2 0 0 1 .254.032 2.378 2.378 0 0 1 .258.258.29.29 0 0 1 .054.16.276.276 0 0 0 .062.173.385.385 0 0 0 .14.07.257.257 0 0 1 .22.143s.027-.024.108.645v1.22l-.9.98-1.442-.377-.574-.218-.13-.386.557-.328.3-.747-.1-.526z" fill="#e2ca5e" stroke="#000" stroke-miterlimit="2.613" stroke-width=".05"/><path d="M43.877 30.78l.068-.094.163-.115a5.973 5.973 0 0 1 .262.73v.185a.66.66 0 0 1 .44.613l-.31.52-.484-.246-.14-.094v-1.5z" fill="#794622" stroke="#000" stroke-width=".05"/><path d="M39.3 34.887s.018-.022.006-.03-.008-.012-.03.013a.22.22 0 0 0-.02.255s.01.022.025.015c0 0 .015-.006 0-.025a.21.21 0 0 1 .02-.228z" fill="#fff"/><path d="M40.754 34.786a.113.113 0 0 0-.02-.1.12.12 0 0 1-.016-.082M41.074 29.462a.69.69 0 0 0 .04.223c.04.094.177.258.185.346" stroke="#000" stroke-miterlimit="10" stroke-width=".05" fill="none"/><path d="M44.466 33.917a1.245 1.245 0 0 1 .343.065c.115.054.204.11.337.19 0 0 .062.075.325.03 0 0 .454-.1.454.224 0 0 .543.04.32.476a.28.28 0 0 1-.462.1s.2.263-.187.366a.3.3 0 0 1-.356-.2.23.23 0 0 1 .063-.23.4.4 0 0 1-.227-.156s.285.33-.027.448c0 0-.392.09-.415-.284a.214.214 0 0 0-.12-.234.7.7 0 0 1-.454-.384s.45-.217.406-.41z" fill="#d21f26" stroke="#000" stroke-linejoin="round" stroke-width=".05"/><path stroke="#000" stroke-miterlimit="10" stroke-width=".05" fill="none" d="M40.895 30.03l.37 2.736M40.98 30.025l.416 2.55M41.058 30.013l.48 2.528"/><path fill="#794622" stroke="#000" stroke-width=".05" d="M41.948 32.283l-.868-2.74-.032.007.767 2.774.133-.04z"/><path stroke="#000" stroke-miterlimit="10" stroke-width=".05" fill="none" d="M41.324 29.913l.876 2.025M41.265 29.945l.846 2.116"/><path d="M39.877 35.414a.307.307 0 0 1-.088-.25s.005-.033-.014-.038c0 0-.02-.008-.022.032a.292.292 0 0 0 .094.263.026.026 0 0 0 .023.007s.015-.003.007-.013z" fill="#fff"/><path stroke="#000" stroke-miterlimit="10" stroke-width=".05" fill="none" d="M41.363 29.885l.904 1.848M41.116 30l.554 2.488"/><path d="M45.65 31.843a1.022 1.022 0 0 1-.483-.66 1.29 1.29 0 0 1 .1-.813 1.12 1.12 0 0 1 .7-.587 1.468 1.468 0 0 0-.55.64 1.51 1.51 0 0 0-.04.616 1.667 1.667 0 0 0 .116.463z" fill="#f4ce10" stroke="#000" stroke-miterlimit="2.613" stroke-width=".05"/><path d="M43.945 30.686l-1.663.48-.09.677a1.96 1.96 0 0 1-1.2.616l.623.607 1.2.23.63-.444.57-.48a2.562 2.562 0 0 1-.027-.64 1.9 1.9 0 0 1 .026-.215 4.99 4.99 0 0 1-.07-.832z" fill="#794622" stroke="#000" stroke-width=".05"/><path d="M42.214 31.673s1.095-.313 1.75-.564M41.688 32.244a9.25 9.25 0 0 0 2.328-.726l.354-.218M44.37 31.485l-.38.248a8.956 8.956 0 0 1-2.693.66M43.99 32.19a6.242 6.242 0 0 1-1.85.562" stroke="#000" stroke-miterlimit="10" stroke-width=".05" fill="none"/><path d="M45.39 30.642s.35-.147.517 0a.522.522 0 0 1 .475 0 2.623 2.623 0 0 1 .392.29s.112.09.07.368a.632.632 0 0 0-.023.294s.078-.014.233.154c0 0 .2.207.368.024a.308.308 0 0 1-.376.214s.157.112.02.4a.5.5 0 0 0 .06.463.428.428 0 0 1-.27-.41.67.67 0 0 0-.06-.35s.083.132-.11.414a.4.4 0 0 0-.026.413.388.388 0 0 1-.253-.4c.027-.31.2-.18.087-.466a.45.45 0 0 1-.11.22.4.4 0 0 0-.146.4.52.52 0 0 1-.127-.383.737.737 0 0 1 .08-.253l-.526-.272-.262-.432z" fill="#d21f26" stroke="#000" stroke-linejoin="round" stroke-width=".05"/><path d="M39.44 32.373a.19.19 0 0 1 .272-.13.487.487 0 0 1 .48-.36.393.393 0 0 1 .428.387.377.377 0 0 1 .317-.14s.343-.02.215.483l.065.063a.72.72 0 0 1 .8-.414.357.357 0 0 1 .182.612s.258.308.478.28a.777.777 0 0 0 .634-.444.99.99 0 0 1 .855-.386.3.3 0 0 1 .252.18 1.1 1.1 0 0 1 1.234-.69l.387.177.148.063-.22.565-.533 1.1-.405.114-.423-.222-.146.072-.01.33-.56.367-.387.145-.427.267-.1.24a.8.8 0 0 0-.5 0l-.088-.2-.25-.218-.968-.418-.175-.516-.176-.072-.2.207-.29.03-.432-.266z" fill="#fff" stroke="#273376" stroke-miterlimit="10" stroke-width=".05"/><path d="M43.657 28.358s-.37-.015-.356.335" stroke="#000" stroke-miterlimit="2.613" stroke-width=".05" fill="none"/><path d="M46.09 32.08a1.246 1.246 0 0 1-.82-.814 1.338 1.338 0 0 1 .08-.888.953.953 0 0 1 .79-.63.248.248 0 0 1 .28.188.17.17 0 0 1-.083.188.234.234 0 0 1-.278-.03.13.13 0 0 1-.017-.16.128.128 0 0 1 .127-.032.09.09 0 0 1 .06.095.087.087 0 0 0-.084-.1s-.194-.04-.42.22a1.362 1.362 0 0 0-.3.8 1.088 1.088 0 0 0 .927 1.068 2.84 2.84 0 0 0-.29.634 6.693 6.693 0 0 1-.408.983.7.7 0 0 1-.858.29s-.352-.14-.352-.375a.2.2 0 0 1 .187-.23s.207-.014.2.148c0 0 .006.176-.22.136 0 0-.08-.016-.065-.087 0 0 .013-.063.108-.036a.122.122 0 0 0-.075 0 .064.064 0 0 0-.038.06.07.07 0 0 0 .044.062.305.305 0 0 0 .1.015.34.34 0 0 0 .2.148.506.506 0 0 0 .44-.068.785.785 0 0 0 .19-.24 6.2 6.2 0 0 0 .324-.77 4.83 4.83 0 0 1 .2-.5zM44.273 33.687s.12-.015.12.083c0 0-.007.143-.2.112a.164.164 0 0 1-.12-.23.2.2 0 0 1 .222-.116.3.3 0 0 1 .248.223.437.437 0 0 1-.04.336 1.13 1.13 0 0 1-.526.34 5.1 5.1 0 0 0-.7.305s-.247.17-.138.325a.148.148 0 0 0 .105.06.083.083 0 0 0 .085-.065.073.073 0 0 1-.044.056.107.107 0 0 1-.108-.018.1.1 0 0 1-.01-.13.17.17 0 0 1 .214-.04.143.143 0 0 1 .078.186.218.218 0 0 1-.207.118.337.337 0 0 1-.2-.077.348.348 0 0 1-.02-.453.743.743 0 0 1 .3-.2c.116-.043.334-.13.56-.21a1.01 1.01 0 0 0 .4-.23.47.47 0 0 0 .11-.234s.023-.11-.05-.135a.178.178 0 0 0-.08-.01s-.004.004 0 .004z" fill="#f4ce10" stroke="#000" stroke-miterlimit="2.613" stroke-width=".05"/><path d="M44.284 33.686a.218.218 0 0 1 .215.123.652.652 0 0 1 .056.145M44.6 33.44s-.133.02-.065.192a.453.453 0 0 0 .22.238" stroke="#000" stroke-miterlimit="2.613" stroke-width=".05" fill="none"/><path d="M42 28.72a.066.066 0 0 0 .06.055.077.077 0 0 0 .09-.047v-.02a.18.18 0 0 0-.087-.186s-.165-.123-.48.026c0 0-.248.11-.42.2 0 0-.446.218-.5.235a1.42 1.42 0 0 1-.5.1.706.706 0 0 1-.584-.235s-.133-.2 0-.327a.17.17 0 0 1 .14-.046.183.183 0 0 1 .117.062.11.11 0 0 1-.01.148.086.086 0 0 1-.13-.06s0-.01 0 0a.214.214 0 0 0 .026.167s.247.343.927-.01l.9-.46a.624.624 0 0 1 .718.118.3.3 0 0 1-.062.453.263.263 0 0 1-.338-.066s-.11-.178.062-.256a.157.157 0 0 1 .21.073c.06.137-.116.173-.133.076 0 .006-.007-.016-.007.004zM39.8 31.843a1.022 1.022 0 0 0 .483-.66 1.3 1.3 0 0 0-.1-.813 1.12 1.12 0 0 0-.7-.587 1.468 1.468 0 0 1 .55.64 1.53 1.53 0 0 1 .04.616 1.667 1.667 0 0 1-.116.463z" fill="#f4ce10" stroke="#000" stroke-miterlimit="2.613" stroke-width=".05"/><path d="M41.8 28.358s.37-.015.357.335" stroke="#000" stroke-miterlimit="2.613" stroke-width=".05" fill="none"/><path d="M39.364 32.08a1.25 1.25 0 0 0 .82-.814 1.338 1.338 0 0 0-.08-.888.953.953 0 0 0-.792-.63.248.248 0 0 0-.28.188.17.17 0 0 0 .083.188.235.235 0 0 0 .28-.03.112.112 0 0 0-.113-.192.09.09 0 0 0-.06.095.088.088 0 0 1 .086-.1s.194-.04.42.22a1.362 1.362 0 0 1 .3.8 1.088 1.088 0 0 1-.927 1.068 2.906 2.906 0 0 1 .29.634 6.693 6.693 0 0 0 .41.983.694.694 0 0 0 .857.29s.343-.143.343-.377a.2.2 0 0 0-.187-.23s-.207-.014-.2.148c0 0-.006.176.22.136 0 0 .08-.016.064-.087 0 0-.012-.063-.108-.036a.125.125 0 0 1 .075 0 .064.064 0 0 1 .038.06.07.07 0 0 1-.045.063.3.3 0 0 1-.1.015.34.34 0 0 1-.2.148.506.506 0 0 1-.44-.068.777.777 0 0 1-.19-.24 6.263 6.263 0 0 1-.324-.77 4.83 4.83 0 0 0-.2-.5zM41.18 33.687s-.12-.015-.12.083c0 0 .006.143.2.112a.164.164 0 0 0 .12-.23.2.2 0 0 0-.222-.116.3.3 0 0 0-.248.223.437.437 0 0 0 .04.336 1.13 1.13 0 0 0 .526.34 5.1 5.1 0 0 1 .7.305s.247.17.138.325a.148.148 0 0 1-.106.06.082.082 0 0 1-.085-.065.075.075 0 0 0 .045.056.107.107 0 0 0 .108-.018.1.1 0 0 0 .01-.13.168.168 0 0 0-.214-.04.143.143 0 0 0-.078.186.216.216 0 0 0 .207.118.333.333 0 0 0 .2-.077.347.347 0 0 0 .022-.453.753.753 0 0 0-.3-.2c-.116-.043-.334-.13-.56-.21a1 1 0 0 1-.4-.23.47.47 0 0 1-.11-.234s-.023-.11.05-.135a.176.176 0 0 1 .08-.01s0 .004-.003.004z" fill="#f4ce10" stroke="#000" stroke-miterlimit="2.613" stroke-width=".05"/><path d="M41.17 33.686a.22.22 0 0 0-.217.123.617.617 0 0 0-.056.145M40.853 33.44s.133.02.065.192a.457.457 0 0 1-.22.238M42.405 28.673a.667.667 0 0 1 .65.02M40.575 30.472s.045-.164-.16-.45c0 0-.134-.264-.2-.433M40.673 29.41s.116.257.156.373l.173.39" stroke="#000" stroke-miterlimit="2.613" stroke-width=".05" fill="none"/><path d="M40.73 30.653a.43.43 0 0 1 .108.32M40.33 30.526s.134.058.125.383a.412.412 0 0 0 .187.355M40.312 31.348s.418-.042.44.194c0 0 .01.225.152.25 0 0 .214.02.256.2M40.444 31.61a.64.64 0 0 0 .144.143M40.98 31.36a.95.95 0 0 1 .126.234M41.44 29.59a.943.943 0 0 0 .193.18M41.832 30.31s.208.094.172.573a.918.918 0 0 0 .06.434" stroke="#000" stroke-miterlimit="10" stroke-width=".05" fill="none"/><path d="M40.853 29.986l.014.045a.8.8 0 0 0 .573-.217l-.02-.044a.836.836 0 0 0-.567.216z" fill="#794622" stroke="#000" stroke-width=".05"/><path d="M42.2 31.813s1.288-.35 1.785-.556" stroke="#000" stroke-miterlimit="10" stroke-width=".05" fill="none"/><path fill="#794622" stroke="#000" stroke-width=".05" d="M42.042 29.602l.637-.222.014.04-.637.22-.015-.038z"/><path stroke="#000" stroke-miterlimit="10" stroke-width=".05" fill="none" d="M42.11 29.622l.424 1.896M42.184 29.596l.485 1.888M42.267 29.568l.53 1.873M42.475 29.495l.722 1.407M42.57 29.462l.77 1.398M42.64 29.438l.834 1.384M42.505 31.533l.327-.1M42.258 31.345s.958-.256 1.683-.523M42.245 31.44a14.91 14.91 0 0 0 1.7-.507M42.616 32.344l.063.178.173-.05-.06-.177M43.106 32.216l.064.178.173-.05-.06-.177M42.282 31.166l-.015-.24 1.592-.443.085.203M42.942 30.738l.087.212M43.5 30.583l.1.202M43.63 30.546l.096.192M43.757 30.512l.1.2M43.86 30.483l.174-.09.074.178M43.945 30.44l.09.183"/><path d="M40 33.21a.376.376 0 0 1 0-.57s-.338-.152-.285-.4M40.553 33.44s-.323.04-.227-.535a3.445 3.445 0 0 0-.18.345.252.252 0 0 0 .125.3c.056.03.345.1.44-.076M40.192 32.56a.26.26 0 0 0-.038.314M40.328 32.586a.582.582 0 0 0 .122.308M40.42 32.51a.513.513 0 0 0 .182.374M40.51 32.428a.577.577 0 0 0 .214.42M41.56 32.81a.38.38 0 0 1 .333-.2.17.17 0 0 0 .073.326.326.326 0 0 0 .234-.06M42.093 33.785s-.554-.238-.5-.58a.41.41 0 0 1 .246-.31M41.726 33.114a.252.252 0 0 0 .06.25M41.85 33.013a.285.285 0 0 0 .045.284M41.984 32.935a.234.234 0 0 0 .016.255M41.48 33.82a1.155 1.155 0 0 0 .538.242M41.383 33.9a1.56 1.56 0 0 0 .46.24M41.276 33.955a1.56 1.56 0 0 0 .567.3M42.7 34.516s-.344.17-.078.35M42.48 34.33s.39-.188.56-.257M42.62 34.426s.564-.314.73-.382M42.91 34.446s.48-.293.74-.42M43.228 34.436a7.07 7.07 0 0 1 .653-.41M43.994 33.728s-.162-.218-.7 0a1.893 1.893 0 0 1 .584-.29M44.42 32.5a.55.55 0 0 1 0 .284M43.553 33.36a.74.74 0 0 1 .394-.223.262.262 0 0 0 .3.135.292.292 0 0 0 .232-.392s-.07-.248-.45-.273M45.154 32.19s.385.064.378.35a.5.5 0 0 1-.465.517M45.478 32.368a.665.665 0 0 1 .34-.3M45.533 31.948s.1.154.177.177M45.478 32.07a1.092 1.092 0 0 0 .132.13M45.445 32.178a.39.39 0 0 0 .1.093M43.464 30.512a.234.234 0 0 1 .262-.065M44.486 31.345a.388.388 0 0 1 .53-.284M44.85 31.024a.4.4 0 0 0-.06-.313M44.568 31.01a.16.16 0 0 1 .008.156" stroke="#273376" stroke-miterlimit="10" stroke-width=".05" fill="none"/><path d="M45.405 35.608s.463-.193.32-.52a.16.16 0 0 0-.146-.1s-.18.007-.144.225a.675.675 0 0 1-.03.395z" fill="#64b3d0" stroke="#273376" stroke-miterlimit="2.613" stroke-width=".05"/><path d="M45.573 35.414a.307.307 0 0 0 .088-.25s-.005-.033.013-.038c0 0 .02-.008.023.032a.294.294 0 0 1-.095.263.023.023 0 0 1-.02.007s-.015-.003-.007-.013z" fill="#fff"/><path d="M46.064 35.312a.366.366 0 0 0 .15-.5.147.147 0 0 0-.15-.072s-.2.057-.044.314a.432.432 0 0 1 .044.258z" fill="#64b3d0" stroke="#273376" stroke-miterlimit="2.613" stroke-width=".05"/><path d="M46.145 34.886s-.017-.02-.005-.03.008-.01.03.014a.22.22 0 0 1 .02.255s-.01.022-.026.015c0 0-.013-.006 0-.025a.212.212 0 0 0-.02-.23z" fill="#fff"/><path d="M45.09 35.526a.374.374 0 0 1-.3-.427.17.17 0 0 1 .19-.13s.186.043.065.26a.3.3 0 0 0 .046.296z" fill="#64b3d0" stroke="#273376" stroke-miterlimit="2.613" stroke-width=".05"/><path d="M44.95 35.116s-.012-.016 0-.023c0 0 .016-.006.027.014a.14.14 0 0 1 .006.13.158.158 0 0 0-.016.106s0 .016-.01.018a.023.023 0 0 1-.016-.015.136.136 0 0 1 .014-.1s.046-.085-.003-.13z" fill="#fff"/><path d="M45.352 34.877a.385.385 0 0 1 .374.018s-.017-.068-.147-.1a.268.268 0 0 0-.267-.165 1.226 1.226 0 0 0 .187.162s-.113.008-.148.085zM45.5 34.382a1.46 1.46 0 0 1 .2.157.533.533 0 0 1 .13-.1.216.216 0 0 0-.13.024.388.388 0 0 0-.2-.082z"/><path d="M44.7 34.786a.113.113 0 0 1 .02-.1.12.12 0 0 0 .016-.082M46.19 31.863s.215-.014.25-.168M46.82 31.594a.226.226 0 0 0-.143.06.153.153 0 0 1-.126.063" stroke="#000" stroke-miterlimit="10" stroke-width=".05" fill="none"/><path d="M45.868 31.28a.33.33 0 0 0 .175-.05.073.073 0 0 1 .1.025.086.086 0 0 1-.05.134s-.137.062.08.188c0 0-.258-.085-.154-.2 0 0 .11-.074.07-.1 0 0-.012-.022-.057 0a.21.21 0 0 1-.165.002z"/><path d="M46.022 28.787s.05-.063.03-.253a.148.148 0 0 1 .23-.158s.07.057.005.178a.507.507 0 0 1-.265.233z" fill="#64b3d0" stroke="#273376" stroke-miterlimit="2.613" stroke-width=".05"/><path d="M46.09 28.645a.228.228 0 0 0 .035-.21s0-.015.01-.016.015 0 .018.01a.3.3 0 0 1-.04.237s-.014.012-.023 0a.015.015 0 0 1 0-.022z" fill="#fff"/><path d="M45.964 28.718s0-.077-.15-.207-.026-.25.063-.248c0 0 .092 0 .125.13a.437.437 0 0 1-.038.326z" fill="#64b3d0" stroke="#273376" stroke-miterlimit="2.613" stroke-width=".05"/><path d="M45.94 28.55s0-.093-.127-.19c0 0-.01-.012-.005-.018a.016.016 0 0 1 .023 0s.142.1.145.216c0 0 0 .018-.017.014a.02.02 0 0 1-.017-.02z" fill="#fff"/><path d="M45.767 28.66s-.038-.062-.217-.12-.13-.2-.055-.232c0 0 .078-.03.162.065a.417.417 0 0 1 .11.287z" fill="#64b3d0" stroke="#273376" stroke-miterlimit="2.613" stroke-width=".05"/><path d="M45.69 28.545a.287.287 0 0 0-.2-.123s-.016-.007-.013-.014a.015.015 0 0 1 .02-.012s.175.04.23.14c0 0 .006.017-.01.02a.018.018 0 0 1-.028-.01z" fill="#fff"/><path d="M45.88 28.723a.49.49 0 0 1-.276-.063c-.19-.085-.275.062-.242.14 0 0 .035.083.184.068a.55.55 0 0 0 .333-.145z" fill="#64b3d0" stroke="#273376" stroke-miterlimit="2.613" stroke-width=".05"/><path d="M45.434 28.78a.31.31 0 0 0 .244-.008s.016 0 .02.005a.013.013 0 0 1-.01.02.42.42 0 0 1-.275.007s-.016-.01 0-.02a.02.02 0 0 1 .02-.005z" fill="#fff"/><path d="M45.6 28.17a.13.13 0 0 1 .073.144" stroke="#000" stroke-miterlimit="2.613" stroke-width=".05" fill="none"/><path d="M46.022 28.183s.037.11 0 .167" stroke="#000" stroke-miterlimit="10" stroke-width=".05" fill="none"/><path d="M39.42 28.787s-.052-.063-.03-.253a.148.148 0 0 0-.23-.158s-.072.057-.006.178a.507.507 0 0 0 .265.233z" fill="#64b3d0" stroke="#273376" stroke-miterlimit="2.613" stroke-width=".05"/><path d="M39.35 28.645a.224.224 0 0 1-.034-.21s0-.015-.01-.016-.015 0-.018.01a.3.3 0 0 0 .04.237s.014.012.023 0a.016.016 0 0 0 0-.022z" fill="#fff"/><path d="M39.477 28.718s.005-.077.15-.207.026-.25-.063-.248c0 0-.092 0-.125.13a.437.437 0 0 0 .037.326z" fill="#64b3d0" stroke="#273376" stroke-miterlimit="2.613" stroke-width=".05"/><path d="M39.5 28.55s0-.093.13-.19c0 0 .01-.012 0-.018a.015.015 0 0 0-.023 0s-.14.1-.145.216c0 0 0 .018.018.014a.02.02 0 0 0 .02-.02z" fill="#fff"/><path d="M39.673 28.66s.038-.062.217-.12.13-.2.056-.232c0 0-.08-.03-.162.065a.412.412 0 0 0-.11.287z" fill="#64b3d0" stroke="#273376" stroke-miterlimit="2.613" stroke-width=".05"/><path d="M39.752 28.545a.283.283 0 0 1 .2-.123s.015-.007.013-.014a.015.015 0 0 0-.02-.012s-.175.04-.23.14c0 0-.007.017.01.02a.02.02 0 0 0 .027-.01z" fill="#fff"/><path d="M39.56 28.723a.49.49 0 0 0 .276-.063c.192-.085.276.062.242.14 0 0-.035.083-.183.068a.55.55 0 0 1-.334-.145z" fill="#64b3d0" stroke="#273376" stroke-miterlimit="2.613" stroke-width=".05"/><path d="M40.007 28.78a.312.312 0 0 1-.245-.008s-.016 0-.018.005a.013.013 0 0 0 .008.02.42.42 0 0 0 .276.007s.016-.01 0-.02a.02.02 0 0 0-.02-.005z" fill="#fff"/><path d="M39.842 28.17a.13.13 0 0 0-.074.144" stroke="#000" stroke-miterlimit="2.613" stroke-width=".05" fill="none"/><path d="M39.42 28.183s-.04.11 0 .167" stroke="#000" stroke-miterlimit="10" stroke-width=".05" fill="none"/><path d="M43.573 27.188a.65.65 0 0 1 .035.3c-.023.128.008.16.06.186a.13.13 0 0 0 .157-.117.265.265 0 0 1-.114.36.28.28 0 0 1-.31-.032.332.332 0 0 1-.047-.282.585.585 0 0 0-.024-.313.34.34 0 0 1 .07.28s-.05.334.22.318a.2.2 0 0 0 .194-.21.173.173 0 0 1-.157.05.143.143 0 0 1-.108-.158 1.826 1.826 0 0 0 .023-.382zM43.267 27.737a.37.37 0 0 1-.28.328s.038-.048-.02-.18a.33.33 0 0 1-.055-.2s-.084.06.012.22a.192.192 0 0 1-.01.215c-.014.008.436-.05.353-.383zM42.924 27.474a.335.335 0 0 1-.068-.218c0-.152-.036-.19-.058-.206a.78.78 0 0 1 .024.212.355.355 0 0 0 .018.165s-.144.02-.235-.17-.174-.17-.217-.168c0 0 .05.004.152.172s.13.2.384.212zM42.25 27.077a1.05 1.05 0 0 1 .087.278.4.4 0 0 1-.245-.212.208.208 0 0 0-.13.28.523.523 0 0 1-.26-.19.877.877 0 0 0 .192.1s-.01-.174.23-.24c0 0 .036.157.156.194 0 0-.01-.1-.03-.21zM42.568 26.765a.272.272 0 0 0 .2.093.235.235 0 0 0 .2-.093s-.01.155-.2.156c.003 0-.2.008-.2-.155zM41.727 27.822a1.39 1.39 0 0 1 .122.112.087.087 0 0 0 .132-.02s.078-.13.173-.127a.548.548 0 0 0-.144.168.094.094 0 0 1-.076.05.117.117 0 0 1-.11-.037.808.808 0 0 1-.097-.146zM42.77 26.145c-.2 0-.03.144-.03.144a.23.23 0 0 1-.332.23c-.136-.065-.03-.23-.03-.23a.154.154 0 0 0-.056.224c.1.134.355.074.45-.05.094.124.35.184.448.05a.153.153 0 0 0-.055-.225s.106.165-.03.23a.23.23 0 0 1-.332-.23s.172-.145-.032-.145zM42.9 25.9a.47.47 0 0 1 .055.28.27.27 0 0 0-.055-.28zM42.27 26.16a.154.154 0 0 0-.143-.132.593.593 0 0 1 .144.13zM43.273 26.16a.156.156 0 0 1 .145-.132.61.61 0 0 0-.145.13zM42.066 26.344a.173.173 0 0 0 .165-.04zM41.735 25.6s.12-.012.238.15a.68.68 0 0 0-.147.092.14.14 0 0 1 .058-.1.257.257 0 0 0-.15-.142zM43.73 25.6s-.12-.012-.24.15a.68.68 0 0 1 .148.092.14.14 0 0 0-.058-.1.257.257 0 0 1 .15-.142zM42.81 25.722a.37.37 0 0 0 .24-.04s.165-.08.27 0a.37.37 0 0 0-.267.04s-.176.088-.243 0z"/><path d="M42.92 25.82a.372.372 0 0 1 .37-.117s-.075.204-.37.118z" fill="#fff"/><path d="M43.113 25.71a.065.065 0 0 1 0 .13.065.065 0 0 1 0-.13z" fill="#794622"/><path d="M43.113 25.736a.037.037 0 0 1 .033.04.033.033 0 1 1-.066 0 .037.037 0 0 1 .033-.04zM42.325 25.51a.777.777 0 0 1 .282.07.24.24 0 0 0 .243-.026.93.93 0 0 0 .23-.177 1.782 1.782 0 0 1-.3.156.318.318 0 0 1-.1-.125s.01-.055.127-.158c0 0-.156.043-.187.164a.42.42 0 0 0 .09.132s-.03.012-.106-.03a.5.5 0 0 0-.28-.007zM42.77 26.474c-.15.12 0 .108 0 .108s.154.018 0-.108zM42.683 25.722a.37.37 0 0 1-.24-.04s-.165-.08-.27 0a.37.37 0 0 1 .268.04s.177.088.243 0z"/><path d="M42.572 25.82s-.09-.146-.37-.117c-.002-.003.076.204.37.118z" fill="#fff"/><path d="M42.38 25.71a.065.065 0 1 1-.055.065.06.06 0 0 1 .055-.064z" fill="#794622"/><path d="M42.38 25.736a.037.037 0 0 1 .033.04.033.033 0 1 1-.066 0 .037.037 0 0 1 .033-.04z"/><path d="M48.146 24.5v9.224c0 2.464-5.386 3.264-5.386 3.264s-5.386-.8-5.386-3.264V24.5z" stroke="#000" stroke-width=".05" fill="none"/><path fill="#273376" d="M-15.612 3.545h43.116V27.5h-43.116z"/><path fill="#fff" d="M27.535 27.502h-4.79L9.628 20.216l-.033 7.286H2.347l.055-7.265-13.18 7.265h-4.82v-2.684l9.49-5.26-9.49-.058v-7.954l9.47-.01-9.47-5.308V3.544h4.653L2.35 10.89l-.007-7.346h7.24l.01 7.298 13.088-7.298h4.855v2.743l-9.493 5.247 9.493-.024v8.012l-9.42-.01 9.42 5.295v2.695z"/><path d="M27.7 13.254V18.1q-9.635 0-19.27-.005c-.173 0-.225.037-.225.245q.01 4.725.005 9.45H3.876v-9.4c0-.223-.03-.294-.25-.294Q-6 18.108-15.62 18.1v-4.846q9.638 0 19.277.005c.18 0 .224-.047.223-.25q-.01-4.726 0-9.454h4.328q0 4.7-.005 9.4c0 .238.043.3.265.3q9.615-.008 19.232-.002zM27.5 3.55c-.032.07-.1.078-.156.108l-13.986 7.77a.86.86 0 0 1-.432.116c-.97-.005-1.94 0-2.922 0 .04-.1.125-.11.19-.145q6.93-3.853 13.862-7.7c.072-.04.164-.053.21-.145zM-15.558 27.5c1.032-.58 2.064-1.16 3.1-1.736L-1.41 19.62a.885.885 0 0 1 .452-.116c.89.006 1.782 0 2.673 0h.224a.55.55 0 0 1-.25.18q-6.94 3.86-13.885 7.72c-.05.028-.1.06-.148.092zM27.5 27.494q-1.7-.954-3.407-1.906l-10.686-5.936c-.06-.034-.135-.047-.184-.143h1.727c.338 0 .677.014 1.014 0a1.38 1.38 0 0 1 .778.207q5.345 2.976 10.694 5.94c.032.018.066.034.1.05l.01 1.7c-.003.032.003.076-.046.087z" fill="#ce202c"/></g></svg>