<svg xmlns="http://www.w3.org/2000/svg" viewBox="0 0 55 55"><defs><clipPath id="a"><circle cx="-42.5" cy="27.5" r="23.3" fill="none"/></clipPath></defs><path fill="#ce202c" d="M-85.612 3.545H.62v47.91H-85.61z" clip-path="url(#a)"/><path d="M50.11 21.852l-21.146-4.4-1.13-.235-.13-.026-.413-.088-.125-.027-.638-.13-17.494-3.64a23.313 23.313 0 0 1 41.077 8.547zM45.978 41.668a23.31 23.31 0 0 1-41.093-8.546L13.923 35l2.1.44 2.93.61 3.032.63.77.16.533.11.544.116 4.947 1.03 1.166.24 1.754.364.293.057.81.168.267.057 2.73.565z" fill="#f6df25"/><path d="M50.8 27.5a23.242 23.242 0 0 1-.622 5.36l-9.608-2-2.333-.485-1.746-.36-1.422-.3-6.616-1.377-1.825-.377-7.06-1.46-.66-.136-4.707-.987-.335-.068-.162-.033-.44-.094-.172-.037-.4-.083-.16-.032-.5-.1-7.464-1.557a23.237 23.237 0 0 1 4.467-10.067l17.494 3.64.638.13.126.027.414.09.13.025 1.13.235 21.146 4.4a23.378 23.378 0 0 1 .69 5.647z" fill="#fff"/><path d="M50.178 32.86a23.05 23.05 0 0 1-2.506 6.287 22.742 22.742 0 0 1-1.694 2.52L35.8 39.55l-2.73-.565-.267-.057-.81-.168-.293-.06-1.752-.366-1.167-.234-4.946-1.03-.544-.115-.534-.11-.77-.162-3.032-.628-2.93-.612-2.1-.443-9.04-1.878a23.43 23.43 0 0 1-.318-9.75l7.47 1.555.5.1.16.032.4.082.174.037.44.093.16.032.336.068 4.707.983.66.136 7.06 1.47 1.825.376 6.616 1.376 1.423.3 1.746.36 2.333.487z"/><path d="M20.936 22.762a3.518 3.518 0 0 0 1.193-.34 4.492 4.492 0 0 1 1.008-.387c.3-.058.476 0 .33.062a9.383 9.383 0 0 0-.963.293 9.74 9.74 0 0 1-1.422.576c-.33.078-.162.22-.09.292a1.262 1.262 0 0 0 .524.3 1.38 1.38 0 0 0 .763-.115 3 3 0 0 0 .607-.393 4.156 4.156 0 0 1 .565-.33 1.322 1.322 0 0 1 .548-.168c.355 0 .43.016.366.08-.09.088-.66.218-.99.38a6.272 6.272 0 0 0-1.107.728c-.158.162.3.35.4.387a1.168 1.168 0 0 0 .962-.152 6.638 6.638 0 0 0 .747-.57 2.035 2.035 0 0 1 .826-.434c.02 0 .047 0 .057.016s-.01.037-.026.048l-.758.57c-.216.162-.414.345-.64.49-.4.257.07.587.367.63a1.46 1.46 0 0 0 .93-.32 13.508 13.508 0 0 0 1.455-1.287s-.026.058-.267.476.063.6.184.6.328-.084.406-.01a.926.926 0 0 0 .246 1.28.878.878 0 0 1 .214-.334 1.358 1.358 0 0 0 .13-.085 1.358 1.358 0 0 0 .132.084.866.866 0 0 1 .21.333.927.927 0 0 0 .25-1.28c.073-.074.282.01.4.01s.43-.178.188-.6-.267-.476-.267-.476a13.508 13.508 0 0 0 1.45 1.283 1.46 1.46 0 0 0 .93.32c.3-.043.76-.373.36-.63-.224-.145-.417-.328-.63-.49-.258-.19-.51-.377-.76-.57-.016-.01-.032-.027-.026-.048s.036-.02.057-.015a2.03 2.03 0 0 1 .828.434 6.583 6.583 0 0 0 .742.57 1.168 1.168 0 0 0 .963.153c.1-.037.56-.225.4-.387a6.668 6.668 0 0 0-1.108-.727c-.335-.164-.9-.294-.99-.383-.062-.063 0-.08.367-.08a1.37 1.37 0 0 1 .544.174 4.043 4.043 0 0 1 .56.33 3.068 3.068 0 0 0 .612.393 1.357 1.357 0 0 0 .758.115 1.2 1.2 0 0 0 .523-.3c.077-.073.245-.214-.09-.292a10.278 10.278 0 0 1-1.423-.576 8.947 8.947 0 0 0-.962-.293c-.146-.062.032-.12.33-.062a4.427 4.427 0 0 1 1.014.387 3.488 3.488 0 0 0 1.187.34 1.31 1.31 0 0 0 1.223-.607c.42-.6.2-.492-.272-.46a3 3 0 0 1-1.558-.09 5.51 5.51 0 0 1-1.51-.78c-.216-.135-.4-.3-.62-.443a3.013 3.013 0 0 0-3.215.03 1.89 1.89 0 0 0-.25.216l-.064.062v-1.51l-.29.32-.3-.32v1.51l-.063-.062a1.618 1.618 0 0 0-.25-.215 3 3 0 0 0-3.212-.03c-.215.14-.408.307-.617.443a5.5 5.5 0 0 1-1.517.78 3 3 0 0 1-1.558.09c-.465-.033-.69-.137-.266.46a1.3 1.3 0 0 0 1.22.606zM28.614 25.465c-.078-.078-.3 0-.392.027a.7.7 0 0 0-.272.193c-.026.026-.168.236-.215.188s-.057-.57-.235-.57-.194.523-.24.57-.19-.162-.215-.188a.7.7 0 0 0-.272-.193c-.084-.032-.314-.105-.392-.027s.142.262.346.47a1.087 1.087 0 0 1 .246.86 2.4 2.4 0 0 1-.288 1.014 1.91 1.91 0 0 0-.073 1.332c.168.325.268.33.367.36s.173-.062.26-.276a.546.546 0 0 1 .2-.24.11.11 0 0 1 .127 0 .51.51 0 0 1 .194.24c.088.214.16.314.266.277s.194-.036.36-.36a1.91 1.91 0 0 0-.067-1.334 2.4 2.4 0 0 1-.288-1.016 1.1 1.1 0 0 1 .24-.858c.208-.21.412-.403.344-.47zM26.188 33.243a1.394 1.394 0 0 0 .433.69c.163.068.174-.167.21-.267a2.816 2.816 0 0 1 .273-.533 2.227 2.227 0 0 1 .193-.256 1.1 1.1 0 0 1 .105-.12.962.962 0 0 0 .08-.074.027.027 0 0 1 .036 0c.026.026.068.058.078.073.037.037.073.08.11.12a2.19 2.19 0 0 1 .188.257 2.55 2.55 0 0 1 .272.533c.037.1.053.335.215.267a1.434 1.434 0 0 0 .428-.69 2.485 2.485 0 0 0-.162-1.47 3.512 3.512 0 0 1-.356-1.255 1.173 1.173 0 0 1 .147-.664c.057-.058.245-.163.23-.262a.088.088 0 0 0-.058-.063.35.35 0 0 0-.127-.016.535.535 0 0 0-.376.177c-.058.06-.178.22-.262.11a.274.274 0 0 1-.03-.093c0-.026-.017-.052-.022-.078a1 1 0 0 0-.073-.17c-.042-.088-.11-.2-.22-.2s-.183.116-.225.2a1.683 1.683 0 0 0-.068.17.45.45 0 0 0-.02.077.274.274 0 0 1-.032.094c-.084.11-.2-.05-.267-.11a.515.515 0 0 0-.37-.176.377.377 0 0 0-.132.015.092.092 0 0 0-.058.062c-.015.1.174.2.23.262a1.183 1.183 0 0 1 .147.664 3.4 3.4 0 0 1-.356 1.255 2.516 2.516 0 0 0-.162 1.47zM25.837 33.656a.808.808 0 0 1-.4-.236c-.01-.01-.026-.03-.042-.036-.062-.026-.062.052-.062.09a2.3 2.3 0 0 0 4.335 0c0-.038 0-.116-.057-.09-.02.005-.03.026-.046.036a.794.794 0 0 1-.4.236 1.784 1.784 0 0 0-.287.094.843.843 0 0 0-.21.178 1.18 1.18 0 0 1-.5.33c-.355.093-.188-.1-.167-.19a.538.538 0 0 0-.084-.548c-.14-.183-.3-.392-.38-.48a.05.05 0 0 0-.08 0c-.073.088-.235.3-.38.48a.538.538 0 0 0-.085.55c.027.088.19.28-.167.187a1.2 1.2 0 0 1-.49-.33.865.865 0 0 0-.216-.177 1.728 1.728 0 0 0-.28-.094zM27.5 38.185A9.03 9.03 0 0 0 34.545 23.5a7.88 7.88 0 0 1 .92 3.72A7.968 7.968 0 1 1 20.45 23.5a9.034 9.034 0 0 0 7.05 14.685zM38.352 39.315a.905.905 0 0 0-.156-.372.948.948 0 0 0-.44-.308c-.083-.032-.256-.052-.308-.14s.11-.33.136-.45a.688.688 0 0 0-.346-.733 1.513 1.513 0 0 0-.81-.19 2.343 2.343 0 0 0-.492.116c-.052.016-.24.1-.293.053-.063-.062.068-.2.335-.622a.958.958 0 0 0-.664-1.344.982.982 0 0 0-.77.183c-.14.11-.282.215-.423.32a19.733 19.733 0 0 1-2.975 2.065 9.132 9.132 0 0 1-7.29 0 20.146 20.146 0 0 1-2.982-2.066c-.14-.1-.28-.21-.423-.32a.977.977 0 0 0-.77-.182.957.957 0 0 0-.657 1.344c.266.424.39.56.33.623-.05.048-.242-.036-.29-.052a2.4 2.4 0 0 0-.5-.115 1.53 1.53 0 0 0-.81.19.686.686 0 0 0-.34.73c.02.12.194.35.13.45-.046.09-.224.11-.307.142a.93.93 0 0 0-.435.308.843.843 0 0 0-.155.372c-.006.026-.016.345.02.33a7.328 7.328 0 0 1 .722-.3 2.332 2.332 0 0 1 .832-.053 3.79 3.79 0 0 1 2 .9 1.92 1.92 0 0 0 1.678.518.508.508 0 0 0 .4-.324c.042-.115 0-.48.084-.56.03-.03.03-.09.444.214a6.43 6.43 0 0 0 1.983.8 11.354 11.354 0 0 0 5.385 0 6.482 6.482 0 0 0 1.983-.8c.413-.3.413-.245.445-.214.072.08.04.445.083.56a.493.493 0 0 0 .4.324 1.928 1.928 0 0 0 1.68-.518 3.772 3.772 0 0 1 2-.9 2.3 2.3 0 0 1 .826.052 6.846 6.846 0 0 1 .726.3c.025.016.02-.303.014-.33zM26.49 19.383l.565-.56.445.487.445-.487.56.56.45-.54.71.577a6.4 6.4 0 0 1-.575-1.9 2.764 2.764 0 0 1-1.59.355 2.783 2.783 0 0 1-1.595-.355 6.24 6.24 0 0 1-.575 1.9l.71-.576zM27.5 17.74c.863 0 1.57-.2 1.57-.444 0-.214-.53-.392-1.235-.44v.607h-.67v-.606c-.706.047-1.234.225-1.234.44 0 .245.702.444 1.57.444zM27.29 14.205v3.128h.41v-1.517l1.38.68-.737-1 1.025-.408-1.668-.883c.105-.036.173-.1.173-.167 0-.11-.168-.2-.377-.2s-.382.094-.382.2c.004.068.072.13.177.167z" fill="#ce1225"/><path d="M20.152 31.763a1.18 1.18 0 0 0-.35.172.54.54 0 0 0-.163.256.824.824 0 0 0 0 .493 1.16 1.16 0 0 0 .22.445c.082.094.224.266.386.245a.137.137 0 0 0 .09-.036c.077-.09-.08-.262-.038-.487a.292.292 0 0 1 .068-.167c.162-.162.54-.005.622.03.283.122.508.34.523.514a.3.3 0 0 1-.014.125c-.01.027-.032.058-.178.152-.094.058-.14.09-.162.073s-.006-.068.02-.245a.933.933 0 0 0 .022-.178c-.032-.178-.278-.262-.31-.272s-.26-.084-.323.005c-.047.068.057.152.057.377a.343.343 0 0 1-.052.224.34.34 0 0 1-.22.095.532.532 0 0 1-.33-.09 1.6 1.6 0 0 1-.4-.33 1.217 1.217 0 0 1-.354-.647.87.87 0 0 1 .183-.65.92.92 0 0 1 .375-.23.456.456 0 0 1 .35-.015c.01.007.084.043.08.08s-.067.047-.103.063zM23.17 34.184c-.016 0-.074-.016-.173.073-.115.105-.11.178-.2.314a1.125 1.125 0 0 1-.293.273.678.678 0 0 1-.292.152c-.016 0-.184.03-.215-.026-.02-.043.03-.106.052-.132a.865.865 0 0 1 .156-.126c.073-.062.126-.1.12-.157s-.073-.1-.125-.12-.104-.026-.33.052c-.124.047-.176.074-.333.13-.178.064-.214.06-.23.043-.047-.052.03-.2.036-.21.058-.1.12-.125.256-.23.282-.214.324-.345.334-.38s.037-.132-.01-.18-.136-.025-.2.01c-.115.07-.084.18-.235.373a.634.634 0 0 1-.168.152.452.452 0 0 1-.19.062c-.156.01-.344-.062-.38-.188-.01-.038 0-.07-.022-.168a.247.247 0 0 0-.042-.1.18.18 0 0 0-.2.058.22.22 0 0 0-.026.2.324.324 0 0 0 .126.183c.083.057.12.026.24.1a.22.22 0 0 1 .12.1c.03.062 0 .094.037.172a.172.172 0 0 0 .073.094c.053.036.09.02.136.057a.2.2 0 0 1 .078.094c.042.126-.078.215-.094.44 0 .042 0 .11.02.12s.085-.11.215-.2a.62.62 0 0 1 .24-.088 1.793 1.793 0 0 1 .4.02 1.1 1.1 0 0 0 .34-.046c.09-.032.095-.058.424-.335.022-.015.136-.14.366-.386a.158.158 0 0 0 .058-.126.114.114 0 0 0-.07-.074zM21.7 35c-.026.02-.062.005-.084 0 0-.005-.078-.026-.073-.052s.063-.058.115-.042c.02.005.063.026.063.057a.055.055 0 0 1-.02.037zm.225-.225a.13.13 0 0 1-.13.01c-.01 0-.07-.02-.074-.047s.053-.047.1-.062.106-.042.127-.02a.1.1 0 0 1-.022.12zM23.426 34.383c.078-.032.193.01.2.063s-.068.1-.19.2c-.375.324-.29.465-.6.71-.037.027-.1.074-.104.137a.207.207 0 0 0 .2.193c.068 0 .12-.062.183-.136.08-.09.073-.125.13-.15a.192.192 0 0 1 .215.05c.042.053.02.116.047.12s.048-.056.116-.11.162-.093.183-.067-.12.13-.163.33a.422.422 0 0 0 .02.246.416.416 0 0 0 .483.166.505.505 0 0 0 .282-.366c.032-.126 0-.235.078-.288a.12.12 0 0 1 .11-.02c.1.046.053.35.047.376a.57.57 0 0 1-.12.288.592.592 0 0 1-.314.193.715.715 0 0 1-.607-.017.4.4 0 0 1-.2-.22c-.053-.156.026-.3-.042-.35a.15.15 0 0 0-.104 0c-.277.074-.345.168-.47.168a.35.35 0 0 1-.3-.2c-.048-.12.02-.245.12-.418a4.547 4.547 0 0 1 .61-.72.924.924 0 0 1 .127-.132.237.237 0 0 1 .063-.047zM22.537 35.947a.076.076 0 0 0-.032.088.078.078 0 0 0 .074.063.076.076 0 0 0 .082-.068.085.085 0 0 0-.016-.073.084.084 0 0 0-.11-.01zM24.477 35.157c-.047.026-.14 0-.152-.058 0-.043.032-.08.068-.1s.115-.012.13.025a.106.106 0 0 1-.01.08c-.013.02-.013.04-.036.052zM25.805 35.607a.087.087 0 0 0-.015.1.11.11 0 0 0 .162.026.08.08 0 0 0 .027-.063.1.1 0 0 0-.033-.068.106.106 0 0 0-.142.005zM29.44 36.25c-.3-.063-.23-.063-.434-.1a.792.792 0 0 0-.476-.006.17.17 0 0 0-.09.09.14.14 0 0 0 .022.125c.074.056.2-.085.34-.027.058.02.047.047.142.1s.135.058.14.084c.01.057-.172.14-.28.178a.857.857 0 0 1-.488.068c-.152-.032-.21-.105-.324-.068-.074.02-.1.068-.168.062-.047-.005-.062-.026-.172-.088a.687.687 0 0 0-.162-.075c-.095-.01-.11.053-.256.09-.037.01-.19.046-.262-.027a.326.326 0 0 1-.026-.042c-.09-.136-.55.12-.738-.047a.273.273 0 0 1-.094-.158c0-.062.026-.1 0-.13s-.042-.027-.178-.016-.162.016-.224.016a.315.315 0 0 1-.147-.037c-.026-.01-.068-.042-.136-.188-.09-.173-.074-.225-.136-.278a.32.32 0 0 0-.184-.037.43.43 0 0 0-.256.115.494.494 0 0 0-.168.24.346.346 0 0 0 0 .24c.053.1.162.1.168.174.005.047-.053.094-.11.13a1.275 1.275 0 0 1-.54.178 1.04 1.04 0 0 1-.564-.073 1 1 0 0 0-.36-.14c-.053 0-.168-.017-.2.035s.046.168.093.22a.526.526 0 0 0 .115.084 1.1 1.1 0 0 0 .382.094 1.324 1.324 0 0 1 .162.02 1.428 1.428 0 0 0 .648-.046.974.974 0 0 0 .466-.25c.078-.095.13-.2.272-.263a.542.542 0 0 1 .193-.046c.127-.016.357-.047.41.047.03.06-.037.11 0 .18s.146.088.234.104a1.027 1.027 0 0 0 .215 0c.375-.016.454 0 .49.057.027.033 0 .053.032.085.063.078.22.036.37.01a2.357 2.357 0 0 1 .775.006 1.982 1.982 0 0 0 .314.042.91.91 0 0 0 .284-.015 1.025 1.025 0 0 0 .45-.2c.2-.147.172-.22.313-.262a2.12 2.12 0 0 0 .31-.1c.083-.032.1-.052.1-.063-.007-.035-.107-.055-.267-.092zm-4.246-.068c-.016.052-.08.063-.12.063a.12.12 0 0 1-.1-.084c0-.02.01-.046.04-.1s.032-.052.037-.052c.043-.015.095.047.1.053a.13.13 0 0 1 .044.122zM31.046 35.82c-.068-.22-.094-.182-.162-.412s-.073-.387-.2-.466a.18.18 0 0 0-.126-.026c-.068.02-.083.115-.083.126a.27.27 0 0 0 .047.188 2.83 2.83 0 0 1 .183.43 4.81 4.81 0 0 1 .11.47c.052.193.084.256.052.35a.362.362 0 0 1-.177.22c-.142.062-.2-.037-.482-.02a1.08 1.08 0 0 0-.36.072c-.085.037-.142.078-.215.058a1.317 1.317 0 0 0-.162-.074.2.2 0 0 0-.094 0c-.073.037-.068.157-.068.173a.142.142 0 0 0 .037.114c.042.042.094 0 .2.016a.277.277 0 0 1 .193.094c.053.068 0 .125.053.2a.336.336 0 0 0 .257.1.27.27 0 0 0 .22-.047c.047-.047.026-.078.083-.188a.427.427 0 0 1 .126-.142.408.408 0 0 1 .152-.053.807.807 0 0 0 .47-.345c.142-.222.053-.504-.052-.84zm-.9 1.356c-.04.02-.083-.01-.11-.027a.113.113 0 0 1-.057-.08.106.106 0 0 1 .208-.015c.012.045 0 .105-.042.12zM31.538 34.383a.125.125 0 0 0 .1.14.12.12 0 0 0 .12-.077.092.092 0 0 0-.02-.116c-.01-.01-.022-.01-.058 0-.08.016-.132.02-.142.053zM34.64 33.054c0-.005-.064-.1-.11-.094s-.048.194-.048.215c.005.146.052.193.022.266-.01.028-.038.064-.163.122a4.016 4.016 0 0 1-.407.115.79.79 0 0 0-.34.246c-.12.146-.11.25-.277.413-.094.094-.14.094-.168.094-.094-.005-.1-.126-.235-.183a.352.352 0 0 0-.292.02.562.562 0 0 0-.193.257c-.015.042-.02.09-.042.09s-.026-.132-.1-.168a.16.16 0 0 0-.152.04.242.242 0 0 0-.058.232c.022.094.068.11.1.188a.436.436 0 0 1-.115.5.414.414 0 0 1-.262.047c-.072-.006-.2-.016-.26-.105s0-.193-.038-.2-.052.08-.136.1a.136.136 0 0 1-.125-.026c-.027-.032-.027-.063-.037-.147-.017-.13-.022-.193-.053-.21-.052-.03-.147.022-.2.08a.225.225 0 0 0-.062.12c-.027.12.088.188.182.355a3.482 3.482 0 0 1 .115.55c.037.214.053.324.074.324s.025-.084.077-.277a1.32 1.32 0 0 1 .058-.183c.1-.116.3.026.564-.058a.75.75 0 0 0 .376-.288.554.554 0 0 0 .136-.4c-.01-.094-.067-.178-.02-.236a.135.135 0 0 1 .093-.036.573.573 0 0 1 .36.057c.106.037.116.058.127.068.04.07-.006.164-.047.247-.225.492-.2.455-.225.492-.13.192-.215.234-.283.422-.01.037-.047.152-.01.178s.2-.13.272-.2a1.4 1.4 0 0 0 .407-.554c.1-.345-.105-.6.073-.8a.437.437 0 0 1 .126-.094c.193-.094.318.03.5-.052a.47.47 0 0 0 .21-.225c.062-.152-.032-.21.02-.325.08-.183.33-.12.492-.35a.687.687 0 0 0 .09-.23.533.533 0 0 0-.02-.396zm-1.695 1.57c-.037.036-.11.005-.126 0-.053-.027-.11-.09-.1-.13.01-.022.03-.038.077-.064s.058-.026.08-.02c.046.004.072.062.077.072.017.037.033.105-.01.14zm.9-.362c-.015.027-.062.09-.115.084a.084.084 0 0 1-.052-.052.107.107 0 0 1 .02-.1c.01-.02.043-.084.1-.09.007 0 .06 0 .075.037s-.003.096-.024.122zM33.95 32.4c.03-.063.088-.058.1-.105a.122.122 0 0 0-.07-.126c-.04-.016-.077.005-.14.036a.33.33 0 0 0-.13.115.23.23 0 0 0-.037.163.28.28 0 0 0 .09.157c.077.094.11.09.124.14.026.085-.042.158-.01.19a.08.08 0 0 0 .09 0c.067-.032.046-.1.12-.22.046-.078.088-.094.124-.194.033-.068.022-.083.017-.088-.02-.016-.068.036-.167.052-.03.01-.1.02-.13-.016s.013-.098.02-.104zM34.163 32.108c.068.162.345.282.534.465.21.215.193.408.36.434a.287.287 0 0 0 .215-.052c.125-.078.1-.188.2-.345.125-.194.25-.152.355-.32a.614.614 0 0 0 .068-.45c-.042-.23-.162-.193-.6-.705a.99.99 0 0 0-.4-.288c-.08-.026-.12-.026-.147-.005-.063.047-.036.225.052.33s.163.068.34.135a1.15 1.15 0 0 1 .424.34.55.55 0 0 1 .13.455c-.004.02-.03.1-.083.11s-.088-.03-.234-.172c-.644-.623-.168-.152-.257-.24-.11-.1-.137-.137-.163-.126-.052.015-.078.15-.052.26a1.04 1.04 0 0 0 .235.325c.084.094.115.12.12.177a.237.237 0 0 1-.104.21.172.172 0 0 1-.094.036c-.084-.005-.136-.1-.215-.214a2.032 2.032 0 0 0-.387-.456c-.052-.042-.052-.037-.172-.13-.09-.07-.115-.095-.136-.085-.047.02-.042.15-.02.23a.235.235 0 0 0 .03.078zM34.97 30.4c-.043.02-.054.142-.007.225a.278.278 0 0 0 .1.105 2.424 2.424 0 0 0 .3.178c.3.146.4.486.45.46.03-.01.016-.115.01-.13-.052-.262-.27-.315-.67-.7-.074-.088-.143-.16-.184-.138zM21.4 37.254a.268.268 0 0 0-.188-.152.462.462 0 0 0-.366.047c-.1.057-.084.094-.183.146a.517.517 0 0 1-.633-.152c-.178-.188-.14-.308-.293-.408-.09-.052-.22-.083-.266-.036a.136.136 0 0 0-.015.094c.016.078.1.1.2.193.078.068.052.08.14.173a.836.836 0 0 0 .3.22 1.123 1.123 0 0 0 .294.078c.177.026.23.016.287.068a.47.47 0 0 1 .1.183c.042.1.03.14.063.156.068.037.2-.084.267-.14.148-.137.347-.315.293-.472zm-.345.225c-.02.004-.068.015-.09-.006a.1.1 0 0 1 .05-.14.1.1 0 0 1 .1.093c-.006.03-.053.047-.064.052zM22.144 37.343a.3.3 0 0 0-.078.188 1.626 1.626 0 0 1-.12.414c-.09.157-.2.22-.173.3a.084.084 0 0 0 .058.062c.09.016.2-.183.288-.324.136-.24.084-.256.19-.382a.26.26 0 0 0 .082-.172.146.146 0 0 0-.083-.12.178.178 0 0 0-.163.035zM21.15 38.16c.257.166.356.35.566.443a.5.5 0 0 0 .36.048.48.48 0 0 0 .31-.287c.057-.152-.027-.215.036-.4a.544.544 0 0 1 .157-.23c.02-.01.17-.13.255-.073a.16.16 0 0 1 .047.13c-.005.1-.1.132-.183.252-.116.162-.022.225-.137.423-.08.13-.157.157-.162.262a.3.3 0 0 0 .074.193 1.116 1.116 0 0 0 .79.325c.3.01.5-.08.606.042a.474.474 0 0 0 .136.162.36.36 0 0 0 .19.056c.28.042.328.01.375.063.064.072-.004.177.07.234a.178.178 0 0 0 .146.02c.167-.014.2-.13.32-.12.056.006.1.043.182.11.12.11.13.184.2.19s.152-.07.19-.11a.687.687 0 0 0 .146-.41c.015-.244-.08-.312-.006-.422.03-.053.052-.032.225-.194.026-.026.047-.042.068-.036.053.01.043.2.043.266-.016.32-.042.984-.476 1.182a.6.6 0 0 1-.492.016c-.152-.084-.136-.22-.277-.262-.183-.062-.32.12-.45.037a.568.568 0 0 1-.15-.187c-.022-.047-.022-.068-.05-.084-.06-.043-.13.03-.25.03a.336.336 0 0 1-.246-.094c-.062-.083-.015-.177-.073-.225s-.152-.014-.19 0a1.43 1.43 0 0 1-1.06-.208c-.194-.146-.184-.293-.414-.387-.115-.047-.125-.01-.293-.063a1.273 1.273 0 0 1-.507-.3.76.76 0 0 1-.188-.3c-.01-.037-.032-.1-.006-.126s.087.012.12.033zM25.717 40.523c.266 0 .475.016.533.02a2.04 2.04 0 0 0 .55-.025.546.546 0 0 0 .23-.105.4.4 0 0 0 .135-.162c.042-.093 0-.13.037-.276a.308.308 0 0 1 .12-.236c.037-.02.105-.04.14-.015s.033.1-.004.246a1.286 1.286 0 0 1-.167.5.7.7 0 0 1-.323.235c-.173.073-.215.02-.622.042-.31.015-.42.052-.576-.027-.09-.04-.2-.12-.184-.162.014-.03.08-.035.13-.035zM26.606 39.1c-.068.173.01.288.026.586a1.607 1.607 0 0 1-.026.512.58.58 0 0 0-.032.152c.02.01.09-.11.14-.214a1.728 1.728 0 0 0 .127-.466c.043-.22.028-.246.064-.43.01-.06.016-.13.026-.2s.016-.1 0-.12c-.042-.042-.162-.01-.235.053a.313.313 0 0 0-.09.127zM27.673 39.064c-.042.15.052.2.09.43s-.038.276-.022.663c0 .115.017.277.048.282s.1-.2.136-.35a2.493 2.493 0 0 0 .03-.378c.006-.094.017-.34.006-.674-.005-.163-.01-.215-.046-.23-.064-.02-.2.104-.24.256zM28.473 39.592c.052.13.178.1.282.235s.115.335.042.4c-.042.036-.084-.005-.21.015a.618.618 0 0 0-.25.1c-.105.068-.214.136-.21.215a.125.125 0 0 0 .084.088c.1.037.18-.088.378-.177s.256-.02.356-.1a.594.594 0 0 0 .135-.476.788.788 0 0 0-.1-.356c-.06-.115-.142-.26-.273-.272a.228.228 0 0 0-.2.1.247.247 0 0 0-.034.228zM30.47 39.315c-.057-.02-.172.12-.224.246a.422.422 0 0 0-.03.367c.077.136.27.146.464.157a1.6 1.6 0 0 0 .607-.09 1.44 1.44 0 0 0 .632-.38 1.42 1.42 0 0 0 .25-.372c.11-.21.095-.262.08-.293s-.053-.043-.22-.163a.78.78 0 0 1-.095-.068c-.073-.1.016-.2-.01-.42-.006-.047-.02-.2-.09-.22-.046-.01-.1.048-.135.105-.053.1.01.162 0 .366a.413.413 0 0 1-.047.263c-.063.078-.136.073-.194.172-.037.058-.058.14-.027.157.042.037.173-.172.346-.152a.213.213 0 0 1 .176.13.216.216 0 0 1-.047.184.443.443 0 0 1-.2.178c-.508.256-.524.345-.76.366-.13.005-.287.02-.376-.078-.14-.147-.025-.424-.103-.455zM31.292 38.185a.1.1 0 0 0-.094.11c.01.063.14.1.177.063a.093.093 0 0 0 0-.1c-.005-.01-.03-.073-.083-.073zM31.543 40.09c-.058.01-.125.05-.12.082s.062.048.11.048c.067-.006.135-.068.125-.1s-.068-.036-.115-.03zM31.01 40.225a.113.113 0 0 0 .083.146.11.11 0 0 0 .1-.082.092.092 0 0 0-.036-.1.1.1 0 0 0-.148.037zM33.77 37.16a.385.385 0 0 0-.2-.24.33.33 0 0 0-.355.088c-.026.026-.042.058-.067.42-.01.218-.01.3.036.333.03.022.073.017.14.007.106-.016.138-.047.18-.032.067.026.077.14.083.162a.515.515 0 0 1-.136.35 2.614 2.614 0 0 1-.35.4c-.073.063-.16.152-.293.278a.57.57 0 0 1-.057.068c-.094.1-.13.15-.115.172s.162-.02.26-.068a.95.95 0 0 0 .18-.115c.057-.052.125-.115.208-.2a2.237 2.237 0 0 0 .3-.37 1.87 1.87 0 0 0 .2-.707.95.95 0 0 0-.012-.545zm-.182.272c-.026.068-.11.14-.162.125s-.053-.14-.053-.162c0-.12.068-.26.13-.256s.137.172.085.292zM34.456 36.935a.946.946 0 0 0-.256.173.557.557 0 0 0-.115.293 3.72 3.72 0 0 0-.037.424 1.293 1.293 0 0 1-.078.372 2.915 2.915 0 0 1-.19.3c-.05.073-.082.11-.067.125.02.038.168 0 .272-.077a.71.71 0 0 0 .23-.387 1.553 1.553 0 0 0 .1-.518c0-.157-.026-.267.052-.382a.5.5 0 0 1 .115-.115c.2-.156.293-.135.43-.27a.285.285 0 0 0 .114-.236c0-.02 0-.073-.042-.09-.062-.02-.136.147-.355.29-.054.038-.043.023-.174.1zM34.8 37.327a.118.118 0 0 0-.042.152c.032.04.142.025.19-.032.014-.027.035-.074.014-.1a.12.12 0 0 0-.162-.02z" fill="#f6df25"/><path d="M11.956 24.29s.267 2.677.874 3.283 1.422 1.266 1.522 1.716c.083.4.094 3.043.094 3.7a.282.282 0 0 0 .136.24 2.2 2.2 0 0 0 1.067.287 2.084 2.084 0 0 0 .992-.24.26.26 0 0 0 .147-.247l-.06-4.98s.048-.417-.845-1.013a10.983 10.983 0 0 1-1.146-1.2c-.143-.136-.273-.335-.5-.277-.29.068.014.528.093.664a3.98 3.98 0 0 1 .376.706 3.723 3.723 0 0 1 .188.617.5.5 0 0 1-.01.178.352.352 0 0 1-.043.12.04.04 0 0 1-.063 0 .834.834 0 0 0-.094-.094c-.073-.072-.15-.14-.23-.208 0 0-.01-.01-.016-.01a7.183 7.183 0 0 1-1.134-.754.6.6 0 0 1-.126-.3 2.34 2.34 0 0 0-.633-1.265c-.037-.026-.006-.257-.006-.3a1.594 1.594 0 0 0-.31-.988.28.28 0 0 0-.077-.08c-.274-.163-.222.334-.2.444zM12.558 24.174c.01.047.032.1.042.146a2.912 2.912 0 0 1 .073.42c.005.077.015.16.015.24a.314.314 0 0 0 .058.214 2.668 2.668 0 0 1 .465.83 4.022 4.022 0 0 0 .158.623 1.785 1.785 0 0 0 .492.372c.125.062.8.522.842.57.026.02.01-.053.01-.06a.642.642 0 0 0-.03-.14 1.128 1.128 0 0 0-.3-.47.984.984 0 0 0-.47-.273.108.108 0 0 1-.038-.01c-.036-.02-.047-.11-.057-.146s-.016-.083-.03-.125c-.038-.115-.08-.225-.127-.335a1.97 1.97 0 0 0-.434-.664c-.03-.026-.057-.052-.09-.078a.15.15 0 0 1-.04-.037c-.022-.03 0-.083 0-.12v-.14a2.58 2.58 0 0 0 0-.278 1.456 1.456 0 0 0-.184-.627c-.058-.1-.288-.325-.345-.105a.47.47 0 0 0-.01.194zM13.15 24.184a1.322 1.322 0 0 0 .035.288c.02.14.047.282.058.423 0 .084-.02.257.042.325a2.544 2.544 0 0 1 .34.476 3.49 3.49 0 0 1 .235.44c.03.072.063.145.09.224s.03.146.12.193a1.544 1.544 0 0 1 .39.262.957.957 0 0 1-.114-.24c-.052-.11-.11-.22-.162-.33-.083-.162-.167-.33-.256-.492-.037-.073-.073-.146-.115-.22-.026-.036-.11-.14-.11-.183a1.68 1.68 0 0 0-.26-1.166.33.33 0 0 0-.17-.11c-.082-.01-.114.042-.124.11zM13.708 24.315a.32.32 0 0 0 .02.068 2.258 2.258 0 0 1 .137.492 2.01 2.01 0 0 1 .016.26c0 .043-.004.085-.004.127a.168.168 0 0 0 .005.115.727.727 0 0 0 .085.13c.037.047.052-.02.083-.047a.245.245 0 0 1 .068-.052.356.356 0 0 0 .084-.02.033.033 0 0 0 .005-.022 2.75 2.75 0 0 0-.026-.424 1.987 1.987 0 0 0-.142-.632.226.226 0 0 0-.24-.162c-.084.015-.098.1-.09.167zM15.4 33.724a1.484 1.484 0 0 1-.346-.1 2.864 2.864 0 0 1-.38-.22c-.1-.062-.252-.125-.357-.03a.265.265 0 0 0 .042.38 2.076 2.076 0 0 0 .85.388 1.83 1.83 0 0 0 .86 0 2.08 2.08 0 0 0 .852-.387.266.266 0 0 0 .04-.382c-.1-.094-.25-.03-.354.032a2.943 2.943 0 0 1-.382.22 1.48 1.48 0 0 1-.345.1 1.65 1.65 0 0 1-.48 0zM15.356 34.33a1.614 1.614 0 0 1-.4-.1 4.468 4.468 0 0 1-.444-.225c-.12-.057-.293-.12-.413-.03a.248.248 0 0 0 .046.386 2.782 2.782 0 0 0 .988.388 2.69 2.69 0 0 0 1 0 2.78 2.78 0 0 0 .99-.387.25.25 0 0 0 .046-.386c-.12-.09-.293-.026-.413.03a4.49 4.49 0 0 1-.445.226 1.61 1.61 0 0 1-.4.1 1.81 1.81 0 0 1-.556 0zM15.32 34.995a2.026 2.026 0 0 1-.45-.1 4.868 4.868 0 0 1-.5-.225.537.537 0 0 0-.472-.03c-.147.1-.08.3.057.386a3.24 3.24 0 0 0 1.12.387 3.155 3.155 0 0 0 1.13 0 3.234 3.234 0 0 0 1.118-.387c.136-.084.2-.288.053-.387a.527.527 0 0 0-.466.03 4.967 4.967 0 0 1-.5.225 2.044 2.044 0 0 1-.45.1 2.343 2.343 0 0 1-.64 0zM43.044 24.29s-.267 2.677-.874 3.283-1.427 1.266-1.522 1.716c-.083.4-.094 3.043-.1 3.7a.283.283 0 0 1-.135.24 2.187 2.187 0 0 1-1.068.287 2.092 2.092 0 0 1-.994-.24.28.28 0 0 1-.145-.247l.058-4.98s-.042-.417.852-1.013a11.573 11.573 0 0 0 1.145-1.2c.142-.136.272-.335.5-.277.293.068-.015.528-.09.664a3.68 3.68 0 0 0-.375.706 3.23 3.23 0 0 0-.19.617.747.747 0 0 0 .007.178.365.365 0 0 0 .047.12c.01.02.04.02.062 0 .026-.036.062-.062.09-.094.072-.072.15-.14.23-.208 0 0 .01-.01.014-.01a7.146 7.146 0 0 0 1.135-.754.606.606 0 0 0 .132-.3 2.292 2.292 0 0 1 .628-1.265c.036-.026.01-.257.01-.3a1.6 1.6 0 0 1 .3-.988.414.414 0 0 1 .084-.08c.268-.163.215.334.2.444zM42.437 24.174a.73.73 0 0 1-.042.146 2.9 2.9 0 0 0-.068.42c-.01.077-.015.16-.02.24a.29.29 0 0 1-.058.214 2.54 2.54 0 0 0-.46.83 3.684 3.684 0 0 1-.164.623 1.71 1.71 0 0 1-.49.372c-.127.062-.79.522-.838.57-.026.02-.016-.053-.016-.06.01-.046.02-.1.032-.14a1.166 1.166 0 0 1 .3-.47.984.984 0 0 1 .47-.273.135.135 0 0 0 .043-.01c.036-.02.04-.11.052-.146l.03-.125c.037-.115.08-.225.126-.335a1.968 1.968 0 0 1 .44-.664c.025-.026.057-.052.088-.078a.13.13 0 0 0 .037-.037c.022-.03 0-.083 0-.12V24.713a1.41 1.41 0 0 1 .19-.627c.05-.1.287-.325.344-.105a.4.4 0 0 1 .003.194zM41.846 24.184a1.03 1.03 0 0 1-.037.288 4.07 4.07 0 0 0-.053.423c0 .084.02.257-.047.325a2.544 2.544 0 0 0-.34.476 4.286 4.286 0 0 0-.235.44 1.552 1.552 0 0 0-.084.224c-.03.084-.035.146-.124.193a1.8 1.8 0 0 0-.393.262.894.894 0 0 0 .115-.24c.053-.11.11-.22.163-.33l.257-.492c.036-.073.08-.146.12-.22.02-.036.11-.14.11-.183a1.713 1.713 0 0 1 .256-1.166.33.33 0 0 1 .168-.11c.09-.01.12.042.126.11zM41.286 24.315l-.015.068a1.81 1.81 0 0 0-.135.492 2.01 2.01 0 0 0-.016.26 1.062 1.062 0 0 0 .004.127c0 .04.016.078-.005.115a.544.544 0 0 1-.09.13c-.036.047-.052-.02-.078-.047a.35.35 0 0 0-.068-.052c-.02-.005-.08-.01-.084-.02a.033.033 0 0 1 0-.022 2.875 2.875 0 0 1 .02-.424 2.163 2.163 0 0 1 .142-.632.235.235 0 0 1 .246-.162c.073.015.092.1.078.167zM39.6 33.724a1.55 1.55 0 0 0 .34-.1 2.933 2.933 0 0 0 .387-.22c.1-.062.246-.125.356-.03s.058.3-.042.38a2.076 2.076 0 0 1-.85.388 1.85 1.85 0 0 1-.864 0 2.08 2.08 0 0 1-.853-.387c-.1-.084-.15-.288-.042-.382s.252-.03.357.032a2.947 2.947 0 0 0 .387.22 1.53 1.53 0 0 0 .34.1 1.685 1.685 0 0 0 .486 0zM39.64 34.33a1.5 1.5 0 0 0 .4-.1 4.49 4.49 0 0 0 .45-.225.42.42 0 0 1 .412-.03c.13.1.068.3-.052.386a2.782 2.782 0 0 1-.988.388 2.664 2.664 0 0 1-1 0 2.787 2.787 0 0 1-.99-.387c-.12-.083-.182-.287-.05-.386a.42.42 0 0 1 .412.03 4.6 4.6 0 0 0 .45.226 1.512 1.512 0 0 0 .4.1 1.775 1.775 0 0 0 .555 0zM39.676 34.995a2.01 2.01 0 0 0 .45-.1 4.924 4.924 0 0 0 .507-.225.523.523 0 0 1 .465-.03c.147.1.08.3-.052.386a3.313 3.313 0 0 1-1.12.387 3.183 3.183 0 0 1-1.134 0 3.313 3.313 0 0 1-1.12-.387c-.13-.084-.2-.288-.052-.387a.525.525 0 0 1 .466.03 5 5 0 0 0 .507.225 2.026 2.026 0 0 0 .45.1 2.3 2.3 0 0 0 .633 0z" fill="#ce1225"/></svg>