<svg xmlns="http://www.w3.org/2000/svg" viewBox="0 0 55 55"><path d="M27.5 4.2a23.114 23.114 0 0 0-12.955 3.95v27.116h34.927A23.31 23.31 0 0 0 27.5 4.2z" fill="#c7313d"/><path d="M14.545 35.518V46.85A23.114 23.114 0 0 0 27.5 50.8a23.35 23.35 0 0 0 21.972-15.533H14.545z" fill="#48a558"/><path d="M4.634 30.183v-.748h.476V28.7h.455v-.74h.413v-.925h-.413V26.3H5.11v-.74h-.476v-.748h-.277a23.046 23.046 0 0 0 0 5.37zM5.053 23.28v.79h.49v.742h.394v-.743H6.4v-.744h.455v-.748h.455v-.747h.517v-.847h.463v-.8h-.43v-.706h-.548v-.8H5.957v.8h.91v.706h-.4v.8H6.01v.785h-.466v-.785H5.13c-.2.665-.36 1.34-.5 2.03v.266zM10.466 11.62c-.08.085-.162.174-.236.263h.236zM10.476 12.61h.486v.753h-.486zM14.11 31.715h-.417v-.79H13.2v-.742h-.397v.743h-.455v.742h-.455v.748h-.455v.743h-.523v.85h-.465v.802h.434v.455h.994v-.455h.397v-.8h.46v-.785h.466v.784h.46v.802h.393v.455h.492V34.01h-.434v-.83h.435v-.7h-.434v-.765zM10.08 22.578h-.456v-.747h-.5v.748h-.458v.748H8.21v.743h-.46v.742h-.443v.748h-.455v3.875h.455v.748h.444v.743h.46v.742h.456v.748h.456v.743h.5v-.744h.455v-.748h.455v-.742h.46v-.743h.444v-.748h.455V25.56h-.454v-.748h-.444v-.743h-.46v-.744h-.455zm-2.287 5.3h-.486v-.76h.486zm3.16-.76h.485v.76h-.486zm-1.826-3.813h.486v.76h-.486zm.486 8.38h-.486v-.754h.486zm.837-6.858v1.538h-.455v.706h-.418v.848h.418v.712h.455v1.537h-.413v-.826h-.46v-.71H9.17v.71h-.46v.827H8.3V28.63h.45v-.712h.42v-.847h-.42v-.705H8.3v-1.538h.414v.827h.46v.71h.408v-.71h.46v-.827zM14.11 25.56h-.475v.737h-.455v.738h-.418v.925h.418v.738h.455v.737h.476v.748h.435v-5.37h-.434v.747zM13.175 12.61h.492v.753h-.492zM14.1 8.75h-.42c-.01.01-.02.016-.03.026v.733h-.466v.752h-.392v.774h-.44v.8h-.538v-.795h-.444v-.34c-.136.13-.272.26-.4.4h.005v.785h.4v.743h.47v.72h-.47v.744h-.4v.785h-.507v-.787h-.4v-.743H9.6v-.72h.465v-.56c-.32.355-.622.72-.915 1.092v.187H9c-.11.142-.214.288-.32.435v.308h-.223l-.183.262v.523H7.93c-.163.25-.32.5-.472.758h.366v.8h.44v.727h.45v.758h.434v.76H9.6v-.76h.434v-.758h.45v-.727h.44v-.8h.438v-.795h.487v-.732h.45v.732h.487v.8h.44v.8h.438v.727h.45v.758h.434v-1.495h-.435V15.6h.434v-2.253h-.472v.743h-.4v.785h-.508v-.785h-.408v-.743H12.3v-.72h.466v-.744h.408V11.1h.507v.785h.4v.743h.472v-2.3h-.43V9.57h.43V8.15c-.152.093-.3.2-.444.3zm-4.518 7.678h-.434v-1.59h.434zM14.053 20.183h-.392v.8h-.46v.785h-.464v-.785h-.46v-.8h-.398v-.706h.905v-.805h-1.365v.805h-.544v.706h-.435v.8h.465v.848h.533v.748h.455v.748h.455v.743h.455v.742h.398v-.743h.493v-.79h.418v-.764h.435v-.7h-.434v-.833h.435v-1.506h-.492v.706zM5.544 33.227h.466v.784h.46v.8h.4v.456h1v-.455h.434v-.8H7.84v-.85h-.533v-.744h-.455v-.748H6.4v-.742h-.46v-.743h-.396v.743h-.49v.79h-.42v.27c.136.687.3 1.36.5 2.025h.413zM14.053 35.267h.492v.25h-.492zM11.433 35.518v.805h1.35v-.805h-.905v-.25h-.994v.25h.55zM6.867 35.518h-.91v.805h1.37v-.805h.545v-.25H6.867v.25zM14.116 45.423v-.753h.43v-2.3h-.472v.743h-.4v.787h-.504v-.784h-.408v-.743H12.3v-.722h.466v-.75h.408v-.78h.507v.78h.4v.748h.472V39.4h-.434v-.83h.434V37.08h-.434v.758h-.45v.727h-.44v.8h-.438v.795h-.49v.727h-.45v-.728h-.49v-.795h-.44v-.8h-.44v-.727h-.448v-.758H9.6v-.76h-.45v.76h-.436v.758h-.45v.727h-.44v.8h-.37c.15.256.308.507.47.758h.35v.528c.058.084.12.168.178.25h.23v.32c.105.147.21.288.32.43h.146v.193c.293.37.6.737.915 1.093v-.566H9.6v-.722h.465V40.9h.4v-.78h.507v.78h.4v.748h.47v.722h-.47v.743h-.4v.787h-.01c.135.136.27.267.407.4v-.34h.444v-.8h.54v.8h.438v.774h.392v.758h.466v.733a.092.092 0 0 1 .026.02h.424v.3c.146.1.292.2.444.3v-1.422zM9.6 40.157h-.437v-1.59H9.6zM13.175 41.632h.492v.753h-.492zM10.226 43.112c.078.094.156.178.24.267v-.268zM10.476 41.632h.486v.753h-.486z" fill="#fff"/><path fill="#c7313d" d="M14.11 15.596h.435v.832h-.434zM14.11 20.983h.435v.832h-.434zM9.148 14.838h.434v1.59h-.434zM8.682 14.09v-.308c-.078.1-.15.2-.225.308zM9.148 13.347v-.188c-.047.062-.1.125-.147.187zM8.274 14.352c-.12.167-.235.345-.345.523h.344zM9.6 12.626v.72h.465v.744h.4v.785h.507v-.785h.4v-.743h.47v-.72h-.47v-.744h-.4V11.1h-.005c-.173.168-.34.346-.5.523v.262h-.237c-.057.058-.115.12-.167.183v.56zm.878-.016h.486v.753h-.486zM14.074 11.883h-.4V11.1h-.504v.785h-.408v.743H12.3v.72h.466v.744h.408v.785h.507v-.787h.4v-.743h.472v-.72h-.47zm-.408 1.48h-.49v-.753h.49zM14.116 9.57h.43v.754h-.43zM11.815 11.036v.8h.54v-.795h.438v-.773h.392V9.51h.466v-.734a23.6 23.6 0 0 0-2.28 1.924v.335zM14.1 8.452c-.142.094-.278.194-.42.3h.42zM6.867 34.812h-.4v-.8H6.01v-.784h-.466v.784H5.13c.12.424.257.842.4 1.256h1.337zM14.11 17.155h-.45v-.727h-.438v-.8h-.44v-.795H12.3V14.1h-.45v.733h-.49v.8h-.44v.8h-.44v.727h-.448v.758H9.6v.76h-.45v-.76h-.436v-.758h-.45v-.727h-.44v-.8h-.366a22.953 22.953 0 0 0-2.327 5.35h.414v.785h.466v-.785h.46v-.8h.4v-.706h-.91v-.8h1.352v.8h.55v.706h.428v.8h-.466v.848h-.517v.748h-.455v.748H6.4v.743h-.46v.742h-.396v-.743h-.49v-.79h-.42v-.267c-.115.59-.21 1.192-.277 1.8h.277v.748h.476v.74h.455v.738h.413v.925h-.413v.737H5.11v.737h-.476v.748h-.277c.068.607.162 1.208.277 1.8v-.272h.42v-.79h.49v-.742h.393v.744H6.4v.742h.455v.748h.455v.743h.53v.852h.466v.8h-.434v.454h3.012v-.455h-.434v-.8h.465v-.853h.523v-.743h.455v-.748h.455v-.742h.452v-.743h.4v.744h.492v.79h.418v.763h.434v-2.3h-.434v-.748h-.476v-.73h-.454v-.74h-.418v-.925h.418V26.3h.455v-.74h.476v-.748h.435v-2.3h-.434v.763h-.417v.79H13.2v.743h-.4v-.743h-.455v-.743h-.455v-.748h-.455v-.747h-.533v-.848h-.466v-.8h.435v-.707h.545v-.8h1.365v.8h-.9v.706h.4v.8h.46v.784h.46v-.785h.46v-.8h.392v-.707h.492v-1.56h-.434zm-3.576 6.17v.744h.46v.742h.444v.748h.455v3.875h-.455v.748h-.444v.743h-.46v.742h-.455v.748h-.456v.743h-.5v-.744h-.458v-.748H8.21v-.742h-.46v-.743h-.443v-.748h-.455V25.56h.455v-.748h.444v-.743h.46v-.744h.456v-.748h.456v-.747h.5v.748h.455v.748zM14.053 34.812h-.392v-.8h-.46v-.785h-.464v.784h-.46v.802h-.398v.455h2.175v-.455zM14.053 35.267h-2.175v.25h.9v.8h-1.35v-.8h-.55v-.25H7.873v.25h-.544v.8h-1.37v-.8h.91v-.25H5.533a23.434 23.434 0 0 0 1.92 4.095h.37v-.8h.44v-.722h.45v-.758h.434v-.76H9.6v.76h.434v.758h.45v.727h.44v.8h.438v.795h.487v.727h.45v-.728h.487v-.795h.44v-.8h.438v-.727h.45v-.758h.434v-1.564h-.493zM14.11 38.567h.435v.832h-.434zM14.11 33.18h.435v.832h-.434zM9.163 38.567h.435v1.59h-.435zM14.074 40.9h-.4v-.78h-.504v.78h-.408v.748H12.3v.722h.466v.743h.408v.787h.507v-.784h.4v-.743h.472v-.722h-.47zm-.408 1.486h-.49v-.753h.49zM10.466 43.112v.267c.162.17.33.344.5.516h.01v-.784h.4v-.743h.472v-.723h-.47V40.9h-.4v-.78h-.508v.78h-.4v.748H9.6v.722h.465v.565c.052.063.1.12.163.178zm.01-1.48h.486v.753h-.486zM8.682 40.9h-.23c.073.11.152.215.23.32zM9.148 41.647H9c.047.063.094.13.147.194zM8.274 40.12h-.35c.115.178.23.356.35.528zM14.116 44.67h.43v.753h-.43zM13.65 45.49h-.465v-.757h-.392v-.774h-.44v-.8h-.538v.8h-.445v.34a23.6 23.6 0 0 0 2.28 1.924zM14.1 46.245h-.424l.424.3zM7.307 27.118h.486v.758h-.486zM10.952 27.118h.486v.758h-.486zM9.127 30.93h.486v.754h-.486zM9.127 23.305h.486v.758h-.486zM10.037 25.654h-.46v.71H9.17v-.71h-.46v-.827h-.415v1.537h.455v.707h.42v.848h-.42v.712h-.455v1.537h.414v-.826h.46v-.71h.407v.71h.46v.827h.413V28.63h-.455v-.712h-.418v-.847h.418v-.705h.455V24.827h-.413v.827z"/></svg>