<svg xmlns="http://www.w3.org/2000/svg" viewBox="0 0 55 55"><defs><clipPath id="a"><circle cx="27.5" cy="27.5" r="23.32" fill="none"/></clipPath></defs><g fill-rule="evenodd" clip-path="url(#a)"><path fill="#ee2724" d="M4.18 50.82h69.96V4.18H4.18v46.64z"/><path d="M28.31 6.6l-1 1.4-1.65-.56 1 1.42-1 1.39 1.66-.52 1 1.42V9.41l1.66-.51-1.65-.55V6.61zM34 12.08l-1.64.56-1-1.39v1.74l-1.65.56 1.66.51v1.74l1-1.42 1.66.52L33 13.5l1-1.42zm.41 7.73h-1.74l-.51-1.66-.56 1.64h-1.74l1.39 1-.57 1.64 1.42-1 1.39 1L33 20.8l1.43-1zm-4.57 5.36l-1.66-.51v-1.74l-1 1.42-1.66-.52 1 1.39-1 1.42 1.64-.56 1 1.39v-1.74l1.65-.56zm-14-16.32l-1.59 4.92H9.08l4.19 3-1.61 4.92 4.18-3 4.18 3-1.61-4.92 4.19-3h-5.17l-1.59-4.92z" fill="#fddf00"/></g></svg>