<svg xmlns="http://www.w3.org/2000/svg" viewBox="0 0 55 55"><path d="M27.5 4.2a23.245 23.245 0 0 0-18.02 8.553c-.21.25-.408.507-.6.768h37.247A23.273 23.273 0 0 0 27.5 4.2zM9.48 42.247a23.267 23.267 0 0 0 36.647-.768H8.874c.198.26.396.52.605.767z" fill="#052a8d"/><path d="M5.533 35.268a23.226 23.226 0 0 0 3.34 6.21h37.254a23.422 23.422 0 0 0 3.34-6.21 22.992 22.992 0 0 0 .858-3.11H4.675a22.844 22.844 0 0 0 .858 3.11zM5.538 19.732a22.75 22.75 0 0 0-.862 3.105h45.65a22.192 22.192 0 0 0-.864-3.105 23.265 23.265 0 0 0-3.335-6.21H8.877a23.14 23.14 0 0 0-3.34 6.21z" fill="#fff"/><path d="M4.2 27.5a23.158 23.158 0 0 0 .476 4.658h45.65a23.1 23.1 0 0 0 0-9.32H4.675A23.245 23.245 0 0 0 4.2 27.5z" fill="#052a8d"/><path d="M38.976 27.5l-15.53 7.768-13.967 6.98a23.243 23.243 0 0 1 0-29.495l13.96 6.98z" fill="#ce152a"/><path fill="#fff" d="M15.344 22.356l1.276 3.93h4.134l-3.345 2.427 1.274 3.93-3.34-2.43-3.34 2.43 1.276-3.93-3.34-2.426h4.13l1.274-3.93z"/></svg>