<svg xmlns="http://www.w3.org/2000/svg" viewBox="0 0 55 55"><path d="M50.8 27.5a23.132 23.132 0 0 1-3.06 11.527 23.285 23.285 0 0 1-40.48 0A23.25 23.25 0 0 1 4.2 27.5v-.2a23.3 23.3 0 0 1 46.59 0c.01.064.01.132.01.2z" fill="#053891"/><path d="M50.8 27.5a22.813 22.813 0 0 1-.3 3.708h-46a22.925 22.925 0 0 1-.3-3.708v-.2h46.6v.2z" fill="#fff"/><path d="M50.5 31.208a22.858 22.858 0 0 1-.983 3.912H5.48a22.858 22.858 0 0 1-.98-3.912z" fill="#ce2026"/><path d="M49.52 35.12a22.96 22.96 0 0 1-1.78 3.907H7.26a22.96 22.96 0 0 1-1.78-3.907z" fill="#fff"/><path fill="#f6d023" d="M12.244 27.51l.507 1.564h1.65l-1.335.963.513 1.563-1.334-.962-1.33.962.51-1.563-1.33-.963h1.643l.507-1.564zM34.534 27.51l.513 1.564h1.642l-1.33.963.508 1.563-1.334-.962-1.328.962.507-1.563-1.328-.963h1.642l.507-1.564zM12.244 34.665l.507 1.564h1.65l-1.335.967.513 1.563-1.334-.967-1.33.967.51-1.563-1.33-.968h1.643l.507-1.565zM34.534 34.665l.513 1.564h1.642l-1.33.967.508 1.563-1.334-.967-1.328.967.507-1.563-1.328-.968h1.642l.507-1.565zM16.522 21.674l.507 1.563h1.642l-1.33.963.51 1.564-1.33-.963-1.334.964.508-1.564-1.33-.963h1.644l.512-1.563zM30.26 21.674l.51 1.563h1.646l-1.333.963.507 1.564-1.33-.963-1.326.964.506-1.564-1.328-.963h1.642l.507-1.563zM16.522 40.544l.507 1.564h1.642l-1.33.967.51 1.564-1.33-.97-1.334.97.508-1.565-1.33-.967h1.644l.512-1.564zM30.26 40.544l.51 1.564h1.646l-1.333.967.507 1.564-1.33-.97-1.326.97.506-1.565-1.328-.967h1.642l.507-1.564zM23.39 19.435L23.896 21h1.648l-1.328.967.507 1.563-1.333-.967-1.33.967.508-1.563L21.24 21h1.642l.508-1.565zM23.39 42.798l.506 1.564h1.648l-1.328.967.507 1.563-1.333-.967-1.33.967.508-1.564-1.328-.968h1.642l.508-1.564z"/></svg>