<svg xmlns="http://www.w3.org/2000/svg" viewBox="0 0 55 55"><path d="M27.5 50.8a23.327 23.327 0 0 0 23.3-23.3H4.2a23.33 23.33 0 0 0 23.3 23.3z" fill="#0bac2f"/><path d="M27.5 4.2A23.327 23.327 0 0 0 4.2 27.5h46.6A23.323 23.323 0 0 0 27.5 4.2z" fill="#6ab2e6"/><path d="M32.3 27.5l-10.333 7.767-11.2 8.42a23.244 23.244 0 0 1 0-32.38l11.2 8.426z" fill="#fff"/><path fill="#d6141a" d="M15.66 21.62l1.458 4.49h4.724l-3.824 2.776 1.46 4.493-3.82-2.78-3.822 2.78 1.46-4.494-3.82-2.777H14.2l1.46-4.49z"/></svg>