<svg xmlns="http://www.w3.org/2000/svg" viewBox="0 0 55 55"><path d="M22.845 4.67v18.17H4.67A23.367 23.367 0 0 1 22.846 4.67z" fill="#022d61"/><path d="M22.845 32.16v18.175A23.367 23.367 0 0 1 4.67 32.16zM50.335 22.84H32.16V4.67a23.368 23.368 0 0 1 18.175 18.17z" fill="#cd1225"/><path d="M50.335 32.16A23.377 23.377 0 0 1 32.16 50.335V32.16z" fill="#022d61"/><path d="M50.8 27.5a23.613 23.613 0 0 1-.465 4.66H32.16v18.175a23.558 23.558 0 0 1-9.315 0V32.16H4.67a23.288 23.288 0 0 1 0-9.32h18.175V4.67a23.263 23.263 0 0 1 9.315 0v18.17h18.175a23.613 23.613 0 0 1 .465 4.66z" fill="#fff"/><path d="M23.964 28.588a.48.48 0 0 1-.643-.01.508.508 0 0 1 .644.01z" fill="#006206"/><path d="M23.89 28.588a.44.44 0 0 1-.5-.005c.158-.058.367-.136.508-.02l-.345.02z" fill="#00853e"/><path d="M24.922 30.173a.474.474 0 0 1 .172-.612.5.5 0 0 1-.172.613z" fill="#006206"/><path d="M24.942 30.105a.44.44 0 0 1 .13-.482c.017.168.043.387-.1.5.06-.33.063-.34.063-.34z" fill="#00853e"/><path d="M24.388 26.145c-.03.13-.078.314-.13.544a6.736 6.736 0 0 0-.158.95 3.926 3.926 0 0 0 .08 1.094 4.39 4.39 0 0 0 .438 1.13 1.3 1.3 0 0 0 .215.335 1.63 1.63 0 0 0 .69.422c.23.08.47.084.7.142a4.38 4.38 0 0 1 .675.26c.183.08.355.168.538.242a7.06 7.06 0 0 1 .848.366c.026.01.078.036.083.083a.078.078 0 0 1-.042.074c-.078.05-.22-.048-.266-.075-.268-.177-.587-.266-.87-.423a6.647 6.647 0 0 0-.878-.382c-.173-.063-.345-.1-.523-.146-.163-.048-.336-.074-.5-.13a1.27 1.27 0 0 1-.63-.576 4.29 4.29 0 0 1-.5-1.167 3.888 3.888 0 0 1-.124-.668 4.145 4.145 0 0 1 .047-.978 6.93 6.93 0 0 1 .23-1.046s.096-.12.075-.053zM24.487 30.11a.462.462 0 0 1-.465.02 1.308 1.308 0 0 1-.324-.25.764.764 0 0 1 .79.23z" fill="#006206"/><path d="M24.4 30.078a.3.3 0 0 0-.142-.125.613.613 0 0 0-.258-.026 1.137 1.137 0 0 1-.183 0c-.01 0-.03 0-.037-.006a1.522 1.522 0 0 0 .325.2.36.36 0 0 0 .3-.02l-.23-.047-.11.01.052-.02-.115-.052.393.09" fill="#00853e"/><path d="M24.65 27.73a.455.455 0 0 1-.094-.455 1.266 1.266 0 0 1 .193-.36.753.753 0 0 1-.1.815z" fill="#006206"/><path d="M24.67 27.636a.3.3 0 0 0 .095-.162.51.51 0 0 0-.01-.25 1.23 1.23 0 0 1-.027-.19c0-.005-.005-.026 0-.03a1.43 1.43 0 0 0-.152.35.4.4 0 0 0 .074.3l.01-.236-.03-.1.03.042.037-.12-.026.4" fill="#00853e"/><path d="M24.043 27.9a.46.46 0 0 1 .24-.4 1.22 1.22 0 0 1 .388-.13s-.17.512-.627.53z" fill="#006206"/><path d="M24.116 27.84a.284.284 0 0 0 .183-.052.48.48 0 0 0 .16-.194 1.38 1.38 0 0 1 .11-.152s.017-.026.022-.026a1.44 1.44 0 0 0-.345.152.43.43 0 0 0-.157.267l.168-.162.052-.1-.01.053.11-.063-.3.277" fill="#00853e"/><path d="M24.184 26.862a.462.462 0 0 1 .293-.366 1.135 1.135 0 0 1 .4-.08.762.762 0 0 1-.693.446z" fill="#006206"/><path d="M24.268 26.815a.29.29 0 0 0 .188-.026.522.522 0 0 0 .183-.174.843.843 0 0 1 .13-.136s.016-.026.02-.026a1.552 1.552 0 0 0-.36.11.41.41 0 0 0-.188.246l.188-.142.058-.088-.016.052.115-.052-.324.235" fill="#00853e"/><path d="M24.456 28.96a.588.588 0 0 1 .14-.41c.153-.124.4-.213.42-.26a1.09 1.09 0 0 1-.126.413.624.624 0 0 1-.3.23.454.454 0 0 0-.152.073z" fill="#006206"/><path d="M24.493 28.89a.338.338 0 0 1 .052-.182.294.294 0 0 1 .21-.188.462.462 0 0 0 .193-.115.457.457 0 0 1-.053.2 1.014 1.014 0 0 1-.3.287.907.907 0 0 0-.1.042s.214-.225.246-.267a1.016 1.016 0 0 0 .063-.1l-.078.068-.026-.052a.163.163 0 0 1-.017.115.9.9 0 0 1-.19.193z" fill="#00853e"/><path d="M23.876 28.494a.578.578 0 0 0-.142-.408c-.157-.126-.4-.22-.423-.262a1.122 1.122 0 0 0 .126.408.657.657 0 0 0 .3.236.526.526 0 0 1 .146.068z" fill="#006206"/><path d="M23.834 28.426a.373.373 0 0 0-.047-.183c-.058-.094-.053-.13-.21-.194a.454.454 0 0 1-.2-.116.54.54 0 0 0 .052.2 1.05 1.05 0 0 0 .3.293.37.37 0 0 1 .104.042s-.215-.226-.246-.268a.63.63 0 0 1-.058-.105l.08.073.02-.052a.178.178 0 0 0 .02.115 1.208 1.208 0 0 0 .184.193z" fill="#00853e"/><path d="M24.116 27.354a.46.46 0 0 1 .13-.335c.132-.1.35-.184.367-.216a.84.84 0 0 1-.105.335.568.568 0 0 1-.272.193.46.46 0 0 0-.13.057z" fill="#006206"/><path d="M24.153 27.3a.3.3 0 0 1 .047-.146.254.254 0 0 1 .183-.163.35.35 0 0 0 .173-.093.33.33 0 0 1-.048.162.85.85 0 0 1-.26.24.687.687 0 0 0-.095.037s.188-.183.22-.22a.475.475 0 0 0 .052-.084l-.068.058-.02-.04a.135.135 0 0 1-.017.093 1.16 1.16 0 0 1-.167.157z" fill="#00853e"/><path d="M26.046 30.816a.372.372 0 0 1-.272-.2.665.665 0 0 1 .042-.518c.042.073.057.2.12.24a.352.352 0 0 1 .11.478z" fill="#006206"/><path d="M26.015 30.758a.23.23 0 0 1-.194-.115 1.182 1.182 0 0 1-.015-.418s.032.146.136.183.1.366.1.366l-.078-.256-.01.047-.058-.068.047.11h-.024l.046.02z" fill="#00853e"/><path d="M24.66 29.953a.365.365 0 0 1-.146.3.718.718 0 0 1-.518.063c.068-.058.183-.094.214-.167a.35.35 0 0 1 .45-.197z" fill="#006206"/><path d="M24.608 29.99a.235.235 0 0 1-.073.214 1.224 1.224 0 0 1-.408.1s.136-.062.15-.172.34-.162.34-.162l-.234.12.047.005-.058.068.105-.068v.026l.016-.05z" fill="#00853e"/><path d="M24.325 29.268a.343.343 0 0 1-.14.3.667.667 0 0 1-.518.063c.062-.05.182-.093.214-.166a.345.345 0 0 1 .445-.196z" fill="#006206"/><path d="M24.278 29.31a.224.224 0 0 1-.073.21 1.108 1.108 0 0 1-.408.1s.136-.064.152-.168.34-.168.34-.168l-.237.126h.047l-.057.068.1-.063.006.02.014-.05z" fill="#00853e"/><path d="M25.455 30.633a.352.352 0 0 1-.26.21.675.675 0 0 1-.493-.174c.084-.02.2 0 .267-.053a.343.343 0 0 1 .485.016z" fill="#006206"/><path d="M25.4 30.65a.224.224 0 0 1-.162.155 1.188 1.188 0 0 1-.41-.09s.153 0 .21-.087.382 0 .382 0l-.266.005.036.02-.078.038.12-.015-.01.026.036-.04z" fill="#00853e"/><path d="M25.09 30.5a.364.364 0 0 1-.273-.2.692.692 0 0 1 .037-.518c.04.073.057.2.125.24a.356.356 0 0 1 .11.478z" fill="#006206"/><path d="M25.058 30.44a.23.23 0 0 1-.194-.116 1.1 1.1 0 0 1-.02-.418s.036.146.14.183.095.365.095.365l-.075-.256-.01.04-.058-.067.042.115h-.022l.047.02z" fill="#00853e"/><path d="M24.644 27.694a.362.362 0 0 0 .3.146.7.7 0 0 0 .44-.272c-.085-.005-.2.037-.273 0a.344.344 0 0 0-.466.126z" fill="#006206"/><path d="M24.707 27.694a.224.224 0 0 0 .194.12 1.127 1.127 0 0 0 .377-.178.276.276 0 0 1-.225-.037c-.078-.074-.37.083-.37.083l.26-.052-.03.032.083.016-.12.016.015.02-.047-.03z" fill="#00853e"/><path d="M24.493 28.74a.362.362 0 0 1-.12-.314.7.7 0 0 1 .313-.42c0 .09-.057.2-.03.273a.342.342 0 0 1-.163.46z" fill="#006206"/><path d="M24.5 28.677a.22.22 0 0 1-.1-.2 1.072 1.072 0 0 1 .2-.36.275.275 0 0 0 .02.224c.063.085-.115.362-.115.362l.074-.256-.033.03-.01-.088-.026.12-.015-.015.026.047z" fill="#00853e"/><path d="M24.1 28.687a.342.342 0 0 1-.266-.2.668.668 0 0 1 .036-.517c.042.073.058.193.12.24a.35.35 0 0 1 .11.477z" fill="#006206"/><path d="M24.07 28.635a.216.216 0 0 1-.19-.115 1.107 1.107 0 0 1-.02-.42s.036.148.136.185.1.366.1.366l-.078-.256-.01.042-.053-.068.042.115h-.026l.053.026z" fill="#00853e"/><path d="M24.2 26.69a.243.243 0 0 1-.173-.158.464.464 0 0 1 .063-.355c.02.052.026.136.068.172a.25.25 0 0 1 .042.34z" fill="#006206"/><path d="M24.18 26.653a.163.163 0 0 1-.127-.094.89.89 0 0 1 .016-.294s.015.1.083.136.042.26.042.26l-.032-.182-.01.032-.037-.053.022.078h-.017l.033.02z" fill="#00853e"/><path d="M24.074 27.37a.284.284 0 0 1-.21-.152.524.524 0 0 1 .032-.4c.032.058.042.152.095.188a.267.267 0 0 1 .084.363z" fill="#006206"/><path d="M24.048 27.327a.17.17 0 0 1-.146-.09.84.84 0 0 1-.016-.312s.026.11.105.136.08.278.08.278l-.058-.194-.012.037-.042-.05.032.082h-.016l.037.016z" fill="#00853e"/><path d="M24.142 26.967a.36.36 0 0 1-.266-.2.67.67 0 0 1 .036-.518c.042.072.058.193.12.24a.348.348 0 0 1 .11.477z" fill="#006206"/><path d="M24.11 26.91a.216.216 0 0 1-.187-.116 1.055 1.055 0 0 1-.02-.413s.035.147.135.184.1.36.1.36l-.08-.256-.01.047-.048-.068.042.11h-.026l.052.026z" fill="#00853e"/><path d="M24.357 29.294a.442.442 0 0 0-.105-.32.81.81 0 0 0-.4-.187.88.88 0 0 0 .15.36.6.6 0 0 0 .355.147z" fill="#006206"/><path d="M24.325 29.242a.405.405 0 0 0-.4-.387c.02.125.183.413.38.4a1.52 1.52 0 0 1-.27-.282l.157.13v-.083s.08.206.133.222z" fill="#00853e"/><path d="M24.3 29.1a.414.414 0 0 1-.12-.308.843.843 0 0 1 .178-.4.938.938 0 0 1 .12.37.594.594 0 0 1-.178.338z" fill="#006206"/><path d="M24.29 29.038a.405.405 0 0 1 .06-.555c.064.11.127.44-.035.555a1.328 1.328 0 0 0 .032-.387c-.027.126-.037.2-.037.2l-.058-.06s.073.21.037.248z" fill="#00853e"/><path d="M25.465 30.68a.488.488 0 0 1-.11-.633.5.5 0 0 1 .11.633z" fill="#006206"/><path d="M25.455 30.607a.436.436 0 0 1-.094-.487c.09.136.21.33.126.487-.088-.32-.093-.33-.093-.33z" fill="#00853e"/><path d="M25.115 30.528a.48.48 0 0 1 .173-.617.5.5 0 0 1-.173.618z" fill="#006206"/><path d="M25.136 30.46a.44.44 0 0 1 .13-.48c.016.16.043.386-.104.49.058-.324.063-.34.063-.34z" fill="#00853e"/><path d="M24.76 30.09a.477.477 0 0 1-.116-.63.5.5 0 0 1 .115.63z" fill="#006206"/><path d="M24.75 30.02a.434.434 0 0 1-.095-.49c.09.14.2.33.12.49l-.094-.334z" fill="#00853e"/><path d="M24.587 29.848a.482.482 0 0 1-.565-.3.493.493 0 0 1 .565.3z" fill="#006206"/><path d="M24.524 29.812a.434.434 0 0 1-.444-.23c.167.02.387.047.46.21-.3-.127-.32-.132-.32-.132z" fill="#00853e"/><path d="M24.325 26.213a.478.478 0 0 1 .628-.11.5.5 0 0 1-.628.11z" fill="#006206"/><path d="M24.393 26.2a.444.444 0 0 1 .492-.094c-.14.09-.33.2-.492.12.32-.09.335-.09.335-.09z" fill="#00853e"/><path d="M24.477 29.017a.48.48 0 0 1 .633-.115.5.5 0 0 1-.633.115z" fill="#006206"/><path d="M24.55 29.006a.436.436 0 0 1 .487-.094c-.136.09-.33.2-.487.12.32-.088.33-.088.33-.088z" fill="#00853e"/><path d="M24.3 26.27a.452.452 0 0 1 .252-.39 1.255 1.255 0 0 1 .386-.127s-.173.513-.638.518z" fill="#006206"/><path d="M24.383 26.22a.3.3 0 0 0 .183-.054.478.478 0 0 0 .162-.188 1.21 1.21 0 0 1 .115-.152s.016-.026.02-.026a1.445 1.445 0 0 0-.35.152.4.4 0 0 0-.156.26l.172-.16.052-.095-.01.052.11-.063-.3.272" fill="#00853e"/><path d="M24.278 26.308a.438.438 0 0 1-.125-.308.832.832 0 0 1 .183-.4.94.94 0 0 1 .12.372.6.6 0 0 1-.178.336z" fill="#006206"/><path d="M24.268 26.25a.412.412 0 0 1 .063-.56c.063.11.126.44-.036.56a1.257 1.257 0 0 0 .026-.392c-.02.125-.03.2-.03.2l-.06-.062s.07.204.038.254z" fill="#00853e"/><path d="M25.622 30.722a.438.438 0 0 1-.125-.31.806.806 0 0 1 .183-.4.932.932 0 0 1 .115.373.6.6 0 0 1-.173.337z" fill="#006206"/><path d="M25.612 30.66a.4.4 0 0 1 .063-.555c.062.11.12.44-.037.554a1.433 1.433 0 0 0 .026-.393c-.02.13-.036.2-.036.2l-.053-.063s.068.213.037.255z" fill="#00853e"/><path d="M24.033 28.206a2.35 2.35 0 0 0-.09-.34.89.89 0 0 0-.23-.272l.037-.047a.834.834 0 0 1 .25.293 1.818 1.818 0 0 1 .094.356zM23.844 27.73a.462.462 0 0 1-.246-.4 1.125 1.125 0 0 1 .063-.4.762.762 0 0 1 .184.8z" fill="#006206"/><path d="M23.828 27.636a.276.276 0 0 0 .037-.183.49.49 0 0 0-.1-.235 1.548 1.548 0 0 1-.084-.168.06.06 0 0 1-.014-.03 1.99 1.99 0 0 0-.022.38.4.4 0 0 0 .168.257l-.068-.225-.063-.09.043.032v-.125l.11.386" fill="#00853e"/><path d="M23.6 27.41a.364.364 0 0 1-.272-.2.673.673 0 0 1 .042-.517c.037.08.058.2.12.246a.348.348 0 0 1 .11.47z" fill="#006206"/><path d="M23.567 27.354a.23.23 0 0 1-.194-.116 1.183 1.183 0 0 1-.02-.413s.036.142.14.178.095.366.095.366l-.073-.257-.01.047-.058-.068.047.11h-.026l.047.026z" fill="#00853e"/><path d="M23.755 27.673a.488.488 0 0 1-.533-.36c.13-.013.486.06.533.36z" fill="#006206"/><path d="M23.693 27.63a.442.442 0 0 1-.414-.276c.16.036.38.083.433.256-.287-.157-.3-.168-.3-.168z" fill="#00853e"/><path d="M24.127 28.724c.005-.016.005-.032.01-.052a.2.2 0 0 1 0-.048c.007-.03.012-.062.022-.1s.015-.063.02-.094.01-.03.016-.047l.016-.047a.544.544 0 0 1 .03-.094 1931391774434.8 1931391774434.8 0 0 0 .043-.094c.015-.032.03-.058.047-.09l.005-.01.01-.01.006-.01a.017.017 0 0 1 0-.01l.01-.012.01-.01a.053.053 0 0 1 .017-.02v-.007l.005-.01h.01v-.007l.038-.036.03-.037.032-.037c.042-.052.084-.1.126-.15.08-.106.163-.21.24-.31h.007c-.068.11-.142.22-.22.325a1.888 1.888 0 0 1-.115.162l-.026.042-.032.036a.242.242 0 0 1-.03.037v.005h-.006l.013.01-.01.01v.006l-.015.015v.012l-.006.01v.006l-.01.01v.01l-.007.01c-.01.032-.026.06-.036.09-.026.057-.047.12-.073.183l-.032.09a.832.832 0 0 0-.036.09l-.078.182zM24.11 28.494a.366.366 0 0 0 .273-.2.7.7 0 0 0-.036-.518c-.043.073-.058.194-.12.24a.348.348 0 0 0-.116.478z" fill="#006206"/><path d="M24.142 28.436a.223.223 0 0 0 .194-.115 1.075 1.075 0 0 0 .02-.412s-.036.146-.14.183-.1.362-.1.362l.084-.252.01.047.058-.068-.042.11h.02l-.046.025z" fill="#00853e"/><path d="M24.43 29.456a.434.434 0 0 1-.126-.31.836.836 0 0 1 .183-.4.96.96 0 0 1 .116.372.6.6 0 0 1-.173.338z" fill="#006206"/><path d="M24.42 29.393a.406.406 0 0 1 .062-.554c.063.11.12.438-.036.553a1.447 1.447 0 0 0 .026-.387c-.02.126-.037.2-.037.2l-.052-.063s.068.208.036.25z" fill="#00853e"/><path d="M24.765 27.594a.49.49 0 0 1 .345-.544c.016.13-.047.487-.345.544z" fill="#006206"/><path d="M24.807 27.53a.437.437 0 0 1 .26-.422c-.03.162-.067.382-.24.444l.157-.308z" fill="#00853e"/><path d="M28.332 31.72a.075.075 0 0 1-.006.048.1.1 0 0 1-.115 0c0-.006-.03-.032-.025-.063a.08.08 0 0 1 .068-.047.09.09 0 0 1 .08.063z" fill="#e9c015"/><path d="M28.792 30.7a.147.147 0 0 0 .057.052 1.032 1.032 0 0 0 .083-.162.322.322 0 0 0 .037.037h-.016a.144.144 0 0 0 .057.11h.028a.182.182 0 0 0 .062.068.56.56 0 0 0 .037-.08 2.6 2.6 0 0 1 .748.033 1.257 1.257 0 0 0-.387-.11 1.913 1.913 0 0 1 .533.036 1.612 1.612 0 0 0-.51-.12 2.2 2.2 0 0 1 .616.03 1.328 1.328 0 0 0-.32-.093 3.29 3.29 0 0 1 .948.06 2.575 2.575 0 0 0-.87-.2 3.41 3.41 0 0 1 1.058.05 2.627 2.627 0 0 0-.91-.208 3.442 3.442 0 0 1 .988-.366 1.857 1.857 0 0 0-.544.063c.006 0 .006-.012.01-.022a4.478 4.478 0 0 0 1.36-.685 5.585 5.585 0 0 1-1.255.47.283.283 0 0 0 .012-.03 7.526 7.526 0 0 0 .82-.53c.01.022.028.053.043.08 0-.043 0-.084.01-.12a1.937 1.937 0 0 0 .434-.414 2.53 2.53 0 0 1-.44.313c-.026-.236-.188-.178-.46-.037a.025.025 0 0 0-.02.01v-.057h.004a1.44 1.44 0 0 1 .225-.268c.308-.277.36-.12.475.09.052-.482-.12-.43-.455-.258a.81.81 0 0 0-.22.168 1.01 1.01 0 0 1 .047-.178 3.252 3.252 0 0 1 .675-.377 2.43 2.43 0 0 0-.612.236 1.86 1.86 0 0 1 .638-.67.882.882 0 0 0-.44.183 2.285 2.285 0 0 1 .44-.366.844.844 0 0 0-.554.288 2.87 2.87 0 0 0-.235.25.072.072 0 0 0-.012-.03 5.5 5.5 0 0 1 .5-.743.615.615 0 0 1 .162.225c.047-.48-.125-.43-.46-.256a.685.685 0 0 0-.157.11 3.274 3.274 0 0 1 .423-.55 2.67 2.67 0 0 0-.606.628 1.547 1.547 0 0 1-.037-.22 3.6 3.6 0 0 1 .528-.722 1.373 1.373 0 0 0-.265.225 3.2 3.2 0 0 1 .418-.538 1.628 1.628 0 0 0-.413.392c-.063-.1-.11-.132-.152-.12a1.064 1.064 0 0 1 .14-.273 2.234 2.234 0 0 0-.3.46v.016a.133.133 0 0 0-.015.026c-.057.114-.11.224-.15.323a.3.3 0 0 0-.048-.037 4.906 4.906 0 0 1 .392-.957 2.512 2.512 0 0 0-.335.538 2.93 2.93 0 0 1 .283-.69 2.816 2.816 0 0 0-.36.622 2.985 2.985 0 0 1 .114-.727 2.467 2.467 0 0 0-.2.69 2.86 2.86 0 0 1-.153-.72 3.072 3.072 0 0 0 .073.825c-.026-.063-.052-.13-.068-.173a2.672 2.672 0 0 1-.15-.732 1.855 1.855 0 0 0 0 .42 3.236 3.236 0 0 0-.41-.66 3.908 3.908 0 0 1 .4.92 2.183 2.183 0 0 0-.23-.335c.033.047.064.105.096.162a1.783 1.783 0 0 0-.278-.376 2.2 2.2 0 0 1 .272.523 2.02 2.02 0 0 0-.22-.31 2.568 2.568 0 0 1 .236.467 3.332 3.332 0 0 0-.662-.384 3.87 3.87 0 0 1 .727.565 1.805 1.805 0 0 0-.37-.183 2.267 2.267 0 0 1 .4.272.74.74 0 0 0 .03.094 2.957 2.957 0 0 0-.65-.366 2.724 2.724 0 0 1 .514.366 4.472 4.472 0 0 0-.622-.288 4.635 4.635 0 0 1 .88.712h.01a.6.6 0 0 0 .01.1l-.08-.03a3.092 3.092 0 0 0-.61-.493 2.7 2.7 0 0 1 .433.423 2.925 2.925 0 0 0-.554-.147 3.24 3.24 0 0 1 .67.283c.062.082.12.156.156.208a2.466 2.466 0 0 1 0 .272 2.527 2.527 0 0 0-.335-.518 2.942 2.942 0 0 1 .277.565.077.077 0 0 0-.03-.01 2.808 2.808 0 0 0-.357-.555 2.66 2.66 0 0 1 .262.523 2.22 2.22 0 0 0-.42-.084 3.05 3.05 0 0 1 .446.153 4.406 4.406 0 0 1 .146.455s.036.02.1.063c-.022.048-.038.09-.054.12a.578.578 0 0 0-.02-.1c-.12-.355-.2-.517-.508-.14.23-.068.377-.142.4.272a1.5 1.5 0 0 1-.052.413 3.206 3.206 0 0 0-.382-.612 3.55 3.55 0 0 1 .345.763c-.016.053-.032.1-.048.147a1.307 1.307 0 0 0-.036-.243c-.146-.565-.47-.094-.5-.057a.4.4 0 0 0-.036-.063 2.24 2.24 0 0 1 .13.7 7.064 7.064 0 0 1-.3.763s-.01.005-.02.005a3.416 3.416 0 0 0 .26-1.1 2.943 2.943 0 0 1-.2.643 1.64 1.64 0 0 0 .016-.208v-.026a1.435 1.435 0 0 1-.162.43 1.208 1.208 0 0 0 .057-.34 2.25 2.25 0 0 1-.24.58 1.455 1.455 0 0 0 .095-.47 1.87 1.87 0 0 1-.23.558 1.79 1.79 0 0 0 .14-.664 3.674 3.674 0 0 1-.433.983 7.213 7.213 0 0 0-.712.293c-.177.08-.355.167-.538.24a6.98 6.98 0 0 0-.847.367c-.027.01-.08.036-.084.083a.083.083 0 0 0 .048.074c.073.052.22-.047.26-.074.273-.177.593-.266.875-.423a10.14 10.14 0 0 1 .988-.424s.176-.08.202-.17zm2.364-3.363c.14-.126.23-.162.293-.147a4.054 4.054 0 0 0-.524.618c-.016-.037-.032-.074-.047-.115a1.578 1.578 0 0 1 .276-.355zM31 29.1c.22-.2.308-.172.382-.073-.194.115-.4.225-.59.314A1.342 1.342 0 0 1 31 29.1zm-.2-2.426c.058-.23.137-.21.246-.152a4.115 4.115 0 0 0-.266.335 1.708 1.708 0 0 1 .02-.183zm-1 3.16a3.263 3.263 0 0 0-.267-.89c.55-.46.34.556.267.89z" fill="#006106"/><path d="M30.638 29.79a7.713 7.713 0 0 0 .7-.454c.01.02.02.042.036.068 0-.037.006-.073.006-.105a1.48 1.48 0 0 0 .376-.356 2.505 2.505 0 0 1-.376.27c-.026-.2-.168-.15-.4-.03h-.015v-.047a1.054 1.054 0 0 1 .188-.23c.267-.235.314-.105.413.073.043-.408-.1-.366-.392-.22a.78.78 0 0 0-.193.147.94.94 0 0 1 .048-.152 2.47 2.47 0 0 1 .575-.324 2.035 2.035 0 0 0-.523.2 1.556 1.556 0 0 1 .544-.57.71.71 0 0 0-.377.158 2.4 2.4 0 0 1 .377-.32.72.72 0 0 0-.47.252 1.585 1.585 0 0 0-.2.214v-.026a3.922 3.922 0 0 1 .422-.638.493.493 0 0 1 .137.193c.04-.413-.105-.366-.393-.22a.693.693 0 0 0-.136.095 2.755 2.755 0 0 1 .36-.47 2.33 2.33 0 0 0-.517.538c0-.032-.02-.105-.03-.19a3.256 3.256 0 0 1 .454-.62 1 1 0 0 0-.23.193 2.625 2.625 0 0 1 .362-.462 1.4 1.4 0 0 0-.356.335c-.052-.084-.094-.11-.13-.1a.814.814 0 0 1 .125-.236 1.71 1.71 0 0 0-.255.393c-.006.005-.006.01-.01.015a.043.043 0 0 0-.01.026c-.054.1-.095.19-.132.273a.365.365 0 0 0-.04-.03 4.28 4.28 0 0 1 .338-.822 2.176 2.176 0 0 0-.292.466 2.69 2.69 0 0 1 .246-.59 2.34 2.34 0 0 0-.31.533 2.36 2.36 0 0 1 .1-.624 2.124 2.124 0 0 0-.177.59 2.6 2.6 0 0 1-.126-.62 2.547 2.547 0 0 0 .06.71c-.022-.052-.043-.11-.06-.146a2.63 2.63 0 0 1-.13-.628 1.34 1.34 0 0 0 .006.356 2.607 2.607 0 0 0-.35-.56 3.09 3.09 0 0 1 .34.785 2.144 2.144 0 0 0-.194-.288c.027.042.052.09.08.136a1.6 1.6 0 0 0-.237-.318 1.92 1.92 0 0 1 .23.45 1.68 1.68 0 0 0-.188-.267 1.972 1.972 0 0 1 .2.4 2.625 2.625 0 0 0-.56-.324 3.075 3.075 0 0 1 .623.487 1.565 1.565 0 0 0-.316-.157 2.246 2.246 0 0 1 .345.235.856.856 0 0 1 .025.084 2.6 2.6 0 0 0-.555-.32 2.59 2.59 0 0 1 .44.314 3.688 3.688 0 0 0-.533-.246 3.877 3.877 0 0 1 .752.612h.005a.47.47 0 0 1 .01.084.34.34 0 0 1-.063-.027 3.064 3.064 0 0 0-.528-.423 2.7 2.7 0 0 1 .377.366 2.31 2.31 0 0 0-.48-.126 2.51 2.51 0 0 1 .575.24c.057.074.1.137.136.18a1.84 1.84 0 0 1 0 .234 2 2 0 0 0-.287-.444 2.392 2.392 0 0 1 .236.48c-.007 0-.017-.005-.022-.005a2.41 2.41 0 0 0-.31-.476 2.543 2.543 0 0 1 .226.45 2.225 2.225 0 0 0-.36-.074 1.9 1.9 0 0 1 .38.13c.08.21.132.388.132.388s.026.02.078.057l-.042.105a.4.4 0 0 0-.02-.09c-.1-.3-.168-.443-.435-.12.2-.057.324-.12.345.236a1.21 1.21 0 0 1-.04.356 2.328 2.328 0 0 0-.33-.528 3.076 3.076 0 0 1 .3.653c-.017.047-.027.09-.043.126a1.066 1.066 0 0 0-.037-.21c-.12-.48-.4-.078-.424-.052l-.032-.05a1.9 1.9 0 0 1 .11.6 6.635 6.635 0 0 1-.25.658h-.022a2.913 2.913 0 0 0 .22-.946 1.993 1.993 0 0 1-.168.55 1.057 1.057 0 0 0 .016-.174V29.8a1.2 1.2 0 0 1-.142.372.83.83 0 0 0 .047-.293 1.748 1.748 0 0 1-.2.5 1.28 1.28 0 0 0 .084-.4 1.832 1.832 0 0 1-.2.48 1.7 1.7 0 0 0 .12-.57 4.08 4.08 0 0 1-.4.9.153.153 0 0 0 .085.116 1.645 1.645 0 0 0 .1-.2.14.14 0 0 0 .046.042.738.738 0 0 0 .074-.148c.01.01.02.027.03.037h-.014c.01.078.052.094.052.094h.02a.2.2 0 0 0 .053.064.557.557 0 0 0 .033-.068 2.078 2.078 0 0 1 .642.026 1.025 1.025 0 0 0-.33-.094 1.59 1.59 0 0 1 .456.03 1.358 1.358 0 0 0-.438-.1 1.78 1.78 0 0 1 .533.032.992.992 0 0 0-.277-.084 2.78 2.78 0 0 1 .81.048 2.377 2.377 0 0 0-.742-.173 3.1 3.1 0 0 1 .9.048 2.32 2.32 0 0 0-.785-.178 3.1 3.1 0 0 1 .854-.314 1.5 1.5 0 0 0-.466.058c0-.01.005-.016.005-.02a3.935 3.935 0 0 0 1.167-.587 4.593 4.593 0 0 1-1.077.4l.015-.026zm.466-1.976c.115-.105.193-.136.245-.12a3.353 3.353 0 0 0-.445.523c-.016-.027-.026-.063-.042-.095a1.3 1.3 0 0 1 .237-.308zm-.142 1.51c.19-.166.267-.145.33-.056-.162.094-.345.188-.508.267a1.52 1.52 0 0 1 .178-.21zM30.8 27.25c.052-.2.115-.184.21-.137-.08.094-.158.193-.225.288a.676.676 0 0 1 .015-.15zm-.858 2.7a2.823 2.823 0 0 0-.23-.76c.466-.39.288.48.225.763z" fill="#0c750e"/><path d="M30.45 29.874a6.043 6.043 0 0 0 .638-.33c.01.017.016.038.026.058 0-.03.01-.057.016-.083a1.374 1.374 0 0 0 .345-.273 2.342 2.342 0 0 1-.34.2c-.005-.178-.126-.142-.335-.063 0 0-.01.005-.016.005a.082.082 0 0 1 .006-.038h.01a1.132 1.132 0 0 1 .183-.178c.246-.178.272-.063.34.1.073-.346-.058-.32-.314-.22a.608.608 0 0 0-.173.1.6.6 0 0 1 .047-.125 2.232 2.232 0 0 1 .516-.23 1.815 1.815 0 0 0-.465.126 1.29 1.29 0 0 1 .512-.44.587.587 0 0 0-.335.1 1.608 1.608 0 0 1 .35-.236.64.64 0 0 0-.428.168 2.045 2.045 0 0 0-.19.167s-.004-.016-.004-.02a3.9 3.9 0 0 1 .413-.508c.048.03.068.1.105.178.073-.35-.057-.325-.314-.225a.512.512 0 0 0-.126.073 2.02 2.02 0 0 1 .35-.37 1.774 1.774 0 0 0-.49.412c0-.026-.01-.09-.01-.168a2.916 2.916 0 0 1 .438-.486.824.824 0 0 0-.21.147 2.213 2.213 0 0 1 .346-.366 1.422 1.422 0 0 0-.335.258c-.036-.074-.068-.105-.1-.095a.736.736 0 0 1 .126-.193 1.7 1.7 0 0 0-.252.314s0 .01-.01.015a.03.03 0 0 0-.01.02 1.97 1.97 0 0 0-.135.22.158.158 0 0 0-.032-.03 3.583 3.583 0 0 1 .356-.67 2.054 2.054 0 0 0-.284.37 2.177 2.177 0 0 1 .257-.48 1.908 1.908 0 0 0-.31.423 2.3 2.3 0 0 1 .137-.518 1.926 1.926 0 0 0-.2.487 2.31 2.31 0 0 1-.057-.54 2.3 2.3 0 0 0-.01.608c-.01-.042-.027-.095-.037-.126a2.42 2.42 0 0 1-.058-.55 1.672 1.672 0 0 0-.026.31 2.348 2.348 0 0 0-.246-.513 2.865 2.865 0 0 1 .22.7 1.44 1.44 0 0 0-.136-.26c.02.037.036.08.058.126a1.186 1.186 0 0 0-.18-.293 1.563 1.563 0 0 1 .164.4 1.12 1.12 0 0 0-.136-.24 2.048 2.048 0 0 1 .136.355 2.318 2.318 0 0 0-.45-.325 3 3 0 0 1 .49.466 1.317 1.317 0 0 0-.26-.163 1.557 1.557 0 0 1 .277.23c.004.026.01.047.015.073a2.208 2.208 0 0 0-.45-.32 1.734 1.734 0 0 1 .35.31 2.44 2.44 0 0 0-.434-.257 3.23 3.23 0 0 1 .587.58.018.018 0 0 0 .01 0v.074l-.052-.03a2.4 2.4 0 0 0-.413-.4 2.107 2.107 0 0 1 .288.34 1.7 1.7 0 0 0-.4-.147 2.28 2.28 0 0 1 .47.256 1.7 1.7 0 0 1 .1.162c0 .068-.01.136-.014.2a1.874 1.874 0 0 0-.21-.4 2.054 2.054 0 0 1 .157.43h-.02a2.05 2.05 0 0 0-.215-.435 2.733 2.733 0 0 1 .152.408 1.53 1.53 0 0 0-.3-.093 1.75 1.75 0 0 1 .314.14c.052.19.08.34.08.34s.02.022.06.058a.493.493 0 0 1-.046.084.335.335 0 0 0-.005-.074c-.062-.272-.11-.393-.36-.14.172-.033.287-.075.27.23a1.34 1.34 0 0 1-.062.3 2.132 2.132 0 0 0-.24-.482 2.71 2.71 0 0 1 .2.585c-.014.036-.03.073-.04.104a1.182 1.182 0 0 0-.016-.183c-.063-.423-.334-.1-.356-.078-.01-.015-.015-.03-.026-.047a1.554 1.554 0 0 1 .048.518c-.08.194-.23.46-.273.54h-.015a2.478 2.478 0 0 0 .266-.786 2.088 2.088 0 0 1-.187.455c.01-.057.02-.1.026-.15V29.8a.954.954 0 0 1-.146.3.785.785 0 0 0 .063-.246 1.564 1.564 0 0 1-.215.408 1.1 1.1 0 0 0 .1-.334 1.34 1.34 0 0 1-.2.392 1.564 1.564 0 0 0 .152-.476 3.3 3.3 0 0 1-.423.732.128.128 0 0 0 .062.105 1.246 1.246 0 0 0 .104-.16.16.16 0 0 0 .036.046 1.077 1.077 0 0 0 .08-.115.106.106 0 0 0 .02.032h-.01a.1.1 0 0 0 .03.084h.022a.18.18 0 0 0 .036.057.578.578 0 0 0 .037-.052 1.977 1.977 0 0 1 .544.074.85.85 0 0 0-.278-.105 1.435 1.435 0 0 1 .387.062 1.1 1.1 0 0 0-.367-.125 1.752 1.752 0 0 1 .455.068.978.978 0 0 0-.23-.09 2.278 2.278 0 0 1 .69.11 1.875 1.875 0 0 0-.623-.21 2.425 2.425 0 0 1 .77.116 1.86 1.86 0 0 0-.654-.218 2.514 2.514 0 0 1 .754-.194 1.31 1.31 0 0 0-.4.006c0-.006 0-.01.01-.016a3.315 3.315 0 0 0 1.04-.4 3.826 3.826 0 0 1-.95.25c-.01-.013-.004-.018-.004-.024zm.565-1.647c.11-.078.177-.1.225-.084a2.842 2.842 0 0 0-.424.413c-.01-.026-.02-.057-.032-.083a1.574 1.574 0 0 1 .23-.246zM30.77 29.5c.177-.125.24-.1.286-.02-.146.067-.308.13-.455.182a.98.98 0 0 1 .17-.162zm.035-1.783c.058-.162.11-.147.19-.094-.075.068-.148.146-.22.224a.8.8 0 0 1 .03-.127zm-.962 2.233a2.54 2.54 0 0 0-.13-.67c.433-.295.21.438.13.673z" fill="#00853e"/><path d="M26.464 31.72a.056.056 0 0 0 .01.048c.022.026.08.02.11 0a.083.083 0 0 0 .027-.063.08.08 0 0 0-.067-.047.09.09 0 0 0-.08.063z" fill="#e9c015"/><path d="M27.793 27v-1.895h-.785V27h-1.48v.784h1.48v1.93a.783.783 0 0 1 .393.257.755.755 0 0 1 .273-.21.484.484 0 0 1 .12-.046v-1.93h1.48V27z" fill="#fff"/><path d="M29.77 25.105l-.23.21a.833.833 0 0 0-.267.616V27h-1.48v-1.895zM27.008 27.782v1.93a.73.73 0 0 0-.214-.03h-.523a.746.746 0 0 1-.742-.744v-1.156z" fill="#cd1225"/><path d="M29.273 27.782v1.156a.747.747 0 0 1-.748.743h-.517a.73.73 0 0 0-.215.032v-1.93zM27.008 25.105V27h-1.48v-1.07a.834.834 0 0 0-.272-.616l-.225-.21z" fill="#022d61"/><path d="M27.793 25.084H24.98l.266.246a.81.81 0 0 1 .26.6v3.007a.745.745 0 0 0 .226.54.755.755 0 0 0 .54.224h.522a.72.72 0 0 1 .21.032.756.756 0 0 1 .38.25l.017.022.016-.02a.728.728 0 0 1 .262-.21.78.78 0 0 1 .12-.042l-.01-.042a.507.507 0 0 0-.126.047.832.832 0 0 0-.26.2.83.83 0 0 0-.388-.246l-.006.022.006-.02a.8.8 0 0 0-.22-.032h-.523a.722.722 0 0 1-.72-.722V25.93a.855.855 0 0 0-.278-.632l-.188-.172h4.634l-.19.172a.854.854 0 0 0-.276.633v3.008a.724.724 0 0 1-.727.722h-.517a.74.74 0 0 0-.22.03l.01.043a.687.687 0 0 1 .21-.03h.517a.765.765 0 0 0 .544-.226.757.757 0 0 0 .22-.54v-3.006a.814.814 0 0 1 .265-.6l.267-.245z"/><path d="M26.893 28.04a.017.017 0 0 1-.015-.007l.084-1.244-.252-.3-.094 1.354c-.22-.21-.48-.518-.586-.638-.005.13-.015.256-.02.376.115.147.24.283.366.42a2.02 2.02 0 0 0 .22.213c0 .105.015.3.16.372a.416.416 0 0 0 .352-.042.916.916 0 0 1 .047-.09v-.015c-.282.08-.3-.11-.3-.136a.857.857 0 0 0 .45-.282l.01-.162c-.155.147-.24.226-.422.18z" fill="#fff"/><path d="M27.108 28.54a.96.96 0 0 1-.19.262.574.574 0 0 1-.537.11.638.638 0 0 1-.412-.554.308.308 0 0 1 0-.105c0-.036.02-.314.04-.675.117.147.242.283.368.42a2.02 2.02 0 0 0 .22.213c0 .106.015.3.16.373a.416.416 0 0 0 .352-.042zM27.364 27.265l-.042.59c-.162.152-.246.23-.43.184a.017.017 0 0 1-.014-.007l.084-1.244z" fill="#cd1225"/><path d="M27.312 28.018v.03a2.655 2.655 0 0 1-.152.388c-.282.08-.3-.11-.3-.136a.857.857 0 0 0 .452-.282zM26.71 26.485l-.094 1.355c-.22-.21-.48-.518-.586-.638.047-.67.09-1.412.09-1.412z" fill="#022d61"/><path d="M26.506 28.96a.494.494 0 0 1-.13-.032.645.645 0 0 1-.43-.57.308.308 0 0 1 0-.105c0-.042.022-.392.043-.675 0-.12.014-.245.02-.376.046-.67.094-1.412.094-1.412v-.053l1.28 1.517-.05.795a3.163 3.163 0 0 1-.153.392c-.004.005-.004.01-.01.01a.968.968 0 0 1-.04.094.925.925 0 0 1-.2.267.6.6 0 0 1-.424.146zm-.366-3.118c-.01.178-.052.8-.09 1.365 0 .126-.014.256-.02.37-.02.29-.04.634-.04.676a.308.308 0 0 0 0 .105.61.61 0 0 0 .4.533.5.5 0 0 0 .124.027.547.547 0 0 0 .392-.13.885.885 0 0 0 .188-.257c.016-.03.03-.062.042-.09a.015.015 0 0 0 0-.01 2.556 2.556 0 0 0 .152-.386l.052-.774z"/><path d="M26.046 25.622l1.154 1.365-.042.037L26 25.664a.12.12 0 0 1 .026-.015c.01-.012.015-.017.02-.028zM26.046 25.586a.024.024 0 0 1 0 .026.1.1 0 0 1-.02.03c-.022.017-.048.022-.058.012s-.006-.037.015-.058a.06.06 0 0 1 .037-.015h.01a.02.02 0 0 1 .016.006zM26.015 25.492c-.032.015-.02.068-.02.09l-.012.01-.214-.273c.05.036.203.145.245.172zM25.77 25.324l.208.272h-.005a.13.13 0 0 0-.1 0z" fill="#e8c015"/><path d="M27.155 27.024l.042-.037-1.15-1.365c0 .01-.01.016-.017.027a.12.12 0 0 0-.026.014zm-1.14-1.532c-.042-.027-.194-.136-.246-.173l.213.27c.006-.004.01-.004.01-.01 0-.02-.01-.073.022-.088zm-.042.11h.005l-.21-.273.1.276a.13.13 0 0 1 .105-.006zm.005.062a.022.022 0 0 1-.016-.005c-.01-.01-.01-.032.006-.053a.13.13 0 0 0-.095 0l-.12-.31.006.006.26.19c-.026.014-.02.06-.02.088a.035.035 0 0 1 .02-.005.022.022 0 0 1 .026.006.025.025 0 0 1 0 .032v.005l1.156 1.37-.052.048-1.15-1.37zm-.01-.01c.01.01.036 0 .057-.01a.1.1 0 0 0 .02-.032.024.024 0 0 0 0-.026.02.02 0 0 0-.015 0h-.01a.06.06 0 0 0-.037.015c-.02.017-.03.043-.015.054z"/><path d="M26.4 25.565l.91 1.538-.053.03-.9-1.537c.01 0 .015 0 .026-.01s.017-.016.017-.02zM26.407 25.523a.024.024 0 0 1 0 .026.146.146 0 0 1-.026.03c-.025.01-.052.016-.062 0s0-.036.03-.052a.048.048 0 0 1 .04-.01.023.023 0 0 1 .02.005zM26.39 25.43c-.025.01-.03.062-.03.083 0 0-.01 0-.01.01l-.168-.3c.042.04.178.17.21.206zM26.177 25.22l.167.3a.017.017 0 0 0-.01 0 .11.11 0 0 0-.094-.015z" fill="#e8c015"/><path d="M27.26 27.134l.052-.03-.91-1.54c-.006 0-.01.017-.02.022s-.017.005-.027.01zm-.87-1.705c-.03-.038-.166-.168-.208-.21l.167.3s.005 0 .01-.01c0-.018.005-.07.03-.08zm-.056.1a.017.017 0 0 1 .01 0l-.167-.3.063.292a.11.11 0 0 1 .094.006zm-.006.067s-.01 0-.015-.015a.05.05 0 0 1 .015-.048.115.115 0 0 0-.094-.015l-.068-.325.006.005s.193.193.224.23c-.026.01-.03.057-.03.084.004 0 .015-.006.02-.006a.03.03 0 0 1 .026.016.034.034 0 0 1 0 .03v.007l.91 1.544-.058.036-.91-1.543zm-.01-.015c.01.015.037.01.063 0a.146.146 0 0 0 .027-.032.024.024 0 0 0 0-.026.023.023 0 0 0-.016 0 .048.048 0 0 0-.037.01c-.03.01-.045.03-.035.047z"/><path d="M26.862 28.222h-.016v-1.255l-.272-.283v1.36c-.23-.194-.518-.486-.622-.6v.376q.188.2.392.393a2.044 2.044 0 0 0 .236.2c.005.105.036.3.188.36a.4.4 0 0 0 .345-.067c.016-.03.026-.063.042-.094v-.01c-.277.094-.31-.095-.314-.12a.837.837 0 0 0 .435-.315v-.162c-.146.164-.225.253-.413.217z" fill="#fff"/><path d="M27.113 28.708a.865.865 0 0 1-.173.277.575.575 0 0 1-.528.142.64.64 0 0 1-.45-.523.84.84 0 0 1-.01-.105v-.676q.188.2.392.393a2.044 2.044 0 0 0 .236.2c.005.105.036.3.188.36a.4.4 0 0 0 .345-.07zM27.28 27.416v.59c-.15.163-.23.252-.418.216h-.016v-1.255z" fill="#cd1225"/><path d="M27.28 28.17v.03a2.738 2.738 0 0 1-.12.4c-.277.094-.31-.095-.314-.12a.837.837 0 0 0 .434-.31zM26.574 26.684v1.36c-.23-.194-.518-.486-.622-.6l-.01-1.418z" fill="#022d61"/><path d="M26.543 29.163a.545.545 0 0 1-.136-.016.666.666 0 0 1-.466-.543.68.68 0 0 1-.01-.105v-1.052l-.01-1.418v-.052l1.38 1.428v.8a2.14 2.14 0 0 1-.124.4.018.018 0 0 1 0 .015c-.01.028-.027.06-.037.09a.943.943 0 0 1-.18.283.594.594 0 0 1-.417.17zm-.58-3.08c0 .177.005.8.005 1.365V28.5a.664.664 0 0 0 .01.1.615.615 0 0 0 .434.508.542.542 0 0 0 .126.015.554.554 0 0 0 .382-.15.8.8 0 0 0 .167-.273l.042-.09v-.015a2.614 2.614 0 0 0 .12-.392v-.78z"/><path d="M25.947 25.962l1.244 1.282-.04.042L25.905 26a.046.046 0 0 0 .026-.02.08.08 0 0 0 .017-.018zM25.94 25.92a.022.022 0 0 1 .007.027.168.168 0 0 1-.02.036c-.022.02-.048.026-.06.016a.053.053 0 0 1 .017-.064.045.045 0 0 1 .032-.015.014.014 0 0 1 .01-.005c.005 0 .01.006.015.006zM25.905 25.832c-.026.02-.016.068-.01.09l-.01.01-.23-.257c.052.03.208.13.25.157zM25.65 25.68l.23.256-.012.01a.107.107 0 0 0-.094.006z" fill="#e8c015"/><path d="M27.15 27.286l.04-.042-1.243-1.282a.08.08 0 0 1-.016.02.046.046 0 0 1-.025.022zm-1.245-1.454l-.25-.157.23.256.01-.01c-.006-.02-.016-.067.01-.088zm-.037.115l.01-.01-.23-.257.126.272a.107.107 0 0 1 .094-.005zm.016.062a.04.04 0 0 1-.02-.01c-.01-.01 0-.032 0-.048a.115.115 0 0 0-.095 0h-.006l-.136-.3h.005c0 .005.235.146.272.167l.006.005c-.026.015-.016.062-.01.09a.017.017 0 0 1 .016-.007c.015 0 .025 0 .03.006a.03.03 0 0 1 .006.03l1.248 1.3-.047.047L25.9 26c-.006 0-.01.01-.016.01zm-.016-.01c.01.01.037.005.058-.016a.168.168 0 0 0 .02-.036.022.022 0 0 0-.005-.026s-.01-.006-.014-.006a.014.014 0 0 0-.01.006.045.045 0 0 0-.032.015.053.053 0 0 0-.016.063z"/><path d="M27.908 28.04a.02.02 0 0 0 .016-.007l-.084-1.244.25-.3.09 1.354c.22-.21.486-.518.586-.638.01.13.015.256.026.376-.12.147-.24.283-.366.42a2.02 2.02 0 0 1-.22.213c0 .105-.02.3-.162.372a.41.41 0 0 1-.35-.042c-.016-.032-.032-.063-.048-.09v-.015c.282.08.3-.11.3-.136a.832.832 0 0 1-.45-.282l-.015-.162c.156.147.24.226.428.18z" fill="#fff"/><path d="M27.694 28.54a.846.846 0 0 0 .188.262.57.57 0 0 0 .538.11.65.65 0 0 0 .414-.554.736.736 0 0 0 0-.105c0-.036-.02-.314-.042-.675-.12.147-.24.283-.366.42a2.02 2.02 0 0 1-.22.213c0 .106-.02.3-.162.373a.41.41 0 0 1-.35-.042zM27.437 27.265l.037.59c.162.152.246.23.434.184a.02.02 0 0 0 .016-.007l-.084-1.244z" fill="#cd1225"/><path d="M27.49 28.018v.03a2.446 2.446 0 0 0 .152.388c.282.08.3-.11.3-.136a.832.832 0 0 1-.452-.282zM28.09 26.485l.09 1.355c.22-.21.486-.518.586-.638l-.09-1.412z" fill="#022d61"/><path d="M27.87 28.818a.92.92 0 0 1-.2-.267l-.046-.093a.014.014 0 0 0-.006-.01 3.166 3.166 0 0 1-.15-.393l-.054-.795 1.286-1.523v.053l.09 1.412c.01.13.014.256.025.376.015.283.036.633.042.675v.105a.656.656 0 0 1-.43.57.512.512 0 0 1-.13.03.6.6 0 0 1-.426-.14zm-.412-1.548l.052.774a2.55 2.55 0 0 0 .147.387v.01c.016.028.032.06.047.09a.8.8 0 0 0 .188.257.542.542 0 0 0 .393.13.42.42 0 0 0 .12-.026.61.61 0 0 0 .4-.532.37.37 0 0 0 0-.105c0-.042-.026-.387-.042-.675-.01-.115-.016-.245-.026-.37-.032-.57-.073-1.188-.084-1.366z"/><path d="M28.755 25.622L27.6 26.987l.047.037 1.15-1.36-.025-.015c-.006-.012-.012-.017-.017-.028zM28.755 25.586a.024.024 0 0 0 0 .026c0 .01.01.02.02.03s.048.022.06.012 0-.037-.022-.058a.047.047 0 0 0-.032-.015h-.01a.02.02 0 0 0-.015.006zM28.787 25.492c.026.015.02.068.015.09.006 0 .01 0 .016.01l.21-.273c-.048.036-.2.145-.24.172zM29.032 25.324l-.214.272a.017.017 0 0 1 .01 0 .13.13 0 0 1 .1 0z" fill="#e8c015"/><path d="M28.8 25.664l-.026-.015c-.005-.012-.01-.017-.016-.028L27.6 26.987l.047.037zm0-.083c.006 0 .01 0 .016.01l.21-.27c-.048.036-.2.145-.24.172.027.015.022.068.014.09zm.126.02l.1-.276-.214.272a.017.017 0 0 1 .01 0 .13.13 0 0 1 .106.004zm-.126.064l-1.156 1.37-.052-.047 1.156-1.37v-.005a.034.034 0 0 1 0-.03.033.033 0 0 1 .03-.007.017.017 0 0 1 .017.006c0-.026.01-.073-.016-.088.036-.027.256-.19.26-.19V25.3l-.12.31a.126.126 0 0 0-.093 0c.01.02.015.04 0 .05s-.01.006-.02.006zm.01-.068a.047.047 0 0 0-.03-.015h-.01a.02.02 0 0 0-.017 0 .024.024 0 0 0 0 .027c0 .01.01.02.02.03s.048.022.06.012.006-.033-.02-.05z"/><path d="M28.394 25.565l-.9 1.538.047.03.91-1.537c-.01 0-.02 0-.026-.01s-.02-.016-.03-.02zM28.394 25.523a.024.024 0 0 0 0 .026.183.183 0 0 0 .026.03c.027.01.053.016.063 0s0-.036-.03-.052a.052.052 0 0 0-.038-.01h-.01a.022.022 0 0 0-.01.005zM28.41 25.43c.026.01.03.062.03.083 0 0 .007 0 .012.01l.162-.3c-.042.04-.173.17-.204.206zM28.62 25.22l-.163.3h.01a.11.11 0 0 1 .095-.015z" fill="#e8c015"/><path d="M28.447 25.6c-.01 0-.02 0-.027-.01s-.015-.016-.026-.02l-.9 1.537.047.03zm-.006-.083s.007 0 .012.01l.162-.3c-.042.042-.173.172-.2.21.022.002.027.055.027.076zm.122 0l.057-.293-.163.3h.01a.11.11 0 0 1 .095-.01zm-.11.083l-.91 1.543-.057-.036.91-1.543v-.006a.034.034 0 0 1 0-.03.03.03 0 0 1 .025-.017c.005 0 .01.007.016.007 0-.027 0-.074-.03-.084.03-.037.223-.225.223-.23l.01-.005-.068.324a.1.1 0 0 0-.09.015.048.048 0 0 1 .016.048c0 .01-.01.01-.02.015zm0-.068a.052.052 0 0 0-.037-.01h-.01a.022.022 0 0 0-.01 0 .024.024 0 0 0 0 .026.183.183 0 0 0 .025.032c.027.01.053.015.063 0s-.004-.036-.03-.052z"/><path d="M27.94 28.222h.01v-1.255l.272-.283v1.36c.235-.194.518-.486.627-.6v.376c-.126.136-.257.267-.4.393a1.7 1.7 0 0 1-.23.2c-.006.105-.038.3-.19.36a.406.406 0 0 1-.345-.067c-.015-.03-.026-.063-.042-.094v-.01c.276.094.308-.095.308-.12a.86.86 0 0 1-.433-.315v-.162c.15.164.23.253.422.217z" fill="#fff"/><path d="M27.688 28.708a.787.787 0 0 0 .173.277.576.576 0 0 0 .53.142.638.638 0 0 0 .455-.628v-.676c-.125.136-.256.267-.4.393a1.7 1.7 0 0 1-.23.2c-.005.105-.037.3-.19.36a.406.406 0 0 1-.337-.07zM27.516 27.416v.59c.15.163.23.252.423.216h.01v-1.255z" fill="#cd1225"/><path d="M27.516 28.17v.03a3.358 3.358 0 0 0 .126.4c.276.094.308-.095.308-.12a.86.86 0 0 1-.434-.31zM28.222 26.684v1.36c.235-.194.518-.486.627-.6.005-.675.005-1.418.005-1.418z" fill="#022d61"/><path d="M27.845 29a.87.87 0 0 1-.178-.283c-.015-.03-.025-.062-.036-.09a.018.018 0 0 1 0-.014 2.07 2.07 0 0 1-.125-.4v-.8l1.376-1.428v.052s0 .743-.005 1.418v.376c0 .284-.005.634-.005.676a.7.7 0 0 1 0 .105.666.666 0 0 1-.466.544.54.54 0 0 1-.136.016.6.6 0 0 1-.423-.17zm-.308-1.574v.774a3.347 3.347 0 0 0 .125.392s.005.01.005.016a.96.96 0 0 1 .037.09 1.022 1.022 0 0 0 .167.27.575.575 0 0 0 .388.152.542.542 0 0 0 .126-.015.623.623 0 0 0 .434-.508.657.657 0 0 0 0-.1V27.446c.006-.57.006-1.188.006-1.365z"/><path d="M28.855 25.962l-1.245 1.282.042.042L28.892 26a.083.083 0 0 1-.022-.02c-.01-.002-.015-.007-.015-.018zM28.86 25.92c-.01 0-.01.016 0 .027a.062.062 0 0 0 .02.036.044.044 0 0 0 .058.016.052.052 0 0 0-.016-.064.046.046 0 0 0-.036-.015c0-.005 0-.005-.01-.005s-.016.006-.016.006zM28.9 25.832c.026.02.015.068.01.09a.01.01 0 0 0 .01.01l.23-.257c-.05.03-.217.13-.25.157zM29.153 25.68l-.23.256s.005 0 .005.01a.115.115 0 0 1 .1.006z" fill="#e8c015"/><path d="M28.89 26a.083.083 0 0 1-.02-.02c-.01 0-.015-.01-.015-.022l-1.245 1.286.042.042zm.017-.083a.01.01 0 0 0 .01.01l.23-.256c-.052.032-.214.13-.25.158.026.025.015.072.01.093zm.12.03l.126-.27-.23.255s.005 0 .005.01a.115.115 0 0 1 .1.01zM28.9 26l-1.245 1.287-.047-.047 1.244-1.287c0-.016 0-.026.006-.03s.015-.012.03-.007a.018.018 0 0 1 .017.006c0-.027.015-.074-.01-.09v-.005c.036-.02.266-.162.27-.167l-.14.3a.115.115 0 0 0-.094 0c.012.016.017.037 0 .047 0 .005-.01.01-.015.01S28.907 26 28.9 26zm.02-.068a.046.046 0 0 0-.036-.015c0-.006 0-.006-.01-.006s-.01.007-.01.007-.012.015 0 .026a.062.062 0 0 0 .02.036.044.044 0 0 0 .057.015.052.052 0 0 0-.023-.06z"/><path d="M27.218 27.505l-.063.93a.028.028 0 0 1-.016-.01c-.043-.046-.037-.167-.032-.24l.083-.68zM27.442 29.106a.184.184 0 0 1-.13.2.14.14 0 0 1-.105-.02.2.2 0 0 1-.063-.09v-.02c0-.012.006-.017.01-.027a.2.2 0 0 1 .19-.07l.067.016c.012.004.023.01.032.01zM27.485 28.813l.02.266c-.015 0-.026 0-.042-.01a.123.123 0 0 1-.04-.01l-.075-.017a.342.342 0 0 0-.125.01.347.347 0 0 0-.073.042l.11-1.59h.04l-.062 1.195a.136.136 0 0 0 .038.1.13.13 0 0 0 .1.042.357.357 0 0 0 .11-.03z" fill="#022d61"/><path d="M27.15 28.478l-.027.434a.075.075 0 0 1-.062-.026.122.122 0 0 1-.025-.09l.047-.386a.107.107 0 0 0 .026.042.07.07 0 0 0 .042.026zM27.47 28.61l.015.16c-.058.022-.137.048-.18 0a.077.077 0 0 1-.02-.083.172.172 0 0 1 .168-.078zM27.4 27.505l.074 1.062h-.016a.266.266 0 0 0-.167.052l.053-1.115zM27.767 28.41c0 .03-.032.068-.09.1l-.077-.61a1.377 1.377 0 0 0-.02-.162c.082.27.187.625.187.672z" fill="#cd1225"/><path d="M27.678 28.86c0 .068.016.136-.036.183a.138.138 0 0 1-.095.036l-.037-.48v-.042l-.073-1.057h.068c.02.122.037.252.058.4.026.21.052.42.08.623v.047c0 .02.005.047.005.073.01.058.015.126.02.19.005.01.01.016.01.027z" fill="#fff"/><path d="M27.81 28.41c0 .047-.048.1-.127.14 0 .033 0 .06.01.09.006.058.016.126.02.194a.037.037 0 0 0 .007.02.244.244 0 0 1-.053.22.192.192 0 0 1-.182.042.244.244 0 0 1-.037.136.19.19 0 0 1-.126.094.136.136 0 0 1-.042 0 .178.178 0 0 1-.094-.026.192.192 0 0 1-.078-.115.047.047 0 0 1 0-.026v-.006l.016-.225a.114.114 0 0 1-.09-.043.15.15 0 0 1-.036-.12l.078-.612v-.03l.084-.68h.387v.014c.016.057.253.846.262.93zm-.132.1c.057-.03.09-.068.09-.1 0-.047-.106-.4-.19-.675a1.377 1.377 0 0 1 .02.162zm-.036.534c.052-.047.04-.115.036-.183 0-.01-.005-.015-.005-.025-.006-.063-.01-.13-.02-.19 0-.025-.007-.05-.007-.072v-.047c-.027-.2-.053-.413-.08-.622-.02-.147-.036-.277-.057-.4h-.07l.074 1.057v.04l.037.475a.138.138 0 0 0 .092-.032zm-.137.036l-.02-.266a.357.357 0 0 1-.11.026.13.13 0 0 1-.1-.042.136.136 0 0 1-.04-.1l.06-1.193h-.038L27.15 29.1a.347.347 0 0 1 .073-.042.342.342 0 0 1 .125-.01l.074.016a.123.123 0 0 0 .04.01c.017 0 .028 0 .043.005zm-.02-.308l-.016-.162h-.017a.172.172 0 0 0-.167.078.077.077 0 0 0 .02.084c.042.046.12.02.18 0zm-.016-.2l-.07-1.067h-.057l-.052 1.114a.266.266 0 0 1 .168-.053zm-.054.664a.2.2 0 0 0 .026-.125c-.01 0-.02-.005-.03-.005l-.07-.015a.2.2 0 0 0-.187.068c-.005.01-.01.015-.01.026v.016a.2.2 0 0 0 .062.09.14.14 0 0 0 .105.02.193.193 0 0 0 .104-.08zm-.26-.8l.062-.93h-.027l-.082.68c0 .072-.01.193.03.24a.028.028 0 0 0 .017.01zm-.033.476l.027-.434a.07.07 0 0 1-.042-.026.107.107 0 0 1-.026-.042l-.047.387a.122.122 0 0 0 .026.09.075.075 0 0 0 .063.025z"/><path d="M27.51 26.956h-.22v-.973h-.208v-.22h.21v-.22h.218v.22h.21v.22h-.21z" fill="#e8c015"/><path d="M27.51 26.956h-.22v-.973h-.208v-.22h.21v-.22h.218v.22h.21v.22h-.21zm-.177-.042h.136v-.973h.208v-.135h-.21v-.22h-.135v.22h-.214v.136h.213z" fill="#020202"/><path fill="#fff" d="M27.636 26.585l.55.852-1.073.7-.502-.888 1.026-.665z"/><path d="M27.646 26.538l.59.91-1.14.742-.532-.957zm.54.9l-.55-.852-1.025.664.5.89z"/><path d="M27.113 27.986v.074l-.465-.822v-.067c.088.157.44.775.465.816zM27.547 26.543l.518.79a.2.2 0 0 1-.12.12.373.373 0 0 0-.267.225l-.46-.785a.177.177 0 0 1 .03-.083.358.358 0 0 1 .2-.152.128.128 0 0 0 .08-.078zM27.2 26.9l.455.784a.39.39 0 0 0-.3.14c-.01.012-.016.028-.026.038a.15.15 0 0 1-.043.052.19.19 0 0 1-.08.047.225.225 0 0 1-.06.012h-.022c-.032-.058-.4-.71-.47-.837a.154.154 0 0 0 .067 0 .308.308 0 0 0 .188-.115.33.33 0 0 1 .19-.115.37.37 0 0 1 .1-.005z" fill="#fff"/><path d="M28.09 27.333l.043.136-1 .637-.01.01-.5-.873-.012-.13.027.01a.37.37 0 0 0 .084 0 .263.263 0 0 0 .174-.11.344.344 0 0 1 .2-.12.33.33 0 0 1 .094-.006.33.33 0 0 1 .03-.084.41.41 0 0 1 .22-.162.126.126 0 0 0 .07-.068l.025-.073.55.832zm-.025 0l-.518-.79-.016.037a.128.128 0 0 1-.077.078.358.358 0 0 0-.2.152.177.177 0 0 0-.03.083l.46.785a.373.373 0 0 1 .266-.225.2.2 0 0 0 .115-.12zm-.408.355L27.2 26.9a.37.37 0 0 0-.1 0 .33.33 0 0 0-.19.115.308.308 0 0 1-.187.115.154.154 0 0 1-.068 0c.068.126.44.78.47.837h.022a.225.225 0 0 0 .062-.01.19.19 0 0 0 .078-.048.15.15 0 0 0 .042-.053c.01-.01.015-.026.026-.037a.39.39 0 0 1 .3-.132zm-.544.372v-.074c-.026-.04-.377-.66-.465-.815v.068z"/><path d="M30.058 24.7a.035.035 0 0 1-.037.03.08.08 0 0 1-.062-.014.552.552 0 0 1-.13-.09.293.293 0 0 0-.042-.03.367.367 0 0 0-.178-.09l.03-.078c.06.026.12.052.18.084a.983.983 0 0 1 .213.15c.018.014.028.024.028.038zM25.14 24.435l.048.073a.4.4 0 0 0-.172.09l-.047.03a.444.444 0 0 1-.127.09.086.086 0 0 1-.068.015c-.016 0-.036-.015-.03-.03a.052.052 0 0 1 .02-.038 1 1 0 0 1 .22-.15z" fill="#032344"/><path d="M26.538 24.08a.633.633 0 0 0 .25-.053.262.262 0 0 1 .037-.015c.047-.027.11-.063.162-.032l-.036-.193c0-.01-.057 0-.062 0a.62.62 0 0 0-.43.146c-.05.067.006.14.08.147zm.462-.01s0-.022-.02-.048-.084-.01-.142.02a.154.154 0 0 0-.036.017.768.768 0 0 1-.273.056c-.084 0-.116-.068-.137-.13l-.015-.037c0-.027-.016-.06-.026-.095-.006-.016-.01-.037-.016-.053a1.2 1.2 0 0 1-.042-.157c-.105 0-.214 0-.33.006a3.163 3.163 0 0 0-.93.215l-.08.03a.905.905 0 0 0-.506.326.23.23 0 0 0 .03.24 1.05 1.05 0 0 0 .226.23.132.132 0 0 1 .037-.05.99.99 0 0 1 .226-.158 2.286 2.286 0 0 1 .67-.24 2.828 2.828 0 0 1 .726-.032 1.7 1.7 0 0 0 .44-.026c.065-.01.185-.063.198-.115zm1.01-.043a.626.626 0 0 0 .25.053.093.093 0 0 0 .08-.147.617.617 0 0 0-.43-.146s-.062-.01-.062 0l-.042.193c.052-.03.12 0 .167.032zm-4.524.92c.11-.005.292-.015.4-.015l.042.005-.026.026c-.03.037-.12.173-.183.278a2.41 2.41 0 0 1 .355-.15 5 5 0 0 1 .507-.153 1.766 1.766 0 0 0 .4-.146c.146-.078.23-.15.23-.208a.05.05 0 0 0-.01-.037c-.032-.016-.11.03-.173.078a.137.137 0 0 0-.03.037 1.31 1.31 0 0 1-.136.094.15.15 0 0 1-.09.016h-.02s0-.006-.01-.006h-.006a1.186 1.186 0 0 1-.272-.26 2.79 2.79 0 0 0-.977.444zm6.574-.188a.02.02 0 0 0-.01.005h-.022a.145.145 0 0 1-.088-.016.942.942 0 0 1-.137-.095.274.274 0 0 0-.04-.037c-.064-.047-.148-.094-.174-.078-.01 0-.016.016-.016.037 0 .057.083.13.23.21a1.82 1.82 0 0 0 .407.145 5.076 5.076 0 0 1 .51.152 2.374 2.374 0 0 1 .35.152c-.064-.105-.147-.24-.18-.278l-.025-.026.042-.005c.11 0 .293.01.4.016a2.787 2.787 0 0 0-.973-.455 1.184 1.184 0 0 1-.277.26zm.03-.07a1.028 1.028 0 0 0 .226-.23.217.217 0 0 0 .026-.24.873.873 0 0 0-.5-.324l-.084-.03a3.163 3.163 0 0 0-.93-.215 3.278 3.278 0 0 0-.33-.005.9.9 0 0 1-.037.157c0 .016-.01.037-.014.053-.01.036-.02.068-.032.094l-.01.035c-.02.063-.052.126-.14.13A.733.733 0 0 1 28 24.06c-.01-.007-.026-.012-.037-.017-.063-.03-.11-.052-.14-.02s-.027.04-.02.046c.01.05.134.104.192.114a1.747 1.747 0 0 0 .444.026 2.826 2.826 0 0 1 .726.032 2.3 2.3 0 0 1 .67.24 1.14 1.14 0 0 1 .225.157.13.13 0 0 1 .034.05zm-2.258-.94q.408.015.5.126l.047.062c0-.026.015-.057.025-.094 0-.016.01-.036.016-.052a.884.884 0 0 0 .043-.162.283.283 0 0 0-.136-.32l-.084-.03a1.7 1.7 0 0 0-.23-.027h-.037c-.084-.005-.178-.01-.267-.01h-.623c-.094 0-.183.005-.267.01h-.037a1.72 1.72 0 0 0-.23.026l-.083.03a.282.282 0 0 0-.136.32 1.45 1.45 0 0 0 .036.162c.006.016.017.036.02.052.012.037.017.068.027.094a.533.533 0 0 1 .047-.062q.095-.11.5-.126c.183-.01.36 0 .413 0h.036c.06 0 .24-.01.422 0zm3.59 1.25l-.057-.005a4.078 4.078 0 0 0-.418-.02c.052.077.157.25.2.328l.067.126-.094-.106a3.014 3.014 0 0 0-.915-.345 1.847 1.847 0 0 1-.413-.153c-.11-.057-.246-.15-.246-.24 0-.02 0-.037.01-.047s.022-.048.032-.068l.015-.053a2.31 2.31 0 0 0-.45-.142 2.97 2.97 0 0 0-.716-.026 1.846 1.846 0 0 1-.45-.026c-.052-.01-.2-.063-.224-.14a.05.05 0 0 1 0-.043l.052-.257a3.875 3.875 0 0 0-.4.006h-.035a3.758 3.758 0 0 0-.393-.006l.053.257a.118.118 0 0 1 0 .042c-.026.078-.173.13-.225.14a1.843 1.843 0 0 1-.45.027 3.024 3.024 0 0 0-.722.026 2.18 2.18 0 0 0-.465.152l.063.1a.073.073 0 0 1 .016.053c0 .09-.136.183-.246.24a1.98 1.98 0 0 1-.418.152 2.98 2.98 0 0 0-.91.345l-.094.105.063-.126c.048-.08.147-.252.2-.33a4.116 4.116 0 0 0-.418.02l-.053.01.04-.037a2.68 2.68 0 0 1 1.02-.5.255.255 0 0 1-.02-.26.942.942 0 0 1 .522-.34l.085-.033a3.226 3.226 0 0 1 .94-.214h.325a.313.313 0 0 1 .162-.33.466.466 0 0 1 .09-.03 1.137 1.137 0 0 1 .234-.032.07.07 0 0 0 .037-.006c.09 0 .178 0 .272-.01h.628c.1 0 .183 0 .267.01a.094.094 0 0 0 .038.006 1.185 1.185 0 0 1 .24.03.422.422 0 0 1 .09.032.3.3 0 0 1 .156.33h.33a3.24 3.24 0 0 1 .94.214l.08.032a.94.94 0 0 1 .523.34.25.25 0 0 1-.016.26 2.747 2.747 0 0 1 1.02.5zm-1.4-.262a.035.035 0 0 0 .038-.03c0-.017-.01-.027-.027-.038a.983.983 0 0 0-.214-.15c-.06-.033-.12-.06-.18-.085l-.03.078a.367.367 0 0 1 .178.09.293.293 0 0 1 .04.03.552.552 0 0 0 .132.09.08.08 0 0 0 .06.01zm-4.832-.225l-.047-.073-.157.08a1 1 0 0 0-.22.15.052.052 0 0 0-.02.037c0 .016.015.03.03.03a.086.086 0 0 0 .07-.014.444.444 0 0 0 .125-.09l.048-.03a.4.4 0 0 1 .17-.095z"/><path d="M30.345 24.22a.217.217 0 0 1-.026.24 1.028 1.028 0 0 1-.226.23.13.13 0 0 0-.036-.05 1.14 1.14 0 0 0-.225-.158 2.3 2.3 0 0 0-.67-.24 2.826 2.826 0 0 0-.727-.032 1.747 1.747 0 0 1-.444-.026c-.058-.01-.183-.063-.193-.115-.007 0-.012-.022.02-.048s.077-.01.14.02c.01 0 .026.01.037.017a.733.733 0 0 0 .267.056c.09 0 .12-.068.14-.13l.01-.037c.012-.027.022-.06.033-.095l.015-.053a.9.9 0 0 0 .037-.157 3.278 3.278 0 0 1 .328.006 3.163 3.163 0 0 1 .93.215l.085.03a.873.873 0 0 1 .502.326zM29.592 24.545c.026-.016.11.03.173.078a.274.274 0 0 1 .04.037.942.942 0 0 0 .138.094.145.145 0 0 0 .088.016h.022a.02.02 0 0 1 .01-.006 1.184 1.184 0 0 0 .278-.26 2.787 2.787 0 0 1 .973.454c-.11-.006-.293-.016-.4-.016l-.042.005.027.026c.032.037.115.173.178.278a2.374 2.374 0 0 0-.35-.15 5.076 5.076 0 0 0-.508-.153 1.82 1.82 0 0 1-.408-.146c-.147-.078-.23-.15-.23-.208-.003-.03.002-.042.012-.047z" fill="#022d61"/><path d="M27.913 23.787a.617.617 0 0 1 .43.146.093.093 0 0 1-.08.147.626.626 0 0 1-.25-.053l-.037-.015c-.047-.027-.115-.063-.167-.032l.04-.193c0-.01.058 0 .063 0z" fill="#032344"/><path d="M28.018 23.253a1.7 1.7 0 0 1 .23.026l.084.03a.283.283 0 0 1 .136.32.884.884 0 0 1-.042.162c-.006.016-.01.036-.016.052-.01.037-.02.068-.026.094l-.047-.062q-.095-.11-.5-.126c-.183-.01-.36 0-.42 0h-.037c-.052 0-.23-.01-.413 0q-.408.015-.5.126a.533.533 0 0 0-.047.062c-.01-.026-.015-.057-.026-.094 0-.016-.015-.036-.02-.052a1.45 1.45 0 0 1-.037-.162.282.282 0 0 1 .136-.32l.083-.03a1.72 1.72 0 0 1 .23-.027h.037c.084-.005.173-.01.267-.01h.629c.088 0 .182.005.266.01.006-.005.022 0 .032 0z" fill="#022d61"/><path d="M26.95 23.787l.037.193c-.052-.03-.115 0-.162.032a.262.262 0 0 0-.036.015.633.633 0 0 1-.252.053c-.074-.006-.13-.084-.08-.147a.62.62 0 0 1 .43-.146s.063-.01.063 0z" fill="#032344"/><path d="M24.46 24.493a1.186 1.186 0 0 0 .273.26h.006l.01.007h.02a.15.15 0 0 0 .09-.016 1.31 1.31 0 0 0 .14-.084.137.137 0 0 1 .042-.037c.062-.047.14-.094.172-.078a.05.05 0 0 1 .01.037c0 .057-.083.13-.23.21a1.766 1.766 0 0 1-.4.145 5 5 0 0 0-.506.152 2.41 2.41 0 0 0-.356.15c.063-.104.152-.24.183-.277l.026-.026-.04-.005c-.11 0-.294.01-.4.016a2.79 2.79 0 0 1 .96-.455zM26.355 23.855c.01.036.02.068.026.094l.016.035c.02.063.053.126.136.13a.768.768 0 0 0 .273-.056.154.154 0 0 1 .036-.017c.06-.03.11-.052.142-.02s.02.04.02.046c-.015.05-.135.104-.2.114a1.7 1.7 0 0 1-.44.026 2.828 2.828 0 0 0-.726.032 2.286 2.286 0 0 0-.67.24.99.99 0 0 0-.224.157.132.132 0 0 0-.037.05 1.05 1.05 0 0 1-.225-.23.23.23 0 0 1-.03-.24.905.905 0 0 1 .506-.324l.08-.03a3.163 3.163 0 0 1 .93-.215c.115-.005.224-.01.33-.005a1.2 1.2 0 0 0 .04.157c.008.016.013.037.02.053z" fill="#022d61"/><path d="M25.37 24.027c.038.1 0 .168-.108.2l-.095.032-.005-.012.032-.01-.094-.268-.026.01v-.016l.094-.03c.104-.034.172-.006.203.093zm-.05.016a.2.2 0 0 0-.058-.094.114.114 0 0 0-.095-.006l-.02.01.094.272h.016c.042-.016.068-.037.074-.063a.156.156 0 0 0-.01-.12zM25.55 24.142l-.105.026v-.01l.026-.005-.07-.283-.027.01v-.01l.105-.026v.01h-.03l.072.283.032-.01zM25.82 23.938a.183.183 0 0 1-.02.12.128.128 0 0 1-.09.058.116.116 0 0 1-.108-.026.18.18 0 0 1-.058-.11.18.18 0 0 1 .02-.12.13.13 0 0 1 .2-.032.19.19 0 0 1 .057.11zm-.056.006a.33.33 0 0 0-.037-.11.067.067 0 0 0-.068-.026c-.053.01-.074.062-.058.162a.354.354 0 0 0 .036.115.073.073 0 0 0 .07.026.07.07 0 0 0 .056-.046.238.238 0 0 0 0-.12zM26.1 23.99a.084.084 0 0 1-.03.07.146.146 0 0 1-.095.03.126.126 0 0 1-.094-.02l-.005-.095h.01a.313.313 0 0 0 .038.09.063.063 0 0 0 .057.02.084.084 0 0 0 .052-.026.058.058 0 0 0 0-.09.113.113 0 0 0-.052-.02.252.252 0 0 1-.078-.038.066.066 0 0 1-.032-.057.074.074 0 0 1 .03-.055.132.132 0 0 1 .083-.03.248.248 0 0 1 .084.014l.006.09h-.01a.326.326 0 0 0-.033-.074.06.06 0 0 0-.052-.02.1.1 0 0 0-.057.02.04.04 0 0 0-.02.037.054.054 0 0 0 .026.042.4.4 0 0 0 .068.025.32.32 0 0 1 .073.036.06.06 0 0 1 .033.05zM26.967 23.43a.076.076 0 0 1-.032.064.22.22 0 0 1-.1.02h-.026l.01.132h.036v.01h-.115v-.01h.027l-.02-.272h-.027v-.01l.11-.01a.33.33 0 0 1 .083 0 .076.076 0 0 1 .054.077zm-.053 0a.063.063 0 0 0-.02-.046.16.16 0 0 0-.058-.01l-.037.005.01.124h.015a.1.1 0 0 0 .068-.015c.017-.012.02-.033.02-.06zM27.26 23.65h-.1l-.006-.01h.03l-.03-.1h-.095l-.037.11h.042v.01h-.08v-.01h.027l.1-.293.026-.006.1.294h.026zm-.116-.125l-.04-.136-.043.135zM27.48 23.457h-.01c-.012-.042-.022-.068-.022-.073a.028.028 0 0 0-.026-.016H27.4v.277h.032v.01l-.11.006v-.01l.03-.005v-.277h-.025a.023.023 0 0 0-.026.016.473.473 0 0 0-.02.073h-.01v-.094h.214zM27.75 23.65h-.067l-.1-.14s-.006 0-.01-.01v.14h.027v.01h-.1v-.01h.026v-.272H27.5v-.015h.12c.073 0 .115.02.11.068a.057.057 0 0 1-.026.053.132.132 0 0 1-.073.02l.1.142h.022zm-.072-.224c0-.042-.026-.058-.073-.058h-.032v.126h.01c.063 0 .095-.026.095-.068zM27.86 23.656h-.104v-.016h.026l.01-.272h-.025v-.01h.1v.01h-.027l-.01.277h.03zM28.138 23.682l-.11-.016.005-.01.027.005-.02-.11-.095-.01-.048.1.042.007v.01l-.074-.01v-.007h.026l.126-.282h.03l.07.3.025.006zm-.1-.14l-.03-.137-.06.125zM28.73 24.09h-.194.02l-.005-.257h-.025.105v.01h-.037l.01.257h.058a.053.053 0 0 0 .022-.005.01.01 0 0 0 .01-.01.257.257 0 0 0 .02-.09h.012zM28.845 24.09h-.095v-.01h.026v-.257h-.026v-.01h.095v.01h-.027v.257h.027zM29.1 24.027c0 .047-.036.068-.1.068h-.131v-.01h.025l.02-.257h-.025v-.01l.09.005a.13.13 0 0 1 .077.016.072.072 0 0 1 .042.056c0 .037-.032.058-.09.058a.18.18 0 0 1 .073.026.066.066 0 0 1 .017.047zm-.047-.005a.06.06 0 0 0-.02-.052.12.12 0 0 0-.074-.016h-.017v.13h.026c.025 0 .05 0 .062-.01s.01-.026.016-.052zm0-.13c0-.027 0-.043-.02-.048a.08.08 0 0 0-.06-.016h-.014l-.006.116h.01c.047.005.074-.016.08-.053zM29.315 24.142l-.215-.036V24.1l.027.005.047-.25h-.02v-.01l.2.035-.017.09h-.016a.205.205 0 0 0 0-.07.017.017 0 0 0 0-.01c-.004 0-.01-.005-.02-.005l-.073-.015-.02.115.02.005a.03.03 0 0 0 .03-.005c.006 0 .012-.016.022-.042h.01l-.02.115h-.012a.24.24 0 0 1 0-.047.025.025 0 0 0-.026-.015h-.026l-.02.126.077.016a.03.03 0 0 0 .02.006c0-.006 0-.006.01-.01a.633.633 0 0 0 .038-.074h.012zM29.566 24.22l-.066-.02-.052-.152a.022.022 0 0 0 0-.016l-.042.13h.026v.012l-.094-.026v-.01l.026.005.073-.246-.02-.006v-.01l.1.032c.067.02.093.053.082.095a.05.05 0 0 1-.037.036.084.084 0 0 1-.073 0l.052.157.02.005zm0-.224c.01-.037-.01-.058-.053-.073l-.026-.006-.036.11c.064.02.095.01.11-.027zM29.812 24.116H29.8c.005-.042.01-.063.01-.068s-.005-.02-.015-.02l-.026-.01-.095.24.026.01-.004.01-.095-.042v-.01l.033.01.095-.236-.02-.01c-.01-.006-.022-.006-.027 0s-.02.02-.04.052h-.01l.03-.084.188.08zM29.97 24.41l-.09-.048h.005l.026.01.017-.1-.08-.042-.072.073.03.016h-.004l-.062-.032.006-.005.02.01.21-.2.02.01-.04.283.02.01zm-.038-.153l.02-.13-.093.09zM30.257 24.42a.13.13 0 0 1-.2.047l-.08-.048.006-.01.026.015.125-.225-.026-.01v-.01l.077.046a.126.126 0 0 1 .07.193zm-.043-.027a.145.145 0 0 0 .027-.094c0-.027-.02-.048-.052-.07l-.015-.004-.125.22.015.01a.1.1 0 0 0 .083.01.16.16 0 0 0 .068-.073z" fill="#e8c015"/><path d="M27.563 31.307a.132.132 0 0 1 0 .063.045.045 0 0 1-.016.032c-.016.015-.057.015-.126.015s-.124 0-.14-.015a.042.042 0 0 1-.005-.037.017.017 0 0 0 .006-.016l.016-.048a.312.312 0 0 0 0-.068.272.272 0 0 0-.032-.062c-.01-.02-.02-.032-.02-.048v-.01s0-.016.01-.02a.065.065 0 0 1 .026-.032c.01-.01.026-.016.094-.026a.884.884 0 0 1 .1-.01c.016 0 .022 0 .027.004a.094.094 0 0 1 .042.063.018.018 0 0 1 .006.016v.01a.037.037 0 0 0-.006.02.116.116 0 0 0 0 .073c0 .01.01.016.01.02v.007c.006.005.006.01.01.015s-.004.037 0 .052z" fill="#b21229"/><path d="M28.08 31.334a.15.15 0 0 1-.005.068c.168.062.3.1.366.125-.035-.063-.1-.178-.1-.183l-.01-.016h.016a.48.48 0 0 0 .126-.063 2.593 2.593 0 0 1-.377-.11.1.1 0 0 1-.016.058v.016a.053.053 0 0 0-.017.04.125.125 0 0 0 .01.042c-.003.006.002.01.008.022zm-.486.03a1.372 1.372 0 0 0 .21.07.216.216 0 0 0 .057.01c0-.006 0-.01-.015-.02a.353.353 0 0 0-.172-.08l-.016-.005-.063-.017zm-.02-.13a.27.27 0 0 0 .072.02.457.457 0 0 0 .068.022.59.59 0 0 1 .152.052.3.3 0 0 1 .084.08l-.02.02a.434.434 0 0 0-.08-.073.424.424 0 0 0-.15-.055.635.635 0 0 0-.062-.015l-.058-.016a.033.033 0 0 1 0 .02.36.36 0 0 1 .078.02h.01a.418.418 0 0 1 .19.09c.015.015.036.04.025.057s-.015.016-.036.016a.265.265 0 0 1-.057-.01 1.613 1.613 0 0 1-.21-.07c0 .007 0 .012-.01.017a.65.65 0 0 0 .067.026c.168.058.24.084.3.053a.192.192 0 0 0 .09-.09.085.085 0 0 0 .01-.058.04.04 0 0 0-.01-.02.165.165 0 0 1-.017-.064.144.144 0 0 1 .016-.052l.01-.01c0-.02.01-.042.016-.068a.134.134 0 0 0-.032-.094.16.16 0 0 0-.146-.042.252.252 0 0 0-.115.03.863.863 0 0 1-.095.043l-.11.03v.012h.074a.97.97 0 0 0 .24-.016.378.378 0 0 0 .1-.03l.01.026a.564.564 0 0 1-.105.036 1.122 1.122 0 0 1-.245.01h-.08v.017a.056.056 0 0 0 0 .05v.022h.006s.012.012.017.012zm-.843.073a.065.065 0 0 0 .017-.04.058.058 0 0 0-.016-.043s-.004-.01-.004-.016a.1.1 0 0 1-.016-.057 2.775 2.775 0 0 1-.376.11.49.49 0 0 0 .12.063h.02l-.01.016s-.068.12-.1.182c.068-.02.193-.063.366-.125a.1.1 0 0 1 0-.068c-.004-.007-.004-.012 0-.023zm0-.177a.14.14 0 0 0 .018.068v.01a.087.087 0 0 1 .016.052.08.08 0 0 1-.016.063v.02a.08.08 0 0 0 .01.06.186.186 0 0 0 .088.088c.063.032.136 0 .3-.052a.722.722 0 0 0 .09-.036.02.02 0 0 1-.007-.016 1.82 1.82 0 0 1-.236.078.32.32 0 0 1-.063.01c-.014 0-.025-.004-.03-.015s0-.043.026-.058a.428.428 0 0 1 .184-.09h.015a.516.516 0 0 1 .125-.025v-.027c-.03.01-.068.016-.1.027l-.068.015a.428.428 0 0 0-.14.053.24.24 0 0 0-.08.073l-.026-.02a.41.41 0 0 1 .09-.08.53.53 0 0 1 .15-.052.4.4 0 0 0 .07-.02.55.55 0 0 0 .093-.027.11.11 0 0 0-.022-.043.093.093 0 0 1-.02-.052h-.038a1.21 1.21 0 0 1-.25-.01.937.937 0 0 1-.105-.037l.015-.026a.327.327 0 0 0 .1.03.98.98 0 0 0 .24.017h.048v-.017c-.026-.01-.052-.016-.084-.026s-.073-.03-.1-.042a.22.22 0 0 0-.11-.03.16.16 0 0 0-.146.04.134.134 0 0 0-.032.095zm1.81.1l-.03.026a.42.42 0 0 1-.147.084l.115.2.02.026h-.035c-.063-.01-.278-.09-.408-.136a.232.232 0 0 1-.095.094.192.192 0 0 1-.073.016.89.89 0 0 1-.256-.074l-.083-.03a.288.288 0 0 1-.136.015h-.02a.267.267 0 0 1-.13-.02.673.673 0 0 1-.095.036.9.9 0 0 1-.255.074.175.175 0 0 1-.074-.016.23.23 0 0 1-.094-.094c-.13.047-.346.125-.408.136h-.037l.02-.026c.022-.037.09-.152.11-.2a.46.46 0 0 1-.14-.084l-.037-.026h.042a2.064 2.064 0 0 0 .413-.115.2.2 0 0 1 .037-.1.22.22 0 0 1 .172-.053.285.285 0 0 1 .126.038c.02.01.052.02.094.037l.09.03a.055.055 0 0 1 .025-.025c.02-.02.04-.026.11-.037s.12-.016.145 0a.107.107 0 0 1 .053.068.926.926 0 0 0 .11-.036L27.76 31a.265.265 0 0 1 .12-.037.208.208 0 0 1 .172.053.137.137 0 0 1 .037.1 2.036 2.036 0 0 0 .42.115zm-.982.136a.132.132 0 0 0 0-.063c0-.015-.01-.036-.016-.052s0-.01-.01-.014v-.006c0-.005-.006-.01-.01-.02a.116.116 0 0 1 0-.074.037.037 0 0 1 .005-.02v-.01a.018.018 0 0 0-.006-.017.094.094 0 0 0-.04-.064c0-.005-.01-.005-.027-.005a.884.884 0 0 0-.1.012c-.068.01-.084.015-.094.026a.065.065 0 0 0-.027.03c-.006 0-.006.017-.01.022v.01c0 .016.01.027.02.048a.272.272 0 0 1 .032.062.312.312 0 0 1 0 .068l-.015.047a.017.017 0 0 1-.006.016.042.042 0 0 0 .006.038c.015.015.062.015.14.015s.11 0 .126-.015a.045.045 0 0 0 .016-.032zm-.314-.03s.005-.017.005-.022a.8.8 0 0 0-.116.02l-.01.006a.353.353 0 0 0-.173.08c-.01.01-.015.014-.015.02a.163.163 0 0 0 .053-.01 1.594 1.594 0 0 0 .25-.085s.01 0 .01-.006z"/><path d="M28.09 31.15a2.593 2.593 0 0 0 .378.11.48.48 0 0 1-.126.063h-.016l.01.016s.07.12.1.182c-.066-.02-.2-.063-.365-.125a.15.15 0 0 0 .007-.068l-.016-.028a.125.125 0 0 1-.01-.04.053.053 0 0 1 .016-.043v-.017a.1.1 0 0 0 .025-.052zM27.59 31.4a1.613 1.613 0 0 0 .21.068.265.265 0 0 0 .056.01c.02 0 .03-.004.036-.015s-.01-.042-.026-.057a.418.418 0 0 0-.188-.09h-.01a.36.36 0 0 0-.08-.02.033.033 0 0 0 0-.02l.06.015a.635.635 0 0 1 .06.016.424.424 0 0 1 .148.053.434.434 0 0 1 .078.072l.02-.02a.3.3 0 0 0-.083-.08.59.59 0 0 0-.15-.052.457.457 0 0 1-.07-.02.27.27 0 0 1-.072-.022v-.01h-.005v-.02a.056.056 0 0 1 0-.053v-.016h.08a1.122 1.122 0 0 0 .244-.012.564.564 0 0 0 .105-.036l-.01-.026a.378.378 0 0 1-.1.03.97.97 0 0 1-.24.017h-.075V31.1l.11-.03a.863.863 0 0 0 .094-.043.252.252 0 0 1 .116-.03.16.16 0 0 1 .146.04.134.134 0 0 1 .032.095c-.005.026-.01.047-.016.068l-.01.01a.144.144 0 0 0-.016.052.165.165 0 0 0 .016.063.04.04 0 0 1 .01.02.085.085 0 0 1-.01.06.192.192 0 0 1-.09.088c-.062.03-.135 0-.3-.053a.65.65 0 0 1-.067-.026c-.006-.007-.006-.014 0-.014zM27.673 31.344a.353.353 0 0 1 .172.08c.01.01.016.014.016.02a.216.216 0 0 1-.057-.01 1.372 1.372 0 0 1-.21-.07v-.04l.064.015zM26.757 31.323a.08.08 0 0 0 .016-.063.087.087 0 0 0-.016-.052v-.01a.14.14 0 0 1-.017-.068.134.134 0 0 1 .032-.094.16.16 0 0 1 .146-.042.22.22 0 0 1 .11.03c.026.012.058.027.1.043s.058.016.084.026v.016h-.052a.98.98 0 0 1-.24-.017.327.327 0 0 1-.1-.03l-.016.025a.937.937 0 0 0 .105.036 1.21 1.21 0 0 0 .25.01h.046a.093.093 0 0 0 .02.053.11.11 0 0 1 .022.042.55.55 0 0 1-.094.025.4.4 0 0 1-.068.02.53.53 0 0 0-.152.053.41.41 0 0 0-.09.08l.027.02a.24.24 0 0 1 .08-.073.428.428 0 0 1 .14-.053l.07-.015c.03-.01.067-.016.1-.027v.027a.516.516 0 0 0-.126.026h-.015a.428.428 0 0 0-.185.09c-.02.014-.036.04-.025.056s.015.015.03.015a.32.32 0 0 0 .06-.01 1.82 1.82 0 0 0 .235-.08.02.02 0 0 0 .006.017.722.722 0 0 1-.088.036c-.168.058-.24.084-.3.053a.186.186 0 0 1-.088-.088.08.08 0 0 1-.01-.058l.003-.02zM27.14 31.34a.8.8 0 0 1 .114-.022s-.005.016-.005.02v.01a1.594 1.594 0 0 1-.252.085.163.163 0 0 1-.053.01c0-.005.006-.01.016-.02a.353.353 0 0 1 .174-.08zM26.747 31.266a.065.065 0 0 1-.016.04c-.004.012-.004.017-.01.028a.1.1 0 0 0 0 .068c-.172.062-.3.1-.365.125.036-.063.1-.178.1-.183l.01-.016h-.02a.49.49 0 0 1-.12-.063 2.775 2.775 0 0 0 .376-.11.1.1 0 0 0 .017.058c0 .005.005.01.005.016a.058.058 0 0 1 .025.036zM31.5 29.9a.973.973 0 0 0-.188.272c-.073.14-.136.308-.2.465a.75.75 0 0 1-.272.35.05.05 0 0 1-.026.02.446.446 0 0 1-.215.122.054.054 0 0 1-.03-.007h-.007c-.02-.037.02-.105.052-.126s.058-.047.09-.068a1.075 1.075 0 0 0 .182-.147.23.23 0 0 0 .048-.073.094.094 0 0 0 0-.084 1.728 1.728 0 0 0-.22-.335 2.06 2.06 0 0 1 .47-.637 2.456 2.456 0 0 0-.09.414l-.01.057.037-.042a1.068 1.068 0 0 1 .378-.182z" fill="#cd1225"/><path d="M30.9 30.633c.01.01.015.026.005.057a.246.246 0 0 1-.042.058 2.285 2.285 0 0 1-.178.146c-.03.02-.062.042-.09.063a.2.2 0 0 0-.072.126l-.047-.042.03-.078a.605.605 0 0 1 .23-.3c.038-.03.132-.055.164-.03z" fill="#b21229"/><path d="M30.88 30.59a.3.3 0 0 0-.164.038.65.65 0 0 0-.24.32 2.1 2.1 0 0 1-.246.448c-.037.053-.068.09-.1.13a.63.63 0 0 1-.476.237.684.684 0 0 1-.638-.272.092.092 0 0 1 0-.088.067.067 0 0 1 .057 0 .513.513 0 0 1 .152.094c.173.146.283.21.37.21a.22.22 0 0 0 .143-.06 1.393 1.393 0 0 0 .235-.307.54.54 0 0 0 .105-.367.25.25 0 0 0-.1-.126c.356-.622.534-.638.644-.586a.3.3 0 0 1 .057.038 1.3 1.3 0 0 1 .2.293z" fill="#cd1225"/><path d="M29.728 31.585c.006.01 0 .026-.005.036a.174.174 0 0 1-.168.043.857.857 0 0 1-.3-.193.635.635 0 0 0-.167-.105.2.2 0 0 0-.052 0l.052-.136a2.1 2.1 0 0 1 .528.24c.034.015.107.068.112.115zM25.707 31.224l.057.136a.257.257 0 0 0-.057 0 .7.7 0 0 0-.163.105.9.9 0 0 1-.3.193.17.17 0 0 1-.167-.042.083.083 0 0 1-.01-.036c.01-.047.083-.1.115-.12a2.12 2.12 0 0 1 .525-.236z" fill="#b21229"/><path d="M30.052 30.983a.51.51 0 0 1-.1.34 1.424 1.424 0 0 1-.183.25.263.263 0 0 0-.127-.135 3 3 0 0 0-1.135-.392 5.59 5.59 0 0 0-2.207 0 2.966 2.966 0 0 0-1.134.392c-.057.037-.115.084-.125.136a1.14 1.14 0 0 1-.182-.25.51.51 0 0 1-.105-.34.255.255 0 0 1 .1-.116 1.157 1.157 0 0 1 .157-.073c.016-.005.026-.01.042-.016a4.59 4.59 0 0 1 .45-.168 6.005 6.005 0 0 1 1.9-.246 6.023 6.023 0 0 1 1.9.246 4.5 4.5 0 0 1 .45.167c.016 0 .026.01.042.015a1.053 1.053 0 0 1 .152.073.263.263 0 0 1 .106.115z" fill="#cd1225"/><path d="M24.325 31.04l-.047.043a.2.2 0 0 0-.073-.126c-.03-.02-.057-.042-.09-.063a1.258 1.258 0 0 1-.177-.146.17.17 0 0 1-.042-.058c-.01-.03-.01-.047.006-.057.026-.026.12 0 .162.026a.564.564 0 0 1 .225.3.553.553 0 0 1 .035.08z" fill="#b21229"/><path d="M25.78 31.4a.078.078 0 0 1 0 .09.675.675 0 0 1-.634.27.62.62 0 0 1-.475-.235c-.03-.042-.062-.078-.104-.13a2.357 2.357 0 0 1-.24-.45.633.633 0 0 0-.246-.32.27.27 0 0 0-.157-.036 1.293 1.293 0 0 1 .193-.294.327.327 0 0 1 .052-.037c.116-.053.293-.037.65.585a.248.248 0 0 0-.1.126c-.038.1.035.252.1.367a1.4 1.4 0 0 0 .23.308.234.234 0 0 0 .146.058c.09 0 .2-.063.37-.21a.457.457 0 0 1 .153-.093.067.067 0 0 1 .062 0zM24.184 30.988c.032.02.073.09.052.126h-.005c0 .006-.015.006-.025.006a.48.48 0 0 1-.22-.12.168.168 0 0 1-.026-.022.822.822 0 0 1-.273-.35 3.22 3.22 0 0 0-.2-.465.894.894 0 0 0-.187-.263.986.986 0 0 1 .37.172l.042.042-.01-.057a2.58 2.58 0 0 0-.088-.414 2.158 2.158 0 0 1 .47.638 1.5 1.5 0 0 0-.22.336.1.1 0 0 0 0 .084.228.228 0 0 0 .052.073 1.16 1.16 0 0 0 .183.146.914.914 0 0 1 .084.068z" fill="#cd1225"/><path d="M31.715 29.812l-.12.068c-.193.1-.345.507-.444.774a.87.87 0 0 1-.287.366s-.016.01-.02.02a.543.543 0 0 1-.236.126.11.11 0 0 1-.058-.015v-.005l-.085-.073a2.085 2.085 0 0 1-.2.345 1.54 1.54 0 0 1-.1.13.648.648 0 0 1-.5.252h-.037a.936.936 0 0 1-.335-.053.613.613 0 0 1-.292-.236.11.11 0 0 1-.005-.12l.074-.182a5.722 5.722 0 0 0-.56-.125 5.424 5.424 0 0 0-1.1-.11 5.433 5.433 0 0 0-1.1.11 5.34 5.34 0 0 0-.56.125l.073.183a.122.122 0 0 1 0 .12.633.633 0 0 1-.3.237 1 1 0 0 1-.367.052.648.648 0 0 1-.5-.252.936.936 0 0 1-.1-.13 1.783 1.783 0 0 1-.2-.346l-.084.073-.005.006a.108.108 0 0 1-.057.016.54.54 0 0 1-.236-.125.07.07 0 0 0-.026-.02.887.887 0 0 1-.282-.366c-.1-.267-.257-.675-.445-.774l-.12-.068.137.03a1.513 1.513 0 0 1 .44.174 1.35 1.35 0 0 0-.12-.44l-.084-.13.11.11a2.12 2.12 0 0 1 .543.7c.016-.01.03-.022.042-.027a.24.24 0 0 1 .266.036 1.91 1.91 0 0 1 .43.56c.046-.027.1-.048.14-.07l.042-.014a4.33 4.33 0 0 1 .455-.168 6.056 6.056 0 0 1 1.853-.246h.047a6.125 6.125 0 0 1 1.914.246 4.687 4.687 0 0 1 .455.168l.035.015c.048.02.1.042.147.068a1.91 1.91 0 0 1 .43-.56.23.23 0 0 1 .26-.036.11.11 0 0 1 .042.025 2.265 2.265 0 0 1 .544-.7l.115-.11-.084.13a1.253 1.253 0 0 0-.12.44 1.513 1.513 0 0 1 .438-.172zm-.4.36a.973.973 0 0 1 .185-.272 1.068 1.068 0 0 0-.377.172l-.036.042.01-.057a2.456 2.456 0 0 1 .09-.414 2.06 2.06 0 0 0-.472.638 1.728 1.728 0 0 1 .22.336.094.094 0 0 1 0 .084.23.23 0 0 1-.047.073 1.075 1.075 0 0 1-.183.146c-.03.02-.057.04-.09.067s-.072.09-.05.126h.005a.054.054 0 0 0 .03.006.446.446 0 0 0 .215-.122.05.05 0 0 0 .026-.02.75.75 0 0 0 .273-.35c.064-.147.127-.314.2-.455zm-.408.518c.01-.03 0-.047-.005-.057-.032-.026-.126 0-.163.026a.605.605 0 0 0-.23.3l-.032.078.047.042a.2.2 0 0 1 .073-.126c.027-.02.058-.042.09-.063a2.285 2.285 0 0 0 .177-.145.246.246 0 0 0 .04-.055zm-.19-.062a.3.3 0 0 1 .164-.037 1.3 1.3 0 0 0-.193-.292.3.3 0 0 0-.057-.037c-.11-.05-.288-.035-.644.587a.25.25 0 0 1 .1.126.54.54 0 0 1-.105.366 1.393 1.393 0 0 1-.234.307.22.22 0 0 1-.142.058c-.088 0-.2-.063-.37-.21a.513.513 0 0 0-.153-.093.067.067 0 0 0-.056 0 .092.092 0 0 0 0 .09.684.684 0 0 0 .638.27.63.63 0 0 0 .476-.235c.03-.042.062-.078.1-.13a2.1 2.1 0 0 0 .246-.45.65.65 0 0 1 .232-.32zm-.767.7a.51.51 0 0 0 .1-.34.263.263 0 0 0-.1-.115 1.053 1.053 0 0 0-.15-.073c-.016-.005-.026-.01-.042-.016a4.5 4.5 0 0 0-.45-.167 6.023 6.023 0 0 0-1.9-.246 6.005 6.005 0 0 0-1.9.247 4.59 4.59 0 0 0-.45.167c-.016 0-.026.01-.042.016a1.157 1.157 0 0 0-.157.073.255.255 0 0 0-.1.115.51.51 0 0 0 .104.34 1.14 1.14 0 0 0 .183.25c.01-.05.068-.1.125-.135a2.966 2.966 0 0 1 1.135-.392 5.59 5.59 0 0 1 2.207 0 3 3 0 0 1 1.135.393.263.263 0 0 1 .125.136 1.424 1.424 0 0 0 .173-.257zm-.225.3c.005-.01.01-.026.005-.036-.005-.047-.078-.1-.11-.12a2.1 2.1 0 0 0-.528-.24l-.052.135a.2.2 0 0 1 .052 0 .635.635 0 0 1 .167.105.857.857 0 0 0 .3.193.174.174 0 0 0 .163-.044zm-3.944-.13a.078.078 0 0 0 0-.09.067.067 0 0 0-.056 0 .457.457 0 0 0-.152.095c-.172.146-.282.21-.37.21a.234.234 0 0 1-.148-.06 1.4 1.4 0 0 1-.23-.307c-.068-.115-.14-.267-.1-.366a.248.248 0 0 1 .1-.126c-.356-.622-.533-.638-.65-.586a.327.327 0 0 0-.05.037 1.293 1.293 0 0 0-.194.293.27.27 0 0 1 .157.037.633.633 0 0 1 .245.32 2.357 2.357 0 0 0 .24.448l.106.13a.62.62 0 0 0 .475.237.675.675 0 0 0 .626-.28zm-.014-.13l-.057-.137a2.12 2.12 0 0 0-.524.24c-.032.022-.105.075-.116.122a.083.083 0 0 0 .01.036.17.17 0 0 0 .168.042.9.9 0 0 0 .3-.193.7.7 0 0 1 .163-.105.257.257 0 0 1 .054-.012zm-1.486-.278l.047-.042a.553.553 0 0 0-.036-.08.564.564 0 0 0-.224-.3c-.042-.025-.136-.05-.162-.025-.016.01-.016.026-.006.057a.17.17 0 0 0 .042.058 1.258 1.258 0 0 0 .178.146c.032.02.058.042.09.063a.2.2 0 0 1 .07.116zm-.042.03c.02-.036-.02-.104-.052-.125a.914.914 0 0 0-.09-.068 1.16 1.16 0 0 1-.182-.146.228.228 0 0 1-.052-.072.1.1 0 0 1 0-.084 1.5 1.5 0 0 1 .22-.335 2.158 2.158 0 0 0-.47-.64 2.58 2.58 0 0 1 .088.415l.01.057-.04-.042a.986.986 0 0 0-.37-.18.894.894 0 0 1 .182.272 3.22 3.22 0 0 1 .2.465.822.822 0 0 0 .272.35.168.168 0 0 0 .027.02.48.48 0 0 0 .22.122c.01 0 .02 0 .026-.007h.005z"/><path d="M25.465 31.1l-.057.02-.136-.082s-.01-.006-.016-.006l.053.126.025-.01v.005l-.09.036v-.006l.022-.01-.1-.236-.02.01-.006-.01.1-.042c.063-.026.1-.02.12.02a.065.065 0 0 1 0 .054.127.127 0 0 1-.057.04l.136.09.02-.01zm-.146-.167c-.01-.037-.043-.042-.084-.02l-.027.01.04.1h.012c.057-.023.073-.055.057-.092zM25.67 31.036l-.2.062v-.01l.025-.005-.078-.246-.026.01v-.01l.2-.063.027.084H25.6a.285.285 0 0 0-.04-.058H25.533l-.073.026.036.11h.02a.052.052 0 0 0 .027-.016v-.052h.01l.038.11-.015.005a.23.23 0 0 0-.026-.042.056.056 0 0 0-.027 0l-.027.007.042.12.074-.02c.01 0 .015-.01.02-.01s.006-.007.006-.017a.526.526 0 0 0-.006-.08h.016zM25.853 30.774a.05.05 0 0 1-.016.063.21.21 0 0 1-.09.036l-.02.006.032.12h.035l-.1.025-.006-.01.026-.006-.063-.246h-.026v-.01l.1-.027a.2.2 0 0 1 .073 0 .057.057 0 0 1 .053.047zm-.048.01a.056.056 0 0 0-.026-.04.06.06 0 0 0-.053.004h-.03l.03.115h.016a.117.117 0 0 0 .057-.026c.01-.01.016-.026.005-.053zM26.093 30.664h-.026l.037.19c.01.05-.01.082-.068.093-.037 0-.063 0-.08-.01a.1.1 0 0 1-.03-.07l-.037-.166h-.022v-.01l.1-.02v.01l-.026.006.037.177a.114.114 0 0 0 .02.058c.01.01.026.01.052.01a.053.053 0 0 0 .042-.03.09.09 0 0 0 0-.073l-.032-.162h-.03v-.01l.067-.016zM26.37 30.805c.01.047-.015.074-.078.09a.25.25 0 0 1-.042.01l-.09.015v-.01h.027l-.047-.25h-.026v-.01l.09-.017a.548.548 0 0 1 .078 0 .07.07 0 0 1 .052.047c0 .036-.016.062-.068.078a.1.1 0 0 1 .073.01c.02.006.03.016.03.037zm-.083-.12c0-.02-.01-.036-.027-.042a.1.1 0 0 0-.057 0l-.02.006.02.108h.016c.05-.01.08-.03.067-.073zm.04.126a.053.053 0 0 0-.03-.04.178.178 0 0 0-.073 0h-.016l.022.13.025-.006a.16.16 0 0 0 .063-.026c.01-.01.01-.03.01-.057zM26.6 30.847l-.19.032v-.012h.027l-.037-.25-.026.004v-.01l.105-.016v.01l-.038.006.042.25.057-.01c.012 0 .017 0 .022-.005s.006 0 .006-.01a.363.363 0 0 0 .01-.09h.01zM26.715 30.832l-.1.015v-.01h.026l-.03-.25h-.026v-.007l.094-.015v.01h-.026l.03.25h.027zM26.946 30.8a.168.168 0 0 1-.074.026.116.116 0 0 1-.1-.03.107.107 0 0 1-.047-.095.154.154 0 0 1 .027-.11.134.134 0 0 1 .093-.046.117.117 0 0 1 .073.01l.006.073h-.014a.2.2 0 0 0-.027-.062.047.047 0 0 0-.037-.016.087.087 0 0 0-.063.04.2.2 0 0 0-.01.1c0 .095.037.137.094.132.02 0 .032-.01.037-.026a.653.653 0 0 0 .02-.08h.01zM27.218 30.8h-.1v-.01l.03-.006-.036-.094-.09.006L27 30.8h.03l.007.01h-.073v-.01h.02l.08-.272h.025l.11.266h.02zm-.11-.115l-.047-.12-.03.125zM27.6 30.654c0 .094-.052.14-.15.136h-.09v-.01h.026v-.252h-.026v-.01h.09c.102 0 .15.047.15.136zm-.047 0a.153.153 0 0 0-.026-.094.09.09 0 0 0-.078-.032h-.016v.25h.015a.077.077 0 0 0 .077-.025.16.16 0 0 0 .025-.1zM27.877 30.675a.135.135 0 0 1-.042.1.09.09 0 0 1-.09.03.1.1 0 0 1-.083-.04.186.186 0 0 1-.03-.105.194.194 0 0 1 .04-.105.12.12 0 0 1 .095-.03.105.105 0 0 1 .084.04.157.157 0 0 1 .027.11zm-.048-.006a.3.3 0 0 0-.01-.1.074.074 0 0 0-.053-.038c-.047 0-.08.042-.084.13a.267.267 0 0 0 .01.106.057.057 0 0 0 .053.036.06.06 0 0 0 .057-.03.2.2 0 0 0 .026-.105zM28.185 30.847l-.1-.015v-.01h.036l.027-.24-.115.24h-.015l-.057-.267-.027.245.03.006v.01l-.067-.01V30.8h.026l.027-.256h-.028l.006-.01.073.01.048.22.1-.2h.074v.01h-.032l-.03.252h.03zM28.3 30.863l-.094-.01v-.01h.02l.038-.252-.02-.004v-.01l.093.015v.01h-.026l-.036.257h.026zM28.614 30.65l-.026-.007-.047.262-.03-.005-.1-.293-.048.256h.042l-.006.01-.072-.01v-.01h.025l.043-.246h-.026v-.01l.08.01.093.24.03-.2-.035-.01v-.01l.078.015zM28.682 30.93l-.094-.02h.026l.047-.25h-.025v-.012l.1.016-.005.01h-.026l-.047.25.026.006zM28.912 30.962a.112.112 0 0 1-.073.006.138.138 0 0 1-.09-.058.125.125 0 0 1-.016-.105.152.152 0 0 1 .058-.1.125.125 0 0 1 .1-.016.16.16 0 0 1 .067.03l-.016.074-.016-.005a.58.58 0 0 0 0-.07c-.005-.015-.016-.02-.03-.025a.08.08 0 0 0-.075.02.165.165 0 0 0-.042.095c-.02.09 0 .136.054.146a.043.043 0 0 0 .042-.01.28.28 0 0 0 .04-.068h.017zM29.174 31.046l-.095-.026v-.01l.026.01-.006-.105-.083-.02-.058.083.036.01v.01l-.063-.015v-.01l.02.005.158-.24.027.01.02.282.022.006zm-.074-.14l-.005-.132-.068.11zM29.5 30.88l-.02-.007-.09.246-.026-.01-.063-.3-.083.245.037.01v.01l-.073-.025v-.01l.027.01.084-.24-.025-.01v-.006l.078.026.047.25.074-.2-.042-.015v-.01l.073.026zM29.644 31.24l-.09-.042.007-.01.027.01.01-.1-.078-.036-.07.073.032.016v.01l-.063-.03.005-.01.015.01.2-.2.026.01-.03.283.02.01zm-.042-.152l.016-.13-.09.093z" fill="#e8c015"/></svg>