<svg xmlns="http://www.w3.org/2000/svg" viewBox="0 0 55 55"><path d="M49.648 34.73a23.326 23.326 0 0 1-29.38 14.918l14.457-44.3A23.325 23.325 0 0 1 49.648 34.73z" fill="#fff"/><path d="M34.725 5.352l-14.456 44.3a23.3 23.3 0 0 1 14.455-44.3z" fill="#006133"/><path d="M27.814 37.417A9.33 9.33 0 1 1 39.487 25.4a11.667 11.667 0 1 0-3.55 10.877 9.308 9.308 0 0 1-8.123 1.14zM35.956 24.468l-1.31 3.996 3.393 2.482-4.204-.013-1.312 4-1.288-4.007-4.205-.008 3.41-2.463-1.287-4.007 3.392 2.483 3.41-2.462z" fill="#d11133"/></svg>