<svg xmlns="http://www.w3.org/2000/svg" viewBox="0 0 55 55"><path d="M49.466 19.733H5.534a23.3 23.3 0 0 1 43.932 0z" fill="#cd1225"/><path d="M49.466 35.267a23.31 23.31 0 0 1-43.932 0z"/><path d="M50.8 27.5a23.14 23.14 0 0 1-1.334 7.767H5.534a23.278 23.278 0 0 1 0-15.534h43.932A23.14 23.14 0 0 1 50.8 27.5z" fill="#fff"/><path d="M24.783 33.473a.068.068 0 0 0-.062-.01l-.094.03a.057.057 0 0 0-.036.074.056.056 0 0 0 .063.042l-.048.166-.25-.068.1-.272a.07.07 0 0 0-.017-.063.068.068 0 0 0-.062-.015l-.09.026a.063.063 0 0 0-.042.078.057.057 0 0 0 .053.042l-.053.173-.172-.047.183-.612a.052.052 0 0 0-.026-.068.06.06 0 0 0-.074 0 .4.4 0 0 1-.215.02.068.068 0 0 0-.067.058.063.063 0 0 0 .058.068.977.977 0 0 0 .17.004l-.09.293a.33.33 0 0 0-.286.188.064.064 0 0 0 0 .048.063.063 0 0 0 .036.037l.21.068h.005v.005l.266.068a.1.1 0 0 0 .022.016h.026l.346.094h.015a.06.06 0 0 0 .062-.047l.09-.33a.07.07 0 0 0-.02-.067zm-.83.12l-.074-.026a.16.16 0 0 1 .093-.047zM26.05 33.316a.055.055 0 0 0-.085 0l-.047.042a.06.06 0 0 0-.016.042v.27a1.075 1.075 0 0 1-.1.467.078.078 0 0 1-.047.02.456.456 0 0 1 .01-.104.067.067 0 0 0 0-.03.13.13 0 0 0-.13-.074h-.016a.242.242 0 0 0-.038-.09l.147-.042a.086.086 0 0 0 .035-.047.08.08 0 0 0-.01-.057l-.094-.1-.1-.13a.072.072 0 0 0-.04-.027.048.048 0 0 0-.047.02l-.07.064a1.007 1.007 0 0 1-.15.09.055.055 0 0 0-.032.046.06.06 0 0 0 .017.052l.13.11a.2.2 0 0 1-.093.063.956.956 0 0 1-.225-.03.477.477 0 0 0-.038-.226.06.06 0 0 0-.11.053.31.31 0 0 1 .01.214.29.29 0 0 1-.208.132.063.063 0 0 0-.047.073.062.062 0 0 0 .062.047h.01a.39.39 0 0 0 .282-.173.92.92 0 0 0 .277.036.275.275 0 0 0 .177-.115.206.206 0 0 1 .03.058c0 .11.08.11.137.11h.006c-.01.08-.006.168.057.194a.145.145 0 0 0 .063.015.19.19 0 0 0 .13-.057 1.037 1.037 0 0 0 .137-.555v-.245l.026-.026a.055.055 0 0 0-.004-.088zm-.58.455l-.09-.072a.637.637 0 0 0 .104-.068l.02-.016.058.073v.005l.032.037zM26.22 34.085l.043-.57a.07.07 0 0 0 .063-.016.06.06 0 0 0 0-.09l-.068-.068a.05.05 0 0 0-.063-.016.052.052 0 0 0-.042.053l-.052.7a.06.06 0 0 0 .06.067.06.06 0 0 0 .06-.062zM28.036 34.147l-.063-.26a.055.055 0 0 0-.03-.038.064.064 0 0 0-.053 0 .4.4 0 0 0-.246.26h-.09l-.015-.162a.06.06 0 0 0-.058-.057l-.617-.025v-.073a.065.065 0 0 0-.027-.048.058.058 0 0 0-.057-.01l-.072.026a.06.06 0 0 0-.036.08.056.056 0 0 0 .067.035v.2h-.1a.462.462 0 0 0-.1-.194.06.06 0 1 0-.09.085c.02.026.094.126.07.2s-.122.115-.28.136a.06.06 0 0 0-.05.07.057.057 0 0 0 .056.05h.01c.21-.03.34-.1.377-.213 0-.005 0-.005.006-.01l.574.04a.232.232 0 0 0 .063.148.136.136 0 0 0 .1.04.243.243 0 0 0 .026 0 .194.194 0 0 0 .163-.187h.418a.052.052 0 0 0 .047-.02.077.077 0 0 0 .006-.07zm-.654.147h-.026a.183.183 0 0 1-.03-.11.057.057 0 0 0-.06-.063l-.4-.03v-.11l.555.026.022.168c-.002.01.008.11-.06.12zm.388-.188a.23.23 0 0 1 .1-.115l.03.116zM28.816 33.734a.06.06 0 0 0-.058 0c-.032.016-.068.032-.08.037a.058.058 0 0 0-.056.058.06.06 0 0 0 .062.063.106.106 0 0 0 .042-.01v.168l-.177.026-.075-.66a.06.06 0 0 0-.036-.05.083.083 0 0 0-.07.015l-.057.056a.055.055 0 0 0 0 .084.052.052 0 0 0 .057.02l.037.315a.32.32 0 0 0-.214.292v.006c-.006.01 0 .026.005.042s.02.03.068.03a2.192 2.192 0 0 0 .24-.02l.293-.042a.068.068 0 0 0 .052-.063v-.313a.06.06 0 0 0-.036-.053zm-.5.366a.17.17 0 0 1 .1-.115l.01.105a.994.994 0 0 1-.108.01zM29.06 33.78a.06.06 0 0 0-.083.012.066.066 0 0 0 .01.09s.163.13.116.255a.226.226 0 0 1-.188.14.06.06 0 0 0-.058.07.06.06 0 0 0 .063.057.342.342 0 0 0 .293-.225c.078-.21-.142-.388-.152-.4zM31.268 33.593l-.246.042a3.008 3.008 0 0 0-.167-.466.245.245 0 0 0-.19-.157.25.25 0 0 0-.192.052.06.06 0 0 0 0 .09.06.06 0 0 0 .084 0 .13.13 0 0 1 .094-.022.148.148 0 0 1 .095.083 3.624 3.624 0 0 1 .157.45l-.12.053a.006.006 0 0 0-.006-.007c-.225-.1-.25-.078-.272-.052a1.56 1.56 0 0 0-.1.137l-.063.02c-.02-.088-.077-.224-.192-.224a.5.5 0 0 0-.125.01 1.3 1.3 0 0 0-.038-.15.054.054 0 0 0-.073-.048.055.055 0 0 0-.042.073c.01.042.016.1.032.157a.105.105 0 0 0-.047.026c-.047.027-.1.085-.105.257l-.09.016c-.015-.152-.035-.183-.072-.194a.057.057 0 0 0-.058.005l-.21.157a.06.06 0 0 0-.025.062l.02.09a.066.066 0 0 0 .074.046l.156-.026a.2.2 0 0 1-.146.152.06.06 0 0 0 0 .12.328.328 0 0 0 .183-.1.3.3 0 0 0 .084-.194L30 34a.41.41 0 0 0 .068.146.132.132 0 0 0 .105.042.32.32 0 0 0 .1-.02c.026-.01.105-.048.105-.116v-.115l.052-.016a.026.026 0 0 0 .016.012.56.56 0 0 0 .266.047.163.163 0 0 0 .1-.137l.188-.077.293-.053a.064.064 0 0 0 .052-.073.062.062 0 0 0-.077-.047zm-1.836.377l.1-.074v.053zm.44-.074c0-.11.036-.13.047-.136l.01-.01.03.13zm.172-.177c.032 0 .068-.007.1-.007s.052.058.073.12l-.136.027c-.01-.042-.02-.09-.036-.14zm.21.312a.2.2 0 0 1-.08.032.03.03 0 0 1-.02-.005.377.377 0 0 1-.037-.085l.136-.02zm.412-.177a.39.39 0 0 1-.14-.027.39.39 0 0 0 .046-.062c.026.005.068.026.11.04a.08.08 0 0 1-.016.05zM28.25 33.54a.08.08 0 0 0-.073-.078.08.08 0 0 0-.078.08.08.08 0 0 0 .077.072.08.08 0 0 0 .073-.073zM23.88 33.305a.073.073 0 1 0-.075-.073.072.072 0 0 0 .074.073z" fill="#bf920d"/><circle cx="23.91" cy="33.849" r=".073" fill="#bf920d"/><circle cx="24.119" cy="33.917" r=".073" fill="#bf920d"/><circle cx="24.438" cy="34.006" r=".073" fill="#bf920d"/><path d="M28.277 33.74a.08.08 0 0 0-.074-.074.08.08 0 0 0-.078.073.08.08 0 0 0 .078.078.08.08 0 0 0 .074-.08zM28.428 34.283a.074.074 0 1 0 .074.074.076.076 0 0 0-.074-.074zM28.61 34.268a.073.073 0 1 0 0 .146.073.073 0 1 0 0-.146zM31.053 33.875a.08.08 0 0 0-.073.08.08.08 0 0 0 .073.072.08.08 0 0 0 .08-.073.08.08 0 0 0-.08-.08zM32.947 32.657v-.026c-.006-.114-.01-.224-.01-.34l-.032-.643c-.01-.287-.026-.575-.037-.863l-.2-4.456c-.01-.345-.026-.69-.04-1.04l-.08-1.73c-.016-.3-.188-.812-.59-.89a2.572 2.572 0 0 0-1.7.454c-.11.058-.215.115-.314.163a3.526 3.526 0 0 1-1.072.193 1.93 1.93 0 0 1-.168-.335 2.354 2.354 0 0 1-.13-.45 4.4 4.4 0 0 1-.042-1.014c0-.095.005-.18.005-.263a1.63 1.63 0 0 0-.162-.8.168.168 0 0 0-.02-.036.718.718 0 0 0-.467-.334c-.172-.03-.3-.063-.387-.08-.23-.05-.276-.067-.344-.03a.15.15 0 0 0-.083.08 1.558 1.558 0 0 0-.628-.07.4.4 0 0 0-.335.246.1.1 0 0 0-.01.026.052.052 0 0 0 0 .027.81.81 0 0 0-.016.33v.02h.005a.006.006 0 0 1 .005.006h.01c.005 0 .005.006.01.006h.032c.006 0 .006-.005.01-.005h.006a.005.005 0 0 1 .005-.005l.068-.026a.212.212 0 0 1 .063-.027.248.248 0 0 1 .135-.01.683.683 0 0 1 .382.48 1.4 1.4 0 0 1 .026.2 1.51 1.51 0 0 1-.037.48l-.01.054a4.564 4.564 0 0 1-.633 1.532 3.43 3.43 0 0 1-1.1-.194c-.1-.048-.2-.105-.313-.163a2.57 2.57 0 0 0-1.7-.455c-.408.08-.58.586-.6.89l-.074 1.73c-.015.35-.03.7-.047 1.04l-.194 4.457c-.01.288-.026.576-.037.863l-.032.644c0 .115 0 .225-.01.34v.026a.05.05 0 0 0 .01.052.053.053 0 0 0 .037.016.04.04 0 0 0 .03-.01l.634-.57c.072-.058.14-.126.22-.194l.035-.032.826-.742.007-.006.03-.03.42-.372c.1-.084.182-.168.277-.25a.127.127 0 0 0 .036-.038c.105-.09.2-.178.3-.267l-.564 2c-.09-.03-.19-.068-.283-.105a.24.24 0 0 0-.214.027v.005l-.007.005a.663.663 0 0 0-.434.262.43.43 0 0 0-.037.344.637.637 0 0 0-.042.162c-.1.01-.276.084-.438.382h-.126a.068.068 0 0 0-.068.062.073.073 0 0 0 .052.074l.1.03c.016.116.068.4.257.5 0 .022.01.058.015.095a.44.44 0 0 0 .282.412 16 16 0 0 0 3.708.424h.863a15.876 15.876 0 0 0 3.6-.424.446.446 0 0 0 .282-.413c0-.038.01-.074.016-.095a.694.694 0 0 0 .256-.5l.1-.03a.07.07 0 0 0-.022-.137h-.126c-.162-.3-.34-.372-.434-.382a.95.95 0 0 0-.042-.162.425.425 0 0 0-.036-.345.67.67 0 0 0-.44-.263v-.005s0-.005-.01-.005a.228.228 0 0 0-.21-.027c-.1.037-.193.074-.282.105l-.564-2c.11.1.224.2.34.3.078.073.156.146.235.214a.272.272 0 0 1 .04.036l.45.4.006.006.24.214.622.56c.074.068.147.136.215.193l.638.57a.067.067 0 0 0 .037.01.053.053 0 0 0 .037-.016.05.05 0 0 0 .013-.047zm-5.54-12.207a.1.1 0 1 1 0 .21.1.1 0 0 1 0-.21zm-1.2 3.138c.027-.03.053-.068.074-.1s.048-.068.07-.105.04-.068.062-.105c.01-.015.02-.036.03-.052s.017-.037.027-.052c.02-.042.036-.08.057-.115a.186.186 0 0 1 .016-.038l.03-.063c.01-.027.017-.048.027-.07s.006-.025.01-.036c.01-.026.022-.052.032-.083a.22.22 0 0 0 .022-.046.75.75 0 0 1 .03-.074c.016-.057.037-.115.053-.162a.132.132 0 0 0 .01-.036c0-.02.01-.037.016-.053a.152.152 0 0 0 .01-.048c.047-.15.084-.282.11-.376l.01-.052a1.732 1.732 0 0 0 .037-.513 1.516 1.516 0 0 0-.026-.22.184.184 0 0 1-.01-.05c.052-.048.157-.022.32-.022-.346-.518-.55-.565-.728-.607a.24.24 0 0 0-.267.143.408.408 0 0 1-.043.02.03.03 0 0 0-.02.01.832.832 0 0 1 .005-.166l.01-.047v-.02a.31.31 0 0 1 .03-.052.266.266 0 0 1 .138-.063.965.965 0 0 1 .214-.016.214.214 0 0 1 .152.05 1.836 1.836 0 0 0 .287.216.534.534 0 0 0 .24.1c.022 0 .048.047.063.063a.133.133 0 0 0 .09.04.14.14 0 0 0 .14-.078c.017-.03.074-.052.105-.068a1.137 1.137 0 0 1 .174-.052.943.943 0 0 1 .21-.03.29.29 0 0 1 .224.06.17.17 0 0 1 .02.028.762.762 0 0 1 .048.1 1.575 1.575 0 0 1 .052.168 2.01 2.01 0 0 1 .052.44v.056c0 .08-.005.163-.005.257a4.3 4.3 0 0 0 .047 1.036 2.294 2.294 0 0 0 .282.774c.02.037.037.074.058.105s.052.073.073.1a.774.774 0 0 1-.334-.09.415.415 0 0 1-.12-.077c-.005 0-.005-.01-.01-.02-.016-.038-.032-.08-.047-.12-.053-.137-.115-.284-.162-.425a5.632 5.632 0 0 1-.14-.988.052.052 0 0 0-.053-.053.05.05 0 0 0-.047.058 4.88 4.88 0 0 0 .146 1.01 3.73 3.73 0 0 0 .163.44l.03.082s.026.073.042.105c.03.09.057.167.073.23a1.31 1.31 0 0 1-.48-.225.533.533 0 0 1-.1-.09v-.015a11.713 11.713 0 0 1-.085-1.584.05.05 0 0 0-.052-.053.053.053 0 0 0-.053.053 13.314 13.314 0 0 0 .08 1.584v.027a.536.536 0 0 1-.06.078c-.025.03-.066.073-.13.136a.723.723 0 0 1-.062.068.305.305 0 0 0-.042-.03 1.33 1.33 0 0 1-.166-.174l-.083-.105a3.33 3.33 0 0 0 .33-1.616.053.053 0 1 0-.105 0 2.948 2.948 0 0 1-.356 1.622.687.687 0 0 1-.09.105 1.147 1.147 0 0 1-.292.22c.01-.063.026-.14.042-.225 0-.032.015-.068.02-.105 0-.01.006-.02.006-.03a3.428 3.428 0 0 0 .5-1.534.05.05 0 0 0-.042-.062.055.055 0 0 0-.058.048 2.913 2.913 0 0 1-.56 1.574.71.71 0 0 1-.12.105.673.673 0 0 1-.193.094 1.3 1.3 0 0 1-.173.032 1.23 1.23 0 0 0 .12-.144zm-.73 6.422l.23.6a.036.036 0 0 0 .03.02.03.03 0 0 0 .037-.015l.376-.513.19.952c-.19.277-.35.513-.43.617-.037-.108-.11-.328-.225-.647a.05.05 0 0 0-.03-.026.04.04 0 0 0-.038.02l-.4.6-.308-1.045zm4.057 2.438l-.32-.448a.05.05 0 0 0-.038-.016.033.033 0 0 0-.03.027l-.19.487c-.13.005-.245.005-.35 0l-.125-.575.152-.764c.445.638.445.638.48.628a.038.038 0 0 0 .027-.037c.005-.038.125-.383.22-.634l.39.586zm.272-.66l.376.555a5.1 5.1 0 0 1-.57.1zm-.356.68c-.146.016-.287.027-.413.032l.152-.392zm-1.57.137a.3.3 0 0 0-.26.11.287.287 0 0 0-.052.135h-.147a.273.273 0 0 0-.046-.136.305.305 0 0 0-.267-.11.28.28 0 0 0-.214-.115 1.28 1.28 0 0 0-.246 0c-.052.005-.11.005-.178.01l.088-.418.183.287a.033.033 0 0 0 .054.01l.293-.262c0-.005.01-.01.01-.016l.225-1.767-.11 1.778v.026l.25.3a.04.04 0 0 0 .06 0l.25-.3v-.027l-.11-1.778.238 1.765c0 .006.005.01.01.016l.293.262a.034.034 0 0 0 .053-.01l.177-.288.09.418c-.063-.005-.12-.005-.178-.01a1.236 1.236 0 0 0-.24 0 .31.31 0 0 0-.22.112zm.048.25h.006a.1.1 0 0 0 .026.042.206.206 0 0 0 .063.074.17.17 0 0 0-.003.03c-.015.057-.073.09-.136.125a.24.24 0 0 0-.057.042.207.207 0 0 0-.1.1 1.475 1.475 0 0 1-.078-.277.67.67 0 0 1 0-.142.175.175 0 0 1 .036-.09.206.206 0 0 1 .172-.077.122.122 0 0 0 .026.1.538.538 0 0 1 .047.076zm-.58.137a1.574 1.574 0 0 1-.078.277.23.23 0 0 0-.1-.1.46.46 0 0 0-.063-.043c-.057-.036-.115-.068-.13-.125a.052.052 0 0 1-.006-.026.292.292 0 0 0 .065-.074.113.113 0 0 0 .025-.04h.006a.677.677 0 0 1 .04-.07.12.12 0 0 0 .033-.1.212.212 0 0 1 .17.08.25.25 0 0 1 .04.088.836.836 0 0 1 .002.132zm-1.5-.978a.033.033 0 0 0-.03-.027.05.05 0 0 0-.037.016l-.323.445-.22-.743.4-.586c.09.25.21.6.214.632a.06.06 0 0 0 .033.037c.03.01.036.01.48-.63l.152.765-.125.575c-.1.005-.225.005-.35 0zm.106.486c-.125-.005-.272-.016-.418-.03l.266-.362zm-.575-.052a5.1 5.1 0 0 1-.57-.1l.375-.554zm1.04-1.38a.01.01 0 0 0 .01-.012c.146-.21.293-.418.387-.56l-.267 1.235zm.392-2c.083.082.167.166.256.245l-.183.857-.272-.857zm-.576.58l-.057-.566c.12-.115.24-.22.354-.32.074.085.147.17.225.247zm2.14-.335l-.273.857-.182-.857c.09-.08.173-.163.25-.246zm-.147-.3c.077-.083.15-.167.224-.25.115.1.23.2.356.318l-.058.566zm-.053 1.487c.094.14.24.35.387.56a.01.01 0 0 0 .01.01l-.135.664zm.42.47c-.158-.224-.315-.46-.456-.658l.3-.93.315.386a.035.035 0 0 0 .036.01.05.05 0 0 0 .033-.03l.062-.6c.25.23.53.475.81.726a.758.758 0 0 0 .1.09c.033.025.065.057.095.083l.032.03a.3.3 0 0 0 .047.038l.083.314-.523-.51a.033.033 0 0 0-.036-.01.034.034 0 0 0-.027.022l-.225.586-.392-.53a.026.026 0 0 0-.036-.014.045.045 0 0 0-.032.03zm1.27-1.087c-.032-.032-.063-.058-.095-.09-.015 0-.026-.02-.042-.03l-.125-3.092a7.128 7.128 0 0 0 .183-.814l.167 4.11-.09-.086zm-.273-3.463a5.693 5.693 0 0 1-1.73 2.84v.006a.3.3 0 0 1-.042.036c-.016.016-.032.026-.042.037a.956.956 0 0 1-.08.067c-.067.057-.135.11-.2.167-.067-.057-.135-.11-.2-.167-.025-.02-.05-.042-.078-.068-.01-.012-.025-.022-.042-.038a.3.3 0 0 1-.04-.036c-.007 0-.007 0-.007-.006a5.85 5.85 0 0 1-.533-.55 5.632 5.632 0 0 1-1.192-2.29 6.01 6.01 0 0 1-.173-1.072l.02-.476a4.012 4.012 0 0 0 2.192-.617.235.235 0 0 0 .052-.042c.015.01.03.026.052.042a4.036 4.036 0 0 0 2.2.617l.02.476a6.4 6.4 0 0 1-.178 1.07zm-4.2.25l-.13 3.092a.173.173 0 0 1-.037.032c-.032.03-.063.057-.094.09s-.063.056-.09.082l.168-4.11a6.2 6.2 0 0 0 .19.812zm-.324 3.406l.037-.03c.03-.027.062-.06.094-.085s.063-.056.095-.088l.816-.727.063.6a.034.034 0 0 0 .027.03.04.04 0 0 0 .04-.01l.315-.386.3.93c-.14.2-.3.434-.455.66l-.19-.97a.032.032 0 0 0-.025-.03.026.026 0 0 0-.036.014l-.394.53-.225-.587a.034.034 0 0 0-.025-.02.032.032 0 0 0-.036.01l-.53.507.09-.314a.15.15 0 0 0 .04-.037zm-.2.623l.293.992-.423.633c-.1-.026-.2-.052-.3-.09zm-.978 1.515l.01-.01.01-.01a.138.138 0 0 1 .142-.016 3.022 3.022 0 0 0 .288.1 5.746 5.746 0 0 0 1.056.25c.147.016.293.032.43.037.056.005.11.01.167.01h.465c.073-.005.14-.005.2-.01a1.778 1.778 0 0 1 .23 0 .2.2 0 0 1 .173.1c.016.037.01.068 0 .073a.418.418 0 0 0-.057.084.2.2 0 0 0-.027.037.2.2 0 0 1-.063.058.274.274 0 0 1-.115.042c-.2.016-.424.016-.654.01-.173-.005-.35-.02-.54-.04a.005.005 0 0 0 .007-.006.322.322 0 0 0 .01-.142.34.34 0 0 0-.13-.2.038.038 0 0 1-.02-.01.18.18 0 0 0-.08-.03h-.02a.22.22 0 0 0-.058.01h-.006a.26.26 0 0 0-.17.172.065.065 0 0 0-.012.03.41.41 0 0 0-.01.106v.01c-.157-.026-.3-.057-.44-.084a5.89 5.89 0 0 1-.773-.2c0-.005-.006-.01-.01-.02v-.01c0-.027-.017-.06-.022-.1s-.01-.11-.01-.163a.11.11 0 0 1 .026-.08zm1.642.7a.473.473 0 0 1-.047.11.594.594 0 0 0-.042.047.61.61 0 0 0-.1.12.587.587 0 0 0-.047-.078.493.493 0 0 1-.105-.246.22.22 0 0 1 .01-.1.1.1 0 0 1 .01-.042.183.183 0 0 1 .12-.11.083.083 0 0 1 .038 0 .13.13 0 0 1 .06.016.23.23 0 0 1 .108.14.252.252 0 0 1-.007.14zm-2.05-.476a.563.563 0 0 1 .3-.2.242.242 0 0 0-.01.052c0 .04 0 .094.01.14a1.03 1.03 0 0 0 .022.12c-.015.006-.036.01-.052.017a.78.78 0 0 0-.12.05.547.547 0 0 0-.178.116.418.418 0 0 1-.016-.11.313.313 0 0 1 .042-.19zm7.735-.2a.588.588 0 0 1 .3.2.32.32 0 0 1 .04.182.418.418 0 0 1-.015.11.69.69 0 0 0-.178-.115.78.78 0 0 0-.12-.052c-.016-.006-.037-.01-.052-.016a1.03 1.03 0 0 0 .02-.12c0-.048.01-.1.01-.142a.242.242 0 0 0-.01-.055zm-.054.38a.8.8 0 0 1 .314.163.63.63 0 0 1 .052.21.075.075 0 0 0 .026.046.07.07 0 0 0 .053.01s.2-.02.383.345a.053.053 0 0 0 .016.02c-.012.11-.065.372-.2.425a.064.064 0 0 0-.037.036.428.428 0 0 0-.037.162c-.02.12-.036.236-.2.3a16.045 16.045 0 0 1-3.66.414h-.754a16.03 16.03 0 0 1-3.656-.414c-.162-.062-.177-.177-.2-.3a.55.55 0 0 0-.037-.162.083.083 0 0 0-.037-.036c-.136-.053-.19-.314-.2-.424a.08.08 0 0 0 .016-.02c.182-.367.375-.346.375-.346a.062.062 0 0 0 .052-.01.077.077 0 0 0 .032-.048.847.847 0 0 1 .046-.21.846.846 0 0 1 .314-.16s.01.015.016.015a5.88 5.88 0 0 0 1.275.314.69.69 0 0 0 .106.215.242.242 0 0 1 .068.152.044.044 0 0 0 .036.04h.006a.044.044 0 0 0 .036-.03.428.428 0 0 1 .12-.193.185.185 0 0 0 .053-.063.26.26 0 0 0 .026-.052 6.967 6.967 0 0 0 .8.042c.153 0 .294-.005.435-.01a.823.823 0 0 0 .094-.026.34.34 0 0 0 .172.177l.057.033a.2.2 0 0 1 .078.1.61.61 0 0 1 .03.058.035.035 0 0 0 .033.022.034.034 0 0 0 .032-.027 1.21 1.21 0 0 0 .115-.38h.147a1.394 1.394 0 0 0 .12.38c.005.016.016.027.027.027a.03.03 0 0 0 .033-.02.627.627 0 0 0 .036-.06.207.207 0 0 1 .078-.1.43.43 0 0 1 .058-.03.342.342 0 0 0 .172-.178.823.823 0 0 0 .094.026c.136 0 .282.01.434.01a6.894 6.894 0 0 0 .79-.042l.03.053a.2.2 0 0 0 .06.064.466.466 0 0 1 .12.193.044.044 0 0 0 .035.03h.007a.044.044 0 0 0 .037-.04c-.01-.047.02-.095.062-.152a.6.6 0 0 0 .11-.214 6 6 0 0 0 1.276-.313c.016-.006.016-.017.02-.022zm-1.705.158a.283.283 0 0 1 .11-.14.134.134 0 0 1 .064-.017.083.083 0 0 1 .037 0 .183.183 0 0 1 .12.11.1.1 0 0 1 .01.043.323.323 0 0 1 .012.1.5.5 0 0 1-.1.246.6.6 0 0 0-.048.078.858.858 0 0 0-.1-.12c-.016-.022-.037-.037-.042-.048a.52.52 0 0 1-.047-.11.266.266 0 0 1-.017-.148zm1.2-.492a2.188 2.188 0 0 0 .294-.1.138.138 0 0 1 .14.015l.012.012.01.01a.14.14 0 0 1 .037.074.848.848 0 0 1-.016.162l-.015.1-.006.01c0 .01-.01.016-.01.02a5.983 5.983 0 0 1-.774.2c-.136.028-.283.06-.44.085v-.01a.916.916 0 0 0-.01-.105.065.065 0 0 0-.01-.03.26.26 0 0 0-.173-.174.235.235 0 0 0-.06-.01h-.025a.176.176 0 0 0-.073.03.045.045 0 0 1-.02.01.307.307 0 0 0-.132.2.34.34 0 0 0 .01.143v.005c-.183.02-.36.036-.533.042-.23.005-.455.005-.66-.01a.285.285 0 0 1-.11-.043.2.2 0 0 1-.06-.056h-.007a.075.075 0 0 0-.03-.045.35.35 0 0 0-.057-.085c-.01-.005-.015-.036 0-.073a.2.2 0 0 1 .172-.1 1.778 1.778 0 0 1 .23 0c.058.005.126.005.194.01h.47c.052 0 .11-.005.167-.01.136 0 .277-.02.43-.037a5.682 5.682 0 0 0 1.05-.245zm-.093-.047a3.06 3.06 0 0 1-.3.088l-.424-.633.293-.993zm-.47-1.67l-.31 1.047-.4-.6a.04.04 0 0 0-.036-.02.05.05 0 0 0-.03.025c-.115.32-.193.54-.225.648-.078-.1-.246-.34-.434-.617l.19-.952.38.514a.03.03 0 0 0 .038.016.036.036 0 0 0 .03-.02l.23-.6zm2.164 1.465c-.05-.052-.114-.1-.177-.162l-.03-.03L31.7 23.5a6.507 6.507 0 0 1-.544.508l.3 7.295-.235-.214-.036-.038-.288-6.84a4.844 4.844 0 0 1-.423.287l.256 6.145c-.08-.074-.163-.142-.242-.215a.2.2 0 0 0-.036-.03l-.24-5.754c-.11.057-.226.115-.35.167a.036.036 0 0 0-.032-.02 3.965 3.965 0 0 1-2.275-.644c-.016-.012-.02-.022-.026-.022a.04.04 0 0 0-.05 0s-.01.01-.03.02a3.906 3.906 0 0 1-2.27.644.036.036 0 0 0-.03.02c-.126-.05-.24-.11-.35-.166l-.247 5.754a.24.24 0 0 0-.036.03c-.08.074-.163.142-.24.216l.255-6.146a4.844 4.844 0 0 1-.423-.287l-.29 6.84-.036.037-.235.214.3-7.295a4.952 4.952 0 0 1-.55-.51l-.35 8.332-.037.03c-.057.06-.12.11-.177.163l.366-8.682a3.023 3.023 0 0 0-.555.278l.006-.062c.01-.293.177-.732.5-.79a1.61 1.61 0 0 1 .27-.026 2.92 2.92 0 0 1 1.366.47c.11.058.214.11.318.163a3.4 3.4 0 0 0 1.072.2 1.038 1.038 0 0 1-.162.177.067.067 0 0 0 0 .068.055.055 0 0 0 .047.027l.01-.006c.027 0 .063-.01.1-.014a.83.83 0 0 0 .535-.21 2.9 2.9 0 0 0-.047.3.055.055 0 0 0 .026.048.052.052 0 0 0 .025.01h.02a1.264 1.264 0 0 0 .477-.36l.015-.017c.006.006.006.01.01.016a1.355 1.355 0 0 0 .3.3.27.27 0 0 1 .038.016.018.018 0 0 0 .015 0 .057.057 0 0 0 .042-.017l.01-.015a2.48 2.48 0 0 0 .252-.272 1.3 1.3 0 0 0 .68.32.057.057 0 0 0 .052-.06.655.655 0 0 0-.047-.2 1.1 1.1 0 0 0 .5.11.053.053 0 0 0 .046-.025.06.06 0 0 0 0-.057l-.005-.01a1.332 1.332 0 0 1-.09-.12c.21-.02.42-.042.6-.074a2.037 2.037 0 0 0 .45-.13c.1-.054.2-.106.32-.163a2.9 2.9 0 0 1 1.365-.47 1.5 1.5 0 0 1 .266.025c.33.058.5.5.508.79l.006.063a3.023 3.023 0 0 0-.555-.278zM23.973 32.36a1.183 1.183 0 0 1 .35.124.033.033 0 0 0 .02 0c.017 0 .028 0 .032-.015a.035.035 0 0 0 0-.053 1.19 1.19 0 0 0-.383-.136.032.032 0 0 0-.04.032.032.032 0 0 0 .02.047zM24.6 32.552a2.015 2.015 0 0 1 .387.1c.005 0 .01.005.016.005a.052.052 0 0 0 .037-.02.04.04 0 0 0-.016-.053 2.417 2.417 0 0 0-.408-.115.045.045 0 0 0-.047.03.046.046 0 0 0 .03.052zM25.73 32.782a.208.208 0 0 1 .042 0 1.086 1.086 0 0 1 .366 0 .018.018 0 0 0 .01 0 .044.044 0 0 0 .037-.03.067.067 0 0 0 0-.032.1.1 0 0 0-.027-.016 1.09 1.09 0 0 0-.146-.02 2.2 2.2 0 0 0-.246.015.093.093 0 0 1-.03.004.036.036 0 0 0-.038.037.04.04 0 0 0 .032.042zM26.4 32.82h.006a3.765 3.765 0 0 1 .408-.038.04.04 0 0 0 .036-.04.036.036 0 0 0-.036-.038 3.043 3.043 0 0 0-.4.037.06.06 0 0 0-.02.006.03.03 0 0 0-.027.015.044.044 0 0 0-.005.028.034.034 0 0 0 .038.03zM30.65 32.49a.05.05 0 0 0 .027 0 1.218 1.218 0 0 1 .345-.126c.02-.005.037-.02.03-.042s-.02-.037-.04-.03a1.143 1.143 0 0 0-.382.135.04.04 0 0 0-.01.052.047.047 0 0 0 .03.01zM30 32.662s.01-.005.016-.005a2.015 2.015 0 0 1 .387-.1.04.04 0 0 0-.015-.078 2.277 2.277 0 0 0-.41.114.036.036 0 0 0-.015.052.044.044 0 0 0 .037.016zM29.27 32.7a.093.093 0 0 1-.03-.005 2.182 2.182 0 0 0-.24-.012h-.005a1.185 1.185 0 0 0-.152.02c-.005.006-.015.01-.02.017a.083.083 0 0 0 0 .03.04.04 0 0 0 .035.032h.01a1.086 1.086 0 0 1 .366 0h.042a.04.04 0 0 0 .037-.04.036.036 0 0 0-.043-.042zM28.6 32.746a.07.07 0 0 0-.026-.005 2.953 2.953 0 0 0-.393-.036.036.036 0 0 0-.035.037.04.04 0 0 0 .036.042 3.914 3.914 0 0 1 .41.037h.01a.037.037 0 0 0 .036-.032.044.044 0 0 0-.005-.027.03.03 0 0 0-.03-.014zM29.61 25c-.026 0-.047-.005-.073-.005a.816.816 0 0 1-.115-.01 4.525 4.525 0 0 1-1.11-.22 1.2 1.2 0 0 1-.17-.058 3 3 0 0 1-.592-.293.17.17 0 0 1-.026-.02.08.08 0 0 0-.048 0 .085.085 0 0 1-.03.02 2.984 2.984 0 0 1-.76.35 4.51 4.51 0 0 1-1.113.22.745.745 0 0 1-.11.01c-.026 0-.052.006-.078.006s-.032.02-.032.042a6.5 6.5 0 0 0 .074.842 5.468 5.468 0 0 0 1.245 2.7.13.13 0 0 0 .025.036c.08.094.168.19.25.277s.143.142.216.21a4.066 4.066 0 0 0 .313.272.022.022 0 0 0 .02.01c.012 0 .022 0 .028-.01.11-.085.21-.18.313-.268a6.714 6.714 0 0 0 .466-.492.163.163 0 0 0 .026-.036 5.44 5.44 0 0 0 .96-1.637 5.538 5.538 0 0 0 .278-1.067 5.73 5.73 0 0 0 .08-.842.04.04 0 0 0-.038-.038zm-1.31 3.5a.2.2 0 0 1-.032.037c-.01.01-.015.02-.026.03-.1.126-.22.247-.34.367a1.155 1.155 0 0 1-.09.084c-.1.1-.208.193-.318.282-.1-.09-.214-.183-.313-.277-.062-.058-.12-.12-.177-.178-.09-.094-.173-.183-.25-.277-.012-.01-.017-.02-.027-.03a.244.244 0 0 1-.026-.038v-3.662c.006 0 .01-.005.016-.005a3.59 3.59 0 0 0 .732-.33.39.39 0 0 0 .052-.036.486.486 0 0 1 .053.036 3.808 3.808 0 0 0 .564.272c.058.02.116.042.173.058.006 0 .01.005.016.005z" fill="#bf920d"/></svg>