<svg xmlns="http://www.w3.org/2000/svg" viewBox="0 0 55 55"><path d="M50.8 27.5L13.53 8.865A23.3 23.3 0 0 1 50.8 27.5z" fill="#0bac2f"/><path d="M50.8 27.5a23.288 23.288 0 0 1-37.27 18.635z" fill="#4289db"/><path d="M50.8 27.5L13.53 46.135a23.517 23.517 0 0 1-6.208-6.982 23.3 23.3 0 0 1 0-23.3 23.59 23.59 0 0 1 6.208-6.988z" fill="#e90736"/><path d="M21.083 37.7a1.734 1.734 0 0 0-1.726-1.512 15.862 15.862 0 0 0 5.466-.732 9.17 9.17 0 0 0 1.924-.853 4.885 4.885 0 0 0 .43-.3c.056-.047.37-.256.365-.335a3.624 3.624 0 0 0-1.574-.172c4.335-2.458 4.09-4.278 4.09-5.052a5.59 5.59 0 0 1-2.3 2.447c2.725-3.754 2.108-4.586 1.554-5.626-.278 1.13-.424 1.333-.822 1.726 1.318-4.362.173-5.822-.235-6.23.2 1.554-.047 1.993-.235 2.333a9.617 9.617 0 0 0-.7-3.467c-.4-.78-.638-.78-1.1-.88a2.454 2.454 0 0 1 .455.937 4.75 4.75 0 0 1 .168 1.7 4.9 4.9 0 0 0-.607-1.02 6.3 6.3 0 0 0-.88-.842 8.093 8.093 0 0 1-.82-1.155 11.438 11.438 0 0 0-.878-.926 9.325 9.325 0 0 0-1.512-1.115 3.472 3.472 0 0 0 .262 1.114 4.1 4.1 0 0 0 1.17 1.5c-.428-.043-.977-.613-1.432-1.068s-.664-.193-1.454 0a1.75 1.75 0 0 1-1.01.047c.158.292.163.25.5.585-.2.1-.522 0-.936-.146.335.81 1.507 1.02 2.072 1.02s.79-.08 1.3-.08.465.08 1.376.518a3.214 3.214 0 0 1-1.543-.052 2.362 2.362 0 0 0 2.015.81c.68 0 .67-.418 1.04-.193a9.3 9.3 0 0 1 1.318 1.992c-.35.157-.858-.3-1.083-.79a1.642 1.642 0 0 0-.674-.862c-.074-.042-.084.55-.084.57a3.35 3.35 0 0 0 .1.68 3.11 3.11 0 0 0 .576 1.224c.272.32.654.517.947.81a4.822 4.822 0 0 0 .345 1.878c.167.44.533.905.664 1.307a3.7 3.7 0 0 1 .084 1.177 4.26 4.26 0 0 1-.738-.984 2.985 2.985 0 0 1-.235-1.5c0 .026-.277.26-.314.308a1.7 1.7 0 0 0-.214.36 1.6 1.6 0 0 0-.015.927c.084.32.226.623.288.953a1.2 1.2 0 0 1-.094.8 1.97 1.97 0 0 0-.235.607 6.085 6.085 0 0 0-.12 1.014c0 .34-.545.848-.545.848a3.877 3.877 0 0 0 0-1.073c0 .057-.2.245-.23.287-.13.162-.26.293-.4.44a3.483 3.483 0 0 0-.7 1.05 8.124 8.124 0 0 1-.418.984 2.017 2.017 0 0 1-1.5.76 7.45 7.45 0 0 0-1.993.72 2.585 2.585 0 0 1-.7.22 3.246 3.246 0 0 1 .272-1.746 1.224 1.224 0 0 1 .523-.5c2.384-.44 2.034-1.8 1.856-2.108-.262.508-.44.53-1.036.77 1.33-1.172 1.156-2.01.952-2.344-.12.554-.685.92-1.156 1.24.42-1.2 0-1.073-.2-1.026-.706.4-1.014 1.768-1.2 2.58a22.664 22.664 0 0 0-.632-2.9c-.12-.68.554-.895.9-.895 2.558.744 2.58-.873 2.537-1.26a1.9 1.9 0 0 1-1.882.46c1.7-1.553.8-2.264.533-2.52a2.4 2.4 0 0 1-1.3 1.785 4.015 4.015 0 0 1-.058-1.794 5.23 5.23 0 0 0-.852 2.072c.09-2.71.55-2.51.878-2.51 2.207.632 2.563-.764 2.51-1.125-.78.586-.867.408-1.25.408 1.538-.905 1.293-1.726 1.136-2.118-.518.763-.633.685-1.135.82a1.786 1.786 0 0 1 .715-1.3c-1.312-.34-1.595.853-1.877 1.486-.068-.518-.178-.89-.3-1.532.9-1.532-.157-1.97-.554-2.1a1.655 1.655 0 0 0 .026 1.25c-1.13-.58-1.626-.307-1.935 0 .586.63.92.535 1.778.362-.25.544-.78.5-1.432.314a1.448 1.448 0 0 0 1.642.826 3.074 3.074 0 0 1 .2 1.292c0 .486-.842 1.465-.842 1.465a5.12 5.12 0 0 0-.166-1.372c-.163-.376-.613-1.025-.948-.78s.068.822.3 1.32c-.644-.294-.984-1.24-1.208-1.67a3.56 3.56 0 0 0 .465 2.532c-.246.246-.7-.387-.858-.55a2.092 2.092 0 0 0 .994 1.952c.355.224 1.19-.084 1.19-.084s-.02 1.83.054 3.473a4.408 4.408 0 0 0-2.024-1.835c-.073.528.188.81.69 1.658a8.272 8.272 0 0 1-1.537-.82c0 .73.847 1.447 1.783 2.023a3.522 3.522 0 0 1-1.783-.748c.083 2.782 3.263 1.626 3.263 1.626l.282 3.876c-.825-.183-1.464-.413-2.024-.492-1.82-.366-3.21-3.56-3.21-3.56a3.347 3.347 0 0 1-.173.616 6.7 6.7 0 0 0-1.072-2.024 10.238 10.238 0 0 1-.015 1.537c-.733-1.318-.147-1.856.09-2.693a4.335 4.335 0 0 0-.54-2.317 13.253 13.253 0 0 1-.617 1.935 5.308 5.308 0 0 1 .674-2.8A1.97 1.97 0 0 0 12 24.4c-.225.225-.277.538-.612 1.01 0-1.366 1.292-1.94 1.742-2.39a1.482 1.482 0 0 0 .44-1.83 12.748 12.748 0 0 0-1.44 1.683c0-.424.22-.733.69-1.465s1.35-.92 2.653-1.072 1.05-.277 1.37-.59a4.292 4.292 0 0 1-1.427.114s-.19-.418 1.574-.5 1.736-.49 1.872-.774a6.125 6.125 0 0 1-2.244.02A16.235 16.235 0 0 0 20 17.39c-1.24-.857-3.87.68-4.634 1.1a4.79 4.79 0 0 0 1.234-1.544 2.9 2.9 0 0 0-1.836 1.12 9.764 9.764 0 0 0-1.433 1.9 1.773 1.773 0 0 1-.522.57 3.48 3.48 0 0 0-.858.977 16.606 16.606 0 0 0 .607-2.892c-1.27.565-1.543 2.244-1.543 3.358a9.724 9.724 0 0 1-.256 2.58c0-2.167-.178-2.5-.528-3.124-.958 1.95-.294 4.765.015 6.188a5.582 5.582 0 0 1-.93-1.972c-.88 2.038 1.085 4.58 1.993 5.75a8.385 8.385 0 0 1-2.6-2.532 3.76 3.76 0 0 0 1.23 2.757 16.212 16.212 0 0 0 2.918 2.075c-1.9-.957-2.4-.46-2.647-.21.052-.052.444.095.507.116a6.184 6.184 0 0 1 .648.25 12.745 12.745 0 0 1 1.22.555c.506.273.893.707 1.41.963a5.23 5.23 0 0 0 .864.325 14.69 14.69 0 0 0 3.017.43c.36.02.727.035 1.093.046A1.773 1.773 0 0 0 17.1 37.7z" fill="#fec62d"/></svg>