<svg xmlns="http://www.w3.org/2000/svg" viewBox="0 0 55 55"><path d="M49.466 19.735H5.533a23.3 23.3 0 0 1 43.933 0z" fill="#028832"/><path d="M49.466 35.265a23.3 23.3 0 0 1-43.933 0z" fill="#d9131a"/><path d="M50.8 27.5a23.134 23.134 0 0 1-1.334 7.762H5.533a23.283 23.283 0 0 1 0-15.53h43.933A23.143 23.143 0 0 1 50.8 27.5z" fill="#fbdc1d"/><path d="M43.043 27.5A15.547 15.547 0 1 1 27.5 11.952 15.547 15.547 0 0 1 43.043 27.5z" fill="#1447ad"/><path fill="#fbdc1d" d="M23.885 29.804l.3.215 2.05 1.49.966-.702-2.65-1.924-.298-.215-.962-.707-3.803-2.762h-1.93l5.36 3.898-2.83 8.71 1.565-1.136.596-1.836 1.637-5.032zM32.745 34.836l-4.283-3.112.298-.215 2.05-1.49-.366-1.136-2.652 1.924-.293.215-.968.7-3.802 2.763-.597 1.836 5.366-3.897 7.405 5.382-.596-1.836-1.565-1.134zM31.71 27.963l-.115-.345-.785-2.412h-1.198l1.015 3.113.115.35.366 1.134 1.454 4.467 1.564 1.136-2.05-6.308 7.406-5.377h-1.93l-1.564 1.136-4.278 3.107zM29.13 23.72H26.23l-.368 1.136H35.392l1.563-1.135H30.33l-2.83-8.713-.6 1.84.6 1.837 1.63 5.037zM20.052 24.856H24.3l-.116.35-.785 2.412.967.7 1.015-3.112.11-.35.37-1.135 1.45-4.47-.597-1.837-2.045 6.308h-9.158l1.564 1.136h2.976zM27.222 33.288h.55v6.706h-.55zM34.565 17.423l.445.324-3.944 5.425-.444-.325 3.943-5.424zM19.984 17.747l.45-.324 3.938 5.424-.445.325-3.943-5.425zM39.408 31.185l-.172.528-6.375-2.07.168-.53 6.38 2.072zM15.758 31.713l-.167-.528 6.376-2.07.167.527-6.375 2.07z"/></svg>