<svg xmlns="http://www.w3.org/2000/svg" viewBox="0 0 55 55" enable-background="new 0 0 55 55"><style type="text/css">.st0{fill:#E0E1E2;} .st1{fill:#343434;} .st2{fill:#8C8C8C;} .st3{fill:#3C3C3B;} .st4{fill:#141414;} .st5{fill:#393939;}</style><g id="Ethereum_x5F_55"><path class="st0" d="M27.5 4.2C14.7 4.2 4.2 14.6 4.2 27.5s10.4 23.3 23.3 23.4 23.3-10.4 23.4-23.3C50.8 14.7 40.4 4.2 27.5 4.2z"/><path class="st1" d="M28.2 7.8l-.3.9v25.5l.3.2L40 27.5z"/><path class="st2" d="M28.2 7.8L16.3 27.5l11.9 6.9z"/><path class="st3" d="M28.2 36.7l-.2.2v9l.2.5L40 29.7z"/><path class="st2" d="M28.2 46.4v-9.7l-11.9-7z"/><path class="st4" d="M28.2 34.4L40 27.5l-11.8-5.4z"/><path class="st5" d="M16.3 27.5l11.8 7V22.1l-11.8 5.4z"/></g></svg>