<svg xmlns="http://www.w3.org/2000/svg" xmlns:xlink="http://www.w3.org/1999/xlink" viewBox="0 0 55 55"><defs><filter x="27.372" y="-8429" width="14.269" height="32766" filterUnits="userSpaceOnUse" color-interpolation-filters="sRGB"><feFlood flood-color="#fff" result="bg"/><feBlend in="SourceGraphic" in2="bg"/></filter><linearGradient id="a" x1="35.744" y1="440.557" x2="33.467" y2="441.902" gradientTransform="matrix(1 0 0 -1 0 476)" gradientUnits="userSpaceOnUse"><stop offset="0" stop-color="#fefefe"/><stop offset="1" stop-color="#fff"/></linearGradient><filter x="40.114" y="-8429" width="12.207" height="32766" filterUnits="userSpaceOnUse" color-interpolation-filters="sRGB"><feFlood flood-color="#fff" result="bg"/><feBlend in="SourceGraphic" in2="bg"/></filter><linearGradient id="l" x1="33.207" y1="438.17" x2="54.233" y2="438" xlink:href="#a"/><filter x="40.137" y="-8429" width="13.611" height="32766" filterUnits="userSpaceOnUse" color-interpolation-filters="sRGB"><feFlood flood-color="#fff" result="bg"/><feBlend in="SourceGraphic" in2="bg"/></filter><linearGradient id="n" x1="47.727" y1="438.935" x2="46.033" y2="438.834" xlink:href="#a"/><filter x="27.694" y="-8429" width="12.207" height="32766" filterUnits="userSpaceOnUse" color-interpolation-filters="sRGB"><feFlood flood-color="#fff" result="bg"/><feBlend in="SourceGraphic" in2="bg"/></filter><linearGradient id="p" x1="32.85" y1="438.172" x2="34.475" y2="437.914" xlink:href="#a"/><filter x="26.268" y="-8429" width="13.611" height="32766" filterUnits="userSpaceOnUse" color-interpolation-filters="sRGB"><feFlood flood-color="#fff" result="bg"/><feBlend in="SourceGraphic" in2="bg"/></filter><linearGradient id="r" x1="34.449" y1="438.158" x2="31.75" y2="439.656" xlink:href="#a"/><filter x="32.472" y="-8429" width="4.138" height="32766" filterUnits="userSpaceOnUse" color-interpolation-filters="sRGB"><feFlood flood-color="#fff" result="bg"/><feBlend in="SourceGraphic" in2="bg"/></filter><filter x="26.87" y="-8429" width="15.957" height="32766" filterUnits="userSpaceOnUse" color-interpolation-filters="sRGB"><feFlood flood-color="#fff" result="bg"/><feBlend in="SourceGraphic" in2="bg"/></filter><linearGradient id="c" x1="37.105" y1="439.161" x2="31.932" y2="440.119" xlink:href="#a"/><filter x="31.481" y="-8429" width="6.245" height="32766" filterUnits="userSpaceOnUse" color-interpolation-filters="sRGB"><feFlood flood-color="#fff" result="bg"/><feBlend in="SourceGraphic" in2="bg"/></filter><filter x="43.546" y="-8429" width="3.997" height="32766" filterUnits="userSpaceOnUse" color-interpolation-filters="sRGB"><feFlood flood-color="#fff" result="bg"/><feBlend in="SourceGraphic" in2="bg"/></filter><linearGradient id="f" x1="46.798" y1="441.31" x2="44.399" y2="441.17" xlink:href="#a"/><filter x="42.289" y="-8429" width="6.055" height="32766" filterUnits="userSpaceOnUse" color-interpolation-filters="sRGB"><feFlood flood-color="#fff" result="bg"/><feBlend in="SourceGraphic" in2="bg"/></filter><linearGradient id="h" x1="47.836" y1="439.836" x2="42.728" y2="439.402" xlink:href="#a"/><filter x="31.925" y="-8429" width="16.165" height="32766" filterUnits="userSpaceOnUse" color-interpolation-filters="sRGB"><feFlood flood-color="#fff" result="bg"/><feBlend in="SourceGraphic" in2="bg"/></filter><linearGradient id="j" x1="47.19" y1="439.148" x2="32.825" y2="439.148" xlink:href="#a"/><filter x="45.214" y="-8429" width="2.261" height="32766" filterUnits="userSpaceOnUse" color-interpolation-filters="sRGB"><feFlood flood-color="#fff" result="bg"/><feBlend in="SourceGraphic" in2="bg"/></filter><filter x="45.237" y="-8429" width="3.411" height="32766" filterUnits="userSpaceOnUse" color-interpolation-filters="sRGB"><feFlood flood-color="#fff" result="bg"/><feBlend in="SourceGraphic" in2="bg"/></filter><filter x="32.302" y="-8429" width="2.499" height="32766" filterUnits="userSpaceOnUse" color-interpolation-filters="sRGB"><feFlood flood-color="#fff" result="bg"/><feBlend in="SourceGraphic" in2="bg"/></filter><filter x="31.368" y="-8429" width="3.411" height="32766" filterUnits="userSpaceOnUse" color-interpolation-filters="sRGB"><feFlood flood-color="#fff" result="bg"/><feBlend in="SourceGraphic" in2="bg"/></filter><filter x="38.628" y="-8429" width="14.016" height="32766" filterUnits="userSpaceOnUse" color-interpolation-filters="sRGB"><feFlood flood-color="#fff" result="bg"/><feBlend in="SourceGraphic" in2="bg"/></filter><filter x="37.189" y="-8429" width="14.686" height="32766" filterUnits="userSpaceOnUse" color-interpolation-filters="sRGB"><feFlood flood-color="#fff" result="bg"/><feBlend in="SourceGraphic" in2="bg"/></filter><filter x="26.825" y="-8429" width="26.365" height="32766" filterUnits="userSpaceOnUse" color-interpolation-filters="sRGB"><feFlood flood-color="#fff" result="bg"/><feBlend in="SourceGraphic" in2="bg"/></filter><clipPath id="C"><circle cx="27.5" cy="27.5" r="23.3" fill="none"/></clipPath><filter id="b" x="27.372" y="27.683" width="14.269" height="14.107" filterUnits="userSpaceOnUse" color-interpolation-filters="sRGB"><feFlood flood-color="#fff" result="bg"/><feBlend in="SourceGraphic" in2="bg"/></filter><mask id="D" x="27.372" y="27.683" width="14.269" height="14.107" maskUnits="userSpaceOnUse"><path d="M35.722 35.922s-.5-.743-.912-.69a1.64 1.64 0 0 0-.83.557 3.367 3.367 0 0 1-.607-.638c.027-.026.635-1.405.967-1.458a2.352 2.352 0 0 1 1.047.154c0 .053.335 2.074.335 2.074z" style="mix-blend-mode:multiply" stroke="#fff" stroke-linejoin="bevel" stroke-width="12" fill="url(#a)" mask="url(#a)" filter="url(#b)"/></mask><linearGradient id="e" x1="35.744" y1="440.557" x2="33.467" y2="441.902" gradientTransform="matrix(1 0 0 -1 0 476)" gradientUnits="userSpaceOnUse"><stop offset="0" stop-color="#a23c23"/><stop offset="1" stop-color="#fff"/></linearGradient><filter id="d" x="26.87" y="29.347" width="15.957" height="15.508" filterUnits="userSpaceOnUse" color-interpolation-filters="sRGB"><feFlood flood-color="#fff" result="bg"/><feBlend in="SourceGraphic" in2="bg"/></filter><mask id="F" x="26.87" y="29.347" width="15.957" height="15.508" maskUnits="userSpaceOnUse"><path d="M36.827 35.126a5.4 5.4 0 0 1-.884 2.705 3.456 3.456 0 0 1-2.294 1.01c-.415-.107-1.355-2.096-1.355-2.096s.995.955 1.74.8 1.19-1.353 1.327-1.937a7.24 7.24 0 0 0 .028-1.724l1.437 1.247z" style="mix-blend-mode:multiply" stroke="#fff" stroke-linejoin="bevel" stroke-width="12" fill="url(#c)" mask="url(#s)" filter="url(#d)"/></mask><linearGradient id="E" x1="37.105" y1="439.161" x2="31.932" y2="440.119" xlink:href="#e"/><filter id="g" x="38.628" y="27.683" width="14.016" height="14.107" filterUnits="userSpaceOnUse" color-interpolation-filters="sRGB"><feFlood flood-color="#fff" result="bg"/><feBlend in="SourceGraphic" in2="bg"/></filter><mask id="H" x="38.628" y="27.683" width="14.016" height="14.107" maskUnits="userSpaceOnUse"><path d="M44.294 35.922s.5-.743.912-.69a1.65 1.65 0 0 1 .83.557 3.43 3.43 0 0 0 .607-.638c-.028-.026-.636-1.405-.968-1.458a2.352 2.352 0 0 0-1.047.154c0 .053-.334 2.074-.334 2.074z" style="mix-blend-mode:multiply" stroke="#fff" stroke-linejoin="bevel" stroke-width="12" fill="url(#f)" mask="url(#at)" filter="url(#g)"/></mask><linearGradient id="G" x1="46.798" y1="441.31" x2="44.399" y2="441.17" xlink:href="#e"/><filter id="i" x="37.189" y="29.347" width="14.686" height="15.508" filterUnits="userSpaceOnUse" color-interpolation-filters="sRGB"><feFlood flood-color="#fff" result="bg"/><feBlend in="SourceGraphic" in2="bg"/></filter><mask id="J" x="37.189" y="29.347" width="14.686" height="15.508" maskUnits="userSpaceOnUse"><path d="M43.19 35.126a5.4 5.4 0 0 0 .883 2.705 3.454 3.454 0 0 0 2.293 1.01c.415-.107 1.354-2.096 1.354-2.096s-.994.955-1.74.8-1.19-1.353-1.327-1.937a7.22 7.22 0 0 1-.027-1.724L43.19 35.13z" style="mix-blend-mode:multiply" stroke="#fff" stroke-linejoin="bevel" stroke-width="12" fill="url(#h)" mask="url(#aw)" filter="url(#i)"/></mask><linearGradient id="I" x1="47.836" y1="439.836" x2="42.728" y2="439.402" xlink:href="#e"/><filter id="k" x="26.825" y="30.841" width="26.365" height="14.025" filterUnits="userSpaceOnUse" color-interpolation-filters="sRGB"><feFlood flood-color="#fff" result="bg"/><feBlend in="SourceGraphic" in2="bg"/></filter><mask id="L" x="26.825" y="30.841" width="26.365" height="14.025" maskUnits="userSpaceOnUse"><path d="M33.536 34.838a6.418 6.418 0 0 0-.647.87c-.14.213-.057.508.262.93a10.985 10.985 0 0 0 6.856 2.228 10.99 10.99 0 0 0 6.857-2.228c.32-.422.4-.717.26-.93a6.28 6.28 0 0 0-.645-.87c0 .557-2.343 2.57-6.472 2.57s-6.472-2.008-6.472-2.57z" style="mix-blend-mode:multiply" stroke="#fff" stroke-linejoin="bevel" stroke-width="12" fill="url(#j)" mask="url(#az)" filter="url(#k)"/></mask><linearGradient id="K" x1="47.19" y1="439.148" x2="32.825" y2="439.148" xlink:href="#e"/><filter id="m" x="40.114" y="32.351" width="12.207" height="12.204" filterUnits="userSpaceOnUse" color-interpolation-filters="sRGB"><feFlood flood-color="#fff" result="bg"/><feBlend in="SourceGraphic" in2="bg"/></filter><mask id="N" x="40.114" y="32.351" width="12.207" height="12.204" maskUnits="userSpaceOnUse"><path d="M46.314 38.543c.056-.08.636-1.008.636-1.008l-.318-.215c-.1.262-.456.348-.51.666a.728.728 0 0 0 .192.557z" style="mix-blend-mode:multiply" stroke="#fff" stroke-linejoin="bevel" stroke-width="12" fill="url(#l)" mask="url(#d)" filter="url(#m)"/></mask><linearGradient id="M" x1="33.207" y1="438.17" x2="54.233" y2="438" xlink:href="#e"/><filter id="o" x="40.137" y="29.967" width="13.611" height="13.945" filterUnits="userSpaceOnUse" color-interpolation-filters="sRGB"><feFlood flood-color="#fff" result="bg"/><feBlend in="SourceGraphic" in2="bg"/></filter><mask id="P" x="40.137" y="29.967" width="13.611" height="13.945" maskUnits="userSpaceOnUse"><path d="M46.89 38.256s.112-.45-.247-.5-.55.252-.5.132a1.263 1.263 0 0 0 .3-.716 2.62 2.62 0 0 0-.028-.69.654.654 0 0 1 .72-.504.62.62 0 0 1 .607.664.446.446 0 0 1-.055.24l-.8 1.378z" style="mix-blend-mode:multiply" stroke="#fff" stroke-linejoin="bevel" stroke-width="12" fill="url(#n)" mask="url(#g)" filter="url(#o)"/></mask><linearGradient id="O" x1="47.727" y1="438.935" x2="46.033" y2="438.834" xlink:href="#e"/><filter id="q" x="27.694" y="32.351" width="12.207" height="12.204" filterUnits="userSpaceOnUse" color-interpolation-filters="sRGB"><feFlood flood-color="#fff" result="bg"/><feBlend in="SourceGraphic" in2="bg"/></filter><mask id="R" x="27.694" y="32.351" width="12.207" height="12.204" maskUnits="userSpaceOnUse"><path d="M33.7 38.543c-.055-.08-.636-1.008-.636-1.008l.32-.215c.1.262.454.348.51.666a.72.72 0 0 1-.194.557z" style="mix-blend-mode:multiply" stroke="#fff" stroke-linejoin="bevel" stroke-width="12" fill="url(#p)" mask="url(#j)" filter="url(#q)"/></mask><linearGradient id="Q" x1="32.85" y1="438.172" x2="34.475" y2="437.914" xlink:href="#e"/><filter id="s" x="26.268" y="29.967" width="13.611" height="13.945" filterUnits="userSpaceOnUse" color-interpolation-filters="sRGB"><feFlood flood-color="#fff" result="bg"/><feBlend in="SourceGraphic" in2="bg"/></filter><mask id="T" x="26.268" y="29.967" width="13.611" height="13.945" maskUnits="userSpaceOnUse"><path d="M33.124 38.256s-.11-.45.25-.5.548.252.5.132a1.263 1.263 0 0 1-.3-.716 2.677 2.677 0 0 1 .027-.69.654.654 0 0 0-.718-.504.62.62 0 0 0-.607.664.446.446 0 0 0 .055.24l.8 1.378z" style="mix-blend-mode:multiply" stroke="#fff" stroke-linejoin="bevel" stroke-width="12" fill="url(#r)" mask="url(#m)" filter="url(#s)"/></mask><linearGradient id="S" x1="34.449" y1="438.158" x2="31.75" y2="439.656" xlink:href="#e"/><filter id="t" x="32.472" y="32.783" width="4.138" height="3.907" filterUnits="userSpaceOnUse" color-interpolation-filters="sRGB"><feFlood flood-color="#fff" result="bg"/><feBlend in="SourceGraphic" in2="bg"/></filter><mask id="U" x="32.472" y="32.783" width="4.138" height="3.907" maskUnits="userSpaceOnUse"><path d="M35.722 35.922s-.5-.743-.912-.69a1.64 1.64 0 0 0-.83.557 3.367 3.367 0 0 1-.607-.638c.027-.026.635-1.405.967-1.458a2.352 2.352 0 0 1 1.047.154c0 .053.335 2.074.335 2.074z" style="mix-blend-mode:multiply" stroke="#fff" stroke-linejoin="bevel" stroke-width="1.8" fill="url(#a)" mask="url(#p)" filter="url(#t)"/></mask><filter id="u" x="31.481" y="33.199" width="6.245" height="6.556" filterUnits="userSpaceOnUse" color-interpolation-filters="sRGB"><feFlood flood-color="#fff" result="bg"/><feBlend in="SourceGraphic" in2="bg"/></filter><mask id="V" x="31.481" y="33.199" width="6.245" height="6.556" maskUnits="userSpaceOnUse"><path d="M36.827 35.126a5.4 5.4 0 0 1-.884 2.705 3.456 3.456 0 0 1-2.294 1.01c-.415-.107-1.355-2.096-1.355-2.096s.995.955 1.74.8 1.19-1.353 1.327-1.937a7.24 7.24 0 0 0 .028-1.724l1.437 1.247z" style="mix-blend-mode:multiply" stroke="#fff" stroke-linejoin="bevel" stroke-width="1.8" fill="url(#c)" mask="url(#v)" filter="url(#u)"/></mask><filter id="v" x="43.546" y="32.783" width="3.997" height="3.907" filterUnits="userSpaceOnUse" color-interpolation-filters="sRGB"><feFlood flood-color="#fff" result="bg"/><feBlend in="SourceGraphic" in2="bg"/></filter><mask id="W" x="43.546" y="32.783" width="3.997" height="3.907" maskUnits="userSpaceOnUse"><path d="M44.294 35.922s.5-.743.912-.69a1.65 1.65 0 0 1 .83.557 3.43 3.43 0 0 0 .607-.638c-.028-.026-.636-1.405-.968-1.458a2.352 2.352 0 0 0-1.047.154c0 .053-.334 2.074-.334 2.074z" style="mix-blend-mode:multiply" stroke="#fff" stroke-linejoin="bevel" stroke-width="1.8" fill="url(#f)" mask="url(#y)" filter="url(#v)"/></mask><filter id="w" x="42.289" y="33.199" width="6.055" height="6.556" filterUnits="userSpaceOnUse" color-interpolation-filters="sRGB"><feFlood flood-color="#fff" result="bg"/><feBlend in="SourceGraphic" in2="bg"/></filter><mask id="X" x="42.289" y="33.199" width="6.055" height="6.556" maskUnits="userSpaceOnUse"><path d="M43.19 35.126a5.4 5.4 0 0 0 .883 2.705 3.454 3.454 0 0 0 2.293 1.01c.415-.107 1.354-2.096 1.354-2.096s-.994.955-1.74.8-1.19-1.353-1.327-1.937a7.22 7.22 0 0 1-.027-1.724L43.19 35.13z" style="mix-blend-mode:multiply" stroke="#fff" stroke-linejoin="bevel" stroke-width="1.8" fill="url(#h)" mask="url(#ab)" filter="url(#w)"/></mask><filter id="x" x="31.925" y="34.239" width="16.165" height="5.527" filterUnits="userSpaceOnUse" color-interpolation-filters="sRGB"><feFlood flood-color="#fff" result="bg"/><feBlend in="SourceGraphic" in2="bg"/></filter><mask id="Y" x="31.925" y="34.239" width="16.165" height="5.527" maskUnits="userSpaceOnUse"><path d="M33.536 34.838a6.418 6.418 0 0 0-.647.87c-.14.213-.057.508.262.93a10.985 10.985 0 0 0 6.856 2.228 10.99 10.99 0 0 0 6.857-2.228c.32-.422.4-.717.26-.93a6.28 6.28 0 0 0-.645-.87c0 .557-2.343 2.57-6.472 2.57s-6.472-2.008-6.472-2.57z" style="mix-blend-mode:multiply" stroke="#fff" stroke-linejoin="bevel" stroke-width="1.8" fill="url(#j)" mask="url(#ae)" filter="url(#x)"/></mask><filter id="y" x="45.214" y="36.574" width="2.261" height="2.881" filterUnits="userSpaceOnUse" color-interpolation-filters="sRGB"><feFlood flood-color="#fff" result="bg"/><feBlend in="SourceGraphic" in2="bg"/></filter><mask id="Z" x="45.214" y="36.574" width="2.261" height="2.881" maskUnits="userSpaceOnUse"><path d="M46.314 38.543c.056-.08.636-1.008.636-1.008l-.318-.215c-.1.262-.456.348-.51.666a.728.728 0 0 0 .192.557z" style="mix-blend-mode:multiply" stroke="#fff" stroke-linejoin="bevel" stroke-width="1.8" fill="url(#l)" mask="url(#ah)" filter="url(#y)"/></mask><filter id="z" x="45.237" y="35.067" width="3.411" height="3.745" filterUnits="userSpaceOnUse" color-interpolation-filters="sRGB"><feFlood flood-color="#fff" result="bg"/><feBlend in="SourceGraphic" in2="bg"/></filter><mask id="aa" x="45.237" y="35.067" width="3.411" height="3.745" maskUnits="userSpaceOnUse"><path d="M46.89 38.256s.112-.45-.247-.5-.55.252-.5.132a1.263 1.263 0 0 0 .3-.716 2.62 2.62 0 0 0-.028-.69.654.654 0 0 1 .72-.504.62.62 0 0 1 .607.664.446.446 0 0 1-.055.24l-.8 1.378z" style="mix-blend-mode:multiply" stroke="#fff" stroke-linejoin="bevel" stroke-width="1.8" fill="url(#n)" mask="url(#ak)" filter="url(#z)"/></mask><filter id="A" x="32.302" y="36.574" width="2.499" height="2.881" filterUnits="userSpaceOnUse" color-interpolation-filters="sRGB"><feFlood flood-color="#fff" result="bg"/><feBlend in="SourceGraphic" in2="bg"/></filter><mask id="ab" x="32.302" y="36.574" width="2.499" height="2.881" maskUnits="userSpaceOnUse"><path d="M33.7 38.543c-.055-.08-.636-1.008-.636-1.008l.32-.215c.1.262.454.348.51.666a.72.72 0 0 1-.194.557z" style="mix-blend-mode:multiply" stroke="#fff" stroke-linejoin="bevel" stroke-width="1.8" fill="url(#p)" mask="url(#an)" filter="url(#A)"/></mask><filter id="B" x="31.368" y="35.067" width="3.411" height="3.745" filterUnits="userSpaceOnUse" color-interpolation-filters="sRGB"><feFlood flood-color="#fff" result="bg"/><feBlend in="SourceGraphic" in2="bg"/></filter><mask id="ac" x="31.368" y="35.067" width="3.411" height="3.745" maskUnits="userSpaceOnUse"><path d="M33.124 38.256s-.11-.45.25-.5.548.252.5.132a1.263 1.263 0 0 1-.3-.716 2.677 2.677 0 0 1 .027-.69.654.654 0 0 0-.718-.504.62.62 0 0 0-.607.664.446.446 0 0 0 .055.24l.8 1.378z" style="mix-blend-mode:multiply" stroke="#fff" stroke-linejoin="bevel" stroke-width="1.8" fill="url(#r)" mask="url(#aq)" filter="url(#B)"/></mask></defs><g clip-path="url(#C)"><path fill="#273376" d="M-16.592 3.004h88.184v48.99h-88.184z"/><path d="M35.722 35.922s-.5-.743-.912-.69a1.64 1.64 0 0 0-.83.557 3.367 3.367 0 0 1-.607-.638c.027-.026.635-1.405.967-1.458a2.352 2.352 0 0 1 1.047.154c0 .053.335 2.074.335 2.074z" stroke="#fff" stroke-linejoin="bevel" stroke-width=".1" fill="url(#e)" mask="url(#D)"/><path d="M36.827 35.126a5.4 5.4 0 0 1-.884 2.705 3.456 3.456 0 0 1-2.294 1.01c-.415-.107-1.355-2.096-1.355-2.096s.995.955 1.74.8 1.19-1.353 1.327-1.937a7.24 7.24 0 0 0 .028-1.724l1.437 1.247z" stroke="#fff" stroke-linejoin="bevel" stroke-width=".1" fill="url(#E)" mask="url(#F)"/><path d="M44.294 35.922s.5-.743.912-.69a1.65 1.65 0 0 1 .83.557 3.43 3.43 0 0 0 .607-.638c-.028-.026-.636-1.405-.968-1.458a2.352 2.352 0 0 0-1.047.154c0 .053-.334 2.074-.334 2.074z" stroke="#fff" stroke-linejoin="bevel" stroke-width=".1" fill="url(#G)" mask="url(#H)"/><path d="M43.19 35.126a5.4 5.4 0 0 0 .883 2.705 3.454 3.454 0 0 0 2.293 1.01c.415-.107 1.354-2.096 1.354-2.096s-.994.955-1.74.8-1.19-1.353-1.327-1.937a7.22 7.22 0 0 1-.027-1.724L43.19 35.13z" stroke="#fff" stroke-linejoin="bevel" stroke-width=".1" fill="url(#I)" mask="url(#J)"/><path d="M33.536 34.838a6.418 6.418 0 0 0-.647.87c-.14.213-.057.508.262.93a10.985 10.985 0 0 0 6.856 2.228 10.99 10.99 0 0 0 6.857-2.228c.32-.422.4-.717.26-.93a6.28 6.28 0 0 0-.645-.87c0 .557-2.343 2.57-6.472 2.57s-6.472-2.008-6.472-2.57z" stroke="#fff" stroke-linejoin="bevel" stroke-width=".1" fill="url(#K)" mask="url(#L)"/><path d="M46.314 38.543c.056-.08.636-1.008.636-1.008l-.318-.215c-.1.262-.456.348-.51.666a.728.728 0 0 0 .192.557z" stroke="#fff" stroke-linejoin="bevel" stroke-width=".1" fill="url(#M)" mask="url(#N)"/><path d="M46.89 38.256s.112-.45-.247-.5-.55.252-.5.132a1.263 1.263 0 0 0 .3-.716 2.62 2.62 0 0 0-.028-.69.654.654 0 0 1 .72-.504.62.62 0 0 1 .607.664.446.446 0 0 1-.055.24l-.8 1.378z" stroke="#fff" stroke-linejoin="bevel" stroke-width=".1" fill="url(#O)" mask="url(#P)"/><path d="M33.7 38.543c-.055-.08-.636-1.008-.636-1.008l.32-.215c.1.262.454.348.51.666a.72.72 0 0 1-.194.557z" stroke="#fff" stroke-linejoin="bevel" stroke-width=".1" fill="url(#Q)" mask="url(#R)"/><path d="M33.124 38.256s-.11-.45.25-.5.548.252.5.132a1.263 1.263 0 0 1-.3-.716 2.677 2.677 0 0 1 .027-.69.654.654 0 0 0-.718-.504.62.62 0 0 0-.607.664.446.446 0 0 0 .055.24l.8 1.378z" stroke="#fff" stroke-linejoin="bevel" stroke-width=".1" fill="url(#S)" mask="url(#T)"/><path d="M35.722 35.922s-.5-.743-.912-.69a1.64 1.64 0 0 0-.83.557 3.367 3.367 0 0 1-.607-.638c.027-.026.635-1.405.967-1.458a2.352 2.352 0 0 1 1.047.154c0 .053.335 2.074.335 2.074z" stroke="#000" stroke-linejoin="bevel" stroke-width=".1" fill="url(#e)" mask="url(#U)"/><path d="M36.827 35.126a5.4 5.4 0 0 1-.884 2.705 3.456 3.456 0 0 1-2.294 1.01c-.415-.107-1.355-2.096-1.355-2.096s.995.955 1.74.8 1.19-1.353 1.327-1.937a7.24 7.24 0 0 0 .028-1.724l1.437 1.247z" stroke="#000" stroke-linejoin="bevel" stroke-width=".1" fill="url(#E)" mask="url(#V)"/><path d="M44.294 35.922s.5-.743.912-.69a1.65 1.65 0 0 1 .83.557 3.43 3.43 0 0 0 .607-.638c-.028-.026-.636-1.405-.968-1.458a2.352 2.352 0 0 0-1.047.154c0 .053-.334 2.074-.334 2.074z" stroke="#000" stroke-linejoin="bevel" stroke-width=".1" fill="url(#G)" mask="url(#W)"/><path d="M43.19 35.126a5.4 5.4 0 0 0 .883 2.705 3.454 3.454 0 0 0 2.293 1.01c.415-.107 1.354-2.096 1.354-2.096s-.994.955-1.74.8-1.19-1.353-1.327-1.937a7.22 7.22 0 0 1-.027-1.724L43.19 35.13z" stroke="#000" stroke-linejoin="bevel" stroke-width=".1" fill="url(#I)" mask="url(#X)"/><path d="M33.536 34.838a6.418 6.418 0 0 0-.647.87c-.14.213-.057.508.262.93a10.985 10.985 0 0 0 6.856 2.228 10.99 10.99 0 0 0 6.857-2.228c.32-.422.4-.717.26-.93a6.28 6.28 0 0 0-.645-.87c0 .557-2.343 2.57-6.472 2.57s-6.472-2.008-6.472-2.57z" stroke="#000" stroke-linejoin="bevel" stroke-width=".1" fill="url(#K)" mask="url(#Y)"/><path d="M46.314 38.543c.056-.08.636-1.008.636-1.008l-.318-.215c-.1.262-.456.348-.51.666a.728.728 0 0 0 .192.557z" stroke="#000" stroke-linejoin="bevel" stroke-width=".1" fill="url(#M)" mask="url(#Z)"/><path d="M46.89 38.256s.112-.45-.247-.5-.55.252-.5.132a1.263 1.263 0 0 0 .3-.716 2.62 2.62 0 0 0-.028-.69.654.654 0 0 1 .72-.504.62.62 0 0 1 .607.664.446.446 0 0 1-.055.24l-.8 1.378z" stroke="#000" stroke-linejoin="bevel" stroke-width=".1" fill="url(#O)" mask="url(#aa)"/><path d="M33.7 38.543c-.055-.08-.636-1.008-.636-1.008l.32-.215c.1.262.454.348.51.666a.72.72 0 0 1-.194.557z" stroke="#000" stroke-linejoin="bevel" stroke-width=".1" fill="url(#Q)" mask="url(#ab)"/><path d="M33.124 38.256s-.11-.45.25-.5.548.252.5.132a1.263 1.263 0 0 1-.3-.716 2.677 2.677 0 0 1 .027-.69.654.654 0 0 0-.718-.504.62.62 0 0 0-.607.664.446.446 0 0 0 .055.24l.8 1.378z" stroke="#000" stroke-linejoin="bevel" stroke-width=".1" fill="url(#S)" mask="url(#ac)"/><path d="M34.963 36.5l-.3-.19-.035.05.06.046.004.027-.38.553-.027.006-.066-.035-.036.05.3.192a.45.45 0 0 0 .29.088.43.43 0 0 0 .32-.2.378.378 0 0 0-.13-.585zm-.126 0l.06.038c.164.1.18.25.044.444s-.278.242-.442.138l-.06-.038.4-.582zM35.064 37.5l.6.274.1-.2-.076-.035-.078.11-.024.01-.258-.118.145-.292.145.066.008.023-.03.085.067.03.13-.26-.067-.03-.05.075-.024.01-.145-.068.133-.268.222.1.007.022-.034.106.078.036L36 37l-.56-.257-.03.055.066.037.01.024-.3.6-.026.01-.07-.026-.03.055zM35.857 37.808a.7.7 0 0 0 .214.11c.194.06.347-.006.394-.148a.216.216 0 0 0-.046-.21c-.054-.067-.11-.1-.14-.138-.05-.057-.07-.1-.052-.158a.13.13 0 0 1 .177-.07.193.193 0 0 1 .08.044l.01.02-.02.13.084.027.064-.192a.687.687 0 0 0-.206-.11.267.267 0 0 0-.356.15.226.226 0 0 0 .028.187.7.7 0 0 0 .125.136c.07.068.1.124.076.188s-.094.1-.19.066a.372.372 0 0 1-.1-.048l-.008-.023.03-.15-.09-.027-.073.215zM36.482 38.03l.352.11.02-.06-.078-.03-.012-.024.21-.633.026-.01.08.018.02-.058-.35-.11-.02.06.075.03.013.022-.212.633-.025.013-.078-.018-.02.058zM37.237 37.37l-.013.06.07.02.015.022-.147.65-.024.016-.073-.008-.014.06.34.068.014-.06-.072-.02-.015-.024.06-.274h.022c.122.025.14.083.153.207a.284.284 0 0 0 .056.18.2.2 0 0 0 .118.064.766.766 0 0 0 .123.016l.014-.058h-.015c-.082-.016-.114-.042-.125-.114a.792.792 0 0 0-.03-.2.2.2 0 0 0-.11-.1c.143 0 .23-.054.256-.167.03-.135-.05-.228-.236-.266l-.367-.074zm.232.12l.054.012c.117.023.166.092.144.192s-.1.15-.227.125l-.043-.01.072-.32zM38 38.39l.662.03.01-.222h-.083l-.03.13-.016.02-.286-.013.016-.324.16.008.016.02.01.09h.07l.015-.29h-.073l-.016.09-.018.016-.16-.008.013-.3.247.01.015.018.013.11h.087l.01-.2-.622-.03v.062l.075.01.02.018-.033.665-.02.018h-.076v.06zM39.166 37.685v.22h.088l.02-.132.022-.016h.152l-.007.68-.02.02-.083.004v.062h.38v-.06l-.083-.008-.02-.02.006-.68h.152l.018.017.02.135h.088v-.22l-.73-.01zM39.935 37.71v.06h.074l.02.02.012.662-.02.02-.073.008v.06l.357-.005v-.06l-.076-.006-.02-.02-.006-.315.366-.006.006.314-.018.02-.076.007v.062l.357-.005v-.06h-.075l-.02-.02-.013-.663.02-.02.073-.008V37.7l-.357.005v.062l.076.005.02.02.005.272-.367.006-.005-.273.02-.02.075-.008v-.07zM40.943 38.526l.678-.057-.02-.224-.086.007-.01.134-.013.02-.292.026-.03-.323.164-.014.02.016.02.088.075-.006-.027-.288-.075.006v.09l-.016.02-.165.013-.028-.3.25-.02.02.014.03.107.087-.008-.018-.2-.636.053.006.06h.077l.022.017.06.662-.017.022-.076.013v.06zM41.9 37.56l.01.06.08-.006.024.014.113.656-.018.023-.08.018.012.06.375-.058-.01-.06-.083.006-.024-.016-.048-.277h.023c.134-.02.177.027.24.137a.29.29 0 0 0 .13.148.247.247 0 0 0 .144.016 1.015 1.015 0 0 0 .13-.03l-.01-.06h-.017c-.09.015-.132 0-.172-.06a.776.776 0 0 0-.107-.17.237.237 0 0 0-.153-.055c.146-.05.212-.133.193-.246-.024-.138-.143-.195-.35-.163l-.4.063zm.285.027l.06-.01c.13-.02.207.026.224.127s-.04.176-.182.2c-.015 0-.03 0-.048.006zM43.026 38.215l.384-.11-.02-.06-.087.02-.027-.014-.208-.635.015-.023.084-.03-.02-.06-.384.112.02.058.086-.018.025.01.21.637-.015.026-.084.03.02.06zM43.826 37.526l.018.06.1-.022.026.01.077.244-.07.024a.326.326 0 0 1-.427-.248.3.3 0 0 1 .207-.423.307.307 0 0 1 .113-.01l.026.015.064.12.094-.027-.063-.2a1.05 1.05 0 0 0-.284.038.423.423 0 0 0-.343.544.448.448 0 0 0 .586.29.985.985 0 0 0 .273-.13l-.087-.28.015-.023.074-.027-.018-.06-.377.11zM44.025 37.026l.03.055.072-.027.028.008.312.593-.01.027-.067.04.03.054.34-.165-.03-.056-.075.03-.028-.01-.148-.28.346-.168.148.28-.008.027-.07.04.03.055.338-.164-.03-.054-.07.028-.03-.01-.312-.59.01-.027.067-.04-.03-.053-.34.164.03.056.075-.03.027.01.13.243-.348.168-.13-.244.01-.027.07-.04-.03-.056-.34.166zM44.877 36.574l.118.19.08-.046-.053-.125.01-.025.14-.08.362.584-.01.028-.07.05.032.05.345-.2-.03-.05-.08.036-.03-.006-.363-.582.14-.08h.025l.09.1.08-.045-.118-.19-.667.382z"/><path d="M40.008 37.024s-6.67-1.8-6.63-8.67l.05-9.075h13.16l.05 9.022c.04 6.865-6.63 8.722-6.63 8.722z" fill="#1c72b9" stroke="#fff" stroke-width=".1"/><path d="M34.344 21.334a1.485 1.485 0 0 0 .165-.132c.1-.048.2-.114.3-.16.077-.04.23-.073.3-.105a.755.755 0 0 0 .248-.186 3.4 3.4 0 0 0 .028-.344c.11-.048.207-.095.3-.132a2.4 2.4 0 0 1 .3-.107 1.4 1.4 0 0 1 .36-.026c.136 0 .223.09.346.112a1 1 0 0 1 .332.185.645.645 0 0 0 .22.2 1.566 1.566 0 0 0 .276.133 1.125 1.125 0 0 1 .3.185c.08.054.114.132.193.186a2.162 2.162 0 0 0 .277.187.635.635 0 0 0 .427.112 1.43 1.43 0 0 1 .332 0 1.68 1.68 0 0 1 .386.025c.14 0 .255.018.386.027a2.3 2.3 0 0 0 .387.026 1.678 1.678 0 0 0 .386.027h.774a2.134 2.134 0 0 1 .387.026 3.378 3.378 0 0 0 .386-.025c.15 0 .265-.025.415-.027h.47a1.42 1.42 0 0 1 .36.106c.11.03.164.077.275.106a.8.8 0 0 1 .277.186 1.355 1.355 0 0 1 .22.292 1.87 1.87 0 0 1 .166.345 1.483 1.483 0 0 1 .056.37 1.5 1.5 0 0 1 .027.372 3.285 3.285 0 0 1-.084.372 1.89 1.89 0 0 1-.055.345 1.235 1.235 0 0 0-.054.318v.37c-.01.122-.04.212-.055.345a3.8 3.8 0 0 0-.193.4.85.85 0 0 0-.22.212c-.06.034-.094.084-.084.106.11.036.083.106.083.24a2.99 2.99 0 0 0 .055.344.73.73 0 0 0 .084.292c.044.05.052.025-.055.025-.08.058-.162.028-.194-.08a.553.553 0 0 1-.11-.29.867.867 0 0 0-.084-.32c-.014-.15-.057-.147-.22-.16a.5.5 0 0 0-.333-.078c-.15 0-.164-.014-.166.132v.37c-.026.108-.083.2-.11.292-.083.056-.126.15-.222.213-.046.12-.112.14-.25.16a2.387 2.387 0 0 1-.142-.186c.077-.12.145-.138.193-.266.06-.106.093-.174.138-.265a1.2 1.2 0 0 1-.165-.24 1.412 1.412 0 0 1-.138-.292 1.6 1.6 0 0 1-.3-.08c-.134-.028-.17.107-.33.107H41c-.17 0-.214.087-.36.08-.042.012-.146 0-.3 0a1.326 1.326 0 0 1-.386.026 1.75 1.75 0 0 1-.36-.052 2.918 2.918 0 0 0-.386-.08.507.507 0 0 0-.332.08c-.086.047-.21.154-.3.212-.04.088-.06.237-.11.345-.03.1-.077.17-.11.265a.98.98 0 0 0-.084.318c-.01.18-.05.157-.165.106a2.79 2.79 0 0 1-.166-.238 1.7 1.7 0 0 0 .056-.345c-.027-.1-.09-.1-.166-.026 0 .14.007.246-.055.32a.333.333 0 0 1-.166.21.4.4 0 0 1-.222.187c-.014-.004 0-.035 0-.106-.066-.12 0-.222 0-.37a.962.962 0 0 1 .035-.346 1.474 1.474 0 0 0-.086-.345.286.286 0 0 0-.22-.185.8.8 0 0 1-.3-.16.56.56 0 0 0-.25-.185 1.184 1.184 0 0 1-.276-.133c-.084-.086-.154-.124-.193-.238a1.973 1.973 0 0 1-.11-.345 1.106 1.106 0 0 0-.083-.32 1.216 1.216 0 0 0-.083-.317 2.9 2.9 0 0 0-.082-.345 1.492 1.492 0 0 0-.027-.37v-.372c-.02-.108-.027-.265-.054-.345a.74.74 0 0 0-.056-.32c-.063-.092-.068-.134-.166-.158a.488.488 0 0 1-.33.133 2.2 2.2 0 0 1-.36-.08 1.32 1.32 0 0 1-.277-.106 2.208 2.208 0 0 0-.166-.212c-.016-.138-.05-.21-.054-.345 0-.1 0-.047.11-.186z" fill="#bbbcbb"/><path d="M35.98 22.29a3.8 3.8 0 0 0 .78-.48c.25-.147.763 0 .783-.39a3.67 3.67 0 0 1-.473.592c-.32.186.157.377.234.11a1.37 1.37 0 0 1 .708-.657.556.556 0 0 0 .04.563c.05-.086.064-.44.058-.15-.1.167.155.65.162.274.04-.238.026.256.1.33.166.293.15-.27.188-.38.027-.21.04-.155.006 0-.034.19.035-.4.048-.073.023.168 0 .63.176.263.143-.217.177-.22.02-.027-.05.072.235-.4.122-.07a1.213 1.213 0 0 0 .14.738c.108-.12.046-.748.153-.317.04.122 0 .46.174.2a.8.8 0 0 0 .27-.655c.022-.142.116-.37.2-.12-.058.328.313.537.268.85a.877.877 0 0 0-.02-.827c-.023-.273.452-.11.334.13-.014.173.256.617.277.206.036-.2.153-.212.127.007.05.14.258.555.235.194a1.5 1.5 0 0 1 .062-.588c.068.118.075.3.156.075.165 0 .065.416.274.506.083.15.292.4.233.073.033-.176-.14-.54-.065-.587.22.253.3.59.594.8.28.13.034-.362.02-.49-.168-.083-.3-.41-.068-.155a1.643 1.643 0 0 0 .68.476c-.123-.083-.235-.114-.026 0 .156.06-.092-.354-.182-.425-.08-.132-.47-.325-.36-.416.306.06.395.366.58.557.116.09.394.278.24 0 .086-.033.515.4.413.054-.07-.15-.447-.423-.406-.44.13.172.05.05-.05-.04.37.038.59.38.824.6.03.1.115.606 0 .276-.24-.095.094.45-.17.38-.012-.12-.245-.374-.132-.123.194.366.048.768.065 1.154a5.38 5.38 0 0 1-.02.568c.014-.14.026-.372 0-.067-.008.212-.093-.306-.21-.332-.023-.1-.113-.583-.19-.293 0 .285.3.583.06.834-.08.07-.122.268-.165.06a2.243 2.243 0 0 0-.4-.707c-.087-.157-.386-.536-.3-.138a1.557 1.557 0 0 1 .073.55 5.88 5.88 0 0 0-.43-.788c.024.12.18.63.044.3a1.02 1.02 0 0 0-.542-.663c-.08-.008.2.48.09.482-.026-.157-.18-.506-.335-.443a2.924 2.924 0 0 1 .06.828c.016.28-.187-.278-.254-.352-.3-.168.022.472-.214.225a.488.488 0 0 1-.275-.487c-.354-.055-.218.29-.234.484-.03.148-.117.43-.215.473a4.785 4.785 0 0 1-.02-.657c.058-.125-.005-.448-.17-.295-.03.283.173.643-.056.874-.123.128-.347-.2-.56-.11-.27-.128-.158-.524-.34-.732-.183-.175-.1.7-.217.285.086-.263-.438-.367-.335-.085a.48.48 0 0 1 .135.43c.036.186-.115.24-.15.03-.015-.23-.447-.326-.358-.022-.227-.133-.014.527-.29.324-.314-.2-.514.177-.857.1-.194.03-.66.077-.378-.183.265-.147.376-.59.744-.363a1.655 1.655 0 0 0 .81-.366c.187-.115.1-.41-.127-.228-.19.264-.74.264-.905.243.163-.142.662-.163.54-.41-.184.013-.506.265-.61.118.065-.065.275-.244.032-.166a2.648 2.648 0 0 1-.952.047c-.317-.285.462-.207.45-.394-.076-.006-.38.032-.247-.07a.78.78 0 0 0 .7-.2c.11-.107.5-.35.4-.436-.285.15-.585.408-.943.258.308-.21-.12-.228-.313-.208-.142.04-.535-.107-.2-.1.228.045.455-.246.1-.19a1.093 1.093 0 0 0-.23-.012zM34.288 21.865a1.517 1.517 0 0 1-.048-.412 1.656 1.656 0 0 1 .27-.25 2.224 2.224 0 0 1 .52-.236.71.71 0 0 0 .336-.216c.043-.117-.033-.307.088-.37.15-.076.31-.124.462-.193a1.325 1.325 0 0 1 .517-.038c.138.054.277.1.414.16a.868.868 0 0 1 .3.245 1.68 1.68 0 0 0 .335.193.058.058 0 1 1 0 .115c-.04.168-.268.026-.31-.073.037-.066.02.15-.05.15-.13.054-.126-.147-.145-.224.016-.065-.04-.142-.07-.04-.086.087.094.275-.094.223a.586.586 0 0 0-.417.04c-.1.1.11.138.176.185.09.077.208 0 .31-.01a.62.62 0 0 1 .433.04c.06.12-.06.24-.176.29a1.033 1.033 0 0 1-.352.09c-.177.007-.142.208-.315.224a.737.737 0 0 1-.352.038c-.022-.058.118-.15.133-.24.126-.138-.182-.112-.137.02.02.09-.192.22-.12.07 0-.083.1-.21-.06-.15-.085 0-.26 0-.21.117a.546.546 0 0 1-.332-.025.193.193 0 0 0-.327-.07c-.1.127-.25-.04-.355.026 0 .12.133.182.25.18a1.6 1.6 0 0 1 .367-.01c.11.12-.108.16-.212.143a3.7 3.7 0 0 0-.406-.07c-.068-.008-.223.07-.077.08.108.02.33.014.28.17-.084.036-.19 0-.285.034-.057-.014-.226.028-.132-.016-.05-.08-.146-.124-.21-.193z" fill="#fff"/><path d="M34.905 21.24a.87.87 0 0 0-.117.075 2.418 2.418 0 0 0-.234.15c-.045.033-.045.047-.1.056a.552.552 0 0 0 .215-.074.52.52 0 0 0 .253-.075c.05-.015 0-.09-.02-.13zM35.8 20.358c.01 0 .034.06.078.094a.613.613 0 0 1 .06.206 2.035 2.035 0 0 0 .077-.262c-.03-.05-.032-.073-.117-.075.002.05.01.018-.098.038zM36.156 20.377v.023c0-.05 0-.025.02.075a.46.46 0 0 1 .04.225.363.363 0 0 0 .116-.17c0-.15-.022-.142-.176-.153zM36.88 22.534h.02c-.057 0-.025 0 .08-.056a.732.732 0 0 1 .214-.132.8.8 0 0 1 .253-.13c.046-.02.087-.056.137-.02a.175.175 0 0 1-.117.17.467.467 0 0 1-.176.112c-.062.027-.132.028-.155.093-.106.046-.12.04-.254-.036zM37.25 23.078c.035-.025.157-.143.215-.188a.846.846 0 0 1 .2-.187c.056-.08.13-.135.175-.206s.095-.117.157-.188a.663.663 0 0 0 .02.243.358.358 0 0 1-.06.225.33.33 0 0 1-.175.15 1.54 1.54 0 0 0-.215.112 1.835 1.835 0 0 1-.176.094c-.055.023-.03.013-.136-.056zM36.644 23.51h.02c-.058 0-.025 0 .078-.057A.684.684 0 0 1 37 23.3a.682.682 0 0 0 .235-.056c.047-.008.08-.036.117 0 .06.08.078.1-.02.15a.59.59 0 0 1-.2.094.628.628 0 0 1-.235.056c-.08 0-.124.01-.156-.038l.157.038a.557.557 0 0 1-.253-.035zM37.485 23.51v-.02c0 .053 0 .025.04-.074.072-.105.1-.163.2-.188a.458.458 0 0 1 .214-.094c.034.057.007.122 0 .188a.635.635 0 0 1-.138.17.385.385 0 0 1-.176.092c-.08 0-.04 0-.14-.075z" fill="#bbbcbb"/><path d="M35.2 21.127c-.044 0 .077-.042.117-.056a.324.324 0 0 1 .117-.15.242.242 0 0 1 .2.095 1.466 1.466 0 0 0 .214.075c.04.03.09.034 0 .056a.52.52 0 0 1-.234.038.638.638 0 0 0-.235.056c-.13 0-.11 0-.176-.113z" fill="#c3c3c0" stroke="#000" stroke-width=".1"/><path d="M35.472 20.977a.094.094 0 1 1-.1.094.1.1 0 0 1 .1-.093z"/><path d="M35.8 26.3h.078c-.245 0-.1-.015.313.3.173-.138.17-.156.314.075.082.132.106-.013.234-.15.062.273.1.56.313.3a1.245 1.245 0 0 1 .626.075c.158.283.106-.048.234.075.345.04.338-.283.713-.366.233.278.335.063.625-.076.216.058.42.372.46.066.176-.276.192-.253.313 0 .172.15.244-.074.39-.15a1.225 1.225 0 0 0 .94.075c.064.25.228.142.39.075a.825.825 0 0 0 .86 0c.2-.22.084.006.234.15a.854.854 0 0 1 .547-.075c.34 0 .366-.008.47-.225.17.163.23.28.47.075.363.01.25.044.468-.075.16.342.2.095.39.225a1.24 1.24 0 0 1-.546.6c-.15.24-.245.5-.548.6a6.148 6.148 0 0 1-.7.525 4.8 4.8 0 0 1-1.094.075h-3.28a4.362 4.362 0 0 1-.94.225 3.96 3.96 0 0 1-1.015-.075c-.168-.16-.462-.34-.626-.525-.166-.128-.17-.38-.313-.525-.13-.215-.17-.55-.313-.75V26.3zM43.385 26.98v.074c0-.21.01-.1-.156.3-.035.1-.108.12-.236.15M42.682 27.28h.078c-.29.262-.484.383-.547.675l.547-.676c-.29.262-.484.383-.547.675M41.588 26.9a1.024 1.024 0 0 1-.08.375" fill="#0b5229" stroke="#102b18" stroke-width=".1"/><path d="M41.275 27.43zM40.65 26.98zM36.273 26.98c.037 0 .19.238.39.374a.9.9 0 0 0 0 .676M36.9 27.43c.038 0 .19.238.39.375l-.39-.375c.038 0 .19.238.39.375v.075a1.112 1.112 0 0 1 .08-.6c.086.142.2.37.234.15a2.84 2.84 0 0 0 .938-.224c0 .11-.02.057.078.15M43.932 27.054h.078a3.407 3.407 0 0 0-.39.526M40.728 26.83h.625" fill="#0b5229" stroke="#102b18" stroke-width=".1"/><path d="M35.62 27.4c-.94 0-1.25.9-2.19.9h-.054v.054a9.574 9.574 0 0 0 .148 1.75c.867-.057 1.19-.9 2.1-.9.94 0 1.253.9 2.193.9s1.254-.9 2.194-.9 1.254.9 2.194.9 1.254-.9 2.194-.9c.9 0 1.228.838 2.09.9a9.578 9.578 0 0 0 .154-1.8h-.053c-.94 0-1.253-.9-2.192-.9s-1.254.9-2.194.9-1.253-.9-2.193-.9-1.253.9-2.193.9-1.254-.9-2.193-.9zM35.62 30.92c-.73 0-1.082.544-1.645.787a8.082 8.082 0 0 0 .7 1.364 1.592 1.592 0 0 1 .948-.344c.94 0 1.253.9 2.193.9s1.254-.9 2.194-.9 1.253.9 2.193.9 1.254-.9 2.194-.9a1.57 1.57 0 0 1 .93.333 8.1 8.1 0 0 0 .7-1.36c-.554-.245-.906-.78-1.63-.78-.94 0-1.254.9-2.194.9s-1.253-.9-2.193-.9-1.254.9-2.194.9-1.254-.9-2.193-.9zM40.008 34.44c-.94 0-1.254.9-2.194.9-.89 0-1.218-.808-2.046-.9a10.42 10.42 0 0 0 3.218 2.194c.29-.206.59.25 1.022.25s.727-.46 1.015-.254a10.558 10.558 0 0 0 3.187-2.186c-.8.108-1.133.892-2.01.892-.94.008-1.252-.896-2.192-.896z" fill="#fff"/><path d="M34.19 31.376a7.85 7.85 0 0 1 .924-.247l1.44 1.332-1.183.22-1.18-1.306zM37 33.09a21.6 21.6 0 0 1 .653-2.07M37.216 33.11c0-.02.5-2.072.5-2.072M37.387 33.113c.022-.116.416-2.075.416-2.075M37.172 32.528a1.427 1.427 0 0 0 .327-.077M37.237 32.3a1.94 1.94 0 0 1 .327-.078M37.28 32.005l.35-.058M37.433 31.754a1.024 1.024 0 0 0 .24.02M40.875 34.458c-.026-.53-.77-3.546-.77-3.546M40.618 34.36c0-.035-.59-3.414-.59-3.414M40.36 34.094c-.025-.2-.436-3.148-.436-3.148M40.85 34.027a2.705 2.705 0 0 0-.515-.232M40.67 33.5a1.272 1.272 0 0 1-.386-.132M40.592 33.1a1.726 1.726 0 0 0-.385-.133M40.54 32.6l-.41-.1M40.36 32.172c0 .033-.282.033-.282.033M40.284 31.774a2.345 2.345 0 0 0-.284.066M42.85 32.976a1.58 1.58 0 0 1-.385-.1M43.056 33.692c-.026-.4-.77-2.64-.77-2.64M42.8 33.618c0-.025-.59-2.54-.59-2.54M42.542 33.42c-.026-.147-.437-2.343-.437-2.343M42.773 32.68a2.266 2.266 0 0 0-.385-.1M42.722 32.31l-.41-.074M42.542 31.99c0 .024-.283.024-.283.024M42.465 31.694c-.052 0-.283.05-.283.05" stroke="#51230f" stroke-width=".1" fill="none"/><path d="M39.74 33.99l.077-6.192s.232-.024.232 0-.027 6.168-.053 6.193-.282.05-.257 0zM42.26 28.07l-.052 5.206-.18.2.05-5.4zM37.787 32.807c.026-.148.026-4.614.026-4.614l-.154-.025-.027 4.565.154.074zM36.81 31.13c.1 0 1.85-.272 1.85-.272l-.025.27-1.722.174-.1-.173zM36.836 29.7c.1.025 2.108-.518 2.108-.518s0 .173-.026.173-2.082.518-2.082.518V29.7zM36.913 28.982a.424.424 0 0 0 .026.223l1.67-.543s.077-.124 0-.124-1.722.494-1.7.444zM39.124 28.637c.05 0 1.722-.518 1.722-.518s.025.22 0 .22-1.568.445-1.568.445l-.154-.148zM38.995 29.28s-.05.22-.026.22 2.184-.542 2.184-.542v-.148l-2.16.47zM39.072 31.03v.17l1.85-.247-.05-.123-1.8.2zM41.205 31.154l.026.148s1.852-.222 1.852-.247 0-.173-.026-.173-1.825.296-1.85.272zM41.18 29.575l.025.172 2.185-.567s.05-.148.026-.148a22.7 22.7 0 0 1-2.236.543zM41.41 28.785s-.025.148 0 .148 1.62-.37 1.62-.394.155-.174.026-.15a12.178 12.178 0 0 1-1.645.395z" fill="#de8a59" stroke="#51230f" stroke-width=".1"/><path d="M37.916 29.28c.23-.075.077-.248.128-.248s.23.123.334.025.18-.395.13-.37a9.714 9.714 0 0 1-1.395.408 1.826 1.826 0 0 0 .8.184zM41.488 28.933s.13.3.257.247a1.184 1.184 0 0 0 .255-.148s.1.247.283.2.283-.32.283-.32a.66.66 0 0 0 .257.024c.077-.025.18-.42.18-.42l-1.517.42zM41.334 31.327c-.026.05.13.172.257.172s.18-.173.207-.124.025.27.36.2.334-.3.334-.3-.1.074.13.1.462-.32.436-.32-1.67.295-1.722.27zM41.334 29.723a.77.77 0 0 0-.18.64 2.614 2.614 0 0 0 .206.692c.025 0 .308-.493.617-.518a2.308 2.308 0 0 1 .873.27 5.625 5.625 0 0 1-.05-.862 2.01 2.01 0 0 1 .462-.74l-1.928.518zM36.888 31.327c.025 0 0 .222.205.172a.353.353 0 0 0 .257-.173.306.306 0 0 0 .334.246.622.622 0 0 0 .437-.32s.027.222.207.148a.42.42 0 0 0 .23-.246l-1.618.222zM36.888 29.87s-.232.075-.155.52a1.28 1.28 0 0 0 .283.69c.026 0 .23-.42.54-.494a1.646 1.646 0 0 1 .848.222 2.6 2.6 0 0 1 .026-.764 1.48 1.48 0 0 1 .334-.642s-1.8.47-1.876.47zM39.175 28.71c.1.026.283.272.386.223a1.415 1.415 0 0 0 .258-.2s-.026.3.18.246a.306.306 0 0 0 .23-.247.334.334 0 0 0 .283 0c.13-.074.258-.444.207-.444s-1.49.443-1.542.418zM39.124 29.427a1.52 1.52 0 0 0-.18.814 2.188 2.188 0 0 0 .257.716 2.392 2.392 0 0 1 .746-.468 1.243 1.243 0 0 1 .8.246 1.66 1.66 0 0 1-.13-.64A5.044 5.044 0 0 1 41 28.98l-1.876.445zM39.124 31.2a.276.276 0 0 0 .257.2.2.2 0 0 0 .2-.173s-.024.3.258.27a.482.482 0 0 0 .386-.3s.025.15.257.075a1.516 1.516 0 0 0 .52-.316 16.31 16.31 0 0 1-1.876.247z" fill="#fdcf3f" stroke="#51230f" stroke-width=".1"/><path d="M36.888 32.98a2.89 2.89 0 0 0 3.212 2.467 4.03 4.03 0 0 0 3.778-2.566s-1.26-.05-1.285-.05a3.54 3.54 0 0 1-2.313 1.16 2.693 2.693 0 0 1-1.98-.566 4.013 4.013 0 0 1-.54-.617l-1.49-.568.078.542.54.2zM44.867 32.716c-.026-.074-.09-.33-.09-.33v-.3l.143-.3s-2.236.308-2.236.333l-.014.583 2.2.008zM44.444 32.09l-.05.52h.358l-.025-.52zM44.058 32.116l-.025.543.23-.026.027-.518zM43.673 32.66v-.42l.23-.075.027.42zM43.236 32.634l.05-.37.258.025.026.393-.334-.05zM42.747 32.634l.026-.32.257-.025v.37zM42.49 32.832l2.442.05.026-.174-2.52-.025zM42.593 32.215c.283 0 2.416-.4 2.416-.4s.076-.247 0-.247-2.417.47-2.417.47v.172zM34.112 31.35l1.953.914-.05.123s-1.878-.838-1.878-.863.026-.124-.025-.173zM35.01 31.08c0 .074.284 1.58.284 1.58s.18.023.18 0-.308-1.556-.308-1.556l-.155-.024z" fill="#de8a59" stroke="#51230f" stroke-width=".1"/><path d="M38.96 33.867c.026-.41.772-2.744.772-2.744M39.218 33.894c0-.025.59-2.745.59-2.745M39.42 33.9c.026-.153.492-2.75.492-2.75M38.986 33.533a3.132 3.132 0 0 1 .514-.18M39.166 33.123a1.52 1.52 0 0 0 .386-.1M39.243 32.815a2.2 2.2 0 0 1 .386-.1M39.3 32.43l.41-.076M39.475 32.1c0 .026.282.026.282.026M39.552 31.79c.05 0 .283.05.283.05M41.142 33.85c.025-.396.77-2.64.77-2.64M41.4 33.775c0-.025.59-2.54.59-2.54M41.656 33.577c.025-.148.436-2.343.436-2.343M41.167 33.528a3.25 3.25 0 0 1 .514-.173M41.347 33.133a1.58 1.58 0 0 0 .386-.1M41.424 32.837a2.277 2.277 0 0 1 .386-.1M41.476 32.467l.41-.074M41.656 32.147c0 .024.282.024.282.024M41.733 31.85c.05 0 .282.05.282.05M38.676 33.586c-.026-.4-.77-2.656-.77-2.656M38.42 33.51c0-.024-.592-2.555-.592-2.555M38.162 33.313c-.026-.15-.437-2.358-.437-2.358M38.65 33.263a3.25 3.25 0 0 0-.514-.174M38.47 32.866a1.57 1.57 0 0 1-.385-.1M38.393 32.568a2.18 2.18 0 0 0-.385-.1M38.342 32.2l-.41-.075M38.162 31.873c0 .025-.283.025-.283.025M38.085 31.575c-.052 0-.283.05-.283.05" stroke="#51230f" stroke-width=".1" fill="none"/><path d="M36.22 32.264s-.515-.074-.49.05.258.246.284.32-.077.345.077.32.31-.123.31-.2-.026-.418-.026-.418l-.155-.074z" fill="#b5b5b3" stroke="#51230f" stroke-width=".1"/><path d="M36.785 32.955c.077 0 .668.123.668.123l.617.79M37.222 33.054c.025.024.54 1.677 3.007 1.677a3.03 3.03 0 0 0 3.057-1.874M43.673 32.906S42.49 35.373 40.23 35.2s-2.623-.987-2.8-1.406a7.734 7.734 0 0 1-.283-.765M43.03 30.907c.026-.074.1-1.554.1-1.554M44.83 31.647l-1.594-2.418M40 27.872a5.483 5.483 0 0 1 .8.346c0 .024 2.827 3.626 2.853 3.626M42.234 28.218l.72.3.23.542M37.76 28.168c-.024 0 .8.593.8.593l.1.494M34.96 31.77c.36-.147 2.853-2.245 2.853-2.245M34.292 31.376c.308-.247 2.8-2.27 2.8-2.27M38.97 29.45l2.647 4.22M41.3 31.2s.313.994.62 1.142a5.994 5.994 0 0 1 .67.395M41.27 31.217s.218 1.17.526 1.392.617.468.617.468M39.137 31.135s.308 1.628.925 2 1.13.69 1.13.69M39.11 31.11a6.2 6.2 0 0 0 1.235 1.678 11.326 11.326 0 0 0 1.336.765M36.952 31.21c.18.3.154.863.36 1.06a5.614 5.614 0 0 1 .514.64M37 31.234c.1.148.39.885.565 1.11.13.2 1.44 1.456 1.44 1.456" stroke="#51230f" stroke-width=".1" fill="none"/><path d="M38.38 33.676a.185.185 0 1 1-.194.185.19.19 0 0 1 .193-.184zM39.355 34.1a.16.16 0 1 1-.167.16.163.163 0 0 1 .167-.16zM40.563 34.194a.16.16 0 1 1-.167.16.164.164 0 0 1 .167-.16zM41.643 33.836a.137.137 0 1 1-.154.136.146.146 0 0 1 .153-.136zM42.465 33.33a.162.162 0 1 1-.14.16.152.152 0 0 1 .14-.16z" stroke="#51230f" stroke-width=".1"/><path d="M37.646 28.2c-.077.05-1.362.345-1.182.32s1.208.247 1.182.173a3.116 3.116 0 0 1 0-.493zM39.83 27.83c-.05 0-.8.27-.77.27a6.27 6.27 0 0 0 .822.173c-.026-.05-.026-.37-.05-.444zM42.067 28.076c-.052.024-.925.22-.77.246a5.1 5.1 0 0 0 .744.173 2.138 2.138 0 0 1 .027-.42z" fill="#ec2224" stroke="#51230f" stroke-width=".1"/><path d="M39.22 30.012a.136.136 0 0 1 .14-.126.13.13 0 1 1-.14.126zM40.144 29.785a.137.137 0 1 1 .13.136.134.134 0 0 1-.13-.135zM39.682 30.255a.133.133 0 0 1 .14-.125.132.132 0 0 1 .132.136.136.136 0 0 1-.272-.01zM39.682 29.542a.136.136 0 1 1 .13.136.134.134 0 0 1-.13-.136zM39.682 29.9a.136.136 0 1 1 .13.137.133.133 0 0 1-.13-.137z" fill="#bc2026" stroke="#51230f" stroke-width=".1"/><path d="M-16.592 11.166h9.3l-9.3-5.185V3h5.32l13.01 7.21V3h7.325v7.21L22.073 3h5.365v2.98l-9.345 5.186h9.345v8.17h-9.345l9.345 5.184v2.98h-5.366l-13.01-7.21v7.21H1.738v-7.21L-11.27 27.5h-5.322v-2.98l9.3-5.185h-9.3z" fill="#fff"/><path d="M23.977 3l-14.7 8.168H12.8L27.438 3zM27.438 27.5l-14.655-8.166h3.534l11.12 6.217zM-1.9 19.334L-16.592 27.5h3.516l14.7-8.163zM-16.592 12.86H3.3V3h4.3v9.857h19.838v4.783H7.6v9.86H3.3v-9.856h-19.89z" fill="#ce202c"/></g></svg>