<svg xmlns="http://www.w3.org/2000/svg" viewBox="0 0 55 55"><defs><clipPath id="a"><circle cx="27.5" cy="27.5" r="23.32" fill="none"/></clipPath></defs><g clip-path="url(#a)"><path d="M1.18 4.18h20.54v13.7L1.18 4.18zm32.1 0h20.54l-20.54 13.7V4.18zM62.48 10v9.8H47.71L62.48 10zm0 25.25V45l-14.77-9.8zm-8.66 15.57H33.28v-13.7l20.55 13.7zm-32.1 0H1.18l20.55-13.7v13.7zM-7.48 45v-9.8H7.29L-7.48 45zm0-25.25V10l14.77 9.8z" fill="#214097" fill-rule="evenodd"/><path fill="#f4f4f5" d="M62.48 45.05L47.71 35.2h14.77V19.8H47.71l14.77-9.85V4.18h-8.66l-20.54 13.7V4.18H21.72v13.7L1.18 4.18h-8.66v5.77L7.29 19.8H-7.48v15.4H7.29l-14.77 9.85v5.77h8.66l20.54-13.7v13.7h11.56v-13.7l20.54 13.7h8.66v-5.77z"/><path d="M31.11 4.18v18.51h31.37v9.62H31.11v18.51h-7.22V32.31H-7.48v-9.62h31.37V4.18h7.21zm31.37 44.47L42.3 35.2h-6.49l23.42 15.62h3.25v-2.17zM42.3 19.8L62.48 6.35V4.18h-3.25L35.81 19.8zm-23.11 0L-4.23 4.18h-3.25v2.17L12.7 19.8zM12.7 35.2L-7.48 48.65v2.16h3.25L19.19 35.2z" fill="#ee2724" fill-rule="evenodd"/></g></svg>