<svg xmlns="http://www.w3.org/2000/svg" viewBox="0 0 55 55"><defs><clipPath id="a"><circle cx="-42.5" cy="27.5" r="23.3" fill="none"/></clipPath></defs><path fill="#273376" d="M-86.592 3.004H1.592v48.99h-88.184z" clip-path="url(#a)"/><path d="M50.8 27.5a23.28 23.28 0 0 1-18.626 22.824 23.156 23.156 0 0 1-9.342 0A23.353 23.353 0 0 1 4.676 32.168a23.156 23.156 0 0 1 0-9.342A23.3 23.3 0 0 1 50.8 27.5z" fill="#fff"/><path d="M50.8 27.5a23.29 23.29 0 0 1-.47 4.673H32.174v18.15a23.156 23.156 0 0 1-9.342 0V32.17H4.676a23.156 23.156 0 0 1 0-9.342h18.156V4.67a23.446 23.446 0 0 1 9.342 0v18.156H50.33a23.37 23.37 0 0 1 .47 4.674zM19.852 15.952c0-.392.057-1.568.057-1.568s-1.867.24-3.29.36c.127-1.416.367-3.283.367-3.283s-1.176.06-1.574.06-1.573-.06-1.573-.06.246 1.868.366 3.284c-1.417-.12-3.283-.36-3.283-.36s.057 1.176.057 1.568-.057 1.573-.057 1.573 1.866-.24 3.283-.365c-.12 1.42-.366 3.288-.366 3.288s1.18-.058 1.573-.058 1.574.058 1.574.058-.24-1.867-.366-3.288c1.423.125 3.29.365 3.29.365s-.058-1.176-.058-1.573zM19.852 38.912c0-.392.057-1.573.057-1.573s-1.867.244-3.29.365c.127-1.417.367-3.283.367-3.283s-1.176.057-1.574.057-1.573-.058-1.573-.058.246 1.866.366 3.283c-1.417-.12-3.283-.366-3.283-.366s.057 1.18.057 1.572-.057 1.574-.057 1.574 1.866-.24 3.283-.366c-.12 1.422-.366 3.288-.366 3.288s1.18-.063 1.573-.063 1.574.063 1.574.063-.24-1.866-.366-3.288c1.423.125 3.29.366 3.29.366s-.058-1.177-.058-1.574zM44.02 38.912c0-.392.062-1.573.062-1.573s-1.866.244-3.288.365c.126-1.417.366-3.283.366-3.283s-1.176.057-1.573.057-1.574-.058-1.574-.058.246 1.866.366 3.283c-1.418-.12-3.284-.366-3.284-.366s.058 1.18.058 1.572-.058 1.574-.058 1.574 1.866-.24 3.283-.366c-.12 1.422-.367 3.288-.367 3.288s1.18-.063 1.574-.063 1.573.063 1.573.063-.24-1.866-.366-3.288c1.422.125 3.288.366 3.288.366s-.062-1.177-.062-1.574zM44.02 15.952c0-.392.062-1.568.062-1.568s-1.866.24-3.288.36c.126-1.416.366-3.283.366-3.283s-1.176.06-1.573.06-1.574-.06-1.574-.06.246 1.868.366 3.284c-1.418-.12-3.284-.36-3.284-.36s.058 1.176.058 1.568-.058 1.573-.058 1.573 1.866-.24 3.283-.365c-.12 1.42-.367 3.288-.367 3.288s1.18-.058 1.574-.058 1.573.058 1.573.058-.24-1.867-.366-3.288c1.422.125 3.288.365 3.288.365s-.062-1.176-.062-1.573z" fill="#ff0302"/></svg>