<svg xmlns="http://www.w3.org/2000/svg" viewBox="0 0 55 55"><path d="M50.8 27.5a23.412 23.412 0 0 1-.737 5.816 23.128 23.128 0 0 1-2.39 5.83 23.286 23.286 0 0 1-40.346 0 23.247 23.247 0 0 1 0-23.3A23.3 23.3 0 0 1 50.8 27.5z" fill="#fff"/><path d="M50.8 27.5a23.412 23.412 0 0 1-.737 5.816H33.318v16.747a23.333 23.333 0 0 1-11.636 0V33.316H4.937a23.337 23.337 0 0 1 0-11.637h16.745V4.93a23.487 23.487 0 0 1 11.636 0V21.68h16.745a23.482 23.482 0 0 1 .737 5.82z" fill="#e7122c"/><path fill="#f8dc24" d="M43.055 25.56H29.438V11.946l1.903-1.904H23.66l1.902 1.904V25.56H11.945l-1.903-1.9v7.68l1.903-1.9h13.617v13.614l-1.903 1.904H31.34l-1.902-1.904V29.44h13.617l1.904 1.9v-7.68l-1.905 1.9z"/></svg>