<svg xmlns="http://www.w3.org/2000/svg" viewBox="0 0 55 55"><defs><clipPath id="a"><circle cx="97.5" cy="27.5" r="23.3" fill="none"/></clipPath></defs><path d="M27.5 4.2A23.33 23.33 0 0 0 5.534 19.733h43.932A23.336 23.336 0 0 0 27.5 4.2z" fill="#ce1126"/><path d="M50.8 27.5a23.14 23.14 0 0 0-1.334-7.767H5.534a23.278 23.278 0 0 0 0 15.534h43.932A23.185 23.185 0 0 0 50.8 27.5z" fill="#fcd116"/><path d="M5.534 35.267a23.3 23.3 0 0 0 43.932 0z" fill="#006b3f"/><path d="M27.5 19.733l1.925 5.93h6.24l-5.048 3.668 1.93 5.937-5.047-3.672-5.047 3.672 1.925-5.936-5.047-3.666h6.24l1.93-5.93z"/><g clip-path="url(#a)"><path fill="#d81f26" d="M54.702 35.58h85.595v15.696H54.702z"/><path fill="#fff" d="M54.702 3.724h85.595V35.58H54.702z"/></g></svg>