<svg xmlns="http://www.w3.org/2000/svg" viewBox="0 0 55 55"><path d="M44.283 11.355a23.292 23.292 0 0 0-36.223 3.32c-.262.388-.508.78-.738 1.188-.245.424-.48.858-.7 1.3-.215.42-.408.847-.59 1.276a23.293 23.293 0 0 0 .02 18.16c.183.434.38.858.59 1.276s.44.848.68 1.266c.23.4.476.795.738 1.182a23.29 23.29 0 1 0 36.223-28.97z" fill="#009d4a"/><path d="M50.8 27.5L8.06 40.324c-.262-.387-.508-.78-.738-1.182-.24-.418-.47-.837-.68-1.266s-.407-.842-.59-1.276a23.293 23.293 0 0 1-.016-18.164c.183-.43.376-.857.59-1.276.215-.44.45-.873.7-1.3.23-.408.477-.8.74-1.187z" fill="#fff"/><path d="M46.12 27.5L7.32 39.142c-.24-.418-.47-.837-.68-1.266s-.407-.842-.59-1.276a23.293 23.293 0 0 1-.016-18.164c.183-.43.376-.857.59-1.276.215-.44.45-.873.7-1.3z" fill="#fbd023"/><path d="M23.89 27.563L6.643 37.876c-.21-.418-.407-.842-.59-1.276a23.293 23.293 0 0 1-.016-18.164c.183-.43.376-.857.59-1.276z"/><path d="M21.276 27.558L6.05 36.6a23.293 23.293 0 0 1-.014-18.164z" fill="#cd1225"/></svg>