<svg xmlns="http://www.w3.org/2000/svg" viewBox="0 0 55 55"><path d="M27.5 4.2A23.343 23.343 0 0 0 5.534 19.733h43.932A23.343 23.343 0 0 0 27.5 4.2z" fill="#0a73cd"/><path d="M50.8 27.5a23.185 23.185 0 0 0-1.334-7.767H5.534a23.278 23.278 0 0 0 0 15.534h43.932A23.14 23.14 0 0 0 50.8 27.5z" fill="#fff"/><path d="M5.534 35.267a23.3 23.3 0 0 0 43.932 0zM27.5 25.392l.58 1.78h1.868l-1.512 1.097.575 1.777-1.51-1.098-1.51 1.097.58-1.778-1.512-1.1h1.867l.575-1.778zM15 21.433l.575 1.778h1.873l-1.512 1.1.576 1.778L15 24.99l-1.51 1.098.574-1.778-1.512-1.1h1.873L15 21.434zM15 28.917l.575 1.773h1.873l-1.512 1.1.576 1.777L15 32.47l-1.51 1.097.574-1.778-1.512-1.1h1.873L15 28.917zM40.005 21.433l.575 1.778h1.868l-1.512 1.1.58 1.778-1.51-1.098-1.518 1.098.58-1.778-1.51-1.1h1.867l.58-1.777zM40.005 28.917l.575 1.773h1.868l-1.512 1.1.58 1.777-1.51-1.098-1.518 1.097.58-1.778-1.51-1.1h1.867l.58-1.773z" fill="#0a73cd"/></svg>