<svg xmlns="http://www.w3.org/2000/svg" viewBox="0 0 55 55"><circle cx="27.5" cy="27.5" r="23.3" fill="#ce142a"/><path d="M43.53 18.65c.016.13-.094.278-.287.393a1.438 1.438 0 0 1-.215.1l-1.25-1.04a3.8 3.8 0 0 1 1.2.136c.338.107.537.254.552.41zM42.87 19.2c-.182.068-.428.152-.726.246L40.93 18.18c.21-.036.424-.057.634-.073.387.324.936.78 1.307 1.093zM41.2 19.744c-.372.11-.72.214-.973.282-.24-.533-.56-1.255-.758-1.71l.51.063c.39.433.862.96 1.22 1.364zM40.09 20.068l-.07.016c-.046.015-.088.026-.125.036a1.78 1.78 0 0 0-.376.162 3.9 3.9 0 0 0-.906-.89 1.715 1.715 0 0 0 .167-1.14c.127.012.315.027.524.048.196.44.53 1.2.785 1.768zM36.135 27.327a3.182 3.182 0 0 0-1.083-.162A3.2 3.2 0 0 1 35 25.528c.183-.068.44-.162.7-.235h.005l.173-.047c-.005.068-.01.136-.01.2a.018.018 0 0 0 0 .015 5.678 5.678 0 0 0 .267 1.867zM38.483 19.33a.462.462 0 0 0-.444-.01c-.33.178-.388.8-.43 1.255v.037a3.116 3.116 0 0 1-.534 2.087 1.62 1.62 0 0 0-.8-.655 7.008 7.008 0 0 1 .372-.622 4.4 4.4 0 0 0 .758-2.1.043.043 0 0 0-.005-.036c-.365-.665-.166-.984.252-1.256.434-.276.884.18.9.195a.106.106 0 0 0 .047.026h.026a1.57 1.57 0 0 1-.143 1.08zM36.993 22.84c-.157.25-.346.544-.586.9a3.114 3.114 0 0 0-.5 1.35c-.073.015-.147.036-.225.056-.005 0-.005 0-.01.006-.23.062-.46.146-.64.21a12.9 12.9 0 0 1 1.183-3.186 1.488 1.488 0 0 1 .778.664zM38.55 23.16a7.927 7.927 0 0 1-.34 2.792 3.64 3.64 0 0 1-2.19-.534 3.157 3.157 0 0 1 .507-1.6c1.2-1.773 1.245-2.1 1.23-3.206v-.026c.036-.4.093-1 .355-1.14a.38.38 0 0 1 .366.042 3.333 3.333 0 0 1 .92.873c-.485.34-.993 1.104-.847 2.8zM37.835 27.15a6.418 6.418 0 0 0-.262.883v.027c.005.01.005.026.01.036a4.838 4.838 0 0 0-1.276-.71 5.654 5.654 0 0 1-.292-1.795 3.762 3.762 0 0 0 2.055.508h.1c-.11.393-.23.743-.335 1.052zM37.217 30.4l-.04-.04a.422.422 0 0 0 .16-.42.61.61 0 0 0-.2-.308 3.417 3.417 0 0 0-.308-.25 1.52 1.52 0 0 1-.66-.76 1.32 1.32 0 0 1 .053-1.11 4.434 4.434 0 0 1 1.4.812c.217 1.09.2 1.376-.406 2.076zM37.118 30.5c-.052.058-.1.115-.162.183a1.405 1.405 0 0 1-1.512.42 1.715 1.715 0 0 1-.313-1.136 1.706 1.706 0 0 0-.27-1.355 1.857 1.857 0 0 1 .235 0c.323 0 .533.21.773.54a1.674 1.674 0 0 1 .22.57 1.77 1.77 0 0 0 .23.59.478.478 0 0 0 .408.188.75.75 0 0 0 .32-.073zM27.573 43.138a3.818 3.818 0 0 1-.727.967c-.266.236-.49.33-.633.267a.475.475 0 0 1-.193-.45 1.607 1.607 0 0 1 .02-.235c.425-.146 1.047-.37 1.533-.55zM27.934 42.37a5.82 5.82 0 0 1-.26.58c-.472.167-1.142.408-1.6.57.03-.19.083-.434.156-.748zM28.562 41.046c-.105.14-.21.277-.314.408-.57.11-1.27.25-1.794.355.1-.408.193-.77.25-.984.587.068 1.37.157 1.858.22zM28.97 40.48c-.074.1-.173.247-.308.43-.477-.058-1.3-.157-1.92-.225.01-.047.02-.09.03-.125l.022-.068a1.48 1.48 0 0 0 .052-.4 4.1 4.1 0 0 0 1.224-.33 1.7 1.7 0 0 0 .9.72zM29.733 39.63c.02.51-.6.668-.627.673a.077.077 0 0 0-.042.032l-.01.02a1.585 1.585 0 0 1-.858-.674.506.506 0 0 0 .235-.376c.01-.376-.5-.742-.867-1.01l-.02-.015-.006-.006a3.085 3.085 0 0 1-1.528-1.522 1.623 1.623 0 0 0 .967-.35c.146.245.267.47.345.638a4.363 4.363 0 0 0 1.423 1.72.053.053 0 0 0 .036.016 1.2 1.2 0 0 1 .634.152.53.53 0 0 1 .225.256 1.245 1.245 0 0 1 .093.445zM26.9 36.276a1.513 1.513 0 0 1-.968.335c-.14-.26-.293-.575-.476-.962a3.123 3.123 0 0 0-.91-1.12c.02-.067.047-.14.068-.224v-.01a6.712 6.712 0 0 0 .14-.66 13.1 13.1 0 0 1 2.146 2.642zM28.285 39.3c-.006.11-.08.2-.225.3a3.484 3.484 0 0 1-1.22.345c-.046-.59-.444-1.417-1.98-2.154a7.917 7.917 0 0 1-2.23-1.71 3.644 3.644 0 0 1 1.575-1.616 3.173 3.173 0 0 1 1.12 1.25c.91 1.935 1.176 2.14 2.134 2.688l.02.016c.32.227.82.582.805.882zM24.06 34.367a3.873 3.873 0 0 0-1.534 1.6c-.282-.3-.523-.58-.737-.826a5.2 5.2 0 0 0-.63-.668.036.036 0 0 0-.02-.01.262.262 0 0 1-.036-.016 4.736 4.736 0 0 0 1.26-.738 5.6 5.6 0 0 1 1.695.66zM24.623 33.525c-.03.194-.078.46-.145.727a.005.005 0 0 0-.006 0l-.047.178c-.058-.042-.11-.078-.168-.115-.005-.005-.01-.005-.015-.01a5.744 5.744 0 0 0-1.742-.722 3.357 3.357 0 0 0 .7-.847 3.137 3.137 0 0 1 1.423.79zM22.3 33.567v.005a4.474 4.474 0 0 1-1.412.795C19.838 34 19.6 33.84 19.31 32.96l.057-.015a.41.41 0 0 0 .277.35.558.558 0 0 0 .367-.016 3.508 3.508 0 0 0 .377-.142 1.51 1.51 0 0 1 .99-.178 1.317 1.317 0 0 1 .923.607zM22.04 31.836c-.037.073-.08.14-.115.2-.173.277-.455.35-.858.387a1.58 1.58 0 0 1-.6-.094 1.744 1.744 0 0 0-.628-.1.586.586 0 0 0-.472.564l-.1.026c-.026-.073-.047-.146-.073-.23a1.406 1.406 0 0 1 .408-1.517 1.733 1.733 0 0 1 1.135.31 1.725 1.725 0 0 0 1.155.464 1.452 1.452 0 0 0 .147-.01zM34.676 27.374a2.11 2.11 0 0 0-.257.937.8.8 0 0 0-.12-.01 13.757 13.757 0 0 1-5.487-1.6c-.053-.032-.11-.058-.162-.09l-.026-.015c-.04-.02-.078-.047-.12-.068-.11-.063-.21-.126-.308-.188.125-.106.287-.242.5-.4s.482-.372.795-.608c.07-.057.143-.11.2-.157s.127-.094.184-.136a.193.193 0 0 1 .063.01c.236.1 1.193.59 2.118 1.062.942.48 1.92.978 2.213 1.108a2.527 2.527 0 0 0 .408.154zM35.246 31.04c-.094-.03-.19-.067-.267-.1a2.228 2.228 0 0 0-.34-.114c-.262-.042-.848-.1-1.585-.167-.41-.038-.874-.08-1.36-.127a19.043 19.043 0 0 1-3.426-.93 3.708 3.708 0 0 1-.21-.686c-.01-.062-.02-.13-.032-.193a7.39 7.39 0 0 1-.063-1.166v-.194l.006-.43v-.39a.616.616 0 0 1 .11-.11c.116.072.23.14.35.213.043.02.085.048.12.068l.033.016a1.4 1.4 0 0 0 .162.09 13.794 13.794 0 0 0 5.55 1.62.548.548 0 0 1 .156.033c.006 0 .006.005.01.005a.608.608 0 0 1 .195.126v.005a1.513 1.513 0 0 1 .33 1.317 1.707 1.707 0 0 0 .26 1.114zM27.442 29.535c-.35.235-1.056.685-1.8 1.16-.9.565-1.825 1.156-2.087 1.345a2.513 2.513 0 0 0-.35.272 2.1 2.1 0 0 0-.675-.7.733.733 0 0 0 .073-.1 13.69 13.69 0 0 1 4.143-3.885c.057-.037.11-.068.167-.1l.016.115c.014.09.035.178.05.267a15.5 15.5 0 0 0 .462 1.625zM26.85 25.643c-.13-.052-.276-.1-.427-.157-.13-.047-.272-.094-.408-.14h-.006c-.44-.147-.88-.29-1.224-.4-.053-.46-.13-1.225-.2-1.967-.11-1.052-.22-2.135-.272-2.46a2.6 2.6 0 0 0-.084-.428h.026a2.17 2.17 0 0 0 .9-.293.34.34 0 0 0 .058.11 13.875 13.875 0 0 1 1.63 5.537.248.248 0 0 0 0 .058v.084a.256.256 0 0 1 .007.053zM29.55 24.158c-.32.235-.77.575-1.2.9-.334.26-.575.444-.753.585-.094.074-.172.136-.23.19a.043.043 0 0 0-.02.02c-.074-.037-.19-.09-.346-.152 0-.04 0-.088-.01-.13a.48.48 0 0 0 0-.084v-.057a13.92 13.92 0 0 0-1.657-5.6.487.487 0 0 1-.063-.157.7.7 0 0 1 0-.236 1.515 1.515 0 0 1 .93-.994 1.717 1.717 0 0 0 .8-.816c.022.095.043.194.058.278a2.18 2.18 0 0 0 .09.345c.11.246.38.77.726 1.428.19.366.4.774.623 1.2a18.383 18.383 0 0 1 1.054 3.28zM26.94 17.416c-.157.3-.455.785-.78.884a1.7 1.7 0 0 0-.993.963c-.047-.074-.094-.136-.13-.2a1.007 1.007 0 0 1 .036-.942 1.612 1.612 0 0 1 .356-.5 1.778 1.778 0 0 0 .375-.512.588.588 0 0 0-.3-.675l.02-.1c.08.015.158.026.242.042a1.4 1.4 0 0 1 1.173 1.04zM25.387 16.313l-.016.057a.41.41 0 0 0-.433.09.657.657 0 0 0-.157.34c-.015.125-.026.266-.036.4a1.492 1.492 0 0 1-.283.96 1.347 1.347 0 0 1-.956.56l-.005-.005a4.5 4.5 0 0 1-.08-1.62c.806-.772 1.047-.913 1.967-.782zM23.844 19.885a3.214 3.214 0 0 1-1.344.93c-.157-.114-.37-.28-.58-.46l-.005-.005c-.048-.04-.095-.083-.137-.125a1.472 1.472 0 0 0 .173-.094 5.707 5.707 0 0 0 1.44-1.244 3.24 3.24 0 0 0 .454 1zM23.353 18.708A5.844 5.844 0 0 1 22 19.932a3.91 3.91 0 0 0-.742-2.087c.387-.12.747-.21 1.066-.293a5.28 5.28 0 0 0 .88-.26.025.025 0 0 0 .02-.012l.026-.03a4.618 4.618 0 0 0 .103 1.458zM22.343 20.88a13 13 0 0 1-3.32.736 1.52 1.52 0 0 1 .135-1.014c.3-.01.65-.006 1.072 0a3.16 3.16 0 0 0 1.412-.314c.053.052.105.105.168.157l.01.01c.18.162.37.314.523.424zM21.852 20.02a3.147 3.147 0 0 1-1.617.44c-2.138-.047-2.442.094-3.357.712l-.026.01c-.35.183-.89.466-1.15.32a.4.4 0 0 1-.168-.33 3.55 3.55 0 0 1 .24-1.245c.55.22 1.465.235 2.81-.806a8 8 0 0 1 2.53-1.233 3.68 3.68 0 0 1 .738 2.134zM18.88 21.627a6.586 6.586 0 0 1-.726.03 4.364 4.364 0 0 0-2.176.5.09.09 0 0 0-.03.032 1.24 1.24 0 0 1-.42.5.777.777 0 0 1-.768-.032c-.47-.21-.335-.837-.324-.863a.1.1 0 0 0-.01-.053.064.064 0 0 1-.012-.02 1.6 1.6 0 0 1 .984-.466.49.49 0 0 0 .235.382.556.556 0 0 0 .246.057 2.61 2.61 0 0 0 1.04-.38l.026-.012A3.118 3.118 0 0 1 19 20.607a1.6 1.6 0 0 0-.12 1.02zM15.64 19.864a3.862 3.862 0 0 0-.253 1.245 1.674 1.674 0 0 0-1.046.475l-.25-.46c.267-.4.722-1.1 1.062-1.622.03.026.063.058.09.08l.06.056a1.43 1.43 0 0 0 .337.224zM15.042 19.41c-.32.49-.753 1.15-1.025 1.563-.08-.152-.152-.31-.225-.466.152-.56.34-1.244.48-1.762.257.214.528.455.77.664zM13.52 18.112l-.408 1.705a5.626 5.626 0 0 1-.4-.492c.057-.5.146-1.2.2-1.69.158.116.357.273.608.477zM12.783 17.537c-.058.44-.136 1.1-.2 1.616a3.936 3.936 0 0 1-.54-1.088c-.093-.34-.072-.58.048-.68a.478.478 0 0 1 .493.026 1.72 1.72 0 0 1 .2.127z" fill="#fff"/><path d="M23.09 32.625l-.004.006a3.06 3.06 0 0 1-.67.838 1.5 1.5 0 0 0-1-.65 1.01 1.01 0 0 0-.277-.036 2.15 2.15 0 0 0-.81.22c-.127.052-.242.1-.362.14a.432.432 0 0 1-.278.017.3.3 0 0 1-.182-.3c0-.22.14-.472.34-.483a1.58 1.58 0 0 1 .575.1 1.8 1.8 0 0 0 .654.1.1.1 0 0 0 .04-.005 1.11 1.11 0 0 0 .927-.45 3.2 3.2 0 0 0 .184-.324.72.72 0 0 0 .182-.084c.242.164.817.608.68.91zM30.71 38.755l.038.874-.544-.687a.076.076 0 0 0-.084-.026l-.382.147a.737.737 0 0 0-.183-.22l.23-.35a.074.074 0 0 0 0-.084l-.543-.685.842.235a.066.066 0 0 0 .078-.03l.48-.728.043.873a.07.07 0 0 0 .052.068l.842.236-.822.3a.074.074 0 0 0-.047.075zM28.164 41.616a4.4 4.4 0 0 1-.167.59l-1.73.4c.046-.2.1-.423.15-.643zM14.153 18.64c-.136.492-.32 1.156-.47 1.72a4.5 4.5 0 0 1-.45-.412l.407-1.73c.16.124.33.265.513.422zM16.088 23.8l.434.758-.8-.355a.063.063 0 0 0-.083.016l-.588.647.1-.868a.083.083 0 0 0-.042-.08l-.8-.355.857-.178a.078.078 0 0 0 .058-.063l.042-.408a.817.817 0 0 0 .277-.068l.21.36a.072.072 0 0 0 .077.038l.86-.178-.592.648a.07.07 0 0 0-.01.084zM25.392 16.538a.292.292 0 0 0-.355.026.5.5 0 0 0-.11.256c-.02.126-.026.25-.037.387a2.378 2.378 0 0 1-.13.753 1.033 1.033 0 0 1-.19.3 1.528 1.528 0 0 1-1.03.607 3.15 3.15 0 0 0 .45.978.063.063 0 0 0 .022.016v.01c.157.148.57.064 1.1-.224a.7.7 0 0 1 0-.2 3.314 3.314 0 0 1-.21-.3 1.163 1.163 0 0 1 .027-1.067.11.11 0 0 1 .02-.043 1.81 1.81 0 0 1 .366-.5 1.6 1.6 0 0 0 .345-.47c.088-.19-.074-.43-.268-.53zM41.993 19.5l-.64.2c-.338-.382-.8-.895-1.185-1.33a4.766 4.766 0 0 1 .59-.15zM37.165 18.31a.732.732 0 0 0-.09.273l-.422-.02a.074.074 0 0 0-.074.04l-.31.817-.23-.843a.063.063 0 0 0-.062-.052l-.873-.047.732-.478a.078.078 0 0 0 .03-.078l-.23-.848.68.55a.08.08 0 0 0 .09 0l.732-.476-.315.816a.08.08 0 0 0 .02.083zM37.19 29.97a.463.463 0 0 0-.15-.237 3.583 3.583 0 0 0-.3-.235 2.476 2.476 0 0 1-.565-.523 1.058 1.058 0 0 1-.146-.32 1.492 1.492 0 0 1 .046-1.192 3.1 3.1 0 0 0-1.062-.15.042.042 0 0 0-.026 0c-.32.067-.4.763-.423 1.045a.587.587 0 0 1 .167.115 3 3 0 0 1 .37-.01 1.147 1.147 0 0 1 .886.6 1.7 1.7 0 0 1 .245.617 1.666 1.666 0 0 0 .21.544c.11.167.4.157.585.047a.285.285 0 0 0 .163-.3zM29.765 24.932c-.053.037-.105.078-.157.12-.068.047-.136.1-.21.157-.313.235-.58.44-.8.606-.255.2-.45.36-.575.47-.167.147-.188.184-.2.215v.435l-.006.43a7.748 7.748 0 0 0 .1 1.58 3.792 3.792 0 0 0 .168.59c-.168-.058-.288-.105-.34-.12v-.01h-.006c0-.007-.01-.007-.016-.012a.022.022 0 0 0-.01-.005h-.016a.005.005 0 0 1-.006 0h-.026c0 .005-.01.005-.016.01s-.005.006-.01.006l-.016.015-.052.036a14.825 14.825 0 0 1-.445-1.574c-.02-.09-.036-.178-.052-.262s-.026-.146-.036-.214a3.266 3.266 0 0 1-.043-.445 2.012 2.012 0 0 1 .015-.407v-.016a.05.05 0 0 0 0-.026l-.015-.015h-.006a.01.01 0 0 0-.01-.01c-.004 0-.004-.006-.01-.006l-.4-.126c-.47-.152-.968-.314-1.392-.48-.214-.09-.4-.174-.554-.252.078-.068.152-.13.21-.178a.07.07 0 0 0 .02-.08c0-.004-.005-.01-.005-.02l-.032-.23c.334.105.742.24 1.15.382l.414.14.528.195v.006a2.534 2.534 0 0 1 .4.178.06.06 0 0 0 .042.016.068.068 0 0 0 .047-.02l.014-.012a.258.258 0 0 0 .047-.042c.06-.047.137-.11.226-.183.178-.14.42-.324.753-.585.4-.3.83-.628 1.145-.858.03.146.063.272.083.36a1.164 1.164 0 0 0 .097.242z" fill="#f9dd25"/><path d="M43.677 18.63c-.016-.152-.147-.366-.65-.528a4.3 4.3 0 0 0-1.447-.136 6.166 6.166 0 0 0-.81.1 4.323 4.323 0 0 0-.7.183l-.043-.01c-.225-.033-.444-.06-.67-.085-.36-.032-.6-.047-.663-.047h-.058a.89.89 0 0 0-1.062-.194 1.29 1.29 0 0 0-.33.282l-.266-.214.375-.982a.072.072 0 0 0-.02-.084.08.08 0 0 0-.084-.005l-.88.57-.81-.658a.078.078 0 0 0-.09 0 .065.065 0 0 0-.026.08l.267 1.008-.872.57a.07.07 0 0 0-.032.08.068.068 0 0 0 .063.05l1.045.058.272 1.01a.068.068 0 0 0 .063.052h.005a.07.07 0 0 0 .068-.042l.377-.978.37.02a1.424 1.424 0 0 0 .2.6 4.346 4.346 0 0 1-.737 2.01 7.435 7.435 0 0 0-.418.71c-.188.356-1.8 3.478-1.213 5.13a.928.928 0 0 0-.13.043c-.06.02-.064.026-.446-.14-.287-.132-1.26-.63-2.2-1.1-.972-.5-1.888-.97-2.128-1.068a.377.377 0 0 0-.09-.026.99.99 0 0 1-.093-.242l-.11-.47c-.11-.445-.267-1.072-.455-1.7a10.8 10.8 0 0 0-.623-1.668c-.22-.43-.433-.842-.627-1.208-.34-.654-.612-1.172-.717-1.418a1.71 1.71 0 0 1-.078-.314c-.03-.14-.063-.3-.115-.47a1.713 1.713 0 0 0-.47-.79 1.64 1.64 0 0 0-.822-.377c-.11-.02-.214-.036-.31-.052-1.05-.16-1.31-.015-2.185.827l-.167.157a5.642 5.642 0 0 1-.842.246c-.324.084-.738.188-1.16.32h-.012a8.1 8.1 0 0 0-2.62 1.275c-1.355 1.046-2.238.99-2.74.76a1.62 1.62 0 0 1-.36-.237l-.064-.057c-.042-.036-.094-.083-.152-.13-.282-.25-.612-.533-.9-.78-.23-.2-.445-.376-.633-.533h-.006c-.324-.26-.564-.455-.742-.58-.115-.08-.194-.13-.25-.163A.606.606 0 0 0 12 17.27c-.12.1-.235.324-.1.832a4.35 4.35 0 0 0 .67 1.286.005.005 0 0 1 .005 0 5.558 5.558 0 0 0 .517.623 4.388 4.388 0 0 0 .534.492l.016.037c.1.208.193.407.292.606.163.313.283.528.32.585a.38.38 0 0 1 .026.054.914.914 0 0 0 .418 1 1.44 1.44 0 0 0 .418.12l-.04.345-1.02.208a.078.078 0 0 0-.056.072.07.07 0 0 0 .042.074l.952.428-.11 1.036a.06.06 0 0 0 .042.073.06.06 0 0 0 .084-.014l.7-.775.958.43a.063.063 0 0 0 .078-.015.072.072 0 0 0 .01-.09l-.517-.9.7-.778a.07.07 0 0 0 .01-.084.067.067 0 0 0-.08-.03l-1.023.213-.184-.324a1.454 1.454 0 0 0 .4-.492 4.213 4.213 0 0 1 2.082-.476 6.9 6.9 0 0 0 .826-.03 12.966 12.966 0 0 0 3.547-.807A3.388 3.388 0 0 0 23.944 20a.442.442 0 0 0 .1.09c.047.036.052.04.12.45.053.313.163 1.4.267 2.446.08.77.163 1.56.216 2.014a2.838 2.838 0 0 0 .047.345c-.074.063-.162.13-.262.22a18.213 18.213 0 0 0-2.55 2.49c-.29.386-.56.768-.8 1.1-.435.6-.775 1.07-.947 1.27a1.694 1.694 0 0 1-.247.214c-.11.088-.24.187-.366.308a1.563 1.563 0 0 0-.47 1.684c.037.1.062.21.094.3.324 1.014.575 1.182 1.715 1.585l.046.02c.058.02.116.037.168.058a5.266 5.266 0 0 1 .6.643c.225.257.5.58.81.905a8.254 8.254 0 0 0 2.316 1.775c1.543.743 1.888 1.554 1.9 2.108a1.53 1.53 0 0 1-.047.43l-.02.062c-.01.062-.033.13-.053.214-.058.215-.173.66-.293 1.156-.068.272-.13.55-.194.8-.094.414-.15.717-.188.926a2.293 2.293 0 0 0-.032.3.6.6 0 0 0 .283.586.387.387 0 0 0 .157.03 1 1 0 0 0 .627-.318 4.106 4.106 0 0 0 .853-1.176 7.6 7.6 0 0 0 .33-.748 4.982 4.982 0 0 0 .2-.7l.02-.03c.136-.163.277-.347.413-.535.19-.25.32-.45.387-.55l.026-.04c.14-.043.732-.257.71-.817a1.6 1.6 0 0 0-.078-.43l.325-.12.648.817a.066.066 0 0 0 .058.03.2.2 0 0 1 .026-.004.08.08 0 0 0 .046-.07l-.048-1.04.983-.36a.082.082 0 0 0 .048-.074.062.062 0 0 0-.052-.063l-1.01-.288-.042-1.04a.077.077 0 0 0-.057-.068.073.073 0 0 0-.078.03l-.582.874-1-.28a.085.085 0 0 0-.084.025.08.08 0 0 0 0 .09l.65.82-.2.31a1.43 1.43 0 0 0-.623-.142 4.23 4.23 0 0 1-1.354-1.653 6.406 6.406 0 0 0-.4-.722 13.172 13.172 0 0 0-2.3-2.814 3.51 3.51 0 0 0-1.5-.842.626.626 0 0 0 .032-.13c.01-.063.015-.068.35-.31.256-.187 1.182-.773 2.076-1.343.785-.5 1.527-.97 1.862-1.194l.115-.078c.06.02.242.09.5.183a19.078 19.078 0 0 0 3.494.953c.482.042.947.09 1.36.125.732.068 1.313.12 1.57.168a1.4 1.4 0 0 1 .307.1c.137.053.29.11.456.157a2 2 0 0 0 .54.084 1.52 1.52 0 0 0 1.145-.534c.08-.083.147-.162.215-.235.7-.79.722-1.093.492-2.285-.016-.068-.032-.147-.047-.22a6.348 6.348 0 0 1 .25-.847c.11-.32.246-.722.367-1.15a8.2 8.2 0 0 0 .36-2.9c-.146-1.706.377-2.418.843-2.71a1.57 1.57 0 0 1 .4-.178c.032-.01.08-.02.126-.037s.094-.025.146-.04c.277-.08.7-.2 1.145-.336.278-.083.55-.167.79-.245.392-.127.69-.226.9-.31a2.35 2.35 0 0 0 .272-.126.6.6 0 0 0 .357-.534zm-6.6-.047l-.423-.02a.072.072 0 0 0-.074.046l-.313.81-.225-.843a.064.064 0 0 0-.068-.052l-.868-.047.73-.478a.075.075 0 0 0 .032-.078l-.23-.848.68.55a.07.07 0 0 0 .09 0l.73-.476-.313.816a.08.08 0 0 0 .02.083l.32.257a.732.732 0 0 0-.09.28zm-.423 2.834a4.372 4.372 0 0 0 .758-2.1.043.043 0 0 0-.005-.036c-.366-.67-.167-.983.25-1.255.435-.277.885.178.906.194.005.015.026.02.04.025h.028a1.577 1.577 0 0 1-.146 1.083.452.452 0 0 0-.44-.01c-.333.177-.39.8-.433 1.254v.037a3.116 3.116 0 0 1-.533 2.086 1.62 1.62 0 0 0-.8-.654c.14-.248.27-.468.376-.625zm-.44.76a1.488 1.488 0 0 1 .78.663c-.152.25-.346.55-.586.9a3.114 3.114 0 0 0-.5 1.35 2.122 2.122 0 0 0-.225.056h-.01c-.23.068-.46.147-.64.215a12.825 12.825 0 0 1 1.18-3.184zM35 25.532a7.115 7.115 0 0 1 .7-.24h.005c.064-.016.116-.032.173-.042-.005.064-.01.132-.01.2v.016a5.558 5.558 0 0 0 .26 1.867 3.367 3.367 0 0 0-1.082-.167A3.157 3.157 0 0 1 35 25.533zm-.016 1.784a.05.05 0 0 1 .026 0 3.2 3.2 0 0 1 1.067.146 1.486 1.486 0 0 0-.052 1.2 1.058 1.058 0 0 0 .146.32 2.35 2.35 0 0 0 .566.517 3.535 3.535 0 0 1 .3.24.44.44 0 0 1 .157.236.285.285 0 0 1-.167.308c-.188.11-.476.12-.586-.047a1.56 1.56 0 0 1-.21-.544 1.7 1.7 0 0 0-.244-.617 1.147 1.147 0 0 0-.885-.6 3 3 0 0 0-.37.01.525.525 0 0 0-.167-.115c.02-.29.107-.985.42-1.053zm-5.1-2.286a.186.186 0 0 1 .057.012c.242.1 1.194.59 2.12 1.062.94.48 1.914.978 2.212 1.108a2.344 2.344 0 0 0 .413.162 2.13 2.13 0 0 0-.262.937l-.123-.01a13.6 13.6 0 0 1-5.486-1.6c-.053-.027-.11-.058-.162-.09l-.027-.015c-.04-.026-.078-.047-.12-.068-.11-.063-.21-.126-.308-.188.125-.106.287-.242.5-.4s.482-.372.795-.608c.074-.052.142-.1.2-.157s.125-.102.188-.144zM27.06 17.9a1.722 1.722 0 0 0 .085.345c.1.246.38.77.72 1.428.195.366.41.78.63 1.208a18.17 18.17 0 0 1 1.056 3.28c-.32.235-.77.575-1.2.9-.334.26-.575.444-.753.585-.094.074-.172.136-.23.19-.01 0-.015.014-.02.02A3.144 3.144 0 0 0 27 25.7c0-.042 0-.09-.01-.13a.48.48 0 0 0 0-.085v-.057a13.89 13.89 0 0 0-1.658-5.6.428.428 0 0 1-.063-.156.51.51 0 0 1 0-.236 1.515 1.515 0 0 1 .93-.994 1.717 1.717 0 0 0 .8-.816c.02.09.04.188.06.274zm-1.527-1.564c.074.015.152.026.236.042a1.4 1.4 0 0 1 1.17 1.04c-.157.3-.46.785-.78.884a1.718 1.718 0 0 0-.993.957c-.047-.07-.094-.13-.13-.194a1.007 1.007 0 0 1 .036-.942 1.612 1.612 0 0 1 .356-.5 1.82 1.82 0 0 0 .375-.513.588.588 0 0 0-.3-.674zm-2.112.758c.8-.77 1.047-.915 1.967-.78l-.016.058a.41.41 0 0 0-.438.09.7.7 0 0 0-.152.34c-.015.125-.026.26-.036.4a1.492 1.492 0 0 1-.283.96 1.308 1.308 0 0 1-.956.56l-.005-.005a4.5 4.5 0 0 1-.08-1.625zm-1.093.46a5.28 5.28 0 0 0 .88-.26.036.036 0 0 0 .02-.012l.026-.03a4.66 4.66 0 0 0 .1 1.463A5.95 5.95 0 0 1 22 19.932a3.892 3.892 0 0 0-.742-2.092c.39-.115.75-.204 1.07-.288zM15.77 19.93c.553.22 1.47.234 2.813-.812a8.1 8.1 0 0 1 2.53-1.23 3.624 3.624 0 0 1 .74 2.135 3.147 3.147 0 0 1-1.618.44c-2.144-.048-2.442.093-3.363.71l-.02.01c-.35.184-.89.467-1.15.32a.4.4 0 0 1-.168-.33 3.635 3.635 0 0 1 .235-1.246zm-3.725-1.863c-.094-.34-.073-.58.047-.685a.493.493 0 0 1 .492.03c.042.022.1.064.2.127-.058.438-.136 1.1-.2 1.615a3.936 3.936 0 0 1-.54-1.09zm.665 1.26c.062-.5.14-1.2.2-1.69.157.116.356.273.607.477l-.408 1.705a5.626 5.626 0 0 1-.4-.495zm.523.623l.407-1.73c.157.124.33.265.513.422-.136.492-.32 1.156-.47 1.72a5.133 5.133 0 0 1-.45-.414zm.56.56c.15-.56.34-1.25.48-1.763.25.214.53.45.77.664-.32.493-.754 1.152-1.026 1.565-.08-.154-.152-.31-.225-.468zm.3.617c.266-.4.726-1.1 1.06-1.622.032.032.064.053.09.08l.057.056a1.573 1.573 0 0 0 .34.226 3.838 3.838 0 0 0-.25 1.245 1.674 1.674 0 0 0-1.047.477c-.054-.096-.143-.258-.253-.462zm1.657 2.08a.066.066 0 0 0 .078.038l.86-.178-.593.648a.1.1 0 0 0-.01.084l.44.757-.8-.36a.08.08 0 0 0-.084.02l-.586.65.1-.87a.083.083 0 0 0-.042-.078l-.8-.356.857-.178a.072.072 0 0 0 .057-.068l.042-.4a.7.7 0 0 0 .276-.073zm3.128-1.578a6.457 6.457 0 0 1-.722.03 4.33 4.33 0 0 0-2.18.5.065.065 0 0 0-.027.026 1.24 1.24 0 0 1-.42.5.58.58 0 0 1-.308.09 1.16 1.16 0 0 1-.46-.12c-.47-.21-.335-.833-.33-.864a.06.06 0 0 0 0-.053.064.064 0 0 1-.01-.02 1.6 1.6 0 0 1 .983-.467.5.5 0 0 0 .235.382.556.556 0 0 0 .246.057 2.61 2.61 0 0 0 1.04-.38l.027-.012A3.09 3.09 0 0 1 19 20.607a1.668 1.668 0 0 0-.124 1.02zm.146-.012a1.52 1.52 0 0 1 .136-1.014c.3-.006.65-.006 1.077 0a3.22 3.22 0 0 0 1.407-.31c.047.048.105.1.168.158l.005.005c.183.157.376.31.528.42a13 13 0 0 1-3.323.74zm3.478-.8c-.157-.115-.376-.282-.58-.46l-.005-.006c-.048-.04-.095-.083-.137-.125.058-.03.115-.063.173-.09h.01a5.764 5.764 0 0 0 1.433-1.244 3.306 3.306 0 0 0 .45 1 3.214 3.214 0 0 1-1.346.923zm1.517-.952h-.01l-.017-.016a3.15 3.15 0 0 1-.45-.978 1.528 1.528 0 0 0 1.03-.607.987.987 0 0 0 .188-.3 2.378 2.378 0 0 0 .132-.753c.01-.136.02-.267.037-.387a.5.5 0 0 1 .11-.256.292.292 0 0 1 .354-.027c.194.1.356.34.277.523a1.714 1.714 0 0 1-.344.465 1.93 1.93 0 0 0-.37.5.376.376 0 0 0-.017.043 1.148 1.148 0 0 0-.022 1.067 2.932 2.932 0 0 0 .2.3.945.945 0 0 0-.005.2c-.526.297-.94.376-1.096.224zm.564 3.107c-.11-1.05-.22-2.14-.272-2.458a2.726 2.726 0 0 0-.084-.43h.026a2.17 2.17 0 0 0 .9-.292.34.34 0 0 0 .058.11 13.875 13.875 0 0 1 1.63 5.538.248.248 0 0 0 0 .06v.083a.256.256 0 0 1 0 .062c-.13-.052-.276-.1-.422-.157s-.272-.094-.413-.14H26c-.438-.147-.877-.29-1.222-.4-.045-.47-.123-1.235-.196-1.977zm-4.6 7.782a1.946 1.946 0 0 0 .27-.23c.168-.21.514-.685.948-1.287.246-.33.518-.706.8-1.1a18.21 18.21 0 0 1 2.495-2.432 6.7 6.7 0 0 0 .622.288c.428.167.925.33 1.4.48l.344.11a2.11 2.11 0 0 0-.01.372v.01c0 .095.01.194.025.3l.005.11-.032.02-.01.007a1.762 1.762 0 0 0-.168.1 13.894 13.894 0 0 0-4.194 3.938.42.42 0 0 1-.11.127.514.514 0 0 1-.208.1 1.49 1.49 0 0 1-1.308-.382 1.716 1.716 0 0 0-1.088-.345c.067-.072.145-.13.214-.187zm3.106 1.872v.006a3 3 0 0 1-.67.837 1.507 1.507 0 0 0-1-.65 1.04 1.04 0 0 0-.277-.036 2.15 2.15 0 0 0-.81.22c-.126.052-.24.1-.36.14a.447.447 0 0 1-.284.017.3.3 0 0 1-.178-.3c0-.22.14-.47.34-.48a1.433 1.433 0 0 1 .57.1 1.848 1.848 0 0 0 .66.1c.014 0 .03-.006.04-.006a1.11 1.11 0 0 0 .926-.45 3.2 3.2 0 0 0 .184-.324.81.81 0 0 0 .182-.084c.238.162.813.6.672.91zm-3.89-.038a1.406 1.406 0 0 1 .408-1.518 1.69 1.69 0 0 1 1.135.31 1.725 1.725 0 0 0 1.155.464 1.34 1.34 0 0 0 .147-.01c-.037.073-.073.14-.115.21a1 1 0 0 1-.858.38 1.58 1.58 0 0 1-.6-.093 1.744 1.744 0 0 0-.628-.1.586.586 0 0 0-.47.565l-.1.026c-.032-.078-.053-.15-.074-.235zm1.694 1.777C19.838 34 19.6 33.84 19.31 32.96l.057-.015a.4.4 0 0 0 .277.35.558.558 0 0 0 .367-.016 3.508 3.508 0 0 0 .377-.142 1.517 1.517 0 0 1 .99-.178 1.305 1.305 0 0 1 .924.607v.005a4.394 4.394 0 0 1-1.41.795zm.9.774a4.87 4.87 0 0 0-.628-.668c-.005-.006-.016-.01-.02-.016a.345.345 0 0 1-.037-.01 4.736 4.736 0 0 0 1.26-.738 5.6 5.6 0 0 1 1.7.66 3.873 3.873 0 0 0-1.534 1.6c-.292-.3-.536-.58-.747-.827zm3.07 2.648a8 8 0 0 1-2.228-1.71 3.644 3.644 0 0 1 1.574-1.617 3.1 3.1 0 0 1 1.12 1.25c.91 1.936 1.17 2.14 2.134 2.69l.02.015c.324.23.816.586.806.884a.39.39 0 0 1-.225.3 3.484 3.484 0 0 1-1.22.344c-.05-.593-.445-1.42-1.986-2.156zm1.987 6.317c-.265.236-.49.33-.632.262-.12-.052-.193-.22-.193-.45a1.608 1.608 0 0 1 .02-.23c.425-.146 1.047-.37 1.533-.55a3.818 3.818 0 0 1-.732.968zm.833-1.155c-.47.167-1.146.408-1.606.575.032-.194.084-.44.157-.753l1.705-.4c-.084.196-.173.39-.262.578zm.317-.743l-1.73.4c.046-.2.093-.424.15-.644l1.747-.35a4.4 4.4 0 0 1-.167.594zm.25-.753c-.57.11-1.27.25-1.793.355.1-.408.193-.77.25-.984.587.068 1.37.157 1.858.22-.108.14-.217.277-.317.408zm.415-.544c-.477-.058-1.3-.157-1.92-.225.01-.047.026-.09.037-.125l.015-.068a1.76 1.76 0 0 0 .052-.4 4.054 4.054 0 0 0 1.223-.33 1.683 1.683 0 0 0 .894.717c-.067.1-.175.252-.305.43zm1.124-2.416a.074.074 0 0 0 0-.084l-.545-.685.842.235a.066.066 0 0 0 .078-.03l.487-.728.03.873a.083.083 0 0 0 .058.068l.842.236-.82.3a.074.074 0 0 0-.048.072l.037.874-.543-.69a.08.08 0 0 0-.084-.022l-.382.147a.737.737 0 0 0-.182-.22zM27.32 37.04a4.414 4.414 0 0 0 1.423 1.726.105.105 0 0 0 .042.005 1.232 1.232 0 0 1 .627.158.555.555 0 0 1 .225.256 1.128 1.128 0 0 1 .093.445c.02.51-.6.668-.627.678s-.032.016-.042.027l-.01.02a1.585 1.585 0 0 1-.858-.674.506.506 0 0 0 .235-.376c.01-.376-.5-.742-.867-1.01l-.02-.015-.006-.006a3.085 3.085 0 0 1-1.528-1.522 1.622 1.622 0 0 0 .962-.35 6.477 6.477 0 0 1 .35.638zm-2.568-3.405a13.245 13.245 0 0 1 2.146 2.64 1.5 1.5 0 0 1-.968.336c-.14-.26-.293-.575-.476-.962a3.167 3.167 0 0 0-.91-1.12 1.306 1.306 0 0 0 .063-.224v-.01a6.712 6.712 0 0 0 .144-.66zm-.13-.11c-.032.194-.08.46-.146.727-.006 0-.006 0-.006.01l-.047.173c-.058-.042-.115-.078-.168-.115-.005-.005-.01-.01-.015-.01a5.684 5.684 0 0 0-1.742-.722 3.357 3.357 0 0 0 .7-.847 3.137 3.137 0 0 1 1.423.785zm1.014-2.825c-.9.564-1.825 1.155-2.092 1.344a2.577 2.577 0 0 0-.34.272 2.164 2.164 0 0 0-.68-.7.733.733 0 0 0 .073-.1 13.69 13.69 0 0 1 4.142-3.885l.167-.1.015.116c.015.09.03.178.052.267a15.867 15.867 0 0 0 .465 1.627c-.35.23-1.056.68-1.804 1.16zm2.108-1.282v-.01h-.006c0-.006-.01-.006-.015-.01s-.006-.006-.01-.006h-.049s-.01.005-.016.01-.004.006-.01.006l-.015.015c-.015.01-.03.02-.052.037a15.952 15.952 0 0 1-.45-1.574c-.015-.09-.03-.173-.047-.262-.016-.073-.026-.146-.036-.214a3.266 3.266 0 0 1-.042-.445 2.012 2.012 0 0 1 .015-.408v-.016a.05.05 0 0 0 0-.025l-.015-.016h-.006s0-.01-.015-.01l-.006-.007-.4-.125c-.47-.152-.967-.314-1.39-.48a5.742 5.742 0 0 1-.555-.258c.078-.062.152-.125.21-.167a.08.08 0 0 0 .02-.084c0-.006-.005-.01-.005-.02-.005-.05-.016-.127-.03-.232.333.105.74.24 1.15.382l.413.14.528.195v.005a2.917 2.917 0 0 1 .4.178.06.06 0 0 0 .043.016A.078.078 0 0 0 27.4 26l.015-.016a.258.258 0 0 0 .047-.042l.225-.183c.178-.142.42-.325.753-.586.4-.3.832-.628 1.14-.858.037.152.07.272.09.36a1.164 1.164 0 0 0 .094.257c-.053.037-.105.078-.162.12s-.13.1-.2.157c-.314.23-.58.44-.8.607-.256.2-.45.36-.58.47-.163.147-.184.19-.195.215v.434l-.01.43a7.748 7.748 0 0 0 .1 1.58 3.792 3.792 0 0 0 .168.59c-.167-.064-.285-.106-.34-.122zm7.233 1.527a2.228 2.228 0 0 0-.34-.115c-.262-.042-.848-.1-1.585-.167-.41-.037-.874-.078-1.36-.126a19.043 19.043 0 0 1-3.426-.93 3.708 3.708 0 0 1-.21-.686c-.01-.06-.02-.13-.032-.192a7.39 7.39 0 0 1-.063-1.166v-.194l.006-.43v-.39c.012-.017.043-.043.11-.11.116.072.23.14.35.213a1.042 1.042 0 0 0 .12.07l.033.015c.052.032.1.063.162.094a13.853 13.853 0 0 0 5.55 1.615.555.555 0 0 1 .156.032c.006 0 .006.005.01.005a.608.608 0 0 1 .195.126v.005a1.5 1.5 0 0 1 .33 1.323 1.7 1.7 0 0 0 .256 1.11c-.088-.037-.183-.073-.26-.105zm1.976-.256a1.405 1.405 0 0 1-1.512.418 1.675 1.675 0 0 1-.313-1.135 1.686 1.686 0 0 0-.27-1.355 1.92 1.92 0 0 1 .24 0c.318 0 .528.214.768.54a1.578 1.578 0 0 1 .22.57 1.908 1.908 0 0 0 .23.59.466.466 0 0 0 .408.188.75.75 0 0 0 .32-.073l.072.078c-.052.05-.104.107-.162.175zm.256-.29l-.042-.04a.405.405 0 0 0 .163-.42.6.6 0 0 0-.2-.313c-.094-.083-.2-.162-.31-.245a1.5 1.5 0 0 1-.658-.76 1.32 1.32 0 0 1 .053-1.108 4.585 4.585 0 0 1 1.407.81c.215 1.09.2 1.376-.413 2.076zm.623-3.246a6.418 6.418 0 0 0-.262.883.044.044 0 0 0 .005.027c0 .01.006.02.006.036a4.674 4.674 0 0 0-1.277-.71 5.63 5.63 0 0 1-.292-1.795 3.762 3.762 0 0 0 2.055.507h.1c-.11.39-.23.734-.335 1.048zm.716-3.99a7.927 7.927 0 0 1-.34 2.792 3.64 3.64 0 0 1-2.19-.534 3.172 3.172 0 0 1 .507-1.6c1.2-1.773 1.245-2.1 1.23-3.206v-.026c.036-.4.093-1 .35-1.14a.376.376 0 0 1 .37.042 3.33 3.33 0 0 1 .916.873c-.48.335-.988 1.1-.842 2.794zm1.47-3.076c-.046.015-.088.026-.125.042a1.5 1.5 0 0 0-.376.156 3.8 3.8 0 0 0-.906-.89 1.705 1.705 0 0 0 .167-1.134c.127.006.315.02.524.042.194.44.53 1.2.785 1.768zm.21-.058c-.246-.533-.56-1.255-.758-1.71l.512.063c.387.434.858.962 1.22 1.365-.373.106-.722.21-.974.278zm1.124-.33c-.34-.38-.8-.894-1.186-1.328a4.907 4.907 0 0 1 .59-.157l1.23 1.285c-.194.06-.414.13-.634.2zm.79-.245L40.93 18.19c.21-.037.424-.058.634-.074.387.324.93.774 1.307 1.093-.182.063-.428.147-.726.24zm1.1-.4c-.042.02-.12.052-.215.094-.34-.283-.853-.712-1.25-1.04a3.8 3.8 0 0 1 1.2.135c.334.11.533.25.548.413.018.123-.092.27-.285.39z"/><path d="M26.878 27.374l-.032.02-.01.007a1.762 1.762 0 0 0-.168.1 13.705 13.705 0 0 0-4.19 3.94.526.526 0 0 1-.114.125.594.594 0 0 1-.21.1 1.522 1.522 0 0 1-1.312-.387 1.7 1.7 0 0 0-1.088-.345c.08-.068.157-.125.226-.183a1.946 1.946 0 0 0 .27-.23c.174-.21.514-.68.953-1.287l.8-1.1a18.21 18.21 0 0 1 2.495-2.432 6.7 6.7 0 0 0 .622.29c.43.166.926.328 1.4.48l.345.11a2.11 2.11 0 0 0-.01.37v.012c0 .094.01.193.02.3z" fill="#fff"/></svg>