<svg xmlns="http://www.w3.org/2000/svg" viewBox="0 0 55 55"><path d="M49.466 35.267a23.3 23.3 0 0 1-43.938 0z"/><path d="M49.466 19.733H5.533a23.3 23.3 0 0 1 43.933 0z" fill="#cd1225"/><path d="M50.8 27.5a23.14 23.14 0 0 1-1.334 7.767H5.528a23.336 23.336 0 0 1 .005-15.534h43.933A23.185 23.185 0 0 1 50.8 27.5z" fill="#fff"/><path d="M16.966 31.323a.4.4 0 1 0 .4.4.4.4 0 0 0-.4-.4zM25.894 26.726a2.37 2.37 0 0 1-.256-.13c-.006 0-.068.046-.074.046-.157.115-.35.162-.512.272a1.162 1.162 0 0 0-.24.215 1.583 1.583 0 0 0-.35.92H20.3l.2-.184c.167-.162.334-.324.507-.486.23-.225.465-.45.7-.675.26-.25.518-.5.78-.748.245-.24.5-.476.742-.71.192-.19.39-.378.584-.566.074-.067.142-.15.215-.22a.71.71 0 0 1 .292-.145c.052-.016.1-.026.157-.047a.506.506 0 0 1-.122-.068 5.5 5.5 0 0 1-.622-.837c.01.01-.052.11-.057.126a1.18 1.18 0 0 1-.33.406c-.153.152-.31.3-.46.445-.2.2-.41.393-.618.592l-.7.67-.717.685c-.214.21-.434.418-.653.627-.178.173-.356.345-.534.513l-.345.33c-.026.025-.057.052-.084.083l.1.873h5.966v-.664c0-.137.006-.273 0-.41 0-.26.377-.37.555-.213a.42.42 0 0 1 .11.32c-.01.38-.005.762-.005 1.144v.425h-8v-1.768a2.833 2.833 0 0 1-.936.56 1.97 1.97 0 0 1 .2.72v.488h-1.812a8.11 8.11 0 0 0-.335-1.266 4.11 4.11 0 0 1-1.124.778c-.08.032 1.976 2.16-.31 3.285a1.48 1.48 0 0 0 1.826-1.323H26.83v-3.243a.4.4 0 0 0-.068-.146.873.873 0 0 0-.094-.146 1.393 1.393 0 0 0-.24-.25 1.607 1.607 0 0 0-.383-.21c-.052-.026-.104-.047-.15-.068zM29.456 29.07a1.462 1.462 0 0 1-.314.313 1.928 1.928 0 0 1-.555 0v-4.9a.554.554 0 0 1 .162-.3c-.152-.052-1.057-.69-1.057-.69v7.27h2.427c-.31-.073-.664-1.694-.664-1.694zM40.674 29.07a1.51 1.51 0 0 1-.31.313 1.917 1.917 0 0 1-.553 0v-4.9a.566.566 0 0 1 .158-.3c-.146-.052-1.05-.69-1.05-.69v7.27h2.42c-.303-.073-.664-1.694-.664-1.694zM37.625 23.933l-.35.32c-.08.072-.163.14-.24.214a.01.01 0 0 1-.012.01c-.015.016-.036.02-.036.047a.123.123 0 0 0 .01.042.582.582 0 0 1 .026.235v4.217h-.643v-3.965a.494.494 0 0 1-.057.053c-.042.04-.095.083-.142.125-.056.058-.12.11-.18.168s-.127.115-.185.172a1.818 1.818 0 0 0-.146.13.465.465 0 0 1-.1.074c-.01 0-.02 0-.02.016l.014.047a.79.79 0 0 1 .026.125.49.49 0 0 1 .01.126v2.93h-.647v-2.684l-.78.706-.042.047.043.25v.763c-.35-.047-1.255-.125-1.642.272-.49.487-.663 1.073-.308 2.39h5.586v-6.99c-.063.05-.12.11-.183.16zm-4.142 5.36a.292.292 0 1 1 .345-.287.32.32 0 0 1-.345.288zM35.12 23.66c-.063-.17-.147-.24-.147-.454s.12-.392.21-.3.084.49.084.638-.09.28-.147.117zM34.064 24.5c.03-.026.14.016.182.02a1.062 1.062 0 0 0 .288.017.86.86 0 0 0 .455-.183c.093-.073.172-.246.3-.25a.226.226 0 0 1 .15.077.918.918 0 0 0 .132.12.427.427 0 0 0 .372-.03.694.694 0 0 1 .366-.1.152.152 0 0 1 .046.01.074.074 0 0 1 .026.08c-.036.323-.4.412-.67.344a.718.718 0 0 1-.417-.314c.036.057-.105.214-.142.256a.53.53 0 0 1-.26.173 1.114 1.114 0 0 1-.665 0c-.058-.022-.2-.132-.178-.21a.01.01 0 0 1 .014-.01z" fill="#00793d"/></svg>