<svg xmlns="http://www.w3.org/2000/svg" viewBox="0 0 55 55"><path d="M49.472 35.267c-.027.073-.053.146-.084.214-.068.195-.14.383-.215.576l-.11.267c-.062.157-.125.31-.2.466s-.135.307-.208.464c-.026.063-.058.136-.094.2-.036.09-.083.178-.13.267a23.29 23.29 0 0 1-41.867-.01c-.047-.09-.09-.177-.13-.266-.027-.047-.047-.1-.07-.142-.077-.172-.156-.345-.23-.517s-.135-.31-.2-.466c-.035-.09-.07-.18-.108-.268-.074-.193-.147-.38-.215-.575-.03-.068-.052-.14-.078-.214z" fill="#d90201"/><path d="M50.8 27.5a23.137 23.137 0 0 1-1.313 7.714c0 .016-.01.037-.015.053H5.534a.2.2 0 0 1-.02-.053 23.275 23.275 0 0 1 0-15.428.088.088 0 0 1 .015-.053h43.936a.088.088 0 0 1 .017.053A23 23 0 0 1 50.8 27.5z" fill="#fff"/><path d="M49.466 19.733H5.534c.026-.073.047-.146.078-.22.147-.407.3-.805.476-1.2.047-.104.09-.2.136-.308.068-.15.14-.308.215-.46.04-.09.082-.183.13-.272a23.3 23.3 0 0 1 41.86 0c.048.09.09.183.132.272.073.152.146.31.214.46.052.11.094.22.14.324.174.392.33.79.472 1.187a1.914 1.914 0 0 1 .078.216z" fill="#1f9e42"/><path d="M31.182 26.46a6.284 6.284 0 0 0-.32-.932 5.79 5.79 0 0 0-1.056-1.694 16.91 16.91 0 0 1 .4 1.883 9.083 9.083 0 0 1 .11 1.856 4.484 4.484 0 0 1-.152.99 3.644 3.644 0 0 1-.35.924 4.067 4.067 0 0 1-.565.81 5.256 5.256 0 0 1-.733.676c-.136.1-.283.2-.424.293.02-1.622.157-6.826.157-7.72l-.758-.5-.748.5c0 .894.136 6.1.157 7.72-.14-.094-.287-.194-.428-.293a5.616 5.616 0 0 1-.732-.675 4.26 4.26 0 0 1-.56-.81 3.9 3.9 0 0 1-.356-.926 4.93 4.93 0 0 1-.146-.99 9.17 9.17 0 0 1 .105-1.855 17.526 17.526 0 0 1 .408-1.883 5.79 5.79 0 0 0-1.056 1.694 6.284 6.284 0 0 0-.32.93 5.2 5.2 0 0 0-.177 1.11 4.715 4.715 0 0 0 .068 1.234 4.422 4.422 0 0 0 .424 1.235 4.657 4.657 0 0 0 .778 1.056 5.264 5.264 0 0 0 .99.748 4.52 4.52 0 0 0 .553.283c-.318.142-.6.257-.815.34-.318.126-.5.21-.5.21s.2.015.55.02a4.38 4.38 0 0 0 .627-.02 5.62 5.62 0 0 0 .81-.11c.016-.006.027-.006.042-.01.037.088.08.172.11.24.137.287.225.45.225.45s.088-.163.224-.45c.03-.068.068-.152.11-.24.015.004.026.004.042.01a5.62 5.62 0 0 0 .81.11 4.39 4.39 0 0 0 .628.02c.35 0 .544-.02.544-.02s-.183-.084-.5-.21c-.22-.083-.5-.2-.816-.34a4.52 4.52 0 0 0 .554-.282 5.43 5.43 0 0 0 .99-.747 4.493 4.493 0 0 0 .773-1.056 4.28 4.28 0 0 0 .428-1.235 4.715 4.715 0 0 0 .068-1.234 5.2 5.2 0 0 0-.174-1.11zM23.264 30.4a3.428 3.428 0 0 1-.193-.54c-.057-.2-.14-.4-.2-.627s-.093-.455-.15-.69c-.015-.24-.053-.48-.058-.727a4.28 4.28 0 0 1 .047-.732c.02-.12.03-.246.057-.366s.068-.24.1-.356a5.2 5.2 0 0 1 .25-.69c.116-.215.2-.44.325-.633.11-.2.23-.388.346-.566.23-.345.44-.638.59-.837s.252-.324.252-.324a2.4 2.4 0 0 0-.393.136 4.417 4.417 0 0 0-.94.56 4.743 4.743 0 0 0-1.09 1.15c-.083.125-.15.26-.224.4a1.973 1.973 0 0 0-.2.422c-.053.152-.11.3-.157.455s-.063.32-.09.48a4.292 4.292 0 0 0-.025.974 6.942 6.942 0 0 0 .194.91c.1.278.235.535.345.775a4.883 4.883 0 0 0 .423.617 2.4 2.4 0 0 0 .413.46c.13.126.256.23.356.315.2.167.324.25.324.25s-.047-.15-.136-.392c-.046-.12-.098-.265-.166-.425zM33.462 26.92c-.03-.163-.052-.325-.088-.482s-.105-.3-.157-.455a2.025 2.025 0 0 0-.2-.423c-.08-.136-.14-.272-.225-.4a4.743 4.743 0 0 0-1.088-1.15 4.542 4.542 0 0 0-.94-.56 2.365 2.365 0 0 0-.394-.136s.094.12.246.324.366.492.6.837c.115.178.23.36.346.565s.2.418.324.633a6.015 6.015 0 0 1 .25.69c.032.115.064.235.1.356s.038.245.06.365a4.28 4.28 0 0 1 .046.732c-.005.246-.042.486-.058.727-.057.235-.1.465-.15.69s-.148.43-.2.628a4.158 4.158 0 0 1-.195.54 4.5 4.5 0 0 0-.168.422c-.09.24-.136.393-.136.393s.12-.084.324-.25c.1-.085.225-.19.356-.315a2.4 2.4 0 0 0 .413-.46 4.873 4.873 0 0 0 .418-.618 8.066 8.066 0 0 0 .35-.774 6.942 6.942 0 0 0 .193-.91 4.235 4.235 0 0 0-.028-.97zM26.57 23.044a.982.982 0 0 0 .93-.675.982.982 0 0 0 1.914-.31 1.02 1.02 0 0 0-.052-.308.978.978 0 0 1-1.862.005.978.978 0 0 1-1.862-.005 1.02 1.02 0 0 0-.052.31.982.982 0 0 0 .983.982z" fill="#d90201"/><path fill="#fff" d="M31.25 17.27h4.644v.272H31.25zM31.25 19.514h3.243v.267H31.25zM34.932 19.514h3.243v.267h-3.243zM33.436 18.002v.272h.785v.398h-1.26v-.67h-1.71V18.944h.272v-.67h1.172v.67h1.799V18.002h-1.056zM36.69 18.928H38.163V17.27h-.267v1.39h-.47v-1.39h-.267v1.39h-.47v-1.39h-.273v.732H34.936v.927H35.883v-.267h-.675v-.386h1.207v.655h.272zM31.972 18.66h.267v.283h-.268zM48.562 17.542h-2.887v-.272h2.756c.048.09.09.183.132.272zM45.675 19.514h3.243v.267h-3.243zM49.483 19.786h-.127v-.272h.032a1.914 1.914 0 0 1 .078.22.088.088 0 0 1 .017.052zM48.917 18.326v.618h-1.8v-.67h-1.17v.67h-.272V18h1.71v.67h1.265v-.4h-.79V18h.916c.052.112.094.222.14.326zM46.397 18.66h.27v.283h-.27zM38.462 17.27h4.65v.272h-4.65zM38.462 19.514h3.243v.267h-3.243zM42.144 19.514h3.243v.267h-3.243zM40.648 18.002v.272h.79v.398h-1.265v-.67h-1.711V18.944h.272v-.67h1.172v.67h1.799V18.002h-1.057zM43.902 18.928H45.375V17.27h-.266v1.39h-.47v-1.39h-.268v1.39h-.47v-1.39h-.272v.732h-1.475v.927H43.096v-.267h-.674v-.386h1.208v.655h.272zM39.184 18.66h.272v.283h-.272zM24.038 17.27h4.644v.272h-4.644zM24.038 19.514h3.243v.267H24.04zM27.72 19.514h3.243v.267H27.72zM26.224 18.002v.272h.784v.398h-1.26v-.67H24.04V18.944h.272v-.67h1.17v.67h1.8V18.002h-1.056zM29.477 18.928h1.475V17.27h-.267v1.39h-.47v-1.39h-.273v1.39h-.465v-1.39h-.272v.732h-1.48v.927H28.672v-.267h-.675v-.386h1.208v.655h.272zM24.76 18.66h.266v.283h-.267zM16.825 17.27h4.644v.272h-4.645zM16.825 19.514h3.243v.267h-3.243zM20.508 19.514h3.243v.267H20.51zM19.012 18.002v.272h.784v.398h-1.26v-.67h-1.711V18.944h.272v-.67h1.167v.67h1.804V18.002h-1.056zM22.265 18.928h1.475V17.27h-.267v1.39h-.47v-1.39h-.273v1.39h-.465v-1.39h-.272v.732h-1.48v.927H21.46v-.267h-.675v-.386h1.208v.655h.272zM17.547 18.66h.267v.283h-.267zM9.613 17.27h4.644v.272H9.613zM9.613 19.514h3.243v.267H9.613zM13.295 19.514h3.243v.267h-3.243zM11.8 18.002v.272h.784v.398h-1.26v-.67H9.613V18.944h.272v-.67h1.166v.67h1.806V18.002H11.8zM15.052 18.928h1.475V17.27h-.266v1.39h-.47v-1.39h-.272v1.39h-.466v-1.39h-.272v.732H13.3v.927H14.247v-.267h-.675v-.386h1.208v.655h.272zM10.335 18.66h.267v.283h-.267zM7.045 17.27v.272H6.44c.04-.09.082-.183.13-.272zM5.644 19.514v.272h-.126a.088.088 0 0 1 .016-.053c.026-.073.047-.146.078-.22zM6.083 19.514h3.243v.267H6.083zM9.316 17.27v1.658H7.568v-.654H6.36v.387h.67v.268h-.942v-.617c.047-.104.09-.2.136-.308h1.344v-.732h.272v1.39h.466v-1.39h.272v1.39h.465v-1.39zM31.26 36.056h4.644v.267H31.26zM20.508 35.214h3.243v.267H20.51zM16.825 35.214h3.243v.267h-3.243zM33.447 36.79v.265h.784v.398h-1.26v-.664h-1.71v.935h.267v-.67H32.7v.67H34.503v-.936H33.448zM36.694 37.714h1.481v-1.658h-.272v1.386h-.466v-1.386h-.272v1.386h-.47v-1.386h-.267v.733h-1.48v.924H35.89v-.272h-.67v-.387h1.208v.659h.266zM31.977 37.442h.272v.282h-.273zM49.173 36.056l-.11.267h-3.378v-.267zM6.083 35.214h3.243v.267H6.083zM5.644 35.214v.267h-.032c-.03-.067-.052-.14-.078-.213a.2.2 0 0 1-.02-.053zM47.4 37.458h1.167c-.037.09-.084.178-.13.267h-1.314v-.67h-1.17v.67h-.268v-.936H47.4zM48.656 37.254v-.2h-.785v-.266h.995c-.065.158-.136.312-.21.466zM46.407 37.442h.267v.282h-.267zM38.473 36.056h4.644v.267h-4.644zM13.295 35.214h3.243v.267h-3.243zM9.613 35.214h3.243v.267H9.613zM40.66 36.79v.265h.783v.398h-1.26v-.664H38.472v.935h.266v-.67h1.172v.67h1.803v-.936H40.66zM43.907 37.714h1.479v-1.658h-.272v1.386h-.466v-1.386h-.273v1.386h-.47v-1.386h-.267v.733h-1.48v.924H43.102v-.272h-.67v-.387h1.208v.659h.267zM39.19 37.442h.27v.282h-.27zM24.048 36.056h4.644v.267h-4.644zM27.72 35.214h3.243v.267H27.72zM24.038 35.214h3.243v.267H24.04zM26.234 36.79v.265h.785v.398h-1.262v-.664h-1.71v.935h.267v-.67h1.17v.67h1.801v-.936h-1.053zM29.482 37.714h1.48v-1.658h-.272v1.386h-.465v-1.386h-.272v1.386h-.47v-1.386h-.268v.733h-1.48v.924H28.677v-.272h-.675v-.387h1.213v.659h.267zM24.765 37.442h.272v.282h-.272zM16.836 36.056h4.644v.267h-4.644zM34.932 35.214h3.243v.267h-3.243zM31.25 35.214h3.243v.267H31.25zM19.022 36.79v.265h.785v.398h-1.26v-.664h-1.711v.935h.267v-.67h1.17v.67H20.074v-.936H19.022zM22.27 37.714H23.75v-1.658h-.272v1.386h-.47v-1.386h-.267v1.386h-.47v-1.386h-.267v.733h-1.48v.924H21.464v-.272h-.674v-.387h1.213v.659h.267zM17.552 37.442h.272v.282h-.272zM9.618 36.056h4.65v.267h-4.65zM42.144 35.214h3.243v.267h-3.243zM38.462 35.214h3.243v.267h-3.243zM11.81 36.79v.265h.784v.398h-1.26v-.664H9.618v.935h.273v-.67h1.172v.67h1.799v-.936h-1.05zM15.058 37.714h1.48v-1.658h-.272v1.386h-.47v-1.386h-.268v1.386h-.47v-1.386h-.267v.733h-1.479v.924H14.253v-.272h-.674v-.387h1.213v.659h.268zM10.34 37.442h.272v.282h-.272zM7.056 36.056v.267h-1.12c-.036-.09-.072-.178-.11-.267zM49.487 35.214c0 .016-.01.037-.015.053-.027.073-.053.146-.084.214h-.032v-.266zM45.675 35.214h3.243v.267h-3.243zM6.433 37.448h.607v.266h-.476c-.047-.09-.09-.177-.13-.266zM9.32 36.056v1.658H7.58v-.66H6.364v.252c-.078-.172-.157-.345-.23-.517H7.58v-.734h.265v1.392h.47v-1.392h.268v1.392h.47v-1.392z"/></svg>