<svg xmlns="http://www.w3.org/2000/svg" viewBox="0 0 55 55"><path d="M50.8 27.5a22.855 22.855 0 0 1-.14 2.552 22.4 22.4 0 0 1-.467 2.735A23.346 23.346 0 0 1 27.5 50.8a23.62 23.62 0 0 1-2.453-.13 24.792 24.792 0 0 1-2.735-.45 23.407 23.407 0 0 1-5.1-1.82 22.82 22.82 0 0 1-2.73-1.59 23.374 23.374 0 0 1-9.676-14.026 22.4 22.4 0 0 1-.465-2.735 23.11 23.11 0 0 1 0-5.1 22.563 22.563 0 0 1 .466-2.736A23.374 23.374 0 0 1 14.48 8.19a22.82 22.82 0 0 1 2.73-1.59 23.083 23.083 0 0 1 5.1-1.814 23.3 23.3 0 0 1 27.885 17.43 22.565 22.565 0 0 1 .466 2.735 22.827 22.827 0 0 1 .14 2.55z" fill="#063895"/><path d="M50.8 27.5a22.855 22.855 0 0 1-.14 2.552 22.4 22.4 0 0 1-.467 2.735h-25.15V50.67a24.792 24.792 0 0 1-2.734-.45 23.407 23.407 0 0 1-5.1-1.82 22.82 22.82 0 0 1-2.73-1.59V32.784H4.805a22.4 22.4 0 0 1-.465-2.735 23.11 23.11 0 0 1 0-5.1 22.563 22.563 0 0 1 .466-2.736h9.675V8.19a22.82 22.82 0 0 1 2.73-1.59 23.083 23.083 0 0 1 5.1-1.814 23.46 23.46 0 0 1 2.736-.455v17.886h25.147a22.565 22.565 0 0 1 .466 2.735 22.827 22.827 0 0 1 .14 2.55z" fill="#fff"/><path d="M50.8 27.5a22.855 22.855 0 0 1-.14 2.552H22.31V50.22a23.407 23.407 0 0 1-5.1-1.82V30.05H4.34a23.11 23.11 0 0 1 0-5.1h12.87V6.6a23.083 23.083 0 0 1 5.1-1.814V24.95h28.35a22.827 22.827 0 0 1 .14 2.55z" fill="#d62827"/></svg>