<svg xmlns="http://www.w3.org/2000/svg" viewBox="0 0 55 55"><path d="M49.194 19a23.1 23.1 0 0 0-1.877-3.74c-.11-.183-.225-.36-.345-.533a23.277 23.277 0 0 0-38.944 0c-.12.173-.23.35-.345.533a23.3 23.3 0 0 0-1.877 20.75 23.518 23.518 0 0 0 1.877 3.74c.115.177.226.354.345.527a23.277 23.277 0 0 0 38.944 0c.12-.173.235-.35.345-.528a23.518 23.518 0 0 0 1.877-3.74 23.33 23.33 0 0 0 0-17.014z" fill="#009a3c"/><path d="M32.176 27.5l17.018 8.51a23.518 23.518 0 0 1-1.877 3.74L27.5 29.837l-19.817 9.91a23.518 23.518 0 0 1-1.877-3.74L22.824 27.5 5.806 19a23.1 23.1 0 0 1 1.877-3.74L27.5 25.162l19.817-9.906A23.1 23.1 0 0 1 49.194 19z" fill="#fdd017"/><path d="M50.8 27.5a23.216 23.216 0 0 1-1.606 8.51L32.176 27.5 49.194 19a23.19 23.19 0 0 1 1.606 8.5zM22.824 27.5L5.806 36.01a23.33 23.33 0 0 1 0-17.01z"/></svg>