<svg xmlns="http://www.w3.org/2000/svg" viewBox="0 0 55 55"><path d="M49.467 19.733H5.534a23.3 23.3 0 0 1 43.933 0z"/><path d="M50.8 27.5a23.21 23.21 0 0 1-1.333 7.767H5.527a23.328 23.328 0 0 1 .007-15.534h43.933A23.166 23.166 0 0 1 50.8 27.5z" fill="#fff"/><path d="M49.467 35.267a23.316 23.316 0 0 1-43.94 0z" fill="#00793d"/><path d="M33.133 27.5L22.8 35.267l-11.686 8.78A23.18 23.18 0 0 1 4.2 27.5a22.993 22.993 0 0 1 1.334-7.767 23.272 23.272 0 0 1 5.585-8.786l11.68 8.786z" fill="#cd1225"/></svg>