<svg xmlns="http://www.w3.org/2000/svg" viewBox="0 0 55 55"><path d="M48.85 36.824a23.294 23.294 0 0 1-42.7 0z" fill="#006506"/><path d="M49.728 34.5a22.624 22.624 0 0 1-.88 2.328H6.152a22.624 22.624 0 0 1-.878-2.328z" fill="#fff"/><path d="M50.8 27.5a23.27 23.27 0 0 1-1.072 7H5.272a23.348 23.348 0 0 1 0-13.987h44.456A23.25 23.25 0 0 1 50.8 27.5z" fill="#ba0201"/><path d="M49.728 20.51H5.272a22.1 22.1 0 0 1 .88-2.328h42.7a22.1 22.1 0 0 1 .876 2.327z" fill="#fff"/><path d="M48.85 18.182H6.15a23.29 23.29 0 0 1 42.7 0z"/><path d="M35.885 41.36L22.252 17.67a.97.97 0 0 0 .1-1.1c-.267-.462-3.89-5.89-4.35-5.624s2.415 6.12 2.676 6.585a.966.966 0 0 0 1 .466l13.637 23.687z" fill="#fff"/><path d="M33.292 36.824l-.523-.91-.822-1.414-3.448-5.993-.6-1.057v-.015l-.01-.01-.362-.634-.01-.01v-.015L27 25.87l-3.1-5.36-1.312-2.28-.03-.048-.29-.508a.99.99 0 0 0 .095-1.114c-.14-.24-1.134-1.737-2.1-3.08-1.3-1.8-2.065-2.663-2.265-2.548s.152 1.208 1.062 3.238c.675 1.517 1.47 3.122 1.61 3.368a.99.99 0 0 0 1.01.476l.094.168.476.826.863 1.5 3.41 5.916.59 1.025.006.01v.015l.365.633.005.01.01.017.544.94 3.114 5.425 1.27 2.2.074.126 2.8 4.87.01.01.59-.34zm-5.784-8.73v-.016l-.366-.628-.006-.015-.01-.016-.596-1.02-3.384-5.89-.883-1.532-.46-.8-.11-.19-.006-.01h-.005a.946.946 0 0 1-.988-.46c-.14-.24-.936-1.846-1.616-3.363-1.177-2.64-1.177-3.138-1.072-3.2s.538.188 2.233 2.537c.966 1.344 1.955 2.84 2.1 3.08a.957.957 0 0 1-.095 1.09h-.01l.292.512.052.078 1.29 2.25 3.1 5.382.52.9.01.016v.01l.365.633.01.016.006.01.613 1.056 3.423 5.974.837 1.454.507.874 2.605 4.53-.54.313-2.786-4.842-.096-.157L31.2 34.5l-3.128-5.435-.55-.957z"/><path d="M37 10.948c-.46-.267-4.084 5.162-4.345 5.623a.95.95 0 0 0 .1 1.1l-13.64 23.69.57.323L33.318 18a.966.966 0 0 0 1-.465c.27-.468 3.142-6.32 2.682-6.587z" fill="#fff"/><path d="M32.46 18.182l-.04.062-1.3 2.265-3.09 5.37-.52.9v.01l-.01.017v.01l.01-.01.01-.016.52-.904 3.1-5.377 1.3-2.25.046-.078zm4.55-7.25c-.2-.115-.968.743-2.27 2.547-.967 1.343-1.96 2.84-2.1 3.08a.986.986 0 0 0 .09 1.114l-.29.508-.03.047-1.31 2.28-3.086 5.36-.512.895-.01.01-.01.016-.362.63v.015l-.006.015-.614 1.05v.005L23.052 34.5l-.82 1.418-.524.91-2.6 4.524v.016l.59.34 2.81-4.88.072-.126 1.272-2.2 3.116-5.42.544-.94v-.016l.01-.016.36-.628.012-.015v-.01l.59-1.026 3.4-5.915.864-1.5.476-.826.094-.17a.99.99 0 0 0 1.01-.475c.14-.246.935-1.85 1.615-3.368a12.158 12.158 0 0 0 1.114-3.08c.005-.092-.016-.144-.047-.165zm-3.687 7.05h-.01l-.115.2-.46.8-.88 1.533-3.388 5.88v.005l-.59 1.025-.006.01-.01.016-.36.63-.012.015-.005.015-.55.952-3.126 5.438-1.254 2.17-.09.158-2.787 4.843-.544-.313 2.6-4.53.507-.878.837-1.45 3.43-5.963.607-1.057.01-.015.006-.01.36-.634.01-.01.01-.015.52-.905 3.1-5.377 1.3-2.25.046-.077.286-.5.006-.01h-.006a.957.957 0 0 1-.1-1.088c.14-.24 1.13-1.737 2.1-3.08 1.7-2.35 2.123-2.6 2.233-2.538s.1.56-1.072 3.2c-.676 1.517-1.476 3.123-1.612 3.364a.946.946 0 0 1-.993.45zm-.863.2l-.04.063-1.3 2.265-3.09 5.372-.52.9v.01l-.01.016v.01l.01-.01.01-.016.52-.905 3.1-5.377 1.3-2.25.046-.077z"/><path d="M33.04 19.756c-1.28-3.494-3.288-6.308-5.537-6.308s-4.262 2.814-5.543 6.308a23.474 23.474 0 0 1 1.458 7.726 23.5 23.5 0 0 1-1.458 7.73c1.28 3.495 3.29 6.3 5.543 6.3s4.256-2.808 5.538-6.3a23.634 23.634 0 0 1-1.458-7.73 23.605 23.605 0 0 1 1.46-7.726z" fill="#ba0201"/><path d="M33.04 19.756a23.605 23.605 0 0 0-1.458 7.726 23.634 23.634 0 0 0 1.46 7.73 23.514 23.514 0 0 0 1.463-7.73 23.485 23.485 0 0 0-1.464-7.726zM21.96 19.756a23.452 23.452 0 0 0-1.46 7.726 23.48 23.48 0 0 0 1.46 7.73 23.5 23.5 0 0 0 1.458-7.73 23.474 23.474 0 0 0-1.458-7.726z"/><path d="M28.726 27.482c0 .983-.55 1.778-1.223 1.778s-1.23-.8-1.23-1.778.55-1.774 1.23-1.774 1.223.792 1.223 1.774zM25.987 19.53a13.217 13.217 0 0 0 1.2 6.037V13.49a13.255 13.255 0 0 0-1.2 6.04zM29.014 19.53a13.23 13.23 0 0 1-1.2 6.037V13.49a13.268 13.268 0 0 1 1.2 6.04zM29.014 35.438a13.276 13.276 0 0 0-1.2-6.042v12.078a13.236 13.236 0 0 0 1.2-6.036zM25.987 35.438a13.263 13.263 0 0 1 1.2-6.042v12.078a13.223 13.223 0 0 1-1.2-6.036z" fill="#fff"/></svg>