<svg xmlns="http://www.w3.org/2000/svg" viewBox="0 0 55 55"><path d="M50.8 27.5A23.295 23.295 0 0 1 7.328 39.147a23.294 23.294 0 1 1 40.344-23.3A23.172 23.172 0 0 1 50.8 27.5z" fill="#e7122c"/><path d="M27.076 24.76c.142.1.283.2.424.313.14-.11.282-.214.424-.314-.142-.11-.283-.21-.424-.31-.14.1-.288.2-.424.31zM26.27 23.724a5.06 5.06 0 0 0-.438.32c.193.093.392.2.586.307.146-.108.287-.213.433-.312-.192-.115-.386-.22-.58-.314zM28.086 23.316c-.194-.115-.392-.22-.586-.32-.2.1-.392.2-.586.32.194.094.393.2.586.314.194-.115.392-.22.586-.314zM28.577 24.35c.2-.108.393-.213.59-.307-.145-.115-.29-.22-.438-.32-.194.095-.393.2-.586.315.146.1.292.204.433.313zM27.5 25.994c-1.543 1.516-2.72 3.85-2.976 7.416a7.038 7.038 0 0 0 5.947 0c-.25-3.567-1.427-5.9-2.97-7.416zM25.915 24.765c-.188-.115-.382-.22-.575-.32a12.944 12.944 0 0 0-3.776 6.34 6.548 6.548 0 0 0 .49.69 13.226 13.226 0 0 1 3.86-6.71zM28.436 25.194c-.135.1-.272.21-.408.32a11.072 11.072 0 0 1 3.358 7.378 7.032 7.032 0 0 0 .706-.538 12.586 12.586 0 0 0-3.656-7.16zM26.972 25.513c-.136-.11-.272-.215-.408-.32a12.556 12.556 0 0 0-3.656 7.16 7.032 7.032 0 0 0 .706.54 11.072 11.072 0 0 1 3.358-7.38zM29.906 23.72a12.837 12.837 0 0 1 3.263-.79c-.08-.1-.157-.216-.24-.315a11.94 11.94 0 0 0-3.48.785c.15.1.304.21.456.32zM34.085 29.467a6.99 6.99 0 0 0-.65-6.14 12.178 12.178 0 0 0-3.038.78 12.593 12.593 0 0 1 3.688 5.36zM29.66 24.446c-.193.1-.387.2-.58.32a13.135 13.135 0 0 1 3.86 6.71 6.46 6.46 0 0 0 .5-.692 12.95 12.95 0 0 0-3.78-6.338zM31.585 21.355a7.01 7.01 0 0 0-8.17 0 14.08 14.08 0 0 1 4.085 1 14.08 14.08 0 0 1 4.085-1zM28.8 23a12.086 12.086 0 0 1 3.74-.816c-.12-.126-.25-.25-.382-.366a12.31 12.31 0 0 0-3.95.863c.197.097.392.202.592.32zM24.6 24.106a12.158 12.158 0 0 0-3.044-.78 6.984 6.984 0 0 0-1.073 3.73 7.087 7.087 0 0 0 .424 2.41 12.652 12.652 0 0 1 3.693-5.36zM25.55 23.4a11.94 11.94 0 0 0-3.48-.785c-.083.1-.16.21-.24.314a12.938 12.938 0 0 1 3.264.79c.152-.11.306-.22.455-.32zM26.794 22.678a12.31 12.31 0 0 0-3.95-.863c-.135.115-.26.24-.386.366A12.056 12.056 0 0 1 26.2 23c.2-.118.4-.223.594-.322zM26.91 19.137c.193-.016.39-.026.59-.026s.4.01.607.027v-.016a4.243 4.243 0 0 1-.162-1.61c.052-.826.21-1.18.21-2.165a2.446 2.446 0 0 0-.655-1.835 4.97 4.97 0 0 1 0 1.72c-.073.55-.54 1.93-.685 2.71a1.843 1.843 0 0 0 .084 1.18zM25.607 19.33c.188-.04.382-.083.58-.114s.4-.053.6-.074a.018.018 0 0 0-.005-.015 4.376 4.376 0 0 1-.408-1.56c-.08-.83.02-1.2-.13-2.175a2.45 2.45 0 0 0-.932-1.71 5.118 5.118 0 0 1 .267 1.7c.014.554-.232 1.987-.252 2.782a1.825 1.825 0 0 0 .26 1.15zM24.35 19.728c.185-.073.368-.146.556-.2s.392-.12.586-.167a.018.018 0 0 1-.006-.015 4.227 4.227 0 0 1-.648-1.48c-.21-.8-.167-1.187-.476-2.123a2.428 2.428 0 0 0-1.187-1.542 4.977 4.977 0 0 1 .533 1.637c.105.544.084 2 .183 2.787a1.875 1.875 0 0 0 .446 1.1zM23.175 20.314c.167-.1.34-.2.518-.288s.366-.178.55-.256l-.012-.01a4.354 4.354 0 0 1-.867-1.36 21.747 21.747 0 0 0-.8-2.024 2.458 2.458 0 0 0-1.412-1.345 5.24 5.24 0 0 1 .78 1.54c.183.522.392 1.96.618 2.72a1.89 1.89 0 0 0 .61 1.02zM22.1 21.083c.15-.13.3-.25.465-.372s.335-.23.507-.333l-.01-.01a4.46 4.46 0 0 1-1.078-1.21c-.444-.7-.523-1.076-1.1-1.877a2.442 2.442 0 0 0-1.606-1.1 5.143 5.143 0 0 1 1.01 1.39c.266.488.7 1.88 1.035 2.595a1.856 1.856 0 0 0 .764.9zM21.166 22c.126-.146.262-.293.4-.434s.293-.282.445-.413c-.005 0-.005 0-.01-.01a4.222 4.222 0 0 1-1.25-1.026c-.55-.622-.69-.978-1.386-1.678a2.45 2.45 0 0 0-1.762-.838 4.96 4.96 0 0 1 1.218 1.218c.34.44.984 1.747 1.428 2.4a1.884 1.884 0 0 0 .894.774zM20.382 23.06c.1-.162.214-.33.33-.492s.245-.32.376-.476h-.01a4.434 4.434 0 0 1-1.4-.816c-.644-.533-.838-.863-1.632-1.444a2.415 2.415 0 0 0-1.868-.55 4.908 4.908 0 0 1 1.39 1.01c.4.383 1.246 1.57 1.79 2.145a1.856 1.856 0 0 0 1 .628zM19.776 24.23c.078-.182.157-.36.25-.537s.194-.356.3-.53c-.005-.004-.01-.004-.015-.01a4.252 4.252 0 0 1-1.506-.585c-.716-.424-.957-.722-1.835-1.166a2.447 2.447 0 0 0-1.937-.257 5.1 5.1 0 0 1 1.538.785c.456.314 1.47 1.355 2.1 1.84a1.857 1.857 0 0 0 1.094.46zM19.362 25.476c.048-.188.1-.377.157-.57s.135-.382.213-.565a.018.018 0 0 0-.015-.004 4.466 4.466 0 0 1-1.58-.345c-.774-.308-1.062-.564-2-.868a2.446 2.446 0 0 0-1.945.053 5.057 5.057 0 0 1 1.637.533c.5.236 1.668 1.11 2.358 1.486a1.843 1.843 0 0 0 1.15.287zM19.142 26.778c.02-.2.042-.392.074-.59s.073-.4.115-.6h-.015A4.332 4.332 0 0 1 17.7 25.5c-.81-.183-1.135-.387-2.108-.544a2.456 2.456 0 0 0-1.914.356 5.02 5.02 0 0 1 1.7.272c.528.156 1.82.836 2.563 1.1a1.85 1.85 0 0 0 1.183.1zM19.132 28.09c-.01-.193-.02-.39-.02-.59s.01-.408.025-.607h-.016a4.35 4.35 0 0 1-1.61.162c-.826-.052-1.18-.21-2.165-.21a2.418 2.418 0 0 0-1.835.655 4.97 4.97 0 0 1 1.72 0c.55.073 1.93.54 2.7.685a1.855 1.855 0 0 0 1.187-.084zM19.33 29.393c-.046-.193-.083-.382-.114-.58s-.058-.4-.074-.6h-.015a4.25 4.25 0 0 1-1.564.413c-.827.08-1.2-.02-2.17.13a2.45 2.45 0 0 0-1.71.932 5.1 5.1 0 0 1 1.7-.267c.553-.014 1.987.232 2.776.252a1.86 1.86 0 0 0 1.155-.266zM19.728 30.65c-.073-.185-.146-.368-.21-.556s-.114-.392-.16-.586c0 0-.012.006-.017.006a4.425 4.425 0 0 1-1.48.648c-.8.21-1.186.167-2.122.47A2.46 2.46 0 0 0 14.2 31.82a4.955 4.955 0 0 1 1.637-.528c.544-.105 2-.084 2.782-.183a1.9 1.9 0 0 0 1.1-.446zM20.314 31.825c-.1-.167-.2-.34-.288-.518s-.178-.366-.256-.55a.02.02 0 0 0-.01.007 4.314 4.314 0 0 1-1.36.873c-.764.33-1.15.35-2.03.8a2.45 2.45 0 0 0-1.34 1.412 5.05 5.05 0 0 1 1.54-.78c.517-.188 1.96-.4 2.72-.617a1.857 1.857 0 0 0 1.013-.612zM21.077 32.9c-.125-.15-.245-.3-.366-.465s-.23-.335-.333-.507c-.006 0-.01 0-.01.01a4.46 4.46 0 0 1-1.21 1.078c-.7.444-1.076.523-1.877 1.1a2.442 2.442 0 0 0-1.1 1.606 4.964 4.964 0 0 1 1.39-1.01c.488-.266 1.88-.7 2.595-1.035a1.856 1.856 0 0 0 .9-.764zM22 33.834c-.146-.13-.292-.262-.434-.4s-.282-.293-.413-.445l-.008.01a4.3 4.3 0 0 1-1.025 1.25c-.622.55-.983.69-1.678 1.386a2.44 2.44 0 0 0-.837 1.757 4.945 4.945 0 0 1 1.218-1.213c.44-.34 1.747-.984 2.4-1.433a1.855 1.855 0 0 0 .78-.9zM23.06 34.618c-.168-.1-.33-.214-.492-.33s-.324-.25-.476-.376c0 .005 0 .005-.01.01a4.288 4.288 0 0 1-.816 1.4c-.528.64-.863.833-1.438 1.633a2.44 2.44 0 0 0-.555 1.867 5.035 5.035 0 0 1 1.015-1.39c.382-.4 1.57-1.246 2.144-1.79a1.856 1.856 0 0 0 .628-1zM24.226 35.225c-.178-.08-.356-.162-.533-.25s-.36-.195-.534-.3a.018.018 0 0 1 0 .014 4.252 4.252 0 0 1-.587 1.506c-.424.716-.722.957-1.17 1.835a2.448 2.448 0 0 0-.253 1.93 5.073 5.073 0 0 1 .785-1.53c.314-.456 1.355-1.476 1.836-2.1a1.846 1.846 0 0 0 .466-1.094zM25.476 35.638c-.188-.047-.382-.1-.57-.162s-.382-.13-.57-.21v.016a4.466 4.466 0 0 1-.345 1.58c-.308.774-.564 1.062-.867 2a2.442 2.442 0 0 0 .052 1.945 4.938 4.938 0 0 1 .533-1.637c.236-.5 1.11-1.668 1.486-2.364a1.823 1.823 0 0 0 .287-1.145zM26.773 35.858c-.193-.02-.387-.042-.586-.074s-.4-.073-.6-.12v.02A4.446 4.446 0 0 1 25.5 37.3c-.183.81-.392 1.135-.544 2.108a2.44 2.44 0 0 0 .356 1.914 5.02 5.02 0 0 1 .272-1.7c.157-.533.83-1.82 1.1-2.568a1.84 1.84 0 0 0 .105-1.177zM28.092 35.868c-.2.01-.393.02-.592.02s-.408-.01-.607-.025v.016a4.463 4.463 0 0 1 .162 1.61c-.052.826-.21 1.18-.21 2.165a2.418 2.418 0 0 0 .655 1.835 4.97 4.97 0 0 1 0-1.72c.07-.55.54-1.93.685-2.71a1.9 1.9 0 0 0-.084-1.18zM29.393 35.67c-.193.046-.387.083-.58.114s-.4.053-.607.074a.018.018 0 0 1 0 .015 4.273 4.273 0 0 1 .408 1.564c.08.827-.015 1.2.136 2.17a2.43 2.43 0 0 0 .93 1.71 5.122 5.122 0 0 1-.266-1.7c-.015-.553.23-1.986.25-2.78a1.852 1.852 0 0 0-.265-1.152zM30.65 35.272c-.185.073-.368.146-.56.2s-.388.12-.582.167a.018.018 0 0 0 .006.015 4.425 4.425 0 0 1 .648 1.48c.2.8.167 1.187.47 2.123A2.428 2.428 0 0 0 31.82 40.8a4.955 4.955 0 0 1-.528-1.636c-.105-.544-.084-2-.188-2.782a1.865 1.865 0 0 0-.445-1.1zM31.825 34.686c-.167.1-.34.2-.518.288s-.366.178-.548.256a.02.02 0 0 0 0 .01 4.36 4.36 0 0 1 .872 1.36c.33.764.35 1.15.8 2.03a2.45 2.45 0 0 0 1.412 1.34 5.12 5.12 0 0 1-.78-1.54c-.187-.517-.4-1.96-.616-2.72a1.894 1.894 0 0 0-.612-1.02zM32.892 33.923c-.146.125-.3.245-.46.366s-.335.23-.507.333c0 .006 0 .01.01.01a4.385 4.385 0 0 1 1.073 1.21c.45.7.528 1.076 1.108 1.877a2.442 2.442 0 0 0 1.606 1.1 4.94 4.94 0 0 1-1.01-1.39c-.266-.488-.7-1.88-1.04-2.595a1.86 1.86 0 0 0-.76-.905zM33.834 33c-.13.146-.262.293-.4.434s-.293.282-.445.413l.01.01a4.3 4.3 0 0 1 1.25 1.026c.55.622.69.983 1.386 1.678a2.44 2.44 0 0 0 1.757.838 5.05 5.05 0 0 1-1.213-1.218c-.34-.44-.984-1.747-1.433-2.4a1.86 1.86 0 0 0-.9-.774zM34.613 31.94c-.1.162-.21.33-.33.492s-.245.32-.376.476h.016a4.43 4.43 0 0 1 1.4.82c.638.53.832.86 1.632 1.44a2.442 2.442 0 0 0 1.867.554 5.035 5.035 0 0 1-1.39-1.015c-.4-.382-1.246-1.57-1.79-2.144a1.856 1.856 0 0 0-1-.628zM35.22 30.77c-.074.182-.157.36-.246.537s-.194.36-.3.53c0 .004.01.004.015.01a4.252 4.252 0 0 1 1.506.585c.716.424.957.722 1.835 1.166a2.435 2.435 0 0 0 1.932.257 5.01 5.01 0 0 1-1.533-.785c-.456-.314-1.476-1.355-2.1-1.836a1.835 1.835 0 0 0-1.088-.465zM35.638 29.524c-.047.188-.1.377-.162.57s-.136.382-.21.57h.016a4.466 4.466 0 0 1 1.58.345c.774.308 1.056.564 2 .868a2.446 2.446 0 0 0 1.945-.053 5.057 5.057 0 0 1-1.637-.533c-.5-.236-1.668-1.11-2.364-1.486a1.84 1.84 0 0 0-1.15-.287zM35.852 28.227c-.015.193-.036.387-.068.586s-.073.4-.12.6h.016a4.357 4.357 0 0 1 1.62.087c.81.183 1.135.392 2.108.544a2.456 2.456 0 0 0 1.914-.356 5 5 0 0 1-1.7-.272c-.533-.156-1.82-.836-2.568-1.1a1.852 1.852 0 0 0-1.182-.1zM35.863 26.91c.016.193.026.39.026.59s-.01.408-.027.607h.016a4.35 4.35 0 0 1 1.61-.162c.826.052 1.18.21 2.165.21a2.427 2.427 0 0 0 1.835-.655 4.97 4.97 0 0 1-1.72 0c-.55-.068-1.93-.54-2.71-.685a1.843 1.843 0 0 0-1.18.084zM35.67 25.607c.04.193.083.387.114.58s.053.4.074.6h.015a4.27 4.27 0 0 1 1.56-.408c.83-.085 1.2.014 2.175-.137a2.45 2.45 0 0 0 1.71-.93 5.114 5.114 0 0 1-1.7.266c-.554.014-1.993-.232-2.782-.252a1.877 1.877 0 0 0-1.156.266zM35.272 24.35c.073.185.142.368.2.556s.115.392.167.586a.018.018 0 0 0 .015-.006 4.385 4.385 0 0 1 1.475-.648c.8-.21 1.192-.167 2.128-.47A2.46 2.46 0 0 0 40.8 23.18a4.955 4.955 0 0 1-1.636.528c-.544.105-2 .084-2.787.188a1.855 1.855 0 0 0-1.1.44zM34.686 23.175c.1.167.2.34.288.518s.172.366.25.55c0 0 .01-.007.017-.007a4.36 4.36 0 0 1 1.36-.873 21.747 21.747 0 0 0 2.024-.8 2.435 2.435 0 0 0 1.34-1.412 5.03 5.03 0 0 1-1.533.78c-.522.188-1.96.4-2.72.617a1.866 1.866 0 0 0-1.02.612zM33.917 22.1c.126.15.25.308.366.465s.236.335.34.507l.01-.01a4.37 4.37 0 0 1 1.21-1.072c.7-.45 1.076-.53 1.877-1.11a2.442 2.442 0 0 0 1.1-1.605 4.94 4.94 0 0 1-1.39 1.01c-.488.266-1.88.7-2.595 1.035a1.888 1.888 0 0 0-.91.764zM33 21.166c.146.13.293.262.434.4s.282.293.414.445c0-.005 0-.005.01-.01a4.26 4.26 0 0 1 1.02-1.25c.627-.55.983-.69 1.683-1.386a2.44 2.44 0 0 0 .84-1.754 5.016 5.016 0 0 1-1.218 1.213c-.44.34-1.747.984-2.4 1.433a1.848 1.848 0 0 0-.78.895zM31.935 20.387c.167.1.335.21.5.324s.318.252.475.378v-.01a4.49 4.49 0 0 1 .816-1.4c.534-.64.863-.833 1.444-1.633a2.433 2.433 0 0 0 .55-1.867 5.008 5.008 0 0 1-1.01 1.39c-.383.4-1.57 1.246-2.145 1.79a1.856 1.856 0 0 0-.628 1zM30.77 19.78c.182.074.36.157.537.246s.356.194.53.3a.018.018 0 0 0 .004-.015 4.383 4.383 0 0 1 .593-1.506c.423-.716.72-.957 1.165-1.835a2.425 2.425 0 0 0 .25-1.93 4.91 4.91 0 0 1-.778 1.53c-.314.456-1.355 1.476-1.84 2.1a1.855 1.855 0 0 0-.46 1.094zM29.524 19.362c.19.047.377.1.565.162s.386.13.57.21c0 0 .004-.01.004-.016a4.49 4.49 0 0 1 .345-1.58c.308-.774.564-1.062.868-2a2.446 2.446 0 0 0-.053-1.945 5.18 5.18 0 0 1-.533 1.637c-.24.5-1.108 1.668-1.49 2.364a1.883 1.883 0 0 0-.288 1.15zM28.222 19.148c.2.015.393.036.59.068s.4.073.6.12v-.016a4.234 4.234 0 0 1 .1-1.616c.178-.81.387-1.135.544-2.108a2.456 2.456 0 0 0-.356-1.914 5.147 5.147 0 0 1-.272 1.7c-.156.533-.836 1.82-1.1 2.568a1.835 1.835 0 0 0-.1 1.177z" fill="#feee1c"/></svg>