<svg xmlns="http://www.w3.org/2000/svg" viewBox="0 0 55 55"><path d="M47.672 15.847H7.322a23.3 23.3 0 0 1 40.35 0zM47.672 39.147a23.29 23.29 0 0 1-40.35 0z" fill="#0a2f9f"/><path d="M50.8 27.5a23.144 23.144 0 0 1-3.128 11.647H7.322a23.3 23.3 0 0 1 0-23.3h40.35A23.182 23.182 0 0 1 50.8 27.5z" fill="#df0324"/><path d="M42.515 35.69h-.664v-1.365a.072.072 0 0 0-.072-.073h-.66v-1.187a.072.072 0 0 0-.073-.073h-.66v-.874a.07.07 0 0 0-.072-.073h-.408v-.664a.075.075 0 0 0-.073-.073h-.565c-.157-.026-.324-.235-.434-.4v-2.58l.476-.518a.057.057 0 0 0 .02-.048v-2.244a.078.078 0 0 0-.03-.063.085.085 0 0 0-.064-.01.984.984 0 0 0-.356.24v-.638a.1.1 0 0 0-.01-.042.3.3 0 0 0-.194-.11.235.235 0 0 0-.2.105.05.05 0 0 0-.02.047v.153h-.418v-.952a.072.072 0 0 0-.074-.073.073.073 0 0 0-.073.062v.006a.057.057 0 0 1-.01.02.19.19 0 0 1-.01.022.85.85 0 0 1-.074.14c-.088.137-.177.2-.287.2a.053.053 0 0 1-.022-.004s-.016-.025.016-.1a.836.836 0 0 1 .047-.094.3.3 0 0 0 .037-.062.977.977 0 0 0 .1-.492.412.412 0 0 0-.09-.314.075.075 0 0 0-.072-.015.06.06 0 0 0-.047.057.294.294 0 0 1-.12.188.066.066 0 0 1-.037.016c-.01-.01-.025-.057.11-.308l.006-.006a.64.64 0 0 0 0-.528.083.083 0 0 0-.068-.037.075.075 0 0 0-.063.053.715.715 0 0 1-.1.214c.006-.063.027-.157.037-.225a1.966 1.966 0 0 0 .052-.35.735.735 0 0 0-.068-.356.065.065 0 0 0-.073-.035.074.074 0 0 0-.063.052 1.426 1.426 0 0 1-.073.25 1.294 1.294 0 0 1-.025-.276c0-.22-.12-.7-.466-.79-.037-.172-.074-.35-.288-.35s-.246.178-.283.35c-.35.09-.465.57-.465.79a1.6 1.6 0 0 1-.026.278 2.41 2.41 0 0 1-.08-.25.066.066 0 0 0-.056-.053.078.078 0 0 0-.08.036.832.832 0 0 0-.067.357 1.976 1.976 0 0 0 .054.35 2.2 2.2 0 0 1 .042.225.715.715 0 0 1-.105-.214.074.074 0 0 0-.135-.016.685.685 0 0 0 0 .528v.006c.14.25.12.3.115.308a.078.078 0 0 1-.042-.016.293.293 0 0 1-.108-.195.072.072 0 0 0-.052-.057.064.064 0 0 0-.068.015.418.418 0 0 0-.09.32.91.91 0 0 0 .1.487c.016.02.02.042.037.062a.744.744 0 0 1 .052.094c.026.078.015.1.015.1a.063.063 0 0 1-.026.005c-.106.005-.2-.063-.283-.2a.6.6 0 0 1-.08-.142c0-.006-.004-.01-.01-.02a.044.044 0 0 0-.005-.017.07.07 0 0 0-.078-.067.066.066 0 0 0-.068.068v1.706H33.9a.8.8 0 0 0-.214-.105.06.06 0 0 0-.058.017.065.065 0 0 0-.03.058v.068h-2.8v-1.616a.066.066 0 0 0-.048-.063.057.057 0 0 0-.073.01l-.37.33a.065.065 0 0 0-.027.053v.277h-.183a.475.475 0 0 1-.168-.366c.015-.115.12-.22.308-.3a.07.07 0 0 0 .042-.068v-.58a.068.068 0 0 0-.068-.074c-.027 0-.225 0-.508.335a.208.208 0 0 0-.157-.078.2.2 0 0 0-.167.105.064.064 0 0 0-.01.042v.62h-.08v-.72l.07-.064c.015-.015.03-.026.04-.036a.748.748 0 0 1 .064-.063.514.514 0 0 0 .183-.272 1.212 1.212 0 0 0-.042-.575.073.073 0 0 0-.063-.047.07.07 0 0 0-.068.042c-.015.026-.026.052-.042.078a.965.965 0 0 1-.1.194.145.145 0 0 1-.09.068v-.2a.447.447 0 0 1 .142-.278l.016-.02a1.866 1.866 0 0 0 .23-.34.868.868 0 0 0-.068-.738.062.062 0 0 0-.073-.032.07.07 0 0 0-.06.062 1.263 1.263 0 0 1-.11.393c-.03.057-.04.073-.067.078a.528.528 0 0 1-.09 0v-.365a1.133 1.133 0 0 0 .226-.507.9.9 0 0 0-.137-.5.065.065 0 0 0-.068-.02.1.1 0 0 0-.052.05l-.052.2a.727.727 0 0 1-.082.247h-.118v-.3a1.06 1.06 0 0 0 .236-.507.405.405 0 0 0-.09-.3.075.075 0 0 0-.067-.02.1.1 0 0 0-.054.05 1.023 1.023 0 0 1-.13.3h-.142v-.145a.628.628 0 0 0 .246-.4.284.284 0 0 0-.115-.225.073.073 0 0 0-.1 0l-.146.147h-.038l.125-.518a.072.072 0 0 0-.015-.063.084.084 0 0 0-.058-.026h-.09l.064-.3a.063.063 0 0 0-.016-.058.082.082 0 0 0-.057-.026h-.094l.032-.2a.05.05 0 0 0-.016-.052.065.065 0 0 0-.057-.026h-.22l.04-.24a.06.06 0 0 0-.015-.06.065.065 0 0 0-.052-.025h-.213a.53.53 0 0 0-.058-.354.344.344 0 0 0-.262-.152.06.06 0 0 0-.026 0h-.02a.362.362 0 0 0-.262.152.56.56 0 0 0-.058.355h-.21a.084.084 0 0 0-.056.027.06.06 0 0 0-.016.058l.047.24h-.226a.052.052 0 0 0-.052.027.065.065 0 0 0-.02.052l.035.2h-.1a.062.062 0 0 0-.052.026.063.063 0 0 0-.016.058l.057.3h-.09a.084.084 0 0 0-.057.026.07.07 0 0 0-.016.063l.126.518h-.037l-.146-.147a.073.073 0 0 0-.1 0 .276.276 0 0 0-.11.225.628.628 0 0 0 .24.4v.146h-.136a1.016 1.016 0 0 1-.135-.3.072.072 0 0 0-.052-.053.08.08 0 0 0-.068.02.415.415 0 0 0-.084.3 1.06 1.06 0 0 0 .232.508v.3h-.105c-.03-.016-.063-.136-.09-.246a1.2 1.2 0 0 0-.05-.2.075.075 0 0 0-.054-.053.064.064 0 0 0-.067.02.9.9 0 0 0-.137.5 1.144 1.144 0 0 0 .224.508v.366a.456.456 0 0 1-.083 0c-.026 0-.036-.02-.073-.083a1.193 1.193 0 0 1-.1-.387.08.08 0 0 0-.058-.062.066.066 0 0 0-.08.03.85.85 0 0 0-.062.74 1.817 1.817 0 0 0 .225.338l.016.02a.42.42 0 0 1 .14.28v.2a.173.173 0 0 1-.09-.07 1.406 1.406 0 0 1-.104-.193.543.543 0 0 0-.036-.078.075.075 0 0 0-.068-.042.073.073 0 0 0-.063.047 1.14 1.14 0 0 0-.043.575.515.515 0 0 0 .184.272l.063.063a.212.212 0 0 0 .037.036c.015.016.058.048.073.063v.72h-.08v-.62a.07.07 0 0 0-.014-.043.188.188 0 0 0-.17-.105.222.222 0 0 0-.156.08c-.282-.33-.48-.336-.5-.336a.07.07 0 0 0-.073.073v.58a.07.07 0 0 0 .043.068c.188.078.293.183.314.3a.475.475 0 0 1-.168.366h-.19V24.7a.065.065 0 0 0-.025-.053l-.366-.33a.065.065 0 0 0-.08-.01.068.068 0 0 0-.04.063v1.622H21.4v-.068a.077.077 0 0 0-.026-.058.07.07 0 0 0-.063-.016.807.807 0 0 0-.208.105h-.544v-1.708a.07.07 0 0 0-.073-.073.074.074 0 0 0-.074.062v.006a.045.045 0 0 1-.01.02.1.1 0 0 1-.01.022.932.932 0 0 1-.073.14c-.09.137-.177.2-.287.2a.053.053 0 0 1-.02-.004s-.017-.026.014-.1a.847.847 0 0 1 .048-.095.356.356 0 0 0 .036-.062.977.977 0 0 0 .105-.492.458.458 0 0 0-.09-.313.075.075 0 0 0-.072-.015.066.066 0 0 0-.046.057.3.3 0 0 1-.12.187.066.066 0 0 1-.037.016c-.01-.01-.027-.057.115-.308v-.006a.686.686 0 0 0 .005-.53.1.1 0 0 0-.073-.036.084.084 0 0 0-.063.053.607.607 0 0 1-.11.214c.012-.062.027-.156.043-.224a1.928 1.928 0 0 0 .057-.35.713.713 0 0 0-.073-.356.068.068 0 0 0-.073-.036.074.074 0 0 0-.063.052 2.455 2.455 0 0 1-.072.25 1.222 1.222 0 0 1-.026-.276c0-.22-.12-.7-.466-.79-.036-.173-.073-.35-.287-.35s-.252.177-.284.35c-.345.09-.465.57-.465.79a1.283 1.283 0 0 1-.025.277 2.2 2.2 0 0 1-.078-.25.068.068 0 0 0-.058-.053.077.077 0 0 0-.08.036.832.832 0 0 0-.068.356 1.888 1.888 0 0 0 .053.35 1.95 1.95 0 0 1 .04.225.632.632 0 0 1-.1-.213.1.1 0 0 0-.062-.053.092.092 0 0 0-.073.037.68.68 0 0 0 0 .53v.005c.137.25.126.3.115.308a.064.064 0 0 1-.036-.016.3.3 0 0 1-.122-.188.067.067 0 0 0-.047-.058.084.084 0 0 0-.077.015.436.436 0 0 0-.084.32.96.96 0 0 0 .1.486c.01.02.026.042.036.062a.406.406 0 0 1 .052.095c.026.078.016.1.016.1a.063.063 0 0 1-.026.005c-.1.006-.2-.062-.283-.2q-.04-.063-.078-.14c0-.007-.005-.012-.01-.022s-.006-.016-.01-.016a.066.066 0 0 0-.07-.068.07.07 0 0 0-.077.067v.953h-.42v-.152a.065.065 0 0 0-.018-.048.25.25 0 0 0-.2-.105.286.286 0 0 0-.19.11.06.06 0 0 0-.01.042v.638a.984.984 0 0 0-.355-.24.1.1 0 0 0-.068.01.07.07 0 0 0-.027.063v2.244a.072.072 0 0 0 .016.047l.475.516v2.59c-.105.156-.272.365-.43.39h-.564a.072.072 0 0 0-.072.075v.665h-.413a.074.074 0 0 0-.073.073v.874h-.66a.074.074 0 0 0-.072.073v1.187h-.655a.072.072 0 0 0-.073.073v1.365h-.664a.072.072 0 0 0-.073.074V37.2a.075.075 0 0 0 .073.073h30.027a.08.08 0 0 0 .074-.073v-1.436a.076.076 0 0 0-.075-.074z" fill="#fff"/><path d="M42.515 35.69h-.664v-1.365a.072.072 0 0 0-.072-.073h-.66v-1.187a.072.072 0 0 0-.073-.073h-.66v-.874a.07.07 0 0 0-.072-.073h-.408v-.664a.075.075 0 0 0-.073-.073h-.565c-.157-.026-.324-.235-.434-.4v-2.58l.476-.518a.057.057 0 0 0 .02-.048v-2.244a.078.078 0 0 0-.03-.063.085.085 0 0 0-.064-.01.984.984 0 0 0-.356.24v-.638a.1.1 0 0 0-.01-.042.3.3 0 0 0-.194-.11.235.235 0 0 0-.2.105.05.05 0 0 0-.02.047v.153h-.418v-.952a.072.072 0 0 0-.074-.073.073.073 0 0 0-.073.062v.006a.057.057 0 0 1-.01.02.19.19 0 0 1-.01.022.85.85 0 0 1-.074.14c-.088.137-.177.2-.287.2a.053.053 0 0 1-.022-.004s-.016-.025.016-.1a.836.836 0 0 1 .047-.094.3.3 0 0 0 .037-.062.977.977 0 0 0 .1-.492.412.412 0 0 0-.09-.314.075.075 0 0 0-.072-.015.06.06 0 0 0-.047.057.294.294 0 0 1-.12.188.066.066 0 0 1-.037.016c-.01-.01-.025-.057.11-.308l.006-.006a.64.64 0 0 0 0-.528.083.083 0 0 0-.068-.037.075.075 0 0 0-.063.053.715.715 0 0 1-.1.214c.006-.063.027-.157.037-.225a1.966 1.966 0 0 0 .052-.35.735.735 0 0 0-.068-.356.065.065 0 0 0-.073-.035.074.074 0 0 0-.063.052 1.426 1.426 0 0 1-.073.25 1.294 1.294 0 0 1-.025-.276c0-.22-.12-.7-.466-.79-.037-.172-.074-.35-.288-.35s-.246.178-.283.35c-.35.09-.465.57-.465.79a1.6 1.6 0 0 1-.026.278 2.41 2.41 0 0 1-.08-.25.066.066 0 0 0-.056-.053.078.078 0 0 0-.08.036.832.832 0 0 0-.067.357 1.976 1.976 0 0 0 .054.35 2.2 2.2 0 0 1 .042.225.715.715 0 0 1-.105-.214.074.074 0 0 0-.135-.016.685.685 0 0 0 0 .528v.006c.14.25.12.3.115.308a.078.078 0 0 1-.042-.016.293.293 0 0 1-.108-.195.072.072 0 0 0-.052-.057.064.064 0 0 0-.068.015.418.418 0 0 0-.09.32.91.91 0 0 0 .1.487c.016.02.02.042.037.062a.744.744 0 0 1 .052.094c.026.078.015.1.015.1a.063.063 0 0 1-.026.005c-.106.005-.2-.063-.283-.2a.6.6 0 0 1-.08-.142c0-.006-.004-.01-.01-.02a.044.044 0 0 0-.005-.017.07.07 0 0 0-.078-.067.066.066 0 0 0-.068.068v1.706H33.9a.8.8 0 0 0-.214-.105.06.06 0 0 0-.058.017.065.065 0 0 0-.03.058v.068h-2.8v-1.616a.066.066 0 0 0-.048-.063.057.057 0 0 0-.073.01l-.37.33a.065.065 0 0 0-.027.053v.277h-.183a.475.475 0 0 1-.168-.366c.015-.115.12-.22.308-.3a.07.07 0 0 0 .042-.068v-.58a.068.068 0 0 0-.068-.074c-.027 0-.225 0-.508.335a.208.208 0 0 0-.157-.078.2.2 0 0 0-.167.105.064.064 0 0 0-.01.042v.62h-.08v-.72l.07-.064c.015-.015.03-.026.04-.036a.748.748 0 0 1 .064-.063.514.514 0 0 0 .183-.272 1.212 1.212 0 0 0-.042-.575.073.073 0 0 0-.063-.047.07.07 0 0 0-.068.042c-.015.026-.026.052-.042.078a.965.965 0 0 1-.1.194.145.145 0 0 1-.09.068v-.2a.447.447 0 0 1 .142-.278l.016-.02a1.866 1.866 0 0 0 .23-.34.868.868 0 0 0-.068-.738.062.062 0 0 0-.073-.032.07.07 0 0 0-.06.062 1.263 1.263 0 0 1-.11.393c-.03.057-.04.073-.067.078a.528.528 0 0 1-.09 0v-.365a1.133 1.133 0 0 0 .226-.507.9.9 0 0 0-.137-.5.065.065 0 0 0-.068-.02.1.1 0 0 0-.052.05l-.052.2a.727.727 0 0 1-.082.247h-.118v-.3a1.06 1.06 0 0 0 .236-.507.405.405 0 0 0-.09-.3.075.075 0 0 0-.067-.02.1.1 0 0 0-.054.05 1.023 1.023 0 0 1-.13.3h-.142v-.145a.628.628 0 0 0 .246-.4.284.284 0 0 0-.115-.225.073.073 0 0 0-.1 0l-.146.147h-.038l.125-.518a.072.072 0 0 0-.015-.063.084.084 0 0 0-.058-.026h-.09l.064-.3a.063.063 0 0 0-.016-.058.082.082 0 0 0-.057-.026h-.094l.032-.2a.05.05 0 0 0-.016-.052.065.065 0 0 0-.057-.026h-.22l.04-.24a.06.06 0 0 0-.015-.06.065.065 0 0 0-.052-.025h-.213a.53.53 0 0 0-.058-.354.344.344 0 0 0-.262-.152.06.06 0 0 0-.026 0h-.02a.362.362 0 0 0-.262.152.56.56 0 0 0-.058.355h-.21a.084.084 0 0 0-.056.027.06.06 0 0 0-.016.058l.047.24h-.226a.052.052 0 0 0-.052.027.065.065 0 0 0-.02.052l.035.2h-.1a.062.062 0 0 0-.052.026.063.063 0 0 0-.016.058l.057.3h-.09a.084.084 0 0 0-.057.026.07.07 0 0 0-.016.063l.126.518h-.037l-.146-.147a.073.073 0 0 0-.1 0 .276.276 0 0 0-.11.225.628.628 0 0 0 .24.4v.146h-.136a1.016 1.016 0 0 1-.135-.3.072.072 0 0 0-.052-.053.08.08 0 0 0-.068.02.415.415 0 0 0-.084.3 1.06 1.06 0 0 0 .232.508v.3h-.105c-.03-.016-.063-.136-.09-.246a1.2 1.2 0 0 0-.05-.2.075.075 0 0 0-.054-.053.064.064 0 0 0-.067.02.9.9 0 0 0-.137.5 1.144 1.144 0 0 0 .224.508v.366a.456.456 0 0 1-.083 0c-.026 0-.036-.02-.073-.083a1.193 1.193 0 0 1-.1-.387.08.08 0 0 0-.058-.062.066.066 0 0 0-.08.03.85.85 0 0 0-.062.74 1.817 1.817 0 0 0 .225.338l.016.02a.42.42 0 0 1 .14.28v.2a.173.173 0 0 1-.09-.07 1.406 1.406 0 0 1-.104-.193.543.543 0 0 0-.036-.078.075.075 0 0 0-.068-.042.073.073 0 0 0-.063.047 1.14 1.14 0 0 0-.043.575.515.515 0 0 0 .184.272l.063.063a.212.212 0 0 0 .037.036c.015.016.058.048.073.063v.72h-.08v-.62a.07.07 0 0 0-.014-.043.188.188 0 0 0-.17-.105.222.222 0 0 0-.156.08c-.282-.33-.48-.336-.5-.336a.07.07 0 0 0-.073.073v.58a.07.07 0 0 0 .043.068c.188.078.293.183.314.3a.475.475 0 0 1-.168.366h-.19V24.7a.065.065 0 0 0-.025-.053l-.366-.33a.065.065 0 0 0-.08-.01.068.068 0 0 0-.04.063v1.622H21.4v-.068a.077.077 0 0 0-.026-.058.07.07 0 0 0-.063-.016.807.807 0 0 0-.208.105h-.544v-1.708a.07.07 0 0 0-.073-.073.074.074 0 0 0-.074.062v.006a.045.045 0 0 1-.01.02.1.1 0 0 1-.01.022.932.932 0 0 1-.073.14c-.09.137-.177.2-.287.2a.053.053 0 0 1-.02-.004s-.017-.026.014-.1a.847.847 0 0 1 .048-.095.356.356 0 0 0 .036-.062.977.977 0 0 0 .105-.492.458.458 0 0 0-.09-.313.075.075 0 0 0-.072-.015.066.066 0 0 0-.046.057.3.3 0 0 1-.12.187.066.066 0 0 1-.037.016c-.01-.01-.027-.057.115-.308v-.006a.686.686 0 0 0 .005-.53.1.1 0 0 0-.073-.036.084.084 0 0 0-.063.053.607.607 0 0 1-.11.214c.012-.062.027-.156.043-.224a1.928 1.928 0 0 0 .057-.35.713.713 0 0 0-.073-.356.068.068 0 0 0-.073-.036.074.074 0 0 0-.063.052 2.455 2.455 0 0 1-.072.25 1.222 1.222 0 0 1-.026-.276c0-.22-.12-.7-.466-.79-.036-.173-.073-.35-.287-.35s-.252.177-.284.35c-.345.09-.465.57-.465.79a1.283 1.283 0 0 1-.025.277 2.2 2.2 0 0 1-.078-.25.068.068 0 0 0-.058-.053.077.077 0 0 0-.08.036.832.832 0 0 0-.068.356 1.888 1.888 0 0 0 .053.35 1.95 1.95 0 0 1 .04.225.632.632 0 0 1-.1-.213.1.1 0 0 0-.062-.053.092.092 0 0 0-.073.037.68.68 0 0 0 0 .53v.005c.137.25.126.3.115.308a.064.064 0 0 1-.036-.016.3.3 0 0 1-.122-.188.067.067 0 0 0-.047-.058.084.084 0 0 0-.077.015.436.436 0 0 0-.084.32.96.96 0 0 0 .1.486c.01.02.026.042.036.062a.406.406 0 0 1 .052.095c.026.078.016.1.016.1a.063.063 0 0 1-.026.005c-.1.006-.2-.062-.283-.2q-.04-.063-.078-.14c0-.007-.005-.012-.01-.022s-.006-.016-.01-.016a.066.066 0 0 0-.07-.068.07.07 0 0 0-.077.067v.953h-.42v-.152a.065.065 0 0 0-.018-.048.25.25 0 0 0-.2-.105.286.286 0 0 0-.19.11.06.06 0 0 0-.01.042v.638a.984.984 0 0 0-.355-.24.1.1 0 0 0-.068.01.07.07 0 0 0-.027.063v2.244a.072.072 0 0 0 .016.047l.475.516v2.59c-.105.156-.272.365-.43.39h-.564a.072.072 0 0 0-.072.075v.665h-.413a.074.074 0 0 0-.073.073v.874h-.66a.074.074 0 0 0-.072.073v1.187h-.655a.072.072 0 0 0-.073.073v1.365h-.664a.072.072 0 0 0-.073.074V37.2a.075.075 0 0 0 .073.073h30.027a.08.08 0 0 0 .074-.073v-1.436a.076.076 0 0 0-.075-.074zM41.7 34.4v1.29h-4.483V34.4zm-15.24-6.6v-.617a.9.9 0 0 1 .26.246.074.074 0 0 0 .08.025.066.066 0 0 0 .052-.052 1.632 1.632 0 0 1 .628-1.11 1.642 1.642 0 0 1 .627 1.11.07.07 0 0 0 .053.052.062.062 0 0 0 .073-.026.89.89 0 0 1 .267-.247v.617zm1.94.14l-.125.18a.058.058 0 0 0-.016.04v2.574h-.2V27.94zm-.486 0v2.794h-.894V27.94zm-10.168-.14v-.59a1.01 1.01 0 0 1 .465.386.08.08 0 0 0 .08.037.072.072 0 0 0 .057-.063 1.39 1.39 0 0 1 .408-.837 1.374 1.374 0 0 1 .408.837.078.078 0 0 0 .062.063.076.076 0 0 0 .074-.037 1.03 1.03 0 0 1 .464-.387v.59zm1.448.14v2.794h-.873V27.94zm-1.83 2.94a.56.56 0 0 1-.356.43h-.717a.89.89 0 0 0 .22-.43zm-.492-.146v-1.79h.288v1.788zm.643.147h.325a1.03 1.03 0 0 1-.3.43h-.25a.888.888 0 0 0 .225-.43zm.09-3.007a.04.04 0 0 0 .004.026c0 .005.005.005.005.01l.25.34v2.48h-.34v-2.7a.07.07 0 0 0-.02-.053l-.3-.3h.395v.193zM18 30.88h.178v.427h-.428a1.266 1.266 0 0 0 .25-.428zm.016-.148v-2.5a.177.177 0 0 0-.01-.042l-.183-.246h.355v2.793zm.565-7.766a.883.883 0 0 1 .18-.257.753.753 0 0 1 .177.256.078.078 0 0 0 .052.047.076.076 0 0 0 .063-.013.65.65 0 0 1 .094-.058v.147l-.1.13a.58.58 0 0 0-.266-.173H18.74a.546.546 0 0 0-.263.173l-.11-.13v-.148a.716.716 0 0 1 .095.058.074.074 0 0 0 .068.016.062.062 0 0 0 .047-.05zm-.193-.414v-.094a.313.313 0 0 1 .068.037.066.066 0 0 0 .068.02.085.085 0 0 0 .053-.04.636.636 0 0 1 .183-.278.56.56 0 0 1 .182.277.08.08 0 0 0 .057.042.072.072 0 0 0 .067-.02.53.53 0 0 1 .063-.038v.094l-.172.162a1 1 0 0 0-.152-.162.02.02 0 0 0-.016 0c0-.005 0-.005-.01-.005h-.027a.02.02 0 0 0-.015.005h-.02a1.252 1.252 0 0 0-.153.162zm.027 1a.806.806 0 0 1 .345-.366.79.79 0 0 1 .344.366.09.09 0 0 0 .063.042.084.084 0 0 0 .068-.03.31.31 0 0 1 .13-.122v.246l-.188.19a.707.707 0 0 0-.387-.336h-.02s-.01-.006-.015-.006-.01.006-.015.006h-.017a.7.7 0 0 0-.38.335l-.19-.19v-.245a.313.313 0 0 1 .13.12.075.075 0 0 0 .064.032.082.082 0 0 0 .063-.043zm-.058.66v-.01c.017-.043.037-.09.058-.137a.634.634 0 0 1 .34-.382.662.662 0 0 1 .345.382c.02.047.036.094.05.136l.007.01a.072.072 0 0 0 .062.048.062.062 0 0 0 .067-.036.42.42 0 0 1 .257-.178v.34l-.278.314a1.35 1.35 0 0 0-.475-.617c0-.005-.005-.005-.01-.005s0-.005-.01-.005h-.027s-.01.005-.015.005-.006 0-.01.006a1.344 1.344 0 0 0-.477.618l-.27-.314v-.345a.42.42 0 0 1 .25.182.07.07 0 0 0 .074.036.073.073 0 0 0 .058-.048zm.4.015a2.178 2.178 0 0 1 .57 1.072.085.085 0 0 0 .068.057.068.068 0 0 0 .068-.042.69.69 0 0 1 .36-.36v.6l-.23.345a1.01 1.01 0 0 0-.188.183 1.365 1.365 0 0 0-.606-.947h-.048a.02.02 0 0 0-.015 0h-.01a1.366 1.366 0 0 0-.608.947.757.757 0 0 0-.188-.183l-.225-.346v-.6a.71.71 0 0 1 .355.36.072.072 0 0 0 .136-.015 2.263 2.263 0 0 1 .56-1.074zm-.69 2.1a.08.08 0 0 0 .073.053.082.082 0 0 0 .067-.058 1.444 1.444 0 0 1 .55-1.036 1.41 1.41 0 0 1 .548 1.036.08.08 0 0 0 .068.058.078.078 0 0 0 .073-.053.75.75 0 0 1 .377-.392v.518l-.372.44a1.54 1.54 0 0 0-.663-.76h-.017a.017.017 0 0 0-.015-.005.016.016 0 0 0-.015.006h-.01a1.087 1.087 0 0 0-.4.32 2.748 2.748 0 0 0-.272.438l-.366-.44v-.517a.7.7 0 0 1 .372.388zm1.375.905a1.4 1.4 0 0 0-.166.152 1.273 1.273 0 0 0-.48-.8h-.012c0-.006 0-.006-.01-.006a.018.018 0 0 0-.016-.005.02.02 0 0 0-.01.005.017.017 0 0 0-.016.006h-.01a1.318 1.318 0 0 0-.482.8 1.48 1.48 0 0 0-.167-.152c.074-.178.33-.784.686-.952a1.908 1.908 0 0 1 .684.948zm-.104.71h.364l-.183.247a.093.093 0 0 0-.016.04v2.5h-.16zm.31.315l.25-.34v-.01l.005-.006s.007-.014.007-.025v-.193h.4l-.3.3a.07.07 0 0 0-.02.052v2.7h-.346zM20 30.88a.87.87 0 0 0 .22.427h-.268a1.028 1.028 0 0 1-.3-.428zm.152 0H21a.977.977 0 0 0 .225.427H20.5a.56.56 0 0 1-.348-.428zm.2-.148v-1.788h.283v1.788zm5.97-2.832v.016l.2.272v2.547h-.637v-3.157h-.006l-.016-.015v-.006l-.2-.2h.653v.517c0 .008.006.013.006.026zm.022-1.15v.2a3.567 3.567 0 0 0-.487-.2zm-.937-.147v-.857a1.782 1.782 0 0 1 .748.763v.09zm1.815-6.234a.894.894 0 0 0 .058-.11.808.808 0 0 1 .2-.3.885.885 0 0 1 .2.3.885.885 0 0 0 .057.11.058.058 0 0 0 .053.036.075.075 0 0 0 .062-.02.758.758 0 0 1 .225-.12v.218l-.32.25a1.34 1.34 0 0 0-.213-.307.072.072 0 0 0-.068-.02.06.06 0 0 0-.062.02 1.2 1.2 0 0 0-.22.308l-.32-.25v-.22a.764.764 0 0 1 .226.12.074.074 0 0 0 .062.02.062.062 0 0 0 .06-.04zm-.1-.367v-.256a.436.436 0 0 1 .083.057.08.08 0 0 0 .105 0 .71.71 0 0 0 .11-.136.185.185 0 0 1 .068-.083.26.26 0 0 1 .073.083.632.632 0 0 0 .106.136.08.08 0 0 0 .1 0 .326.326 0 0 1 .084-.057V20l-.105.052a.614.614 0 0 0-.22-.245V19.8h-.005a.015.015 0 0 1-.01 0 .022.022 0 0 1-.01 0H27.447v.006a.665.665 0 0 0-.22.245zm.078 1.156a1.6 1.6 0 0 1 .288-.592 1.524 1.524 0 0 1 .287.59.075.075 0 0 0 .063.053.074.074 0 0 0 .073-.035.493.493 0 0 1 .258-.194v.43l-.236.225a1.294 1.294 0 0 0-.392-.424.067.067 0 0 0-.052-.01.065.065 0 0 0-.053.01 1.3 1.3 0 0 0-.392.425l-.235-.225v-.43a.515.515 0 0 1 .256.195.075.075 0 0 0 .073.036.08.08 0 0 0 .063-.054zm.288.192a1.978 1.978 0 0 1 .565.827.08.08 0 0 0 .062.046.078.078 0 0 0 .068-.042.732.732 0 0 1 .267-.235v.45h-.774c-.04-.037-.078-.074-.125-.11a.073.073 0 0 0-.062-.016.07.07 0 0 0-.062.016 1.183 1.183 0 0 0-.127.11h-.77v-.455a.745.745 0 0 1 .262.235.07.07 0 0 0 .063.042.076.076 0 0 0 .068-.047 1.97 1.97 0 0 1 .56-.826zm.654 1.2a1.59 1.59 0 0 0-.147.22 1.92 1.92 0 0 0-.173-.22zm-.984 0a1.7 1.7 0 0 0-.178.22 1.493 1.493 0 0 0-.146-.22zm.33-.12a2.023 2.023 0 0 1 .544.69c.03.052.062.11.1.173a.073.073 0 0 0 .063.036.06.06 0 0 0 .057-.03.822.822 0 0 1 .325-.256v.47h-.806a.65.65 0 0 0-.24-.167.14.14 0 0 0-.04 0 .083.083 0 0 0-.038 0 .63.63 0 0 0-.246.167h-.8v-.47a.73.73 0 0 1 .32.256.082.082 0 0 0 .062.03.07.07 0 0 0 .062-.035c.037-.063.068-.12.1-.173a2.01 2.01 0 0 1 .534-.695zm.91 1.23a.843.843 0 0 0-.23.407 2.838 2.838 0 0 0-.272-.41zm-1.318 0a2.68 2.68 0 0 0-.272.407.82.82 0 0 0-.23-.41zm.408-.174a2.46 2.46 0 0 1 .784 1.167.074.074 0 0 0 .058.057.064.064 0 0 0 .073-.03.778.778 0 0 1 .4-.346v.564h-.848a.972.972 0 0 0-.428-.408.06.06 0 0 0-.042 0 .06.06 0 0 0-.042 0 1.01 1.01 0 0 0-.434.408h-.843v-.564a.754.754 0 0 1 .4.345.08.08 0 0 0 .08.032.066.066 0 0 0 .056-.057 2.434 2.434 0 0 1 .78-1.172zm1.212 1.554a1.96 1.96 0 0 0-.256 1.03.91.91 0 0 0-.063.08 4.113 4.113 0 0 0-.34-1.11zm-1.768 0a4.187 4.187 0 0 0-.34 1.11.75.75 0 0 0-.062-.08 1.96 1.96 0 0 0-.256-1.03zm-.37 1.35a.07.07 0 0 0 .078.052.08.08 0 0 0 .062-.068c.073-.6.34-1.55.785-1.747.444.2.71 1.15.784 1.746a.08.08 0 0 0 .064.068.07.07 0 0 0 .078-.053.9.9 0 0 1 .257-.334v.544h-.686a1.22 1.22 0 0 0-.445-.45.062.062 0 0 0-.053-.005.05.05 0 0 0-.047.006 1.2 1.2 0 0 0-.45.45h-.69v-.544c.03.027.063.058.1.095a.723.723 0 0 1 .158.24zm2.577.355a2.937 2.937 0 0 0-.513.22v-.22h.512zm-.325-.147v-.057a.045.045 0 0 0 .022-.02 1.783 1.783 0 0 1 .752-.78v.857zm-.33.147v.277a.9.9 0 0 0-.26.2 2.27 2.27 0 0 0-.163-.476zm-1.574 0a2.393 2.393 0 0 0-.16.476 1.026 1.026 0 0 0-.257-.2v-.277zm-1.16.93V28.8h-.26a.07.07 0 0 0-.074.068v1.862h-.644v-2.77c0-.026 0-.047-.026-.057l-.267-.225zm0 1.272v1.782h-.188V28.95zm-1.14-.974l.02.016v.434h-3.496v-.45zm.02.6v.224h-.27a.074.074 0 0 0-.073.073v1.862h-.336V28.87a.075.075 0 0 0-.072-.073h-.348a.075.075 0 0 0-.073.073v1.862h-.335V28.87a.07.07 0 0 0-.068-.073h-.345a.076.076 0 0 0-.075.073v1.862H22.3V28.87a.075.075 0 0 0-.073-.073h-.346a.08.08 0 0 0-.072.073v1.862h-.328V28.87a.08.08 0 0 0-.073-.073h-.273v-.225zm0 .372v1.788h-.2v-1.792zm-.825 0v1.788h-.2v-1.792zm-.82 0v1.788h-.2v-1.792zm-.822 0v1.788h-.2v-1.792zm-.827 0v1.788h-.2v-1.792zm-.183 1.935h3.468a.527.527 0 0 1-.37.428h-2.723c-.24-.04-.34-.295-.377-.43zm3.614 0h.968a.676.676 0 0 1-.4.428h-.785a.758.758 0 0 0 .214-.43zm1.12 0h.627a.685.685 0 0 1-.34.428h-.56a.764.764 0 0 0 .27-.43zm.78 0h.213v.428h-.455a.84.84 0 0 0 .238-.43zm.01-.147V28.16a.1.1 0 0 0-.01-.043l-.132-.178h.345v2.792zm1.8-2.547l.2-.273a.085.085 0 0 0 0-.078c0-.012-.017-.017-.022-.022v-.46h.685l-.21.2v.006c-.004 0-.01.01-.01.015s-.005 0-.005 0v3.153h-.637zm5.124.61a.076.076 0 0 0-.073.074v1.862h-.334V28.87a.076.076 0 0 0-.074-.073h-.346a.08.08 0 0 0-.073.073v1.862h-.33V28.87a.075.075 0 0 0-.072-.073h-.345a.075.075 0 0 0-.073.073v1.862h-.335V28.87a.074.074 0 0 0-.068-.073h-.345a.08.08 0 0 0-.08.073v1.862h-.328V28.87a.075.075 0 0 0-.073-.073h-.27v-.225h3.492v.228zm.272.148v1.788h-.2v-1.792zm-.82 0v1.788h-.2v-1.792zm-.827 0v1.788h-.2v-1.792zm-.82 0v1.788h-.2v-1.792zm-.827 0v1.788h-.2v-1.792zm-.2-.518v-.434l.02-.016h3.473v.45zm-.128-.53a.068.068 0 0 0-.026.057v2.772h-.643v-1.86a.07.07 0 0 0-.072-.068h-.256v-1.124h1.27zm-.81 1.046v1.783h-.188v-1.78zm-.324 1.93a.747.747 0 0 0 .266.428h-.554a.678.678 0 0 1-.345-.428zm.15 0h.97a.774.774 0 0 0 .213.428h-.785a.648.648 0 0 1-.398-.425zm1.115 0h3.464c-.037.136-.136.392-.372.428h-2.725a.52.52 0 0 1-.366-.425zm3.615 0h.853a.57.57 0 0 1-.356.428h-.716a.9.9 0 0 0 .22-.425zm.36-.147v-1.786h.29v1.788zm.644.146h.345a1.067 1.067 0 0 1-.3.428h-.267A.935.935 0 0 0 35 30.88zm.01-.147v-2.7a.066.066 0 0 0-.02-.053l-.3-.3h.39v.193a.2.2 0 0 0 .006.026l.006.006v.01l.256.34v2.48zm1.05-7.767a.8.8 0 0 1 .18-.257.82.82 0 0 1 .182.257.062.062 0 0 0 .048.047.077.077 0 0 0 .067-.01c.01-.01.052-.03.094-.058v.147l-.108.13a.524.524 0 0 0-.262-.173h-.032a.546.546 0 0 0-.262.173l-.11-.13v-.148a.716.716 0 0 1 .095.058.083.083 0 0 0 .07.016.062.062 0 0 0 .04-.05zm-.192-.414v-.095a.373.373 0 0 1 .068.037.065.065 0 0 0 .068.02.086.086 0 0 0 .052-.04.636.636 0 0 1 .183-.278.608.608 0 0 1 .187.277.072.072 0 0 0 .053.043.07.07 0 0 0 .067-.02.373.373 0 0 1 .068-.038v.094l-.177.16a1.557 1.557 0 0 0-.147-.16.015.015 0 0 0-.01 0 .017.017 0 0 0-.01 0 .018.018 0 0 0-.015-.006h-.027a.018.018 0 0 0-.015.005h-.02a1.335 1.335 0 0 0-.153.16zm.026 1a.838.838 0 0 1 .345-.367.78.78 0 0 1 .344.366.1.1 0 0 0 .063.04.084.084 0 0 0 .068-.03.282.282 0 0 1 .13-.12v.245l-.193.19a.68.68 0 0 0-.382-.336h-.015c-.006 0-.01-.007-.016-.007s-.012.006-.017.006h-.015a.7.7 0 0 0-.382.334l-.19-.19v-.245a.307.307 0 0 1 .132.12.084.084 0 0 0 .068.03.094.094 0 0 0 .058-.04zm-.058.658l.006-.01c.015-.042.036-.09.052-.136a.662.662 0 0 1 .345-.382.662.662 0 0 1 .344.382c.02.047.037.094.052.136l.006.01a.073.073 0 0 0 .062.047.058.058 0 0 0 .068-.036.41.41 0 0 1 .257-.18v.34l-.28.315a1.342 1.342 0 0 0-.474-.617.006.006 0 0 0-.006-.006c-.005 0-.01-.005-.015-.005h-.027c-.005 0-.01.005-.015.005s-.005 0-.01.006a1.357 1.357 0 0 0-.477.617l-.277-.314v-.344a.414.414 0 0 1 .255.183.066.066 0 0 0 .068.035.062.062 0 0 0 .063-.045zm.4.016a2.178 2.178 0 0 1 .57 1.072.072.072 0 0 0 .063.058.075.075 0 0 0 .072-.042.692.692 0 0 1 .36-.36v.6l-.23.345a.835.835 0 0 0-.182.183 1.392 1.392 0 0 0-.612-.947h-.008a.018.018 0 0 0-.015 0h-.027a.018.018 0 0 0-.015 0H36.2a1.37 1.37 0 0 0-.607.947.853.853 0 0 0-.193-.18l-.23-.346v-.6a.7.7 0 0 1 .36.36.075.075 0 0 0 .074.043.086.086 0 0 0 .068-.058 2.167 2.167 0 0 1 .567-1.074zm-.69 2.1a.077.077 0 0 0 .073.053.075.075 0 0 0 .067-.058 1.41 1.41 0 0 1 .55-1.037 1.41 1.41 0 0 1 .548 1.036.08.08 0 0 0 .068.057.07.07 0 0 0 .073-.053.735.735 0 0 1 .377-.392v.518l-.37.44a1.576 1.576 0 0 0-.666-.76h-.015a.02.02 0 0 0-.016-.005.018.018 0 0 0-.016.006h-.01a1.023 1.023 0 0 0-.392.32 2.54 2.54 0 0 0-.278.44l-.37-.44v-.518a.683.683 0 0 1 .38.39zm1.375.905a1.11 1.11 0 0 0-.16.15 1.3 1.3 0 0 0-.487-.8h-.003a.017.017 0 0 0-.015-.005.022.022 0 0 0-.016-.005l-.012.005a.017.017 0 0 0-.015.006H36.2a1.323 1.323 0 0 0-.48.8 1.146 1.146 0 0 0-.168-.15c.073-.18.33-.785.685-.953a1.908 1.908 0 0 1 .687.95zm-1.228.365a.08.08 0 0 0 .078.037.078.078 0 0 0 .063-.063 1.368 1.368 0 0 1 .4-.838 1.374 1.374 0 0 1 .408.837.08.08 0 0 0 .064.062.07.07 0 0 0 .073-.037 1.068 1.068 0 0 1 .465-.387v.592H35.23v-.59a1.01 1.01 0 0 1 .47.384zm2.788 3.285a.908.908 0 0 0 .225.428h-.722a.563.563 0 0 1-.35-.428zm-.644-.147v-1.79h.283v1.79zm-.136.575h-.245a1.027 1.027 0 0 1-.3-.428h.325a.878.878 0 0 0 .22.427zm-.23-3.28v2.7h-.345v-2.475l.25-.34.012-.01V27.9a.2.2 0 0 0 .005-.026v-.193h.4l-.3.3a.066.066 0 0 0-.02.048zm-.47.157a.09.09 0 0 0-.015.042v2.5h-.163V27.94h.356zm-.178 2.694H37a1.358 1.358 0 0 0 .245.427h-.43zm4.153 2.258v1.114h-3.758v-1.114zm-.732-.947v.8h-3.026v-.8zm-.48-.736v.59h-2.546v-.59zm-.8-.157a.567.567 0 0 1-.33-.418h.01a1.653 1.653 0 0 0 .32.42zm-.1-3.64a.076.076 0 0 0 .015-.02.033.033 0 0 0 .005-.022v-1.68a.814.814 0 0 1 .3-.307v2.107l-.475.508a.087.087 0 0 0-.02.052v2.437h-.07V27.9zm-.263-2.584a.12.12 0 0 1 .068-.03.093.093 0 0 1 .063.03v1.6a.66.66 0 0 0-.13.062zm.13 1.758v.7h-.664a1.356 1.356 0 0 1 .668-.7zm-.7-1.49h.42v.214h-.42zm0 .36h.42v1.125a1.417 1.417 0 0 0-.42.455zM38 27.68h.633l-.136.14a.06.06 0 0 0-.02.053v2.862h-.2V28.87a.075.075 0 0 0-.077-.07h-.43a.075.075 0 0 0-.073.073v1.862h-.08V28.06zm-3.405-3.133a.458.458 0 0 0 .382.225.18.18 0 0 0 .14-.068.258.258 0 0 0 0-.235.643.643 0 0 0-.06-.126.473.473 0 0 1-.033-.05.833.833 0 0 1-.09-.425.225.225 0 0 1 .007-.063.32.32 0 0 0 .163.13.144.144 0 0 0 .157-.036c.115-.11-.006-.33-.09-.475v-.01a.362.362 0 0 1-.036-.178.262.262 0 0 0 .147.126.11.11 0 0 0 .11-.032c.058-.057.038-.167-.01-.4a2.14 2.14 0 0 1-.047-.32v-.036a.374.374 0 0 0 .068.12.09.09 0 0 0 .11.02c.12-.046.13-.37.13-.47 0-.2.117-.616.388-.653a.07.07 0 0 0 .063-.058l.012-.042c.036-.194.052-.24.14-.24s.106.046.147.24l.005.04a.07.07 0 0 0 .062.06c.272.036.393.45.393.653 0 .1.01.424.125.47a.09.09 0 0 0 .11-.02.49.49 0 0 0 .073-.12v.037a2.224 2.224 0 0 1-.052.32c-.047.23-.068.34-.01.4a.12.12 0 0 0 .114.03.3.3 0 0 0 .147-.125.362.362 0 0 1-.037.178l-.005.01c-.078.147-.2.367-.09.476a.152.152 0 0 0 .163.037.4.4 0 0 0 .162-.125v.062a.818.818 0 0 1-.083.42.473.473 0 0 1-.032.05.45.45 0 0 0-.062.127.23.23 0 0 0 0 .235.174.174 0 0 0 .14.068.465.465 0 0 0 .383-.225v2.986h-.5v-.43a.065.065 0 0 0-.032-.057.062.062 0 0 0-.068-.01 2.346 2.346 0 0 0-.24.114A1.045 1.045 0 0 1 37 27.03l.434-.508a.073.073 0 0 0 .015-.047v-.654a.075.075 0 0 0-.032-.062.092.092 0 0 0-.062-.01.022.022 0 0 1-.01 0l.093-.14a.1.1 0 0 0 .01-.038v-.72a.065.065 0 0 0-.027-.054.057.057 0 0 0-.057-.015.745.745 0 0 0-.466.314c-.026-.078-.052-.162-.09-.25l.34-.388a.055.055 0 0 0 .022-.047v-.46a.075.075 0 0 0-.02-.053.077.077 0 0 0-.058-.02.62.62 0 0 0-.366.16c0-.01-.006-.015-.01-.025l.245-.246a.072.072 0 0 0 .027-.052v-.377a.063.063 0 0 0-.027-.052.08.08 0 0 0-.058-.02.54.54 0 0 0-.245.124c-.016-.022-.027-.042-.048-.07l.147-.166a.09.09 0 0 0 .015-.052v-.288a.07.07 0 0 0-.1-.063 1.258 1.258 0 0 0-.146.08l.208-.2a.06.06 0 0 0 .02-.052v-.236a.077.077 0 0 0-.025-.057.08.08 0 0 0-.068-.01.784.784 0 0 0-.136.057.74.74 0 0 0-.242-.293h-.005a.017.017 0 0 0-.01-.006H36.214s-.01 0-.01.005a.67.67 0 0 0-.242.292c-.062-.03-.12-.052-.135-.058a.08.08 0 0 0-.068.01.066.066 0 0 0-.032.058v.236a.065.065 0 0 0 .026.052l.21.2c-.053-.032-.11-.058-.147-.08a.076.076 0 0 0-.073 0 .08.08 0 0 0-.037.064v.288a.085.085 0 0 0 .016.052l.146.167a.538.538 0 0 1-.048.07.54.54 0 0 0-.24-.126.072.072 0 0 0-.058.02.062.062 0 0 0-.026.053v.377a.066.066 0 0 0 .02.052l.247.246c-.005.01-.005.015-.01.026a.62.62 0 0 0-.367-.162.073.073 0 0 0-.052.02.06.06 0 0 0-.02.053v.46a.07.07 0 0 0 .015.046l.346.387a2.258 2.258 0 0 0-.09.25.773.773 0 0 0-.465-.312.07.07 0 0 0-.082.07v.72a.052.052 0 0 0 .01.037l.09.14h-.006a.1.1 0 0 0-.068.01.087.087 0 0 0-.026.064v.655a.073.073 0 0 0 .015.047l.435.507a1.24 1.24 0 0 1-.053.114 1.72 1.72 0 0 0-.246-.115.067.067 0 0 0-.07.01.08.08 0 0 0-.03.057v.434h-.492zm-.1 3.133l.376.382v2.672h-.077V28.87a.074.074 0 0 0-.068-.073h-.43a.08.08 0 0 0-.077.073v1.862h-.2v-2.864a.06.06 0 0 0-.02-.052l-.137-.14zm-.54-1.58h.5v1.182a1.527 1.527 0 0 0-.5-.507zm-.2.225v-.298l.06.03v.645c-.022-.006-.043-.016-.06-.02zm0 .774v-.265a1.35 1.35 0 0 1 .665.7h-.664zm-2.95-.962h2.8v.115h-2.8zm0 .26h2.8v.33h-2.8zm0 .477h2.8v.147h-2.8zm0 .293h2.8v.366h-2.8zm-.046.513h2.9l.15.15h-3.246zm-.393-.324a.07.07 0 0 0 .068-.068v-2.558l.225-.2v3h-1.303l.187-.177zm-.22-2.234h.142v1.48h-.143zm-.4-1a1.108 1.108 0 0 1 .4-.366v.446a.56.56 0 0 0-.355.392.62.62 0 0 0 .21.49V26.6h-.257zm.544 2.63v.46h-1.64v-.083a4.045 4.045 0 0 1 1.02-.376zm-.836-1.987a.07.07 0 0 0 .068-.073v-.67c.016-.02.026-.025.036-.025a.122.122 0 0 1 .068.04c0 .007 0 .012-.01.017a.058.058 0 0 0-.016.042v1.5a1.712 1.712 0 0 0-.774.69v-.374a.073.073 0 0 0-.036-.063.1.1 0 0 0-.074 0c-.005.006-.052.037-.11.084.016-.3.095-.757.325-.9v-.014s.012-.01.012-.016h.005a.05.05 0 0 0 0-.026v-.21zm0-1.522a1.22 1.22 0 0 0 .063-.108.952.952 0 0 1 0 .3.424.424 0 0 1-.146.2c-.02.02-.042.047-.068.068l-.026.026c-.084.073-.12.11-.12.157v.737h-.194v-.37a.08.08 0 0 0-.02-.06.106.106 0 0 0-.058-.015.775.775 0 0 0-.507.31 1.467 1.467 0 0 0-.084-.19.708.708 0 0 1 .392-.637c.006-.006.006-.006.01-.006s.01-.01.016-.01 0-.005.006-.01.006-.006.006-.01a.017.017 0 0 1 .005-.01v-.022a.005.005 0 0 0 0-.006v-.214h.445a.3.3 0 0 0 .273-.133zm-.178-.956c.105-.015.142-.09.178-.157a1.4 1.4 0 0 0 .073-.188.707.707 0 0 1-.026.376 1.95 1.95 0 0 1-.208.314l-.016.015a.56.56 0 0 0-.178.377v.2h-.37v-.288a.1.1 0 0 0-.032-.058.08.08 0 0 0-.068-.01 1.193 1.193 0 0 0-.42.26.367.367 0 0 1-.04-.072q-.04-.078-.08-.14a1.1 1.1 0 0 1 .268-.362h.173a.07.07 0 0 0 .066-.073v-.2h.5c.02 0 .037.006.058.006a.49.49 0 0 0 .113-.006zM29 21.386a.02.02 0 0 0 .016 0c.115-.026.152-.147.194-.33a.974.974 0 0 1 .026.215 1.034 1.034 0 0 1-.21.44.055.055 0 0 0-.01.042v.392h-.43v-.314a.072.072 0 0 0-.03-.062.065.065 0 0 0-.068-.006 1.275 1.275 0 0 0-.356.25 2.637 2.637 0 0 0-.125-.244l.277-.272a.068.068 0 0 0 .02-.053v-.052zm-.214-.784c.026 0 .094 0 .183-.19v.017a1.018 1.018 0 0 1-.22.438.09.09 0 0 0-.016.047v.325h-.43v-.356a.067.067 0 0 0-.025-.058.06.06 0 0 0-.06-.015.7.7 0 0 0-.344.173l-.047-.12.355-.272c.015 0 .094 0 .376.012zm-.235-.623a.108.108 0 0 0 .053-.022l.11-.115a.083.083 0 0 1 .02.063c0 .12-.156.267-.213.314a.08.08 0 0 0-.027.057v.178h-.26v-.288a.07.07 0 0 0-.033-.057.083.083 0 0 0-.062-.01 1.454 1.454 0 0 0-.31.125.068.068 0 0 0-.01-.032h-.005l.147-.078a.074.074 0 0 0 .04-.073v-.068zm-1.218-2.02a.225.225 0 0 1 .162-.09h.01a.213.213 0 0 1 .158.09.414.414 0 0 1 .03.272h-.386a.414.414 0 0 1 .026-.272zm.633.42l-.037.177h-.863l-.036-.178zm.25.318l-.02.14H26.8l-.02-.14zm.132.287l-.047.24h-1.606l-.047-.24zm-.863.387a.018.018 0 0 0 .015 0H28.445l-.11.46H28v-.193a.08.08 0 0 0-.027-.058.073.073 0 0 0-.063-.016.828.828 0 0 0-.183.084c-.02-.026-.03-.042-.047-.063a.408.408 0 0 0-.15-.152.02.02 0 0 0-.012 0 .02.02 0 0 0-.016 0h-.015a.01.01 0 0 0-.016 0h-.02a.4.4 0 0 0-.157.152.308.308 0 0 1-.047.063.787.787 0 0 0-.183-.084.07.07 0 0 0-.063.016.084.084 0 0 0-.026.057v.193h-.308l-.11-.46zm-1.22.534a.117.117 0 0 1 .017-.063l.116.115a.077.077 0 0 0 .052.02h.523v.064a.074.074 0 0 0 .038.063l.146.078-.015.032a1.475 1.475 0 0 0-.31-.126.085.085 0 0 0-.063.01.07.07 0 0 0-.03.057v.288h-.23v-.178a.084.084 0 0 0-.027-.057c-.063-.037-.215-.184-.215-.304zm-.234.523v-.017c.084.19.157.19.183.19h.22c.214-.007.313-.007.355-.012l.35.273c-.015.042-.03.078-.046.12a.7.7 0 0 0-.346-.172.054.054 0 0 0-.057.016.084.084 0 0 0-.027.058v.356h-.4v-.325a.083.083 0 0 0-.016-.047 1.08 1.08 0 0 1-.217-.44zm-.272.836a.918.918 0 0 1 .026-.215c.047.184.078.3.2.33a.018.018 0 0 0 .015 0h.664v.053a.068.068 0 0 0 .02.053l.278.272a1.8 1.8 0 0 0-.12.245 1.452 1.452 0 0 0-.36-.25.065.065 0 0 0-.07.005.077.077 0 0 0-.035.062v.314h-.393v-.392a.058.058 0 0 0-.016-.042 1.1 1.1 0 0 1-.21-.434zm-.026 1.375l-.016-.014a2.452 2.452 0 0 1-.214-.314.705.705 0 0 1-.027-.377 1.762 1.762 0 0 0 .08.194c.036.06.072.135.17.15a.524.524 0 0 0 .132.006c.02 0 .037-.006.053-.006h.466v.194a.074.074 0 0 0 .072.073h.173a1.1 1.1 0 0 1 .268.36c-.027.043-.048.09-.08.142a.29.29 0 0 1-.04.072 1.193 1.193 0 0 0-.42-.26.08.08 0 0 0-.067.01.074.074 0 0 0-.03.057v.287h-.34V23.2a1.118 1.118 0 0 1 0-.183.614.614 0 0 0-.178-.376zm-.026 1.053l-.068-.068a.38.38 0 0 1-.142-.2.917.917 0 0 1-.01-.3c.02.036.042.073.068.11a.293.293 0 0 0 .277.125h.032a.188.188 0 0 1 .053 0h.334v.22c0 .01.005.015.005.02a.015.015 0 0 0 .005.01v.012l.01.01.01.01.012.006a.7.7 0 0 1 .392.638 1.34 1.34 0 0 0-.084.188.777.777 0 0 0-.507-.31.112.112 0 0 0-.058.017.116.116 0 0 0-.02.06v.37h-.163v-.737c0-.048-.042-.084-.12-.157a.21.21 0 0 1-.026-.023zm-.257.3c.01 0 .02 0 .036.026v.668a.07.07 0 0 0 .073.073h.46v.21a.043.043 0 0 0 .005.027h.005s0 .01.01.016l.005.005.01.01c.226.142.3.6.32.9-.058-.047-.104-.078-.11-.084a.092.092 0 0 0-.073 0 .074.074 0 0 0-.037.063v.32a1.662 1.662 0 0 0-.748-.644v-1.5a.1.1 0 0 0-.01-.042s-.01-.01-.01-.015a.132.132 0 0 1 .062-.034zm-.44 1.087a.633.633 0 0 0 .2-.49.542.542 0 0 0-.35-.393v-.44a1.065 1.065 0 0 1 .4.36V26.6h-.25zm-.293.042h.147V26.6h-.147zm0 1.627h.613a4.313 4.313 0 0 1 .987.36v.1h-1.6zm-.366-2.22l.22.2v2.56a.07.07 0 0 0 .074.067h.805l.188.177H24.35zm-2.95 1.605h2.81v.115H21.4zm0 .26h2.81v.33H21.4zm0 .477h2.81v.147H21.4zm0 .293h2.81v.366H21.4zm-.04.513h2.89l.183.15H21.2zm-.16-1.622c.015-.01.036-.02.057-.03v.648c-.02 0-.037.015-.057.02zm.057.775v.7h-.664a1.333 1.333 0 0 1 .662-.7zm-.7-.732h.5v.675a1.48 1.48 0 0 0-.5.507zm-.042 1.58h.633l-.136.14a.058.058 0 0 0-.02.053v2.862h-.205V28.87a.075.075 0 0 0-.073-.073h-.43a.075.075 0 0 0-.072.073v1.862h-.073V28.06zM17.1 24.545a.473.473 0 0 0 .387.225.19.19 0 0 0 .14-.068.258.258 0 0 0 0-.235.643.643 0 0 0-.06-.126.1.1 0 0 1-.032-.05.772.772 0 0 1-.085-.425V23.8a.326.326 0 0 0 .163.13.152.152 0 0 0 .162-.036c.11-.11-.01-.33-.09-.475v-.012a.35.35 0 0 1-.036-.178.28.28 0 0 0 .145.126.11.11 0 0 0 .11-.032c.058-.057.037-.167-.01-.4a2.14 2.14 0 0 1-.047-.32v-.036a.374.374 0 0 0 .068.12.09.09 0 0 0 .11.02c.12-.046.13-.37.13-.47 0-.2.116-.616.393-.653a.077.077 0 0 0 .06-.058l.007-.04c.036-.195.057-.242.14-.242s.11.047.147.24v.042a.073.073 0 0 0 .063.058c.272.037.392.45.392.654 0 .1.01.422.125.47a.09.09 0 0 0 .11-.02.375.375 0 0 0 .073-.122v.037a1.69 1.69 0 0 1-.052.32c-.047.23-.068.34 0 .4a.1.1 0 0 0 .11.03.278.278 0 0 0 .146-.125.362.362 0 0 1-.037.178v.01c-.08.147-.2.367-.09.476a.152.152 0 0 0 .163.037.4.4 0 0 0 .162-.124v.062a.873.873 0 0 1-.083.42.473.473 0 0 1-.032.05.71.71 0 0 0-.068.127.28.28 0 0 0 0 .235.174.174 0 0 0 .136.068.452.452 0 0 0 .387-.225v2.986h-.5v-.43a.065.065 0 0 0-.032-.057.056.056 0 0 0-.063-.01 2.08 2.08 0 0 0-.25.114c-.01-.026-.027-.068-.048-.115l.434-.507a.07.07 0 0 0 .017-.047v-.654a.075.075 0 0 0-.03-.063.1.1 0 0 0-.07-.01l.095-.14a.1.1 0 0 0 .01-.037v-.72a.067.067 0 0 0-.025-.054.062.062 0 0 0-.06-.016.743.743 0 0 0-.463.313c-.027-.078-.053-.162-.09-.25l.345-.388a.07.07 0 0 0 .015-.048v-.46a.06.06 0 0 0-.02-.052.078.078 0 0 0-.058-.02.625.625 0 0 0-.367.16.05.05 0 0 1 0-.025l.246-.246a.1.1 0 0 0 .02-.053v-.377a.065.065 0 0 0-.025-.052.08.08 0 0 0-.057-.02.523.523 0 0 0-.246.124c-.01-.02-.026-.04-.04-.068l.14-.167a.09.09 0 0 0 .015-.052v-.288a.07.07 0 0 0-.036-.063.066.066 0 0 0-.068 0 1.267 1.267 0 0 0-.147.08l.21-.2a.075.075 0 0 0 .022-.053v-.235a.064.064 0 0 0-.032-.057.067.067 0 0 0-.063-.01 1.116 1.116 0 0 0-.136.057.71.71 0 0 0-.244-.293.02.02 0 0 0-.016-.005.018.018 0 0 0-.01 0H18.737c-.006 0-.01 0-.01.005a.8.8 0 0 0-.247.293.786.786 0 0 0-.13-.058.075.075 0 0 0-.067.01.08.08 0 0 0-.032.058v.236a.062.062 0 0 0 .027.053l.21.2a1.226 1.226 0 0 0-.152-.08.066.066 0 0 0-.068 0 .08.08 0 0 0-.036.064v.288a.084.084 0 0 0 .016.052l.146.167a.538.538 0 0 1-.047.068.51.51 0 0 0-.24-.125.1.1 0 0 0-.063.02.06.06 0 0 0-.02.053v.377a.066.066 0 0 0 .02.052l.246.245c0 .01-.005.015-.01.026a.612.612 0 0 0-.367-.16.065.065 0 0 0-.05.02.06.06 0 0 0-.022.052v.46a.07.07 0 0 0 .016.047l.34.386c-.032.09-.058.173-.084.25a.77.77 0 0 0-.466-.312.07.07 0 0 0-.062.015.066.066 0 0 0-.027.052v.72a.06.06 0 0 0 .016.038l.09.14h-.005a.11.11 0 0 0-.068.01.076.076 0 0 0-.032.064v.654a.058.058 0 0 0 .02.047l.435.507c-.02.047-.036.09-.052.115a1.72 1.72 0 0 0-.246-.115.066.066 0 0 0-.068.01.08.08 0 0 0-.03.058v.434h-.5zm-.1 3.133l.377.382v2.672h-.074V28.87a.08.08 0 0 0-.078-.073H16.8a.074.074 0 0 0-.068.073v1.862h-.2v-2.86a.065.065 0 0 0-.026-.053l-.136-.142zm-.466-2.338h.42v.214h-.42zm0 .36h.42v1.58a1.442 1.442 0 0 0-.42-.455zm-.277-.627a.1.1 0 0 1 .063-.03.136.136 0 0 1 .073.03v1.663a.7.7 0 0 0-.136-.062zm0 1.758a1.353 1.353 0 0 1 .664.7h-.66zm-.45.9V25.63a.82.82 0 0 1 .31.308v1.7a.005.005 0 0 1 .005 0 .06.06 0 0 0 .015.02l.24.247v2.83h-.073V28.3a.083.083 0 0 0-.016-.052zm.544 3.145h.006a.555.555 0 0 1-.324.418 1.782 1.782 0 0 0 .322-.414zm1.43 6.25h-5.223v-1.288h5.225zm0-1.44H13.3V34.4h4.487zm0-1.437h-3.76v-1.11h3.76zm0-1.26h-3.026v-.8h3.028zm0-.947h-2.545v-.59h2.547zm.4 5.085h-.258v-1.288h.257zm0-1.44h-.258V34.4h.257zm0-1.437h-.258v-1.11h.257zm0-1.26h-.258v-.8h.257zm0-.947h-.258v-.59h.257zm.135-1.165h.873v.428h-.873zm.9 6.25h-.9v-.576h.9zm0-.717h-.9v-.575h.9zm0-.722h-.9v-.58h.9zm0-.727h-.9v-.56h.9zm0-.712h-.9v-.607h.9zm0-.753h-.9v-.36h.9zm0-.507h-.9v-.084h.9zm0-.23h-.9v-.57h.9zm0-.717h-.9v-.59h.9zm.4 5.085h-.262v-1.288h.262zm0-1.44h-.262V34.4h.262zm0-1.437h-.262v-1.11h.262zm0-1.26h-.262v-.8h.262zm0-.947h-.262v-.59h.262zm-.294-.737v-.428h.18a1.377 1.377 0 0 0 .246.428zm7.18 5.826h-6.73v-1.293h6.73zm0-1.44h-6.73V34.4h6.73zm0-1.438h-6.73v-1.114h6.73zm0-1.26h-6.73v-.8h6.73zm0-.947h-6.73v-.59h6.73zm.4 5.084h-.256v-1.293h.256zm0-1.44h-.256V34.4h.256zm0-1.438h-.256v-1.114h.256zm0-1.26h-.256v-.8h.256zm0-.947h-.256v-.59h.256zm.12-1.166h.895v.427h-.894zm.922 6.25h-.892v-.577h.895zm0-.718h-.892v-.575h.895zm0-.722h-.892v-.58h.895zm0-.727h-.892V34.4h.895zm0-.71h-.892v-.608h.895zm0-.754h-.892v-.362h.895zm0-.508h-.892v-.084h.895zm0-.23h-.892v-.57h.895zm0-.717h-.892v-.59h.895zm.12-1.166h.27a.8.8 0 0 0 .242.427h-.513zm.282 6.25h-.254v-1.293h.257zm0-1.44h-.254V34.4h.257zm0-1.438h-.254v-1.114h.257zm0-1.26h-.254v-.8h.257zm0-.947h-.254v-.59h.257zm6.877 5.084h-6.727v-1.293h6.73zm0-1.44h-6.727V34.4h6.73zm0-1.438h-6.727v-1.114h6.73zm0-1.26h-6.727v-.8h6.73zm0-.947h-6.727v-.59h6.73zm.4 5.084h-.255v-1.293h.256zm0-1.44h-.255V34.4h.256zm0-1.438h-.255v-1.114h.256zm0-1.26h-.255v-.8h.256zm0-.947h-.255v-.59h.256zm.032-.738h-.402a1.32 1.32 0 0 0 .246-.428h.162zm0-.575H35.5v-2.5a.09.09 0 0 0-.015-.042l-.183-.246h.355zm1.01 6.4h-.895v-.576h.895zm0-.717h-.895v-.575h.895zm0-.722h-.895v-.58h.895zm0-.727h-.895V34.4h.895zm0-.71h-.895v-.608h.895zm0-.754h-.895v-.36h.895zm0-.507h-.895v-.084h.895zm0-.23h-.895v-.57h.895zm0-.717h-.895v-.59h.895zm.005-.738H35.8v-.428h.867zm0-.575H35.8V27.94h.867zm.4 6.4h-.257v-1.298h.257zm0-1.44h-.257V34.4h.257zm0-1.437h-.257v-1.12h.257zm0-1.26h-.257v-.8h.257zm0-.947h-.257v-.59h.257zm5.37 5.085h-5.22v-1.298h5.225z" fill="#231f20"/></svg>