<svg xmlns="http://www.w3.org/2000/svg" viewBox="0 0 55 55"><path d="M50.8 27.5a23.172 23.172 0 0 1-4.867 14.235H9.067a23.25 23.25 0 0 1 0-28.47h36.866A23.15 23.15 0 0 1 50.8 27.5z" fill="#ec1c26"/><path d="M44.85 11.968h-34.7a23.262 23.262 0 0 1 34.7 0zM44.857 43.026a23.262 23.262 0 0 1-34.713 0z" fill="#084fa0"/><path d="M45.933 41.735c-.345.444-.7.873-1.076 1.29H10.144c-.376-.417-.73-.846-1.077-1.29zM45.933 13.265H9.067c.346-.444.7-.878 1.082-1.3h34.7c.382.422.743.856 1.083 1.3zM32.634 27.5A10.448 10.448 0 1 1 22.19 17.05 10.442 10.442 0 0 1 32.633 27.5z" fill="#fff"/><path fill="#ec1c26" d="M22.19 17.38l2.273 6.994h7.35l-5.95 4.318 2.275 6.995-5.95-4.324-5.95 4.324 2.276-6.995-5.95-4.318h7.35l2.275-6.995z"/></svg>