<svg xmlns="http://www.w3.org/2000/svg" viewBox="0 0 55 55"><defs><clipPath id="a"><circle cx="27.5" cy="27.5" r="23.32" fill="none"/></clipPath></defs><g clip-path="url(#a)"><path fill="#f1f0f0" stroke="#f3f3f4" stroke-miterlimit="2.41" stroke-width=".09" d="M-7.49 4.18h69.97v46.64H-7.49V4.18z"/><path d="M38.12 32.22A11.68 11.68 0 1 1 17 22.16c-1.11 5.77 3.37 9.24 7.52 7.58 2.3-.92 2.74-2.46 4.46-3.72 4.26-3.14 9.84.38 9.12 6.15z" fill="#214097" fill-rule="evenodd"/><path d="M27.43 15.83a11.68 11.68 0 0 1 10.71 16.34c.72-5.77-4.86-9.29-9.14-6.17-1.72 1.27-2.16 2.8-4.46 3.72-4.15 1.66-8.63-1.82-7.52-7.58a11.68 11.68 0 0 1 10.38-6.33z" fill="#ee2724" fill-rule="evenodd"/><path d="M5.63 19.92l6.49-9.73 1.61 1.08L7.25 21l-1.62-1.08zM8 21.55l6.49-9.73 1.61 1.08-6.47 9.74L8 21.55zm-4.85-3.21l6.49-9.73 1.61 1.08-6.49 9.73-1.61-1.08zM47.75 21l-6.49-9.73 1.61-1.08 6.49 9.73L47.75 21zm2.49-1.58l-3-4.53 1.61-1.08 3 4.53-1.61 1.08zm-3.54-5.31l-3-4.42 1.61-1.08 3 4.43-1.61 1.07zm-1.33 8.52l-3-4.51L44 17l3 4.51-1.61 1.08zm-3.53-5.29l-3-4.45 1.61-1.08 3 4.45-1.61 1.08zM47 33.44L44 38l-1.61-1.08 3-4.51L47 33.44zm-3.52 5.28l-3 4.45-1.6-1.07 3-4.45 1.61 1.08zm8.39-2.07l-3 4.53-1.61-1.08 3-4.53 1.61 1.08zM48.31 42l-3 4.43-1.61-1.08 3-4.42L48.31 42zm1.05-6.89l-3 4.48-1.61-1.08 3-4.48 1.61 1.08zm-3.5 5.25l-3 4.48-1.61-1.08 3-4.48 1.62 1.08zM7.28 34l3 4.48-1.62 1.07-3-4.48L7.28 34zm2.38-1.63l6.49 9.73-1.61 1.08-6.49-9.74 1.61-1.08zM4.8 35.58l6.49 9.73-1.61 1.08-6.5-9.73 1.62-1.08zm6 3.67l3 4.48-1.61 1.08-3-4.48 1.61-1.08z"/></g></svg>