<svg xmlns="http://www.w3.org/2000/svg" viewBox="0 0 55 55"><defs><clipPath id="a"><path d="M50.8 27.5A23.3 23.3 0 1 1 27.5 4.2a23.3 23.3 0 0 1 23.3 23.3z" fill="none"/></clipPath></defs><g clip-path="url(#a)"><path d="M-18.316 27.15V3.5h94.6v47.3h-94.6zM-18.316 3.5h47.27v23.65h-47.27z" fill="#25388f"/><path fill="#fff" d="M28.955 3.507v2.636l-10.483 5.242h10.483v7.873h-10.47l10.47 5.235v2.643H23.67L9.26 19.93v7.206H1.38V19.93l-14.41 7.206h-5.272l-.005.007v.007l-.008-.014h.008V24.49l10.46-5.232h-10.47v-7.873H-7.83l-10.475-5.24V3.508h5.29L1.38 10.705V3.5h7.88v7.205l14.395-7.198h5.3z"/><path fill="#e51e42" d="M13.2 11.39L18.1 8.938l.008-.007 10.21-5.105.007-.007.62-.31h-3.532L9.66 11.39h3.54zM-2.51 19.25l-10.05 5.026-.006.007-5.736 2.867h3.512L1 19.25h-3.51zM13.163 19.25l8.766 4.383.006.007 7.02 3.51v-1.765L16.692 19.25h-3.53zM28.955 12.964H7.685V3.5h-4.73v9.464h-21.27v4.73h21.27v9.456h4.73v-9.456h21.27v-4.73z"/><path d="M46.454 22.62v6.31c0 5.47-2.59 7.345-6.05 8.834-3.464-1.49-6.084-3.364-6.084-8.833v-6.31zM40.4 38.088a.333.333 0 0 1-.128-.026 11.327 11.327 0 0 1-4.464-3.018 9.342 9.342 0 0 1-1.816-6.113v-6.31a.325.325 0 0 1 .325-.323h12.137a.324.324 0 0 1 .323.324v6.31a9.39 9.39 0 0 1-1.8 6.113 11.2 11.2 0 0 1-4.45 3.02.328.328 0 0 1-.127.025zm-5.756-15.143v5.986c0 4.965 2.108 6.89 5.76 8.48 3.628-1.583 5.726-3.504 5.726-8.48v-5.985z" fill="#fff"/><path d="M30.566 37.246c.194.518 1.586 1.2 3.2.324a5.742 5.742 0 0 0 2.49-3.042c.195-.388.292-.874-.16-1.165a12.953 12.953 0 0 1-1.2-.81c-.13-.128-.26-.225-.356-.322a1.374 1.374 0 0 1 .194.227c.648.777-.032 1.91-.744 2.59-.518.484-1.456 1.68-2.815.55-.292-.26-.97.808-.615 1.65z" fill="#ffe87f"/><path d="M32.2 38.314a2.06 2.06 0 0 1-1.938-.947 1.91 1.91 0 0 1 .2-1.714.794.794 0 0 1 .62-.42.477.477 0 0 1 .312.116 1.45 1.45 0 0 0 .908.4 2.077 2.077 0 0 0 1.306-.77c.06-.06.116-.117.17-.165.515-.494 1.25-1.5.715-2.145a.292.292 0 0 1-.02-.028 1.068 1.068 0 0 0-.154-.177.324.324 0 0 1 .455-.465c.037.036.085.078.136.122.068.058.143.124.22.2a4.053 4.053 0 0 0 .65.447c.174.106.354.216.5.323a1.118 1.118 0 0 1 .272 1.57 6.042 6.042 0 0 1-2.626 3.186 3.61 3.61 0 0 1-1.726.464zm-1.133-2.394a1.273 1.273 0 0 0-.2 1.2v.012a1.543 1.543 0 0 0 1.334.534 2.958 2.958 0 0 0 1.413-.38 5.4 5.4 0 0 0 2.35-2.886l.008-.016c.273-.542.04-.69-.046-.747l-.016-.01c-.128-.094-.292-.194-.466-.3l-.123-.075a3.255 3.255 0 0 1-1.1 2.03c-.05.047-.1.1-.16.154a2.605 2.605 0 0 1-1.76.958 2.013 2.013 0 0 1-1.233-.474z" fill="#fff"/><path d="M50.24 37.246c-.227.518-1.62 1.2-3.2.324a5.917 5.917 0 0 1-2.525-3.042c-.162-.388-.26-.874.194-1.165a12.667 12.667 0 0 0 1.2-.81 3.345 3.345 0 0 1 .355-.322 1.374 1.374 0 0 0-.194.227c-.646.777.033 1.91.713 2.59.518.484 1.488 1.68 2.847.55.292-.26.94.808.615 1.65z" fill="#ffe87f"/><path d="M48.58 38.314a3.492 3.492 0 0 1-1.7-.46 6.254 6.254 0 0 1-2.663-3.19v-.01c-.366-.88-.037-1.332.31-1.558.148-.107.328-.217.5-.324a4.053 4.053 0 0 0 .648-.447 3.69 3.69 0 0 1 .39-.354.325.325 0 0 1 .425.49 1.075 1.075 0 0 0-.154.177.3.3 0 0 1-.022.028c-.522.627.187 1.643.69 2.148.047.044.1.094.15.147a2.13 2.13 0 0 0 1.345.784 1.467 1.467 0 0 0 .915-.4.47.47 0 0 1 .31-.117.748.748 0 0 1 .59.387 2.006 2.006 0 0 1 .228 1.743l-.006.014a2.15 2.15 0 0 1-1.957.944zM44.81 34.4a5.6 5.6 0 0 0 2.384 2.888 2.86 2.86 0 0 0 1.386.38 1.62 1.62 0 0 0 1.36-.545 1.367 1.367 0 0 0-.2-1.2 2.026 2.026 0 0 1-1.237.47 2.67 2.67 0 0 1-1.8-.97c-.05-.05-.1-.1-.144-.14l-.01-.008a3.35 3.35 0 0 1-1.065-2.022l-.118.072c-.174.107-.338.207-.466.3l-.015.01c-.104.065-.31.198-.076.765z" fill="#fff"/><path d="M40.4 40.03a9.805 9.805 0 0 0 8.7-5.242.832.832 0 0 0-.42-1.263 4.93 4.93 0 0 1-1.294-.938c.518.517.42.873.064 1.456a7.72 7.72 0 0 1-7.05 4.14 7.72 7.72 0 0 1-7.054-4.14c-.356-.583-.453-.94.032-1.456a4.438 4.438 0 0 1-1.294.938.832.832 0 0 0-.42 1.263 9.85 9.85 0 0 0 8.736 5.24z" fill="#ffe87f"/><path d="M40.4 40.353a10.16 10.16 0 0 1-9.024-5.416 1.15 1.15 0 0 1 .554-1.7l.026-.013a4.19 4.19 0 0 0 1.147-.82l.038-.042a.324.324 0 0 1 .48.437l-.04.042c-.29.326-.28.5.042 1.03a7.36 7.36 0 0 0 6.778 3.99 7.358 7.358 0 0 0 6.776-3.985c.336-.552.334-.71-.016-1.06a.32.32 0 0 1-.095-.23.325.325 0 0 1 .554-.23 4.555 4.555 0 0 0 1.19.87l.026.013a1.148 1.148 0 0 1 .554 1.7 10.125 10.125 0 0 1-8.99 5.413zm-8.174-6.536c-.41.223-.48.432-.275.82a9.548 9.548 0 0 0 16.866 0c.2-.388.135-.6-.275-.82a3.328 3.328 0 0 1-.5-.28 2.4 2.4 0 0 1-.31.675 8.046 8.046 0 0 1-7.33 4.3 8.047 8.047 0 0 1-7.333-4.3 2.453 2.453 0 0 1-.316-.685 3.72 3.72 0 0 1-.52.29z" fill="#fff"/><path d="M34.416 34.56c-.064-.323-.485-.193-.614.2a5.28 5.28 0 0 1-.453-.712c-.39-.583-.454-.97.1-1.52.258-.26.777-.55 1.133-.228.744.616.356 1.618-.163 2.265z" fill="#ed2a25"/><path d="M33.8 35.08a.324.324 0 0 1-.264-.137l.264-.188-.265.187a5.76 5.76 0 0 1-.47-.736 1.306 1.306 0 0 1 .15-1.913 1.508 1.508 0 0 1 .99-.465.86.86 0 0 1 .583.223c.908.756.5 1.933-.12 2.713a.323.323 0 0 1-.33.112.317.317 0 0 1-.18-.116.344.344 0 0 0-.05.1.322.322 0 0 1-.26.217.267.267 0 0 1-.048.002zm.4-2.6a.89.89 0 0 0-.53.273c-.416.416-.385.622-.058 1.112a.175.175 0 0 1 .02.035 3.458 3.458 0 0 0 .174.3.668.668 0 0 1 .405-.146.557.557 0 0 1 .145.02c.24-.395.54-1.09.012-1.528l-.013-.01a.216.216 0 0 0-.148-.06z" fill="#fff"/><path d="M46.357 34.56c.064-.323.517-.193.647.2a5.376 5.376 0 0 0 .452-.712c.39-.583.454-.97-.13-1.52-.225-.26-.743-.55-1.13-.228-.714.616-.357 1.618.16 2.265z" fill="#ed2a25"/><path d="M47 35.08a.27.27 0 0 1-.05 0 .324.324 0 0 1-.258-.22.3.3 0 0 0-.07-.114.33.33 0 0 1-.193.133.323.323 0 0 1-.33-.113c-.664-.83-.96-1.99-.12-2.713a.933.933 0 0 1 .6-.222 1.394 1.394 0 0 1 .972.468 1.284 1.284 0 0 1 .177 1.91 5.6 5.6 0 0 1-.47.737.323.323 0 0 1-.26.132zm-.437-1.027a.714.714 0 0 1 .423.15 3.19 3.19 0 0 0 .176-.305.25.25 0 0 1 .02-.035c.327-.49.355-.693-.082-1.1l-.02-.023a.76.76 0 0 0-.5-.258.274.274 0 0 0-.186.068c-.472.407-.27 1.063.01 1.53a.563.563 0 0 1 .163-.027z" fill="#fff"/><path d="M30.566 37.246a7.833 7.833 0 0 1-.647-2.07c-.1-.292-.13-.55.225-.68s.68.323.842.712.42.97.71 1.682c-.71-.42-1.293-.13-1.13.356z" fill="#ed2a25"/><path d="M30.566 37.57a.323.323 0 0 1-.27-.144 7.412 7.412 0 0 1-.69-2.168c-.175-.54-.03-.9.43-1.067a.683.683 0 0 1 .235-.04c.58 0 .925.714 1.016.933.06.143.132.312.214.5.14.325.314.73.5 1.182a.324.324 0 0 1-.465.4 1.013 1.013 0 0 0-.487-.157.234.234 0 0 0-.178.052.108.108 0 0 0 0 .08.326.326 0 0 1-.165.394.33.33 0 0 1-.14.036zm-.295-2.77h-.014a.2.2 0 0 0-.077.042c0 .005-.013.053.046.23a.28.28 0 0 1 .01.04 12.38 12.38 0 0 0 .345 1.364 1.007 1.007 0 0 1 .55-.11l-.225-.524c-.084-.194-.158-.365-.218-.51-.143-.344-.336-.532-.416-.532z" fill="#fff"/><path d="M50.24 37.246a11.422 11.422 0 0 0 .646-2.07c.065-.292.13-.55-.226-.68s-.68.323-.842.712-.42.97-.712 1.682c.712-.42 1.263-.13 1.133.356z" fill="#ed2a25"/><path d="M50.24 37.57a.33.33 0 0 1-.127-.025.324.324 0 0 1-.187-.382c.007-.026.016-.074-.005-.1a.218.218 0 0 0-.17-.052 1 1 0 0 0-.48.158.324.324 0 0 1-.463-.4c.184-.452.358-.857.5-1.182l.215-.5c.09-.22.433-.934 1.014-.934a.693.693 0 0 1 .237.042.77.77 0 0 1 .435 1.04v.015l-.006.022c-.02.07-.053.2-.09.354a8.017 8.017 0 0 1-.59 1.79.324.324 0 0 1-.283.154zm-.49-1.206a.937.937 0 0 1 .455.108c.107-.34.2-.727.27-1.005.04-.16.072-.288.1-.373v-.005a1.033 1.033 0 0 0 .04-.26.26.26 0 0 0-.063-.03h-.015c-.08 0-.273.19-.417.534-.06.145-.133.316-.217.51l-.224.524c.02-.004.046-.004.07-.004zM37.912 22.588a1.016 1.016 0 0 1-1.1-.226.586.586 0 0 1 .065-.874 1.03 1.03 0 0 1 .906-.226c.356.1 1.294.97 1.068 1a6.478 6.478 0 0 0-.937.323zM37.472 22.977a1.257 1.257 0 0 1-.88-.376l-.01-.01a.9.9 0 0 1-.254-.748.854.854 0 0 1 .372-.626 1.5 1.5 0 0 1 .846-.31 1.24 1.24 0 0 1 .32.043 2.625 2.625 0 0 1 .8.525c.555.493.543.677.537.777a.358.358 0 0 1-.312.334h-.045a1.59 1.59 0 0 0-.36.128A3.78 3.78 0 0 1 38 22.9h-.012a2.253 2.253 0 0 1-.516.077zm-.436-.848a.6.6 0 0 0 .436.2 1.682 1.682 0 0 0 .36-.056 3.38 3.38 0 0 0 .4-.152l.126-.054a2.615 2.615 0 0 0-.664-.494c-.224-.06-.385.013-.64.184l-.008.005a.21.21 0 0 0-.076.152.268.268 0 0 0 .066.214zM38.913 21.035a1.256 1.256 0 0 1 .713-.194c.388-.03.68-.03.777.26a2.11 2.11 0 0 0 .485.97 2.065 2.065 0 0 1-1.262.033c-.388-.194-.486-.938-.713-1.068zM40.13 22.514a1.41 1.41 0 0 1-.655-.124 1.515 1.515 0 0 1-.605-.812 1.81 1.81 0 0 0-.134-.272.325.325 0 0 1-.017-.53 1.552 1.552 0 0 1 .88-.258c.09-.007.2-.015.3-.015a.755.755 0 0 1 .812.49c.025.067.048.137.07.207a1.437 1.437 0 0 0 .3.612.32.32 0 0 1 .13.275.325.325 0 0 1-.157.262 2.292 2.292 0 0 1-.925.164zm-.722-1.322c.02.04.037.084.056.127.08.183.19.435.307.493l.013.007a.906.906 0 0 0 .347.045c.072 0 .14 0 .206-.008a4.3 4.3 0 0 1-.17-.452l-.068-.194v-.007c-.007-.022-.017-.052-.2-.052-.077 0-.167.008-.244.014-.1.008-.18.017-.246.028zM41.7 21.068c.13-.1.29-.1.712-.065s.583.065.68.356c.1.322 0 .743.193 1.034a1.425 1.425 0 0 1-1.068-.16c-.356-.26-.323-1-.517-1.166zM42.95 22.756a1.477 1.477 0 0 1-.95-.276 1.534 1.534 0 0 1-.45-.9 1.888 1.888 0 0 0-.082-.277.324.324 0 0 1 .03-.493.842.842 0 0 1 .538-.148c.108 0 .235.008.394.02.388.03.79.06.962.577v.008a2.1 2.1 0 0 1 .067.5.99.99 0 0 0 .085.45.33.33 0 0 1 .037.287.325.325 0 0 1-.2.2 1.56 1.56 0 0 1-.43.05zm-.8-1.445l.03.115a1.138 1.138 0 0 0 .222.545.31.31 0 0 1 .04.033.78.78 0 0 0 .4.1c-.016-.105-.022-.208-.027-.307a1.63 1.63 0 0 0-.04-.34c-.03-.093-.04-.1-.4-.13-.07-.006-.15-.012-.22-.015z" fill="#fff"/><path d="M43.638 21.262c-.29-.065-.485-.1-.614 0 .16.194.032.97.356 1.23.226.16.81.2.938-.162.162-.324.162-.81-.68-1.068z" fill="#003467"/><path d="M43.81 22.932a1.1 1.1 0 0 1-.62-.177l-.013-.01a1.388 1.388 0 0 1-.373-1 1.864 1.864 0 0 0-.043-.3.327.327 0 0 1-.058-.23.32.32 0 0 1 .127-.215.654.654 0 0 1 .41-.126 2.27 2.27 0 0 1 .47.068l.024.007a1.355 1.355 0 0 1 .92.7.965.965 0 0 1-.04.81.81.81 0 0 1-.803.472zm-.234-.7a.524.524 0 0 0 .235.05c.1 0 .19-.027.2-.064a.143.143 0 0 1 .015-.034.345.345 0 0 0 .03-.282.784.784 0 0 0-.5-.327l-.12-.026.014.134a1.26 1.26 0 0 0 .126.55z" fill="#fff"/><path d="M40.306 20.938c.1-.1.29-.13.68-.13.42 0 .678.066.808.324.13.324.1.745.323 1a1.65 1.65 0 0 1-1.23-.065c-.355-.227-.387-.97-.58-1.133z" fill="#003467"/><path d="M41.643 22.55a1.825 1.825 0 0 1-.938-.212 1.54 1.54 0 0 1-.516-.88 1.78 1.78 0 0 0-.1-.28.33.33 0 0 1-.1-.225.325.325 0 0 1 .093-.244 1.23 1.23 0 0 1 .91-.225 1.12 1.12 0 0 1 1.1.5l.01.025a2.417 2.417 0 0 1 .12.462 1.02 1.02 0 0 0 .146.448.324.324 0 0 1 .015.408c-.085.104-.238.222-.742.222zm-.876-1.412c.014.04.027.083.04.127a1.21 1.21 0 0 0 .255.532l.02.015a1.335 1.335 0 0 0 .56.09c-.03-.105-.05-.21-.067-.31a2.04 2.04 0 0 0-.08-.326c-.03-.058-.1-.133-.512-.133-.083 0-.158.002-.216.005z" fill="#fff"/><path d="M37.555 21.23c0-.162.227-.195.81-.227.582-.065.614-.032.808.388.1.228.227.616.486.746-.713.16-.94.258-1.328.032a1.968 1.968 0 0 1-.68-.712c-.032-.1-.032-.194-.1-.227z" fill="#003467"/><path d="M38.784 22.625a1.166 1.166 0 0 1-.612-.175 2.246 2.246 0 0 1-.82-.873l-.007-.02a1.046 1.046 0 0 1-.03-.11.326.326 0 0 1-.083-.216c0-.484.536-.516 1.106-.548a3.52 3.52 0 0 1 .366-.027c.486 0 .62.293.764.6v.01c.013.028.026.06.04.1.065.158.175.425.292.484a.323.323 0 0 1-.073.604l-.235.055a3.2 3.2 0 0 1-.708.115zm-.82-1.267a1.79 1.79 0 0 0 .525.526h.005a.526.526 0 0 0 .29.09 1.46 1.46 0 0 0 .278-.038 3.564 3.564 0 0 1-.152-.334l-.033-.083a1.667 1.667 0 0 0-.113-.22.337.337 0 0 0-.06 0c-.08 0-.193.013-.3.025h-.018c-.1.007-.286.017-.42.033z" fill="#fff"/><path d="M37.62 18.35a.69.69 0 0 1-.55-.26.855.855 0 0 0-1.1-.16 1.2 1.2 0 0 1-.322.1c-.163 0-.357.16-.292.484.13-.1.162 0 .26 0 .064-.032.032.033.032.1a.7.7 0 0 0 .68.452.77.77 0 0 1 .58.2c.1.1.033.064.1.226.1.1.13.13-.03.26a.655.655 0 0 0 0 1 2.115 2.115 0 0 0 2.684-.13 2.744 2.744 0 0 1 3.106-.065 2.648 2.648 0 0 1 .26.68.362.362 0 0 0 .42.226 1.16 1.16 0 0 1 .615.194c.162.1.39.065.323-.226-.13-.905-.68-1.035-.744-1.456.324.033.55.033.68-.1.1-.13.226-.356.356-.42.1-.066.1-.13-.033-.1a1.265 1.265 0 0 1-.55.063c-1.488-.16-5.663-1.294-6.47-1.067z" fill="#00a650"/><path d="M44.224 22.023a.664.664 0 0 1-.332-.095.26.26 0 0 1-.027-.02.853.853 0 0 0-.4-.128.688.688 0 0 1-.753-.472v-.015a2.33 2.33 0 0 0-.226-.588 2.3 2.3 0 0 0-1.2-.274 2.326 2.326 0 0 0-1.426.44 2.64 2.64 0 0 1-1.645.616 2.406 2.406 0 0 1-1.44-.486l-.02-.018a.967.967 0 0 1-.34-.748 1.024 1.024 0 0 1 .275-.67.8.8 0 0 1-.03-.096.538.538 0 0 0-.32-.083 1.076 1.076 0 0 1-.96-.552.317.317 0 0 1-.14-.02.323.323 0 0 1-.2-.24.76.76 0 0 1 .137-.643.625.625 0 0 1 .416-.226c.038-.01.074-.017.107-.024a.81.81 0 0 0 .084-.02.9.9 0 0 1 .59-.2 1.254 1.254 0 0 1 .955.428.355.355 0 0 0 .26.132 1.61 1.61 0 0 1 .33-.028 24.387 24.387 0 0 1 3.687.622c1.012.214 1.968.417 2.522.477a.96.96 0 0 0 .112.008.67.67 0 0 0 .2-.033c.037-.01.08-.023.13-.033a.548.548 0 0 1 .128-.016.357.357 0 0 1 .353.25.4.4 0 0 1-.2.45l-.03.017a1.242 1.242 0 0 0-.164.212l-.083.116-.03.036a.694.694 0 0 1-.333.18 2.04 2.04 0 0 1 .488 1.086.556.556 0 0 1-.093.48.487.487 0 0 1-.386.18zm-.78-.89a1.513 1.513 0 0 1 .575.125 1.5 1.5 0 0 0-.372-.642 1.177 1.177 0 0 1-.33-.6.327.327 0 0 1 .208-.354c-.565-.095-1.3-.25-2.056-.41a24.985 24.985 0 0 0-3.553-.61.8.8 0 0 0-.21.02.315.315 0 0 1-.087.01 1.02 1.02 0 0 1-.8-.38.624.624 0 0 0-.446-.18.265.265 0 0 0-.172.045.33.33 0 0 1-.05.04.746.746 0 0 1-.25.1.357.357 0 0 1 .077.27.448.448 0 0 0 .316.17h.033a1.1 1.1 0 0 1 .81.288.466.466 0 0 1 .155.287.414.414 0 0 1 .117.308.53.53 0 0 1-.228.37.368.368 0 0 0-.12.256.33.33 0 0 0 .122.25 1.764 1.764 0 0 0 1.03.34 2.015 2.015 0 0 0 1.246-.477 2.96 2.96 0 0 1 1.825-.578c.738 0 1.595.235 1.774.63a3.018 3.018 0 0 1 .276.716.116.116 0 0 0 .065.006z" fill="#fff"/><path d="M44.22 19.45a2.348 2.348 0 0 0-.614.647 3.4 3.4 0 0 1-2.492.84 3.6 3.6 0 0 1-2.393-.614 4.117 4.117 0 0 0-.712-.452.628.628 0 0 1-.323-.81c-.1.163-.162.325-.357.293-.13 0-.388 0-.323.13-.032-.066-.032-.163-.065-.195l-.064-.065c.1.065.323-.13.485-.13.13.033.293-.128.26-.323-.033-.16-.065-.29-.1-.42.26-.13 3.656.485 4.335.55.68.032 2.622.323 2.363.55z"/><path d="M41.114 21.263a3.89 3.89 0 0 1-2.6-.686 3.7 3.7 0 0 0-.65-.414.932.932 0 0 1-.474-.482h-.13a.33.33 0 0 1-.114.096.324.324 0 0 1-.435-.145.746.746 0 0 1-.053-.158l-.014-.015a.324.324 0 0 1 .28-.55l.058-.026a1.042 1.042 0 0 1 .3-.1c-.025-.125-.052-.23-.08-.342a.328.328 0 0 1 .17-.37.64.64 0 0 1 .3-.053c.484 0 1.756.2 2.878.374.594.092 1.108.172 1.327.193a13.445 13.445 0 0 1 1.432.18c.947.174 1.16.315 1.234.53a.373.373 0 0 1-.113.408.4.4 0 0 1-.047.035 2.11 2.11 0 0 0-.522.563 3.7 3.7 0 0 1-2.744.965zm-3.168-2.393a.326.326 0 0 1 .046.294.31.31 0 0 0 .15.41l.01.007a4.367 4.367 0 0 1 .767.487h.004a3.322 3.322 0 0 0 2.19.542 3.144 3.144 0 0 0 2.235-.716c.125-.166.23-.3.327-.4a12.23 12.23 0 0 0-1.834-.272h-.015c-.235-.022-.762-.105-1.373-.2-.84-.13-1.945-.3-2.525-.353l.008.037v.01a.564.564 0 0 1 .008.153z" fill="#fff"/><path d="M38.073 18.22a1.162 1.162 0 0 1 1.1-.388h.1a.987.987 0 0 1 .906-.065h.13a1.722 1.722 0 0 1 1.39.26l.1.064a2.388 2.388 0 0 1 2.006.94.646.646 0 0 0 .323.226c.2.032.226.13.065.226a2.547 2.547 0 0 0-.68.615 3.29 3.29 0 0 1-2.4.777 3.675 3.675 0 0 1-2.33-.583 6.065 6.065 0 0 0-.678-.452c-.194-.065-.453-.323-.357-.582a1.693 1.693 0 0 0-.226-.906.635.635 0 0 1 .485-.1l.064-.033z" fill="#00a650"/><path d="M41.114 21.2a3.963 3.963 0 0 1-2.524-.648 5.37 5.37 0 0 0-.6-.4l-.024-.014a.956.956 0 0 1-.49-.456.685.685 0 0 1-.038-.51 1.392 1.392 0 0 0-.158-.557c-.02-.046-.04-.093-.057-.14a.323.323 0 0 1 .12-.39 1.127 1.127 0 0 1 .59-.17 1.455 1.455 0 0 1 1.25-.407 1.258 1.258 0 0 1 .6-.14 1.292 1.292 0 0 1 .46.08h.015a1.576 1.576 0 0 1 .42-.05 1.983 1.983 0 0 1 1.21.37 2.744 2.744 0 0 1 2.14 1.032l.04.042a.322.322 0 0 0 .117.1.458.458 0 0 1 .424.353.44.44 0 0 1-.255.47l-.02.012a2.366 2.366 0 0 0-.577.533 3.594 3.594 0 0 1-2.644.89zm-3.15-2.625a1.272 1.272 0 0 1 .1.76.253.253 0 0 1-.013.037.088.088 0 0 0 .01.027.31.31 0 0 0 .147.133.266.266 0 0 1 .064.03l.05.028a6.064 6.064 0 0 1 .663.447 3.388 3.388 0 0 0 2.13.514 3.065 3.065 0 0 0 2.135-.646l.02-.023a6.01 6.01 0 0 1 .458-.468 1.28 1.28 0 0 1-.132-.126l-.023-.026a2.147 2.147 0 0 0-1.592-.85c-.052 0-.106 0-.16.006a.322.322 0 0 1-.2-.053l-.1-.065a.323.323 0 0 1-.05-.04 1.383 1.383 0 0 0-.79-.215.91.91 0 0 0-.27.034.324.324 0 0 1-.1.016h-.13a.32.32 0 0 1-.145-.034.59.59 0 0 0-.248-.046.568.568 0 0 0-.3.07.324.324 0 0 1-.208.074h-.1a.3.3 0 0 1-.08-.01.61.61 0 0 0-.146-.018.97.97 0 0 0-.644.32.31.31 0 0 1-.084.062l-.065.032a.323.323 0 0 1-.194.03z" fill="#fff"/><path d="M43.8 19.03a2.388 2.388 0 0 0-2.006-.94.487.487 0 0 1-.032.195 4.468 4.468 0 0 1 1.585 1.2 2.94 2.94 0 0 0 .453-.453z" fill="#004b3d"/><path d="M43.347 19.806h-.02a.326.326 0 0 1-.237-.126 4.158 4.158 0 0 0-1.442-1.09.325.325 0 0 1-.188-.187.33.33 0 0 1 .006-.252.283.283 0 0 0 0-.06.323.323 0 0 1 .3-.322c.07-.006.14-.008.21-.008a2.78 2.78 0 0 1 2.05 1.04.32.32 0 0 1 .047.4 1.764 1.764 0 0 1-.372.4c-.05.043-.094.083-.128.116a.323.323 0 0 1-.225.09z" fill="#fff"/><path d="M41.7 18.026a1.722 1.722 0 0 0-1.39-.26 1.1 1.1 0 0 1-.066.454 1.947 1.947 0 0 1 .615.55c.128-.032.45-.13.613-.16a3.156 3.156 0 0 0 .227-.584z" fill="#004b3d"/><path d="M40.856 19.094a.32.32 0 0 1-.246-.113 1.77 1.77 0 0 0-.5-.462.32.32 0 0 1-.176-.186.324.324 0 0 1 .013-.257 1 1 0 0 0 .03-.308.323.323 0 0 1 .223-.307 1.5 1.5 0 0 1 .476-.068 1.915 1.915 0 0 1 1.247.405.32.32 0 0 1 .088.293 3.606 3.606 0 0 1-.253.664.323.323 0 0 1-.226.172c-.092.02-.26.066-.4.1-.08.023-.152.043-.2.055a.346.346 0 0 1-.074.014zm-.24-1.026a2.466 2.466 0 0 1 .35.336l.278-.075.07-.167a1.715 1.715 0 0 0-.635-.122h-.06z" fill="#fff"/><path d="M40.176 17.767a.987.987 0 0 0-.906.065 1.48 1.48 0 0 0-.1.518.7.7 0 0 1 .388.162 1.754 1.754 0 0 0 .55-.292 1.078 1.078 0 0 0 .065-.453z" fill="#004b3d"/><path d="M39.56 18.836a.327.327 0 0 1-.224-.09.46.46 0 0 0-.166-.072.322.322 0 0 1-.32-.324 1.756 1.756 0 0 1 .13-.663.32.32 0 0 1 .083-.1 1.144 1.144 0 0 1 .72-.22 1.23 1.23 0 0 1 .538.114.332.332 0 0 1 .17.213 1.132 1.132 0 0 1-.05.55l-.014.06a.315.315 0 0 1-.086.15 2.03 2.03 0 0 1-.677.37.32.32 0 0 1-.102.013zm-.037-.725a.817.817 0 0 1 .08.04 1.732 1.732 0 0 0 .223-.118l.005-.02h-.047a.735.735 0 0 0-.247.04c-.005.017-.01.037-.013.06z" fill="#fff"/><path d="M38.073 18.22a1.162 1.162 0 0 1 1.1-.388 1 1 0 0 0-.1.485 1.864 1.864 0 0 0-1 .194z" fill="#004b3d"/><path d="M38.073 18.835a.323.323 0 0 1-.324-.324v-.29a.323.323 0 0 1 .094-.23 1.572 1.572 0 0 1 1.1-.51 1.26 1.26 0 0 1 .3.038.322.322 0 0 1 .223.2.326.326 0 0 1-.032.3.83.83 0 0 0-.043.3.323.323 0 0 1-.353.323h-.117a1.51 1.51 0 0 0-.678.147.325.325 0 0 1-.172.048z" fill="#fff"/><path d="M43.218 19.547a4.342 4.342 0 0 0-1.49-1.133c0 .033-.064.162-.1.26a12.563 12.563 0 0 1 .745 1.293 4.97 4.97 0 0 0 .842-.42z" fill="#004b3d"/><path d="M42.377 20.292a.325.325 0 0 1-.3-.19 11.976 11.976 0 0 0-.718-1.25.32.32 0 0 1-.04-.28c.02-.055.042-.11.062-.16.01-.022.02-.043.025-.06a.324.324 0 0 1 .455-.23 4.6 4.6 0 0 1 1.618 1.24.323.323 0 0 1-.078.45 5.448 5.448 0 0 1-.91.456.317.317 0 0 1-.115.024zm-.087-1.17c.085.145.168.292.24.427.06-.028.122-.057.182-.087a3.96 3.96 0 0 0-.422-.34z" fill="#fff"/><path d="M40.76 20.26a12.26 12.26 0 0 0 .1-1.328c.16-.032.484-.13.613-.162.162.26.55.94.713 1.262a5.47 5.47 0 0 1-1.425.227z" fill="#004b3d"/><path d="M40.868 20.587h-.136a.325.325 0 0 1-.227-.122.318.318 0 0 1-.067-.247 11.967 11.967 0 0 0 .094-1.28.325.325 0 0 1 .26-.32c.093-.017.263-.064.4-.1l.2-.054a.324.324 0 0 1 .353.143c.16.254.556.948.727 1.288a.324.324 0 0 1-.212.46 6.54 6.54 0 0 1-1.392.232zm.3-1.4c-.008.2-.025.473-.05.733a5.846 5.846 0 0 0 .577-.106c-.123-.225-.27-.478-.38-.668z" fill="#fff"/><path d="M39.626 18.7a2.426 2.426 0 0 0 .55-.323 3.21 3.21 0 0 1 .486.453c0 .29-.1 1.132-.13 1.424a2.176 2.176 0 0 1-.906-.194 6.26 6.26 0 0 0 0-1.36z" fill="#004b3d"/><path d="M40.532 20.583a2.49 2.49 0 0 1-1.067-.237.327.327 0 0 1-.162-.3 6.315 6.315 0 0 0 .005-1.274.325.325 0 0 1 .2-.364 2.112 2.112 0 0 0 .468-.276.326.326 0 0 1 .4-.006 3.537 3.537 0 0 1 .55.518.323.323 0 0 1 .065.194c0 .25-.06.81-.12 1.375l-.01.085a.324.324 0 0 1-.328.285zm-.568-.73a2.11 2.11 0 0 0 .28.06c.033-.3.077-.718.09-.96-.048-.05-.11-.108-.173-.164-.06.037-.12.074-.183.107a7.426 7.426 0 0 1-.013.956z" fill="#fff"/><path d="M38.008 19.094a1.368 1.368 0 0 0 .065-.39 1.567 1.567 0 0 1 1.39-.063 8.577 8.577 0 0 1-.03 1.327 6.524 6.524 0 0 0-1.425-.873z" fill="#004b3d"/><path d="M39.432 20.292a.32.32 0 0 1-.2-.068 6.37 6.37 0 0 0-1.32-.82.325.325 0 0 1-.2-.442 1.383 1.383 0 0 0 .038-.257.322.322 0 0 1 .152-.274 1.963 1.963 0 0 1 .97-.25 1.564 1.564 0 0 1 .746.175.322.322 0 0 1 .17.254 8.858 8.858 0 0 1-.035 1.41.327.327 0 0 1-.2.25.33.33 0 0 1-.12.022zM38.4 18.91a6.878 6.878 0 0 1 .747.453c0-.17.008-.352 0-.5a1.076 1.076 0 0 0-.28-.035 1.45 1.45 0 0 0-.467.08z" fill="#fff"/><path d="M36.39 18.51c-.064 0-.1-.193-.226-.193-.033 0-.13.033-.162 0a.248.248 0 0 0 .065.162c.033.096.194.03.323.03z"/><path d="M36.39 19.386v-.65c.05 0 .083-.033.178-.176a.65.65 0 0 1 .416-.336l.107.64a.183.183 0 0 0 .084-.037.755.755 0 0 0-.066.093.86.86 0 0 1-.718.466zM36.694 19.437a.507.507 0 0 1-.21-.047l.265-.592a.14.14 0 0 0-.11 0 1.1 1.1 0 0 0 .16-.178c.136-.17.322-.4.607-.364l-.092.642a.182.182 0 0 0 .12-.02 1.18 1.18 0 0 0-.13.146c-.12.153-.328.413-.61.413zM36.585 18.706a.664.664 0 0 1-.41-.152.44.44 0 0 1-.14.023v-.648a.192.192 0 0 0-.064.01l.015-.007a.492.492 0 0 1 .6.123h.01-.012zM36.112 19.34a.49.49 0 0 1-.222-.053l.29-.58a.14.14 0 0 0-.083-.016.344.344 0 0 0 .153-.132l.54.36a.89.89 0 0 1-.678.42zM36.013 18.4l-.54-.36c.013-.018.025-.038.038-.058a.974.974 0 0 1 .28-.323l.36.54a.69.69 0 0 0-.09.125c-.015.026-.03.05-.047.075zM35.322 18.414h.648v.162h-.648z" fill="#fff"/><path d="M39.11 17.93a5.162 5.162 0 0 0-2.234-1.1 19.79 19.79 0 0 1 2.2 1.714"/><path d="M38.847 18.773a19.76 19.76 0 0 0-2.138-1.666.324.324 0 0 1 .208-.6 5.323 5.323 0 0 1 2.387 1.163l-.29.38c.123.106.223.2.29.264z" fill="#fff"/><path d="M39.5 17.444a6.022 6.022 0 0 0-2.654-1.23 8.608 8.608 0 0 1 2.233 1.877"/><path d="M38.824 18.3a8.37 8.37 0 0 0-2.13-1.8.324.324 0 0 1 .173-.61 6.148 6.148 0 0 1 2.812 1.285l-.365.536-.356-.238c.135.14.26.28.368.414z" fill="#fff"/><path d="M40.532 16.538a6.28 6.28 0 0 1 1.585-2.168 22.15 22.15 0 0 0-.84 2.62"/><path d="M41.587 17.082l-.622-.183c.032-.108.07-.248.116-.407.053-.19.113-.4.18-.63a6.388 6.388 0 0 0-.433.808l-.59-.265a6.61 6.61 0 0 1 1.657-2.27.324.324 0 0 1 .516.374 16.92 16.92 0 0 0-.706 2.157c-.045.163-.085.306-.117.415z" fill="#fff"/><path d="M41.244 16.376A3.267 3.267 0 0 1 42.9 14.66a6.818 6.818 0 0 0-1.23 2.363"/><path d="M41.98 17.1l-.63-.15a4.048 4.048 0 0 1 .145-.458l-.546-.248a3.594 3.594 0 0 1 1.808-1.875.324.324 0 0 1 .365.522A6.508 6.508 0 0 0 41.98 17.1z" fill="#fff"/><path d="M41.536 17.023a5.7 5.7 0 0 1 2.555-2.135 17 17 0 0 0-2.3 2.88"/><path d="M42.084 17.912l-.58-.29a4.34 4.34 0 0 1 .263-.435l-.5-.35a6.064 6.064 0 0 1 2.7-2.25.324.324 0 0 1 .348.53 16.91 16.91 0 0 0-2.23 2.795z" fill="#fff"/><path d="M41.988 17.735a4.558 4.558 0 0 1 2.59-.68 10.525 10.525 0 0 0-2.752 1.554"/><path d="M42.05 18.843l-.447-.47a4.26 4.26 0 0 1 .513-.408l-.285-.514a4.936 4.936 0 0 1 2.808-.713.324.324 0 0 1 .053.622 10.14 10.14 0 0 0-2.64 1.483z" fill="#fff"/><path d="M41.858 17.508A7.113 7.113 0 0 1 44.48 15.7c-.777.745-2.427 2.427-2.654 2.686"/><path d="M42.07 18.6l-.487-.427c.063-.073.232-.25.46-.487l-.42-.4a7.443 7.443 0 0 1 2.754-1.9.324.324 0 0 1 .327.54c-.763.736-2.404 2.41-2.634 2.674z" fill="#fff"/><path d="M40.306 17.152a4.165 4.165 0 0 0-1.845-2.685 8.834 8.834 0 0 1 1.425 3.3"/><path d="M39.568 17.833a8.52 8.52 0 0 0-1.375-3.184.324.324 0 0 1 .39-.483c.837.34 1.52 1.31 2.03 2.885l-.523.17c.04.154.078.314.112.48z" fill="#fff"/><path d="M39.56 17.12a4.517 4.517 0 0 0-2.523-1.715 6.077 6.077 0 0 1 2.233 2.62"/><path d="M38.967 18.142a5.78 5.78 0 0 0-2.09-2.455.324.324 0 0 1 .212-.6 4.69 4.69 0 0 1 2.72 1.828l-.5.414-.064-.075a4.3 4.3 0 0 1 .324.657z" fill="#fff"/><path d="M39.918 17.088a5.027 5.027 0 0 0-1.78-2.006c.29.55 1 2.006 1.423 2.62"/><path d="M39.294 17.886c-.334-.488-.822-1.444-1.18-2.142-.104-.205-.2-.383-.263-.51a.324.324 0 0 1 .493-.4c.052.042.115.086.187.138a5.18 5.18 0 0 1 1.67 1.958l-.55.307c.063.107.123.2.178.283zM39.18 18.278a3.587 3.587 0 0 0-1.044-1.007l.327-.56a4.2 4.2 0 0 1 1.286 1.258z" fill="#fff"/><path d="M38.3 17.67c.2.162.55.356.874.647"/><path d="M38.957 18.558a5.224 5.224 0 0 0-.547-.41c-.123-.083-.23-.155-.318-.23l.415-.5c.064.054.158.118.266.192a5.5 5.5 0 0 1 .617.465z" fill="#fff"/><path d="M42.15 18.155a6.78 6.78 0 0 1 1.39-.808"/><path d="M42.352 18.41l-.4-.508a7.122 7.122 0 0 1 1.484-.86l.22.61a6.474 6.474 0 0 0-1.304.757z" fill="#fff"/><path d="M41.924 17.93a10.3 10.3 0 0 1 1.2-1.2"/><path d="M42.18 18.127l-.514-.4a10.965 10.965 0 0 1 1.243-1.245l.42.492a10.21 10.21 0 0 0-1.15 1.153z" fill="#fff"/><path d="M42.83 15.923a18.992 18.992 0 0 0-1.23 1.52"/><path d="M41.87 17.623l-.54-.36a19.855 19.855 0 0 1 1.258-1.557l.483.434c-.277.308-.952 1.11-1.2 1.483z" fill="#fff"/><path d="M41.988 15.632a10.6 10.6 0 0 0-.81 1.423"/><path d="M41.476 17.187l-.593-.263a10.705 10.705 0 0 1 .85-1.49l.51.4a10.244 10.244 0 0 0-.767 1.353z" fill="#fff"/><path d="M39.432 15.7c.194.518.55 1.392.68 1.748"/><path d="M39.807 17.554c-.065-.176-.188-.49-.32-.822s-.263-.665-.358-.922l.606-.228c.093.252.226.587.354.912s.26.654.325.84z" fill="#fff"/><path d="M39.14 16.247a4.49 4.49 0 0 1 .486.97"/><path d="M39.315 17.31a4.2 4.2 0 0 0-.444-.884l.54-.36a4.84 4.84 0 0 1 .527 1.058z" fill="#fff"/><path d="M40.24 16.085c0-.292.195-.615.39-.615.226 0 .387.388.387.615a.467.467 0 0 1-.388.485.444.444 0 0 1-.39-.485z"/><path d="M40.63 16.894a.766.766 0 0 1-.713-.81c0-.443.3-.938.712-.938.474 0 .712.6.712.94a.786.786 0 0 1-.713.808zm0-1.04a.5.5 0 0 0-.064.23.19.19 0 0 0 .06.157.216.216 0 0 0 .068-.155.567.567 0 0 0-.066-.23z" fill="#fff"/><path d="M39.82 16.343c.032-.323.26-.582.453-.55s.29.42.26.648c-.034.26-.26.454-.422.42-.16 0-.322-.225-.29-.517z"/><path d="M40.148 17.19a.534.534 0 0 1-.07 0 .56.56 0 0 1-.382-.2.88.88 0 0 1-.2-.68.868.868 0 0 1 .742-.842.5.5 0 0 1 .086.007c.422.07.58.643.527 1.013a.79.79 0 0 1-.702.7zm.052-.99a.47.47 0 0 0-.054.175.32.32 0 0 0 .014.14.214.214 0 0 0 .054-.116.565.565 0 0 0-.014-.2z" fill="#fff"/><path d="M40.694 16.44c-.065-.29.065-.614.258-.647s.39.292.42.55c.066.26-.1.518-.258.518-.162.034-.388-.128-.42-.42z"/><path d="M41.072 17.19a.758.758 0 0 1-.7-.7 1.022 1.022 0 0 1 .135-.754.59.59 0 0 1 .39-.266.425.425 0 0 1 .08-.007c.41 0 .664.48.713.818a.818.818 0 0 1-.146.673.56.56 0 0 1-.4.227.632.632 0 0 1-.072.01zm-.067-.962a.406.406 0 0 0 0 .142.214.214 0 0 1 .006.035.207.207 0 0 0 .042.11.177.177 0 0 0 0-.093.232.232 0 0 1-.007-.038.525.525 0 0 0-.04-.156z" fill="#fff"/><path d="M40.21 16.7c0-.323.193-.614.387-.614.226 0 .388.356.388.614a.467.467 0 0 1-.388.486.444.444 0 0 1-.388-.486z"/><path d="M40.6 17.51a.767.767 0 0 1-.713-.81c0-.51.327-.94.713-.94.464 0 .712.546.712.94a.786.786 0 0 1-.712.81zm0-1.053a.493.493 0 0 0-.063.242.194.194 0 0 0 .06.156.216.216 0 0 0 .07-.157.532.532 0 0 0-.067-.243z" fill="#fff"/><path d="M39.626 16.86c0-.29.226-.614.42-.614s.39.39.39.615a.5.5 0 0 1-.39.487.468.468 0 0 1-.42-.486z"/><path d="M40.047 17.67a.788.788 0 0 1-.744-.81c0-.433.325-.937.744-.937.442 0 .712.607.712.938a.807.807 0 0 1-.713.81zm-.016-1.043a.45.45 0 0 0-.08.234.17.17 0 0 0 .08.155.225.225 0 0 0 .08-.154.574.574 0 0 0-.08-.233z" fill="#fff"/><path d="M40.823 16.732c0-.29.194-.615.388-.615.228 0 .39.388.39.615a.467.467 0 0 1-.39.485.444.444 0 0 1-.387-.485z"/><path d="M41.21 17.54a.766.766 0 0 1-.71-.808c0-.443.3-.94.71-.94.476 0 .714.6.714.94a.786.786 0 0 1-.713.81zm0-1.038a.5.5 0 0 0-.063.23.19.19 0 0 0 .06.156.214.214 0 0 0 .07-.156.583.583 0 0 0-.066-.232z" fill="#fff"/><path d="M40.694 16.99c0-.323.226-.614.42-.614s.39.356.39.615a.41.41 0 1 1-.81 0z"/><path d="M41.114 17.8a.788.788 0 0 1-.744-.81.894.894 0 0 1 .744-.938c.435 0 .713.556.713.94a.786.786 0 0 1-.713.808zm-.014-1.055a.428.428 0 0 0-.082.246.17.17 0 0 0 .09.16.21.21 0 0 0 .072-.16.538.538 0 0 0-.08-.245z" fill="#fff"/><path d="M40.176 17.282c0-.324.194-.615.388-.615.227 0 .388.388.388.615a.465.465 0 0 1-.388.485.444.444 0 0 1-.388-.485z"/><path d="M40.564 18.09a.766.766 0 0 1-.712-.808c0-.51.327-.94.712-.94.474 0 .713.6.713.94a.786.786 0 0 1-.713.81zm0-1.045a.5.5 0 0 0-.06.237.2.2 0 0 0 .06.156.212.212 0 0 0 .07-.156.584.584 0 0 0-.074-.237z" fill="#fff"/><path d="M39.367 17.282c0-.324.162-.615.324-.615s.292.388.292.615c0 .26-.162.485-.29.485-.163 0-.325-.194-.325-.485z"/><path d="M39.69 18.09a.733.733 0 0 1-.647-.808c0-.452.248-.94.648-.94.436 0 .616.613.616.94 0 .43-.287.81-.615.81z" fill="#fff"/><path d="M41.18 17.217c0-.29.16-.582.323-.582s.323.356.323.582c0 .29-.194.485-.323.485-.162-.002-.324-.194-.324-.485z"/><path d="M41.5 18.027a.735.735 0 0 1-.648-.81c0-.438.26-.906.648-.906.425 0 .648.59.648.907a.76.76 0 0 1-.648.81z" fill="#fff"/><path d="M41.373 17.767c.065-.323.26-.582.39-.55s.16.42.1.647c-.033.29-.227.453-.356.42s-.2-.258-.134-.517z"/><path d="M41.537 18.613a.427.427 0 0 1-.113-.014c-.316-.08-.473-.467-.367-.9.083-.4.342-.807.682-.807a.43.43 0 0 1 .1.013.424.424 0 0 1 .268.212 1.237 1.237 0 0 1 .068.812.722.722 0 0 1-.64.683z" fill="#fff"/><path d="M40.76 17.67c.03-.29.225-.582.387-.55.194 0 .29.388.258.615-.032.29-.194.485-.356.453-.162 0-.324-.227-.29-.518z"/><path d="M41.085 18.516a.53.53 0 0 1-.068 0 .562.562 0 0 1-.383-.2.88.88 0 0 1-.2-.68c.044-.4.32-.84.685-.84a.525.525 0 0 1 .055 0 .5.5 0 0 1 .344.18 1.1 1.1 0 0 1 .2.8c-.042.436-.306.74-.635.74zm0-.854a.332.332 0 0 0-.006.044v.028l.005-.035v-.01z" fill="#fff"/><path d="M39.852 17.767c-.1-.323-.29-.55-.42-.518s-.162.42-.1.647c.065.258.26.42.388.388.1-.032.2-.26.13-.518z"/><path d="M39.69 18.613a.77.77 0 0 1-.668-.633 1.234 1.234 0 0 1 .062-.833.43.43 0 0 1 .27-.212.457.457 0 0 1 .1-.012c.353 0 .6.4.7.75v.016a.74.74 0 0 1-.342.9l-.012.01a.427.427 0 0 1-.11.013z" fill="#fff"/><path d="M39.626 17.7c0-.29.162-.582.324-.582.194 0 .323.356.323.582 0 .292-.162.486-.323.486-.13.002-.324-.192-.324-.486z"/><path d="M39.95 18.512a.76.76 0 0 1-.647-.81c0-.437.26-.906.647-.906.422 0 .647.526.647.906a.734.734 0 0 1-.647.81z" fill="#fff"/><path d="M40.11 17.832c0-.324.2-.615.39-.615.226 0 .388.356.388.615a.466.466 0 0 1-.39.485.444.444 0 0 1-.387-.485z"/><path d="M40.5 18.64a.766.766 0 0 1-.71-.808c0-.51.324-.94.71-.94.466 0 .714.547.714.94a.786.786 0 0 1-.714.81zm0-1.05a.48.48 0 0 0-.064.242.188.188 0 0 0 .06.156.216.216 0 0 0 .07-.156.54.54 0 0 0-.066-.242z" fill="#fff"/><path d="M40.273 14.273c-.064.26-.29.485-.13.84a.64.64 0 0 0-.776.13.7.7 0 0 1 .68.26.39.39 0 0 0-.453.258 1.384 1.384 0 0 1 .55-.1 1.13 1.13 0 0 0-.292.39c.2-.163.42-.13.55-.227-.1.226.1.453.26.68-.033-.324.16-.55.064-.713.29.065.323.324.744.324-.162-.1-.26-.42-.453-.42a1.066 1.066 0 0 1 .55 0 .59.59 0 0 0-.42-.26 2.25 2.25 0 0 1 .518-.453c-.227.034-.583.066-.713.26.324-.26.26-.744.615-.81a.946.946 0 0 0-.71.325c.1-.194.1-.453.225-.518a1.374 1.374 0 0 0-.647.55 1.212 1.212 0 0 0-.162-.517z"/><path d="M40.662 16.83a.328.328 0 0 1-.265-.136l-.047-.066a2.08 2.08 0 0 1-.227-.365.238.238 0 0 0-.063.04.325.325 0 0 1-.53-.225.32.32 0 0 1-.176-.1.325.325 0 0 1-.062-.337c.01-.025.023-.05.035-.075a.325.325 0 0 1-.2-.535.852.852 0 0 1 .652-.31 1.49 1.49 0 0 1 .12-.363.99.99 0 0 0 .062-.163.324.324 0 0 1 .585-.1c.01.017.023.037.035.06a1.132 1.132 0 0 1 .418-.228.324.324 0 0 1 .378.19.772.772 0 0 1 .24 0 .324.324 0 0 1 .157.565.324.324 0 0 1 .007.6.44.44 0 0 0-.09.065.694.694 0 0 1 .163.2.323.323 0 0 1-.1.407.323.323 0 0 1-.284.48.967.967 0 0 1-.476-.113.5.5 0 0 0-.01.144.324.324 0 0 1-.207.336.353.353 0 0 1-.115.03zm-.237-1.33a.31.31 0 0 1 .11.03.33.33 0 0 1 .185-.063.325.325 0 0 1-.037-.4l.015-.023-.032-.02a.33.33 0 0 1-.2.093.32.32 0 0 1-.082.218.51.51 0 0 1-.042.04.33.33 0 0 1 .018.052.347.347 0 0 1 .065.073z" fill="#fff"/><path d="M40.435 14.79a1.22 1.22 0 0 1-.032.356"/><path d="M40.693 15.29l-.58-.29c-.01.02-.013.034-.014.034a1.446 1.446 0 0 0 .01-.244h.65a1.174 1.174 0 0 1-.067.5z" fill="#fff"/><path d="M40.856 14.758a.846.846 0 0 0-.194.486"/><path d="M40.986 15.244h-.65a1.158 1.158 0 0 1 .29-.715l.46.457a.562.562 0 0 0-.1.257zM41.138 15.516l-.63-.157a.822.822 0 0 1 .362-.483l.36.54a.214.214 0 0 0-.092.1z" fill="#fff"/><path d="M30.566 37.246c.194.518 1.586 1.2 3.2.324a5.742 5.742 0 0 0 2.49-3.042c.195-.388.292-.874-.16-1.165a12.953 12.953 0 0 1-1.2-.81c-.13-.128-.26-.225-.356-.322a1.374 1.374 0 0 1 .194.227c.648.777-.032 1.91-.744 2.59-.518.484-1.456 1.68-2.815.55-.292-.26-.97.808-.615 1.65z" fill="#ffe87f"/><path d="M32.2 38.038a1.818 1.818 0 0 1-1.683-.775 1.626 1.626 0 0 1 .17-1.458c.125-.19.267-.3.39-.3a.2.2 0 0 1 .133.052 1.722 1.722 0 0 0 1.087.46 2.28 2.28 0 0 0 1.5-.85l.163-.16c.59-.56 1.406-1.723.74-2.52a1.4 1.4 0 0 0-.19-.225l.068-.07c.044.045.1.09.15.137s.136.116.207.187a4.242 4.242 0 0 0 .7.488c.173.1.35.214.492.316.39.252.452.676.176 1.227a5.793 5.793 0 0 1-2.51 3.062 3.33 3.33 0 0 1-1.593.428zM31.08 35.6c-.088 0-.206.1-.31.253a1.553 1.553 0 0 0-.16 1.37 1.734 1.734 0 0 0 1.593.713 3.238 3.238 0 0 0 1.544-.414 5.717 5.717 0 0 0 2.47-3.018c.175-.35.29-.825-.144-1.1-.14-.1-.317-.21-.487-.314a4.973 4.973 0 0 1-.668-.454c.382.734-.14 1.73-.888 2.445l-.162.16a2.358 2.358 0 0 1-1.568.877 1.815 1.815 0 0 1-1.15-.484.1.1 0 0 0-.07-.033z"/><path d="M50.24 37.246c-.227.518-1.62 1.2-3.2.324a5.917 5.917 0 0 1-2.525-3.042c-.162-.388-.26-.874.194-1.165a12.667 12.667 0 0 0 1.2-.81 3.345 3.345 0 0 1 .355-.322 1.374 1.374 0 0 0-.194.227c-.646.777.033 1.91.713 2.59.518.484 1.488 1.68 2.847.55.292-.26.94.808.615 1.65z" fill="#ffe87f"/><path d="M48.58 38.038a3.23 3.23 0 0 1-1.568-.426 5.93 5.93 0 0 1-2.544-3.064c-.238-.57-.167-.982.21-1.225.14-.1.318-.21.49-.315a4.2 4.2 0 0 0 .7-.488 3.386 3.386 0 0 1 .363-.328l.064.073a1.406 1.406 0 0 0-.188.22c-.61.734 0 1.82.706 2.526l.15.147a2.375 2.375 0 0 0 1.537.863 1.734 1.734 0 0 0 1.1-.46.186.186 0 0 1 .13-.052c.115 0 .242.095.36.267a1.71 1.71 0 0 1 .2 1.49 1.91 1.91 0 0 1-1.71.773zm-2.694-5.4a4.942 4.942 0 0 1-.666.454c-.172.1-.348.212-.485.312-.34.22-.4.58-.178 1.107a5.837 5.837 0 0 0 2.5 3.02 3.126 3.126 0 0 0 1.52.413 1.826 1.826 0 0 0 1.614-.714 1.61 1.61 0 0 0-.187-1.4c-.128-.186-.265-.273-.35-.2a1.828 1.828 0 0 1-1.158.484 2.453 2.453 0 0 1-1.6-.89c-.054-.053-.1-.1-.15-.146-.675-.67-1.258-1.678-.86-2.442z"/><path d="M40.4 40.03a9.805 9.805 0 0 0 8.7-5.242.832.832 0 0 0-.42-1.263 4.93 4.93 0 0 1-1.294-.938c.518.517.42.873.064 1.456a7.72 7.72 0 0 1-7.05 4.14 7.72 7.72 0 0 1-7.054-4.14c-.356-.583-.453-.94.032-1.456a4.438 4.438 0 0 1-1.294.938.832.832 0 0 0-.42 1.263 9.85 9.85 0 0 0 8.736 5.24z" fill="#ffe87f"/><path d="M40.4 40.078a9.886 9.886 0 0 1-8.78-5.268.877.877 0 0 1 .44-1.328 4.485 4.485 0 0 0 1.245-.888l.038-.04.07.065-.036.04c-.417.466-.334.8.01 1.358a8.03 8.03 0 0 0 14.025 0c.358-.586.43-.91-.058-1.4l.07-.068a4.86 4.86 0 0 0 1.278.928.876.876 0 0 1 .444 1.33 9.854 9.854 0 0 1-8.746 5.27zm-7.334-7.13a4.336 4.336 0 0 1-.963.622.776.776 0 0 0-.4 1.194 9.826 9.826 0 0 0 17.355 0 .777.777 0 0 0-.4-1.2 4.236 4.236 0 0 1-.937-.614c.162.347.044.67-.228 1.114a8.125 8.125 0 0 1-14.19 0c-.268-.444-.388-.764-.233-1.115z"/><path d="M34.416 34.56c-.064-.323-.485-.193-.614.2a5.28 5.28 0 0 1-.453-.712c-.39-.583-.454-.97.1-1.52.258-.26.777-.55 1.133-.228.744.616.356 1.618-.163 2.265z" fill="#ed2a25"/><path d="M33.817 34.86l-.055-.077.04-.028-.04.027a5.475 5.475 0 0 1-.457-.717 1.047 1.047 0 0 1 .106-1.577 1.23 1.23 0 0 1 .8-.384.583.583 0 0 1 .4.156c.76.626.39 1.647-.156 2.33l-.065.082-.02-.1c-.02-.094-.072-.144-.153-.144a.457.457 0 0 0-.37.344zm.39-2.66a1.156 1.156 0 0 0-.727.356c-.543.543-.462.9-.09 1.46a5 5 0 0 0 .4.638.52.52 0 0 1 .426-.325.232.232 0 0 1 .216.13c.49-.647.8-1.564.114-2.127a.49.49 0 0 0-.34-.133z"/><path d="M46.357 34.56c.064-.323.517-.193.647.2a5.376 5.376 0 0 0 .452-.712c.39-.583.454-.97-.13-1.52-.225-.26-.743-.55-1.13-.228-.714.616-.357 1.618.16 2.265z" fill="#ed2a25"/><path d="M46.988 34.86l-.03-.09a.465.465 0 0 0-.39-.344.157.157 0 0 0-.164.144l-.02.1-.066-.08c-.58-.727-.854-1.73-.155-2.333a.645.645 0 0 1 .424-.155 1.124 1.124 0 0 1 .777.386 1.028 1.028 0 0 1 .133 1.58 5.436 5.436 0 0 1-.454.713zm-.42-.53a.544.544 0 0 1 .446.325 4.685 4.685 0 0 0 .4-.634c.375-.562.452-.923-.12-1.463a1.026 1.026 0 0 0-.706-.356.547.547 0 0 0-.36.133c-.63.542-.4 1.445.114 2.128a.243.243 0 0 1 .225-.13z"/><path d="M30.566 37.246a7.833 7.833 0 0 1-.647-2.07c-.1-.292-.13-.55.225-.68s.68.323.842.712.42.97.71 1.682c-.71-.42-1.293-.13-1.13.356z" fill="#ed2a25"/><path d="M30.526 37.273a7.52 7.52 0 0 1-.655-2.088c-.1-.294-.135-.59.26-.735a.41.41 0 0 1 .14-.025c.327 0 .607.394.76.764l.217.505c.14.324.313.728.5 1.177l.055.133-.124-.073a1.266 1.266 0 0 0-.627-.2.484.484 0 0 0-.4.166.356.356 0 0 0-.032.33zm-.255-2.75a.317.317 0 0 0-.108.018c-.3.11-.3.31-.2.62a9.036 9.036 0 0 0 .53 1.858.4.4 0 0 1 .072-.172.572.572 0 0 1 .48-.207 1.28 1.28 0 0 1 .555.143c-.165-.4-.32-.756-.445-1.05-.083-.193-.156-.363-.216-.507-.134-.326-.39-.704-.67-.704z"/><path d="M50.24 37.246a11.422 11.422 0 0 0 .646-2.07c.065-.292.13-.55-.226-.68s-.68.323-.842.712-.42.97-.712 1.682c.712-.42 1.263-.13 1.133.356z" fill="#ed2a25"/><path d="M50.28 37.27l-.088-.037a.378.378 0 0 0-.05-.337.475.475 0 0 0-.39-.16 1.255 1.255 0 0 0-.62.2l-.125.073.054-.134c.185-.45.36-.853.5-1.177.084-.194.157-.364.217-.507.153-.37.435-.764.76-.764a.41.41 0 0 1 .142.024c.39.142.324.436.26.72v.016c-.023.08-.055.208-.095.37a7.892 7.892 0 0 1-.565 1.71zm-.53-.63a.57.57 0 0 1 .468.2.423.423 0 0 1 .08.183 10.72 10.72 0 0 0 .445-1.486c.04-.165.073-.294.1-.372v-.013c.064-.287.11-.495-.2-.608a.32.32 0 0 0-.11-.02c-.277 0-.534.38-.67.7-.06.145-.133.315-.216.508-.126.293-.28.652-.444 1.05a1.26 1.26 0 0 1 .548-.143z"/><path d="M32.443 34.334l-.26.13a.128.128 0 0 0-.064.13h-.033l-.13-.292h.033c0 .032.032.065.1.032l.55-.29c.065-.033.065-.066.032-.1l.033-.034.162.324h-.033c-.032-.032-.065-.065-.13-.032l-.226.13.1.193.26-.1c.064-.032.032-.1.032-.13h.03l.13.292c-.033-.033-.066-.065-.13-.033l-.55.292c-.065.032-.065.064-.032.1l-.033.032-.162-.29.033-.034c.032.033.065.065.13.033l.258-.13-.1-.226zM32.993 34.755c.064-.033.064-.065.032-.13h.032l.324.485-.225.163v-.033c.13-.1.13-.226.1-.26s-.065-.064-.065-.1c-.032 0-.032-.03-.1.033-.033.033-.226.162-.226.162.032.032.064.13.226.032h.033l-.357.26v-.033c.162-.13.1-.227.065-.26l-.226.163c-.064.033-.064.065-.064.1.032 0 .032.032.064.065.033.065.13.13.292.065l.032.032-.26.1-.322-.518h.032c.033.03.065.064.13.03l.485-.354zM33.51 35.984l-.226.194a.1.1 0 0 0 0 .13h-.032l-.227-.227.032-.03c.033.03.065.064.13 0l.42-.422c.065-.032.065-.064.033-.13l.226.26a.1.1 0 0 0-.13 0l-.193.194.16.162.2-.162c.065-.065.033-.1 0-.13l.033-.032.226.26h-.032c-.032 0-.065-.034-.13.03l-.42.39c-.064.064-.064.1-.032.13v.032l-.227-.26c.034 0 .1.033.13 0l.227-.226-.16-.162zM34 36.664l.1.1.13-.29a1.422 1.422 0 0 0-.26.128l.033.065-.032.032-.064-.065c-.033.032-.065.032-.1.064-.1.064-.065.1-.032.128v.033l-.162-.16h.032l.13-.033.646-.356.033.033a6.087 6.087 0 0 0-.324.68c0 .064-.033.1 0 .16l-.26-.225.033-.033a.067.067 0 0 0 .13 0c0-.032.03-.1.03-.13l-.1-.1.037-.03zM34.255 37.31l.032-.03c.033.03.065.03.13 0l.42-.552-.032-.032a.22.22 0 0 0-.26.065v-.032l.13-.162.486.356-.16.2h-.033a.166.166 0 0 0 0-.26v-.032l-.42.55c-.065.033-.034.1 0 .13h-.034l-.258-.194zM35.1 37.44l-.16.227c-.035.064 0 .1.03.13l-.03.032-.26-.2v-.03c.064.032.1.032.13-.032l.355-.486c.032-.064 0-.1-.032-.13l.032-.032.26.2v.032c-.066-.032-.1-.032-.13.033l-.162.226.194.13.16-.226a.1.1 0 0 0-.03-.13l.03-.032.26.194v.032a.08.08 0 0 0-.13.033l-.323.52c-.065.03-.032.063 0 .1v.03l-.294-.2h.032a.122.122 0 0 0 .1-.03l.16-.26-.193-.13zM35.743 38.346l.033-.032a.08.08 0 0 0 .13-.033l.258-.55c.032-.063 0-.1-.033-.128l.552.26-.13.258-.032-.032a.225.225 0 0 0-.033-.292c-.032 0-.064-.032-.1-.032s-.032 0-.064.065a1.765 1.765 0 0 0-.13.225c.033.033.1.1.227-.065h.032l-.194.39-.032-.034c.1-.194-.033-.226-.065-.226l-.128.26c-.033.063 0 .1.032.1v.03l-.324-.16zM36.682 38.8c-.1-.064-.1-.258 0-.453.064-.194.194-.356.323-.29.1.032.065.226 0 .42-.1.226-.226.356-.323.323h-.033c.226.1.387-.032.484-.258a.367.367 0 0 0-.13-.518c-.193-.1-.387.032-.484.26s-.065.452.13.516zM37.685 38.864l.13-.388c.03-.065 0-.1-.033-.13l.16.033v.03c-.03 0-.063 0-.1.066l-.128.388c-.064.162-.162.292-.356.226a.263.263 0 0 1-.162-.355l.162-.42c.033-.065 0-.1-.033-.13v-.033l.292.13v.032c-.033-.033-.1-.033-.1.032l-.162.42c-.033.13-.033.26.065.292s.194-.032.26-.194zM37.975 38.443c0-.032 0-.032-.032-.032l.227.033.194.615.1-.388c.033-.065 0-.1-.033-.13l.2.033-.03.032c-.034 0-.066 0-.1.065l-.163.712H38.3l-.258-.777-.162.518c0 .1.033.1.064.13v.032l-.194-.065v-.032c.033.032.1 0 .1-.065l.162-.582-.033-.1zM39.076 39.09c-.065.292-.194.357-.26.357h-.063a.046.046 0 0 1 0-.065l.1-.647c.032-.033.032-.065.063-.033h.066c.064 0 .13.13.1.388l.1.033c.065-.324-.064-.453-.226-.485-.13-.033-.324-.065-.324-.065v.027c.032.033.1.033.064.13l-.1.582c-.033.065-.065.1-.1.1h-.033l.323.065c.163.032.325 0 .39-.356l-.1-.032zM39.367 38.832a.1.1 0 0 0-.1-.1V38.7l.582.065-.033.26c0-.163-.1-.228-.16-.228a.122.122 0 0 0-.1-.032c-.033 0-.033 0-.033.1 0 .033-.032.26-.032.26.032 0 .13.032.194-.163l-.032.42h-.033c0-.193-.1-.193-.128-.193l-.033.29c0 .065 0 .065.032.065l.064.032c.1 0 .194-.032.26-.226h.03l-.063.26-.615-.065c.065 0 .1-.033.13-.1l.064-.615zM40.435 39.22c0 .29-.1.388-.194.388-.03-.032-.03-.032-.064-.032l-.032-.032.032-.68c0-.032 0-.032.033-.032h.063c.065 0 .162.1.162.388h.13c0-.323-.162-.42-.324-.42a1.677 1.677 0 0 0-.322-.033v.033a.1.1 0 0 1 .1.1l-.032.614c0 .065-.032.1-.064.1v.033h.29c.162 0 .324-.065.356-.42zM41.373 39.48c0 .064.032.064.1.064v.032l-.356.032c.033-.032.1-.064.1-.13l-.064-.614c-.033-.065-.065-.065-.13-.065v-.033l.356-.032c-.033.032-.1.064-.066.13l.065.614zM41.7 39.544v-.033c.032 0 .065-.03.065-.1l-.13-.678H41.6a.178.178 0 0 0-.1.226h-.03l-.032-.226.583-.1.033.226h-.032c0-.13-.1-.162-.2-.162h-.03l.13.68a.085.085 0 0 0 .1.1v.032l-.325.033zM43.09 38.9l-.13-.39c0-.064-.065-.064-.1-.064v-.032l.16-.065v.032c-.03.032-.03.032-.03.1l.128.42a.3.3 0 0 1-.162.39.26.26 0 0 1-.324-.228l-.13-.42c-.03-.065-.064-.065-.1-.065l-.032-.033.324-.1v.033c-.032.032-.065.065-.032.13l.1.42a.238.238 0 0 0 .228.194c.1-.032.13-.162.1-.323zM43.444 38.67c.162-.065.13-.162.1-.26s-.1-.16-.16-.128c-.034 0-.066.032-.034.064l.1.324.033.032.064.26a.08.08 0 0 0 .13.03v.034l-.29.13-.034-.033c.065-.033.065-.065.065-.13l-.227-.55c-.03-.1-.063-.064-.128-.064v-.034l.324-.13a.264.264 0 0 1 .323.13.268.268 0 0 1-.163.324.112.112 0 0 0-.064.032l-.033-.032zM44.253 38.767c-.1.032-.226-.1-.323-.324-.1-.194-.1-.388 0-.42s.226.1.323.29.1.39 0 .454a.36.36 0 0 0 .162-.518.42.42 0 0 0-.485-.26.376.376 0 0 0-.162.518c.1.227.29.356.485.26zM44.285 37.86h-.064l.195-.13.582.325-.197-.355a.128.128 0 0 0-.13-.065V37.6l.162-.064c-.032.032-.064.064 0 .13l.324.646-.032.032-.712-.388.26.485a.08.08 0 0 0 .128.034v.032l-.162.1v-.032c.033-.032.033-.065 0-.13l-.26-.517-.1-.065zM45.742 37.958v-.032c0-.033.032-.065 0-.13l-.39-.55h-.032a.166.166 0 0 0 0 .26l-.03.032-.13-.227.485-.323.13.2a.22.22 0 0 0-.26-.065l-.033.032.39.55a.08.08 0 0 0 .13.032v.033zM46.1 37.182l.2.226a.1.1 0 0 0 .13 0v.033l-.26.227v-.033c.033-.032.033-.064 0-.13l-.388-.484c-.032-.065-.066-.033-.13-.033l.26-.226v.033c0 .032-.033.065 0 .13l.162.2.193-.13-.162-.227c-.03-.065-.1-.033-.13-.033l.26-.226v.032c-.032.03-.032.064 0 .13l.388.484a.06.06 0 0 0 .1 0l.032.033-.26.226-.03-.033c.03-.032.063-.064.03-.13l-.193-.225-.2.162zM46.388 36.5a.1.1 0 0 0-.13 0v-.03l.422-.39.194.195h-.032a.21.21 0 0 0-.29-.032c0 .032-.034.032-.066.065a.254.254 0 0 0 .032.1l.2.194c.032-.033.13-.1 0-.26h.032l.26.293v.032c-.163-.162-.228-.065-.26-.032l.194.193c.032.065.065.065.065.065l.1-.1c.03-.032.063-.13 0-.323h.03l.13.226-.42.42-.032-.032c.032-.032.064-.064 0-.13l-.422-.452zM47.165 35.6a.08.08 0 0 0 .033.13c.064.064.13.064.258 0a.252.252 0 0 1 .292.032.27.27 0 0 1 .064.356c-.032.032-.1.064-.13.1-.032 0-.032 0-.032.032v.032l-.226-.194h.032c.13.065.26.1.324 0 .065-.065 0-.13-.032-.16-.065-.066-.13-.066-.227 0a.382.382 0 0 1-.322-.034c-.13-.13-.13-.226-.066-.323.033-.032.1-.064.13-.1.033 0 .033 0 0-.064l.227.162h-.034c-.16-.065-.258-.033-.29.032zM47.456 35.337c-.064-.032-.1 0-.13.032H47.3l.356-.518.226.162-.032.032a.232.232 0 0 0-.29 0c0 .032-.034.064-.034.1-.032 0-.032.032.033.065.03.033.225.162.225.162.033-.032.1-.1-.032-.226v-.036l.324.26c-.2-.1-.227 0-.26.032l.227.162a.254.254 0 0 0 .1.032c0-.032.032-.065.065-.1a.224.224 0 0 0-.066-.29l.032-.034.163.194-.326.486h-.032c.032-.065.032-.1-.032-.162l-.486-.356zM48.33 34.755l-.1.16a1.66 1.66 0 0 1-.2-.225l.293.065h.077c.032 0 .1.032.13.032.1.032.065.065.032.13h.033l.16-.292c-.064.065-.1.032-.16.032a5.93 5.93 0 0 1-.745-.16v.03l.518.583a.2.2 0 0 1 .032.13h.032l.1-.162-.032-.032c-.032.064-.065.1-.13 0l-.064-.065.1-.225zM48.136 34.043c-.033.032-.033.1.064.13s.13 0 .227-.065.194-.13.323-.065a.233.233 0 0 1 .13.324c-.032.032-.064.1-.1.13v.063l-.26-.13c.163.034.293 0 .325-.1.032-.064-.032-.128-.065-.16-.065-.033-.13 0-.226.064a.252.252 0 0 1-.324.065c-.13-.066-.194-.163-.13-.26 0-.065.065-.1.1-.13 0-.032 0-.032-.032-.064v-.032l.26.13H48.4c-.162-.034-.26.03-.26.1z" fill="#004b3d"/><path d="M37.912 22.588a1.016 1.016 0 0 1-1.1-.226.586.586 0 0 1 .065-.874 1.03 1.03 0 0 1 .906-.226c.356.1 1.294.97 1.068 1a6.478 6.478 0 0 0-.937.323z" fill="#fff"/><path d="M37.472 22.7a.98.98 0 0 1-.693-.3.633.633 0 0 1-.178-.525.576.576 0 0 1 .248-.426 1.234 1.234 0 0 1 .7-.268.945.945 0 0 1 .248.035c.3.082 1.15.808 1.14 1.02a.083.083 0 0 1-.078.078h-.01a1.45 1.45 0 0 0-.47.15 3.468 3.468 0 0 1-.456.17 1.986 1.986 0 0 1-.452.065zm.074-1.425a1.146 1.146 0 0 0-.643.252.48.48 0 0 0-.2.355.537.537 0 0 0 .147.444.886.886 0 0 0 .627.277 1.948 1.948 0 0 0 .428-.064 3.38 3.38 0 0 0 .442-.167 1.556 1.556 0 0 1 .493-.158 2.88 2.88 0 0 0-1.067-.908.794.794 0 0 0-.227-.03z"/><path d="M38.913 21.035a1.256 1.256 0 0 1 .713-.194c.388-.03.68-.03.777.26a2.11 2.11 0 0 0 .485.97 2.065 2.065 0 0 1-1.262.033c-.388-.194-.486-.938-.713-1.068z" fill="#fff"/><path d="M40.13 22.238a1.207 1.207 0 0 1-.528-.093 1.283 1.283 0 0 1-.48-.677.94.94 0 0 0-.232-.39l-.064-.037.06-.04a1.286 1.286 0 0 1 .736-.2c.085-.007.184-.014.275-.014.223 0 .462.036.552.306l.068.2a1.547 1.547 0 0 0 .4.745l.058.043-.062.037a2.085 2.085 0 0 1-.784.12zm-1.13-1.2a1.38 1.38 0 0 1 .215.39 1.227 1.227 0 0 0 .437.63 1.064 1.064 0 0 0 .482.083 2.52 2.52 0 0 0 .667-.083 1.858 1.858 0 0 1-.37-.74c-.023-.067-.045-.135-.07-.2-.056-.17-.19-.24-.46-.24-.086 0-.183.008-.266.015a1.387 1.387 0 0 0-.634.146z"/><path d="M41.7 21.068c.13-.1.29-.1.712-.065s.583.065.68.356c.1.322 0 .743.193 1.034a1.425 1.425 0 0 1-1.068-.16c-.356-.26-.323-1-.517-1.166z" fill="#fff"/><path d="M42.95 22.48a1.258 1.258 0 0 1-.767-.21 1.29 1.29 0 0 1-.363-.757.923.923 0 0 0-.154-.408l-.047-.04.048-.036c.14-.106.32-.108.744-.075s.613.06.722.39a1.824 1.824 0 0 1 .057.433 1.168 1.168 0 0 0 .133.59l.035.052-.06.02a1.216 1.216 0 0 1-.347.04zm-1.18-1.4a1.32 1.32 0 0 1 .145.412 1.22 1.22 0 0 0 .328.7h.006a1.363 1.363 0 0 0 .958.165 1.38 1.38 0 0 1-.114-.58 1.748 1.748 0 0 0-.052-.41c-.084-.252-.2-.288-.637-.32-.15-.013-.27-.02-.365-.02a.575.575 0 0 0-.27.05z"/><path d="M43.638 21.262c-.29-.065-.485-.1-.614 0 .16.194.032.97.356 1.23.226.16.81.2.938-.162.162-.324.162-.81-.68-1.068z" fill="#003467"/><path d="M43.81 22.656a.838.838 0 0 1-.46-.125 1.18 1.18 0 0 1-.27-.808 1.03 1.03 0 0 0-.093-.43l-.033-.038.046-.03a.39.39 0 0 1 .246-.072 2.012 2.012 0 0 1 .408.062 1.11 1.11 0 0 1 .752.543.707.707 0 0 1-.04.594.543.543 0 0 1-.555.306zm-.72-1.38a1.343 1.343 0 0 1 .085.436c.028.282.06.6.235.74a.743.743 0 0 0 .4.107c.11 0 .38-.025.462-.247a.616.616 0 0 0 .038-.518 1.007 1.007 0 0 0-.687-.487 1.9 1.9 0 0 0-.383-.06.35.35 0 0 0-.15.03z"/><path d="M40.306 20.938c.1-.1.29-.13.68-.13.42 0 .678.066.808.324.13.324.1.745.323 1a1.65 1.65 0 0 1-1.23-.065c-.355-.227-.387-.97-.58-1.133z" fill="#003467"/><path d="M41.643 22.274a1.532 1.532 0 0 1-.784-.164 1.316 1.316 0 0 1-.408-.733 1.04 1.04 0 0 0-.177-.4l-.04-.034.036-.038c.1-.105.3-.144.715-.144s.707.06.852.352a2.2 2.2 0 0 1 .106.413 1.2 1.2 0 0 0 .21.58l.027.03-.023.03c-.075.098-.384.11-.514.11zm-1.266-1.33a1.38 1.38 0 0 1 .167.4 1.25 1.25 0 0 0 .37.682 1.48 1.48 0 0 0 .73.147 1.2 1.2 0 0 0 .404-.05 1.387 1.387 0 0 1-.2-.585 2.2 2.2 0 0 0-.1-.392c-.106-.212-.314-.293-.764-.293a1.26 1.26 0 0 0-.607.09z"/><path d="M37.555 21.23c0-.162.227-.195.81-.227.582-.065.614-.032.808.388.1.228.227.616.486.746-.713.16-.94.258-1.328.032a1.968 1.968 0 0 1-.68-.712c-.032-.1-.032-.194-.1-.227z" fill="#003467"/><path d="M38.784 22.35a.9.9 0 0 1-.477-.14 2.024 2.024 0 0 1-.7-.736c-.01-.032-.017-.06-.024-.09-.013-.052-.024-.1-.05-.11l-.026-.015v-.03c0-.218.293-.244.855-.275a3.116 3.116 0 0 1 .34-.026c.296 0 .364.112.515.44l.04.095a1.2 1.2 0 0 0 .423.627l.12.06-.13.03-.238.056a3.037 3.037 0 0 1-.648.112zm-1.177-1.144a.3.3 0 0 1 .07.156l.02.08a1.93 1.93 0 0 0 .658.683.807.807 0 0 0 .43.128 2.923 2.923 0 0 0 .624-.11l.127-.03a1.55 1.55 0 0 1-.37-.61l-.038-.093c-.145-.31-.188-.384-.427-.384a3.31 3.31 0 0 0-.334.025c-.504.03-.734.058-.763.156z"/><path d="M39.11 17.93a5.162 5.162 0 0 0-2.234-1.1 19.79 19.79 0 0 1 2.2 1.714" fill="#ffc94a"/><path d="M39.06 18.56a19.68 19.68 0 0 0-2.2-1.712l.015-.04a5.047 5.047 0 0 1 2.244 1.104l-.028.034a5.235 5.235 0 0 0-2.118-1.08 20.475 20.475 0 0 1 2.114 1.662z"/><path d="M39.5 17.444a6.022 6.022 0 0 0-2.654-1.23 8.608 8.608 0 0 1 2.233 1.877" fill="#ffc94a"/><path d="M39.06 18.1a8.606 8.606 0 0 0-2.227-1.87l.012-.042a5.932 5.932 0 0 1 2.664 1.234l-.025.036a6.218 6.218 0 0 0-2.538-1.216 8.792 8.792 0 0 1 2.146 1.83z"/><path d="M40.532 16.538a6.28 6.28 0 0 1 1.585-2.168 22.15 22.15 0 0 0-.84 2.62" fill="#ffc94a"/><path d="M41.3 17l-.042-.012.116-.41a18.79 18.79 0 0 1 .68-2.11 6.11 6.11 0 0 0-1.5 2.082l-.04-.018a6.34 6.34 0 0 1 1.586-2.178l.034.025a16.8 16.8 0 0 0-.723 2.206L41.3 17z"/><path d="M41.244 16.376A3.267 3.267 0 0 1 42.9 14.66a6.818 6.818 0 0 0-1.23 2.363" fill="#ffc94a"/><path d="M41.686 17.028l-.043-.01A7.194 7.194 0 0 1 42.8 14.73a3.23 3.23 0 0 0-1.536 1.655l-.04-.018a3.265 3.265 0 0 1 1.66-1.726l.025.037a6.816 6.816 0 0 0-1.224 2.35z"/><path d="M41.536 17.023a5.7 5.7 0 0 1 2.555-2.135 17 17 0 0 0-2.3 2.88" fill="#ffc94a"/><path d="M41.813 17.777l-.038-.02A16.863 16.863 0 0 1 44 14.948a5.762 5.762 0 0 0-2.448 2.09l-.036-.027a5.774 5.774 0 0 1 2.566-2.143l.023.036a17.08 17.08 0 0 0-2.292 2.874z"/><path d="M41.988 17.735a4.558 4.558 0 0 1 2.59-.68 10.525 10.525 0 0 0-2.752 1.554" fill="#ffc94a"/><path d="M41.84 18.624l-.03-.03a10.426 10.426 0 0 1 2.684-1.53 4.63 4.63 0 0 0-2.495.69l-.022-.038a4.493 4.493 0 0 1 2.6-.682l.076.015-.073.026a10.528 10.528 0 0 0-2.74 1.548z"/><path d="M41.858 17.508A7.113 7.113 0 0 1 44.48 15.7c-.777.745-2.427 2.427-2.654 2.686" fill="#ffc94a"/><path d="M41.843 18.4l-.033-.03c.224-.255 1.788-1.85 2.582-2.617a7.375 7.375 0 0 0-2.517 1.773l-.032-.03a7.282 7.282 0 0 1 2.63-1.817l.022.035c-.767.732-2.422 2.418-2.652 2.685z"/><path d="M40.306 17.152a4.165 4.165 0 0 0-1.845-2.685 8.834 8.834 0 0 1 1.425 3.3" fill="#ffc94a"/><path d="M39.863 17.772a8.8 8.8 0 0 0-1.42-3.293l-.04-.06.066.027c.75.305 1.375 1.213 1.856 2.7l-.04.013a4.156 4.156 0 0 0-1.765-2.642 8.82 8.82 0 0 1 1.387 3.246z"/><path d="M39.56 17.12a4.517 4.517 0 0 0-2.523-1.715 6.077 6.077 0 0 1 2.233 2.62" fill="#ffc94a"/><path d="M39.25 18.034a6.045 6.045 0 0 0-2.223-2.61l.014-.04a4.412 4.412 0 0 1 2.538 1.722l-.033.028a4.507 4.507 0 0 0-2.394-1.685 6.148 6.148 0 0 1 2.14 2.568z"/><path d="M39.918 17.088a5.027 5.027 0 0 0-1.78-2.006c.29.55 1 2.006 1.423 2.62" fill="#ffc94a"/><path d="M39.543 17.715c-.322-.472-.806-1.418-1.16-2.11-.105-.206-.2-.384-.265-.513l.033-.027c.062.05.128.1.2.15a4.89 4.89 0 0 1 1.583 1.862l-.033.023a4.872 4.872 0 0 0-1.57-1.847c-.043-.03-.085-.06-.124-.09l.218.425c.353.69.836 1.635 1.158 2.1zM39.445 18.134a3.893 3.893 0 0 0-1.157-1.125l.023-.038a3.9 3.9 0 0 1 1.173 1.14z"/><path d="M38.3 17.67c.2.162.55.356.874.647" fill="#ffc94a"/><path d="M39.158 18.334a5.13 5.13 0 0 0-.58-.436c-.115-.08-.215-.147-.293-.21l.03-.035c.074.063.173.13.29.21a5.266 5.266 0 0 1 .583.438z"/><path d="M42.15 18.155a6.78 6.78 0 0 1 1.39-.808" fill="#ffc94a"/><path d="M42.164 18.173l-.028-.034a6.855 6.855 0 0 1 1.4-.814l.015.04a6.746 6.746 0 0 0-1.386.807z"/><path d="M41.924 17.93a10.3 10.3 0 0 1 1.2-1.2" fill="#ffc94a"/><path d="M41.94 17.942l-.034-.026a10.286 10.286 0 0 1 1.2-1.2l.028.033a10.245 10.245 0 0 0-1.193 1.192z"/><path d="M42.83 15.923a18.992 18.992 0 0 0-1.23 1.52" fill="#ffc94a"/><path d="M41.618 17.456l-.036-.024a19.02 19.02 0 0 1 1.232-1.524l.032.03a19.032 19.032 0 0 0-1.228 1.518z"/><path d="M41.988 15.632a10.6 10.6 0 0 0-.81 1.423" fill="#ffc94a"/><path d="M41.2 17.064l-.04-.018a10.59 10.59 0 0 1 .812-1.428l.034.027a10.5 10.5 0 0 0-.806 1.42z"/><path d="M39.432 15.7c.194.518.55 1.392.68 1.748" fill="#ffc94a"/><path d="M40.09 17.45c-.065-.18-.19-.5-.32-.83s-.263-.662-.358-.916l.04-.015c.1.253.23.59.357.915s.256.65.322.83z"/><path d="M39.14 16.247a4.49 4.49 0 0 1 .486.97" fill="#ffc94a"/><path d="M39.6 17.223a4.666 4.666 0 0 0-.482-.965l.036-.024a4.608 4.608 0 0 1 .488.977z"/><path d="M40.24 16.085c0-.292.195-.615.39-.615.226 0 .387.388.387.615a.467.467 0 0 1-.388.485.444.444 0 0 1-.39-.485z" fill="#ffc94a"/><path d="M40.63 16.592a.465.465 0 0 1-.41-.507c0-.316.206-.637.41-.637.25 0 .41.418.41.637a.486.486 0 0 1-.41.507zm0-1.1c-.18 0-.367.3-.367.593a.422.422 0 0 0 .366.463.446.446 0 0 0 .37-.463c0-.21-.155-.593-.37-.593z"/><path d="M39.82 16.343c.032-.323.26-.582.453-.55s.29.42.26.648c-.034.26-.26.454-.422.42-.16 0-.322-.225-.29-.517z" fill="#ffc94a"/><path d="M40.148 16.887a.27.27 0 0 1-.04 0 .26.26 0 0 1-.186-.1.577.577 0 0 1-.123-.445c.032-.323.265-.605.478-.57s.31.433.276.673a.49.49 0 0 1-.406.442zm.092-1.075c-.163 0-.368.228-.4.534a.536.536 0 0 0 .11.41.22.22 0 0 0 .16.083.18.18 0 0 0 .036 0 .452.452 0 0 0 .362-.406c.032-.22-.066-.594-.24-.623a.136.136 0 0 0-.028.002z"/><path d="M40.694 16.44c-.065-.29.065-.614.258-.647s.39.292.42.55c.066.26-.1.518-.258.518-.162.034-.388-.128-.42-.42z" fill="#ffc94a"/><path d="M41.072 16.887a.464.464 0 0 1-.4-.444.717.717 0 0 1 .088-.534.292.292 0 0 1 .19-.138c.2-.034.41.29.445.57a.517.517 0 0 1-.087.43.26.26 0 0 1-.194.11.166.166 0 0 1-.042.005zm-.092-1.074h-.023a.25.25 0 0 0-.16.118.678.678 0 0 0-.082.5.42.42 0 0 0 .357.408.234.234 0 0 0 .038 0 .22.22 0 0 0 .164-.1.468.468 0 0 0 .078-.395c-.03-.238-.203-.53-.372-.53z"/><path d="M40.21 16.7c0-.323.193-.614.387-.614.226 0 .388.356.388.614a.467.467 0 0 1-.388.486.444.444 0 0 1-.388-.486z" fill="#ffc94a"/><path d="M40.6 17.207a.465.465 0 0 1-.41-.508c0-.328.2-.637.41-.637.25 0 .41.377.41.636a.486.486 0 0 1-.41.507zm0-1.1c-.185 0-.367.294-.367.593a.422.422 0 0 0 .367.464.447.447 0 0 0 .366-.464c-.003-.237-.15-.594-.366-.594z"/><path d="M39.626 16.86c0-.29.226-.614.42-.614s.39.39.39.615a.5.5 0 0 1-.39.487.468.468 0 0 1-.42-.486z" fill="#ffc94a"/><path d="M40.047 17.368a.49.49 0 0 1-.443-.507c0-.3.232-.635.443-.635s.41.4.41.636a.52.52 0 0 1-.41.508zm0-1.1c-.183 0-.4.322-.4.593a.446.446 0 0 0 .4.465.472.472 0 0 0 .366-.464c0-.21-.185-.592-.366-.592z"/><path d="M40.823 16.732c0-.29.194-.615.388-.615.228 0 .39.388.39.615a.467.467 0 0 1-.39.485.444.444 0 0 1-.387-.485z" fill="#ffc94a"/><path d="M41.21 17.24a.465.465 0 0 1-.408-.508c0-.316.206-.637.41-.637.25 0 .41.418.41.637a.486.486 0 0 1-.41.507zm0-1.1c-.177 0-.365.3-.365.592a.422.422 0 0 0 .366.463.446.446 0 0 0 .368-.463c0-.208-.15-.593-.367-.593z"/><path d="M40.694 16.99c0-.323.226-.614.42-.614s.39.356.39.615a.41.41 0 1 1-.81 0z" fill="#ffc94a"/><path d="M41.114 17.5a.49.49 0 0 1-.442-.507c0-.343.244-.637.442-.637s.41.364.41.637a.486.486 0 0 1-.41.507zm0-1.1c-.175 0-.4.28-.4.593a.39.39 0 1 0 .764 0c.002-.25-.178-.593-.364-.593z"/><path d="M40.176 17.282c0-.324.194-.615.388-.615.227 0 .388.388.388.615a.465.465 0 0 1-.388.485.444.444 0 0 1-.388-.485z" fill="#ffc94a"/><path d="M40.564 17.79a.465.465 0 0 1-.41-.508c0-.327.2-.637.41-.637.25 0 .41.418.41.637a.485.485 0 0 1-.41.507zm0-1.1c-.184 0-.366.293-.366.592a.422.422 0 0 0 .366.463.446.446 0 0 0 .367-.463c0-.208-.15-.593-.366-.593z"/><path d="M39.367 17.282c0-.324.162-.615.324-.615s.292.388.292.615c0 .26-.162.485-.29.485-.163 0-.325-.194-.325-.485z" fill="#ffc94a"/><path d="M39.69 17.79c-.165 0-.345-.195-.345-.508 0-.333.165-.637.346-.637s.314.413.314.637c-.004.273-.172.507-.313.507zm0-1.1c-.136 0-.3.263-.3.592 0 .286.158.463.3.463.12 0 .27-.218.27-.463 0-.223-.125-.593-.27-.593z"/><path d="M41.18 17.217c0-.29.16-.582.323-.582s.323.356.323.582c0 .29-.194.485-.323.485-.162-.002-.324-.194-.324-.485z" fill="#ffc94a"/><path d="M41.5 17.725c-.166 0-.345-.2-.345-.508s.17-.6.345-.6.345.377.345.6c.003.305-.205.508-.345.508zm0-1.07c-.15 0-.3.284-.3.562s.157.464.3.464c.12 0 .3-.184.3-.463.005-.226-.154-.56-.3-.56z"/><path d="M41.373 17.767c.065-.323.26-.582.39-.55s.16.42.1.647c-.033.29-.227.453-.356.42s-.2-.258-.134-.517z" fill="#ffc94a"/><path d="M41.537 18.31a.16.16 0 0 1-.04 0c-.146-.035-.21-.28-.145-.543.06-.3.242-.57.387-.57a.127.127 0 0 1 .027 0 .137.137 0 0 1 .08.07.955.955 0 0 1 .032.6c-.03.274-.202.444-.343.444zm.2-1.074c-.112 0-.282.23-.344.536-.065.26.006.465.113.492s.3-.113.33-.4a.925.925 0 0 0-.028-.574.1.1 0 0 0-.053-.05z"/><path d="M40.76 17.67c.03-.29.225-.582.387-.55.194 0 .29.388.258.615-.032.29-.194.485-.356.453-.162 0-.324-.227-.29-.518z" fill="#ffc94a"/><path d="M41.085 18.213a.167.167 0 0 1-.04 0 .26.26 0 0 1-.184-.1.586.586 0 0 1-.122-.445c.035-.312.244-.6.415-.57a.19.19 0 0 1 .142.076.81.81 0 0 1 .133.564c-.028.275-.175.475-.343.475zm.037-1.074c-.142 0-.312.263-.34.532a.53.53 0 0 0 .11.412.217.217 0 0 0 .157.082.167.167 0 0 0 .035 0c.143 0 .27-.187.3-.437a.77.77 0 0 0-.124-.53.15.15 0 0 0-.112-.06z"/><path d="M39.852 17.767c-.1-.323-.29-.55-.42-.518s-.162.42-.1.647c.065.258.26.42.388.388.1-.032.2-.26.13-.518z" fill="#ffc94a"/><path d="M39.69 18.31c-.133 0-.313-.156-.377-.408a.96.96 0 0 1 .033-.6.142.142 0 0 1 .08-.07.173.173 0 0 1 .032 0c.144 0 .324.23.415.536.07.28-.038.51-.143.545a.208.208 0 0 1-.04-.002zm-.232-1.04a.07.07 0 0 0-.02 0 .094.094 0 0 0-.054.048.924.924 0 0 0-.028.57c.058.234.218.377.333.377a.136.136 0 0 0 .028 0 .45.45 0 0 0 .114-.49c-.094-.313-.267-.506-.374-.506z"/><path d="M39.626 17.7c0-.29.162-.582.324-.582.194 0 .323.356.323.582 0 .292-.162.486-.323.486-.13.002-.324-.192-.324-.486z" fill="#ffc94a"/><path d="M39.95 18.21c-.138 0-.346-.2-.346-.508s.17-.6.346-.6c.207 0 .345.364.345.6.005.314-.18.508-.345.508zm0-1.068c-.15 0-.3.283-.3.56s.18.464.3.464c.145 0 .3-.177.3-.464 0-.225-.125-.56-.3-.56z"/><path d="M40.11 17.832c0-.324.2-.615.39-.615.226 0 .388.356.388.615a.466.466 0 0 1-.39.485.444.444 0 0 1-.387-.485z" fill="#ffc94a"/><path d="M40.5 18.34a.465.465 0 0 1-.41-.508c0-.327.2-.637.41-.637.25 0 .41.377.41.637a.485.485 0 0 1-.41.507zm0-1.1c-.185 0-.366.293-.366.592a.422.422 0 0 0 .366.463.446.446 0 0 0 .367-.463c0-.232-.147-.593-.367-.593z"/><path d="M40.273 14.273c-.064.26-.29.485-.13.84a.64.64 0 0 0-.776.13.7.7 0 0 1 .68.26.39.39 0 0 0-.453.258 1.384 1.384 0 0 1 .55-.1 1.13 1.13 0 0 0-.292.39c.2-.163.42-.13.55-.227-.1.226.1.453.26.68-.033-.324.16-.55.064-.713.29.065.323.324.744.324-.162-.1-.26-.42-.453-.42a1.066 1.066 0 0 1 .55 0 .59.59 0 0 0-.42-.26 2.25 2.25 0 0 1 .518-.453c-.227.034-.583.066-.713.26.324-.26.26-.744.615-.81a.946.946 0 0 0-.71.325c.1-.194.1-.453.225-.518a1.374 1.374 0 0 0-.647.55 1.212 1.212 0 0 0-.162-.517z" fill="#ffc94a"/><path d="M40.692 16.585l-.048-.067-.044-.068c-.136-.187-.277-.38-.23-.576a.883.883 0 0 1-.168.053.734.734 0 0 0-.33.142l-.052.042.016-.065a1.023 1.023 0 0 1 .268-.37h-.02a2.193 2.193 0 0 0-.48.106l-.04.012.015-.04a.4.4 0 0 1 .42-.28.662.662 0 0 0-.524-.216.955.955 0 0 0-.106.005l-.057.006.038-.04a.555.555 0 0 1 .438-.21 1.054 1.054 0 0 1 .317.06.722.722 0 0 1 .067-.6 1.383 1.383 0 0 0 .08-.213l.012-.05.028.043a1.3 1.3 0 0 1 .16.463 1.36 1.36 0 0 1 .625-.505l.015.04c-.07.036-.1.143-.134.266a1.4 1.4 0 0 1-.044.15.99.99 0 0 1 .592-.267.462.462 0 0 1 .065.005v.043c-.184.034-.248.19-.324.37a1.6 1.6 0 0 1-.124.257 1.792 1.792 0 0 1 .48-.112l.06-.008.01.042a1.7 1.7 0 0 0-.43.365l-.047.05a.63.63 0 0 1 .392.266l-.035.025c-.007-.007-.042-.03-.193-.03a1.822 1.822 0 0 0-.248.018.665.665 0 0 1 .2.21.686.686 0 0 0 .17.19l.068.04h-.08a.68.68 0 0 1-.483-.18.72.72 0 0 0-.222-.133.52.52 0 0 1-.03.282 1.034 1.034 0 0 0-.052.395zm-.237-.826l-.032.074c-.083.193.058.386.207.59l.006.01a1.24 1.24 0 0 1 .057-.338c.034-.12.06-.215.014-.29l-.026-.045.05.012a.686.686 0 0 1 .285.152.638.638 0 0 0 .39.17 1.063 1.063 0 0 1-.13-.16c-.08-.11-.154-.216-.258-.216l-.007-.042a1.45 1.45 0 0 1 .35-.04.744.744 0 0 1 .148.013.594.594 0 0 0-.36-.19h-.054l.038-.038.08-.082a2.64 2.64 0 0 1 .343-.318 1.213 1.213 0 0 0-.494.145.65.65 0 0 1-.094.094l-.032-.03a.388.388 0 0 1 .1-.1 1.252 1.252 0 0 0 .176-.324.67.67 0 0 1 .24-.354 1.08 1.08 0 0 0-.576.318l-.035-.025a1.184 1.184 0 0 0 .08-.235.887.887 0 0 1 .08-.216 1.51 1.51 0 0 0-.543.508l-.04.067v-.08a1.213 1.213 0 0 0-.134-.463 1.79 1.79 0 0 1-.068.17.665.665 0 0 0-.048.608l.02.045-.047-.015a1.1 1.1 0 0 0-.35-.07.5.5 0 0 0-.365.152.7.7 0 0 1 .643.273l.026.04-.047-.006a.367.367 0 0 0-.41.2 1.977 1.977 0 0 1 .444-.093.218.218 0 0 1 .074.01l.033.01-.025.026a1.5 1.5 0 0 0-.258.312.875.875 0 0 1 .286-.107.56.56 0 0 0 .2-.075z"/><path d="M40.435 14.79a1.22 1.22 0 0 1-.032.356" fill="#ffc94a"/><path d="M40.423 15.156l-.04-.02a1.265 1.265 0 0 0 .03-.346h.043a1.252 1.252 0 0 1-.033.366z"/><path d="M40.856 14.758a.846.846 0 0 0-.194.486" fill="#ffc94a"/><path d="M40.683 15.244h-.043a.87.87 0 0 1 .2-.5l.03.03a.828.828 0 0 0-.187.47zM40.845 15.443l-.043-.01a.542.542 0 0 1 .236-.3l.024.036a.494.494 0 0 0-.217.273z"/><path d="M37.62 18.35a.69.69 0 0 1-.55-.26.855.855 0 0 0-1.1-.16 1.2 1.2 0 0 1-.322.1c-.163 0-.357.16-.292.484.13-.1.162 0 .26 0 .064-.032.032.033.032.1a.7.7 0 0 0 .68.452.77.77 0 0 1 .58.2c.1.1.033.064.1.226.1.1.13.13-.03.26a.655.655 0 0 0 0 1 2.115 2.115 0 0 0 2.684-.13 2.744 2.744 0 0 1 3.106-.065 2.648 2.648 0 0 1 .26.68.362.362 0 0 0 .42.226 1.16 1.16 0 0 1 .615.194c.162.1.39.065.323-.226-.13-.905-.68-1.035-.744-1.456.324.033.55.033.68-.1.1-.13.226-.356.356-.42.1-.066.1-.13-.033-.1a1.265 1.265 0 0 1-.55.063c-1.488-.16-5.663-1.294-6.47-1.067z" fill="#00a650"/><path d="M44.224 21.748a.382.382 0 0 1-.19-.056 1.1 1.1 0 0 0-.586-.188.462.462 0 0 1-.074.006.394.394 0 0 1-.4-.27 2.687 2.687 0 0 0-.256-.668 2 2 0 0 0-1.437-.417 2.59 2.59 0 0 0-1.594.5 2.376 2.376 0 0 1-1.476.557 2.123 2.123 0 0 1-1.27-.427.712.712 0 0 1-.253-.543.74.74 0 0 1 .252-.536c.076-.063.093-.09.094-.1s-.032-.05-.066-.083l-.007-.008v-.01a.507.507 0 0 1-.037-.135c0-.024 0-.03-.048-.074a.76.76 0 0 0-.548-.18.34.34 0 0 1-.047 0c-.338 0-.68-.323-.68-.5a.407.407 0 0 1 0-.05.256.256 0 0 1-.093-.026.1.1 0 0 0-.125.017l-.06.046-.017-.075a.5.5 0 0 1 .08-.415.34.34 0 0 1 .25-.128.78.78 0 0 1 .112-.026.537.537 0 0 0 .19-.062.6.6 0 0 1 .432-.15.98.98 0 0 1 .736.32.642.642 0 0 0 .505.24 1.224 1.224 0 0 1 .3-.03 24.516 24.516 0 0 1 3.63.616c1.02.216 1.982.42 2.55.482a1.2 1.2 0 0 0 .143.01.9.9 0 0 0 .276-.045c.036-.01.074-.02.115-.028a.318.318 0 0 1 .07-.01.08.08 0 0 1 .087.054c.014.044-.017.095-.088.14a1.014 1.014 0 0 0-.27.3c-.025.04-.05.076-.074.107v.006a.563.563 0 0 1-.423.128c-.064 0-.136 0-.228-.012a.99.99 0 0 0 .23.35 1.842 1.842 0 0 1 .5 1.045.294.294 0 0 1-.038.257.208.208 0 0 1-.168.07zm-.783-.34a1.205 1.205 0 0 1 .645.2.285.285 0 0 0 .136.04.116.116 0 0 0 .095-.04.212.212 0 0 0 .017-.177 1.756 1.756 0 0 0-.478-1 .932.932 0 0 1-.267-.46l-.01-.062.063.006c.123.012.21.018.286.018a.48.48 0 0 0 .352-.1l.07-.1a1.028 1.028 0 0 1 .3-.333l.013-.01h-.01a1.12 1.12 0 0 0-.112.028 1.03 1.03 0 0 1-.3.047 1.4 1.4 0 0 1-.153-.01c-.573-.062-1.538-.266-2.56-.483a24.574 24.574 0 0 0-3.61-.614 1.087 1.087 0 0 0-.283.03h-.012a.735.735 0 0 1-.588-.278.894.894 0 0 0-.66-.283.517.517 0 0 0-.368.125L36 17.97a.593.593 0 0 1-.23.077c-.038.008-.074.015-.106.025h-.014a.246.246 0 0 0-.185.093.36.36 0 0 0-.07.266.2.2 0 0 1 .157.012.17.17 0 0 0 .055.018.07.07 0 0 1 .083.013.1.1 0 0 1 .012.088.324.324 0 0 0 0 .047.67.67 0 0 0 .627.4.85.85 0 0 1 .62.208c.062.063.07.084.076.13a.36.36 0 0 0 .028.1c.05.05.09.094.087.15s-.05.11-.13.174a.638.638 0 0 0-.216.462.615.615 0 0 0 .218.466 2.027 2.027 0 0 0 1.208.405 2.285 2.285 0 0 0 1.415-.536 2.693 2.693 0 0 1 1.656-.52c.753 0 1.44.256 1.526.475a2.707 2.707 0 0 1 .262.688.3.3 0 0 0 .3.192.444.444 0 0 0 .063 0zM44.22 19.45a2.348 2.348 0 0 0-.614.647 3.4 3.4 0 0 1-2.492.84 3.6 3.6 0 0 1-2.393-.614 4.117 4.117 0 0 0-.712-.452.628.628 0 0 1-.323-.81c-.1.163-.162.325-.357.293-.13 0-.388 0-.323.13-.032-.066-.032-.163-.065-.195l-.064-.065c.1.065.323-.13.485-.13.13.033.293-.128.26-.323-.033-.16-.065-.29-.1-.42.26-.13 3.656.485 4.335.55.68.032 2.622.323 2.363.55zM41.114 20.987a3.635 3.635 0 0 1-2.424-.626 3.992 3.992 0 0 0-.7-.446.644.644 0 0 1-.39-.622.276.276 0 0 1-.27.11c-.17 0-.265.013-.282.04a.028.028 0 0 0 0 .018l-.086.044a.515.515 0 0 1-.034-.11.243.243 0 0 0-.02-.07l-.066-.065.062-.076a.04.04 0 0 0 .02 0 .54.54 0 0 0 .176-.06.685.685 0 0 1 .262-.083h.012a.155.155 0 0 0 .143-.063.247.247 0 0 0 .056-.2c-.032-.16-.064-.29-.1-.414l-.01-.038.035-.02a.4.4 0 0 1 .175-.024c.464 0 1.78.207 2.836.372.6.095 1.127.176 1.35.2.433.02 2.328.248 2.425.525a.1.1 0 0 1-.035.11h-.008a2.367 2.367 0 0 0-.6.635 3.436 3.436 0 0 1-2.528.865zm-3.47-1.95l.087.04a.578.578 0 0 0 .3.75 4.167 4.167 0 0 1 .723.458 3.556 3.556 0 0 0 2.364.605 3.34 3.34 0 0 0 2.454-.823 2.417 2.417 0 0 1 .625-.656v-.005a7.282 7.282 0 0 0-2.34-.457c-.228-.022-.752-.1-1.36-.2-1.052-.165-2.363-.37-2.82-.37a.7.7 0 0 0-.095.005c.03.115.058.234.087.376a.35.35 0 0 1-.078.284.25.25 0 0 1-.235.1.622.622 0 0 0-.216.072 1.08 1.08 0 0 1-.15.06.235.235 0 0 1 .025.07.778.778 0 0 1 .312-.04h.008c.132.02.188-.063.273-.212z"/><path d="M38.073 18.22a1.162 1.162 0 0 1 1.1-.388h.1a.987.987 0 0 1 .906-.065h.13a1.722 1.722 0 0 1 1.39.26l.1.064a2.388 2.388 0 0 1 2.006.94.646.646 0 0 0 .323.226c.2.032.226.13.065.226a2.547 2.547 0 0 0-.68.615 3.29 3.29 0 0 1-2.4.777 3.675 3.675 0 0 1-2.33-.583 6.065 6.065 0 0 0-.678-.452c-.194-.065-.453-.323-.357-.582a1.693 1.693 0 0 0-.226-.906.635.635 0 0 1 .485-.1l.064-.033z" fill="#00a650"/><path d="M41.114 20.922a3.717 3.717 0 0 1-2.358-.592 5.724 5.724 0 0 0-.627-.42l-.045-.028a.676.676 0 0 1-.36-.325.4.4 0 0 1-.02-.318 1.34 1.34 0 0 0-.172-.737l-.055-.135-.015-.037.033-.02a.858.858 0 0 1 .405-.127.305.305 0 0 1 .1.016l.04-.02a1.21 1.21 0 0 1 1.133-.4h.075a.91.91 0 0 1 .53-.144.954.954 0 0 1 .4.08h.122a1.246 1.246 0 0 1 .38-.05 1.692 1.692 0 0 1 1.05.32l.08.052c.058 0 .115-.006.17-.006a2.515 2.515 0 0 1 1.857.96l.033.035a.506.506 0 0 0 .265.178c.154.026.2.087.206.133s-.006.112-.125.183a2.5 2.5 0 0 0-.668.607 3.3 3.3 0 0 1-2.433.795zm-3.53-2.552l.04.1a1.4 1.4 0 0 1 .173.8.3.3 0 0 0 .015.247.58.58 0 0 0 .31.277h.008l.05.03a5.74 5.74 0 0 1 .635.426 3.637 3.637 0 0 0 2.3.572 3.256 3.256 0 0 0 2.356-.757 2.61 2.61 0 0 1 .7-.63c.07-.04.08-.07.078-.078s-.028-.04-.127-.056a.615.615 0 0 1-.32-.207c-.01-.012-.02-.023-.03-.032a2.4 2.4 0 0 0-1.786-.93c-.058 0-.12 0-.18.006h-.018l-.118-.08a1.584 1.584 0 0 0-.984-.295 1.183 1.183 0 0 0-.358.05H40.16a.836.836 0 0 0-.372-.076.8.8 0 0 0-.482.133l-.014.01h-.125a1.113 1.113 0 0 0-1.055.377l-.012.008-.087.044-.022-.01a.187.187 0 0 0-.084-.017.775.775 0 0 0-.322.09z"/><path d="M43.8 19.03a2.388 2.388 0 0 0-2.006-.94.487.487 0 0 1-.032.195 4.468 4.468 0 0 1 1.585 1.2 2.94 2.94 0 0 0 .453-.453z" fill="#004b3d"/><path d="M43.343 19.556l-.034-.044a4.43 4.43 0 0 0-1.565-1.18l-.05-.02.023-.05a.41.41 0 0 0 .027-.17v-.046h.045c.064 0 .128-.007.19-.007a2.515 2.515 0 0 1 1.855.96l.026.026-.018.032a1.577 1.577 0 0 1-.318.333c-.052.047-.1.09-.142.13zm-1.52-1.3a4.668 4.668 0 0 1 1.53 1.153l.107-.1a1.825 1.825 0 0 0 .278-.28 2.313 2.313 0 0 0-1.9-.9.51.51 0 0 1-.014.127z"/><path d="M41.7 18.026a1.722 1.722 0 0 0-1.39-.26 1.1 1.1 0 0 1-.066.454 1.947 1.947 0 0 1 .615.55c.128-.032.45-.13.613-.16a3.156 3.156 0 0 0 .227-.584z" fill="#004b3d"/><path d="M40.838 18.825l-.02-.023a1.9 1.9 0 0 0-.6-.537l-.048-.02.03-.045a1.083 1.083 0 0 0 .06-.432v-.035l.032-.01a1.266 1.266 0 0 1 .39-.054 1.68 1.68 0 0 1 1.052.323l.017.018v.027a3.193 3.193 0 0 1-.23.594l-.01.022h-.024c-.1.02-.278.07-.42.11-.077.02-.146.04-.193.05zM40.3 18.2a2.077 2.077 0 0 1 .57.52l.16-.045c.133-.037.3-.082.4-.105a3.14 3.14 0 0 0 .207-.524 1.634 1.634 0 0 0-.964-.277 1.234 1.234 0 0 0-.325.037 1.2 1.2 0 0 1-.048.393z"/><path d="M40.176 17.767a.987.987 0 0 0-.906.065 1.48 1.48 0 0 0-.1.518.7.7 0 0 1 .388.162 1.754 1.754 0 0 0 .55-.292 1.078 1.078 0 0 0 .065-.453z" fill="#004b3d"/><path d="M39.548 18.567l-.02-.02a.665.665 0 0 0-.355-.15h-.048v-.047a1.49 1.49 0 0 1 .1-.54v-.01l.008-.005a.878.878 0 0 1 .544-.156.95.95 0 0 1 .415.084l.02.01.005.02a.924.924 0 0 1-.047.413l-.017.065v.013l-.01.01a1.808 1.808 0 0 1-.57.3zm-.325-.262a.816.816 0 0 1 .35.15 1.757 1.757 0 0 0 .494-.26l.015-.053a.962.962 0 0 0 .05-.34.878.878 0 0 0-.35-.066.81.81 0 0 0-.473.127 1.43 1.43 0 0 0-.087.442z"/><path d="M38.073 18.22a1.162 1.162 0 0 1 1.1-.388 1 1 0 0 0-.1.485 1.864 1.864 0 0 0-1 .194z" fill="#004b3d"/><path d="M38.024 18.6v-.4l.014-.014a1.21 1.21 0 0 1 1.147-.4l.067.017-.038.057a.937.937 0 0 0-.09.458v.053h-.053c-.043 0-.09-.005-.14-.005a1.743 1.743 0 0 0-.83.192zm.1-.362v.188a2 2 0 0 1 .81-.166h.1a1.162 1.162 0 0 1 .072-.4 1.127 1.127 0 0 0-.985.38z"/><path d="M43.218 19.547a4.342 4.342 0 0 0-1.49-1.133c0 .033-.064.162-.1.26a12.563 12.563 0 0 1 .745 1.293 4.97 4.97 0 0 0 .842-.42z" fill="#004b3d"/><path d="M42.352 20.03l-.02-.042a12.158 12.158 0 0 0-.74-1.288l-.013-.02.007-.022c.014-.044.035-.1.053-.14a1.03 1.03 0 0 0 .04-.105v-.076l.07.033a4.395 4.395 0 0 1 1.508 1.15l.027.04-.04.026a5.366 5.366 0 0 1-.85.427zm-.666-1.364a13.05 13.05 0 0 1 .715 1.24 5.268 5.268 0 0 0 .75-.37 4.37 4.37 0 0 0-1.39-1.053l-.03.073-.044.11z"/><path d="M40.76 20.26a12.26 12.26 0 0 0 .1-1.328c.16-.032.484-.13.613-.162.162.26.55.94.713 1.262a5.47 5.47 0 0 1-1.425.227z" fill="#004b3d"/><path d="M40.868 20.31h-.164l.006-.05a11.79 11.79 0 0 0 .1-1.32v-.04l.04-.007c.1-.02.277-.07.417-.11l.2-.052.034-.007.02.03c.156.25.546.93.714 1.266l.027.053-.058.014a6.408 6.408 0 0 1-1.334.224zm-.054-.1h.054A6.056 6.056 0 0 0 42.11 20c-.17-.333-.505-.92-.662-1.174l-.158.043c-.125.035-.28.077-.386.1-.004.25-.033.817-.09 1.244z"/><path d="M39.626 18.7a2.426 2.426 0 0 0 .55-.323 3.21 3.21 0 0 1 .486.453c0 .29-.1 1.132-.13 1.424a2.176 2.176 0 0 1-.906-.194 6.26 6.26 0 0 0 0-1.36z" fill="#004b3d"/><path d="M40.576 20.307h-.044a2.207 2.207 0 0 1-.93-.2l-.026-.015v-.03a6.228 6.228 0 0 0 0-1.347l-.007-.04.036-.014a2.42 2.42 0 0 0 .538-.316l.03-.023.03.023a3.288 3.288 0 0 1 .5.463l.01.013v.015c0 .27-.082 1-.12 1.345zm-.9-.27a2.18 2.18 0 0 0 .812.173v-.04c.04-.34.117-1.042.12-1.318a3.255 3.255 0 0 0-.437-.41 2.522 2.522 0 0 1-.5.293 6.55 6.55 0 0 1 .007 1.302z"/><path d="M38.008 19.094a1.368 1.368 0 0 0 .065-.39 1.567 1.567 0 0 1 1.39-.063 8.577 8.577 0 0 1-.03 1.327 6.524 6.524 0 0 0-1.425-.873z" fill="#004b3d"/><path d="M39.467 20.055l-.065-.05a6.41 6.41 0 0 0-1.408-.865l-.055-.016.025-.052a1.38 1.38 0 0 0 .06-.367v-.026l.022-.016a1.694 1.694 0 0 1 .824-.208 1.293 1.293 0 0 1 .617.142l.023.012v.026a8.665 8.665 0 0 1-.033 1.34zm-1.4-.99a6.833 6.833 0 0 1 1.324.813 9.274 9.274 0 0 0 .025-1.206 1.207 1.207 0 0 0-.547-.12 1.62 1.62 0 0 0-.75.18 1.712 1.712 0 0 1-.048.332zM36.39 18.51c-.064 0-.1-.193-.226-.193-.033 0-.13.033-.162 0a.248.248 0 0 0 .065.162c.033.096.194.03.323.03zM36.39 19.11v-.1c.207 0 .314-.16.407-.3.07-.1.134-.2.232-.217l.015.1c-.057.01-.108.086-.167.175a.59.59 0 0 1-.488.342zM36.693 19.16a.222.222 0 0 1-.1-.022l.04-.088c.118.052.23-.075.38-.26.114-.144.224-.28.35-.262l-.013.1c-.073-.01-.17.11-.263.228-.112.144-.242.303-.394.303zM36.585 18.43a.4.4 0 0 1-.26-.11c-.09-.09-.13-.073-.19-.047a.248.248 0 0 1-.1.028v-.1a.164.164 0 0 0 .063-.02.226.226 0 0 1 .3.067.3.3 0 0 0 .193.084zM36.11 19.062a.214.214 0 0 1-.1-.022l.044-.086c.1.05.306-.068.423-.243l.08.055a.633.633 0 0 1-.446.297zM35.783 18.247l-.08-.054c.014-.02.027-.043.04-.065a.757.757 0 0 1 .2-.24l.055.08a.684.684 0 0 0-.17.21c-.016.022-.028.048-.045.07zM35.598 18.414h.097v.162h-.097z"/><path d="M46.454 22.62v6.31c0 5.47-2.59 7.345-6.05 8.834-3.464-1.49-6.084-3.364-6.084-8.833v-6.31z" fill="#fff"/><path d="M40.4 27.96a1.975 1.975 0 0 0 1.133-.647 1.286 1.286 0 0 1 1.876 0 1.03 1.03 0 0 0 1.584 0 1.807 1.807 0 0 1 1.457-.486V22.62H34.32v4.207a1.806 1.806 0 0 1 1.456.486 1.03 1.03 0 0 0 1.585 0 1.325 1.325 0 0 1 1.91 0 1.8 1.8 0 0 0 1.133.647z" fill="#ed2833"/><path d="M40.4 31.2a4.42 4.42 0 0 0 1.36-.518 1.537 1.537 0 0 1 1.65.16 1.89 1.89 0 0 0 1.81 0 1.474 1.474 0 0 1 1.165-.387 11.232 11.232 0 0 0 .066-1.52v-.39c-.452-.1-.68.033-1.164.454s-1.036.322-1.747.064c-.68-.29-1.36-.81-2.04 0a1.638 1.638 0 0 1-1.1.55 1.566 1.566 0 0 1-1.1-.55c-.712-.81-1.36-.29-2.04 0-.71.258-1.3.356-1.78-.065-.452-.422-.678-.55-1.163-.454v.39a11.39 11.39 0 0 0 .1 1.52 1.41 1.41 0 0 1 1.133.387 1.89 1.89 0 0 0 1.812 0c.453-.194.97-.582 1.682-.16a4.125 4.125 0 0 0 1.36.517zM40.4 32.587a3.45 3.45 0 0 0 1.585-.485 1.633 1.633 0 0 1 1.747.13 1.667 1.667 0 0 0 1.618 0c.194-.13.355-.39.777-.292a7.323 7.323 0 0 1-.84 2.1 2.192 2.192 0 0 1-1.684-.13 2.336 2.336 0 0 0-1.974-.226 2.142 2.142 0 0 1-2.46 0 2.337 2.337 0 0 0-1.974.226 2.19 2.19 0 0 1-1.682.13 7.324 7.324 0 0 1-.842-2.1c.42-.1.583.162.777.29a1.6 1.6 0 0 0 1.584 0 1.694 1.694 0 0 1 1.78-.128 3.454 3.454 0 0 0 1.586.485zM40.4 37.764a12.98 12.98 0 0 0 3.462-2.006c-.26-.1-.42-.033-.647-.194a1.64 1.64 0 0 0-1.49.1 2.656 2.656 0 0 1-2.652 0 1.64 1.64 0 0 0-1.49-.1c-.225.16-.387.1-.646.194a12.517 12.517 0 0 0 3.463 2.006z" fill="#005eac"/><path d="M39.56 24.206c.034.065-.03.227 0 .292.066.13.066.194.163.258h.227c.712 0 1.553-.29 2.264-.29.68 0 1.1.226 1.49.226a.4.4 0 0 0 .42-.324c0-.162-.26-.26-.81-.26-.776 0-1.2.195-1.844.195-.97 0-1.132-.355-1.132-.517s.16-.39.68-.39a.52.52 0 0 0 .355-.1.727.727 0 0 1 .324-.29c.227-.13.68 0 .906-.162 0 .13-.194.324-.356.39.323-.1.68-.1.745.16a.71.71 0 0 0-.518 0c-.13.033-.195.065-.324.1.13-.032.194.227.388.227a.844.844 0 0 1-.84.033 2.028 2.028 0 0 0-.52-.13c-.322 0-.516.065-.516.195 0 .162.194.26.776.26s.906-.163 1.78-.163c-.065-.1.032-.194-.1-.29a.944.944 0 0 1 .81.323c-.034-.227.16-.42.1-.615a.526.526 0 0 1 .387.388c0-.1.13-.1.13-.193a.5.5 0 0 1 .258.518c.1-.162.194-.1.26-.292a.6.6 0 0 1-.195.648.51.51 0 0 1 .68.1.613.613 0 0 0-.39.1 3 3 0 0 1-1.52.324c-.517-.032-.582-.13-.906-.13.2.033.583.42.938.42a1.887 1.887 0 0 0 .486-.03.583.583 0 0 1 .388.064.533.533 0 0 0 .42.16.283.283 0 0 1-.193.228c.163.1.065.162.227.29-.064 0-.13.066-.226.034.1.1.1.226.195.29-.032 0-.13.033-.194 0 .1.13 0 .292.1.357.1.13-.1.29-.258.162a.13.13 0 0 1-.16.16c-.1-.032-.164-.13-.13-.16 0-.034 0-.034.03-.066a.212.212 0 0 1-.258.065c-.032-.034-.064-.066-.064-.1a.21.21 0 0 1-.292-.228c.033-.1.227-.13.292-.1s.13.065.194 0a.18.18 0 0 0 .1-.162c0-.1-.1-.388-.518-.356a5.35 5.35 0 0 1-1.65-.226c-.033-.032-.065-.032-.1-.065 0 .13-.13.194-.13.324a.34.34 0 0 0 .26.356.187.187 0 0 1-.325.032c0 .1-.128.162-.128.29-.032-.064-.065-.1-.1-.16-.1.226-.356.355-.485.29a.27.27 0 0 1-.42-.032.24.24 0 0 1-.292 0c0 .1-.065.065-.1.194 0 .065-.13.1-.194.065a.156.156 0 0 1-.032-.226.2.2 0 0 1-.26 0c0-.065 0-.162.067-.2h.064c-.065-.032-.163 0-.228-.032a.154.154 0 0 1-.032-.194c.032-.032.13-.1.2-.032l.032.032c0-.065.032-.13.064-.13a.218.218 0 0 1 .26.065c.064.1.13.1.323.065a1.265 1.265 0 0 0 .613-.324c-.55-.1-.226-.453-.064-.582a.72.72 0 0 0-.454.032c-.68.356-1.39.777-1.844.647a.48.48 0 0 0 .063.2c-.1 0-.29 0-.355-.1a.427.427 0 0 0-.032.355 1.236 1.236 0 0 0-.356-.162c.064.065 0 .2.032.292-.1-.1-.26-.162-.323-.1a.31.31 0 0 1-.29.064.5.5 0 0 1-.26.2c0-.065 0-.162-.032-.2a.548.548 0 0 1-.26.292.56.56 0 0 0-.03-.227c0 .13-.26.194-.292.29a.81.81 0 0 0 .032-.257.49.49 0 0 1-.323.226.216.216 0 0 0 .032-.194c-.032.13-.227.194-.388.162 0 .064-.13.16-.292.064-.1-.032-.162-.13-.1-.194-.13 0-.26-.13-.2-.226 0-.033.033-.065.033-.1a.184.184 0 0 1-.032-.292c.033-.032.13-.032.2-.032 0-.26.226-.26.323-.065a.5.5 0 0 0 .422.226c.064 0 .1-.032.162-.032a2.8 2.8 0 0 0 .81-.42.637.637 0 0 0 .03-.227.818.818 0 0 0-.323.226v-.1c-.1 0-.258-.033-.322-.033.032-.032.064-.194.13-.226a1.035 1.035 0 0 1-.454-.033c.065-.063.065-.16.1-.257-.065.032-.226-.033-.356 0 .032-.1.065-.227.162-.26a.776.776 0 0 1-.453-.064c.13 0 .194-.163.29-.163-.258 0-.322-.13-.452-.194.1.033.162-.064.26-.064-.1-.034-.26-.2-.195-.293a.492.492 0 0 1-.13.13.293.293 0 0 1-.29-.1c-.065-.13-.033-.292.1-.324a.155.155 0 0 1-.1-.26c.032-.064.16-.16.226-.064.033.032.065.1.1.13a.836.836 0 0 1-.03-.292c.03-.1.1-.1.193-.13a.182.182 0 0 1 .16.194 1.207 1.207 0 0 0 .065.29c0-.03.032-.1.032-.128 0-.13.162-.1.26-.065s.13.226 0 .323a.16.16 0 0 0 .032.227 1.45 1.45 0 0 0 .937.68.52.52 0 0 1 .162-.357.6.6 0 0 1 .063-.226c.033-.194.13-.292.26-.227-.033-.032-.065-.065-.065-.1-.1-.1-.195-.26-.13-.388s.26-.1.323-.033c-.03-.195.2-.357.2-.454.033.1.1.227.065.324.033-.13.26-.29.42-.356-.063.1.13.26.1.356a.585.585 0 0 1 .518-.26.393.393 0 0 0-.064.26.415.415 0 0 0 .322-.13.5.5 0 0 1-.13.324.557.557 0 0 1 .26-.032c-.1.1-.065.194-.162.258.13-.064.29-.064.323.065.065.1-.032.26-.1.356-.065.034-.13.1-.162.1z" fill="#ffc94a"/><path d="M35.91 27.014a.307.307 0 0 1-.155-.045.226.226 0 0 1-.147-.15.135.135 0 0 1 0-.052.277.277 0 0 1-.166-.128.155.155 0 0 1 0-.152.19.19 0 0 1 .02-.054v-.01a.24.24 0 0 1-.083-.155.23.23 0 0 1 .07-.19.268.268 0 0 1 .183-.045c.016-.15.108-.2.187-.2a.268.268 0 0 1 .227.166.452.452 0 0 0 .367.2h.01a.2.2 0 0 0 .065-.012.26.26 0 0 1 .087-.02 2.765 2.765 0 0 0 .776-.4.56.56 0 0 0 .023-.118.64.64 0 0 0-.233.174l-.09.133v-.21c-.046 0-.1-.01-.148-.018s-.1-.014-.125-.014h-.118l.083-.083a.39.39 0 0 0 .028-.062c.01-.022.018-.045.03-.068a1.317 1.317 0 0 1-.36-.046l-.082-.02.062-.062a.3.3 0 0 0 .06-.146v-.02c-.027 0-.055 0-.085-.01a.6.6 0 0 0-.193 0l-.086.022.037-.112a.85.85 0 0 1 .062-.155 1.038 1.038 0 0 1-.334-.08l.018-.093a.222.222 0 0 0 .136-.077l.005-.005a.582.582 0 0 1-.227-.12.68.68 0 0 0-.095-.062l.037-.09a.137.137 0 0 0 .106-.025l.018-.007a.434.434 0 0 1-.12-.148.265.265 0 0 1-.062.044.173.173 0 0 1-.08.016.4.4 0 0 1-.267-.123l-.01-.013a.32.32 0 0 1-.013-.273.21.21 0 0 1 .046-.066.19.19 0 0 1-.07-.1.206.206 0 0 1 .04-.193.257.257 0 0 1 .194-.126.13.13 0 0 1 .09.036v-.124a.213.213 0 0 1 .18-.145l.045-.015h.016a.23.23 0 0 1 .21.242.446.446 0 0 0 .012.1.15.15 0 0 1 .146-.078.543.543 0 0 1 .165.032.185.185 0 0 1 .115.153.263.263 0 0 1-.1.252.07.07 0 0 0-.017.067.183.183 0 0 0 .05.088l.007.01a1.472 1.472 0 0 0 .853.65.576.576 0 0 1 .16-.322.664.664 0 0 1 .065-.22c.03-.163.1-.262.2-.28v-.008a.4.4 0 0 1-.127-.432.218.218 0 0 1 .2-.116.334.334 0 0 1 .114.02.613.613 0 0 1 .128-.255.318.318 0 0 0 .065-.113l.095-.015.02.057a1.253 1.253 0 0 1 .042.122 1.082 1.082 0 0 1 .36-.243l.144-.058-.087.13c-.017.027.018.088.048.14l.034.065a.733.733 0 0 1 .492-.184h.117l-.083.083a.27.27 0 0 0-.05.174.332.332 0 0 0 .233-.106l.09-.132v.16a.536.536 0 0 1-.064.246h.261l-.082.083a.293.293 0 0 0-.068.118l-.006.018a.206.206 0 0 1 .247.134c.07.118-.024.285-.1.4l-.008.01-.012.007a.575.575 0 0 0-.076.05.564.564 0 0 1-.05.033.486.486 0 0 1-.01.123.3.3 0 0 0 0 .117c.018.037.032.07.044.1a.267.267 0 0 0 .09.134h.21a6.4 6.4 0 0 0 1.124-.144 6.46 6.46 0 0 1 1.14-.146 3.822 3.822 0 0 1 .964.138 2.336 2.336 0 0 0 .526.088.35.35 0 0 0 .372-.275c0-.13-.285-.21-.76-.21a5.443 5.443 0 0 0-1 .1 4.7 4.7 0 0 1-.844.092c-1.124 0-1.18-.472-1.18-.566 0-.162.153-.437.727-.437a.508.508 0 0 0 .317-.08.79.79 0 0 1 .34-.3.98.98 0 0 1 .446-.072.864.864 0 0 0 .454-.085l.077-.055v.094a.453.453 0 0 1-.168.288 1.157 1.157 0 0 1 .128-.008c.233 0 .385.092.426.26l.03.112-.1-.06a.38.38 0 0 0-.2-.044.987.987 0 0 0-.283.048c-.067.017-.113.033-.162.05l-.03.01a.626.626 0 0 1 .05.05.28.28 0 0 0 .192.12h.134l-.1.085a.655.655 0 0 1-.427.137 1.262 1.262 0 0 1-.465-.1l-.04-.014a1.793 1.793 0 0 0-.46-.11c-.288 0-.468.055-.468.144 0 .142.238.21.728.21a4.154 4.154 0 0 0 .7-.068 6.412 6.412 0 0 1 1.014-.093.376.376 0 0 1 0-.075.125.125 0 0 0-.055-.13l-.116-.088h.145a1.16 1.16 0 0 1 .764.238 1.093 1.093 0 0 1 .054-.19.422.422 0 0 0 .04-.275l-.025-.076.08.013a.567.567 0 0 1 .39.32l.025-.02c.033-.024.045-.036.045-.058v-.08l.07.035a.543.543 0 0 1 .29.43.534.534 0 0 1 .05-.034.212.212 0 0 0 .11-.14l.037-.11.053.104a.687.687 0 0 1-.053.542.6.6 0 0 1 .1-.01.557.557 0 0 1 .427.2l.087.1-.13-.022a.418.418 0 0 0-.068-.006.435.435 0 0 0-.212.063.714.714 0 0 1-.08.038 3.032 3.032 0 0 1-1.388.333c-.054 0-.107 0-.157-.004a2.893 2.893 0 0 1-.548-.082l-.087-.03c.018.014.038.026.06.04a1.305 1.305 0 0 0 .61.257 1.853 1.853 0 0 0 .47-.03.63.63 0 0 1 .426.068l.012.01a.55.55 0 0 0 .332.154.144.144 0 0 0 .043-.006l.078-.02-.018.08a.35.35 0 0 1-.147.224.264.264 0 0 1 .066.11.257.257 0 0 0 .1.133l.11.087H45a.178.178 0 0 0-.057.016.6.6 0 0 1-.07.02c.015.026.026.05.038.075a.262.262 0 0 0 .085.124l.133.09h-.16a.145.145 0 0 0-.03 0 .736.736 0 0 1-.08.01.493.493 0 0 1 .013.138c0 .067 0 .1.028.113l.012.012a.162.162 0 0 1 .017.176.218.218 0 0 1-.266.1.18.18 0 0 1-.225.125.258.258 0 0 1-.165-.153.28.28 0 0 1-.2-.01l-.012-.01a.35.35 0 0 1-.063-.075.262.262 0 0 1-.265-.1.23.23 0 0 1-.04-.2c.035-.105.18-.143.27-.143a.217.217 0 0 1 .09.017.223.223 0 0 0 .09.033.065.065 0 0 0 .047-.023l.013-.01a.127.127 0 0 0 .07-.118c0-.07-.078-.337-.465-.308h-.166a5.655 5.655 0 0 1-1.5-.233h-.012l-.008-.008a.1.1 0 0 0-.027-.02.516.516 0 0 1-.06.11.246.246 0 0 0-.057.135.293.293 0 0 0 .227.31l.057.02-.03.05a.247.247 0 0 1-.217.137.226.226 0 0 1-.126-.04.52.52 0 0 1-.042.062.24.24 0 0 0-.062.14l-.092.02a.664.664 0 0 0-.045-.075l-.005-.008a.492.492 0 0 1-.48.246.394.394 0 0 1-.226.075.272.272 0 0 1-.22-.1.316.316 0 0 1-.243.014.21.21 0 0 1-.032.04.153.153 0 0 0-.047.083c-.004.075-.093.12-.18.12a.183.183 0 0 1-.083-.02.186.186 0 0 1-.09-.14.258.258 0 0 1 0-.038.217.217 0 0 1-.21-.057l-.014-.014v-.02a.418.418 0 0 1 .023-.164.23.23 0 0 1-.093-.02l-.013-.01a.2.2 0 0 1-.04-.25l.008-.013a.256.256 0 0 1 .162-.073.14.14 0 0 1 .067.016.124.124 0 0 1 .073-.078.243.243 0 0 1 .1-.02.3.3 0 0 1 .21.1l.006.007a.118.118 0 0 0 .116.063 1.1 1.1 0 0 0 .16-.02h.008a1.05 1.05 0 0 0 .506-.25c-.137-.04-.218-.104-.24-.2-.037-.14.086-.292.176-.38a.646.646 0 0 0-.324.045l-.21.11a3.792 3.792 0 0 1-1.472.566.83.83 0 0 1-.124-.01.736.736 0 0 0 .05.108l.034.07h-.08a.662.662 0 0 1-.338-.062.336.336 0 0 0-.006.252l-.077.056a.815.815 0 0 0-.244-.118.55.55 0 0 1 0 .08.317.317 0 0 0 0 .117l-.08.05a.358.358 0 0 0-.215-.11.054.054 0 0 0-.04.013.366.366 0 0 1-.305.086.56.56 0 0 1-.263.185l-.064.02v-.123a.606.606 0 0 1-.22.2l-.07.035v-.174a.862.862 0 0 1-.116.083c-.046.028-.1.064-.11.09l-.093-.03a.548.548 0 0 0 .022-.1.512.512 0 0 1-.257.13l-.1.02.043-.088.007-.014a.473.473 0 0 1-.285.057.212.212 0 0 1-.194.1zm-.23-.882a.45.45 0 0 0-.162.018.133.133 0 0 0-.043.11.146.146 0 0 0 .07.106l.02.014v.027a.165.165 0 0 1-.02.07.11.11 0 0 0-.012.027v.014l-.01.013a.055.055 0 0 0 0 .064.186.186 0 0 0 .154.088h.123l-.083.083a.033.033 0 0 0-.01.034.13.13 0 0 0 .088.078h.01a.218.218 0 0 0 .11.035.107.107 0 0 0 .107-.057V26.8l.058.012a.384.384 0 0 0 .076.007c.127 0 .237-.058.256-.134l.03-.127.06.116a.186.186 0 0 1 .01.138.463.463 0 0 0 .2-.175l.09-.135v.28l.026-.018c.066-.04.138-.088.138-.134l.092-.022a.42.42 0 0 1 .036.163.508.508 0 0 0 .166-.22l.025-.075.056.056a.24.24 0 0 1 .046.157.45.45 0 0 0 .17-.148l.02-.03.037.01a.274.274 0 0 0 .242-.053c.06-.062.187-.047.3.024v-.034c0-.05.008-.1-.012-.116l.05-.08a2.08 2.08 0 0 1 .264.1.562.562 0 0 1 .065-.27l.038-.076.045.07c.038.055.15.07.238.074a.372.372 0 0 1-.035-.145v-.064l.062.018a.642.642 0 0 0 .17.023 3.772 3.772 0 0 0 1.427-.554l.21-.113a.67.67 0 0 1 .292-.06.81.81 0 0 1 .2.024l.094.025-.076.06c-.124.1-.246.252-.22.35s.155.13.263.148l.1.017-.08.068a1.308 1.308 0 0 1-.64.334 1 1 0 0 1-.173.02.213.213 0 0 1-.194-.1.175.175 0 0 0-.2-.053l-.015.005a.14.14 0 0 0-.023.08v.118l-.115-.115c-.03-.03-.09 0-.12.027a.1.1 0 0 0 .02.124c.052.02.146-.008.22.03l-.02.09h-.052c-.026.023-.03.08-.03.125a.16.16 0 0 0 .184-.02l.06.076a.09.09 0 0 0-.02.08.1.1 0 0 0 .04.07.09.09 0 0 0 .04.007.1.1 0 0 0 .084-.03v-.01a.25.25 0 0 1 .073-.132.054.054 0 0 0 .02-.05v-.118l.084.083a.205.205 0 0 0 .23-.006l.046-.03.024.05a.172.172 0 0 0 .16.086.306.306 0 0 0 .188-.072l.023-.02.03.015a.12.12 0 0 0 .055.01.46.46 0 0 0 .362-.277l.042-.1.047.093a.588.588 0 0 0 .037.062.543.543 0 0 1 .05-.075.185.185 0 0 0 .048-.095v-.16l.09.133a.134.134 0 0 0 .205.016.385.385 0 0 1-.23-.376.33.33 0 0 1 .073-.19.246.246 0 0 0 .047-.13v-.12l.083.085a.16.16 0 0 0 .036.022.21.21 0 0 1 .05.033 5.613 5.613 0 0 0 1.464.226h.225a.454.454 0 0 1 .5.408.228.228 0 0 1-.117.2.164.164 0 0 1-.112.046.32.32 0 0 1-.132-.042.106.106 0 0 0-.047-.008c-.07 0-.16.032-.175.076a.13.13 0 0 0 .026.11.152.152 0 0 0 .133.066.29.29 0 0 0 .074-.01l.06-.02v.066c0 .01.028.038.045.056a.177.177 0 0 0 .063.01.165.165 0 0 0 .1-.03.2.2 0 0 1 .033-.038l.074.06a.225.225 0 0 1-.024.03v.03l-.007.006a.17.17 0 0 0 .1.088.08.08 0 0 0 .09-.03.078.078 0 0 0 .01-.07l-.05-.156.127.1a.133.133 0 0 0 .2-.02.065.065 0 0 0-.005-.07.216.216 0 0 1-.062-.188.272.272 0 0 0-.04-.173l.062-.073a.142.142 0 0 0 .072.01.82.82 0 0 1-.046-.09.42.42 0 0 0-.082-.133l.05-.08a.17.17 0 0 0 .124-.01.35.35 0 0 1-.062-.113.173.173 0 0 0-.093-.11l-.09-.056.1-.032a.218.218 0 0 0 .14-.126.663.663 0 0 1-.38-.176.547.547 0 0 0-.344-.06 1.876 1.876 0 0 1-.5.036 1.376 1.376 0 0 1-.662-.273 1.067 1.067 0 0 0-.282-.15l.007-.1a1.468 1.468 0 0 1 .377.05 2.87 2.87 0 0 0 .532.08h.15a2.9 2.9 0 0 0 1.343-.323h.01a.45.45 0 0 0 .073-.033.6.6 0 0 1 .2-.07.47.47 0 0 0-.5-.017l-.024.015-.05-.083.024-.017a.546.546 0 0 0 .176-.45.325.325 0 0 1-.086.067.292.292 0 0 0-.112.11l-.09-.034a.456.456 0 0 0-.182-.437.25.25 0 0 1-.063.062c-.032.024-.045.035-.045.058l-.1.01a.493.493 0 0 0-.28-.33.685.685 0 0 1-.056.256.6.6 0 0 0-.054.284l-.09.03a.836.836 0 0 0-.663-.3.26.26 0 0 1 .016.12.156.156 0 0 0 .016.093l.05.076h-.09a6.292 6.292 0 0 0-1.07.09 4.306 4.306 0 0 1-.71.07c-.578 0-.825-.09-.825-.307 0-.11.1-.243.567-.243a1.812 1.812 0 0 1 .49.118l.043.014a.907.907 0 0 0 .707.033.55.55 0 0 1-.144-.12c-.04-.046-.077-.087-.114-.078l-.024-.1c.063-.015.11-.03.158-.047s.1-.033.165-.05a1.1 1.1 0 0 1 .31-.052.608.608 0 0 1 .116.01.386.386 0 0 0-.276-.084 1.3 1.3 0 0 0-.352.058l-.03-.092a.675.675 0 0 0 .29-.247 1.4 1.4 0 0 1-.4.047.92.92 0 0 0-.4.06.665.665 0 0 0-.3.272l-.01.013a.576.576 0 0 1-.39.11c-.5 0-.632.215-.632.34 0 .05.03.47 1.084.47a4.644 4.644 0 0 0 .827-.09 5.607 5.607 0 0 1 1.018-.1c.57 0 .857.1.857.307a.447.447 0 0 1-.47.372 2.37 2.37 0 0 1-.548-.09 3.765 3.765 0 0 0-.94-.136 6.4 6.4 0 0 0-1.123.145 6.556 6.556 0 0 1-1.14.146h-.25a.353.353 0 0 1-.137-.186c-.01-.027-.024-.057-.04-.092a.3.3 0 0 1-.006-.174.35.35 0 0 0 .006-.117l-.036-.07h.078a.54.54 0 0 0 .05-.034.856.856 0 0 1 .078-.05c.094-.144.124-.242.09-.293l-.006-.015c-.01-.047-.05-.07-.11-.07a.33.33 0 0 0-.144.037l-.05-.084a.17.17 0 0 0 .065-.1.54.54 0 0 1 .03-.068.364.364 0 0 0-.13.017l-.07-.07a.437.437 0 0 0 .1-.17.6.6 0 0 1-.255.058h-.05v-.048a.62.62 0 0 1 .027-.2.493.493 0 0 0-.385.222l-.09-.033c.007-.026-.025-.08-.05-.125a.523.523 0 0 1-.06-.137.712.712 0 0 0-.314.28v.01l-.092-.026v-.015a.328.328 0 0 0-.027-.17l-.03.043a.4.4 0 0 0-.11.276l.025.15-.108-.108a.194.194 0 0 0-.127-.043.123.123 0 0 0-.118.062c-.05.1.025.237.12.333l.014.014v.02c0 .012.034.046.05.063l-.055.077a.14.14 0 0 0-.054-.014c-.063 0-.113.077-.134.206l-.005.013a.573.573 0 0 0-.06.2v.02l-.014.014a.465.465 0 0 0-.148.32v.055l-.053-.007a1.49 1.49 0 0 1-.972-.7.285.285 0 0 1-.074-.134.172.172 0 0 1 .046-.158h.006a.165.165 0 0 0 .063-.16.1.1 0 0 0-.05-.08.453.453 0 0 0-.133-.025c-.06 0-.06.025-.06.045a.27.27 0 0 1-.02.08.272.272 0 0 0-.013.05l-.1.01c-.01-.04-.02-.072-.03-.1a.637.637 0 0 1-.036-.2.14.14 0 0 0-.107-.144l-.04.013c-.065.02-.093.027-.11.077a.76.76 0 0 0 .026.26l-.078.057a.466.466 0 0 1-.054-.072.567.567 0 0 0-.042-.057l-.007-.008a.034.034 0 0 0-.032-.02.165.165 0 0 0-.11.08l-.01.013a.107.107 0 0 0-.02.1.11.11 0 0 0 .093.074v.095a.108.108 0 0 0-.076.064.222.222 0 0 0 .007.183.3.3 0 0 0 .192.09.073.073 0 0 0 .037-.008.248.248 0 0 0 .082-.08.39.39 0 0 1 .033-.04l.075.06a.056.056 0 0 0 0 .052.338.338 0 0 0 .17.166l-.015.1a.2.2 0 0 0-.092.032l-.032.015a.46.46 0 0 0 .32.115v.1c-.028 0-.06.03-.092.06a.617.617 0 0 1-.06.05.6.6 0 0 0 .3.02l.027.094c-.053.018-.083.085-.107.155a.876.876 0 0 1 .147.01.785.785 0 0 0 .086.008.078.078 0 0 0 .03-.005l.1-.052-.036.112a.71.71 0 0 0-.022.085.593.593 0 0 1-.04.128.94.94 0 0 0 .362.015l.032.09c-.024.013-.053.085-.068.124l-.007.018.062.008a1.526 1.526 0 0 0 .186.018h.048v.024a1.5 1.5 0 0 1 .254-.148l.07-.035v.078a.67.67 0 0 1-.035.24v.014l-.01.01a2.84 2.84 0 0 1-.825.43h-.015a.2.2 0 0 0-.066.012.256.256 0 0 1-.092.02.272.272 0 0 1-.05 0 .59.59 0 0 1-.416-.254.182.182 0 0 0-.143-.116c-.058 0-.093.06-.093.154v.05zM37.28 25.06l-.095-.024a.656.656 0 0 1 .35-.486l.04.09a.557.557 0 0 0-.296.42zM37.087 25.542c-.07-.39.09-.57.41-.762l.05.083c-.3.18-.427.32-.364.66zM37.7 25.838l-.03-.092a.7.7 0 0 0 .457-.4l.086.048a.782.782 0 0 1-.513.444zM38 26l-.06-.076a.33.33 0 0 0 .048-.21.574.574 0 0 1 .04-.23l.087.043a.543.543 0 0 0-.03.19c0 .036 0 .072-.007.106a.5.5 0 0 0 .172-.324l.1.012A.658.658 0 0 1 38 26zM38.16 25.9l-.044-.087a1.02 1.02 0 0 0 .4-.46l.09.034a.5.5 0 0 0-.015.127v.04a.556.556 0 0 0 .12-.257l.1.01a.117.117 0 0 0 .008.032.246.246 0 0 0 .057-.163h.1a.382.382 0 0 1-.142.293l-.084.083V25.5a1.154 1.154 0 0 1-.21.26l-.073-.062a.24.24 0 0 0 .03-.1 1 1 0 0 1-.338.302zM38.866 25.533v-.26h.1v.044a.454.454 0 0 0 .066-.27h.1a.487.487 0 0 1-.182.428zM39.07 25.282l-.053-.08c.173-.116.2-.285.2-.575h.1c0 .31-.04.517-.246.655zM39.3 24.99l-.058-.078c.115-.087.143-.135.143-.414h.1c-.005.292-.037.38-.185.49zM38.654 24.2a.264.264 0 0 1-.08-.014l-.01-.006c-.106-.07-.118-.084-.118-.2a.247.247 0 0 1 .094-.18c.04-.04.066-.07.066-.112v-.01l.006-.01.023-.05a.344.344 0 0 1-.187-.03.282.282 0 0 1-.164-.215l.095-.016a.19.19 0 0 0 .11.144.255.255 0 0 0 .215 0 .07.07 0 0 1 .048-.018h.175l-.15.09-.014.008a.54.54 0 0 0-.04.08l-.024.04a.25.25 0 0 1-.094.167c-.042.042-.067.07-.067.112 0 .068 0 .07.07.116a.093.093 0 0 0 .07 0 .147.147 0 0 0 .053-.092.4.4 0 0 1 .062-.172.244.244 0 0 0 .035-.08.167.167 0 0 1 .178-.18v.1c-.072 0-.08.047-.08.08a.294.294 0 0 1-.048.13.313.313 0 0 0-.05.13v.012a.232.232 0 0 1-.1.16.166.166 0 0 1-.076.016zM39.274 23.776a.225.225 0 0 1-.087-.024.128.128 0 0 0-.1-.017h-.015c-.007 0-.018 0-.03.005-.053.01-.125.022-.166-.02l.07-.068a.263.263 0 0 0 .078-.008.38.38 0 0 1 .04-.005.216.216 0 0 1 .16.02c.026.013.044.02.053.015l.043.087a.1.1 0 0 1-.046.014zM39.06 23.99a.386.386 0 0 1-.245-.073l.068-.07a.3.3 0 0 0 .145.046.183.183 0 0 1-.013-.024.173.173 0 0 1 .064-.22l.057.077a.08.08 0 0 0-.034.1.076.076 0 0 0 .09.04l.03.093a.45.45 0 0 1-.164.03zM38.484 23.88a.2.2 0 0 1-.066-.01.156.156 0 0 1-.1-.1.17.17 0 0 1 .026-.16.266.266 0 0 1 .214-.1v.1a.166.166 0 0 0-.135.06.074.074 0 0 0-.013.07.064.064 0 0 0 .038.04.19.19 0 0 0 .148-.03l.054.08a.3.3 0 0 1-.166.05zM38.366 25.21l-.07-.067a.212.212 0 0 0 .052-.1V25h.052a.2.2 0 0 0 .127-.05l.014-.015h.02a.235.235 0 0 0 .214-.16l.01-.034h.036a.42.42 0 0 0 .056-.122.67.67 0 0 1 .03-.076l.03-.06.044.043a.172.172 0 0 0 .05-.1l.016-.06.054.03a.084.084 0 0 0 .066 0 .11.11 0 0 0 .06-.07l.093.03a.205.205 0 0 1-.117.128.17.17 0 0 1-.09.013.188.188 0 0 1-.11.127.127.127 0 0 1-.026 0l-.01.026c-.025.073-.055.155-.11.18a.33.33 0 0 1-.276.2.31.31 0 0 1-.14.062.33.33 0 0 1-.074.12zM37.8 24.886h-.1a.646.646 0 0 0-.014-.07.53.53 0 0 1-.018-.092v-.012l.006-.01a.238.238 0 0 0 .032-.183l-.022-.044.044-.022a.134.134 0 0 0 .043-.085.2.2 0 0 0 0-.11l-.02-.043.042-.022a.25.25 0 0 0 .1-.09h.1c0 .053-.063.115-.12.152a.364.364 0 0 1-.006.13.277.277 0 0 1-.06.123.352.352 0 0 1-.04.22c0 .014.01.042.014.06a.45.45 0 0 1 .02.096zM38.16 23.9a.2.2 0 0 1-.133-.11.44.44 0 0 1 0-.343l.09.036a.346.346 0 0 0-.005.264.107.107 0 0 0 .07.06zM38.418 24.894a.956.956 0 0 1-.194-.025.292.292 0 0 1-.208-.154.343.343 0 0 1 .012-.27 1.308 1.308 0 0 0 .03-.223c.01-.086.017-.175.032-.253l.095.02c-.014.072-.022.158-.03.242a1.273 1.273 0 0 1-.036.25v.005a.235.235 0 0 0-.012.188.194.194 0 0 0 .14.1c.27.06.4.038.56-.42l.09.03c-.133.39-.272.51-.48.51zM39.238 25.776v-.1c.034 0 .05-.042.05-.05h.1a.153.153 0 0 1-.15.15zM39.5 25.794l-.07-.07a.33.33 0 0 0 .084-.158h.1a.416.416 0 0 1-.114.228zM39.745 25.738l-.044-.087c.04-.018.04-.1.04-.15h.1c-.004.072-.004.192-.095.238zM37.74 23.845a.2.2 0 0 1 .03-.242.15.15 0 0 1 .056-.036.09.09 0 0 0-.02-.026h.008v-.1c.063 0 .1.073.14.157l.082.163-.152-.1a.032.032 0 0 0-.045.007.1.1 0 0 0-.018.12zM37.622 24.176l-.07-.07a.52.52 0 0 1 .073-.053.38.38 0 0 0 .057-.043l.07.07a.466.466 0 0 1-.073.053.442.442 0 0 0-.058.043zM37.523 24.416v-.1a.112.112 0 0 0 .027-.012.165.165 0 0 1 .07-.02v.1a.127.127 0 0 0-.027.01.152.152 0 0 1-.07.022zM36.115 23.753h-.1c0-.048.008-.06.047-.1l.07.07a.09.09 0 0 0-.02.02zM35.776 23.705a.11.11 0 0 1-.1-.047l.07-.07a.165.165 0 0 0 .02.02h.01zM35.808 24.06h.065v.098h-.065zM35.644 23.95a.317.317 0 0 0-.16-.084v-.1a.4.4 0 0 1 .23.11zM37.15 25.7l-.1-.014a.923.923 0 0 1 .373-.612l.063.073a.83.83 0 0 0-.336.553zM37.452 25.606l-.053-.08a.724.724 0 0 0 .242-.274l.086.044a.81.81 0 0 1-.276.31zM36.184 26.325a.752.752 0 0 1-.435-.137l-.01-.006a.133.133 0 0 0-.035-.024.19.19 0 0 1-.06-.04l.068-.07a.1.1 0 0 0 .036.024.225.225 0 0 1 .056.038.7.7 0 0 0 .605.088l.025.094a1.05 1.05 0 0 1-.25.033zM37.286 26.158l-.044-.086c.038-.02.073-.163.094-.248l.01-.044.094.024-.01.043c-.012.047-.023.095-.036.138a.686.686 0 0 0 .34-.49l.1.01a.86.86 0 0 1-.548.653zM35.693 26.453a.51.51 0 0 1-.057 0 .24.24 0 0 0-.1 0l-.036-.093a.346.346 0 0 1 .145-.008c.053.006.077.006.095-.012l.07.07a.158.158 0 0 1-.117.043zM41.354 25.518l-.047-.048a.473.473 0 0 0-.107-.054c-.026-.01-.053-.023-.075-.034l.044-.086.068.03c.032.015.064.028.09.043a.687.687 0 0 1 .256-.175l.03.093a.5.5 0 0 0-.23.17zM38.8 26.03a.353.353 0 0 1 .26-.414l.03.092a.256.256 0 0 0-.2.3zM37.63 26.59l-.086-.043a.465.465 0 0 0 .028-.1.53.53 0 0 1 .037-.125l.086.043a.416.416 0 0 0-.028.1.517.517 0 0 1-.037.125zM36.115 26.86h-.1a.293.293 0 0 1 .066-.156.7.7 0 0 0 .038-.06l.086.043a.506.506 0 0 1-.043.07.238.238 0 0 0-.045.103zM35.722 26.747h-.012a.02.02 0 0 0 .017-.015h-.1a.08.08 0 0 1 .067-.08.43.43 0 0 0 .165-.136l.085.044a.51.51 0 0 1-.216.183zM40.03 26.34a.167.167 0 0 1-.115-.06l.07-.07c.032.033.04.04.072.024l.044.086a.154.154 0 0 1-.07.02zM39.982 26.52v-.1a.064.064 0 0 0 .03-.017l.07.07a.16.16 0 0 1-.1.047zM40.11 26.714v-.1c.014 0 .046-.032.064-.05l.07.07a.2.2 0 0 1-.133.08zM41.17 26.71l-.045-.088c.047-.023.074-.075.1-.2l.094.024c-.03.135-.065.22-.15.263zM40.742 26.68l-.032-.093a.643.643 0 0 0 .24-.182l.07.068a.71.71 0 0 1-.278.206zM41.68 26.374h-.1a.453.453 0 0 1 .04-.216l.086.044a.37.37 0 0 0-.025.172zM43.992 26.7a.187.187 0 0 1-.058-.153.21.21 0 0 1 .1-.15.69.69 0 0 0 .082-.047.777.777 0 0 1 .084-.05l.044.087a.68.68 0 0 0-.077.046.626.626 0 0 1-.086.052.112.112 0 0 0-.05.074.1.1 0 0 0 .032.073zM42.034 25.577a1.505 1.505 0 0 1-.46-.31.47.47 0 0 0-.423-.17l-.007-.1a.565.565 0 0 1 .5.2 1.426 1.426 0 0 0 .432.29zM44.4 26.7h-.1a.288.288 0 0 1 .006-.05.26.26 0 0 0 .006-.08l.07-.066c.042.04.03.112.02.165a.24.24 0 0 0-.002.03zM44.657 26.763h-.1a.6.6 0 0 1 .035-.243l.093.03a.49.49 0 0 0-.028.213zM41.89 23.446h.26v.097h-.26zM39.788 24.837c-.28 0-.4-.14-.4-.242h.1c0 .034.066.13.26.144l.017-.018a.068.068 0 0 0 .03.018zM38.723 24.453a.242.242 0 0 1-.047 0h-.01a.28.28 0 0 1-.164-.19.264.264 0 0 1-.127.038.4.4 0 0 1-.272-.115l-.01-.013c-.013-.026-.053-.11.063-.457l.092.03a.75.75 0 0 0-.07.378.28.28 0 0 0 .193.08.208.208 0 0 0 .15-.083l.084.046c-.027.082.006.15.1.2a.193.193 0 0 0 .15-.06.364.364 0 0 0 .11-.164l.02-.083.062.06a.135.135 0 0 0 .134.04.267.267 0 0 0 .173-.184l.01-.033h.037a.58.58 0 0 0 .21-.03l.044.087a.294.294 0 0 0-.128.16.024.024 0 0 0 .006.024l.065.07a.094.094 0 0 1-.134 0 .123.123 0 0 1-.034-.1.25.25 0 0 1 .046-.114h-.042a.35.35 0 0 1-.23.214.228.228 0 0 1-.17-.023.474.474 0 0 1-.115.15.306.306 0 0 1-.197.073zM41.632 25.436c-.1.064-.194 0-.29.1-.066.065.03.1.1.1-.034.1-.034.13.128.13-.064.1.13.13.1.258a.305.305 0 0 0 .065-.323c-.033-.1-.194-.16-.1-.258z"/><path d="M38.687 24.4a.2.2 0 0 1-.13-.26.178.178 0 0 1-.16.1c-.13.292-.292.55-.485.55-.227.033-.2.26-.033.26.354.062.52-.067.807-.65zM35.484 23.624a.134.134 0 0 0-.032-.227.358.358 0 0 0-.388.162c.1-.033.194-.033.226.032s.1.13.194.032zM35.647 23.04c.226 0 .29.034.322.13a.123.123 0 0 1-.1.163c-.1 0-.195-.065-.164-.1a.13.13 0 0 0-.06-.192zM36.293 23.56c.162.032.227-.066.13-.195-.033-.1-.13-.162-.292-.13.163.098 0 .26.163.324zM35.1 24.11a.264.264 0 0 0 .324.13.145.145 0 0 0 .1-.195c-.065-.1-.162-.13-.194 0a.147.147 0 0 1-.23.064zM35.58 26.083c-.063-.13-.257-.13-.42 0a.2.2 0 0 1 .228.064.127.127 0 0 0 .13.066c.03-.033.096-.066.063-.13zM35.84 25.89c0-.163-.226-.195-.356-.13.065 0 .163.064.163.13a.17.17 0 0 0 .13.1c.063-.036.096-.07.063-.1zM35.517 26.47c-.194-.03-.292.2-.292.357a.185.185 0 0 1 .227-.13c.1 0 .13-.03.13-.1.032-.064 0-.1-.065-.13zM35.55 27.02c.064.034.13-.03.16-.128 0-.065.13-.065.163-.032.064.032.064.16-.033.226-.064.032-.226.065-.29-.065zM40.047 26.05a.344.344 0 0 0-.356 0 .157.157 0 0 1 .195.1.07.07 0 0 0 .13.034c.032-.037.064-.1.032-.133zM39.755 26.277c-.13-.064-.29.1-.323.227a.476.476 0 0 1 .227-.1c.063.032.128 0 .128-.065.032-.03.032-.063-.033-.063zM39.918 26.536a.278.278 0 0 0-.227.26.118.118 0 0 1 .162-.066c.066 0 .162-.032.162-.1a.085.085 0 0 0-.1-.1zM40.21 26.8a.11.11 0 0 0-.163.1c0 .1 0 .194-.033.226a.686.686 0 0 1 .2-.13.147.147 0 0 0 0-.193zM43.865 26.5a.122.122 0 0 0-.2.032.45.45 0 0 0 0 .356c0-.065.065-.162.13-.162a.143.143 0 0 0 .065-.226zM44.06 26.633c-.13.065-.13.29-.033.42a.23.23 0 0 1 .1-.193c.1 0 .13-.13.1-.194a.164.164 0 0 0-.162-.033zM44.448 26.763c-.066-.033-.13.032-.13.1a.28.28 0 0 0 .13.29.248.248 0 0 1 .064-.16c.097-.07.065-.193-.064-.23zM44.738 26.73a.118.118 0 0 0-.064.194c.032.065.1.1.226.065-.032 0-.1-.1-.065-.13.033-.06 0-.13-.097-.13z" fill="#003467"/><path d="M35.743 32.78l1.618-4.98 1.62 4.983-4.24-3.076h5.242z" fill="#ffc94a"/><path d="M36.067 32.328l3.365-2.46H35.29l3.333 2.46-1.262-3.947z" fill="#004e21"/><path d="M41.826 32.78l1.618-4.98 1.618 4.983-4.24-3.074h5.244z" fill="#ffc94a"/><path d="M42.15 32.328l3.366-2.46h-4.143l3.333 2.46-1.262-3.947z" fill="#004e21"/><path d="M38.784 36.308l1.616-4.983 1.618 4.983-4.24-3.074h5.243z" fill="#ffc94a"/><path d="M39.11 35.855l3.364-2.455h-4.142l3.332 2.46-1.264-3.953z" fill="#004e21"/><path d="M40.4 37.817l-.02-.01a11.06 11.06 0 0 1-4.358-2.937 9.08 9.08 0 0 1-1.754-5.94v-6.358H46.5v6.36a9.123 9.123 0 0 1-1.738 5.938 10.93 10.93 0 0 1-4.342 2.938zM34.368 22.67v6.26c0 5.7 2.978 7.465 6.035 8.78 3.04-1.308 6-3.07 6-8.78v-6.26z"/></g></svg>