<svg xmlns="http://www.w3.org/2000/svg" viewBox="0 0 55 55"><defs><clipPath id="a"><path d="M-19.2 27.5a23.3 23.3 0 0 1-23.3 23.3 23.3 23.3 0 0 1-23.3-23.3A23.3 23.3 0 0 1-42.5 4.2a23.3 23.3 0 0 1 23.3 23.3z" fill="none"/></clipPath></defs><path d="M-88.316 27.15V3.5h94.6v47.3h-94.6z" fill="#25388f" clip-path="url(#a)"/><path d="M50.8 27.5a23.287 23.287 0 0 1-37.7 18.305c-.152-.115-.3-.235-.445-.36-.073-.058-.146-.12-.214-.178l-.22-.19c-.046-.04-.1-.082-.146-.13-.15-.13-.3-.266-.45-.407s-.308-.288-.46-.44c-.183-.178-.36-.36-.538-.544-.12-.125-.24-.256-.356-.387-.093-.1-.183-.2-.272-.3l-.214-.247c-.147-.172-.293-.345-.43-.523-.27-.33-.527-.664-.768-1.01a23.225 23.225 0 0 1 0-27.17c.246-.345.5-.685.77-1.014.14-.173.28-.345.428-.518.068-.084.14-.162.214-.246l.272-.3c.12-.13.24-.262.36-.387.174-.188.357-.366.534-.544.152-.15.31-.3.466-.444s.293-.272.444-.4c.048-.047.1-.09.147-.13.07-.064.142-.122.216-.18a2.34 2.34 0 0 1 .214-.187c.146-.122.3-.242.445-.357A23.282 23.282 0 0 1 50.8 27.5z" fill="#03aec9"/><path d="M12.254 31.5c-.178-.37-.355-.743-.538-1.12-.136-.276-.267-.56-.4-.836-.036-.084-.073-.162-.115-.24 0 0 0-.01-.004-.01a1.12 1.12 0 0 1-.042-.88.738.738 0 0 1 .858-.444.814.814 0 0 1 .5.376.71.71 0 0 1 0 .81.48.48 0 0 1-.382.215.46.46 0 0 1-.4-.114.49.49 0 0 1-.083-.188.258.258 0 0 1 .015-.167.3.3 0 0 1 .346-.125c.1.068.115.235.146.31 0 0 .03-.06.037-.07a.465.465 0 0 0 .02-.088.617.617 0 0 0 .007-.105c0-.03-.006-.042.026-.047.016 0 .21-.047.21-.052s-.048-.1-.236-.152a.618.618 0 0 0-.032-.187.323.323 0 0 0-.047-.084c0-.01-.057-.053-.057-.064a.67.67 0 0 1-.005.11c-.026.094-.11.1-.193.09a.448.448 0 0 0-.4.177.72.72 0 0 0-.14.513.65.65 0 0 0 .22.434 1.07 1.07 0 0 0 .522.172c.032 0 .246.042.183.105a.582.582 0 0 0-.13.22.315.315 0 0 1 .015.387c-.13.24.078.078.34 0-.12 1.26.758 1.213.758 1.213a2.538 2.538 0 0 1-.235-2.024 1.784 1.784 0 0 0-.215-1.867.5.5 0 0 0 .33-.272.485.485 0 0 0-.33-.267 1.8 1.8 0 0 0 .215-1.872 2.544 2.544 0 0 1 .235-2.024s-.88-.046-.758 1.214c-.262-.068-.47-.23-.34 0a.325.325 0 0 1-.016.393.582.582 0 0 0 .13.214c.064.07-.15.1-.182.106a1.066 1.066 0 0 0-.523.178.625.625 0 0 0-.22.434.71.71 0 0 0 .142.507.435.435 0 0 0 .4.178c.084-.01.167 0 .193.09a.67.67 0 0 1 .006.11c0-.007.053-.05.058-.06a.348.348 0 0 0 .047-.088.56.56 0 0 0 .032-.183.375.375 0 0 0 .235-.152 1.77 1.77 0 0 0-.21-.052c-.03-.01-.025-.02-.025-.052a.56.56 0 0 0-.006-.1.54.54 0 0 0-.02-.094.667.667 0 0 1-.036-.062c-.03.073-.047.235-.146.3a.284.284 0 0 1-.346-.126.258.258 0 0 1-.015-.167.378.378 0 0 1 .48-.3.473.473 0 0 1 .383.22.7.7 0 0 1 0 .805.814.814 0 0 1-.5.376.735.735 0 0 1-.858-.44 1.12 1.12 0 0 1 .042-.878c.005 0 .005 0 .005-.01l.114-.24c.136-.283.267-.56.4-.843.183-.37.36-.748.538-1.114.262-.538.53-1.077.785-1.616a3.05 3.05 0 0 0 .487-1.59 1.4 1.4 0 0 0-.11-.4 1.148 1.148 0 0 0-1.115-.627 1.632 1.632 0 0 0-1.56.8 1.64 1.64 0 0 0-1.557-.8 1.158 1.158 0 0 0-1.12.627 1.387 1.387 0 0 0-.1.4 3.044 3.044 0 0 0 .482 1.59c.26.54.528 1.078.784 1.616.177.366.36.743.538 1.114.136.283.272.56.4.842.04.078.078.156.115.24.005 0 .005 0 .005.01a1.075 1.075 0 0 1 .042.88.73.73 0 0 1-.858.438.808.808 0 0 1-.5-.376.7.7 0 0 1 0-.806.486.486 0 0 1 .387-.22.46.46 0 0 1 .4.12.484.484 0 0 1 .083.184.264.264 0 0 1-.016.167c-.047.105-.25.194-.345.126s-.12-.23-.152-.3c0 0-.03.057-.036.062a.46.46 0 0 0-.02.094c0 .03-.006.067-.006.1s.005.04-.02.05a1.77 1.77 0 0 0-.21.053s.04.1.23.152a.687.687 0 0 0 .03.183.646.646 0 0 0 .05.09.506.506 0 0 1 .056.057.407.407 0 0 1 .01-.11c.02-.094.11-.1.194-.09a.443.443 0 0 0 .4-.177.717.717 0 0 0 .142-.507.65.65 0 0 0-.22-.433 1.105 1.105 0 0 0-.528-.178c-.026 0-.24-.038-.178-.106a.582.582 0 0 0 .13-.214.33.33 0 0 1-.02-.393c.136-.235-.074-.073-.335 0 .114-1.26-.76-1.213-.76-1.213a2.554 2.554 0 0 1 .23 2.024 1.8 1.8 0 0 0 .22 1.872.5.5 0 0 0-.334.267.512.512 0 0 0 .334.272 1.782 1.782 0 0 0-.22 1.866 2.548 2.548 0 0 1-.23 2.024s.874.047.76-1.213c.26.073.47.235.334 0a.32.32 0 0 1 .02-.387.582.582 0 0 0-.13-.22c-.063-.063.152-.1.178-.105a1.11 1.11 0 0 0 .528-.172.676.676 0 0 0 .22-.434.724.724 0 0 0-.142-.514.458.458 0 0 0-.4-.178c-.084.01-.173 0-.194-.09a.407.407 0 0 1-.01-.11c0 .012-.047.054-.057.064a.6.6 0 0 0-.048.084.77.77 0 0 0-.032.188c-.19.052-.23.147-.23.152s.193.047.21.052.02.016.02.047.005.068.005.105a.4.4 0 0 0 .02.09l.037.067c.032-.074.053-.24.152-.31s.3.027.345.127a.264.264 0 0 1 .016.167.506.506 0 0 1-.084.19.457.457 0 0 1-.4.114.494.494 0 0 1-.388-.214.707.707 0 0 1 0-.81.808.808 0 0 1 .5-.377.734.734 0 0 1 .858.444 1.076 1.076 0 0 1-.042.88.015.015 0 0 1-.005.01l-.115.24c-.13.277-.267.56-.4.837-.178.376-.36.748-.54 1.12-.255.538-.522 1.07-.783 1.61A3.044 3.044 0 0 0 7.96 34.7a1.31 1.31 0 0 0 .1.4 1.16 1.16 0 0 0 1.12.632 1.64 1.64 0 0 0 1.558-.81 1.63 1.63 0 0 0 1.558.81 1.152 1.152 0 0 0 1.114-.632 1.318 1.318 0 0 0 .11-.4 3.05 3.05 0 0 0-.486-1.59c-.25-.537-.518-1.07-.78-1.61zm-3.017-9.12c-.183-.382-.4-.753-.57-1.15a1.245 1.245 0 0 1-.067-1.125.775.775 0 0 1 .675-.356.913.913 0 0 1 .47.104.618.618 0 0 1 .3.366.442.442 0 0 1-.082.43.336.336 0 0 1-.42.056.384.384 0 0 1-.135-.21 1.244 1.244 0 0 1-.026-.245.313.313 0 0 0-.24.226 1.072 1.072 0 0 1-.042.183c-.027.067-.073.078-.136.088a.275.275 0 0 0-.146.073.715.715 0 0 0-.085.095c.068.142.242.157.377.173a.568.568 0 0 0 .078.308.486.486 0 0 0 .105.126c0 .005.12.073.12.058-.01-.168.016-.377.2-.45.058-.026.14.01.21.005.2-.016.38-.13.585-.13 0 .444-.02 1.223-.02 1.223-.084.335-.383.272-.754.215a1.025 1.025 0 0 0 .832.627.893.893 0 0 0 .277 1.255.894.894 0 0 0 .277-1.255 1.042 1.042 0 0 0 .832-.627c-.377.057-.675.12-.754-.215 0 0-.02-.78-.02-1.224.2 0 .38.115.585.13.063 0 .147-.03.21-.004.177.073.2.282.193.45 0 .015.115-.053.126-.058a.53.53 0 0 0 .177-.434c.14-.016.308-.03.38-.173a.765.765 0 0 0-.088-.094.246.246 0 0 0-.146-.072.15.15 0 0 1-.136-.09c-.026-.056-.02-.124-.042-.182a.305.305 0 0 0-.235-.225 1.325 1.325 0 0 1-.032.247.384.384 0 0 1-.135.21.328.328 0 0 1-.413-.058.44.44 0 0 1-.088-.43.63.63 0 0 1 .3-.366.91.91 0 0 1 .47-.105.776.776 0 0 1 .68.355 1.255 1.255 0 0 1-.073 1.124c-.166.4-.38.768-.57 1.15-.48 1-.94 2.008-1.406 3.023a.6.6 0 0 0-.094.2.6.6 0 0 0-.1-.2c-.457-1.015-.922-2.02-1.403-3.023zm.82 5.12c.35-.058.686-.55.686-.55s.335.492.68.55c-.345.063-.68.554-.68.554s-.335-.49-.685-.554zm2.83 7.4a.792.792 0 0 1-.68.36.92.92 0 0 1-.47-.1.665.665 0 0 1-.3-.366.434.434 0 0 1 .088-.428.328.328 0 0 1 .413-.063.4.4 0 0 1 .136.21 1.38 1.38 0 0 1 .032.25.32.32 0 0 0 .235-.225c.022-.063.017-.125.043-.188s.078-.073.136-.084a.223.223 0 0 0 .145-.078.68.68 0 0 0 .09-.09c-.074-.146-.24-.16-.383-.177a.615.615 0 0 0-.072-.32.607.607 0 0 0-.1-.126c-.01 0-.126-.068-.126-.052a.423.423 0 0 1-.193.45c-.062.026-.146-.01-.21-.006-.2.01-.385.126-.584.126 0-.445.02-1.224.02-1.224.08-.335.377-.267.754-.21a1.023 1.023 0 0 0-.832-.627.9.9 0 0 0-.277-1.26.9.9 0 0 0-.276 1.26 1.006 1.006 0 0 0-.832.63c.37-.06.67-.127.754.208 0 0 .02.78.02 1.224-.2 0-.386-.115-.586-.126-.068 0-.15.032-.21.005a.418.418 0 0 1-.2-.448c0-.016-.114.052-.12.052a.486.486 0 0 0-.104.126.58.58 0 0 0-.078.308c-.135.016-.31.03-.377.178a.635.635 0 0 0 .086.09.245.245 0 0 0 .146.077c.063.01.11.016.136.084a1.15 1.15 0 0 1 .04.188.33.33 0 0 0 .242.225 1.3 1.3 0 0 1 .026-.25.4.4 0 0 1 .136-.21.336.336 0 0 1 .42.063.437.437 0 0 1 .082.428.653.653 0 0 1-.3.368.922.922 0 0 1-.47.1.79.79 0 0 1-.684-.348 1.246 1.246 0 0 1 .068-1.124c.173-.392.388-.764.57-1.15.482-1 .947-2.01 1.407-3.02a.67.67 0 0 0 .1-.208.674.674 0 0 0 .094.21c.464 1.01.925 2.013 1.406 3.017.188.387.4.76.57 1.15a1.256 1.256 0 0 1 .07 1.125zM13.04 16.642c-.257-.538-.524-1.072-.786-1.61-.178-.372-.355-.748-.538-1.115-.136-.282-.267-.564-.4-.847-.036-.078-.073-.157-.115-.235 0-.005 0-.005-.004-.01a1.13 1.13 0 0 1-.042-.884.74.74 0 0 1 .858-.44.815.815 0 0 1 .5.378.707.707 0 0 1 0 .81.484.484 0 0 1-.382.215.467.467 0 0 1-.4-.12.45.45 0 0 1-.083-.183.26.26 0 0 1 .015-.168.3.3 0 0 1 .346-.125c.1.073.115.235.146.308l.037-.068a.448.448 0 0 0 .02-.09.605.605 0 0 0 .007-.1c0-.03-.006-.04.026-.046a1.722 1.722 0 0 0 .21-.057.36.36 0 0 0-.236-.146.6.6 0 0 0-.032-.19.254.254 0 0 0-.047-.082c0-.01-.057-.053-.057-.063a.676.676 0 0 1-.005.11c-.026.094-.11.1-.193.09a.447.447 0 0 0-.4.176.72.72 0 0 0-.14.513.64.64 0 0 0 .22.435 1.08 1.08 0 0 0 .522.173c.032.005.246.042.183.1a.582.582 0 0 0-.13.22.315.315 0 0 1 .015.387c-.13.24.078.078.34.005-.12 1.26.758 1.214.758 1.214a2.54 2.54 0 0 1-.235-2.024 1.8 1.8 0 0 0-.215-1.87.485.485 0 0 0 .33-.267h-1.7c-.345.058-.68.555-.68.555s-.04-.058-.11-.136c-.12.125-.24.256-.36.387a.66.66 0 0 1 .057.104 1.084 1.084 0 0 1-.042.883c0 .006 0 .006-.005.01-.037.08-.074.158-.115.236-.13.283-.267.565-.4.847l-.54 1.114c-.255.54-.522 1.073-.783 1.61a3.06 3.06 0 0 0-.482 1.59 1.3 1.3 0 0 0 .1.4 1.16 1.16 0 0 0 1.12.634 1.64 1.64 0 0 0 1.558-.81 1.63 1.63 0 0 0 1.558.81 1.15 1.15 0 0 0 1.114-.633 1.31 1.31 0 0 0 .11-.4 3.066 3.066 0 0 0-.49-1.593zm-.153 1.79a.8.8 0 0 1-.68.355.973.973 0 0 1-.47-.105.663.663 0 0 1-.3-.366.436.436 0 0 1 .088-.43.33.33 0 0 1 .413-.062.432.432 0 0 1 .136.21 1.425 1.425 0 0 1 .032.25.313.313 0 0 0 .235-.224c.022-.063.017-.13.043-.19s.078-.072.136-.082a.224.224 0 0 0 .145-.08.623.623 0 0 0 .09-.088c-.074-.146-.24-.162-.383-.177a.63.63 0 0 0-.073-.31.47.47 0 0 0-.1-.12c-.012-.01-.127-.073-.127-.057a.425.425 0 0 1-.193.45c-.063.026-.147-.01-.21 0-.2.01-.386.125-.585.125 0-.443.02-1.223.02-1.223.08-.334.377-.266.754-.21a1.02 1.02 0 0 0-.833-.626.9.9 0 0 0-.277-1.26.9.9 0 0 0-.277 1.26 1 1 0 0 0-.832.628c.372-.057.67-.125.755.21 0 0 .02.78.02 1.223-.2 0-.386-.114-.586-.124-.07-.006-.152.03-.21 0a.42.42 0 0 1-.2-.45c0-.016-.115.047-.12.058a.392.392 0 0 0-.105.12.6.6 0 0 0-.078.31c-.135.014-.31.03-.377.176a.585.585 0 0 0 .085.09.247.247 0 0 0 .146.078c.064.01.11.015.137.083a1.058 1.058 0 0 1 .04.19.32.32 0 0 0 .242.225 1.328 1.328 0 0 1 .025-.25.432.432 0 0 1 .136-.21.337.337 0 0 1 .42.062.44.44 0 0 1 .083.43.65.65 0 0 1-.3.365.977.977 0 0 1-.47.105.8.8 0 0 1-.676-.356 1.257 1.257 0 0 1 .068-1.13c.173-.39.388-.762.57-1.15.482-1 .947-2.008 1.407-3.017a.68.68 0 0 0 .1-.21.684.684 0 0 0 .094.21c.465 1.01.926 2.02 1.407 3.018.188.388.4.76.57 1.15a1.268 1.268 0 0 1 .064 1.13zm-2.882-6.288c0-.005 0-.005-.005-.005-.073.083-.146.16-.214.245a.3.3 0 0 1 .036.047.268.268 0 0 1 .016.168.464.464 0 0 1-.084.183.458.458 0 0 1-.4.12c-.267.33-.523.67-.77 1.014a2.62 2.62 0 0 1-.35 1.277s.874.047.76-1.214c.26.073.47.236.334-.005a.32.32 0 0 1 .02-.387.582.582 0 0 0-.13-.22c-.063-.062.152-.1.178-.1a1.12 1.12 0 0 0 .528-.173.665.665 0 0 0 .22-.434.725.725 0 0 0-.14-.516zM12.49 41.02c-.262-.073-.47-.23-.34 0a.315.315 0 0 1-.016.387.546.546 0 0 0 .13.22c.064.068-.15.1-.182.1a1.086 1.086 0 0 0-.523.178.628.628 0 0 0-.22.43.713.713 0 0 0 .14.512.454.454 0 0 0 .4.183c.084-.01.167-.01.193.083a.676.676 0 0 1 .006.11c0-.005.05-.047.056-.057a.293.293 0 0 0 .047-.09.593.593 0 0 0 .032-.182.38.38 0 0 0 .235-.152l-.21-.052c-.03-.01-.025-.02-.025-.053a.55.55 0 0 0-.006-.1.52.52 0 0 0-.02-.094.67.67 0 0 1-.038-.063c-.03.073-.047.235-.146.3a.285.285 0 0 1-.346-.125.26.26 0 0 1-.015-.168.45.45 0 0 1 .083-.183.467.467 0 0 1 .4-.12.476.476 0 0 1 .382.22.707.707 0 0 1 0 .81.826.826 0 0 1-.5.372.736.736 0 0 1-.858-.44 1.13 1.13 0 0 1 .042-.883c.005 0 .005-.006.005-.006.04-.078.078-.162.114-.24.136-.283.267-.56.4-.842.183-.372.36-.743.538-1.114.262-.538.53-1.07.785-1.61a3.07 3.07 0 0 0 .487-1.595 1.4 1.4 0 0 0-.11-.4 1.147 1.147 0 0 0-1.115-.628 1.632 1.632 0 0 0-1.56.806 1.64 1.64 0 0 0-1.557-.806 1.157 1.157 0 0 0-1.12.628 1.387 1.387 0 0 0-.1.4 3.064 3.064 0 0 0 .482 1.595c.26.54.528 1.072.784 1.61.177.372.36.743.538 1.115.136.282.272.56.4.842.04.078.078.162.115.24.005 0 .005.006.005.006a1.085 1.085 0 0 1 .042.883 1.055 1.055 0 0 1-.058.11c.116.13.235.262.356.387a1.106 1.106 0 0 0 .115-.14s.335.5.68.554h1.705a.485.485 0 0 0-.33-.267 1.8 1.8 0 0 0 .215-1.873 2.546 2.546 0 0 1 .235-2.024s-.88-.028-.758 1.227zm-1.653.847a.684.684 0 0 0-.094.21.68.68 0 0 0-.1-.21c-.46-1-.925-2.014-1.406-3.018-.183-.388-.4-.754-.57-1.146a1.258 1.258 0 0 1-.07-1.13.788.788 0 0 1 .676-.355.912.912 0 0 1 .47.1.62.62 0 0 1 .3.365.44.44 0 0 1-.082.43.335.335 0 0 1-.418.057.387.387 0 0 1-.136-.21 1.234 1.234 0 0 1-.026-.245.31.31 0 0 0-.24.225 1.012 1.012 0 0 1-.042.183c-.027.073-.073.073-.136.083a.327.327 0 0 0-.146.08.607.607 0 0 0-.085.093c.07.142.243.158.378.173a.57.57 0 0 0 .078.31.428.428 0 0 0 .105.125c0 .005.12.073.12.057a.417.417 0 0 1 .2-.45c.06-.026.142.01.21.006.2-.015.382-.125.586-.125 0 .44-.02 1.22-.02 1.22-.084.34-.383.27-.754.208a1 1 0 0 0 .832.627.9.9 0 0 0 .277 1.26.9.9 0 0 0 .278-1.26 1.02 1.02 0 0 0 .832-.627c-.377.063-.675.13-.754-.21 0 0-.02-.78-.02-1.218.2 0 .38.11.585.126.064.006.148-.03.21-.005.178.074.2.283.194.45 0 .016.115-.052.126-.057a.518.518 0 0 0 .1-.126.6.6 0 0 0 .073-.31c.142-.014.31-.03.382-.17a.644.644 0 0 0-.09-.095.285.285 0 0 0-.145-.08c-.058-.01-.105-.01-.136-.082-.026-.058-.02-.12-.042-.183a.3.3 0 0 0-.235-.225 1.314 1.314 0 0 1-.032.245.387.387 0 0 1-.136.21.327.327 0 0 1-.414-.058.436.436 0 0 1-.088-.43.632.632 0 0 1 .3-.365.91.91 0 0 1 .47-.1.79.79 0 0 1 .68.354 1.27 1.27 0 0 1-.073 1.13c-.167.392-.382.758-.57 1.145-.472 1.003-.935 2.013-1.398 3.017zm-.91.047a1.127 1.127 0 0 0-.528-.178c-.027 0-.242-.036-.18-.1a.546.546 0 0 0 .132-.22.32.32 0 0 1-.02-.387c.135-.236-.075-.08-.336 0 .115-1.256-.758-1.215-.758-1.215a2.652 2.652 0 0 1 .35 1.282c.24.345.5.68.77 1.01a.38.38 0 0 1 .48.3.268.268 0 0 1-.016.167.193.193 0 0 1-.036.052l.214.246c0-.005.005-.005.005-.01a.72.72 0 0 0 .142-.513.653.653 0 0 0-.22-.436zM12.15 44.785l-.074.163c.048.047.1.088.147.13a.64.64 0 0 0-.073-.293zm.073.293c.073.063.14.126.22.19a.316.316 0 0 0-.22-.19zm.492-.737c0-.004.15-.072.167-.078a.535.535 0 0 0 .246-.292h-1.7a1.26 1.26 0 0 0-.257.13c.153.152.31.3.462.44a.79.79 0 0 1 .25-.02c.41.025.644.166.75.448a.907.907 0 0 1 .03.476c.146.126.293.246.445.36a1.318 1.318 0 0 0-.392-1.463zM12.882 10.743a1.616 1.616 0 0 1-.167-.084A1.315 1.315 0 0 0 13.1 9.2c-.147.115-.3.235-.445.356a.9.9 0 0 1-.03.476c-.1.287-.34.428-.75.45a.746.746 0 0 1-.245-.022c-.157.147-.314.293-.466.445a1.073 1.073 0 0 0 .257.125h1.706a.508.508 0 0 0-.244-.287zm-.654-.82a.32.32 0 0 0 .215-.18c-.074.057-.143.116-.215.18zm-.152.135l.074.157a.633.633 0 0 0 .073-.288c-.047.042-.1.084-.147.13zM37.52 23.76a6.27 6.27 0 1 1-6.27-6.27 6.274 6.274 0 0 1 6.27 6.27zM31.763 16.15a.513.513 0 0 1-1.026 0c0-.287.513-2.15.513-2.15s.513 1.863.513 2.15zM31.763 16.15a.513.513 0 0 1-1.026 0c0-.287.513-2.15.513-2.15s.513 1.863.513 2.15zM30.267 16.193a.515.515 0 0 1-1.01.2c-.052-.283.09-2.208.09-2.208s.867 1.73.92 2.008zM30.267 16.193a.515.515 0 0 1-1.01.2c-.052-.283.09-2.208.09-2.208s.867 1.73.92 2.008zM28.813 16.533a.515.515 0 0 1-.952.392c-.108-.262-.344-2.18-.344-2.18s1.184 1.526 1.297 1.788zM28.813 16.533a.515.515 0 0 1-.952.392c-.108-.262-.344-2.18-.344-2.18s1.184 1.526 1.297 1.788zM27.448 17.144a.515.515 0 1 1-.858.57c-.157-.235-.764-2.065-.764-2.065s1.465 1.26 1.622 1.494zM27.448 17.144a.515.515 0 1 1-.858.57c-.157-.235-.764-2.065-.764-2.065s1.465 1.26 1.622 1.494zM26.23 18.013a.517.517 0 0 1 0 .727.507.507 0 0 1-.727 0c-.205-.2-1.157-1.878-1.157-1.878s1.684.952 1.883 1.15zM26.23 18.013a.517.517 0 0 1 0 .727.507.507 0 0 1-.727 0c-.205-.2-1.157-1.878-1.157-1.878s1.684.952 1.883 1.15zM25.2 19.106a.513.513 0 1 1-.57.852c-.235-.157-1.5-1.616-1.5-1.616s1.84.607 2.07.764zM25.2 19.106a.513.513 0 1 1-.57.852c-.235-.157-1.5-1.616-1.5-1.616s1.84.607 2.07.764zM24.41 20.37a.515.515 0 1 1-.393.953c-.262-.11-1.784-1.3-1.784-1.3s1.915.244 2.176.348zM24.41 20.37a.515.515 0 1 1-.393.953c-.262-.11-1.784-1.3-1.784-1.3s1.915.244 2.176.348zM23.88 21.773a.514.514 0 0 1-.2 1.01c-.276-.058-2-.926-2-.926s1.92-.14 2.2-.084zM23.88 21.773a.514.514 0 0 1-.2 1.01c-.276-.058-2-.926-2-.926s1.92-.14 2.2-.084zM23.635 23.248a.515.515 0 0 1 0 1.03c-.282 0-2.144-.518-2.144-.518s1.863-.512 2.145-.512zM23.635 23.248a.515.515 0 0 1 0 1.03c-.282 0-2.144-.518-2.144-.518s1.863-.512 2.145-.512zM23.682 24.744a.51.51 0 0 1 .6.4.517.517 0 0 1-.4.607c-.277.053-2.2-.088-2.2-.088s1.723-.862 2-.918zM23.682 24.744a.51.51 0 0 1 .6.4.517.517 0 0 1-.4.607c-.277.053-2.2-.088-2.2-.088s1.723-.862 2-.918zM24.017 26.2a.512.512 0 1 1 .392.947c-.262.11-2.177.35-2.177.35s1.522-1.19 1.784-1.297zM24.017 26.2a.512.512 0 1 1 .392.947c-.262.11-2.177.35-2.177.35s1.522-1.19 1.784-1.297zM24.634 27.563a.515.515 0 0 1 .57.857c-.235.157-2.07.764-2.07.764s1.266-1.46 1.5-1.62zM24.634 27.563a.515.515 0 0 1 .57.857c-.235.157-2.07.764-2.07.764s1.266-1.46 1.5-1.62zM25.5 28.78a.514.514 0 0 1 .726.728c-.2.2-1.883 1.156-1.883 1.156s.957-1.68 1.157-1.883zM25.5 28.78a.514.514 0 0 1 .726.728c-.2.2-1.883 1.156-1.883 1.156s.957-1.68 1.157-1.883zM26.59 29.806a.517.517 0 0 1 .858.576c-.157.235-1.622 1.5-1.622 1.5s.607-1.84.764-2.076zM26.59 29.806a.517.517 0 0 1 .858.576c-.157.235-1.622 1.5-1.622 1.5s.607-1.84.764-2.076zM27.86 30.6a.515.515 0 0 1 .953.393c-.11.26-1.3 1.788-1.3 1.788s.24-1.917.348-2.18zM27.86 30.6a.515.515 0 0 1 .953.393c-.11.26-1.3 1.788-1.3 1.788s.24-1.917.348-2.18zM29.257 31.13a.516.516 0 0 1 .607-.4.51.51 0 0 1 .4.6c-.053.283-.92 2.01-.92 2.01s-.14-1.933-.087-2.21zM29.257 31.13a.516.516 0 0 1 .607-.4.51.51 0 0 1 .4.6c-.053.283-.92 2.01-.92 2.01s-.14-1.933-.087-2.21zM30.737 31.375a.513.513 0 0 1 1.026 0c0 .288-.513 2.15-.513 2.15s-.513-1.862-.513-2.15zM30.737 31.375a.513.513 0 0 1 1.026 0c0 .288-.513 2.15-.513 2.15s-.513-1.862-.513-2.15zM32.228 31.328a.514.514 0 0 1 1.01-.2c.057.277-.084 2.207-.084 2.207s-.868-1.724-.926-2.007zM32.228 31.328a.514.514 0 0 1 1.01-.2c.057.277-.084 2.207-.084 2.207s-.868-1.724-.926-2.007zM33.687 30.994a.51.51 0 0 1 .277-.67.516.516 0 0 1 .675.277c.11.263.344 2.182.344 2.182s-1.184-1.527-1.297-1.788zM33.687 30.994a.51.51 0 0 1 .277-.67.516.516 0 0 1 .675.277c.11.263.344 2.182.344 2.182s-1.184-1.527-1.297-1.788zM35.052 30.382a.515.515 0 1 1 .853-.576c.162.236.77 2.072.77 2.072s-1.466-1.26-1.623-1.496zM35.052 30.382a.515.515 0 1 1 .853-.576c.162.236.77 2.072.77 2.072s-1.466-1.26-1.623-1.496zM36.27 29.508a.508.508 0 0 1 0-.727.52.52 0 0 1 .728 0c.2.2 1.15 1.884 1.15 1.884s-1.678-.952-1.877-1.156zM36.27 29.508a.508.508 0 0 1 0-.727.52.52 0 0 1 .728 0c.2.2 1.15 1.884 1.15 1.884s-1.678-.952-1.877-1.156zM37.3 28.42a.515.515 0 0 1 .57-.857c.235.162 1.5 1.62 1.5 1.62s-1.838-.606-2.07-.763zM37.3 28.42a.515.515 0 0 1 .57-.857c.235.162 1.5 1.62 1.5 1.62s-1.838-.606-2.07-.763zM38.086 27.15a.513.513 0 1 1 .4-.947c.262.105 1.784 1.3 1.784 1.3s-1.923-.244-2.184-.353zM38.086 27.15a.513.513 0 1 1 .4-.947c.262.105 1.784 1.3 1.784 1.3s-1.923-.244-2.184-.353zM38.62 25.753a.514.514 0 1 1 .2-1.01c.276.058 2 .92 2 .92s-1.92.142-2.2.09zM38.62 25.753a.514.514 0 1 1 .2-1.01c.276.058 2 .92 2 .92s-1.92.142-2.2.09zM38.865 24.278a.515.515 0 1 1 0-1.03c.282 0 2.144.512 2.144.512s-1.863.518-2.145.518zM38.865 24.278a.515.515 0 1 1 0-1.03c.282 0 2.144.512 2.144.512s-1.863.518-2.145.518zM38.818 22.782a.514.514 0 1 1-.2-1.01c.277-.056 2.2.085 2.2.085s-1.718.868-2 .925zM38.818 22.782a.514.514 0 1 1-.2-1.01c.277-.056 2.2.085 2.2.085s-1.718.868-2 .925zM38.483 21.323a.516.516 0 1 1-.4-.952c.26-.1 2.18-.344 2.18-.344s-1.518 1.187-1.78 1.297zM38.483 21.323a.516.516 0 1 1-.4-.952c.26-.1 2.18-.344 2.18-.344s-1.518 1.187-1.78 1.297zM37.866 19.958a.513.513 0 1 1-.57-.852c.236-.157 2.07-.764 2.07-.764s-1.266 1.458-1.5 1.616zM37.866 19.958a.513.513 0 1 1-.57-.852c.236-.157 2.07-.764 2.07-.764s-1.266 1.458-1.5 1.616zM37 18.74a.514.514 0 0 1-.727-.727c.2-.2 1.877-1.15 1.877-1.15S37.2 18.54 37 18.74zM37 18.74a.514.514 0 0 1-.727-.727c.2-.2 1.877-1.15 1.877-1.15S37.2 18.54 37 18.74zM35.905 17.715a.51.51 0 0 1-.712.146.52.52 0 0 1-.14-.716c.156-.235 1.62-1.495 1.62-1.495s-.606 1.83-.768 2.065zM35.905 17.715a.51.51 0 0 1-.712.146.52.52 0 0 1-.14-.716c.156-.235 1.62-1.495 1.62-1.495s-.606 1.83-.768 2.065zM34.64 16.925a.515.515 0 0 1-.953-.392c.11-.262 1.3-1.79 1.3-1.79s-.238 1.92-.348 2.182zM34.64 16.925a.515.515 0 0 1-.953-.392c.11-.262 1.3-1.79 1.3-1.79s-.238 1.92-.348 2.182zM33.237 16.4a.508.508 0 0 1-.6.4.517.517 0 0 1-.408-.606c.057-.278.925-2 .925-2s.145 1.92.082 2.206zM33.237 16.4a.508.508 0 0 1-.6.4.517.517 0 0 1-.408-.606c.057-.278.925-2 .925-2s.145 1.92.082 2.206zM31.78 34.728c-.2.09-.394.392-.53.54-.235.26-.47.516-.722.767a4.13 4.13 0 0 1-1.475 1.005c-.366.078-.742.026-.935.22s-.4.386-.4.5-.408.182-.48.428a1.285 1.285 0 0 0-.037.576 1.16 1.16 0 0 0 .42-.22c.078-.073.078.094.078.094s.235-.026.282-.026a5.3 5.3 0 0 1 1.323-.2c.7 0 2.223.14 2.563.094s-.3-.136-.528-.136-1-.115-1.146-.115-.622.037-.622-.042.22-.324.267-.366-.555.058-.178-.172.25-.408.056-.34a4.47 4.47 0 0 0-.967.376c0 .08-.3.4-.393.31a.5.5 0 0 0-.288-.084s-.043-.146.23-.235.124.043.585-.214a17.022 17.022 0 0 0 2.64-1.715 3.56 3.56 0 0 1 1.627-.553c.41-.053.822-.08 1.23-.136a2.092 2.092 0 0 0 1.14-.34 6.93 6.93 0 0 1 1.914-1.39 5.91 5.91 0 0 0 1.46-.7 17.662 17.662 0 0 0 1.404-1.63 4.842 4.842 0 0 1 1.213-.858c.157-.078 1.156-.575 1.046-.047a4.23 4.23 0 0 1-.66 1.077c-.052.053.544-.23.67-.11s.057.382-.09.524-.49.5-.49.5.548-.047.5.136-1.1.712-1.183.785.02.12.02.183-.156.157-.29.293-.6.282-.52.476.027.093-.083.2-.507.12-.507.26.047.36-.037.45a1.975 1.975 0 0 1-.6.157.39.39 0 0 1 0 .345 10.756 10.756 0 0 1-2.18 1.12c-.116 0-.294.1-.252.1a7.218 7.218 0 0 0 2.327-.378c.576-.34 1.078-.45 1.214-.585s-.477-.263-.477-.414.36-.33.988-.408.943-.12.665-.2-.69 0-.69-.12.068-.1.366-.194 1.042-.152 1.042-.33-.554-.1-.717-.162.006-.057.56-.246 1.088-.408 1.088-.533-.544-.157-.706-.157-.262-.037.042-.2a8.178 8.178 0 0 0 1.715-1.22c.22-.34.407-.527.276-.652s-.55.316-.95.386-.52.157-.4-.037.67-.58 1.218-1.135 1.313-1.192 1.313-1.438.032-.476-.28-.408-.692.607-.9.816-1.25 1.007-1.25 1.007.575-.7 1.2-1.574a5.493 5.493 0 0 0 .925-1.51.793.793 0 0 0-.1-.382.538.538 0 0 0-.6.177c-.272.272-1.067 1.533-1.318 1.7s-.43.424-.257.162a15.946 15.946 0 0 0 .738-1.62 5.88 5.88 0 0 0 .37-1.5c0-.2-.035-.607-.25-.712-.24-.115-.44.115-.465.324a10.873 10.873 0 0 1-.256 1.3 4.614 4.614 0 0 1-.23.647 2.445 2.445 0 0 1-.356.534c.037-.277.163-.543.173-.83a3.48 3.48 0 0 0-.052-.9c-.025-.116-.067-.257-.2-.246-.266.02-.4.308-.427.538a4.21 4.21 0 0 1-.273 1.03c-.188.5-.4.984-.628 1.465a10.7 10.7 0 0 1-4.47 4.618 12.114 12.114 0 0 1-4.954 1.475.248.248 0 0 0-.09.028zM35.2 37.8c-.157 0-.36-.11-.36.183a.634.634 0 0 1-.445.638 13.4 13.4 0 0 1-3.107.216 2.276 2.276 0 0 0-1.972.748c-.126.26-.08.612.2.44a5.427 5.427 0 0 1 .93-.587c.137 0-.14.633.158.586s.507-.45.763-.513.277.116.19.32-.127.48.328.125.623-.565.623-.272.1.418.475.173.25-.424.408-.424.122.146.23.262.294.287.68-.215c.127-.126.158-.1.28.02s.046.377.365.173.455-.53.643-.53c.152 0 .152.367.356.216a.362.362 0 0 0 .068-.085c.094-.157.21-.544.44-.544.3 0 .328.278.574.278s.508.016.6-.334.095-.727.283-.534c.245.24.558.46.878.22a.91.91 0 0 0 .314-.445.238.238 0 0 0-.2-.308c-.513-.068-1.03-.115-1.55-.152-.3-.02-.605-.037-.91-.052a3.62 3.62 0 0 0-.862-.02c-.28.06-.38.417-.38.417zM20.345 29.346a4.394 4.394 0 0 1 .565.544c.2.21.4.413.612.623a12.32 12.32 0 0 0 1.61 1.91 11.7 11.7 0 0 0 1.544.773 7.777 7.777 0 0 1 1.313 1 3.75 3.75 0 0 0 2.023.857 4.246 4.246 0 0 1 1.752.178c.193.195.685.373.795.263a4.718 4.718 0 0 0 .376-.628 2.206 2.206 0 0 0-.784-.1 9.956 9.956 0 0 1-4.052-1.24 11.123 11.123 0 0 1-4.122-3.488 16.167 16.167 0 0 1-1.794-3.95c-.14-.522-.538-.522-.538.2s.387 1.3.277 1.413c-.08.084-.54-.847-.57-.915a10.468 10.468 0 0 1-.513-1.648c-.03-.13-.047-.355-.2-.408-.172-.058-.3.11-.382.24a.833.833 0 0 0-.036.518 3.592 3.592 0 0 0 .2.878c.11.3.2.59.308.89.157.46.325.915.5 1.375 0 0-.993-1.38-1.328-1.715-.115-.115-.23-.23-.356-.334-.073-.062-.3-.282-.387-.12a.28.28 0 0 0-.017.116 2.737 2.737 0 0 0 .424 1.344c.366.58 1.428 1.95 1.428 1.95s-.685-.61-1.02-.946-1.428-1.12-1.355-.6 2.15 2.364 2.317 2.65c.037.064.157.357-.036.3a.228.228 0 0 1-.114-.083 2.514 2.514 0 0 0-.4-.3.77.77 0 0 0-.35-.177c-.142 0-.33.173.01.513s2.254 1.263 2.254 1.39-.826.03-1.05.03-.346.068-.095.215a9.887 9.887 0 0 0 1.1.33c.33.126.612.074.513.173-.08.078-.246.078-.346.09-.156.02-.355-.022-.5.015-.114.026-.094.078-.015.162.21.2 1.12.313 1.182.376s-.284.2-.378.2-.507-.02-.193.162a9 9 0 0 0 1.48.376c.026.03-.622.225-.622.33s.292.172.32.2a15.8 15.8 0 0 0 4.047 1.29 25.02 25.02 0 0 1-3.4-1.406c-.1-.2.387-.282.387-.418s-.36-.136-.69-.31-.46-.172-.34-.292.5-.11.157-.26-.76-.054-.69-.3.28-.163.223-.33-.272-.147-.324-.293c-.038-.11.035-.188-.027-.3-.142-.262-.565-.33-.81-.46a1.077 1.077 0 0 1-.357-.23c-.13-.173.3-.23.42-.225-.106-.084-1.042-.874-.807-.947a1.047 1.047 0 0 1 .308-.073c.094 0 .22.036.23-.1a.748.748 0 0 0-.11-.313c-.157-.314-.575-.848-.43-.905.174-.068.4.21.535.1.063-.047.09-.136.136-.193s.096-.02.185.036z" fill="#fdc41b"/></svg>