<svg xmlns="http://www.w3.org/2000/svg" viewBox="0 0 55 55"><path d="M47.677 15.853H7.327a23.29 23.29 0 0 1 40.35 0zM47.677 39.153a23.3 23.3 0 0 1-40.35 0z" fill="#ec1c24"/><path d="M50.8 27.5a23.168 23.168 0 0 1-3.123 11.653H7.327a23.265 23.265 0 0 1 0-23.3h40.35A23.13 23.13 0 0 1 50.8 27.5z" fill="#fff"/><path d="M38.932 34.514a3.35 3.35 0 0 0-.617-.665 2.13 2.13 0 0 0-.7-.47 5.54 5.54 0 0 1-.926-.5c-.3-.185-.6-.378-.895-.577a9.8 9.8 0 0 0-.853-.6c-.22-.12-.612-.37-.413-.664a.664.664 0 0 1 .292-.216 1.434 1.434 0 0 1 .533-.193 2.042 2.042 0 0 1 .774.24c.355.122.71.237 1.07.34.164.048.41.11.41-.13a.837.837 0 0 0-.524-.737 3.252 3.252 0 0 1-.91-.71c-.444-.446-.82-1.2-1.558-1.147-.21.016-.42.068-.628.074-.157 0-.366.015-.46-.136a.394.394 0 0 1-.042-.267.513.513 0 0 1 .55-.465 6.848 6.848 0 0 0 2.264-.152c.078-.026.183-.068.215-.152.057-.136-.116-.24-.215-.293a8.038 8.038 0 0 0-1.95-.517 1.59 1.59 0 0 1-.623-.24c-.242-.19-.362-.87.114-.78a1.64 1.64 0 0 1 .3.115 2.643 2.643 0 0 0 1.115.225c.275-.006.6-.163.4-.476a.817.817 0 0 0-.237-.225c-.318-.22-.69-.35-1.01-.57-.627-.424-1.24-.87-1.856-1.3a14.438 14.438 0 0 0-1.595-.936.572.572 0 0 1-.21-.15.427.427 0 0 1-.078-.283c.01-.11.037-.392.194-.387a.26.26 0 0 1 .105.03 6.667 6.667 0 0 0 .878.357 3.087 3.087 0 0 0 .686.11c.178.01.455.057.513-.173.114-.46-.5-.68-.817-.83a1.123 1.123 0 0 1-.612-.566.21.21 0 0 1-.01-.157c.032-.077.126-.057.2-.057a1.62 1.62 0 0 0 .69-.04c.3-.137-.036-.367-.166-.5a4.787 4.787 0 0 0-.46-.41 3.79 3.79 0 0 0-1.56-.846 5.164 5.164 0 0 1-1.63-.393 3.25 3.25 0 0 1-.79-.633 3.327 3.327 0 0 1-.315-.412 5.04 5.04 0 0 1-.3-.45c-.07-.135-.163-.277-.226-.413a.947.947 0 0 0-.156-.313.066.066 0 0 0-.048-.02.052.052 0 0 0-.037.01 1.46 1.46 0 0 0-.25.36 5.7 5.7 0 0 1-.555.795c-.183.188-1.344 1.213-1.46 1.328s-.465.424-.376.513.424-.042.54.073a.3.3 0 0 1-.11.477 6.933 6.933 0 0 0-.827.44 7.782 7.782 0 0 0-.852.507.707.707 0 0 0-.194.314.168.168 0 0 0-.007.088.12.12 0 0 0 .074.068 2.482 2.482 0 0 0 .4.032.424.424 0 0 1 .225.073.75.75 0 0 1 .084.355.21.21 0 0 1-.084.125.8.8 0 0 1-.356.136c-.125.032-.25.058-.376.1a1.866 1.866 0 0 0-.225.11 1.48 1.48 0 0 0-.267.15.752.752 0 0 0-.21.35 1.086 1.086 0 0 1-.25.4 2.736 2.736 0 0 1-.643.414c-.3.162-.612.31-.926.455a2.505 2.505 0 0 0-.74.434c-.187.188-.47.716-.26.805a.808.808 0 0 0 .445-.032 4.653 4.653 0 0 1 .883-.162c.225 0 .576-.1.77.053a.892.892 0 0 1 .187.42.712.712 0 0 1-.073.715 5.39 5.39 0 0 1-1.47 1.093 3.34 3.34 0 0 0-1.056.493c-.172.173-.345.35-.518.523a1.153 1.153 0 0 1-.25.21c-.142.078-.31.11-.388.25-.6 1.036.074 1.156.586.9a6 6 0 0 1 1.166-.565.872.872 0 0 1 .6.038c.188.1.413.38.32.606-.143.34-.676.476-.98.633a2.51 2.51 0 0 0-1.01.722 4.838 4.838 0 0 1-.85.91 3.725 3.725 0 0 1-.87.637c-.172.084-.648.32-.648.55 0 .282.55.334.732.318a3.8 3.8 0 0 0 1.245-.444c.346-.15.69-.292 1.02-.47.545-.282 1.382-.853 1.993-.5a.39.39 0 0 1 .178.178c.122.256-.333.6-.5.727a4.18 4.18 0 0 1-1.192.66 14.51 14.51 0 0 1-1.507.38 1.8 1.8 0 0 0-.385.152c-.252.12-.77.23-.55.586a.856.856 0 0 0 .864.366c.443-.11.888-.21 1.332-.315a5.485 5.485 0 0 0 1.16-.313c.436-.2.838-.476 1.282-.66.523-.22 1.47-.5 1.962-.125a1.392 1.392 0 0 1 .554 1.606 6.08 6.08 0 0 1-1.417 2.05 4.438 4.438 0 0 1-1.67 1.088 3.413 3.413 0 0 0-.726.22.616.616 0 0 0-.287.743.31.31 0 0 0 .235.147.108.108 0 0 0 .11-.1c.063-.25.314-.627.67-.627a3 3 0 0 0 1.668-.288 5.855 5.855 0 0 0 1.475-.884 1.046 1.046 0 0 1 .627-.407 1.1 1.1 0 0 1 .466.084.728.728 0 0 0 .19.036c.3 0 .56-.162.872-.162a.978.978 0 0 1 .65.163c.313.283.14.665.83.968.19.08.246.34.42.45.276.18.47-.062.585-.292a.394.394 0 0 1 .32-.277 2.193 2.193 0 0 1 .956.095 2.772 2.772 0 0 1 1.1.565 2.545 2.545 0 0 1 .393.43c.094.13.182.25.366.25h.02a.39.39 0 0 0 .34-.33c.042-.314-.528-.607-.748-.753a7.383 7.383 0 0 1-1.01-.743 3.768 3.768 0 0 1-1.123-2.51 3.164 3.164 0 0 1 .09-1.062 1.83 1.83 0 0 1 .465-.936c.455-.366.994.21 1.386.366a3.557 3.557 0 0 0 1.016.215 9 9 0 0 0 1.182-.032c.292-.02.59.016.89-.03a1.38 1.38 0 0 1 .574.1 5.66 5.66 0 0 1 1.632.648 8.46 8.46 0 0 0 1.59.89.575.575 0 0 0 .523-.038.336.336 0 0 0 .14-.224.35.35 0 0 0-.065-.196zm-16.192-6.12c-.13.162-.277.12-.653.262-.487.183-.534.36-.77.33a.8.8 0 0 1-.522-.43c-.016-.03-.225-.423-.053-.643.08-.1.24-.12.555-.146a4.915 4.915 0 0 1 .753 0c.622.02.717.03.774.115a.474.474 0 0 1-.084.512zm.24-3.577a.413.413 0 0 1-.21.2c-.29.125-.616-.152-.668-.19a.87.87 0 0 1-.26-.4.5.5 0 0 1 .02-.4.508.508 0 0 1 .423-.172.67.67 0 0 1 .24.058.76.76 0 0 1 .33.382c.11.205.188.365.126.522zm4.39-1.485c.06.09-.038.3-.19.408a.408.408 0 0 1-.418.052.333.333 0 0 1-.167-.324A.4.4 0 0 1 27 23.2a.673.673 0 0 1 .2.047c.1.032.148.053.17.085zm-3.29-3a.3.3 0 0 1 .3-.027c.14.08.135.288.11.4-.01.026-.07.24-.23.262-.147.02-.278-.13-.31-.272a.36.36 0 0 1 .13-.365zm.245 10.993a.415.415 0 0 1-.387.267c-.183-.02-.277-.215-.408-.476a1.672 1.672 0 0 1-.147-.633c-.01-.25.053-.3.074-.32.068-.046.162-.015.245.017a.858.858 0 0 1 .372.24 1.19 1.19 0 0 1 .21.508.676.676 0 0 1 .04.395zm.03-7.243a.544.544 0 0 1-.318.282.568.568 0 0 1-.533.01.467.467 0 0 1-.178-.34.418.418 0 0 1 .084-.287.52.52 0 0 1 .444-.147.694.694 0 0 1 .283.063.378.378 0 0 1 .224.21.324.324 0 0 1-.004.207zm-.218-1.49c-.095-.2.1-.446.14-.5.084-.106.11-.09.6-.383.19-.116.278-.18.346-.137s.08.157.084.262a.93.93 0 0 1-.078.413.84.84 0 0 1-.79.533.405.405 0 0 1-.303-.19zm.575 4.392c-.2-.073-.194-.355-.194-.4s.006-.21.09-.25.214.077.256.12c.083.077.266.3.172.45a.275.275 0 0 1-.324.078zm.894 4.587c-.094.053-.287-.104-.387-.22a.61.61 0 0 1-.158-.5.168.168 0 0 1 .047-.1.213.213 0 0 1 .182-.015.423.423 0 0 1 .215.136.66.66 0 0 1 .157.44c0 .118.005.222-.058.26zm.487-10.4a1.272 1.272 0 0 1 .48-.286.485.485 0 0 1 .11-.047.5.5 0 0 1 .482.078.426.426 0 0 1 .073.44c-.084.22-.335.277-.5.318-.236.058-.67.084-.76-.12-.063-.153.1-.366.115-.387zm.224 5.535a.29.29 0 0 1-.287-.288.252.252 0 0 1 .434-.193.292.292 0 0 1 .084.25.273.273 0 0 1-.23.226zm.92 4.534a.424.424 0 0 1-.407.15.51.51 0 0 1-.33-.29.6.6 0 0 1 .015-.57c.016-.026.11-.172.236-.167.053 0 .084.026.194.115.173.14.256.21.267.225a.486.486 0 0 1 .028.53zm.618-3.65a.4.4 0 0 1-.444.16c-.245-.072-.3-.423-.308-.517a.688.688 0 0 1 .03-.246c.017-.063.038-.13.054-.193a.906.906 0 0 1 .068-.2.146.146 0 0 1 .157-.08c.09.007.13.08.173.148s.08.115.115.172a1.23 1.23 0 0 1 .142.314c.06.195.088.315.015.436zm.02-6.382a.34.34 0 0 1 0-.345.333.333 0 0 1 .336-.162.294.294 0 0 1 .247.2.31.31 0 0 1-.074.252.358.358 0 0 1-.287.183.31.31 0 0 1-.22-.135zm.142 2.427a.374.374 0 0 1 .4-.434.317.317 0 0 1 .256.116c.126.178-.063.45-.078.47-.048.058-.136.183-.267.183-.16-.006-.29-.183-.31-.34zm.623 4.01c-.016.017-.12.127-.225.09s-.126-.167-.136-.23c-.027-.136-.017-.377.12-.424a.245.245 0 0 1 .224.064.325.325 0 0 1 .078.12.428.428 0 0 1-.062.377zm.455-6.264a.355.355 0 0 1-.02-.444.4.4 0 0 1 .213-.084.4.4 0 0 1 .345.037.33.33 0 0 1 .09.234.364.364 0 0 1-.053.257.406.406 0 0 1-.57-.004zm1.563 2.846a.506.506 0 0 1-.36.246.752.752 0 0 1-.623-.053c-.026-.016-.308-.2-.287-.445.03-.283.465-.4.575-.43a.568.568 0 0 1 .314-.02.575.575 0 0 1 .355.293.49.49 0 0 1 .026.403zm.764 1.34a.438.438 0 0 1 .76.412.43.43 0 0 1-.383.293.464.464 0 0 1-.425-.37.44.44 0 0 1 .047-.34zm.847 4.345c-.12.132-.257.153-.53.21a1.025 1.025 0 0 1-.574.01c-.1-.03-.314-.094-.366-.277a.42.42 0 0 1 .1-.355c.052-.068.173-.11.4-.194a2.055 2.055 0 0 1 .44-.115c.073-.006.083 0 .166-.01.215-.033.257-.07.325-.054.147.042.2.267.2.293a.58.58 0 0 1-.16.486zm1.8.68c-.225.194-.414.35-.618.294a.542.542 0 0 1-.314-.335.644.644 0 0 1 0-.46.674.674 0 0 1 .377-.357c.12-.068.466-.246.722-.063a.492.492 0 0 1 .2.42c-.007.192-.15.31-.37.496z" fill="#00a552"/></svg>