<svg xmlns="http://www.w3.org/2000/svg" viewBox="0 0 55 55"><path d="M50.8 27.5a23.283 23.283 0 0 1-.67 5.565 1.333 1.333 0 0 0-.036.15c-.167.66-.366 1.31-.59 1.947-.022.063-.038.12-.064.183a23.3 23.3 0 1 1-34.8-27.26 23.233 23.233 0 0 1 25.727 0 23.415 23.415 0 0 1 6.967 7.2c.03.043.057.09.083.132.272.444.528.9.77 1.36.036.067.067.135.1.2.17.34.34.69.5 1.04.02.047.04.1.063.147.12.272.235.543.344.82.022.058.042.12.068.178.084.225.168.45.246.68.022.058.042.115.058.173a19.85 19.85 0 0 1 .56 1.914 1.608 1.608 0 0 1 .04.16 23.573 23.573 0 0 1 .514 2.993c.005.052.01.105.01.157.073.75.11 1.496.11 2.26z" fill="#feb613"/><path d="M8.337 14.263v26.474a23.245 23.245 0 0 1 0-26.474z" fill="#005540"/><path d="M17.945 8.086v38.828H14.64a23.354 23.354 0 0 1-6.3-6.177V14.263a23.354 23.354 0 0 1 6.3-6.177z" fill="#ff5a06"/><path d="M50.8 27.5a23.283 23.283 0 0 1-.67 5.565 1.333 1.333 0 0 0-.036.15c-.167.66-.366 1.31-.59 1.947-.022.063-.038.12-.064.183a23.353 23.353 0 0 1-9.074 11.57H20.288V8.084h20.078a23.415 23.415 0 0 1 6.967 7.2c.03.043.057.09.083.132.272.444.528.9.77 1.36.036.067.067.135.1.2.17.34.34.69.5 1.04.02.047.04.1.063.147.118.272.234.543.343.82.022.058.042.12.068.178.085.225.17.45.247.68.022.058.042.115.058.173a19.85 19.85 0 0 1 .56 1.914 1.608 1.608 0 0 1 .04.16 23.573 23.573 0 0 1 .514 2.993c.004.052.01.105.01.157.073.75.11 1.496.11 2.26z" fill="#8c1f28"/><path d="M21.156 45.47c.01.048.016.095.02.137s-.02.455-.01.455a3.59 3.59 0 0 1 1.01.146 2.253 2.253 0 0 0 1.684.188 1.848 1.848 0 0 0 1.12-1.318 4.628 4.628 0 0 0 .03-.978 5.693 5.693 0 0 1 .163-1.224 8.23 8.23 0 0 0 .408-1.563 1.97 1.97 0 0 0-.02-.764 2.968 2.968 0 0 0-.314.512 3.935 3.935 0 0 1-2.1 1.338 5.84 5.84 0 0 0-1.856.733 1.406 1.406 0 0 0-.46.627 1.6 1.6 0 0 0 .088 1.067 4.666 4.666 0 0 1 .238.644z" fill="#feb613"/><path d="M25.628 40.512l-.047-.088-.073.062a1.105 1.105 0 0 0-.21.33 1.16 1.16 0 0 1-.114.2 3.937 3.937 0 0 1-2.065 1.312c-.137.042-.278.08-.424.126a4.005 4.005 0 0 0-1.454.622 1.466 1.466 0 0 0-.487.66 1.618 1.618 0 0 0 .09 1.118c.026.068.057.142.088.21a2.756 2.756 0 0 1 .153.423.62.62 0 0 1 .015.13v.153c-.015.35-.015.36.063.37l.236.017a2.487 2.487 0 0 1 .748.12 3.27 3.27 0 0 0 1.172.3 1.53 1.53 0 0 0 .575-.1 1.924 1.924 0 0 0 1.168-1.375 2.82 2.82 0 0 0 .036-.69c-.005-.1-.005-.2-.005-.3a5.12 5.12 0 0 1 .156-1.2 5.278 5.278 0 0 1 .167-.538 3.78 3.78 0 0 0 .246-1.046c0-.042.004-.095.01-.152a1.385 1.385 0 0 0-.042-.664zm-.7 3.583c0 .11.005.214.005.314a2.457 2.457 0 0 1-.03.653 1.774 1.774 0 0 1-1.073 1.26 2.2 2.2 0 0 1-1.632-.188 2.608 2.608 0 0 0-.8-.136 1.47 1.47 0 0 1-.162-.012V45.6c0-.046-.01-.093-.02-.145a2.56 2.56 0 0 0-.163-.45l-.083-.2a1.447 1.447 0 0 1-.09-1.015 1.3 1.3 0 0 1 .435-.59 4.01 4.01 0 0 1 1.4-.6c.147-.043.293-.08.435-.126a4.072 4.072 0 0 0 2.14-1.365 1.847 1.847 0 0 0 .13-.23 1.393 1.393 0 0 1 .084-.164 2.127 2.127 0 0 1-.01.435 1.327 1.327 0 0 1-.012.157 3.622 3.622 0 0 1-.235 1c-.063.177-.126.366-.173.544a5.82 5.82 0 0 0-.142 1.25z" fill="#000101"/><path d="M21.156 9.53a1.24 1.24 0 0 0 .02-.137c.007-.04-.02-.455-.01-.455a3.59 3.59 0 0 0 1.01-.146A2.253 2.253 0 0 1 23.86 8.6a1.848 1.848 0 0 1 1.12 1.318 4.628 4.628 0 0 1 .03.978 5.65 5.65 0 0 0 .163 1.224 8.23 8.23 0 0 1 .408 1.563 2 2 0 0 1-.02.77 3.224 3.224 0 0 1-.314-.52 3.935 3.935 0 0 0-2.1-1.337 5.617 5.617 0 0 1-1.856-.733 1.38 1.38 0 0 1-.46-.627 1.605 1.605 0 0 1 .088-1.067 4.666 4.666 0 0 0 .238-.64z" fill="#feb613"/><path d="M25.67 13.84c0-.058-.01-.11-.01-.153a3.823 3.823 0 0 0-.247-1.046 5.278 5.278 0 0 1-.167-.537 5.12 5.12 0 0 1-.157-1.2c0-.1 0-.2.004-.3a2.82 2.82 0 0 0-.036-.69 1.924 1.924 0 0 0-1.167-1.375 1.53 1.53 0 0 0-.574-.105 3.15 3.15 0 0 0-1.172.3 2.487 2.487 0 0 1-.748.12l-.235.016c-.077.01-.077.025-.062.37v.157a.613.613 0 0 1-.015.126 2.58 2.58 0 0 1-.152.423c-.03.068-.06.142-.088.21a1.617 1.617 0 0 0-.09 1.12 1.507 1.507 0 0 0 .488.663 4.185 4.185 0 0 0 1.454.62c.146.043.287.08.424.122a3.974 3.974 0 0 1 2.065 1.312 1.044 1.044 0 0 1 .115.2 1.144 1.144 0 0 0 .21.325l.073.06.048-.087a1.385 1.385 0 0 0 .04-.654zm-.146.45c-.032-.053-.06-.116-.085-.17a1.847 1.847 0 0 0-.13-.23 4.1 4.1 0 0 0-2.14-1.364c-.142-.047-.288-.083-.435-.125a3.92 3.92 0 0 1-1.4-.6 1.265 1.265 0 0 1-.434-.59 1.448 1.448 0 0 1 .09-1.015c.026-.068.052-.13.083-.2a2.768 2.768 0 0 0 .163-.455c.01-.052.015-.1.02-.146v-.386c.052-.006.11-.006.162-.01a2.465 2.465 0 0 0 .8-.137 2.2 2.2 0 0 1 1.632-.188 1.774 1.774 0 0 1 1.072 1.26 2.457 2.457 0 0 1 .03.654c0 .105-.004.2-.004.31a5.7 5.7 0 0 0 .162 1.238c.047.183.11.372.173.555a3.534 3.534 0 0 1 .235 1 1.327 1.327 0 0 1 .01.155 2.168 2.168 0 0 1-.004.444z" fill="#000101"/><path d="M50.125 21.935a19.85 19.85 0 0 0-.56-1.914c-.015-.057-.035-.114-.057-.172a.94.94 0 0 0-.2.3.755.755 0 0 1-.214-.466 1.073 1.073 0 0 1 .172-.513c-.026-.058-.046-.12-.068-.178-.11-.278-.225-.55-.344-.82l-.064-.148a2.78 2.78 0 0 0-1.072.68 1.472 1.472 0 0 1-.544-.622.84.84 0 0 1 .016-.774.743.743 0 0 1 .65-.42 1.08 1.08 0 0 1 .454.095c-.037-.068-.068-.136-.1-.2-.24-.46-.5-.915-.77-1.36-.025-.04-.05-.088-.082-.13a3.376 3.376 0 0 0-1.653 2.06 2.81 2.81 0 0 0 .982 2.6 1.175 1.175 0 0 0-.335 1.014l.032.126c.135.6.292 1.265.673 1.265.236 0 .278-.23.32-.434s.078-.418.266-.49a3 3 0 0 1 1.458.35c.24.093.466.177.654.234a2.826 2.826 0 0 0 .434.09 1.608 1.608 0 0 0-.05-.173zm.565 3.31c0-.05 0-.104-.01-.156-.173.01-.35.015-.523.015-.518 0-1.04.01-1.548.02-.184 0-.362 0-.54.01-.22 0-.445.01-.66.022a14.688 14.688 0 0 1-1.678-.01 1.2 1.2 0 0 1-.424-.095l.08-.03a.083.083 0 0 0 .046-.074v-.016a.076.076 0 0 0-.047-.057 4.244 4.244 0 0 1-.3-.513 2.415 2.415 0 0 1-.163-.513c0-.01-.005-.022-.005-.042a.494.494 0 0 1-.027-.115c.02.01.042.015.063.026a2.167 2.167 0 0 1 .21.082c.1.053.172.084.24.037s.063-.132.042-.29a5.318 5.318 0 0 0-.163-.647 3.33 3.33 0 0 1-.146-.633.185.185 0 0 1 .093 0c.09.01.256.037.3-.157 0-.042.4-3.792-.544-4.372.03-.03.06-.067.1-.104A2.747 2.747 0 0 0 46 15.6a.133.133 0 0 0-.073-.126c-.048-.02-.178-.078-.822.565-.245.245-.4.375-.66.114a6.244 6.244 0 0 0-1.086-.832h-.022c-.183-.078-.554-.246-.76-.047a.625.625 0 0 0-.124.382.577.577 0 0 1-.126.366.16.16 0 0 1-.162.037.683.683 0 0 1-.382-.288 2.35 2.35 0 0 0-1.092-.65.426.426 0 0 0-.414.07.85.85 0 0 0-.162.674.6.6 0 0 1-.016.25 1.455 1.455 0 0 1-.37-.187 2.262 2.262 0 0 0-.854-.383 5.893 5.893 0 0 0-1.616.1c-.062.068-.03.19.068.45.017.042.032.084.037.1a.29.29 0 0 1-.08.272 1.265 1.265 0 0 1-.35.26 1.854 1.854 0 0 0-.172.115 1.3 1.3 0 0 1-.8.162 2.28 2.28 0 0 0-.465.032 5.773 5.773 0 0 0-.622.156 3.923 3.923 0 0 1-.81.183c-.017 0-.043 0-.07.01a.622.622 0 0 1-.156.015c0-.016-.005-.032-.005-.053a.583.583 0 0 1 0-.167c0-.042.005-.078.005-.12a.924.924 0 0 0-.09-.413.91.91 0 0 0-.558-.43 1.276 1.276 0 0 0-.947.084c-.67.367-.554 1.22-.476 1.564a3.744 3.744 0 0 0 .967 1.616l.125.142a9.438 9.438 0 0 0 1.7 1.52.08.08 0 0 0 .125-.06l-.042-.587c.7.55.727.55.76.55.06 0 .093 0 .244-.622.23.282.8.993 1.04 1.35a7.887 7.887 0 0 1-2.552-.618c-.4-.2-.71-.345-1.01-.466-.03-.015-.067-.026-.1-.04a1.146 1.146 0 0 0-1.013-.106.44.44 0 0 0-.246.408c.025.324.37.57.632.737a.934.934 0 0 0-.414.623c-.1.476-.344 1.208-.344 1.213a.07.07 0 0 0 .01.072.084.084 0 0 0 .068.032c.193-.01 1-.068 1.417-.13-.226.23-.393.428-.34.574a.18.18 0 0 0 .166.12 3.27 3.27 0 0 0 1.27-.24.517.517 0 0 0 .294.34.5.5 0 0 0 .41-.042.743.743 0 0 0 .29-.256.233.233 0 0 1 .026.042c.032.068.073.152.126.24.14.23.45.6.68.518.094-.036.125-.136.15-.235a.4.4 0 0 1 .252-.31c.2-.067.325-.035.377.017a.11.11 0 0 1 .027.12 1.7 1.7 0 0 1-.586.753 2.08 2.08 0 0 1-.323.173c-.09.042-.183.084-.267.13a4 4 0 0 0-.57.42 10.01 10.01 0 0 0-1.464 1.558 5.313 5.313 0 0 0-1.093 3.56 4.32 4.32 0 0 0 .09.582c-.713-.6-2.392-2.28-2.747-2.64a1.183 1.183 0 0 0 .3-.3 1.316 1.316 0 0 0 .13-1.172.9.9 0 0 0-1.03-.507c.022-.838.194-6.895.294-8.234l.062-.972c.037-.544.073-1.1.12-1.658a8.586 8.586 0 0 1 .544-2.683.493.493 0 0 0 .042-.084c.126-.247.24-.493.19-.634a.13.13 0 0 0-.085-.083.257.257 0 0 0-.193.01 4.687 4.687 0 0 0-2.464 2.835 9.952 9.952 0 0 0-.392 1.255c-.8 3.27-.6 9.283-.56 10.314a.422.422 0 0 0-.125-.047.92.92 0 0 0-1.13.486 1.3 1.3 0 0 0 .13 1.17 1.73 1.73 0 0 0 1.213.645.3.3 0 0 0-.084.215.554.554 0 0 0 .063.314.392.392 0 0 0-.372.386.55.55 0 0 0 .19.492 1.63 1.63 0 0 0 .2.14.364.364 0 0 0-.148.477.728.728 0 0 0 .335.3.24.24 0 0 0-.084.058.26.26 0 0 0-.052.214.722.722 0 0 0 .45.59.067.067 0 0 0-.036.085.357.357 0 0 1-.083.335.375.375 0 0 1-.135-.063l-.032-.016c-.02-.01-.042-.026-.068-.037a.808.808 0 0 0-.266-.108.425.425 0 0 0-.446.22.594.594 0 0 0 .11.606.6.6 0 0 0 .507.256h.048c.063 0 .215-.005.256.037a.025.025 0 0 1 .01.022.545.545 0 0 1-.16.277l-.027.03c-.1.115-.2.225-.335.356a.08.08 0 0 0-.01.094l.047.09a4.79 4.79 0 0 1 .36.768c.057.167-.027.413-.236.722l-.024-.03-.2-.2a.393.393 0 0 0-.586.01.623.623 0 0 0-.136.31.84.84 0 0 0 .21.804 1.026 1.026 0 0 0 .408.21c.01 0 .047.01.088.02s.105.02.152.037a1.1 1.1 0 0 1-.115.126c-.036.037-.072.074-.104.11-.083.094-.162.19-.245.277a.074.074 0 0 0-.01.084c.037.09.377.168.93.215a1.1 1.1 0 0 0 .63.82H28a1.112 1.112 0 0 0 .628-.82c.555-.047.894-.126.93-.215a.1.1 0 0 0-.01-.084c-.083-.088-.162-.183-.246-.277-.03-.036-.067-.073-.1-.11s-.084-.083-.12-.125c.057-.015.115-.025.157-.036s.077-.02.082-.02a1.015 1.015 0 0 0 .413-.21.85.85 0 0 0 .21-.805.615.615 0 0 0-.137-.31.392.392 0 0 0-.585-.01l-.2.2c-.01.01-.016.02-.026.027a.927.927 0 0 1-.24-.722 5.405 5.405 0 0 1 .365-.77l.047-.088a.085.085 0 0 0-.01-.094c-.13-.13-.242-.24-.336-.356l-.026-.03a.545.545 0 0 1-.162-.278.026.026 0 0 1 .01-.022c.042-.042.194-.037.257-.037h.042a.66.66 0 0 0 .622-.862.4.4 0 0 0-.33-.22c.02-.005.047-.015.074-.026.074-.03.126-.057.168-.078a.786.786 0 0 1 .4.664 4.5 4.5 0 0 0 .414 1.758c.146.146.36-.032.5-.152a.837.837 0 0 1 .083-.068c.047.036.142.13.23.214.487.476 1.38 1.355 1.915 1.355a2.36 2.36 0 0 0 2.107-1.156c.3.193.612.365.92.527a5.432 5.432 0 0 0 1.11.43 6.737 6.737 0 0 0 .46 1.27 2.545 2.545 0 0 1 .178 2.53 1.13 1.13 0 0 1-.82.56 4.7 4.7 0 0 1-.608-.05 4.617 4.617 0 0 0-.533-.06 1.93 1.93 0 0 0-1.167.373 1.58 1.58 0 0 0-.69 1.244.507.507 0 0 0 .078.272.325.325 0 0 0 .288.157 1.43 1.43 0 0 0 .633-.246l.005-.005c.048.005.053.016.074.047.053.093.136.182.466.182a1.39 1.39 0 0 0 1.025-.32.3.3 0 0 1 .068.06.344.344 0 0 0 .136.11 1.007 1.007 0 0 0 .412.04.932.932 0 0 1 .115 0c.052 0 .115 0 .183.01a1.194 1.194 0 0 0 .775-.12.938.938 0 0 0 .564.163l.156.015a1.39 1.39 0 0 0 .952-.115 1.01 1.01 0 0 0 .387-.67 1.786 1.786 0 0 0-.262-1.234.11.11 0 0 1-.033-.095c.016-.052.14-.1.214-.136l.08-.032c.783-.31 1.757-.7 2.023-1.585a.3.3 0 0 0-.032-.26.31.31 0 0 0-.23-.11c-.052-.006-.12-.006-.193-.006-.534-.006-1.014-.042-1.014-.445a1.747 1.747 0 0 1 .22-.722.92.92 0 0 0 .04-.11c.074-.156.158-.313.236-.47.09-.173.184-.345.262-.534.026-.057.062-.13.115-.225.1-.04.2-.077.31-.12.79-.313 1.563-.674 2.31-1.02.262-.124.53-.245.8-.365a9.97 9.97 0 0 1 3.71-.894 2.542 2.542 0 0 0 .2 1.423 3.67 3.67 0 0 0 .4.722c.025-.063.04-.12.062-.183.225-.638.424-1.287.59-1.946a1.333 1.333 0 0 1 .038-.15 23.283 23.283 0 0 0 .66-5.566c0-.764-.037-1.51-.11-2.254zM28.525 32.6h.14a.265.265 0 0 0 .17-.052.053.053 0 0 0 .046.026c.01.005.022.016.032.02a.576.576 0 0 0 .188.064.89.89 0 0 0-.245.1c-.027.01-.047.027-.074.037a.1.1 0 0 1-.025.016.352.352 0 0 1-.14.064.393.393 0 0 1-.09-.274z" fill="#feb613"/><path d="M49.508 19.848a.94.94 0 0 0-.2.3.755.755 0 0 1-.214-.466 1.073 1.073 0 0 1 .172-.513c-.026-.058-.046-.12-.068-.178a1.207 1.207 0 0 0-.26.69c0 .282.245.643.39.643a.1.1 0 0 0 .11-.09.747.747 0 0 1 .132-.213c-.02-.06-.04-.116-.062-.174zM47.714 18.7a1.472 1.472 0 0 1-.544-.622.84.84 0 0 1 .016-.774.743.743 0 0 1 .65-.42 1.08 1.08 0 0 1 .454.095c-.037-.07-.068-.137-.1-.2a1.185 1.185 0 0 0-.356-.048.893.893 0 0 0-.78.5 1.255 1.255 0 0 0 .482 1.538c.136.1.215.12.267.068h.006a2.59 2.59 0 0 1 1.045-.664c-.022-.048-.043-.1-.064-.147a2.78 2.78 0 0 0-1.076.673zm2.41 3.232a2.393 2.393 0 0 1-.35-.073c-.177-.06-.4-.142-.637-.236a2.864 2.864 0 0 0-1.57-.346c-.27.1-.323.377-.37.6s-.07.308-.163.308c-.26 0-.418-.685-.528-1.145l-.026-.124a1.073 1.073 0 0 1 .35-.916.07.07 0 0 0 .02-.063.065.065 0 0 0-.025-.057 2.737 2.737 0 0 1-.994-2.495 3.23 3.23 0 0 1 1.586-1.966c-.026-.043-.052-.09-.083-.132a3.376 3.376 0 0 0-1.653 2.06 2.81 2.81 0 0 0 .983 2.6 1.175 1.175 0 0 0-.335 1.014l.032.126c.136.6.293 1.265.674 1.265.236 0 .278-.23.32-.434s.078-.42.266-.492a3 3 0 0 1 1.46.35c.24.094.465.178.653.235a2.826 2.826 0 0 0 .434.09 1.608 1.608 0 0 0-.042-.168zm-2.708 3.38c.215-.012.44-.022.654-.022.178 0 .36-.01.54-.01.506-.01 1.03-.02 1.547-.02.178 0 .36-.007.533-.017 0-.052 0-.105-.01-.157-.173.01-.35.016-.523.016-.518 0-1.04.01-1.548.02-.184 0-.362 0-.54.01-.22 0-.445.01-.66.022a14.688 14.688 0 0 1-1.678-.01 1.2 1.2 0 0 1-.424-.095l.08-.032a.083.083 0 0 0 .046-.073v-.016a.076.076 0 0 0-.047-.058 4.244 4.244 0 0 1-.3-.513 2.415 2.415 0 0 1-.163-.514c0-.01-.005-.02-.005-.04a.494.494 0 0 1-.027-.116c.02.01.042.015.063.026a2.167 2.167 0 0 1 .21.083c.1.052.172.083.24.036s.063-.13.042-.288a5.318 5.318 0 0 0-.163-.648 3.33 3.33 0 0 1-.146-.633.185.185 0 0 1 .093 0c.09.01.256.037.3-.157 0-.042.4-3.792-.544-4.372.03-.032.06-.068.1-.105A2.747 2.747 0 0 0 46 15.6a.133.133 0 0 0-.073-.126c-.048-.02-.178-.078-.822.565-.245.245-.4.375-.66.114a6.244 6.244 0 0 0-1.086-.832h-.022c-.183-.078-.554-.246-.76-.047a.625.625 0 0 0-.124.382.577.577 0 0 1-.126.366.16.16 0 0 1-.162.037.683.683 0 0 1-.382-.288 2.35 2.35 0 0 0-1.092-.65.426.426 0 0 0-.414.07.85.85 0 0 0-.162.674.6.6 0 0 1-.016.25 1.455 1.455 0 0 1-.37-.187 2.262 2.262 0 0 0-.854-.383 5.893 5.893 0 0 0-1.616.1c-.062.068-.03.19.068.45.017.042.032.084.037.1a.29.29 0 0 1-.08.272 1.265 1.265 0 0 1-.35.26 1.854 1.854 0 0 0-.172.115 1.3 1.3 0 0 1-.8.162 2.28 2.28 0 0 0-.465.032 5.773 5.773 0 0 0-.622.156 3.923 3.923 0 0 1-.81.183c-.017 0-.043 0-.07.01a.622.622 0 0 1-.156.015c0-.016-.005-.032-.005-.053a.583.583 0 0 1 0-.167c0-.042.005-.078.005-.12a.924.924 0 0 0-.09-.413.91.91 0 0 0-.558-.43 1.276 1.276 0 0 0-.947.084c-.67.367-.554 1.22-.476 1.564a3.744 3.744 0 0 0 .967 1.616l.125.142a9.438 9.438 0 0 0 1.7 1.52.08.08 0 0 0 .125-.06l-.042-.587c.7.55.727.55.76.55.06 0 .093 0 .244-.622.23.282.8.993 1.04 1.35a7.887 7.887 0 0 1-2.552-.618c-.4-.2-.71-.345-1.01-.466-.03-.015-.067-.026-.1-.04a1.146 1.146 0 0 0-1.013-.106.44.44 0 0 0-.246.408c.025.324.37.57.632.737a.934.934 0 0 0-.414.623c-.1.476-.344 1.208-.344 1.213a.07.07 0 0 0 .01.072.084.084 0 0 0 .068.032c.193-.01 1-.068 1.417-.13-.226.23-.393.428-.34.574a.18.18 0 0 0 .166.12 3.27 3.27 0 0 0 1.27-.24.517.517 0 0 0 .294.34.5.5 0 0 0 .41-.042.743.743 0 0 0 .29-.256.233.233 0 0 1 .026.042c.032.068.073.152.126.24.14.23.45.6.68.518.094-.036.125-.136.15-.235a.4.4 0 0 1 .252-.31c.2-.067.325-.035.377.017a.11.11 0 0 1 .027.12 1.7 1.7 0 0 1-.586.753 2.08 2.08 0 0 1-.323.173c-.09.042-.183.084-.267.13a4 4 0 0 0-.57.42 10.01 10.01 0 0 0-1.464 1.558 5.313 5.313 0 0 0-1.093 3.56 4.32 4.32 0 0 0 .09.582c-.713-.6-2.392-2.28-2.747-2.64a1.183 1.183 0 0 0 .3-.3 1.316 1.316 0 0 0 .13-1.172.9.9 0 0 0-1.03-.507c.022-.838.194-6.895.294-8.234l.062-.972c.037-.544.073-1.1.12-1.658a8.586 8.586 0 0 1 .544-2.683.493.493 0 0 0 .042-.084c.126-.247.24-.493.19-.634a.13.13 0 0 0-.085-.083.257.257 0 0 0-.193.01 4.687 4.687 0 0 0-2.464 2.835 9.952 9.952 0 0 0-.392 1.255c-.8 3.27-.6 9.283-.56 10.314a.422.422 0 0 0-.125-.047.92.92 0 0 0-1.13.486 1.3 1.3 0 0 0 .13 1.17 1.73 1.73 0 0 0 1.213.645.3.3 0 0 0-.084.215.554.554 0 0 0 .063.314.392.392 0 0 0-.372.386.55.55 0 0 0 .19.492 1.63 1.63 0 0 0 .2.14.364.364 0 0 0-.148.477.728.728 0 0 0 .335.3.24.24 0 0 0-.084.058.26.26 0 0 0-.052.214.722.722 0 0 0 .45.59.067.067 0 0 0-.036.085.357.357 0 0 1-.083.335.375.375 0 0 1-.135-.063l-.032-.016c-.02-.01-.042-.026-.068-.037a.808.808 0 0 0-.266-.108.425.425 0 0 0-.446.22.594.594 0 0 0 .11.606.6.6 0 0 0 .507.256h.048c.063 0 .215-.005.256.037a.025.025 0 0 1 .01.022.545.545 0 0 1-.16.277l-.027.03c-.1.115-.2.225-.335.356a.08.08 0 0 0-.01.094l.047.09a4.79 4.79 0 0 1 .36.768c.057.167-.027.413-.236.722l-.024-.03-.2-.2a.393.393 0 0 0-.586.01.623.623 0 0 0-.136.31.84.84 0 0 0 .21.804 1.026 1.026 0 0 0 .408.21c.01 0 .047.01.088.02s.105.02.152.037a1.1 1.1 0 0 1-.115.126c-.036.037-.072.074-.104.11-.083.094-.162.19-.245.277a.074.074 0 0 0-.01.084c.037.09.377.168.93.215a1.1 1.1 0 0 0 .63.82H28a1.112 1.112 0 0 0 .628-.82c.555-.047.894-.126.93-.215a.1.1 0 0 0-.01-.084c-.083-.088-.162-.183-.246-.277-.03-.036-.067-.073-.1-.11s-.084-.083-.12-.125c.057-.015.115-.025.157-.036s.077-.02.082-.02a1.015 1.015 0 0 0 .413-.21.85.85 0 0 0 .21-.805.615.615 0 0 0-.137-.31.392.392 0 0 0-.585-.01l-.2.2c-.01.01-.016.02-.026.027a.927.927 0 0 1-.24-.722 5.405 5.405 0 0 1 .365-.77l.047-.088a.085.085 0 0 0-.01-.094c-.13-.13-.242-.24-.336-.356l-.026-.03a.545.545 0 0 1-.162-.278.026.026 0 0 1 .01-.022c.042-.042.194-.037.257-.037h.042a.66.66 0 0 0 .622-.862.4.4 0 0 0-.33-.22c.02-.005.047-.015.074-.026.074-.03.126-.057.168-.078a.786.786 0 0 1 .4.664 4.5 4.5 0 0 0 .414 1.758c.146.146.36-.032.5-.152a.837.837 0 0 1 .083-.068c.047.036.142.13.23.214.487.476 1.38 1.355 1.915 1.355a2.36 2.36 0 0 0 2.107-1.156c.3.193.612.365.92.527a5.432 5.432 0 0 0 1.11.43 6.737 6.737 0 0 0 .46 1.27 2.545 2.545 0 0 1 .178 2.53 1.13 1.13 0 0 1-.82.56 4.7 4.7 0 0 1-.608-.05 4.617 4.617 0 0 0-.533-.06 1.93 1.93 0 0 0-1.167.373 1.58 1.58 0 0 0-.69 1.244.507.507 0 0 0 .078.272.325.325 0 0 0 .288.157 1.43 1.43 0 0 0 .633-.246l.005-.005c.048.005.053.016.074.047.053.093.136.182.466.182a1.39 1.39 0 0 0 1.025-.32.3.3 0 0 1 .068.06.344.344 0 0 0 .136.11 1.007 1.007 0 0 0 .412.04.932.932 0 0 1 .115 0c.052 0 .115 0 .183.01a1.194 1.194 0 0 0 .775-.12.938.938 0 0 0 .564.163l.156.015a1.39 1.39 0 0 0 .952-.115 1.01 1.01 0 0 0 .387-.67 1.786 1.786 0 0 0-.262-1.234.11.11 0 0 1-.033-.095c.016-.052.14-.1.214-.136l.08-.032c.783-.31 1.757-.7 2.023-1.585a.3.3 0 0 0-.032-.26.31.31 0 0 0-.23-.11c-.052-.006-.12-.006-.193-.006-.534-.006-1.014-.042-1.014-.445a1.747 1.747 0 0 1 .22-.722.92.92 0 0 0 .04-.11c.074-.156.158-.313.236-.47.09-.173.184-.345.262-.534.026-.057.062-.13.115-.225.1-.04.2-.077.31-.12.79-.313 1.563-.674 2.31-1.02.262-.124.53-.245.8-.365a9.97 9.97 0 0 1 3.71-.894 2.542 2.542 0 0 0 .2 1.423 3.67 3.67 0 0 0 .4.722c.025-.063.04-.12.062-.183a4.1 4.1 0 0 1-.32-.6 2.387 2.387 0 0 1-.176-1.37c.062-.006.13-.006.193-.006h.056a6.607 6.607 0 0 1 .837.03 1.333 1.333 0 0 1 .037-.15 5.5 5.5 0 0 0-.874-.032h-.063a10.315 10.315 0 0 0-4.126.92c-.262.12-.528.242-.79.367-.748.346-1.522.707-2.306 1.016-.046.02-.094.04-.14.057.02-.042.046-.083.067-.125a8.2 8.2 0 0 0 1.256-3.787c0-.124-.005-.25-.016-.375a.073.073 0 0 0-.084-.068.078.078 0 0 0-.073.073v.01c.01.12.016.24.016.36a8.037 8.037 0 0 1-1.24 3.714c-.062.116-.12.215-.172.31-.058.114-.1.2-.126.266-.073.178-.167.35-.256.523-.084.157-.167.314-.24.476-.016.035-.027.067-.042.1a1.92 1.92 0 0 0-.23.79c0 .59.727.6 1.166.6h.19a.145.145 0 0 1 .108.046.142.142 0 0 1 .01.125c-.245.812-1.182 1.19-1.935 1.487l-.074.03c-.126.048-.277.11-.314.236a.267.267 0 0 0 .053.225 1.642 1.642 0 0 1 .24 1.12.86.86 0 0 1-.324.564 1.277 1.277 0 0 1-.846.1 1.505 1.505 0 0 0-.162-.016c-.435-.037-.477-.13-.477-.13a.08.08 0 0 0-.04-.085.076.076 0 0 0-.1.028s-.016.02-.037.04c-.136.132-.455.116-.69.1-.068-.004-.13-.01-.184-.01s-.083.006-.125.006a.95.95 0 0 1-.36-.024.306.306 0 0 1-.083-.073.263.263 0 0 0-.178-.11.152.152 0 0 0-.11.047 1.25 1.25 0 0 1-.916.272c-.272 0-.3-.057-.335-.1a.223.223 0 0 0-.226-.126.067.067 0 0 0-.042.016l-.02.016c-.288.172-.6.324-.712.14a.5.5 0 0 1-.057-.2 1.435 1.435 0 0 1 .632-1.108 1.726 1.726 0 0 1 1.068-.34c.167.005.344.032.517.052a4.04 4.04 0 0 0 .628.058 1.27 1.27 0 0 0 .952-.633 2.7 2.7 0 0 0-.168-2.682 6.7 6.7 0 0 1-.465-1.287 8.1 8.1 0 0 1-.24-2.012 7.72 7.72 0 0 1 .125-1.444.018.018 0 0 0 0-.015.084.084 0 0 0-.063-.08.078.078 0 0 0-.095.058 7.857 7.857 0 0 0-.13 1.48 8.38 8.38 0 0 0 .22 1.925 5.045 5.045 0 0 1-.995-.4 6.382 6.382 0 0 1-1.68-1.13 6.015 6.015 0 0 1-1.725-3.44 5.168 5.168 0 0 1 1.067-3.458 9.483 9.483 0 0 1 1.44-1.538 3.79 3.79 0 0 1 .553-.4 2.168 2.168 0 0 1 .246-.126 1.706 1.706 0 0 0 .35-.187 1.826 1.826 0 0 0 .645-.826.268.268 0 0 0-.063-.283.513.513 0 0 0-.534-.052.532.532 0 0 0-.35.413c-.02.063-.037.12-.063.13-.078.032-.308-.156-.486-.454-.054-.083-.095-.16-.127-.224-.063-.13-.1-.2-.178-.194s-.09.08-.1.105a.493.493 0 0 1-.246.225.364.364 0 0 1-.283.037.387.387 0 0 1-.21-.263c-.02-.058-.036-.1-.088-.11a.083.083 0 0 0-.07.016 3.292 3.292 0 0 1-1.234.246.186.186 0 0 1-.04-.012c-.017-.042.04-.15.37-.48.115-.12.152-.158.11-.22a.087.087 0 0 0-.115-.022 12.577 12.577 0 0 1-1.49.163c.073-.226.235-.755.32-1.12a.7.7 0 0 1 .444-.57h.01a3.9 3.9 0 0 1 .863.266 9.865 9.865 0 0 0 1.574.277c.3.037.577.073.65.094-.005 0-.016.01-.02.016-.027.026-.184.24-.127.376a.167.167 0 0 0 .168.1 4.31 4.31 0 0 1 .445.04c.795.084 1.094.1 1.177.022.1-.11-.005-.356-.272-.863-.047-.09-.09-.17-.12-.237-.152-.3-1.22-1.61-1.26-1.663a.07.07 0 0 0-.08-.026.082.082 0 0 0-.062.052c-.052.24-.12.508-.162.628-.136-.1-.465-.356-.764-.59a.07.07 0 0 0-.083 0 .077.077 0 0 0-.043.072l.042.59a8.986 8.986 0 0 1-1.534-1.4c-.04-.05-.083-.093-.125-.145a3.51 3.51 0 0 1-.935-1.547c-.073-.31-.178-1.073.4-1.392a1.118 1.118 0 0 1 .825-.067.77.77 0 0 1 .47.35.7.7 0 0 1 .07.34.855.855 0 0 1 0 .11.87.87 0 0 0 0 .2.1.1 0 0 1 0 .037c0 .068.025.094.083.126a.45.45 0 0 0 .256.005.3.3 0 0 1 .057-.01 4.417 4.417 0 0 0 .842-.188 4.61 4.61 0 0 1 .6-.157 2.472 2.472 0 0 1 .444-.026 1.435 1.435 0 0 0 .878-.194c.047-.032.105-.068.168-.105a1.707 1.707 0 0 0 .387-.3.46.46 0 0 0 .11-.407l-.042-.12a1.22 1.22 0 0 1-.09-.278 7.667 7.667 0 0 1 1.485-.065 2.194 2.194 0 0 1 .79.356c.27.167.45.277.554.172.078-.078.073-.214.068-.376a.716.716 0 0 1 .115-.555.258.258 0 0 1 .21-.036 2.452 2.452 0 0 1 1.04.56.813.813 0 0 0 .492.387.306.306 0 0 0 .307-.078.7.7 0 0 0 .167-.46.51.51 0 0 1 .084-.284c.126-.13.45.01.586.073l.016.005a5.693 5.693 0 0 1 1.046.8.483.483 0 0 0 .5.172 1.122 1.122 0 0 0 .382-.287 3.18 3.18 0 0 1 .628-.523 2.6 2.6 0 0 1-.858 1.9 1.908 1.908 0 0 0-.178.194.062.062 0 0 0-.01.07.08.08 0 0 0 .047.05c.88.3.617 3.882.544 4.237-.01.047-.02.058-.13.042a.22.22 0 0 0-.057 0 1.065 1.065 0 0 1-.257-.226c-.115-.12-.24-.267-.334-.37-.12-.137-.236-.268-.314-.352a1.49 1.49 0 0 1-.324-.7c-.032-.116-.063-.23-.1-.356-.11-.32-.288-.528-.4-.55a.094.094 0 0 0-.1.032.2.2 0 0 0 0 .194 3.96 3.96 0 0 1-.016 1.192c-.136-.115-.423-.387-.685-.638a.082.082 0 0 0-.11 0 .08.08 0 0 0 .006.11c.747.727.788.727.83.727a.092.092 0 0 0 .07-.037 3.89 3.89 0 0 0 .07-1.338 1.256 1.256 0 0 1 .184.355c.037.12.068.23.1.345a1.575 1.575 0 0 0 .36.77c.08.078.19.208.31.34a5.436 5.436 0 0 0 .528.56.112.112 0 0 0-.02.035 1.7 1.7 0 0 0 .135.738 4.37 4.37 0 0 1 .157.623.75.75 0 0 1 .01.126.524.524 0 0 0-.073-.033 1.516 1.516 0 0 0-.224-.094.12.12 0 0 1-.026-.015c-.02-.006-.042-.016-.063-.02a6.21 6.21 0 0 1-1.04-.864c-.466-.445-.6-.555-.7-.53a.108.108 0 0 0-.07.075c-.03.1-.182.218-.276.286-.5-.5-.533-.465-.59-.43-.042.033-.042.085-.006.148a.272.272 0 0 1-.026.183 1.317 1.317 0 0 1-.35.48l-.7-.752a.08.08 0 0 0-.11 0 .076.076 0 0 0-.005.11c.026.03.654.716.727.784.03.03.09.05.183-.017a1.337 1.337 0 0 0 .44-.7c.1.088.245.224.366.35a.072.072 0 0 0 .093.01 1.055 1.055 0 0 0 .376-.35 4.674 4.674 0 0 1 .528.47 7.766 7.766 0 0 0 .962.822.71.71 0 0 0 .036.235.254.254 0 0 0 .006.037 2.443 2.443 0 0 0 .172.544c.016.027.09.173.168.31a1.724 1.724 0 0 0 .11.188c-.027.01-.058.026-.09.04a4.858 4.858 0 0 1-.632-.05c-.267-.037-.7-.52-.99-.838s-.38-.413-.464-.392a.087.087 0 0 0-.073.068.894.894 0 0 0-.037.178c-.026.157-.068.382-.162.45a.11.11 0 0 1-.09.01 2.45 2.45 0 0 1-.63-.523c-.337-.34-.54-.543-.66-.417l-.038.03a1.6 1.6 0 0 1-.22.195v-.02c0-.28-.637-.87-.81-.87a.11.11 0 0 0-.11.11 1.993 1.993 0 0 1-.35.665 8.123 8.123 0 0 1-.816-1.057.077.077 0 0 0-.11-.02.076.076 0 0 0-.016.104c.346.512.8 1.13.947 1.145a.116.116 0 0 0 .08-.03 2.27 2.27 0 0 0 .413-.744c.178.09.617.53.617.7a.172.172 0 0 0 .09.178c.11.042.234-.073.4-.24l.02-.016a2.686 2.686 0 0 1 .455.4 2.175 2.175 0 0 0 .712.57.267.267 0 0 0 .21-.037c.145-.1.187-.35.224-.55.006-.025.012-.057.016-.083.068.063.19.2.293.31.34.375.763.84 1.082.883a5.238 5.238 0 0 0 .627.057h.02a.835.835 0 0 0 .288.13c.272.23.476.388.617.5.068.053.136.106.178.137a.576.576 0 0 1-.1.02c-.068.016-.163.03-.267.057a2.36 2.36 0 0 1-.628.037.794.794 0 0 0-.6.115.63.63 0 0 0-.146.47 5.4 5.4 0 0 0 .04.59 1.784 1.784 0 0 1 .012.273 1.043 1.043 0 0 1-.194-.094 4.215 4.215 0 0 1-.455-.32c-.324-.246-.606-.466-.81-.414a.25.25 0 0 0-.162.147c-.178.392-.712 1.04-.832 1.01 0 0-.02-.022-.02-.126a2.437 2.437 0 0 0-1.02-1.674.178.178 0 0 0-.214.1 3.8 3.8 0 0 1-.612.857c-.063-.245-.35-.774-.534-.79-.03-.005-.125 0-.15.142a3.224 3.224 0 0 1-.488.873c-.188-1.14-.235-1.14-.313-1.135s-.085.105-.085.19c0 .39-.7 1.03-.952 1.19-.005-1.055-.14-1.113-.188-1.134a.12.12 0 0 0-.136.037 1.863 1.863 0 0 1-.875.293c.037-.162.236-.743.43-1.266a.08.08 0 0 0-.153-.052c-.068.2-.44 1.208-.44 1.35a.118.118 0 0 0 .08.104 1.707 1.707 0 0 0 1.04-.3 4.046 4.046 0 0 1 .09 1.066.08.08 0 0 0 .025.068.088.088 0 0 0 .063.02 2.64 2.64 0 0 0 1.125-1.154c.047.245.11.6.162.925a.08.08 0 0 0 .058.063.075.075 0 0 0 .083-.026 4.02 4.02 0 0 0 .622-1.083v-.01a1.6 1.6 0 0 1 .387.712.112.112 0 0 0 .08.11c.192.042.72-.764.82-.99.01-.02.016-.02.037-.014a2.32 2.32 0 0 1 .9 1.522c0 .162.048.256.142.277h.03c.3 0 .864-.853.974-1.1a.085.085 0 0 1 .057-.058c.13-.032.424.187.68.386a5.608 5.608 0 0 0 .47.33c.168.094.278.14.362.088s.077-.188.052-.418a4.99 4.99 0 0 1-.037-.575.5.5 0 0 1 .094-.355c.093-.09.265-.084.485-.073a2.5 2.5 0 0 0 .67-.042c.1-.026.193-.042.26-.058.158-.03.242-.047.257-.12.02-.09-.047-.14-.272-.308-.1-.08-.24-.183-.412-.325a15.305 15.305 0 0 0 1.718.004zm-19.838-8.576a9.67 9.67 0 0 1 .387-1.234 4.54 4.54 0 0 1 2.375-2.746c.016-.005.057-.02.073-.015.02.032 0 .147-.178.5l-.047.095a8.645 8.645 0 0 0-.56 2.73c-.046.554-.083 1.12-.12 1.663-.02.324-.036.65-.062.973-.1 1.366-.278 7.62-.293 8.28a.62.62 0 0 0-.4.45.576.576 0 0 0 .1.56.017.017 0 0 1 .006.015.1.1 0 0 1-.033.09c-.146.167-.664.214-.847.22a1.57 1.57 0 0 1-.847-.22.114.114 0 0 1-.036-.09c0-.005 0-.01.01-.015a.576.576 0 0 0 .1-.56.71.71 0 0 0-.173-.31c-.034-.504-.292-6.963.544-10.384zm-1.71 11.8a1.153 1.153 0 0 1-.115-1.026.766.766 0 0 1 .952-.392.46.46 0 0 1 .345.356.435.435 0 0 1-.057.408.167.167 0 0 0-.053.12.267.267 0 0 0 .074.2c.22.24.883.267.962.272s.743-.032.962-.272a.26.26 0 0 0 .073-.2.19.19 0 0 0-.05-.12.437.437 0 0 1-.064-.408.48.48 0 0 1 .35-.356.752.752 0 0 1 .947.392 1.132 1.132 0 0 1-.11 1.026c-.318.46-1.03.67-2.112.627h-.486a1.97 1.97 0 0 1-1.616-.627zm2.976 1.443a.274.274 0 0 1 .037.067l-.025.09a1.566 1.566 0 0 1-.152.062.658.658 0 0 0-.073.025 1.1 1.1 0 0 1-.46-.068c-.2-.073-.42-.146-.633-.21-.173-.062-.31-.125-.366-.15-.11-.064-.14-.09-.14-.32a.152.152 0 0 1 .04-.11.23.23 0 0 1 .153-.047h.256a.877.877 0 0 1 .114 0 1.406 1.406 0 0 1 1.25.66zm-1.993.574c-.124-.1-.13-.2-.13-.37 0-.2.2-.23.262-.236.152.042.33.1.523.162s.42.146.623.2a3.71 3.71 0 0 1 .57.25c.057.042.125.1.115.168-.01.084-.115.173-.25.22a.783.783 0 0 1-.273.01h-.032c-.172-.016-.345-.042-.49-.068-.1-.02-.2-.042-.3-.058-.07-.015-.137-.03-.2-.042a1.037 1.037 0 0 1-.417-.236zm.086.665c-.07-.127.052-.232.1-.273.387.047 1.354.188 1.36.188a.93.93 0 0 1 .512.324c.026.04.052.1.03.14-.035.058-.177.095-.36.095a8.635 8.635 0 0 1-1.05-.147l-.095-.016a.713.713 0 0 1-.497-.313zm2.107-1.178a.247.247 0 0 1 .037-.094 2.3 2.3 0 0 1 .585-.4c.043.01.1.02.11.042 0 0 .01.036-.037.136a1.6 1.6 0 0 1-.32.4l-.035.037c-.12.12-.256.256-.408.225a.023.023 0 0 1-.016-.005v-.053l.026-.09a.392.392 0 0 0 .052-.077.224.224 0 0 0 .005-.12zm.03 1.632a.27.27 0 0 0-.035-.293l-.032-.046a.392.392 0 0 0 .042.015.09.09 0 0 0 .042.005.464.464 0 0 0 .23-.11 2.115 2.115 0 0 0 .34-.32.47.47 0 0 1-.042.58 3.273 3.273 0 0 0-.24.263c-.136.162-.19.22-.283.2a.36.36 0 0 1-.21-.162.32.32 0 0 0 .19-.132zm-1.918.172a.11.11 0 0 1 .016-.09.117.117 0 0 1 .084-.03 4.943 4.943 0 0 1 .9.12c.125.032.246.058.36.1a.442.442 0 0 1 .236.235.24.24 0 0 1 .016.22c-.006.01-.026.048-.1.048h-.01a1.48 1.48 0 0 0-.17-.006c-.53-.005-1.248-.01-1.33-.596zm1.68.7a.053.053 0 0 0 .046.026c.01.005.022.016.032.02a.576.576 0 0 0 .188.064.89.89 0 0 0-.245.1c-.027.01-.047.027-.074.037a.1.1 0 0 1-.025.016.352.352 0 0 1-.14.062.393.393 0 0 1-.09-.278h.14a.265.265 0 0 0 .17-.047zm.59.387a.468.468 0 0 1-.09.45.46.46 0 0 1-.39.2h-.038a.5.5 0 0 0-.37.078.173.173 0 0 0-.054.132.638.638 0 0 0 .194.376l.026.032a3.455 3.455 0 0 0 .3.324l-.02.042a5.26 5.26 0 0 0-.377.795 1.057 1.057 0 0 0 .262.864.17.17 0 0 0 .114.083.143.143 0 0 0 .12-.068c.01 0 .016-.016.027-.027l.2-.2a.243.243 0 0 1 .187-.08.216.216 0 0 1 .167.085.394.394 0 0 1 .1.23.675.675 0 0 1-.157.664.862.862 0 0 1-.346.173.793.793 0 0 0-.082.02c-.3.074-.3.074-.32.11a.077.077 0 0 0 0 .074 1.434 1.434 0 0 0 .2.24l.1.1c.06.072.116.135.174.2a4.074 4.074 0 0 1-.8.124.07.07 0 0 0-.068.063 1.015 1.015 0 0 1-.518.748 1.025 1.025 0 0 1-.517-.748.07.07 0 0 0-.07-.063 4.08 4.08 0 0 1-.8-.125c.062-.07.12-.132.178-.2l.1-.1a1.39 1.39 0 0 0 .2-.24.09.09 0 0 0 .005-.075c-.016-.036-.016-.036-.32-.11a.73.73 0 0 0-.083-.02.864.864 0 0 1-.345-.173.675.675 0 0 1-.157-.664.467.467 0 0 1 .094-.23.237.237 0 0 1 .173-.084.254.254 0 0 1 .19.08l.2.2c.01.01.015.02.025.025.032.036.063.073.12.067a.176.176 0 0 0 .116-.083c.245-.36.334-.644.256-.863a4.425 4.425 0 0 0-.37-.794l-.022-.042a3.455 3.455 0 0 0 .3-.324l.026-.032a.638.638 0 0 0 .194-.376.173.173 0 0 0-.053-.13.51.51 0 0 0-.37-.08h-.038a.448.448 0 0 1-.393-.2.468.468 0 0 1-.09-.45.265.265 0 0 1 .278-.124.61.61 0 0 1 .22.088.7.7 0 0 0 .073.042.086.086 0 0 1 .026.01c.084.053.23.13.314.048a.535.535 0 0 0 .13-.5l-.004-.005a2.842 2.842 0 0 0 .81.1.522.522 0 0 0 .142.4c.083.084.23.006.32-.046a.04.04 0 0 1 .02-.01l.073-.043a.612.612 0 0 1 .218-.087.268.268 0 0 1 .287.13zm-.178-.45a.25.25 0 0 1-.256-.026.156.156 0 0 0-.067-.03.424.424 0 0 0-.037-.32.7.7 0 0 0-.214-.262.206.206 0 0 0 .052 0 .53.53 0 0 0 .345.282.225.225 0 0 0 .062.006c.15 0 .24-.115.366-.262.042-.046.084-.1.13-.15a.825.825 0 0 1 .037.083.91.91 0 0 1-.136.46c-.074.127-.084.137-.283.22zm3.473-.66a6.652 6.652 0 0 0 1.61 2.7 4.5 4.5 0 0 0 .665.55 2.193 2.193 0 0 1-1.977 1.083c-.47 0-1.37-.884-1.8-1.308-.26-.256-.282-.27-.334-.27s-.1.035-.19.114c-.067.057-.25.21-.286.167a4.636 4.636 0 0 1-.377-1.654.95.95 0 0 0-.422-.774c.02-.026.036-.057.062-.1a.99.99 0 0 0 .147-.586 1.03 1.03 0 0 0-.068-.157.637.637 0 0 0 .035-.775.1.1 0 0 0-.03-.02.233.233 0 0 0 .036-.085c.063-.22.126-.455.016-.564a.077.077 0 1 0-.11.11c.017.015.042.083-.052.413a1.416 1.416 0 0 1-.413.443c-.1.073-.13.084-.135.08s-.016-.007-.047-.07a.6.6 0 0 1 .078-.433l.523-.53a.066.066 0 0 0 .02-.077 1.337 1.337 0 0 0 .21-.293.314.314 0 0 0 .042-.277.285.285 0 0 0-.215-.126c-.183-.042-.727.44-.732.44a.226.226 0 0 0-.016.026 1.42 1.42 0 0 0-.644-.534 3.078 3.078 0 0 0 1.46-.315c.324.34 2.324 2.355 2.944 2.82zm4.194-9.648a2.654 2.654 0 0 1 .293.68 6.656 6.656 0 0 1-1.046-.068c-.208-.02-.38-.042-.46-.042h-.02c-.016-.042.052-.173.09-.21.004-.005.01-.005.02-.01.037-.026.1-.068.09-.14s-.1-.11-.143-.12a5.963 5.963 0 0 0-.685-.106 10.108 10.108 0 0 1-1.532-.26 3.68 3.68 0 0 0-.926-.278h-.016c-.235-.146-.627-.392-.653-.68a.3.3 0 0 1 .167-.26c.256-.148.6 0 .873.114l.1.042c.293.12.6.266 1 .465a8.322 8.322 0 0 0 2.72.643zM37.725 19.116a.476.476 0 0 0 .37-.167.468.468 0 0 0 .1-.4.456.456 0 0 0-.282-.314.076.076 0 1 0-.057.14.31.31 0 0 1 .188.21.3.3 0 0 1-.068.26.376.376 0 0 1-.408.085c-.1-.035-.335-.135-.335-.318a.758.758 0 0 1 .188-.5.456.456 0 0 1 .53-.1 2.274 2.274 0 0 1 .392.188c.063.03.125.068.188.1.23.115.413.2.592.272a3.607 3.607 0 0 0 1.385.335h.173a.09.09 0 0 0 .068-.052.076.076 0 0 0-.02-.084l-.053-.05a2.467 2.467 0 0 1-.45-.535 3.383 3.383 0 0 0 2.463.35.087.087 0 0 0 .058-.052.075.075 0 0 0-.01-.073 2.35 2.35 0 0 0-.346-.34 1.688 1.688 0 0 1-.335-.335 4.134 4.134 0 0 0 2.652-.774.075.075 0 0 0 .005-.108.08.08 0 0 0-.11-.01 4.072 4.072 0 0 1-2.688.742.064.064 0 0 0-.063.036.078.078 0 0 0-.004.074 1.72 1.72 0 0 0 .44.5 1.85 1.85 0 0 1 .24.22 3.08 3.08 0 0 1-2.406-.486.08.08 0 0 0-.09-.006.078.078 0 0 0-.035.08 1.52 1.52 0 0 0 .5.752 3.535 3.535 0 0 1-1.313-.32c-.173-.072-.356-.156-.576-.266-.062-.03-.125-.068-.188-.1a2.313 2.313 0 0 0-.413-.2.62.62 0 0 0-.7.14.926.926 0 0 0-.23.608c0 .2.163.37.44.466a.8.8 0 0 0 .21.034zM42.306 20.058a.08.08 0 0 0-.078.078 1.59 1.59 0 0 1-.32.764 3.26 3.26 0 0 1-.46-.555.077.077 0 0 0-.088-.03.073.073 0 0 0-.053.072.972.972 0 0 1-.245.607l-.257-.256a.078.078 0 0 0-.083-.016.08.08 0 0 0-.047.073 1.754 1.754 0 0 1-.115.774 2.736 2.736 0 0 1-.758-.717.076.076 0 0 0-.085-.027.08.08 0 0 0-.052.068 3.27 3.27 0 0 1-.382.66 1.466 1.466 0 0 1-.8-.884.083.083 0 0 0-.1-.058.08.08 0 0 0-.053.094 1.6 1.6 0 0 0 .952 1.015.047.047 0 0 0 .026 0 .07.07 0 0 0 .063-.03 6.024 6.024 0 0 0 .388-.644c.21.24.612.675.8.675.2 0 .25-.407.266-.747l.183.183a.074.074 0 0 0 .1 0 1.19 1.19 0 0 0 .324-.56 3.783 3.783 0 0 0 .43.476.075.075 0 0 0 .058.016.063.063 0 0 0 .052-.026 1.88 1.88 0 0 0 .408-.93.08.08 0 0 0-.072-.074zM38.457 23.938c-.02 0-.078-.01-.115.074a4.948 4.948 0 0 1-.544.664l-.188-.753a.078.078 0 1 0-.152.036l.22.894a.082.082 0 0 0 .057.052.064.064 0 0 0 .073-.02 6.964 6.964 0 0 0 .612-.707 6.244 6.244 0 0 1 .058.653.087.087 0 0 0 .078.09c.13.03.58-.31.717-.613.063.005.246.136.81.92a1.48 1.48 0 0 0 .1.136.107.107 0 0 0 .064.026.08.08 0 0 0 .036 0 2.4 2.4 0 0 0 .43-.973 6.935 6.935 0 0 1 .95.847.178.178 0 0 0 .195.052c.125-.053.194-.247.194-.535V24.3a.073.073 0 0 0-.074-.078.074.074 0 0 0-.08.078v.476c0 .262-.067.377-.1.387-.01.006-.02-.01-.025-.015-.983-.978-1.088-.93-1.146-.91a.1.1 0 0 0-.062.1 3.163 3.163 0 0 1-.314.853.582.582 0 0 1-.04-.057c-.53-.732-.79-1-.963-.978a.14.14 0 0 0-.12.094 1.35 1.35 0 0 1-.492.5c-.01-.22-.042-.786-.178-.812z" fill="#000101"/></svg>