<svg xmlns="http://www.w3.org/2000/svg" viewBox="0 0 55 55"><path d="M27.5 33.855H5.084a22.963 22.963 0 0 0 1.67 4.236h41.5a23.03 23.03 0 0 0 1.667-4.235z" fill="#fff"/><path d="M27.5 38.09H6.753a23.36 23.36 0 0 0 2.787 4.237h35.92a23.443 23.443 0 0 0 2.793-4.236zM27.5 46.564H14.116A23.2 23.2 0 0 0 27.5 50.8a23.183 23.183 0 0 0 13.384-4.236z" fill="#bf0a30"/><path d="M27.5 42.327H9.54a23.6 23.6 0 0 0 4.576 4.237h26.768a23.453 23.453 0 0 0 4.576-4.237z" fill="#fff"/><path d="M27.5 29.618H4.3a23.166 23.166 0 0 0 .785 4.237H49.92a23.166 23.166 0 0 0 .786-4.237zM40.884 8.436A23.183 23.183 0 0 0 27.5 4.2v4.236z" fill="#bf0a30"/><path d="M27.5 21.145h22.42a23.03 23.03 0 0 0-1.667-4.236H27.5z" fill="#fff"/><path d="M27.5 16.91h20.753a23.686 23.686 0 0 0-2.788-4.237H27.5z" fill="#bf0a30"/><path d="M27.5 12.673h17.965a23.48 23.48 0 0 0-4.58-4.237H27.5z" fill="#fff"/><path d="M27.5 25.382h23.206a23.166 23.166 0 0 0-.785-4.237H27.5z" fill="#bf0a30"/><path d="M14.116 8.436a23.6 23.6 0 0 0-4.576 4.237 23.184 23.184 0 0 0-5.24 12.71h23.2V4.2a23.2 23.2 0 0 0-13.384 4.236z" fill="#002868"/><path d="M50.706 25.382H4.3c-.062.7-.1 1.4-.1 2.118s.037 1.423.1 2.118h46.406q.094-1.043.094-2.118t-.094-2.118zM17.49 10.14l1.407 4.337h4.56L19.77 17.16l1.407 4.336-3.687-2.678-3.693 2.678 1.412-4.336-3.693-2.683h4.56l1.413-4.336z" fill="#fff"/></svg>