<svg xmlns="http://www.w3.org/2000/svg" viewBox="0 0 55 55"><path d="M48.865 36.794a22.465 22.465 0 0 1-1.193 2.36 23.292 23.292 0 0 1-40.344 0 22.66 22.66 0 0 1-1.193-2.36z" fill="#009444"/><path d="M50.8 27.5a23.148 23.148 0 0 1-1.935 9.294H6.135a23.288 23.288 0 0 1 0-18.588h42.73A23.166 23.166 0 0 1 50.8 27.5z" fill="#fff"/><path d="M48.865 18.206H6.135a22.467 22.467 0 0 1 1.193-2.353 23.323 23.323 0 0 1 41.537 2.353z" fill="#07219d"/><path d="M33.7 31.27l-.413.21c-.115.063-.225.115-.34.167l-3.5-4.775a12.652 12.652 0 0 0 1.03-3.106 4.112 4.112 0 0 0-.544-3.295 2.84 2.84 0 0 0-1.888-1.13.573.573 0 0 0-.544-.38.585.585 0 0 0-.548.38 2.854 2.854 0 0 0-1.883 1.13 4.137 4.137 0 0 0-.545 3.296 12.626 12.626 0 0 0 1.03 3.106l-3.5 4.775c-.115-.052-.225-.1-.34-.167l-.413-.21-1.443 2.83.413.21a15.895 15.895 0 0 0 14.45 0l.418-.21zm-5.62-11.144a2.058 2.058 0 0 1 1.235.795 3.27 3.27 0 0 1 .418 2.678.8.8 0 0 0-.026.126 12.58 12.58 0 0 1-.78 2.448l-.642-.884V23.63h.89l-1.094-1.093zm-2.782 3.6c-.01-.047-.02-.09-.03-.126a3.293 3.293 0 0 1 .417-2.677 2.058 2.058 0 0 1 1.234-.795v2.41l-1.094 1.092h.89v1.658l-.644.884a11.717 11.717 0 0 1-.772-2.448zm-3.582 8.818l.245.7-.73.225zm-.246 1.3l.638-.193.183.53c-.276-.106-.548-.216-.82-.336zm.915-1.375c.36.15.717.28 1.078.4l.224.507-.89.266zm.7 1.976l-.136-.382.92-.283.434.985c-.413-.09-.82-.2-1.223-.32zm1.208-1.334c.345.09.7.167 1.046.225l.27.444-.9.28zm.79 1.8l-.194-.45.956-.293.55.9c-.444-.04-.878-.086-1.318-.16zm1.093-1.46a12.943 12.943 0 0 0 1.61.07l.183.28-1.324.42zM27.18 35.1l-.3-.5 1.334-.418.56.868a14.776 14.776 0 0 1-1.593.05zm1.356-1.627c.423-.03.847-.09 1.265-.162l.247.33-1.072.518zm.962 1.5l-.282-.44 1.1-.533.538.727c-.454.106-.9.184-1.354.247zm1.01-1.81c.376-.094.748-.2 1.12-.324l.26.375-.888.608zm1.03 1.39l-.278-.375.87-.6.438.643c-.34.13-.68.24-1.03.335zm.727-1.944c.287-.11.575-.237.863-.373l.235.45-.57.7zm.93 1.374l-.146-.214.533-.664.3.575c-.22.112-.452.21-.683.305z"/></svg>