<svg xmlns="http://www.w3.org/2000/svg" viewBox="0 0 55 55"><path d="M14.362 8.264v38.472a23.287 23.287 0 0 1 0-38.472z" fill="#0846ac"/><path d="M50.8 27.5a23.3 23.3 0 0 1-10.157 19.236V8.264A23.3 23.3 0 0 1 50.8 27.5z" fill="#cb0b2e"/><path d="M40.643 8.264v38.472a23.276 23.276 0 0 1-26.28 0V8.264a23.276 23.276 0 0 1 26.28 0zM26.27 17.193a.473.473 0 0 1 .058.225.43.43 0 0 1-.057.214 1.16 1.16 0 0 0-.088-.12h-.56v1.73h.01a.6.6 0 0 0 .12.09.52.52 0 0 0-.1.142c-.036.068-.083.156-.124.156s-.085-.088-.12-.156a.446.446 0 0 0-.1-.142.738.738 0 0 0 .125-.09h.005v-1.735h-.544a1.334 1.334 0 0 0-.09.12.446.446 0 0 1-.056-.22.48.48 0 0 1 .057-.22.906.906 0 0 0 .09.127l.005.005h.538v-.514h-.005l-.12-.094a.467.467 0 0 1 .44 0 1.145 1.145 0 0 0-.12.094h-.012v.513h.56v-.006a.827.827 0 0 0 .09-.12z" fill="#fed117"/><path d="M26.308 17.162l-.032-.053-.02.03a1.425 1.425 0 0 1-.1.137h-.5v-.445a.9.9 0 0 1 .14-.1l.033-.02-.054-.033a.515.515 0 0 0-.507 0l-.048.03.03.022a.968.968 0 0 1 .137.1v.445h-.477a.78.78 0 0 1-.1-.136l-.02-.03-.027.052a.477.477 0 0 0 0 .507l.026.05.02-.03a.934.934 0 0 1 .1-.14h.477v1.667a1.036 1.036 0 0 1-.137.1l-.03.02.046.027a.424.424 0 0 1 .1.13c.05.095.1.178.16.178s.11-.083.162-.178a.43.43 0 0 1 .09-.13l.052-.026-.032-.02a.958.958 0 0 1-.14-.1v-1.67h.5c.056.074.1.142.1.142l.02.03.03-.05a.55.55 0 0 0 0-.508zm-.037.47a1.16 1.16 0 0 0-.088-.12h-.56v1.73a1.185 1.185 0 0 0 .126.09.7.7 0 0 0-.1.142c-.037.068-.084.156-.12.156s-.09-.088-.126-.156a.446.446 0 0 0-.1-.142.576.576 0 0 0 .12-.09h.01v-1.735h-.538a1.334 1.334 0 0 0-.09.12.442.442 0 0 1-.056-.214.45.45 0 0 1 .057-.22.89.89 0 0 0 .09.115l.005.01h.538v-.512h-.01c-.047-.042-.09-.073-.115-.094a.472.472 0 0 1 .434 0l-.12.094v.513h.56v-.012a.807.807 0 0 0 .088-.115.394.394 0 0 1 .057.22.385.385 0 0 1-.06.22z"/><path d="M34.5 20.342l-.256.507-.314-.346c-.04-.152-.12-.33-.277-.366a.1.1 0 0 0-.13.078.11.11 0 0 0 .078.136c.042.006.08.084.11.178l-.344.43h-.022a.1.1 0 0 0-.057.02l-.3-.25c.01-.17-.036-.394-.235-.44a.108.108 0 0 0-.13.078.11.11 0 0 0 .083.13c.057.016.068.142.063.225l-.654.66-.13-.053v-1a5.072 5.072 0 0 0 1.386-1.046 4.063 4.063 0 0 1 1.13 1.058zM34.744 20.886v1.177l-.34-.24v-.785l.23-.466a1.577 1.577 0 0 1 .11.314zM34.744 22.324v.66l-.34.277v-1.17l.34.234zM34.226 22.11v1.088l-.256-.215v-.664l.256-.21zM34.226 21.153v.674l-.256.21V20.87l.256.283zM33.75 20.834v1.218l-.32-.225v-.596l.32-.396zM33.75 22.324v.66l-.32.25v-1.14l.32.23zM33.258 22.105v1.12l-.277-.242v-.66l.278-.218zM33.258 21.23v.597l-.277.215v-1.04l.278.23zM32.767 21.032v1.005l-.55-.455.55-.55zM32.767 22.32v.663l-.304.24v-1.15l.304.246zM31.878 21.623a2.537 2.537 0 0 0-1.308.434l.246.12.184-.355.5.42a2.262 2.262 0 0 0 .382-.62zM34.744 23.266v11.267a2.792 2.792 0 0 1-.774-1.062v-10.2l.277.23a.05.05 0 0 0 .026.022l.078.068zM33.75 33.507a.034.034 0 0 1 .005.02 1.758 1.758 0 0 1-.774-1.034v-9.217l.362.31.408-.325v10.247zM24.273 21.817a2.77 2.77 0 0 0-.88-.194h-.01a2.3 2.3 0 0 0 .388.618l.5-.418.18.356.245-.12a2.347 2.347 0 0 0-.422-.24zM22.81 22.073v1.15l-.305-.24v-.664l.304-.247zM23.054 21.582l-.55.455v-1.005l.55.55zM22.286 21v1.042l-.272-.215v-.596l.272-.23zM22.286 22.324v.66l-.272.24v-1.12l.272.22zM21.836 22.094v1.14l-.314-.25v-.66l.314-.23zM21.302 22.32v.663l-.256.215V22.11l.256.21zM20.87 22.09v1.17l-.342-.277v-.66l.34-.234zM20.638 20.572l.23.466v.784l-.34.24v-1.176a1.643 1.643 0 0 1 .11-.314zM21.302 20.87v1.167l-.256-.21v-.674l.256-.283zM21.836 21.23v.597l-.314.225v-1.218l.314.397zM23.29 20.32v1l-.13.054-.66-.66c0-.078.01-.21.068-.224a.11.11 0 0 0 .084-.13.112.112 0 0 0-.136-.08c-.2.047-.24.272-.235.44l-.3.25a.1.1 0 0 0-.056-.02h-.02l-.346-.43c.026-.093.068-.17.11-.177a.11.11 0 0 0 .078-.136.108.108 0 0 0-.13-.078c-.158.035-.24.213-.278.365l-.32.345-.25-.507a3.984 3.984 0 0 1 1.132-1.058 5.066 5.066 0 0 0 1.39 1.046zM21.3 23.266v10.2a2.77 2.77 0 0 1-.774 1.062V23.266l.393.32.072-.07a.055.055 0 0 0 .032-.02zM21.522 33.5V23.26l.408.325.356-.31v9.218a1.74 1.74 0 0 1-.774 1.04.062.062 0 0 0 0-.026zM32.767 23.266v8.808a6.037 6.037 0 0 1-1.093-2.955l-.01-.095h-8.055l-.017.094a6.052 6.052 0 0 1-1.088 2.954v-8.808l.4.32.77-.665a.1.1 0 0 0 .01-.15.11.11 0 0 0-.153-.017l-.55.47v-1.3l.22-.182a1.818 1.818 0 0 0 .524.733l.063.037.412-.346.157.3.558-.278a2.047 2.047 0 0 0 1.4-.2h2.646a2.042 2.042 0 0 0 1.4.2l.56.278.15-.3.42.346.062-.037a1.818 1.818 0 0 0 .523-.732l.214.184v1.3l-.544-.47a.115.115 0 0 0-.157.015.108.108 0 0 0 .015.15l.77.665z" fill="#af7e55"/><path d="M21.454 30l-.152-.4v2.856a1.08 1.08 0 0 1 .22-.042v-2.25zm7.118-8.223h-.246c.027.068.053.146.084.22h.418a1.457 1.457 0 0 1-.256-.222zm-.638 0H27.8v.073l.01.02a.24.24 0 0 1 .032.043l-.07.087h.3a1.555 1.555 0 0 1-.136-.183zm-.444.094l.01-.02v-.073h-.13v.037c-.01.015-.022.026-.032.04v.007a.988.988 0 0 1-.105.137h.31l-.074-.1c.01-.012.014-.023.02-.028zm-1.02.13h.423c.032-.08.063-.152.084-.22h-.256a1.45 1.45 0 0 1-.25.22zm8.556 12.81c-.03-.105-.052-.183-.063-.215V20.86l-.005-.01a1.8 1.8 0 0 0-.235-.57 3.694 3.694 0 0 0-.806-.885 4.72 4.72 0 0 0-.512-.356l-.073-.048-.063.068a5.07 5.07 0 0 1-1.424 1.078l-.078.02v1.25a2.586 2.586 0 0 0-1.45.57 1.564 1.564 0 0 1-1.212-.16.81.81 0 0 0-.1-.038l-.015-.005h-2.71l-.014.005a.31.31 0 0 0-.063.02 1.62 1.62 0 0 1-1.25.18 2.6 2.6 0 0 0-1.45-.57v-1.25l-.077-.022A5.087 5.087 0 0 1 22 19.06l-.063-.068-.073.047a4.258 4.258 0 0 0-1.318 1.24 1.606 1.606 0 0 0-.14.276 1.487 1.487 0 0 0-.1.293V34.6c-.012.032-.033.11-.064.215l-.11.35.282-.23a4.687 4.687 0 0 0 .968-1.093 1.87 1.87 0 0 0 .93-.847 1.51 1.51 0 0 0 .116-.246.036.036 0 0 0 .01-.022c0-.01.01-.026.016-.037s.01-.035.016-.056a.463.463 0 0 0 .026-.09V32.4c.006-.01.016-.016.026-.027a1.073 1.073 0 0 0 .105-.115c.03-.036.068-.073.105-.12v-.005c.036-.058.084-.12.125-.19s.105-.16.163-.26a6.21 6.21 0 0 0 .5-1.245 1.533 1.533 0 0 0 .04-.162c.022-.058.038-.126.054-.188.063-.257.12-.534.168-.843h7.677c.046.31.1.586.167.837.015.068.03.13.046.194l.047.157a4.906 4.906 0 0 0 .89 1.82.43.43 0 0 0 .052.052.523.523 0 0 0 .09.095v.14c.03.1.067.2.1.294l.03.062a1.857 1.857 0 0 0 .984.942 4.708 4.708 0 0 0 .967 1.093l.283.23zm-.282-11.827l-.34.278v-1.17l.34.24zm0-2.1v1.182l-.34-.24v-.785l.23-.466a1.816 1.816 0 0 1 .11.307zm-2.762-.555a5.044 5.044 0 0 0 1.38-1.05 4 4 0 0 1 1.14 1.066l-.25.507-.32-.344c-.04-.146-.12-.33-.276-.366a.113.113 0 0 0-.136.078.117.117 0 0 0 .084.136c.036.01.078.084.11.178l-.345.43h-.028a.1.1 0 0 0-.052.02l-.3-.257c.01-.162-.036-.387-.235-.434a.108.108 0 0 0-.13.085.116.116 0 0 0 .083.13c.057.01.068.137.063.22l-.653.66-.13-.053zm1.988 1.71v-1.173l.256.288v.674zm.256.074V23.2l-.256-.215v-.664zm-.476.214v.66l-.32.25v-1.14zm-.32-.5v-.6l.32-.4v1.223zm-.444.215V21l.272.23v.6zm.272.064v1.114l-.272-.23v-.665zm-.8-.032l.3.25v.66l-.3.24zm-.245-.49l.55-.55v1zm-.34.04a2.162 2.162 0 0 1-.387.618l-.5-.42-.178.357-.25-.12a2.537 2.537 0 0 1 1.32-.434zm-8.484 0a2.594 2.594 0 0 1 .878.194 2.347 2.347 0 0 1 .424.24l-.246.12-.178-.355-.5.42a2.17 2.17 0 0 1-.382-.618zm-1.49-2.347a5.22 5.22 0 0 0 1.38 1.05v1l-.125.054-.66-.66c0-.08.012-.21.07-.22a.108.108 0 0 0 .078-.13.1.1 0 0 0-.13-.085c-.2.047-.242.272-.23.434l-.3.256a.1.1 0 0 0-.058-.02h-.02l-.346-.43c.025-.094.067-.167.108-.178a.11.11 0 0 0 .08-.136.108.108 0 0 0-.132-.078c-.157.036-.235.22-.277.366l-.32.345-.25-.507a4.008 4.008 0 0 1 1.13-1.063zm.6 2.762v-1l.55.55zm.3.036v1.15l-.3-.24v-.664zm-.523.25v.666l-.272.23v-1.115zm-.272-.5v-.6l.272-.23v1.042zm-.492.23v-1.22l.32.4v.6zm.32.038v1.14l-.32-.25v-.66zm-.54.226v.664l-.256.215V22.11zm-.256-.492v-.674l.256-.288v1.172zm-.518-.946a1.906 1.906 0 0 1 .11-.31l.23.467v.784l-.34.24zm0 1.448l.34-.24v1.172l-.34-.278zm.78 11.145a2.77 2.77 0 0 1-.774 1.063V23.266l.393.32.072-.07a.055.055 0 0 0 .032-.02l.276-.225zm.858-.653c-.01.026-.02.047-.03.068a1.685 1.685 0 0 1-.618.65.062.062 0 0 0 0-.028V23.26l.408.325.356-.31v9.218c-.005.026-.016.052-.02.078a.355.355 0 0 0-.027.074c-.01.027-.02.047-.032.074s-.03.068-.042.1zm9.733-2.647c-.035-.14-.072-.287-.11-.45-.035-.188-.072-.387-.108-.6l-.01-.09h-8.053l-.017.09c-.03.214-.068.413-.11.6-.03.163-.068.31-.104.45a6.347 6.347 0 0 1-.446 1.214c-.02.042-.042.083-.063.12a3.045 3.045 0 0 1-.365.57v-8.808l.4.32.44-.378.11-.1.11-.094.11-.094a.114.114 0 0 0 .025-.136c0-.006 0-.01-.01-.016a.116.116 0 0 0-.158-.016l-.03.032h-.01l-.106.094-.105.09-.3.25v-1.3l.22-.178a1.874 1.874 0 0 0 .52.727l.067.037.413-.346.157.3.56-.272a1.722 1.722 0 0 0 1.035-.063c.095-.037.183-.073.267-.11l.093-.013h2.646l.13.047c.078.03.157.068.246.1a1.784 1.784 0 0 0 1.02.053l.56.272.15-.3.414.346.068-.037a1.836 1.836 0 0 0 .523-.726l.216.178v1.3l-.293-.25-.1-.095-.105-.09h-.005l-.036-.03a.115.115 0 0 0-.157.015c-.006.005-.006.01-.01.016a.107.107 0 0 0 .025.136l.1.094.11.094.115.1.44.377.4-.32v8.808c-.007-.01-.017-.015-.022-.026a5.094 5.094 0 0 1-.855-1.892zm1.2 2.61l-.03-.062a2.2 2.2 0 0 1-.074-.225v-9.217l.356.31.408-.325v10.226l.005.02a.03.03 0 0 0 0 .022 1.647 1.647 0 0 1-.664-.748zm1.654 1.753a2.792 2.792 0 0 1-.774-1.062v-10.2l.277.226a.05.05 0 0 0 .026.02l.078.07.394-.32z"/><path d="M26.58 18.673a1.37 1.37 0 0 1-.167.2 1.95 1.95 0 0 0-.24-.225 2.518 2.518 0 0 0 .407.025zM26.684 18.563a.943.943 0 0 0-.94-.418.535.535 0 0 1 .245-.152 1.327 1.327 0 0 1 .365-.02h.01a.533.533 0 0 1 .1.005 1.035 1.035 0 0 0 .115.24l.03.08c.053.124.1.234.074.265z" fill="#cb0b2e"/><path d="M26.893 18.626a.926.926 0 0 1 .225.288.767.767 0 0 0-.57-.084.2.2 0 0 0-.094.094l-.016-.015a1.1 1.1 0 0 0 .194-.242h.105l-.032-.058s0-.01.01-.015c.037-.048 0-.142-.052-.278a.325.325 0 0 0 .157.08c.053.004.084.025.094.056s.006.084-.03.147l-.006.015zM27.123 18.265a.054.054 0 0 1-.057.053.055.055 0 0 1-.058-.053.06.06 0 0 1 .058-.057.058.058 0 0 1 .057.057z"/><path d="M27.186 18.155h-.02l-.02-.01a.63.63 0 0 0-.085-.047.17.17 0 0 0-.16.167.164.164 0 0 0 .166.162.167.167 0 0 0 .167-.162.15.15 0 0 0-.047-.11zm-.12.168a.058.058 0 1 1 0-.115.058.058 0 0 1 0 .115z" fill="#fed117"/><path d="M27.066 21.545v-1.313A.065.065 0 0 0 27 20.17a.06.06 0 0 0-.062.062v1.276a1.817 1.817 0 0 1-.885.717 3.787 3.787 0 0 0 .628-2.914 1.182 1.182 0 0 0-.193-.344.165.165 0 0 1 .085-.094c.14-.073.386.016.59.105l.052.026-.026-.053a1 1 0 0 0-.25-.345.24.24 0 0 0 .03-.157.207.207 0 0 0 .31-.183.248.248 0 0 0-.038-.12.108.108 0 0 0 .037 0 1.146 1.146 0 0 1 1.083.345.06.06 0 0 0 .09 0 .065.065 0 0 0-.007-.094 1.25 1.25 0 0 0-1.192-.372h-.05a1.9 1.9 0 0 0-.744-.172.56.56 0 0 1 .554-.262 3.483 3.483 0 0 1 1.5.42 3.76 3.76 0 0 0 .367.16l-.12.095.057.052c.005.006.15.136.25.236a.6.6 0 0 1-.15.03l-.11.012.062.094a1.326 1.326 0 0 1 .146.28c-.094-.03-.146-.05-.146-.05l-.11-.048.02.115a3.46 3.46 0 0 1 .06.66.594.594 0 0 1-.12.22.515.515 0 0 0-.143.312 4.174 4.174 0 0 0 .628 2.013 1.567 1.567 0 0 1-.83-.685v-1.27a.065.065 0 0 0-.064-.07.07.07 0 0 0-.068.07v1.3l.006.004a7.687 7.687 0 0 0 .293.743 1.02 1.02 0 0 1-.6-.476v-1.57a.06.06 0 0 0-.063-.063.065.065 0 0 0-.068.062v1.605l.01.016.032.048-.2.246-.172-.267a.174.174 0 0 0 .016-.026l.01-.015v-1.603a.064.064 0 0 0-.068-.062.06.06 0 0 0-.063.062v1.57l-.03.04v.007a1 1 0 0 1-.57.428c.12-.25.267-.66.293-.733zM26.512 17.983a2.23 2.23 0 0 1 .476.09.2.2 0 0 0-.13.192.19.19 0 0 0 .025.094l-.052-.016c-.183-.026-.277-.244-.318-.36z" fill="#af7e55"/><path d="M28.368 21.5v-1.263a.065.065 0 0 0-.063-.068.07.07 0 0 0-.068.067v1.308h.006c.005.026.042.115.083.23h.246a1.72 1.72 0 0 1-.204-.275zm-.5-1.323a.065.065 0 0 0-.068.062v1.532h.13v-1.53a.06.06 0 0 0-.06-.062zm-.44 0a.06.06 0 0 0-.062.062v1.532h.134v-1.53a.064.064 0 0 0-.068-.062zM27 20.17a.063.063 0 0 0-.062.062v1.276a1.582 1.582 0 0 1-.215.267h.256c.04-.1.072-.193.083-.22v-1.323A.065.065 0 0 0 27 20.17zm2.437 2.217l.35.073-.3-.193a.816.816 0 0 1-.145-.12 1.263 1.263 0 0 1-.23-.33 4.867 4.867 0 0 1-.4-1.648.414.414 0 0 1 .115-.23.64.64 0 0 0 .146-.278 2.52 2.52 0 0 0-.04-.586c.046.016.1.037.17.058l.11.036-.025-.115a1.42 1.42 0 0 0-.15-.36.8.8 0 0 0 .18-.058l.07-.042-.053-.063a3.17 3.17 0 0 0-.267-.262l.188-.15-.115-.038a3.566 3.566 0 0 1-.47-.2 3.6 3.6 0 0 0-1.553-.428c-.476 0-.638.24-.69.387a1.254 1.254 0 0 0-.37.027.67.67 0 0 0-.29.178.2.2 0 0 0-.04.052.452.452 0 0 0-.064.13l-.036.12.1-.03.02-.01h.022a.8.8 0 0 1 .84.24 3.98 3.98 0 0 1-.59-.063l-.25-.058-.043-.01-.1-.02h-.032l.136.072.043.026.2.115a1.64 1.64 0 0 1 .69.752 3.712 3.712 0 0 1-.01 1.46 2.99 2.99 0 0 1-.34.988 1.37 1.37 0 0 1-.25.335 1.116 1.116 0 0 1-.23.188l-.333.167.36-.057a1.94 1.94 0 0 0 .916-.45 1.1 1.1 0 0 0 .115-.1 1.064 1.064 0 0 0-.04.1 1.913 1.913 0 0 1-.183.37l-.126.153-.015.02.068-.02.146-.047a1.3 1.3 0 0 0 .747-.462l.246.372.282-.36a1.327 1.327 0 0 0 .744.45l.145.046.068.02-.02-.02-.127-.152A2.057 2.057 0 0 1 28.55 22l-.03-.084a.722.722 0 0 0 .094.084 1.7 1.7 0 0 0 .82.387zm-3.694-4.237a.5.5 0 0 1 .246-.157 1.306 1.306 0 0 1 .365-.02h.01c.03 0 .068.005.1.005a.854.854 0 0 0 .115.235l.03.084c.053.125.095.235.074.266a.933.933 0 0 0-.94-.413zm1.114.115a.19.19 0 0 0 .026.094.166.166 0 0 0-.052-.01c-.177-.032-.277-.252-.318-.367a2.23 2.23 0 0 1 .476.09.2.2 0 0 0-.13.192zm.2-.167a.63.63 0 0 1 .084.047l.02.01h.022a.15.15 0 0 1 .047.11.167.167 0 0 1-.168.162.164.164 0 0 1-.167-.162.17.17 0 0 1 .166-.165zm-.89.554a3.25 3.25 0 0 0 .41.02 1.154 1.154 0 0 1-.168.2 1.95 1.95 0 0 0-.238-.22zm.273.257a1.26 1.26 0 0 0 .188-.242h.105l-.032-.058s0-.01.012-.015c.036-.048 0-.142-.058-.278a.314.314 0 0 0 .162.074.13.13 0 0 1 .1.063.163.163 0 0 1-.037.147l-.006.015.01.016a1.013 1.013 0 0 1 .23.29.785.785 0 0 0-.575-.085.23.23 0 0 0-.095.094v-.02zm2.128 2.865a1.72 1.72 0 0 1-.2-.272v-1.266a.065.065 0 0 0-.063-.068.07.07 0 0 0-.068.067v1.308h.006c.005.026.042.115.083.23.027.068.053.146.084.22.042.1.084.2.126.287A1.05 1.05 0 0 1 28.07 22a1.555 1.555 0 0 1-.136-.183v-1.57a.06.06 0 0 0-.063-.062.065.065 0 0 0-.067.062v1.606l.01.02a.24.24 0 0 1 .032.043l-.073.084-.126.162-.1-.162-.073-.1c.01-.01.015-.02.02-.026l.01-.02V20.24a.064.064 0 0 0-.067-.062.06.06 0 0 0-.063.062v1.57l-.03.04v.007a.988.988 0 0 1-.106.135.958.958 0 0 1-.465.287c.042-.083.083-.188.125-.287.032-.08.063-.152.084-.22.043-.1.074-.193.085-.22v-1.323A.065.065 0 0 0 27 20.17a.063.063 0 0 0-.062.062v1.276a1.582 1.582 0 0 1-.215.267 1.45 1.45 0 0 1-.25.22 1.632 1.632 0 0 1-.42.23 1.036 1.036 0 0 0 .168-.2 1.7 1.7 0 0 0 .152-.25 4.187 4.187 0 0 0 .31-2.465 1.182 1.182 0 0 0-.195-.345.182.182 0 0 1 .085-.094c.14-.072.39.017.59.106l.052.026-.026-.053a1.046 1.046 0 0 0-.25-.346.247.247 0 0 0 .036-.157.176.176 0 0 0 .094.026.21.21 0 0 0 .21-.21.166.166 0 0 0-.038-.114c.01 0 .027 0 .037-.01a1.14 1.14 0 0 1 1.083.35.067.067 0 0 0 .083-.1 1.25 1.25 0 0 0-1.192-.373.133.133 0 0 0-.05.01 1.8 1.8 0 0 0-.74-.177c.06-.12.2-.262.55-.262a3.5 3.5 0 0 1 1.5.42c.13.056.25.12.367.16l-.12.095.062.052c0 .006.145.136.245.236a.6.6 0 0 1-.152.032l-.11.01.063.095a1.326 1.326 0 0 1 .146.282c-.094-.032-.146-.053-.146-.053l-.11-.047.02.115a3.463 3.463 0 0 1 .064.66.7.7 0 0 1-.125.22.49.49 0 0 0-.142.318 5.367 5.367 0 0 0 .372 1.595 2.665 2.665 0 0 0 .146.267 1.592 1.592 0 0 0 .11.146 1.507 1.507 0 0 1-.372-.19 1.457 1.457 0 0 1-.256-.225z"/><path d="M30.858 36.06a3.05 3.05 0 0 0-.99.424 9.048 9.048 0 0 1-1.526-2.49l-.272-.617.016.674a6.2 6.2 0 0 0 .847 2.72c.026.06.058.116.084.17a5.083 5.083 0 0 0-1.38 1.055 5.173 5.173 0 0 0-1.38-1.056c.024-.054.05-.11.082-.17a6.14 6.14 0 0 0 .84-2.72l.022-.673-.272.617a9.048 9.048 0 0 1-1.527 2.49 3.108 3.108 0 0 0-.99-.424 10.77 10.77 0 0 0 2.68-4.383h1.087a10.77 10.77 0 0 0 2.678 4.383z" fill="#af7e55"/><path d="M31.224 36.044a10.415 10.415 0 0 1-2.605-3.9l-.048-.125-.047-.132c-.042-.125-.084-.25-.12-.382l-.016-.052-.017-.047h-1.48l-.01.047-.016.052c-.042.13-.078.257-.125.382a1.183 1.183 0 0 1-.042.13l-.047.126a10.393 10.393 0 0 1-2.61 3.9l-.24.2.318.026a2.863 2.863 0 0 1 1.2.47l.07.054.067-.042a6 6 0 0 0 1.365-1.936 7.262 7.262 0 0 1-.72 1.83c-.054.1-.106.2-.148.3l-.067.132.14.047a4.82 4.82 0 0 1 1.507 1.15l.1.11.1-.11a4.8 4.8 0 0 1 1.512-1.15l.13-.047-.062-.13c-.042-.095-.094-.194-.152-.3a7.454 7.454 0 0 1-.722-1.832 6.19 6.19 0 0 0 1.365 1.936l.074.042.067-.053a2.858 2.858 0 0 1 1.2-.47l.313-.026zm-1.355.44A9.082 9.082 0 0 1 28.34 34l-.272-.622.016.674a6.2 6.2 0 0 0 .847 2.72l.084.168a5.067 5.067 0 0 0-1.38 1.056 5.09 5.09 0 0 0-1.38-1.056c.024-.053.05-.11.082-.168a6.14 6.14 0 0 0 .84-2.72l.022-.674-.272.622a9.082 9.082 0 0 1-1.53 2.484 3.363 3.363 0 0 0-.99-.43 10.824 10.824 0 0 0 2.47-3.77c.016-.048.03-.09.047-.13a1.24 1.24 0 0 0 .042-.127c.04-.115.082-.235.12-.35h1.09c.037.115.073.235.115.35.016.042.03.09.047.126a1.27 1.27 0 0 0 .047.125 10.92 10.92 0 0 0 2.462 3.777 3.33 3.33 0 0 0-.983.43z"/><path d="M32.233 35.06l-.408.367-.073-.544.157-.042a.21.21 0 0 0 .104.074.24.24 0 0 0 .12.01zM32.092 34.69c.068.026.11.083.09.125s-.085.063-.148.037a.11.11 0 0 1-.088-.126c.015-.042.083-.057.146-.036zM32.7 33.314l-.5 1.365a.27.27 0 0 0-.08-.053.218.218 0 0 0-.1-.01l.5-1.366a.367.367 0 0 0 .085.043.312.312 0 0 0 .095.02z" fill="#fed117"/><path d="M35.418 26.184a.226.226 0 0 0 .068-.094.24.24 0 0 0 0-.172l.1-.074-.04-.538-.383.382.03.12a.23.23 0 0 0-.12.13.167.167 0 0 0 0 .116l-.1.02-.218.042-.21.048.006.03s.137.796-.072 1.052l-.01.01.062.236v.008a.1.1 0 0 0-.047.057.166.166 0 0 0 .015.13l-.517 1.424-.083.226a.15.15 0 0 0-.1.09.174.174 0 0 0 .015.134l-.005.02c-.016.007-.03.007-.047.012a.2.2 0 0 0-.146.125.234.234 0 0 0 .057.225l-.004.026a.135.135 0 0 0-.1.09.15.15 0 0 0 .016.13l-.596 1.612-.04.11a.447.447 0 0 0-.18.125.072.072 0 0 1-.02.016 1 1 0 0 0-.12.2c-.006.012-.006.022-.01.032a.5.5 0 0 0 .083.576.25.25 0 0 0-.29.125.22.22 0 0 0 .06.22l-.012.03-.047.122-.11.3-.218.612-.08.2-.03.09-.032.082a.124.124 0 0 0-.057.067.1.1 0 0 0 0 .08l-.2.046.094.732.55-.5-.127-.165a.118.118 0 0 0 .047-.063c.005 0 .005-.01.005-.02a.162.162 0 0 0-.005-.07l.015-.04.074-.2.036-.1.073-.2.042-.095.073-.21.048-.125.088-.235.048-.136.03-.084a.216.216 0 0 0 .184-.13.24.24 0 0 0-.136-.278.37.37 0 0 0 .272-.126.684.684 0 0 0 .162-.266.583.583 0 0 0-.01-.5l.507-1.376.125-.34a.153.153 0 0 0 .095-.084.152.152 0 0 0 0-.105.247.247 0 0 0-.016-.026l.01-.025h.006a.224.224 0 0 0 .188-.13.24.24 0 0 0-.056-.23l.005-.022a.148.148 0 0 0 .1-.094.165.165 0 0 0-.017-.132l.555-1.51.047-.132a.15.15 0 0 0 .1-.094.17.17 0 0 0 .005-.073l.006-.007.062-.04.132-.1v-.017c.01-.33.62-.842.627-.847l.026-.022zm.068-.732l.027.36-.074.048a.183.183 0 0 0-.084-.057.236.236 0 0 0-.105-.01l-.025-.085zm-.355.5a.16.16 0 0 1 .2-.09.157.157 0 0 1-.11.294.16.16 0 0 1-.09-.202zm-.256.387l.09-.037.22-.094c.004 0 .01.004.015.01s.014 0 .025 0l.146.3a3.875 3.875 0 0 0-.407.538.685.685 0 0 0-.115.31l-.094.11s0-.007-.01-.007h-.006a.015.015 0 0 0-.01 0v-.14s.01-.016.016-.02a2.3 2.3 0 0 0 .13-.97zm-.266-.126l.136-.032.22-.04.114-.028a.005.005 0 0 1 .006 0 .225.225 0 0 0 .036.053l-.157.073-.157.063v.02a3.1 3.1 0 0 1-.062.827.313.313 0 0 1-.074.146l-.01.01v.158a.157.157 0 0 0-.084.01l-.047-.193a1.816 1.816 0 0 0 .078-1.064zm-2.668 8.51a.126.126 0 0 1 .152-.036.132.132 0 0 1 .068.047.082.082 0 0 1 .026.078.115.115 0 0 1-.152.037.12.12 0 0 1-.094-.124zm.293.335l-.413.365-.068-.544.162-.04a.177.177 0 0 0 .1.072.194.194 0 0 0 .12.01zm.4-1.58l-.094.256-.043.125-.073.19-.032.1-.078.2-.037.1-.073.2-.01.025a.18.18 0 0 0-.084-.047.174.174 0 0 0-.073-.016h-.02l.004-.01.038-.094.073-.2.037-.1.063-.173.13-.366.11-.294.048-.126v-.01a.25.25 0 0 0 .084.047.312.312 0 0 0 .094.02l-.01.037zm.256-.32a.207.207 0 0 1-.262.073c-.115-.047-.19-.146-.157-.224a.2.2 0 0 1 .262-.075c.118.044.186.15.16.227zm.3-.67a.572.572 0 0 1-.13.226.327.327 0 0 1-.19.115.145.145 0 0 1-.094-.005c-.14-.052-.188-.282-.1-.523a.5.5 0 0 1 .308-.34.145.145 0 0 1 .105.006c.147.054.19.29.1.525zm.56-2.045l-.55 1.514a.206.206 0 0 0-.08-.053.31.31 0 0 0-.1-.016l.607-1.64a.15.15 0 0 0 .08.046.165.165 0 0 0 .046.01c.016 0 .037.01.047 0zm.16-.256c-.015.046-.088.067-.16.05h-.022c-.084-.03-.13-.1-.11-.156.016-.042.068-.062.13-.057a.155.155 0 0 1 .053.01c.08.03.133.097.112.154zm.19-.29a.13.13 0 0 1-.125.09.29.29 0 0 1-.147-.01.347.347 0 0 1-.073-.043.184.184 0 0 1-.09-.194.15.15 0 0 1 .09-.078.29.29 0 0 1 .188 0 .08.08 0 0 1 .032.016.19.19 0 0 1 .125.22zm.047-.34c-.02.053-.093.073-.172.053a.017.017 0 0 1-.01-.006c-.08-.026-.132-.1-.11-.15a.12.12 0 0 1 .12-.064.267.267 0 0 1 .062.01c.074.03.126.103.105.155zm-.005-.167a.192.192 0 0 0-.078-.047.28.28 0 0 0-.09-.016h-.01l.01-.02.57-1.554a.273.273 0 0 0 .085.047.3.3 0 0 0 .093.015zm.69-1.7a.094.094 0 0 1-.083.057.16.16 0 0 1-.1-.01c-.08-.03-.13-.1-.11-.157s.104-.073.183-.047l.026.016c.056.03.098.092.077.14zm.2-.23l-.068.047-.094.068a.263.263 0 0 0-.052-.063l.094-.115v-.016a.372.372 0 0 1 .052-.183 3.178 3.178 0 0 1 .47-.642l.017-.02-.145-.3a.11.11 0 0 0 .057-.017l.293.378c-.116.102-.603.538-.624.863z"/><path d="M35.36 26.22l.3.378c-.12.1-.606.538-.627.863l-.162.116a.2.2 0 0 0-.056-.063l.1-.115v-.016c-.016-.2.37-.664.523-.83l.016-.017-.146-.3a.52.52 0 0 0 .057-.016zM35.225 26.226l.146.3c-.088.1-.527.6-.522.848l-.094.11s0-.006-.01-.006a.034.034 0 0 0-.02 0l.004-.14a2.124 2.124 0 0 0 .146-.99l.3-.13c.01 0 .015.005.026.01a.033.033 0 0 1 .025-.002zM33.09 31.97c.147.052.19.287.1.523s-.277.387-.418.334-.188-.287-.1-.523.278-.387.42-.334zM33.938 29.668c.115.042.19.147.157.23a.2.2 0 0 1-.272.073c-.12-.04-.188-.145-.157-.23s.152-.114.272-.072zM32.735 32.937c.115.042.19.142.157.225a.194.194 0 0 1-.26.068c-.116-.042-.19-.14-.158-.22a.2.2 0 0 1 .26-.073zM35.48 25.452l.033.36-.074.048a.232.232 0 0 0-.084-.057.245.245 0 0 0-.105-.01l-.02-.085zM35.33 25.865a.154.154 0 0 1 .094.2.15.15 0 0 1-.2.094.156.156 0 0 1-.094-.2.153.153 0 0 1 .2-.095zM34.718 27.534c.078.03.13.105.11.157a.14.14 0 0 1-.184.048c-.078-.03-.13-.1-.11-.157s.105-.072.184-.046zM34.032 29.407c.08.026.13.1.11.15s-.1.08-.183.048-.132-.1-.11-.15a.135.135 0 0 1 .182-.048zM33.8 30.034c.08.032.13.1.11.157s-.1.074-.183.048-.13-.1-.11-.157.107-.072.183-.046zM33.8 30.317l-.6 1.642a.162.162 0 0 0-.08-.053.31.31 0 0 0-.1-.016l.607-1.64a.293.293 0 0 0 .08.05.37.37 0 0 0 .093.017zM34.718 27.816l-.58 1.575a.18.18 0 0 0-.085-.046.277.277 0 0 0-.094-.016l.58-1.58a.232.232 0 0 0 .084.053.3.3 0 0 0 .094.016zM34.66 27.3v.152a.43.43 0 0 0-.084.01l-.047-.194a1.835 1.835 0 0 0 .078-1.056l.47-.1h.006a.375.375 0 0 0 .036.048l-.314.136v.02c.01.225.006.832-.136.973z" fill="#fed117"/><path d="M20.418 27.063l.027-.036.02-.006v.022-.005l.3.77v.025a1.6 1.6 0 0 0 .043.36l.005.027a1.068 1.068 0 0 0-.125-.184l-.382-1zM23.557 34.616a.25.25 0 0 1 .115.2l.01.25a.15.15 0 0 1-.1.158.152.152 0 0 1-.172-.037l-.168-.177a.25.25 0 0 1-.067-.2l.03-.267.147-.058zM21.062 28.554a.192.192 0 0 1-.042.026c0 .005 0 .005-.01.005a.036.036 0 0 1-.042-.005.05.05 0 0 1-.02-.026l-.022.01s-.016.006-.02.006l.747 1.945a.012.012 0 0 1 .01.01l.047.048-.03.01.706 1.83c.03.06.052.11.067.142l.016.053h-.012l.005.005a.322.322 0 0 0 .037.037l.042.047-.042.02.68 1.758.14-.052-.68-1.763-.1-.282h-.005v-.006l-.15-.4h-.012v-.02l-.55-1.424-.113-.3h-.01a.006.006 0 0 0 .006-.006l-.153-.387h-.01c0-.01.006-.015.006-.02zM22.752 31.08c.01.042.025.084.036.12a1.978 1.978 0 0 1 .12.592.568.568 0 0 1-.33.46s-.01.01-.015.01l-.115-.292h.01a1.2 1.2 0 0 1 .294-.89zM23.222 31.67c-.005.043-.01.085-.016.122-.03.335-.047.49-.518.8l-.073-.188a.456.456 0 0 1 .026-.08.653.653 0 0 0 .352-.506 1.374 1.374 0 0 1 .23-.147zM21.062 32.53a1.264 1.264 0 0 1 1.328.135 1.64 1.64 0 0 1-1.328-.136zM21.145 31.8a1.3 1.3 0 0 1 1.193.712 1.273 1.273 0 0 0-.722-.194 1.884 1.884 0 0 1-.47-.518zM21.506 30.4a1.036 1.036 0 0 0-.6-.152 1.58 1.58 0 0 1-.392-.434 1.1 1.1 0 0 1 .992.586zM20.45 30.427a1.046 1.046 0 0 1 1.1.115 1.384 1.384 0 0 1-1.1-.115zM22.27 29.705c0 .03 0 .057-.01.09a.686.686 0 0 1-.4.647l-.08-.193v-.007h.006a.89.89 0 0 1 .287-.4.694.694 0 0 1 .197-.138zM21.872 29.2c.01.037.02.068.032.1a1.84 1.84 0 0 1 .1.48 1.082 1.082 0 0 0-.267.356l-.11-.3h.006a.95.95 0 0 1 .24-.636zM20.77 28.4c.01.005.02.016.03.02a1.19 1.19 0 0 1-.977-.13.947.947 0 0 1 .37-.078.873.873 0 0 0 .576.188zM19.864 27.707a1.047 1.047 0 0 1 .9.6 1.116 1.116 0 0 1-.9-.6zM21.026 28.088a.816.816 0 0 1 .39-.44.474.474 0 0 1-.004.085c-.016.272-.026.4-.434.66a.773.773 0 0 1 .048-.305zM20.89 28.12a1.812 1.812 0 0 1-.027-.288.95.95 0 0 1 .194-.67.35.35 0 0 0 .026.084 1.96 1.96 0 0 1 .1.46.864.864 0 0 0-.247.388.1.1 0 0 0-.02.01.1.1 0 0 1-.027.016zM20.476 26.807c-.01-.052-.03-.13-.052-.23a1.224 1.224 0 0 0-.02-.272 1.118 1.118 0 0 1 .166-.623.884.884 0 0 1 .194.665.7.7 0 0 1-.288.46zM19.953 26.5a3 3 0 0 0 .246.34c0 .026.01.057.015.088v.048a.384.384 0 0 1 .005.073c-.455.025-.748-.514-.837-.7a1.28 1.28 0 0 1 .57.15zM19.786 25.51a1.088 1.088 0 0 1 .528.784 1.67 1.67 0 0 0 .026.3 2.042 2.042 0 0 1-.03.246c-.012-.01-.022-.026-.033-.036a.567.567 0 0 0-.26-.36 1.25 1.25 0 0 1-.23-.934z" fill="#067654"/><path d="M23.755 34.81a.34.34 0 0 0-.15-.272l-.195-.12-.02-.016-.3-.785-.116-.292-.047-.126-.178-.466-.027-.068a1.62 1.62 0 0 0 .22-.157.835.835 0 0 0 .357-.71c0-.063.01-.125.02-.2l.012-.073-.074.026a1.56 1.56 0 0 0-.22.126.2.2 0 0 0-.04.02 1.67 1.67 0 0 0-.06-.32c-.02-.062-.04-.135-.062-.208-.015-.058-.036-.116-.057-.184l-.017-.062-.052.042a.8.8 0 0 0-.24.308 1.45 1.45 0 0 0-.13.5l-.09-.235-.29-.753-.1-.25-.006-.01.022-.017c.03-.02.062-.042.088-.063a.744.744 0 0 0 .283-.33.968.968 0 0 0 .062-.313l.015-.167.01-.08-.067.033a.037.037 0 0 0-.02.01 1.155 1.155 0 0 0-.2.11 2.31 2.31 0 0 0-.1-.44c-.016-.052-.032-.104-.048-.162l-.02-.062-.053.042a.89.89 0 0 0-.308.585l-.038-.11-.22-.57-.1-.256-.1-.256-.02-.046a1.8 1.8 0 0 0 .218-.173.684.684 0 0 0 .2-.522c0-.052 0-.1.01-.157l.01-.077-.067.03a.775.775 0 0 0-.152.085.17.17 0 0 0-.035.02 2.22 2.22 0 0 0-.1-.418l-.047-.152-.02-.062-.048.042a.85.85 0 0 0-.272.6l-.177-.466-.073-.2-.027-.082h.006c.01-.005.015-.01.025-.016a.59.59 0 0 0 .06-.047.787.787 0 0 0 .266-.476 1.01 1.01 0 0 0-.25-.778l-.038-.042-.03.047a.005.005 0 0 0-.007.005 1.055 1.055 0 0 0-.192.466c-.01-.026-.016-.047-.026-.068a1.038 1.038 0 0 0-.534-.576l-.042-.015-.015.04a1.17 1.17 0 0 0 .152.932 1.674 1.674 0 0 0-.544-.11h-.073l.026.062c.017.032.273.69.765.806a.678.678 0 0 0 .235.01l.027.074.03.083.19.487.052.13c-.017-.015-.038-.026-.054-.04a.872.872 0 0 0-.22-.137 1.362 1.362 0 0 0-.517-.12h-.08l.037.062a1.626 1.626 0 0 0 .345.45 1.26 1.26 0 0 0-.387.114l-.063.032.058.04a1.373 1.373 0 0 0 .607.242 1.06 1.06 0 0 0 .22.005.966.966 0 0 0 .282-.052l.06.163.08.215.35.9.136.356A1.092 1.092 0 0 0 21.3 30a1.264 1.264 0 0 0-.774-.277.464.464 0 0 0-.09-.006h-.072l.032.063a1.426 1.426 0 0 0 .13.2 1.63 1.63 0 0 0 .246.272 1.464 1.464 0 0 0-.246.052 1.584 1.584 0 0 0-.2.073l-.02.01-.048.027.047.03.015.012a2.07 2.07 0 0 0 .2.105 1.443 1.443 0 0 0 .774.126.86.86 0 0 0 .22-.047.365.365 0 0 0 .09-.032h.01l.04.11.08.214.487 1.255a1.36 1.36 0 0 0-.706-.423 1.31 1.31 0 0 0-.22-.037 1.706 1.706 0 0 0-.23-.016H21l.03.064a1.77 1.77 0 0 0 .273.377 1.288 1.288 0 0 0 .183.18.8.8 0 0 0-.183.035 1.626 1.626 0 0 0-.35.115l-.073.037.062.042a1.715 1.715 0 0 0 .36.17 1.644 1.644 0 0 0 .22.064 1.55 1.55 0 0 0 .592.026.15.15 0 0 0 .047-.005 1.327 1.327 0 0 0 .268-.073h.01l.032.078.183.48.047.122.105.282.047.126.052.146.042.1.08.2.035.094.053.136-.016.1-.01.136-.006.042a.31.31 0 0 0 .09.272l.167.183a.252.252 0 0 0 .267.057.247.247 0 0 0 .162-.24zm-.533-3.14c-.005.043-.01.085-.016.122a.753.753 0 0 1-.3.643c-.058.047-.13.094-.215.152l-.04-.105-.016-.036-.016-.047h.005l.016-.08c0-.005 0-.005.01-.005a.633.633 0 0 0 .345-.5 1.374 1.374 0 0 1 .227-.144zm-.717-.14a.958.958 0 0 1 .247-.45c.015.042.025.084.036.12.03.11.062.215.083.3a.985.985 0 0 1 .04.29.3.3 0 0 1-.04.15.477.477 0 0 1-.124.19v.004a1.6 1.6 0 0 1-.136.1.24.24 0 0 1-.027.016s-.01.01-.015.01l-.115-.292h.01v-.006a1.874 1.874 0 0 1 .042-.432zm-.235-1.83c0 .037 0 .063-.01.095a.683.683 0 0 1-.4.648l-.074-.193h.005v-.016a.968.968 0 0 1 .288-.4 1.1 1.1 0 0 1 .192-.134zm-.4-.5a.442.442 0 0 1 .027.09 1.687 1.687 0 0 1 .1.48 1.082 1.082 0 0 0-.267.355c0-.02-.015-.04-.02-.062l-.09-.236h.006a.922.922 0 0 1 .246-.627zm-.57-1.48a.973.973 0 0 1 .115-.074c0 .026-.005.052-.005.084a.647.647 0 0 1-.11.4 1.32 1.32 0 0 1-.324.267.735.735 0 0 1 .052-.31.754.754 0 0 1 .272-.365zm-.774-1.973a.626.626 0 0 1 .042-.068.87.87 0 0 1 .194.664.7.7 0 0 1-.236.418.4.4 0 0 1-.052.042 1.83 1.83 0 0 1-.047-.235 1.61 1.61 0 0 0-.026-.268 1.206 1.206 0 0 1 .128-.552zm-.742-.24a1.078 1.078 0 0 1 .523.763v.02a1.67 1.67 0 0 0 .026.3 1.714 1.714 0 0 1-.03.232s-.007.01-.007.015a.136.136 0 0 0-.026-.036.567.567 0 0 0-.26-.36 1.25 1.25 0 0 1-.224-.93zm-.4.842a1.217 1.217 0 0 1 .565.15 3.544 3.544 0 0 0 .245.34c0 .032.01.058.016.09v.047a.384.384 0 0 1 .006.073c-.446.03-.74-.51-.828-.698zm.476 1.354a1.255 1.255 0 0 1 .445.12 1.4 1.4 0 0 1 .22.152 1.05 1.05 0 0 1 .235.33.857.857 0 0 1-.236-.032.835.835 0 0 1-.22-.1 1.5 1.5 0 0 1-.44-.467zm.664.763a.99.99 0 0 1-.22-.01 1.357 1.357 0 0 1-.485-.173.947.947 0 0 1 .37-.078.833.833 0 0 0 .115.073 1.006 1.006 0 0 0 .22.088.732.732 0 0 0 .24.026.118.118 0 0 1 .026.02 1.008 1.008 0 0 1-.262.056zm.168-.434l-.168-.44-.214-.56c0-.015.042 0 .057 0h.027l.02.027.027-.03.022-.012v.02-.004l.037.09.014.036.246.643v.02a1.6 1.6 0 0 0 .042.362l.005.026a1.306 1.306 0 0 0-.107-.174zm.167-.21a.944.944 0 0 1 .193-.663c.01.03.015.057.02.083a1.775 1.775 0 0 1 .106.46.9.9 0 0 0-.253.388c-.005 0-.01.01-.016.01a.1.1 0 0 1-.025.017 1.826 1.826 0 0 1-.022-.29zm-.336 2l-.015-.02h.014a1.168 1.168 0 0 1 .774.314 1.043 1.043 0 0 1 .2.272.905.905 0 0 0-.2-.095 1.05 1.05 0 0 0-.392-.058 1.475 1.475 0 0 1-.378-.407zm.994.723a.86.86 0 0 1-.22.047 1.407 1.407 0 0 1-.774-.13.554.554 0 0 1-.078-.042.517.517 0 0 1 .078-.026 1.12 1.12 0 0 1 .774 0 .73.73 0 0 1 .22.115l.03.03c-.005.007-.016.007-.026.012zm-.22 1.47a1.914 1.914 0 0 1-.157-.22l.158.016a2.1 2.1 0 0 1 .22.042 1.252 1.252 0 0 1 .764.56c.02.036.036.067.052.1a.473.473 0 0 0-.052-.033 1.28 1.28 0 0 0-.67-.16.5.5 0 0 1-.094-.074 1.776 1.776 0 0 1-.218-.224zm.905.7l-.068.015a1.556 1.556 0 0 1-.612-.025 1.606 1.606 0 0 1-.22-.068 1.2 1.2 0 0 1-.235-.11 1.412 1.412 0 0 1 .235-.073 1.08 1.08 0 0 1 .22-.042 1.155 1.155 0 0 1 .743.157.743.743 0 0 1 .125.093 1.26 1.26 0 0 1-.183.055zm.973 1.757l-.058-.146-.036-.1-.073-.188-.143-.357-.11-.293-.047-.12-.183-.476-.03-.078.04-.02-.037-.046a.156.156 0 0 1-.026-.02c0-.007 0-.012-.01-.012l-.006-.01h.016l-.02-.053a1.275 1.275 0 0 0-.068-.136l-.1-.262-.027-.063-.554-1.444-.027-.067.026-.01-.038-.047s-.01-.01-.015-.01l-.13-.35-.07-.166-.15-.4-.4-1.025c.01 0 .015 0 .02-.01h.015c.006.01.016.015.027.025a.05.05 0 0 0 .04 0h.012c.016-.01.026-.02.042-.03l.24.62.22.572.02.057.006.01v.015l.147.387v.006h.006l.118.3.027.084.036.083.4 1.04.048.122.036.094v.022h.01l.152.4v.006h.006l.058.146.046.136.016.042.03.078.174.44.048.12.114.3.235.618.058.15.006.012H23.3zm.4.753a.163.163 0 0 1-.172-.042l-.168-.177a.25.25 0 0 1-.067-.2l.02-.147.01-.12.146-.058.016.01.194.126a.25.25 0 0 1 .115.2l.01.25a.163.163 0 0 1-.103.16zM21.485 30.18l.19.492.12-.078s.11.026.11.016-.174-.518-.273-.78c-.047-.125-.068-.1-.068-.1l-.073.22-.052.073zM22.317 32.336s.136.355.14.36a1.27 1.27 0 0 1 .048.126l.063-.063.063-.042.1.11s-.16-.477-.067-.565c-.1.026-.23-.288-.224-.388s-.18.01-.18.01l-.005.3zM20.346 27.257a.18.18 0 0 1-.362 0 .18.18 0 0 1 .362 0zM20.82 27a.176.176 0 0 1-.177.178.178.178 0 1 1 0-.355.176.176 0 0 1 .178.177zM20.962 28.82a.178.178 0 1 1-.355 0 .178.178 0 1 1 .355 0zM21.438 28.57a.178.178 0 1 1-.355 0 .178.178 0 1 1 .355 0z"/><circle cx="21.574" cy="30.876" r=".178"/><path d="M22.233 30.62a.18.18 0 1 1-.183-.178.18.18 0 0 1 .183.178zM22.474 32.817a.18.18 0 0 1-.183.178.176.176 0 0 1-.177-.178.18.18 0 0 1 .178-.183.186.186 0 0 1 .184.183zM22.95 32.56a.18.18 0 1 1-.178-.177.18.18 0 0 1 .178.178z"/><path d="M24.7 30.93c.14.072.513.255 1.077.553a5.25 5.25 0 0 0-.6.6c-.095.1-.183.2-.262.287v-.04c0-.174-.005-.378-.005-.394v-.094l-.335.147.026-.253-.25.02h-.03a2.4 2.4 0 0 0 .245-.454c.058-.15.106-.29.135-.374z" fill="#af7e55"/><path d="M23.447 33.962l.042-.12-.28.08a.98.98 0 0 1 .11-.247l.116-.183-.2.09a.888.888 0 0 1-.156.046 2.57 2.57 0 0 0-.288.083c-.063.028-.12.054-.183.08a1.2 1.2 0 0 0-.29.2 1.014 1.014 0 0 1 .284-.487 1.07 1.07 0 0 1 .742-.193l.037.005 1-1.423h.063l-.037.314.36-.157c.005.077.005.187.005.287-.4.5-1.124 1.49-1.38 1.867a.8.8 0 0 1 .052-.242zM23.31 34.423l-.34.32a.076.076 0 0 1-.06.025.11.11 0 0 1-.07-.026l-.01-.01a.094.094 0 0 1 .005-.13l.34-.326a.08.08 0 0 1 .057-.02.07.07 0 0 1 .037.005.2.2 0 0 0 .062.12.09.09 0 0 1-.02.043zM23.075 34.05l.02.017.023.02a.11.11 0 0 1 .015.06.1.1 0 0 1-.026.06l-.34.32a.076.076 0 0 1-.063.027.11.11 0 0 1-.068-.027l-.01-.015a.087.087 0 0 1-.027-.063.126.126 0 0 1 .03-.064l.34-.324a.08.08 0 0 1 .064-.02.123.123 0 0 1 .04.01zM22.563 34.313a.084.084 0 0 1-.125 0l-.016-.01a.1.1 0 0 1-.02-.07.083.083 0 0 1 .025-.06l.308-.294a.605.605 0 0 1 .105-.043.02.02 0 0 1 .016-.005.05.05 0 0 1 .036.02l.017.01a.1.1 0 0 1-.007.132z" fill="#cb0b2e"/><path d="M25.947 31.426c-.816-.435-1.26-.65-1.266-.65l-.067-.03-.02.073s-.017.046-.038.12c-.015.036-.025.078-.047.13-.015.037-.026.078-.047.125a1.91 1.91 0 0 1-.344.6l-.13.13.23-.02-.895 1.27a1.44 1.44 0 0 0-.4.027l-.062.016a1.16 1.16 0 0 0-.147.052.26.26 0 0 0-.056.03.5.5 0 0 0-.146.11 1.022 1.022 0 0 0-.33.744v.14l.126-.12.01-.01a.278.278 0 0 0-.01.068.174.174 0 0 0 .047.126l.01.01a.188.188 0 0 0 .132.058h.016v.02a.168.168 0 0 0 .047.126l.01.01a.2.2 0 0 0 .126.058.022.022 0 0 0 .017-.005.193.193 0 0 0 .047.152l.01.01a.168.168 0 0 0 .126.058h.006a.173.173 0 0 0 .125-.052l.058-.053.1-.094.173-.167v-.006a.116.116 0 0 0 .043-.068.005.005 0 0 0 0-.006l.02-.03c.137-.216.875-1.24 1.34-1.832l-.016.147.126-.115c.1-.095.24-.246.387-.408s.3-.33.434-.46c.037-.037.08-.07.11-.1a.334.334 0 0 1 .11-.07l.042-.01.136-.026zm-3.384 2.892a.088.088 0 0 1-.125 0l-.016-.01a.1.1 0 0 1-.02-.07.083.083 0 0 1 .025-.06l.308-.294c.037-.016.07-.026.105-.042 0 0 .01-.005.016-.005a.262.262 0 0 1 .037.02l.01.01a.1.1 0 0 1 0 .116.024.024 0 0 1-.01.016zm.2.21a.076.076 0 0 1-.063.026.1.1 0 0 1-.068-.027v-.015a.07.07 0 0 1-.026-.063.087.087 0 0 1 .026-.064l.324-.308.01-.016a.113.113 0 0 1 .048-.02h.02a.063.063 0 0 1 .042.01l.02.015.017.02a.08.08 0 0 1 .02.06.087.087 0 0 1-.025.06l-.02.022-.053.052zm.335.088l-.13.126a.082.082 0 0 1-.063.026.11.11 0 0 1-.07-.026l-.01-.01a.09.09 0 0 1 .006-.13l.236-.226.105-.094a.07.07 0 0 1 .063-.027c.01 0 .016 0 .02.006h.012a.2.2 0 0 0 .063.12c0 .012-.01.017-.016.027a.018.018 0 0 1 0 .01h-.006zm.3-.418a.835.835 0 0 1 .047-.236l.042-.12-.278.08a.98.98 0 0 1 .11-.247l.114-.183-.193.09a1.1 1.1 0 0 1-.156.04v.006l-.058.015c-.047.01-.1.027-.152.042-.02 0-.04.016-.062.02h-.02c-.06.028-.122.054-.18.08a1.2 1.2 0 0 0-.287.2.988.988 0 0 1 .288-.487.34.34 0 0 1 .094-.078.6.6 0 0 1 .058-.032 1.208 1.208 0 0 1 .147-.052c.02-.005.04-.005.062-.01a1.54 1.54 0 0 1 .376-.02l.042.004 1-1.423.063-.01-.037.32.366-.158v.287c-.406.5-1.128 1.494-1.384 1.873zm2.374-2.715a1.1 1.1 0 0 0-.094.08.956.956 0 0 0-.11.1c-.11.11-.246.25-.4.418l-.262.288v-.04c0-.18-.005-.378-.005-.394v-.094l-.334.147.026-.252-.25.02h-.032a1.955 1.955 0 0 0 .24-.454.178.178 0 0 0 .02-.05c.022-.043.038-.085.054-.12s.03-.09.042-.127a.708.708 0 0 1 .026-.078c.13.062.444.22.92.47.057.03.11.057.162.088z"/><path d="M30.575 30.93c-.146.072-.512.255-1.077.553a4.92 4.92 0 0 1 .6.6c.094.1.19.2.267.287v-.528l.335.147-.026-.253.25.02h.027a2.7 2.7 0 0 1-.24-.454c-.06-.15-.11-.29-.135-.374z" fill="#af7e55"/><path d="M31.825 33.962l-.042-.12.272.08a.685.685 0 0 0-.11-.247l-.114-.183.2.09a1.022 1.022 0 0 0 .163.046 2.647 2.647 0 0 1 .29.083c.06.028.118.054.18.08a1.084 1.084 0 0 1 .284.2.975.975 0 0 0-.283-.487 1.06 1.06 0 0 0-.737-.193l-.042.005-1-1.423h-.063l.037.314-.367-.157v.287c.4.5 1.12 1.49 1.38 1.867a.767.767 0 0 0-.048-.242zM31.96 34.423l.34.32a.077.077 0 0 0 .064.025.087.087 0 0 0 .063-.026l.015-.01a.094.094 0 0 0-.005-.13l-.34-.326a.085.085 0 0 0-.063-.02.09.09 0 0 0-.036.005.172.172 0 0 1-.058.12.1.1 0 0 0 .02.043zM32.2 34.05l-.02.017-.022.02a.075.075 0 0 0-.016.06.1.1 0 0 0 .027.06l.338.32a.072.072 0 0 0 .063.027.087.087 0 0 0 .064-.027l.01-.015a.07.07 0 0 0 .026-.063.087.087 0 0 0-.026-.064l-.34-.324a.09.09 0 0 0-.063-.02.1.1 0 0 0-.04.01zM32.71 34.313a.085.085 0 0 0 .125 0l.01-.01a.1.1 0 0 0 0-.13l-.308-.294a.766.766 0 0 0-.1-.043.02.02 0 0 0-.016-.005.06.06 0 0 0-.04.02l-.01.01a.1.1 0 0 0 .004.132z" fill="#cb0b2e"/><path d="M32.756 33.413c-.005 0-.01-.015-.015-.015a.615.615 0 0 0-.05-.048.64.64 0 0 0-.17-.094.358.358 0 0 0-.062-.02 1.455 1.455 0 0 0-.512-.058l-.89-1.27.23.02-.13-.13a1.8 1.8 0 0 1-.345-.6c-.02-.048-.036-.09-.052-.126-.015-.052-.03-.094-.042-.13a.637.637 0 0 0-.036-.12l-.02-.074-.074.03s-.445.215-1.26.65l-.158.083.13.027.044.01a.35.35 0 0 1 .114.07c.03.03.068.062.11.1.136.13.3.308.434.46s.283.313.382.408l.13.115-.012-.15c.466.59 1.2 1.616 1.34 1.83l.02.032a.146.146 0 0 0 .047.074l.068.068.052.052.016.01.12.12.078.07c.007.004.007.01.012.01a.185.185 0 0 0 .115.04h.005a.177.177 0 0 0 .126-.057l.01-.01a.2.2 0 0 0 .047-.153c.005.005.005.005.01.005a.2.2 0 0 0 .132-.057l.01-.01a.19.19 0 0 0 .047-.126c0-.012 0-.017-.005-.022h.015a.17.17 0 0 0 .13-.058l.01-.01a.16.16 0 0 0 .053-.126.15.15 0 0 0-.015-.068c.005.006.01.006.015.01l.126.12.005-.14a1.006 1.006 0 0 0-.334-.743zm-2.39-1.57v.53c-.078-.083-.173-.183-.267-.287-.153-.168-.283-.31-.393-.42-.042-.04-.08-.072-.11-.1a1.1 1.1 0 0 0-.1-.078c.058-.03.11-.057.157-.084.48-.25.8-.408.925-.47.005.02.015.047.025.078l.042.127s.032.078.053.12a.193.193 0 0 0 .015.052 2.23 2.23 0 0 0 .246.454h-.03l-.25-.02.025.25zm2.07 2.888l-.01.012a.087.087 0 0 1-.062.026.077.077 0 0 1-.063-.026l-.04-.037-.053-.052-.146-.14-.06-.048-.042-.042a.1.1 0 0 1-.02-.037.172.172 0 0 0 .057-.12.09.09 0 0 1 .036-.006.077.077 0 0 1 .05.01l.014.017.037.03.147.142.053.046.1.1a.09.09 0 0 1 .007.125zm.2-.218l-.01.015a.087.087 0 0 1-.062.027.078.078 0 0 1-.063-.027l-.135-.125-.052-.047-.147-.14v-.007a.112.112 0 0 1-.032-.062.108.108 0 0 1 .02-.058l.022-.02.02-.017a.05.05 0 0 1 .037-.01h.005a.07.07 0 0 1 .063.022l.095.09.047.046.2.188a.087.087 0 0 1 .026.063.07.07 0 0 1-.027.062zm.21-.21l-.015.01a.09.09 0 0 1-.125 0l-.225-.213-.057-.054-.058-.057a.1.1 0 0 1-.005-.132l.016-.01a.1.1 0 0 1 .03-.02c.012 0 .017.004.022.004.02.01.042.016.068.026l.037.016.02.015.29.277a.086.086 0 0 1 .024.062.1.1 0 0 1-.017.07zm-.188-.512a.59.59 0 0 1-.057-.02.306.306 0 0 0-.062-.032c-.02-.01-.042-.016-.062-.027-.038-.01-.08-.025-.116-.035-.02 0-.04-.016-.063-.02-.042-.012-.078-.022-.11-.027-.068-.016-.13-.037-.162-.047l-.2-.088.115.183a.868.868 0 0 1 .115.246l-.278-.078.042.12a.8.8 0 0 1 .046.236c-.256-.377-.983-1.37-1.38-1.867v-.287l.366.157-.037-.32.063.01 1 1.424.042-.005a1.38 1.38 0 0 1 .486.046.28.28 0 0 1 .063.026.435.435 0 0 1 .16.1.118.118 0 0 1 .027.02l.03.033a.926.926 0 0 1 .253.455 1.084 1.084 0 0 0-.278-.2z"/><path d="M31.79 27v3.008a.4.4 0 0 1-.06.2 3.165 3.165 0 0 1-1.75 1.213 6.472 6.472 0 0 0-2.344 1.252 6.472 6.472 0 0 0-2.343-1.25 3.165 3.165 0 0 1-1.752-1.214.393.393 0 0 1-.056-.2V27z" fill="#0846ac"/><path d="M27.714 22.65h4.3a1.325 1.325 0 0 0-.168.35 1.214 1.214 0 0 0-.057.386V27h-8.3v-3.614a1.325 1.325 0 0 0-.227-.737h4.456z" fill="#cb0b2e"/><path d="M31.742 22.753a.115.115 0 0 0-.157.016c-.006.004-.006.01-.01.015h.2zm-.12 7.386a2.43 2.43 0 0 1-.9.8c.01.036.026.078.04.13a2.756 2.756 0 0 0 .932-.8l-.046-.194-.027.063zm-8.092-7.387l-.03.032h.2c0-.006 0-.01-.012-.016a.116.116 0 0 0-.158-.017zm-.523-.235l.142.2a.952.952 0 0 1 .13.25 1.5 1.5 0 0 1 .062.236c.005.058.01.115.01.178v6.622a.54.54 0 0 0 .027.162.367.367 0 0 0 .046.1c.026.042.063.1.11.162a3.294 3.294 0 0 0 .925.758 1.126 1.126 0 0 1 .116.058 5.256 5.256 0 0 0 .67.288c.115.042.22.083.324.125l.136.047a7.62 7.62 0 0 1 .947.434 1.994 1.994 0 0 1 .23.136c.193.12.345.236.512.36.047.043.105.085.163.132l.03.026h.09l.036-.026.163-.13c.167-.126.32-.24.512-.367.067-.043.146-.09.23-.132a7.165 7.165 0 0 1 .946-.434l.136-.047c.1-.042.21-.083.324-.125a5.585 5.585 0 0 0 .67-.288.773.773 0 0 1 .115-.058 3.055 3.055 0 0 0 .926-.763c.047-.063.084-.115.11-.157a.588.588 0 0 0 .047-.1.54.54 0 0 0 .026-.162v-6.618c0-.063.005-.12.01-.178a1.638 1.638 0 0 1 .036-.167c.01-.025.016-.046.027-.067a1.367 1.367 0 0 1 .125-.25l.14-.2zm8.776.272a1.078 1.078 0 0 0-.062.172l-.015.053a1.26 1.26 0 0 0-.052.37v6.623a.184.184 0 0 1-.01.073c-.006.022-.016.043-.022.06a2.43 2.43 0 0 1-.9.8c-.035.02-.072.046-.114.067a4.526 4.526 0 0 1-.67.288c-.1.036-.187.073-.28.1-.127.048-.242.095-.352.136-.32.137-.57.253-.774.357-.084.047-.157.094-.23.136a5.848 5.848 0 0 0-.575.413 1.02 1.02 0 0 0-.084.063c-.03-.022-.05-.043-.083-.064a5.2 5.2 0 0 0-.58-.413c-.068-.042-.147-.09-.23-.136-.2-.1-.45-.22-.774-.356l-.35-.135c-.09-.03-.184-.068-.283-.1a5.433 5.433 0 0 1-.664-.288c-.042-.026-.08-.047-.116-.068a2.432 2.432 0 0 1-.9-.8.172.172 0 0 1-.02-.053.206.206 0 0 1-.017-.08v-6.62a1.294 1.294 0 0 0-.052-.372.9.9 0 0 0-.072-.225h8.305zM26.172 28.3l.27-.278.277.27-.272.278zM30.4 26.43a3.43 3.43 0 0 0 .967.57 4.676 4.676 0 0 0-.936.66 5.335 5.335 0 0 0-.982-.66 2.987 2.987 0 0 0 .952-.57zM30.816 29.48a.68.68 0 0 0-.152-.016.8.8 0 0 0-.8.8.787.787 0 0 0 .145.46.8.8 0 0 1 .15-1.584.8.8 0 0 1 .656.34zM29.754 23.674a1.958 1.958 0 0 1 .66 1.61 2.072 2.072 0 0 1-1.4 1.533c.15.387.3.69.3.69a1.224 1.224 0 0 0-1.094.932 5.08 5.08 0 0 0-.063 1.087 4.117 4.117 0 0 0 .037.507.72.72 0 0 0 .188.445c.136.114.314.15.408.323a.308.308 0 0 1-.042.372.892.892 0 0 1-.345.177 2.15 2.15 0 0 0-.356.246.752.752 0 0 1-.418.14.74.74 0 0 1-.42-.14 2.15 2.15 0 0 0-.355-.246.957.957 0 0 1-.35-.177.323.323 0 0 1-.042-.372c.1-.172.277-.21.413-.324a.72.72 0 0 0 .188-.446 4.117 4.117 0 0 0 .037-.507 5.08 5.08 0 0 0-.062-1.088 1.233 1.233 0 0 0-1.1-.932s.157-.3.31-.69a2.07 2.07 0 0 1-1.4-1.533 1.94 1.94 0 0 1 .658-1.61s.36-.326.55-.456A3.93 3.93 0 0 0 25.6 25a1.17 1.17 0 0 0 .32.76 1.32 1.32 0 0 0 .6.28 1.32 1.32 0 0 1 .2.07l.146.062s.167-.178.3-.178a.866.866 0 0 1 .287.12c.105.063.194.126.194.126a1.6 1.6 0 0 1 .47-.24c.13 0 .3.178.3.178l.142-.063a1.5 1.5 0 0 1 .2-.068 1.312 1.312 0 0 0 .6-.282 1.135 1.135 0 0 0 .31-.765 3.856 3.856 0 0 0-.47-1.783c.188.132.554.457.554.457zM29.095 28.277l-.277.272-.272-.273.272-.272.277.272zM28.447 29.856c-.01-.188-.157-1.15.55-1.082a7.5 7.5 0 0 0-.18 1.605.788.788 0 0 1-.37-.524zM28.687 24.27l-.565.2.257.543-.545-.262-.2.57-.203-.57-.54.263.258-.544-.565-.2.565-.204-.257-.544.54.262.203-.565.2.564.543-.262-.258.544.565.204zM26.276 28.774c.706-.068.56.894.55 1.082a.788.788 0 0 1-.372.523 7.5 7.5 0 0 0-.178-1.606zM25.962 29.3a.35.35 0 0 1-.11.486.33.33 0 0 1-.172.052.335.335 0 0 0-.073-.005.4.4 0 0 1-.09-.026.258.258 0 0 0-.015-.09.337.337 0 0 0-.188-.23.28.28 0 0 1 .016-.093.42.42 0 0 0 .026-.063.314.314 0 0 1 .125-.135.347.347 0 0 1 .482.105zM25.847 29.914a.354.354 0 0 1 .043.5.35.35 0 0 1-.492.042.314.314 0 0 1-.105-.147.45.45 0 0 0-.02-.08.265.265 0 0 1 0-.088.35.35 0 0 0 .24-.293l.094-.017a.384.384 0 0 0 .073.005.354.354 0 0 1 .167.076zM25.518 29.8v.042a.35.35 0 0 1-.24.293h-.022s-.016.005-.026.005a.34.34 0 0 1-.345-.14.125.125 0 0 1-.026-.038.22.22 0 0 1-.033-.083.343.343 0 0 1 .058-.294.17.17 0 0 1 .03-.037.36.36 0 0 1 .168-.1.347.347 0 0 1 .194.01l.042.015a.337.337 0 0 1 .187.23.258.258 0 0 1 .01.095zM25.816 27a5.162 5.162 0 0 0-.978.66A4.8 4.8 0 0 0 23.9 27a3.415 3.415 0 0 0 .973-.57 2.985 2.985 0 0 0 .943.57zM25.356 29.14a.378.378 0 0 1 0 .183.28.28 0 0 0-.026.063.785.785 0 0 1-.058.078.347.347 0 0 0-.194-.01.36.36 0 0 0-.167.1h-.004a.3.3 0 0 1-.084-.042c-.02-.015-.036-.03-.057-.047a.322.322 0 0 1-.09-.157.354.354 0 0 1 .257-.428.35.35 0 0 1 .424.26zM25.293 30.306a.418.418 0 0 1-.02.178.353.353 0 0 1-.46.2.357.357 0 0 1-.2-.46.37.37 0 0 1 .11-.142.183.183 0 0 0 .062-.042.335.335 0 0 1 .094-.03.34.34 0 0 0 .344.14.3.3 0 0 1 .047.08.376.376 0 0 0 .023.076zM24.88 29.6a.343.343 0 0 0-.058.293.22.22 0 0 0 .032.083.365.365 0 0 1-.068.068.575.575 0 0 0-.063.042.342.342 0 0 1-.178.032.35.35 0 0 1-.33-.372.358.358 0 0 1 .377-.33.4.4 0 0 1 .173.058.217.217 0 0 0 .057.047.754.754 0 0 1 .058.08z" fill="#fed117"/><path d="M28.95 24.265l-.707-.246.32-.68-.676.323-.25-.706-.252.706-.68-.324.324.68-.707.245.706.256-.325.676.68-.324.25.71.252-.71.675.324-.32-.675zm-1.314.795l-.152-.43-.408.195.194-.408-.424-.152.424-.147-.194-.408.408.194.152-.43.152.43.408-.194-.196.408.424.147-.424.152.194.408-.408-.194zM29.812 23.606c-.016-.01-.366-.325-.56-.46l-.293-.21.167.32a3.976 3.976 0 0 1 .46 1.744 1.04 1.04 0 0 1-.293.7 1.3 1.3 0 0 1-.554.267.957.957 0 0 0-.215.073l-.094.036a.522.522 0 0 0-.313-.157 1.29 1.29 0 0 0-.48.22c-.038-.022-.09-.053-.147-.09a.7.7 0 0 0-.335-.13.533.533 0 0 0-.32.156l-.088-.036a.957.957 0 0 0-.215-.073 1.342 1.342 0 0 1-.56-.267 1.057 1.057 0 0 1-.287-.7 3.976 3.976 0 0 1 .46-1.742l.168-.32-.293.21c-.194.136-.544.45-.56.466a2 2 0 0 0-.685 1.684 2.11 2.11 0 0 0 1.37 1.57l-.057.135c-.12.272-.215.466-.215.47l-.062.116.132.01a1.14 1.14 0 0 1 1.02.858c.026.183.046.376.057.575.004.068.004.14.004.214 0 .095 0 .184-.005.278v.052a4.193 4.193 0 0 1-.038.445.648.648 0 0 1-.157.4c-.042.03-.09.058-.14.09a.672.672 0 0 0-.29.255.41.41 0 0 0 .054.476.676.676 0 0 0 .292.162l.083.032.058.026c.057.037.11.078.167.12a.9.9 0 0 0 .115.09c.006 0 .01 0 .016.01a.792.792 0 0 0 .456.15.8.8 0 0 0 .455-.15l.01-.01a.66.66 0 0 0 .117-.09c.057-.042.115-.083.172-.12.015-.01.036-.016.05-.026.033-.01.06-.02.085-.032a.665.665 0 0 0 .3-.162.41.41 0 0 0 .053-.476.672.672 0 0 0-.288-.256c-.052-.03-.1-.057-.147-.088a.688.688 0 0 1-.15-.4 3.13 3.13 0 0 1-.038-.445v-.052c0-.094-.005-.183-.005-.278 0-.073.005-.146.01-.214a3.276 3.276 0 0 1 .063-.575 1.125 1.125 0 0 1 1.015-.858l.125-.01-.057-.116s-.1-.2-.214-.47c-.017-.042-.038-.09-.053-.137A2.12 2.12 0 0 0 30.5 25.3a2.06 2.06 0 0 0-.688-1.694zm.512 1.668a2.01 2.01 0 0 1-1.344 1.465l-.078.036.03.078c.022.047.043.1.064.146.078.19.15.346.193.445a1.255 1.255 0 0 0-1.047.983 4.52 4.52 0 0 0-.068.6v.554c.006.152.016.31.037.466a.773.773 0 0 0 .22.5 1.065 1.065 0 0 0 .167.11.528.528 0 0 1 .224.188.236.236 0 0 1-.032.272.56.56 0 0 1-.224.12l-.095.032a1.088 1.088 0 0 0-.224.14c-.01.01-.028.022-.038.032a1.34 1.34 0 0 1-.11.084.595.595 0 0 1-.732 0 1.34 1.34 0 0 1-.11-.084c-.01-.01-.026-.02-.037-.03a.99.99 0 0 0-.23-.142c-.03-.01-.062-.02-.09-.032a.592.592 0 0 1-.23-.12.246.246 0 0 1-.025-.272.528.528 0 0 1 .225-.188 1.362 1.362 0 0 0 .167-.11.744.744 0 0 0 .215-.5 3.546 3.546 0 0 0 .036-.466l.007-.057c.005-.094.005-.188.005-.283 0-.073-.005-.146-.01-.214a3.717 3.717 0 0 0-.063-.6 1.254 1.254 0 0 0-1.053-.983c.047-.1.12-.256.2-.445.02-.047.042-.1.063-.146l.026-.078-.073-.037a2 2 0 0 1-1.344-1.466 1.846 1.846 0 0 1 .627-1.537s.125-.11.26-.22a3.53 3.53 0 0 0-.323 1.49 1.213 1.213 0 0 0 .35.817 1.36 1.36 0 0 0 .633.308.765.765 0 0 1 .183.058l.2.09.047-.043a.445.445 0 0 1 .23-.152.67.67 0 0 1 .246.11c.1.057.183.115.188.115l.022.016h.052l.02-.016a1.608 1.608 0 0 1 .435-.225.5.5 0 0 1 .235.152l.036.042.2-.09a.8.8 0 0 1 .184-.058 1.4 1.4 0 0 0 .638-.308 1.234 1.234 0 0 0 .346-.816 3.545 3.545 0 0 0-.325-1.49c.136.11.256.22.256.22a1.834 1.834 0 0 1 .634 1.536zM26.45 27.91l-.367.367.366.366.37-.366zm0 .19l.182.177-.183.178-.18-.178zM26.888 29.244a.74.74 0 0 0-.063-.214.44.44 0 0 0-.12-.188.526.526 0 0 0-.44-.136l-.073.01.016.073.052.24c.01.063.027.136.037.214a6.245 6.245 0 0 1 .094 1.135v.135l.11-.078a.85.85 0 0 0 .393-.575v-.058a2.192 2.192 0 0 0-.005-.56zm-.125.544c0 .027-.006.047-.006.063a.61.61 0 0 1-.235.393 6.972 6.972 0 0 0-.094-1c-.01-.078-.026-.15-.037-.214-.014-.085-.025-.147-.035-.195a.366.366 0 0 1 .26.1.43.43 0 0 1 .07.094.668.668 0 0 1 .072.213 2.12 2.12 0 0 1 .006.545zM28.823 27.91l-.37.367.37.366.362-.366zm0 .19l.178.177-.177.178-.183-.178zM29 28.706a.543.543 0 0 0-.44.136.7.7 0 0 0-.12.188.915.915 0 0 0-.062.214 2.947 2.947 0 0 0-.006.56.208.208 0 0 1 .006.058.842.842 0 0 0 .4.575l.11.078v-.136a6.335 6.335 0 0 1 .094-1.136c.016-.078.026-.15.036-.214.027-.146.048-.24.048-.24l.02-.074zm-.12.324c-.016.063-.026.136-.042.214a7.01 7.01 0 0 0-.09 1 .61.61 0 0 1-.234-.392c0-.016-.006-.036-.006-.063a2.12 2.12 0 0 1 .006-.545.566.566 0 0 1 .073-.214.43.43 0 0 1 .068-.093.367.367 0 0 1 .26-.1 1.94 1.94 0 0 0-.034.193zM25.842 26.938a2.88 2.88 0 0 1-.926-.555l-.04-.047-.054.047a3.367 3.367 0 0 1-.946.555l-.136.052.02.01.11.058a5.036 5.036 0 0 1 .92.643l.043.054.052-.047a5.276 5.276 0 0 1 .962-.65l.115-.057.02-.01zm-.178.073a4.95 4.95 0 0 0-.82.555 4.666 4.666 0 0 0-.8-.554c.005 0 .01 0 .016-.01a3.214 3.214 0 0 0 .8-.48 2.722 2.722 0 0 0 .78.48c.014.006.02.006.024.01zM31.4 26.938a3.437 3.437 0 0 1-.95-.555l-.05-.047-.04.047a2.818 2.818 0 0 1-.926.555l-.136.052.016.01.115.058a5.306 5.306 0 0 1 .962.65l.046.046.047-.053a4.835 4.835 0 0 1 .92-.642l.1-.058.022-.01zm-.172.073a4.623 4.623 0 0 0-.8.555 5.215 5.215 0 0 0-.82-.554s.01 0 .014-.01a2.722 2.722 0 0 0 .78-.48 3.286 3.286 0 0 0 .8.48c.01.006.017.006.022.01zM30.868 29.443a.89.89 0 0 0-.193-.2.862.862 0 0 0-1.02 0A.86.86 0 0 0 30 30.787l.162.032-.094-.137a.7.7 0 0 1-.136-.42.735.735 0 0 1 .737-.73.664.664 0 0 1 .14.015l.163.03zm-1.072.82a.855.855 0 0 0 .073.347.732.732 0 0 1 .062-1.366.753.753 0 0 1 .46 0 .766.766 0 0 1 .267.157.864.864 0 0 0-.86.864zM26.072 29.574a.42.42 0 0 0-.052-.314c0-.005 0-.01-.01-.016a.426.426 0 0 0-.565-.115c-.006.005-.016.01-.02.015a.033.033 0 0 0 0-.02.2.2 0 0 0-.038-.095.35.35 0 0 0-.152-.162.42.42 0 0 0-.575.146c0 .006-.005.01-.005.016a.43.43 0 0 0-.053.214l.016.084v.02H24.6a.406.406 0 0 0-.3.1.41.41 0 0 0-.14.29.412.412 0 0 0 .386.444h.026a.027.027 0 0 0-.01.02.42.42 0 0 0 .235.545.5.5 0 0 0 .15.026.468.468 0 0 0 .17-.032.427.427 0 0 0 .22-.23.03.03 0 0 0 .004-.02.14.14 0 0 1 .022.016.406.406 0 0 0 .26.1.12.12 0 0 0 .043 0 .4.4 0 0 0 .283-.152.39.39 0 0 0 .094-.3.43.43 0 0 0-.146-.282l-.017-.016c.005 0 .01 0 .016-.01a.394.394 0 0 0 .176-.272zm-.633.832a.3.3 0 0 1-.084-.115.36.36 0 0 0-.02-.073v-.036a.43.43 0 0 0 .234-.277.083.083 0 0 1 .037 0h.067a.28.28 0 0 1 .13.063.267.267 0 0 1 .1.19.312.312 0 0 1-.063.213.287.287 0 0 1-.193.1.292.292 0 0 1-.21-.064zm-.382.214a.294.294 0 0 1-.22 0 .286.286 0 0 1-.162-.37.332.332 0 0 1 .073-.106l.02-.01a.3.3 0 0 0 .047-.037c.01-.005.027-.01.037-.016a.416.416 0 0 0 .308.143c.01 0 .02-.006.032-.006l.016.032c0 .025.01.046.015.067a.27.27 0 0 1-.015.14.31.31 0 0 1-.152.163zm-.47-1.14a.24.24 0 0 1 .135.042.4.4 0 0 1 .052.047.055.055 0 0 1 .026.025.424.424 0 0 0-.04.308.338.338 0 0 0 .02.058.113.113 0 0 1-.03.022l-.048.03-.047.022a.325.325 0 0 1-.105.016.31.31 0 0 1-.2-.1.29.29 0 0 1-.067-.2.277.277 0 0 1 .3-.267zm.182-.4c.01-.016.026-.03.037-.047a.3.3 0 0 1 .14-.084.276.276 0 0 1 .215.03.286.286 0 0 1 .063.053.27.27 0 0 1 .068.126.176.176 0 0 1 0 .087.228.228 0 0 1 0 .058.166.166 0 0 0-.026.063v.005c-.006.01-.006.016-.01.026a.374.374 0 0 0-.19 0 .4.4 0 0 0-.166.088c-.01 0-.026-.016-.036-.02a.213.213 0 0 0-.052-.043.338.338 0 0 1-.068-.125c0-.016-.006-.037-.006-.053a.276.276 0 0 1 .032-.17zm.737.167h.006a.3.3 0 0 1 .308 0 .238.238 0 0 1 .09.09.285.285 0 0 1 .037.214.292.292 0 0 1-.126.18.335.335 0 0 1-.135.046.3.3 0 0 0-.073-.006c-.01 0-.02 0-.036-.01a.175.175 0 0 0-.006-.058.415.415 0 0 0-.188-.25c0-.01 0-.027.01-.037l.008-.015v-.015l.016-.047a.4.4 0 0 1 .09-.094zm-.272.837a.037.037 0 0 0-.02.006.3.3 0 0 1-.283-.116.1.1 0 0 1-.02-.03.284.284 0 0 1 .025-.31.1.1 0 0 0 .016-.026.32.32 0 0 1 .14-.083.26.26 0 0 1 .07-.006.47.47 0 0 1 .088.01c.017 0 .022.01.038.016a.28.28 0 0 1 .15.188.307.307 0 0 1 .012.073.083.083 0 0 1 0 .037.282.282 0 0 1-.194.235c-.01-.004-.015 0-.02 0z"/></svg>