<svg xmlns="http://www.w3.org/2000/svg" viewBox="0 0 55 55"><path d="M50.8 27.5c0 .78-.042 1.548-.115 2.31a22.922 22.922 0 0 1-2.348 8.1 23.284 23.284 0 0 1-39.62 3.362 23.334 23.334 0 0 1-4.4-11.458 22.323 22.323 0 0 1 0-4.623 23.33 23.33 0 0 1 4.4-11.462 23.275 23.275 0 0 1 37.565 0 23.65 23.65 0 0 1 2.055 3.357 22.984 22.984 0 0 1 2.348 8.106c.073.76.115 1.533.115 2.31z" fill="#d10201"/><path d="M21.055 32.774l-12.337 8.5a22.9 22.9 0 0 1-2.05-3.357l13.377-6.69a8.223 8.223 0 0 0 1.01 1.547zM48.337 37.915a23.373 23.373 0 0 1-2.055 3.357l-12.33-8.5a8.5 8.5 0 0 0 1-1.548zM48.337 17.085L34.955 23.78a8.54 8.54 0 0 0-1-1.554l12.33-8.5a23.65 23.65 0 0 1 2.052 3.36zM21.055 22.226a8.26 8.26 0 0 0-1.01 1.553L6.668 17.084a22.9 22.9 0 0 1 2.05-3.357zM32.058 50.35a23.278 23.278 0 0 1-9.11 0l3.4-14.6a8.085 8.085 0 0 0 2.31 0zM32.058 4.65l-3.4 14.6a8.6 8.6 0 0 0-2.31 0l-3.4-14.6a23.278 23.278 0 0 1 9.11 0zM19.167 27.5c0 .272.016.55.042.815l-14.89 1.5a22.323 22.323 0 0 1 0-4.624l14.89 1.492c-.027.272-.043.543-.043.818zM50.8 27.5c0 .78-.042 1.548-.115 2.31l-14.894-1.5a8.145 8.145 0 0 0 .043-.814c0-.278-.015-.55-.042-.82l14.895-1.492c.073.765.115 1.54.115 2.316zM34.15 27.5c0 .22-.01.434-.032.648a6.607 6.607 0 0 1-.67 2.322 6.487 6.487 0 0 1-.888 1.344 6.614 6.614 0 0 1-4.29 2.286 6.057 6.057 0 0 1-.767.047 6.152 6.152 0 0 1-.774-.047 6.6 6.6 0 0 1-4.284-2.285 6.473 6.473 0 0 1-.9-1.344 6.607 6.607 0 0 1-.67-2.32c-.02-.215-.03-.43-.03-.65s.01-.44.03-.653A6.655 6.655 0 0 1 26.73 20.9a6.21 6.21 0 0 1 .773-.047 6.057 6.057 0 0 1 .768.047 6.642 6.642 0 0 1 5.848 5.95c.02.213.03.433.03.65z" fill="#fee51b"/></svg>