<svg xmlns="http://www.w3.org/2000/svg" viewBox="0 0 55 55"><path d="M19.737 5.533v43.934A23.415 23.415 0 0 1 8.42 40.852c-.158-.22-.31-.45-.46-.675-.294-.455-.576-.915-.838-1.39A22.874 22.874 0 0 1 5.768 35.9 23.14 23.14 0 0 1 4.2 27.5c0-.345.01-.69.026-1.035a23.186 23.186 0 0 1 5.332-13.812c.068-.078.13-.157.2-.24l.006-.005a23.312 23.312 0 0 1 9.973-6.875zM50.8 27.5A23.337 23.337 0 0 0 35.268 5.533v43.934A23.337 23.337 0 0 0 50.8 27.5z" fill="#c4272f"/><path d="M27.5 4.2a23.164 23.164 0 0 0-7.768 1.333v43.934a23.3 23.3 0 0 0 15.536 0V5.533A23.164 23.164 0 0 0 27.5 4.2z" fill="#015197"/><path d="M5.768 26.465V35.9A23.14 23.14 0 0 1 4.2 27.5c0-.345.01-.69.026-1.035zM14.023 26.465h3.393V42.91h-3.393zM7.222 32.52a3.425 3.425 0 0 0 .544 4.808 4.2 4.2 0 0 0 .553.36c-.006-.004-.006-.01-.01-.015-.032-.03-.06-.063-.09-.1-.026-.037-.052-.068-.078-.1l-.016-.027a.72.72 0 0 1-.068-.1A.807.807 0 0 1 8 37.25c-.006-.006-.01-.016-.016-.02-.016-.038-.03-.07-.047-.1a.018.018 0 0 1 0-.016.356.356 0 0 1-.037-.084c0-.005 0-.016-.01-.02l-.032-.095V36.9a.674.674 0 0 1-.02-.084v-.02a.478.478 0 0 1-.022-.09v-.02a.432.432 0 0 1-.01-.074c0-.01 0-.016-.006-.02a.48.48 0 0 0 0-.085v-.211c.005-.022.005-.048.01-.074 0-.027 0-.053.01-.08v-.02l.017-.073a2.04 2.04 0 0 1 2.046-1.54 2.252 2.252 0 0 0 1.265-.454 1.45 1.45 0 0 0 .46-.764 1.706 1.706 0 0 0-.5-1.578 1.81 1.81 0 0 0-1.537-.466 3.582 3.582 0 0 0-1.01.252 3.49 3.49 0 0 0-.89.55 3.8 3.8 0 0 0-.448.47zM12.57 36.78a3.412 3.412 0 0 0-.544-4.8 3.608 3.608 0 0 0-.7-.435l.006.01.052.053a2.233 2.233 0 0 1 .517.95 1.81 1.81 0 0 1-1.144 2.042 3.383 3.383 0 0 1-.847.19 2.088 2.088 0 0 0-1.575.772 1.48 1.48 0 0 0-.246 1.093 1.8 1.8 0 0 0 1.48 1.385 2.875 2.875 0 0 0 1.38-.14 3.43 3.43 0 0 0 1.62-1.12z" fill="#f9cf02"/><circle cx="9.94" cy="36.392" r=".716" fill="#c4272f"/><path d="M10.656 32.89a.716.716 0 1 1-.716-.716.718.718 0 0 1 .716.716z" fill="#c4272f"/><path fill="#f9cf02" d="M6.48 29.194h6.837v1.396H6.48zM13.317 38.787v1.39H7.96c-.294-.455-.576-.915-.838-1.39zM13.317 40.852l-1.71 1.03-1.615.972a23.348 23.348 0 0 1-1.573-2zM9.898 26.465h3.42l-1.71 1.03-1.71 1.024-1.71-1.025-1.71-1.03H9.9z"/><circle cx="9.898" cy="20.976" r="2.765" fill="#f9cf02"/><path d="M9.893 17.557a1.715 1.715 0 0 1-1.71-1.715 1.43 1.43 0 0 1 .414-.894c.036-.078-.037-.23-.047-.423s-.048-.3.083-.46c.115-.136.183-.21.2-.225a.76.76 0 0 0-.026.314 1 1 0 0 0 .162.26.92.92 0 0 1 .01.665c-.08.218-.18.49-.01.647a.314.314 0 0 0 .5.01c.15-.172.125-.287.04-.48a1.11 1.11 0 0 1-.21-.8 3.12 3.12 0 0 1 .3-.81 1.27 1.27 0 0 0-.03-.79.793.793 0 0 1-.016-.2c.068-.078.13-.157.2-.24a.283.283 0 0 0 .063.188c.47.58 1.072 1.36.643 2.248 0 0-.33.59-.167.784.042.078.366.413.61.026a.612.612 0 0 0-.072-.507.673.673 0 0 1 .06-.774.533.533 0 0 0 .06-.56.78.78 0 0 1 .3.513c.032.32-.16.455.037.732a1.1 1.1 0 0 1 .3.78 1.675 1.675 0 0 1-1.694 1.71zM9.9 24.426a4.116 4.116 0 0 1-3.766-2.446c0 .02-.005.036-.005.052a3.767 3.767 0 0 0 7.532 0v-.052A4.12 4.12 0 0 1 9.9 24.426z" fill="#f9cf02"/></svg>