<svg xmlns="http://www.w3.org/2000/svg" viewBox="0 0 55 55"><path d="M49.466 19.737H5.534a23.3 23.3 0 0 1 43.932 0z"/><path d="M50.8 27.5a23 23 0 0 1-1.334 7.765H5.54a23.228 23.228 0 0 1 0-15.53h43.926A23.008 23.008 0 0 1 50.8 27.5z" fill="#cd1225"/><path d="M49.466 35.268a23.3 23.3 0 0 1-43.927 0z" fill="#309d37"/><path d="M27.5 11.893a10.08 10.08 0 0 0-9.5 6.725h19.01a10.083 10.083 0 0 0-9.51-6.725zM27.5 10.737c.24 0 .44-3.865.44-4.105s-.2-.55-.44-.55-.434.31-.434.55.193 4.105.434 4.105zM26.522 10.784c.24-.02.1-3.89.08-4.13s-.242-.53-.483-.51-.414.34-.393.582.554 4.08.795 4.058zM25.55 10.91c.24-.042-.24-3.886-.283-4.12s-.287-.51-.523-.467-.377.377-.335.617.904 4.01 1.14 3.97zM24.592 11.124c.235-.063-.575-3.85-.638-4.084s-.33-.476-.565-.414a.547.547 0 0 0-.283.638c.062.236 1.255 3.923 1.485 3.86zM23.66 11.417c.226-.084-.914-3.786-.993-4.01s-.37-.446-.6-.367a.548.548 0 0 0-.22.664c.078.225 1.584 3.796 1.814 3.713zM22.756 11.793c.22-.1-1.24-3.692-1.344-3.91s-.407-.415-.622-.31a.54.54 0 0 0-.168.68c.1.22 1.915 3.64 2.134 3.54zM21.883 12.243c.21-.12-1.553-3.567-1.674-3.776a.547.547 0 0 0-.654-.256.54.54 0 0 0-.105.69c.12.21 2.23 3.463 2.433 3.343zM21.057 12.77c.2-.14-1.857-3.42-2-3.618a.535.535 0 0 0-.67-.193.54.54 0 0 0-.047.7c.143.193 2.523 3.247 2.717 3.11zM20.282 13.367c.184-.157-2.154-3.242-2.306-3.43a.543.543 0 0 0-.685-.136.54.54 0 0 0 .017.7c.15.185 2.787 3.02 2.975 2.867zM19.56 14.026c.168-.167-2.425-3.043-2.6-3.21a.54.54 0 0 0-.7-.08.545.545 0 0 0 .08.7c.177.17 3.048 2.764 3.22 2.59zM18.9 14.753c.156-.188-2.684-2.824-2.867-2.975a.545.545 0 0 0-.7-.02.542.542 0 0 0 .14.684c.18.158 3.267 2.494 3.427 2.31zM14.686 13.53c.194.135 3.478 2.2 3.614 2s-2.918-2.574-3.117-2.715a.54.54 0 0 0-.7.047c-.137.192.005.526.203.667zM14 14.68c.21.12 3.656 1.883 3.776 1.673s-3.128-2.31-3.337-2.43a.54.54 0 0 0-.69.1.54.54 0 0 0 .25.657zM13.41 15.883c.22.1 3.808 1.558 3.912 1.338s-3.322-2.028-3.54-2.127a.54.54 0 0 0-.68.162.55.55 0 0 0 .308.628zM12.934 17.133c.23.083 3.928 1.223 4.012 1s-3.484-1.736-3.714-1.82a.548.548 0 0 0-.66.225c-.082.223.137.51.362.595zM12.155 17.86c-.063.23.183.5.413.564.07.016.42.094.894.194H15.8c-1.088-.434-2.845-1-3-1.04a.544.544 0 0 0-.645.28zM42.432 18.424c.235-.063.48-.334.418-.565a.544.544 0 0 0-.643-.283c-.157.042-1.914.607-3 1.04h2.338c.468-.1.824-.177.887-.193zM38.055 18.13c.083.226 3.786-.914 4.01-1s.45-.37.367-.6a.552.552 0 0 0-.664-.223c-.225.093-3.792 1.593-3.713 1.824zM37.683 17.22c.1.22 3.687-1.233 3.907-1.337a.55.55 0 0 0 .314-.628.542.542 0 0 0-.68-.162c-.224.1-3.646 1.914-3.54 2.128zM37.228 16.353c.12.21 3.572-1.553 3.776-1.673a.547.547 0 0 0 .256-.654.54.54 0 0 0-.69-.1c-.21.116-3.462 2.218-3.342 2.427zM36.705 15.527c.136.2 3.415-1.862 3.614-2a.545.545 0 0 0 .2-.67.55.55 0 0 0-.7-.046c-.196.144-3.256 2.518-3.115 2.717zM36.11 14.753c.15.183 3.24-2.154 3.424-2.31a.54.54 0 0 0 .136-.686.538.538 0 0 0-.7.02c-.183.152-3.018 2.788-2.86 2.976zM35.444 14.026c.173.173 3.044-2.42 3.217-2.594a.546.546 0 0 0 .075-.7.54.54 0 0 0-.7.078c-.164.173-2.763 3.05-2.59 3.216zM34.723 13.367c.183.152 2.82-2.682 2.976-2.865a.545.545 0 0 0 .014-.7.543.543 0 0 0-.685.136c-.158.187-2.496 3.272-2.307 3.43zM33.943 12.77c.2.137 2.58-2.917 2.715-3.116a.533.533 0 0 0-.042-.7.544.544 0 0 0-.675.193c-.134.204-2.195 3.483-1.997 3.624zM33.117 12.243c.21.12 2.312-3.133 2.432-3.342a.54.54 0 0 0-.1-.69.54.54 0 0 0-.65.257c-.124.21-1.892 3.656-1.683 3.776zM32.25 11.793c.22.1 2.028-3.32 2.133-3.54a.546.546 0 0 0-.168-.68c-.22-.105-.523.09-.627.31s-1.56 3.806-1.34 3.91zM31.344 11.417c.226.083 1.73-3.488 1.815-3.713a.542.542 0 0 0-.226-.664c-.225-.08-.512.14-.6.366s-1.215 3.927-.99 4.01zM30.408 11.124c.235.063 1.423-3.624 1.485-3.86a.543.543 0 0 0-.277-.638c-.235-.062-.5.178-.565.414s-.872 4.02-.642 4.084zM29.45 10.91c.24.04 1.1-3.734 1.146-3.97s-.1-.575-.334-.617-.487.225-.53.466-.516 4.078-.28 4.12zM28.484 10.784c.235.02.768-3.818.79-4.058s-.147-.56-.388-.58-.46.266-.48.507-.163 4.11.078 4.13z" fill="#cd1225"/></svg>