<svg xmlns="http://www.w3.org/2000/svg" viewBox="0 0 55 55"><path d="M49.12 36.208a23.43 23.43 0 0 1-8.028 10.235A23.285 23.285 0 0 1 27.5 50.8a23.24 23.24 0 0 1-15.97-6.318c-.172-.162-.345-.33-.517-.5a23.164 23.164 0 0 1-5.137-7.772z" fill="#fbe019"/><path d="M49.12 18.787H5.88A23.048 23.048 0 0 1 9.3 12.94c.01-.016.02-.027.03-.042a.237.237 0 0 1 .038-.042.075.075 0 0 1 .03-.042.59.59 0 0 0 .048-.058.1.1 0 0 1 .02-.02.577.577 0 0 1 .053-.064.18.18 0 0 1 .026-.03c.01-.017.026-.032.036-.048s.005-.01.016-.01a.2.2 0 0 1 .036-.053c.262-.307.53-.61.81-.914.006-.01.017-.016.027-.026v-.01a.558.558 0 0 0 .06-.053.143.143 0 0 1 .025-.03c.016-.022.037-.038.052-.06a.06.06 0 0 1 .032-.025.863.863 0 0 1 .1-.1.28.28 0 0 1 .036-.042l.042-.042a.32.32 0 0 1 .04-.042c.054-.057.106-.11.164-.167.172-.174.345-.34.517-.5.27-.258.55-.5.826-.744a.19.19 0 0 1 .036-.026l.032-.03c.01-.007.02-.017.03-.022.268-.23.54-.45.812-.66a.152.152 0 0 1 .037-.026.108.108 0 0 1 .036-.026.242.242 0 0 1 .036-.03c.172-.132.35-.263.528-.393.555-.4 1.125-.77 1.7-1.11a.184.184 0 0 1 .047-.025c.11-.068.226-.136.342-.2.025-.016.046-.026.072-.042.074-.042.147-.084.22-.12a.138.138 0 0 1 .042-.02A.347.347 0 0 1 16.4 7a23.156 23.156 0 0 1 8.61-2.667 22.383 22.383 0 0 1 2.3-.13h.372A23.242 23.242 0 0 1 38.6 6.992a24.417 24.417 0 0 1 2.495 1.564 23.342 23.342 0 0 1 8.03 10.23z" fill="#007067"/><path d="M50.8 27.5a23.374 23.374 0 0 1-1.15 7.26H5.35a23.485 23.485 0 0 1 0-14.525h44.3A23.392 23.392 0 0 1 50.8 27.5z"/><path d="M49.65 20.235H5.35l.173-.5c.11-.32.23-.633.356-.946h43.24c.132.312.252.626.362.945.057.165.118.333.167.5zM49.65 34.76c-.053.167-.11.34-.168.507q-.165.47-.36.94H5.878c-.126-.313-.247-.627-.357-.94l-.172-.508z" fill="#fff"/><path d="M33.832 27.5L24.3 34.76l-1.9 1.448-10.867 8.274c-.172-.162-.345-.33-.517-.5A23.164 23.164 0 0 1 5.88 36.21c-.126-.314-.247-.628-.357-.94l-.172-.51a23.485 23.485 0 0 1 0-14.523l.173-.5c.11-.32.23-.633.356-.946a23.048 23.048 0 0 1 3.42-5.85c.01-.016.02-.027.03-.042a.237.237 0 0 1 .038-.042.075.075 0 0 1 .03-.042.59.59 0 0 0 .048-.058.1.1 0 0 1 .02-.02.577.577 0 0 1 .053-.064.18.18 0 0 1 .026-.03c.01-.017.026-.032.036-.048s.005-.01.016-.01a.2.2 0 0 1 .036-.053c.262-.307.53-.61.81-.914.006-.01.017-.016.027-.026v-.01a.558.558 0 0 0 .06-.053.143.143 0 0 1 .025-.03c.016-.022.037-.038.052-.06a.06.06 0 0 1 .032-.025.863.863 0 0 1 .1-.1.28.28 0 0 1 .036-.042l.042-.042a.32.32 0 0 1 .04-.042c.054-.057.106-.11.164-.167.172-.174.345-.34.517-.5l10.86 8.267 1.9 1.448z" fill="#d11133"/><path fill="#fbe019" d="M15.137 18.797l2.16 6.648h6.99L18.63 29.55l2.162 6.642-5.655-4.105-5.654 4.105 2.16-6.642-5.654-4.105h6.987l2.16-6.648z"/><path fill="#fff" d="M11.643 26.726l-.83 3.77-.666.895 1.015-4.225.48-.44zM19.113 27.165l1.02 4.226-.67-.893-.832-3.77.483.438zM19.406 30.554l.732.984h-4.054a1.956 1.956 0 0 0-.832-.59 11.175 11.175 0 0 1 4.154-.394zM18.532 26.642l.842 3.83a11 11 0 0 0-4.195.417v-4.263c.862-.733 3.1-.063 3.352.015zM15.17 31a1.97 1.97 0 0 1 .836.57 1.292 1.292 0 0 1-1.736 0 1.932 1.932 0 0 1 .836-.57l.03-.01zM10.874 30.554a11.18 11.18 0 0 1 4.153.393 2 2 0 0 0-.836.59h-4.048zM15.1 26.627v4.262a9.054 9.054 0 0 0-3.117-.46c-.528 0-.93.03-1.078.04l.848-3.828c.24-.078 2.48-.748 3.347-.015z"/><path d="M20.028 30.612l-.423-1.768-.414-1.71a.026.026 0 0 0-.01-.02l-.58-.534c0-.006-.01-.006-.016-.01a7.983 7.983 0 0 0-2.134-.367 2.724 2.724 0 0 0-.288.01 2.36 2.36 0 0 0-.382.058 1.55 1.55 0 0 0-.413.142 1.12 1.12 0 0 0-.225.147 2.06 2.06 0 0 0-1.312-.36h-.02a8.064 8.064 0 0 0-2.114.366c-.006.005-.01.005-.016.01l-.586.534a.026.026 0 0 0-.01.02l-.37 1.55-.044.16-.01.06-.194.794-.45 1.872v.016a.017.017 0 0 0 .006.01v.008c0 .006.006.006.006.01s.006 0 .01 0a.015.015 0 0 0 .01 0h4.134a1.468 1.468 0 0 0 .93.367 1.548 1.548 0 0 0 .958-.366h4.137a.017.017 0 0 0 .01 0h.016l.006-.01a.017.017 0 0 0 0-.01v-.016zm-.91-3.447l.413 1.73.383 1.586.22.916-.67-.9-.157-.7-.136-.638-.54-2.432zm-3.94-.538a1.1 1.1 0 0 1 .242-.152 2.244 2.244 0 0 1 .225-.09 2.588 2.588 0 0 1 .58-.088 7.523 7.523 0 0 1 2.3.345l.57 2.573.1.455.178.8c-.078-.006-.24-.02-.45-.026h-.015a10.026 10.026 0 0 0-3.73.444zm-3.43.015a7.993 7.993 0 0 1 1.967-.35 2.06 2.06 0 0 1 1.38.335v4.262a8.19 8.19 0 0 0-2.59-.45c-.182 0-.36-.01-.522-.01-.094 0-.183 0-.267.004-.136 0-.256 0-.36.01-.13 0-.236.01-.314.016-.058 0-.11 0-.136.01l.26-1.192.017-.063.047-.224.136-.622zM10.576 29.6l.037-.167.13-.534.058-.246.362-1.486.48-.44-.38 1.727-.137.633-.02.073-.042.21-.25 1.13-.67.9zm3.615 1.94h-4.053l.737-.983c.026 0 .074 0 .142-.01s.183-.016.313-.016.266-.01.43-.014c.228-.006.49 0 .767.01a8.2 8.2 0 0 1 2.5.424 2 2 0 0 0-.836.588zm.08.042a1.9 1.9 0 0 1 .836-.582l.03-.01.033.01a1.927 1.927 0 0 1 .836.57 1.3 1.3 0 0 1-1.736.01zm1.814-.04a2.022 2.022 0 0 0-.837-.592 10.252 10.252 0 0 1 3.7-.42h.037c.22.012.366.022.42.027l.73.984zM10.922 28.74l2.536-2.13.084-.166.732-.665.48.533 1.267-1.062-.1-.083-1.134.963-.283-.314 1.313-1.193.11.11 1-.983h.634l.78-.716.067-.586.5.36s.408-.36.476-.135a.536.536 0 0 1 0 .366l3.32-2.313-2.95 2.986-.323-.04-1.773 1.49-.435-.34-.633.56-.032.166-2 1.83-.424-.45-.036.063.245.37s-.914.273-.36.707a5.882 5.882 0 0 0 2.306.518v1.093s-.874.608-3.296-.993a.87.87 0 0 1-.193.162l.24.413-.64.737.288 1.12-.518.386s-.387-1.17-.67-1.354c.57-.523.65-.607.65-.607h.27l.252-.293-.146-.21-.22.19.142.11-.048.058-.3.02-1.03.947-.085.256-2.02 2.477a.326.326 0 0 1-.178.11.323.323 0 0 1-.314-.1l-.863-.96a.15.15 0 0 1 .01-.215l1.533-1.328a.558.558 0 0 1 .288-.126l.3-.035.816-.848.252-.01 1.522-1.334.13.047.163-.178.015-.094.926-.81-1.077.8-.12-.053-1.643 1.47h-.126l.08-.738.15-.047zM21.582 32.38l-7.93-9.012a.71.71 0 0 0-.194-.627l-.512-.507a.71.71 0 0 0-1.21.555l-.846-.047a.494.494 0 0 0-.408.194l-2.25 3.117 1.31 1.565 2.64-3.3.058-.774.214.21a.684.684 0 0 0 .717.172l7.868 8.944a.358.358 0 0 0 .512.03.36.36 0 0 0 .032-.516z"/></svg>