<svg xmlns="http://www.w3.org/2000/svg" viewBox="0 0 55 55"><path d="M41.433 8.834L4.906 33.184a23.215 23.215 0 0 1 1.684-15.94c.136-.293.288-.586.445-.874q.47-.863 1.02-1.684c.288-.44.6-.868.915-1.286.287-.382.586-.748.894-1.11s.628-.7.957-1.035a23.252 23.252 0 0 1 30.613-2.42z" fill="#04357f"/><path d="M50.8 27.5a23.286 23.286 0 0 1-37.227 18.666L50.1 21.816a23.444 23.444 0 0 1 .7 5.684z" fill="#009444"/><path d="M43.018 10.136L5.5 35.152c-.23-.644-.424-1.3-.59-1.967l36.523-24.35q.824.62 1.585 1.3zM50.1 21.815l-36.527 24.35c-.55-.412-1.078-.846-1.59-1.3L49.507 19.85c.225.644.424 1.303.592 1.967z" fill="#fff"/><path d="M49.508 19.848L11.982 44.864A23.31 23.31 0 0 1 5.5 35.152l37.518-25.016a23.343 23.343 0 0 1 6.49 9.712z" fill="#d11133"/><path d="M17.93 18.107l3.18-1.214-3.18-1.213 2.143-2.646-3.357.538.533-3.363-2.642 2.144-1.22-3.175-1.212 3.174-1.355-1.1q-.492.5-.956 1.036l.21 1.28-1.104-.17c-.32.418-.627.847-.915 1.286l.8.994-1.82.69c-.157.288-.31.58-.445.874l2.265.863-2.145 2.64 3.363-.532-.538 3.362 2.64-2.15 1.214 3.18 1.218-3.18 2.64 2.15-.532-3.362 3.357.533zm-4.54 3.467a4.684 4.684 0 1 1 4.685-4.68 4.682 4.682 0 0 1-4.686 4.68zM13.394 13.018a3.876 3.876 0 1 0 3.876 3.875 3.874 3.874 0 0 0-3.876-3.875z" fill="#fecd17"/></svg>