<svg xmlns="http://www.w3.org/2000/svg" viewBox="0 0 55 55"><defs><clipPath id="a"><path d="M22.654 30.314h9.692L27.5 21.92z" fill="#c5a310"/></clipPath><clipPath id="b"><path d="M22.654 30.314h9.692L27.5 21.92z" fill="none"/></clipPath></defs><path d="M49.47 35.267a23.31 23.31 0 0 1-43.94 0zM49.47 19.733H5.53a23.312 23.312 0 0 1 43.94 0z" fill="#0967c4"/><path d="M50.8 27.5a23.182 23.182 0 0 1-1.33 7.767H5.53a23.36 23.36 0 0 1 0-15.534h43.94A23.182 23.182 0 0 1 50.8 27.5z" fill="#fff"/><path d="M20.84 26.5a.16.16 0 0 1 .156.12.143.143 0 0 1 .162-.083l.2.015-.01.152-.21-.016c-.037 0-.063.016-.08.063 0 .022-.01.06-.014.11l-.037.45.288.022-.01.15-.8-.06.052-.63a.47.47 0 0 1 .052-.23.21.21 0 0 1 .2-.067zm0 .152l-.05-.006c-.05 0-.082.01-.093.048a.454.454 0 0 0-.02.14l-.037.445.24.02.037-.45a.49.49 0 0 0 0-.125.083.083 0 0 0-.083-.072zM21.56 25.685l-.182.8-.778-.185.188-.79.13.026-.15.644.177.042.147-.612.13.026-.146.617.2.047.152-.643zM21.43 24.608a.207.207 0 0 1 .152.14.445.445 0 0 1-.048.23l-.166.425.26.1-.057.142-.742-.293.22-.56a.64.64 0 0 1 .12-.2.2.2 0 0 1 .215 0zm-.047.146l-.058-.026a.083.083 0 0 0-.1.016.84.84 0 0 0-.063.13l-.152.388.23.094.157-.393a.64.64 0 0 0 .037-.115.08.08 0 0 0-.05-.094zM22.167 23.78c.11.07.168.132.168.2a.55.55 0 0 1-.105.268l-.12.2a.588.588 0 0 1-.183.225c-.058.03-.147.01-.257-.058l-.434-.256.08-.132.412.24c.073.048.125.064.152.053a.452.452 0 0 0 .13-.166l.09-.147a.53.53 0 0 0 .083-.193c0-.032-.042-.068-.115-.115l-.413-.242.08-.136zM22.894 23c.063.057.1.11.1.162a.465.465 0 0 1-.136.25l-.393.467-.607-.514.382-.455a.538.538 0 0 1 .18-.15.172.172 0 0 1 .186.036.19.19 0 0 1 .08.167.18.18 0 0 1 .208.037zm-.376-.068c-.047-.042-.094-.03-.147.026l-.318.377.147.125.323-.387c.048-.06.048-.107-.005-.144zm.277.193a.108.108 0 0 0-.084-.036.17.17 0 0 0-.082.067l-.33.387.157.13.3-.355a.45.45 0 0 0 .068-.095.084.084 0 0 0-.023-.103zM23.7 22.6l-.575.513-.53-.6.116-.1.44.5.46-.408zM23.862 22.5l-.125.094-.476-.638.12-.094zM24.61 21.742a.2.2 0 0 1 .037.2.6.6 0 0 1-.23.194l-.184.11a.52.52 0 0 1-.272.1c-.072 0-.145-.068-.213-.188l-.058-.094a.39.39 0 0 1-.084-.283c.015-.067.094-.145.235-.23l.143-.083a.657.657 0 0 1 .282-.115.19.19 0 0 1 .167.1l.022.036-.126.08-.016-.027c-.02-.04-.063-.052-.12-.036-.027.01-.08.042-.168.094l-.09.053c-.108.07-.166.116-.177.152a.374.374 0 0 0 .074.2l.037.057c.047.078.084.12.116.125s.114-.01.224-.078l.1-.063a.774.774 0 0 0 .178-.126.086.086 0 0 0 0-.1l-.016-.026.124-.073zM25.75 21.538l-.162.062-.14-.115-.56.22-.027.183-.156.063.136-.91.183-.072zm-.423-.152l-.335-.26h-.01l-.074.422zM27.252 20.968a.323.323 0 0 1-.058.277.5.5 0 0 1-.277.09l-.638.077-.096-.795.623-.073a.467.467 0 0 1 .324.042.388.388 0 0 1 .106.272zm-.157-.006l-.01-.068a.335.335 0 0 0-.058-.2.365.365 0 0 0-.236-.016l-.433.052.058.53.44-.054a.382.382 0 0 0 .224-.073.264.264 0 0 0 .02-.17zM28.172 21.33l-.816-.033.027-.8.815.032v.13l-.664-.022v.183l.632.022v.136l-.633-.026v.215l.664.02zM29.747 21.7l-.2-.058-.46-.8-.183.622-.147-.047.22-.764.2.058.465.812.178-.623.146.04zM29.966 21.81l-.14-.058.3-.737.14.057zM31 22.066c-.042.084-.094.13-.152.136a.64.64 0 0 1-.288-.1l-.183-.1a.508.508 0 0 1-.225-.188.325.325 0 0 1 .047-.277l.052-.1c.068-.125.136-.2.2-.214a.455.455 0 0 1 .32.084l.146.078a.66.66 0 0 1 .24.183.177.177 0 0 1 0 .194l-.02.04-.13-.067.015-.026c.02-.043.01-.084-.037-.126a1.458 1.458 0 0 0-.162-.094l-.094-.053a.412.412 0 0 0-.22-.073c-.036.01-.078.068-.13.167l-.032.06c-.047.077-.063.13-.052.16s.073.095.183.153l.1.057a.84.84 0 0 0 .2.09.094.094 0 0 0 .09-.05l.012-.026.13.068zM31.755 22.945l-.135-.105.025-.183-.476-.366-.17.07-.136-.106.858-.345.156.12zm-.09-.44l.054-.423-.007-.01-.4.156zM32.77 23.28a.163.163 0 0 1-.194.036c.032.057.016.115-.047.173l-.147.14-.105-.115.152-.142a.076.076 0 0 0 .01-.1.4.4 0 0 0-.073-.09l-.3-.328-.215.2-.1-.11.58-.543.434.46a.482.482 0 0 1 .13.193.2.2 0 0 1-.082.194zm-.1-.11l.03-.032a.08.08 0 0 0 .032-.1.557.557 0 0 0-.09-.11l-.3-.324-.177.162.31.33a.62.62 0 0 0 .087.083.083.083 0 0 0 .104-.01zM33.005 24.555l-.094-.146.085-.163-.335-.5-.183.01-.094-.14.92-.053.11.162zm.058-.444l.188-.386v-.01l-.433.02zM33.7 25.33a.334.334 0 0 1-.272.03c-.058-.025-.11-.104-.168-.23l-.11-.25a.49.49 0 0 1-.062-.288c.015-.073.083-.136.2-.188l.1-.047a.392.392 0 0 1 .288-.047.46.46 0 0 1 .2.26l.1.22a.482.482 0 0 1 .063.288.25.25 0 0 1-.158.157l-.063-.14a.114.114 0 0 0 .072-.085.38.38 0 0 0-.052-.193l-.073-.167a.407.407 0 0 0-.126-.19c-.035-.014-.1 0-.208.048l-.057.027c-.084.036-.13.078-.142.115s.006.11.053.214l.073.173a.564.564 0 0 0 .11.177c.025.016.072.01.135-.02l-.168-.372.12-.052.23.512zM33.942 26.37a.28.28 0 0 1-.262-.02.58.58 0 0 1-.115-.267l-.058-.225a.633.633 0 0 1-.03-.288c.026-.063.1-.11.224-.14l.487-.127.037.152-.46.115c-.084.026-.13.047-.147.073a.53.53 0 0 0 .026.21l.042.167a.5.5 0 0 0 .084.2c.02.015.072.015.156-.006l.466-.12.036.152zM33.758 27.552l-.015-.172.15-.1-.05-.6-.168-.08-.015-.17.837.4.015.193zm.262-.36l.35-.252v-.01l-.387-.188zM21.174 29.765l-.126-.4.11-.037.13.4zM21.765 31.5l-.09-.152.095-.157-.3-.522h-.183l-.083-.146h.92l.1.167zm.083-.445l.21-.37v-.012h-.43zM22.71 32.61l-.1-.115.5-.434-.005-.005-.78.1-.077-.084.2-.762-.006-.006-.49.435-.1-.115.6-.53.16.19-.194.718.728-.105.162.19zM23.533 33.253l-.64-.507.493-.623.638.508-.083.1-.517-.412-.115.147.5.392-.084.1-.492-.392-.135.162.523.413zM24.746 33.363a.162.162 0 0 1-.173.094.133.133 0 0 1 .006.178l-.1.178-.13-.08.104-.182a.073.073 0 0 0-.027-.093.56.56 0 0 0-.09-.063l-.39-.225-.148.256-.13-.08.39-.69.55.31a.647.647 0 0 1 .188.146.215.215 0 0 1-.026.214zm-.13-.068l.02-.042a.078.078 0 0 0 0-.1.47.47 0 0 0-.12-.078l-.387-.22-.12.21.39.22a.99.99 0 0 0 .11.057.09.09 0 0 0 .105-.042zM24.788 33.933l-.14-.063.318-.727.14.063zM25.918 34.08c-.032.088-.074.14-.13.156a.6.6 0 0 1-.3-.047l-.2-.063a.48.48 0 0 1-.258-.142.32.32 0 0 1 0-.282l.036-.11a.426.426 0 0 1 .152-.246.475.475 0 0 1 .33.026l.157.053a.64.64 0 0 1 .27.136.165.165 0 0 1 .038.188l-.01.047-.14-.047.01-.026c.015-.047-.006-.084-.06-.115a.9.9 0 0 0-.177-.07l-.1-.03a.418.418 0 0 0-.23-.032.323.323 0 0 0-.1.183l-.02.07c-.033.083-.038.14-.022.166.02.042.09.08.2.115l.115.038a.813.813 0 0 0 .213.052.08.08 0 0 0 .073-.068l.01-.026.142.042zM27.07 34.5l-.174-.026-.063-.168-.6-.09-.115.148-.168-.026.576-.722.193.03zm-.294-.34l-.163-.4H26.6l-.272.335zM28.737 34.158a.21.21 0 0 1-.052.2.633.633 0 0 1-.293.078l-.21.02a.505.505 0 0 1-.287-.02.33.33 0 0 1-.12-.26l-.01-.11a.4.4 0 0 1 .04-.29.5.5 0 0 1 .31-.114l.167-.016a.686.686 0 0 1 .3.016.17.17 0 0 1 .11.157v.046l-.147.016v-.032c0-.047-.037-.073-.1-.078a.987.987 0 0 0-.19.01l-.1.01a.44.44 0 0 0-.224.064.388.388 0 0 0-.015.214v.063a.323.323 0 0 0 .053.167.362.362 0 0 0 .235.02l.12-.015a.683.683 0 0 0 .215-.042.08.08 0 0 0 .042-.088l-.005-.032.146-.015zM29.73 34.142l-.79.215-.2-.774.79-.21.032.13-.638.174.047.172.614-.163.036.13-.62.163.053.2.637-.167zM30.84 33.666l-.194.09-.873-.315.26.587-.135.063-.33-.722.194-.09.874.315-.262-.586.14-.062zM31.394 32.516l-.324.214.366.554-.13.084-.366-.55-.325.215-.073-.11.774-.517zM32.226 31.95a.153.153 0 0 1 .03.194.138.138 0 0 1 .174.047l.14.153-.113.1-.142-.157a.078.078 0 0 0-.1-.01.444.444 0 0 0-.088.073l-.33.3.194.213-.11.1-.538-.586.46-.424a.588.588 0 0 1 .2-.136.217.217 0 0 1 .194.09zm-.11.1l-.03-.03c-.038-.037-.07-.047-.1-.03a.406.406 0 0 0-.117.088l-.325.3.162.177.33-.3a.35.35 0 0 0 .083-.09.082.082 0 0 0-.004-.11zM33.36 31.36l-.11.136-.177-.026-.37.476.067.172-.1.13-.34-.857.12-.15zm-.444.09l-.423-.06-.006.012.157.4zM33.79 30.58l-.377.67-.69-.392.073-.13.575.323.3-.537zM33.968 29.42l-.13.4-.116-.037.136-.4zM22.654 30.314h9.692L27.5 21.92z" fill="#c5a310"/><path d="M27.246 34.116c-.172-.005-.345-.016-.518-.037l.764-7.014zm.513 0l-.257-7.05.77 7.013c-.173.02-.34.03-.514.036zm-1.544-.11c-.168-.03-.34-.068-.507-.11l1.777-6.835zm2.573 0l-1.277-6.945 1.784 6.83c-.168.043-.335.085-.508.116zm-3.578-.26c-.168-.06-.33-.122-.492-.19l2.762-6.495zm4.587-.007l-2.282-6.68 2.767 6.496c-.162.068-.324.13-.485.183zm-5.55-.4c-.153-.08-.3-.163-.45-.258l3.676-6.02h.006zm6.506 0l-3.238-6.277h.006l3.682 6.02c-.147.086-.298.17-.45.254zm-7.39-.54c-.142-.1-.278-.21-.41-.32l4.515-5.423zm8.274-.005l-4.116-5.738 4.52 5.424c-.127.11-.267.213-.404.313zm-9.07-.66c-.125-.12-.246-.245-.36-.37l5.25-4.718h.006zm9.865-.004l-4.9-5.078h.006l5.252 4.712c-.116.124-.237.25-.357.365zm-10.555-.765c-.105-.136-.21-.277-.3-.424l5.88-3.9v.006zm11.246 0l-5.586-4.32v-.005l5.885 3.9c-.095.143-.195.284-.3.42zM21.3 30.5c-.083-.152-.162-.31-.235-.46l6.387-3.007zm12.392 0l-6.152-3.462 6.392 3c-.07.15-.147.307-.232.462zm-12.83-.936c-.064-.162-.12-.325-.174-.492l6.758-2.04v.006zm13.274-.006l-6.6-2.52a.006.006 0 0 1 .006-.006l6.758 2.03c-.04.164-.1.33-.16.493zm-13.578-.988c-.037-.173-.068-.345-.1-.513l6.983-1.025zm13.876-.01l-6.884-1.53 6.983 1.02c-.027.167-.058.34-.095.506zM20.41 27.536c-.01-.168-.016-.34-.016-.513l7.056-.01v.01zm14.18-.006l-7.04-.506v-.01L34.606 27v.016c0 .17-.006.343-.016.515zm-7.14-.522l-7.04-.5c.01-.167.03-.345.057-.512L27.45 27zm.1 0l6.983-1.035c.02.172.04.345.057.517zm0 0l6.75-2.055c.053.167.095.335.13.5zm-.1 0l-6.894-1.522c.037-.167.084-.34.132-.5L27.45 27zm0 0l-6.6-2.516c.063-.162.13-.32.2-.476L27.456 27zm.094 0l6.387-3.018c.074.157.142.32.2.48zm-.088-.005L21.3 23.54c.084-.15.173-.3.267-.444l5.89 3.9zm.088 0l5.874-3.912c.095.142.19.288.272.44zm-.083-.006l-5.59-4.31c.104-.135.214-.27.33-.4l5.26 4.7zm.08 0l5.246-4.723c.115.13.225.262.33.4zm-.074-.01L22.56 21.9c.125-.12.25-.236.387-.345l4.524 5.418zm.068 0l4.51-5.434c.13.11.26.225.386.345zm-.063 0l-4.115-5.747c.14-.1.282-.194.43-.283l3.69 6.015zm.054 0L31.2 20.94c.147.09.293.19.435.29zm-.042 0L24.24 20.7c.15-.08.307-.157.47-.225l2.772 6.49zm.036 0v-.005l2.752-6.5c.157.068.32.146.47.224zm0-.005l1.768-6.83c.167.04.335.088.5.145zm-.036 0l-2.29-6.674c.166-.058.333-.11.5-.152l1.793 6.826zm0 0L26.2 20.026c.168-.03.34-.057.513-.073l.78 7.014zm.026 0h-.005l.753-7.02c.173.022.345.043.513.074zm-.016 0l-.266-7.056c.09 0 .177-.005.266-.005s.168.006.246.006l-.24 7.056z" fill="#6fd7f2" clip-path="url(#a)"/><g clip-path="url(#b)"><path d="M30.986 28.332h-.068a3.418 3.418 0 1 0-6.836 0h-.068a3.486 3.486 0 1 1 6.972 0z" fill="#ff0303"/><path d="M30.918 28.332h-.068a3.35 3.35 0 0 0-6.7 0h-.068a3.418 3.418 0 0 1 6.836 0z" fill="#ff6407"/><path d="M30.85 28.332h-.067a3.283 3.283 0 1 0-6.565 0h-.068a3.35 3.35 0 0 1 6.7 0z" fill="#fdfe1f"/><path d="M30.783 28.332h-.07a3.214 3.214 0 1 0-6.427 0h-.068a3.283 3.283 0 1 1 6.565 0z" fill="#00fe1e"/><path d="M30.714 28.332h-.068a3.146 3.146 0 1 0-6.292 0h-.068a3.214 3.214 0 1 1 6.428 0z" fill="#08ccfe"/><path d="M30.646 28.332h-.068a3.078 3.078 0 1 0-6.156 0h-.068a3.146 3.146 0 1 1 6.292 0z" fill="#120ffd"/><path d="M30.578 28.332h-.068a3.01 3.01 0 1 0-6.02 0h-.068a3.078 3.078 0 1 1 6.156 0z" fill="#810480"/></g><path d="M32.325 30.277l.02.037h-.255c.078-.014.14-.026.235-.037z" fill="#fff"/><path d="M27.5 29.048c.414 0 .414.08.827.08s.408-.08.82-.08.414.08.822.08.412-.08.826-.08.408.08.82.08h.048l.047.082c-.062 0-.14.01-.24.01-.413 0-.413-.078-.82-.078s-.414.08-.827.08-.408-.08-.82-.08-.414.08-.823.08-.413-.08-.82-.08-.414.08-.827.08-.408-.08-.82-.08-.415.08-.823.08-.413-.08-.826-.08c-.392 0-.408.073-.774.08l.052-.095h.047c.412 0 .412-.08.82-.08s.414.08.827.08.408-.08.82-.08.414.08.822.08.41-.08.82-.08z" fill="#0642a1"/><path d="M27.5 29.236c.414 0 .414.08.827.08s.408-.08.82-.08.414.08.822.08.412-.08.826-.08.408.08.82.08c.06 0 .11-.006.153-.006l.04.073a2.42 2.42 0 0 1-.34.026c-.413 0-.413-.08-.82-.08s-.414.08-.827.08-.408-.08-.82-.08-.414.08-.823.08-.413-.08-.82-.08-.414.08-.827.08-.408-.08-.82-.08-.415.08-.823.08-.413-.08-.826-.08-.408.08-.82.08a.268.268 0 0 1-.064 0l.057-.095c.042 0 .095.005.152.005.412 0 .412-.08.82-.08s.414.08.827.08.408-.08.82-.08.414.08.822.08.41-.084.82-.084zM23.386 29.5c.413 0 .413-.073.82-.073s.415.073.828.073.408-.073.82-.073.414.073.822.073.413-.073.82-.073.415.073.828.073.408-.073.82-.073.414.073.822.073.413-.073.827-.073.408.073.82.073c.11 0 .19-.005.257-.01l.037.062a2.014 2.014 0 0 1-.44.042c-.413 0-.413-.078-.82-.078s-.414.078-.827.078-.408-.078-.82-.078-.414.078-.823.078-.413-.078-.82-.078-.414.078-.827.078-.408-.078-.82-.078-.415.078-.823.078-.413-.078-.826-.078-.407.078-.82.078h-.168l.058-.1c.07 0 .146.006.256.006zM23.386 29.686c.413 0 .413-.078.82-.078s.415.078.828.078.408-.078.82-.078.414.078.822.078.413-.078.82-.078.415.078.828.078.408-.078.82-.078.414.078.822.078.413-.078.827-.078.408.078.82.078a1.916 1.916 0 0 0 .357-.026l.03.058a2.365 2.365 0 0 1-.533.062c-.413 0-.413-.078-.82-.078s-.414.078-.827.078-.408-.08-.82-.08-.413.078-.822.078-.413-.078-.82-.078-.414.078-.827.078-.407-.078-.82-.078-.414.078-.822.078-.413-.078-.826-.078-.408.078-.82.078a1.86 1.86 0 0 1-.268-.015l.057-.105a1.916 1.916 0 0 0 .356.028zM23.386 29.874c.413 0 .413-.078.82-.078s.415.078.828.078.408-.078.82-.078.414.078.822.078.413-.078.82-.078.415.078.828.078.408-.078.82-.078.414.078.822.078.413-.078.827-.078.408.078.82.078a2.013 2.013 0 0 0 .45-.047l.043.068a4.23 4.23 0 0 1-.64.074c-.412 0-.412-.08-.82-.08s-.413.08-.826.08-.408-.08-.82-.08-.414.08-.823.08-.413-.08-.82-.08-.414.08-.827.08-.408-.08-.82-.08-.415.08-.823.08-.413-.08-.826-.08-.407.08-.82.08a1.856 1.856 0 0 1-.367-.033l.064-.11a2 2 0 0 0 .45.047zM27.5 29.984c.414 0 .414.08.827.08s.408-.08.82-.08.414.08.822.08.412-.08.826-.08.408.08.82.08a2.87 2.87 0 0 0 .547-.064l.047.078c-.335.01-.36.074-.743.074-.413 0-.413-.074-.82-.074s-.414.074-.827.074-.408-.074-.82-.074-.414.074-.823.074-.413-.074-.82-.074-.414.074-.827.074-.408-.074-.82-.074-.415.074-.823.074-.413-.074-.826-.074-.407.074-.82.074a2.257 2.257 0 0 1-.466-.047l.063-.105a2.88 2.88 0 0 0 .55.063c.412 0 .412-.08.82-.08s.414.08.827.08.408-.08.82-.08.414.08.822.08.413-.08.824-.08zM23.386 30.246c.413 0 .413-.08.82-.08s.415.08.828.08.408-.08.82-.08.414.08.822.08.413-.08.82-.08.415.08.828.08.408-.08.82-.08.414.08.822.08.413-.08.827-.08.408.08.82.08a4.83 4.83 0 0 0 .655-.073l.057.1c-.094.01-.157.026-.235.037h-.66a2.333 2.333 0 0 0-.988 0h-.66a2.34 2.34 0 0 0-.49-.053 2.3 2.3 0 0 0-.492.053h-.66a2.4 2.4 0 0 0-.5-.053 2.35 2.35 0 0 0-.49.053h-.66a2.362 2.362 0 0 0-.49-.05 2.4 2.4 0 0 0-.5.054h-.66a2.3 2.3 0 0 0-.49-.053 2.342 2.342 0 0 0-.493.054H23.2a2.707 2.707 0 0 0-.518-.053l.047-.087a4.718 4.718 0 0 0 .656.073z" fill="#02275f"/><path d="M24.06 28.77c.414 0 .414.074.827.074s.408-.073.822-.073.412.074.82.074.413-.073.826-.073.408.074.82.074.41-.073.823-.073.412.074.82.074.413-.073.826-.073.408.074.82.074h.034l.052.094c-.35 0-.37-.078-.758-.078-.414 0-.414.078-.827.078s-.408-.078-.82-.078-.414.078-.822.078-.413-.078-.827-.078-.408.078-.82.078-.41-.078-.822-.078-.413.078-.82.078-.414-.078-.828-.078c-.387 0-.408.073-.758.078l.063-.1a2.512 2.512 0 0 1 .548-.067z" fill="#80a0d1"/><path d="M27.356 29.142c.408 0 .408.08.82.08s.41-.08.823-.08.412.08.82.08.413-.08.826-.08.408.08.82.08c.1 0 .18-.007.242-.012l.058.1c-.042 0-.094.005-.152.005-.413 0-.413-.08-.82-.08s-.415.08-.828.08-.408-.08-.82-.08-.414.08-.822.08-.413-.08-.827-.08-.408.08-.82.08-.41-.08-.822-.08-.413.08-.82.08-.414-.08-.828-.08-.408.08-.82.08c-.058 0-.11-.005-.153-.005l.053-.09c.366-.005.382-.078.774-.078.414 0 .414.08.827.08s.408-.08.822-.08.412.08.82.08.413-.08.826-.08zM27.356 29.33c.408 0 .408.08.82.08s.41-.08.823-.08.412.08.82.08.413-.08.826-.08.408.08.82.08a2.42 2.42 0 0 0 .34-.027l.064.1c-.068.006-.146.01-.256.01-.413 0-.413-.072-.82-.072s-.415.074-.828.074-.408-.073-.82-.073-.414.074-.822.074-.413-.073-.827-.073-.408.074-.82.074-.41-.073-.822-.073-.413.074-.82.074-.414-.073-.828-.073-.408.074-.82.074c-.11 0-.19-.005-.257-.01l.047-.084a.268.268 0 0 0 .063 0c.413 0 .413-.078.82-.078s.414.078.827.078.408-.078.822-.078.412.078.82.078.413-.07.826-.07zM27.356 29.514c.408 0 .408.078.82.078s.41-.078.823-.078.412.078.82.078.413-.078.826-.078.408.078.82.078a2.014 2.014 0 0 0 .44-.042l.064.11a1.916 1.916 0 0 1-.356.026c-.413 0-.413-.078-.82-.078s-.415.078-.828.078-.408-.078-.82-.078-.414.078-.822.078-.413-.078-.827-.078-.408.078-.82.078-.41-.078-.822-.078-.413.078-.82.078-.414-.078-.828-.078-.408.078-.82.078a1.916 1.916 0 0 1-.357-.026l.042-.073h.168c.413 0 .413-.078.82-.078s.414.077.827.077.408-.078.822-.078.412.077.82.077.413-.073.826-.073zM27.356 29.7c.408 0 .408.078.82.078s.41-.078.823-.078.412.078.82.078.413-.078.826-.078.408.078.82.078a2.365 2.365 0 0 0 .534-.06l.063.11a2.013 2.013 0 0 1-.45.046c-.413 0-.413-.078-.82-.078s-.415.078-.828.078-.408-.078-.82-.078-.414.078-.822.078-.413-.078-.827-.078-.408.078-.82.078-.41-.078-.822-.078-.413.078-.82.078-.414-.078-.828-.078-.408.078-.82.078a2 2 0 0 1-.45-.047l.036-.062a1.86 1.86 0 0 0 .267.015c.412 0 .412-.078.82-.078s.413.078.826.078.408-.078.822-.078.413.078.82.078.415-.08.828-.08zM22.873 29.937a1.856 1.856 0 0 0 .367.032c.413 0 .413-.08.82-.08s.414.08.827.08.408-.08.822-.08.412.08.82.08.413-.08.826-.08.408.08.82.08.41-.08.823-.08.412.08.82.08.413-.08.826-.08.408.08.82.08a4.23 4.23 0 0 0 .64-.075l.057.105a2.87 2.87 0 0 1-.55.063c-.412 0-.412-.08-.82-.08s-.414.08-.827.08-.408-.08-.82-.08-.414.08-.822.08-.413-.08-.827-.08-.408.08-.82.08-.41-.08-.822-.08-.413.08-.82.08-.414-.08-.828-.08-.408.08-.82.08a2.88 2.88 0 0 1-.55-.063zM27.356 30.078c.408 0 .408.074.82.074s.41-.074.823-.074.412.074.82.074.413-.074.826-.074.408.074.82.074c.383 0 .41-.063.744-.074l.058.095a4.83 4.83 0 0 1-.654.073c-.413 0-.413-.08-.82-.08s-.415.08-.828.08-.408-.08-.82-.08-.414.08-.822.08-.413-.08-.827-.08-.408.08-.82.08-.41-.08-.822-.08-.413.08-.82.08-.414-.08-.828-.08-.408.08-.82.08a4.718 4.718 0 0 1-.655-.073l.042-.068a2.257 2.257 0 0 0 .466.047c.413 0 .413-.074.82-.074s.414.074.827.074.408-.074.822-.074.412.074.82.074.413-.074.826-.074z" fill="#fff"/><path d="M31.263 28.44l.063.11a2.35 2.35 0 0 0-.533-.062c-.414 0-.414.08-.827.08s-.408-.08-.82-.08-.414.08-.822.08-.413-.08-.827-.08-.408.08-.82.08-.41-.08-.822-.08-.413.08-.82.08-.414-.08-.828-.08a2.35 2.35 0 0 0-.533.063l.057-.11z" fill="#80a0d1"/><path fill="#0642a1" d="M31.206 28.342l.057.1H23.73l.064-.1h7.412z"/><path d="M30.934 30.26a2.408 2.408 0 0 1 .5.054h-.99a2.394 2.394 0 0 1 .49-.053z" fill="#fff"/><path fill="#80a0d1" d="M31.16 28.258l.046.084h-7.412l.047-.084h7.32z"/><path d="M27.5 28.86c.414 0 .414.078.827.078s.408-.078.82-.078.414.078.822.078.412-.078.826-.078c.387 0 .408.073.758.078l.052.094h-.136c-.413 0-.413-.078-.82-.078s-.414.078-.827.078-.408-.078-.82-.078-.414.078-.823.078-.413-.078-.82-.078-.414.078-.827.078-.408-.078-.82-.078-.415.078-.823.078-.413-.078-.826-.078a5.728 5.728 0 0 0-.664.073l.052-.09c.35 0 .37-.077.758-.077.414 0 .414.078.827.078s.408-.078.82-.078.414.078.822.078.41-.078.82-.078zM27.5 28.677c.414 0 .414.078.827.078s.408-.078.82-.078.414.078.822.078.412-.078.826-.078a4.558 4.558 0 0 1 .648.073l.058.094h-.032c-.413 0-.413-.073-.82-.073s-.414.074-.827.074-.408-.073-.82-.073-.414.074-.823.074-.413-.073-.82-.073-.414.074-.827.074-.408-.073-.82-.073-.415.074-.823.074-.413-.073-.826-.073a2.512 2.512 0 0 0-.55.064l.048-.084a4.472 4.472 0 0 1 .648-.073c.414 0 .414.078.827.078s.408-.078.82-.078.414.078.822.078.41-.078.82-.078zM31.122 28.196l.037.062h-7.32l.038-.062h7.244z" fill="#0642a1"/><path fill="#80a0d1" d="M31.097 28.154l.025.042h-7.244l.026-.042h7.193z"/><path fill="#0642a1" d="M31.08 28.117l.017.037h-7.193l.016-.037h7.16z"/><path fill="#80a0d1" d="M31.08 28.117h-7.16l.015-.02h7.13l.015.02zM24.06 28.954c.414 0 .414.078.827.078s.408-.078.822-.078.412.078.82.078.413-.078.826-.078.408.078.82.078.41-.078.823-.078.412.078.82.078.413-.078.826-.078.408.078.82.078h.134l.058.095h-.047c-.412 0-.412-.08-.82-.08s-.414.08-.827.08-.408-.08-.82-.08-.414.08-.822.08-.412-.08-.826-.08-.408.08-.82.08-.41-.08-.822-.08-.413.08-.82.08-.414-.08-.828-.08-.408.08-.82.08h-.048l.058-.1a5.728 5.728 0 0 1 .667-.073zM24.06 28.583c.414 0 .414.078.827.078s.408-.077.822-.077.412.078.82.078.413-.077.826-.077.408.078.82.078.41-.077.823-.077.412.078.82.078.413-.077.826-.077c.382 0 .408.068.743.078l.05.09a4.558 4.558 0 0 0-.647-.073c-.414 0-.414.078-.827.078s-.408-.078-.82-.078-.414.078-.822.078-.413-.078-.827-.078-.408.078-.82.078-.41-.078-.822-.078-.413.078-.82.078-.414-.078-.828-.078a4.472 4.472 0 0 0-.648.073l.067-.126a2.066 2.066 0 0 1 .434-.04z"/><path d="M27.5 28.488c.414 0 .414.08.827.08s.408-.08.82-.08.414.08.822.08.412-.08.826-.08a2.35 2.35 0 0 1 .533.063l.062.11c-.335-.01-.36-.077-.743-.077-.414 0-.414.078-.827.078s-.408-.077-.82-.077-.414.078-.823.078-.413-.077-.82-.077-.414.078-.827.078-.408-.077-.82-.077-.415.078-.823.078-.413-.077-.826-.077a2.066 2.066 0 0 0-.434.04l.047-.072a2.35 2.35 0 0 1 .533-.062c.414 0 .414.08.827.08s.408-.08.82-.08.414.08.822.08.41-.08.82-.08z" fill="#0642a1"/><path d="M29.292 30.26a2.34 2.34 0 0 1 .49.054H28.8a2.3 2.3 0 0 1 .492-.053zM27.644 30.26a2.4 2.4 0 0 1 .5.054h-.99a2.35 2.35 0 0 1 .49-.053zM26 30.26a2.362 2.362 0 0 1 .493.054h-.99A2.4 2.4 0 0 1 26 30.26zM24.354 30.26a2.3 2.3 0 0 1 .49.054h-.982a2.342 2.342 0 0 1 .492-.053zM23.2 30.314h-.55l.032-.053a2.707 2.707 0 0 1 .518.054z" fill="#fff"/><path d="M27.75 26.166a.165.165 0 0 1-.022.08c-.016.025-.042.05-.053.046s0-.016 0-.032c0-.036-.03-.052-.057-.083a.315.315 0 0 1-.058-.168.335.335 0 0 1-.005-.07.52.52 0 0 1 .194.226zM27.884 26.726v.005c-.052.027-.12 0-.177.033a.17.17 0 0 0-.068.083.335.335 0 0 0-.022.073c-.006.01-.006.026-.01.036a.176.176 0 0 1-.064.09h-.02a.017.017 0 0 1-.006-.016c-.01-.016 0-.037.01-.053s.027-.03.037-.047a.46.46 0 0 0 .032-.12.28.28 0 0 1 .026-.063.178.178 0 0 1 .115-.047c.026 0 .058.005.084.005a.2.2 0 0 0 .052-.01.04.04 0 0 1 .01.03z" fill="#fb3b3a"/><path d="M27.822 26.768a.16.16 0 0 0-.073.01.135.135 0 0 0-.07.032.11.11 0 0 0-.026.062.1.1 0 0 0-.02.053l-.016-.006a.335.335 0 0 1 .02-.074.17.17 0 0 1 .07-.083c.056-.027.124-.006.176-.032a.04.04 0 0 1-.026.048c-.01-.005-.026-.005-.036-.01z" fill="#ff0302"/><path d="M27.858 26.778a.46.46 0 0 1-.11.02.148.148 0 0 0-.094.074.11.11 0 0 1 .026-.062.135.135 0 0 1 .07-.032.16.16 0 0 1 .072-.01c.01.005.026.005.036.01zM27.46 26.888a.807.807 0 0 0 0 .11c0 .01.006.016.006.026a.1.1 0 0 0 .01.037.086.086 0 0 1-.036-.046V27a.96.96 0 0 0 0-.12.257.257 0 0 0-.08-.13.75.75 0 0 0-.14-.08.265.265 0 0 1-.094-.088.28.28 0 0 1 .105.02.373.373 0 0 1 .13.058.258.258 0 0 1 .048.042.25.25 0 0 1 .048.125.52.52 0 0 1 .005.06z" fill="#520200"/><path d="M27.414 26.4a.47.47 0 0 1-.016.147.853.853 0 0 1-.037.115.373.373 0 0 0-.13-.058.28.28 0 0 0-.104-.02.108.108 0 0 1-.01-.037.127.127 0 0 1 .026-.105c.062-.1.115-.178.12-.183 0 .004-.073.062-.12.036.015-.042.052-.11.11-.12a.282.282 0 0 0 .162-.068.2.2 0 0 0-.016.078.81.81 0 0 0 0 .11c.002.032.016.07.016.104z" fill="#940101"/><path d="M27.628 26.93a.2.2 0 0 1-.057.12.1.1 0 0 1-.1.01.1.1 0 0 1-.01-.036c0-.01-.004-.016-.004-.026a.807.807 0 0 1 0-.11.52.52 0 0 0 0-.063.25.25 0 0 0-.048-.125.258.258 0 0 0-.047-.042.853.853 0 0 0 .038-.115.47.47 0 0 0 .016-.147c0-.03-.01-.068-.01-.1a.81.81 0 0 1 0-.11.2.2 0 0 1 .015-.078.282.282 0 0 1-.163.068c-.058.01-.095.078-.11.12a.09.09 0 0 1-.026-.037c-.03-.095.184-.346.382-.33a.142.142 0 0 1 .063.015.335.335 0 0 0 .005.068.315.315 0 0 0 .058.168c.026.032.057.048.057.084 0 .016-.01.032 0 .032s.037-.02.053-.047a.165.165 0 0 0 .02-.08 1.134 1.134 0 0 1 .12.372.586.586 0 0 1 0 .094c0 .015.006.042 0 .057v.01a.2.2 0 0 1-.05.01c-.027 0-.06-.004-.085-.004a.178.178 0 0 0-.115.046.28.28 0 0 0-.026.063.46.46 0 0 1-.032.12c-.01.015-.025.03-.036.046s-.02.037-.01.053a.017.017 0 0 0 .005.014h.02a.176.176 0 0 0 .062-.09c0-.01 0-.025.01-.036l.016.006-.01-.004z" fill="#ff0302"/><g clip-path="url(#b)"><path d="M25 27.5a3.033 3.033 0 0 1-.49 1.365c-.258.424-.545.366-.854.4A2.988 2.988 0 0 0 25 27.5z" fill="#91bb35"/><path d="M29.9 27.306a2.18 2.18 0 0 1-.157 1.4c-.062-.047-.12-.094-.172-.14a3.036 3.036 0 0 0 .24-1.126 2.05 2.05 0 0 1-.428.942l-.03-.03a.447.447 0 0 0 .046-.127.325.325 0 0 1-.073.094c-.037-.043-.057-.07-.057-.07a1.687 1.687 0 0 0 .334-.517 2 2 0 0 0 .094-.256c.02-.063.032-.12.1-.157a.192.192 0 0 1 .104-.014z" fill="#ece62b"/><path d="M29.81 27.442a3.036 3.036 0 0 1-.24 1.125 1.333 1.333 0 0 1-.19-.183 2.05 2.05 0 0 0 .43-.942z" fill="#c5ca2c"/><path d="M25.49 28.1a2.63 2.63 0 0 0 1 .968c.134-.01.244-.026.244-.026a2.3 2.3 0 0 1-.654-.382 1.88 1.88 0 0 1-.146-.136 4.13 4.13 0 0 0 .266-1.083 3.744 3.744 0 0 1-.4.943l-.1-.13a3.69 3.69 0 0 0 .235-.388c.047-.094.094-.193.14-.288.053-.115.08-.235.2-.25-.01.24-.015.48 0 .72a1.432 1.432 0 0 0 .08.514.887.887 0 0 0 .365.42 1.76 1.76 0 0 0 .66.224c.125.016.25.026.38.03-.213-.124-.96-.668-1.087-1.15.256.34.655.947 1.25.958a1.76 1.76 0 0 1-.382-.188 1.782 1.782 0 0 1-.27-.194.986.986 0 0 1-.126-.115 1.865 1.865 0 0 0 .277-.894c.012-.125.012-.24.017-.318a.166.166 0 0 1 .1 0c.016 0 .027.005.037.005 0 .34.063 1.82 1.533 1.7a2.256 2.256 0 0 1-.55-.3 2.91 2.91 0 0 0 .157-1.418c.006 0 .006 0 .01.005.142.026.153.177.2.3a3.168 3.168 0 0 0 .142.308 2.247 2.247 0 0 0 .194.314s.02.026.057.068c.01.01.016.02.026.032l.03.03a1.333 1.333 0 0 0 .19.184c.052.048.11.095.172.142a2.18 2.18 0 0 0 .157-1.4.183.183 0 0 1 .136.08c.016.04.026.083.042.124a5.652 5.652 0 0 0 .236.518 1.934 1.934 0 0 0 1.475 1l.21.445a3.593 3.593 0 0 0-1.046-.027 4.58 4.58 0 0 1-.707.115c-.423 0-.486-.136-.9-.115-.272.016-.277.073-.628.1-.126 0-.153 0-.618-.015-.445-.016-.664-.02-.78-.01-.308.036-.313.1-.606.114a4.214 4.214 0 0 1-.555-.02c-.323-.017-.49-.027-.574-.022-.324.02-.33.09-.643.115-.058.006-.068 0-.654-.03-.362-.022-.44-.027-.566-.027a2.208 2.208 0 0 0-.508.052 1.687 1.687 0 0 0-.46.183l.14-.654a1.764 1.764 0 0 0 1.058-.346 3.854 3.854 0 0 0 .556-.584 4.24 4.24 0 0 0 .262-.434c.052-.094.1-.193.14-.288.053-.115.084-.235.2-.25a3.13 3.13 0 0 0 .01.883c.085.3.09.948 1.476 1.026a3.355 3.355 0 0 1-1.1-1.136zm-.98.764A3.033 3.033 0 0 0 25 27.5a2.988 2.988 0 0 1-1.344 1.768c.31-.037.598.02.855-.403z" fill="#95c82b"/><path d="M29.323 28.32a.325.325 0 0 0 .073-.093.447.447 0 0 1-.047.126c-.01-.01-.017-.02-.027-.032z" fill="#91bb35"/><path d="M28.72 27.327a2.91 2.91 0 0 1-.156 1.418c-.036-.026-.068-.053-.1-.084a1.65 1.65 0 0 1-.14-.13 2.54 2.54 0 0 0 .323-1.088 4.267 4.267 0 0 1-.43.978l-.05-.067.057-.13-.084.1a.806.806 0 0 1-.053-.07 4.02 4.02 0 0 0 .23-.386c.053-.094.1-.193.142-.288.057-.132.09-.28.26-.253z" fill="#ece62b"/><path d="M28.214 28.42a4.267 4.267 0 0 0 .43-.978 2.54 2.54 0 0 1-.325 1.088c-.038-.036-.075-.073-.106-.11z" fill="#c5ca2c"/><path d="M27.618 27.442s.136 1.428.93 1.454a2.52 2.52 0 0 1-.93-1.454zm.544.91c.015.02.03.042.052.068s.068.074.105.11a1.65 1.65 0 0 0 .14.13c.036.032.068.06.1.085a2.256 2.256 0 0 0 .55.3c-1.47.115-1.538-1.365-1.533-1.7.116.047.126.183.168.293a2.946 2.946 0 0 0 .14.308 2.446 2.446 0 0 0 .194.314.806.806 0 0 0 .052.068c.014.004.02.014.03.025z" fill="#ece62b"/><path d="M28.22 28.222l-.058.13c-.01-.01-.016-.02-.026-.03z" fill="#91bb35"/><path d="M27.618 27.442a2.52 2.52 0 0 0 .93 1.454c-.794-.026-.93-1.454-.93-1.454z" fill="#c5ca2c"/><path d="M26.347 27.442s.125 1.345.92 1.564a3 3 0 0 1-.92-1.564zm1.417 1.794c-.13 0-.256-.015-.38-.03a1.76 1.76 0 0 1-.66-.226.887.887 0 0 1-.367-.418 1.432 1.432 0 0 1-.078-.513c-.012-.24-.007-.482 0-.723a.17.17 0 0 1 .072.006c.147.026.157.177.2.3a3.216 3.216 0 0 0 .147.308 2.394 2.394 0 0 0 .192.32l.047.058.046.063.03.032a1.07 1.07 0 0 0 .127.136.986.986 0 0 0 .125.115 1.782 1.782 0 0 0 .272.194 1.76 1.76 0 0 0 .382.188c-.595-.01-.994-.617-1.25-.957.128.48.878 1.023 1.092 1.148zM27.44 27.333c-.005.078-.005.193-.016.32a3.6 3.6 0 0 1-.4.757l-.03-.03c.01-.038.03-.095.057-.18a.26.26 0 0 1-.1.116l-.046-.058a2.946 2.946 0 0 0 .235-.392c.052-.094.094-.193.14-.288s.066-.21.16-.245z" fill="#ece62b"/><path d="M27.424 27.652a1.865 1.865 0 0 1-.277.894 1.07 1.07 0 0 1-.126-.136 3.6 3.6 0 0 0 .404-.758z" fill="#c5ca2c"/><path d="M26.943 28.316a.26.26 0 0 0 .1-.115c-.027.085-.048.142-.058.18z" fill="#91bb35"/><path d="M26.347 27.442a3 3 0 0 0 .92 1.564c-.795-.22-.92-1.564-.92-1.564z" fill="#c5ca2c"/><path d="M26.74 29.043s-.11.016-.246.026a2.63 2.63 0 0 1-1-.97 3.355 3.355 0 0 0 1.093 1.136c-1.386-.078-1.39-.727-1.475-1.025a3.13 3.13 0 0 1-.01-.883.2.2 0 0 1 .078.006c.14.026.152.177.2.3.042.1.09.21.14.308a2.843 2.843 0 0 0 .195.315l.1.13c.042.048.084.095.13.142a1.88 1.88 0 0 0 .147.136 2.3 2.3 0 0 0 .647.38zm-1.262-.476a.783.783 0 0 0 .644.44 2.777 2.777 0 0 1-.952-1.565 3.716 3.716 0 0 0 .308 1.125z" fill="#ece62b"/><path d="M26.205 27.442a4.13 4.13 0 0 1-.266 1.083c-.048-.047-.09-.094-.132-.14a3.744 3.744 0 0 0 .397-.943z" fill="#91bb35"/><path d="M26.122 29.006a.783.783 0 0 1-.644-.44 3.716 3.716 0 0 1-.308-1.124 2.777 2.777 0 0 0 .952 1.564z" fill="#c5ca2c"/></g></svg>