<svg xmlns="http://www.w3.org/2000/svg" viewBox="0 0 55 55"><g fill="#aa7d51"><path d="M27.5 50.85c-12.875 0-23.35-10.475-23.35-23.352C4.15 14.624 14.625 4.15 27.5 4.15c12.875 0 23.35 10.475 23.35 23.35 0 12.875-10.475 23.35-23.35 23.35m0-46.02C15 4.83 4.83 15 4.83 27.497 4.83 40 15 50.17 27.5 50.17S50.17 40 50.17 27.5C50.17 15 40 4.83 27.5 4.83M25.106 15.99c-.486 0-.88-.396-.88-.88 0-.487.394-.883.88-.883s.882.396.882.882c0 .484-.396.88-.882.88m0-1.432c-.304 0-.55.247-.55.55 0 .305.246.552.55.552a.552.552 0 0 0 .55-.55.552.552 0 0 0-.55-.552M40.04 28.333c-.485 0-.88-.396-.88-.882 0-.484.394-.88.88-.88s.88.396.88.88c0 .487-.394.883-.88.883m0-1.433c-.303 0-.55.247-.55.55 0 .305.246.553.55.553.304 0 .55-.247.55-.552 0-.303-.246-.55-.55-.55M15.27 13.314c-.485 0-.88-.396-.88-.88 0-.486.394-.882.88-.882.487 0 .882.396.882.882 0 .484-.396.88-.88.88m0-1.432c-.305 0-.553.247-.553.552 0 .303.247.55.55.55.305 0 .55-.247.55-.55 0-.305-.246-.552-.55-.552m18.9 28.9c-.486 0-.88-.395-.88-.882 0-.485.394-.882.88-.882s.88.396.88.882c0 .487-.394.883-.88.883m0-1.433c-.304 0-.552.247-.552.55 0 .305.248.553.552.553a.552.552 0 0 0 0-1.103m-7.95 1.382c-.487 0-.883-.395-.883-.882 0-.486.396-.88.882-.88s.88.394.88.88c0 .487-.395.882-.88.882m0-1.433c-.305 0-.552.246-.552.55 0 .303.247.55.55.55.305 0 .553-.246.553-.55 0-.304-.247-.55-.55-.55m7.804-19.706c-.485 0-.88-.396-.88-.882s.395-.882.88-.882c.486 0 .882.396.882.882 0 .487-.396.882-.882.882m0-1.432c-.303 0-.55.247-.55.55 0 .305.247.552.55.552.304 0 .55-.247.55-.55 0-.305-.246-.552-.55-.552M13.54 25.575c-.485 0-.88-.395-.88-.88s.394-.883.88-.883c.487 0 .883.396.883.882s-.396.88-.882.88m0-1.43c-.303 0-.55.246-.55.55 0 .303.247.55.55.55.304 0 .55-.246.55-.55 0-.303-.246-.55-.55-.55m26.618-8.158c-.486 0-.88-.396-.88-.88 0-.487.394-.883.88-.883s.882.395.882.882c0 .486-.395.88-.882.88m0-1.43c-.303 0-.55.246-.55.55 0 .303.247.55.55.55.304 0 .55-.246.55-.55a.552.552 0 0 0-.55-.55m-28.07 21.94a.882.882 0 0 1-.882-.882c0-.486.395-.882.882-.882.486 0 .88.397.88.883s-.394.882-.88.882m0-1.432c-.304 0-.552.246-.552.55 0 .305.248.553.552.553.303 0 .55-.247.55-.552a.55.55 0 0 0-.55-.55m10.655 8.35c-.486 0-.88-.395-.88-.88s.394-.883.88-.883c.487 0 .882.397.882.883 0 .487-.395.882-.882.882m0-1.432c-.303 0-.55.246-.55.55a.55.55 0 0 0 1.102 0c0-.303-.248-.55-.552-.55m22.065-5.103c-.486 0-.88-.395-.88-.882 0-.486.394-.88.88-.88s.88.394.88.88c0 .487-.394.882-.88.882m0-1.432c-.304 0-.55.247-.55.55 0 .305.246.552.55.552.304 0 .55-.247.55-.55 0-.305-.246-.552-.55-.552m-25.603-.303c-.486 0-.882-.395-.882-.88s.395-.883.882-.883c.486 0 .882.396.882.882s-.396.88-.882.88m0-1.43c-.304 0-.55.246-.55.55 0 .304.246.55.55.55.304 0 .55-.246.55-.55 0-.304-.246-.55-.55-.55M27.64 49.19c-.486 0-.88-.394-.88-.88 0-.487.394-.883.88-.883s.88.395.88.882-.393.88-.88.88m0-1.43a.55.55 0 1 0 .552.55c0-.304-.247-.55-.552-.55M27.507 6.193c-11.71 0-21.236 9.526-21.236 21.235 0 11.43 9.076 20.777 20.398 21.22v-.454c-10.998-.44-19.822-9.463-19.94-20.54h1.246c.122 10.67 8.837 19.312 19.533 19.312 7.417 0 13.88-4.155 17.188-10.26a.71.71 0 0 1-.405-.214c-1.627 3-4.032 5.522-6.947 7.283l-.644-1.068c5.174-3.125 8.64-8.804 8.64-15.28 0-4.175-1.442-8.02-3.856-11.063l-.352.284c2.004 2.527 3.322 5.623 3.667 9.003l-1.245.102c-.84-8.112-7.717-14.458-16.047-14.458-3.892 0-7.466 1.385-10.256 3.688l-.837-.924c3.01-2.503 6.878-4.01 11.093-4.01 4.64 0 8.863 1.83 11.982 4.804a.71.71 0 0 1 .286-.35 17.855 17.855 0 0 0-2.03-1.668l.7-1.03c4.92 3.454 8.143 9.17 8.143 15.624 0 2.506-.488 4.9-1.37 7.094l.415.187c.907-2.253 1.408-4.71 1.408-7.282 0-10.772-8.763-19.535-19.534-19.535-4.43 0-8.517 1.483-11.797 3.976.12.094.21.225.25.378 3.208-2.446 7.21-3.9 11.546-3.9 3.903 0 7.537 1.18 10.563 3.2l-.7 1.03c-2.828-1.883-6.22-2.983-9.864-2.983-9.835 0-17.836 8-17.836 17.835 0 2.8.65 5.452 1.806 7.812a.71.71 0 0 1 .36-.297c-1.096-2.276-1.713-4.824-1.713-7.515 0-5.208 2.304-9.888 5.944-13.077l.838.924c-3.39 2.96-5.533 7.31-5.533 12.152 0 6.716 4.125 12.486 9.975 14.913l.164-.423c-5.68-2.36-9.686-7.966-9.686-14.49 0-8.646 7.035-15.68 15.682-15.68h.185L27.658 13a7.303 7.303 0 0 0-.148-.002c-6.772 0-12.467 4.687-14.017 10.987.017 0 .034-.003.05-.003.144 0 .277.043.39.115C15.43 17.99 20.95 13.45 27.51 13.45c7.708 0 13.98 6.27 13.98 13.98 0 2.825-.842 5.457-2.29 7.658l-1.02-.716a12.648 12.648 0 0 0 1.958-5.32l-.45-.038c-.66 5.085-4.436 9.203-9.345 10.367l-.278-1.215c4.856-1.157 8.478-5.53 8.478-10.735a10.99 10.99 0 0 0-.627-3.665l1.17-.434c.387 1.092.624 2.253.686 3.46a.703.703 0 0 1 .273-.054c.062 0 .123.01.182.025-.35-6.71-5.92-12.064-12.716-12.064-.592 0-1.175.042-1.747.12.04.09.064.19.064.295 0 .055-.007.107-.02.16a12.414 12.414 0 0 1 1.704-.12c5.175 0 9.613 3.218 11.418 7.757l-1.17.435c-.67-1.674-1.74-3.147-3.093-4.3-.07.137-.185.25-.325.317 2.292 1.942 3.75 4.838 3.75 8.07 0 5.836-4.746 10.582-10.58 10.582-2.71 0-5.185-1.024-7.058-2.705l-.318.322c1.956 1.76 4.54 2.835 7.376 2.835.722 0 1.428-.07 2.113-.203l.277 1.216c-.624.123-1.264.2-1.917.224l-.005.454c4.108-.148 7.726-2.253 9.948-5.408l1.02.716a14.11 14.11 0 0 1-3.437 3.427l.24.385c3.74-2.61 6.193-6.947 6.193-11.844 0-7.756-6.15-14.103-13.832-14.42l.04-1.246c8.35.336 15.04 7.234 15.04 15.666 0 8.647-7.034 15.683-15.68 15.683-1.4 0-2.757-.188-4.05-.534-.01.16-.072.31-.172.423 1.347.366 2.76.562 4.222.562 8.896 0 16.134-7.238 16.134-16.136 0-.413-.016-.82-.045-1.225l1.242-.1c.033.437.05.88.05 1.325 0 9.585-7.798 17.383-17.38 17.383-6.176 0-11.608-3.236-14.692-8.102l-.39.232c3.164 5 8.74 8.325 15.08 8.325 3.2 0 6.203-.847 8.8-2.328l.645 1.067c-2.785 1.595-6.01 2.507-9.444 2.507-10.52 0-19.08-8.562-19.08-19.084 0-5.4 2.255-10.285 5.874-13.76L14 13.33c-3.66 3.51-5.964 8.426-6.026 13.87H6.727c.123-11.353 9.396-20.553 20.78-20.553 11.46 0 20.782 9.323 20.782 20.782 0 11.006-8.602 20.04-19.434 20.738.01.046.014.093.014.142 0 .114-.027.22-.074.315 11.112-.67 19.947-9.918 19.947-21.196 0-11.71-9.528-21.237-21.236-21.237M33.474 40.07a13.907 13.907 0 0 1-5.968 1.34c-2.89 0-5.576-.88-7.807-2.387l.704-1.028a12.653 12.653 0 0 0 5.115 2.01.722.722 0 0 1-.02-.154c0-.106.026-.206.067-.297-4.33-.69-7.916-3.65-9.487-7.622l1.17-.435c.343.863.794 1.673 1.334 2.413a.714.714 0 0 1 .34-.302c-1.256-1.74-1.998-3.873-1.998-6.177 0-5.835 4.746-10.58 10.58-10.58 1.767 0 3.436.436 4.902 1.205l.256-.376c-1.54-.82-3.296-1.284-5.158-1.284-6.084 0-11.034 4.95-11.034 11.033 0 1.274.218 2.5.618 3.64l-1.17.436c-.45-1.276-.696-2.648-.696-4.077 0-5.38 3.478-9.963 8.303-11.62l-.128-.436c-5.014 1.712-8.63 6.47-8.63 12.055 0 4.23 2.076 7.987 5.262 10.304l-.705 1.028c-3.513-2.542-5.804-6.676-5.804-11.334 0-.38.016-.758.046-1.13l-.452-.05a14.89 14.89 0 0 0-.048 1.18c0 7.96 6.475 14.437 14.434 14.437 2.222 0 4.328-.506 6.21-1.408a.732.732 0 0 1-.24-.388"/><path d="M25.46 18.276h1.087v18.447H25.46zm2.993 0h1.088v18.447h-1.087zM27.5 35.447c-4.382 0-7.947-3.565-7.947-7.948 0-4.383 3.565-7.948 7.947-7.948s7.947 3.566 7.947 7.947c0 4.38-3.565 7.947-7.947 7.947m0-14.718c-3.732 0-6.768 3.036-6.768 6.768 0 3.733 3.037 6.77 6.768 6.77 3.732 0 6.77-3.037 6.77-6.77 0-3.732-3.038-6.77-6.77-6.77"/></g></svg>