<svg xmlns="http://www.w3.org/2000/svg" viewBox="0 0 55 55"><path d="M46.135 41.475a23.276 23.276 0 0 1-33.44 4.006c-.143-.12-.284-.234-.425-.36a23.306 23.306 0 0 1-7.29-11.642c-.02-.068-.043-.136-.058-.21a21.087 21.087 0 0 1-.513-2.646c-.026-.172-.048-.35-.07-.528A23.62 23.62 0 0 1 4.2 27.5a23.178 23.178 0 0 1 4.665-13.975z"/><path d="M50.8 27.5a23.19 23.19 0 0 1-4.665 13.975l-37.27-27.95A23.294 23.294 0 0 1 50.8 27.5z" fill="#cd1225"/><path fill="#fff" d="M13.834 18.85l.706 2.17h2.28l-1.846 1.34.707 2.17-1.846-1.34-1.84 1.34.7-2.17-1.84-1.34h2.274l.706-2.17zM7.8 31.428l.7 2.172-1.842-1.346-1.68 1.224c-.02-.068-.04-.136-.056-.21l.6-1.84-1.11-.806c-.024-.172-.046-.35-.067-.528h1.608l.705-2.17.707 2.17H9.64zM20.884 27.327l.707 2.166h2.28l-1.846 1.34.706 2.17-1.846-1.34-1.846 1.34.706-2.17-1.846-1.34h2.28l.706-2.166zM16.967 35.12l.366 1.13h1.192l-.962.7.366 1.136-.963-.7-.963.7.366-1.135-.962-.7H16.6l.367-1.13zM14.974 43.823l.707 2.17-1.846-1.338-1.14.826c-.142-.12-.283-.234-.424-.36l.424-1.3-1.84-1.34h2.274l.706-2.164.706 2.165h2.28z"/><path d="M44.283 25.842c-.157-.23-.324-.455-.5-.68a8.382 8.382 0 0 0-1.066-3.54c.052-.257.078-.53.334-.44.383.136.5.832.744.48s-.126-1.41-.554-1.866.512.02.517-.24a10.564 10.564 0 0 0-2.055-2.4c-.408-.256.376-.272.382-.387a10.51 10.51 0 0 0-1.967-1.387c-.433-.2.69-.2.43-.486a7.95 7.95 0 0 0-3.876-.25c-.977.313.02-.624.194-.79s-.1-.43-.09-.66-.03-.026.352-.387-.173-.46-.414-.466.534-.387.544-.747-.815.04-.716-.058.7-1.016.3-1.03-.512.056-.507-.1.93-1.15.565-1.167a1.132 1.132 0 0 0-.393.126 5.1 5.1 0 0 0-.716.4 6.01 6.01 0 0 0-1.7 1.668 5.014 5.014 0 0 0-.744 1.84 4.858 4.858 0 0 0-.083 1.026c0 .35.1.685.12 1.03a1.068 1.068 0 0 1-.152.643.6.6 0 0 1-1.02.01 5.028 5.028 0 0 0-.862-.873 1.387 1.387 0 0 0-.622-.287 2.3 2.3 0 0 0-.758.068 3.546 3.546 0 0 1-1.365.14 1.97 1.97 0 0 0-.937-.077 5.308 5.308 0 0 0 .7.37 6.343 6.343 0 0 1 .952.57 2.24 2.24 0 0 0 .936.55c.13.026.267.026.4.047a1.6 1.6 0 0 1 .847.633.2.2 0 0 1 .043.073.14.14 0 0 1-.026.09c-.152.31-.34.685-.738.67-.492-.016-.906-.733-1.93-.764a3.288 3.288 0 0 0-2.4.894 11.742 11.742 0 0 0-2.208 3.138c-.016.476.55.032.795-.193s.036.37.036.37-.047.576.78-.344c.177-.166.313.027.3.378s.12.44.632-.25c.31.01.095.438.084.7s.716-.633 1.02-.623-.064.33.182.45.936-.82 1.24-.81-.063.805.1.857.884-1.47 1.2-1.13-.335 1.512 1.548 3.2 1.56 1.166 1.57.92-.126-.873.245-.58.6 1.072.88.816a1.19 1.19 0 0 0 .33-.607s2.64 2.726 3.633 2.757c.21-.193.052-.6-.1-.758s.81.37.7-.074-1.443-1.486-1.02-1.475.76-.04.314-.512-1.2-1.574-.8-1.563c.31.01-.078-.837-.12-.958-.026-.073-.058-.146-.08-.22a.613.613 0 0 1-.014-.093c0-.053.068-.162.13-.157a.13.13 0 0 1 .068.042c.194.15.387.3.59.438a1.952 1.952 0 0 0 .65.33.308.308 0 0 0 .157-.01.51.51 0 0 0 .282-.3 23.624 23.624 0 0 1 3.374 3.42c.05.073 0 .392-.012.49a3.468 3.468 0 0 1-.068.524A3.2 3.2 0 0 1 40.8 28.7a6.32 6.32 0 0 1-2.28.152 1.58 1.58 0 0 1-.215-.01c.22.14 3.31 2.028 4.87-.948a5.34 5.34 0 0 0 .522-1.5c.084.157.162.314.225.466a4.074 4.074 0 0 1-.335 3.96 4.158 4.158 0 0 1-3.237 1.207 3.745 3.745 0 0 0 4.095-.8 3.294 3.294 0 0 0 .706-1.82 5.217 5.217 0 0 0-.867-3.565zm-3.038-3.368a12.517 12.517 0 0 0-1.078-.826c-.167-.12-.34-.23-.518-.346.015-.36.428-.308.68-.047a1.066 1.066 0 0 0 .936.288c.366-.152.632.12.836.4a4.712 4.712 0 0 1 .706 2.045 18.416 18.416 0 0 0-1.563-1.514z" fill="#fbd023"/></svg>