<svg xmlns="http://www.w3.org/2000/svg" viewBox="0 0 55 55"><path d="M4.2 27.5a23.32 23.32 0 0 0 12.008 20.378V7.128A23.308 23.308 0 0 0 4.2 27.5z" fill="#fff"/><path d="M27.5 4.2a23.094 23.094 0 0 0-11.292 2.928v40.75A23.3 23.3 0 1 0 27.5 4.2z" fill="#00401c"/><path d="M37.025 35.378a10.864 10.864 0 0 1-6.64-19.463 11.87 11.87 0 1 0 14.47 16.128 10.832 10.832 0 0 1-7.83 3.335zM43.382 23.94l-2.84-.612-1.457 2.515-.298-2.89-2.838-.613 2.654-1.176-.298-2.89 1.94 2.163L42.9 19.26l-1.458 2.516 1.94 2.164z" fill="#fff"/></svg>