<svg xmlns="http://www.w3.org/2000/svg" viewBox="0 0 55 55"><path d="M49.476 35.267a23.3 23.3 0 0 1-43.953 0z" fill="#0738a6"/><path d="M50.8 27.5a23.482 23.482 0 0 1-1.324 7.767H5.523a23.46 23.46 0 0 1 0-15.534h43.953A23.5 23.5 0 0 1 50.8 27.5z" fill="#fff"/><path d="M49.476 19.733H5.523A23.267 23.267 0 0 1 27.31 4.2h.378a23.287 23.287 0 0 1 21.788 15.533z" fill="#d42b1e"/><path d="M33.07 25.146a5.932 5.932 0 0 0-1.3-1.924 6.05 6.05 0 0 0-6.63-1.3 6.136 6.136 0 0 0-1.926 1.3 6.01 6.01 0 0 0-1.292 1.924 6.07 6.07 0 0 0 0 4.713 6.045 6.045 0 0 0 1.292 1.918 6.06 6.06 0 0 0 6.637 1.3 5.882 5.882 0 0 0 1.92-1.3 6.055 6.055 0 0 0 1.3-6.632zM27.5 33.29a5.787 5.787 0 1 1 5.78-5.79 5.8 5.8 0 0 1-5.78 5.79zM32.1 25.56a5.02 5.02 0 0 0-1.067-1.59 5.006 5.006 0 0 0-7.066 0 5.12 5.12 0 0 0-1.072 1.59 4.973 4.973 0 0 0 1.072 5.47 4.99 4.99 0 0 0 8.133-5.47zm-4.6 6.83a4.888 4.888 0 1 1 4.885-4.89 4.892 4.892 0 0 1-4.885 4.89zM30.957 26.04a3.7 3.7 0 0 0-.806-1.192 3.74 3.74 0 0 0-4.115-.8 3.765 3.765 0 0 0-2 4.92 3.732 3.732 0 0 0 .806 1.194 3.687 3.687 0 0 0 1.193.8 3.763 3.763 0 0 0 4.922-2 3.8 3.8 0 0 0 .292-1.464 3.755 3.755 0 0 0-.29-1.457zM27.5 31.15a3.648 3.648 0 1 1 3.645-3.65 3.654 3.654 0 0 1-3.645 3.65zM24.205 29.55l-.194.11-.1-.167a.09.09 0 0 1-.01-.08.1.1 0 0 1 .058-.062l.1-.056-.125-.215-.147.083a.14.14 0 0 0-.073.094.178.178 0 0 0 .026.13c-.064-.062-.11-.093-.163-.088a.406.406 0 0 0-.152.062c-.09.052-.136.11-.14.173a.458.458 0 0 0 .077.235l.236.413.732-.418zm-.565.324l-.094-.167c-.02-.037-.032-.068-.02-.084s.02-.036.05-.057a.4.4 0 0 1 .095-.037c.027 0 .048.02.074.062l.094.162zM23.7 28.353l-.172.052.13.413-.156.047-.12-.377-.153.048.12.38-.147.048-.125-.4-.178.052.2.638.8-.256zM23.656 28.007l-.22.02-.02-.218a.258.258 0 0 0-.352-.284.318.318 0 0 0-.225.094.357.357 0 0 0-.048.25l.047.467.836-.084zm-.65.058l-.015-.168a.178.178 0 0 1 0-.052.038.038 0 0 1 .017-.036c0-.012.016-.017.03-.022a.32.32 0 0 1 .054-.01.29.29 0 0 1 .1 0 .148.148 0 0 1 .032.094l.016.167zM23.64 26.71a.285.285 0 0 0-.22-.115l-.56-.073-.03.25.543.064c.052.005.078.02.09.042a.193.193 0 0 1 0 .11.366.366 0 0 1-.027.125.093.093 0 0 1-.09.026l-.554-.064-.025.246.56.068a.274.274 0 0 0 .224-.042.59.59 0 0 0 .11-.334.654.654 0 0 0-.02-.304zM23.776 25.706a.225.225 0 0 0-.136-.016.145.145 0 0 0-.1.105v-.005a.157.157 0 0 0-.02-.136.255.255 0 0 0-.116-.068.206.206 0 0 0-.193.01.482.482 0 0 0-.11.194l-.167.455.795.293.168-.466a.418.418 0 0 0 .042-.225.218.218 0 0 0-.162-.14zm-.382.256l-.058.168-.146-.053.068-.2a.12.12 0 0 1 .036-.053.114.114 0 0 1 .058.006.155.155 0 0 1 .058.04.162.162 0 0 1-.016.092zm.3.1l-.063.178-.15-.058.066-.182a.233.233 0 0 1 .04-.078.085.085 0 0 1 .075 0 .084.084 0 0 1 .053.052.143.143 0 0 1-.013.088zM24.2 25.09l-.2.328-.554-.334-.132.21.722.438.33-.544zM23.917 24.425l-.157.193.654.534.157-.194zM25.1 24.22l-.078-.104-.02-.016-.19.168.016.02a.09.09 0 0 1 .037.084.26.26 0 0 1-.08.1c-.06.052-.11.068-.15.047a.382.382 0 0 1-.08-.08l-.088-.1a.2.2 0 0 1-.063-.11c0-.03.02-.063.074-.11a.276.276 0 0 1 .078-.057.094.094 0 0 1 .09.016l.02.025.19-.173-.023-.02a.272.272 0 0 0-.23-.116.75.75 0 0 0-.235.162.654.654 0 0 0-.2.257.263.263 0 0 0 .09.27l.145.164a.282.282 0 0 0 .277.124.746.746 0 0 0 .257-.178c.062-.052.1-.09.12-.11a.238.238 0 0 0 .043-.265zM25.355 23.29l-.33.188.173.868.22-.12-.03-.152.29-.162.116.105.215-.126zm0 .617l-.078-.377.277.262zM27.29 23.27l-.025-.174a.49.49 0 0 0-.048-.146.26.26 0 0 0-.078-.09.3.3 0 0 0-.127-.04.623.623 0 0 0-.167.01l-.47.068.125.836.5-.078a.43.43 0 0 0 .158-.042.292.292 0 0 0 .094-.073.3.3 0 0 0 .04-.114.782.782 0 0 0-.002-.157zm-.355.2l-.215.035-.068-.45.215-.03a.14.14 0 0 1 .1.01.143.143 0 0 1 .042.1l.025.178c.015.092-.017.144-.1.155zM28.127 23l.016-.183-.67-.042-.057.842.68.047.01-.188-.43-.026.012-.168.4.032.01-.162-.4-.027.012-.15zM28.488 23.55l.162-.62-.235-.07-.215.822.612.157.053-.19zM30.182 23.62l-.387-.257-.465.7.2.14.12-.182.183.12a.33.33 0 0 0 .252.085.4.4 0 0 0 .188-.173.34.34 0 0 0 .068-.24.352.352 0 0 0-.158-.193zm-.093.24a.533.533 0 0 1-.028.052c-.03.042-.052.068-.068.073s-.047 0-.09-.03l-.145-.095.13-.194.14.09a.52.52 0 0 1 .048.036.043.043 0 0 1 .016.03.046.046 0 0 1-.005.038zM30.705 24.038l-.794.4.184.178.136-.068.235.236-.068.14.178.173.4-.79zm-.156.6l-.17-.162.346-.178zM31.537 25.063l-.256-.4-.71.45.13.21.19-.12.1.16c.02.038.025.064.015.085a.093.093 0 0 1-.052.057l-.1.063.13.21.017-.01.126-.08a.13.13 0 0 0 .067-.094.145.145 0 0 0-.03-.126c.063.058.115.09.16.084a.4.4 0 0 0 .158-.073.235.235 0 0 0 .132-.18.427.427 0 0 0-.075-.237zm-.214.21a.3.3 0 0 1-.09.046c-.025 0-.052-.022-.072-.064l-.104-.157.193-.126.104.162a.127.127 0 0 1 .026.084.117.117 0 0 1-.057.052zM31.882 25.743l-.873.02h-.017v.01l.084.236h.157l.11.313-.12.094.083.235.7-.543zm-.4.47L31.406 26l.382-.016zM32.19 26.96a.625.625 0 0 0-.093-.313.28.28 0 0 0-.277-.088l-.214.025a.294.294 0 0 0-.252.14.77.77 0 0 0-.016.33.636.636 0 0 0 .1.325.365.365 0 0 0 .282.047l.147-.016-.047-.417-.157.015.02.173c-.062 0-.104 0-.12-.02a.25.25 0 0 1-.042-.12.286.286 0 0 1 .012-.147.167.167 0 0 1 .136-.057l.136-.016a.258.258 0 0 1 .146 0c.032.02.047.074.058.157a.452.452 0 0 1 0 .11.08.08 0 0 1-.073.058l.032.25c.12-.015.2-.062.22-.146a.843.843 0 0 0 .004-.29zM31.563 27.85a.076.076 0 0 1 .084-.036l.554.063.027-.246-.56-.062a.3.3 0 0 0-.224.042.65.65 0 0 0-.105.335.57.57 0 0 0 .026.3.254.254 0 0 0 .22.115l.56.063.026-.246-.544-.058c-.052 0-.078-.022-.09-.042a.256.256 0 0 1 0-.11.353.353 0 0 1 .027-.118zM31.307 28.342l-.084.24.12.095-.11.314-.15-.005-.083.24.89.017.125-.356zm.1.654l.08-.215.3.23zM31.652 29.75l.14-.247h-.637l-.256-.15-.127.213.257.152.3.57.146-.246-.193-.314h.005z"/><path fill="#fdde19" d="M27.494 26.172l.298.91h.963l-.78.564.3.916-.78-.565-.775.565.298-.916-.78-.564h.963l.294-.91z"/><path d="M28.817 27.06h-1.01l-.307-.96-.313.957h-1.01l.816.6-.314.957.82-.59.816.59-.316-.957zm-1.318.91l-.738.534.282-.863-.742-.532h.915l.282-.868.277.868h.91l-.738.533.282.864z"/><path d="M29.3 25.078v.027a.23.23 0 0 0-.02.036.32.32 0 0 0-.048-.1.337.337 0 0 0-.058-.067.75.75 0 0 1-.062-.063.55.55 0 0 1-.084-.157.02.02 0 0 0-.026-.01c-.01 0-.015.015-.015.026a.745.745 0 0 0 .093.166c.026.03.047.052.063.068a.558.558 0 0 1 .053.058.294.294 0 0 1 .04.078.868.868 0 0 0-.26-.225h-.006c0-.005-.01-.005-.015-.01s-.006-.01-.006-.016a1.04 1.04 0 0 0-.053-.18c-.02-.05-.042-.093-.057-.124a.6.6 0 0 1-.027-.063c.006 0 .027-.01.147.052a.617.617 0 0 1 .22.173.688.688 0 0 1 .12.252.436.436 0 0 1 0 .078z" fill="#009a3c"/><path d="M30.428 27.694a1.08 1.08 0 0 0 .147-.152.987.987 0 0 0 .15-.382 1.075 1.075 0 0 0 .033-.55.028.028 0 0 0-.026-.015c-.02 0-.037.016-.058.042a.646.646 0 0 1-.136.136.24.24 0 0 0 0-.1.27.27 0 0 0-.005-.027.367.367 0 0 1-.02-.146.048.048 0 0 0 0-.026c0-.026.01-.047-.01-.058s-.038-.026-.127.095a.54.54 0 0 0-.047.08c0-.027 0-.048-.012-.074a.5.5 0 0 1 .02-.126.343.343 0 0 0 .028-.094 1.043 1.043 0 0 0 .037-.4.32.32 0 0 0-.01-.074.536.536 0 0 1-.007-.162c.006-.026.006-.047.01-.068.01-.036.01-.063-.01-.073a.038.038 0 0 0-.02 0 .27.27 0 0 0-.084.125.375.375 0 0 0-.016.183c0 .03.005.063.005.1a.877.877 0 0 1-.02.168v-.173a2.63 2.63 0 0 0-.105-.48c-.016-.043-.026-.074-.037-.1a1.124 1.124 0 0 1-.047-.148v-.02c0-.037-.01-.058-.03-.063a.035.035 0 0 0-.027.01.738.738 0 0 0-.114.32l-.154-.137-.14-.12a.116.116 0 0 0-.016-.084.122.122 0 0 0-.09-.062.136.136 0 0 0-.104.006.047.047 0 0 0-.03.015.364.364 0 0 0-.016-.06.606.606 0 0 0-.355-.46c-.084-.042-.168-.08-.2-.042s-.005.057.02.11a1.26 1.26 0 0 1 .06.12 1.273 1.273 0 0 1 .046.157.538.538 0 0 0-.13-.047 1.038 1.038 0 0 0-.126-.006.218.218 0 0 1-.125-.026.19.19 0 0 1-.095-.068c-.02-.015-.037-.036-.058-.02s-.026.036.01.114a1.188 1.188 0 0 0 .084.168c.033.047.06.094.09.13a1.153 1.153 0 0 1-.14.01c-.064 0-.106-.01-.132-.01s-.057-.01-.068.016 0 .047.094.12a1.51 1.51 0 0 0 .22.137 1.09 1.09 0 0 0 .445.135.127.127 0 0 0 .04.084.145.145 0 0 0 .115.047h.01a.12.12 0 0 0 .1-.053.08.08 0 0 0 .022-.037.347.347 0 0 1 .042.047.05.05 0 0 1 .02.027h-.016a.075.075 0 0 0-.01.03.784.784 0 0 0-.016.164.557.557 0 0 0 .037.136c0-.006-.016-.006-.02-.01l-.022-.006c-.08-.037-.115-.052-.136-.026s0 .036.01.057a1.592 1.592 0 0 0 .105.156.692.692 0 0 0 .22.225.308.308 0 0 0 .062.027.175.175 0 0 0 .068.016c.016 0 .032.01.058.016a.3.3 0 0 1 .068.025.52.52 0 0 1 .183.115l.038.083c-.042-.036-.095-.073-.126-.052s-.026.06-.016.127c.01.036.016.078.027.13v.1a.1.1 0 0 1-.042-.02.27.27 0 0 1-.067-.07c-.015-.02-.03-.036-.052-.03s-.026.01-.036.026a.517.517 0 0 0-.016.345.51.51 0 0 0 .126.23.867.867 0 0 1 .12.183.783.783 0 0 1 .08.215.2.2 0 0 0-.08.02.266.266 0 0 0-.057.06.048.048 0 0 0-.02-.012c-.038-.026-.075-.047-.085-.09a.13.13 0 0 1 0-.04c0-.026 0-.053-.026-.058s-.042.016-.063.047h-.005a.513.513 0 0 1-.063.08.274.274 0 0 0-.037.04.294.294 0 0 0 0 .178.917.917 0 0 1 .01.168.282.282 0 0 1-.037.115.28.28 0 0 0-.025.12.346.346 0 0 0 .03.14.5.5 0 0 1 .053.158h.006v.06a.153.153 0 0 0-.03.046.226.226 0 0 0-.017.037v-.016c-.042-.152-.074-.147-.09-.147s-.02.027-.025.042a.34.34 0 0 1-.016.042.23.23 0 0 1-.09.09.243.243 0 0 1-.036.02 1.492 1.492 0 0 0-.157.13.133.133 0 0 0-.01-.114c-.063-.058-.215.015-.3.09a.59.59 0 0 0-.13.166 1.08 1.08 0 0 0-.058.105.414.414 0 0 1-.125.19.25.25 0 0 0-.058.077.33.33 0 0 0-.042.162.2.2 0 0 1-.036.12c-.01.02-.037.036-.183.094-.057.026-.115.047-.172.068a.327.327 0 0 1-.042-.02.913.913 0 0 0-.225-.08.622.622 0 0 0-.26.053 1.31 1.31 0 0 1-.12-.068c-.095-.053-.21-.126-.32-.2a1.352 1.352 0 0 1-.33-.282 1.642 1.642 0 0 1-.13-.2 1.178 1.178 0 0 0-.22-.3.97.97 0 0 0-.12-.11c-.057-.047-.09-.058-.11-.042s0 .073.063.193a2.194 2.194 0 0 0 .136.23c.025.037.05.08.078.126a1.284 1.284 0 0 1 .13.246.918.918 0 0 1-.423-.372 1.318 1.318 0 0 1-.178-.554 2.117 2.117 0 0 1-.037-.3 1.012 1.012 0 0 0-.068-.377c-.026-.073-.146-.34-.22-.314-.015.007-.02.017-.026.033-.01-.02-.02-.032-.04-.032a.05.05 0 0 0-.043.033.882.882 0 0 1 .042-.178c.01-.037.02-.068.026-.094a.936.936 0 0 0 .064-.355.59.59 0 0 0-.058-.277c-.01-.01-.016-.01-.016-.01-.026 0-.03.026-.03.067a1.322 1.322 0 0 1-.027.142.51.51 0 0 1-.084.167.562.562 0 0 0-.047.09.993.993 0 0 0-.085.6c.01.046.016.088.026.125a1.176 1.176 0 0 1-.125-.435 1.1 1.1 0 0 1 .11-.534 1.708 1.708 0 0 1 .47-.59c.078-.068.15-.136.22-.188.13-.105.172-.14.15-.173s-.04-.032-.224.046a1.386 1.386 0 0 0-.413.278l-.02.026a1.125 1.125 0 0 1 .3-.3 2.905 2.905 0 0 1 .25-.152l.162-.08a.755.755 0 0 0 .152-.087.51.51 0 0 0 .188-.32.043.043 0 0 0-.01-.025c-.02-.01-.032.006-.047.032a.564.564 0 0 1-.293.235.27.27 0 0 1-.058 0 .66.66 0 0 0-.094.006.058.058 0 0 1-.026.005.5.5 0 0 0-.31.12.405.405 0 0 0-.088.13 2.282 2.282 0 0 1-.13.2c.014-.026.03-.052.046-.078a2.575 2.575 0 0 1 .2-.308.486.486 0 0 1 .157-.105 1.123 1.123 0 0 0 .13-.068 2.57 2.57 0 0 0 .508-.408 1.577 1.577 0 0 0 .153-.167 1.642 1.642 0 0 1 .152-.163l.01-.006c.037-.035.063-.06.047-.082 0-.006-.005-.01-.02-.016a1.327 1.327 0 0 0-.5.2 2.092 2.092 0 0 0-.43.345.67.67 0 0 0-.062.073.493.493 0 0 1 .01-.084.362.362 0 0 1 .026-.09l.068-.187a.162.162 0 0 0 .02-.048.8.8 0 0 1 .09-.21.468.468 0 0 1 .063-.078c.01-.015.02-.03.01-.047a.03.03 0 0 0-.036 0c-.083.032-.5.3-.522.638v.084a.576.576 0 0 1-.032.234.356.356 0 0 1-.057.105c-.017.025-.038.057-.06.1a1.918 1.918 0 0 0-.135.334c0 .02-.01.037-.015.058 0-.042.015-.084.02-.115.01-.074.02-.13.032-.23a1.252 1.252 0 0 0 0-.23.363.363 0 0 1 .016-.126.47.47 0 0 1 .1-.172.85.85 0 0 0 .126-.2 1 1 0 0 0 .11-.38.01.01 0 0 0-.01-.012s0-.005-.01-.005-.022.017-.022.027a.758.758 0 0 1-.037.09.367.367 0 0 0-.026.05.958.958 0 0 1-.148.18 1.46 1.46 0 0 0-.3.454.626.626 0 0 0-.047.226 2.3 2.3 0 0 1-.03.246.067.067 0 0 1 0 .03.93.93 0 0 0-.1-.443s-.022-.038-.043-.07c-.04-.062-.052-.078-.073-.067s-.01.03 0 .052a1.224 1.224 0 0 1 .024.528.954.954 0 0 1-.063.262.713.713 0 0 0-.04.23 1.663 1.663 0 0 0 .036.408c0 .01 0 .02.01.03-.02-.04-.03-.083-.046-.114a.46.46 0 0 0-.147-.242 1.816 1.816 0 0 0-.214-.14c-.11-.07-.127-.074-.143-.058-.03.02 0 .068.084.2.07.1.163.25.263.435a2.588 2.588 0 0 1 .177.4 1.95 1.95 0 0 1 .08.246c-.048-.025-.12-.072-.226-.13s-.13-.073-.152-.052.006.042.026.073c.006 0 .01 0 .01.012a.5.5 0 0 1 .08.172c.01.042.026.09.04.13a.974.974 0 0 0 .2.247 2.407 2.407 0 0 1 .29.283 1.21 1.21 0 0 1 .12.162 1.445 1.445 0 0 0 .135.178.588.588 0 0 0 .08.084 1.348 1.348 0 0 0-.195-.11 1.076 1.076 0 0 1-.172-.1 1.43 1.43 0 0 1-.34-.36.026.026 0 0 1-.01-.017c-.038-.052-.053-.078-.08-.068-.005 0-.01.005-.015.016a.916.916 0 0 0 .1.335 1.3 1.3 0 0 0 .493.606.734.734 0 0 0 .162.088 2.73 2.73 0 0 1 .392.183 1.4 1.4 0 0 1 .24.137 1.16 1.16 0 0 1-.67-.125c-.025-.016-.05-.032-.072-.042-.063-.037-.093-.058-.115-.032v.02a.936.936 0 0 0 .3.34c.042.027.084.054.13.08a1.552 1.552 0 0 0 .6.157 1.984 1.984 0 0 0 .258-.006 1.175 1.175 0 0 1 .428.03c.058.022.178.064.21.08l.015.005a.91.91 0 0 1 .106.04c-.11.043-.2.08-.288.116l-.24.085a.114.114 0 0 0-.037.01.267.267 0 0 0-.145.063.068.068 0 0 0-.01.032.067.067 0 0 0 .01.036.228.228 0 0 0 .14.063h.006a.368.368 0 0 0 .074.01.57.57 0 0 0 .19-.042l.03-.016a1.66 1.66 0 0 0 .214-.1 1.207 1.207 0 0 1 .32-.13.547.547 0 0 0 .2.056.366.366 0 0 0 .072-.01.11.11 0 0 0 .042-.026l.08.036.01.006a1.477 1.477 0 0 1 .187.1l.172.094a.628.628 0 0 0 .252.068h.01c.073 0 .125-.026.14-.084a.13.13 0 0 0-.005-.078.145.145 0 0 0-.063-.063l-.157-.077c-.052-.026-.1-.053-.162-.08h.01v-.004a.53.53 0 0 1 .162-.022.646.646 0 0 1 .152.032c.047.01.073.02.094.026a.27.27 0 0 0 .084.015.173.173 0 0 0 .058-.01.4.4 0 0 1 .073-.015.665.665 0 0 1 .095 0H29a.974.974 0 0 0 .25-.026.948.948 0 0 0 .2-.106c.11-.057.127-.078.116-.1s-.03-.02-.063-.016h-.02a.277.277 0 0 1-.068 0 .24.24 0 0 1 .062-.02c.063-.022.105-.038.188-.07a1.09 1.09 0 0 0 .246-.13c.007 0 .143-.11.11-.157-.015-.02-.04-.01-.067 0s-.03.012-.052.017a.38.38 0 0 1-.17 0h-.085a.54.54 0 0 0-.09-.01.475.475 0 0 0 .063-.053.235.235 0 0 0 .058.01.164.164 0 0 0 .157-.2.04.04 0 0 0-.01-.027c.052-.015.1-.026.146-.036l.213-.046a.5.5 0 0 0 .136-.037c.083-.047.146-.152.266-.35s.12-.246.1-.267-.052 0-.15.037l-.012.005c-.03.016-.068.03-.1.047v-.02a.174.174 0 0 0 0-.053.217.217 0 0 1 0-.083.253.253 0 0 1 .047-.068.56.56 0 0 0 .043-.063s.115-.162.068-.21c-.02-.015-.046 0-.078.022a.527.527 0 0 1-.162.073h-.057a.225.225 0 0 0 .083-.052A.158.158 0 0 0 30.4 28a.133.133 0 0 0-.115-.047.148.148 0 0 0-.047 0c.015-.026.026-.052.042-.078a.614.614 0 0 1 .148-.18zm-.015-1.156a.4.4 0 0 1 .062-.068.04.04 0 0 0-.005.026.367.367 0 0 0 .016.162.243.243 0 0 1 0 .026.018.018 0 0 1 0 .01l-.015-.03a.172.172 0 0 0-.052-.053.178.178 0 0 0-.052-.02.25.25 0 0 1 .047-.052zm-.074.094h.01a.1.1 0 0 1 .053.015.175.175 0 0 1 .04.037.19.19 0 0 1 .027.09v.062c-.015.015-.03.026-.052.047a.844.844 0 0 0-.073.068.243.243 0 0 1-.09-.104.23.23 0 0 1-.02-.13.124.124 0 0 1 .026-.058.138.138 0 0 1 .08-.026zm-.07-.413a1.234 1.234 0 0 0 .043-.28.726.726 0 0 0 0-.108.3.3 0 0 1 .016-.163.65.65 0 0 1 .025-.07c0 .017-.005.038-.005.06a.444.444 0 0 0 .005.172.366.366 0 0 1 .01.073 1.062 1.062 0 0 1-.03.382c-.012.04-.022.062-.027.09a.41.41 0 0 0-.026.14.47.47 0 0 0 .01.083.11.11 0 0 0-.052.032.06.06 0 0 0-.02.02.32.32 0 0 1-.022-.135.21.21 0 0 1 0-.058.27.27 0 0 1 .02-.06c.012-.04.032-.092.053-.18zm-.407-.21a1.224 1.224 0 0 1 .08.14c.094.194.077.226.077.226-.02.01-.12-.063-.188-.12a1.717 1.717 0 0 1-.324-.315c-.047-.067-.094-.124-.126-.17a.175.175 0 0 1-.03-.074v-.01h.025a.7.7 0 0 1 .346.172.648.648 0 0 1 .14.15zm-.026-.1c.006 0 .01 0 .01.01a.005.005 0 0 1 .006.005zm-.27-.665c.03.02.072.057.134.11s.116.1.17.156c-.007.054-.017.1-.022.158-.042-.068-.09-.13-.136-.2a1.068 1.068 0 0 0-.094-.12.02.02 0 0 0-.027 0c-.01.01-.014.02-.004.03.032.043.063.08.094.122.058.078.115.162.163.24a1.062 1.062 0 0 0 0 .126 1.18 1.18 0 0 1-.168-.194.874.874 0 0 1-.13-.26.956.956 0 0 1-.036-.122.106.106 0 0 0 .045-.036.005.005 0 0 0 .01-.013zm-.174-.147a.093.093 0 0 1 .042-.005.1.1 0 0 1 .036.005.09.09 0 0 1 .064.042.085.085 0 0 1 .01.063.1.1 0 0 1-.015.02c-.016.027-.043.027-.054.032a.222.222 0 0 1-.12-.042.068.068 0 0 1-.03-.047c0-.03.035-.06.067-.072zm-.053.183a.1.1 0 0 1 0 .08.078.078 0 0 1-.062.036.08.08 0 0 1-.09-.047.078.078 0 0 1 0-.09.143.143 0 0 1 .032-.026.148.148 0 0 1 .037-.01.022.022 0 0 1 .016.005.1.1 0 0 1 .067.047zm-.44-.57c-.02-.05-.04-.093-.056-.124a.6.6 0 0 1-.027-.063c.006 0 .027-.01.147.052a.564.564 0 0 1 .22.173.573.573 0 0 1 .11.256.2.2 0 0 1 .01.078v.018c0 .016-.016.027-.02.042a.32.32 0 0 0-.048-.1.23.23 0 0 0-.058-.068.37.37 0 0 1-.062-.063.712.712 0 0 1-.084-.156.02.02 0 0 0-.026-.01c-.01 0-.015.015-.015.026a.745.745 0 0 0 .094.167.434.434 0 0 0 .063.068l.057.058a.46.46 0 0 1 .037.078.82.82 0 0 0-.266-.224c0-.005-.01-.005-.015-.01a.02.02 0 0 1-.007-.016.718.718 0 0 0-.053-.183zm-.39.263a.88.88 0 0 1-.095-.194.577.577 0 0 0 .094.067.26.26 0 0 0 .062.02.463.463 0 0 0 .083 0 .84.84 0 0 1 .115.007.68.68 0 0 1 .163.062.034.034 0 0 1 .02.01h.006a.9.9 0 0 1 .265.236.147.147 0 0 0-.062.047l-.01.01a.55.55 0 0 1-.085-.042c-.03-.016-.047-.02-.068-.032a.19.19 0 0 0-.047-.026 1.092 1.092 0 0 0-.156-.068 1.017 1.017 0 0 1-.1-.057.53.53 0 0 1-.115-.12c0-.01-.01-.01-.016-.01h-.01c-.01.01-.016.02-.01.03a.61.61 0 0 0 .125.136.584.584 0 0 0 .11.06c.037.015.085.03.158.067a.376.376 0 0 0 .042.026l.068.037.088.04v.028a.565.565 0 0 1-.13 0 .534.534 0 0 1-.3-.1.34.34 0 0 1-.09-.083h-.005a1.068 1.068 0 0 1-.1-.156zm-.064.26a.935.935 0 0 0 .22.142 1.233 1.233 0 0 0 .26.063.277.277 0 0 0 .065.01l-.016.048a1.056 1.056 0 0 1-.418-.13 1.1 1.1 0 0 1-.288-.195h.016a.637.637 0 0 0 .136.012h.037a.973.973 0 0 0 .136-.01.635.635 0 0 0 .088.083.686.686 0 0 0 .32.105h.058a.4.4 0 0 0 .084-.006c0 .006 0 .01.01.016s0 .01 0 .016a.14.14 0 0 0-.14.026l-.08-.015a1.788 1.788 0 0 1-.256-.068.77.77 0 0 1-.21-.132.017.017 0 0 0-.014-.005.02.02 0 0 0-.016.005c0 .01 0 .027.01.032zm.77.357a.09.09 0 0 1-.074.036.1.1 0 0 1-.09-.03.134.134 0 0 1-.036-.085.1.1 0 0 1 .032-.067.1.1 0 0 1 .062-.026.1.1 0 0 1 .058.016.09.09 0 0 1 .042.036.1.1 0 0 1 .005.116zm.056-.058a.14.14 0 0 0-.026-.083v-.017s.016.005.026.005h.016a.125.125 0 0 0 .094-.057.12.12 0 0 0 .005-.104.485.485 0 0 0 .09.016.94.94 0 0 0 .036.125 1.1 1.1 0 0 0 .136.277 1.16 1.16 0 0 0 .1.12.743.743 0 0 0-.367-.172l-.03-.047a.81.81 0 0 0-.08-.067zm.482.9a.28.28 0 0 0-.074-.026.3.3 0 0 0-.062-.016.15.15 0 0 1-.063-.016.13.13 0 0 1-.052-.026c-.074-.03-.126-.1-.21-.21a1.42 1.42 0 0 1-.1-.156.836.836 0 0 1 .078.03l.022.012a.343.343 0 0 0 .07.02.665.665 0 0 0 .18.2.374.374 0 0 0 .127.08.368.368 0 0 1 .1.062.792.792 0 0 1 .088.094.657.657 0 0 0-.104-.052zm.2.125a.59.59 0 0 0-.162-.2.507.507 0 0 0-.11-.068.577.577 0 0 1-.114-.075.567.567 0 0 1-.23-.366.2.2 0 0 1 0-.08 1.3 1.3 0 0 0 .14.2 1.71 1.71 0 0 0 .33.325c.105.078.167.13.21.13.01 0 .015-.005.025-.01.026-.02.042-.068-.062-.282a1.3 1.3 0 0 0-.078-.14 1.2 1.2 0 0 1-.01-.3 1.732 1.732 0 0 1 .02-.184 1.266 1.266 0 0 1 .1-.32.02.02 0 0 0 0 .016v.02a1.563 1.563 0 0 0 .048.152c.01.027.02.058.037.1a2.456 2.456 0 0 1 .1.465 1.48 1.48 0 0 1-.04.5v.01a.26.26 0 0 0-.012.07.44.44 0 0 0 .042.2.286.286 0 0 0 .02.15.3.3 0 0 0 .1.12.818.818 0 0 0-.145.21.635.635 0 0 0-.063.262 1.593 1.593 0 0 1-.02-.162.673.673 0 0 0 .04-.2.69.69 0 0 0-.146-.5zm.02.194a.51.51 0 0 1 .07.35v.085c0 .037.005.073.005.11a2.023 2.023 0 0 0 .04.31.422.422 0 0 0-.01.05.58.58 0 0 0-.04-.125.373.373 0 0 0-.086-.14.19.19 0 0 1-.068-.116.372.372 0 0 1-.01-.167.49.49 0 0 0 .01-.105.636.636 0 0 0 0-.136c-.006-.052-.01-.094-.017-.13a.193.193 0 0 1-.01-.084c.003-.005.06.032.113.095zm-.056.87a.954.954 0 0 0-.126-.19.555.555 0 0 1-.115-.214.446.446 0 0 1 .016-.32l.016.017a.225.225 0 0 0 .072.073.3.3 0 0 0 .068.037.54.54 0 0 0-.01.084.392.392 0 0 0 .005.188.42.42 0 0 0 .073.13.383.383 0 0 1 .083.126.685.685 0 0 1 .06.22c-.01.037-.02.074-.032.11-.006-.005-.01-.01-.016-.01h-.005a.99.99 0 0 0-.09-.255zm-.068.355h.005a.113.113 0 0 1 .047-.063.123.123 0 0 1 .058-.016.037.037 0 0 1 .03.01.07.07 0 0 1 .038.043.148.148 0 0 1 .01.1.08.08 0 0 1-.016.046.075.075 0 0 1-.03.042.11.11 0 0 1-.07-.005.127.127 0 0 1-.072-.084.13.13 0 0 1-.002-.08zm-.314.633a.26.26 0 0 1-.03-.126.2.2 0 0 1 .025-.105.353.353 0 0 0 .032-.125.628.628 0 0 0 0-.178.247.247 0 0 1 0-.152c0-.015.01-.02.02-.03a.74.74 0 0 0 .074-.085.1.1 0 0 1 .016-.02v.01a.21.21 0 0 0 .01.047.218.218 0 0 0 .1.115s.01.004.015.004a.646.646 0 0 0-.057.115.818.818 0 0 0-.03.344 1.2 1.2 0 0 0 .015.126.512.512 0 0 1 0 .126.422.422 0 0 1-.02.1h-.032a.115.115 0 0 0-.078.032c-.006-.016-.006-.027-.01-.037v-.004a.665.665 0 0 0-.05-.166zm.026.3a.162.162 0 0 1 .12-.09h.006a.1.1 0 0 1 .03 0 .056.056 0 0 1 .038.022c.03.042-.027.13-.047.167-.054.084-.117.142-.142.13s-.016-.01-.027-.03a.243.243 0 0 1-.004-.026.268.268 0 0 0 0-.062.31.31 0 0 1 .024-.11zm-.492.25c.016-.015.032-.025.048-.04.088-.08.156-.126.156-.132a.107.107 0 0 0 .037-.02c.053-.037.085-.058.1-.1a.09.09 0 0 0 .016-.043.33.33 0 0 1 .037.1.537.537 0 0 1 .026.1.23.23 0 0 0 .004.063.584.584 0 0 1-.14.324.55.55 0 0 1-.095.094.743.743 0 0 1-.064.063c-.02.026-.042.047-.068.08a.148.148 0 0 1-.02.025.4.4 0 0 1-.074.09 1.073 1.073 0 0 1-.084.077 2.225 2.225 0 0 0-.335.067.538.538 0 0 0 .13-.12.294.294 0 0 0 .053-.11.617.617 0 0 1 .08-.152l.046-.057a.56.56 0 0 0 .052-.068.883.883 0 0 0 .094-.225zm-3.6-1.375a.178.178 0 0 1 .032-.073c.01 0 .02.026.037.094s.035.157.056.236a2.79 2.79 0 0 1 .015.293 1.445 1.445 0 0 1-.01.156.507.507 0 0 0 .027.277.59.59 0 0 0 .02.057c-.02-.026-.04-.063-.062-.094a1.176 1.176 0 0 1-.146-.47 2.143 2.143 0 0 1-.012-.325c.016-.053.027-.106.042-.153zm-.68-.355a3.077 3.077 0 0 0-.183-.408 3.863 3.863 0 0 0-.26-.445 1.256 1.256 0 0 1-.08-.125c.02.015.058.036.073.047h.006c.12.078.183.115.21.136.067.052.083.1.135.225l.085.21c.005.02.015.036.02.056a1.407 1.407 0 0 0 .074.157c.03.08.06.153.1.23 0 .007.01.012.015.012h.01a.025.025 0 0 0 .01-.03 2.55 2.55 0 0 1-.2-.577 1.57 1.57 0 0 1-.042-.4.593.593 0 0 1 .047-.215 1.092 1.092 0 0 0 .068-.272 1.557 1.557 0 0 0-.01-.46.17.17 0 0 1 .02.03 1.11 1.11 0 0 1 .095.572 2.232 2.232 0 0 1-.02.3 1.092 1.092 0 0 0 0 .324 1.57 1.57 0 0 0 .067.272.02.02 0 0 0 .026.01c.01 0 .016-.015.01-.026a1.84 1.84 0 0 1-.062-.26 1.013 1.013 0 0 1 .005-.315 2.376 2.376 0 0 0 .015-.24c.02-.08.03-.163.047-.24a2.188 2.188 0 0 0 .03-.252.654.654 0 0 1 .048-.21 1.492 1.492 0 0 1 .288-.44 1.247 1.247 0 0 0 .14-.17c-.02.05-.04.114-.067.177a1.06 1.06 0 0 1-.124.193.676.676 0 0 0-.105.188.33.33 0 0 0-.015.137 1.252 1.252 0 0 1 0 .23c-.01.09-.02.152-.03.22s-.028.162-.048.31c-.006.062-.01.12-.016.16-.004.064-.004.085.017.085.02 0 .02-.006.026-.063a3.682 3.682 0 0 1 .094-.414 1.662 1.662 0 0 1 .13-.325c.022-.04.043-.072.058-.1a.4.4 0 0 0 .058-.11.532.532 0 0 0 .037-.255v-.073a.868.868 0 0 1 .423-.565c0 .005-.01.016-.016.02a1.47 1.47 0 0 0-.093.22.424.424 0 0 0-.016.053c-.036.094-.058.15-.068.183a.265.265 0 0 0-.032.1.676.676 0 0 0-.015.14 3.258 3.258 0 0 0-.225.326.024.024 0 0 0 .01.03c.01 0 .02 0 .026-.005a2.824 2.824 0 0 1 .225-.33 1.146 1.146 0 0 1 .104-.115 1.828 1.828 0 0 1 .418-.34 1.707 1.707 0 0 1 .45-.193c-.01 0-.016.015-.026.026h-.005a1.3 1.3 0 0 0-.156.167c-.037.042-.068.084-.147.163a2.44 2.44 0 0 1-.5.4c-.052.032-.093.047-.125.068a.514.514 0 0 0-.168.11 1.82 1.82 0 0 0-.21.315c-.04.073-.072.125-.093.167-.036.058-.046.084-.025.1s.042-.006.073-.047a.756.756 0 0 1 .068-.09c.068-.093.105-.156.136-.2a.537.537 0 0 1 .078-.12.5.5 0 0 1 .288-.11c.01 0 .016-.005.02-.005a.768.768 0 0 1 .09 0 .173.173 0 0 0 .068-.01.484.484 0 0 0 .277-.19.57.57 0 0 1-.146.195.656.656 0 0 1-.142.09.9.9 0 0 0-.162.077 3.01 3.01 0 0 0-.26.152 1.438 1.438 0 0 0-.51.7.02.02 0 0 0 .012.02h.005c.016 0 .02-.01.026-.02a1.23 1.23 0 0 1 .246-.356 1.267 1.267 0 0 1 .4-.272.933.933 0 0 1 .162-.058 1.505 1.505 0 0 1-.13.115c-.068.053-.147.116-.225.19a1.8 1.8 0 0 0-.483.605 1.21 1.21 0 0 0-.11.555.988.988 0 0 0 .22.57.033.033 0 0 0 .02.005c.01-.005.016-.01.016-.02a.09.09 0 0 0-.015-.043 1.177 1.177 0 0 1-.058-.214.942.942 0 0 1 .08-.57.573.573 0 0 1 .046-.083A.692.692 0 0 0 25.5 27a.44.44 0 0 0 .02-.13.884.884 0 0 1 .027.2.98.98 0 0 1-.058.34c-.01.03-.022.062-.032.1a1.87 1.87 0 0 0-.073.418v.167s0 .115.01.168a1.676 1.676 0 0 0 .063.292l-.063-.078a1.042 1.042 0 0 1-.11-.22c-.02-.052-.042-.1-.078-.172a1.13 1.13 0 0 0-.272-.34c-.006 0-.006 0-.058-.032-.024-.098-.055-.192-.087-.286zm1.847 3.033h-.006a.226.226 0 0 1-.114-.046v-.01a.886.886 0 0 1 .126-.006c.115 0 .146.01.172.027a.1.1 0 0 1 .026.015.3.3 0 0 1-.203.02zm.475-.14c-.068.037-.136.068-.2.1-.01 0-.015.006-.026.006a.164.164 0 0 0-.052-.037.36.36 0 0 0-.193-.032h-.03c.01 0 .02-.006.03-.006a.207.207 0 0 1 .037-.01c.08-.026.157-.058.246-.09s.2-.077.324-.13c.032.01.058.026.084.037a.476.476 0 0 0 .053.03s0 .005.016.005a2.036 2.036 0 0 0-.288.124zm.628-.105a.073.073 0 0 1-.03.016.35.35 0 0 1-.247-.046.38.38 0 0 1-.068-.037c-.016-.01-.032-.015-.052-.026s-.058-.025-.09-.04a1.6 1.6 0 0 0-.15-.058l-.017-.01c-.03-.01-.15-.058-.214-.08a.945.945 0 0 0-.267-.036c-.057 0-.115.006-.172.01-.084.006-.168.006-.252.006a1.446 1.446 0 0 1-.58-.157 1.39 1.39 0 0 1-.125-.078 1.12 1.12 0 0 1-.277-.283.242.242 0 0 1 .047.026c.02.01.047.027.08.042a1.186 1.186 0 0 0 .705.126.034.034 0 0 0 .026-.032c.01-.02-.016-.036-.042-.057a1.865 1.865 0 0 0-.225-.127c-.215-.11-.325-.15-.393-.183a1.2 1.2 0 0 1-.162-.078 1.314 1.314 0 0 1-.476-.59 1.725 1.725 0 0 1-.09-.257s0 .01.01.01.006.01.01.016a1.348 1.348 0 0 0 .357.372.89.89 0 0 0 .178.11 1.4 1.4 0 0 1 .25.152.55.55 0 0 1 .068.052c.068.052.084.063.1.042s0-.037-.016-.042l-.042-.042c-.046-.047-.12-.115-.2-.2a1.942 1.942 0 0 1-.13-.178c-.043-.052-.08-.11-.122-.162a2.563 2.563 0 0 0-.292-.288.773.773 0 0 1-.2-.235c-.015-.036-.025-.077-.04-.12a.55.55 0 0 0-.08-.187.006.006 0 0 1-.005-.006.7.7 0 0 1 .068.037c.142.084.22.13.262.157s.057.032.057.037a.992.992 0 0 1 .268.325c.036.068.057.12.078.167a.827.827 0 0 0 .115.224 1.12 1.12 0 0 0 .14.173c.016.02.027.052.043.078a.843.843 0 0 0 .313.33c.005.005.01 0 .015 0a.018.018 0 0 0 0-.016c0-.012 0-.017-.02-.028a.728.728 0 0 1-.194-.277.55.55 0 0 1-.025-.26 1.48 1.48 0 0 0 .01-.163 2.993 2.993 0 0 0-.015-.3c-.01-.094-.027-.167-.037-.22s-.016-.083-.016-.1a.787.787 0 0 1 .163.284 1.13 1.13 0 0 1 .073.36 2.618 2.618 0 0 0 .032.31 1.4 1.4 0 0 0 .182.57.968.968 0 0 0 .45.386.04.04 0 0 0 .042-.01c.03-.026-.012-.105-.127-.3l-.078-.126c-.042-.062-.084-.125-.136-.22a.6.6 0 0 1-.064-.135.864.864 0 0 1 .162.142 1.2 1.2 0 0 1 .215.293 1.567 1.567 0 0 0 .136.2 1.226 1.226 0 0 0 .338.287 3.375 3.375 0 0 0 .32.2c.047.032.088.053.126.08s.083.035.12.056a.56.56 0 0 1 .078.037l.042.016c.005 0 .015 0 .02.01a.107.107 0 0 1 .053.027c0 .005.01.01 0 .016zm.837.2a.06.06 0 0 1 0 .042c-.016.047-.073.052-.105.052a.586.586 0 0 1-.214-.053.1.1 0 0 1 .042-.03.267.267 0 0 1 .177-.033.357.357 0 0 1 .1.02zm-.2-.125c.047.02.094.047.136.068-.01 0-.02-.006-.03-.006a.348.348 0 0 0-.2.032.48.48 0 0 0-.064.052c-.053-.026-.1-.057-.153-.084a2.115 2.115 0 0 0-.188-.1h-.017c-.026-.01-.052-.02-.072-.032a.063.063 0 0 0-.026-.052.162.162 0 0 0-.063-.037c0-.004-.014-.004-.02-.01s-.026-.01-.042-.015l-.078-.03c-.02-.012-.047-.027-.073-.038a.418.418 0 0 1 .21-.036.49.49 0 0 1 .208.074l.052.015a.006.006 0 0 0 .006.005c.062.03.13.062.2.1.074.025.148.056.215.093zm1.1-.314h.023c-.015.01-.036.02-.073.042a1.14 1.14 0 0 1-.188.1.894.894 0 0 1-.242.026h-.03a.726.726 0 0 0-.1.005c-.043.005-.064.015-.08.015a.14.14 0 0 1-.12 0c-.026 0-.053-.016-.1-.026a.664.664 0 0 0-.157-.033.453.453 0 0 0-.176.026l-.058.016c-.052-.032-.1-.053-.157-.08.046-.01.088-.03.136-.046.157-.063.182-.084.2-.11a.21.21 0 0 0 .042-.14.312.312 0 0 1 .037-.153.485.485 0 0 1 .047-.062.4.4 0 0 0 .09-.1.977.977 0 0 0 .05-.1.362.362 0 0 1 .054-.1.587.587 0 0 1 .12-.157c.09-.072.214-.114.246-.088.015.016 0 .068-.016.14l-.006.027a.878.878 0 0 1-.088.214.485.485 0 0 1-.047.063.4.4 0 0 0-.048.062.574.574 0 0 0-.083.156.362.362 0 0 1-.053.1.43.43 0 0 1-.187.146c-.03.016-.052.03-.042.052s.033.02.116-.005a3.062 3.062 0 0 1 .36-.074h.012c.052-.005.09-.01.12-.01a.256.256 0 0 1 .115.01c.037.01.063.026.094.037.016 0 .026.015.042.02a.29.29 0 0 0 .146.02zm.157-.377a.813.813 0 0 0 .084.01.29.29 0 0 0 .063 0 .355.355 0 0 0 .126 0 .27.27 0 0 1 .058-.016l-.016.016-.042.042c-.01.01-.015.02-.025.026a.755.755 0 0 1-.24.12c-.08.03-.12.052-.178.073l-.12.033-.032-.016a.59.59 0 0 0-.1-.042.13.13 0 0 0-.042-.01.1.1 0 0 0 .02-.016h.012a.25.25 0 0 1 .11-.053.363.363 0 0 1 .135 0h.058a.465.465 0 0 0 .282-.084.024.024 0 0 0 .01-.03.027.027 0 0 0-.02-.012c-.006 0-.006 0-.01.007a.433.433 0 0 1-.257.078l-.058-.005a.44.44 0 0 0-.146 0 .462.462 0 0 0-.13.057 1 1 0 0 1-.095.053h-.054a.324.324 0 0 0 .042-.037l.08-.094a.237.237 0 0 1 .02-.027c.02-.026.037-.047.057-.068a1.154 1.154 0 0 1 .194-.016c.088.002.192.01.213.01zm.08-.142a.12.12 0 0 1-.106 0 .1.1 0 0 1-.057-.08.117.117 0 0 1 .07-.135.123.123 0 0 1 .04-.01.15.15 0 0 1 .1.047.017.017 0 0 1 0 .01c.01.006.016.016.02.037a.122.122 0 0 1-.068.13zm.705-.78c.036-.01.072-.03.114-.046l.01-.006a.843.843 0 0 0 .105-.047c0 .015-.01.067-.106.21a.985.985 0 0 1-.256.34.537.537 0 0 1-.12.03c-.042.01-.11.026-.21.047-.057.01-.11.026-.167.037l-.02-.02a.594.594 0 0 1 .126-.064.368.368 0 0 1 .12-.016.486.486 0 0 0 .136-.015.55.55 0 0 0 .33-.34.02.02 0 0 0-.01-.028.025.025 0 0 0-.032.01.444.444 0 0 1-.08.147.47.47 0 0 1-.22.167.2.2 0 0 1-.12.015.492.492 0 0 0-.14.016.633.633 0 0 0-.14.073.2.2 0 0 1 .04-.056.18.18 0 0 1 .095-.063c.02-.01.052-.02.094-.04.156-.08.386-.194.443-.34zm-.08-.386a.433.433 0 0 0 .178-.084c.01 0 .02 0 .026-.01a.4.4 0 0 1-.068.146.263.263 0 0 1-.047.058.162.162 0 0 0-.048.078.273.273 0 0 0-.01.1.148.148 0 0 1 .005.047c-.01.15-.277.282-.434.355-.037.02-.068.037-.09.047a.247.247 0 0 0-.114.073.254.254 0 0 0-.048.083.135.135 0 0 0-.08.006h-.01a.156.156 0 0 0-.093.183.134.134 0 0 0 .062.094.38.38 0 0 1-.1.072h-.204s.016-.01.02-.015a.55.55 0 0 0 .095-.1.593.593 0 0 0 .142-.277.085.085 0 0 0 .03.02.023.023 0 0 0 .017 0 .1.1 0 0 0 .036-.01.446.446 0 0 0 .136-.146c.032-.047.094-.146.047-.21a.134.134 0 0 0-.04-.035.805.805 0 0 0 .026-.116.53.53 0 0 0-.01-.13c0-.033-.01-.07-.017-.127a.737.737 0 0 1 .03-.324.135.135 0 0 1 .022-.052.05.05 0 0 0 .005.027.18.18 0 0 0 .094.1c0 .063 0 .136-.01.2a1.546 1.546 0 0 1-.067.293c-.02.052-.027.08-.006.09s.037-.01.064-.048a.662.662 0 0 1 .068-.09.61.61 0 0 1 .073-.077.284.284 0 0 0 .054-.058.646.646 0 0 0 .068-.115.093.093 0 0 1 .04-.058.07.07 0 0 1 .065-.01.727.727 0 0 0 .092.016zm-.057-.3c.047 0 .068.015.078.03.033.038.012.11-.025.153a.14.14 0 0 1-.12.03.084.084 0 0 1-.063-.05.123.123 0 0 1 .026-.11l.032-.032a.143.143 0 0 1 .072-.02zm-.1-.01a.27.27 0 0 0-.036.036.14.14 0 0 0-.03.15.12.12 0 0 0 .082.08c-.012 0-.022 0-.032.016a.144.144 0 0 0-.063.084.538.538 0 0 1-.058.1.23.23 0 0 1-.047.052.522.522 0 0 0-.078.08c-.02.02-.032.04-.047.056a1.21 1.21 0 0 0 .063-.267 1.148 1.148 0 0 0 .01-.19h.02a.1.1 0 0 0 .043-.01.145.145 0 0 0 .074-.114.2.2 0 0 0-.016-.136c0-.006 0-.006-.005-.01s.005-.01.005-.022c0 .032.016.053.037.058h.01c.042 0 .08-.073.137-.21a.888.888 0 0 0 .072-.193.317.317 0 0 1 .048-.12.682.682 0 0 1 .1-.12.366.366 0 0 0 .105-.136.485.485 0 0 0 .047-.215.023.023 0 0 0-.02-.02.023.023 0 0 0-.022.02.45.45 0 0 1-.042.194.31.31 0 0 1-.094.125.483.483 0 0 0-.11.132.376.376 0 0 0-.052.13 1.244 1.244 0 0 1-.068.19.822.822 0 0 1-.1.182.25.25 0 0 1-.005-.068v-.078a.838.838 0 0 0 .032-.152c.01-.063.016-.11.02-.152a.686.686 0 0 1 .06-.246.932.932 0 0 1 .24-.3.48.48 0 0 1 .1-.09.517.517 0 0 0 .155-.16h.006l.015-.017a1.285 1.285 0 0 1-.04.51.9.9 0 0 1-.148.365.778.778 0 0 1-.135.146.776.776 0 0 0-.168.195.642.642 0 0 0-.065.126z"/><path d="M30.726 26.642a1.35 1.35 0 0 1-.036.508.983.983 0 0 1-.152.366 1.43 1.43 0 0 1-.135.146.678.678 0 0 0-.163.194.668.668 0 0 0-.058.125.27.27 0 0 0-.036.038.14.14 0 0 0-.03.15.12.12 0 0 0 .082.08.077.077 0 0 0-.04.016.152.152 0 0 0-.064.078.33.33 0 0 1-.058.105.54.54 0 0 1-.047.052.522.522 0 0 0-.08.078c-.015.02-.03.04-.046.057a1.21 1.21 0 0 0 .063-.267 1.18 1.18 0 0 0 .01-.193.033.033 0 0 0 .02 0 .1.1 0 0 0 .043-.01.145.145 0 0 0 .073-.11.21.21 0 0 0-.016-.14c0-.007 0-.007-.005-.012a.02.02 0 0 0 .005-.016c0 .032.016.048.037.053h.01c.042 0 .08-.073.137-.21a1.28 1.28 0 0 0 .073-.193.317.317 0 0 1 .048-.12.682.682 0 0 1 .1-.12.375.375 0 0 0 .106-.136.5.5 0 0 0 .047-.214.023.023 0 0 0-.02-.02.023.023 0 0 0-.022.02.49.49 0 0 1-.04.2.283.283 0 0 1-.095.12.744.744 0 0 0-.11.13.376.376 0 0 0-.052.132 1.244 1.244 0 0 1-.068.188.658.658 0 0 1-.1.183.25.25 0 0 1-.005-.07v-.077a.838.838 0 0 0 .03-.152c.012-.062.017-.11.022-.15a.514.514 0 0 1 .058-.247 1.023 1.023 0 0 1 .24-.3.968.968 0 0 1 .1-.084.578.578 0 0 0 .156-.163h.006zM30.648 28.583a.693.693 0 0 1-.105.2.934.934 0 0 1-.256.34.345.345 0 0 1-.12.03c-.042.01-.11.027-.21.048-.057.01-.11.027-.167.038-.01-.006-.015-.016-.026-.02a.594.594 0 0 1 .126-.064.35.35 0 0 1 .12-.016.27.27 0 0 0 .136-.015.55.55 0 0 0 .33-.34.02.02 0 0 0-.01-.027.025.025 0 0 0-.032.01.444.444 0 0 1-.08.147.47.47 0 0 1-.22.168.278.278 0 0 1-.124.016.422.422 0 0 0-.13.016.466.466 0 0 0-.142.073.126.126 0 0 1 .037-.057.18.18 0 0 1 .094-.063c.02-.01.05-.02.093-.042.157-.078.387-.193.444-.34l.01-.005a1.163 1.163 0 0 1 .12-.052v-.006a.757.757 0 0 1 .11-.037zM30.49 26.684v.01l-.014-.03a.26.26 0 0 0-.053-.053.178.178 0 0 0-.052-.02.25.25 0 0 1 .038-.052.57.57 0 0 1 .057-.074v.036a.377.377 0 0 0 .016.162.048.048 0 0 1 .01.022zM30.47 26.773v.063a.433.433 0 0 0-.052.047.844.844 0 0 0-.073.068.214.214 0 0 1-.09-.104.268.268 0 0 1-.02-.13.09.09 0 0 1 .026-.053.114.114 0 0 1 .08-.03.12.12 0 0 1 .063.014.175.175 0 0 1 .04.037.19.19 0 0 1 .027.09zM30.36 28.023c.032.037.01.11-.026.152a.156.156 0 0 1-.12.036.114.114 0 0 1-.063-.056.123.123 0 0 1 .027-.11.273.273 0 0 1 .037-.03.112.112 0 0 1 .068-.022c.047 0 .068.015.078.03zM30.36 25.905a1.062 1.062 0 0 1-.03.382c-.012.036-.022.068-.027.09a.41.41 0 0 0-.026.14.42.42 0 0 0 .01.083.11.11 0 0 0-.052.032.06.06 0 0 0-.02.02.422.422 0 0 1-.022-.135v-.063a.25.25 0 0 1 .016-.058c.01-.036.03-.088.05-.177a1.188 1.188 0 0 0 .043-.28v-.108a.3.3 0 0 1 .016-.163.282.282 0 0 1 .03-.07.2.2 0 0 0-.01.06.6.6 0 0 0 .005.172.322.322 0 0 1 .015.073z" fill="#009a3c"/><path d="M30.35 28.358c0 .01 0 .026-.01.026a.25.25 0 0 0-.163.115.084.084 0 0 0-.015.056.38.38 0 0 1-.02.084c-.017.047-.038.068-.153.194-.043.042-.085.083-.127.13 0 0-.01.006-.015.006s-.01-.006-.016-.006a.033.033 0 0 1 0-.03c.042-.043.084-.09.126-.132.11-.115.13-.14.146-.178a.657.657 0 0 0 .016-.068.154.154 0 0 1 .015-.078.314.314 0 0 1 .19-.136c.01 0 .025.005.025.016z"/><path d="M30.214 26.862a.286.286 0 0 1-.02-.152.44.44 0 0 1-.043-.2.26.26 0 0 1 .012-.068v-.01a1.48 1.48 0 0 0 .04-.5 2.456 2.456 0 0 0-.1-.466c-.015-.042-.025-.073-.036-.1a1.563 1.563 0 0 1-.047-.15V25.2a.02.02 0 0 1 0-.016 1.266 1.266 0 0 0-.1.32 1.732 1.732 0 0 0-.022.182 1.2 1.2 0 0 0 .01.3 1.3 1.3 0 0 1 .08.14c.1.215.087.262.06.283-.01.004-.014.01-.025.01-.042 0-.1-.053-.21-.13a1.71 1.71 0 0 1-.33-.325 1.3 1.3 0 0 1-.14-.2.2.2 0 0 0 0 .078.567.567 0 0 0 .23.366.577.577 0 0 0 .115.073.507.507 0 0 1 .11.068.59.59 0 0 1 .162.2l.032.033a.69.69 0 0 1 .146.5.673.673 0 0 1-.04.2 1.593 1.593 0 0 0 .02.162.635.635 0 0 1 .062-.262.818.818 0 0 1 .146-.21.3.3 0 0 1-.112-.11zm-.115-.55a.023.023 0 0 1-.022-.02.8.8 0 0 1-.02-.115.748.748 0 0 1-.02-.084.644.644 0 0 1-.023-.12.374.374 0 0 1-.015-.152.232.232 0 0 1 .016-.056.124.124 0 0 0 0-.042.306.306 0 0 0 0-.1c0-.015 0-.036-.01-.057a.76.76 0 0 1-.016-.157.023.023 0 0 1 .02-.02.023.023 0 0 1 .022.02c0 .047.006.1.01.146.006.02.01.042.016.058a.406.406 0 0 1 .005.11.162.162 0 0 1-.01.057.09.09 0 0 0-.01.046.4.4 0 0 0 .01.136c.01.053.02.084.026.12s.01.053.02.09.016.073.02.115a.026.026 0 0 1-.02.026z" fill="#009a3c"/><path d="M30.12 26.287a.02.02 0 0 1-.02.02c-.01 0-.022-.005-.022-.015a.8.8 0 0 1-.02-.115c-.01-.037-.017-.063-.02-.084-.007-.037-.018-.073-.023-.12A.374.374 0 0 1 30 25.82a.356.356 0 0 1 .01-.056.2.2 0 0 0 .017-.047.694.694 0 0 0-.01-.095.2.2 0 0 1-.01-.062.68.68 0 0 1-.017-.152.02.02 0 0 1 .042 0 .725.725 0 0 0 .016.146.168.168 0 0 0 .01.058.818.818 0 0 1 .01.11.407.407 0 0 1-.015.057.09.09 0 0 0-.01.046.343.343 0 0 0 .015.136c.005.053.016.084.02.12a.674.674 0 0 0 .022.084.85.85 0 0 0 .02.12z"/><path d="M30.09 27.605a.256.256 0 0 1-.012.052.755.755 0 0 0-.037-.126.53.53 0 0 0-.088-.14.192.192 0 0 1-.068-.11.316.316 0 0 1 0-.172.686.686 0 0 1 .01-.1.693.693 0 0 0-.01-.14.79.79 0 0 0-.022-.132c0-.036-.01-.073-.01-.083.015-.006.073.03.125.094a.54.54 0 0 1 .074.35v.2a2.926 2.926 0 0 0 .04.308zM30.026 27.945a.16.16 0 0 1 .01.11.164.164 0 0 1-.01.04.137.137 0 0 1-.037.043.108.108 0 0 1-.07-.005.127.127 0 0 1-.072-.084.1.1 0 0 1 0-.08.16.16 0 0 1 .052-.062.123.123 0 0 1 .058-.016.065.065 0 0 1 .03.01.07.07 0 0 1 .038.043zM30 27.547a.685.685 0 0 1 .058.22l-.03.11c-.007-.006-.012-.01-.017-.01h-.004a.878.878 0 0 0-.215-.435.5.5 0 0 1-.114-.215.446.446 0 0 1 .016-.32l.016.017a.31.31 0 0 0 .073.073.413.413 0 0 0 .064.037c0 .03-.006.057-.006.084a.392.392 0 0 0 .006.188.327.327 0 0 0 .073.13.383.383 0 0 1 .083.12zM29.942 26.15c.095.194.073.226.073.226-.02.01-.115-.063-.183-.12a1.717 1.717 0 0 1-.324-.315c-.047-.06-.094-.124-.126-.17a.175.175 0 0 1-.03-.074v-.01h.015a.726.726 0 0 1 .35.166.8.8 0 0 1 .14.162c.043.048.064.095.085.137zM29.87 25.507a1.44 1.44 0 0 0-.022.157c-.042-.068-.084-.136-.13-.2a1.26 1.26 0 0 0-.1-.12.02.02 0 0 0-.028 0 .025.025 0 0 0-.005.03c.032.043.063.08.094.122a2.6 2.6 0 0 1 .162.245v.122a1.444 1.444 0 0 1-.163-.194.938.938 0 0 1-.13-.26.956.956 0 0 1-.037-.122.107.107 0 0 0 .052-.036h.005c.026.02.068.057.125.11s.12.095.174.147zM29.853 26.48a.657.657 0 0 0-.1-.052.28.28 0 0 0-.074-.026l-.063-.016a.326.326 0 0 1-.063-.01.438.438 0 0 1-.052-.027.72.72 0 0 1-.21-.215 1.42 1.42 0 0 1-.1-.157c.02 0 .047.02.078.03l.02.012a.7.7 0 0 1 .07.026.7.7 0 0 0 .182.2.442.442 0 0 0 .126.078.624.624 0 0 1 .1.063.533.533 0 0 1 .085.093zM29.785 29.32a.134.134 0 0 1-.073.14.14.14 0 0 1-.105-.01.138.138 0 0 1-.063-.078.128.128 0 0 1 .074-.136.123.123 0 0 1 .04-.01.15.15 0 0 1 .1.047.1.1 0 0 1 .027.047zM29.78 27.955s.01.005.015.005a.646.646 0 0 0-.057.115.818.818 0 0 0-.03.345 1.034 1.034 0 0 0 .015.126.338.338 0 0 1 .01.126.988.988 0 0 1-.026.1h-.032a.145.145 0 0 0-.078.026c-.006-.01-.006-.02-.01-.03v-.006a.665.665 0 0 0-.053-.162.26.26 0 0 1-.03-.126.166.166 0 0 1 .025-.1.676.676 0 0 0 .036-.13.907.907 0 0 0-.01-.18.215.215 0 0 1 0-.15.14.14 0 0 1 .02-.032.74.74 0 0 0 .073-.084.1.1 0 0 1 .015-.02v.01a.21.21 0 0 0 .01.047.2.2 0 0 0 .105.12zM29.963 29.587c-.016 0-.037.015-.058.02a.55.55 0 0 1-.125.01c-.02 0-.037 0-.057-.01s-.058-.005-.09-.005a1.132 1.132 0 0 0-.22-.01 1.154 1.154 0 0 0-.193.016c-.02.02-.036.042-.057.068a.237.237 0 0 0-.02.026.6.6 0 0 1-.08.094.324.324 0 0 1-.042.037h.048c.037-.016.068-.032.1-.047v-.006a.462.462 0 0 1 .13-.057.483.483 0 0 1 .153 0c.016 0 .032.005.053.005a.433.433 0 0 0 .256-.078.02.02 0 0 0 .01-.006.027.027 0 0 1 .02.01.024.024 0 0 1-.01.032.488.488 0 0 1-.282.084h-.058a.363.363 0 0 0-.136 0 .324.324 0 0 0-.11.052h-.01a.036.036 0 0 0-.02.01.073.073 0 0 1 .035.01.49.49 0 0 1 .104.043l.03.016a1.117 1.117 0 0 0 .122-.036c.057-.016.1-.037.178-.068a.843.843 0 0 0 .24-.12.682.682 0 0 0 .084-.09zM29.754 28.844c.03.042-.027.13-.047.167-.053.085-.116.143-.14.132s-.023-.01-.028-.03-.006-.017-.006-.033v-.058a.237.237 0 0 1 .03-.115c.022-.03.06-.09.12-.09a.108.108 0 0 1 .038 0 .047.047 0 0 1 .032.027zM30.517 28.206a.433.433 0 0 1-.178.084.727.727 0 0 1-.094.005.07.07 0 0 0-.064.01.093.093 0 0 0-.04.058.646.646 0 0 1-.07.115.284.284 0 0 1-.052.058.61.61 0 0 0-.073.078.662.662 0 0 0-.067.09c-.027.036-.043.056-.064.046s-.015-.037.006-.09a1.546 1.546 0 0 0 .068-.292c0-.063.01-.136.01-.2a.18.18 0 0 1-.094-.1.05.05 0 0 1-.005-.026.135.135 0 0 0-.02.052.737.737 0 0 0-.032.324c.006.058.01.094.016.126a.53.53 0 0 1 .01.13.805.805 0 0 1-.026.116.134.134 0 0 1 .042.036c.047.063-.015.162-.047.21a.446.446 0 0 1-.136.146.1.1 0 0 1-.036.01.023.023 0 0 1-.015 0 .085.085 0 0 1-.03-.02.593.593 0 0 1-.143.276.55.55 0 0 1-.094.1c0 .005-.016.01-.02.015h.203a.38.38 0 0 0 .1-.073.134.134 0 0 1-.062-.094.156.156 0 0 1 .092-.196h.01a.135.135 0 0 1 .08-.006.254.254 0 0 1 .046-.083.247.247 0 0 1 .115-.073c.022-.01.053-.026.09-.047.157-.073.424-.2.434-.355a.148.148 0 0 0-.005-.047.273.273 0 0 1 .01-.1.162.162 0 0 1 .046-.078.263.263 0 0 0 .047-.058.4.4 0 0 0 .068-.146s-.012-.006-.023 0zm-.183.178a.238.238 0 0 0-.157.115.125.125 0 0 0-.015.056.27.27 0 0 1-.02.09c-.017.04-.038.062-.153.182-.043.048-.085.09-.127.136 0 .006 0 .006-.015.006s-.01 0-.01-.006a.02.02 0 0 1 0-.03c.036-.043.078-.09.12-.132.11-.115.13-.136.146-.172s.01-.058.016-.074a.117.117 0 0 1 .02-.078.263.263 0 0 1 .184-.13.02.02 0 0 1 .026.01c.005.01 0 .02-.016.026zM29.534 25.136a.066.066 0 0 1 .005.063.045.045 0 0 1-.01.02.07.07 0 0 1-.054.026.187.187 0 0 1-.12-.037.068.068 0 0 1-.03-.048c0-.026.035-.057.067-.068a.105.105 0 0 1 .042-.005h.036a.1.1 0 0 1 .064.046zM29.487 29.022a.537.537 0 0 0-.026-.1.33.33 0 0 0-.036-.1.09.09 0 0 1-.015.042c-.017.047-.05.068-.1.1a.107.107 0 0 1-.038.02c0 .007-.068.054-.156.132-.016.016-.032.026-.048.042l-.005.02a.883.883 0 0 1-.094.226.56.56 0 0 1-.053.068c-.01.015-.026.03-.047.057a.617.617 0 0 0-.08.15.294.294 0 0 1-.05.11.538.538 0 0 1-.132.12 2.225 2.225 0 0 1 .335-.067 1.073 1.073 0 0 0 .084-.078.4.4 0 0 0 .073-.09.148.148 0 0 0 .02-.025c.027-.032.048-.053.07-.08a.743.743 0 0 0 .062-.062.55.55 0 0 0 .094-.094.584.584 0 0 0 .14-.324.23.23 0 0 1 0-.068zm-.078-.016a.716.716 0 0 1-.158.225.3.3 0 0 1-.048.043.288.288 0 0 0-.088.09.29.29 0 0 0-.027.05.3.3 0 0 1-.037.09c-.02.037-.032.058-.042.073a.268.268 0 0 0-.04.068l-.022.047a.134.134 0 0 1-.03.064.307.307 0 0 1-.1.084h-.01a.017.017 0 0 1-.017-.016c-.01-.01 0-.02.007-.026a.317.317 0 0 0 .09-.073c.01-.016.014-.03.025-.052s.01-.025.02-.052a.475.475 0 0 1 .042-.073c.01-.015.02-.036.042-.068a.464.464 0 0 0 .037-.083.222.222 0 0 1 .026-.058.4.4 0 0 1 .1-.105c.01-.01.025-.02.04-.035a.6.6 0 0 0 .153-.215.033.033 0 0 1 .03 0c.006 0 .01.02.006.026zM29.476 29.974a.29.29 0 0 1-.146-.032c-.016 0-.026-.015-.042-.02-.03-.01-.057-.027-.094-.037a.256.256 0 0 0-.115-.01c-.032 0-.07.005-.12.01h-.012a3.062 3.062 0 0 0-.36.073c-.084.026-.1.032-.116.005s.01-.036.042-.052a.43.43 0 0 0 .188-.145.362.362 0 0 0 .053-.1.574.574 0 0 1 .083-.157.4.4 0 0 1 .048-.062.485.485 0 0 0 .047-.063.878.878 0 0 0 .088-.215l.007-.026c.02-.073.03-.125.016-.14-.032-.027-.157.015-.246.088a.587.587 0 0 0-.12.157.362.362 0 0 0-.053.1.977.977 0 0 1-.052.1.4.4 0 0 1-.09.1.485.485 0 0 0-.046.063.312.312 0 0 0-.037.152.21.21 0 0 1-.043.14c-.02.027-.046.048-.2.11-.048.016-.09.037-.137.048.053.026.105.047.157.078l.058-.016a.453.453 0 0 1 .177-.026.664.664 0 0 1 .157.032c.046.01.073.02.1.026a.14.14 0 0 0 .12 0c.015 0 .036-.01.078-.016a.726.726 0 0 1 .1-.005H29a.894.894 0 0 0 .24-.026 1.14 1.14 0 0 0 .19-.1c.036-.02.057-.032.072-.042zm-1.02-.074c-.01-.006-.015-.016-.005-.027.022-.047.043-.088.06-.13 0-.02.01-.037.015-.053a.145.145 0 0 1 .03-.073.152.152 0 0 1 .048-.052.12.12 0 0 0 .03-.037.167.167 0 0 0 .038-.09.3.3 0 0 0 .01-.05.456.456 0 0 1 .154-.21.024.024 0 0 1 .03.005.024.024 0 0 1-.005.03.383.383 0 0 0-.137.19c0 .015 0 .026-.01.042a.22.22 0 0 1-.042.11.147.147 0 0 1-.04.04.156.156 0 0 0-.037.043.172.172 0 0 0-.027.063c0 .017-.01.032-.015.053a.908.908 0 0 1-.067.14c-.006.007-.01.012-.015.012s-.006 0-.01-.005zm.69.157a.593.593 0 0 0-.093 0 1.225 1.225 0 0 0-.157.01h-.062a.785.785 0 0 1-.12.006.838.838 0 0 1-.12-.006.022.022 0 0 1-.022-.02.023.023 0 0 1 .026-.02.932.932 0 0 0 .236 0 .2.2 0 0 0 .057-.007c.043 0 .09-.01.163-.015h.094a.02.02 0 0 1 .02.02.023.023 0 0 1-.02.033z" fill="#009a3c"/><path d="M29.4 28.975a.025.025 0 0 1 .01.03.728.728 0 0 1-.156.226c-.016.017-.032.027-.048.043a.288.288 0 0 0-.088.09c-.01.025-.016.036-.02.05s-.017.043-.043.09-.032.052-.042.073a.2.2 0 0 0-.042.068c-.01.02-.015.037-.02.047a.134.134 0 0 1-.03.064.256.256 0 0 1-.1.084h-.01s-.017 0-.017-.01 0-.022.006-.027a.25.25 0 0 0 .088-.072c.01-.016.015-.03.026-.052s.01-.026.02-.047a.268.268 0 0 1 .042-.08c.01-.015.02-.036.042-.068a.464.464 0 0 0 .037-.083.222.222 0 0 1 .026-.06.5.5 0 0 1 .1-.104c.012-.01.027-.02.043-.036a.665.665 0 0 0 .152-.215c.002-.01.013-.01.025-.01z"/><path d="M29.34 25.277a.1.1 0 0 1 0 .08.078.078 0 0 1-.062.035.082.082 0 0 1-.09-.047.087.087 0 0 1 0-.094c.01-.004.022-.015.032-.02a.108.108 0 0 1 .037-.01h.02a.116.116 0 0 1 .063.057zM29.21 25.465a.113.113 0 0 1 0 .12.09.09 0 0 1-.073.037.118.118 0 0 1-.094-.03.146.146 0 0 1-.032-.085.1.1 0 0 1 .033-.068.084.084 0 0 1 .062-.022.2.2 0 0 1 .058.01.09.09 0 0 1 .047.037z" fill="#009a3c"/><path d="M29.168 30.037a.023.023 0 0 1-.02.02h-.095c-.068 0-.115.01-.157.016a.264.264 0 0 1-.062 0 .785.785 0 0 1-.12.006.838.838 0 0 1-.12-.007.022.022 0 0 1-.022-.02.023.023 0 0 1 .026-.02.932.932 0 0 0 .236 0 .2.2 0 0 0 .057-.007c.043 0 .09-.01.163-.015h.094a.02.02 0 0 1 .02.027z"/><path d="M28.96 24.948l-.033-.016a.753.753 0 0 0-.157-.057.84.84 0 0 0-.115-.006.436.436 0 0 1-.083 0 .356.356 0 0 1-.063-.022.38.38 0 0 1-.095-.068 1.01 1.01 0 0 0 .094.2 1.333 1.333 0 0 0 .1.152.753.753 0 0 0 .094.083.616.616 0 0 0 .3.1 1.174 1.174 0 0 0 .13 0v-.027a.694.694 0 0 0-.088-.04.5.5 0 0 0-.068-.038c-.01 0-.02-.016-.042-.026-.073-.037-.12-.052-.157-.068a.584.584 0 0 1-.11-.058.61.61 0 0 1-.127-.136.025.025 0 0 1 .01-.03h.01a.015.015 0 0 1 .017.01.51.51 0 0 0 .115.12.38.38 0 0 0 .1.052l.162.073a.417.417 0 0 0 .04.026c.022.01.038.016.07.032s.057.03.083.042c0-.006 0-.01.01-.016a.24.24 0 0 1 .058-.04.828.828 0 0 0-.26-.242zM29.152 25.366c-.005 0-.005-.01-.01-.016a.4.4 0 0 1-.084.006H29a.653.653 0 0 1-.32-.11.406.406 0 0 1-.087-.08.913.913 0 0 1-.136.012h-.037a.637.637 0 0 1-.136-.01h-.016a1.1 1.1 0 0 0 .288.193 1.056 1.056 0 0 0 .424.132.087.087 0 0 1 .01-.042l-.063-.016a1.208 1.208 0 0 1-.26-.068.883.883 0 0 1-.226-.136.023.023 0 0 1 0-.03.02.02 0 0 1 .017-.006.017.017 0 0 1 .015.005.718.718 0 0 0 .215.13 1.137 1.137 0 0 0 .246.062l.083.016a.14.14 0 0 1 .14-.026c0-.005-.004-.01-.004-.016z" fill="#009a3c"/><path d="M28.865 29.184a.024.024 0 0 1-.006.03.383.383 0 0 0-.137.19c0 .01 0 .026-.01.042a.205.205 0 0 1-.042.11.272.272 0 0 1-.04.04.094.094 0 0 0-.037.043.172.172 0 0 0-.027.062c0 .016-.01.03-.015.052a.607.607 0 0 1-.067.14c0 .007-.01.012-.015.012a.018.018 0 0 1-.01 0 .026.026 0 0 1-.012-.032.733.733 0 0 0 .063-.125c0-.022.01-.038.015-.054a.145.145 0 0 1 .03-.073.152.152 0 0 1 .048-.052.12.12 0 0 0 .03-.036.154.154 0 0 0 .038-.094.256.256 0 0 0 .01-.047.432.432 0 0 1 .154-.21.024.024 0 0 1 .03 0z"/><path d="M28.577 30.413a.06.06 0 0 1 0 .042c-.016.047-.073.052-.11.052a.586.586 0 0 1-.21-.052.1.1 0 0 1 .043-.03.267.267 0 0 1 .177-.033.712.712 0 0 1 .1.02zM28.514 30.356a.057.057 0 0 0-.03-.006.32.32 0 0 0-.2.037.234.234 0 0 0-.064.047c-.047-.026-.1-.052-.152-.084s-.125-.073-.188-.1h-.016c-.026-.01-.052-.02-.072-.032a.06.06 0 0 0-.027-.047.162.162 0 0 0-.063-.036.045.045 0 0 1-.02-.01c-.016 0-.027-.01-.043-.016a.543.543 0 0 1-.08-.036c-.02-.01-.046-.02-.072-.037a.476.476 0 0 1 .21-.03.6.6 0 0 1 .208.067c.016.01.037.015.052.026h.006c.062.03.13.062.2.1.068.03.142.068.21.105.046.006.094.026.14.053zM27.735 30.188a.028.028 0 0 1 .01.016h-.005c0 .01-.016.016-.03.02a.35.35 0 0 1-.247-.046.38.38 0 0 1-.068-.037c-.016-.01-.032-.014-.052-.025s-.058-.026-.09-.042c-.052-.02-.1-.04-.15-.062l-.017-.005c-.03-.01-.15-.057-.214-.078a.945.945 0 0 0-.267-.037c-.057 0-.115.006-.172.01-.084 0-.168.006-.252 0a1.367 1.367 0 0 1-.58-.15 1.39 1.39 0 0 1-.125-.08 1.21 1.21 0 0 1-.277-.282.242.242 0 0 1 .047.026c.02.01.047.027.08.042a1.14 1.14 0 0 0 .705.126c.015-.01.026-.016.026-.032s-.016-.036-.042-.057a1.865 1.865 0 0 0-.225-.126c-.215-.11-.325-.15-.393-.183a.75.75 0 0 1-.162-.078 1.314 1.314 0 0 1-.476-.59 1.725 1.725 0 0 1-.09-.257s0 .01.01.01.006.01.01.015a1.44 1.44 0 0 0 .35.37 1.106 1.106 0 0 0 .185.11 1.462 1.462 0 0 1 .25.153.55.55 0 0 1 .068.052c.068.052.084.063.1.042s0-.032-.016-.047a.29.29 0 0 1-.042-.037c-.046-.047-.12-.115-.2-.2a1.942 1.942 0 0 1-.13-.178c-.038-.052-.08-.11-.122-.162a3.17 3.17 0 0 0-.292-.288.773.773 0 0 1-.2-.235.842.842 0 0 1-.036-.12.683.683 0 0 0-.083-.188.006.006 0 0 1-.005-.006.7.7 0 0 1 .063.038c.14.084.226.13.267.157a.59.59 0 0 0 .063.036 1.038 1.038 0 0 1 .262.326c.036.068.057.12.078.167a.827.827 0 0 0 .115.225.854.854 0 0 0 .14.167.367.367 0 0 0 .043.084.89.89 0 0 0 .313.328c.005.006.01 0 .015 0a.018.018 0 0 0 0-.015c0-.01 0-.016-.02-.027a.783.783 0 0 1-.2-.277.627.627 0 0 1-.022-.262 1.48 1.48 0 0 0 .01-.162 2.993 2.993 0 0 0-.015-.3c-.01-.088-.027-.167-.037-.22s-.015-.083-.015-.104a.88.88 0 0 1 .163.288.97.97 0 0 1 .067.36c.006.084.016.18.038.31a1.4 1.4 0 0 0 .182.57.938.938 0 0 0 .45.386.054.054 0 0 0 .042-.005c.03-.035-.01-.11-.126-.3a1.3 1.3 0 0 0-.077-.13c-.042-.062-.084-.125-.136-.22-.02-.04-.058-.104-.068-.135a.722.722 0 0 1 .166.14 1.2 1.2 0 0 1 .215.294 1.182 1.182 0 0 0 .137.2 1.356 1.356 0 0 0 .34.292c.11.073.22.14.318.2.048.027.09.053.13.074s.074.04.116.062a.56.56 0 0 1 .08.037l.042.016c.005 0 .015 0 .02.01a.107.107 0 0 1 .063.028zM27.374 30.183c.01 0 .016.01.02.01a1.763 1.763 0 0 0-.282.126 1.478 1.478 0 0 1-.21.1s-.014.005-.02.005a.316.316 0 0 0-.052-.037.36.36 0 0 0-.193-.03h-.032c.01 0 .02-.007.032-.007a.207.207 0 0 1 .036-.01c.08-.025.157-.057.24-.088s.2-.078.33-.13c.032.015.058.025.084.036a.22.22 0 0 0 .047.025zM26.81 30.424a.1.1 0 0 1 .025.015.3.3 0 0 1-.2.02h-.006a.226.226 0 0 1-.116-.047.017.017 0 0 1 0-.01c.042 0 .084-.006.126-.006.112.003.148.01.17.027zM26.333 25.005a1.974 1.974 0 0 0-.418.34 1.146 1.146 0 0 0-.105.115 2.458 2.458 0 0 0-.225.33c-.005.01-.015.01-.026.005a.02.02 0 0 1-.01-.026 2.458 2.458 0 0 1 .224-.33.676.676 0 0 1 .015-.142.363.363 0 0 1 .025-.1 1.838 1.838 0 0 0 .074-.183.424.424 0 0 1 .015-.053.832.832 0 0 1 .1-.22s.01-.015.015-.02a.858.858 0 0 0-.428.565v.073a.532.532 0 0 1-.037.256.537.537 0 0 1-.058.115.755.755 0 0 0-.057.095 1.662 1.662 0 0 0-.13.325 2.616 2.616 0 0 0-.09.413c-.01.052-.01.063-.03.063-.022 0-.022-.02-.017-.084.006-.042.01-.1.016-.162a2.83 2.83 0 0 1 .046-.31c.01-.067.02-.13.03-.224a1.19 1.19 0 0 0 0-.225.33.33 0 0 1 .017-.135.513.513 0 0 1 .105-.188 1.06 1.06 0 0 0 .125-.193c.027-.063.047-.126.068-.178a1.247 1.247 0 0 1-.14.172 1.4 1.4 0 0 0-.288.44.626.626 0 0 0-.047.21 2.188 2.188 0 0 1-.03.25 1.867 1.867 0 0 1-.048.24c-.006.1-.01.173-.016.236a1.05 1.05 0 0 0-.004.32 1.84 1.84 0 0 0 .063.26.02.02 0 0 1-.012.027c-.01 0-.026 0-.026-.01a1.57 1.57 0 0 1-.068-.272 1.337 1.337 0 0 1 0-.33 2.186 2.186 0 0 0 .02-.3 1.036 1.036 0 0 0-.093-.558l-.02-.037a1.627 1.627 0 0 1 0 .46.946.946 0 0 1-.063.272.8.8 0 0 0-.047.22 1.555 1.555 0 0 0 .043.392 2.55 2.55 0 0 0 .2.576.025.025 0 0 1-.01.03h-.01c-.006 0-.017-.004-.017-.01-.037-.073-.068-.15-.1-.23a1.407 1.407 0 0 1-.073-.157.24.24 0 0 0-.02-.057c-.038-.09-.064-.158-.085-.21a.432.432 0 0 0-.136-.225c-.026-.02-.084-.058-.21-.136h-.002a.614.614 0 0 0-.073-.048.662.662 0 0 0 .08.125 5.14 5.14 0 0 1 .26.445 3.077 3.077 0 0 1 .183.408c.032.094.063.188.09.287.05.032.05.032.057.032a1.13 1.13 0 0 1 .272.34 1.623 1.623 0 0 1 .077.177 1.183 1.183 0 0 0 .11.214l.063.08a1.676 1.676 0 0 1-.063-.293c0-.053-.01-.11-.01-.168v-.168a1.8 1.8 0 0 1 .073-.42l.03-.1a.98.98 0 0 0 .06-.34.884.884 0 0 0-.028-.2c0 .038-.01.085-.02.132a.78.78 0 0 1-.09.183.917.917 0 0 0-.046.08.96.96 0 0 0-.08.574.914.914 0 0 0 .06.215.257.257 0 0 1 .01.042c0 .01 0 .016-.01.02a.058.058 0 0 1-.027-.004 1.036 1.036 0 0 1-.216-.57 1.152 1.152 0 0 1 .115-.555 1.69 1.69 0 0 1 .48-.606 2.64 2.64 0 0 1 .22-.19l.13-.114c-.02.006-.067.02-.16.058a1.267 1.267 0 0 0-.4.272 1.23 1.23 0 0 0-.247.356c-.005.01-.01.02-.02.02a.02.02 0 0 1-.016-.005c-.006 0-.01-.01-.01-.016a1.437 1.437 0 0 1 .512-.69 2.474 2.474 0 0 1 .26-.158 1.7 1.7 0 0 1 .162-.083.494.494 0 0 0 .142-.084.57.57 0 0 0 .146-.195.52.52 0 0 1-.272.19.21.21 0 0 1-.073.01.657.657 0 0 0-.084 0c-.01 0-.014.005-.025.005a.507.507 0 0 0-.288.11.634.634 0 0 0-.078.115 1.532 1.532 0 0 1-.137.21c-.02.03-.047.06-.068.088-.037.036-.052.057-.073.047s-.01-.042.026-.1c.02-.042.052-.094.094-.162a1.726 1.726 0 0 1 .21-.32.514.514 0 0 1 .167-.11c.03-.02.072-.035.124-.067a2.44 2.44 0 0 0 .5-.4c.08-.078.11-.12.147-.162a1.82 1.82 0 0 1 .158-.167h.005c.01-.01.02-.015.026-.025a1.707 1.707 0 0 0-.447.19z" fill="#009a3c"/></svg>