<svg xmlns="http://www.w3.org/2000/svg" viewBox="0 0 55 55"><path d="M47.677 39.153a23.3 23.3 0 0 1-40.35 0z" fill="#1e5f3d"/><path d="M50.8 27.5a23.168 23.168 0 0 1-3.123 11.653H7.327A23.172 23.172 0 0 1 4.2 27.5z" fill="#f9d117"/><path d="M50.8 27.5H4.2a23.3 23.3 0 1 1 46.6 0z" fill="#08a1dc"/><path d="M36.855 16.166l4.948-.313-4.948-.314 4.7-1.586-4.86.978 4.128-2.74-4.44 2.2 3.273-3.718-3.72 3.28 2.2-4.44-2.736 4.12.973-4.858-1.58 4.7-.314-4.948-.315 4.948-1.58-4.7.98 4.86-2.75-4.127 2.2 4.44-3.715-3.28 3.274 3.718-4.44-2.2 4.126 2.74-4.86-.974 4.7 1.585-4.948.313 4.948.313-4.7 1.585 4.858-.977-4.126 2.74 4.44-2.2L29.3 21.03l3.72-3.274-2.2 4.44 2.74-4.126-.978 4.86 1.58-4.7.313 4.947.314-4.948 1.58 4.7-.97-4.86 2.737 4.13-2.2-4.44 3.72 3.273-3.275-3.718 4.44 2.2-4.126-2.74 4.86.977zm-2.38 2.06a2.375 2.375 0 1 1 2.375-2.373 2.38 2.38 0 0 1-2.375 2.374zM36.578 15.853a2.1 2.1 0 1 1-2.1-2.1 2.1 2.1 0 0 1 2.1 2.1z" fill="#f9d117"/></svg>