<svg xmlns="http://www.w3.org/2000/svg" viewBox="0 0 55 55"><path d="M50.8 27.5A23.3 23.3 0 1 1 27.5 4.2a23.325 23.325 0 0 1 23.3 23.3z" fill="#006b35"/><path d="M40.043 37.4a.624.624 0 0 0-.193-.063 2.906 2.906 0 0 0-.64-.016c-.23-.004-.464-.004-.7-.01l-1.41-.01c-.026 0-.48-.02-.48-.005a.474.474 0 0 0 .004-.084c0-.1.115-.062.173-.2a.3.3 0 0 0-.25-.375.124.124 0 0 1-.064-.006c-.026-.016-.03-.053-.03-.084a.243.243 0 0 0-.394-.157.425.425 0 0 0-.126.428 1.207 1.207 0 0 0 .073.235 1.373 1.373 0 0 1 .063.23l-21.148-.25a2.916 2.916 0 0 0 2.62 1.317H35.99a4.84 4.84 0 0 0 .084.664 1.327 1.327 0 0 0 .12.372.32.32 0 0 0 .377.183.277.277 0 0 0 .195-.2h2.593c.047 0 .1.072.126.1a.677.677 0 0 0 .125.12.757.757 0 0 0 .475.078c.246 0 .528-.22.528-1.2a1.14 1.14 0 0 0-.57-1.068zm-.758 1.4c-.12.12-.816.078-.816.078s-.127-.24-.32-.24a.56.56 0 0 0-.387.214 7.993 7.993 0 0 1-1.056.01.424.424 0 0 1-.02-.465h2.53s.188.28.068.403zM10.705 24.644c-.1-.03-.444.6-.585 1.287a1.86 1.86 0 0 0-.016.9c.037.12.2.707.575.738.313.026.565-.356.653-.617.105-.3.052-.653-.052-.68-.083-.02-.146.158-.355.18a.3.3 0 0 1-.2-.043c-.126-.105-.064-.37-.027-.544.102-.533.107-1.187.007-1.22zM13.33 21.9c.022-.136-.292-.32-.57-.366a1.246 1.246 0 0 0-.726.125 2.986 2.986 0 0 0-1.35 1.375c-.1.15-.11.193-.088.22.13.214 1.793-.916 2.584-1.23.04-.01.14-.053.15-.125zM11.4 16.423c-.132-.152-.372-.424-.32-.623a.325.325 0 0 1 .23-.214c.235-.052.45.2.48.24a1.16 1.16 0 0 1 .074 1.1c-.062.157-.177.345-.245.33s-.085-.288-.09-.356a.853.853 0 0 0-.032-.34.446.446 0 0 0-.098-.137zM10.33 17.47a3.822 3.822 0 0 0 .01 1.107c.125.68-.006.654.135 1.156.105.372.21.738.508.837a.616.616 0 0 0 .45-.03c.345-.18.4-.676.433-.922.053-.408-.052-.528.058-.873.068-.225.2-.48.282-.466a16.88 16.88 0 0 1 .115 1.82c.06.47.122.68.294.79.215.14.476.046.68.255a.617.617 0 0 1 .157.31 8.17 8.17 0 0 1 .09 1.882c.016.837.13.894.167.905.147.047.372-.24.48-.42a2.338 2.338 0 0 0 .21-1.3 8.342 8.342 0 0 0-.088-1.3c-.064-.38-.148-.7.025-.857a.46.46 0 0 1 .31-.1c.234 0 .307.162.542.245a1.09 1.09 0 0 0 .785-.078 1.206 1.206 0 0 0 .554-.486 1.287 1.287 0 0 0 .12-.984 3.993 3.993 0 0 0-.26-.962c-.016-.036-.054-.2-.012-.26.02-.038.09-.012.14-.054.038-.026.06-.078.05-.2a1.04 1.04 0 0 0-.247-.6c-.126-.13-.44-.376-.68-.267s-.256.465-.267.61a2.244 2.244 0 0 0 .345 1.2c.178.31.356.488.3.733a.355.355 0 0 1-.157.24c-.147.07-.34-.062-.48-.166a1.112 1.112 0 0 1-.43-.46c-.13-.31.058-.42.026-.98a1.16 1.16 0 0 0-.282-.814.416.416 0 0 0-.325-.163c-.428.032-.38.576-.35.874a3.1 3.1 0 0 0 .094.523c.022.073.048.146.074.22.094.256.215.5.11.638a.144.144 0 0 1-.11.062c-.094-.01-.14-.2-.183-.392a5.235 5.235 0 0 1-.114-.863 8.368 8.368 0 0 0-.12-.962c-.084-.445-.22-1.156-.513-1.193-.15-.02-.32.152-.387.31-.12.255.02.49.136.935.105.408.017.324.136.983.152.858.33 1.188.126 1.486-.016.022-.12.173-.22.152-.146-.026-.188-.43-.21-.606a6.835 6.835 0 0 1 .032-1.02c.016-.45.006-.59-.094-.727a.5.5 0 0 0-.392-.23c-.193.014-.314.234-.46.516a2.686 2.686 0 0 0-.356 1.057c-.047.434.043.685-.13.81a.313.313 0 0 1-.288.037c-.2-.078-.25-.4-.32-.858a2.8 2.8 0 0 0-.145-.815s-.067-.293-.21-.346a.13.13 0 0 0-.093 0 .077.077 0 0 0-.048.06zM14.324 15.842a.473.473 0 0 0-.01.42.676.676 0 0 0 .32.375.734.734 0 0 0 .574.016.643.643 0 0 0 .4-.262.6.6 0 0 0 .09-.354c0-.08 0-.293-.095-.33a.233.233 0 0 0-.22.12c-.052.08-.03.152-.08.173s-.1-.022-.13-.058c-.078-.09-.025-.19-.088-.236a.18.18 0 0 0-.22.042c-.078.09-.02.23-.067.246-.027.01-.074-.052-.105-.094-.08-.1-.068-.147-.11-.168-.065-.032-.196.026-.26.11zM21.076 20.81c-.042-.093-.225-.114-.36-.083a.38.38 0 0 0-.23.136c-.07.1-.022.178-.1.31-.022.04-.074.124-.13.12s-.054-.148-.153-.257a.46.46 0 0 0-.49-.1c-.085.042-.075.09-.3.43-.1.15-.137.187-.194.22a.36.36 0 0 1-.383-.012c-.11-.1.016-.25-.09-.444a.45.45 0 0 0-.375-.236c-.13 0-.168.1-.236.08-.162-.038-.11-.576-.2-1.324a7.81 7.81 0 0 0-.2-1.24c-.068-.23-.16-.46-.052-.58.13-.13.4.04.507-.08s-.1-.334-.3-.883a2.3 2.3 0 0 0-.443-.978.38.38 0 0 0-.25-.11.357.357 0 0 0-.258.1.52.52 0 0 0-.283.25.59.59 0 0 0 .047.43 5.548 5.548 0 0 1 .183 1.1c.068.386.02.23.225 1.484.058.346.095.6.167 1.12.12.863.14 1.187-.032 1.29a.4.4 0 0 1-.335 0c-.3-.1-.272-.417-.528-.543a.908.908 0 0 0-.753.127 1.372 1.372 0 0 0-.638.675 1.15 1.15 0 0 0 .073 1.156.92.92 0 0 0 .874.282c.252-.068.456-.3.53-.235.025.02.02.073.014.1a1.854 1.854 0 0 1-.235.748 2.234 2.234 0 0 1-.8.69c-.508.3-.812.476-1.183.392a1.156 1.156 0 0 1-.8-.71c-.13-.372.042-.675-.2-1.13-.09-.168-.14-.178-.172-.178-.168 0-.277.55-.32.826a2.094 2.094 0 0 0 .1 1.23 1.834 1.834 0 0 0 .69.815 1.876 1.876 0 0 0 1.2.272 2.2 2.2 0 0 0 1.21-.534 2.443 2.443 0 0 0 .935-1.3c.13-.533-.01-.994.31-1.245.03-.025.14-.108.208-.072.146.068.03.57-.015.79a3.964 3.964 0 0 1-.55 1.4 3.126 3.126 0 0 1-1.035 1.046 2.81 2.81 0 0 1-1.37.387 1.848 1.848 0 0 1-1.48-.5 1.516 1.516 0 0 1-.277-.6 3.216 3.216 0 0 0-.235-1.014c-.09-.162-.14-.167-.157-.162-.177.01-.26.82-.272.9a2.626 2.626 0 0 0 .084 1.213 1.916 1.916 0 0 0 .71 1 2.18 2.18 0 0 0 1.408.24 4.3 4.3 0 0 0 1.73-.407 4.086 4.086 0 0 0 1.094-.748 3.18 3.18 0 0 0 .874-1.27 3.264 3.264 0 0 0 .15-.97c.017-.637-.114-1.463.017-1.536a.16.16 0 0 1 .083-.016c.058 0 .09.052.126.084a.46.46 0 0 0 .235.068.914.914 0 0 0 .387-.016 1.007 1.007 0 0 0 .3-.136c.2-.12.215-.173.335-.21a.81.81 0 0 1 .365.016 3.564 3.564 0 0 0 .58.084.753.753 0 0 0 .518-.4c.22-.408-.068-.82.12-1.188a.174.174 0 0 0 .023-.16zm-5.083 1.533a.288.288 0 0 1-.4-.026.245.245 0 0 1 .288-.4.324.324 0 0 1 .137.23.263.263 0 0 1-.024.196zM19.193 23.666c.188.257.272.23.33.356.114.262-.147.533-.032.65a.222.222 0 0 0 .22 0c.22-.095.216-.5.21-.63a1.046 1.046 0 0 0-.225-.68c-.078-.093-.22-.26-.392-.23a.3.3 0 0 0-.236.247c-.005.046-.005.114.126.286zM29.584 26.208c.016-.146.03-.345-.063-.413s-.24.016-.37.084c-.115.056-.466.234-.43.428a.317.317 0 0 0 .257.21c.1.01.147-.043.19-.012.072.053-.028.194.035.366a.4.4 0 0 0 .21.225c.14.063.277-.015.465-.09.586-.234.857-.135.93-.328a.333.333 0 0 0-.11-.346c-.146-.1-.39-.016-.757.11-.215.073-.33.13-.382.083s.01-.12.026-.32zM20.37 19a.61.61 0 0 0 .03-.2c0-.02-.02-.13-.083-.157-.094-.042-.256.1-.34.236a.64.64 0 0 0-.015.658.61.61 0 0 0 .36.266.6.6 0 0 0 .508-.13c.1-.1.194-.257.15-.31-.03-.03-.087 0-.255 0s-.256.006-.314-.05c-.077-.088-.05-.25-.04-.314zM25.87 20.59c-.062-.04-.177-.088-.244-.046-.11.073-.032.35-.027.366a.727.727 0 0 0 .428.47.64.64 0 0 0 .544-.015.583.583 0 0 0 .246-.3c.088-.2.12-.513-.006-.58a.287.287 0 0 0-.32.12c-.05.073-.05.162-.072.162s-.016-.173-.12-.236a.148.148 0 0 0-.147-.01c-.088.048-.062.21-.115.22s-.062-.08-.167-.15zM21.19 16.182a.553.553 0 0 0-.313-.5.616.616 0 0 0-.738.173.624.624 0 0 0-.042.68c.09.13.26.21.308.376a.27.27 0 0 1 0 .153.225.225 0 0 1-.09.11 5.326 5.326 0 0 1-.956.8c-.423.256-.465.35-.82.55-.09.046-.247.214-.2.3.077.166.668.155 1.06-.007.486-.2.377-.46 1.088-1.025.287-.23.648-.454.6-.673a1.117 1.117 0 0 1-.094-.314.856.856 0 0 1 .047-.236c.088-.267.14-.286.15-.385zm-.433.4c-.068.052-.21 0-.283-.09a.24.24 0 0 1-.02-.3.228.228 0 0 1 .27.053c.1.094.116.277.033.335zM21.593 16.543c-.178.03-.183.82-.136 1.365.068.722.142 1.6.712 1.836a.822.822 0 0 0 .8-.063c.244-.213.1-.538.365-1.18.1-.247.26-.55.334-.53.11.032-.168.665.083 1.33.02.052.31.8.873.883a1.733 1.733 0 0 0 1.13-.45c.23-.188.393-.413.607-.38a.446.446 0 0 1 .24.155c.07.063.612.58 1.062.508a1.014 1.014 0 0 0 .59-.46c.142-.23.137-.445.267-.466a.288.288 0 0 1 .25.162c.064.115.012.21.075.267s.23.01.266 0a.924.924 0 0 0 .466-.592c.04-.13.114-.345.035-.413-.062-.047-.167.015-.413.073a1.136 1.136 0 0 1-.4.063c-.146-.03-.236-.156-.366-.4-.34-.626-.54-.992-.393-1.25.016-.025.12-.2.257-.2.068 0 .094.05.12.038.08-.042.02-.633-.382-1-.1-.09-.34-.308-.585-.246-.33.08-.434.607-.445.88a1.887 1.887 0 0 0 .345.94c.183.335.24.346.3.555.08.256.126.737-.125.89a.538.538 0 0 1-.544-.064c-.267-.172-.32-.5-.392-1a9.36 9.36 0 0 1-.074-1.067 3.068 3.068 0 0 0-.1-.852c-.062-.21-.146-.5-.308-.523-.183-.02-.356.31-.393.383a1.156 1.156 0 0 0-.13.6c.015.32.14.382.23.764a2.467 2.467 0 0 1 .047.674 1.343 1.343 0 0 1-.356.974.693.693 0 0 1-.564.183.73.73 0 0 1-.482-.418c-.136-.258-.078-.425-.057-1.063.03-.947-.084-1.077-.162-1.13a.573.573 0 0 0-.492.016c-.684.282-.85 1.454-.883 1.658-.015.095-.026.142-.047.236-.072.34-.125.576-.246.6s-.26-.168-.32-.246a1.693 1.693 0 0 1-.27-.847c-.063-.513 0-.727-.184-1.01-.044-.07-.128-.196-.207-.18zM22.718 15.34c-.24.058-.387.44-.408.492a.96.96 0 0 0-.073.5c.015.115.036.267.156.324.136.068.3-.047.382-.12s.157-.2.115-.277-.162-.012-.23-.096c-.084-.088-.026-.26-.015-.292.052-.163.157-.178.2-.367.027-.1.01-.136 0-.15-.038-.036-.1-.02-.127-.015zM24.9 15.43a.74.74 0 0 0-.246.57c-.026.255 0 .23-.02.616-.012.22.083.33.13.35s.193-.125.22-.156a1.535 1.535 0 0 0 .235-1.057c0-.15-.007-.272-.08-.308a.278.278 0 0 0-.24-.016zM33.982 23.32a10.522 10.522 0 0 0-1.11-2.02c-.386-.643-.773-1.265-1.165-1.877-.057-.664-.11-1.235-.157-1.574a.226.226 0 0 1 .1-.158c.068-.027.115.026.156 0 .09-.042.01-.35.01-.35a4.534 4.534 0 0 0-.9-1.423c-.072-.096-.176-.28-.29-.263-.158.016-.252.366-.28.59a1.733 1.733 0 0 0 .05.582 4.344 4.344 0 0 0-.388-.556 5.426 5.426 0 0 0-.65-.627c-.4-.32-.5-.3-.548-.283-.105.042-.136.173-.188.392a1.022 1.022 0 0 0 .172 1.036 29.89 29.89 0 0 1 2.114 2.824c.2 2.228.287 5.058.25 5.8-.01.272-.052.926.146.983.168.052.424-.367.55-.565a2.284 2.284 0 0 0 .214-1.637s-.1-1.47-.22-3.03c.215.378.4.734.57 1.063a18.863 18.863 0 0 0 1.543 2.752c.21.065.29-.97.022-1.66zm-3.86-6.22c-.01-.015-.04-.062-.026-.09.037-.06.272.064.335 0a.048.048 0 0 0 .012-.03c.057.178.125.3.136.34.04.167.083.366.12.59-.188-.274-.377-.546-.575-.81zM32.11 16.1c-.016.194.167.246.355.618a1.762 1.762 0 0 1 .178.528c.052.324-.015.512.043.533s.245-.2.34-.466a1.438 1.438 0 0 0-.12-1.187c-.085-.12-.263-.393-.482-.367a.4.4 0 0 0-.314.34zM32.418 18.713c-.083-.073-.052-.183-.1-.2s-.183.08-.246.2a.535.535 0 0 0 .09.54.692.692 0 0 0 .626.193.717.717 0 0 0 .513-.293.506.506 0 0 0 .043-.55c-.042-.046-.12-.094-.168-.073-.083.032-.04.22-.11.236-.052.015-.125-.068-.156-.12-.07-.1-.048-.168-.09-.184-.058-.02-.157.063-.2.157-.036.067-.026.114-.063.135s-.102-.01-.14-.042zM37.967 19.52c-.11-.053-.094-.168-.183-.23a.364.364 0 0 0-.42.082.483.483 0 0 0-.1.393c.012.1.06.282.65.8.413.37.512.4.58.366.084-.035.105-.15.126-.3.073-.428-.105-.642.03-.8.085-.1.2-.05.31-.2a.434.434 0 0 0 .078-.208.6.6 0 0 0-.246-.638.422.422 0 0 0-.47.063c-.137.183.1.523-.027.628a.384.384 0 0 1-.2.047.336.336 0 0 1-.128-.003zM41.59 26.69c0-.137.126-.168.126-.257.006-.125-.24-.293-.48-.272-.168.017-.35.12-.346.22.006.12.3.126.36.335a.36.36 0 0 1-.025.246c-.105.258-.36.268-.37.43a.27.27 0 0 0 .17.246c.163.063.263-.12.712-.3.225-.09.356-.1.382-.21a.25.25 0 0 0-.12-.245c-.137-.078-.29.042-.372-.04a.17.17 0 0 1-.037-.15zM36.832 23.2s-.12-1.005-.45-3.39c-.094-.706-.24-1.406-.3-2.112.063-.01.13-.006.193-.01s.246.015.3-.043c.078-.083-.08-.266-.115-.34-.084-.157-.167-.308-.25-.465-.132-.24-.268-.487-.4-.732-.053-.1-.173-.482-.32-.47-.178.004-.293.73-.33 1.207a5.626 5.626 0 0 0 .147 1.747 33.88 33.88 0 0 1 .858 6.025c.02.523-.094 1.28.09 1.328.14.037.38-.37.507-.653a3.48 3.48 0 0 0 .07-2.092zM33.924 15.774a2.26 2.26 0 0 0-.345 1.067c0 .514.135.613.208 1.418.02.194.02.32.032.44.115 2.578.335 3.64.4 4.66a6.257 6.257 0 0 1 .11 1.584 1.284 1.284 0 0 1-.382.654 11.984 11.984 0 0 1-2.03 1.486c-.072.036-.23.047-.265.136s.15.277.292.36a1.427 1.427 0 0 0 1.2-.052 2.983 2.983 0 0 0 1.455-1.548 4.447 4.447 0 0 0 .4-1.548 16.114 16.114 0 0 0-.38-5.13s-.413-1.548-.146-1.637c.036-.015.094.02.162-.015.1-.053.125-.215.13-.257a.91.91 0 0 0-.157-.548c-.387-.685-.44-1.156-.6-1.14a.185.185 0 0 0-.086.072zM39.494 21.836c.188-.183.2-.874 0-.816-.037.01-1.438.93-1.59 1.083s-.256.256-.256.428-.047.383 0 .425a11.85 11.85 0 0 0 1.846-1.12zM39 22.364c-.093.1-.02.612.047.758a5.365 5.365 0 0 1 .126 1.02c0 .08.084.382.214.25a1.66 1.66 0 0 0 .36-.788 5.63 5.63 0 0 0-.36-1.24c-.034-.073-.287-.094-.387 0zM42.768 17.767c.015.13.04.34.052.59.015.372-.02.55.026.56.068.02.267-.292.33-.648a1.708 1.708 0 0 0-.126-.922c-.09-.26-.162-.47-.34-.512a.325.325 0 0 0-.314.11c-.11.15.01.38.063.486a.92.92 0 0 0 .308.335zM42.12 25.664c.234-.324.386-.4.47-.758a12.47 12.47 0 0 0 .052-1.407c.35.543.67 1.06.93 1.53.346.477.393.55.4.56a2.45 2.45 0 0 0-.077-1.667 17.16 17.16 0 0 0-1.28-1.95 15.765 15.765 0 0 0-.263-2.517c-.34-1.485-.382-1.673-.152-1.673s-.32-1.486-.528-1.862-.476-.25-.554-.172a.482.482 0 0 0-.2.528c.147.816.283 1.653.4 2.51.083.576.15 1.14.214 1.7-.293-.4-.617-.846-.926-1.28-.067-.89-.11-1.543-.11-1.574 0-.073.247-.11.247-.21a2.93 2.93 0 0 0-.466-.925c-.45-.45-.366-.868-.523-.863s-.293.3-.288.387c.037.46.08 1.11.126 1.758a5.3 5.3 0 0 1-.434-.68c0-.167-.01-.167.094-.167a.278.278 0 0 0 .214-.1c.048-.046-1.51-1.75-1.4-1.2 0 0-.36 1.1.094 1.67.167.2.79 1.004 1.58 2.065a4.764 4.764 0 0 0 .088.528 24.238 24.238 0 0 1 .194 4.723c-.02.183-.2.617-.466.654-.2.03-.392-.178-.533-.324-.377-.408-.408-.685-.66-.764a.5.5 0 0 0-.46.12c-.172.13-.334.3-.585 1-.24.66-.267.99-.49 1.188a.592.592 0 0 1-.493.094c-.44-.08-.586-.926-.643-1.177a2.693 2.693 0 0 1-.026-.968 2.88 2.88 0 0 0 .04 2.374c.315.533.938.957 1.273.8s.51-.674.7-1.6a.642.642 0 0 1 .584-.518c.445-.03.59.738 1.172.884a1.483 1.483 0 0 0 1.27-.518c.257-.272.43-.868.158-3.682-.048-.475-.095-.983-.136-1.48.32.44.643.9.962 1.355.11 1.3.172 2.547.2 3.75-.012.01 0 .178.23-.14zM44.425 17.52c.12-.125.57.19.5-.125s-.884-1.825-1.265-1.762c-.14.02-.277.465-.277.66s.11 1.228.21 1.976.773 6.6.61 7.128a2.707 2.707 0 0 1-.82 1.13c-.257.26-1.443.737-1.443 1.05s.61.283 1.212.074a2.184 2.184 0 0 0 1.612-1.6 27.363 27.363 0 0 0 .083-5.036 31.746 31.746 0 0 1-.422-3.495zM30.95 23.227c-.038-.1-.325-.063-.41-.058a17.65 17.65 0 0 1-3.126-.084c0-.02.22-.026.565-.12a2.934 2.934 0 0 0 1.238-.628 1.563 1.563 0 0 0 .654-1.067 1.233 1.233 0 0 0-.628-1.144 1.15 1.15 0 0 0-1.12.026 1.58 1.58 0 0 0-.543 1.056c-.114.48 0 .55-.124.722-.288.413-.947.03-1.747.408a2.194 2.194 0 0 0-.937.884c-.026-.2-.058-.424-.1-.706-.235-1.5-.486-1.92-.737-2.2-.1-.1-.345-.376-.533-.314-.225.08-.23.6-.23.722a3.917 3.917 0 0 0 .418 1.45 4.01 4.01 0 0 1 .33 1.326 2.86 2.86 0 0 1-.507 1.653 3.465 3.465 0 0 1-1.375 1.2 1.066 1.066 0 0 1-.983.1.652.652 0 0 1-.278-.45.994.994 0 0 0 .1-.068 5.717 5.717 0 0 0 1.093-.88 2.983 2.983 0 0 0 1-1.72 2.3 2.3 0 0 0-.283-1.49c-.01-.016-.13-.152-.1-.193s.2.062.277.01c.084-.078-.042-.408-.214-.65a.962.962 0 0 0-.654-.5.642.642 0 0 0-.575.242c-.214.32.07.78.127.868.15.236.25.194.423.45a1.41 1.41 0 0 1 .23.764 1.487 1.487 0 0 1-.147.67 3.74 3.74 0 0 1-1.385 1.416c-.02-.685.073-1.072-.01-1.093-.1-.032-.4.554-.566 1.2l-.078.318c-.622.392-.617.35-1.2.716-.44.278-1.94 1.224-1.846 1.413.105.21 2.076-.6 2.186-.644.3-.125.554-.24.775-.35a1.316 1.316 0 0 0 .192.48 1.735 1.735 0 0 0 1.438.707 2.275 2.275 0 0 0 1.338-.627 4.543 4.543 0 0 0 1.46-1.648 1.6 1.6 0 0 0 .068-.146 1.462 1.462 0 0 0 .167.48 1.85 1.85 0 0 0 .476.533 4.352 4.352 0 0 0 1.31.8c.32.12.906.335 1.23.136a.64.64 0 0 0 .22-.23.5.5 0 0 0 .036-.357c-.078-.245-.366-.183-.61-.465a.68.68 0 0 1-.18-.534c.053-.183.268-.282.6-.38a14.933 14.933 0 0 1 2.02-.383c.43-.072.69-.135.79-.344.1-.19-.042-.288.073-.56a2.976 2.976 0 0 1 .34-.57c.028-.055.065-.107.05-.15zm-2.684-2.045c.047-.084.215-.1.33-.047s.156.178.21.35c.025.084.02.11 0 .126-.043.064-.195.032-.3-.02-.16-.084-.306-.298-.24-.408zm-2.024 3.8c-.125.257.026.508-.12.6a.387.387 0 0 1-.32-.026 1.214 1.214 0 0 1-.773-.984c-.01-.073-.043-.517.187-.643.152-.085.267.067.628.125.533.09.79-.157 1.025.04a.387.387 0 0 1 .152.315c-.048.276-.597.213-.78.574z" fill="#fff"/></svg>