<svg xmlns="http://www.w3.org/2000/svg" viewBox="0 0 55 55"><path d="M47.264 15.178L5.774 35.92a23.28 23.28 0 0 1 2.29-21.26 23.7 23.7 0 0 1 2.213-2.835 23.273 23.273 0 0 1 36.987 3.353z" fill="#0951b8"/><path d="M50.8 27.5A23.295 23.295 0 0 1 7.736 39.827l41.49-20.747A23.224 23.224 0 0 1 50.8 27.5z" fill="#1f5a33"/><path d="M49.226 19.08L7.736 39.827a22.88 22.88 0 0 1-1.962-3.907l41.49-20.742a22.833 22.833 0 0 1 1.962 3.902z" fill="#fbd023"/><path fill="#fff" d="M15.612 14.958l.69 2.118h2.228l-1.804 1.313.69 2.117-1.804-1.312-1.8 1.312.686-2.118-1.8-1.314h2.23l.684-2.118zM10.743 13.274l.69 2.118-1.8-1.307-1.8 1.307.236-.732a23.7 23.7 0 0 1 2.21-2.835l.043.136h2.223zM21.595 9.848l.69 2.12h2.23l-1.806 1.306.69 2.118-1.805-1.307-1.8 1.307.687-2.118-1.8-1.307h2.228l.685-2.12zM9.63 20.073l.69 2.118h2.227l-1.804 1.31.69 2.117L9.63 24.31l-1.8 1.307.69-2.118-1.804-1.31h2.228l.685-2.117zM21.595 20.073l.69 2.118h2.23l-1.806 1.31.69 2.117-1.805-1.307-1.8 1.307.687-2.118-1.8-1.31h2.228l.685-2.117z"/></svg>