<svg xmlns="http://www.w3.org/2000/svg" viewBox="0 0 55 55"><path d="M26.038 4.247L5.455 35.042A23.3 23.3 0 0 1 26.038 4.247z" fill="#043f85"/><path d="M50.8 27.5a23.4 23.4 0 0 1-.5 4.8L12.175 45.03a23.373 23.373 0 0 1-3.84-4.293L45.57 12.814A23.156 23.156 0 0 1 50.8 27.5z" fill="#d52827"/><path d="M45.57 12.814L8.336 40.737a23.226 23.226 0 0 1-2.88-5.695L26.037 4.247q.72-.047 1.462-.047a23.26 23.26 0 0 1 18.07 8.614z" fill="#fbd759"/><path d="M50.3 32.3a23.214 23.214 0 0 1-4.9 10.1l-30.018 5a23.09 23.09 0 0 1-3.2-2.364z" fill="#fff"/><path d="M45.4 42.4a23.264 23.264 0 0 1-30.018 5z" fill="#00793d"/></svg>