<svg xmlns="http://www.w3.org/2000/svg" viewBox="0 0 55 55"><defs><clipPath><circle cx="97.5" cy="27.5" r="23.3" transform="translate(37.881 109.403) rotate(-69.699)" fill="none"/></clipPath><clipPath id="a"><path fill="none" d="M52.227 3.93h80.426v46.917H52.227z"/></clipPath></defs><path d="M49.467 19.733H5.534a23.3 23.3 0 0 1 43.933 0z" fill="#d11133"/><path d="M50.8 27.5a23.188 23.188 0 0 1-1.333 7.767H5.534a23.278 23.278 0 0 1 0-15.534h43.933A23.188 23.188 0 0 1 50.8 27.5z" fill="#fff"/><path d="M49.467 35.267a23.31 23.31 0 0 1-43.933 0z"/><path d="M32.3 27.5l-10.333 7.767-11.208 8.42a23.273 23.273 0 0 1-5.226-8.42 23.25 23.25 0 0 1 5.225-23.954l11.207 8.42z" fill="#00712a"/><g clip-path="url(#a)"><path fill="#231e60" d="M52.227 3.93h80.426v46.917H52.227z"/><path fill="#fff" d="M87.49 3.93L75.625 9.845V3.93h-6.68v5.914L57.078 3.93h-4.853v2.443l8.48 4.258h-8.48v6.705h8.48l-8.48 4.258v2.444h4.852l11.865-5.915v5.915h6.68v-5.915l11.864 5.915h4.896v-2.444l-8.526-4.258h8.526V10.63H83.86l8.526-4.257V3.93H87.49z"/><path fill="#bc1f34" d="M52.227 5.534l10.192 5.102h3.235L52.227 3.93v1.604zM65.63 17.335l-13.403 6.702h3.207l13.404-6.702h-3.21zM70.368 3.93v8.092h-18.14v3.927h18.14v8.087h3.925V15.95h18.093V12.02H74.293v-8.09h-3.925z"/></g></svg>