<svg xmlns="http://www.w3.org/2000/svg" viewBox="0 0 55 55"><defs><clipPath><circle cx="27.5" cy="27.5" r="23.3" transform="translate(-7.833 43.751) rotate(-69.699)" fill="none"/></clipPath><clipPath id="a"><path fill="none" d="M-17.773 3.93h80.426v46.917h-80.426z"/></clipPath></defs><g clip-path="url(#a)"><path fill="#231e60" d="M-17.773 3.93h80.426v46.917h-80.426z"/><path fill="#fff" d="M17.49 3.93L5.625 9.845V3.93h-6.68v5.914L-12.922 3.93h-4.853v2.443l8.48 4.258h-8.48v6.705h8.48l-8.48 4.258v2.444h4.852l11.865-5.915v5.915h6.68v-5.915l11.864 5.915h4.896v-2.444l-8.526-4.258h8.526V10.63H13.86l8.526-4.257V3.93H17.49z"/><path fill="#bc1f34" d="M19.227 3.93L5.823 10.637h3.21L22.386 3.93h-3.16zM22.386 24.037L9.02 17.335h3.22l10.146 5.103v1.6zM.368 3.93v8.092h-18.14v3.927H.367v8.087h3.925V15.95h18.093V12.02H4.293v-8.09H.368z"/><g clip-path="url(#a)"><path d="M49.183 23.677c-.013 4.562-.733 9.475-6.635 11.815-5.905-2.34-6.622-7.253-6.636-11.815z" fill="#9ebfe4"/><path d="M42.548 35.644l-.054-.02c-5.886-2.334-6.71-7.122-6.723-11.947v-.14h13.554v.14c-.016 4.825-.84 9.613-6.726 11.946l-.05.02zm-6.494-11.828c.03 4.665.866 9.266 6.494 11.524 5.625-2.258 6.464-6.86 6.494-11.524z" fill="#fff"/><path d="M42.548 35.492A9.57 9.57 0 0 0 47.8 31c-.144 0-.445 0-.576-.013-.147-.008-5.662-.563-6.316-.8a9.5 9.5 0 0 0-3.745.54A9.5 9.5 0 0 0 42.55 35.5z" fill="#4e68b0"/><path d="M38.42 32.664a.955.955 0 0 1 .33-.01c.08.015.095.023.127-.065s.093-.067.144-.022a.186.186 0 0 0 .233-.053c.05-.07.066-.064.117-.014s.072.04.123.023a.352.352 0 0 0 .18-.152c.043-.08.11-.106.145-.063a.127.127 0 0 0 .122.056c.05-.006.067.045.06.11s.023.08.146-.022c.11.11.144.065.144-.05a2.382 2.382 0 0 0-.072-.6.787.787 0 0 1-.094-.355c-.016-.248-.016-.26-.314-.413 0-.088-.02-.126-.232-.11a.22.22 0 0 0-.072-.154c-.043-.035-.05-.05-.03-.152a.242.242 0 0 0 .235-.08c.05-.072.217-.056.32-.013a.8.8 0 0 0 .428.02 2.465 2.465 0 0 1 .325-.2c.13-.073.168-.1.173-.204a1.493 1.493 0 0 0-.144-.7c-.072-.14-.093-.313-.194-.53a1.62 1.62 0 0 0-.232-.444.224.224 0 0 1-.08-.152.417.417 0 0 0-.126-.27 3.085 3.085 0 0 1-.39-1.327c-.052-.274-.015-.922-.13-1.023a.937.937 0 0 0-.42-.182 3.43 3.43 0 0 1-.227-.623c-.136.02-.232.167-.326.217s-.11.05-.11.18a1.07 1.07 0 0 1-.204.516c-.13.2-.347.147-.528.45-.4-.485-.405-.623-.437-.762s-.093-.167-.317-.36a2.505 2.505 0 0 1-.007-.423c-.168-.138-.29-.117-.37-.016s-.14.257-.262.316a6.822 6.822 0 0 0-.48.613 11.67 11.67 0 0 0 2.45 7.037z" fill="#573614"/><path d="M49.183 23.677c.005-1.72-.09-3.388-.048-4.85a18.85 18.85 0 0 0-13.177 0c.045 1.462-.054 3.13-.046 4.85z" fill="#f3ea32"/><path d="M49.32 23.813H35.775v-.136c0-.746.016-1.48.032-2.194.02-.938.04-1.826.016-2.65v-.09l.083-.04a18.966 18.966 0 0 1 13.29 0l.084.04v.09c-.026.824-.005 1.712.017 2.65.016.715.032 1.448.03 2.194v.136zm-13.272-.274h13c0-.7-.016-1.382-.032-2.05-.02-.908-.04-1.766-.02-2.574a18.793 18.793 0 0 0-12.9 0c.02.808 0 1.666-.02 2.573-.014.668-.03 1.353-.03 2.05z" fill="#fff"/><path d="M36.27 25.663a1.65 1.65 0 0 1 .218.427.925.925 0 0 0 .1-.22c.01-.063.086-.19.06-.26s-.05-.122.026-.072.066.14.048.27c-.048.354-.2.426-.216.666.213.506.053.688.285 1.178.038.024.134-.016.164-.008.122-.088.213-.056.39-.018a.3.3 0 0 1 .268.266.348.348 0 0 0 .035.205c.037.064.11.166.1.238a.186.186 0 0 0 .034.152c.025.037-.007.117-.025.17s-.016.115.07.224a1.92 1.92 0 0 1 .292.835c0 .27.014.392.123.443s.144.093.13.21a7.563 7.563 0 0 0 .065.814c.016.093.05.072.095.122a.225.225 0 0 0 .216.11c.147 0 .286-.02.382-.006a1.618 1.618 0 0 1 .24.58c.03.153.024.36.077.36s.1.01.085-.18a.448.448 0 0 0-.093-.312c-.064-.1-.1-.138-.064-.194a.343.343 0 0 0 .027-.227c-.014-.072-.035-.18.088-.037s.16.18.2.234a.392.392 0 0 1 .043.232c-.008.085.01.123.06.078s.114.03.084.125a.132.132 0 0 0 .1.18c.086.03.123.052.144.116s.1.1.1-.035a1.84 1.84 0 0 0-.088-.493 1.5 1.5 0 0 1-.072-.387c-.008-.11-.03-.136-.08-.157a.15.15 0 0 1-.1-.108.08.08 0 0 0-.085-.07.094.094 0 0 1-.078-.06c-.018-.038-.04-.04-.074-.046s-.092.018-.11-.038a.653.653 0 0 0-.08-.19c-.038-.047-.07-.063-.073-.225s-.008-.184-.06-.243a2.294 2.294 0 0 1-.172-.275c-.037-.066-.072-.13-.072.006s0 .21.085.262.11.05.072.125a.206.206 0 0 0 .016.174c.014.05.043.1 0 .153s-.088.037-.082-.043a.435.435 0 0 0-.056-.24c-.035-.067-.067-.11-.11-.072s-.08-.008-.05-.037a.044.044 0 0 0 0-.07c-.022-.023-.03-.044.008-.09s.034-.063.013-.165a4.5 4.5 0 0 0-.254-.727c-.072-.115-.064-.2.03-.086a.668.668 0 0 1 .18.312.334.334 0 0 0 .06.187c.028.038.05.025.063-.055s.074-.05-.028-.2a1.97 1.97 0 0 1-.365-.863 3.97 3.97 0 0 0-.173-.888.462.462 0 0 1-.1-.267.75.75 0 0 0-.05-.32c-.052-.088-.09-.1-.094.03a1.434 1.434 0 0 0 .042.472c.035.05.014.18.008.252s-.122.144.115.29a.154.154 0 0 1 .067.19c-.016.05-.032.042-.083-.038a.83.83 0 0 0-.15-.19c-.05-.042-.06-.07-.05-.172s.026-.174 0-.21-.046-.01-.06.05a1.5 1.5 0 0 1-.058.26c-.03.044-.046.014-.064-.08a.858.858 0 0 1 .056-.404 1.106 1.106 0 0 0 .037-.56.68.68 0 0 0-.188-.464 1.82 1.82 0 0 1-.438-.58 1.97 1.97 0 0 0-.18-.523 1.168 1.168 0 0 0-.29-.27v-.332c0-.08-.036-.13-.132-.117s-.152.1-.208.2-.1.06-.18.246-.2.283-.2.485zM36.792 27.79a.18.18 0 0 0 .2.02c.088-.046.192-.17.31-.05a.777.777 0 0 1 .18.49.845.845 0 0 0 .182.623.77.77 0 0 1 .282.56 3.59 3.59 0 0 0 .11.637.593.593 0 0 0 .128.248.71.71 0 0 1 .112.4 2.855 2.855 0 0 0 0 .387c.02.085 0 .16-.067.114a.262.262 0 0 1-.116-.137c-.037-.074-.08-.058-.045.048a.3.3 0 0 0 .24.212.2.2 0 0 1 .18.075c.056.058.064.085.168.085a.517.517 0 0 1 .21.03.153.153 0 0 0 .145 0c.05-.014.1.03.136.125a2.024 2.024 0 0 1 .124.426.348.348 0 0 0 .05.22c.05.07.038.145-.02.1s-.06-.03-.1-.022-.073-.015-.132-.05-.02-.03-.08-.117-.092-.113-.092-.053-.008.147-.053.11-.064-.035-.1 0-.05.063-.093 0a.18.18 0 0 0-.138-.09c-.043-.015-.043-.015-.064-.08a.138.138 0 0 0-.147-.08.083.083 0 0 1-.093-.073.182.182 0 0 0-.072-.094c-.03-.02-.016-.072-.022-.122s-.053-.03-.08-.042-.05-.008-.05-.08-.032-.1-.05-.147 0-.1.012-.156a.144.144 0 0 0-.037-.147c-.043-.05 0-.1-.123-.205s-.173-.013-.21-.25a3.822 3.822 0 0 0-.174-.816c-.066-.077-.11-.136-.175-.16s-.106-.006-.114-.144a.67.67 0 0 0-.14-.4 1.407 1.407 0 0 0-.167-.152c-.043-.035-.057-.1 0-.224a.76.76 0 0 0 .03-.37 1 1 0 0 1-.015-.27.518.518 0 0 0-.016-.253c-.02-.06-.05-.072-.014-.117zM38.54 25.727a1.546 1.546 0 0 1-.338.33c-.133.1-.31.174-.21.34s.173.183.192.31.048.23.144.26.136.008.136.213 0 .28.087.357.08.155.116.34a4.232 4.232 0 0 0 .155.85 3.938 3.938 0 0 1 .35.89c-.03.107-.067.187.048.312a.8.8 0 0 1 .2.415c.01.106.03.144.146.106a.447.447 0 0 0 .213-.127c.038-.048.115-.037.222.022s.27.114.367.056.146-.143.232-.143a.8.8 0 0 0 .212-.358c.03-.06.01-.06-.048-.118s-.03-.154-.038-.25a1.26 1.26 0 0 0-.165-.456 4.108 4.108 0 0 0-.26-.54.56.56 0 0 1-.125-.31c-.01-.078-.1-.147-.155-.2s-.117-.148-.187-.487-.114-.582-.114-.64-.01-.067-.068-.086a.145.145 0 0 1-.07-.165c.02-.05-.018-.1-.036-.156a.3.3 0 0 1 .037-.22.573.573 0 0 0-.008-.36c-.04-.137-.077-.25-.235-.27s-.18-.058-.24-.184-.117-.35-.136-.4-.045-.06-.164.04a.31.31 0 0 0-.155.31.347.347 0 0 0 .06.223.624.624 0 0 1 .076.272c.03.182.193.475-.02.637s-.18.206-.173.32-.056.192-.1.03a.277.277 0 0 1 .117-.34c.115-.076.22-.172.144-.28a1.21 1.21 0 0 1-.117-.473c-.007-.12-.026-.156-.1-.07z" fill="#c16228"/><path d="M36.82 28.2a1.126 1.126 0 0 0 .017.235.76.76 0 0 1-.032.37c-.056.123-.042.19 0 .224l.008.004a.172.172 0 0 0 .1-.234.237.237 0 0 1 .016-.22.128.128 0 0 0 .004-.153c-.035-.048-.035-.048.005-.184.03-.12-.054-.118-.123-.043zM38.056 30.07a3.59 3.59 0 0 1-.11-.637.77.77 0 0 0-.282-.56.71.71 0 0 1-.18-.5c-.108-.067-.15-.037-.143.085s.142.192.12.38-.017.143.076.233.125.183.077.22-.053.107.016.13.068.1.06.166.054.083.09.13a.238.238 0 0 1 .006.232c-.037.067-.042.174.024.118s.1-.008.15.085.085.054.136.033a.457.457 0 0 1-.04-.112zM39 31.76c-.045.088-.1.06-.138.016s-.094-.045-.075-.122.016-.1-.043-.14a.068.068 0 0 0-.018-.012.444.444 0 0 0-.067 0c-.1 0-.113-.027-.17-.085a.31.31 0 0 0-.033-.032.31.31 0 0 0 0 .053c0 .08 0 .064-.083.088s-.064-.08-.077-.147a.36.36 0 0 0-.014-.04.312.312 0 0 1-.213-.21c-.035-.105.008-.12.045-.047a.262.262 0 0 0 .115.136c.067.045.088-.03.067-.115a.374.374 0 0 1-.008-.1.146.146 0 0 0-.065-.064c-.118-.05-.083-.063-.075-.16s-.013-.092-.088-.042-.077-.008-.077-.154-.1-.144-.118-.043-.056.038-.1-.108-.1-.182-.11-.043c-.005.116-.037.143-.114.08.014.082.027.162.035.226.037.237.1.15.21.25s.08.155.123.205a.144.144 0 0 1 .038.148c-.013.056-.037.107-.013.157s.05.072.05.147.02.064.05.08c.017.008.04 0 .06.01a.677.677 0 0 1 .056-.077c.09-.088.22.008.262.115s.094.14.16.053.043-.072.117.005.1.067.1.067a.132.132 0 0 1 .124.016c.05.044.08.036.174-.1s-.043-.092-.086-.007zM39.258 27.78c.027-.213.008-.426.1-.5s.2-.232.184.1-.02.31-.088.386-.125.1-.056.222a.435.435 0 0 1 .067.33c-.01.192-.01.27.066.365s.1.107.118.214a.66.66 0 0 0 .174.33.8.8 0 0 1 .192.453c.013.155.146.2.272.3s-.027.184-.126.136-.056 0-.114.066-.078.078-.128-.037a.516.516 0 0 0-.288-.224c-.077-.028-.147-.153-.213-.28a.372.372 0 0 0-.278-.193.41.41 0 0 1 .034.173c-.03.107-.067.187.048.312a.8.8 0 0 1 .2.416c.01.106.03.144.146.106a.447.447 0 0 0 .213-.128c.04-.048.116-.037.223.022s.272.114.368.056.147-.144.233-.144a.8.8 0 0 0 .213-.358c.03-.058.01-.058-.048-.117s-.03-.154-.038-.25a1.26 1.26 0 0 0-.165-.456 4.108 4.108 0 0 0-.26-.542.56.56 0 0 1-.126-.31c-.012-.077-.1-.146-.156-.2s-.117-.147-.187-.486c-.053-.263-.09-.47-.11-.575-.066.112-.116.138-.14.064s-.067-.135-.107-.08-.048-.047-.048-.1-.01-.058-.058-.058-.008-.075-.03-.22-.048-.166-.066.01-.115.28-.078.317.02.116-.018.233a.343.343 0 0 0 .008.26.915.915 0 0 1-.04.348c-.02.126.08.254.11.04zM37.49 26.04c-.074.005-.122.07-.082.287.027.136-.077.107-.115.04a3.4 3.4 0 0 0-.144-.338c-.078-.127-.04.084-.05.2s.068.117.135.212.01.136-.067.136-.037.155-.02.262-.017.125-.076.037-.02-.22-.01-.387.018-.125-.09-.165-.084-.056-.047-.154.078-.143.03-.19-.04-.08.037-.09.05-.066.117-.087.1.01.106-.115c.008-.106.043-.17.12-.14a4.454 4.454 0 0 0 .155.49zM38.464 27.18c0 .2 0 .28.087.357s.08.155.116.34a4.232 4.232 0 0 0 .155.85c.038.082.083.183.134.29a.56.56 0 0 0 .14-.184c.028-.067-.06-.2-.127-.317s.008-.155.078-.3-.01-.155-.115-.192-.11-.136-.165-.294a.35.35 0 0 1-.01-.31c.04-.084.01-.15-.068-.172s-.058-.077-.03-.173.05-.118-.068-.088c-.09.02-.108.04-.134.072a.678.678 0 0 1 .008.12z" fill="#4eb648"/><path d="M39.578 27.586c-.013.117-.01.175-.04.213s-.01.1.02.153a.337.337 0 0 1 .02.243.184.184 0 0 0 .077.22c.06.03.085 0 .067.137a.423.423 0 0 0 .125.34.284.284 0 0 1 .107.212c-.008.06.048.117.114.147s.06.037.06.077.028.036.106.055a.445.445 0 0 1 .224.176c.085.108.213.164.194.05s0-.2-.117-.254-.2-.336-.253-.53a1.045 1.045 0 0 0-.29-.5c-.01-.137.01-.2-.078-.27a.293.293 0 0 1-.115-.224.247.247 0 0 0-.086-.176.126.126 0 0 1-.06-.122c0-.06-.068-.05-.076.056z" fill="#573614"/><path d="M39.063 32.78a2.706 2.706 0 0 0 .7-.2 1.12 1.12 0 0 0 .408.19.452.452 0 0 1-.32-.017c.022.053.08.133.118.138a.73.73 0 0 1-.4-.1.61.61 0 0 1-.5-.012zM39.375 32.995a4.1 4.1 0 0 0 .41.07c-.1.087-.012.17.155.156-.082.012-.173.044-.11.054a1.652 1.652 0 0 0 .63-.122.728.728 0 0 1-1.085-.157zM39.653 33.437a.58.58 0 0 1 .386.02.51.51 0 0 1-.387-.02z" fill="#6fbf5f"/><path d="M39.964 33.432c.15-.027.57.074.718-.016-.048.136-.315.152-.406.122a.957.957 0 0 0-.24-.06c.032-.017-.02-.022-.072-.046z"/><path d="M40.116 33.637a2.137 2.137 0 0 0 .64-.08 2.134 2.134 0 0 0 .445.107.61.61 0 0 1-.433 0 .777.777 0 0 1-.65-.027zM40.308 33.706a.822.822 0 0 0 .46-.042.753.753 0 0 0 .273.042.674.674 0 0 0 .265.1 1.17 1.17 0 0 1-.53-.037 1.453 1.453 0 0 0-.568.1.208.208 0 0 1 .1-.172z" fill="#6fbf5f"/><path d="M40.116 32.888a1.635 1.635 0 0 0 .813-.088c.09-.043.146.03.042.064a1.17 1.17 0 0 1-.893.067c-.086-.045-.094-.087.036-.042z"/><path d="M42.342 32.27a1.972 1.972 0 0 1-1.7.1c-.072-.023-.123 0-.045.05a2.893 2.893 0 0 0 .61.175c.1.006.067.054.005.072s-.08.062 0 .03a1.465 1.465 0 0 1 .74.053c.084.043.1.037.1 0s.035-.054.1-.062.1-.03.05-.045-.052-.03-.017-.048.04-.037-.013-.048-.09-.024-.04-.05a.7.7 0 0 1 .183-.05c.016-.04-.01-.145.032-.183z" fill="#6fbf5f"/><path d="M41.415 32.333a1.825 1.825 0 0 0 1.218-.426 1.335 1.335 0 0 0 .344.152c.077.015.15.087.026.087a1.088 1.088 0 0 1-.375-.088 2.127 2.127 0 0 1-1.2.31c-.088-.007-.11-.042-.008-.037z"/><path d="M40.47 30.593a.858.858 0 0 0 .553.186 1.12 1.12 0 0 0 .4.2 1.655 1.655 0 0 0-.394.183c-.08-.074-.174-.064-.2-.1-.073.058-.063.093-.014.122a1.447 1.447 0 0 0 .5.067c.09-.027.115.048.04.075a.686.686 0 0 1-.71-.206c-.13-.21-.24-.29-.6-.1-.04-.1-.04-.127-.108-.127s-.2-.09-.1-.088a1.137 1.137 0 0 0 .624-.213zM40.56 31.062c-.062.016-.233.11-.294.117s-.17.092-.06.1.257-.12.337-.132.09-.1.016-.082zM40.91 31.427a1.93 1.93 0 0 1-.276.048c-.054 0-.1.01-.1.048s.016.056-.06.05a.212.212 0 0 0-.16.043c-.017.022-.033.046.044.05a.292.292 0 0 0 .2-.026.875.875 0 0 1 .263-.1c.1 0 .19-.128.087-.11z" fill="#6fbf5f"/><path d="M40.65 31.654a1.816 1.816 0 0 0 .613.173c.14-.01.114.056.008.08a.882.882 0 0 1-.676-.2c-.09-.074-.006-.1.056-.058z"/><path d="M42.508 31.846a1.437 1.437 0 0 1-.728.03c-.125-.033-.237-.04-.155.04a.692.692 0 0 0 .5.092 1.976 1.976 0 0 1-.816.09 2.74 2.74 0 0 0-.494-.007.458.458 0 0 1-.234-.03c-.048-.03-.064-.084.08-.07s.157-.014.034-.033-.293.032-.125.14.53-.01.763.055a1.324 1.324 0 0 0 1.195-.264c.024-.02.066-.072-.024-.042zM41.033 31.4a.126.126 0 0 1 0 .1c-.01.024-.01.06.038.022s.075-.08.123-.054a.516.516 0 0 0 .222.014c.053-.006.072-.02-.006-.05a.532.532 0 0 0-.2-.04.354.354 0 0 1-.134-.022c-.038-.016-.048-.008-.038.03zM41.807 31.544a.707.707 0 0 1-.23-.06c-.058-.028-.14-.03-.077.052a.505.505 0 0 0 .424.09c.093-.04.053-.082.146-.023a.573.573 0 0 0 .264.1c.067 0 .094 0 .016-.043s-.112-.053-.117-.09-.02-.06.05-.038.15.062.2.035a.6.6 0 0 1 .25-.1l.02-.053a.5.5 0 0 0-.248.042.318.318 0 0 1-.17.01.67.67 0 0 1-.182-.036c-.024-.016-.024-.032.035-.04s.077-.054 0-.038a1.18 1.18 0 0 1-.405-.03c-.115-.036-.163-.04-.208-.02s-.04.066.03.072a.562.562 0 0 1 .28.07c.052.05.045.052-.017.028s-.176-.013-.058.072zM42.753 31.414l-.02.053a1.5 1.5 0 0 1 .566.1c.1-.08.082-.107.154-.09s.163.04.2.015a.155.155 0 0 1 .114-.008.373.373 0 0 0 .19-.045.6.6 0 0 1 .234-.078c.064 0 .144-.014.024-.032a.934.934 0 0 0-.362.04 1.64 1.64 0 0 1-.355.037 1.49 1.49 0 0 1-.382.02 1.466 1.466 0 0 0-.368-.01z" fill="#6fbf5f"/><path d="M44.432 31.347a1.435 1.435 0 0 1-.79.22c-.09.004-.063.03.015.04a1.186 1.186 0 0 0 .83-.22c.033-.037.03-.1-.055-.04z"/><path d="M42.95 31.718a3.4 3.4 0 0 1 .525.125c.08-.008.1-.027.088-.056s-.024-.06.12-.056.477 0 .542 0c.05-.02.162-.108.213-.11-.13.007-.675.037-.744.03a.216.216 0 0 0-.15.023.116.116 0 0 1-.122.016c-.056-.025-.155-.055-.2-.02s-.168 0-.267.043zM44.225 31.736c.05-.02.162-.11.213-.112a1.018 1.018 0 0 1 .256.04c.048.006.1 0 .066-.042s0-.11.147-.094a1.324 1.324 0 0 0 .368.03c.146-.014.21.1.485-.014-.02.11.032.118.083.094s.106-.014.194.05a2.056 2.056 0 0 0 .74.05c.124-.02.188.046.095.075s-.115.073-.094.1.043.064-.072.05a.2.2 0 0 0-.2.064c-.06.046-.072.06-.232.03a.523.523 0 0 0-.277.008.314.314 0 0 1-.2-.016.833.833 0 0 0-.392-.023.526.526 0 0 1-.3.046c-.1-.03-.11-.016-.045-.08s.083-.06.2-.075.216-.048.128-.1-.114-.043-.232.016-.173.093-.3.02a.324.324 0 0 0-.283-.036.66.66 0 0 1-.354-.083zM44.66 31.955c-.17.024-.212-.083-.385-.062-.06.006-.157.078-.024.067s.28.064.412.05.074-.068 0-.055zM44.467 32.08c.088-.032.27.03.344.016s.15.032.07.056-.272-.045-.36-.02-.173-.007-.053-.052zM42.732 32.55a.765.765 0 0 0 .722-.38c.013-.026.027-.04.08 0a1.31 1.31 0 0 0 .626.19c.107.008.22.062.01.048a2.118 2.118 0 0 1-.657-.14.842.842 0 0 1-.78.324c-.153 0-.116-.045 0-.04zM43.665 32.056a.753.753 0 0 1-.35.224 1.674 1.674 0 0 1-.43-.043c-.07-.026-.153-.018-.055.05a.753.753 0 0 0 .437.094c.1-.02.214-.052.288-.004s.22.136.3.12a.737.737 0 0 1 .31 0c.052.027.148.1.007.06s-.26-.01-.323-.038c.07.1.234.266.375.266.032 0 .056.056-.013.09a.32.32 0 0 0 .31-.018c-.02.03-.012.048.026.067s.08.043.013.05a.93.93 0 0 1-.255.006 1.31 1.31 0 0 0 .882.16c.07-.012.107-.04-.008-.036-.24 0-.256 0-.3-.024s-.036-.045.034-.067a1.408 1.408 0 0 1 .314-.047c.072 0 .147-.03 0-.03a1.862 1.862 0 0 1-.4-.024c-.075-.026-.128-.06-.05-.11s.154-.036.19-.084c-.24 0-.535-.13-.37-.246.038-.026.025-.03-.037-.037a1.375 1.375 0 0 1-.32-.1c-.073-.043-.023-.08.04-.09a.975.975 0 0 1-.614-.193zM45.8 32.048a.963.963 0 0 1-.483.14c-.107 0-.12.033-.037.047a.75.75 0 0 0 .21.008.14.14 0 0 1 .115.013.433.433 0 0 0 .272.008 1.145 1.145 0 0 1 .336-.045c.07 0 .146.007.008-.033a1.063 1.063 0 0 0-.415 0c-.056.016-.2.006-.125-.02a.59.59 0 0 0 .19-.1c-.03-.01-.05-.014-.07-.022zM45.725 32.33a.806.806 0 0 1-.442.17c.152.057.28.212.378.2a.422.422 0 0 1-.167.08.575.575 0 0 0 .384-.074.8.8 0 0 0 .6-.058.7.7 0 0 1-.39-.115.24.24 0 0 0 .17-.085.875.875 0 0 1-.53-.12zM45.493 32.784a.422.422 0 0 0 .168-.08 1.35 1.35 0 0 1-.8-.18c-.157-.137-.157-.033-.045.065a.757.757 0 0 0 .677.2zM45.877 33.117a1.256 1.256 0 0 1-.48.037c-.1-.02-.143-.01-.117.03s.035.077-.048.066a.748.748 0 0 0-.293.03c-.062.02-.14.074-.01.053a.89.89 0 0 1 .35-.02 1.648 1.648 0 0 0 .515 0c.07-.03.02-.03-.01-.03s-.05-.02 0-.043a.194.194 0 0 0 .092-.125zM42.86 32.7a3.94 3.94 0 0 1-.683.18.992.992 0 0 1-.333.1.538.538 0 0 0 .325.065.873.873 0 0 1-.182.117 1.137 1.137 0 0 1 .312.022.843.843 0 0 1-.47.1.194.194 0 0 0 .15.1.76.76 0 0 1-.39.008c.035.072.073.118.123.126a.615.615 0 0 1-.386-.038c.1.123.306.166.618.13a1.51 1.51 0 0 0 .645-.23 1.794 1.794 0 0 1-.392.004 2.213 2.213 0 0 0 .616-.27.334.334 0 0 1-.194-.055 1.948 1.948 0 0 0 .565-.073.41.41 0 0 1-.245-.16 2.416 2.416 0 0 0 1.21.035c.06-.013.066-.088-.05-.08a2.08 2.08 0 0 1-.7-.093.707.707 0 0 0 .29.13 1.033 1.033 0 0 1-.834-.123zM41.988 33.162a.873.873 0 0 0 .18-.117.538.538 0 0 1-.324-.064.992.992 0 0 0 .333-.1 1.52 1.52 0 0 1-.536-.058.6.6 0 0 0-.335-.02c-.064.012-.042.12.235.092a.957.957 0 0 1-.544.08.37.37 0 0 1 .02.24 1.8 1.8 0 0 0 .748.18c-.173-.063-.27-.137-.123-.15a1.62 1.62 0 0 0 .348-.08z" fill="#6fbf5f"/><path d="M41.54 33.634a1.933 1.933 0 0 0 1.18-.35c.094-.08.158-.052.068.03a2.03 2.03 0 0 1-1.147.422c-.19 0-.276-.088-.1-.1z"/><path d="M44.142 33.06a1.4 1.4 0 0 1-.405.062.41.41 0 0 0-.235.022c-.06.037-.06.058.02.066a2.3 2.3 0 0 0 .23.01.317.317 0 0 0-.122.11.743.743 0 0 1 .39.056.185.185 0 0 1-.142-.024 1.236 1.236 0 0 0 .872.17.473.473 0 0 1-.128.078.77.77 0 0 0 .536-.085 1.615 1.615 0 0 1-.29-.01.32.32 0 0 1 .14-.083.93.93 0 0 0-.357.02.244.244 0 0 1 .108-.116 2.3 2.3 0 0 1-.758-.072 2.29 2.29 0 0 0 .523-.1.562.562 0 0 1-.376-.1zM43.41 33.22a2.062 2.062 0 0 0-.414.12c-.056.033-.118.052.007.052s.472.013.55.024a4.08 4.08 0 0 0-.5-.035c-.053 0-.11-.004-.013-.034a2.66 2.66 0 0 1 .375-.125zM43.126 33.557a.68.68 0 0 0 .357-.075.79.79 0 0 0 .376.166c.114 0 .1.03.005.04a.7.7 0 0 1-.39-.12.613.613 0 0 1-.35-.01zM41.444 34.535a1.2 1.2 0 0 0 .74.078.67.67 0 0 0 .516.088.72.72 0 0 1 .413.01c.152.05.466.052.552.124a2.865 2.865 0 0 0-.29.013c-.04.01-.02.035.055.075a1.544 1.544 0 0 0-.8.2.457.457 0 0 1 .42-.263 1.235 1.235 0 0 0-.682.03.385.385 0 0 1-.09-.143c-.222.128-.66-.056-.832-.214zM40.865 34.127a.964.964 0 0 0 .53-.2.6.6 0 0 0 .46.02.108.108 0 0 0-.03.13 1.692 1.692 0 0 0-.5.116.72.72 0 0 1-.442.035c-.088-.048-.09-.088-.017-.1zM41.825 34.074a1.692 1.692 0 0 0-.5.117.5.5 0 0 1 .035.137 3.08 3.08 0 0 1 1.087-.114c-.11.005-.317.117-.432.133a2.132 2.132 0 0 1 .632.053c.072.018.086.07.032.122s-.08.06.034.06a.705.705 0 0 0 .464-.113c-.043-.05-.155-.03-.187-.063a.494.494 0 0 0 .2-.12 2.145 2.145 0 0 1-.333-.02c-.063-.017-.11-.036-.03-.078a.44.44 0 0 0 .14-.11.59.59 0 0 1-.547-.073.62.62 0 0 0 .29-.018.393.393 0 0 0-.164-.057 1 1 0 0 1 .8.005 1.79 1.79 0 0 1 .514.03 2.042 2.042 0 0 1 .248-.232c-.426.037-1.2-.043-1.184-.27a.743.743 0 0 1-.594.254.234.234 0 0 0 .1.19 1.77 1.77 0 0 1-.51.028.394.394 0 0 0 .262.118c-.152 0-.232.03-.352.018zM42.713 34.583a.705.705 0 0 0 .464-.114c-.043-.05-.155-.03-.187-.063a.494.494 0 0 0 .2-.12 6.2 6.2 0 0 0 .71-.05c.13-.04.463-.02.527-.038-.288.047-.347.07-.363.12s.1.087.166.087a.4.4 0 0 0-.31.184.18.18 0 0 0-.277.06.555.555 0 0 0-.435.083.856.856 0 0 0-.423-.046c.1-.02.08-.088-.067-.1zM44.107 33.736c.1 0 .312.008.39 0a.44.44 0 0 0-.13.093 3.98 3.98 0 0 1 .68-.033.483.483 0 0 0-.3.1c-.063.043-.025.067.057.077s.2.078.043.057a2.85 2.85 0 0 0-.525-.013c-.072.014-.112-.024-.008-.037a.613.613 0 0 0 .23-.083.8.8 0 0 1-.308.008c-.047-.013-.082-.042-.023-.056s.018-.038-.043-.033a.738.738 0 0 0-.307.157 2.08 2.08 0 0 1 .248-.23z" fill="#6fbf5f"/><path d="M43 33.9a.622.622 0 0 0 .488.22c.045 0 .133.063.018.068a.577.577 0 0 1-.59-.258c-.028-.04.023-.1.084-.03zM44.82 31.363a1.862 1.862 0 0 0 .732.13c.043 0 .13.046.02.054a1.288 1.288 0 0 1-.772-.147c-.064-.037-.042-.07.02-.04z"/><path d="M44.982 31.358c.247-.006.43 0 .506.07a1.657 1.657 0 0 1 .453-.06c.06.014.127-.013-.007-.045a1.93 1.93 0 0 0-.544-.024 3.16 3.16 0 0 1-.507.015.154.154 0 0 1 .1.043zM45.94 31.456c.116-.06.45 0 .553-.048-.075.088.232.1.5.027a2.678 2.678 0 0 1-.413.115.224.224 0 0 1-.22-.022.83.83 0 0 0-.417-.072zM46.99 31.435c-.265.07-.572.06-.5-.027-.1.046-.438-.013-.555.048.12-.072.21-.013.3-.162.056.01.18.018.224-.04a.7.7 0 0 1 .25.09c.04.04.1-.01.053-.072.117-.045.043.05.323-.018a2.182 2.182 0 0 1 .245-.043 1.86 1.86 0 0 1-.343.225z" fill="#6fbf5f"/><path d="M41.836 30.217c0-.55-.056-5.145-.056-6.206 0-.253-.133-.2-.133 0v6.177c.06.014.14.024.19.03z" fill="#f3ea32"/><path d="M41.852 30.238h-.02v-.018l-.06.01-.13-.02-.014-6.196c0-.214.165-.243.165 0 0 .746.027 3.24.042 4.846l.014 1.38zm-.133-6.382c-.023 0-.057.05-.057.155v6.177l.154.022-.017-1.35c-.016-1.608-.043-4.1-.043-4.85 0-.11-.026-.154-.042-.154z"/><path fill="#f3ea32" d="M43.857 23.677l.226 6.553-.04.05-.133.003-.144-6.606h.09z"/><path d="M43.894 30.302v-.02l-.144-6.623h.107l.242 6.567-.06.024-.202-6.573.09 6.588h.078l-.112.037z"/><path d="M45.765 29.21c-.016-.667-.1-3.757-.133-5.28 0-.2-.125-.167-.123.01.01 1.225.082 4.653.1 5.274.047 0 .127-.008.156 0z" fill="#f3ea32"/><path d="M45.667 29.23l-.075-.016c-.016-.62-.088-4.05-.1-5.275a.212.212 0 0 1 .042-.148c.067-.02.115.02.115.14.023 1.164.08 3.24.11 4.456l.022.82-.114.022zm-.094-5.42a.144.144 0 0 0-.048.13c.014 1.222.086 4.637.1 5.27l.06-.017.04-.8c-.03-1.213-.087-3.292-.11-4.457 0-.088-.027-.12-.04-.12z"/><path d="M42.742 24.765l-1.93-.03c-.11.393.376.385.56.283.21.16.368.147.485.016a.36.36 0 0 0 .467.014c.232.176.472 0 .418-.283z" fill="#fff"/><path d="M41.65 25.154a.507.507 0 0 1-.29-.12.49.49 0 0 1-.537-.05.28.28 0 0 1-.03-.25l1.95.015a.314.314 0 0 1-.043.3.275.275 0 0 1-.387.015c-.05.085-.243.17-.466-.016a.222.222 0 0 1-.2.105zm-.286-.15c.224.145.363.153.48.02.258.162.39.09.466.013.168.085.283.083.363-.013a.31.31 0 0 0 .053-.256l-1.914-.014a.29.29 0 0 0 .04.21c.15.2.4.1.512.04z"/><path d="M42.89 25.738l-1.977-.008c-.338.328.1.488.48.26a1.444 1.444 0 0 0 .95.017c.205.094.445.123.546-.27z" fill="#fff"/><path d="M42.04 26.16a.306.306 0 0 1-.193-.067.4.4 0 0 1-.47-.094c-.19.16-.533.14-.592 0-.023-.054-.02-.145.115-.276h1.99c-.044.25-.156.366-.318.366a.6.6 0 0 1-.238-.062.387.387 0 0 1-.293.136zm-.19-.1a.383.383 0 0 0 .482-.07c.344.12.46.043.54-.26l-1.96.015c-.08.085-.12.17-.094.232.045.122.346.125.567-.006a.408.408 0 0 0 .464.09z"/><path d="M42.83 26.972l-1.9-.016c-.037.342.35.3.5.21a.394.394 0 0 0 .59.046.31.31 0 0 0 .442-.024c.21.182.386-.05.37-.216z" fill="#fff"/><path d="M41.727 27.34a.356.356 0 0 1-.312-.162.38.38 0 0 1-.448-.01.268.268 0 0 1-.056-.212h1.92a.266.266 0 0 1-.064.245.2.2 0 0 1-.152.076.246.246 0 0 1-.165-.072c-.062.128-.27.14-.44.024a.353.353 0 0 1-.283.114zm-.307-.186a.386.386 0 0 0 .307.152.4.4 0 0 0 .28-.107c.2.1.343.1.44-.022a.36.36 0 0 0 .167.06.174.174 0 0 0 .128-.063.284.284 0 0 0 .072-.2H40.93a.308.308 0 0 0 .06.168c.123.136.32.07.43.01z"/><path d="M42.923 28.207L40.8 28.17c-.117.362.208.43.362.34.05.21.334.14.406-.015a.21.21 0 0 0 .31-.022c.03.2.276.2.465.038.387.27.75-.042.58-.3z" fill="#fff"/><path d="M41.327 28.66a.18.18 0 0 1-.184-.147c-.043.1-.27.05-.34-.05a.32.32 0 0 1-.023-.3l2.143.023a.243.243 0 0 1 .027.277.344.344 0 0 1-.31.165.534.534 0 0 1-.308-.106c-.144.168-.44.147-.47-.048-.013.085-.2.14-.306.032a.232.232 0 0 1-.23.152zm-.174-.165a.184.184 0 0 0 .174.127.26.26 0 0 0 .224-.135c.163.082.264.034.315-.025.086.184.293.187.467.035a.64.64 0 0 0 .31.1.31.31 0 0 0 .28-.15.22.22 0 0 0-.012-.23l-2.11-.03a.323.323 0 0 0 .03.255.267.267 0 0 0 .323.054z"/><path d="M44.81 27.7l-1.77-.013c.08.363.254.456.54.245a.485.485 0 0 0 .645.03c.383.312.594-.05.586-.262z" fill="#fff"/><path d="M44.5 28.1a.47.47 0 0 1-.29-.125c-.062.133-.475.15-.648-.032-.224.22-.46.128-.544-.253l1.79-.006a.39.39 0 0 1-.1.326.277.277 0 0 1-.207.09zm-.293-.15a.588.588 0 0 0 .293.116.24.24 0 0 0 .18-.08.42.42 0 0 0 .12-.286h-1.754c.106.325.26.413.528.213a.543.543 0 0 0 .642.035z"/><path d="M44.63 26.484l-1.712-.05c.027.434.44.42.653.232a.348.348 0 0 0 .545 0c.216.218.573.088.515-.182z" fill="#fff"/><path d="M43.838 26.815a.354.354 0 0 1-.283-.138.393.393 0 0 1-.306.133c-.2 0-.334-.142-.35-.376l1.73.034a.215.215 0 0 1-.027.222.354.354 0 0 1-.5-.01.28.28 0 0 1-.264.135zm-.28-.162a.365.365 0 0 0 .54 0 .36.36 0 0 0 .478.013.215.215 0 0 0 .038-.178l-1.7-.037a.328.328 0 0 0 .333.323.468.468 0 0 0 .31-.122z"/><path d="M44.854 25.12h-1.842a.42.42 0 0 0 .74.19c.086.348.422.24.566.1.21.268.7-.036.536-.29z" fill="#fff"/><path d="M44.01 25.562a.283.283 0 0 1-.276-.248.418.418 0 0 1-.33.163.392.392 0 0 1-.404-.355l1.858-.018a.206.206 0 0 1 .02.237.408.408 0 0 1-.338.193.28.28 0 0 1-.23-.112.37.37 0 0 1-.295.142zm-.27-.267a.342.342 0 0 0 .567.1.34.34 0 0 0 .23.1.365.365 0 0 0 .306-.176.183.183 0 0 0 0-.193l-1.828.008a.4.4 0 0 0 .39.3.49.49 0 0 0 .337-.147z"/><path d="M44.744 24.192l-1.645.02a.28.28 0 0 0 .506.17.29.29 0 0 0 .437-.01c.13.2.288.068.34 0 .188.14.393.073.36-.18z" fill="#fff"/><path d="M43.385 24.512a.332.332 0 0 1-.24-.1.248.248 0 0 1-.064-.2l1.664-.035a.22.22 0 0 1-.032.226.18.18 0 0 1-.138.06.354.354 0 0 1-.2-.076.2.2 0 0 1-.344 0c-.024.136-.357.144-.434.008a.206.206 0 0 1-.208.123zm1.343-.317l-1.63.034a.338.338 0 0 0 .073.156.285.285 0 0 0 .423-.016.31.31 0 0 0 .434-.008c.163.153.28.083.34 0a.525.525 0 0 0 .207.064.145.145 0 0 0 .112-.047.22.22 0 0 0 .042-.185z"/><path d="M46.677 24.794l-2.018-.02a.226.226 0 0 0 .34.21c0 .2.283.266.464.106a.4.4 0 0 0 .632-.013c.3.248.616.072.58-.283z" fill="#fff"/><path d="M45.787 25.258a.414.414 0 0 1-.336-.157c-.11.166-.468.084-.466-.116-.026.1-.2.056-.274-.024a.258.258 0 0 1-.07-.19l2.037.008a.365.365 0 0 1-.072.334.375.375 0 0 1-.52-.022.306.306 0 0 1-.3.168zm-.334-.178a.422.422 0 0 0 .627-.01c.216.13.392.138.5.018a.385.385 0 0 0 .08-.29l-2-.01a.35.35 0 0 0 .075.148.21.21 0 0 0 .255.032c.05.248.323.234.464.112z"/><path d="M46.648 26.45l-1.976-.008a.32.32 0 0 0 .517.224.257.257 0 0 0 .434.13.39.39 0 0 0 .624 0 .3.3 0 0 0 .4-.34z" fill="#fff"/><path d="M45.944 26.967a.455.455 0 0 1-.333-.157.256.256 0 0 1-.44-.142c-.087.174-.5.078-.514-.226l1.992-.01a.33.33 0 0 1-.072.3.283.283 0 0 1-.216.1.365.365 0 0 1-.117-.022.338.338 0 0 1-.3.16zm-.333-.18a.41.41 0 0 0 .624-.007c.056.006.09.014.126.014a.26.26 0 0 0 .192-.088.325.325 0 0 0 .077-.253H44.67a.327.327 0 0 0 .507.2.272.272 0 0 0 .43.133z"/><path d="M46.544 27.937l-1.56-.024a.27.27 0 0 0 .472.168.337.337 0 0 0 .517.04.328.328 0 0 0 .57-.183z" fill="#fff"/><path d="M46.24 28.24a.428.428 0 0 1-.277-.108c-.088.15-.37.136-.52-.04a.274.274 0 0 1-.475-.18l1.576.007a.3.3 0 0 1-.3.32zm-.28-.132a.544.544 0 0 0 .28.1.288.288 0 0 0 .288-.272h-1.544c.03.264.344.26.46.14.185.16.393.172.516.036zM44.043 30.28a16.2 16.2 0 0 1-2.28-.07 2.54 2.54 0 0 1-1.163-.41c-.595-.358-.74-.446-1.58-.94-.132-.073-.27.02-.09.14.85.56 1.17.765 1.576 1.03a4.354 4.354 0 0 1 .95.812c.333.378.58.386.735.328a1.06 1.06 0 0 1 .63-.08 2.035 2.035 0 0 0 .725.034.9.9 0 0 0 .7.067 1.094 1.094 0 0 1 .48-.034 1.615 1.615 0 0 0 .485-.016 3.062 3.062 0 0 1 .754-.02 1.708 1.708 0 0 0 .683-.038 1.385 1.385 0 0 1 .573-.006.673.673 0 0 0 .253-.39c.17-.023.23-.047.267-.143.066-.18.133-.36.154-.44h.07l.02-.162-.14-.164.05-.312.152-.035a.7.7 0 0 0-.064-.3c-.914.037-1.812.066-2.452.08a.6.6 0 0 0-.168.3c-.392.066-.624.1-.725.117a.308.308 0 0 0-.24.138c-.13.173-.256.376-.355.507zM43.923 31.248a.594.594 0 0 1-.386-.106 1.88 1.88 0 0 1-.717-.032 1.126 1.126 0 0 0-.622.08c-.226.088-.485-.027-.754-.333a4.33 4.33 0 0 0-.946-.808l-1.576-1.033c-.1-.064-.1-.115-.09-.14l.005-.015.09-.04a.205.205 0 0 1 .1.027c.842.5.986.58 1.58.937a2.512 2.512 0 0 0 1.158.4 10.748 10.748 0 0 0 1.554.08h.72c.036-.06.09-.14.148-.227s.128-.187.194-.274a.314.314 0 0 1 .238-.142c.064-.016.152-.03.274-.048l.464-.072a.51.51 0 0 1 .16-.3c.65-.02 1.546-.048 2.46-.083a.59.59 0 0 1 .086.316l-.168.053-.037.3.137.148-.016.18a1.213 1.213 0 0 0-.225.442c-.04.106-.1.13-.28.152a.614.614 0 0 1-.245.39 1.647 1.647 0 0 0-.582.01 1.627 1.627 0 0 1-.687.034 2.963 2.963 0 0 0-.75.024 1.712 1.712 0 0 1-.492.013 1.12 1.12 0 0 0-.47.038 1.524 1.524 0 0 1-.327.035zm-.378-.136a.823.823 0 0 0 .7.067 1.147 1.147 0 0 1 .488-.038 1.7 1.7 0 0 0 .48-.014 2.97 2.97 0 0 1 .76-.02 1.72 1.72 0 0 0 .674-.038 1.535 1.535 0 0 1 .584-.008.694.694 0 0 0 .233-.38c.19-.033.232-.055.267-.143.066-.182.133-.358.154-.438l.09-.16-.138-.15.048-.327.166-.05a1.084 1.084 0 0 0-.078-.273c-.9.046-1.8.075-2.436.088a.673.673 0 0 0-.152.29l-.477.09c-.123.018-.208.03-.262.04a.316.316 0 0 0-.23.132l-.19.275c-.06.088-.113.17-.163.234a12.884 12.884 0 0 1-2.3-.065 2.51 2.51 0 0 1-1.167-.408c-.595-.355-.742-.443-1.584-.936h-.146c-.005.023.014.06.08.1l1.573 1.03a4.386 4.386 0 0 1 .955.816c.258.29.5.4.714.323a1.14 1.14 0 0 1 .642-.08 2.16 2.16 0 0 0 .718.033zM46.98 29.172c.044-.152.164-.568.38-1.352.034-.13-.09-.18-.14-.013-.255.914-.35 1.258-.383 1.37h.144zM46.98 29.19l-.138-.013.067-.02.07.015.012-.1c.056-.2.168-.6.35-1.26l.007-.094-.04-.006c-.02 0-.054.027-.073.1l-.4 1.362h-.02l.388-1.373c.018-.073.06-.12.1-.12.074.057.08.1.067.145-.182.662-.294 1.06-.352 1.26l-.043.105z"/><path d="M48.4 27.64c-.31.16-.458.22-.6.167a.61.61 0 0 0-.432-.024.16.16 0 0 1-.006.037c-.133.483-.23.824-.293 1.053a.96.96 0 0 0 .714-.008c.093-.1.35-.08.48-.072a.4.4 0 0 0 .1-.31.482.482 0 0 1 .018-.27 1.223 1.223 0 0 0 .02-.574z" fill="#fff"/><path d="M42.85 30.29l.028-.092h-.232l.027.075-.056-.075-.035.08.032-.08h-.144l.022.07-.024-.07h-.088l-.035.072.035-.072h-.01l.012-.008h-.058l.018.064-.018-.064-.155.01.01.044-.01-.043h-.022l-.22-1-.16-.66.03-.008.05.083-.034-.1.035-.01.028.11h.06l-.01-.02.036-.014.01.036h.088l-.085.013.023.08h.067l-.027-.074.032-.014.46 1.26.906-1.882.032.013-.04.08h.027l.05-.126.032.014-.043.1.037-.005.043-.136.034.013-.04.117.036-.008.02-.08.033.008-.593 2.3.232-.96h-.14l-.044.14.133-.007v.037h-.143l-.04.12.155-.008v.032h-.162l-.05.157.153-.007v.032H43l-.045.14.175-.007v.035h-.184l-.058.18.19-.007v.034h-.2l-.03.093zm-.385-.105v.008l.162-.035-.066-.168-.082.01.08-.006v.035h-.093l-.03.055.027.088h.16l-.157.01zm-.8 0h-.032v-.11h-.163l-.008.078.005-.077-.168.037.005-.037h-.192.053l.024-.146h-.147l-.024.093.02-.093.033-.152.032-.147.032-.148.184-.845.035.008-.005.024.072-.054.035.005-.008.038h.036l.013-.09.034.005-.013.082.067-.008.01-.112h.036l-.01.107H41.648l-.015.1h.014l-.012.122h.01l.017 1.33zm-1.144-.442c.014-.112.03-.237.05-.376a3.707 3.707 0 0 1-.268.26c.078-.095.174-.2.275-.313.037-.288.088-.62.136-.957-.405.39-.776.722-1.018.91l-.022-.028a13.85 13.85 0 0 0 1.048-.94c.076-.5.147-.99.193-1.346h.034c-.042.35-.114.826-.19 1.31a20.16 20.16 0 0 0 1.4-1.5 1.422 1.422 0 0 1-.375-.267l.03-.02a1.51 1.51 0 0 0 .368.262 4.66 4.66 0 0 0 .693-1.02 4.166 4.166 0 0 1-.672 1.03 1.37 1.37 0 0 0 .513.2 1.218 1.218 0 0 1-.533-.168 19.953 19.953 0 0 1-1.432 1.538c-.053.338-.106.677-.154.973.08-.09.168-.184.25-.275.14-.152.275-.3.39-.41l.023.024c-.114.112-.248.258-.386.408-.1.1-.19.21-.287.31-.02.143-.045.276-.064.39zm4.312-.133l.016-.054-.062-.128h.014l-.075-.184h.01l-.068-.186h.008l-.067-.184-.064-.187-.218-.642.034-.01.03.1.048-.006-.02-.047.033-.013.022.053h.048l-.016-.03.032-.015.02.042.07-.01-.026-.046.03.046h.024l-.006.035.09.152h.022v.032l.09.15h.016v.02l.093.16h.01v.02l.094.153.208-.674.125.007.02-.072.033.008-.02.064.073-.02v.02h.07l-.073.01-.035.17h.1l.027-.15.034.007-.242 1.163.024.042-.037.023-.02.1.018-.1h-.128l-.016.067.018.037-.018-.034-.01.048-.033-.007.02-.088-.008-.02-.144.012-.02.058.028.062-.027-.06-.022.078.02-.08-.023-.056-.128.01-.032.1.01.037-.012-.034-.016.05zm.488-.366l.066.112.152-.834-.107.01-.03.168h.1l-.11.01-.034.172h.11l-.112.008-.037.17h.11l-.11.008-.027.13.024.04h.077-.073zm.54-.024c.065-.048.13-.1.193-.146l-.038-.1h.01l-.047-.144h.008l-.043-.144-.13-.47.034-.01.01.043.07-.01-.024-.07.032-.01.027.08.074-.01-.024-.063.024-.008c-.176-.167-.35-.348-.517-.537a.875.875 0 0 1-.462.31l-.008-.036a.974.974 0 0 0 .458-.285 25.533 25.533 0 0 1-1.978-2.655l-.024-.03a1.747 1.747 0 0 1-.447.21l-.01-.033a2.057 2.057 0 0 0 .44-.2l-.317-.467.03-.018.32.465a1.33 1.33 0 0 0 .253-.2.96.96 0 0 1-.24.218l.02.032a27.035 27.035 0 0 0 1.97 2.653.28.28 0 0 0 .03-.05.383.383 0 0 1-.024.058c.2.22.395.432.595.62h.064l.04.1c.116.1.23.2.345.29a4.936 4.936 0 0 0 .44-.484c-.016-.03-.032-.056-.048-.082a7.21 7.21 0 0 1-1.784-1.8 1.788 1.788 0 0 1-.426.214l-.01-.032a2.176 2.176 0 0 0 .42-.208 6.865 6.865 0 0 1-.466-.74l.03-.02a8.186 8.186 0 0 0 .467.744 1.6 1.6 0 0 0 .33-.28 1.146 1.146 0 0 1-.315.3 7.7 7.7 0 0 0 1.75 1.8 12.294 12.294 0 0 1-.9-2.55l-.084-.294.117.285a11.65 11.65 0 0 0 .928 2.6.076.076 0 0 1 .016.01c.044-.056.087-.115.13-.173l.026.02c-.04.06-.082.116-.128.172l.06.036c-.022-.01-.04-.024-.06-.035l-.016.02c.02.032.04.064.06.1l-.03.02-.054-.087a4.964 4.964 0 0 1-.432.475c.11.082.22.16.33.23a3.477 3.477 0 0 1-.338-.225c-.058.06-.12.115-.184.17l.14.382-.15-.373h-.006l-.016.013c-.024.022-.05.043-.077.064l.02.055.127-.01v.034h-.112l.04.122.13-.01v.034h-.122l.024.067-.026-.067h-.136l.024.072-.027-.072h-.17l.018.077-.04-.077h.016l-.007-.032c-.064.048-.128.094-.194.136zm.385-.874l.157.43c.058-.054.114-.11.17-.163-.11-.083-.218-.17-.327-.267zm1.234.605a1.287 1.287 0 0 1-.417-.063l.28-1.074a.485.485 0 0 1 .464-.024c.13.05.28-.012.584-.166l.02-.01.004.02a1.228 1.228 0 0 1-.02.58.485.485 0 0 0-.02.263.417.417 0 0 1-.095.325c-.167 0-.4-.016-.484.074a.5.5 0 0 1-.317.075zm.044-1.183a.315.315 0 0 0-.15.03L47.1 28.83a.81.81 0 0 0 .67.024c.1-.1.335-.088.473-.08a.345.345 0 0 0 .1-.282.48.48 0 0 1 .018-.285 1.2 1.2 0 0 0 .025-.54c-.3.153-.445.212-.592.156a.754.754 0 0 0-.27-.054zm-8.376 1.176a15.437 15.437 0 0 0 1.925-3.24c-.043.02-.083.033-.115.044.035-.02.077-.04.125-.07.118-.253.21-.482.275-.666l.032.012c-.06.175-.147.39-.253.63a4.557 4.557 0 0 0 .5-.33l.02.027a3.087 3.087 0 0 1-.537.333 14.163 14.163 0 0 1-1.973 3.26zm1.92-.754l-.014-.036a3.385 3.385 0 0 0 .762-.4l-.016-.01.022-.027.024.015a3.287 3.287 0 0 0 .632-.538 2.886 2.886 0 0 1-.6.557 2.45 2.45 0 0 0 .85.43 1.86 1.86 0 0 1-.883-.408 3.4 3.4 0 0 1-.773.414zm5.25-.276a1.482 1.482 0 0 1-.612-.46l.027-.02a1.894 1.894 0 0 0 .586.48zm-3.2-.216a3.065 3.065 0 0 0 .694-.562l.032-.006-.008.03a2.086 2.086 0 0 1-.717.538zm1.6-.02a1.658 1.658 0 0 1-.75-.5l.026-.025a1.85 1.85 0 0 0 .725.523zM41 26.974l-.013-.032a2.08 2.08 0 0 0 .645-.43 1.636 1.636 0 0 1-.632.462zm3.55-.51a1.1 1.1 0 0 1-.47-.306c-.054-.05-.107-.1-.158-.14l.024-.026c.05.043.1.09.158.14a1.674 1.674 0 0 0 .445.332zm-1.534-.01a3.165 3.165 0 0 0 .79-.506l.02.025a2.42 2.42 0 0 1-.81.48zm3.188-.024a1.228 1.228 0 0 1-.54-.473l.03-.016a1.558 1.558 0 0 0 .51.49zm-3.593-.708a1.783 1.783 0 0 1-.836-.362l.02-.03a1.994 1.994 0 0 0 .87.39.3.3 0 0 1-.053 0zm2.045-.618a1.45 1.45 0 0 1-.78-.43l.026-.02a1.81 1.81 0 0 0 .755.45zm.232-.31a1.537 1.537 0 0 0 .613-.394l.024.024a1.21 1.21 0 0 1-.637.37zm1.2-.024c-.147 0-.368-.218-.456-.36l.03-.018a.97.97 0 0 0 .437.378zm-5.1-.016a2.5 2.5 0 0 0 .648-.562l.027.02a1.8 1.8 0 0 1-.675.542zm1.485-.01a1.13 1.13 0 0 1-.706-.488l.03-.02a1.33 1.33 0 0 0 .676.508zm.632-.515l-.008-.033a1.157 1.157 0 0 0 .664-.384 1.006 1.006 0 0 1-.656.416zm1.5-.054a1.5 1.5 0 0 1-.76-.4l.024-.027a1.83 1.83 0 0 0 .754.426z"/><path d="M41.56 30.8a.81.81 0 0 1 .806.03.863.863 0 0 1 .85.08.666.666 0 0 1 .84-.035.748.748 0 0 1 .843.013c.258-.123.55-.224.8.043a.67.67 0 0 0-.8.05.63.63 0 0 0-.843.017.55.55 0 0 0-.827.014.732.732 0 0 0-.864-.058.92.92 0 0 0-.807-.152z" fill="#4eb648"/><path d="M45.528 30.483a16.847 16.847 0 0 1-4.223-.08c-.186-.045-.136-.114.022-.08a13.342 13.342 0 0 0 2.74.11c.147-.192.373-.518.443-.608s.1-.1.242-.126c.26-.043.406-.067.63-.1v.088c-.02.013-.038.037-.052.045a4.53 4.53 0 0 0 .06.642.474.474 0 0 0 .082-.018c.053-.014.1.117.053.13zM47.418 30.54h.15a.172.172 0 0 0 .143-.108c.03-.072.12-.34.153-.453l-.117-.177c.027-.144.06-.34.06-.38l.15-.055a.23.23 0 0 0-.034-.15c-.5.02-1.986.07-2.258.076-.064 0-.1-.006-.12.09a1.677 1.677 0 0 0 .573 1.653c.037.03.083 0 .022-.05a1.825 1.825 0 0 1-.313-.406h.37a3.757 3.757 0 0 0 .14.422c.02.043.063.05.04-.013-.047-.156-.073-.33-.1-.412.1 0 .273 0 .382-.008 0 .14.02.323.023.376s.048.053.048 0v-.376c.123 0 .28-.008.34-.008-.01.077-.025.333-.033.373-.005.06.024.085.04 0s.043-.277.05-.38c.05 0 .18 0 .235-.007a2.86 2.86 0 0 1-.1.376c-.02.06.014.064.037.005a2.343 2.343 0 0 0 .114-.382z" fill="#c16228"/><path d="M45.768 30.48a1.8 1.8 0 0 1-.173-.57l.5-.01c.018.157.066.493.09.573-.147 0-.33.008-.413.008zM46.176 29.9c.016.118.077.528.088.574.106-.006.357-.006.4-.01 0-.11-.022-.518-.022-.577l-.466.013zM45.616 29.393a2.327 2.327 0 0 0-.02.42c.127 0 .44 0 .484-.007-.01-.107-.027-.3-.04-.426-.1.005-.357.01-.424.013zM46.133 29.38c0 .1.027.35.035.426.11 0 .376-.01.47-.013-.006-.094-.022-.392-.022-.43l-.483.017zM46.712 29.36c0 .1.013.364.01.43.118 0 .342 0 .408-.01.006-.094.022-.366.014-.435l-.432.016zM47.223 29.342c0 .08-.01.363-.013.438.117 0 .376-.014.445-.016.02-.09.054-.336.067-.438-.11 0-.42.016-.5.016zM47.674 29.857l-.47.016c-.012.184-.034.5-.044.573l.453-.013a4.46 4.46 0 0 0 .16-.443c-.032-.05-.06-.08-.1-.133zM46.725 29.886c0 .064.013.53.013.57.086 0 .307-.005.342-.007.016-.183.04-.532.045-.577-.152 0-.3.01-.4.013zM44.8 29.774l-.19.032c-.087.14-.41.576-.45.627.227-.006.58-.014.662-.022-.006-.116-.02-.58-.022-.636zM44.886 29.758c0 .147.016.544.02.65l.4-.026c-.018-.187-.052-.634-.06-.69l-.36.066zM42.937 28.188c.024 0 .026.02 0 .02l-2.143-.025c-.03 0-.024-.022 0-.022zM42.934 28.228L40.79 28.2l1.073-.013 1.07.02v.02zm0-.037l-1.042-.005 1.045-.013v.02zM44.622 26.474c.024 0 .026.02 0 .02l-1.7-.047c-.03 0-.024-.02 0-.02zM44.622 26.514l-1.7-.048.87-.006.83.017v.037zm0-.037l-.822-.017.82-.005v.022zM42.827 26.962c.027 0 .03.02 0 .02l-1.9-.012c-.03 0-.024-.022 0-.022zM42.827 27l-1.9-.016.95-.02.95.017V27zm0-.035h-.933l.933-.02v.02zM42.886 25.727c.024 0 .027.022 0 .022l-1.986-.012c-.033 0-.027-.02 0-.02zM42.886 25.767l-1.988-.01 1.988-.024v.034zm-.975-.034l.976-.022v.023zM42.748 24.754c.024 0 .03.024 0 .022l-1.933-.03c-.03 0-.027-.02 0-.02zM42.75 24.794l-1.935-.03.965-.012.968.024v-.008.026zm0-.037l-.952-.005.952-.014v.02z"/><path d="M44.747 24.184c.027 0 .03.02 0 .02l-1.658.017c-.03 0-.025-.02 0-.02z" fill="#fff"/><path d="M43.086 24.24l-.035-.03 1.697-.042-.618.027.617-.006-1.66.05zM44.848 25.112c.027 0 .03.02 0 .02h-1.83c-.03 0-.028-.02 0-.02zM44.848 25.15h-1.83l1.83-.033v.032zM46.648 26.434c.026 0 .03.02 0 .02h-1.976c-.026 0-.024-.02 0-.02zM46.648 26.47h-1.976l1.976-.03v.03zm-.968-.026l.968-.03v.023l-.968.007zM46.677 24.78c.024 0 .03.022 0 .022l-2.015-.018c-.03 0-.024-.022 0-.022zM46.674 24.82l-2.015-.02.985-.016 1.03.018v.02zm0-.036h-1.008l1.008-.016v.02zM44.81 27.684c.025 0 .03.02 0 .02l-1.774-.01c-.027 0-.024-.023 0-.023zM44.81 27.724l-1.774-.013 1.775-.02v.015-.01.03zM46.544 27.924c.026 0 .032.024 0 .024l-1.56-.02c-.026 0-.024-.023 0-.023zM46.544 27.964l-1.56-.02.78-.02.78.024v.016zm0-.037h-.76l.76-.016v.02z"/><path d="M47.954 28.223a.844.844 0 0 0 .024-.406.314.314 0 0 1-.18-.01l-.095-.032a1.993 1.993 0 0 1-.1.51.79.79 0 0 1-.365-.036c-.027.1-.05.183-.075.263a.95.95 0 0 0 .408 0 .716.716 0 0 1-.122.426.5.5 0 0 0 .33-.073l.014-.013a.98.98 0 0 0 .088-.365.2.2 0 0 0 .144-.04.157.157 0 0 1 .125-.04.457.457 0 0 0 .194-.04.46.46 0 0 1 .03-.156.892.892 0 0 0 .026-.123 1.427 1.427 0 0 1-.448.135z" fill="#d91e39"/><path d="M47.477 28.953h-.027a1 1 0 0 0 .1-.442.554.554 0 0 1-.392.02l.05-.25h.02l-.048.238h.178a1.01 1.01 0 0 0 .2-.02.64.64 0 0 1-.082.422.436.436 0 0 0 .282-.064.654.654 0 0 0 .088-.293l.043-.09a.17.17 0 0 0 .114-.035.2.2 0 0 1 .138-.045.453.453 0 0 0 .187-.038.24.24 0 0 1 .02-.146.98.98 0 0 0 .027-.12.942.942 0 0 1-.427.153 1.72 1.72 0 0 0 .016-.328.474.474 0 0 1-.005.318 3.6 3.6 0 0 0 .427-.158.25.25 0 0 1-.005.144.472.472 0 0 0-.03.15.447.447 0 0 1-.2.057.172.172 0 0 0-.12.035.2.2 0 0 1-.14.045.934.934 0 0 1-.088.355.487.487 0 0 1-.333.093zm.042-.64a.98.98 0 0 1-.264-.04 2.272 2.272 0 0 1 .263.006.884.884 0 0 0 .165-.5.236.236 0 0 1 .12.015.307.307 0 0 0 .1.016.11.11 0 0 1 .024.025.278.278 0 0 1-.135-.008.843.843 0 0 0-.093-.03 1.345 1.345 0 0 1-.077.5l-.006.01-.1.01zM41.028 18.77a3.364 3.364 0 0 0-.8.066c-.1.056-.147.08.032.115a2.115 2.115 0 0 1 .64.217.5.5 0 0 1 .253.533A1.672 1.672 0 0 0 42 21.48c.056.027.07.05.056.153a1.107 1.107 0 0 1-.082.322c-.032.046-.045.115.053.083-.07.128-.224.386-.272.453-.46-.055-.842.01-.874.494 0 .048.014.123.083 0a.477.477 0 0 1 .355-.267.674.674 0 0 0-.136.446c.02.106.048.167.1.034a.79.79 0 0 1 .242-.33c.038-.03.064-.035.035.048a.422.422 0 0 0 .068.32c.056.058.086.034.07-.065s.008-.3.13-.367a.27.27 0 0 1 .39.077c.07.12.13.005.055-.13s-.154-.23-.282-.24c.11-.195.24-.432.27-.48s.072-.07.11-.04.063.024.1-.054a1.576 1.576 0 0 1 .2-.408.52.52 0 0 0 .15-.056c.124.18.235.38.265.422s.06.064.032.154-.128.384-.144.448c-.344.01-.5.02-.613.21-.046.083.03.115.112.073a.52.52 0 0 1 .258-.073c.06.008.088.04.03.07-.214.1-.344.236-.336.417 0 .067.032.1.082.01a.59.59 0 0 1 .366-.287c-.008.155.024.38.12.43s.1 0 .066-.09a.37.37 0 0 1 .072-.372c.15-.162.485.064.55.123s.122.077.085-.07c-.046-.2-.326-.306-.563-.338a9.522 9.522 0 0 1 .34-1.186c.137.077.247-.123.478-.038a5.743 5.743 0 0 1 1.078.595c.1.084.14.065.19.02s.14 0 .21.013.13.032.042-.147a2 2 0 0 0-.66-.725c.212.02.5.02.5-.036s-.337-.165-.473-.18a.915.915 0 0 0 .426-.212c.06-.064-.01-.077-.207-.083a2.414 2.414 0 0 1-1.224-.19c-.5-.29-.792-.6-1.04-.725a.674.674 0 0 1-.264-.37c-.165-.44-.157-.64-.54-.787a1.09 1.09 0 0 0-1.03.22z"/><path d="M41.052 18.868a3.62 3.62 0 0 0-.45-.01c-.035 0-.08.02.007.032a2.93 2.93 0 0 1 .405.1c.082.03.048.072-.024.053s-.1.01-.04.05c.31.22.342.3.262 1.05a1.222 1.222 0 0 0 .157.095c.047.026.034.06-.02.048s-.106.018-.018.034.125.06.043.056-.182.07-.016.05.225.06.033.062-.12.067-.018.067c.18 0 .128.05.08.05s-.07.062.053.05a1.106 1.106 0 0 1 .208-.007c.042.008.064.043 0 .048s-.064.05.035.05.142.03.05.05c-.033 0-.084.023.02.036.18.027.19.07.13.078s-.066.04.02.047.154.033.087.05-.106.06-.018.065.16.04.092.062-.077.063.005.058.115.045.06.077-.1.053-.137 0-.06-.078-.07-.036-.034.016-.063-.05-.08-.083-.067-.033-.05.06-.112.033a.917.917 0 0 0 1.1.224c.048-.016.056 0 .094.078s.138.242.173.3.064.008.082-.054c.072-.24.128-.417.15-.48s.122-.132.09.1a1.04 1.04 0 0 1 .707-.006 3.41 3.41 0 0 1 .76.405.172.172 0 0 0 .138.037c.072-.006.09-.016-.048-.144s-.08-.19.008-.128.134.026.067-.05a2.385 2.385 0 0 0-.27-.265.225.225 0 0 0-.173-.056c-.115-.008-.363-.008-.435-.008s-.1.008.064.064a3.524 3.524 0 0 1 .56.32c.072.05.123.168-.035.064a6.165 6.165 0 0 0-1-.528c-.758.05-1.36.152-1.81-.34a.7.7 0 0 1 .137-1c-.075-.062-.06-.1-.035-.113s.04-.03.014-.066-.027-.067 0-.083c-.08-.043-.117-.093-.112-.15-.1-.02-.14-.135-.275-.1a.235.235 0 0 1-.235-.023.16.16 0 0 0-.144-.04c-.074.007-.133-.023-.135-.057s.06-.054.16-.01c.208.09.373.132.5-.038s-.037-.33-.28-.376a.6.6 0 0 0-.512.212z" fill="#fff"/><path d="M43.145 21.83l-.045-.03c-.077-.128-.146-.245-.176-.306l-.047-.09-.022.023a.944.944 0 0 1-1.122-.23l.12-.023h.1l.16.128.07-.048h-.012l-.108-.074.08-.067a.65.65 0 0 0-.107-.02V21.055c.054.006.13.02.134.057l-.08.064c.116 0 .135.016.143.045-.07.08-.1.1-.126.1l-.2-.13-.006.005-.09.018a.875.875 0 0 0 1.03.176c.08 0 .082.025.112.08s.1.185.146.263l.046.085.034-.088c.072-.237.128-.42.15-.483l.005-.013.072-.06c.056.04.06.095.048.18.045-.088.35-.152.7-.024a3.41 3.41 0 0 1 .762.405.14.14 0 0 0 .1.038c.062-.014.048-.038-.034-.115-.07-.06-.1-.12-.085-.155h.115a.676.676 0 0 0-.224-.282.23.23 0 0 0-.165-.055c-.114-.008-.362-.008-.434-.008a3.927 3.927 0 0 1 .635.354c.038.028.086.084.075.12a.13.13 0 0 1-.13-.025 5.12 5.12 0 0 0-.992-.528l-.208.016c-.2.016-.387.03-.565.03a1.307 1.307 0 0 1-1.048-.393.713.713 0 0 1-.146-.56.628.628 0 0 1 .29-.466.073.073 0 0 1-.064-.072h-.005l.02-.147a.24.24 0 0 1-.095-.173c-.026.008-.06-.014-.088-.038a.2.2 0 0 0-.12-.053c-.23.05-.232.03-.293-.02a.17.17 0 0 0-.116-.038c-.115 0-.166-.032-.168-.074.1-.054.14-.046.18-.027.185.08.37.12.48-.03a.153.153 0 0 0 .033-.16.384.384 0 0 0-.3-.19.78.78 0 0 0-.484.2l-.117.01c-.095-.004-.217-.012-.332-.007.1-.128.237-.032.333-.024.175-.078.327-.22.524-.22.245.04.37.12.408.22a.19.19 0 0 1-.035.193c-.122.166-.328.128-.522.043a.255.255 0 0 0-.094-.024c-.044.043.02.06.076.06a.205.205 0 0 1 .157.044.24.24 0 0 0 .22.02.292.292 0 0 1 .2.052.193.193 0 0 0 .086.05.2.2 0 0 0 .117.153l.042.158-.02.133a.6.6 0 0 0-.274.444.676.676 0 0 0 .14.533 1.285 1.285 0 0 0 1.014.367c.176 0 .365-.014.562-.03l.216-.013a4.9 4.9 0 0 1 1 .53c.083.033.054-.01.016-.033a3.5 3.5 0 0 0-.554-.32c-.123-.043-.136-.056-.13-.075a2.778 2.778 0 0 1 .508-.016.25.25 0 0 1 .168.05 2.284 2.284 0 0 1 .288.275v.113l-.136-.056c-.016.02 0 .062.067.12.09.086.114.118.1.147l-.093.032a.2.2 0 0 1-.125-.045 3.3 3.3 0 0 0-.755-.4.86.86 0 0 0-.69 0 .406.406 0 0 0-.032-.15 2.162 2.162 0 0 0-.2.527c-.02.064-.043.093-.07.093zm-1.36-1.02l-.136-.092.09-.048a1.085 1.085 0 0 0-.232 0h-.02l-.09-.045.083-.048a.308.308 0 0 0-.105-.01c-.05 0-.118-.017-.12-.054s.045-.046.138-.046c.072 0 .1-.013.1-.018l-.088-.03-.048.02-.107-.03c0-.033.07-.057.115-.057l-.1-.062h.048l-.013.01c.053 0 .14.024.14.064l-.153.05.12-.01c.056 0 .122.014.122.048s-.046.048-.137.05-.1.017-.1.017c.136.012.23.007.23.058l-.083.05h.23l.106.048-.088.042c.107.008.18.014.18.048l-.08.043zm-.437-.558c-.05-.032-.093-.062-.147-.1.073-.765.04-.837-.26-1.048l.03-.04c.314.243.335.352.258 1.077.05.022.1.052.15.076l-.03.032z"/><path d="M42.27 18.807a.747.747 0 0 0-.27-.173c-.067-.024-.075.042-.037.074-.03.043-.04.15.01.18s.053.068 0 .092c-.072.037-.046.23.064.176.034-.02.064-.013.058.016a.06.06 0 0 0 .04.075c.032.008.027.053.02.072s.005.025.04.028.042.09-.025.12c.08 0 .1-.016.123.05s.11.078.11.16-.017.094-.11.08-.13.014-.158.05-.037.073.035.076.088.037.016.07-.2.01-.213.08 0 .1.056.074.164-.07.21-.1a.076.076 0 0 1 .12.03c.034.058.007.122-.057.07s-.09 0-.125.025a.246.246 0 0 1-.15.048c-.058 0-.1.01-.09.14.022.392.325.682.885.674s.835-.013.917 0a.825.825 0 0 0-.365-.15c-.067.01-.12.02-.09-.03s0-.05-.033-.075-.066-.052-.125.01a.6.6 0 0 1-.264.146c-.07.016-.152.01-.088-.053s.21-.088.254-.118.044-.048.044-.07-.01-.082.072-.036a2.066 2.066 0 0 0 .5.233c.07 0 .115-.032.054-.074s-.08-.1-.062-.12.03-.044.136.017.288.144.355.17.15.02.015-.08-.552-.372-.667-.458-.066.015-.053.05-.08.072-.128.032-.08-.083-.016-.12.08-.04-.018-.128-.125-.08-.1-.008.03.152-.072.115-.15-.087-.088-.127.15-.062.04-.152-.074 0-.1.052-.11.05-.154.01-.07-.08-.038-.112.03-.05.077-.026.118.01.033-.065-.12-.046-.1 0-.05.12-.158.018c-.05-.048-.05-.114 0-.125s.06-.037.02-.093c-.22-.323-.13-.584-.35-.824z" fill="#fff"/><path d="M42.81 21.014c-.52 0-.857-.264-.883-.69a.18.18 0 0 1 .026-.13.506.506 0 0 0 .22-.07l.087-.05.09.04-.05-.1c-.08.033-.155.065-.21.092l-.12.013c.01-.145.068-.153.127-.16l.125-.05-.117-.04c.048-.1.08-.132.15-.132l.1.008-.01-.15-.12-.124c.06-.016.08-.006.1.042.076.083.108.11.108.166s0 .1-.075.1l-.1-.008a.11.11 0 0 0-.1.048l.1.088a.273.273 0 0 1-.155.085c-.058.008-.1.016-.1.046a.412.412 0 0 0 .24-.044c.094-.02.12 0 .142.034l-.03.118-.09-.04a.362.362 0 0 1-.224.1.1.1 0 0 0-.074.117c.024.408.35.66.848.66V21l.02-.016.742-.01h.18a1.97 1.97 0 0 0-.358-.115l-.123-.01-.01-.113-.01.016-.116-.006.012.014a.653.653 0 0 1-.274.15l-.128-.02a.342.342 0 0 1 .208-.153l.208-.134a1.922 1.922 0 0 0 .485.23.3.3 0 0 0-.026-.14c.086-.076.12-.063.17-.03.107.058.286.138.35.167a1.184 1.184 0 0 0-.32-.27c-.14-.1-.285-.2-.346-.24l-.12.1c-.09-.044-.123-.076-.12-.11l.09-.086a.714.714 0 0 0-.15-.128c.03-.03.057-.01.108.034s.08.072.077.1l-.09.083.085.074.05-.12.09.024c.062.05.2.145.345.24s.258.177.322.223.086.077.078.1l-.112.008c-.066-.026-.242-.108-.354-.17a.205.205 0 0 0-.093-.037l.037.11-.064.1a1.942 1.942 0 0 1-.506-.235c-.046.05-.05.074-.1.106a.784.784 0 0 0-.25.112.48.48 0 0 0 .325-.114l.146-.016.012.01.03.088a.975.975 0 0 1 .45.157.328.328 0 0 1-.187.028l-.762.008zm.273-.746c-.08-.032-.122-.067-.125-.1l.14-.117-.065-.063-.006.008-.16.085a.132.132 0 0 1-.09-.032l-.06-.087.076-.093-.1.05a.17.17 0 0 1-.112-.052.13.13 0 0 1-.04-.11l.07-.05-.01.04c.045.13.077.138.093.138l.045-.1a.124.124 0 0 1 .128.034v.11l-.106.012.024.1.08.01.074-.02-.005-.052.117-.013c.043.034.062.064.062.09v.01l-.075.065c-.045.056-.016.082.06.112l.065-.1h-.016a.277.277 0 0 1 .027-.04c.027.094.027.134.008.155l-.1.01zm-.463-.59a1.522 1.522 0 0 1-.187-.474.758.758 0 0 0-.176-.384.747.747 0 0 0-.257-.17.4.4 0 0 0-.037.184l.072.106c-.072.07-.082.12-.072.157l.162.123.05.1c.052.064.06.1.04.133l-.132-.288c-.117.014-.147-.016-.157-.06a.134.134 0 0 1 .045-.145l-.044-.122a.213.213 0 0 1 .026-.144l.053-.083a.845.845 0 0 1 .275.18.825.825 0 0 1 .184.4 1.162 1.162 0 0 0 .168.424l-.016.06z"/><path d="M42.308 18.85c-.02.03-.024.03-.062.05s-.053.112.02.1a.142.142 0 0 0 .1-.058.548.548 0 0 0-.06-.093zM42.08 18.668c-.055.054-.063.078-.036.078s.018.005-.006.045.05.057.078.03.034-.04.05 0 .06 0 .088-.03a.718.718 0 0 0-.173-.122zM41.98 18.98c-.072.037-.046.23.064.176.034-.02.064-.013.058.016a.06.06 0 0 0 .006.048.354.354 0 0 0 .12-.088c.07-.075 0-.072-.1-.072s-.134-.02-.035-.077.032-.088-.09-.072c.018.027.01.054-.027.07zM42.4 19.41c-.056-.06-.02-.09.038-.118a.052.052 0 0 0 .03-.024 1.832 1.832 0 0 0-.046-.187c-.032.01-.064.076-.078.11s-.026.078-.077.065-.085.034-.093.088h.03c.02 0 .03.03.023.06.13-.007.155.084.176.145s.053.06.075.022-.024-.107-.078-.166z" fill="#c16228"/><path d="M42.436 20.17c-.024.052-.024.047-.1.052a.393.393 0 0 0-.218.062c-.022.026-.155.032-.155.09s0 .11.056.112.066.01.044.056-.037.115.064.123.174-.024.2.032 0 .152.016.187.09.055.2.088a1.817 1.817 0 0 0 .42.023c.08-.007.052-.058-.03-.063s-.142-.02-.16-.08-.038-.094.007-.144.092-.088.065-.174-.07-.184-.165-.21-.067-.16-.163-.174c-.035 0-.067 0-.077.02z" fill="#f3ea32"/><path d="M41.967 20.955c.085.01.154.033.087.05s-.106.06-.018.065.16.04.093.062-.078.063.004.058.115.045.06.077-.1.054-.137 0-.06-.077-.07-.035-.034.016-.063-.05-.08-.083-.067-.033-.05.058-.112.03a1.36 1.36 0 0 0 .208.175.494.494 0 0 1 .22 0 .773.773 0 0 1 .212.06c.06.036.1-.023.075-.09s-.027-.042-.062-.007-.04-.014-.037-.09-.036-.046-.052-.006-.048-.027-.03-.067 0-.053-.034-.042-.038 0-.043-.073-.033-.06-.047-.03-.037-.015-.083-.07-.08-.022-.154.007a.1.1 0 0 0 .05.013z" fill="#c16228"/><path d="M42.846 21.4a.9.9 0 0 1-.895-.05.475.475 0 0 1 .224 0 .773.773 0 0 1 .21.06c.062.036.1-.023.076-.09.056.07.1.118.16.113a1.156 1.156 0 0 0 .226-.03zM42 19.577c-.02-.08-.045-.1-.09-.1a.186.186 0 0 1-.11-.024c-.05-.018-.11.006-.122.09a.244.244 0 0 1-.136.185.215.215 0 0 0-.115.187.24.24 0 0 1-.066.173c-.023.026-.053.058-.082.093a.856.856 0 0 0 .093.052c.05.026.036.06-.017.048s-.107.018-.02.034.126.06.044.056-.182.07-.016.05.227.06.035.062-.12.067-.018.067c.18 0 .128.05.08.05s-.07.06.053.05a.186.186 0 0 0 .04-.067c.018-.06.04-.227.106-.275a.23.23 0 0 0 .1-.165.746.746 0 0 1 .17-.315.248.248 0 0 0 .074-.25z" fill="#f3ea32"/><path d="M41.86 19.583c-.07-.046-.136-.02-.136.07s-.043.108-.1.138a.24.24 0 0 0-.12.17c-.008.068.01.113-.04.164s-.054.1-.02.128a.12.12 0 0 1 .052.077c.013.042.1 0 .1-.054s.018-.048.072-.078.14-.17.12-.208-.07-.07 0-.127.127-.057.127-.11a.11.11 0 0 1 .04-.093c.02-.02-.046-.048-.088-.077z" fill="#c16228"/><path d="M41.86 19.51c-.046-.015-.072.078-.01.094s.074-.07.01-.093zM41.847 19.633c-.05.006-.1.07-.022.06s.112-.07.022-.06zM41.753 19.753c-.05.024-.04.09.032.046s.09-.108-.032-.047zM41.676 19.855c-.05.024-.04.09.032.042s.09-.1-.032-.042zM41.572 19.9c-.048.024-.016.09.056.043s.07-.1-.056-.043zM41.636 19.96c-.05.025-.02.092.053.044s.068-.1-.054-.043zM41.55 19.988c-.05.024-.018.09.054.042s.07-.1-.053-.042zM41.6 20.057c-.048.027-.016.09.056.045s.067-.106-.056-.045zM41.52 20.1c-.05.024-.017.09.055.042s.07-.1-.056-.042zM41.527 20.164c-.048.024-.02.09.056.042s.066-.1-.056-.042z"/><path d="M41.487 20.774c-.05.006-.083.078-.02.09s.078.022.078.07.02.115.088.12.125-.072.067-.1-.11-.045-.115-.1a.1.1 0 0 0-.1-.086z" fill="#c16228"/><path d="M43.267 20.358c.01.01.022.024.035.035.048.04.14 0 .128-.032s-.064-.138.053-.05.533.363.667.46.048.108-.016.08-.245-.11-.355-.172-.118-.037-.137-.016 0 .062.038.1c-.063.008-.17 0-.2-.075a1.753 1.753 0 0 0-.186-.264.1.1 0 0 1-.027-.064z" fill="#f3ea32"/><path d="M46.87 32.248c-.092.06-.212.17-.132.323l.027-.015a8.674 8.674 0 0 0 .92-1.352l.008-.043a1.293 1.293 0 0 1-.326.2c.043.117-.162.27-.27.312a.13.13 0 0 1-.065.2c.02.064-.05.064-.14.1a.357.357 0 0 0-.16.11.24.24 0 0 1 .15-.036c.038.01.046.064-.02.08a.23.23 0 0 0-.132.08c.094-.037.23-.018.14.043z" fill="#6fbf5f"/><path d="M42.566 20.225c-.106-.093-.133-.035-.09.02s.008.09-.086.1a2.472 2.472 0 0 1-.293.035c-.06 0-.125.08.01.072a1.98 1.98 0 0 0 .433-.08c.06-.026.112-.072.026-.15zM42.092 20.473l-.08-.06.085-.05a2.41 2.41 0 0 0 .29-.03l.1-.03-.03-.046.017-.1a.18.18 0 0 1 .1.054l.05.1c0 .033-.03.06-.082.08a1.884 1.884 0 0 1-.437.08h-.016zm.464-.235c-.06.1-.1.118-.163.128-.1.014-.237.035-.3.035l-.005.054.013-.016a2.02 2.02 0 0 0 .43-.08l.078-.048-.056-.072zM42.777 20.388c-.09-.078-.12-.056-.1 0s-.018.072-.077.088a3.407 3.407 0 0 1-.384.106c-.1.01-.12.08.027.075a1.51 1.51 0 0 0 .456-.14c.03-.023.04-.065.08-.044s.065-.02 0-.085zM42.233 20.676c-.1 0-.112-.032-.112-.048v-.02l.094-.044a2.762 2.762 0 0 0 .368-.1l.054-.016-.027.046a3 3 0 0 1-.39.106l.013.06.01-.017a1.564 1.564 0 0 0 .45-.14l.1-.044-.1-.1c.033-.03.06-.014.1.015l.044.1-.093.03a1.294 1.294 0 0 1-.5.173zM42.84 20.62a1.458 1.458 0 0 1-.29.128c-.066.018-.117.09.02.08a.9.9 0 0 0 .343-.163c.045-.024.067-.045.1-.04s.1-.048-.018-.112-.192-.035-.134.016.017.068-.02.09zM42.542 20.846l-.077-.053.08-.06a1.615 1.615 0 0 0 .288-.127l-.006-.12a.2.2 0 0 1 .18.01c.074.04.082.078.074.1l-.138.07a.922.922 0 0 1-.37.18zm.34-.352l-.022.136a1.69 1.69 0 0 1-.3.136l-.014.062.027-.02a.724.724 0 0 0 .3-.135l.138-.067c-.058-.1-.1-.112-.124-.112zM41.71 18.794a.16.16 0 1 0-.183.263c.17.115.35-.152.184-.263z"/><path d="M41.49 18.9l.053.005a.1.1 0 0 0 .125.115.12.12 0 0 1-.18-.12zM42.177 21.545a2.87 2.87 0 0 0 .3.037c-.032.067-.06.11-.08.157s-.027.05-.032-.022-.043-.12-.08-.045a.94.94 0 0 1-.077.136c-.02.03-.048.044-.038-.036a1.61 1.61 0 0 0 0-.23z" fill="#fff"/><path d="M42.548 35.53l-.014-.006c-5.827-2.31-6.643-7.06-6.66-11.847h.036c-.035-.767-.02-1.49 0-2.19.02-.942.04-1.83.016-2.656a17.594 17.594 0 0 1 6.622-1.23 17.957 17.957 0 0 1 6.6 1.194c-.005.86.016 1.75.037 2.69.016.712.032 1.445.03 2.19l-.035.036c.013 4.8-.824 9.512-6.622 11.812l-.013.006zm-6.636-11.818c.048 4.724.86 9.445 6.636 11.743 5.763-2.293 6.582-6.995 6.6-11.743zm6.636-6.038a17.848 17.848 0 0 0-6.574 1.186c.045.8.024 1.685 0 2.63-.016.71-.032 1.444-.03 2.187l13.2-.037c0-.73-.012-1.453-.028-2.15-.024-.945-.043-1.833-.02-2.662a18.182 18.182 0 0 0-6.55-1.154z"/></g></g></svg>