<svg xmlns="http://www.w3.org/2000/svg" viewBox="0 0 55 55"><path d="M46.124 13.515H8.87a23.28 23.28 0 0 1 37.254 0zM46.124 41.485a23.28 23.28 0 0 1-37.254 0z" fill="#357d40"/><path d="M48.844 18.16H6.156a23.277 23.277 0 0 1 2.714-4.645h37.254a23.254 23.254 0 0 1 2.72 4.644z" fill="#fff"/><path d="M50.8 27.5a23.155 23.155 0 0 1-1.956 9.346H6.156a23.294 23.294 0 0 1 0-18.687h42.688A23.13 23.13 0 0 1 50.8 27.5z" fill="#b30b2c"/><path d="M48.844 36.846a23.217 23.217 0 0 1-2.72 4.64H8.87a23.24 23.24 0 0 1-2.714-4.64z" fill="#fff"/><path fill="#ebc726" d="M27.5 19.08l2.087 6.433h6.768l-5.476 3.974 2.09 6.44-5.47-3.98-5.476 3.98 2.092-6.44-5.47-3.974h6.762L27.5 19.08z"/></svg>