<svg xmlns="http://www.w3.org/2000/svg" viewBox="0 0 55 55"><path d="M49.466 19.733H5.533c.184-.517.387-1.025.6-1.527a23.54 23.54 0 0 1 3.854-6.062 23.282 23.282 0 0 1 38.87 6.062c.222.502.42 1.01.61 1.527z"/><path d="M50.8 27.5a23.15 23.15 0 0 1-1.078 7c-.084.256-.167.513-.256.764H5.533c-.09-.25-.178-.508-.256-.764a23.306 23.306 0 0 1 0-14.006c.078-.256.167-.513.256-.764h43.933c.09.25.172.508.25.764A23 23 0 0 1 50.8 27.5z" fill="#d9131a"/><path d="M49.466 35.267c-.188.517-.387 1.03-.607 1.532a23.314 23.314 0 0 1-42.725 0c-.215-.5-.418-1.016-.6-1.533z" fill="#028832"/><path d="M49.717 20.5H5.277c.078-.256.167-.513.256-.764.184-.517.387-1.025.6-1.527H48.86c.22.5.418 1.01.606 1.526.09.248.172.505.25.764zM49.722 34.5c-.084.256-.167.513-.256.764-.188.517-.387 1.03-.607 1.532H6.134c-.215-.5-.418-1.015-.6-1.532-.09-.25-.178-.508-.256-.764z" fill="#fff"/><path d="M36.558 27.5l-12.113 7-1.323.764-2.647 1.536L9.99 42.856A23.41 23.41 0 0 1 6.134 36.8c-.215-.5-.418-1.015-.6-1.532-.09-.25-.178-.508-.256-.764a23.306 23.306 0 0 1 0-14.006c.077-.256.166-.513.255-.764.184-.517.387-1.025.6-1.527a23.54 23.54 0 0 1 3.854-6.062l10.485 6.062 2.647 1.527 1.318.764z" fill="#1447ad"/><path fill="#fbdc1d" d="M13.43 20.544l3.128 4.294 5.058-1.648-3.123 4.305 3.128 4.3-5.057-1.638-3.117 4.3-.005-5.315-5.056-1.637 5.052-1.647-.005-5.314z"/></svg>