<svg xmlns="http://www.w3.org/2000/svg" viewBox="0 0 55 55"><path d="M48.56 17.537H6.44a22.623 22.623 0 0 1 1.4-2.526 23.294 23.294 0 0 1 40.725 2.527zM48.56 37.463A23.294 23.294 0 0 1 7.836 39.99a23.63 23.63 0 0 1-1.4-2.527z" fill="#0bac2f"/><path d="M50.8 27.5a23.1 23.1 0 0 1-2.24 9.963H6.44a23.286 23.286 0 0 1 0-19.926h42.12A23.1 23.1 0 0 1 50.8 27.5z" fill="#fecd17"/><path d="M20.337 27.5l-9.975 9.963-2.527 2.526a23.63 23.63 0 0 1-1.4-2.527 23.286 23.286 0 0 1 0-19.926 22.623 22.623 0 0 1 1.4-2.526l2.527 2.527z" fill="#d11133"/><path d="M27.932 21.464l1.496 4.613h4.848l-3.923 2.846 1.496 4.613-3.918-2.85-3.923 2.85 1.495-4.613-3.923-2.846h4.848l1.502-4.613zM42.745 21.464l1.496 4.613h4.85l-3.923 2.846 1.5 4.613-3.922-2.85-3.923 2.85 1.496-4.613-3.918-2.846h4.844l1.5-4.613z"/></svg>