<svg xmlns="http://www.w3.org/2000/svg" viewBox="0 0 55 55"><path d="M49.472 35.268a23.3 23.3 0 0 1-43.94 0z"/><path d="M50.8 27.5a23.16 23.16 0 0 1-1.328 7.768H5.532a23.3 23.3 0 0 1 0-15.536h43.935A23.04 23.04 0 0 1 50.8 27.5z" fill="#fff"/><path d="M49.467 19.732H5.533a23.3 23.3 0 0 1 43.934 0z" fill="#cd1225"/><path fill="#00793d" d="M17.133 22.905l1.14 3.513h3.69l-2.984 2.17 1.138 3.507-2.985-2.17-2.99 2.17 1.145-3.508-2.99-2.17h3.69l1.145-3.512zM38.128 22.905l1.14 3.513h3.69l-2.985 2.17 1.14 3.507-2.985-2.17-2.99 2.17 1.14-3.508-2.986-2.17h3.69l1.146-3.512z"/></svg>