<svg xmlns="http://www.w3.org/2000/svg" viewBox="0 0 55 55"><path d="M48.948 18.38a22.45 22.45 0 0 0-1.124-2.28 23.317 23.317 0 0 0-40.654 0 22.207 22.207 0 0 0-1.12 2.275A23.333 23.333 0 0 0 7.17 38.9 23.426 23.426 0 0 0 13 45.737 23.316 23.316 0 0 0 47.824 38.9a24.363 24.363 0 0 0 1.124-2.28 23.386 23.386 0 0 0 0-18.243z" fill="#3f5eb7"/><path d="M48.948 36.62a24.363 24.363 0 0 1-1.124 2.28H7.17a22.93 22.93 0 0 1-1.12-2.28zM48.948 18.38H6.05a22.207 22.207 0 0 1 1.12-2.28h40.654a22.45 22.45 0 0 1 1.124 2.28z" fill="#fed818"/><path d="M50.8 27.5a23.246 23.246 0 0 1-1.852 9.12H6.05a23.4 23.4 0 0 1 0-18.24h42.9a23.246 23.246 0 0 1 1.85 9.12z" fill="#b00d0c"/><path fill="#fff" d="M42.955 24.89l-2.213.79 2.213.79 2.212-.79-2.212-.79z"/><path d="M42.955 24.843l-1.476.528-.12.043-.116.042-.01.005-.094.032-.12.047-.084.025-.152.057-.084.027-.084.03.084.03.084.033.152.052.084.03.114.043.095.037h.01l.114.042.125.042 1.475.527 2.337-.837zm-1.465 1.062l-.21-.073-.08-.032-.15-.052-.09-.03-.094-.038.094-.037.09-.026.15-.057.08-.027.218-.078.08-.03h.004l.063-.022 1.308-.466 2.08.743-2.08.748-1.313-.47-.063-.022z"/><path d="M41.51 25.947H9.483a.268.268 0 0 1-.267-.267.268.268 0 0 1 .267-.267h32.03a.268.268 0 0 1 .266.267.27.27 0 0 1-.267.267z" fill="#fed818"/><path d="M25.14 25.413a.082.082 0 0 0-.015.042h.434v-.042zm-1.47 0v.042h.22a.306.306 0 0 0-.03-.042zm17.977-.01a.26.26 0 0 0-.063-.02h-.005a.138.138 0 0 0-.07-.012H9.483a.31.31 0 0 0 0 .62h32.03a.243.243 0 0 0 .067-.007.28.28 0 0 0 .062-.026.308.308 0 0 0 .177-.277.318.318 0 0 0-.173-.28zm-32.165.5a.225.225 0 1 1 0-.45h32.03a.225.225 0 0 1 0 .45zm14.377-.492h-.19v.043h.22a.306.306 0 0 0-.03-.04zm1.28 0a.082.082 0 0 0-.015.043h.434v-.042zM41.014 25.99v-.085a.225.225 0 0 0 0-.45v-.084a.31.31 0 1 1 0 .62zM40.747 25.99v-.085a.225.225 0 0 0 0-.45v-.084a.31.31 0 1 1 0 .62zM40.475 25.99v-.085a.225.225 0 0 0 0-.45v-.084a.31.31 0 1 1 0 .62z"/><path fill="#fff" d="M45.088 23.337l-2.212.79 2.212.79 2.213-.79-2.212-.79z"/><path d="M45.088 23.29l-1.47.528-.12.042-.115.042h-.015l-.09.03-.125.048-.078.027-.157.057-.084.026-.084.032.084.03.084.032.157.053.078.03.12.043.095.036h.01l.12.042.115.042 1.475.528 2.343-.836zm-1.365 1.1l-.09-.037-.208-.073-.08-.03h-.004l-.15-.053-.08-.032-.1-.036.1-.033.08-.03.15-.053h.006l.08-.032.218-.078.08-.032.057-.02 1.308-.466 2.087.743-2.087.747-1.307-.477z"/><path d="M43.645 24.393H11.62a.265.265 0 0 1-.266-.266.265.265 0 0 1 .267-.267h32.025a.267.267 0 0 1 .266.267.267.267 0 0 1-.265.266z" fill="#fed818"/><path d="M43.78 23.85a.338.338 0 0 0-.057-.022.173.173 0 0 0-.073-.01H11.62a.31.31 0 0 0 0 .617h32.025a.22.22 0 0 0 .136-.03.3.3 0 0 0 .173-.278.31.31 0 0 0-.172-.278zm-32.16.5a.223.223 0 0 1-.224-.225.226.226 0 0 1 .225-.225h32.025a.227.227 0 0 1 .225.225.223.223 0 0 1-.225.224zM43.148 24.435v-.084a.223.223 0 0 0 .225-.223.227.227 0 0 0-.225-.225v-.084a.314.314 0 0 1 .314.31.31.31 0 0 1-.314.307zM42.88 24.435v-.084a.223.223 0 0 0 .226-.223.226.226 0 0 0-.225-.225v-.084a.31.31 0 0 1 .31.31.306.306 0 0 1-.31.307zM42.614 24.435v-.084a.223.223 0 0 0 .225-.223.226.226 0 0 0-.226-.225v-.084a.31.31 0 0 1 .31.31.306.306 0 0 1-.31.307z"/><path d="M49.215 27.913H5.785a.41.41 0 0 1-.414-.413.41.41 0 0 1 .414-.413h43.43a.414.414 0 0 1 .414.413.414.414 0 0 1-.413.413z" fill="#fed818"/><path d="M7.416 27.87l.037.007v-.006zm41.8-.825H5.78a.455.455 0 1 0 0 .91h43.435a.455.455 0 0 0 0-.91zm0 .826H5.78a.37.37 0 0 1 0-.74h43.435a.37.37 0 1 1 0 .74zm-41.8 0l.037.007v-.006zM27.975 33.368c-.292-.068-.774-.146-.878-.43a.343.343 0 0 1 0-.234c.068-.115.24-.136.345-.147a8.73 8.73 0 0 0 .894-.214c.47-.11.785-.183.816-.34.02-.12-.125-.24-.256-.345a3.763 3.763 0 0 0-1.072-.47c-.382-.147-.487-.2-.534-.32a.52.52 0 0 1 .09-.47c.104-.147.22-.147.4-.257a1.422 1.422 0 0 0 .532-.6c.162-.323.032-.4.194-.857a1.333 1.333 0 0 1 .345-.617c.247-.22.493-.188.6-.43a.426.426 0 0 0 .022-.3c-.047-.16-.188-.224-.32-.323a1.807 1.807 0 0 1-.47-.534c-.188-.335-.078-.633-.13-1.56a.59.59 0 0 0-.11-.35c-.115-.125-.225-.083-.314-.2-.12-.147.02-.293-.09-.487a1.08 1.08 0 0 0-.51-.4c-.357-.178-.456-.115-.6-.257s-.12-.292-.2-.653c-.132-.586-.3-.617-.347-.973a1.835 1.835 0 0 1 .347-1.135 3.835 3.835 0 0 1 .564-.81c-7.06.146-12.85 7.834-12.85 7.834s5.9 7.834 13.055 7.834a10.574 10.574 0 0 0 2.668-.35 1.72 1.72 0 0 0-.33-.634 3.737 3.737 0 0 0-1.858-.972z"/><path d="M40.55 27.5s-5.9-7.835-13.05-7.835h-.2a3.835 3.835 0 0 0-.565.81 1.835 1.835 0 0 0-.346 1.136c.047.357.214.388.345.974.078.36.052.507.2.653s.24.08.6.257a1.08 1.08 0 0 1 .512.4c.11.194-.03.34.09.487.088.116.2.074.313.2a.59.59 0 0 1 .11.352c.052.926-.058 1.224.13 1.558a1.807 1.807 0 0 0 .47.534c.132.1.273.162.32.324a.426.426 0 0 1-.02.3c-.1.24-.35.21-.6.43a1.333 1.333 0 0 0-.346.616c-.162.455-.032.534-.194.858a1.422 1.422 0 0 1-.533.6c-.183.11-.3.11-.4.256a.52.52 0 0 0-.09.47c.048.116.153.174.535.32a3.763 3.763 0 0 1 1.072.47c.13.106.277.226.256.346-.03.157-.345.23-.816.34a8.73 8.73 0 0 1-.894.214c-.105.01-.277.032-.345.147a.343.343 0 0 0 0 .235c.1.283.586.36.878.43a3.737 3.737 0 0 1 1.862.982 1.72 1.72 0 0 1 .33.633C36.06 33.462 40.55 27.5 40.55 27.5z" fill="#fff"/><path d="M40.585 27.474c-.005 0-.1-.13-.272-.345a.415.415 0 0 1-.042-.043.254.254 0 0 0-.03-.042c-.214-.262-.528-.628-.93-1.056a.55.55 0 0 1-.038-.043.146.146 0 0 1-.036-.042c-.14-.14-.283-.293-.434-.45a.277.277 0 0 1-.042-.042l-.04-.042c-.295-.3-.62-.61-.97-.935a.347.347 0 0 1-.047-.042.455.455 0 0 0-.047-.042c-.162-.145-.33-.3-.507-.448a1997970460473.852 1997970460473.852 0 0 1-.095-.084c-.11-.09-.215-.178-.32-.267a20.066 20.066 0 0 0-4.162-2.7 11.805 11.805 0 0 0-5.273-1.226 12.033 12.033 0 0 0-5.005 1.29A20.013 20.013 0 0 0 18.2 23.6c-.083.073-.167.14-.25.214-.017.01-.032.026-.053.042a.23.23 0 0 0-.04.042c-.18.15-.347.3-.515.45a1507902234317.34 1507902234317.34 0 0 1-.094.083c-.35.325-.674.64-.962.937a.444.444 0 0 0-.047.042.277.277 0 0 1-.043.04c-.152.158-.293.31-.43.45a.313.313 0 0 1-.035.043l-.042.042c-.4.428-.71.794-.93 1.056-.012.017-.022.027-.033.043s-.026.026-.036.042c-.177.214-.266.34-.27.345l-.022.026.02.026s.095.126.273.345a.313.313 0 0 1 .037.042.255.255 0 0 0 .032.04 27.632 27.632 0 0 0 3.508 3.495 19.863 19.863 0 0 0 4.158 2.7 12.016 12.016 0 0 0 5.074 1.237 10.67 10.67 0 0 0 2.678-.356 18.743 18.743 0 0 0 7.422-4.32 28.635 28.635 0 0 0 2.64-2.75.232.232 0 0 1 .038-.043.146.146 0 0 1 .036-.042c.173-.218.267-.34.272-.344l.014-.026zm-.424.44a.254.254 0 0 1-.03.04 27.09 27.09 0 0 1-2.59 2.684 18.506 18.506 0 0 1-7.384 4.3 10.41 10.41 0 0 1-2.652.35c-3.682 0-7.024-2.123-9.184-3.906a27.41 27.41 0 0 1-3.446-3.43c-.01-.017-.026-.027-.037-.043a.27.27 0 0 0-.036-.043c-.156-.188-.256-.32-.3-.37.043-.053.143-.184.3-.372a.27.27 0 0 0 .037-.042.263.263 0 0 1 .037-.042c.22-.266.54-.632.936-1.055.01-.016.026-.027.037-.042a.33.33 0 0 0 .04-.042c.132-.14.28-.292.43-.45l.042-.04a.57.57 0 0 1 .046-.043c.293-.3.617-.612.973-.936a.277.277 0 0 1 .04-.04.3.3 0 0 0 .048-.043c.167-.146.335-.3.512-.45a.278.278 0 0 0 .042-.04.218.218 0 0 0 .053-.043c.062-.047.12-.1.183-.152 2.113-1.752 5.38-3.87 9.006-3.954H27.5c3.682 0 7.024 2.124 9.18 3.907.083.068.16.136.24.2a.383.383 0 0 0 .052.042.432.432 0 0 0 .047.042c.177.15.344.3.512.448a.258.258 0 0 0 .047.042l.04.042c.356.324.686.638.98.936l.04.042a.274.274 0 0 0 .042.042l.434.45c.016.016.027.03.037.042l.042.042c.4.423.71.79.937 1.056.01.016.025.026.036.042s.02.026.03.042c.158.188.263.32.3.37-.042.053-.14.184-.3.372a.232.232 0 0 1-.037.045z"/><path fill="#fff" d="M19.24 24.707h.644V26.8h-.643zM20.507 24.707h.64V26.8h-.64zM21.767 24.707h.643V26.8h-.643zM23.033 24.707h.638V26.8h-.637zM24.293 24.707h.643V26.8h-.643zM25.56 24.707h.637V26.8h-.638zM19.24 28.2h.644v2.093h-.643zM20.507 28.2h.64v2.093h-.64zM21.767 28.2h.643v2.093h-.643zM23.033 28.2h.638v2.093h-.637zM24.293 28.2h.643v2.093h-.643zM25.56 28.2h.637v2.093h-.638z"/><path d="M28.797 24.707h.643V26.8h-.643zM30.057 24.707h.643V26.8h-.643zM31.323 24.707h.643V26.8h-.643zM32.583 24.707h.644V26.8h-.644zM33.85 24.707h.642V26.8h-.643zM35.114 24.707h.638V26.8h-.638zM28.797 28.2h.643v2.093h-.643zM30.057 28.2h.643v2.093h-.643zM31.323 28.2h.643v2.093h-.643zM32.583 28.2h.644v2.093h-.644zM33.85 28.2h.642v2.093h-.643zM35.114 28.2h.638v2.093h-.638z"/><path d="M23.164 21.177a4 4 0 0 0-1.752 2.36c.366-.216.3-.216.43-.268a1.645 1.645 0 0 0-.137 1.207c.146-.214.34-.36.308-.36a1.946 1.946 0 0 0 .607 1.045 1.3 1.3 0 0 1 .214-.387 1.985 1.985 0 0 0 .685.77 1.623 1.623 0 0 1 .266-.236 1.792 1.792 0 0 0 1.24.8 1.9 1.9 0 0 1 .193-.89.92.92 0 0 0 0-.518l.438.2a.935.935 0 0 1-.162-.622 1.525 1.525 0 0 1 .382.214 2.29 2.29 0 0 0-.6-1.412 5.7 5.7 0 0 1 .79.4s.02-2.15-2.84-2.07a.45.45 0 0 1-.064-.235z" fill="#3d5da5"/><path d="M22.808 22.584a.918.918 0 0 1 .2.46.662.662 0 0 1 0 .25c-.016.085-.042.163-.063.242s-.052.157-.084.235-.067.147-.1.22a1.905 1.905 0 0 1-.282.388.012.012 0 0 1-.02 0c-.006 0-.01-.016-.006-.02a3.187 3.187 0 0 0 .147-.44l.046-.22s.02-.146.026-.22a1.53 1.53 0 0 0-.005-.214 1.555 1.555 0 0 1 .01-.215 2.087 2.087 0 0 1 .105-.466c0-.01.015-.016.026-.01a.005.005 0 0 1 0 .01zM23.682 22.123a1.66 1.66 0 0 1 .25.068c.074.033.147.064.22.1a1.654 1.654 0 0 1 .194.116c.062.042.12.09.183.13s.135.074.2.11.135.068.208.1c.146.063.293.115.45.167.01 0 .015.01.01.02s-.01.012-.015.012a2.616 2.616 0 0 1-.492-.02c-.083-.017-.16-.033-.244-.054a1.825 1.825 0 0 1-.242-.067 1.6 1.6 0 0 1-.24-.094 1.033 1.033 0 0 1-.2-.147 1.2 1.2 0 0 1-.3-.413.02.02 0 0 1 .01-.027zM23.425 23.713a.464.464 0 0 1 .157.115.48.48 0 0 1 .105.147.38.38 0 0 1 .036.173 1.647 1.647 0 0 1 0 .172c0 .058 0 .115-.01.173s-.016.115-.026.167a1.528 1.528 0 0 1-.116.32.02.02 0 0 1-.02.01c-.005-.006-.01-.01-.01-.016a2.984 2.984 0 0 0-.026-.32 1.374 1.374 0 0 0-.026-.15c-.01-.053-.02-.1-.036-.153a.81.81 0 0 0-.053-.14.426.426 0 0 1-.038-.14.82.82 0 0 1 0-.158.86.86 0 0 1 .037-.183c.004-.01.015-.022.025-.017zM24.18 24.77a.517.517 0 0 1 .15.084.62.62 0 0 1 .105.1.3.3 0 0 1 .058.115.933.933 0 0 0 .036.135l.1.256.104.263a.013.013 0 0 1-.01.02c-.006.006-.01 0-.016 0a1.9 1.9 0 0 1-.22-.188c-.03-.036-.068-.068-.1-.1l-.1-.11c-.03-.037-.068-.073-.1-.11a.35.35 0 0 1-.067-.125.68.68 0 0 1-.016-.152.405.405 0 0 1 .037-.167.024.024 0 0 1 .04-.02zM24.35 23.342a1.18 1.18 0 0 1 .18.09.97.97 0 0 1 .14.088.6.6 0 0 1 .115.115.725.725 0 0 0 .105.125c.04.037.083.074.126.11s.088.068.14.1a2.007 2.007 0 0 0 .31.162.024.024 0 0 1 0 .026.01.01 0 0 1-.01.01 1.774 1.774 0 0 1-.373-.04c-.062-.017-.12-.038-.183-.06s-.115-.05-.172-.083l-.173-.094a.5.5 0 0 1-.14-.135.753.753 0 0 1-.084-.183.54.54 0 0 1-.015-.21c0-.015.016-.02.026-.02z" fill="#b00d0c"/><path d="M7.405 27.516v.308a.812.812 0 0 0-.737.413 4.06 4.06 0 0 0-.66 1.44c.174-.158.257-.158.257-.158a3.637 3.637 0 0 0 .09.9l.324-.372a9.345 9.345 0 0 0 .255 1.13l.13-.617s.3.032.34.545a1.153 1.153 0 0 0 .56.883l.2-.188a1.36 1.36 0 0 0 .54.188c.015-.2.643-.71.842-.768l.1.224a2.447 2.447 0 0 1 .44-1.108l.057.3a4.1 4.1 0 0 0 0-1.7l.188.126a1.686 1.686 0 0 0-.13-1.182 1.127 1.127 0 0 0-1.183-.256 1.787 1.787 0 0 1-1.183-.272l.016.387-.214-.075z" fill="#3d5da5"/><path d="M10.3 27.955a.2.2 0 0 1-.026-.042.306.306 0 0 0-.032-.042s-.005-.01-.005-.014a1.18 1.18 0 0 0-1.23-.272 1.77 1.77 0 0 1-1.144-.262l-.074-.063.015.418-.15-.047-.29-.2v.35a.8.8 0 0 0-.365.09l-.073.043a.246.246 0 0 0-.058.042.98.98 0 0 0-.242.262 4.027 4.027 0 0 0-.664 1.453l-.03.13.1-.093a1.07 1.07 0 0 1 .183-.13 3.323 3.323 0 0 0 .088.857l.027.068.313-.36a7.64 7.64 0 0 0 .255 1.05l.052.12.147-.7c.072.032.234.132.266.493a1.125 1.125 0 0 0 .528.878c.016.01.026.026.042.037l.032.02.2-.188a1.435 1.435 0 0 0 .53.178h.045v-.04c.016-.174.56-.63.774-.723l.147.324.02-.14a2.663 2.663 0 0 1 .373-1.03l.083.423.042-.2a4.29 4.29 0 0 0 .032-1.605l.14.1.016-.063a1.86 1.86 0 0 0-.07-1.12zm-.23.88l.03.114a3.7 3.7 0 0 1 .043 1.442l-.026-.14-.057.046a2.083 2.083 0 0 0-.43 1l-.057-.13-.036.01a2.064 2.064 0 0 0-.864.763 1.588 1.588 0 0 1-.486-.17l-.026-.022-.2.183-.015-.015a1.045 1.045 0 0 1-.49-.816c-.05-.54-.373-.58-.383-.58H7.03l-.1.49c-.096-.33-.2-.962-.21-.967l-.016-.09-.335.383a3.963 3.963 0 0 1-.06-.816v-.042h-.045a.358.358 0 0 0-.182.084 4.046 4.046 0 0 1 .616-1.3 1 1 0 0 1 .324-.31.71.71 0 0 1 .094-.04.568.568 0 0 1 .157-.043.6.6 0 0 1 .125 0h.016l.037.005v-.283l.156.11.282.1-.01-.36a1.908 1.908 0 0 0 1.14.224h.01l.005-.005a1.1 1.1 0 0 1 1.093.21.215.215 0 0 1 .037.037c.01.016.02.026.03.042A1.672 1.672 0 0 1 10.3 29z"/><path d="M7.536 28.44a.568.568 0 0 1 .058.22.7.7 0 0 1-.016.216.547.547 0 0 1-.078.2c-.037.058-.08.115-.115.173s-.08.114-.12.17-.09.106-.136.158a2.5 2.5 0 0 1-.31.272l-.026-.026a3.732 3.732 0 0 0 .193-.345 1.134 1.134 0 0 0 .08-.18 1.788 1.788 0 0 0 .072-.177 1.87 1.87 0 0 0 .05-.183.71.71 0 0 1 .064-.172c.032-.058.068-.11.1-.168a1.077 1.077 0 0 1 .147-.162zM7.84 29.524a.55.55 0 0 1 .083.178.722.722 0 0 1 .026.183.425.425 0 0 1-.042.173c-.02.052-.053.1-.074.162s-.052.1-.078.157-.058.1-.09.146a2.288 2.288 0 0 1-.213.277l-.032-.02c.033-.11.064-.215.09-.325l.03-.157c.012-.052.022-.1.033-.162s0-.105.01-.157a.543.543 0 0 1 .026-.158c.02-.047.047-.1.073-.146a.754.754 0 0 1 .12-.157zM8.336 30.288a.457.457 0 0 1 .11.146.562.562 0 0 1 .053.152.33.33 0 0 1-.01.157c-.018.052-.038.1-.05.15s-.03.1-.046.148-.042.1-.062.147a1.79 1.79 0 0 1-.152.262l-.032-.012c.005-.1.016-.2.016-.293.005-.052.005-.1.005-.146v-.142a1.164 1.164 0 0 0-.017-.142.294.294 0 0 1 .006-.135.7.7 0 0 1 .046-.14.934.934 0 0 1 .094-.147zM8.708 29.4a1.12 1.12 0 0 1 .136.125 1.034 1.034 0 0 1 .094.115.41.41 0 0 1 .057.13.737.737 0 0 0 .048.137 1.364 1.364 0 0 0 .068.13c.027.043.053.084.084.126a1.5 1.5 0 0 0 .2.236l-.02.03a1.3 1.3 0 0 1-.3-.14c-.047-.033-.094-.07-.14-.106a1.236 1.236 0 0 1-.12-.12c-.038-.047-.085-.09-.12-.136a.4.4 0 0 1-.08-.157.664.664 0 0 1-.01-.177.564.564 0 0 1 .062-.188zM8.446 28.27a.878.878 0 0 1 .2.083 1.113 1.113 0 0 1 .156.1.42.42 0 0 1 .125.13 1.65 1.65 0 0 0 .116.147c.04.047.083.094.126.136s.087.09.13.136c.088.09.187.173.28.257l-.014.03a3.154 3.154 0 0 1-.367-.152 1.328 1.328 0 0 1-.173-.094c-.052-.03-.11-.068-.168-.1s-.11-.074-.168-.116a.59.59 0 0 1-.14-.14.69.69 0 0 1-.09-.18.59.59 0 0 1-.042-.218z" fill="#b00d0c"/><path d="M46.662 27.176a3.754 3.754 0 0 0-1.992 2.51 4.752 4.752 0 0 1 .47-.345 1.574 1.574 0 0 0 .012 1.14 2.144 2.144 0 0 1 .255.827.805.805 0 0 0 .544-.523 10.546 10.546 0 0 0 1.424 1.6 4.315 4.315 0 0 1 .57-1.025l.157.265a3.69 3.69 0 0 1 .247-.71.963.963 0 0 0 .324.27 2.97 2.97 0 0 0 0-.91l.23.34a3.292 3.292 0 0 1 0-.956 1.475 1.475 0 0 0 .34.27 3.738 3.738 0 0 1-.156-.94.912.912 0 0 1 .246.287s.14-1.794-2.626-1.836c-.01-.092-.042-.264-.042-.264z" fill="#3d5da5"/><path d="M48.943 28.164a1.73 1.73 0 0 0-.225-.21.474.474 0 0 0-.052-.04c-.02-.017-.042-.027-.063-.043a3.476 3.476 0 0 0-1.862-.48l-.036-.22-.005-.04v-.012l-.027.01-.02.01a3.555 3.555 0 0 0-1.016.733.333.333 0 0 0-.042.043.238.238 0 0 1-.042.042 3.776 3.776 0 0 0-.92 1.72l-.03.12.093-.077c.183-.142.3-.225.37-.272a1.5 1.5 0 0 0 .053 1.056 2.162 2.162 0 0 1 .25.8v.058l.053-.01a.847.847 0 0 0 .538-.466 12.657 12.657 0 0 0 1.31 1.438l.14.136.01-.078a3.947 3.947 0 0 1 .524-.952l.177.3.028-.1a4.854 4.854 0 0 1 .2-.65.965.965 0 0 0 .31.232l.05.026.006-.058a3.8 3.8 0 0 0 .03-.727l.226.325-.026-.177a3.765 3.765 0 0 1-.016-.87 1.226 1.226 0 0 0 .3.232l.084.03-.026-.083a5.013 5.013 0 0 1-.162-.837.824.824 0 0 1 .167.21l.07.157.015-.173a1.59 1.59 0 0 0-.432-1.1zm.172.79l-.057-.047-.016.073a3.2 3.2 0 0 0 .13.853 3.06 3.06 0 0 1-.245-.2l-.052-.053-.016.068a2.75 2.75 0 0 0-.022.8l-.3-.45.09.287a2.743 2.743 0 0 1 .01.832.79.79 0 0 1-.257-.225l-.025-.042-.042.032a2.274 2.274 0 0 0-.225.632l-.14-.235-.038.05a5.078 5.078 0 0 0-.56.97l-.03-.027a10.047 10.047 0 0 1-1.334-1.506l-.047-.11-.033.115a.736.736 0 0 1-.46.48 2.5 2.5 0 0 0-.256-.784 1.573 1.573 0 0 1-.015-1.108l.042-.1-.1.047a4.322 4.322 0 0 0-.377.272 3.727 3.727 0 0 1 .926-1.622.416.416 0 0 0 .042-.042.355.355 0 0 1 .047-.042 3.532 3.532 0 0 1 .873-.633c.01.06.026.148.03.2l.007.038h.035a3.535 3.535 0 0 1 1.73.392.33.33 0 0 1 .075.042c.026.016.047.032.062.042a1.627 1.627 0 0 1 .31.267 1.6 1.6 0 0 1 .4.9 1.65 1.65 0 0 0-.162-.166z"/><path d="M46.035 29.29a.5.5 0 0 1 .047.187.542.542 0 0 1-.016.183.393.393 0 0 1-.073.162c-.03.047-.073.094-.11.14a1.34 1.34 0 0 1-.11.137 1.358 1.358 0 0 1-.13.12 1.668 1.668 0 0 1-.282.188l-.02-.02c.067-.09.135-.18.193-.268l.078-.14a.924.924 0 0 0 .07-.142 1.21 1.21 0 0 0 .052-.147.522.522 0 0 1 .057-.14c.025-.042.057-.09.088-.13a1.1 1.1 0 0 1 .122-.137zM46.49 30.324a.3.3 0 0 1 .1.1.278.278 0 0 1 .053.1.224.224 0 0 1 0 .115c-.01.036-.026.072-.037.11l-.03.11c-.017.036-.028.067-.043.104a1.18 1.18 0 0 1-.115.188h-.026c-.006-.074-.006-.147-.006-.215 0-.036 0-.068-.01-.1a.623.623 0 0 0-.01-.1.352.352 0 0 0-.022-.1.15.15 0 0 1 0-.094.5.5 0 0 1 .037-.1.642.642 0 0 1 .08-.11zM47.1 30.35a.667.667 0 0 1 .13.136.766.766 0 0 1 .08.157.44.44 0 0 1 .025.162c0 .058-.005.115-.005.173a1.463 1.463 0 0 1-.01.167c0 .058-.01.11-.016.168-.02.11-.037.22-.062.324h-.027c-.026-.11-.042-.214-.063-.32a1.5 1.5 0 0 0-.03-.16 1.36 1.36 0 0 0-.03-.157.724.724 0 0 0-.048-.152.532.532 0 0 1-.026-.15.8.8 0 0 1 .01-.163.578.578 0 0 1 .042-.178zM47.374 29.718c.036.036.063.073.09.1s.04.058.056.084a.257.257 0 0 1 .02.09.513.513 0 0 0 .017.093c.016.026.026.057.042.09a.825.825 0 0 0 .056.088.737.737 0 0 0 .152.162l-.016.026a.7.7 0 0 1-.235-.077.69.69 0 0 1-.1-.068.774.774 0 0 1-.1-.1 1.055 1.055 0 0 1-.09-.11.24.24 0 0 1-.04-.13.292.292 0 0 1 .114-.262zM47.212 28.834a.816.816 0 0 1 .146.03.535.535 0 0 1 .11.048.276.276 0 0 1 .09.063.42.42 0 0 0 .077.084c.032.02.063.046.094.067s.067.04.1.057a1.124 1.124 0 0 0 .23.1v.032a.88.88 0 0 1-.263.016 1.34 1.34 0 0 1-.136-.02 1.255 1.255 0 0 1-.13-.043c-.047-.017-.088-.027-.136-.048a.308.308 0 0 1-.115-.084.49.49 0 0 1-.07-.126.31.31 0 0 1-.014-.156z" fill="#b00d0c"/></svg>