<svg xmlns="http://www.w3.org/2000/svg" viewBox="0 0 55 55"><path d="M48.546 17.516H6.45c.27-.565.564-1.125.878-1.663a23.286 23.286 0 0 1 40.344 0c.314.538.608 1.098.874 1.663z" fill="#cb0201"/><path d="M48.546 37.484c-.266.57-.56 1.125-.874 1.663a23.286 23.286 0 0 1-40.344 0q-.47-.807-.88-1.663z" fill="#006506"/><path d="M50.8 27.5a23.04 23.04 0 0 1-2.254 9.984H6.45a23.286 23.286 0 0 1 0-19.968h42.1A23.04 23.04 0 0 1 50.8 27.5z" fill="#fff"/><path d="M33.85 36.485a22.6 22.6 0 0 0-12.7 0l-.326-1.04a23.632 23.632 0 0 1 13.348 0zM27.918 33.3c0-.8-.418-.952-.418-.952s-.418.152-.418.952c-.246-.167-.69 0-.69 0 0 .46.5.837 1.108.837s1.11-.377 1.11-.837c0 0-.446-.167-.692 0zM23.954 33.478c-.173-.78-.617-.837-.617-.837s-.377.242-.2 1.02c-.272-.11-.675.153-.675.153a1.008 1.008 0 0 0 1.266.575c.6-.136 1-.607.905-1.056-.004 0-.475-.068-.68.146zM31.046 33.478c.173-.78.617-.837.617-.837s.377.242.2 1.02c.272-.11.675.153.675.153a1.01 1.01 0 0 1-1.266.575c-.6-.136-1-.607-.905-1.056.004 0 .475-.068.68.146zM27.5 18.515l.356 1.093H29l-.93.67.356 1.087-.926-.67-.925.67.355-1.088-.93-.67h1.144l.356-1.092zM19.425 23.154l.355 1.088h1.146l-.926.674.356 1.088-.93-.674-.927.674.355-1.088-.926-.674h1.144l.35-1.088zM35.575 23.154l.35 1.088h1.146l-.924.674.355 1.088-.925-.674-.93.674.355-1.088-.926-.674h1.146l.355-1.088zM36.826 27.83l.355 1.087h1.146l-.925.67.35 1.093-.924-.675-.926.675.355-1.093-.926-.67h1.14l.356-1.088zM18.175 27.83l.355 1.087h1.14l-.925.67.355 1.093-.925-.675-.926.675.35-1.093-.926-.67h1.145l.355-1.088zM22.824 19.78l.35 1.088h1.146l-.926.67.357 1.093-.926-.674-.93.675.355-1.092-.927-.67h1.146l.354-1.088zM32.176 19.78l.355 1.088h1.147l-.926.67.357 1.093-.93-.674-.927.675.356-1.092-.926-.67h1.145l.35-1.088zM36.02 32.034c-2.605 1.167-3.5-.313-3.954-1.16-2.7 1.715-3.78-.215-4.148-1.26a2.965 2.965 0 0 1-.162-.974v-1.73a1.2 1.2 0 0 1 1.318-.435l.382.125-.047-.392a2.087 2.087 0 0 0-1.345-1.9 1.674 1.674 0 0 0-1.13 0 2.087 2.087 0 0 0-1.344 1.9l-.046.392.377-.125a1.2 1.2 0 0 1 1.324.434v1.73a2.965 2.965 0 0 1-.162.973c-.367 1.046-1.444 2.976-4.143 1.26-.46.848-1.355 2.328-3.96 1.16-.11 1.147 2.913 2.93 4.132-.29 0 0 2.547 2.676 4.388-1.063 1.836 3.74 4.388 1.062 4.388 1.062 1.22 3.22 4.242 1.438 4.132.292zm-9.728-6.13h-.13a1.46 1.46 0 0 1 .946-1.118 1.125 1.125 0 0 1 .784 0 1.475 1.475 0 0 1 .952 1.12 1.717 1.717 0 0 0-1.344.517 1.724 1.724 0 0 0-1.208-.518z" fill="#f7c215"/></svg>