<svg xmlns="http://www.w3.org/2000/svg" viewBox="0 0 55 55"><path d="M50.8 27.5A23.3 23.3 0 1 1 27.5 4.2h2.7v.157A23.332 23.332 0 0 1 50.8 27.5z" fill="#fd0302"/><path d="M30.2 4.2v23.3h-26A23.327 23.327 0 0 1 27.5 4.2z" fill="#060593"/><path d="M19.888 12.455a4.6 4.6 0 0 0-1.954 0l.977-3.53zM17.54 12.56a4.53 4.53 0 0 0-1.687.977l-.92-3.545zM15.565 13.824a4.54 4.54 0 0 0-.977 1.69L12.026 12.9zM14.38 16.877a4.63 4.63 0 0 0 .1.978l-3.525-.978 3.524-.972a4.58 4.58 0 0 0-.1.972zM15.565 19.935l-3.54.92 2.563-2.608a4.574 4.574 0 0 0 .977 1.688zM17.54 21.2l-2.607 2.566.92-3.544a4.6 4.6 0 0 0 1.688.978zM19.883 21.305l-.972 3.524-.976-3.525a4.575 4.575 0 0 0 1.95 0zM22.884 23.767l-2.61-2.567a4.56 4.56 0 0 0 1.695-.978zM25.8 20.856l-3.545-.92a4.51 4.51 0 0 0 .978-1.69zM23.333 17.855a4.63 4.63 0 0 0 .105-.978 4.58 4.58 0 0 0-.105-.972l3.53.972zM25.8 12.9l-2.567 2.61a4.494 4.494 0 0 0-.978-1.695zM22.884 9.992l-.915 3.545a4.492 4.492 0 0 0-1.695-.978z" fill="#fff"/><circle cx="18.911" cy="16.877" r="4.02" fill="#fff"/></svg>