<svg xmlns="http://www.w3.org/2000/svg" viewBox="0 0 55 55"><path d="M39.6 7.594L4.472 31.04A23.294 23.294 0 0 1 39.6 7.595z" fill="#19b43d"/><path d="M50.8 27.5a23.29 23.29 0 0 1-35.408 19.9l35.136-23.44a23.25 23.25 0 0 1 .272 3.54z" fill="#07a3dc"/><path d="M49.874 20.99L12.908 45.647A23.356 23.356 0 0 1 5.126 34.01L42.092 9.347a23.372 23.372 0 0 1 7.782 11.643z"/><path d="M42.092 9.346L5.126 34.01a22.358 22.358 0 0 1-.654-2.97L39.6 7.595a23.09 23.09 0 0 1 2.492 1.752zM50.528 23.96L15.392 47.4a22.482 22.482 0 0 1-2.484-1.752l36.966-24.66a22.358 22.358 0 0 1 .654 2.97z" fill="#fbd023"/></svg>