<svg xmlns="http://www.w3.org/2000/svg" viewBox="0 0 55 55"><path d="M50.8 27.5a23.3 23.3 0 0 1-1.323 7.767H5.527A23.333 23.333 0 0 1 4.2 27.5z"/><path d="M49.477 35.267a23.335 23.335 0 0 1-4.613 7.766H10.136a23.24 23.24 0 0 1-4.608-7.766z" fill="#fbdb1b"/><path d="M50.8 27.5H4.2a23.29 23.29 0 0 1 1.328-7.767h43.95A23.26 23.26 0 0 1 50.8 27.5zM44.864 43.033a23.293 23.293 0 0 1-34.728 0z" fill="#d80201"/><path d="M44.864 11.967H10.136a23.293 23.293 0 0 1 34.728 0z"/><path d="M49.477 19.733H5.527a23.14 23.14 0 0 1 4.61-7.766h34.727a23.236 23.236 0 0 1 4.613 7.766z" fill="#fbdb1b"/><path d="M34.87 27.5a7.367 7.367 0 1 1-7.37-7.37 7.365 7.365 0 0 1 7.37 7.37z" fill="#fff"/><path d="M26.156 23.122a.567.567 0 0 0-.377.638c.073.178.45.32.606.168a.348.348 0 0 0 .058-.3c-.016-.103-.13-.528-.288-.506z" fill="#d80201"/><path d="M26.47 23.625a1.023 1.023 0 0 0-.225-.508.144.144 0 0 0-.073-.026h-.02a.46.46 0 0 0-.242.147.843.843 0 0 0-.1.142.478.478 0 0 0-.058.39.46.46 0 0 0 .24.2.338.338 0 0 0 .1.032.36.36 0 0 0 .106.01.283.283 0 0 0 .2-.067.35.35 0 0 0 .072-.32zm-.36.33a.385.385 0 0 1-.08-.022.38.38 0 0 1-.225-.183.412.412 0 0 1 .053-.345.75.75 0 0 1 .136-.173.355.355 0 0 1 .167-.083c.017-.007.032 0 .053.014a.923.923 0 0 1 .2.466.324.324 0 0 1-.047.282.286.286 0 0 1-.257.042z"/><path d="M28.112 21.3l-.717.983-.768-.21V20.75a2.24 2.24 0 0 1 .408.02 1.76 1.76 0 0 1 1.077.532z" fill="#fbdb1b"/><path d="M28.6 22.233c-.46.074-.758.147-.81.157l-.335-.094.7-.957a1.823 1.823 0 0 1 .125.156.12.12 0 0 1 .026.03 2.62 2.62 0 0 1 .294.707zM26.574 20.748v1.307l-.366-.1-.54-.92a1.972 1.972 0 0 1 .906-.287z" fill="#d80201"/><path d="M28.656 22.254a2.576 2.576 0 0 0-.31-.758c-.004-.01-.014-.02-.02-.032a1.86 1.86 0 0 0-1.286-.753 2.094 2.094 0 0 0-1.428.29l-.016.016.5.857.074.126 1.05.292.273.078.293.08s.042-.012.115-.022c.137-.032.388-.09.723-.142l.03-.005zm-2.082-.2l-.366-.1-.068-.12-.47-.806a1.972 1.972 0 0 1 .904-.282zm.82.225l-.17-.048-.6-.162v-1.327a2.27 2.27 0 0 1 .407.026 1.76 1.76 0 0 1 1.078.527l-.45.617-.235.33zm.87.01l-.173.03-.193.043-.057.016a.468.468 0 0 1-.052.01l-.325-.09h-.01l.24-.335.456-.617a1.823 1.823 0 0 1 .124.157.12.12 0 0 1 .026.03 2.464 2.464 0 0 1 .288.707c-.115.012-.225.028-.324.05zM30.936 29.325c-.084-.324-.66-.633-.978-.847-.214-.14-.428-.277-.643-.413l-.24-.157-.01-.005c-.1-.063-.2-.13-.3-.2l-.3-.2a5.663 5.663 0 0 1-.487-.366c-.188-.162-.387-.31-.565-.48l-.042-.038a.95.95 0 0 1-.062-.074 1.505 1.505 0 0 1-.324-.68.278.278 0 0 1-.01-.068 1.083 1.083 0 0 1-.02-.147 7.406 7.406 0 0 1-.022-.977 1.524 1.524 0 0 1 .246-.852 2.447 2.447 0 0 1 .36-.412.954.954 0 0 0 .35-.565 1.36 1.36 0 0 0 .022-.413.2.2 0 0 0-.01-.058.614.614 0 0 0-.058-.183 1.02 1.02 0 0 0-.14-.226c-.012-.01-.022-.026-.038-.042a1.04 1.04 0 0 0-.685-.34 1.138 1.138 0 0 0-.35.02l-.054.017a1.014 1.014 0 0 0-.434.224.146.146 0 0 0-.042.036.785.785 0 0 0-.245.612 1.907 1.907 0 0 0 .03.236 2.2 2.2 0 0 0-1 .49c.728-.16.895-.2 1.09-.23l.035.085c-.183.037-.926.188-1.067.235 0 0 .4 0 .973-.063a.12.12 0 0 0 .042 0H26a.6.6 0 0 1 .094-.01 1.167 1.167 0 0 0 .068.1c.084.12.152.225.063.36a2.2 2.2 0 0 1-.19.252.06.06 0 0 1-.02.02s-.01.017-.015.022l-.032.03c-.266.325-.538.644-.8.973a2.458 2.458 0 0 0-.277 2.28 2 2 0 0 0 .13.24 2.256 2.256 0 0 0 .19.252c.037.042.068.08.105.115l.36.387a.11.11 0 0 0 .09.042.177.177 0 0 1 .073.02c.32.256.653.492.993.717.174.11.347.214.52.32.01.27.025.773.036 1.3l-1.454-.08a4.735 4.735 0 0 0-.68.037c-.847.183-.78.81-.753 1.443.01-.146.06-.125.286-.58a.75.75 0 0 0 .278.512 1.54 1.54 0 0 1 .1-.712c-.025.09.157.455.256.44-.015-.32.435-.77.435-.77s.78 0 1.537.022c.01.287.016.564.02.8.032.988.074 1.323.074 1.323s-1.475-.136-1.783.36c.4.038.946.038.946.038s-.47.6-.272.81a3.326 3.326 0 0 1 1.563-.788 4.772 4.772 0 0 1 1.11.01s.084-.465-1.124-.476c-.027-.214-.074-1.17-.11-2.07h.125a6.106 6.106 0 0 0 .938 0 .322.322 0 0 0 .3-.435.406.406 0 0 0-.078-.15c-.1-.146-.716-.92-.387-1.046a.38.38 0 0 1 .13-.015 3.393 3.393 0 0 1 .963.15c.058.016.12.037.178.058a.376.376 0 0 0 .074.016.426.426 0 0 0 .073.026l.063.015a1.417 1.417 0 0 0 .257.058H30.622c.168-.008.378-.07.314-.338zm-2.5 1.308a.11.11 0 0 1-.073.073.092.092 0 0 1-.052 0l-.51-.03c-.023-.42-.033-.8-.038-1.058.01.01.02.016.03.026a2.533 2.533 0 0 1 .608.727.29.29 0 0 1 .04.263z"/><path d="M26.632 22.636a.152.152 0 1 1-.3 0 .152.152 0 0 1 .3 0z" fill="#fff"/><path d="M27.212 22.055c.006.178.037.518-.094.66-.1.11-.235.172-.335.277a.206.206 0 0 0-.062.22.252.252 0 0 0 .3.15.532.532 0 0 0 .173-.088.89.89 0 0 0 .35-.638.62.62 0 0 0-.33-.58zM26.642 23.66a7.02 7.02 0 0 0-.7 1 3.245 3.245 0 0 0-.466 1.507 2.91 2.91 0 0 0 .22 1.02s.016-.418.03-.44a1.076 1.076 0 0 0 .195.184l-.036-.355.22.068-.083-.246h.262l-.068-.282.293.01c-.032 0-.126-.3-.142-.34a1.757 1.757 0 0 1-.065-.385 3.073 3.073 0 0 1 .08-.843 3.316 3.316 0 0 1 .156-.5c.03-.074.068-.147.1-.225 0-.01.064-.21.032-.2-.01.008-.015.02-.026.03zM27.066 27.8a1.6 1.6 0 0 0 .058.91c.1-.036.475-.193.71-.062.084-.018-.634-.53-.768-.848z" fill="#9ba59b"/><path d="M29.7 27.882c-.236-.084-.832-.22-.858-.23l-.115-.026.47.38h-.407a.887.887 0 0 1-.08-.072c-.03-.03-.062-.063-.1-.094a2.647 2.647 0 0 0-.69-.554c-.02-.01-.047-.02-.073-.037-.22-.106-.444-.215-.45-.482a.24.24 0 0 1 .09-.215.5.5 0 0 1 .418-.02 3 3 0 0 1 .465.22c.052.03.1.057.152.083a3.564 3.564 0 0 0 .69.26c.058.017.115.043.178.064a1.137 1.137 0 0 0 .408.11 3.6 3.6 0 0 1 .466.476 8.085 8.085 0 0 0-.963-.4c-.01 0-.015 0-.025-.01l-.016.052c.005 0 .015 0 .02.01a1.485 1.485 0 0 1 .42.484z" fill="#fff"/><path d="M29.885 31.34l.193-.226-.2-.068c.287-.14.915-.523.7-1.768l-.032-.167-.02.168c-.1.628-.236.847-.346.936a1.19 1.19 0 0 0 .02-.564 1.556 1.556 0 0 0-.2-.46 2.317 2.317 0 0 0-.4-.44c-.1-.094-.2-.188-.313-.282-.147-.13-.3-.262-.45-.4h.5l-.4-.33a7.048 7.048 0 0 1 .8.225l.078.042-.04-.078a2.562 2.562 0 0 0-.347-.47 3.738 3.738 0 0 1 .91.417l.142.13-.1-.16a3.35 3.35 0 0 0-.565-.618c-.078-.08-.136-.136-.177-.173l.392.063c.03.016.068.03.1.047a4.5 4.5 0 0 1 1.392.837 1.685 1.685 0 0 1 .47 1.166 3.308 3.308 0 0 1-.067.936 1.792 1.792 0 0 1-.34.717 2.284 2.284 0 0 1-1.135.94 1.427 1.427 0 0 1 .15-.22 1.668 1.668 0 0 0 .232-.36l.026-.073-.44.277.11-.314-.063.026a3.123 3.123 0 0 1-.58.243z" fill="#d80201"/><path d="M29.74 27.212a1.455 1.455 0 0 1-.33-.1c-.064-.026-.127-.047-.184-.068a3.613 3.613 0 0 1-.68-.256c-.052-.026-.1-.053-.152-.084a2.987 2.987 0 0 0-.47-.225.547.547 0 0 0-.47.03.3.3 0 0 0-.116.262c.01.3.26.418.486.528l.073.032a2.682 2.682 0 0 1 .675.544c.032.03.063.062.1.094.188.188.392.366.59.538.1.095.21.183.31.278a1.778 1.778 0 0 1 .58.863l-.058.072c-.016-.152-.125-.5-.69-.978a3.34 3.34 0 0 0-1.088-.67l-.037-.01a2.57 2.57 0 0 1-.994-.47 1.61 1.61 0 0 1-.414-1.565.407.407 0 0 1 .2-.24.11.11 0 0 1 .037-.012.492.492 0 0 1 .22.058c.025.01.046.02.067.03a3.966 3.966 0 0 1 .428.18c.67.34 1.355.663 1.993.967l.032.015-.393-.068.084.068a2.286 2.286 0 0 1 .2.184z" fill="#9ba59b"/><path d="M29.932 27.646c-.063-.026-.136-.052-.214-.083zm2.113 1.512a1.71 1.71 0 0 0-.486-1.2 2.647 2.647 0 0 0-.613-.46 8.445 8.445 0 0 0-.785-.392c-.1-.047-.21-.094-.314-.147-.643-.3-1.323-.628-1.992-.963-.142-.068-.283-.126-.434-.183a.61.61 0 0 1-.068-.026.438.438 0 0 0-.24-.063.235.235 0 0 0-.06.01.214.214 0 0 0-.082.053.562.562 0 0 0-.147.22 1.624 1.624 0 0 0 .3 1.49.992.992 0 0 0 .125.136 2.568 2.568 0 0 0 1.015.48l.036.012a3.16 3.16 0 0 1 1.068.66 1.978 1.978 0 0 1 .617.757.546.546 0 0 1 .058.25l-.016.11.136-.182a1.375 1.375 0 0 1-.047.545l-.016.062.058-.03c.1-.053.24-.184.35-.634.017-.063.032-.13.047-.21l.016.21a1.267 1.267 0 0 1-.773 1.36l-.063.026.25.083-.224.277h.058a2.108 2.108 0 0 0 .617-.24l-.115.34.424-.272c-.047.078-.12.177-.183.26-.114.153-.177.242-.177.294v.037l.03-.012a2.257 2.257 0 0 0 1.22-.973 1.85 1.85 0 0 0 .345-.737 3.232 3.232 0 0 0 .067-.95zm-1.95.56a.673.673 0 0 0-.037-.157.385.385 0 0 0-.027-.067.433.433 0 0 0-.04-.08 1.6 1.6 0 0 0-.21-.3c-.016-.015-.03-.036-.047-.05a2.63 2.63 0 0 0-.324-.31 3.27 3.27 0 0 0-1.09-.675l-.036-.01a2.5 2.5 0 0 1-.993-.47c-.03-.032-.062-.058-.1-.095v-.01c-.025-.027-.046-.063-.072-.095a.133.133 0 0 1-.016-.026.373.373 0 0 1-.057-.094 1.694 1.694 0 0 1-.162-.376.26.26 0 0 1-.02-.063c-.012-.043-.017-.08-.027-.122a1.02 1.02 0 0 1-.02-.125v-.042a.892.892 0 0 1-.012-.124 1.073 1.073 0 0 1 .073-.393.87.87 0 0 1 .11-.172.277.277 0 0 1 .042-.04.1.1 0 0 1 .05-.027.108.108 0 0 1 .043-.01.49.49 0 0 1 .215.057c.026.01.047.02.068.03a3.585 3.585 0 0 1 .428.18c.67.34 1.355.663 1.993.967l.032.015-.394-.068.084.068a2.286 2.286 0 0 1 .194.183 1.455 1.455 0 0 1-.33-.1c-.063-.026-.126-.047-.183-.068a3.613 3.613 0 0 1-.68-.256c-.05-.025-.1-.052-.15-.083a3.215 3.215 0 0 0-.47-.225.547.547 0 0 0-.472.032.132.132 0 0 0-.047.047.18.18 0 0 0-.036.053.34.34 0 0 0-.03.152c.01.3.26.423.485.533a.5.5 0 0 1 .072.037c.042.02.084.047.126.068s.09.063.13.094a.253.253 0 0 1 .048.037 1.05 1.05 0 0 1 .126.1c.083.073.167.157.245.236l.1.1c.188.188.392.36.59.533.1.095.21.183.31.278.036.037.072.07.1.1a.843.843 0 0 1 .067.064 1.615 1.615 0 0 1 .225.293.228.228 0 0 1 .046.073l.037.068.04.084.038.115a.388.388 0 0 1 .022.063zm-.817-2.318a.494.494 0 0 1 .13.105 2.357 2.357 0 0 1 .29.382c-.237-.084-.833-.22-.86-.23l-.114-.026.34.278.01.005.115.1h-.4a.887.887 0 0 1-.08-.073l-.1-.094a3.3 3.3 0 0 0-.366-.34c-.042-.032-.084-.063-.13-.094l-.043-.027c-.046-.03-.1-.062-.145-.088a.513.513 0 0 1-.08-.037c-.218-.105-.443-.214-.45-.48a.225.225 0 0 1 .007-.064.13.13 0 0 1 .01-.042v-.01a.248.248 0 0 1 .073-.1.5.5 0 0 1 .42-.02 2.467 2.467 0 0 1 .464.224l.15.08a3.564 3.564 0 0 0 .69.26c.06.016.116.042.18.063a1.25 1.25 0 0 0 .407.11c.026.022.13.116.246.23.073.074.15.163.22.247a3.566 3.566 0 0 0-.388-.183c-.052-.016-.11-.042-.167-.063-.12-.046-.25-.1-.408-.156a.048.048 0 0 0-.026 0l-.016.052a.03.03 0 0 1 .02-.006zm2.647 2.7a1.792 1.792 0 0 1-.34.717 2.284 2.284 0 0 1-1.135.94 1.72 1.72 0 0 1 .15-.218 1.473 1.473 0 0 0 .232-.367l.026-.068-.44.282.11-.32-.063.032a4.42 4.42 0 0 1-.575.24l.188-.225-.2-.068a1.325 1.325 0 0 0 .742-1.38 1.13 1.13 0 0 0-.015-.184c-.006-.068-.016-.13-.026-.2l-.028-.167-.026.167c-.026.147-.052.277-.078.382l-.03.12a1.057 1.057 0 0 1-.06.168s0 .015-.01.02a.446.446 0 0 1-.03.07.592.592 0 0 1-.132.176 1.23 1.23 0 0 0 .016-.565.14.14 0 0 0-.01-.048.756.756 0 0 0-.037-.1.838.838 0 0 0-.042-.1.91.91 0 0 0-.11-.2 2.292 2.292 0 0 0-.392-.445c-.11-.1-.208-.188-.313-.277l-.455-.408h.5l-.4-.33a7.422 7.422 0 0 1 .8.225l.078.042-.04-.078a1.167 1.167 0 0 0-.07-.11c-.015-.032-.036-.058-.052-.084a1.642 1.642 0 0 0-.188-.23c-.01-.016-.026-.03-.037-.047l.11.047c.063.02.115.042.168.063l.215.083a.72.72 0 0 0 .073.037.448.448 0 0 1 .09.037c.036.015.067.036.1.052a.61.61 0 0 1 .057.03.826.826 0 0 1 .1.07l.142.13-.1-.162a2.1 2.1 0 0 0-.282-.34.946.946 0 0 0-.1-.105.264.264 0 0 0-.04-.04c-.08-.075-.137-.122-.148-.132a1.855 1.855 0 0 0-.172-.173l.392.063c.036.016.068.03.1.047.236.105.47.214.7.34a1.93 1.93 0 0 1 .183.105l.178.115a2.238 2.238 0 0 1 .324.277 1.685 1.685 0 0 1 .47 1.165 3.308 3.308 0 0 1-.067.925z"/></svg>