<svg xmlns="http://www.w3.org/2000/svg" viewBox="0 0 55 55" enable-background="new 0 0 55 55"><style type="text/css">.st0{fill:#53AE94;} .st1{fill:#FFFFFF;}</style><g id="_2081025168608"><path class="st0" d="M27.5 4.2c12.9 0 23.3 10.4 23.3 23.3S40.4 50.8 27.5 50.8 4.2 40.4 4.2 27.5 14.6 4.2 27.5 4.2z"/><path class="st1" d="M30.4 24.4v-3.5h7.9v-5.3H16.7v5.3h7.9v3.5c-6.4.3-11.3 1.6-11.3 3.1s4.8 2.8 11.3 3.1v11.1h5.7V30.6c6.4-.3 11.3-1.6 11.3-3.1.1-1.5-4.8-2.8-11.2-3.1zm0 5.3c-.2 0-1 .1-2.8.1-1.5 0-2.5 0-2.9-.1-5.7-.3-10-1.2-10-2.4s4.3-2.2 10-2.4v3.9c.4 0 1.4.1 2.9.1 1.8 0 2.7-.1 2.8-.1v-3.9c5.7.3 9.9 1.2 9.9 2.4 0 1.1-4.2 2.1-9.9 2.4zm0 0z"/></g></svg>