<svg xmlns="http://www.w3.org/2000/svg" viewBox="0 0 55 55"><path d="M49.466 35.265a22.66 22.66 0 0 1-1.794 3.886c-.256.44-.523.875-.8 1.293H8.132c-.28-.418-.553-.852-.8-1.292a22.736 22.736 0 0 1-1.793-3.885z" fill="#fff"/><path d="M50.654 30.092a22.72 22.72 0 0 1-1.188 5.173H5.534a22.725 22.725 0 0 1-1.193-5.173zM46.867 40.443a23.54 23.54 0 0 1-4.75 5.184h-29.24a23.4 23.4 0 0 1-4.744-5.184z" fill="#0738a6"/><path d="M42.118 45.627a23.248 23.248 0 0 1-29.24 0zM49.466 19.73H5.534a22.865 22.865 0 0 1 1.794-3.88c.25-.44.523-.875.8-1.293h38.74c.28.418.548.852.8 1.292a22.787 22.787 0 0 1 1.798 3.88zM50.8 27.5a22.468 22.468 0 0 1-.146 2.595H4.34a23.895 23.895 0 0 1 0-5.184h46.314a22.44 22.44 0 0 1 .146 2.59z" fill="#fff"/><path d="M46.867 14.557H8.133c.136-.2.272-.4.408-.59.064-.095.132-.184.2-.273a22.182 22.182 0 0 1 2.14-2.506c.094-.1.2-.21.3-.308a21.84 21.84 0 0 1 1.69-1.507h29.248a23.428 23.428 0 0 1 4.75 5.184z" fill="#0738a6"/><path d="M42.118 9.373h-29.24c.12-.1.235-.193.354-.282.136-.11.272-.214.414-.313A23.17 23.17 0 0 1 27.5 4.2a23.62 23.62 0 0 1 2.59.14 23.162 23.162 0 0 1 12.028 5.033z" fill="#fff"/><path d="M50.654 24.908H4.34a22.83 22.83 0 0 1 1.194-5.178h43.932a22.822 22.822 0 0 1 1.188 5.178z" fill="#0738a6"/><path d="M30.09 4.34v25.752H4.34a23.895 23.895 0 0 1 0-5.184 23.256 23.256 0 0 1 2.988-9.06c.25-.44.523-.873.8-1.29.136-.2.272-.4.408-.592.063-.094.13-.183.2-.272a22.182 22.182 0 0 1 2.14-2.506c.093-.1.2-.21.3-.308a21.84 21.84 0 0 1 1.69-1.507c.12-.1.235-.193.354-.282.136-.11.272-.214.414-.313A23.17 23.17 0 0 1 27.5 4.2a23.62 23.62 0 0 1 2.59.14z" fill="#fff"/><path d="M13.646 10.576c.094.162.214.382.376.69a3.7 3.7 0 0 1 .43 1.674 1.5 1.5 0 0 1-.012.2l1.407.978a11.4 11.4 0 0 0-.6-1.6 8.837 8.837 0 0 0-1.308-2.045l-.037-.053a2.557 2.557 0 0 1-.534-1.213c0 .016-.006.037-.006.052a1.693 1.693 0 0 0-.016.58 1.9 1.9 0 0 0 .298.736zM14.07 10.383a9.085 9.085 0 0 1 1.33 2.07 11.965 11.965 0 0 1 .554 1.45l.21-1.146a6.286 6.286 0 0 0-1.042-1.83 4.825 4.825 0 0 0-1.14-.958 1.036 1.036 0 0 1-.382-.47c-.006-.01-.01-.026-.016-.037a2.557 2.557 0 0 0 .445.863c.013.02.03.036.04.057zM16.34 14.04a3.02 3.02 0 0 1 .72-.106V8.688l-.977 5.43a2.168 2.168 0 0 1 .256-.08zM18.206 14.117l-.983-5.43v5.247c.078.005.157.005.23.016a2.854 2.854 0 0 1 .753.167zM19.07 12.532a7.69 7.69 0 0 0 .47-2c.016-.13.036-.272.063-.43a2.5 2.5 0 0 1 .48-1.233 1.947 1.947 0 0 0-.465.428 1.24 1.24 0 0 0-.146.25 4.38 4.38 0 0 0-.157.482c-.052.178-.12.424-.225.753a3.538 3.538 0 0 1-1.025 1.617l.3 1.684a11.928 11.928 0 0 0 .704-1.552zM19.984 9.425a1.085 1.085 0 0 1 .074-.23 2.825 2.825 0 0 0-.3.926c-.02.158-.04.3-.062.43a7.776 7.776 0 0 1-.47 2.04 10.953 10.953 0 0 1-.634 1.417l.957-.664a6.382 6.382 0 0 0 .56-2.03 4.91 4.91 0 0 0-.132-1.48 1.07 1.07 0 0 1 .006-.408zM18.53 14.248a3.223 3.223 0 0 1 .822.57l3.713-3.708-3.42 2.37zM21.533 16.157a6.38 6.38 0 0 0 1.726-.957c.03-.026.066-.052.1-.078a4.7 4.7 0 0 0 .956-1.14 1.14 1.14 0 0 1 .507-.4 2.77 2.77 0 0 0-.863.443 9.228 9.228 0 0 1-2.123 1.366c-.31.142-.565.246-.795.335l-.277.1-.382.125 1.15.2zM21.145 14.442l-.972 1.407c.183-.06.355-.116.538-.18a11.28 11.28 0 0 0 1.053-.423 9.167 9.167 0 0 0 2.1-1.35 2.5 2.5 0 0 1 1.213-.528c-.015 0-.03 0-.052-.01a1.824 1.824 0 0 0-.58-.017 1.962 1.962 0 0 0-.733.3c-.16.09-.38.214-.69.37a3.6 3.6 0 0 1-1.875.43zM20.037 15.755l3.143-4.53-3.708 3.708a3.294 3.294 0 0 1 .565.822zM20.35 17.062h5.25l-5.423-.983a3.278 3.278 0 0 1 .173.982zM20.173 18.208l5.423-.984H20.35a3.284 3.284 0 0 1-.177.984zM24.99 19.62a1.835 1.835 0 0 0-.733-.3l-.748-.225a3.567 3.567 0 0 1-1.627-1.03l-1.683.305a12.513 12.513 0 0 0 1.553.7 8.2 8.2 0 0 0 2.18.49c.08.012.168.028.257.038a2.5 2.5 0 0 1 1.23.487c-.032-.048-.063-.095-.1-.142a1.617 1.617 0 0 0-.33-.323zM23.907 19.725a8.258 8.258 0 0 1-2.212-.5 10.967 10.967 0 0 1-1.417-.632l.663.957a6.293 6.293 0 0 0 2.03.554 4.69 4.69 0 0 0 1.48-.125 1.1 1.1 0 0 1 .414 0 1.183 1.183 0 0 1 .225.072 2.622 2.622 0 0 0-.927-.3c-.09 0-.172-.017-.256-.027zM20.037 18.532c-.01.026-.026.047-.037.073a3.4 3.4 0 0 1-.528.748l3.708 3.71-2.375-3.422zM18.53 20.038l4.535 3.14-3.713-3.71a3.2 3.2 0 0 1-.822.57zM20.638 23.71c-.09-.162-.21-.38-.37-.69a3.506 3.506 0 0 1-.42-1.873l-1.406-.978a11.41 11.41 0 0 0 .57 1.532l.03.063a9.247 9.247 0 0 0 1.345 2.1 2.467 2.467 0 0 1 .528 1.214.167.167 0 0 0 .01-.054 1.656 1.656 0 0 0-.287-1.313zM18.89 21.833c-.01-.02-.014-.037-.024-.058-.126-.277-.226-.518-.3-.737s-.157-.44-.225-.654l-.208 1.145a6.32 6.32 0 0 0 1.04 1.83 4.806 4.806 0 0 0 1.135.957 1.02 1.02 0 0 1 .382.47l.015.038a2.516 2.516 0 0 0-.445-.864 9.255 9.255 0 0 1-1.37-2.127zM17.223 20.352V25.6l.983-5.43a3.106 3.106 0 0 1-.983.182zM17.06 25.6v-5.248a3.1 3.1 0 0 1-.977-.183zM15.22 21.754a6.255 6.255 0 0 0-.387 1.465c-.042.25-.084.558-.147.966a2.506 2.506 0 0 1-.48 1.235c.046-.03.093-.067.135-.1a1.607 1.607 0 0 0 .634-1.06c.047-.178.12-.424.225-.754a3.772 3.772 0 0 1 .564-1.12 2.94 2.94 0 0 1 .46-.5l-.3-1.683a11.218 11.218 0 0 0-.704 1.55zM14.3 24.866a.823.823 0 0 1-.073.225 2.6 2.6 0 0 0 .3-.925c.062-.408.1-.72.146-.972a6.507 6.507 0 0 1 .392-1.5 11.038 11.038 0 0 1 .633-1.418l-.957.664a6.4 6.4 0 0 0-.56 2.024 4.564 4.564 0 0 0 .132 1.485.984.984 0 0 1-.012.416zM14.932 19.468l-3.708 3.71 4.53-3.14a3.3 3.3 0 0 1-.822-.57zM14.252 18.532L13.165 20.1l-2.056 2.966 3.707-3.71a3.307 3.307 0 0 1-.565-.824zM12.945 19.84h.193l.978-1.407c-.183.057-.355.115-.538.178-.3.1-.628.23-1.057.424a9.325 9.325 0 0 0-2.1 1.35 2.477 2.477 0 0 1-1.213.528 2.008 2.008 0 0 0 .633.026 1.877 1.877 0 0 0 .732-.3c.163-.09.387-.214.69-.37a3.652 3.652 0 0 1 1.683-.428zM10.926 19.165a4.4 4.4 0 0 0-.858.994c-.03.046-.063.093-.1.145a1.09 1.09 0 0 1-.508.4 2.777 2.777 0 0 0 .87-.445 9.16 9.16 0 0 1 2.122-1.365 10.836 10.836 0 0 1 1.072-.434l.377-.125-1.145-.2a6.505 6.505 0 0 0-1.83 1.03zM13.944 16.916a3.27 3.27 0 0 1 .172-.837l-5.423.982h5.245a1.188 1.188 0 0 1 .006-.146zM14.116 18.208a3.136 3.136 0 0 1-.178-.984H8.693l3.776.686zM12.59 15.064a12.642 12.642 0 0 1 1.418.628l-.665-.957a6.307 6.307 0 0 0-2.03-.555 4.7 4.7 0 0 0-1.48.126 1.076 1.076 0 0 1-.412-.006.972.972 0 0 1-.224-.073 2.548 2.548 0 0 0 .926.3 9.092 9.092 0 0 1 2.468.537zM9.3 14.667a1.8 1.8 0 0 0 .728.3c.177.052.423.125.752.225a3.53 3.53 0 0 1 1.622 1.03l1.684-.308a11.74 11.74 0 0 0-1.548-.7 9.308 9.308 0 0 0-2.437-.53 2.525 2.525 0 0 1-1.235-.484c.016.026.037.047.053.073a1.626 1.626 0 0 0 .382.394zM14.252 15.755a.465.465 0 0 1 .037-.074 3.4 3.4 0 0 1 .527-.747l-3.708-3.708L14.14 15.6zM15.753 14.248l-4.53-3.138 3.71 3.708a3.422 3.422 0 0 1 .82-.57zM18.682 16.152a.243.243 0 0 1-.026-.005c.026.094.094.4-.094.512a.017.017 0 0 1-.016.005 1.154 1.154 0 0 0 .34-.142.72.72 0 0 0-.02-.287c-.074-.036-.142-.068-.184-.084zM15.728 16.66c-.194-.116-.12-.42-.1-.513-.01 0-.016.005-.026.005a1.63 1.63 0 0 0-.188.084.788.788 0 0 0-.016.287 1.154 1.154 0 0 0 .34.142.016.016 0 0 1-.01-.006zM20.188 17.062A3.01 3.01 0 0 0 20 16.1c0-.016 0-.027-.01-.042l-.006-.006L19.97 16a.113.113 0 0 1-.022-.047.127.127 0 0 1-.02-.042.213.213 0 0 0-.022-.046 3.01 3.01 0 0 0-.554-.816.63.63 0 0 0-.058-.057.318.318 0 0 0-.058-.057 2.7 2.7 0 0 0-.486-.376 2.4 2.4 0 0 0-.4-.21l-.016-.01c-.016 0-.037-.01-.052-.016a2.953 2.953 0 0 0-.848-.208 2.86 2.86 0 0 0-.293-.01 3.073 3.073 0 0 0-.762.094 2.6 2.6 0 0 0-.335.1s0 .006-.01.006a.022.022 0 0 1-.016.005l-.017.01a.282.282 0 0 1-.052.02l-.026.016s-.01.005-.016.005a3.41 3.41 0 0 0-.37.2 2.85 2.85 0 0 0-.55.434 3.076 3.076 0 0 0-.555.764 1.5 1.5 0 0 0-.093.2c0 .01-.01.026-.016.037s0 .01 0 .01l-.014.047a2.982 2.982 0 0 0-.2.884V17.227a3.157 3.157 0 0 0 .183.968.28.28 0 0 0 .014.037l.02.057c.012.015.012.03.022.046s.01.026.016.042a.162.162 0 0 1 .02.047 3.09 3.09 0 0 0 .56.816.558.558 0 0 0 .053.06c.02.02.04.035.062.056a2.647 2.647 0 0 0 .492.377 2.54 2.54 0 0 0 .323.178c.017 0 .026.016.042.022l.042.015a.2.2 0 0 0 .052.02.27.27 0 0 0 .04.022l.05.015a3.01 3.01 0 0 0 .966.188h.167A3.047 3.047 0 0 0 18.2 20a.253.253 0 0 0 .036-.016h.006l.047-.02a.2.2 0 0 0 .05-.022l.038-.015c.015-.006.03-.016.047-.02a2.547 2.547 0 0 0 .32-.18 2.61 2.61 0 0 0 .5-.376.63.63 0 0 0 .057-.056l.058-.058a2.79 2.79 0 0 0 .5-.706 1.092 1.092 0 0 0 .052-.11.194.194 0 0 0 .02-.047.138.138 0 0 1 .022-.042.175.175 0 0 1 .02-.046l.016-.047.01-.045a3.02 3.02 0 0 0 .188-.968v-.162zm-2.594.293a.457.457 0 0 1 .262.387.788.788 0 0 1 .214.094.77.77 0 0 1 .178.162c-.005-.01-.037-.02-.052-.026a.374.374 0 0 1-.053-.026c-.04-.016-.078-.03-.114-.047a.848.848 0 0 0-.535-.048.494.494 0 0 1-.7 0 1.1 1.1 0 0 0-.26-.02.978.978 0 0 0-.273.067c-.042.015-.08.03-.115.046-.016.01-.037.016-.052.026s-.01.006-.022.006a.088.088 0 0 1-.026.01 1.12 1.12 0 0 1 .167-.152.825.825 0 0 1 .22-.094c.058-.324.256-.387.256-.387-.308.466.126.372.173.32-.01.16.173.177.25.172h.064c.078 0 .26-.01.246-.173.05.053.485.147.17-.32zm-.408 1.7H17.1a1.352 1.352 0 0 1-.544-.09 2.684 2.684 0 0 0-.654-.318 1.45 1.45 0 0 1 .146.01 2.21 2.21 0 0 1 .586.152 2.25 2.25 0 0 0 1.015 0 2.236 2.236 0 0 1 .58-.153c.093-.01.146-.01.146-.01a2.76 2.76 0 0 0-.65.32 1.364 1.364 0 0 1-.54.083zm.272.356h-.026a.22.22 0 0 0-.073-.01c-.06 0-.137-.01-.216-.01h-.115a.72.72 0 0 1-.1 0c-.065 0-.106.01-.106.01a.577.577 0 0 1 .1-.04.826.826 0 0 1 .1-.022.2.2 0 0 1 .058-.01h.062a.785.785 0 0 1 .12.005.184.184 0 0 0 .053.01.18.18 0 0 1 .047.016.33.33 0 0 1 .073.03zm.77-.83a2.36 2.36 0 0 1-.66-.006 1.8 1.8 0 0 0-.392.026.134.134 0 0 1-.063 0 1.835 1.835 0 0 0-.392-.026 2.377 2.377 0 0 1-.658.005c-.073-.006-.157-.017-.256-.027a3.773 3.773 0 0 0 .67-.147 1.124 1.124 0 0 1 .543-.036c.02.005.05.015.077.02a.266.266 0 0 0 .09 0l.078-.015a1.085 1.085 0 0 1 .55.03 3.773 3.773 0 0 0 .668.148c-.1.005-.183.016-.256.02zm-3.322-2.606c-.037 0-.084-.026-.052-.068 0 0 .005 0 .005-.01s.03-.02.046-.032l.288-.162a1.15 1.15 0 0 1 .89-.188 1.63 1.63 0 0 1 .647.423c.027.027.1.115.033.126s-.173-.115-.22-.147a1.317 1.317 0 0 0-.826-.188 1.723 1.723 0 0 0-.424.09c-.063.025-.13.046-.193.078a.48.48 0 0 1-.194.073zm.4.486a.722.722 0 0 1 .068.048.618.618 0 0 1 0-.136.26.26 0 0 1 .02-.063c0-.012.012-.06.023-.064-.052.02-.1.052-.147.073s-.084.046-.126.067c-.02.01-.057.037-.078.032s-.015-.012-.005-.022a1.54 1.54 0 0 1 .756-.398.82.82 0 0 1 .67.173c.14.12.094.22.094.22a1.686 1.686 0 0 0-.3-.22.557.557 0 0 1-.063.262.55.55 0 0 1-.32.256.542.542 0 0 0 .326-.072.842.842 0 0 0 .167-.12.22.22 0 0 1 .047-.027.105.105 0 0 1 .042 0 .047.047 0 0 1 .02.022.066.066 0 0 1 0 .053.318.318 0 0 1-.094.09.676.676 0 0 1-.24.108.8.8 0 0 1-.618-.083c-.318-.168-.28-.23-.248-.205zm.225 2.26a.09.09 0 0 0-.004-.02.217.217 0 0 1 0-.058.716.716 0 0 1 .026-.084.322.322 0 0 0 .022-.042c.01-.01.015-.026.025-.037a.872.872 0 0 1 .067-.07l.068-.05a.526.526 0 0 0 .053-.027.06.06 0 0 0 .02 0l-.015.015a.55.55 0 0 0-.037.042.117.117 0 0 0-.025.032c-.01.005-.016.02-.026.026s-.02.026-.03.036a.084.084 0 0 0-.028.032.436.436 0 0 0-.052.073.64.64 0 0 0-.036.062.316.316 0 0 0-.03.063zm3.24-.02a.09.09 0 0 0 0 .02.316.316 0 0 0-.028-.073l-.036-.063a.39.39 0 0 0-.053-.073c-.01-.01-.015-.025-.026-.03s-.02-.027-.03-.037-.017-.02-.027-.026a.146.146 0 0 1-.026-.032.373.373 0 0 1-.036-.042l-.017-.015a.06.06 0 0 0 .022 0 .526.526 0 0 0 .053.026l.068.052c.02.02.04.042.062.068a.132.132 0 0 1 .026.037.307.307 0 0 0 .028.043.716.716 0 0 1 .026.084zm.46-2.28c-.027 0-.064-.022-.085-.033l-.125-.068s-.09-.053-.14-.074c.01 0 .02.052.02.063a.26.26 0 0 1 .02.062.618.618 0 0 1 0 .136.824.824 0 0 1 .068-.048c.032-.026.074.037-.235.21a.807.807 0 0 1-.622.083.694.694 0 0 1-.235-.11.276.276 0 0 1-.094-.088.066.066 0 0 1 0-.053.043.043 0 0 1 .022-.02.105.105 0 0 1 .042 0 .12.12 0 0 1 .042.025.977.977 0 0 0 .167.12.566.566 0 0 0 .33.074.55.55 0 0 1-.325-.255.633.633 0 0 1-.057-.262h-.005a1.93 1.93 0 0 0-.3.22s-.04-.1.1-.22a.815.815 0 0 1 .653-.183 1.515 1.515 0 0 1 .758.393c.01.007.016.02 0 .02zm.156-.446a.455.455 0 0 1-.194-.078 1.944 1.944 0 0 0-.2-.08 1.694 1.694 0 0 0-.42-.088 1.317 1.317 0 0 0-.825.188c-.047.032-.157.163-.22.147s0-.1.032-.126a1.63 1.63 0 0 1 .647-.423 1.143 1.143 0 0 1 .884.188c.1.052.2.11.294.162.016.01.037.016.047.032s0 .005 0 .01c.03.037-.01.063-.047.063z" fill="#fbd023"/><path d="M25.445 19.845c-.032-.042-.063-.08-.094-.115a1.7 1.7 0 0 0-.266-.246 2.128 2.128 0 0 0-.78-.33c-.177-.047-.417-.12-.747-.22a3.456 3.456 0 0 1-1.48-.9l4.89-.888-5.12-.926a6.943 6.943 0 0 0 1.506-.884c.036-.026.073-.058.11-.084a3.287 3.287 0 0 0 .648-.69c.106-.142.215-.3.34-.482.346-.5 1-.444 1.43-.407l.344.02-.293-.177a2.706 2.706 0 0 0-.883-.31 2.016 2.016 0 0 0-.633-.02 1.973 1.973 0 0 0-.78.324c-.16.09-.386.21-.69.367a3.51 3.51 0 0 1-1.69.413l2.836-4.09-4.273 2.96a7.178 7.178 0 0 0 .455-1.82 4.824 4.824 0 0 0-.13-1.533.89.89 0 0 1 .005-.35.512.512 0 0 1 .02-.084 2.03 2.03 0 0 1 .69-.868l.268-.225-.335.084a2.527 2.527 0 0 0-1.3.837 1.126 1.126 0 0 0-.11.173 1.166 1.166 0 0 0-.058.11 4.343 4.343 0 0 0-.162.5c-.052.178-.12.424-.225.748a3.524 3.524 0 0 1-.9 1.486l-.513-2.84-.13-.71-.242-1.346-.25 1.342-.125.71-.555 3.066a7.114 7.114 0 0 0-.968-1.61 4.89 4.89 0 0 0-1.177-.995.9.9 0 0 1-.324-.4c-.004-.02-.015-.042-.02-.063a1.627 1.627 0 0 1-.083-.6c-.142.1-.278.2-.414.314l-.03.146c-.006.047-.017.094-.017.136a1.59 1.59 0 0 0 0 .5 2.073 2.073 0 0 0 .32.785c.088.163.21.382.37.69a3.458 3.458 0 0 1 .41 1.685l-3.1-2.15c-.1.1-.21.2-.3.31l2.274 3.284a7.062 7.062 0 0 0-1.82-.46 5.168 5.168 0 0 0-1.532.13.78.78 0 0 1-.35-.006 1.414 1.414 0 0 1-.712-.444c-.073.09-.14.178-.2.272a2.743 2.743 0 0 0 .24.4 1.893 1.893 0 0 0 .157.194 1.657 1.657 0 0 0 .257.244 2.064 2.064 0 0 0 .784.324c.173.052.42.12.748.225a3.52 3.52 0 0 1 1.48.904l-3.55.646-1.345.24 5.126.932a6.742 6.742 0 0 0-1.616.967 3.446 3.446 0 0 0-.654.69c-.073.1-.152.214-.236.335-.03.047-.067.1-.1.146-.34.5-.994.446-1.423.414l-.345-.03.292.182a2.5 2.5 0 0 0 .826.3 2.18 2.18 0 0 0 .445.047 1.834 1.834 0 0 0 .24-.015 2.122 2.122 0 0 0 .785-.325c.162-.09.387-.21.69-.366a3.486 3.486 0 0 1 1.69-.408l-2.84 4.084 4.278-2.97a6.93 6.93 0 0 0-.455 1.83 4.788 4.788 0 0 0 .132 1.527.886.886 0 0 1-.006.357.438.438 0 0 1-.02.073 2.006 2.006 0 0 1-.7.874l-.262.225.334-.085a2.71 2.71 0 0 0 .947-.476 1.772 1.772 0 0 0 .355-.362 1.4 1.4 0 0 0 .115-.178 2.846 2.846 0 0 0 .215-.6c.052-.178.12-.42.225-.748a3.468 3.468 0 0 1 .9-1.486l.513 2.835.37 2.062.372-2.06.554-3.06a6.244 6.244 0 0 0 .4.784 7.983 7.983 0 0 0 .57.826 4.846 4.846 0 0 0 1.177.994.914.914 0 0 1 .325.4.22.22 0 0 0 .02.057 2.39 2.39 0 0 1 .063.973l-.026.345.178-.3a2.538 2.538 0 0 0 .314-.878 1.352 1.352 0 0 0 .016-.14 1.55 1.55 0 0 0 0-.492 2.073 2.073 0 0 0-.32-.785c-.094-.162-.214-.382-.37-.685a3.5 3.5 0 0 1-.41-1.69l4.086 2.835-2.965-4.278a6.963 6.963 0 0 0 1.826.455 4.864 4.864 0 0 0 1.532-.126.882.882 0 0 1 .35 0 1.887 1.887 0 0 1 .947.717l.225.26-.078-.334a2.794 2.794 0 0 0-.477-.945zm-5.272-1.637a3.187 3.187 0 0 0 .177-.984h5.25zM20 18.192l-.016.047-.015.046a.175.175 0 0 0-.022.047.138.138 0 0 0-.02.042.194.194 0 0 1-.022.047 1.092 1.092 0 0 1-.052.11 2.79 2.79 0 0 1-.5.706l-.058.058a.63.63 0 0 1-.058.057 2.61 2.61 0 0 1-.5.377 2.547 2.547 0 0 1-.32.178c-.015 0-.03.015-.046.02l-.037.016a.2.2 0 0 1-.052.02l-.047.022h-.006a.253.253 0 0 1-.03.014 3.047 3.047 0 0 1-.968.188h-.167a3.01 3.01 0 0 1-.97-.188l-.05-.016a.27.27 0 0 1-.045-.02.2.2 0 0 1-.052-.02l-.042-.015c-.016-.007-.025-.017-.042-.022a2.54 2.54 0 0 1-.324-.178 2.647 2.647 0 0 1-.492-.377c-.02-.02-.04-.036-.062-.057a.558.558 0 0 1-.053-.058 3.09 3.09 0 0 1-.56-.816.162.162 0 0 0-.02-.047c0-.016-.01-.026-.016-.042s-.01-.03-.02-.047l-.022-.057a.28.28 0 0 1-.015-.038 3.157 3.157 0 0 1-.183-.968V16.932a2.982 2.982 0 0 1 .2-.885L14.32 16v-.01l.016-.037a1.5 1.5 0 0 1 .094-.2 3.076 3.076 0 0 1 .555-.764 2.85 2.85 0 0 1 .55-.435 3.41 3.41 0 0 1 .37-.2s.01-.005.016-.005.017-.01.027-.016a.282.282 0 0 0 .053-.018l.016-.005a.022.022 0 0 0 .016-.004s0-.006.01-.006a2.6 2.6 0 0 1 .335-.1 3.073 3.073 0 0 1 .763-.094 2.86 2.86 0 0 1 .293.01 2.953 2.953 0 0 1 .848.21l.053.015.016.01a2.4 2.4 0 0 1 .4.21 2.7 2.7 0 0 1 .485.377.318.318 0 0 1 .058.058.63.63 0 0 1 .058.057 3.01 3.01 0 0 1 .555.816.213.213 0 0 1 .02.047.127.127 0 0 0 .022.042.113.113 0 0 0 .02.047l.016.047.006.007c.004.015.004.026.01.042a3.01 3.01 0 0 1 .187.966v.162a3.02 3.02 0 0 1-.187.964zm5.6-1.13h-5.25a3.13 3.13 0 0 0-.177-.983zm-1.28-3.08c-.153.22-.284.407-.41.575a3.068 3.068 0 0 1-.548.56c-.032.03-.068.057-.1.083a6.248 6.248 0 0 1-1.726.957l-1.15-.2.38-.125.273-.1c.234-.09.49-.193.794-.334a.857.857 0 0 0 .136-.063l.125-.058a1.167 1.167 0 0 1 .126-.057c.074-.042.142-.08.21-.115l.1-.058c.084-.052.173-.11.267-.167.037-.026.068-.053.11-.08a.35.35 0 0 1 .042-.025 1.108 1.108 0 0 0 .093-.068c.037-.026.084-.057.125-.09s.053-.035.08-.056c.192-.14.423-.308.71-.528a2.77 2.77 0 0 1 .863-.444 1.114 1.114 0 0 0-.505.393zm-1.3.036c.307-.162.527-.282.69-.37a1.962 1.962 0 0 1 .73-.3 1.827 1.827 0 0 1 .582.015c.016.005.037.005.052.01a2.5 2.5 0 0 0-1.213.53c-.38.286-.658.5-.883.658a6.438 6.438 0 0 1-.586.377c-.025.016-.046.026-.07.042-.07.036-.138.072-.216.11l-.163.077s-.108.058-.17.084c-.43.195-.76.32-1.063.43-.178.058-.35.115-.533.167l.894-1.286.078-.114h.006a3.6 3.6 0 0 0 1.866-.428zm-2.15.54l-.832 1.2a3.185 3.185 0 0 0-.57-.823l.38-.376 3.328-3.333zm2.19-3.448l-3.708 3.708c-.042-.042-.08-.073-.12-.11-.006-.005-.01-.005-.016-.01l-.02-.016s-.007-.005-.007-.01l-.13-.1a.063.063 0 0 1-.022-.015c0-.006 0-.006-.01-.006-.037-.03-.074-.056-.11-.082s-.07-.042-.1-.063h-.016V14.4a.4.4 0 0 1-.073-.042s-.01-.006-.017-.006c-.057-.036-.12-.062-.183-.094l1.114-.774zm-3.08-1.277a4.928 4.928 0 0 1 .13 1.486 6.505 6.505 0 0 1-.56 2.028l-.957.66a11.843 11.843 0 0 0 .633-1.418 7.9 7.9 0 0 0 .476-2.04c.016-.13.037-.272.057-.43.01-.072.026-.145.04-.213a1.22 1.22 0 0 1 .048-.194 1.854 1.854 0 0 1 .058-.178 1.02 1.02 0 0 1 .052-.13c0-.01.006-.016.01-.027a1.738 1.738 0 0 1 .09-.178 1.27 1.27 0 0 0-.058.173l-.016.052a1.07 1.07 0 0 0-.005.408zm-.89.942c.105-.33.173-.57.225-.748a4.38 4.38 0 0 1 .157-.48.79.79 0 0 1 .094-.174c.016-.026.032-.047.052-.078a2.055 2.055 0 0 1 .466-.43 2.19 2.19 0 0 0-.293.508c-.02.047-.035.1-.05.147s-.043.12-.06.177a2.88 2.88 0 0 0-.077.4c-.027.157-.047.3-.063.43a7.69 7.69 0 0 1-.47 2 11.293 11.293 0 0 1-.7 1.553l-.3-1.684a3.534 3.534 0 0 0 1.02-1.62zm-1.862-2.082l.12.68.858 4.744a3.13 3.13 0 0 0-.752-.167l-.226-.016zm-.288.68l.12-.68v5.24a3.355 3.355 0 0 0-.72.106 2.168 2.168 0 0 0-.257.077zm-2.955.6a4.772 4.772 0 0 1 1.135.958 6.286 6.286 0 0 1 1.04 1.83l-.208 1.14a11.965 11.965 0 0 0-.554-1.45 8.91 8.91 0 0 0-1.33-2.07.352.352 0 0 0-.04-.058 2.64 2.64 0 0 1-.44-.863c0 .015.005.02.016.036a1.04 1.04 0 0 0 .38.473zm.037 1.3c-.162-.31-.288-.53-.37-.69a1.817 1.817 0 0 1-.3-.733 1.174 1.174 0 0 1-.022-.235 1.354 1.354 0 0 1 .01-.136.75.75 0 0 1 .01-.1 1.007 1.007 0 0 1 .017-.11.167.167 0 0 1 .01-.053 1.1 1.1 0 0 0 .02.126c0 .01.007.026.007.036a.647.647 0 0 0 .026.114c.01.042.02.084.036.13s.037.1.058.147.042.1.068.158.058.1.09.162c0 .006.004.01.004.016.026.037.047.08.073.12l.036.053c.037.05.068.1.105.15a.38.38 0 0 1 .042.053 8.837 8.837 0 0 1 1.308 2.045 11.4 11.4 0 0 1 .6 1.6l-1.407-.978a1.5 1.5 0 0 0 .01-.2 3.7 3.7 0 0 0-.43-1.683zm1.73 2.98c-.072.038-.145.08-.218.12s-.11.07-.163.1l-.004.006a.737.737 0 0 0-.11.077.006.006 0 0 0-.005.006.076.076 0 0 0-.02.015 1.178 1.178 0 0 0-.13.1l-.01.01-.017.016c-.005 0-.01 0-.015.01-.042.037-.084.068-.126.11l-.26-.26-3.448-3.454zm-4.643-3.022l3.33 3.333.377.376a3.283 3.283 0 0 0-.528.747c-.012.02-.027.047-.038.074l-.11-.156-.727-1.04zM9.424 14.3a1.05 1.05 0 0 0 .408.006 4.755 4.755 0 0 1 1.485-.126c.1.01.2.026.3.042.073.01.14.026.215.037a.03.03 0 0 0 .02 0 .75.75 0 0 0 .095.02l.094.015c.02.006.036.006.057.01a.37.37 0 0 1 .078.022 1.783 1.783 0 0 1 .2.052h.03a.145.145 0 0 0 .043.01c.08.026.158.047.23.068s.158.052.237.083v.007a3.078 3.078 0 0 1 .423.183l.665.952c-.2-.1-.4-.2-.623-.3s-.48-.2-.795-.324a6.2 6.2 0 0 0-.988-.3c-.153-.032-.32-.058-.53-.094-.04-.006-.088-.016-.14-.02-.037-.007-.073-.017-.116-.022a2.02 2.02 0 0 0-.21-.026c-.083-.016-.177-.027-.276-.042l-.21-.032a2.548 2.548 0 0 1-.925-.3.972.972 0 0 0 .232.078zm1.354.9c-.33-.11-.576-.178-.753-.23a1.868 1.868 0 0 1-.728-.3.68.68 0 0 1-.095-.074c-.015-.01-.026-.026-.042-.036a2.667 2.667 0 0 1-.245-.283.67.67 0 0 0-.053-.073c.037.026.068.052.105.078a1.23 1.23 0 0 1 .1.068 1.578 1.578 0 0 0 .168.09c.036.015.078.036.125.052s.1.042.157.062l.005.006c.042.01.09.026.132.036l.114.032c.1.02.21.042.326.062a9.308 9.308 0 0 1 2.437.53 12.582 12.582 0 0 1 1.548.7l-1.683.307A3.5 3.5 0 0 0 10.78 15.2zm3.336.88a3.265 3.265 0 0 0-.172.84 1.07 1.07 0 0 0-.006.142H8.693zm-5.423 1.144h5.245a3.188 3.188 0 0 0 .178.984l-1.647-.3zm1.282 3.08a1.5 1.5 0 0 1 .093-.14c.11-.162.215-.3.314-.434a2.537 2.537 0 0 1 .22-.256.91.91 0 0 1 .105-.11 1.8 1.8 0 0 1 .22-.2 6.306 6.306 0 0 1 1.83-1.036l1.145.2-.377.126a10.836 10.836 0 0 0-1.072.434l-.293.136c-.057.03-.11.057-.157.078-.005 0-.005.006-.005.006l-.173.094a1.33 1.33 0 0 0-.15.09c-.048.03-.095.056-.142.093a.346.346 0 0 0-.074.047.105.105 0 0 0-.027.016c-.042.026-.078.052-.12.078-.083.063-.178.126-.277.2s-.2.146-.31.23c-.03.02-.062.047-.093.068-.094.068-.194.146-.3.23a2.673 2.673 0 0 1-.87.445 1.094 1.094 0 0 0 .512-.395zm2.97-.464a3.652 3.652 0 0 0-1.68.43c-.3.156-.527.28-.684.37a1.93 1.93 0 0 1-.737.3 2.008 2.008 0 0 1-.633-.026 2.51 2.51 0 0 0 1.22-.528c.16-.126.308-.23.434-.324a.914.914 0 0 1 .093-.062 1.34 1.34 0 0 1 .11-.084.72.72 0 0 1 .073-.052l.068-.053c.022-.014.047-.03.068-.046l.037-.03c.162-.11.293-.2.418-.278.038-.027.075-.042.106-.063a3.65 3.65 0 0 1 .35-.188l.157-.08c.058-.025.115-.05.178-.083a11.26 11.26 0 0 1 1.058-.423c.183-.064.355-.122.538-.18l-.894 1.293-.084.115c-.038-.003-.104-.008-.193-.008zm.22.256l.256-.366.832-1.2a3.154 3.154 0 0 0 .565.82l-.377.378-3.33 3.332zm-1.935 3.08l3.44-3.446.267-.262c.058.058.12.11.183.162a1.036 1.036 0 0 0 .13.1h.012a.9.9 0 0 0 .11.084c.03.02.062.042.1.063h.015a.31.31 0 0 1 .073.042c.063.035.13.067.193.1zm3.08 1.277a4.545 4.545 0 0 1-.13-1.48 6.4 6.4 0 0 1 .56-2.03l.956-.664a11.038 11.038 0 0 0-.633 1.417 6.507 6.507 0 0 0-.392 1.5c-.04.25-.083.564-.145.972-.006.057-.017.115-.027.172s-.026.115-.042.173v.015l-.03.095c-.006.026-.017.047-.022.068-.026.078-.058.15-.084.22s-.063.125-.094.182a.96.96 0 0 0 .063-.183l.015-.047a1.18 1.18 0 0 0 .005-.412zm1.454-2.07a4.027 4.027 0 0 0-.565 1.123c-.106.33-.18.576-.23.754-.012.04-.022.083-.033.115v.026c-.016.043-.026.085-.036.12a.02.02 0 0 0-.004.017c-.01.03-.022.057-.032.084a.6.6 0 0 0-.026.084 1.152 1.152 0 0 1-.11.2.845.845 0 0 1-.058.084 1.564 1.564 0 0 1-.324.33 1.72 1.72 0 0 1-.14.1 1.153 1.153 0 0 0 .15-.226 1.1 1.1 0 0 0 .074-.13 1.09 1.09 0 0 0 .073-.158c.016-.047.037-.094.052-.146a1.754 1.754 0 0 0 .058-.173 3.934 3.934 0 0 0 .078-.4c.064-.414.106-.722.148-.973a6.255 6.255 0 0 1 .387-1.465 11.556 11.556 0 0 1 .7-1.553l.3 1.684a2.84 2.84 0 0 0-.46.504zm1.3 3.216l-.12-.692-.863-4.734a3.147 3.147 0 0 0 .984.173zm.288-.692l-.12.69v-5.25a3.09 3.09 0 0 0 .977-.174zm2.954-.59a4.806 4.806 0 0 1-1.135-.958 6.32 6.32 0 0 1-1.04-1.83l.21-1.146c.068.214.136.423.22.654s.183.46.31.737c.01.02.014.037.024.058a9.255 9.255 0 0 0 1.365 2.128 2.516 2.516 0 0 1 .444.865c0-.01-.01-.027-.016-.037a1.02 1.02 0 0 0-.388-.47zm-.036-1.3c.162.308.282.527.37.69a1.916 1.916 0 0 1 .3.732.95.95 0 0 1 .022.225 1.265 1.265 0 0 1-.01.146v.017a.35.35 0 0 1-.01.078.882.882 0 0 1-.016.115.167.167 0 0 1-.01.053 1.143 1.143 0 0 0-.022-.13v-.038c-.01-.036-.016-.073-.026-.115a1.256 1.256 0 0 1-.037-.125c-.02-.053-.035-.1-.056-.147l-.073-.157a1.138 1.138 0 0 0-.083-.16c-.016-.027-.037-.058-.058-.09 0 0 0-.01-.01-.016s0-.005 0-.01a.026.026 0 0 0-.012-.02l-.04-.058c0-.006-.007-.01-.007-.016-.03-.042-.062-.084-.093-.13a9.5 9.5 0 0 1-1.35-2.1.28.28 0 0 0-.025-.064 11.636 11.636 0 0 1-.57-1.528l1.406.973a3.506 3.506 0 0 0 .41 1.88zm-1.74-2.985c.068-.03.136-.063.2-.1a.31.31 0 0 1 .073-.042h.016c.03-.02.067-.04.1-.062s.072-.053.108-.084h.01a2.478 2.478 0 0 0 .315-.262l.26.262 3.448 3.447zm4.645 3.03l-3.327-3.333-.38-.377a3.26 3.26 0 0 0 .532-.748c.01-.026.026-.047.037-.073l.768 1.11.063.088zm1.69-3.077a1.1 1.1 0 0 0-.414 0 4.69 4.69 0 0 1-1.48.125c-.104-.01-.2-.025-.3-.04-.073-.01-.145-.027-.214-.037a1.093 1.093 0 0 1-.134-.033c-.073-.016-.14-.032-.214-.047s-.173-.042-.256-.068-.136-.037-.2-.058l-.094-.03-.19-.064h-.004a3.86 3.86 0 0 1-.424-.178l-.663-.957c.2.1.4.2.622.3s.48.21.8.324a8.258 8.258 0 0 0 2.21.5h.053l.2.03a2.587 2.587 0 0 1 .926.3 1.078 1.078 0 0 0-.226-.066zm.45.02c-.033-.02-.07-.046-.106-.067a1.213 1.213 0 0 0-.158-.085.512.512 0 0 0-.11-.052c-.015-.005-.03-.016-.047-.02l-.125-.048h-.01c-.053-.016-.11-.032-.168-.047s-.105-.026-.157-.042c-.08-.016-.157-.03-.24-.042l-.257-.037a8.2 8.2 0 0 1-2.18-.49 11.36 11.36 0 0 1-1.55-.707l1.685-.3a3.54 3.54 0 0 0 1.62 1.03l.75.226a1.8 1.8 0 0 1 .732.3 1.287 1.287 0 0 1 .136.11c.027.026.048.047.074.078a1.555 1.555 0 0 1 .12.136 1.2 1.2 0 0 1 .1.142 1.285 1.285 0 0 0-.11-.085zM18.74 18.553a.1.1 0 0 1-.02-.042l-.033-.036a.47.47 0 0 0-.062-.068.66.66 0 0 0-.068-.047.248.248 0 0 0-.053-.027.032.032 0 0 0-.02-.01l.016.015a.155.155 0 0 0 .036.042c.01.01.016.02.026.032s.015.015.026.026.02.026.03.036.017.02.027.032a.39.39 0 0 1 .053.073.4.4 0 0 1 .036.062.316.316 0 0 1 .027.073.09.09 0 0 1 0-.02v-.058a.716.716 0 0 0-.02-.084zM17.1 19.05h.083a1.364 1.364 0 0 0 .544-.09 2.518 2.518 0 0 1 .654-.313s-.057 0-.15.005a2.236 2.236 0 0 0-.58.152 1.63 1.63 0 0 1-.51.058 1.6 1.6 0 0 1-.506-.058 2.236 2.236 0 0 0-.58-.152c-.095-.005-.152-.005-.152-.005a2.5 2.5 0 0 1 .654.314 1.364 1.364 0 0 0 .544.09zM19.226 16.393a1.515 1.515 0 0 0-.758-.393.815.815 0 0 0-.665.173c-.14.12-.1.22-.1.22a1.93 1.93 0 0 1 .3-.22h.006a.633.633 0 0 0 .056.262.55.55 0 0 0 .325.256.566.566 0 0 1-.33-.072.977.977 0 0 1-.16-.118.12.12 0 0 0-.042-.026.105.105 0 0 0-.042 0 .043.043 0 0 0-.02.02.066.066 0 0 0 0 .054.276.276 0 0 0 .093.09.694.694 0 0 0 .235.108.807.807 0 0 0 .622-.083c.31-.173.267-.236.235-.21a.824.824 0 0 0-.067.048.618.618 0 0 0 0-.135.26.26 0 0 0-.015-.065c0-.01-.01-.058-.02-.063.05.02.093.052.14.073s.09.047.125.068.058.037.084.032.006-.01-.004-.017zm-.34.125a1.147 1.147 0 0 1-.34.147c.006 0 .01-.006.016-.006.188-.116.12-.42.094-.513a.04.04 0 0 0 .02.005 1.71 1.71 0 0 1 .19.084.8.8 0 0 1 .02.282zM17.526 16.058c.063.016.168-.115.22-.147a1.317 1.317 0 0 1 .826-.187 1.694 1.694 0 0 1 .42.09c.067.025.135.05.2.078a.528.528 0 0 0 .193.08c.037 0 .078-.027.052-.07v-.01a.26.26 0 0 0-.047-.03c-.094-.053-.194-.11-.293-.163a1.2 1.2 0 0 0-.897-.197 1.732 1.732 0 0 0-.643.43c-.026.03-.103.117-.03.128zM16.72 18.57a1.835 1.835 0 0 1 .393.025.134.134 0 0 0 .063 0 1.8 1.8 0 0 1 .392-.026 2.36 2.36 0 0 0 .66.004c.072-.005.156-.016.255-.026a3.773 3.773 0 0 1-.67-.147 1.085 1.085 0 0 0-.548-.03l-.08.016a.265.265 0 0 1-.088 0l-.078-.016a1.088 1.088 0 0 0-.55.03 3.668 3.668 0 0 1-.664.148c.1.01.183.02.256.026a2.363 2.363 0 0 0 .66-.005zM17.432 19.4a.082.082 0 0 0 .026.006.07.07 0 0 0-.02-.016c-.016 0-.043-.016-.074-.026a.18.18 0 0 0-.047-.016.235.235 0 0 1-.052-.01.785.785 0 0 0-.12-.006h-.063a.237.237 0 0 0-.058.01c-.036 0-.073.016-.1.022a.63.63 0 0 0-.094.042s.04-.006.105-.01H17.15c.08 0 .157 0 .215.01.025-.006.05-.006.067-.006zM16.69 17.355s-.2.063-.257.387a.825.825 0 0 0-.22.094 1.08 1.08 0 0 0-.177.162c.01-.015.042-.02.058-.026s.036-.015.052-.026c.036-.016.073-.03.115-.047a.978.978 0 0 1 .273-.07.876.876 0 0 1 .26.022.485.485 0 0 0 .35.146.5.5 0 0 0 .352-.146.854.854 0 0 1 .256-.02 1.047 1.047 0 0 1 .28.067l.113.046a.374.374 0 0 0 .053.026c.01.006.047.01.057.026a1.047 1.047 0 0 0-.178-.162.984.984 0 0 0-.22-.094c-.057-.324-.256-.387-.256-.387.308.466-.126.372-.178.32.015.16-.168.172-.246.172h-.063c-.078 0-.26-.01-.25-.173-.048.053-.482.147-.174-.32zM15.732 18.36a.308.308 0 0 0-.068.046.42.42 0 0 0-.062.068c-.01.01-.02.027-.03.037a.352.352 0 0 0-.023.043.308.308 0 0 0-.027.084.217.217 0 0 0 0 .057.03.03 0 0 0 .005.02.316.316 0 0 1 .027-.072.338.338 0 0 1 .036-.063.436.436 0 0 1 .053-.074.153.153 0 0 1 .027-.032c.01-.01.02-.026.03-.036s.017-.02.028-.026.015-.02.025-.032a.558.558 0 0 0 .037-.042l.016-.015a.032.032 0 0 0-.02.01.17.17 0 0 0-.054.026zM16.213 16.435a.557.557 0 0 0 .063-.262 1.686 1.686 0 0 1 .3.22s.047-.1-.095-.22a.82.82 0 0 0-.664-.173 1.54 1.54 0 0 0-.758.393c-.01.01-.01.02.005.02s.057-.02.078-.03c.043-.022.085-.043.127-.07s.1-.05.147-.072c-.01 0-.022.053-.022.064a.26.26 0 0 0-.02.063.618.618 0 0 0 0 .136.722.722 0 0 0-.07-.048c-.035-.026-.072.037.237.21a.8.8 0 0 0 .616.083.676.676 0 0 0 .24-.11.318.318 0 0 0 .095-.088.066.066 0 0 0 0-.053.047.047 0 0 0-.02-.02.105.105 0 0 0-.042 0 .22.22 0 0 0-.047.025.842.842 0 0 1-.166.12.542.542 0 0 1-.325.074.55.55 0 0 0 .323-.26zm-.81.083a.766.766 0 0 1 .016-.282c.072-.037.145-.068.187-.084a.048.048 0 0 0 .026-.005c-.026.094-.1.4.1.512l.01.005a1.172 1.172 0 0 1-.343-.147zM15.293 15.812a1.685 1.685 0 0 1 .424-.09 1.317 1.317 0 0 1 .826.19c.047.03.157.162.22.146s-.006-.1-.032-.126a1.71 1.71 0 0 0-.647-.43 1.207 1.207 0 0 0-.89.195l-.287.162c-.02.01-.037.015-.047.03s-.006.006-.006.01c-.026.043.015.07.052.07a.494.494 0 0 0 .188-.08z"/></svg>