<svg xmlns="http://www.w3.org/2000/svg" viewBox="0 0 55 55"><path d="M49.23 19.1H5.77a23.3 23.3 0 0 1 43.46 0z" fill="#0398b4"/><path d="M49.23 35.9a23.3 23.3 0 0 1-43.46 0z" fill="#19b43d"/><path d="M50.8 27.5a23.148 23.148 0 0 1-1.12 7.134H5.32a23.284 23.284 0 0 1 0-14.263h44.36a23.135 23.135 0 0 1 1.12 7.13z" fill="#fff"/><path d="M49.68 20.366H5.32c.135-.43.282-.852.45-1.27h43.46c.163.418.315.84.45 1.27zM49.68 34.63c-.135.427-.287.85-.45 1.27H5.77c-.168-.42-.315-.843-.45-1.27z" fill="#cd1225"/><path d="M21.915 17.636a4.7 4.7 0 0 1 0-9.41h.1a5.132 5.132 0 0 0-1.632-.276 4.977 4.977 0 0 0 0 9.953 5.132 5.132 0 0 0 1.632-.277c-.033.005-.07.01-.1.01zM30.89 15.685l.234.732h.77l-.623.45.24.727-.62-.45-.623.45.24-.727-.622-.45h.77l.234-.732zM27.04 15.685l.235.732h.77l-.623.45.24.727-.622-.45-.617.45.235-.727-.622-.45h.768l.236-.732zM23.19 15.685l.242.732h.763l-.618.45.236.727-.623-.45-.617.45.236-.727-.624-.45h.77l.234-.732zM34.738 15.685l.236.732h.77l-.624.45.236.727-.618-.45-.622.45.235-.727-.615-.45h.763l.24-.732zM38.583 15.685l.24.732h.764l-.617.45.235.727-.622-.45-.618.45.236-.727-.616-.45h.763l.236-.732zM30.89 11.82l.234.732h.77l-.623.45.24.727-.62-.45-.623.45.24-.728-.622-.45h.77l.234-.732zM27.04 11.82l.235.732h.77l-.623.45.24.727-.622-.45-.617.45.235-.728-.622-.45h.768l.236-.732zM34.738 11.82l.236.732h.77l-.624.45.236.727-.618-.45-.622.45.235-.728-.615-.45h.763l.24-.732zM38.583 11.82l.24.732h.764l-.617.45.235.727-.622-.45-.618.45L38.2 13l-.616-.45h.763l.236-.732zM30.89 7.955l.234.732h.77l-.623.45.24.727-.62-.45-.623.45.24-.727-.622-.45h.77l.234-.732zM34.738 7.955l.236.732h.77l-.624.45.236.727-.618-.45-.622.45.235-.727-.615-.45h.763l.24-.732zM38.583 7.955l.24.732h.764l-.617.45.235.727-.622-.45-.618.45.236-.727-.616-.45h.763l.236-.732z" fill="#fff"/></svg>