<svg xmlns="http://www.w3.org/2000/svg" viewBox="0 0 55 55"><path d="M31.773 27.5L7.756 39.864c-.146-.235-.292-.47-.428-.717a23.248 23.248 0 0 1 0-23.294c.136-.246.282-.482.428-.717z" fill="#fff"/><path d="M50.418 31.705A23.285 23.285 0 0 1 11.27 44.2l24.263-12.5z" fill="#009444"/><path d="M50.418 23.3H35.533L11.27 10.8A23.3 23.3 0 0 1 50.42 23.3z" fill="#d11133"/><path d="M31.773 27.5L7.756 39.864c-.146-.235-.292-.47-.428-.717a23.248 23.248 0 0 1 0-23.294c.136-.246.282-.482.428-.717z" fill="#fff"/><path d="M34.812 28.734H50.77a23.138 23.138 0 0 1-.352 2.97H35.533L11.27 44.2a23.23 23.23 0 0 1-2.06-2.286l24.33-12.526zM33.54 25.612L9.21 13.086a23.23 23.23 0 0 1 2.06-2.286l24.263 12.5h14.885a23.138 23.138 0 0 1 .35 2.97H34.813z"/><path d="M50.8 27.5c0 .413-.01.826-.03 1.234H34.81l-1.27.654L9.21 41.914a21.815 21.815 0 0 1-1.454-2.05L31.773 27.5 7.756 15.136a21.815 21.815 0 0 1 1.454-2.05l24.33 12.526 1.272.654H50.77c.02.408.03.82.03 1.234z" fill="#fccd1f"/><path d="M31.773 27.5L7.756 39.864c-.146-.235-.292-.47-.428-.717a23.248 23.248 0 0 1 0-23.294c.136-.246.282-.482.428-.717z" fill="#fff"/><path d="M31.773 27.5L7.756 39.864c-.146-.235-.292-.47-.428-.717a23.248 23.248 0 0 1 0-23.294c.136-.246.282-.482.428-.717z"/><path d="M12.02 31.977v2.667a14.08 14.08 0 0 0 1.81-.334 7.146 7.146 0 0 0 3.262-2.06 7.85 7.85 0 0 0 1.23-8.03 6.32 6.32 0 0 0-3.494-3.394 5.992 5.992 0 0 0-4.294-.073 5.883 5.883 0 0 0-3.7 3.76 5.278 5.278 0 0 0 1.234 5.13 4.32 4.32 0 0 0 .623.535c1.915 1.37 5.372 1.4 6.533-.978a3.705 3.705 0 0 0 .418-1.58v-.606a3.025 3.025 0 0 1-.888 1.84 3.634 3.634 0 0 1-3 1.136 3.78 3.78 0 0 1-3.273-2.63 4.034 4.034 0 0 1 2.462-4.61 4.23 4.23 0 0 1 4.534 1.282l.08.1a4.728 4.728 0 0 1 .977 2.913 5.06 5.06 0 0 1-4.273 4.906c-.08.01-.16.022-.24.027zM14.7 28.515s-.12-.194-.32-.482a.148.148 0 0 1 .014-.033 1.345 1.345 0 0 0 .105-.7.343.343 0 0 0-.07-.21c-.1-.093-.162.075-.178.148a3.233 3.233 0 0 0-.03.55v.01c-.043-.053-.08-.11-.12-.168a.057.057 0 0 0 .014-.03 1.327 1.327 0 0 0 .105-.7.32.32 0 0 0-.067-.2c-.1-.1-.162.072-.177.145a3.016 3.016 0 0 0-.032.544.034.034 0 0 1-.006.02l-.115-.162a.384.384 0 0 0 .016-.052 1.194 1.194 0 0 0 .015-.65.3.3 0 0 0-.09-.176c-.1-.08-.14.083-.146.15a3.208 3.208 0 0 0 .036.5v.012h-.005c-.057-.074-.11-.147-.172-.215a.133.133 0 0 0 .016-.042 1.19 1.19 0 0 0 .016-.648.343.343 0 0 0-.09-.178c-.1-.08-.14.083-.146.15a3.47 3.47 0 0 0 .037.508c-.062-.073-.13-.147-.193-.22a1.13 1.13 0 0 0 .01-.59.288.288 0 0 0-.083-.168c-.094-.073-.125.078-.13.14a2.386 2.386 0 0 0 .025.425c-.042-.042-.08-.084-.12-.126a.843.843 0 0 0-.07-.064 1.126 1.126 0 0 0 .006-.56.315.315 0 0 0-.083-.16c-.094-.075-.126.072-.13.14a1.638 1.638 0 0 0 .02.4c-.09-.078-.173-.15-.256-.225a1.127 1.127 0 0 0 0-.506.3.3 0 0 0-.074-.152c-.088-.067-.12.068-.125.13a1.82 1.82 0 0 0 .026.383c-.04-.03-.078-.063-.115-.094a.2.2 0 0 1 0-.036 1.08 1.08 0 0 0-.09-.544.306.306 0 0 0-.104-.136c-.094-.047-.1.1-.094.152a2.805 2.805 0 0 0 .1.413.02.02 0 0 1 .005.015l-.2-.152a1.058 1.058 0 0 0-.09-.533.277.277 0 0 0-.1-.13c-.1-.053-.1.088-.1.145a1.882 1.882 0 0 0 .1.377l-.15-.1a.307.307 0 0 1 .005-.036.94.94 0 0 0-.11-.47.274.274 0 0 0-.1-.116c-.088-.037-.083.09-.078.136a2.156 2.156 0 0 0 .12.36.022.022 0 0 0 0 .017c-.088-.058-.16-.11-.23-.157v-.032a.867.867 0 0 0-.14-.465.22.22 0 0 0-.1-.106c-.09-.03-.08.09-.07.14a1.49 1.49 0 0 0 .085.22c-.08-.067-.242-.2-.33-.28-.12-.11-.226-.11-.2-.017s.124.183.192.25a.943.943 0 0 0 .2.153c.015.01.03.015.047.026-.11-.01-.258-.02-.347-.032-.162-.02-.245.042-.177.11a.632.632 0 0 0 .3.09 1.29 1.29 0 0 0 .256.004l.13-.015c.017 0 .064-.016.09-.02a1.9 1.9 0 0 0 .2.14c.01.01.02.016.03.026-.1-.016-.26-.032-.36-.048-.146-.02-.225.037-.157.105a.545.545 0 0 0 .283.1.874.874 0 0 0 .235.01l.12-.015a.644.644 0 0 1 .068-.01c.043.03.09.062.132.1-.11-.012-.25-.027-.34-.043-.172-.022-.256.04-.183.12a.57.57 0 0 0 .32.11 1.128 1.128 0 0 0 .265.01 1.352 1.352 0 0 0 .14-.016h.012c.052.042.105.09.157.136-.11-.016-.24-.032-.33-.042-.167-.026-.256.042-.178.12a.67.67 0 0 0 .32.11 1.127 1.127 0 0 0 .266.01l.13-.015c.07.063.137.13.21.193-.058-.02-.115-.04-.162-.062-.173-.068-.283-.02-.225.083a.682.682 0 0 0 .314.2 1.068 1.068 0 0 0 .286.084l.12.016c.053.047.1.095.152.147l-.22-.084c-.172-.074-.287-.027-.224.078a.6.6 0 0 0 .313.2 1.107 1.107 0 0 0 .283.084 1.292 1.292 0 0 0 .152.02.6.6 0 0 0 .068.064l.156.172c-.12-.047-.272-.11-.366-.15-.172-.08-.287-.038-.23.067a.646.646 0 0 0 .31.214 1.222 1.222 0 0 0 .276.093c.052.01.1.016.152.026h.057c.052.073.105.14.157.22-.114-.048-.246-.106-.335-.142-.167-.08-.282-.037-.225.068a.64.64 0 0 0 .3.214 1.28 1.28 0 0 0 .282.094c.047.01.1.016.152.027l.126.194c-.12-.047-.325-.136-.445-.188-.173-.073-.283-.032-.225.073s.2.16.3.213a1.17 1.17 0 0 0 .282.1c.047.01.1.015.146.026h.073c.027.046.058.093.084.135-.12-.047-.324-.13-.44-.183-.172-.074-.282-.032-.224.073s.2.162.3.214a.966.966 0 0 0 .283.088 1.242 1.242 0 0 0 .146.026.177.177 0 0 0 .063.006c.157.266.256.455.256.455zM9.9 28.515s.12-.194.32-.482A.148.148 0 0 0 10.2 28a1.324 1.324 0 0 1-.1-.7.33.33 0 0 1 .068-.21c.1-.093.162.075.177.148a3.233 3.233 0 0 1 .032.55.015.015 0 0 0 0 .01c.037-.053.073-.11.115-.168a.06.06 0 0 1-.016-.03 1.316 1.316 0 0 1-.1-.7.314.314 0 0 1 .068-.2c.1-.1.162.072.178.145a3.21 3.21 0 0 1 .03.544.04.04 0 0 0 .006.02c.037-.052.08-.11.115-.162a.314.314 0 0 0-.015-.052 1.184 1.184 0 0 1-.016-.65.3.3 0 0 1 .09-.176c.1-.08.14.083.145.15a3.208 3.208 0 0 1-.036.5v.012c.058-.074.116-.147.173-.215 0-.02-.015-.037-.015-.042a1.18 1.18 0 0 1-.016-.648.343.343 0 0 1 .09-.178c.1-.08.14.083.145.15a2.8 2.8 0 0 1-.036.508c.064-.073.132-.147.194-.22a1.14 1.14 0 0 1-.01-.59.28.28 0 0 1 .083-.168c.095-.073.126.078.13.14a1.87 1.87 0 0 1-.025.425c.042-.042.08-.084.12-.126a.686.686 0 0 1 .068-.064 1.126 1.126 0 0 1-.005-.56.325.325 0 0 1 .084-.16c.093-.075.124.072.13.14a1.746 1.746 0 0 1-.02.4c.083-.078.166-.15.255-.225a1.048 1.048 0 0 1 0-.506.272.272 0 0 1 .078-.152c.084-.067.115.068.12.13a1.964 1.964 0 0 1-.025.383c.04-.03.078-.063.115-.094a.165.165 0 0 0-.006-.036 1.093 1.093 0 0 1 .09-.544.306.306 0 0 1 .1-.136c.093-.047.1.1.093.152a2.808 2.808 0 0 1-.105.413.02.02 0 0 0-.005.015l.2-.152a1.037 1.037 0 0 1 .09-.533.305.305 0 0 1 .1-.13c.1-.053.1.088.1.145a2.19 2.19 0 0 1-.096.377c.048-.037.1-.073.147-.1a.307.307 0 0 0 0-.036.936.936 0 0 1 .116-.47.226.226 0 0 1 .094-.116c.09-.037.084.09.078.136a2.15 2.15 0 0 1-.12.36v.017l.225-.157v-.032a.86.86 0 0 1 .142-.465c.025-.038.057-.09.1-.106.09-.03.078.09.068.14a1.612 1.612 0 0 1-.084.22c.077-.067.24-.2.33-.28.12-.11.223-.11.2-.017s-.126.183-.194.25a.994.994 0 0 1-.2.153c-.015.01-.03.015-.047.026.11-.01.255-.02.345-.032.16-.02.245.042.177.11a.632.632 0 0 1-.3.09 1.3 1.3 0 0 1-.257.004l-.13-.015a.747.747 0 0 0-.09-.02 2.014 2.014 0 0 1-.2.14c-.01.01-.02.016-.03.026.1-.016.266-.032.36-.048.147-.02.225.037.158.105a.53.53 0 0 1-.283.1.874.874 0 0 1-.235.01l-.12-.015a.564.564 0 0 0-.07-.01l-.13.1c.116-.012.252-.027.346-.043.168-.022.257.04.18.12a.574.574 0 0 1-.32.11 1.117 1.117 0 0 1-.267.01 1.352 1.352 0 0 1-.14-.016h-.012c-.05.042-.104.09-.156.136.11-.016.24-.032.33-.042.167-.026.256.042.177.12a.665.665 0 0 1-.318.11 1.117 1.117 0 0 1-.266.01l-.125-.015c-.073.063-.14.13-.214.193.063-.02.115-.04.162-.062.172-.068.282-.02.225.083a.688.688 0 0 1-.314.2 1.075 1.075 0 0 1-.29.084l-.12.016c-.05.047-.1.095-.15.147.083-.032.16-.063.22-.084.172-.074.287-.027.224.078a.6.6 0 0 1-.314.2 1.1 1.1 0 0 1-.282.084 1.353 1.353 0 0 1-.152.02l-.063.064c-.052.052-.1.11-.157.172.115-.047.267-.11.36-.15.174-.08.29-.038.23.067a.656.656 0 0 1-.3.214 1.374 1.374 0 0 1-.28.093l-.153.026h-.058l-.157.22c.116-.048.246-.106.335-.142.168-.08.283-.037.225.068s-.2.167-.3.214a1.27 1.27 0 0 1-.288.09c-.047.01-.1.016-.15.027-.043.062-.085.13-.127.193.12-.047.33-.136.445-.188.172-.073.282-.032.23.073s-.21.162-.31.214a1.184 1.184 0 0 1-.28.1c-.048.01-.1.014-.148.025h-.073c-.026.047-.057.094-.084.136.12-.046.325-.13.44-.182.172-.074.282-.032.225.073s-.2.163-.3.215a.96.96 0 0 1-.282.09 1.222 1.222 0 0 1-.147.025.168.168 0 0 1-.063.006c-.157.266-.257.455-.257.455z" fill="#fccd1f"/></svg>