<svg xmlns="http://www.w3.org/2000/svg" viewBox="0 0 55 55"><path d="M27.5 4.2v23.3H4.2a23.145 23.145 0 0 1 3.243-11.846A23.51 23.51 0 0 1 14.66 8.07q.857-.57 1.768-1.07A23.2 23.2 0 0 1 27.5 4.2z" fill="#042b7d"/><path d="M27.5 4.2v23.3H4.2A23.3 23.3 0 1 0 27.5 4.2z" fill="#cd1225"/><path d="M16.815 8.2l.612 1.883-1.606-1.165-1.604 1.16.612-1.878-.168-.13q.857-.57 1.768-1.07l.006.026h1.98zM9.7 14.022l.612 1.883L8.7 14.74l-1.26.914a23.483 23.483 0 0 1 1.95-2.8h1.9zM23.112 9.958l.586 1.8h1.893l-1.53 1.113.585 1.806-1.533-1.114-1.532 1.114.585-1.805-1.537-1.113h1.898l.586-1.8zM15.82 20.32l.775 2.384H19.1l-2.024 1.47.775 2.385-2.03-1.476-2.023 1.475.774-2.386-2.028-1.47h2.505l.774-2.385zM19.388 15.952l.387 1.203h1.266l-1.02.748.39 1.203-1.022-.748-1.025.748.392-1.203-1.025-.748h1.266l.392-1.203z" fill="#fff"/></svg>