<svg xmlns="http://www.w3.org/2000/svg" viewBox="0 0 55 55"><path d="M50.8 27.5H4.2a23.163 23.163 0 0 1 3.127-11.653h40.345A23.164 23.164 0 0 1 50.8 27.5z" fill="#fff"/><path d="M47.672 15.847H7.332a23.43 23.43 0 0 1 5.042-6.056c.37-.318.748-.62 1.14-.914q.833-.628 1.72-1.177c.425-.268.86-.52 1.3-.754a23.317 23.317 0 0 1 16.792-2.01 23.375 23.375 0 0 1 14.346 10.91z" fill="#043080"/><path d="M50.8 27.5a23.177 23.177 0 0 1-3.128 11.647H7.327A23.176 23.176 0 0 1 4.2 27.5z" fill="#25962b"/><path d="M47.672 39.147a23.284 23.284 0 0 1-40.345 0z" fill="#fecd17"/><path d="M33.326 4.937v45.126a23.38 23.38 0 0 1-11.648 0V4.937a23.38 23.38 0 0 1 11.648 0z" fill="#d11133"/><path d="M17.876 11.072l1.156 3.552L16 12.427l-3.017 2.2 1.15-3.552-1.76-1.284c.372-.318.75-.62 1.14-.914h1.34l.382-1.176c.424-.267.858-.518 1.3-.753l.628 1.93H20.9z" fill="#fecd17"/></svg>