<svg xmlns="http://www.w3.org/2000/svg" viewBox="0 0 55 55"><path d="M45.2 12.38a19.62 19.62 0 0 1 2.27 3.113 22.48 22.48 0 0 1 3.134 8.985 22.768 22.768 0 0 1-4.464 16.964 22.63 22.63 0 0 1-14.21 8.9 22.352 22.352 0 0 1-15.11-2.183A22.525 22.525 0 0 1 4.662 31.876a22.453 22.453 0 0 1 5.305-19.664 22.34 22.34 0 0 1 13.516-7.647 22.888 22.888 0 0 1 17.046 3.62c.064.042.123.094.185.142a.473.473 0 0 1 .1.07c.04.13-.054.138-.137.156a.588.588 0 0 1-.132-.022c-.092-.025-.184-.046-.276-.07a17.08 17.08 0 0 0-4-1.243 19.565 19.565 0 0 0-6.632.15c-.32.06-.644.108-.96.19a1.553 1.553 0 0 1-.247.025c-1.047-.14-2.088-.313-3.146-.4a19.873 19.873 0 0 0-3.628.175c-.45.045-.885.17-1.333.224a3.355 3.355 0 0 0-.384.057 7.788 7.788 0 0 0-.82.092 12.69 12.69 0 0 0-6.545 2.415A12.85 12.85 0 0 0 7.64 18.6a19.54 19.54 0 0 0 .344 7.868 2.268 2.268 0 0 1 .13.788 15.972 15.972 0 0 0-.643 3.238 16.448 16.448 0 0 0 .43 6.374 14.36 14.36 0 0 0 9.363 10.2 18.732 18.732 0 0 0 9.86.617 8.716 8.716 0 0 1 1.243-.214 19.5 19.5 0 0 0 5.242.464 14.637 14.637 0 0 0 9.25-3.683 15.4 15.4 0 0 0 5.035-10.343 20.61 20.61 0 0 0-.36-6.435 2.293 2.293 0 0 1-.077-.315 28.857 28.857 0 0 0 .23-3.425 21.627 21.627 0 0 0-.347-3.13c-.01-.228-.1-.445-.1-.675-.066-.364.152-.734-.027-1.1a.915.915 0 0 1-.123-.25 13.84 13.84 0 0 0-1.93-5.73.537.537 0 0 1-.11-.352c.02-.07.057-.132.15-.116z" fill="#97c949"/><path d="M42.87 10.006a2.846 2.846 0 0 1 .936.84.085.085 0 0 1 .028.08c-.006.027-.013.04-.02.04a1.644 1.644 0 0 1-.968-.9z" fill="#e0edca"/><path d="M40.62 8.5c.075-.01.152-.018.192-.1a2.1 2.1 0 0 1 .56.38c.03.092-.028.124-.1.146-.272-.063-.558-.094-.652-.426z" fill="#a9d169"/><path d="M45.2 12.38l-.11.12c-.337-.087-.45-.376-.574-.654a.206.206 0 0 1 .065-.113l.063-.023a4.055 4.055 0 0 1 .557.67z" fill="#a9d16b"/><path d="M41.264 8.88l.108-.1a2.58 2.58 0 0 1 .606.466.187.187 0 0 1-.12.07c-.267-.05-.513-.126-.594-.435z" fill="#b9d885"/><path d="M44.084 11.128a2.54 2.54 0 0 1 .56.582l-.012.043c-.044 0-.087.007-.13.008a.743.743 0 0 1-.473-.514.2.2 0 0 1 .054-.118z" fill="#c2dd93"/><path d="M42.4 9.54a1.3 1.3 0 0 1 .476.466l-.006.007c-.318.112-.412-.12-.515-.34a.167.167 0 0 1 .045-.132z" fill="#e0edca"/><path d="M41.83 9.257l.147-.015a.5.5 0 0 1 .33.294l-.053.04c-.218-.002-.386-.07-.423-.32z" fill="#c9e1a1"/><path d="M44.084 11.128v.114c-.206.02-.3-.075-.28-.284v-.113a.677.677 0 0 1 .28.283z" fill="#d5e7b5"/><path d="M40.812 8.4a.1.1 0 0 1-.1-.07.088.088 0 0 1 .1.07z" fill="#a9d169"/><path d="M42.4 9.54l.01.12c-.078 0-.122-.036-.1-.122a.175.175 0 0 1 .09.003z" fill="#c1dd94"/><path d="M47.445 20.522a16.785 16.785 0 0 1 .342 4.576c-.04.7-.117 1.4-.22 2.1a1.037 1.037 0 0 1 .022.22 7.638 7.638 0 0 1-.35 1.844 23.417 23.417 0 0 1-2.21 5.472 29.147 29.147 0 0 1-2.79 4.08 27.162 27.162 0 0 1-4.808 4.533 26.706 26.706 0 0 1-7.365 3.853c-.222.076-.45.128-.673.2a2.785 2.785 0 0 1-1 .177c-.842.15-1.675.35-2.526.452a17.29 17.29 0 0 1-11.883-2.42 14.48 14.48 0 0 1-6.476-9.92 18.78 18.78 0 0 1 .37-8.1c.034-.136.09-.267.134-.4.278.15.25.44.307.69a23.35 23.35 0 0 0-.37 3.563A15.293 15.293 0 0 0 8.3 34.9a12.273 12.273 0 0 0 3.323 6.18 12.9 12.9 0 0 0 6.586 3.447 27.1 27.1 0 0 0 3.66.384c.094 0 .19 0 .285-.012.815-.12 1.64-.116 2.46-.242a24.53 24.53 0 0 0 6.3-1.888 28.34 28.34 0 0 0 7.6-5.024 27.5 27.5 0 0 0 6.065-7.8 21.877 21.877 0 0 0 2.12-5.807 20.726 20.726 0 0 0 .428-3.2.76.76 0 0 1 .093-.405.148.148 0 0 1 .225-.01z" fill="#fff"/><path d="M46.794 24.24a12.64 12.64 0 0 1-.65 2.4 18.51 18.51 0 0 1-1.466 3.34c-.2-.105-.187-.315-.223-.49a27.727 27.727 0 0 0-6.068-12.35 28.5 28.5 0 0 0-7.575-6.44 20.43 20.43 0 0 0-3.5-1.665 11.1 11.1 0 0 0-1.72-.567 17.64 17.64 0 0 0-3.838-.7c-.4-.023-.8-.1-1.2-.108-.12 0-.294.006-.292-.206.692-.094 1.372-.26 2.068-.338a18.468 18.468 0 0 1 3.954 0c.743.077 1.475.218 2.21.352a.408.408 0 0 0 .264.013 10.386 10.386 0 0 1 2.4.644c.248.084.49.185.738.275a24.413 24.413 0 0 1 5.726 3.26A27.43 27.43 0 0 1 46 22.083a7.592 7.592 0 0 1 .794 2.155z" fill="#111a42"/><path d="M20.255 7.46c.106.178.28.1.423.108a19.15 19.15 0 0 1 4.828.734 1.2 1.2 0 0 1 .13.053c-.1.258-.367.265-.57.347a29.235 29.235 0 0 0-8.382 5.3c-.105.093-.2.2-.3.3-.424.4-.9.75-1.282 1.194a1.673 1.673 0 0 0-.14.185 1.05 1.05 0 0 1-.1.13 1.016 1.016 0 0 1-.073.075l-.038.036c-.023.026-.048.05-.073.072l-.037.036c-.022.025-.046.05-.07.072l-.036.037c-.023.026-.048.05-.072.075l-.112.117s-.077.085-.117.127a4.728 4.728 0 0 0-.448.5.835.835 0 0 1-.08.1c-.027.03-.057.06-.086.088a5.455 5.455 0 0 0-.392.48 1.516 1.516 0 0 1-.15.192l-.04.044a1.85 1.85 0 0 0-.336.412 3.165 3.165 0 0 0-.248.336.86.86 0 0 1-.072.1 2.287 2.287 0 0 0-.31.377c-.2.328-.454.612-.646.942-.266.4-.54.8-.77 1.227a23.7 23.7 0 0 0-1.372 2.63c-.072.17-.087.466-.408.41a4.834 4.834 0 0 1-.13-1.4 22.167 22.167 0 0 1 .39-3.66 15.5 15.5 0 0 1 4.514-8.274 14.154 14.154 0 0 1 5.756-3.315 2.267 2.267 0 0 0 .536-.09c.076-.12.196-.098.31-.094z" fill="#97c949"/><path d="M28.392 47.573a4.638 4.638 0 0 1 1.02-.28c.843-.11 1.675.116 2.515.085A13.23 13.23 0 0 0 39.9 44.69a12.662 12.662 0 0 0 4.333-6.63c.312-1.08.373-2.2.667-3.285.3-.617.617-1.23.9-1.854a21.746 21.746 0 0 0 1.667-5.27 1.51 1.51 0 0 1 .072-.22q.046-.062.092 0A13.046 13.046 0 0 1 48 29.614a19.236 19.236 0 0 1 0 4.53c-.707 5.6-3.326 9.9-8.436 12.443a15.354 15.354 0 0 1-7.392 1.492 16.41 16.41 0 0 1-3.78-.507z" fill="#111a42"/><path d="M46.794 24.24c-.35-.772-.624-1.575-1-2.336a26.72 26.72 0 0 0-13.677-13.27c-.084-.037-.183-.05-.243-.133a2.736 2.736 0 0 1 1.552-.1 17.212 17.212 0 0 1 5.762 1.487 14.673 14.673 0 0 1 6.346 5.538 13.2 13.2 0 0 1 1.634 3.64 1.624 1.624 0 0 0 .066.393c.02.06.075-.038.024 0-.08-.215-.158-.43.014-.638.108.014.272.064.2.17-.188.29-.078.6-.126.9-.127.2.086.444-.07.642a19.345 19.345 0 0 1-.39 3.4c-.02.1-.06.203-.092.307z" fill="#97c949"/><path d="M19.477 7.73a14.69 14.69 0 0 0-5.146 2.8 15.088 15.088 0 0 0-4.947 8.2 17.73 17.73 0 0 0-.46 5.624c.165.193.087.434.128.65a28.13 28.13 0 0 0 .75 4.035 26.3 26.3 0 0 0 4.985 9.6 1.27 1.27 0 0 1 .352.6.174.174 0 0 1-.12.16c-.272 0-.41-.214-.56-.384a31.43 31.43 0 0 1-4.522-6.53 26.992 26.992 0 0 1-1.567-3.743 1.864 1.864 0 0 1-.135-.782l-.218-.78a25.514 25.514 0 0 1-.644-3.576 16.152 16.152 0 0 1 1.8-9.782 12.034 12.034 0 0 1 8.35-5.982 8.41 8.41 0 0 1 1.57-.214c.14-.003.315-.143.387.105z" fill="#111a42"/><path d="M47.086 19.092a14.854 14.854 0 0 0-3.052-5.475 15 15 0 0 0-8.268-4.74 14.423 14.423 0 0 0-3.89-.377c-.726-.234-1.45-.475-2.177-.7-.343-.106-.693-.182-1.04-.272-.037-.017-.05-.033-.036-.048a.05.05 0 0 1 .04-.022 14.667 14.667 0 0 1 2.472-.465 18.3 18.3 0 0 1 3.033-.114 14.9 14.9 0 0 1 5.962 1.4c.1.045.2.083.3.124.05.058.138.04.188.1a3.506 3.506 0 0 0 .644.385l.567.375c.147.114.267.273.474.28a.164.164 0 0 0 .1.122c.124.157.238.328.46.354a6.39 6.39 0 0 0 .938.946.72.72 0 0 0 .28.284 2.126 2.126 0 0 0 .42.473.087.087 0 0 1 .073.088 3.715 3.715 0 0 0 .517.7 13.654 13.654 0 0 1 1.653 3.664 11.87 11.87 0 0 1 .44 2.446c0 .157.15.357-.1.472z" fill="#fff"/><path d="M47.086 19.092c.158-.134.032-.33.1-.483l.086.205v.812a1.022 1.022 0 0 1-.186-.535z" fill="#dbeac1"/><path d="M19.477 7.73c-.1-.138-.264-.042-.386-.1a1.868 1.868 0 0 1 .854-.066.7.7 0 0 1-.467.167z" fill="#405c50"/><path d="M47.277 20.524c0-.217-.088-.443.07-.64-.025.22.137.414.1.638z" fill="#e1edc9"/><path d="M40.62 8.5a.2.2 0 0 1-.187-.1.174.174 0 0 1 .188.1z" fill="#a9d169"/><path d="M47.637 27.43h-.093l.022-.23a.235.235 0 0 1 .07.23z" fill="#364757"/><path d="M28.663 7.458a.105.105 0 0 1 0 .07.136.136 0 0 1-.175-.055z" fill="#9498a2"/><path d="M44.575 11.8l-.074-.087.132.037a.126.126 0 0 1-.057.05z" fill="#a2ce5b"/><path d="M15.1 39.245c-.754-.964-1.51-1.925-2.174-2.957a25.518 25.518 0 0 1-3.7-9.22c-.12-.65-.18-1.31-.267-1.966a13.74 13.74 0 0 1 1.394-3.32c.088-.167.19-.325.266-.5.262-.414.5-.843.77-1.248.206-.327.428-.643.657-.953.084-.173.234-.3.33-.46a1.777 1.777 0 0 1 .274-.32 4.422 4.422 0 0 1 .387-.538v.006l.1-.1c.13-.217.35-.356.482-.57a.9.9 0 0 1 .08-.095 4.35 4.35 0 0 1 .58-.625c.04-.042.08-.08.12-.12a.52.52 0 0 0 .1-.12.3.3 0 0 1 .048-.09l-.007.01c.036-.034.07-.068.1-.1l-.006.006.1-.1-.007.007c.053-.044.128-.057.17-.117a.56.56 0 0 0 .1-.13.934.934 0 0 1 .103-.123c.388-.46.89-.792 1.3-1.224a26.83 26.83 0 0 1 8.433-4.756 19.26 19.26 0 0 1 1.974-.568 1.09 1.09 0 0 1 .553-.005 12.4 12.4 0 0 1 2.1.894 28.123 28.123 0 0 1 9.264 7.52 28.206 28.206 0 0 1 5.306 9.91c.264.89.45 1.8.644 2.708a16.772 16.772 0 0 1-1.45 2.48 29.08 29.08 0 0 1-14.44 11.284 21.363 21.363 0 0 1-6.537 1.25 9.3 9.3 0 0 1-1.82-1.033 7 7 0 0 1-.934-.653 1.72 1.72 0 0 1-.378-.29.674.674 0 0 1-.11-.036c-.112-.073-.173-.207-.3-.26a.218.218 0 0 1-.105-.048 1.656 1.656 0 0 0-.31-.268c-.047-.036-.1-.06-.142-.1a.058.058 0 0 1-.037-.057c-.01.007-.01.02.007.037a.454.454 0 0 0 .066.054.39.39 0 0 1 .1.056 3.89 3.89 0 0 1 .362.315.35.35 0 0 1 .112.04c.094.073.164.174.262.244a.338.338 0 0 1 .11.038 1.485 1.485 0 0 0 .333.26 10.95 10.95 0 0 0 .915.646q.656.41 1.308.82c.085.055.215.08.18.234a14.054 14.054 0 0 1-10.13-3.632 11.754 11.754 0 0 1-3.073-4.74 15.635 15.635 0 0 1-.433-8.656 29.092 29.092 0 0 0 2.27 5.324 30.488 30.488 0 0 0 4.244 5.855c.074.08.158.15.238.224.528.27.792.822 1.233 1.185.134.15.286.28.42.43a.422.422 0 0 0 .1.057 1.117 1.117 0 0 1 .125.113 1.153 1.153 0 0 0 .124.118.705.705 0 0 1 .14.1c.092.092.18.188.273.274l.006.03v-.035a4.186 4.186 0 0 1-.308-.3.4.4 0 0 0-.1-.06 1.072 1.072 0 0 1-.127-.116 1.394 1.394 0 0 0-.124-.12.712.712 0 0 1-.14-.104c-.115-.117-.232-.23-.343-.35a7.312 7.312 0 0 1-1.16-1.345zM44.9 34.775a13.91 13.91 0 0 1-.816 4.155 12.148 12.148 0 0 1-9.653 8.3 14.33 14.33 0 0 1-5.02.06c.657-.235 1.324-.447 1.97-.71a26.89 26.89 0 0 0 13.386-11.62c.042-.06.092-.122.134-.185z" fill="#97c949"/><path d="M21.864 45c-.513-.334-1.052-.63-1.536-1.008-.01-.087 0-.144.11-.1.562.322 1.125.642 1.685.967a.615.615 0 0 1 .124.133.826.826 0 0 1-.383.007z" fill="#283b4c"/><path d="M27.36 8.947a25.534 25.534 0 0 0-9.56 4.387c-.465.34-.917.7-1.376 1.05-.11.022-.153-.022-.133-.133a25.684 25.684 0 0 1 3.53-2.844 27.583 27.583 0 0 1 5.817-3.05 8.514 8.514 0 0 1 1.723.59z" fill="#fff"/><path d="M10.7 21.3a30.742 30.742 0 0 0-1.644 3.646.792.792 0 0 1-.1.157 2.83 2.83 0 0 1-.032-.752c.384-.727.685-1.5 1.1-2.21a8.657 8.657 0 0 1 .57-.96c.092-.015.148.008.106.12z" fill="#f5f9f1"/><path d="M16.29 14.25l.132.133c-.427.426-.883.82-1.344 1.207l-.038-.012-.028-.028-.012-.038a8.83 8.83 0 0 1 1.29-1.26z" fill="#edf4e0"/><path d="M10.7 21.3l-.11-.12a7.85 7.85 0 0 1 .762-1.223c.084-.012.14 0 .093.106A14.08 14.08 0 0 1 10.7 21.3z" fill="#e9f2da"/><path d="M11.448 20.062l-.093-.106a8.076 8.076 0 0 1 .658-.943c.08-.02.128-.01.082.09z" fill="#ddebc4"/><path d="M14.335 16.352a2.5 2.5 0 0 1-.655.667 1.49 1.49 0 0 1 .532-.67.094.094 0 0 1 .123.002z" fill="#c5de98"/><path d="M13.675 17.1a1.8 1.8 0 0 1-.555.577c.056-.295.317-.44.475-.658a.875.875 0 0 1 .08.08z" fill="#aad16b"/><path d="M13.03 17.77c-.037.25-.237.39-.376.573a.082.082 0 0 1-.005-.126.748.748 0 0 1 .38-.447z" fill="#b9d884"/><path d="M12.1 19.1l-.082-.09a.733.733 0 0 1 .36-.39c-.008.216-.167.337-.278.48z" fill="#cde2a6"/><path d="M12.65 18.217l.004.126c-.077.113-.13.25-.283.284 0-.202.155-.295.28-.41z" fill="#c9e19f"/><path d="M15.078 15.59l-.107.094a.06.06 0 0 1-.105-.006.25.25 0 0 1 .135-.166l.015.02.04.042z" fill="#f3f8eb"/><path d="M14.335 16.352h-.123a.16.16 0 0 1 .118-.093.048.048 0 0 1 .08 0z" fill="#e0edc7"/><path d="M14.41 16.253h-.08a.093.093 0 0 1 .094-.1.044.044 0 0 1 .076 0z" fill="#e5f0d2"/><path d="M14.875 15.78c-.034.07-.076.127-.167.1a.082.082 0 0 1 .062-.11.092.092 0 0 1 .105.01z" fill="#f3f8ea"/><path d="M14.875 15.78l-.105-.007a.126.126 0 0 1 .1-.095l.106.006z" fill="#f3f8eb"/><path d="M14.5 16.162h-.076a.094.094 0 0 1 .1-.1z" fill="#e9f2da"/><path d="M13.124 17.676l-.1.1z" fill="#b6d781"/><path d="M14.62 15.97c0 .074-.028.108-.1.1 0-.064.03-.102.1-.1z" fill="#ecf4df"/><path d="M14.715 15.876c.005.074-.028.108-.1.1-.003-.068.03-.103.1-.1z" fill="#eef5e3"/><path d="M13.675 17.1l-.08-.08a.192.192 0 0 1 .09-.008.26.26 0 0 1-.01.088z" fill="#c0dc91"/><path d="M15.1 39.245l1.24 1.34a.1.1 0 0 1-.142.014 9.89 9.89 0 0 1-1.215-1.233z" fill="#253c4a"/><path d="M23.164 39.953V33.99a10.367 10.367 0 0 0 1.707.707 9.878 9.878 0 0 0 1.74.32 57.093 57.093 0 0 1-3.446 4.936zM31.857 33.554l.45 5.844a47.776 47.776 0 0 1-3.8-4.462 12.64 12.64 0 0 0 1.73-.514 11.912 11.912 0 0 0 1.62-.868zM19.052 27.83l-5.314-2.57.007-.093 5.67-1.032a8.884 8.884 0 0 0-.363 3.696zM38.74 33.32l-4.227-.73-1.323-.236a8.8 8.8 0 0 0 1.765-3.1.37.37 0 0 1 .07-.024.062.062 0 0 1 .044.01c.157.15.32.3.47.453q1.7 1.752 3.4 3.51c.012.183-.1.14-.2.117zM15.91 34.143l3.625-4.406a8.853 8.853 0 0 0 2.054 3.07l-5.566 1.447c-.098.026-.124-.02-.114-.11zM26.75 13.17l1.987 5.47a8.95 8.95 0 0 0-3.63.122l1.537-5.59zM35.313 27.142a8.455 8.455 0 0 0-.59-3.53 46.07 46.07 0 0 1 5.66.543zM20.357 22.133l-2.38-5.3.063-.07 4.93 2.856c-.3.315-.67.485-.967.748a8.633 8.633 0 0 0-.848.808c-.263.3-.516.616-.798.957z" fill="#fff"/><path d="M26.2 27.616l-3.4 4.13a4.586 4.586 0 0 1-1.077-1.158 5.8 5.8 0 0 1-.72-1.37c-.1-.293-.107-.3.186-.385.642-.176 1.29-.34 1.935-.508l3.01-.786z" fill="#ffc114"/><path d="M35.554 16.233l-1.944 5.46a8.756 8.756 0 0 0-2.76-2.3l4.63-3.22z" fill="#fff"/><path d="M27.208 25.5c-.227-.612-.446-1.19-.658-1.772q-.542-1.48-1.075-2.963c-.148-.413-.134-.43.286-.535a5.63 5.63 0 0 1 2.49-.068c.346.068.47.053.338.52-.438 1.553-.85 3.114-1.275 4.672-.013.04-.05.072-.105.146zM25.79 26.87a2.006 2.006 0 0 1-.706.17c-1.325.247-2.656.467-3.98.72-.425.08-.473.043-.53-.415a6.614 6.614 0 0 1 .268-2.553c.088-.337.12-.347.41-.207q2.17 1.043 4.332 2.1c.077.034.18.05.206.185zM26.868 28.13c.13.1.08.234.08.35q.01 2.27.01 4.54c0 .41-.006.4-.41.388a5.953 5.953 0 0 1-2.487-.73c-.316-.164-.328-.212-.13-.492.648-.923 1.3-1.842 1.956-2.762l.76-1.075c.06-.087.096-.2.222-.22zM26.02 25.842c-.638-.362-1.277-.72-1.91-1.086-.772-.445-1.54-.89-2.3-1.346-.27-.16-.274-.193-.107-.426a7.4 7.4 0 0 1 1.978-1.916c.28-.18.3-.18.442.134q.82 1.8 1.625 3.61c.135.3.26.605.392.908.017.1-.03.13-.12.122zM28.206 26a4.078 4.078 0 0 1 .27-.91c.464-1.32.938-2.633 1.41-3.948.144-.4.156-.41.515-.21a6.644 6.644 0 0 1 2 1.74c.2.252.19.29-.08.478-.807.56-1.62 1.114-2.427 1.673-.548.377-1.093.763-1.687 1.177zM28.53 26.78a9.313 9.313 0 0 1 1.1-.67q1.652-.982 3.31-1.95c.246-.144.27-.138.366.12a6.92 6.92 0 0 1 .48 2.72c-.012.327-.024.347-.36.33-.356-.016-.71-.058-1.066-.094l-3.8-.4c-.006.005-.01-.018-.03-.057zM28.193 27.5c.71.12 1.337.222 1.962.332 1.01.178 2.017.363 3.026.542.366.065.383.075.28.407a6.278 6.278 0 0 1-1.375 2.443c-.138.148-.24.158-.376 0-1.08-1.223-2.27-2.34-3.392-3.523a1.886 1.886 0 0 1-.125-.2zM27.676 28.02c.584.7 1.138 1.353 1.69 2.012q.693.828 1.383 1.658c.07.085.142.167.213.25.12.14.08.25-.06.35a6.8 6.8 0 0 1-1.145.634 7.1 7.1 0 0 1-1.47.448c-.188.04-.287-.013-.3-.23-.053-.784-.12-1.566-.182-2.35-.06-.766-.125-1.533-.18-2.3a.767.767 0 0 1 .05-.47z" fill="#ffc114"/><path d="M20.437 43.893l-.11.1a6.69 6.69 0 0 1-.934-.66c-.02-.083-.007-.13.09-.088z" fill="#314b4d"/><path d="M16.2 40.6l.142-.014a1.164 1.164 0 0 1 .344.358.078.078 0 0 1 0 .1 1.586 1.586 0 0 1-.486-.444z" fill="#3d5a50"/><path d="M17.045 41.26a1.433 1.433 0 0 1 .475.467c-.032.04-.064.04-.1 0a1.035 1.035 0 0 1-.374-.355.08.08 0 0 1-.024-.074c.01-.025.016-.038.023-.038z" fill="#648a4d"/><path d="M18.18 42.382a.773.773 0 0 1-.352-.337.378.378 0 0 1 .344.24.063.063 0 0 1 .026.063c-.006.023-.012.034-.02.034z" fill="#77a149"/><path d="M18.267 42.39a.477.477 0 0 1 .375.248.072.072 0 0 1 .03.074c-.008.026-.015.04-.024.04a.76.76 0 0 1-.383-.36z" fill="#5d804e"/><path d="M19.484 43.24l-.09.088a.623.623 0 0 1-.292-.236.07.07 0 0 1 0-.118 1.026 1.026 0 0 1 .382.267z" fill="#466551"/><path d="M19.02 43.038a.5.5 0 0 1-.29-.25q-.036-.03-.024-.063c.007-.02.015-.03.023-.03a.547.547 0 0 1 .288.222.094.094 0 0 1 .002.12z" fill="#4e6e50"/><path d="M38.74 33.32c.07-.03.165-.02.2-.114.075.025.138.073.108.154-.01.028-.1.04-.155.03a.537.537 0 0 1-.153-.07z" fill="#cee3a7"/><path d="M15.91 34.143l.114.11c-.054.064-.137.12-.2.057s.014-.132.086-.167z" fill="#c9e09f"/><path d="M17.423 41.728h.1c.065.028.163.1.117.136-.123.08-.164-.057-.217-.136z" fill="#79a448"/><path d="M26.02 25.842l.115-.122c.07.062.13.148.047.217-.06.05-.122-.037-.163-.095z" fill="#d3c72c"/><path d="M16.68 41.046v-.1a.124.124 0 0 1 .087.12z" fill="#30494d"/><path d="M16.77 41.064a.082.082 0 0 1 .093.095c-.064 0-.1-.027-.095-.094z" fill="#37524e"/><path d="M16.957 41.253c-.063 0-.1-.028-.094-.094.063 0 .1.03.092.1z" fill="#3d5b4f"/><path d="M17.045 41.26v.113c-.05-.026-.093-.056-.092-.12z" fill="#3d5c4e"/><path d="M18.73 42.694a.722.722 0 0 0 0 .093.208.208 0 0 1-.083-.036l-.006-.112z" fill="#3e5b4e"/><path d="M19.02 43.038v-.12l.085.056v.118z" fill="#2d474b"/><path d="M18.18 42.382l-.008-.1a.122.122 0 0 1 .095.1h-.044z" fill="#567c4e"/><path d="M15.056 15.574a.04.04 0 0 1-.04-.042l.032.008z" fill="#f7faf3"/></svg>