<svg xmlns="http://www.w3.org/2000/svg" viewBox="0 0 55 55"><path d="M27.5 32.16H4.67a23.244 23.244 0 0 0 4.2 9.32h37.26a23.163 23.163 0 0 0 4.2-9.32z" fill="#fecd17"/><path d="M27.5 41.48H8.87A23.292 23.292 0 0 0 27.5 50.8a23.29 23.29 0 0 0 18.63-9.32z" fill="#00694e"/><path d="M27.5 22.84h22.83a23.163 23.163 0 0 0-4.2-9.32H27.5z" fill="#fecd17"/><path d="M50.33 22.84H27.5v9.32h22.83a23.288 23.288 0 0 0 0-9.32z" fill="#00694e"/><path d="M8.87 13.52a23.267 23.267 0 0 0-4.2 18.64H27.5V4.2a23.292 23.292 0 0 0-18.63 9.32z" fill="#d11133"/><path d="M46.13 13.52A23.29 23.29 0 0 0 27.5 4.2v9.32z" fill="#00694e"/><path fill="#fff" d="M16.364 10.105l2.008 6.166h6.484l-5.245 3.814 2.004 6.17-5.25-3.81-5.245 3.81 2.002-6.17-5.246-3.813h6.485l2.004-6.165z"/></svg>