<svg xmlns="http://www.w3.org/2000/svg" viewBox="0 0 55 55"><defs><clipPath id="a"><circle cx="27.5" cy="27.5" r="23.3" fill="none"/></clipPath><clipPath id="b"><ellipse cx="27.5" cy="27.5" rx="10.997" ry="10.762" fill="none"/></clipPath></defs><g clip-path="url(#a)"><path fill="#cd2028" d="M-16.43 3.094h87.86v48.81h-87.86z"/><path fill="#fff" d="M-16.43 15.297h87.86v24.406h-87.86z"/><g clip-path="url(#b)"><path d="M24.59 26.282l-1.866-.05v-.7l1.867.753zM24.583 26.077l-1.86-.9V24a.162.162 0 0 1-.186-.205c.01-.488 1.366.89 2.062 1.34l-.017.938zM16.53 29.132l3.92.03v-2.316l-4.48-.2.56 2.49zM16.344 25.938l4.17.38-.03-1.64-4.078-1.523-.062 2.783zM17.184 22.658l3.2 1.465.458-.45s-.3-.19-.28-.367.3-.205.3-.4-.33-.2-.333-.378c-.023-.193.257-.4.257-.4l-2.887-2.37-.716 2.9zM38.22 29.16h-4.14l-.03-2.255 4.543-.322-.374 2.578zM38.32 25.9c-.052-.367-.107-.732-.2-1.09a10.7 10.7 0 0 0-.455-1.416c-.014-.034-.034-.065-.048-.1l-3.54 1.41.033 1.67 4.208-.475zM35.9 20.48l-2.118 1.525c0 .146.157.258.2.4.1.2-.1.37-.217.508-.1.127.112.193.182.268.154.15.02.387-.144.474a.768.768 0 0 1 .34.53l3.17-1.57A10.3 10.3 0 0 0 35.9 20.48zM30.006 26.333l1.773-.073.03-.674-1.8.747zM30 25.967v-.76s1.68-1.43 2.038-1.693a.887.887 0 0 1-.195.52v1.113l-1.843.82zM19.115 19.552L21 21.522c.052-.184.48-.212.915-.183s.783-.028.783.265-.22.25-.22.456.33.19.33.453-.24.21-.24.414c0 .168.25.177.25.177l1.765 1.612.008-1.722-3.64-5.375-1.835 1.932zM22.028 17.517c.027.078 2.466 4.748 2.466 4.748s.027-4.383.443-4.618l-.693-1.2-2.216 1.07zM29.986 17.013l-.92 3.032a5.32 5.32 0 0 0 .865.026c.26.022.058.254.072.39v1.865l2.6-4.378a13.112 13.112 0 0 0-1.872-.72q-.366-.122-.742-.214zM33.225 18.28l-3.22 4.713v1.815l2.153-1.947c.135-.182-.43-.272-.148-.5a.29.29 0 0 0 .03-.547c-.222-.31.2-.475.468-.44a5.09 5.09 0 0 1 1.118.02c.2.182.384-.275.58-.378.388-.372.777-.744 1.16-1.12a10.224 10.224 0 0 0-2.137-1.62z" fill="#f89b1c"/><path d="M24.923 36.58a4 4 0 0 0-1.95.824 11.09 11.09 0 0 0 2.126.64 22.55 22.55 0 0 0 3.6.19c.2-.022.39-.05.58-.08l2.53-.81a4.83 4.83 0 0 0-2.183-.733c-.964.034-1.616.933-2.394.866s-1.09-.9-2.21-.9h-.1zM20.328 35.958l14.376.058A4.565 4.565 0 0 0 32 34.726c-1.463-.028-1.058.587-2.178.675s-1.4-.643-2.427-.614-1.618.615-2.4.645-1.774-.732-2.365-.7a17.167 17.167 0 0 0-2.707.88l.4.352zM18.492 34.346l17.737.06c.28-.382-.873-1.29-1.93-1.378-.872.03-1.494.85-2.21.878s-1.525-.85-2.334-.82-1.65.82-2.458.82-1.4-.85-2.427-.85-1.492.938-2.27.88S21.137 33 20.39 33s-1.99 1.055-2.24 1 .31.44.342.352zM25.35 32.73h3.958a2.54 2.54 0 0 0-1.978-1.2 2.593 2.593 0 0 0-1.98 1.2zM37.975 32.64h-5.418a2.823 2.823 0 0 0 .892-.75c.35.18.254.36.955.39s1.37-.75 2.04-.72 1.53 1.11 1.53 1.08zM16.624 32.64h5.418a2.823 2.823 0 0 1-.892-.75c-.35.18-.255.36-.956.39s-1.37-.75-2.04-.72-1.53 1.11-1.53 1.08zM17.03 31.036l3.858.03a3.12 3.12 0 0 1-.28-1.113c-1-.323-1.8.7-2.52.732a2.44 2.44 0 0 1-1.463-.732l.4 1.083zM37.63 31.036l-3.86.03a3.12 3.12 0 0 0 .28-1.113c1-.323 1.8.7 2.52.732a2.44 2.44 0 0 0 1.463-.732l-.4 1.083zM26.333 31.066l1.96-.06s.03-.555-1-.555-.934.645-.965.616z" fill="#1f4395" stroke="#1f4395" stroke-width=".1"/><path d="M25.306 25.06l4.076 1.025v-5.48c-1.867.09-3.423-3.338-.124-3.573-3.236-.44-3.61.352-3.983 1.2l.03 6.825zM26.21 30.01c-.885 1.384-3.256.974-3.81.01-.166-.046-.068-5.956-.068-5.956s-.265-.114-.277-.3.36-.2.36-.435-.38-.143-.387-.38.405-.2.387-.4c-.02-.236-.452-.2-.47-.418-.015-.172.308-.322.4-.4h-.3l-.68.013c-.482 0 .01.1 0 .36 0 .172-.245.286-.266.435s.342.26.347.443c0 .164-.345.175-.333.327.022.257.31.314.3.47s-.387.215-.388.34c.013.24.055 6.077.055 6.077.61 2.974 4.13 3.73 5.127-.183zM28.53 30.01c.888 1.384 3.258.974 3.812.01.166-.046.068-5.956.068-5.956s.265-.114.277-.3-.337-.2-.337-.435.357-.143.365-.38-.375-.21-.357-.418c.02-.235.314-.208.33-.425.015-.186-.183-.3-.272-.378h.285l.68.012c.482 0-.008.1 0 .36 0 .172.244.286.266.435.007.153-.344.26-.348.443 0 .164.345.175.332.327-.02.257-.31.314-.3.47s.387.215.388.34c-.013.24-.055 6.077-.055 6.077-.61 2.974-4.128 3.73-5.126-.183z" fill="#cd2028" stroke="#630b12" stroke-linejoin="round" stroke-width=".1"/><path d="M25.15 30.274a1.778 1.778 0 0 0 .872-.762l-1.338.03a3.99 3.99 0 0 0-.933.732zM29.475 30.274a1.778 1.778 0 0 1-.87-.762l1.337.03a3.99 3.99 0 0 1 .933.732zM22.723 29.044l9.21.03M23.16 26.964l1.088 1.377M23.16 28.34l1.18-1.347M23.78 26.875l-.03.85M24.9 26.964l1.09 1.377M24.9 28.34l1.183-1.347M25.524 26.875l-.03.85M26.675 26.964l1.09 1.377M26.675 28.34l1.183-1.347M27.3 26.875l-.032.85M28.51 26.964l1.09 1.377M28.51 28.34l1.183-1.347M29.133 26.875l-.03.85M30.285 26.964l1.09 1.377M30.285 28.34l1.182-1.347M30.907 26.875l-.03.85" fill="#630b12" stroke="#630b12" stroke-linecap="round" stroke-width=".1"/></g></g></svg>