<svg xmlns="http://www.w3.org/2000/svg" viewBox="0 0 55 55"><defs><clipPath id="a"><circle cx="-42.5" cy="27.5" r="23.3" fill="none"/></clipPath></defs><g clip-path="url(#a)"><path fill="#cd2028" d="M-86.43 3.094H1.43v48.81h-87.86z"/><path fill="#fff" d="M-86.43 15.297H1.43v24.406h-87.86z"/></g><path d="M27.5 50.8a23.336 23.336 0 0 0 21.966-15.533H5.534A23.33 23.33 0 0 0 27.5 50.8z"/><path d="M27.5 4.2A23.337 23.337 0 0 0 5.534 19.733h43.932A23.343 23.343 0 0 0 27.5 4.2z" fill="#ce1126"/><path d="M49.466 19.733H5.534a23.278 23.278 0 0 0 0 15.534h43.932a23.278 23.278 0 0 0 0-15.534z" fill="#fff"/></svg>