<svg xmlns="http://www.w3.org/2000/svg" viewBox="0 0 55 55"><path d="M50.8 27.5v.35a.18.18 0 0 1 0 .074v.162a23.293 23.293 0 0 1-.23 2.715c-.01.1-.027.2-.042.294-.042.3-.094.59-.157.884-.004.042-.015.09-.025.136a1.394 1.394 0 0 1-.026.14A23.28 23.28 0 0 1 27.5 50.8h-1.658v-.058A23.284 23.284 0 0 1 4.75 32.535a1.248 1.248 0 0 1-.032-.142.926.926 0 0 1-.026-.125 22.124 22.124 0 0 1-.387-2.59c-.01-.073-.016-.15-.02-.224v-.006c-.038-.45-.064-.9-.075-1.365a.216.216 0 0 1 0-.057.19.19 0 0 1 0-.053v-.34a.148.148 0 0 1 0-.047V27.03a.19.19 0 0 1 0-.053.218.218 0 0 1 0-.057c.01-.47.037-.937.074-1.4v-.126l.047-.46c0-.026 0-.047.012-.068a.2.2 0 0 1 0-.057A23.3 23.3 0 0 1 42.678 9.822a.276.276 0 0 1 .062.058 4.656 4.656 0 0 1 .424.377.272.272 0 0 1 .058.052c.063.052.125.11.188.172.026.02.057.052.09.078.14.136.28.272.417.408.026.027.053.048.073.068.042.048.09.1.136.142l.053.052c.26.272.522.55.768.832.02.02.036.042.052.057l.3.344a.48.48 0 0 1 .052.063c.115.136.225.272.335.408a22.628 22.628 0 0 1 2 2.914 23.134 23.134 0 0 1 2.165 5.03c.126.435.24.874.345 1.324a.406.406 0 0 1 .016.063l.016.062c.12.528.224 1.072.307 1.616a.187.187 0 0 0 0 .052c.006.02.006.042.01.058a24.488 24.488 0 0 1 .247 2.86v.11c.006.158.006.314.006.474z" fill="#15890b"/><path d="M34.163 20.88v28.952a23.163 23.163 0 0 1-6.663.968h-1.658V20.88z" fill="#dd2010"/><path d="M50.8 27.5v.35a.18.18 0 0 1 0 .074v.162a23.293 23.293 0 0 1-.23 2.715c-.01.1-.027.2-.042.294-.042.3-.094.59-.157.884-.004.042-.015.09-.025.136a1.394 1.394 0 0 1-.026.14 23.313 23.313 0 0 1-7.836 13.093V20.88h7.37c.125.435.24.874.344 1.324a.406.406 0 0 1 .016.063l.016.062c.12.528.225 1.072.308 1.616a.187.187 0 0 0 0 .052c.006.02.006.042.01.058a24.488 24.488 0 0 1 .247 2.86v.11c.005.158.005.314.005.474z" fill="#ee7c0a"/><path d="M42.48 20.88v24.464a23.1 23.1 0 0 1-8.317 4.488v-28.95z"/><path d="M45.3 12.464c-.094-.115-.194-.23-.3-.345-.016-.016-.032-.037-.052-.058-.246-.283-.508-.56-.77-.832l-.052-.052c-.047-.047-.094-.094-.136-.142-.02-.02-.047-.04-.073-.068-.136-.136-.277-.272-.418-.408-.033-.026-.064-.057-.09-.078-.063-.063-.125-.12-.188-.173a.272.272 0 0 0-.058-.053 4.656 4.656 0 0 0-.424-.376.276.276 0 0 0-.062-.057c-.037 0-.08.016-.11.02a7.908 7.908 0 0 0-1.03.278c-.283.09-.57.184-.837.242a5.428 5.428 0 0 0-2.416.157.7.7 0 0 1-.1-.6.4.4 0 0 1 .21-.246A3.84 3.84 0 0 1 38.9 9.6a.123.123 0 0 1 .048.037.283.283 0 0 1 .02.21.036.036 0 0 0 .01.036c.01 0 .027.01.032 0a.55.55 0 0 0 .272-.272.258.258 0 0 0-.02-.22c-.137-.25-.655-.28-.77-.287-.083-.167-.38-.23-.6-.26a1.765 1.765 0 0 0-.967.157 1.865 1.865 0 0 0-.832 1.286 4.028 4.028 0 0 0-.65-.162c-.26-.047-.563-.084-.825-.115a5 5 0 0 1-.68-.1c-.115-.043-1.113-.472-1.84-.786-.424-.183-.764-.33-.832-.356s-.1-.015-.126.006a.123.123 0 0 0-.016.136 1.414 1.414 0 0 0 .393.507l.047.042c.036.035.078.077.12.114-.54-.25-1.4-.612-1.9-.816-.152-.063-.267-.115-.33-.14-.1-.043-.235-.11-.37-.184-.388-.2-.55-.283-.608-.225-.005 0-.005.01-.01.01-.074.193.047.344.15.48a.164.164 0 0 1 .038.042 5.394 5.394 0 0 0 .408.476 2.574 2.574 0 0 0 .623.43l-.058-.027-.3-.125a3.956 3.956 0 0 1-1.14-.627c-.036-.037-.073-.08-.115-.115a1.563 1.563 0 0 0-.167-.157c-.068-.053-.194-.147-.236-.13a.06.06 0 0 0-.027.03.977.977 0 0 0 .194.64l.02.046a1.7 1.7 0 0 0 .3.4l-.334-.235c-.256-.183-.355-.25-.413-.24a.043.043 0 0 0-.02.01.058.058 0 0 0 0 .026 1.388 1.388 0 0 0 .91.983 3 3 0 0 1-.858-.465c-.027-.02-.043-.036-.07-.036a.024.024 0 0 0-.025 0 .14.14 0 0 0-.016.02c-.035.273.216.472.368.592a3.357 3.357 0 0 0 .627.414 5.872 5.872 0 0 0 1.214.413c-.137.01-.258.036-.28.1a.166.166 0 0 0 .065.126c.072.067.418.34 1.38.2a3.53 3.53 0 0 1-.727.135c-.032.005-.12.01-.126.073-.01.12.42.293.555.32a3.59 3.59 0 0 0 1.208 0 3.376 3.376 0 0 1-.6.13c-.073 0-.105.026-.11.068-.005.084.22.188.376.214a4.8 4.8 0 0 0 1.413.016c-.177.058-.34.1-.407.115-.042.012-.053.038-.053.06.01.1.335.265.565.26.042 0 .094.005.152.01a2.073 2.073 0 0 0 .523-.02c-.094.052-.13.083-.125.125 0 .02.015.037.04.053a1.02 1.02 0 0 0 .467.088 1.776 1.776 0 0 0 .355-.04c-.12.093-.1.13-.094.145a.076.076 0 0 0 .02.017 1.257 1.257 0 0 0 .34.047 1.95 1.95 0 0 0 .624-.104c-.11.1-.15.178-.125.235.03.073.162.09.44.052a5.316 5.316 0 0 0 .726-.2c-.172.1-.28.194-.266.257.027.083.152.345.717.345a1.148 1.148 0 0 0 .132 0 1.627 1.627 0 0 0 .423-.074l-.02.235a.03.03 0 0 0 .02.037c.01.006.026 0 .037-.015l.142-.188a7.267 7.267 0 0 0-.268 1.082.03.03 0 0 0 .016.026c.005.006.01.006.02.006h.01a1.02 1.02 0 0 0 .41-.435c-.016.142-.03.272-.053.377s-.027.194-.027.25a.04.04 0 0 0 .01.027c.01.006.016.01.02.01a.017.017 0 0 0 .012 0 .077.077 0 0 0 .03-.01c-.035.115-.114.32-.26.37a.666.666 0 0 1-.183.033c-.283.03-.754.084-.7.784a.035.035 0 0 0 .02.032.027.027 0 0 0 .037-.016.713.713 0 0 1 .135-.183 1.045 1.045 0 0 0 .58-.084.257.257 0 0 0-.025.325c-.01.14-.016.345.21.392a.04.04 0 0 0 .03-.01.044.044 0 0 0 .01-.027l-.03-.22a.443.443 0 0 0 .355-.3c.037.174.078.268.2.326a.125.125 0 0 1 .01.04c.047.136.08.236.283.236a.047.047 0 0 0 .032-.016.056.056 0 0 0 0-.036c-.027-.037-.048-.068-.064-.095-.062-.095-.083-.13-.047-.19a.465.465 0 0 0 .167-.3.14.14 0 0 0 .005-.04.53.53 0 0 0 .157.24.04.04 0 0 0 .035.005.038.038 0 0 0 .016-.032v-.146a.33.33 0 0 1-.004-.1.446.446 0 0 0 .334-.1.44.44 0 0 0 .053.33.436.436 0 0 0 .1.33.186.186 0 0 0 .13.04.2.2 0 0 0 .053 0c.01 0 .02-.004.02-.015a.034.034 0 0 0 0-.03.48.48 0 0 1-.072-.263.29.29 0 0 0 .172-.116.632.632 0 0 0 .063-.465c.03-.043.052-.05.062-.05s.037.022.057.054a.515.515 0 0 1 .026.057.31.31 0 0 0 .33.226.216.216 0 0 1 0 .105.1.1 0 0 1-.07.074.034.034 0 0 0-.02.042.04.04 0 0 0 .037.026.457.457 0 0 0 .366-.31c.036-.114.02-.3-.24-.506a.09.09 0 0 1 .05-.057c.032-.012.126-.017.315.16 0 .01.015.01.03.01a.05.05 0 0 0 .025-.05.28.28 0 0 0-.042-.25c-.078-.095-.235-.137-.49-.132 0 0-.007 0-.012-.01-.057-.037-.11-.068-.09-.236a.853.853 0 0 0 .44.183h.006a.04.04 0 0 0 .026-.01c0-.01.01-.02 0-.03a.912.912 0 0 0-.084-.153 1.873 1.873 0 0 1-.266-.623.912.912 0 0 1 .125.083c.126.1.256.2.413.157a.03.03 0 0 0 .02-.037c-.004-.047-.056-.1-.135-.183a1.666 1.666 0 0 1-.177-.188 1.177 1.177 0 0 0 .6.23c.042 0 .1-.005.12-.047s-.005-.078-.063-.152a2.21 2.21 0 0 0 .8.288c.126 0 .2-.03.236-.083a.15.15 0 0 0-.02-.15c0-.007-.012-.007-.017-.012a5.31 5.31 0 0 1-.55-.392 3.77 3.77 0 0 0 1.386.34.1.1 0 0 0 .09-.08c.02-.1-.11-.255-.393-.448-.006 0-.01-.006-.016-.01a1.5 1.5 0 0 0 .3.03 1.144 1.144 0 0 0 .565-.135c.006-.006.01-.006.01-.01s.016-.027.01-.043c-.01-.036-.067-.078-.13-.11a2.017 2.017 0 0 0 .617-.11c.004 0 .004-.005.01-.005a.054.054 0 0 0 .02-.052c-.01-.052-.104-.105-.214-.146h.084c.1 0 .214-.006.324-.016a1.84 1.84 0 0 0 1.234-.58l.314-.048a.48.48 0 0 0-.052-.066zm-7.17 2.794v-.367a1.844 1.844 0 0 0 .2.195.04.04 0 0 0 .032.01.04.04 0 0 0 .026-.026 1.13 1.13 0 0 0-.078-.47c.04-.253.068-.99.073-1.267.063.1.12.21.178.32l.032.05a2.687 2.687 0 0 1 .31 1.43.036.036 0 0 0 .014.03.033.033 0 0 0 .037.006.583.583 0 0 0 .11-.085.942.942 0 0 1-.026.387.53.53 0 0 1-.178.01.8.8 0 0 0-.456.074l-.173-.1a.234.234 0 0 1-.102-.198zm.12.83a.322.322 0 0 0-.084-.13.61.61 0 0 1 .084-.067 1.3 1.3 0 0 0-.002.2z" fill="#ee7c0a"/><path d="M44.126 11.178c-.12.03-.24.057-.36.09a.034.034 0 0 0-.027.04.036.036 0 0 0 .03.027h.01c.137-.032.268-.068.4-.105zm.822.884a5.936 5.936 0 0 1-2.448-.142.036.036 0 0 0-.042.02.035.035 0 0 0 .02.043 5.86 5.86 0 0 0 1.6.21 5.792 5.792 0 0 0 .922-.074c-.016-.02-.032-.037-.052-.058zm.35.4c-.09.016-.183.032-.282.042-.43.063-.937.11-1.528.142a1.21 1.21 0 0 0-.277-.084 8.117 8.117 0 0 1-1.62-.534c-.2-.1-.46-.256-.7-.4.073.03.152.062.24.094a1.813 1.813 0 0 0 1.366.062l.015.006a3.966 3.966 0 0 0 .477.036 1.37 1.37 0 0 0 .262-.02.042.042 0 0 0 .025-.042.046.046 0 0 0-.04-.027 2.364 2.364 0 0 1-.713-.015l-.02-.006c-.174-.088-.32-.167-.45-.235-.095-.05-.184-.1-.262-.14a3.61 3.61 0 0 0 1.663.178c.015-.01.026-.02.02-.042-.015-.058-.15-.136-.334-.215a1.035 1.035 0 0 0 .192 0h.152c.283-.004.382-.01.392-.072.01-.047-.036-.09-.177-.157h-.017.026a2.664 2.664 0 0 0 .28.016c-.02-.02-.046-.04-.072-.068a1.4 1.4 0 0 1-.2-.015 2.346 2.346 0 0 1-.33-.053 2.827 2.827 0 0 0-.344-.073c-.02-.005-.037.005-.037.026a.03.03 0 0 0 .02.037l.346.078a1.807 1.807 0 0 1 .3.116 1.03 1.03 0 0 1 .142.083 1.968 1.968 0 0 1-.33.026 1.213 1.213 0 0 0-.147.006 1.9 1.9 0 0 1-.575-.08 2.254 2.254 0 0 0-.43-.094.03.03 0 0 0-.035.026c-.006.016.01.032.026.037a3 3 0 0 1 .355.082c.02.006.047.01.062.016a2.54 2.54 0 0 1 .65.277 4.183 4.183 0 0 1-1.91-.308.036.036 0 0 0-.042.015.027.027 0 0 0 .01.042c.157.105.335.194.576.325.115.06.246.124.4.208a1.84 1.84 0 0 1-1.26-.09 2.578 2.578 0 0 1-.7-.37c.125-.006.152-.037.163-.068.014-.053-.054-.11-.2-.184.93.173.967.074.988.027s0-.11-.214-.24c.632.088.972.062 1-.085.02-.078-.068-.167-.173-.23a4.986 4.986 0 0 0 .822-.115 2.235 2.235 0 0 0 .654.167c-.032-.026-.063-.057-.09-.078a3.06 3.06 0 0 1-.45-.11c.09-.02.184-.047.263-.063a.272.272 0 0 0-.06-.053 5.237 5.237 0 0 1-1.3.183.03.03 0 0 0-.03.032.03.03 0 0 0 .02.036c.147.042.293.157.278.215-.006.03-.09.172-1.1 0a.038.038 0 0 0-.036.026.027.027 0 0 0 .015.036c.325.177.335.24.335.245s-.073.106-1.182-.12a.05.05 0 0 0-.042.027.038.038 0 0 0 .02.042h.007a1.686 1.686 0 0 1 .407.22c-.026.015-.167.05-.94-.043a.04.04 0 0 0-.042.026.038.038 0 0 0 .025.037.448.448 0 0 1 .236.14c0 .006-.047.08-.716-.025a2.077 2.077 0 0 0-.67-.7c-.04-.02-.077-.047-.115-.068a5.54 5.54 0 0 1 2.37-.14h.01c.272-.06.564-.158.847-.247a8.033 8.033 0 0 1 1.02-.277c.046-.006.1-.016.16-.026a.276.276 0 0 0-.06-.058c-.038 0-.08.015-.11.02a7.908 7.908 0 0 0-1.03.277c-.284.09-.572.183-.838.24a5.428 5.428 0 0 0-2.418.158.7.7 0 0 1-.1-.6.4.4 0 0 1 .21-.245 3.84 3.84 0 0 1 .498-.08.123.123 0 0 1 .048.037.283.283 0 0 1 .02.21.036.036 0 0 0 .01.036c.01 0 .027.01.032 0a.55.55 0 0 0 .272-.272.258.258 0 0 0-.02-.22c-.137-.25-.655-.28-.77-.287-.083-.167-.38-.23-.6-.26a1.765 1.765 0 0 0-.967.157 1.865 1.865 0 0 0-.832 1.286 4.028 4.028 0 0 0-.65-.162c-.26-.047-.563-.084-.825-.115a5 5 0 0 1-.68-.1c-.115-.043-1.113-.472-1.84-.786-.424-.183-.764-.33-.832-.356s-.1-.015-.126.006a.123.123 0 0 0-.016.136 1.414 1.414 0 0 0 .393.507l.047.042c.036.035.078.077.12.114-.54-.25-1.4-.612-1.9-.816-.152-.063-.267-.115-.33-.14-.1-.043-.235-.11-.37-.184-.388-.2-.55-.283-.608-.225-.005 0-.005.01-.01.01-.074.193.047.344.15.48a.164.164 0 0 1 .038.042 5.394 5.394 0 0 0 .408.476 2.574 2.574 0 0 0 .623.43l-.058-.027-.3-.125a3.956 3.956 0 0 1-1.14-.627c-.036-.037-.073-.08-.115-.115a1.563 1.563 0 0 0-.167-.157c-.068-.053-.194-.147-.236-.13a.06.06 0 0 0-.027.03.977.977 0 0 0 .194.64l.02.046a1.7 1.7 0 0 0 .3.4l-.334-.235c-.256-.183-.355-.25-.413-.24a.043.043 0 0 0-.02.01.058.058 0 0 0 0 .026 1.388 1.388 0 0 0 .91.983 3 3 0 0 1-.858-.465c-.027-.02-.043-.036-.07-.036a.024.024 0 0 0-.025 0 .14.14 0 0 0-.016.02c-.035.273.216.472.368.592a3.357 3.357 0 0 0 .627.414 5.872 5.872 0 0 0 1.214.413c-.137.01-.258.036-.28.1a.166.166 0 0 0 .065.126c.072.067.418.34 1.38.2a3.53 3.53 0 0 1-.727.135c-.032.005-.12.01-.126.073-.01.12.42.293.555.32a3.59 3.59 0 0 0 1.208 0 3.376 3.376 0 0 1-.6.13c-.073 0-.105.026-.11.068-.005.084.22.188.376.214a4.8 4.8 0 0 0 1.413.016c-.177.058-.34.1-.407.115-.042.012-.053.038-.053.06.01.1.335.265.565.26.042 0 .094.005.152.01a2.073 2.073 0 0 0 .523-.02c-.094.052-.13.083-.125.125 0 .02.015.037.04.053a1.02 1.02 0 0 0 .467.088 1.776 1.776 0 0 0 .355-.04c-.12.093-.1.13-.094.145a.076.076 0 0 0 .02.017 1.257 1.257 0 0 0 .34.047 1.95 1.95 0 0 0 .624-.104c-.11.1-.15.178-.125.235.03.073.162.09.44.052a5.316 5.316 0 0 0 .726-.2c-.172.1-.28.194-.266.257.027.083.152.345.717.345a1.148 1.148 0 0 0 .132 0 1.627 1.627 0 0 0 .423-.074l-.02.235a.03.03 0 0 0 .02.037c.01.006.026 0 .037-.015l.142-.188a7.267 7.267 0 0 0-.268 1.082.03.03 0 0 0 .016.026c.005.006.01.006.02.006h.01a1.02 1.02 0 0 0 .41-.435c-.016.142-.03.272-.053.377s-.027.194-.027.25a.04.04 0 0 0 .01.027c.01.006.016.01.02.01a.017.017 0 0 0 .012 0 .077.077 0 0 0 .03-.01c-.035.115-.114.32-.26.37a.666.666 0 0 1-.183.033c-.283.03-.754.084-.7.784a.035.035 0 0 0 .02.032.027.027 0 0 0 .037-.016.713.713 0 0 1 .135-.183 1.045 1.045 0 0 0 .58-.084.257.257 0 0 0-.025.325c-.01.14-.016.345.21.392a.04.04 0 0 0 .03-.01.044.044 0 0 0 .01-.027l-.03-.22a.443.443 0 0 0 .355-.3c.037.174.078.268.2.326a.125.125 0 0 1 .01.04c.047.136.08.236.283.236a.047.047 0 0 0 .032-.016.056.056 0 0 0 0-.036c-.027-.037-.048-.068-.064-.095-.062-.095-.083-.13-.047-.19a.465.465 0 0 0 .167-.3.14.14 0 0 0 .005-.04.53.53 0 0 0 .157.24.04.04 0 0 0 .035.005.038.038 0 0 0 .016-.032v-.146a.33.33 0 0 1-.004-.1.446.446 0 0 0 .334-.1.44.44 0 0 0 .053.33.436.436 0 0 0 .1.33.186.186 0 0 0 .13.04.2.2 0 0 0 .053 0c.01 0 .02-.004.02-.015a.034.034 0 0 0 0-.03.48.48 0 0 1-.072-.263.29.29 0 0 0 .172-.116.632.632 0 0 0 .063-.465c.03-.043.052-.05.062-.05s.037.022.057.054a.515.515 0 0 1 .026.057.31.31 0 0 0 .33.226.216.216 0 0 1 0 .105.1.1 0 0 1-.07.074.034.034 0 0 0-.02.042.04.04 0 0 0 .037.026.457.457 0 0 0 .366-.31c.036-.114.02-.3-.24-.506a.09.09 0 0 1 .05-.057c.032-.012.126-.017.315.16 0 .01.015.01.03.01a.05.05 0 0 0 .025-.05.28.28 0 0 0-.042-.25c-.078-.095-.235-.137-.49-.132 0 0-.007 0-.012-.01-.057-.037-.11-.068-.09-.236a.853.853 0 0 0 .44.183h.006a.04.04 0 0 0 .026-.01c0-.01.01-.02 0-.03a.912.912 0 0 0-.084-.153 1.873 1.873 0 0 1-.266-.623.912.912 0 0 1 .125.083c.126.1.256.2.413.157a.03.03 0 0 0 .02-.037c-.004-.047-.056-.1-.135-.183a1.666 1.666 0 0 1-.177-.188 1.177 1.177 0 0 0 .6.23c.042 0 .1-.005.12-.047s-.005-.078-.063-.152a2.21 2.21 0 0 0 .8.288c.126 0 .2-.03.236-.083a.15.15 0 0 0-.02-.15c0-.007-.012-.007-.017-.012a5.31 5.31 0 0 1-.55-.392 3.77 3.77 0 0 0 1.386.34.1.1 0 0 0 .09-.08c.02-.1-.11-.255-.393-.448-.006 0-.01-.006-.016-.01a1.5 1.5 0 0 0 .3.03 1.144 1.144 0 0 0 .565-.135c.006-.006.01-.006.01-.01s.016-.027.01-.043c-.01-.036-.067-.078-.13-.11a2.017 2.017 0 0 0 .617-.11c.004 0 .004-.005.01-.005a.054.054 0 0 0 .02-.052c-.01-.052-.104-.105-.214-.146h.084c.1 0 .214-.006.324-.016a1.84 1.84 0 0 0 1.234-.58l.314-.048a.48.48 0 0 0-.052-.066zm-5.633-1c.183 0 .225-.036.236-.078s-.03-.09-.1-.13c.247.025.415.04.53.04a6.125 6.125 0 0 0 1.218.8 8.147 8.147 0 0 0 1.637.54c.252.057.293.1.3.11-.006 0-.01.005-.027.015-1.307.344-3.1-.8-3.614-1.162a.026.026 0 0 0-.04.005.03.03 0 0 0 0 .047 10 10 0 0 0 1.976 1.245l.387.21a1.95 1.95 0 0 1-1.078-.137 1.82 1.82 0 0 1-.294-.167h.004c0-.004-.01-.01-.016-.01a19.048 19.048 0 0 1-1.58-1.265c0-.016-.015-.037-.02-.053s-.016-.036-.026-.052a3.3 3.3 0 0 0 .507.04zM33.42 13a1.1 1.1 0 0 1 .23-.146c.037-.02.074-.042.116-.068a2.352 2.352 0 0 0 .628-.388.027.027 0 0 0 0-.04.028.028 0 0 0-.04-.012c-.263.173-.472.3-.63.387a1.6 1.6 0 0 1-.773.1c-.062-.006-.11-.01-.156-.01a.8.8 0 0 1-.492-.19 3.626 3.626 0 0 0 .984-.37.034.034 0 0 0 .005-.048.042.042 0 0 0-.04-.01 3.73 3.73 0 0 1-1.957.173.638.638 0 0 1-.324-.147.3.3 0 0 1 .046 0 9.108 9.108 0 0 0 1.47-.407.036.036 0 0 0 .02-.042.034.034 0 0 0-.04-.02 4.385 4.385 0 0 1-2.057.21 1.126 1.126 0 0 1-.5-.252.2.2 0 0 1 .062-.01 7.383 7.383 0 0 0 1.653-.42.03.03 0 0 0 .02-.04.033.033 0 0 0-.04-.02c-1.5.454-2.067.16-2.2.06a.252.252 0 0 1-.085-.093.9.9 0 0 1 .45-.063h.016a2.955 2.955 0 0 0 .842-.136.035.035 0 0 0 .02-.04.03.03 0 0 0-.036-.022 3.086 3.086 0 0 1-.837.13l-.09-.02a6.458 6.458 0 0 1-1.343-.445 3.136 3.136 0 0 1-.612-.4c-.172-.137-.34-.283-.345-.477.115.105.455.42 2.694 1.114a.037.037 0 0 0 .04-.02.033.033 0 0 0-.02-.043q-.314-.117-.6-.22c-1.17-.428-1.882-.69-2.045-1.36a3.773 3.773 0 0 1 .325.22 4.06 4.06 0 0 0 .575.367c.052.016.152.058.278.11.21.1.428.184.642.267h.01c.032.016.064.026.1.042a13.722 13.722 0 0 0 1.534.543.03.03 0 0 0 .035-.02.035.035 0 0 0-.02-.043c-.126-.042-.252-.09-.377-.13-.377-.13-.77-.272-1.15-.414-.25-.1-.487-.2-.675-.277-.027-.01-.047-.022-.074-.032a2.932 2.932 0 0 1-.325-.178 1.3 1.3 0 0 1-.424-.492l-.018-.058a1.044 1.044 0 0 1-.193-.56 1.006 1.006 0 0 1 .16.105 1.468 1.468 0 0 1 .163.152c.042.042.078.078.12.115a4.02 4.02 0 0 0 1.156.643c.1.037.2.084.3.126l.062.027c.4.178.82.36 1.25.5a.807.807 0 0 0 .13.042.033.033 0 1 0 .022-.064c-.455-.188-.9-.376-1.323-.59a2.51 2.51 0 0 1-.627-.43 4.65 4.65 0 0 1-.4-.47c-.01-.01-.02-.027-.036-.042-.095-.12-.2-.252-.142-.4a2.537 2.537 0 0 1 .53.24c.135.068.27.142.37.183.063.027.178.074.33.142.585.24 1.678.694 2.154.935a2.06 2.06 0 0 0 .36.2.79.79 0 0 1-.643.136.027.027 0 0 0-.032.01.033.033 0 0 0 0 .038.247.247 0 0 0 .01.03c.037.106.1.3.8.17a1.707 1.707 0 0 1-.543.318.028.028 0 0 0-.026.026.03.03 0 0 0 .02.037 2.48 2.48 0 0 0 .87.15 3.235 3.235 0 0 1-.372.325.034.034 0 0 0-.016.04.043.043 0 0 0 .032.022c.3 0 .5 0 .654-.015-.163.1-.278.188-.293.193a.047.047 0 0 0-.015.037.033.033 0 0 0 .03.026 3.1 3.1 0 0 0 1.173-.11 3.945 3.945 0 0 1-.675.345h-.005a.005.005 0 0 0 0 .006h-.011c0 .004 0 .004-.005.01v.015c0 .005 0 .005.005.01a.01.01 0 0 0 .01.01.98.98 0 0 0 .56.137 2.333 2.333 0 0 0 .445-.047 2.712 2.712 0 0 0 .565-.162c-.215.157-.513.37-.575.408a.078.078 0 0 0-.037.095c.02.057.13.09.293.09a2.29 2.29 0 0 0 1.595-.713.914.914 0 0 0 .2.215l-.126.152a1.013 1.013 0 0 0-.11.1h-.005a17.865 17.865 0 0 1-1.632.9 1.358 1.358 0 0 1-1 .04zm-.292-2.568a.08.08 0 0 0 .03.015c-.124.13-.25.257-.355.36a2.58 2.58 0 0 1-.82-.11 2.024 2.024 0 0 0 .564-.39.025.025 0 0 0 0-.037.03.03 0 0 0-.036-.01c-.706.15-.8.004-.83-.09a.78.78 0 0 0 .663-.183 5.075 5.075 0 0 0 1.04.3.965.965 0 0 1-.235.09c-.015 0-.03.004-.03.02a.033.033 0 0 0 .01.033zm.094.047a1.646 1.646 0 0 0 .82.11c-.1.1-.14.135-.15.145a8.374 8.374 0 0 0-.75.445c-.14.01-.34.01-.658.015.08-.068.2-.177.356-.33.115-.116.246-.247.382-.388zm2.834 1.055a2.34 2.34 0 0 1-1.223.68c-.44.074-.565 0-.57-.015s0-.006.015-.01c.094-.07.785-.56.816-.587a2.508 2.508 0 0 0 .884-.66.927.927 0 0 0 .078.59zm.66 2.28c-.628.038-.753-.22-.78-.3a2.673 2.673 0 0 1 .738-.433.03.03 0 0 0 .015-.037.03.03 0 0 0-.043-.02 7.524 7.524 0 0 1-1.244.39c-.32.05-.36 0-.366-.014s-.016-.072.25-.282a3.586 3.586 0 0 0 .607-.35.032.032 0 0 0 .006-.042.03.03 0 0 0-.048-.005 2.4 2.4 0 0 1-1.663.487 1.54 1.54 0 0 1 .256-.178 15.258 15.258 0 0 0 1.438-.78c-.094.105-.162.2-.14.262a.063.063 0 0 0 .056.047 1.55 1.55 0 0 0 .837-.252 1.7 1.7 0 0 1 .58 1.3c0 .086-.005.164-.502.206zm.784 1.314c.005-.053.016-.116.026-.19.02-.146.052-.334.068-.543v-.006a3.4 3.4 0 0 0 0-.475c0-.02-.015-.03-.036-.03s-.03.015-.03.036a3.33 3.33 0 0 1-.007.46 1.33 1.33 0 0 1-.4.52 9.68 9.68 0 0 1 .32-1.19.04.04 0 0 0-.016-.04.037.037 0 0 0-.042.01l-.193.25.014-.16a.177.177 0 0 0 .073-.163 2.073 2.073 0 0 0-.14-.722.974.974 0 0 1 .083-.36 1.543 1.543 0 0 0 .628.35.806.806 0 0 1 .465.36c0 .115-.03 1.088-.078 1.36v.01a1.59 1.59 0 0 1 .078.393.95.95 0 0 1-.36-.518l-.006-.026c0-.01-.016-.02-.03-.02a.042.042 0 0 0-.032.02 1.615 1.615 0 0 1-.356.638l-.006.005a.244.244 0 0 1-.024.03zm1.417.035a.033.033 0 0 0 .037.006.583.583 0 0 0 .11-.083.942.942 0 0 1-.026.387.53.53 0 0 1-.178.01.8.8 0 0 0-.455.074l-.173-.1a.234.234 0 0 1-.1-.193v-.367a1.844 1.844 0 0 0 .2.194.04.04 0 0 0 .032.01.04.04 0 0 0 .026-.026 1.13 1.13 0 0 0-.078-.47c.04-.252.068-.99.073-1.266.063.1.12.21.178.32l.03.05a2.687 2.687 0 0 1 .31 1.43.036.036 0 0 0 .014.023zm-.67.926a.322.322 0 0 0-.083-.13.61.61 0 0 1 .084-.067 1.3 1.3 0 0 0 0 .196zm.017-.3c0 .01-.006.017-.006.027a.427.427 0 0 0-.167.13.033.033 0 0 0 0 .048.294.294 0 0 1 .11.26.425.425 0 0 1-.14.258.01.01 0 0 0-.01.01c-.074.1-.022.173.036.262a.218.218 0 0 0 .026.042c-.094-.016-.114-.068-.157-.183a.424.424 0 0 0-.016-.053c-.006-.01-.01-.02-.02-.02-.137-.057-.153-.15-.2-.413l-.012-.047a.038.038 0 0 0-.036-.026.034.034 0 0 0-.032.03.394.394 0 0 1-.355.425c-.01.004-.02.004-.026.015a.022.022 0 0 0-.007.026l.026.2c-.12-.052-.12-.167-.116-.32a.036.036 0 0 0 0-.02c-.07-.104-.058-.2.182-.45a.033.033 0 0 0-.047-.046.9.9 0 0 1-.733.214h-.016c-.014 0-.04-.005-.13.126 0-.54.372-.58.65-.607a.932.932 0 0 0 .2-.037c.218-.083.3-.43.318-.5a1.57 1.57 0 0 0 .335-.56.69.69 0 0 0 .136.236v.445a.29.29 0 0 0 .14.252l.15.09a.3.3 0 0 0-.086.184zm1.46-.423c.004.005.01.01.014.01a.028.028 0 0 0 .02.006c.232 0 .383.03.446.11a.167.167 0 0 1 .036.136c-.162-.148-.27-.153-.33-.132a.15.15 0 0 0-.1.126.024.024 0 0 0 .01.03c.195.153.278.3.236.45a.38.38 0 0 1-.193.22c0-.01.005-.015.005-.02a.2.2 0 0 0-.03-.178.037.037 0 0 0-.027-.01c-.177.02-.23-.084-.282-.19a.532.532 0 0 1-.026-.057.15.15 0 0 0-.11-.09c-.057-.005-.1.048-.13.084a.06.06 0 0 0 0 .026.55.55 0 0 1-.054.43.242.242 0 0 1-.152.1.03.03 0 0 0-.03.025.512.512 0 0 0 .056.282.132.132 0 0 1-.082-.036.417.417 0 0 1-.073-.282c0-.01 0-.015-.006-.02a.453.453 0 0 1 0-.45.04.04 0 0 0-.02-.047.03.03 0 0 0-.04.02.392.392 0 0 1-.4.21.008.008 0 0 0-.016 0c-.053.016-.048.058-.037.168v.052a.655.655 0 0 1-.08-.544c.043-.26.326-.256.53-.25.12.005.193.005.23-.032.073-.094.042-.408.03-.5a1 1 0 0 0 .174-.44 1.806 1.806 0 0 0 .315.445c-.033.227.03.29.118.342zm.443-.858c.042.046.084.088.1.114a.5.5 0 0 1-.32-.15.836.836 0 0 0-.167-.116.048.048 0 0 0-.026-.006c-.01.006-.02.016-.02.02-.058.174.135.5.26.723.022.032.037.058.053.084-.35-.08-.49-.247-.753-.718a.027.027 0 0 0-.037-.015c-.015 0-.026.01-.026.026a1 1 0 0 1-.17.518.44.44 0 0 1-.085.084 2.933 2.933 0 0 0-.33-1.4l-.03-.053a4.6 4.6 0 0 0-.236-.412l-.006-.005a.924.924 0 0 0-.508-.4 1.555 1.555 0 0 1-.633-.36.036.036 0 0 0-.03-.01.025.025 0 0 0-.022.015 1.37 1.37 0 0 0-.1.3 1.4 1.4 0 0 0-.428-.512.04.04 0 0 0-.037 0 1.436 1.436 0 0 1-.81.25H35.8c-.016-.046.167-.266.4-.475v-.005l.157-.177a.044.044 0 0 0 0-.027c0-.01 0-.014-.015-.02a.64.64 0 0 1-.23-.25.027.027 0 0 0-.01-.022 1.083 1.083 0 0 1 .04-.936.03.03 0 0 0-.015-.042.036.036 0 0 0-.047.016 2.232 2.232 0 0 0-.078.23 2.868 2.868 0 0 1-1.778 1.036 1.465 1.465 0 0 1-.9-.042 5.51 5.51 0 0 0 .993-.565.9.9 0 0 0 .178-.12.05.05 0 0 0 .006-.047.04.04 0 0 0-.047-.006c-.057.037-.11.08-.167.116a2.67 2.67 0 0 1-1.443.292 11.55 11.55 0 0 1 1.05-.643 1.17 1.17 0 0 0 .8-.047c-.1.157-.114.21-.114.225a.036.036 0 0 0 .03.037h.3a.036.036 0 0 0 .036-.037.034.034 0 0 0-.036-.03h-.252a1.357 1.357 0 0 1 .168-.263.033.033 0 0 0 0-.042.032.032 0 0 0-.042-.005 1.125 1.125 0 0 1-.816.11c.03-.032.094-.09.193-.19a.03.03 0 0 0 .007-.04.032.032 0 0 0-.037-.016 1.536 1.536 0 0 1-.884-.085l-.005-.005c.1-.037.236-.105.258-.115a.042.042 0 0 0 .015-.037c0-.01-.015-.02-.026-.026A5.6 5.6 0 0 1 32.3 9.9a2.48 2.48 0 0 1-.7-.49l-.042-.043a1.543 1.543 0 0 1-.377-.476c-.01-.046-.004-.067 0-.072a.093.093 0 0 1 .06.01c.062.026.4.173.825.35.77.335 1.726.75 1.846.79a4.55 4.55 0 0 0 .692.105c.26.03.565.068.832.11a3.3 3.3 0 0 1 .653.178.02.02 0 0 0 .016.006h.006c.087.037.124.058.13.058a.028.028 0 0 0 .04-.01.028.028 0 0 0-.01-.043.46.46 0 0 0-.125-.067 1.847 1.847 0 0 1 .8-1.255 1.7 1.7 0 0 1 .925-.146c.12.02.5.073.56.24a.033.033 0 0 0 .03.026c.007 0 .6.006.734.257a.18.18 0 0 1 .015.162.438.438 0 0 1-.178.2A.29.29 0 0 0 39 9.6a.215.215 0 0 0-.167-.09c-.1-.004-.372-.02-.42-.1a.03.03 0 0 0-.04-.01.034.034 0 0 0-.01.047c.03.058.114.1.276.115a1.775 1.775 0 0 0-.272.053.485.485 0 0 0-.252.282.722.722 0 0 0 .037.513 1.483 1.483 0 0 1-.194-.272.037.037 0 0 0-.043-.016.032.032 0 0 0-.015.047 1.367 1.367 0 0 0 .35.423 1.707 1.707 0 0 0 .157.1 2.078 2.078 0 0 1 .71.8 3.928 3.928 0 0 1 .157 1.035.034.034 0 1 0 .068 0 6.547 6.547 0 0 0-.11-.884 17.52 17.52 0 0 0 1.527 1.214c.194.193.388.376.6.575a.347.347 0 0 1 .068.073.168.168 0 0 1-.078.01.68.68 0 0 1-.236-.036 2.8 2.8 0 0 1-.455-.194c-.046-.026-.093-.047-.14-.073a2.124 2.124 0 0 1-.576-.434c-.1-.132-.235-.262-.24-.273s-.032-.016-.047 0a.033.033 0 0 0-.006.047c.012.01.11.13.253.272a.583.583 0 0 1 .078.12 1.96 1.96 0 0 0 .21.252 1.64 1.64 0 0 1 .273.345c-.513.09-1.408-.8-1.418-.81a.04.04 0 0 0-.047 0 .038.038 0 0 0 0 .046c.015.015.157.156.355.318a1.444 1.444 0 0 1 .267.492 2.63 2.63 0 0 0 .13.345 1.753 1.753 0 0 0 .417.565zm2.386-.31a.038.038 0 0 1-.037.027 3.222 3.222 0 0 1-1.67-.544.033.033 0 1 0-.046.047 4.54 4.54 0 0 0 .847.67c.017.026.032.057.017.078s-.038.047-.174.047a2.35 2.35 0 0 1-1.082-.492.034.034 0 0 0-.047 0 .037.037 0 0 0 0 .047l.006.006a1.548 1.548 0 0 1 .33.345.323.323 0 0 1-.058 0 1.158 1.158 0 0 1-.753-.38c-.027-.048-.047-.095-.074-.147-.06-.152-.1-.256-.124-.34a1.3 1.3 0 0 0-.157-.34 1.7 1.7 0 0 0 .867.387.987.987 0 0 0 .12-.01.046.046 0 0 0 .02-.037c0-.09-.12-.225-.3-.42-.025-.03-.056-.06-.082-.093a1.564 1.564 0 0 0 .334.22c.046.02.093.047.146.073a3.254 3.254 0 0 0 .46.194.807.807 0 0 0 .26.042c.064-.007.127-.017.137-.06s-.026-.088-.083-.145c-.14-.13-.277-.257-.408-.387.026.01.047.026.073.036.07.026.136.047.2.068a7.92 7.92 0 0 0 .91.727c.372.25.372.355.368.38zm.465-.6a1.38 1.38 0 0 1-.957.053c-.27-.2-.512-.4-.643-.518.09.02.173.03.247.042l.01.01a2.91 2.91 0 0 0 1.13.293.91.91 0 0 1 .214.12zm.78-.512a3.84 3.84 0 0 1-1.5-.167.03.03 0 0 0-.043.016.043.043 0 0 0 .02.047 3.9 3.9 0 0 0 .9.178c.006 0 .01 0 .016.012a1.23 1.23 0 0 1 .34.146 2.468 2.468 0 0 1-1.693-.13.17.17 0 0 0 .057.005 1.653 1.653 0 0 0 .377-.042c.01-.005.022-.015.022-.025a.032.032 0 0 0-.01-.037c-.063-.042-.23-.13-.466-.256-.4-.215-.973-.523-1.412-.81a5.49 5.49 0 0 0 2.536.862 2.064 2.064 0 0 0 .544-.068h.01s.07-.042.058-.084a.022.022 0 0 0 0-.016c.528-.03.983-.073 1.38-.125a1.835 1.835 0 0 1-1.132.497zM38.358 12.548c-.047-.042-.084-.078-.11-.1a.44.44 0 0 1-.1-.283.03.03 0 0 0-.03-.037.03.03 0 0 0-.032.032.48.48 0 0 0 .11.335c.03.026.073.068.12.11.157.14.392.35.42.538a.03.03 0 0 0 .03.032h.005c.022-.006.032-.02.027-.037-.026-.218-.27-.438-.44-.59zM37.95 9.06c-.084-.074-.26-.01-.434.052a.76.76 0 0 1-.2.062.023.023 0 0 0-.02.02.04.04 0 0 0 .004.038 1.36 1.36 0 0 0 .445.084.3.3 0 0 0 .1-.01c.114-.048.14-.1.146-.137a.118.118 0 0 0-.04-.11zm-.126.177a.9.9 0 0 1-.382-.026c.032-.01.063-.025.1-.036.136-.047.308-.11.366-.062a.05.05 0 0 1 .016.047c0 .025-.042.056-.1.077z"/></svg>