<svg xmlns="http://www.w3.org/2000/svg" viewBox="0 0 55 55"><path d="M15.852,7.328V47.672a23.287,23.287,0,0,1,0-40.344Z"/><path d="M50.8,27.5A23.312,23.312,0,0,1,39.152,47.672V7.328A23.325,23.325,0,0,1,50.8,27.5Z" style="fill:#007937"/><path d="M39.152,7.328V47.672a23.259,23.259,0,0,1-23.3,0V7.328a23.259,23.259,0,0,1,23.3,0Z" style="fill:#d22011"/><polygon points="30.685 25.659 24.304 25.659 23.833 25.078 31.161 25.078 30.685 25.659" style="fill:#fff"/><polygon points="29.45 24.89 25.539 24.89 26.14 24.351 28.854 24.351 29.45 24.89" style="fill:#fff"/><rect x="24.429" y="23.258" width="0.842" height="1.59" style="fill:#fff"/><rect x="24.429" y="22.903" width="0.842" height="0.23" style="fill:#fff"/><path d="M25.271,22.762h-.842V22.5a.426.426,0,0,1,.424-.424h0a.424.424,0,0,1,.418.424Z" style="fill:#fff"/><rect x="29.717" y="23.258" width="0.847" height="1.59" style="fill:#fff"/><rect x="29.717" y="22.903" width="0.847" height="0.23" style="fill:#fff"/><path d="M30.564,22.762h-.847V22.5a.425.425,0,0,1,.424-.424h0a.429.429,0,0,1,.423.424Z" style="fill:#fff"/><path d="M28.943,22.871a1.088,1.088,0,0,0-.952-.836.65.65,0,0,1-.5-.5.64.64,0,0,1-.5.5,1.094,1.094,0,0,0-.952.836,1.425,1.425,0,0,0,.325,1.3h2.254A1.434,1.434,0,0,0,28.943,22.871Zm-2.626.518a1.125,1.125,0,0,1-.015-.4.826.826,0,0,1,.141-.377.751.751,0,0,1,.3-.251,1.233,1.233,0,0,0-.3.649,2.067,2.067,0,0,0-.016.36,3.169,3.169,0,0,0,.052.372A.864.864,0,0,1,26.317,23.389Zm.414.188a3.169,3.169,0,0,0,.052.372.838.838,0,0,1-.157-.356,1.149,1.149,0,0,1-.016-.4.828.828,0,0,1,.142-.377.755.755,0,0,1,.3-.251,1.24,1.24,0,0,0-.3.649A2.066,2.066,0,0,0,26.731,23.577Zm1.637.016a.942.942,0,0,1-.162.356,2.265,2.265,0,0,0,.052-.372,2.067,2.067,0,0,0-.016-.36,1.2,1.2,0,0,0-.3-.649.692.692,0,0,1,.3.251.9.9,0,0,1,.146.377A1.423,1.423,0,0,1,28.368,23.593Zm.309-.2a.929.929,0,0,1-.163.356,2.265,2.265,0,0,0,.052-.372,2.066,2.066,0,0,0-.015-.36,1.2,1.2,0,0,0-.3-.649.686.686,0,0,1,.3.251.9.9,0,0,1,.147.377A1.5,1.5,0,0,1,28.677,23.389Z" style="fill:#fff"/><rect x="24.382" y="25.785" width="6.224" height="0.136" style="fill:#fff"/><rect x="24.382" y="29.629" width="0.973" height="0.57" style="fill:#fff"/><rect x="24.382" y="27.986" width="0.973" height="0.335" style="fill:#fff"/><polygon points="25.355 27.829 24.382 27.829 24.288 27.5 25.449 27.5 25.355 27.829" style="fill:#fff"/><path d="M24.382,26.051v1.292h.973V26.051Zm.832,1.114h-.141V26.37h-.408v.795h-.141v-.936h.69Z" style="fill:#fff"/><rect x="24.801" y="29.074" width="0.136" height="0.235" style="fill:#fff"/><rect x="24.56" y="28.902" width="0.209" height="0.136" style="fill:#fff"/><rect x="24.973" y="28.902" width="0.204" height="0.136" style="fill:#fff"/><rect x="24.801" y="28.635" width="0.136" height="0.235" style="fill:#fff"/><path d="M24.382,28.462v1.02h.973v-1.02Zm.869.916h-.758v-.811h.758Z" style="fill:#fff"/><rect x="29.633" y="29.629" width="0.973" height="0.57" style="fill:#fff"/><path d="M30.606,30.356h-.973a1.471,1.471,0,0,1-.58,1.025h2.134A1.471,1.471,0,0,1,30.606,30.356Z" style="fill:#fff"/><rect x="29.633" y="27.986" width="0.973" height="0.335" style="fill:#fff"/><polygon points="30.606 27.829 29.633 27.829 29.539 27.5 30.7 27.5 30.606 27.829" style="fill:#fff"/><path d="M29.633,26.051v1.292h.973V26.051Zm.832,1.114h-.141V26.37h-.408v.795h-.141v-.936h.69Z" style="fill:#fff"/><rect x="30.052" y="29.074" width="0.136" height="0.235" style="fill:#fff"/><rect x="29.811" y="28.902" width="0.204" height="0.136" style="fill:#fff"/><rect x="30.224" y="28.902" width="0.204" height="0.136" style="fill:#fff"/><rect x="30.052" y="28.635" width="0.136" height="0.235" style="fill:#fff"/><path d="M29.633,28.462v1.02h.973v-1.02Zm.869.916h-.764v-.811H30.5Z" style="fill:#fff"/><path d="M24.382,30.356h.973s.141.36.921.36v.665H23.77S24.382,30.8,24.382,30.356Z" style="fill:#fff"/><polygon points="32.295 32.27 22.693 32.27 23.604 31.569 31.385 31.569 32.295 32.27" style="fill:#fff"/><rect x="29.225" y="28.473" width="0.141" height="0.847" style="fill:#fff"/><path d="M25.533,26.14v.743a1.615,1.615,0,0,1,.607-.743Z" style="fill:#fff"/><path d="M29.45,26.14v.743a1.625,1.625,0,0,0-.6-.743Z" style="fill:#fff"/><path d="M33.755,28.912a.375.375,0,0,0-.011-.057,3.96,3.96,0,0,1-.078-.978,1.541,1.541,0,0,0-.617-1.277,7.971,7.971,0,0,1-.591-.622l.015-.026a.209.209,0,0,0,.058,0,.27.27,0,1,0-.193-.084l-1.821,3.154.058.209,1.1-1.9a1.6,1.6,0,0,1,.915,1.4,2.994,2.994,0,0,0,.3,1.062l.027.036.031-.031C33.765,28.985,33.76,28.928,33.755,28.912Zm-1.4-1.088.016-.031a1.012,1.012,0,0,1,.313-.377c.037-.026.079-.052.121-.078a1.358,1.358,0,0,0,.282-.2.51.51,0,0,0,.11-.293,1.353,1.353,0,0,1,.4,1.036v.193a.715.715,0,0,1-.2.209.882.882,0,0,1-.278.121,1.05,1.05,0,0,0-.172.057.716.716,0,0,0-.283.251A2.281,2.281,0,0,0,32.353,27.824Z" style="fill:#fff"/><path d="M22.06,29.8l.032.031.02-.041a2.9,2.9,0,0,0,.3-1.062,1.594,1.594,0,0,1,.915-1.391l1.1,1.9.058-.209-1.825-3.154a.261.261,0,0,0,.073-.183.267.267,0,1,0-.267.267.276.276,0,0,0,.063-.01l.016.031a8.168,8.168,0,0,1-.591.622,1.526,1.526,0,0,0-.618,1.277,3.847,3.847,0,0,1-.083.978.571.571,0,0,0-.011.057C21.244,28.928,21.239,28.985,22.06,29.8Zm.288-1.088a.716.716,0,0,0-.283-.251.946.946,0,0,0-.177-.063.778.778,0,0,1-.272-.115.846.846,0,0,1-.209-.209,1.241,1.241,0,0,0,0-.193,1.378,1.378,0,0,1,.4-1.036.558.558,0,0,0,.115.293,1.473,1.473,0,0,0,.277.2l.126.078a1,1,0,0,1,.308.377.1.1,0,0,1,.021.031A2.112,2.112,0,0,0,22.348,28.708Z" style="fill:#fff"/><path d="M26.82,28.729v.811h.329V27.965H25.794V29.54h.33v-.811a.346.346,0,0,1,.345-.35A.351.351,0,0,1,26.82,28.729Z" style="fill:#fff"/><rect x="26.338" y="28.729" width="0.262" height="0.811" style="fill:#fff"/><rect x="27.74" y="28.389" width="0.241" height="0.167" style="fill:#fff"/><rect x="28.106" y="28.933" width="0.241" height="0.162" style="fill:#fff"/><rect x="28.807" y="30.115" width="0.241" height="0.167" style="fill:#fff"/><rect x="28.54" y="29.519" width="0.246" height="0.162" style="fill:#fff"/><polygon points="28.321 29.43 27.86 29.215 27.86 28.865 27.526 28.719 27.526 28.279 27.374 28.175 27.374 29.54 27.829 29.54 28.566 30.366 28.566 30.073 28.321 29.817 28.321 29.43" style="fill:#fff"/><path d="M29.633,30.753l-.449-.335V30.01l-.257-.2V29.4l-.429-.2v-.387l-.36-.157v-.377l-.759-.334v-.278H25.758a1.734,1.734,0,0,1,3.467.006v.6h.142v-.6a1.875,1.875,0,0,0-3.75,0v2.562h.622v1.146h.073v-.628h.644l.12.628h.643l-.2-.628h.461l.382.628h.925l-.575-.628Zm-.517-.706v.3h-.382v-.3Zm-.644-.6h.382v.308h-.382Zm-.052-.586v.3h-.382v-.3Zm-.753-.539h.387v.3h-.387Zm-1.475.408v.879h-.471V27.9h1.5v1.711h-.471v-.879a.277.277,0,0,0-.554,0Zm.079.879v-.947h.4v.947Zm.041.554v-.471h.434l.094.471Zm.7.523-.089-.45h.361l.141.45Zm.319-.523-.146-.471h.151l.288.471Zm.989.523h-.3l-.272-.45h.393l.413.45Zm.319-.136-.842-.941h-.5V28.044l.3.2v.429l.329.146v.35l.466.22v.4l.246.261Z" style="fill:#fff"/><path d="M32.112,36.035c-.449-.4-.957-.721-1.38-1.145a.588.588,0,0,0-.136-.115c-.3-.162-.769.12-1.041.235a5.955,5.955,0,0,1-4.111,0c-.267-.115-.737-.4-1.041-.235a.684.684,0,0,0-.131.115c-.423.424-.936.748-1.385,1.145-.21.184-.486.435-.131.68a5.259,5.259,0,0,0,1.36.367.438.438,0,0,1-.042.376c-.152.267-.094.34,0,.356a1.22,1.22,0,0,1,.889-.183c.6.115,1.035.361,1.213.23.152-.121-.026-.4.194-.565.345.016.722.021,1.129.021s.785-.005,1.13-.021c.225.162.042.444.2.565.172.125.612-.115,1.213-.23s.795.2.889.183.153-.089,0-.356a.443.443,0,0,1-.047-.376,5.166,5.166,0,0,0,1.36-.367C32.6,36.47,32.322,36.219,32.112,36.035Zm-6.1,1.638c-.089.067-.141.02-.622-.157a1.6,1.6,0,0,0-1.151-.011,1.03,1.03,0,0,0,.068-.392c.429.063.957.125,1.611.162A.289.289,0,0,1,26.009,37.673Zm3.609-.157c-.482.177-.539.224-.623.157a.285.285,0,0,1,.094-.4c.649-.037,1.182-.1,1.611-.162a1.139,1.139,0,0,0,.063.392A1.581,1.581,0,0,0,29.618,37.516Zm2.568-.91c-.131.062-1.324.591-4.687.591s-4.555-.529-4.68-.586c-.074-.053-.11-.1-.11-.147-.006-.1.13-.225.261-.34.183-.157.377-.308.565-.455a8.518,8.518,0,0,0,.821-.69l.026-.026a.454.454,0,0,1,.079-.073.363.363,0,0,1,.157-.032,1.648,1.648,0,0,1,.627.209c.058.027.11.048.152.068a6.142,6.142,0,0,0,4.21,0c.042-.02.094-.041.147-.068a1.7,1.7,0,0,1,.632-.209.274.274,0,0,1,.152.037.226.226,0,0,1,.079.068l.026.021a8.4,8.4,0,0,0,.821.69c.188.147.387.3.57.46.131.115.267.241.261.34A.22.22,0,0,1,32.186,36.606Z" style="fill:#fff"/><path d="M29.853,35.915c-.037.079.136.11.157-.015C30.01,35.9,29.89,35.832,29.853,35.915Z" style="fill:#fff"/><path d="M32.008,36.151c-.178-.157-.377-.309-.57-.461a8.4,8.4,0,0,1-.821-.69l-.021-.026c-.032-.026-.053-.047-.074-.063a.34.34,0,0,0-.136-.026,1.625,1.625,0,0,0-.617.2c-.052.026-.1.047-.151.068a6.457,6.457,0,0,1-2.119.376,6.624,6.624,0,0,1-2.117-.376c-.043-.021-.09-.042-.152-.068a1.6,1.6,0,0,0-.612-.2.26.26,0,0,0-.136.026.452.452,0,0,0-.074.063L24.382,35a8.495,8.495,0,0,1-.821.7c-.193.146-.387.3-.57.455-.084.073-.256.224-.251.313a.2.2,0,0,0,.1.115c.121.058,1.308.581,4.66.581s4.54-.523,4.666-.581c.057-.041.094-.083.094-.115C32.264,36.375,32.091,36.224,32.008,36.151Zm-2.563-.7a.165.165,0,0,1,.084-.068c.031-.006.042.005.11.015.1.016.156,0,.167.032,0,0,0,.01-.011.047-.036.068-.057.11-.1.12s-.057-.031-.146-.047-.121.016-.136-.005S29.429,35.471,29.445,35.45Zm-.638.282a.146.146,0,0,1,.084-.068c.031-.01.047,0,.109.011.105.015.157,0,.173.031,0,0,0,.01-.016.047-.036.068-.057.11-.1.12s-.058-.031-.146-.041-.121.015-.136-.011S28.8,35.748,28.807,35.732Zm-2.448.063a1.854,1.854,0,0,1,.194-.094s.183.073.189.141-.231.115-.231.115l-.126-.094a.8.8,0,0,1-.166.078c-.022-.005-.153-.01-.147-.141A.165.165,0,0,1,26.359,35.8Zm-1.186-.3c.109.015.209.11.2.172s-.152.1-.256.074c-.074-.021-.173-.079-.168-.142S25.073,35.481,25.173,35.5Zm-.147,1a.817.817,0,0,1-.576-.047c-.089-.031-.512-.178-.507-.377,0-.078.068-.13.141-.193a.95.95,0,0,1,.566-.215.233.233,0,0,1-.027.074c-.068.1-.251.036-.339.136a.26.26,0,0,0-.017.256c.079.188.356.209.5.22.12.01.324.031.4-.084.047-.068.01-.126.073-.215s.173-.146.2-.12-.01.131-.026.167A.693.693,0,0,1,25.026,36.5Zm3.431.22c-.027.031-.058.015-.309.015a1.852,1.852,0,0,0-.293.016c-.1.021-.094.031-.152.037-.125,0-.156-.058-.277-.079-.1-.016-.131.026-.272.037-.183.021-.287.031-.345-.032-.047-.047-.042-.109-.089-.12s-.078.037-.1.058c-.1.078-.225.031-.492-.021-.413-.084-.5-.058-.591-.162a.342.342,0,0,1-.084-.2c0-.053.021-.079.173-.346a.272.272,0,0,0,.057-.2c0-.041-.026-.052-.021-.083.011-.089.2-.162.247-.115,0,.005.015.015.01.073a.434.434,0,0,1-.089.225c-.13.209-.147.246-.152.3a.208.208,0,0,0,.037.141.24.24,0,0,0,.167.089,4.5,4.5,0,0,1,.466.11,1.962,1.962,0,0,0-.042-.241c.01-.094.157-.151.178-.1a1.744,1.744,0,0,1,0,.34h0c.178-.047.288-.183.324-.152s-.02.073,0,.136c.042.12.33.188.534.089.11-.052.188-.146.2-.136s-.063.079-.047.131a.129.129,0,0,0,.162.047c.042-.026.026-.068.078-.141.043-.058.105-.11.126-.1s-.047.115-.011.189c.063.12.445.083.466-.006a.142.142,0,0,0-.058-.1c-.036-.032-.057-.026-.073-.052a.127.127,0,0,1,.052-.152c.064-.011.126.131.157.188C28.441,36.47,28.525,36.642,28.457,36.721Zm2.107-.382a1.668,1.668,0,0,1-1.129.141.8.8,0,0,1-.67.2c-.245-.073-.408-.664-.424-.7s-.052.011-.109.052-.235-.057-.278-.088.084-.142.121-.152a.067.067,0,0,1,.031,0c.032.011.063.021.089.032a.12.12,0,0,1,.079-.079c.1-.031.172.1.214.178a1.874,1.874,0,0,1,.157.329.285.285,0,0,0,.355.21.258.258,0,0,0,.173-.11c-.125-.026-.287-.037-.261-.209.036-.241.507-.068.617-.006.089.053.021.1,0,.178,0,.005-.006.021,0,.026s.01.006.021.006a1.867,1.867,0,0,0,.5-.063,2.168,2.168,0,0,0,.314-.053c-.027-.062-.084-.235-.178-.2-.037.016-.074.027-.11.042a.594.594,0,0,1-.235.026.227.227,0,0,1-.063-.407.185.185,0,0,1,.167-.021,1.437,1.437,0,0,1,.309.2.847.847,0,0,1,.251.272C30.517,36.171,30.6,36.313,30.564,36.339Zm.215.047c-.01,0-.016-.026-.016-.031a1.121,1.121,0,0,0-.35-.466c-.152-.136-.2-.131-.257-.241s-.083-.219-.057-.235.063.042.11.089c.062.078.1.141.115.157.079.125.131.1.293.256.1.1.214.215.2.345A.269.269,0,0,1,30.779,36.386Z" style="fill:#fff"/><path d="M24.832,33.232a3.333,3.333,0,0,1,.351.942,1.1,1.1,0,0,0,.6.758,2.881,2.881,0,0,1-.392-.785C25.313,33.807,25.068,33.274,24.832,33.232Z" style="fill:#fff"/><path d="M25.256,33.232a3.35,3.35,0,0,1,.35.942,1.118,1.118,0,0,0,.6.758,2.9,2.9,0,0,1-.393-.785C25.737,33.807,25.491,33.274,25.256,33.232Z" style="fill:#fff"/><path d="M26.48,33.818a.723.723,0,0,0-.2.057.352.352,0,0,0-.115.074.274.274,0,0,0,.131.345c.047.01.052-.016.167-.037s.157.005.209-.031a.2.2,0,0,0,.084-.147c0-.015.037-.183-.058-.256C26.652,33.792,26.6,33.8,26.48,33.818Z" style="fill:#fff"/><path d="M26.951,33.849c-.084.068-.063.21-.052.257a.225.225,0,0,0,.077.162c.058.036.105-.011.2.026.063.021.085.052.115.042.011-.006.032-.016.058-.131.026-.131.037-.194,0-.251a.237.237,0,0,0-.125-.1C27.2,33.839,27.044,33.766,26.951,33.849Z" style="fill:#fff"/><path d="M26.307,34.582s.063.387.4.444C26.752,35.016,26.678,34.775,26.307,34.582Z" style="fill:#fff"/><path d="M26.626,34.634s.518.57.8.392C27.463,34.953,27.384,34.765,26.626,34.634Z" style="fill:#fff"/><path d="M30.172,33.232a3.35,3.35,0,0,0-.35.942,1.118,1.118,0,0,1-.6.758,2.881,2.881,0,0,0,.392-.785C29.691,33.807,29.937,33.274,30.172,33.232Z" style="fill:#fff"/><path d="M29.743,33.232a3.259,3.259,0,0,0-.345.942,1.119,1.119,0,0,1-.607.758,2.86,2.86,0,0,0,.4-.785C29.267,33.807,29.508,33.274,29.743,33.232Z" style="fill:#fff"/><path d="M28.525,33.818a.67.67,0,0,1,.193.057c.068.032.1.048.116.074a.271.271,0,0,1-.132.345c-.041.01-.047-.016-.167-.037s-.157.005-.209-.031a.239.239,0,0,1-.084-.147c0-.015-.036-.183.058-.256C28.352,33.792,28.409,33.8,28.525,33.818Z" style="fill:#fff"/><path d="M28.054,33.849c.084.068.057.21.052.257a.251.251,0,0,1-.078.162c-.063.036-.105-.011-.21.026-.062.021-.078.052-.109.042-.016-.006-.037-.016-.058-.131-.026-.131-.042-.194,0-.251a.228.228,0,0,1,.12-.1C27.8,33.839,27.96,33.766,28.054,33.849Z" style="fill:#fff"/><path d="M28.692,34.582s-.063.387-.392.444C28.247,35.016,28.321,34.775,28.692,34.582Z" style="fill:#fff"/><path d="M28.373,34.634s-.513.57-.8.392C27.541,34.953,27.62,34.765,28.373,34.634Z" style="fill:#fff"/><path d="M26.291,32.892a.188.188,0,0,0,.032.063,2.794,2.794,0,0,1,.13.277c.032.068.042.178.089.34.053-.052.058-.193.063-.261a.929.929,0,0,0-.172-.607.057.057,0,0,0-.027-.026c-.036-.016-.068.021-.083.052a.2.2,0,0,0-.042.105A.228.228,0,0,0,26.291,32.892Z" style="fill:#fff"/><path d="M26.935,32.662c-.047.058-.1.157-.047.23a2.318,2.318,0,0,1,.245.644c0,.135.079-.121.079-.121s.021-.287-.042-.355a.4.4,0,0,0,.152-.4c-.079.047-.037.105-.131.12s-.141-.015-.167-.078A.071.071,0,0,0,26.935,32.662Z" style="fill:#fff"/><path d="M27.913,33.1a1.709,1.709,0,0,1-.011-.256.145.145,0,0,0-.094-.167c-.063-.026-.141.026-.188.068a.291.291,0,0,0-.053.371.2.2,0,0,0,.236.042s-.021.329.115.371a.315.315,0,0,0,.1-.193A1.476,1.476,0,0,1,27.913,33.1Zm-.189-.094a.057.057,0,0,1-.047-.057c0-.032.026-.068.053-.063s.031.031.031.031C27.771,32.955,27.75,33,27.724,33.007Z" style="fill:#fff"/><path d="M28.122,33.305a.236.236,0,0,0-.011.063.628.628,0,0,0,.006.173c0,.01,0,.015.01.015s.021,0,.027-.01a1.874,1.874,0,0,0,.24-.586,2.452,2.452,0,0,0,.089.262c.021.042.037.089.057.13a.856.856,0,0,0,.1.163.145.145,0,0,0,.052.047.513.513,0,0,0,.01-.283.577.577,0,0,0-.109-.2,2.388,2.388,0,0,1-.184-.355c0-.021-.015-.047-.02-.068a.411.411,0,0,0-.053.146c-.025.089-.042.178-.073.262a.626.626,0,0,1-.1.183A.143.143,0,0,0,28.122,33.305Z" style="fill:#fff"/><path d="M18.949,33.2c.025.005.1.162.125.183a2.741,2.741,0,0,0,.35.4,1.393,1.393,0,0,0,1.381.356c.539-.147,1.009-.476,1.532-.654a3.546,3.546,0,0,1,.9-.183,2.458,2.458,0,0,1,.4-.005c.062.005.308.015.34.078a1.89,1.89,0,0,0-2.338-.784C20.277,33.091,20.156,33.389,18.949,33.2Z" style="fill:#fff"/><path d="M17.384,27.887a.768.768,0,0,1,.006.22,2.46,2.46,0,0,0,.083.523,1.393,1.393,0,0,0,.973,1.046c.534.162,1.109.136,1.648.266a3.525,3.525,0,0,1,.852.33,2.415,2.415,0,0,1,.345.214c.047.037.251.178.246.251a1.887,1.887,0,0,0-1.553-1.919C18.561,28.515,18.3,28.7,17.384,27.887Z" style="fill:#fff"/><path d="M18.54,25.413s1.946,2.155,1.841,3.29a2.385,2.385,0,0,0,.105-2.5,6.769,6.769,0,0,0-1.025-1.574l-.1.711Z" style="fill:#fff"/><path d="M20.832,35.424s1.087.993,1.84.9c.3-.031.12-.288-.084-.34A9.824,9.824,0,0,1,20.832,35.424Z" style="fill:#fff"/><path d="M19.848,34.189a1.9,1.9,0,0,0,1.014.513C21.338,34.7,20.978,34.336,19.848,34.189Z" style="fill:#fff"/><path d="M20.345,34.806c.01,0,.062.058.073.068a1.388,1.388,0,0,0,.23.136,1.418,1.418,0,0,0,.591.095c.12-.006.439.01.455-.163.005-.1-.073-.146-.167-.141a3.208,3.208,0,0,0-.382.042,2.17,2.17,0,0,1-.371.021c-.074,0-.147,0-.22-.016A1.757,1.757,0,0,0,20.345,34.806Z" style="fill:#fff"/><path d="M20.967,35.193c.011,0,.058.048.068.058a1.168,1.168,0,0,0,.209.105,1.281,1.281,0,0,0,.523.062c.111-.01.393-.01.4-.162,0-.094-.073-.125-.152-.125a3.3,3.3,0,0,0-.335.057,1.738,1.738,0,0,1-.329.032,1.256,1.256,0,0,1-.194,0A1.167,1.167,0,0,0,20.967,35.193Z" style="fill:#fff"/><path d="M21.49,35.528c.011,0,.068.037.084.042a.855.855,0,0,0,.219.063,1.21,1.21,0,0,0,.529-.042c.1-.031.381-.084.355-.235-.015-.089-.094-.11-.172-.089a1.783,1.783,0,0,0-.319.12,1.941,1.941,0,0,1-.314.094c-.063.016-.126.026-.188.037A1.121,1.121,0,0,0,21.49,35.528Z" style="fill:#fff"/><path d="M22.165,35.7a.664.664,0,0,1,.079.041,1.018,1.018,0,0,0,.224.068A1.183,1.183,0,0,0,23,35.758c.1-.026.382-.083.356-.235-.016-.089-.094-.11-.173-.089a2.366,2.366,0,0,0-.319.12,1.586,1.586,0,0,1-.313.094,1.109,1.109,0,0,1-.194.037C22.3,35.7,22.222,35.685,22.165,35.7Z" style="fill:#fff"/><path d="M21.093,34.09a1.357,1.357,0,0,0,.047.167,1.156,1.156,0,0,0,.167.3.451.451,0,0,0,.146.115c.063.026.152.047.2-.016a.137.137,0,0,0,.011-.126.682.682,0,0,0-.256-.287A1.088,1.088,0,0,0,21.093,34.09Z" style="fill:#fff"/><path d="M21.657,34.189l.126.377a1.1,1.1,0,0,0,.115.282.306.306,0,0,0,.115.1.19.19,0,0,0,.12.015.157.157,0,0,0,.042-.266C22.035,34.55,21.752,34.273,21.657,34.189Z" style="fill:#fff"/><path d="M22.071,34.189c.052.136.109.272.167.408a2.254,2.254,0,0,0,.183.413.515.515,0,0,0,.246.189c.115.036.178-.047.152-.152a1.224,1.224,0,0,0-.424-.565c-.073-.073-.151-.141-.225-.209C22.144,34.257,22.081,34.221,22.071,34.189Z" style="fill:#fff"/><path d="M22.447,34.142a6.281,6.281,0,0,0,.508.915c.094.116.335.445.517.351a.125.125,0,0,0,.063-.105c0-.089-.094-.167-.152-.23s-.141-.141-.214-.209c-.162-.162-.33-.324-.492-.486-.047-.042-.089-.089-.136-.136C22.515,34.215,22.463,34.179,22.447,34.142Z" style="fill:#fff"/><path d="M22.965,34.5a2.082,2.082,0,0,0,.6.35,1.344,1.344,0,0,0,.247.047.239.239,0,0,0,.12-.026c.156-.1-.037-.277-.152-.293C23.53,34.54,23.268,34.54,22.965,34.5Z" style="fill:#fff"/><path d="M22.588,34.006a1.957,1.957,0,0,0,.6.351.758.758,0,0,0,.24.047.21.21,0,0,0,.126-.021c.157-.105-.037-.277-.152-.293C23.153,34.053,22.887,34.053,22.588,34.006Z" style="fill:#fff"/><path d="M22.379,33.609a1.829,1.829,0,0,0,.528.308.974.974,0,0,0,.215.042.178.178,0,0,0,.1-.021c.142-.089-.031-.24-.13-.256C22.876,33.651,22.641,33.651,22.379,33.609Z" style="fill:#fff"/><path d="M23.081,34.885a1.988,1.988,0,0,0,.6.345,1.04,1.04,0,0,0,.246.052.238.238,0,0,0,.121-.026c.157-.1-.037-.277-.152-.293C23.65,34.927,23.383,34.927,23.081,34.885Z" style="fill:#fff"/><path d="M24.205,33.76a2.058,2.058,0,0,1,.162.675,1.418,1.418,0,0,1-.021.251.182.182,0,0,1-.062.1c-.142.125-.252-.11-.236-.225C24.084,34.315,24.163,34.059,24.205,33.76Z" style="fill:#fff"/><path d="M23.828,33.253a2.049,2.049,0,0,1,.162.675,1.332,1.332,0,0,1-.02.246.212.212,0,0,1-.064.109c-.141.126-.25-.109-.235-.224C23.708,33.807,23.781,33.551,23.828,33.253Z" style="fill:#fff"/><path d="M23.478,32.866a1.857,1.857,0,0,1,.141.6.809.809,0,0,1-.015.219.241.241,0,0,1-.053.1c-.131.1-.23-.1-.215-.2C23.368,33.363,23.436,33.133,23.478,32.866Z" style="fill:#fff"/><path d="M22.986,32.584a1.787,1.787,0,0,1,.147.6.748.748,0,0,1-.022.22.156.156,0,0,1-.052.1c-.125.105-.225-.1-.209-.2C22.881,33.08,22.949,32.85,22.986,32.584Z" style="fill:#fff"/><path d="M18.76,32.286s.628.716,1.062.742c.078.005.188.011.24-.057a.14.14,0,0,0,.016-.136.231.231,0,0,0-.141-.131c-.267-.1-.549-.152-.816-.256A.994.994,0,0,1,18.76,32.286Z" style="fill:#fff"/><path d="M19.545,30.863s.465.816.329,1.177c-.021.062-.058.151-.141.167a.191.191,0,0,1-.136-.047.235.235,0,0,1-.073-.167c0-.257.052-.508.047-.764A.875.875,0,0,0,19.545,30.863Z" style="fill:#fff"/><path d="M20,31.715s.491.686.392.968c-.016.052-.042.12-.121.126a.205.205,0,0,1-.13-.048.231.231,0,0,1-.084-.141c-.016-.209.016-.4-.011-.612A.642.642,0,0,0,20,31.715Z" style="fill:#fff"/><path d="M17.16,29.315s.627.716,1.067.737c.073.006.183.011.235-.057a.144.144,0,0,0,.016-.136.234.234,0,0,0-.142-.131c-.266-.1-.549-.152-.816-.251A1.2,1.2,0,0,1,17.16,29.315Z" style="fill:#fff"/><path d="M18.347,31.715a1.545,1.545,0,0,0,.471.461c.313.2.533.293.664.261s.068-.256-.084-.314A6.681,6.681,0,0,1,18.347,31.715Z" style="fill:#fff"/><path d="M17.944,31.114a2.27,2.27,0,0,0,.528.533c.314.215.513.267.549.157s-.062-.245-.24-.293A6.769,6.769,0,0,1,17.944,31.114Z" style="fill:#fff"/><path d="M17.578,29.906a2.265,2.265,0,0,0,.581.481c.334.183.533.214.564.1s-.088-.24-.272-.261A7.417,7.417,0,0,1,17.578,29.906Z" style="fill:#fff"/><path d="M18,30.4a2.046,2.046,0,0,0,.476.481c.277.193.455.24.491.136s-.057-.22-.219-.256A6.815,6.815,0,0,1,18,30.4Z" style="fill:#fff"/><path d="M17.851,30.654a5.022,5.022,0,0,0,.444.512,1.668,1.668,0,0,0,.282.2c.1.058.246.141.361.058A.15.15,0,0,0,19,31.307c-.015-.125-.183-.167-.277-.209-.146-.073-.3-.13-.444-.214S17.991,30.727,17.851,30.654Z" style="fill:#fff"/><path d="M18.844,32.756c.11.068.225.136.334.209.053.037.11.074.163.115a.419.419,0,0,0,.136.079c.031.01.073.01.088-.016a.063.063,0,0,0-.005-.083c-.052-.079-.178-.115-.261-.163A.849.849,0,0,0,18.844,32.756Z" style="fill:#fff"/><path d="M19.147,29.979a2.4,2.4,0,0,1-.058.5c-.047.11-.12.413.027.46s.24-.162.2-.387A3.1,3.1,0,0,0,19.147,29.979Z" style="fill:#fff"/><path d="M19.524,30.612a2.957,2.957,0,0,1-.251.486c-.089.1-.272.382-.152.487s.282-.079.34-.325A3.933,3.933,0,0,0,19.524,30.612Z" style="fill:#fff"/><path d="M18.776,29.618a2.22,2.22,0,0,1,.021.46c-.027.11-.047.393.094.414s.193-.178.125-.382A2.923,2.923,0,0,0,18.776,29.618Z" style="fill:#fff"/><path d="M18.457,28.949a2.215,2.215,0,0,1,.021.46c-.027.11-.048.392.094.413s.193-.178.125-.382A2.94,2.94,0,0,0,18.457,28.949Z" style="fill:#fff"/><path d="M20.287,30.947a5.066,5.066,0,0,0,.727.816c.246.167.445.183.4,0S20.439,31.041,20.287,30.947Z" style="fill:#fff"/><path d="M20.857,31.81a.712.712,0,0,0,.356.476c.324.193.455.224.523.13s-.026-.235-.224-.277A3.3,3.3,0,0,1,20.857,31.81Z" style="fill:#fff"/><path d="M19.456,30a.368.368,0,0,0,0,.267c.047.089.11.078.178.151.147.168.031.455.078.466s.115-.126.131-.262a.455.455,0,0,0-.089-.329c-.078-.084-.141-.052-.2-.136-.068-.105-.031-.23-.057-.235S19.461,29.984,19.456,30Z" style="fill:#fff"/><path d="M19.973,31.051a.384.384,0,0,0,.084.314c.052.058.079.037.12.089.068.078.037.152.068.272a.583.583,0,0,0,.267.371c.094.053.209.079.225.053s-.094-.089-.183-.252a2.82,2.82,0,0,1-.126-.329c-.052-.136-.067-.173-.1-.209-.073-.079-.126-.058-.188-.12-.121-.126-.058-.346-.089-.351S19.984,30.973,19.973,31.051Z" style="fill:#fff"/><path d="M20,30.329c-.027.027.172.272.318.424a3.1,3.1,0,0,0,.832.586c.037.016.094.042.115.021.042-.037-.021-.194-.11-.3a.834.834,0,0,0-.429-.23A2.547,2.547,0,0,1,20,30.329Z" style="fill:#fff"/><path d="M20.23,30.1s.031.361.225.482.377.047.287-.116A1.657,1.657,0,0,0,20.23,30.1Z" style="fill:#fff"/><path d="M21.8,31.056a.9.9,0,0,1-.11.408c-.105.152-.2.3-.084.4s.283-.052.3-.288A1.4,1.4,0,0,0,21.8,31.056Z" style="fill:#fff"/><path d="M22.024,31.538a.634.634,0,0,1-.074.355c-.094.136-.2.267-.125.366a.174.174,0,0,0,.3-.1A.78.78,0,0,0,22.024,31.538Z" style="fill:#fff"/><path d="M22.316,31.81s-.047.224-.088.35.073.282.151.183A.5.5,0,0,0,22.316,31.81Z" style="fill:#fff"/><path d="M21.637,30.612a1.5,1.5,0,0,1-.168.288.458.458,0,0,0-.12.214.318.318,0,0,0,.016.2c.042.062.136.047.193.015a.3.3,0,0,0,.131-.183,1.282,1.282,0,0,0-.037-.591Z" style="fill:#fff"/><path d="M20.8,30.246a.818.818,0,0,0,.225.612.179.179,0,0,0,.235.026.143.143,0,0,0,.068-.089.1.1,0,0,0-.016-.079.964.964,0,0,0-.3-.245C20.941,30.418,20.81,30.345,20.8,30.246Z" style="fill:#fff"/><path d="M20.575,32.259s-.063.414.282.455.272-.209.246-.225A.489.489,0,0,1,20.575,32.259Z" style="fill:#fff"/><path d="M20.549,32.751a1.275,1.275,0,0,0-.147.277c-.036.12-.151.372.058.419S20.549,32.751,20.549,32.751Z" style="fill:#fff"/><path d="M17.384,27.526s.4.858.7.921.324-.136.194-.283S17.437,27.626,17.384,27.526Z" style="fill:#fff"/><path d="M17.479,26.825s.245.863.507.968.319-.079.225-.235S17.51,26.925,17.479,26.825Z" style="fill:#fff"/><path d="M17.494,26.208s.236.832.492.931.3-.073.209-.23S17.526,26.308,17.494,26.208Z" style="fill:#fff"/><path d="M17.526,25.607s.23.821.486.92.3-.073.209-.225S17.557,25.7,17.526,25.607Z" style="fill:#fff"/><path d="M17.719,25.042s.058.706.251.821.251-.01.2-.146S17.73,25.126,17.719,25.042Z" style="fill:#fff"/><path d="M18.959,27.6s-.062.79-.309.937-.335,0-.272-.157S18.949,27.694,18.959,27.6Z" style="fill:#fff"/><path d="M19.084,26.857s-.24.863-.507.967-.319-.078-.225-.235S19.053,26.956,19.084,26.857Z" style="fill:#fff"/><path d="M19.048,26.245s-.23.831-.487.931-.3-.073-.214-.23S19.021,26.344,19.048,26.245Z" style="fill:#fff"/><path d="M19.048,25.622s-.23.822-.487.921-.3-.073-.209-.225S19.016,25.722,19.048,25.622Z" style="fill:#fff"/><path d="M18.74,25.105s-.058.7-.247.821-.256-.011-.209-.147S18.729,25.188,18.74,25.105Z" style="fill:#fff"/><path d="M18.19,24.435a.884.884,0,0,0-.047.12,1.235,1.235,0,0,0-.052.152,1.55,1.55,0,0,0-.068.309.757.757,0,0,0,.01.345c.021.078.094.193.2.183a.179.179,0,0,0,.115-.105.994.994,0,0,0-.052-.669C18.258,24.66,18.227,24.545,18.19,24.435Z" style="fill:#fff"/><path d="M18.969,28.222c.021.01.032.141.037.162a.836.836,0,0,0,.068.2c.052.12.151.24.3.214a.091.091,0,0,0,.073-.042.106.106,0,0,0,.011-.089.427.427,0,0,0-.131-.209A3.368,3.368,0,0,0,18.969,28.222Z" style="fill:#fff"/><path d="M19,27.741a.762.762,0,0,1,.032.162c.021.068.042.136.068.2.057.121.151.246.3.22a.1.1,0,0,0,.073-.047.107.107,0,0,0,.016-.089.429.429,0,0,0-.136-.209A3.436,3.436,0,0,0,19,27.741Z" style="fill:#fff"/><path d="M19.1,27.129a1.1,1.1,0,0,1-.021.167,1.457,1.457,0,0,0,0,.209c.016.131.073.277.22.3a.124.124,0,0,0,.083-.021.109.109,0,0,0,.042-.083.466.466,0,0,0-.063-.236A3.421,3.421,0,0,0,19.1,27.129Z" style="fill:#fff"/><path d="M20.062,28.222a.764.764,0,0,0-.031.162c-.021.068-.042.136-.068.2-.058.12-.152.24-.3.214a.1.1,0,0,1-.079-.042.134.134,0,0,1-.01-.089.42.42,0,0,1,.131-.209A3.866,3.866,0,0,1,20.062,28.222Z" style="fill:#fff"/><path d="M20.036,27.741a.706.706,0,0,0-.031.162.908.908,0,0,1-.068.2c-.053.121-.151.246-.3.22a.1.1,0,0,1-.074-.047.111.111,0,0,1-.015-.089.476.476,0,0,1,.136-.209A3.341,3.341,0,0,1,20.036,27.741Z" style="fill:#fff"/><path d="M19.843,27.1a1,1,0,0,0,.021.168,1.458,1.458,0,0,1,0,.209c-.016.131-.074.277-.22.3a.1.1,0,0,1-.084-.021.122.122,0,0,1-.042-.084.476.476,0,0,1,.063-.235A3.436,3.436,0,0,1,19.843,27.1Z" style="fill:#fff"/><path d="M19.482,26.48c0,.016-.079.12-.089.141a1.182,1.182,0,0,0-.084.189c-.042.125-.057.282.068.361a.1.1,0,0,0,.084.02.116.116,0,0,0,.073-.057.443.443,0,0,0,.047-.246A3.773,3.773,0,0,0,19.482,26.48Z" style="fill:#fff"/><path d="M19.335,24.142a.136.136,0,0,1,.021-.073.356.356,0,0,1,.126-.141.76.76,0,0,1,.643-.042.509.509,0,0,1,.084.026c-.021-.01-.1.068-.11.079a1.327,1.327,0,0,1-.283.188.634.634,0,0,1-.339.094A.136.136,0,0,1,19.335,24.142Z" style="fill:#fff"/><path d="M18.886,24.524a.166.166,0,0,1,.036-.068.406.406,0,0,1,.162-.1.775.775,0,0,1,.633.125c.026.016.047.032.073.047-.021-.01-.115.047-.13.053a1.283,1.283,0,0,1-.319.1.682.682,0,0,1-.356,0A.136.136,0,0,1,18.886,24.524Z" style="fill:#fff"/><path d="M19.769,23.625a.2.2,0,0,1,.017-.079A.439.439,0,0,1,19.9,23.4a.64.64,0,0,1,.575-.079.311.311,0,0,0,.068.021c-.015,0-.083.079-.094.094a1.58,1.58,0,0,1-.251.2.584.584,0,0,1-.3.115A.123.123,0,0,1,19.769,23.625Z" style="fill:#fff"/><path d="M20.062,23.081c0-.267.361-.33.555-.361.031-.006.251-.047.245-.089.022.308-.313.465-.564.544a.264.264,0,0,1-.11.015.127.127,0,0,1-.115-.062A.076.076,0,0,1,20.062,23.081Z" style="fill:#fff"/><path d="M20.355,22.563c0-.23.314-.288.487-.314.026,0,.219-.042.219-.084.016.272-.277.413-.5.481a.284.284,0,0,1-.1.016.111.111,0,0,1-.1-.057A.138.138,0,0,1,20.355,22.563Z" style="fill:#fff"/><path d="M20.664,22.066c-.1-.3.314-.518.538-.633a2.206,2.206,0,0,0,.382-.272,1.258,1.258,0,0,1-.595.915.344.344,0,0,1-.127.063.171.171,0,0,1-.167-.026A.087.087,0,0,1,20.664,22.066Z" style="fill:#fff"/><path d="M19.2,21.721a7.722,7.722,0,0,0,.058,1.109c.02.167.025.334.052.5a.86.86,0,0,0,.073.367c.089.125.2.015.23-.084a1.556,1.556,0,0,0-.131-.837c-.073-.267-.146-.528-.22-.79A.918.918,0,0,1,19.2,21.721Z" style="fill:#fff"/><path d="M18.708,22.186a9.154,9.154,0,0,0,.115,1.109c.031.162.047.33.078.492a.923.923,0,0,0,.089.361c.1.12.2,0,.23-.1a1.609,1.609,0,0,0-.172-.826c-.089-.256-.173-.518-.262-.779A1.323,1.323,0,0,1,18.708,22.186Z" style="fill:#fff"/><path d="M18.519,22.662a8.422,8.422,0,0,0-.036,1.114c0,.168,0,.335.01.5a.779.779,0,0,0,.042.366c.073.136.194.037.235-.062a1.572,1.572,0,0,0-.057-.848c-.047-.266-.1-.533-.147-.805A1.2,1.2,0,0,1,18.519,22.662Z" style="fill:#fff"/><path d="M19.738,21.161a8.02,8.02,0,0,0-.042,1.062c0,.162,0,.319.011.481a.861.861,0,0,0,.036.35c.073.131.189.037.23-.057a1.537,1.537,0,0,0-.057-.811l-.141-.769A1.07,1.07,0,0,1,19.738,21.161Z" style="fill:#fff"/><path d="M20.1,20.884a5.231,5.231,0,0,0-.036.889c0,.136,0,.272.01.4,0,.094-.021.214.037.3.073.1.183.026.23-.052.1-.194-.016-.476-.058-.68l-.141-.644A.766.766,0,0,1,20.1,20.884Z" style="fill:#fff"/><path d="M20.407,20.335a3.958,3.958,0,0,0-.046.769c0,.157-.006.313,0,.47a.186.186,0,0,0,.041.136.133.133,0,0,0,.162.011.189.189,0,0,0,.079-.089c.084-.173-.021-.382-.063-.555s-.089-.371-.131-.554C20.434,20.466,20.428,20.4,20.407,20.335Z" style="fill:#fff"/><path d="M21.244,20.612a1.42,1.42,0,0,1-.183.209,2.033,2.033,0,0,0-.225.23.441.441,0,0,0-.073.225.491.491,0,0,0-.005.152.124.124,0,0,0,.052.089.16.16,0,0,0,.12,0c.22-.068.257-.293.278-.492A3.587,3.587,0,0,0,21.244,20.612Z" style="fill:#fff"/><path d="M21.056,22.746a1.209,1.209,0,0,0-.152.34.9.9,0,0,0-.02.335c.01.088.041.282.162.282.193,0,.146-.4.094-.507a1.5,1.5,0,0,1-.042-.513Z" style="fill:#fff"/><path d="M20.7,23.311a1.377,1.377,0,0,0-.109.355.807.807,0,0,0,.015.335c.026.089.073.277.194.267.193-.026.1-.419.036-.518a1.5,1.5,0,0,1-.1-.507Z" style="fill:#fff"/><path d="M20.345,23.828a1.421,1.421,0,0,0-.053.367.777.777,0,0,0,.069.329c.036.084.12.262.235.23.183-.052.031-.429-.047-.518a1.56,1.56,0,0,1-.183-.481Z" style="fill:#fff"/><path d="M20.115,24.236a1.092,1.092,0,0,0-.053.367.773.773,0,0,0,.068.329c.037.084.121.262.236.23.183-.052.031-.429-.053-.518a1.532,1.532,0,0,1-.177-.481Z" style="fill:#fff"/><path d="M21.359,22.16a1.164,1.164,0,0,0-.151.34.809.809,0,0,0-.021.335c.011.089.042.282.162.282.188,0,.146-.4.094-.507A1.5,1.5,0,0,1,21.4,22.1Z" style="fill:#fff"/><path d="M21.846,21.47a1.358,1.358,0,0,0-.215.334,1.073,1.073,0,0,0-.083.356c-.006.1-.011.309.109.33.189.031.215-.4.184-.523a1.892,1.892,0,0,1,.057-.555Z" style="fill:#fff"/><path d="M22.1,23.169a1.3,1.3,0,0,1-.167.33.88.88,0,0,1-.252.23c-.078.042-.245.141-.319.047-.12-.146.22-.361.335-.392a1.53,1.53,0,0,0,.429-.288Z" style="fill:#fff"/><path d="M21.851,23.771a1.121,1.121,0,0,1-.2.309.779.779,0,0,1-.272.2c-.084.037-.261.115-.329.016-.1-.162.266-.34.381-.35a1.548,1.548,0,0,0,.461-.241Z" style="fill:#fff"/><path d="M21.61,24.372a1.359,1.359,0,0,1-.251.272.825.825,0,0,1-.3.152c-.084.026-.277.073-.324-.037-.073-.177.314-.292.434-.287a1.521,1.521,0,0,0,.486-.162Z" style="fill:#fff"/><path d="M21.469,24.848a1.374,1.374,0,0,1-.256.272.8.8,0,0,1-.3.152c-.089.026-.277.073-.324-.037-.073-.177.313-.293.434-.287a1.529,1.529,0,0,0,.487-.162Z" style="fill:#fff"/><path d="M19.879,24.676a1.5,1.5,0,0,0-.052.371.906.906,0,0,0,.068.33c.037.078.12.261.235.224.183-.052.032-.423-.047-.512A1.662,1.662,0,0,1,19.9,24.6Z" style="fill:#fff"/><path d="M21.124,25.455a1.141,1.141,0,0,1-.282.241.788.788,0,0,1-.314.12c-.089.01-.283.042-.319-.073-.053-.183.345-.257.46-.236a1.691,1.691,0,0,0,.507-.109Z" style="fill:#fff"/><path d="M22.311,22.584a1.111,1.111,0,0,1-.172.329.742.742,0,0,1-.246.23c-.079.047-.246.147-.324.047-.116-.146.224-.36.34-.387a1.643,1.643,0,0,0,.428-.292Z" style="fill:#fff"/><path d="M22.562,21.8a1.428,1.428,0,0,1-.13.377.97.97,0,0,1-.22.287c-.073.063-.236.2-.324.121-.142-.126.177-.424.292-.476a1.731,1.731,0,0,0,.4-.387Z" style="fill:#fff"/><path d="M22.578,21.24c0,.005-.177.073-.194.083a1.124,1.124,0,0,0-.2.131.508.508,0,0,0-.219.413.133.133,0,0,0,.036.094.161.161,0,0,0,.168.026.87.87,0,0,0,.267-.235A.813.813,0,0,0,22.578,21.24Z" style="fill:#fff"/><path d="M36.051,33.2c-.027.005-.1.162-.121.183a3.156,3.156,0,0,1-.35.4,1.4,1.4,0,0,1-1.381.356c-.539-.147-1.009-.476-1.537-.654a3.508,3.508,0,0,0-.895-.183,2.527,2.527,0,0,0-.408-.005c-.057.005-.308.015-.34.078a1.894,1.894,0,0,1,2.343-.784C34.722,33.091,34.848,33.389,36.051,33.2Z" style="fill:#fff"/><path d="M37.62,27.887a.768.768,0,0,0-.006.22,3.316,3.316,0,0,1-.083.523,1.4,1.4,0,0,1-.978,1.046c-.534.162-1.1.136-1.648.266a3.692,3.692,0,0,0-.852.33,2.075,2.075,0,0,0-.34.214c-.053.037-.251.178-.246.251a1.884,1.884,0,0,1,1.553-1.919C36.443,28.515,36.7,28.7,37.62,27.887Z" style="fill:#fff"/><path d="M36.459,25.413s-1.946,2.155-1.841,3.29a2.4,2.4,0,0,1-.105-2.5,6.769,6.769,0,0,1,1.025-1.574l.105.711Z" style="fill:#fff"/><path d="M34.178,35.424s-1.093.993-1.84.9c-.3-.031-.126-.288.078-.34A10,10,0,0,0,34.178,35.424Z" style="fill:#fff"/><path d="M35.151,34.189a1.9,1.9,0,0,1-1.015.513C33.66,34.7,34.027,34.336,35.151,34.189Z" style="fill:#fff"/><path d="M34.659,34.806c-.015,0-.068.058-.078.068a1.142,1.142,0,0,1-.225.136,1.426,1.426,0,0,1-.591.095c-.12-.006-.444.01-.455-.163-.01-.1.074-.146.162-.141a3.031,3.031,0,0,1,.383.042,2.152,2.152,0,0,0,.37.021c.074,0,.147,0,.22-.016A1.617,1.617,0,0,1,34.659,34.806Z" style="fill:#fff"/><path d="M34.037,35.193c-.016,0-.063.048-.073.058a.983.983,0,0,1-.2.105,1.293,1.293,0,0,1-.528.062c-.1-.01-.393-.01-.393-.162,0-.094.068-.125.152-.125a3.3,3.3,0,0,1,.335.057,1.656,1.656,0,0,0,.324.032,1.322,1.322,0,0,0,.2,0A1.121,1.121,0,0,1,34.037,35.193Z" style="fill:#fff"/><path d="M33.509,35.528c-.011,0-.068.037-.079.042a.876.876,0,0,1-.225.063,1.218,1.218,0,0,1-.528-.042c-.1-.031-.382-.084-.355-.235.016-.089.1-.11.177-.089a1.735,1.735,0,0,1,.314.12,2.14,2.14,0,0,0,.314.094c.063.016.131.026.194.037A1.083,1.083,0,0,1,33.509,35.528Z" style="fill:#fff"/><path d="M32.839,35.7a.638.638,0,0,0-.083.041,1,1,0,0,1-.22.068,1.176,1.176,0,0,1-.528-.047c-.105-.026-.382-.083-.356-.235.016-.089.094-.11.173-.089a2.038,2.038,0,0,1,.314.12,1.621,1.621,0,0,0,.319.094,1.116,1.116,0,0,0,.188.037C32.709,35.7,32.782,35.685,32.839,35.7Z" style="fill:#fff"/><path d="M33.912,34.09c-.005.021-.048.152-.053.167a1.029,1.029,0,0,1-.167.3.433.433,0,0,1-.141.115c-.063.026-.152.047-.2-.016a.137.137,0,0,1-.011-.126.677.677,0,0,1,.257-.287A1.183,1.183,0,0,1,33.912,34.09Z" style="fill:#fff"/><path d="M33.347,34.189l-.126.377a1.329,1.329,0,0,1-.12.282.285.285,0,0,1-.11.1.189.189,0,0,1-.12.015.16.16,0,0,1-.047-.266C32.97,34.55,33.247,34.273,33.347,34.189Z" style="fill:#fff"/><path d="M32.934,34.189c-.058.136-.11.272-.168.408a1.926,1.926,0,0,1-.188.413.5.5,0,0,1-.246.189c-.115.036-.173-.047-.151-.152a1.268,1.268,0,0,1,.428-.565c.073-.073.147-.141.225-.209C32.855,34.257,32.923,34.221,32.934,34.189Z" style="fill:#fff"/><path d="M32.557,34.142a5.973,5.973,0,0,1-.513.915c-.094.116-.329.445-.512.351a.115.115,0,0,1-.063-.105c0-.089.094-.167.152-.23s.136-.141.209-.209c.162-.162.329-.324.5-.486l.136-.136C32.489,34.215,32.541,34.179,32.557,34.142Z" style="fill:#fff"/><path d="M32.039,34.5a2.138,2.138,0,0,1-.607.35,1.186,1.186,0,0,1-.24.047.224.224,0,0,1-.12-.026c-.157-.1.036-.277.146-.293C31.469,34.54,31.736,34.54,32.039,34.5Z" style="fill:#fff"/><path d="M32.416,34.006a1.96,1.96,0,0,1-.6.351.83.83,0,0,1-.247.047.189.189,0,0,1-.119-.021c-.157-.105.036-.277.151-.293C31.846,34.053,32.112,34.053,32.416,34.006Z" style="fill:#fff"/><path d="M32.625,33.609a1.829,1.829,0,0,1-.528.308,1.022,1.022,0,0,1-.215.042.2.2,0,0,1-.11-.021c-.136-.089.037-.24.136-.256C32.123,33.651,32.358,33.651,32.625,33.609Z" style="fill:#fff"/><path d="M31.914,34.874a2.055,2.055,0,0,1-.6.351,1.2,1.2,0,0,1-.24.047.182.182,0,0,1-.126-.026c-.157-.1.037-.277.152-.293C31.349,34.916,31.616,34.916,31.914,34.874Z" style="fill:#fff"/><path d="M30.8,33.76a2,2,0,0,0-.168.675,1.071,1.071,0,0,0,.026.251.214.214,0,0,0,.058.1c.141.125.256-.11.241-.225C30.92,34.315,30.841,34.059,30.8,33.76Z" style="fill:#fff"/><path d="M31.176,33.253a2.139,2.139,0,0,0-.167.675.961.961,0,0,0,.026.246.2.2,0,0,0,.058.109c.141.126.256-.109.24-.224C31.3,33.807,31.218,33.551,31.176,33.253Z" style="fill:#fff"/><path d="M31.527,32.866a1.8,1.8,0,0,0-.147.6,1.016,1.016,0,0,0,.021.219.24.24,0,0,0,.052.1c.126.1.225-.1.21-.2C31.631,33.363,31.563,33.133,31.527,32.866Z" style="fill:#fff"/><path d="M32.013,32.584a1.8,1.8,0,0,0-.146.6,1.092,1.092,0,0,0,.02.22.238.238,0,0,0,.053.1c.131.105.23-.1.214-.2C32.123,33.08,32.055,32.85,32.013,32.584Z" style="fill:#fff"/><path d="M36.244,32.286s-.627.716-1.067.742a.282.282,0,0,1-.24-.057.139.139,0,0,1-.011-.136.226.226,0,0,1,.136-.131c.272-.1.555-.152.821-.256A1.042,1.042,0,0,0,36.244,32.286Z" style="fill:#fff"/><path d="M35.454,30.863s-.46.816-.329,1.177c.026.062.057.151.142.167a.191.191,0,0,0,.135-.047.223.223,0,0,0,.079-.167c0-.257-.053-.508-.053-.764A1.079,1.079,0,0,1,35.454,30.863Z" style="fill:#fff"/><path d="M35.01,31.715s-.5.686-.4.968c.021.052.042.12.121.126a.2.2,0,0,0,.13-.048.192.192,0,0,0,.084-.141c.021-.209-.01-.4.011-.612A.724.724,0,0,1,35.01,31.715Z" style="fill:#fff"/><path d="M37.845,29.315s-.628.716-1.067.737c-.079.006-.189.011-.241-.057a.14.14,0,0,1-.01-.136.234.234,0,0,1,.136-.131c.266-.1.549-.152.815-.251A1.3,1.3,0,0,0,37.845,29.315Z" style="fill:#fff"/><path d="M36.652,31.715a1.581,1.581,0,0,1-.465.461c-.314.2-.539.293-.665.261s-.068-.256.084-.314A6.675,6.675,0,0,0,36.652,31.715Z" style="fill:#fff"/><path d="M37.055,31.114a2.27,2.27,0,0,1-.528.533c-.314.215-.508.267-.55.157s.068-.245.246-.293A7,7,0,0,0,37.055,31.114Z" style="fill:#fff"/><path d="M37.421,29.906a2.265,2.265,0,0,1-.581.481c-.334.183-.533.214-.559.1s.089-.24.272-.261A7.211,7.211,0,0,0,37.421,29.906Z" style="fill:#fff"/><path d="M37,30.4a2.07,2.07,0,0,1-.476.481c-.283.193-.461.24-.492.136s.057-.22.22-.256A7.409,7.409,0,0,0,37,30.4Z" style="fill:#fff"/><path d="M37.154,30.654a5.156,5.156,0,0,1-.444.512,1.532,1.532,0,0,1-.288.2c-.1.058-.246.141-.356.058a.137.137,0,0,1-.057-.121c.01-.125.178-.167.272-.209.151-.073.3-.13.45-.214S37.008,30.727,37.154,30.654Z" style="fill:#fff"/><path d="M36.156,32.756c-.111.068-.22.136-.33.209a1.955,1.955,0,0,0-.162.115.459.459,0,0,1-.142.079.08.08,0,0,1-.089-.016.083.083,0,0,1,.006-.083c.057-.079.183-.115.266-.163A.82.82,0,0,1,36.156,32.756Z" style="fill:#fff"/><path d="M35.857,29.979a2.1,2.1,0,0,0,.058.5c.047.11.115.413-.032.46s-.235-.162-.2-.387A3.4,3.4,0,0,1,35.857,29.979Z" style="fill:#fff"/><path d="M35.481,30.612a2.747,2.747,0,0,0,.245.486c.089.1.273.382.157.487s-.287-.079-.34-.325A3.887,3.887,0,0,1,35.481,30.612Z" style="fill:#fff"/><path d="M36.228,29.618a2.143,2.143,0,0,0-.026.46c.032.11.047.393-.094.414s-.188-.178-.125-.382A3.331,3.331,0,0,1,36.228,29.618Z" style="fill:#fff"/><path d="M36.547,28.949a1.87,1.87,0,0,0-.02.46c.026.11.041.392-.095.413s-.193-.178-.13-.382A3.355,3.355,0,0,1,36.547,28.949Z" style="fill:#fff"/><path d="M34.712,30.947a4.969,4.969,0,0,1-.722.816c-.251.167-.449.183-.4,0S34.56,31.041,34.712,30.947Z" style="fill:#fff"/><path d="M34.147,31.81a.73.73,0,0,1-.361.476c-.319.193-.454.224-.518.13s.021-.235.22-.277A3.393,3.393,0,0,0,34.147,31.81Z" style="fill:#fff"/><path d="M35.543,30a.321.321,0,0,1-.005.267c-.047.089-.1.078-.173.151-.151.168-.036.455-.083.466-.032.01-.11-.126-.126-.262a.421.421,0,0,1,.084-.329c.079-.084.146-.052.2-.136.068-.105.031-.23.057-.235S35.543,29.984,35.543,30Z" style="fill:#fff"/><path d="M35.026,31.051a.4.4,0,0,1-.079.314c-.052.058-.078.037-.125.089-.068.078-.037.152-.063.272a.6.6,0,0,1-.267.371c-.094.053-.209.079-.23.053s.1-.089.188-.252a3.307,3.307,0,0,0,.121-.329.64.64,0,0,1,.1-.209c.079-.079.126-.058.188-.12.121-.126.058-.346.095-.351C34.978,30.884,35.015,30.973,35.026,31.051Z" style="fill:#fff"/><path d="M35.01,30.329c.026.027-.178.272-.319.424a3.2,3.2,0,0,1-.836.586c-.032.016-.09.042-.116.021-.041-.037.026-.194.11-.3a.868.868,0,0,1,.434-.23A2.677,2.677,0,0,0,35.01,30.329Z" style="fill:#fff"/><path d="M34.769,30.1s-.025.361-.219.482-.377.047-.288-.116A1.6,1.6,0,0,1,34.769,30.1Z" style="fill:#fff"/><path d="M33.2,31.056a.9.9,0,0,0,.11.408c.1.152.2.3.079.4s-.278-.052-.293-.288A1.288,1.288,0,0,1,33.2,31.056Z" style="fill:#fff"/><path d="M32.975,31.538a.659.659,0,0,0,.079.355c.094.136.2.267.121.366a.175.175,0,0,1-.3-.1A.83.83,0,0,1,32.975,31.538Z" style="fill:#fff"/><path d="M32.688,31.81s.042.224.083.35-.073.282-.146.183A.5.5,0,0,1,32.688,31.81Z" style="fill:#fff"/><path d="M33.368,30.612a1.056,1.056,0,0,0,.167.288.45.45,0,0,1,.115.214.261.261,0,0,1-.016.2c-.041.062-.136.047-.193.015a.3.3,0,0,1-.126-.183,1.212,1.212,0,0,1,.037-.591Z" style="fill:#fff"/><path d="M34.2,30.246a.8.8,0,0,1-.219.612.186.186,0,0,1-.241.026.163.163,0,0,1-.068-.089.107.107,0,0,1,.021-.079.92.92,0,0,1,.3-.245C34.064,30.418,34.194,30.345,34.2,30.246Z" style="fill:#fff"/><path d="M34.43,32.259s.057.414-.283.455-.277-.209-.251-.225A.5.5,0,0,0,34.43,32.259Z" style="fill:#fff"/><path d="M34.455,32.751a1.275,1.275,0,0,1,.147.277c.037.12.152.372-.058.419S34.455,32.751,34.455,32.751Z" style="fill:#fff"/><path d="M37.614,27.526s-.392.858-.69.921-.324-.136-.2-.283S37.568,27.626,37.614,27.526Z" style="fill:#fff"/><path d="M37.52,26.825s-.24.863-.507.968-.314-.079-.22-.235S37.489,26.925,37.52,26.825Z" style="fill:#fff"/><path d="M37.505,26.208s-.231.832-.487.931-.3-.073-.214-.23S37.478,26.308,37.505,26.208Z" style="fill:#fff"/><path d="M37.473,25.607s-.23.821-.48.92-.3-.073-.21-.225S37.447,25.7,37.473,25.607Z" style="fill:#fff"/><path d="M37.28,25.042s-.058.706-.246.821-.256-.01-.2-.146S37.274,25.126,37.28,25.042Z" style="fill:#fff"/><path d="M36.045,27.6s.063.79.309.937.335,0,.272-.157S36.056,27.694,36.045,27.6Z" style="fill:#fff"/><path d="M35.92,26.857s.24.863.507.967.314-.078.22-.235S35.947,26.956,35.92,26.857Z" style="fill:#fff"/><path d="M35.951,26.245s.236.831.492.931.3-.073.209-.23S35.983,26.344,35.951,26.245Z" style="fill:#fff"/><path d="M35.956,25.622s.231.822.482.921.3-.073.214-.225S35.983,25.722,35.956,25.622Z" style="fill:#fff"/><path d="M36.265,25.105s.058.7.246.821.256-.011.2-.147S36.27,25.188,36.265,25.105Z" style="fill:#fff"/><path d="M36.814,24.435c.016.037.037.094.047.12a1.431,1.431,0,0,1,.053.152,1.623,1.623,0,0,1,.068.309.929.929,0,0,1-.011.345c-.026.078-.1.193-.2.183a.17.17,0,0,1-.115-.105.96.96,0,0,1,.053-.669C36.741,24.66,36.778,24.545,36.814,24.435Z" style="fill:#fff"/><path d="M36.03,28.222a.706.706,0,0,0-.031.162,1.336,1.336,0,0,1-.069.2c-.057.12-.151.24-.3.214a.085.085,0,0,1-.074-.042.107.107,0,0,1-.016-.089.436.436,0,0,1,.136-.209A3.436,3.436,0,0,1,36.03,28.222Z" style="fill:#fff"/><path d="M36,27.741a.7.7,0,0,0-.032.162.858.858,0,0,1-.068.2c-.052.121-.151.246-.3.22a.113.113,0,0,1-.073-.047.106.106,0,0,1-.011-.089.427.427,0,0,1,.131-.209A3.436,3.436,0,0,1,36,27.741Z" style="fill:#fff"/><path d="M35.9,27.129a.7.7,0,0,0,.021.167.982.982,0,0,1,0,.209c-.016.131-.068.277-.215.3a.111.111,0,0,1-.083-.021.1.1,0,0,1-.042-.083.421.421,0,0,1,.063-.236A3.421,3.421,0,0,1,35.9,27.129Z" style="fill:#fff"/><path d="M34.942,28.222a.706.706,0,0,1,.031.162.935.935,0,0,0,.068.2c.053.12.152.24.3.214a.093.093,0,0,0,.074-.042.111.111,0,0,0,.015-.089.467.467,0,0,0-.136-.209A3.341,3.341,0,0,0,34.942,28.222Z" style="fill:#fff"/><path d="M34.963,27.741a.764.764,0,0,1,.031.162c.021.068.042.136.068.2.058.121.152.246.3.22a.126.126,0,0,0,.074-.047.106.106,0,0,0,.01-.089.425.425,0,0,0-.13-.209A3.988,3.988,0,0,0,34.963,27.741Z" style="fill:#fff"/><path d="M35.156,27.1a.617.617,0,0,1-.021.168.914.914,0,0,0,.006.209c.015.131.068.277.214.3a.1.1,0,0,0,.084-.021.1.1,0,0,0,.042-.084.42.42,0,0,0-.063-.235A3.6,3.6,0,0,0,35.156,27.1Z" style="fill:#fff"/><path d="M35.522,26.48c0,.016.074.12.084.141a.879.879,0,0,1,.089.189.294.294,0,0,1-.073.361.1.1,0,0,1-.084.02.13.13,0,0,1-.073-.057.477.477,0,0,1-.041-.246A3.6,3.6,0,0,1,35.522,26.48Z" style="fill:#fff"/><path d="M35.669,24.142a.128.128,0,0,0-.021-.073.422.422,0,0,0-.131-.141.76.76,0,0,0-.643-.042.476.476,0,0,0-.078.026c.02-.01.094.068.109.079a1.453,1.453,0,0,0,.277.188.646.646,0,0,0,.346.094A.138.138,0,0,0,35.669,24.142Z" style="fill:#fff"/><path d="M36.119,24.524a.141.141,0,0,0-.042-.068.374.374,0,0,0-.162-.1.764.764,0,0,0-.628.125c-.026.016-.052.032-.073.047.016-.01.11.047.125.053a1.369,1.369,0,0,0,.319.1.682.682,0,0,0,.356,0A.141.141,0,0,0,36.119,24.524Z" style="fill:#fff"/><path d="M35.23,23.625a.148.148,0,0,0-.016-.079A.4.4,0,0,0,35.1,23.4a.63.63,0,0,0-.57-.079.327.327,0,0,1-.074.021c.016,0,.084.079.1.094a1.54,1.54,0,0,0,.246.2.626.626,0,0,0,.3.115A.12.12,0,0,0,35.23,23.625Z" style="fill:#fff"/><path d="M34.942,23.081c0-.267-.361-.33-.555-.361-.031-.006-.251-.047-.251-.089-.015.308.319.465.565.544a.262.262,0,0,0,.11.015.135.135,0,0,0,.12-.062A.139.139,0,0,0,34.942,23.081Z" style="fill:#fff"/><path d="M34.644,22.563c0-.23-.314-.288-.481-.314-.032,0-.225-.042-.22-.084-.016.272.278.413.5.481a.281.281,0,0,0,.094.016.122.122,0,0,0,.105-.057A.124.124,0,0,0,34.644,22.563Z" style="fill:#fff"/><path d="M34.335,22.066c.1-.3-.314-.518-.539-.633a2.51,2.51,0,0,1-.381-.272,1.285,1.285,0,0,0,.6.915.445.445,0,0,0,.125.063.182.182,0,0,0,.173-.026A.133.133,0,0,0,34.335,22.066Z" style="fill:#fff"/><path d="M35.8,21.721a8.86,8.86,0,0,1-.058,1.109c-.021.167-.031.334-.057.5a.977.977,0,0,1-.068.367c-.089.125-.2.015-.236-.084a1.619,1.619,0,0,1,.136-.837c.068-.267.147-.528.215-.79A1.2,1.2,0,0,0,35.8,21.721Z" style="fill:#fff"/><path d="M36.291,22.186a8.431,8.431,0,0,1-.11,1.109c-.031.162-.047.33-.083.492a.844.844,0,0,1-.089.361c-.094.12-.2,0-.225-.1a1.609,1.609,0,0,1,.172-.826c.084-.256.173-.518.257-.779A.871.871,0,0,0,36.291,22.186Z" style="fill:#fff"/><path d="M36.479,22.662a8.987,8.987,0,0,1,.043,1.114c-.011.168,0,.335-.011.5a.972.972,0,0,1-.041.366c-.079.136-.194.037-.242-.062a1.636,1.636,0,0,1,.063-.848c.047-.266.1-.533.147-.805A.924.924,0,0,0,36.479,22.662Z" style="fill:#fff"/><path d="M35.267,21.161a7.619,7.619,0,0,1,.036,1.062c0,.162,0,.319,0,.481a.879.879,0,0,1-.042.35c-.074.131-.183.037-.225-.057a1.535,1.535,0,0,1,.052-.811l.141-.769A.875.875,0,0,0,35.267,21.161Z" style="fill:#fff"/><path d="M34.9,20.884a5.635,5.635,0,0,1,.042.889c-.011.136,0,.272-.011.4a.636.636,0,0,1-.036.3c-.074.1-.189.026-.231-.052-.1-.194.011-.476.058-.68s.094-.429.136-.644A.621.621,0,0,0,34.9,20.884Z" style="fill:#fff"/><path d="M34.591,20.335a4.326,4.326,0,0,1,.053.769c-.011.157.005.313,0,.47a.208.208,0,0,1-.037.136.141.141,0,0,1-.167.011.215.215,0,0,1-.074-.089c-.083-.173.021-.382.063-.555s.089-.371.131-.554C34.565,20.466,34.576,20.4,34.591,20.335Z" style="fill:#fff"/><path d="M33.76,20.612a1.391,1.391,0,0,0,.178.209,1.666,1.666,0,0,1,.23.23.563.563,0,0,1,.073.225.788.788,0,0,1,.005.152.138.138,0,0,1-.052.089.161.161,0,0,1-.12,0c-.225-.068-.257-.293-.283-.492C33.776,20.894,33.765,20.753,33.76,20.612Z" style="fill:#fff"/><path d="M33.948,22.746a1.287,1.287,0,0,1,.147.34.829.829,0,0,1,.026.335c-.016.088-.047.282-.168.282-.188,0-.141-.4-.089-.507a1.656,1.656,0,0,0,.043-.513Z" style="fill:#fff"/><path d="M34.3,23.311a1.207,1.207,0,0,1,.109.355.807.807,0,0,1-.015.335c-.021.089-.074.277-.194.267-.188-.026-.1-.419-.031-.518a1.634,1.634,0,0,0,.1-.507Z" style="fill:#fff"/><path d="M34.654,23.828a1.092,1.092,0,0,1,.053.367.792.792,0,0,1-.068.329c-.037.084-.116.262-.236.23-.182-.052-.025-.429.052-.518a1.516,1.516,0,0,0,.178-.481Z" style="fill:#fff"/><path d="M34.89,24.236a1.465,1.465,0,0,1,.052.367.96.96,0,0,1-.068.329c-.042.084-.12.262-.235.23-.184-.052-.032-.429.047-.518a1.532,1.532,0,0,0,.177-.481Z" style="fill:#fff"/><path d="M33.645,22.16a1.3,1.3,0,0,1,.146.34.8.8,0,0,1,.026.335c-.015.089-.041.282-.167.282-.188,0-.141-.4-.089-.507A1.647,1.647,0,0,0,33.6,22.1Z" style="fill:#fff"/><path d="M33.158,21.47a1.5,1.5,0,0,1,.21.334.993.993,0,0,1,.089.356c0,.1.01.309-.11.33-.189.031-.22-.4-.189-.523a1.769,1.769,0,0,0-.052-.555Z" style="fill:#fff"/><path d="M32.907,23.169a1.131,1.131,0,0,0,.168.33.844.844,0,0,0,.246.23c.078.042.245.141.324.047.12-.146-.225-.361-.34-.392a1.486,1.486,0,0,1-.424-.288Z" style="fill:#fff"/><path d="M33.148,23.771a1.137,1.137,0,0,0,.209.309.744.744,0,0,0,.272.2c.079.037.262.115.324.016.1-.162-.261-.34-.381-.35a1.563,1.563,0,0,1-.455-.241Z" style="fill:#fff"/><path d="M33.394,24.372a1.1,1.1,0,0,0,.251.272.8.8,0,0,0,.3.152c.089.026.278.073.324-.037.079-.177-.308-.292-.429-.287a1.515,1.515,0,0,1-.491-.162Z" style="fill:#fff"/><path d="M33.535,24.848a1.218,1.218,0,0,0,.251.272.8.8,0,0,0,.3.152c.089.026.277.073.33-.037.073-.177-.314-.293-.434-.287a1.514,1.514,0,0,1-.492-.162Z" style="fill:#fff"/><path d="M35.12,24.676a1.141,1.141,0,0,1,.052.371.813.813,0,0,1-.068.33c-.037.078-.115.261-.235.224-.183-.052-.027-.423.052-.512A1.612,1.612,0,0,0,35.1,24.6Z" style="fill:#fff"/><path d="M33.88,25.455a1.137,1.137,0,0,0,.277.241.81.81,0,0,0,.319.12c.089.01.283.042.314-.073.058-.183-.34-.257-.46-.236a1.641,1.641,0,0,1-.5-.109Z" style="fill:#fff"/><path d="M32.693,22.584a1.2,1.2,0,0,0,.168.329.836.836,0,0,0,.245.23c.079.047.251.147.324.047.121-.146-.219-.36-.334-.387a1.635,1.635,0,0,1-.429-.292Z" style="fill:#fff"/><path d="M32.442,21.8a1.416,1.416,0,0,0,.125.377,1.081,1.081,0,0,0,.225.287c.074.063.23.2.325.121.141-.126-.178-.424-.293-.476a1.731,1.731,0,0,1-.4-.387Z" style="fill:#fff"/><path d="M32.426,21.24c0,.005.173.073.188.083a1.1,1.1,0,0,1,.21.131.521.521,0,0,1,.219.413.159.159,0,0,1-.036.094.163.163,0,0,1-.168.026.888.888,0,0,1-.272-.235A.78.78,0,0,1,32.426,21.24Z" style="fill:#fff"/><path d="M26.134,21.344c-.083.037-.12.016-.162.058a.115.115,0,0,0-.036.089c.01.052.083.078.13.083a.165.165,0,0,0,.157-.057c.032-.042.021-.073.048-.089s.062.042.13.063a.283.283,0,0,0,.173-.037c.063-.047.057-.1.115-.209a.822.822,0,0,1,.2-.262,2.006,2.006,0,0,1,.209-.157c.084-.052.136-.078.141-.125a.1.1,0,0,0-.068-.1c-.036-.006-.063.041-.1.088-.089.105-.105.068-.288.225a.815.815,0,0,0-.2.21c-.058.094-.068.177-.105.177s-.062-.125-.12-.13c-.026,0-.031.036-.105.094A.365.365,0,0,1,26.134,21.344Z" style="fill:#fff"/><path d="M27.139,20.905a.335.335,0,0,0-.121.052c-.021.021-.067.058-.057.094s.042.032.057.068a.125.125,0,0,1-.015.094,1.4,1.4,0,0,0-.047.21c0,.057-.016.136.01.151s.1-.021.136-.083c.073-.131-.063-.3.006-.393a.244.244,0,0,1,.072-.073c.021-.016.037-.021.047-.042a.062.062,0,0,0,0-.078C27.212,20.889,27.18,20.894,27.139,20.905Z" style="fill:#fff"/><path d="M27.9,21.255c-.1.042-.1.026-.147.053a.178.178,0,0,0-.083.088c-.016.042-.016.11.026.136a.094.094,0,0,0,.11-.01c.031-.026.026-.063.063-.078a.043.043,0,0,1,.047-.006c.032.016,0,.089.036.142a.151.151,0,0,0,.1.041c.068.006.078-.041.152-.068.1-.041.13.016.235-.015a.265.265,0,0,0,.162-.115c.058-.094.058-.23,0-.262a.09.09,0,0,0-.094.016c-.037.031,0,.078-.041.146-.022.042-.064.084-.095.073-.005,0-.016-.005-.037-.078s-.021-.131-.025-.131-.011.115-.09.183c0,.006-.057.047-.1.032-.021-.006-.042-.042-.084-.11-.026-.037-.031-.047-.052-.052S27.945,21.24,27.9,21.255Z" style="fill:#fff"/><path d="M28.2,20.764c0,.1-.052.13-.026.172a.076.076,0,0,0,.084.042c.015-.005.021-.021.031-.141s.005-.131,0-.141a.056.056,0,0,0-.073.015A.093.093,0,0,0,28.2,20.764Z" style="fill:#fff"/><path d="M28.886,20.921c-.048.031-.052.031-.095.062a.375.375,0,0,0-.052.058c-.047.057.01.131.026.261.016.152-.036.246,0,.262s.074-.016.1-.052c.068-.11-.068-.241,0-.367a.519.519,0,0,1,.073-.088c.059-.053.1-.053.116-.095a.089.089,0,0,0-.021-.1A.063.063,0,0,0,29,20.842C28.969,20.837,28.948,20.873,28.886,20.921Z" style="fill:#fff"/><path d="M21.919,21.062c-.041.015-.073-.042-.126-.021a.11.11,0,0,0-.068.1c.006.079.116.147.21.136a.2.2,0,0,0,.12-.062c.052-.063.047-.142.037-.293-.027-.3-.042-.372-.011-.387s.073.057.2.157.246.2.35.167c.058-.016.105-.089.194-.241.078-.13.068-.151.115-.188.1-.089.2-.016.293-.094a.378.378,0,0,0,.078-.314.687.687,0,0,0-.131-.314c-.036-.052-.23-.34-.381-.3a.119.119,0,0,0-.084.074c0,.015-.016.073.12.224.11.126.136.11.189.183.078.105.13.278.062.346-.047.047-.151.026-.219-.016-.047-.031-.058-.063-.115-.167-.1-.152-.163-.267-.257-.272-.036-.006-.078,0-.089.031s.011.078.105.188c.146.178.157.173.178.225a.386.386,0,0,1-.032.3c-.026.052-.073.151-.146.156s-.152-.1-.282-.292c-.1-.152-.131-.236-.189-.236s-.094.115-.1.12c-.026.089.01.131.031.3a1.08,1.08,0,0,1,0,.235C21.966,21.036,21.935,21.057,21.919,21.062Z" style="fill:#fff"/><path d="M21.564,20.439c-.037-.015-.111-.021-.137.016-.047.052.032.215.11.215.047-.006.079-.058.084-.063a.115.115,0,0,0,.021-.11A.132.132,0,0,0,21.564,20.439Z" style="fill:#fff"/><path d="M21.537,19.9c.005.031-.073.042-.13.13-.016.021-.048.068-.032.105a.086.086,0,0,0,.068.042c.084,0,.152-.105.209-.194a.217.217,0,0,0,.058-.12c-.005-.115-.173-.193-.288-.2-.031,0-.084-.01-.1.016s0,.078.026.11C21.422,19.875,21.537,19.864,21.537,19.9Z" style="fill:#fff"/><path d="M22.029,19.576c-.032.016-.068-.026-.1-.01s-.032.068-.037.073a.1.1,0,0,0,.026.073.124.124,0,0,0,.131.027.165.165,0,0,0,.083-.074c.016-.036,0-.047.016-.073s.037-.026.141-.047.105-.026.121-.047a.135.135,0,0,0,.036-.094.251.251,0,0,0-.083-.188c-.027-.027-.1-.11-.173-.089-.031.01-.068.036-.063.062s.068.027.11.089a.1.1,0,0,1,.026.089.087.087,0,0,1-.042.068c-.047.016-.1-.057-.135-.036-.011,0-.011.015-.022.068S22.044,19.566,22.029,19.576Z" style="fill:#fff"/><path d="M21.867,19.142c-.026.032.036.11.063.142s.036.036.046.036.027-.047.027-.073a.1.1,0,0,0-.032-.079C21.935,19.137,21.882,19.127,21.867,19.142Z" style="fill:#fff"/><path d="M22.5,18.572a.164.164,0,0,0-.094.094c-.015.032-.036.1-.015.121s.115-.042.157-.089c.02-.021.088-.089.068-.126C22.6,18.551,22.536,18.557,22.5,18.572Z" style="fill:#fff"/><path d="M22.881,18.394c-.021.168.126.236.3.523.089.142.068.152.235.45.079.131.157.267.3.3.026,0,.074.02.094-.006s-.041-.151-.146-.319c-.309-.476-.3-.429-.361-.549-.073-.141-.157-.282-.229-.423-.032-.063-.064-.136-.111-.136S22.892,18.326,22.881,18.394Z" style="fill:#fff"/><path d="M23.514,17.96c-.015.021,0,.053.011.115.026.089.047.089.047.126-.006.063-.084.073-.089.141,0,.026.01.063.031.073.063.027.246-.136.23-.3a.182.182,0,0,0-.063-.131C23.624,17.939,23.54,17.929,23.514,17.96Z" style="fill:#fff"/><path d="M25.5,18.227c-.073,0-.1.068-.2.152-.125.094-.209.1-.2.141s.085.063.152.063c.2,0,.4-.225.356-.309C25.58,18.238,25.528,18.227,25.5,18.227Z" style="fill:#fff"/><path d="M25.01,19c-.026.068.021.157.073.157s.068-.042.084-.068c.021-.047.026-.131-.021-.152S25.036,18.949,25.01,19Z" style="fill:#fff"/><path d="M26.04,17.406c-.036,0-.078.073-.115.146s-.052.131-.072.131c-.038,0-.053-.115-.09-.12s-.037.136-.125.183a.2.2,0,0,1-.173-.011c-.068-.036-.063-.1-.11-.109-.031-.006-.052.026-.157.125a.937.937,0,0,1-.146.126.319.319,0,0,1-.2.031c-.115-.042-.105-.178-.194-.193s-.161.068-.2.141a.254.254,0,0,0,.037.308c.067.037.135-.047.235-.005.01.005.073.031.083.084s-.042.115-.12.188c-.105.105-.178.178-.225.22a.958.958,0,0,1-.157-.319l-.073-.293c-.037-.152-.042-.23-.094-.246s-.1.021-.126.063c-.042.068,0,.151.032.246.094.261.036.245.12.465a.868.868,0,0,0,.116.214c-.147.079-.242.1-.289.2-.005.006-.047.115-.01.147.052.047.214-.052.4-.178.006.011.011.021.021.037a.784.784,0,0,1,.079.664.643.643,0,0,1-.455.272.437.437,0,0,1-.267-.032c-.167-.083-.2-.3-.267-.282-.026,0-.036.042-.046.073a.361.361,0,0,0,.041.267.479.479,0,0,0,.377.188.774.774,0,0,0,.611-.293.872.872,0,0,0,.215-.486,1,1,0,0,0-.11-.5l-.016-.031a1.059,1.059,0,0,0,.309-.267c.094-.152.052-.215.173-.413.062-.1.162-.257.283-.257.088,0,.114.079.213.068s.1-.057.183-.073c.116-.016.152.058.241.031a.238.238,0,0,0,.141-.141C26.181,17.62,26.1,17.411,26.04,17.406Zm-1.349.633c-.016.01-.068-.021-.084-.068-.01-.026-.01-.063,0-.068s.026.01.053.036a.238.238,0,0,1,.042.037C24.707,18,24.707,18.034,24.691,18.039Z" style="fill:#fff"/><path d="M27.447,18.384c-.2,0-.5-.01-.518-.084,0-.021.016-.036.121-.115a3.663,3.663,0,0,1,.308-.225c.183-.083.257-.021.33-.1a.246.246,0,0,0,0-.314.2.2,0,0,0-.246-.042.106.106,0,0,0-.042.115c.026.037.1.011.12.052s-.031.089-.036.095a.29.29,0,0,1-.2.094.907.907,0,0,0-.455.214c-.078.079-.152.215-.1.293.021.042.095.063.246.105s.2.047.2.078-.067.058-.157.141a.569.569,0,0,0-.115.147c-.026-.047-.052-.089-.073-.131-.178-.3-.261-.455-.277-.5-.089-.277-.032-.455-.162-.533-.042-.021-.11-.042-.147-.011-.015.011-.052.042-.025.189a1.347,1.347,0,0,0,.177.4c.115.225.178.34.152.471-.011.068-.037.115-.042.162a3.752,3.752,0,0,1-.419.3.441.441,0,0,1-.334.052A.123.123,0,0,1,25.7,19.2l.1-.126a2.182,2.182,0,0,0,.246-.4c.058-.147.121-.293.053-.387a.176.176,0,0,0-.178-.068.147.147,0,0,0-.105.109c0,.037.011.058.037.11a.664.664,0,0,1,.083.215c.006.078-.073.11-.2.251a.847.847,0,0,0-.109.146.887.887,0,0,1-.021-.413c0-.005.021-.037,0-.052s-.052-.016-.079,0a.112.112,0,0,0-.047.057.623.623,0,0,0,.037.382c.016.042.031.078.047.115a.693.693,0,0,1-.1.12c-.078.084-.136.121-.246.251-.079.1-.12.157-.1.215a.086.086,0,0,0,.062.063c.079.015.147-.115.283-.3.089-.115.125-.157.167-.2a.288.288,0,0,0,.136.126c.167.073.351-.042.649-.23a.8.8,0,0,0,.2-.178.479.479,0,0,1,.079.031c.141.084.11.209.262.34.078.068.193.131.229.105.011-.011.027-.047-.141-.382-.026-.052-.047-.094-.073-.136.126-.241.251-.324.351-.35.135-.037.224.021.423-.037.141-.042.288-.131.277-.173S27.824,18.389,27.447,18.384Z" style="fill:#fff"/><path d="M27.337,17.129a.456.456,0,0,0-.24.319c-.016.047-.011.057-.005.063.031.026.183-.084.287-.2.047-.047.147-.152.12-.194S27.39,17.108,27.337,17.129Z" style="fill:#fff"/><path d="M26.84,17.3c-.057-.01-.115.031-.219.115-.063.047-.073.068-.073.079.01.026.062.036.1.036.063,0,.11-.036.188-.094s.079-.089.079-.094C26.908,17.312,26.867,17.3,26.84,17.3Z" style="fill:#fff"/><path d="M26.851,17.673a.207.207,0,0,1-.084.078c-.042.016-.068-.01-.089,0a.081.081,0,0,0-.01.11c.021.026.063.021.152.016a.186.186,0,0,0,.1-.026c.037-.042.016-.115,0-.152,0-.016-.021-.068-.041-.068S26.872,17.652,26.851,17.673Z" style="fill:#fff"/><path d="M28.274,17.511a.257.257,0,0,0-.131.151c-.016.042-.037.084-.016.105s.073.01.11,0,.026-.037.094-.11a.133.133,0,0,0,.047-.063s.011-.047-.01-.068S28.284,17.511,28.274,17.511Z" style="fill:#fff"/><path d="M28.6,17.96c-.011.006.005.058.036.1a.269.269,0,0,0,.136.078c.064.016.074-.005.21,0,.073,0,.083,0,.1-.005.073-.047.026-.225.016-.251-.011-.052-.042-.141-.068-.136-.042.005-.027.24-.084.246-.031,0-.052-.063-.089-.058s-.037.12-.089.136S28.619,17.945,28.6,17.96Z" style="fill:#fff"/><path d="M28.781,17.558a.112.112,0,0,0,.089.136.1.1,0,0,0,.068-.115.082.082,0,0,0-.058-.074A.088.088,0,0,0,28.781,17.558Z" style="fill:#fff"/><path d="M27.52,18.776c-.036,0-.089.079-.109.168a.457.457,0,0,0,.041.261c.068.2.115.335.189.34.047,0,.083-.042.188-.178.288-.366.325-.366.335-.361.047.021-.105.283.01.476a.347.347,0,0,0,.33.168c.146-.037.162-.225.272-.225s.141.209.277.225c.094.01.178-.079.24-.152a.931.931,0,0,0,.2-.476c.053-.225.089-.4,0-.481-.068-.063-.2-.063-.23-.011-.016.032.047.074.073.173a.393.393,0,0,1,0,.214c-.068.414-.12.461-.146.476a.192.192,0,0,1-.146.042c-.084-.021-.121-.12-.131-.146a.3.3,0,0,1-.016-.157c.042-.366.1-.528.026-.664-.021-.032-.068-.084-.1-.079s-.058.089-.074.3c-.02.407.016.5-.062.611s-.194.157-.272.121c-.026-.011-.074-.053-.089-.262-.021-.371.1-.617.052-.643-.021-.011-.084.047-.256.267-.282.35-.377.507-.445.486-.036-.01-.057-.1-.094-.277C27.547,18.849,27.552,18.781,27.52,18.776Z" style="fill:#fff"/><path d="M30.256,18.891a1.464,1.464,0,0,1-.105-.293c.026-.062.052-.13.079-.209.115-.3.219-.465.146-.559a.135.135,0,0,0-.136-.047c-.084.031-.068.188-.11.413a1.305,1.305,0,0,1-.047.183c-.01-.016-.016-.037-.026-.053-.157-.282-.241-.235-.45-.591-.041-.062-.084-.146-.131-.136s-.1.147-.073.262c.037.167.215.193.4.366a.887.887,0,0,1,.2.319,1.7,1.7,0,0,0-.089.267c-.068.256-.032.23-.1.465-.062.215-.12.34-.068.387.032.032.105.021.157-.01.11-.073.084-.246.1-.45a1.672,1.672,0,0,1,.084-.429c.161.45.109.78.24.806a.139.139,0,0,0,.136-.063C30.538,19.409,30.4,19.236,30.256,18.891Z" style="fill:#fff"/><path d="M30.475,18.405c-.031,0-.068.047-.072.094-.006.068.067.136.14.157s.194-.016.21-.094a.1.1,0,0,0-.053-.12c-.047-.016-.083.057-.136.041S30.512,18.405,30.475,18.405Z" style="fill:#fff"/><path d="M30.653,18.2c.063.073.241-.021.262-.032s.1-.047.094-.078-.083-.037-.162-.042c-.1-.01-.152-.016-.183.016A.119.119,0,0,0,30.653,18.2Z" style="fill:#fff"/><path d="M29.79,19.812a.143.143,0,0,0-.021.141c.058.1.314.047.4.026a.911.911,0,0,0,.476-.214,1.146,1.146,0,0,0,.241-.508c.12-.376.062-.47.194-.627.083-.094.161-.131.177-.241a.455.455,0,0,0-.089-.267c-.036-.057-.052-.057-.063-.057-.042,0-.057.136-.068.2-.01.084,0,0-.2.617a3.762,3.762,0,0,1-.188.544c-.093.183-.141.277-.235.329C30.177,19.885,29.9,19.676,29.79,19.812Z" style="fill:#fff"/><path d="M31.579,18.326a1.253,1.253,0,0,0-.209.571,3.5,3.5,0,0,1-.361.889c.031.021.2-.215.209-.225.288-.4.2-.534.445-.884.109-.157.23-.283.188-.387a.134.134,0,0,0-.094-.073C31.741,18.211,31.678,18.206,31.579,18.326Z" style="fill:#fff"/><path d="M31.678,19.189c-.042.042-.089.115-.057.157.015.026.047.032.1.037.038.005.131.016.147-.016s-.026-.036-.047-.1-.006-.11-.026-.126S31.71,19.163,31.678,19.189Z" style="fill:#fff"/><path d="M31.49,19.7c-.01.042-.031.057-.026.073.01.032.089.032.115.032.256,0,.34.088.413.02.037-.031.063-.083.047-.115s-.1-.01-.24-.021c-.168-.015-.288-.078-.309-.041C31.48,19.66,31.49,19.665,31.49,19.7Z" style="fill:#fff"/><path d="M33.127,19.142c-.057,0-.089.126-.188.335a3.744,3.744,0,0,1-.241.476c-.01-.078-.021-.183-.042-.3-.01-.084-.026-.162-.036-.241.057-.084.11-.173.167-.256s.12-.173.084-.236a.144.144,0,0,0-.162-.052c-.084.032-.1.157-.136.319a1.407,1.407,0,0,0-.194-.491c-.036-.053-.084-.11-.131-.1s-.094.115-.1.194c-.015.178.115.282.24.486a1.2,1.2,0,0,1,.079.167,3.829,3.829,0,0,0-.241.414,1.52,1.52,0,0,1-.235.423c-.026.026-.215.241-.309.194-.015-.011-.031-.026-.083-.293-.027-.136-.027-.173-.063-.2s-.105,0-.225.032a1.62,1.62,0,0,1-.309.115.247.247,0,0,1-.177-.016c-.1-.063-.063-.215-.142-.241a.1.1,0,0,0-.1.026c-.063.068-.026.241.073.33a.537.537,0,0,0,.565,0c.089-.047.131-.105.167-.089.064.037-.026.214.068.424a.283.283,0,0,0,.126.157c.167.068.408-.178.445-.215.277-.282.135-.439.423-.837.021-.026.042-.057.063-.089a3.566,3.566,0,0,1,.078.424c.006.031.006.068.011.1a.914.914,0,0,1-.068.089,1.321,1.321,0,0,0-.147.23.335.335,0,0,0-.046.22c.005.032.015.073.041.084.058.01.089-.225.23-.487.016.246,0,.408.058.424.031.005.078-.042.094-.084.031-.068,0-.125-.021-.225-.01-.057,0-.031-.026-.261v-.016a1.11,1.11,0,0,1,.147-.172,1.671,1.671,0,0,0,.355-.471.29.29,0,0,0,.016-.1C33.227,19.247,33.175,19.148,33.127,19.142Z" style="fill:#fff"/><path d="M31.961,20.826a.119.119,0,0,0-.042.131c.042.136.413.215.695.105.163-.063.257-.183.445-.424.288-.361.251-.512.492-.716a.392.392,0,0,0,.1-.152c.063-.167-.036-.382-.1-.377-.031,0-.052.058-.063.095-.084.224-.209.439-.293.664-.073.193-.235.617-.586.737a.616.616,0,0,1-.5.011C32.065,20.868,32.008,20.811,31.961,20.826Z" style="fill:#fff"/><path d="M28.932,20.492l.816-.262-.857.424a2.678,2.678,0,0,0-1.4-.293,2.687,2.687,0,0,0-1.4.293l-.858-.424.816.262s-.225-.267-.256-.293h0c.026,0,.455.219.455.219l-.361-.491.68.408-.168-.324.34.277-.136-.57.508.538v-.381l.209.381.167-.575.173.575.209-.381v.381l.5-.538-.131.57.335-.277-.167.324.68-.408-.361.491s.434-.214.455-.219Z" style="fill:#fff"/></svg>