<svg xmlns="http://www.w3.org/2000/svg" viewBox="0 0 55 55"><circle cx="27.5" cy="27.5" r="23.3" style="fill:#e31e1f"/><path d="M40.91,35.261a.876.876,0,0,0-1.386.042l-1.862.079a6.664,6.664,0,0,1,1.088-.816.92.92,0,0,0,1.24-.581c.046-.141.271-.183.726-.183-.219-.355-.575-.3-1.056-.183a.759.759,0,0,0-1.219.586l-1.349.926s-2.233-.544-3.033-.78a.1.1,0,0,0,.021-.031,4.613,4.613,0,0,0,.632-.983c.094-.324-.737-.324-1.72-.5s-1.925-2.213-2.2-2.8.345-.67.575-.44,1,1.9,1.517,2.186.915-.3.434-.617a3.127,3.127,0,0,1-.738-1.924c0-.366.764-.45.764.219a3.478,3.478,0,0,0,1.015,2.077c.5.5,1.213,1.051,1.553.5s-.136-.638-.764-1.088a2.149,2.149,0,0,1-.9-1.282c-.01-.214.01-1.108.638-.685s.983,1.24,2.076,2.333,1.993,1.627,3.1,1.255a.951.951,0,0,0,.68-.559.669.669,0,0,0-.361-.738,1.414,1.414,0,0,0-.607-.1,3.938,3.938,0,0,1-1.982-.309,4.915,4.915,0,0,1-1.935-2.814c0-.748.491.016,1.171.7a5.484,5.484,0,0,0,1.051.779,4.952,4.952,0,0,0,1.4.612A1.183,1.183,0,0,0,40.382,30c.266-.183.622-.832.3-1.1-.283-.23-.91-.084-1.235-.053-1.119.105-2.05-.884-2.578-1.407s-.737-.711-.737-1.354,1.391.481,2.3,1.009a2.1,2.1,0,0,0,2.317,0,.639.639,0,0,0,.015-.894c-.366-.33-.973-.105-1.412-.105a3.081,3.081,0,0,1-1.48-.46,9.1,9.1,0,0,1-1.166-.753,1.535,1.535,0,0,1-.508-.56.284.284,0,0,1-.01-.235.235.235,0,0,1,.241-.105.817.817,0,0,1,.256.115,5.615,5.615,0,0,0,2.887.853,1.892,1.892,0,0,0,.638-.094.9.9,0,0,0,.491-.4c.168-.319,0-.926-.4-1a.706.706,0,0,0-.413.058c-.251.1-.45.3-.712.387a1.475,1.475,0,0,1-.622.073,2.839,2.839,0,0,1-1.066-.4c-.414-.23-.822-.475-1.214-.742-.178-.115-.372-.283-.346-.492a.41.41,0,0,1,.414-.308,1.282,1.282,0,0,1,.533.162,4.9,4.9,0,0,0,2,.538,2.319,2.319,0,0,0,1.846-.795.966.966,0,0,0,.188-.35A.7.7,0,0,0,40.743,21a.561.561,0,0,0-.523-.235,1.994,1.994,0,0,0-.55.329,8.089,8.089,0,0,1-.7.419,2.875,2.875,0,0,1-2.757-.685c-.178-.408-.125-.529.5-.529a5.426,5.426,0,0,0,3.06-.177c.675-.278,1.344-.853,1.041-1.648a.671.671,0,0,0-.256-.329.535.535,0,0,0-.591.083,3.579,3.579,0,0,0-.628.529,2.269,2.269,0,0,1-1.59.564,5.3,5.3,0,0,1-.816.006.868.868,0,0,1-.507-.152.541.541,0,0,1-.011-.774c.053-.052.319-.052.4-.063.125-.026.246-.047.371-.073a6.43,6.43,0,0,0,2.61-1.046,3.139,3.139,0,0,0,.617-.612,2.436,2.436,0,0,0,.571-1.527c-.022-.335-.268-.7-.639-.565a2.015,2.015,0,0,0-.858.826,5.061,5.061,0,0,1-3.3,1.988L35.9,17.04c-.367-.366-.727.078-1.847.46s-1.72,1.041-1.72,1.475c.2,2.17-1.052,2.061-1.522,1.9a1.144,1.144,0,0,1-.565-1.454,3.522,3.522,0,0,1,2.5-2.443c1.486-.272,1.993-.5,2.238-.837a3.046,3.046,0,0,1-1.1.136.275.275,0,0,1-.308-.3c0-.109,1.616.11,2.254-.266s.91-.691.659-.947-.565,0-.921.528-1.313.366-1.741.293c.167-.544,1.1-.512,1.307-.3.272-.957-1.36-.748-1.36-.748a.138.138,0,0,0-.021-.042c-.2-.387-.915-.445-1.3-.45a5.906,5.906,0,0,0-1.809.56c-.67.22-1.507.22-1.507.308s.21.21.854.7a2.7,2.7,0,0,0-1.246,1.036,3.493,3.493,0,0,1,.769.042,4.3,4.3,0,0,0-1.406.795c.135.089.135.052.433.23-.146.151-1.051,1.213-1.051,1.213s-.905-1.062-1.051-1.213c.3-.178.293-.141.434-.23a4.306,4.306,0,0,0-1.407-.795,3.466,3.466,0,0,1,.764-.042A2.664,2.664,0,0,0,25,15.617c.643-.491.853-.612.853-.7s-.837-.088-1.507-.308a5.906,5.906,0,0,0-1.809-.56c-.382.005-1.1.063-1.3.45-.005.016-.01.026-.015.042,0,0-1.632-.209-1.36.748.209-.209,1.14-.241,1.3.3-.424.073-1.382.235-1.737-.293s-.664-.779-.921-.528.021.575.659.947,2.254.157,2.254.266a.278.278,0,0,1-.308.3,3.1,3.1,0,0,1-1.1-.136c.246.335.759.565,2.244.837a3.522,3.522,0,0,1,2.505,2.443,1.144,1.144,0,0,1-.565,1.454c-.47.157-1.731.266-1.522-1.9,0-.434-.6-1.093-1.72-1.475s-1.486-.826-1.847-.46l-.292.293a5.048,5.048,0,0,1-3.295-1.988,2.026,2.026,0,0,0-.863-.826c-.372-.131-.612.23-.633.565a2.429,2.429,0,0,0,.57,1.527,3.139,3.139,0,0,0,.617.612,6.43,6.43,0,0,0,2.61,1.046c.125.026.246.047.371.073.079.011.345.011.4.063a.542.542,0,0,1-.016.774.842.842,0,0,1-.5.152,5.293,5.293,0,0,1-.816-.006,2.269,2.269,0,0,1-1.59-.564,3.579,3.579,0,0,0-.628-.529.535.535,0,0,0-.591-.083.671.671,0,0,0-.256.329c-.3.795.361,1.37,1.041,1.648a5.426,5.426,0,0,0,3.06.177c.628,0,.68.121.5.529a2.879,2.879,0,0,1-2.757.685,8.089,8.089,0,0,1-.7-.419,2.08,2.08,0,0,0-.549-.329.559.559,0,0,0-.523.235.705.705,0,0,0-.157.586.909.909,0,0,0,.188.35,2.319,2.319,0,0,0,1.846.795,4.9,4.9,0,0,0,2-.538,1.282,1.282,0,0,1,.533-.162.41.41,0,0,1,.414.308c.026.209-.167.377-.346.492-.392.267-.8.512-1.218.742a2.791,2.791,0,0,1-1.061.4,1.477,1.477,0,0,1-.623-.073c-.262-.084-.461-.283-.712-.387a.717.717,0,0,0-.418-.058.737.737,0,0,0-.4,1,.886.886,0,0,0,.491.4,1.9,1.9,0,0,0,.638.094,5.612,5.612,0,0,0,2.887-.853.817.817,0,0,1,.256-.115.235.235,0,0,1,.241.105.284.284,0,0,1-.01.235,1.535,1.535,0,0,1-.508.56,9.16,9.16,0,0,1-1.165.753,3.088,3.088,0,0,1-1.481.46c-.439,0-1.046-.225-1.412.105a.639.639,0,0,0,.016.894,2.094,2.094,0,0,0,2.316,0c.9-.528,2.3-1.647,2.3-1.009s-.214.826-.737,1.354-1.459,1.512-2.578,1.407c-.325-.031-.952-.177-1.235.053-.324.266.032.915.3,1.1a1.174,1.174,0,0,0,.9.141,4.92,4.92,0,0,0,1.4-.612,5.484,5.484,0,0,0,1.051-.779c.68-.68,1.171-1.444,1.171-.7a4.9,4.9,0,0,1-1.94,2.814,3.918,3.918,0,0,1-1.977.309,1.414,1.414,0,0,0-.607.1.667.667,0,0,0-.36.738.938.938,0,0,0,.68.559c1.108.372,2.008-.162,3.1-1.255s1.443-1.909,2.071-2.333.654.471.643.685a2.144,2.144,0,0,1-.9,1.282c-.627.45-1.109.544-.764,1.088s1.057-.006,1.553-.5a3.471,3.471,0,0,0,1.01-2.077c0-.669.769-.585.769-.219a3.132,3.132,0,0,1-.737,1.924c-.482.314-.085.9.433.617s1.287-1.95,1.517-2.186.847-.151.575.44-1.218,2.62-2.2,2.8-1.814.178-1.72.5a4.648,4.648,0,0,0,.627.983l.021.031c-.8.236-3.033.78-3.033.78l-1.344-.926a.759.759,0,0,0-1.219-.586c-.486-.115-.837-.172-1.056.183.455,0,.674.042.727.183a.919.919,0,0,0,1.239.581,6.606,6.606,0,0,1,1.088.816L15.476,35.3a.876.876,0,0,0-1.386-.042c-.355.053-.816.283-.753.555.57-.173.716-.1.716-.1a.765.765,0,0,0,1.292,0c.921.053,1.82.053,1.82.053l-1.072.575a.894.894,0,0,0-1.182.664,3.511,3.511,0,0,0-.256,1.036l.481-.675s1.015.188,1.224-.544l1.507-.9,1.474.533s.011.748,1.24.575a1.939,1.939,0,0,1,.4.5,1.255,1.255,0,0,0-.183-.931c-.109-.539-.5-.79-1.145-.576-1.078-.387-1.213-.444-1.213-.444l2.881-.691c.325.424.774.926,1.094.926.549,0,1.056-.533,1.459-1.611s.947-1.783,1.365-1.856.837-.346.837.528a2.875,2.875,0,0,1-.728,2.149c-.543.544-1.108,1.276-1.856,1.386s-1.826-.13-1.58.555a1,1,0,0,0,1.271.721c.408-.177,1.161-.993,1.5-.821s.612.518.11.879a7.744,7.744,0,0,1-1.046.654,2.191,2.191,0,0,1-.507.193c-.189.042-.387.021-.581.063a.335.335,0,0,0-.282.23.347.347,0,0,0,.094.277,1,1,0,0,0,1.094.366c.6-.136,1.338-.925,1.662-1.019s.4-.042.314.34a1.45,1.45,0,0,1-.968,1.27,2.214,2.214,0,0,1-.8.157.223.223,0,0,0-.194.079c-.052.083.011.178.058.251a1.226,1.226,0,0,0,.5.5.715.715,0,0,0,.706-.058,3.551,3.551,0,0,0,1.1-1.213c.178-.356.5-.555.586-.2s.314.46-.052,1.1-.983.764-.889,1.135A6.731,6.731,0,0,0,27.5,44.545h0a6.782,6.782,0,0,0,1.914-2.673c.094-.371-.518-.491-.889-1.135s-.141-.758-.052-1.1.408-.152.586.2a3.551,3.551,0,0,0,1.1,1.213.715.715,0,0,0,.706.058,1.226,1.226,0,0,0,.5-.5c.048-.073.11-.168.052-.251a.2.2,0,0,0-.188-.079,2.214,2.214,0,0,1-.8-.157,1.45,1.45,0,0,1-.968-1.27c-.083-.382-.016-.44.314-.34s1.062.883,1.663,1.019a1,1,0,0,0,1.093-.366.347.347,0,0,0,.094-.277.335.335,0,0,0-.282-.23c-.193-.042-.392-.021-.586-.063a2.261,2.261,0,0,1-.5-.193,7.744,7.744,0,0,1-1.046-.654c-.5-.361-.23-.7.11-.879s1.093.644,1.5.821a1,1,0,0,0,1.271-.721c.246-.685-.832-.45-1.58-.555s-1.313-.842-1.856-1.386a2.875,2.875,0,0,1-.727-2.149c0-.874.418-.6.836-.528s.963.784,1.365,1.856.91,1.611,1.46,1.611c.319,0,.768-.5,1.093-.926l2.881.691s-.135.057-1.213.444c-.643-.214-1.035.037-1.145.576a1.255,1.255,0,0,0-.183.931,1.939,1.939,0,0,1,.4-.5c1.23.173,1.235-.575,1.235-.575l1.475-.533,1.511.9c.209.732,1.219.544,1.219.544l.486.675a3.511,3.511,0,0,0-.256-1.036.894.894,0,0,0-1.182-.664l-1.078-.575s.906,0,1.82-.053a.77.77,0,0,0,1.3,0s.141-.073.717.1C41.726,35.544,41.26,35.314,40.91,35.261Zm-8.478-20.3c.288,0,.518.12.518.271s-.23.272-.518.272-.513-.12-.513-.272S32.15,14.964,32.432,14.964Zm-9.869.543c-.283,0-.512-.12-.512-.272s.229-.271.512-.271.518.12.518.271S22.85,15.507,22.563,15.507Z"/></svg>