<svg xmlns="http://www.w3.org/2000/svg" viewBox="0 0 55 55"><path d="M49.472,35.267a22.994,22.994,0,0,1-1.8,3.88,23.4,23.4,0,0,1-12.4,10.319,23.278,23.278,0,0,1-15.534,0,23.381,23.381,0,0,1-14.2-14.2Z" style="fill:#fff"/><path d="M49.472,19.733H5.534a23.161,23.161,0,0,1,1.794-3.886A23.46,23.46,0,0,1,19.733,5.528a23.377,23.377,0,0,1,15.534,0,23.423,23.423,0,0,1,12.4,10.319A22.873,22.873,0,0,1,49.472,19.733Z" style="fill:#fff"/><path d="M35.267,5.528V49.466a23.278,23.278,0,0,1-15.534,0V5.528a23.377,23.377,0,0,1,15.534,0Z" style="fill:#db171d"/><path d="M50.8,27.5a23.333,23.333,0,0,1-1.328,7.767H5.534a23.278,23.278,0,0,1,0-15.534H49.472A23.289,23.289,0,0,1,50.8,27.5Z" style="fill:#062a85"/><polygon points="17.124 25.617 17.589 27.055 19.095 27.055 17.877 27.939 18.342 29.378 17.124 28.488 15.9 29.378 16.37 27.939 15.147 27.055 16.658 27.055 17.124 25.617" style="fill:#fff"/><polygon points="37.882 25.617 38.347 27.055 39.859 27.055 38.635 27.939 39.101 29.378 37.882 28.488 36.663 29.378 37.129 27.939 35.905 27.055 37.416 27.055 37.882 25.617" style="fill:#fff"/><polygon points="23.787 20.445 24.252 21.878 25.764 21.878 24.54 22.767 25.005 24.2 23.787 23.311 22.568 24.2 23.034 22.767 21.81 21.878 23.321 21.878 23.787 20.445" style="fill:#fff"/><polygon points="31.219 20.445 31.684 21.878 33.191 21.878 31.972 22.767 32.437 24.2 31.219 23.311 29.995 24.2 30.46 22.767 29.242 21.878 30.753 21.878 31.219 20.445" style="fill:#fff"/><polygon points="23.787 30.795 24.252 32.228 25.764 32.228 24.54 33.117 25.005 34.55 23.787 33.666 22.568 34.55 23.034 33.117 21.81 32.228 23.321 32.228 23.787 30.795" style="fill:#fff"/><polygon points="31.219 30.795 31.684 32.228 33.191 32.228 31.972 33.117 32.437 34.55 31.219 33.666 29.995 34.55 30.46 33.117 29.242 32.228 30.753 32.228 31.219 30.795" style="fill:#fff"/></svg>