<svg xmlns="http://www.w3.org/2000/svg" xmlns:xlink="http://www.w3.org/1999/xlink" viewBox="0 0 55 55">
    <clipPath id="globalClipPath">
        <circle cx="27.5" cy="27.5" r="23.3" fill="none"/>
    </clipPath>
    <g clip-path="url(#globalClipPath)">
        <path fill="#214097" d="M-7.5 4.2h70v46.6h-70V4.2z"/>
        <g fill="#fff">
            <path d="M12.1 26.8l1.1 3.2 3.2-1.2-1.9 2.9 2.9 1.7-3.4.3.5 3.4-2.4-2.5-2.3 2.5.4-3.4-3.4-.3 3-1.7-1.9-2.9 3.2 1.2zM40.4 42.6l.5 1.6 1.5-.6-.9 1.4 1.4.8-1.6.1.2 1.7-1.1-1.2-1.1 1.2.2-1.7-1.6-.1 1.4-.8-.9-1.4 1.5.6zM31.3 28.3l.5 1.5 1.6-.5-.9 1.3 1.4.8-1.7.2.3 1.6-1.2-1.2-1.1 1.2.2-1.6-1.6-.2 1.4-.8-.9-1.3 1.5.5zM40.4 18.5l.5 1.5 1.5-.6-.9 1.4 1.4.8-1.6.2.2 1.6-1.1-1.2-1.1 1.2.2-1.6-1.6-.2 1.4-.8-.9-1.4 1.5.6zM48.5 25.9l.5 1.5 1.5-.6-.9 1.4 1.4.8-1.6.2.2 1.6-1.1-1.2-1.2 1.2.3-1.6-1.7-.2 1.5-.8-1-1.4 1.6.6zM44 33.1l.4 1 1.1.1-.8.7.2 1-.9-.6-.8.6.2-1-.8-.7 1-.1zM9.1 5h6v6h15.1v6h-15v6h-6v-6H-6v-6H9.1V5z"/>
            <path d="M-6 5h4.1l32.2 16.1v2h-4.1L-6 7V5z"/>
            <path d="M30.3 5h-4.1L-6 21.1v2h4.1L30.3 7V5z"/>
        </g>
        <g fill="red">
            <path d="M10.3 5H14v7.3h16.3v3.6H14v7.3h-3.6v-7.3H-6v-3.6h16.3V5z"/>
            <path d="M-6 5l12.1 6H3.4L-6 6.4V5zm36.3 0h-2.7l-12.1 6h2.7l12.1-6zM30.3 23.1l-12.1-6h2.7l9.4 4.7v1.3zm-36.3 0h2.7l12.1-6H6.1l-12.1 6z"/>
        </g>
    </g>
</svg>
