<svg xmlns="http://www.w3.org/2000/svg" viewBox="0 0 55 55"><path d="M50.8,27.5a23.192,23.192,0,0,1-1.334,7.772H5.534A23.3,23.3,0,1,1,50.8,27.5Z" style="fill:#4289db"/><path d="M46.867,40.439a22.534,22.534,0,0,1-2.014,2.589H10.141a23.214,23.214,0,0,1-2.013-2.589Z" style="fill:#f8d523"/><path d="M44.853,43.028a23.265,23.265,0,0,1-34.712,0Z" style="fill:#4289db"/><path d="M48.368,37.856c-.22.439-.45.873-.7,1.3-.257.439-.523.868-.806,1.286H8.128c-.283-.418-.549-.847-.806-1.286-.24-.424-.476-.858-.69-1.3Z" style="fill:#4289db"/><path d="M49.466,35.272a22.116,22.116,0,0,1-1.1,2.584H6.632a22.116,22.116,0,0,1-1.1-2.584Z" style="fill:#f8d523"/><polygon points="17.6 16.36 11.752 14.535 17.6 12.704 19.431 6.857 21.255 12.704 27.103 14.535 21.255 16.36 19.431 22.207 17.6 16.36" style="fill:#fff"/><polygon points="19.431 8.598 20.843 13.123 25.366 14.535 20.843 15.947 19.431 20.471 18.013 15.947 13.494 14.535 18.013 13.123 19.431 8.598" style="fill:#d11133"/></svg>