<svg xmlns="http://www.w3.org/2000/svg" viewBox="0 0 55 55"><path d="M49.467,19.732H5.533a23.3,23.3,0,0,1,43.934,0Z" style="fill:#06b8e3"/><path d="M49.467,35.268a23.3,23.3,0,0,1-43.934,0Z" style="fill:#3d9b37"/><path d="M50.8,27.5a23.164,23.164,0,0,1-1.333,7.768H5.533a23.3,23.3,0,0,1,0-15.536H49.467A23.164,23.164,0,0,1,50.8,27.5Z" style="fill:#ec2938"/><path d="M26.664,33.313A5.813,5.813,0,1,1,30.877,23.5a6.989,6.989,0,1,0,0,8.008A5.8,5.8,0,0,1,26.664,33.313Z" style="fill:#fff"/><polygon points="32.916 23.574 33.669 25.686 35.692 24.724 34.73 26.747 36.842 27.5 34.73 28.253 35.692 30.276 33.669 29.314 32.916 31.426 32.163 29.314 30.14 30.276 31.102 28.253 28.99 27.5 31.102 26.747 30.14 24.724 32.163 25.686 32.916 23.574" style="fill:#fff"/></svg>