<svg xmlns="http://www.w3.org/2000/svg" viewBox="0 0 55 55"><path d="M50.8,27.5A23.371,23.371,0,0,1,36.926,48.8a22.608,22.608,0,0,1-3.6,1.255A23.292,23.292,0,0,1,4.2,27.5a22.934,22.934,0,0,1,.183-2.892c.026-.215.052-.424.089-.633A21.322,21.322,0,0,1,4.99,21.5c.151-.586.329-1.156.528-1.72A23.013,23.013,0,0,1,6.783,16.85l.042-.125.011.031A23.283,23.283,0,0,1,27.3,4.205h.4A23.329,23.329,0,0,1,50.8,27.5Z" style="fill:#062493"/><path d="M44.373,11.453V43.541a23.2,23.2,0,0,1-3.933,3.321L8.148,14.539A23.3,23.3,0,0,1,27.3,4.205c.068,0,.136,0,.2,0s.136,0,.2,0A23.209,23.209,0,0,1,44.373,11.453Z" style="fill:#fdca16"/><path d="M36.926,48.8a22.608,22.608,0,0,1-3.6,1.255L31.77,48.928h3.211l.993-3.054Z" style="fill:#fff"/><polygon points="30.149 40.043 31.137 43.097 34.353 43.097 31.754 44.985 32.748 48.044 30.149 46.156 27.55 48.044 28.538 44.985 25.939 43.097 29.155 43.097 30.149 40.043" style="fill:#fff"/><polygon points="24.318 34.212 25.311 37.266 28.522 37.266 25.923 39.159 26.917 42.213 24.318 40.325 21.719 42.213 22.712 39.159 20.114 37.266 23.324 37.266 24.318 34.212" style="fill:#fff"/><polygon points="18.487 28.381 19.481 31.44 22.691 31.44 20.092 33.328 21.086 36.382 18.487 34.494 15.888 36.382 16.882 33.328 14.282 31.44 17.493 31.44 18.487 28.381" style="fill:#fff"/><polygon points="12.656 22.556 13.65 25.61 16.861 25.61 14.262 27.497 15.255 30.551 12.656 28.664 10.057 30.551 11.051 27.497 8.452 25.61 11.662 25.61 12.656 22.556" style="fill:#fff"/><path d="M8.431,21.667l.993,3.054-2.6-1.888L4.383,24.611c.026-.215.052-.424.089-.633l.748-2.311L4.99,21.5c.151-.586.329-1.156.528-1.72h.314l.951-2.929.042-.125.011.031.983,3.023H11.03Z" style="fill:#fff"/></svg>