<svg xmlns="http://www.w3.org/2000/svg" xmlns:xlink="http://www.w3.org/1999/xlink" viewBox="0 0 55 55">

    <g style="fill:#fff">
        <path d="M48.928,36.653a23.254,23.254,0,0,1-3.28,5.444l-8.76-5.256a13.239,13.239,0,0,1-18.776-.005h0L9.346,42.092a23.444,23.444,0,0,1-3.274-5.445l8.771-5.261a13.325,13.325,0,0,1,0-7.777L6.072,18.347a23.121,23.121,0,0,1,3.28-5.439l8.76,5.256a13.241,13.241,0,0,1,18.771,0h0l8.76-5.256a23.121,23.121,0,0,1,3.28,5.439l-8.771,5.262a13.325,13.325,0,0,1,0,7.777Z"
        />
        <path d="M48.928,36.653a23.254,23.254,0,0,1-3.28,5.444l-8.76-5.256L27.5,31.2l-3.185-1.909-.042-.026L21.323,27.5l-6.48-3.891L6.072,18.347a23.121,23.121,0,0,1,3.28-5.439l8.76,5.256,6.658,3.991.026.016,0,0,2.7,1.616L33.671,27.5l6.486,3.886Z"
        />
        <path d="M48.928,18.347l-8.771,5.262L33.671,27.5l-2.949,1.768-.037.026h0L27.5,31.2l-9.388,5.633h0L9.346,42.092a23.444,23.444,0,0,1-3.274-5.445l8.771-5.261,6.48-3.886L27.5,23.792l2.693-1.616.032-.021h0l6.653-3.991h0l8.76-5.256A23.121,23.121,0,0,1,48.928,18.347Z"
        />
        <path d="M40.737,27.5a13.24,13.24,0,0,1-22.625,9.336h0A13.24,13.24,0,0,1,36.883,18.164h0A13.193,13.193,0,0,1,40.737,27.5Z"
        />
    </g>


    <g style="fill:#19b43d">
        <path d="M50.8,27.5a23.134,23.134,0,0,1-1.872,9.153l-8.771-5.267a13.325,13.325,0,0,0,0-7.777l8.771-5.262A23.221,23.221,0,0,1,50.8,27.5Z"
        />
        <path d="M14.263,27.5a13.029,13.029,0,0,0,.58,3.886L6.072,36.647a23.3,23.3,0,0,1,0-18.3l8.771,5.262A13.086,13.086,0,0,0,14.263,27.5Z"
        />
        <polygon
                points="20.67 32.437 18.844 32.437 19.759 30.852 18.844 29.268 20.67 29.268 21.585 27.688 22.5 29.268 24.325 29.268 23.411 30.852 24.325 32.437 22.5 32.437 21.585 34.017 20.67 32.437"
        />
        <polygon
                points="32.5 32.437 30.669 32.437 31.585 30.852 30.669 29.268 32.5 29.268 33.41 27.688 34.325 29.268 36.151 29.268 35.241 30.852 36.151 32.437 34.325 32.437 33.41 34.017 32.5 32.437"
        />
        <polygon
                points="26.585 22.176 24.759 22.176 25.669 20.591 24.759 19.012 26.585 19.012 27.5 17.427 28.41 19.012 30.241 19.012 29.325 20.591 30.241 22.176 28.41 22.176 27.5 23.755 26.585 22.176"
        />
    </g>

    <g style="fill:#cd1225"
    >
        <polygon
                points="21.585 28.394 22.296 29.623 23.713 29.623 23.002 30.852 23.713 32.082 22.296 32.082 21.585 33.311 20.873 32.082 19.456 32.082 20.168 30.852 19.456 29.623 20.873 29.623 21.585 28.394"
        />

        <path d="M45.648,42.1a23.275,23.275,0,0,1-36.3-.005l8.766-5.256h0a13.239,13.239,0,0,0,18.776.005Z"
        />

        <path d="M45.648,12.908l-8.76,5.256h0a13.241,13.241,0,0,0-18.771,0l-8.76-5.256a23.265,23.265,0,0,1,36.3,0Z"
        />

        <polygon
                points="33.41 28.394 34.121 29.623 35.539 29.623 34.833 30.852 35.539 32.082 34.121 32.082 33.41 33.311 32.704 32.082 31.281 32.082 31.993 30.852 31.281 29.623 32.704 29.623 33.41 28.394"
        />

        <polygon points="27.5 18.133 28.206 19.362 29.629 19.362 28.917 20.591 29.629 21.82 28.206 21.82 27.5 23.049 26.789 21.82 25.371 21.82 26.078 20.591 25.371 19.362 26.789 19.362 27.5 18.133"
        />

    </g>
</svg>
