<svg xmlns="http://www.w3.org/2000/svg" xmlns:xlink="http://www.w3.org/1999/xlink" viewBox="0 0 55 55">
    <clipPath id="globalClipPath">
        <circle cx="27.5" cy="27.5" r="23.3" fill="none"/>
    </clipPath>
    <g clip-path="url(#globalClipPath)">
        <rect x="-15.612" y="3.545" width="86.233" height="47.911" style="fill:#ce202c"/>
        <path d="M48.128,24.5v9.224c0,2.464-5.385,3.264-5.385,3.264s-5.386-.8-5.386-3.264V24.5Z" style="fill:#fff"/>
        <path d="M48.128,33.728c0,2.464-5.385,3.264-5.385,3.264s-5.386-.8-5.386-3.264a.512.512,0,0,1,.109-.312.867.867,0,0,0,.285.72.875.875,0,0,1-.006-.867,1,1,0,0,0,.279.871,1.222,1.222,0,0,1,.027-.956s-.116.824.294.989a1.313,1.313,0,0,0-.051-.778s.282.1.267.791c0,0,.09-.1.113-.6,0,0,.012.566.226.7,0,0,.065-.057-.024-.314s.039-.348.059-.342a.566.566,0,0,0,.214.5s-.113-.446.045-.507c0,0-.033.378.293.463a.353.353,0,0,0-.047-.233.387.387,0,0,1-.015-.258s.1.343.247.4a.571.571,0,0,1-.006-.4.493.493,0,0,0,.3.4.555.555,0,0,1-.111-.463l1.794.08.929.041,2.787-.18.481-.378s.19.241-.11.621a.551.551,0,0,0,.392-.473.518.518,0,0,1-.045.5,1.292,1.292,0,0,0,.377-.643.7.7,0,0,1-.184.687.68.68,0,0,0,.4-.463s.095.228-.175.549a.883.883,0,0,0,.489-.751.587.587,0,0,1-.029.662.838.838,0,0,0,.282-.525s.142.142-.012.533a1.179,1.179,0,0,0,.362-.564.765.765,0,0,1-.2.614s.184-.042.359-.375c0,0,.048.131-.113.372,0,0,.172-.027.288-.329a.945.945,0,0,1-.03.343s.134-.08.164-.422a.521.521,0,0,1,.076.252C48.13,33.82,48.128,33.728,48.128,33.728Z"
              style="fill:#318f44"/>
        <path d="M45.355,28.4a1.112,1.112,0,0,1-.427-.038.507.507,0,0,0-.413,0s.1-.177-.14-.316c0,0,.078.178-.029.261,0,0-.048.041-.1-.02a1.721,1.721,0,0,0-.171-.139s.2-.064.165-.251a.27.27,0,0,0-.206-.236.3.3,0,0,1,0,.142s-.22-.112.078-.27.244-.252.19-.333a.76.76,0,0,0-.224-.2.264.264,0,0,1,.049.157c-.01.073-.145.119-.119-.008s0-.1,0-.241a.305.305,0,0,0,.37-.155s.1-.245-.233-.366c0,0,.081.1.041.175,0,0-.071.123-.156.023s-.138-.119-.129-.237c0,0,.3.039.221-.264,0,0-.049.2-.443-.07,0,0,.256-.24.157-.435,0,0-.031-.089-.31-.037,0,0,.242-.139.139-.258,0,0-.052-.08-.277.024,0,0,.087-.138-.134-.287a1.374,1.374,0,0,0-.227.137,2.066,2.066,0,0,0-.248-.245.365.365,0,0,0-.219.245.535.535,0,0,0-.267-.13.249.249,0,0,0,.026.282.812.812,0,0,1-.243-.066s-.18-.078-.153.063a.641.641,0,0,0,.076.238s-.4-.086-.386.114a.489.489,0,0,0,.193.357s-.226.269-.419.067c0,0-.066.065.078.238,0,0,.144.145.025.237,0,0-.159.116-.236-.11a.241.241,0,0,0,.046.413.374.374,0,0,0,.393-.054s-.061.449-.251.362c0,0-.114-.076.091-.168,0,0-.3-.034-.343.227a.261.261,0,0,0,.221.283s.2.066-.007.207a.183.183,0,0,0-.051.252s.115.166-.175.182a1.087,1.087,0,0,1-.214-.02.3.3,0,0,0-.019.231s-.144-.1-.472.01-.3.032-.329.065-.091.144-.091.144.172.191.175.187-.032.219-.032.219l.084.037.676-.275.685-.327.551.031.35.076.459.031.329-.161H43.8l.524.239.6.326.312.05.24-.011v-.443Z"
              style="fill:#d21f26;stroke:#000;stroke-linejoin:round;stroke-width:0.050000000745058px"/>
        <path d="M39.917,28.914s.261.121.37-.026c0,0,.142-.249-.171-.335a.251.251,0,0,0-.012-.359.242.242,0,0,0-.262-.025.26.26,0,0,0-.232-.127.206.206,0,0,0-.191.141s-.2-.074-.3.033a.2.2,0,0,0,.071.331l.181.015.178-.076.2.052A.389.389,0,0,0,39.917,28.914Z"
              style="fill:#d21f26;stroke:#000;stroke-linejoin:round;stroke-width:0.050000000745058px"/>
        <path d="M45.747,28.477a.4.4,0,0,1,.24.758.738.738,0,0,1,.03.183.466.466,0,0,1,.406.562l-.163-.124c-.285-.1-.579.121-.789.493s-.11.547-.075.988.82.7.82.7-.371.874-.612,1.435a.543.543,0,0,1-.887.21c-.146-.118-.182-.053-.255,0s.329.34-.4.611a2.9,2.9,0,0,0-.982.547,1.2,1.2,0,0,1-.68-.036c-.051-.057-.021-.057-.211-.164s-.51-.2-.86-.356-.342-.355-.339-.4.122-.375-.288-.11a.6.6,0,0,1-.759-.126c-.081-.1-.422-.933-.422-.933a5,5,0,0,0-.273-.676c.009,0-.018.038.285-.121a1.2,1.2,0,0,0,.543-.684,1.4,1.4,0,0,0-.036-.8c-.038-.09-.264-.5-.543-.591a.462.462,0,0,0-.467.129.466.466,0,0,1,.407-.562.738.738,0,0,1,.03-.183.4.4,0,0,1,.24-.758l-.076.131s-.079.723,1.077.238,1.122-.574,1.781-.271l.481-.008s.694-.294.917-.167,1.024.537,1.024.537.774.265.926-.225Z"
              style="fill:#64b3d0;stroke:#000;stroke-width:0.050000000745058px"/>
        <path d="M42.267,31.609s-.04-.221-.083-.365a.4.4,0,0,1,.061-.384l.182-.191a.461.461,0,0,1,.252-.157s.14,0,.153-.03.166-.256.53,0a.506.506,0,0,1,.294-.2.28.28,0,0,1,.285.078.288.288,0,0,1,.4.092.349.349,0,0,1,.444.13.329.329,0,0,1,.409.128c.156.242.125.34.125.34l.115.383.41.463-.953.328h-.427l-.855.21-1.518.106-.423-.455Z"
              style="fill:#fff;stroke:#273376;stroke-miterlimit:10;stroke-width:0.050000000745058px"/>
        <path d="M40.984,33.917a1.245,1.245,0,0,0-.343.065c-.116.054-.2.111-.338.189,0,0-.063.076-.325.03,0,0-.454-.1-.454.225,0,0-.544.041-.321.476a.28.28,0,0,0,.463.1s-.2.263.187.366a.3.3,0,0,0,.356-.2.229.229,0,0,0-.062-.23.4.4,0,0,0,.227-.156s-.285.329.027.448c0,0,.391.09.413-.284a.215.215,0,0,1,.12-.234.7.7,0,0,0,.455-.384S40.94,34.111,40.984,33.917Z"
              style="fill:#d21f26;stroke:#000;stroke-linejoin:round;stroke-width:0.050000000745058px"/>
        <path d="M40.067,30.642s-.35-.147-.517,0a.522.522,0,0,0-.475,0,2.584,2.584,0,0,0-.391.291s-.113.088-.071.367a.636.636,0,0,1,.023.294s-.077-.014-.231.154c0,0-.2.207-.368.024a.307.307,0,0,0,.377.214s-.158.112-.021.4a.5.5,0,0,1-.059.463.428.428,0,0,0,.27-.408.665.665,0,0,1,.059-.351s-.083.132.11.414a.4.4,0,0,1,.026.413.388.388,0,0,0,.253-.4c-.027-.31-.2-.181-.086-.466a.445.445,0,0,0,.109.22.393.393,0,0,1,.146.4.524.524,0,0,0,.128-.384.747.747,0,0,0-.081-.253l.526-.272.261-.432Z"
              style="fill:#d21f26;stroke:#000;stroke-linejoin:round;stroke-width:0.050000000745058px"/>
        <path d="M39.269,31.863s-.217-.014-.253-.168"
              style="fill:none;stroke:#000;stroke-miterlimit:10;stroke-width:0.050000000745058px"/>
        <path d="M38.636,31.594a.224.224,0,0,1,.144.06.153.153,0,0,0,.126.063"
              style="fill:none;stroke:#000;stroke-miterlimit:10;stroke-width:0.050000000745058px"/>
        <path d="M39.589,31.28a.33.33,0,0,1-.175-.05.073.073,0,0,0-.1.025.087.087,0,0,0,.05.134s.137.063-.08.189c0,0,.258-.085.155-.2,0,0-.113-.074-.072-.1,0,0,.012-.022.057,0A.211.211,0,0,0,39.589,31.28Z"/>
        <polygon points="43.129 31.802 42.261 29.062 42.229 29.07 42.996 31.843 43.129 31.802"
                 style="fill:#794622;stroke:#000;stroke-width:0.050000000745058px"/>
        <path d="M40.107,34.877a.385.385,0,0,0-.374.018s.017-.068.146-.1a.268.268,0,0,1,.266-.165,1.226,1.226,0,0,1-.187.162S40.071,34.8,40.107,34.877Z"/>
        <path d="M39.386,35.312a.366.366,0,0,1-.15-.5.149.149,0,0,1,.15-.072s.2.057.044.314A.432.432,0,0,0,39.386,35.312Z"
              style="fill:#64b3d0;stroke:#273376;stroke-miterlimit:2.613;stroke-width:0.050000000745058px"/>
        <path d="M40.044,35.608s-.463-.193-.32-.521c0,0,.044-.111.146-.1,0,0,.179.008.143.226A.684.684,0,0,0,40.044,35.608Z"
              style="fill:#64b3d0;stroke:#273376;stroke-miterlimit:2.613;stroke-width:0.050000000745058px"/>
        <path d="M39.946,34.382a1.407,1.407,0,0,0-.2.157.533.533,0,0,0-.131-.1.216.216,0,0,1,.131.025A.387.387,0,0,1,39.946,34.382Z"/>
        <path d="M40.358,35.526a.373.373,0,0,0,.3-.427.169.169,0,0,0-.189-.129s-.185.043-.064.261A.294.294,0,0,1,40.358,35.526Z"
              style="fill:#64b3d0;stroke:#273376;stroke-miterlimit:2.613;stroke-width:0.050000000745058px"/>
        <path d="M42,28.274s.234.065.361.113a1.2,1.2,0,0,0,.768,0s.291-.106.329-.113l-.222.31-.011.16.139.186s-.084.031-.333-.108a.572.572,0,0,0-.6,0,.754.754,0,0,1-.332.108l.214-.218-.083-.2Z"
              style="fill:#f4ce10;stroke:#000;stroke-miterlimit:2.613;stroke-width:0.050000000745058px"/>
        <path d="M40.5,35.116s.014-.016,0-.023c0,0-.015-.006-.027.014a.142.142,0,0,0-.005.13.154.154,0,0,1,.015.106s0,.016.012.018a.024.024,0,0,0,.015-.016.136.136,0,0,0-.013-.1S40.455,35.16,40.5,35.116Z"
              style="fill:#fff"/>
        <path d="M45.524,28.914s-.261.121-.37-.026c0,0-.143-.249.17-.335a.252.252,0,0,1,.012-.359.244.244,0,0,1,.263-.025.26.26,0,0,1,.232-.127.206.206,0,0,1,.191.141s.2-.074.3.033a.2.2,0,0,1-.071.331l-.181.015-.178-.076-.2.052A.389.389,0,0,1,45.524,28.914Z"
              style="fill:#d21f26;stroke:#000;stroke-linejoin:round;stroke-width:0.050000000745058px"/>
        <path d="M43.456,28.72a.067.067,0,0,1-.061.055.076.076,0,0,1-.088-.047l0-.021a.179.179,0,0,1,.086-.185s.164-.123.479.026c0,0,.249.11.421.2,0,0,.445.219.5.235a1.419,1.419,0,0,0,.5.1.706.706,0,0,0,.583-.235s.132-.2,0-.327a.173.173,0,0,0-.141-.047.183.183,0,0,0-.117.062.109.109,0,0,0,.01.148.086.086,0,0,0,.131-.06s0-.009,0,0a.214.214,0,0,1-.027.167s-.247.342-.927-.012l-.9-.46a.625.625,0,0,0-.719.119.3.3,0,0,0,.063.453.263.263,0,0,0,.338-.067s.108-.178-.062-.256a.158.158,0,0,0-.21.073c-.059.137.116.172.133.075C43.447,28.722,43.451,28.7,43.456,28.72Z"
              style="fill:#f4ce10;stroke:#000;stroke-miterlimit:2.613;stroke-width:0.050000000745058px"/>
        <path d="M39.9,30.131v-.513a.126.126,0,0,1,.067-.123c.066-.049.138-.127.24.094a1.924,1.924,0,0,1,.267-.221.127.127,0,0,1,.2.041.7.7,0,0,1,.191-.185s.2-.119.21.238l.156-.131a.2.2,0,0,1,.253.033,2.378,2.378,0,0,1,.258.258.289.289,0,0,1,.054.161.276.276,0,0,0,.062.172.385.385,0,0,0,.14.07.257.257,0,0,1,.221.143s.026-.024.107.645v1.219l-.9.981-1.442-.377-.574-.218-.129-.386.556-.328.3-.747-.1-.526Z"
              style="fill:#e2ca5e;stroke:#000;stroke-miterlimit:2.613;stroke-width:0.050000000745058px"/>
        <path d="M43.877,30.779l.068-.093.163-.115a5.973,5.973,0,0,1,.262.729v.185a.659.659,0,0,1,.439.613l-.309.52-.484-.246-.139-.094v-1.5Z"
              style="fill:#794622;stroke:#000;stroke-width:0.050000000745058px"/>
        <path d="M39.3,34.887s.018-.022.006-.031-.008-.011-.029.014a.221.221,0,0,0-.02.255s.009.022.024.015c0,0,.014-.006,0-.025A.209.209,0,0,1,39.3,34.887Z"
              style="fill:#fff"/>
        <path d="M40.754,34.786a.113.113,0,0,0-.021-.1.119.119,0,0,1-.015-.082"
              style="fill:none;stroke:#000;stroke-miterlimit:10;stroke-width:0.050000000745058px"/>
        <path d="M41.074,29.462a.689.689,0,0,0,.041.223c.04.094.176.258.184.346"
              style="fill:none;stroke:#000;stroke-miterlimit:10;stroke-width:0.050000000745058px"/>
        <path d="M44.466,33.917a1.245,1.245,0,0,1,.343.065c.116.054.205.111.338.189,0,0,.062.076.325.03,0,0,.454-.1.454.225,0,0,.543.041.321.476a.28.28,0,0,1-.463.1s.2.263-.187.366a.3.3,0,0,1-.356-.2.229.229,0,0,1,.062-.23.4.4,0,0,1-.227-.156s.285.329-.027.448c0,0-.391.09-.414-.284a.214.214,0,0,0-.12-.234.7.7,0,0,1-.454-.384S44.51,34.111,44.466,33.917Z"
              style="fill:#d21f26;stroke:#000;stroke-linejoin:round;stroke-width:0.050000000745058px"/>
        <line x1="40.895" y1="30.031" x2="41.265" y2="32.766"
              style="fill:none;stroke:#000;stroke-miterlimit:10;stroke-width:0.050000000745058px"/>
        <line x1="40.98" y1="30.025" x2="41.396" y2="32.574"
              style="fill:none;stroke:#000;stroke-miterlimit:10;stroke-width:0.050000000745058px"/>
        <line x1="41.058" y1="30.013" x2="41.537" y2="32.541"
              style="fill:none;stroke:#000;stroke-miterlimit:10;stroke-width:0.050000000745058px"/>
        <polygon points="41.948 32.283 41.08 29.542 41.048 29.55 41.815 32.324 41.948 32.283"
                 style="fill:#794622;stroke:#000;stroke-width:0.050000000745058px"/>
        <line x1="41.324" y1="29.913" x2="42.2" y2="31.938"
              style="fill:none;stroke:#000;stroke-miterlimit:10;stroke-width:0.050000000745058px"/>
        <line x1="41.265" y1="29.945" x2="42.111" y2="32.061"
              style="fill:none;stroke:#000;stroke-miterlimit:10;stroke-width:0.050000000745058px"/>
        <path d="M39.877,35.414a.307.307,0,0,1-.088-.249s.006-.034-.013-.039c0,0-.019-.008-.022.032a.292.292,0,0,0,.094.263.026.026,0,0,0,.023.006S39.885,35.424,39.877,35.414Z"
              style="fill:#fff"/>
        <line x1="41.363" y1="29.885" x2="42.267" y2="31.733"
              style="fill:none;stroke:#000;stroke-miterlimit:10;stroke-width:0.050000000745058px"/>
        <line x1="41.116" y1="30" x2="41.67" y2="32.488"
              style="fill:none;stroke:#000;stroke-miterlimit:10;stroke-width:0.050000000745058px"/>
        <path d="M45.65,31.843a1.022,1.022,0,0,1-.483-.661,1.289,1.289,0,0,1,.1-.812,1.119,1.119,0,0,1,.7-.587,1.468,1.468,0,0,0-.55.64,1.509,1.509,0,0,0-.04.616,1.667,1.667,0,0,0,.116.464Z"
              style="fill:#f4ce10;stroke:#000;stroke-miterlimit:2.613;stroke-width:0.050000000745058px"/>
        <path d="M43.945,30.686l-1.663.48-.091.677a1.961,1.961,0,0,1-1.2.616l.624.608,1.2.23.63-.444.569-.481a2.562,2.562,0,0,1-.026-.639,1.9,1.9,0,0,1,.026-.215A4.989,4.989,0,0,1,43.945,30.686Z"
              style="fill:#794622;stroke:#000;stroke-width:0.050000000745058px"/>
        <path d="M42.214,31.673s1.095-.313,1.749-.564"
              style="fill:none;stroke:#000;stroke-miterlimit:10;stroke-width:0.050000000745058px"/>
        <path d="M41.688,32.244a9.249,9.249,0,0,0,2.328-.726l.354-.218"
              style="fill:none;stroke:#000;stroke-miterlimit:10;stroke-width:0.050000000745058px"/>
        <path d="M44.37,31.485l-.38.248a8.956,8.956,0,0,1-2.693.661"
              style="fill:none;stroke:#000;stroke-miterlimit:10;stroke-width:0.050000000745058px"/>
        <path d="M43.989,32.191a6.242,6.242,0,0,1-1.848.561"
              style="fill:none;stroke:#000;stroke-miterlimit:10;stroke-width:0.050000000745058px"/>
        <path d="M45.39,30.642s.351-.147.517,0a.522.522,0,0,1,.475,0,2.623,2.623,0,0,1,.392.291s.112.088.071.367a.632.632,0,0,0-.024.294s.077-.014.232.154c0,0,.2.207.368.024a.308.308,0,0,1-.377.214s.157.112.02.4a.5.5,0,0,0,.06.463.428.428,0,0,1-.27-.408.67.67,0,0,0-.06-.351s.083.132-.11.414a.4.4,0,0,0-.026.413.388.388,0,0,1-.253-.4c.027-.31.2-.181.087-.466a.451.451,0,0,1-.11.22.4.4,0,0,0-.146.4.52.52,0,0,1-.127-.384.737.737,0,0,1,.08-.253l-.525-.272-.262-.432Z"
              style="fill:#d21f26;stroke:#000;stroke-linejoin:round;stroke-width:0.050000000745058px"/>
        <path d="M39.44,32.373a.189.189,0,0,1,.272-.129.487.487,0,0,1,.48-.36.393.393,0,0,1,.428.386.377.377,0,0,1,.317-.141s.343-.019.215.484l.065.063a.719.719,0,0,1,.8-.414.357.357,0,0,1,.182.612s.259.308.479.279a.777.777,0,0,0,.634-.443.991.991,0,0,1,.855-.386.3.3,0,0,1,.252.18,1.1,1.1,0,0,1,1.235-.691l.387.178.147.062-.219.565-.534,1.1-.405.114-.423-.222-.146.072-.012.33-.558.367-.388.146-.427.267-.1.239a.8.8,0,0,0-.5,0l-.088-.2-.249-.217-.969-.418-.175-.516-.176-.072-.2.207-.29.031-.431-.267Z"
              style="fill:#fff;stroke:#273376;stroke-miterlimit:10;stroke-width:0.050000000745058px"/>
        <path d="M43.657,28.358s-.369-.015-.356.335"
              style="fill:none;stroke:#000;stroke-miterlimit:2.613;stroke-width:0.050000000745058px"/>
        <path d="M46.089,32.079a1.246,1.246,0,0,1-.819-.813,1.338,1.338,0,0,1,.08-.888.953.953,0,0,1,.791-.631.248.248,0,0,1,.279.189.17.17,0,0,1-.083.188.234.234,0,0,1-.278-.03.13.13,0,0,1-.016-.16.128.128,0,0,1,.127-.032.09.09,0,0,1,.06.095l0,0v0a.087.087,0,0,0-.084-.1s-.194-.039-.421.22a1.362,1.362,0,0,0-.3.8,1.088,1.088,0,0,0,.928,1.068,2.841,2.841,0,0,0-.289.634,6.693,6.693,0,0,1-.409.984.7.7,0,0,1-.858.291s-.352-.142-.352-.376a.2.2,0,0,1,.187-.23s.207-.014.2.148c0,0,.006.176-.22.136,0,0-.079-.016-.065-.087,0,0,.013-.063.108-.036h0l0,0a.122.122,0,0,0-.075,0,.064.064,0,0,0-.038.061.069.069,0,0,0,.044.062.305.305,0,0,0,.1.015.34.34,0,0,0,.2.148.506.506,0,0,0,.439-.068.785.785,0,0,0,.19-.239,6.2,6.2,0,0,0,.325-.771,4.829,4.829,0,0,1,.2-.5Z"
              style="fill:#f4ce10;stroke:#000;stroke-miterlimit:2.613;stroke-width:0.050000000745058px"/>
        <path d="M44.273,33.687s.121-.015.121.083c0,0-.008.143-.2.112a.164.164,0,0,1-.122-.23.2.2,0,0,1,.223-.116.3.3,0,0,1,.248.223.437.437,0,0,1-.041.337,1.129,1.129,0,0,1-.525.339,5.1,5.1,0,0,0-.7.306s-.247.168-.138.324a.148.148,0,0,0,.106.06.083.083,0,0,0,.085-.065v0l0,0a.073.073,0,0,1-.044.056.107.107,0,0,1-.108-.018.1.1,0,0,1-.01-.131.169.169,0,0,1,.214-.04.143.143,0,0,1,.078.187.218.218,0,0,1-.207.118.337.337,0,0,1-.2-.077.348.348,0,0,1-.02-.453.743.743,0,0,1,.3-.2c.116-.043.334-.13.561-.211a1.009,1.009,0,0,0,.4-.229.47.47,0,0,0,.109-.234s.023-.111-.051-.135a.178.178,0,0,0-.079-.01h0S44.269,33.687,44.273,33.687Z"
              style="fill:#f4ce10;stroke:#000;stroke-miterlimit:2.613;stroke-width:0.050000000745058px"/>
        <path d="M44.284,33.686a.218.218,0,0,1,.215.123.652.652,0,0,1,.057.146"
              style="fill:none;stroke:#000;stroke-miterlimit:2.613;stroke-width:0.050000000745058px"/>
        <path d="M44.6,33.439s-.133.021-.065.193a.453.453,0,0,0,.22.238"
              style="fill:none;stroke:#000;stroke-miterlimit:2.613;stroke-width:0.050000000745058px"/>
        <path d="M42,28.72a.066.066,0,0,0,.06.055.077.077,0,0,0,.089-.047l0-.021a.179.179,0,0,0-.086-.185s-.165-.123-.479.026c0,0-.249.109-.422.2,0,0-.445.218-.5.235a1.419,1.419,0,0,1-.5.1.706.706,0,0,1-.583-.235s-.132-.2,0-.327a.171.171,0,0,1,.141-.047.183.183,0,0,1,.117.062.109.109,0,0,1-.01.148.086.086,0,0,1-.131-.06s0-.009,0,0a.214.214,0,0,0,.027.167s.247.342.927-.012l.9-.46a.624.624,0,0,1,.718.119.3.3,0,0,1-.062.453.263.263,0,0,1-.338-.067s-.109-.178.062-.256a.157.157,0,0,1,.209.073c.06.136-.115.172-.132.075C42.006,28.722,42,28.7,42,28.72Z"
              style="fill:#f4ce10;stroke:#000;stroke-miterlimit:2.613;stroke-width:0.050000000745058px"/>
        <path d="M39.8,31.843a1.022,1.022,0,0,0,.483-.661,1.3,1.3,0,0,0-.1-.812,1.119,1.119,0,0,0-.7-.587,1.468,1.468,0,0,1,.55.64,1.53,1.53,0,0,1,.04.616,1.667,1.667,0,0,1-.116.464Z"
              style="fill:#f4ce10;stroke:#000;stroke-miterlimit:2.613;stroke-width:0.050000000745058px"/>
        <path d="M41.8,28.358s.37-.015.357.335"
              style="fill:none;stroke:#000;stroke-miterlimit:2.613;stroke-width:0.050000000745058px"/>
        <path d="M39.364,32.079a1.249,1.249,0,0,0,.819-.813,1.338,1.338,0,0,0-.08-.888.953.953,0,0,0-.791-.631.248.248,0,0,0-.279.189.169.169,0,0,0,.082.188.235.235,0,0,0,.279-.03.112.112,0,0,0-.112-.192.091.091,0,0,0-.059.095l0,0,0,0a.088.088,0,0,1,.085-.1s.194-.039.421.22a1.362,1.362,0,0,1,.3.8,1.088,1.088,0,0,1-.928,1.068,2.906,2.906,0,0,1,.289.634,6.693,6.693,0,0,0,.409.984.694.694,0,0,0,.858.291S41,33.75,41,33.516a.2.2,0,0,0-.187-.23s-.207-.014-.2.148c0,0-.006.176.22.136,0,0,.079-.016.064-.087,0,0-.012-.063-.108-.036h0l0,0a.125.125,0,0,1,.076,0,.064.064,0,0,1,.038.061.069.069,0,0,1-.045.062.3.3,0,0,1-.1.015.34.34,0,0,1-.2.148.506.506,0,0,1-.439-.068.777.777,0,0,1-.191-.239,6.263,6.263,0,0,1-.324-.771,4.829,4.829,0,0,0-.2-.5Z"
              style="fill:#f4ce10;stroke:#000;stroke-miterlimit:2.613;stroke-width:0.050000000745058px"/>
        <path d="M41.179,33.687s-.12-.015-.12.083c0,0,.007.143.2.112a.164.164,0,0,0,.122-.23.2.2,0,0,0-.223-.116.3.3,0,0,0-.248.223.437.437,0,0,0,.041.337,1.129,1.129,0,0,0,.525.339,5.1,5.1,0,0,1,.7.306s.247.168.138.324a.148.148,0,0,1-.106.06.082.082,0,0,1-.085-.065v0a.075.075,0,0,0,.045.056.107.107,0,0,0,.108-.018.1.1,0,0,0,.009-.131.168.168,0,0,0-.213-.04.143.143,0,0,0-.078.187.216.216,0,0,0,.207.118.333.333,0,0,0,.2-.077.347.347,0,0,0,.021-.453.753.753,0,0,0-.3-.2c-.116-.043-.334-.13-.561-.211a1,1,0,0,1-.4-.229.47.47,0,0,1-.109-.234s-.023-.111.051-.135a.176.176,0,0,1,.078-.01h0S41.183,33.687,41.179,33.687Z"
              style="fill:#f4ce10;stroke:#000;stroke-miterlimit:2.613;stroke-width:0.050000000745058px"/>
        <path d="M41.169,33.686a.219.219,0,0,0-.216.123.617.617,0,0,0-.056.146"
              style="fill:none;stroke:#000;stroke-miterlimit:2.613;stroke-width:0.050000000745058px"/>
        <path d="M40.853,33.439s.133.021.065.193a.457.457,0,0,1-.22.238"
              style="fill:none;stroke:#000;stroke-miterlimit:2.613;stroke-width:0.050000000745058px"/>
        <path d="M42.405,28.673a.667.667,0,0,1,.65.02"
              style="fill:none;stroke:#000;stroke-miterlimit:2.613;stroke-width:0.050000000745058px"/>
        <path d="M40.575,30.472s.045-.164-.16-.451c0,0-.134-.263-.2-.432"
              style="fill:none;stroke:#000;stroke-miterlimit:2.613;stroke-width:0.050000000745058px"/>
        <path d="M40.673,29.409s.116.258.156.374c0,0,.144.324.174.389"
              style="fill:none;stroke:#000;stroke-miterlimit:2.613;stroke-width:0.050000000745058px"/>
        <path d="M40.731,30.653a.429.429,0,0,1,.107.32"
              style="fill:none;stroke:#000;stroke-miterlimit:10;stroke-width:0.050000000745058px"/>
        <path d="M40.33,30.526s.134.058.125.383a.412.412,0,0,0,.187.356"
              style="fill:none;stroke:#000;stroke-miterlimit:10;stroke-width:0.050000000745058px"/>
        <path d="M40.312,31.348s.418-.042.441.194c0,0,.009.225.151.25,0,0,.214.019.256.2"
              style="fill:none;stroke:#000;stroke-miterlimit:10;stroke-width:0.050000000745058px"/>
        <path d="M40.444,31.609a.641.641,0,0,0,.144.144"
              style="fill:none;stroke:#000;stroke-miterlimit:10;stroke-width:0.050000000745058px"/>
        <path d="M40.98,31.361a.95.95,0,0,1,.126.233"
              style="fill:none;stroke:#000;stroke-miterlimit:10;stroke-width:0.050000000745058px"/>
        <path d="M41.44,29.589a.943.943,0,0,0,.193.18"
              style="fill:none;stroke:#000;stroke-miterlimit:10;stroke-width:0.050000000745058px"/>
        <path d="M41.832,30.311s.208.093.172.572a.918.918,0,0,0,.06.434"
              style="fill:none;stroke:#000;stroke-miterlimit:10;stroke-width:0.050000000745058px"/>
        <path d="M40.853,29.986l.014.045a.8.8,0,0,0,.573-.218l-.021-.044A.836.836,0,0,0,40.853,29.986Z"
              style="fill:#794622;stroke:#000;stroke-width:0.050000000745058px"/>
        <path d="M42.2,31.813s1.288-.351,1.785-.556"
              style="fill:none;stroke:#000;stroke-miterlimit:10;stroke-width:0.050000000745058px"/>
        <polygon points="42.042 29.602 42.679 29.38 42.694 29.419 42.057 29.64 42.042 29.602"
                 style="fill:#794622;stroke:#000;stroke-width:0.050000000745058px"/>
        <line x1="42.111" y1="29.622" x2="42.534" y2="31.518"
              style="fill:none;stroke:#000;stroke-miterlimit:10;stroke-width:0.050000000745058px"/>
        <line x1="42.184" y1="29.596" x2="42.669" y2="31.484"
              style="fill:none;stroke:#000;stroke-miterlimit:10;stroke-width:0.050000000745058px"/>
        <line x1="42.267" y1="29.568" x2="42.797" y2="31.441"
              style="fill:none;stroke:#000;stroke-miterlimit:10;stroke-width:0.050000000745058px"/>
        <line x1="42.475" y1="29.495" x2="43.197" y2="30.902"
              style="fill:none;stroke:#000;stroke-miterlimit:10;stroke-width:0.050000000745058px"/>
        <line x1="42.57" y1="29.462" x2="43.34" y2="30.86"
              style="fill:none;stroke:#000;stroke-miterlimit:10;stroke-width:0.050000000745058px"/>
        <line x1="42.641" y1="29.438" x2="43.474" y2="30.822"
              style="fill:none;stroke:#000;stroke-miterlimit:10;stroke-width:0.050000000745058px"/>
        <line x1="42.505" y1="31.533" x2="42.832" y2="31.434"
              style="fill:none;stroke:#000;stroke-miterlimit:10;stroke-width:0.050000000745058px"/>
        <path d="M42.258,31.345s.958-.256,1.683-.523"
              style="fill:none;stroke:#000;stroke-miterlimit:10;stroke-width:0.050000000745058px"/>
        <path d="M42.245,31.441a14.909,14.909,0,0,0,1.7-.508"
              style="fill:none;stroke:#000;stroke-miterlimit:10;stroke-width:0.050000000745058px"/>
        <polyline points="42.616 32.344 42.679 32.522 42.853 32.471 42.794 32.295"
                  style="fill:none;stroke:#000;stroke-miterlimit:10;stroke-width:0.050000000745058px"/>
        <polyline points="43.106 32.216 43.17 32.394 43.343 32.344 43.284 32.167"
                  style="fill:none;stroke:#000;stroke-miterlimit:10;stroke-width:0.050000000745058px"/>
        <polyline points="42.282 31.166 42.267 30.925 43.859 30.483 43.945 30.686"
                  style="fill:none;stroke:#000;stroke-miterlimit:10;stroke-width:0.050000000745058px"/>
        <line x1="42.942" y1="30.738" x2="43.029" y2="30.95"
              style="fill:none;stroke:#000;stroke-miterlimit:10;stroke-width:0.050000000745058px"/>
        <line x1="43.499" y1="30.583" x2="43.6" y2="30.785"
              style="fill:none;stroke:#000;stroke-miterlimit:10;stroke-width:0.050000000745058px"/>
        <line x1="43.631" y1="30.546" x2="43.726" y2="30.738"
              style="fill:none;stroke:#000;stroke-miterlimit:10;stroke-width:0.050000000745058px"/>
        <line x1="43.757" y1="30.512" x2="43.857" y2="30.711"
              style="fill:none;stroke:#000;stroke-miterlimit:10;stroke-width:0.050000000745058px"/>
        <polyline points="43.859 30.483 44.034 30.393 44.108 30.571"
                  style="fill:none;stroke:#000;stroke-miterlimit:10;stroke-width:0.050000000745058px"/>
        <line x1="43.945" y1="30.439" x2="44.034" y2="30.623"
              style="fill:none;stroke:#000;stroke-miterlimit:10;stroke-width:0.050000000745058px"/>
        <path d="M40,33.211a.376.376,0,0,1,0-.572s-.338-.151-.285-.4"
              style="fill:none;stroke:#273376;stroke-miterlimit:10;stroke-width:0.050000000745058px"/>
        <path d="M40.553,33.439s-.323.04-.227-.534a3.445,3.445,0,0,0-.18.345.252.252,0,0,0,.125.3c.055.031.344.1.438-.076"
              style="fill:none;stroke:#273376;stroke-miterlimit:10;stroke-width:0.050000000745058px"/>
        <path d="M40.192,32.56a.259.259,0,0,0-.038.314"
              style="fill:none;stroke:#273376;stroke-miterlimit:10;stroke-width:0.050000000745058px"/>
        <path d="M40.328,32.586a.582.582,0,0,0,.122.308"
              style="fill:none;stroke:#273376;stroke-miterlimit:10;stroke-width:0.050000000745058px"/>
        <path d="M40.42,32.509a.513.513,0,0,0,.182.375"
              style="fill:none;stroke:#273376;stroke-miterlimit:10;stroke-width:0.050000000745058px"/>
        <path d="M40.511,32.428a.577.577,0,0,0,.213.421"
              style="fill:none;stroke:#273376;stroke-miterlimit:10;stroke-width:0.050000000745058px"/>
        <path d="M41.561,32.81a.379.379,0,0,1,.332-.2.169.169,0,0,0,.073.326.326.326,0,0,0,.234-.059"
              style="fill:none;stroke:#273376;stroke-miterlimit:10;stroke-width:0.050000000745058px"/>
        <path d="M42.093,33.785s-.554-.238-.5-.581a.409.409,0,0,1,.246-.308"
              style="fill:none;stroke:#273376;stroke-miterlimit:10;stroke-width:0.050000000745058px"/>
        <path d="M41.726,33.114a.252.252,0,0,0,.06.25"
              style="fill:none;stroke:#273376;stroke-miterlimit:10;stroke-width:0.050000000745058px"/>
        <path d="M41.851,33.013a.285.285,0,0,0,.044.284"
              style="fill:none;stroke:#273376;stroke-miterlimit:10;stroke-width:0.050000000745058px"/>
        <path d="M41.984,32.935A.234.234,0,0,0,42,33.19"
              style="fill:none;stroke:#273376;stroke-miterlimit:10;stroke-width:0.050000000745058px"/>
        <path d="M41.479,33.82a1.155,1.155,0,0,0,.539.242"
              style="fill:none;stroke:#273376;stroke-miterlimit:10;stroke-width:0.050000000745058px"/>
        <path d="M41.383,33.9a1.56,1.56,0,0,0,.46.24"
              style="fill:none;stroke:#273376;stroke-miterlimit:10;stroke-width:0.050000000745058px"/>
        <path d="M41.276,33.955a1.559,1.559,0,0,0,.567.3"
              style="fill:none;stroke:#273376;stroke-miterlimit:10;stroke-width:0.050000000745058px"/>
        <path d="M42.7,34.516s-.344.169-.078.349"
              style="fill:none;stroke:#273376;stroke-miterlimit:10;stroke-width:0.050000000745058px"/>
        <path d="M42.481,34.329s.389-.187.558-.256"
              style="fill:none;stroke:#273376;stroke-miterlimit:10;stroke-width:0.050000000745058px"/>
        <path d="M42.621,34.426s.563-.314.73-.382"
              style="fill:none;stroke:#273376;stroke-miterlimit:10;stroke-width:0.050000000745058px"/>
        <path d="M42.91,34.446s.481-.293.739-.421"
              style="fill:none;stroke:#273376;stroke-miterlimit:10;stroke-width:0.050000000745058px"/>
        <path d="M43.228,34.436a7.071,7.071,0,0,1,.653-.411"
              style="fill:none;stroke:#273376;stroke-miterlimit:10;stroke-width:0.050000000745058px"/>
        <path d="M43.994,33.728s-.162-.218-.7,0a1.893,1.893,0,0,1,.584-.289"
              style="fill:none;stroke:#273376;stroke-miterlimit:10;stroke-width:0.050000000745058px"/>
        <path d="M44.42,32.5a.549.549,0,0,1,0,.284"
              style="fill:none;stroke:#273376;stroke-miterlimit:10;stroke-width:0.050000000745058px"/>
        <path d="M43.553,33.36a.739.739,0,0,1,.394-.223.262.262,0,0,0,.3.135.292.292,0,0,0,.232-.392s-.069-.248-.448-.273"
              style="fill:none;stroke:#273376;stroke-miterlimit:10;stroke-width:0.050000000745058px"/>
        <path d="M45.154,32.191s.385.063.378.35a.5.5,0,0,1-.465.516"
              style="fill:none;stroke:#273376;stroke-miterlimit:10;stroke-width:0.050000000745058px"/>
        <path d="M45.478,32.368a.665.665,0,0,1,.341-.3"
              style="fill:none;stroke:#273376;stroke-miterlimit:10;stroke-width:0.050000000745058px"/>
        <path d="M45.533,31.948s.1.154.177.177"
              style="fill:none;stroke:#273376;stroke-miterlimit:10;stroke-width:0.050000000745058px"/>
        <path d="M45.478,32.071a1.092,1.092,0,0,0,.132.129"
              style="fill:none;stroke:#273376;stroke-miterlimit:10;stroke-width:0.050000000745058px"/>
        <path d="M45.445,32.178a.39.39,0,0,0,.1.093"
              style="fill:none;stroke:#273376;stroke-miterlimit:10;stroke-width:0.050000000745058px"/>
        <path d="M43.464,30.512a.234.234,0,0,1,.262-.065"
              style="fill:none;stroke:#273376;stroke-miterlimit:10;stroke-width:0.050000000745058px"/>
        <path d="M44.486,31.345a.388.388,0,0,1,.53-.284"
              style="fill:none;stroke:#273376;stroke-miterlimit:10;stroke-width:0.050000000745058px"/>
        <path d="M44.849,31.024a.4.4,0,0,0-.06-.313"
              style="fill:none;stroke:#273376;stroke-miterlimit:10;stroke-width:0.050000000745058px"/>
        <path d="M44.568,31.01a.161.161,0,0,1,.008.156"
              style="fill:none;stroke:#273376;stroke-miterlimit:10;stroke-width:0.050000000745058px"/>
        <path d="M45.405,35.608s.463-.193.321-.521a.161.161,0,0,0-.147-.1s-.178.008-.143.226A.675.675,0,0,1,45.405,35.608Z"
              style="fill:#64b3d0;stroke:#273376;stroke-miterlimit:2.613;stroke-width:0.050000000745058px"/>
        <path d="M45.573,35.414a.307.307,0,0,0,.088-.249s-.006-.034.012-.039c0,0,.02-.008.023.032a.294.294,0,0,1-.095.263.023.023,0,0,1-.022.006S45.565,35.424,45.573,35.414Z"
              style="fill:#fff"/>
        <path d="M46.064,35.312a.366.366,0,0,0,.149-.5.147.147,0,0,0-.149-.072s-.2.057-.044.314A.432.432,0,0,1,46.064,35.312Z"
              style="fill:#64b3d0;stroke:#273376;stroke-miterlimit:2.613;stroke-width:0.050000000745058px"/>
        <path d="M46.145,34.886s-.017-.021-.005-.03.008-.011.029.014a.221.221,0,0,1,.02.255s-.009.022-.025.015c0,0-.013-.006,0-.025A.212.212,0,0,0,46.145,34.886Z"
              style="fill:#fff"/>
        <path d="M45.091,35.526a.374.374,0,0,1-.3-.427.17.17,0,0,1,.19-.129s.185.043.064.261A.3.3,0,0,0,45.091,35.526Z"
              style="fill:#64b3d0;stroke:#273376;stroke-miterlimit:2.613;stroke-width:0.050000000745058px"/>
        <path d="M44.951,35.116s-.013-.016,0-.023c0,0,.015-.006.026.014a.14.14,0,0,1,.006.13.158.158,0,0,0-.016.106s0,.016-.011.018a.023.023,0,0,1-.015-.016.136.136,0,0,1,.013-.1S45,35.16,44.951,35.116Z"
              style="fill:#fff"/>
        <path d="M45.352,34.877a.385.385,0,0,1,.374.018s-.017-.068-.147-.1a.268.268,0,0,0-.266-.165,1.226,1.226,0,0,0,.187.162S45.387,34.8,45.352,34.877Z"/>
        <path d="M45.5,34.382a1.459,1.459,0,0,1,.2.157.533.533,0,0,1,.131-.1.216.216,0,0,0-.131.025A.388.388,0,0,0,45.5,34.382Z"/>
        <path d="M44.7,34.786a.113.113,0,0,1,.021-.1.119.119,0,0,0,.015-.082"
              style="fill:none;stroke:#000;stroke-miterlimit:10;stroke-width:0.050000000745058px"/>
        <path d="M46.189,31.863s.216-.014.252-.168"
              style="fill:none;stroke:#000;stroke-miterlimit:10;stroke-width:0.050000000745058px"/>
        <path d="M46.821,31.594a.226.226,0,0,0-.144.06.153.153,0,0,1-.126.063"
              style="fill:none;stroke:#000;stroke-miterlimit:10;stroke-width:0.050000000745058px"/>
        <path d="M45.868,31.28a.33.33,0,0,0,.175-.05.073.073,0,0,1,.1.025.086.086,0,0,1-.05.134s-.137.063.08.189c0,0-.258-.085-.154-.2,0,0,.112-.074.071-.1,0,0-.012-.022-.057,0A.211.211,0,0,1,45.868,31.28Z"/>
        <path d="M46.022,28.787s.051-.063.03-.253a.148.148,0,0,1,.229-.158s.072.057.006.178A.507.507,0,0,1,46.022,28.787Z"
              style="fill:#64b3d0;stroke:#273376;stroke-miterlimit:2.613;stroke-width:0.050000000745058px"/>
        <path d="M46.09,28.645a.228.228,0,0,0,.035-.211s0-.014.009-.015.016,0,.019.01a.3.3,0,0,1-.04.238s-.014.012-.023,0A.015.015,0,0,1,46.09,28.645Z"
              style="fill:#fff"/>
        <path d="M45.964,28.718s0-.077-.15-.207-.026-.25.063-.249c0,0,.092,0,.125.129A.437.437,0,0,1,45.964,28.718Z"
              style="fill:#64b3d0;stroke:#273376;stroke-miterlimit:2.613;stroke-width:0.050000000745058px"/>
        <path d="M45.941,28.551s0-.094-.128-.192c0,0-.011-.011-.005-.017a.016.016,0,0,1,.023,0s.141.1.144.216c0,0,0,.018-.017.014A.019.019,0,0,1,45.941,28.551Z"
              style="fill:#fff"/>
        <path d="M45.767,28.66s-.038-.062-.217-.12-.13-.2-.055-.232c0,0,.078-.031.162.065A.417.417,0,0,1,45.767,28.66Z"
              style="fill:#64b3d0;stroke:#273376;stroke-miterlimit:2.613;stroke-width:0.050000000745058px"/>
        <path d="M45.689,28.545a.287.287,0,0,0-.2-.123s-.015-.007-.012-.014a.015.015,0,0,1,.019-.012s.176.039.23.14c0,0,.007.017-.01.019A.018.018,0,0,1,45.689,28.545Z"
              style="fill:#fff"/>
        <path d="M45.879,28.723a.49.49,0,0,1-.275-.063c-.191-.085-.275.062-.242.141,0,0,.035.082.184.067A.549.549,0,0,0,45.879,28.723Z"
              style="fill:#64b3d0;stroke:#273376;stroke-miterlimit:2.613;stroke-width:0.050000000745058px"/>
        <path d="M45.434,28.779a.31.31,0,0,0,.244-.007s.016,0,.019.005a.013.013,0,0,1-.008.019.42.42,0,0,1-.276.008s-.016-.011,0-.021A.02.02,0,0,1,45.434,28.779Z"
              style="fill:#fff"/>
        <path d="M45.6,28.169a.129.129,0,0,1,.073.145"
              style="fill:none;stroke:#000;stroke-miterlimit:2.613;stroke-width:0.050000000745058px"/>
        <path d="M46.022,28.183s.037.109,0,.167"
              style="fill:none;stroke:#000;stroke-miterlimit:10;stroke-width:0.050000000745058px"/>
        <path d="M39.419,28.787s-.051-.063-.03-.253a.148.148,0,0,0-.229-.158s-.072.057-.006.178A.507.507,0,0,0,39.419,28.787Z"
              style="fill:#64b3d0;stroke:#273376;stroke-miterlimit:2.613;stroke-width:0.050000000745058px"/>
        <path d="M39.351,28.645a.224.224,0,0,1-.035-.211s0-.014-.009-.015-.016,0-.019.01a.3.3,0,0,0,.04.238s.014.012.023,0A.016.016,0,0,0,39.351,28.645Z"
              style="fill:#fff"/>
        <path d="M39.477,28.718s.005-.077.15-.207.026-.25-.063-.249c0,0-.092,0-.125.129A.437.437,0,0,0,39.477,28.718Z"
              style="fill:#64b3d0;stroke:#273376;stroke-miterlimit:2.613;stroke-width:0.050000000745058px"/>
        <path d="M39.5,28.551s0-.094.129-.192c0,0,.01-.011,0-.017a.015.015,0,0,0-.022,0s-.141.1-.145.216c0,0,0,.018.018.014A.019.019,0,0,0,39.5,28.551Z"
              style="fill:#fff"/>
        <path d="M39.673,28.66s.038-.062.217-.12.131-.2.056-.232c0,0-.079-.031-.162.065A.412.412,0,0,0,39.673,28.66Z"
              style="fill:#64b3d0;stroke:#273376;stroke-miterlimit:2.613;stroke-width:0.050000000745058px"/>
        <path d="M39.752,28.545a.283.283,0,0,1,.2-.123s.015-.007.013-.014a.015.015,0,0,0-.019-.012s-.176.039-.231.14c0,0-.007.017.01.019A.02.02,0,0,0,39.752,28.545Z"
              style="fill:#fff"/>
        <path d="M39.561,28.723a.489.489,0,0,0,.275-.063c.192-.085.276.062.242.141,0,0-.035.082-.183.067A.551.551,0,0,1,39.561,28.723Z"
              style="fill:#64b3d0;stroke:#273376;stroke-miterlimit:2.613;stroke-width:0.050000000745058px"/>
        <path d="M40.007,28.779a.312.312,0,0,1-.245-.007s-.016,0-.018.005a.013.013,0,0,0,.008.019.42.42,0,0,0,.276.008s.016-.011,0-.021A.021.021,0,0,0,40.007,28.779Z"
              style="fill:#fff"/>
        <path d="M39.842,28.169a.13.13,0,0,0-.074.145"
              style="fill:none;stroke:#000;stroke-miterlimit:2.613;stroke-width:0.050000000745058px"/>
        <path d="M39.419,28.183s-.038.109,0,.167"
              style="fill:none;stroke:#000;stroke-miterlimit:10;stroke-width:0.050000000745058px"/>
        <path d="M43.573,27.188a.65.65,0,0,1,.035.3c-.023.128.008.161.059.186a.129.129,0,0,0,.158-.117.265.265,0,0,1-.114.36.279.279,0,0,1-.31-.032.332.332,0,0,1-.048-.282.585.585,0,0,0-.024-.313.34.34,0,0,1,.071.28s-.049.334.221.318a.2.2,0,0,0,.193-.21.173.173,0,0,1-.157.05.143.143,0,0,1-.108-.158A1.826,1.826,0,0,0,43.573,27.188Z"/>
        <path d="M43.267,27.737a.37.37,0,0,1-.279.328s.037-.048-.022-.179a.33.33,0,0,1-.054-.2s-.084.06.012.219a.192.192,0,0,1-.01.215C42.9,28.128,43.35,28.069,43.267,27.737Z"/>
        <path d="M42.924,27.474a.335.335,0,0,1-.068-.218c0-.152-.036-.189-.058-.206a.779.779,0,0,1,.024.212.355.355,0,0,0,.018.165s-.144.021-.235-.171-.174-.168-.217-.167c0,0,.051.005.152.173S42.669,27.463,42.924,27.474Z"/>
        <path d="M42.251,27.077a1.049,1.049,0,0,1,.086.278.4.4,0,0,1-.245-.212.208.208,0,0,0-.131.281.523.523,0,0,1-.258-.19.877.877,0,0,0,.191.1s-.01-.175.23-.241c0,0,.036.157.156.194C42.28,27.286,42.271,27.188,42.251,27.077Z"/>
        <path d="M42.568,26.765a.272.272,0,0,0,.2.093.235.235,0,0,0,.2-.093s-.009.155-.2.156C42.771,26.921,42.568,26.928,42.568,26.765Z"/>
        <path d="M41.727,27.822a1.39,1.39,0,0,1,.122.112.087.087,0,0,0,.133-.019s.078-.131.173-.128a.548.548,0,0,0-.144.168.094.094,0,0,1-.077.051.117.117,0,0,1-.111-.038A.808.808,0,0,1,41.727,27.822Z"/>
        <path d="M42.771,26.145c-.2,0-.032.144-.032.144a.229.229,0,0,1-.331.232c-.136-.066-.03-.232-.03-.232a.154.154,0,0,0-.056.225c.1.134.355.074.449-.049.095.123.351.183.449.049a.153.153,0,0,0-.055-.225s.106.166-.03.232a.23.23,0,0,1-.332-.232S42.975,26.145,42.771,26.145Z"/>
        <path d="M42.9,25.9a.471.471,0,0,1,.055.279A.269.269,0,0,0,42.9,25.9Z"/>
        <path d="M42.271,26.159a.154.154,0,0,0-.144-.131A.593.593,0,0,1,42.271,26.159Z"/>
        <path d="M43.273,26.159a.156.156,0,0,1,.145-.131A.61.61,0,0,0,43.273,26.159Z"/>
        <path d="M42.066,26.344a.173.173,0,0,0,.165-.041Z"/>
        <path d="M41.735,25.6s.119-.012.238.15a.68.68,0,0,0-.147.092.141.141,0,0,1,.058-.1A.257.257,0,0,0,41.735,25.6Z"/>
        <path d="M43.729,25.6s-.119-.012-.238.15a.68.68,0,0,1,.147.092.141.141,0,0,0-.058-.1A.257.257,0,0,1,43.729,25.6Z"/>
        <path d="M42.81,25.722a.37.37,0,0,0,.24-.041s.165-.08.27,0a.371.371,0,0,0-.267.041S42.877,25.81,42.81,25.722Z"/>
        <path d="M42.921,25.821a.372.372,0,0,1,.37-.118S43.215,25.907,42.921,25.821Z" style="fill:#fff"/>
        <path d="M43.113,25.711a.065.065,0,0,1,0,.128.065.065,0,0,1,0-.128Z" style="fill:#794622"/>
        <path d="M43.113,25.736a.037.037,0,0,1,.033.039.033.033,0,1,1-.066,0A.037.037,0,0,1,43.113,25.736Z"/>
        <path d="M42.325,25.509a.777.777,0,0,1,.282.071.241.241,0,0,0,.243-.026.93.93,0,0,0,.23-.177,1.782,1.782,0,0,1-.3.156.318.318,0,0,1-.1-.125s.011-.055.127-.158c0,0-.156.043-.187.164a.42.42,0,0,0,.089.132s-.029.012-.105-.031A.5.5,0,0,0,42.325,25.509Z"/>
        <path d="M42.771,26.474c-.152.121,0,.108,0,.108S42.924,26.6,42.771,26.474Z"/>
        <path d="M42.683,25.722a.37.37,0,0,1-.24-.041s-.165-.08-.269,0a.37.37,0,0,1,.267.041S42.617,25.81,42.683,25.722Z"/>
        <path d="M42.572,25.821s-.091-.147-.369-.118C42.2,25.7,42.278,25.907,42.572,25.821Z" style="fill:#fff"/>
        <path d="M42.38,25.711a.065.065,0,1,1-.055.064A.06.06,0,0,1,42.38,25.711Z" style="fill:#794622"/>
        <path d="M42.38,25.736a.037.037,0,0,1,.033.039.033.033,0,1,1-.066,0A.037.037,0,0,1,42.38,25.736Z"/>
        <path d="M48.146,24.5v9.224c0,2.464-5.386,3.264-5.386,3.264s-5.386-.8-5.386-3.264V24.5Z"
              style="fill:none;stroke:#000;stroke-width:0.050000000745058px"/>
        <rect x="-15.612" y="3.545" width="43.116" height="23.956" style="fill:#273376"/>
        <polygon
                points="27.535 27.502 22.745 27.502 9.628 20.216 9.595 27.502 2.347 27.502 2.402 20.237 -10.779 27.502 -15.599 27.502 -15.599 24.818 -6.108 19.558 -15.599 19.5 -15.599 11.546 -6.128 11.535 -15.599 6.228 -15.599 3.544 -10.945 3.544 2.35 10.889 2.343 3.544 9.583 3.544 9.594 10.842 22.681 3.544 27.535 3.544 27.535 6.287 18.042 11.534 27.535 11.51 27.535 19.522 18.114 19.512 27.535 24.807 27.535 27.502"
                style="fill:#fff"/>
        <path d="M27.7,13.254V18.1q-9.635,0-19.269-.005c-.174,0-.226.037-.226.245q.011,4.725.005,9.449H3.876q0-4.7,0-9.4c0-.222-.031-.293-.249-.293Q-6,18.108-15.621,18.1V13.254q9.639,0,19.278.005c.179,0,.224-.046.223-.249q-.009-4.726,0-9.454H8.208q0,4.7-.005,9.4c0,.238.043.3.265.3Q18.083,13.248,27.7,13.254Z"
              style="fill:#ce202c"/>
        <path d="M27.5,3.55c-.032.071-.1.078-.156.108q-6.993,3.885-13.986,7.77a.861.861,0,0,1-.432.116c-.97-.005-1.94,0-2.922,0,.04-.1.125-.109.19-.145q6.931-3.852,13.862-7.7c.072-.04.164-.052.209-.144Z"
              style="fill:#ce202c"/>
        <path d="M-15.558,27.5c1.032-.579,2.064-1.161,3.1-1.736q5.523-3.072,11.047-6.143a.885.885,0,0,1,.453-.117c.891.006,1.782,0,2.673,0h.224a.549.549,0,0,1-.25.18q-6.94,3.861-13.884,7.72c-.05.028-.1.061-.148.092Z"
              style="fill:#ce202c"/>
        <path d="M27.5,27.494q-1.7-.954-3.407-1.906L13.407,19.652c-.06-.034-.135-.047-.184-.143H14.95c.338,0,.677.015,1.014,0a1.379,1.379,0,0,1,.778.208q5.345,2.976,10.694,5.941c.032.017.066.033.1.049l.009,1.7C27.543,27.439,27.549,27.483,27.5,27.494Z"
              style="fill:#ce202c"/>
    </g>
</svg>
