<svg xmlns="http://www.w3.org/2000/svg" xmlns:xlink="http://www.w3.org/1999/xlink" viewBox="0 0 55 55">
    <defs>
        <clipPath id="a">
            <circle cx="-42.5" cy="27.5" r="23.3" style="fill:none"/>
        </clipPath>
    </defs>
    <g style="clip-path:url(#a)">
        <rect x="-85.612" y="3.545" width="86.233" height="47.911" style="fill:#ce202c"/>
    </g>
    <path d="M50.11,21.852l-21.146-4.4-1.129-.235-.131-.026-.413-.089-.126-.027-.638-.13L9.033,13.306A23.313,23.313,0,0,1,50.11,21.852Z"
          style="fill:#f6df25"/>
    <path d="M45.978,41.668A23.31,23.31,0,0,1,4.885,33.122L13.923,35l2.1.439,2.929.612,3.033.628.769.162.534.11h0l.544.115,4.947,1.03,1.167.241L31.7,38.7l.293.057h0l.81.168.267.057,2.73.565Z"
          style="fill:#f6df25"/>
    <path d="M50.8,27.5a23.242,23.242,0,0,1-.622,5.361l-9.608-2-2.333-.486-1.746-.361-1.423-.3-6.616-1.376-1.825-.377L19.566,26.5l-.659-.136L14.2,25.377l-.335-.068-.162-.032-.439-.094-.173-.037-.4-.083-.162-.032-.5-.1L4.566,23.373A23.237,23.237,0,0,1,9.033,13.306l17.494,3.64.638.13.126.027.413.089.131.026,1.129.235,21.146,4.4A23.378,23.378,0,0,1,50.8,27.5Z"
          style="fill:#fff"/>
    <path d="M50.178,32.861a23.049,23.049,0,0,1-2.506,6.286,22.742,22.742,0,0,1-1.694,2.521L35.8,39.55l-2.73-.565-.267-.057-.81-.168h0L31.7,38.7l-1.752-.366L28.781,38.1l-4.947-1.03-.544-.115h0l-.534-.11-.769-.162-3.033-.628-2.929-.612L13.923,35,4.885,33.122a23.429,23.429,0,0,1-.319-9.749l7.469,1.554.5.1.162.032.4.083.173.037.439.094.162.032.335.068,4.707.983.659.136,7.061,1.469,1.825.377,6.616,1.376,1.423.3,1.746.361,2.333.486Z"/>
    <path d="M20.936,22.762a3.518,3.518,0,0,0,1.193-.34,4.492,4.492,0,0,1,1.009-.387c.3-.058.476,0,.33.062a9.383,9.383,0,0,0-.963.293,9.741,9.741,0,0,1-1.422.576c-.33.078-.162.219-.089.292a1.262,1.262,0,0,0,.523.3,1.38,1.38,0,0,0,.763-.115,3,3,0,0,0,.607-.393,4.156,4.156,0,0,1,.565-.329A1.322,1.322,0,0,1,24,22.552c.355,0,.429.016.366.079-.089.089-.659.219-.989.382a6.272,6.272,0,0,0-1.108.727c-.157.162.3.35.4.387a1.168,1.168,0,0,0,.963-.152,6.638,6.638,0,0,0,.747-.57,2.035,2.035,0,0,1,.827-.434c.021,0,.047,0,.057.015s-.01.037-.026.048l-.758.57c-.215.162-.413.345-.638.491-.4.256.068.586.366.628a1.461,1.461,0,0,0,.931-.319,13.508,13.508,0,0,0,1.454-1.287s-.026.058-.267.476.063.6.184.6.329-.084.407-.011a.926.926,0,0,0,.246,1.281.878.878,0,0,1,.214-.334,1.358,1.358,0,0,0,.131-.084,1.358,1.358,0,0,0,.131.084.866.866,0,0,1,.209.334.927.927,0,0,0,.251-1.281c.073-.073.282.011.4.011s.429-.178.188-.6-.267-.476-.267-.476A13.508,13.508,0,0,0,29.869,24.4a1.461,1.461,0,0,0,.931.319c.3-.042.759-.372.361-.628-.225-.146-.418-.329-.632-.491-.257-.189-.508-.377-.759-.57-.016-.011-.032-.027-.026-.048s.036-.02.057-.015a2.029,2.029,0,0,1,.827.434,6.583,6.583,0,0,0,.742.57,1.168,1.168,0,0,0,.963.152c.1-.037.559-.225.4-.387a6.668,6.668,0,0,0-1.108-.727c-.335-.163-.9-.293-.989-.382-.063-.063,0-.079.366-.079a1.37,1.37,0,0,1,.544.173,4.043,4.043,0,0,1,.56.329,3.068,3.068,0,0,0,.612.393,1.357,1.357,0,0,0,.758.115,1.2,1.2,0,0,0,.523-.3c.078-.073.246-.214-.089-.292a10.278,10.278,0,0,1-1.423-.576,8.947,8.947,0,0,0-.962-.293c-.146-.062.032-.12.33-.062a4.427,4.427,0,0,1,1.014.387,3.488,3.488,0,0,0,1.188.34,1.309,1.309,0,0,0,1.223-.607c.419-.6.2-.492-.272-.46a3,3,0,0,1-1.558-.089,5.51,5.51,0,0,1-1.511-.78c-.215-.136-.4-.3-.618-.444a3.013,3.013,0,0,0-3.216.031,1.889,1.889,0,0,0-.251.215l-.063.062V19.179L27.5,19.5l-.3-.319V20.69l-.063-.062a1.618,1.618,0,0,0-.251-.215,3,3,0,0,0-3.211-.031c-.215.141-.408.308-.617.444a5.5,5.5,0,0,1-1.517.78,3,3,0,0,1-1.559.089c-.465-.032-.69-.136-.266.46A1.3,1.3,0,0,0,20.936,22.762Z"
          style="fill:#ce1225"/>
    <path d="M28.614,25.465c-.078-.078-.3,0-.392.027a.7.7,0,0,0-.272.193c-.026.026-.168.236-.215.188s-.057-.57-.235-.57-.194.523-.241.57-.188-.162-.214-.188a.7.7,0,0,0-.272-.193c-.084-.032-.314-.105-.392-.027s.141.262.345.471a1.087,1.087,0,0,1,.246.858,2.4,2.4,0,0,1-.288,1.015,1.911,1.911,0,0,0-.073,1.333c.167.325.267.33.366.361s.173-.063.261-.277a.546.546,0,0,1,.2-.241.111.111,0,0,1,.126,0,.511.511,0,0,1,.194.241c.088.214.161.314.266.277s.194-.036.361-.361a1.909,1.909,0,0,0-.068-1.333,2.4,2.4,0,0,1-.288-1.015,1.1,1.1,0,0,1,.241-.858C28.478,25.727,28.682,25.533,28.614,25.465Z"
          style="fill:#ce1225"/>
    <path d="M26.188,33.243a1.394,1.394,0,0,0,.433.69c.162.068.173-.167.21-.267a2.816,2.816,0,0,1,.272-.533,2.227,2.227,0,0,1,.193-.256,1.1,1.1,0,0,1,.105-.121.962.962,0,0,0,.078-.073.027.027,0,0,1,.037,0c.026.026.068.058.078.073.037.037.073.079.11.121a2.19,2.19,0,0,1,.188.256,2.551,2.551,0,0,1,.272.533c.037.1.053.335.215.267a1.434,1.434,0,0,0,.429-.69,2.485,2.485,0,0,0-.162-1.47,3.512,3.512,0,0,1-.356-1.255,1.173,1.173,0,0,1,.147-.664c.057-.058.245-.163.229-.262a.088.088,0,0,0-.057-.063.349.349,0,0,0-.126-.015.535.535,0,0,0-.376.177c-.058.058-.178.22-.262.11a.274.274,0,0,1-.031-.094c0-.026-.016-.052-.021-.078a1,1,0,0,0-.073-.168c-.042-.089-.11-.2-.22-.2s-.183.115-.225.2a1.683,1.683,0,0,0-.068.168.451.451,0,0,0-.021.078.274.274,0,0,1-.031.094c-.084.11-.2-.052-.267-.11a.515.515,0,0,0-.371-.177.377.377,0,0,0-.131.015.092.092,0,0,0-.058.063c-.015.1.174.2.231.262a1.183,1.183,0,0,1,.146.664,3.4,3.4,0,0,1-.356,1.255A2.516,2.516,0,0,0,26.188,33.243Z"
          style="fill:#ce1225"/>
    <path d="M25.837,33.656a.808.808,0,0,1-.4-.236c-.01-.01-.026-.031-.042-.036-.062-.026-.062.052-.062.089a2.3,2.3,0,0,0,4.335,0c0-.037,0-.115-.057-.089-.021.005-.032.026-.047.036a.794.794,0,0,1-.4.236,1.784,1.784,0,0,0-.287.094.843.843,0,0,0-.21.178,1.179,1.179,0,0,1-.5.329c-.355.094-.188-.1-.167-.188a.538.538,0,0,0-.084-.549c-.141-.183-.3-.392-.381-.481a.05.05,0,0,0-.079,0c-.073.089-.235.3-.381.481a.538.538,0,0,0-.084.549c.026.089.188.282-.168.188a1.2,1.2,0,0,1-.491-.329.865.865,0,0,0-.215-.178A1.728,1.728,0,0,0,25.837,33.656Z"
          style="fill:#ce1225"/>
    <path d="M27.5,38.185A9.03,9.03,0,0,0,34.545,23.5a7.88,7.88,0,0,1,.92,3.719A7.968,7.968,0,1,1,20.45,23.5,9.034,9.034,0,0,0,27.5,38.185Z"
          style="fill:#ce1225"/>
    <path d="M38.352,39.315a.905.905,0,0,0-.156-.372.948.948,0,0,0-.44-.308c-.083-.032-.256-.052-.308-.141s.109-.33.136-.45a.688.688,0,0,0-.346-.732,1.513,1.513,0,0,0-.81-.189,2.343,2.343,0,0,0-.492.115c-.052.016-.24.1-.293.053-.063-.063.068-.2.335-.623a.958.958,0,0,0-.664-1.344.982.982,0,0,0-.769.183c-.141.11-.283.215-.424.319a19.733,19.733,0,0,1-2.976,2.066,9.132,9.132,0,0,1-7.29,0,20.146,20.146,0,0,1-2.982-2.066c-.141-.1-.281-.209-.423-.319a.977.977,0,0,0-.769-.183.957.957,0,0,0-.658,1.344c.266.424.391.56.329.623-.048.047-.241-.037-.288-.053a2.4,2.4,0,0,0-.5-.115,1.529,1.529,0,0,0-.811.189.686.686,0,0,0-.34.732c.021.12.194.35.131.45-.047.089-.225.109-.308.141a.929.929,0,0,0-.435.308.843.843,0,0,0-.156.372c-.006.026-.016.345.021.329a7.328,7.328,0,0,1,.721-.3,2.332,2.332,0,0,1,.832-.052,3.789,3.789,0,0,1,2,.9,1.919,1.919,0,0,0,1.679.518.508.508,0,0,0,.4-.324c.042-.115,0-.481.084-.56.031-.031.031-.089.444.214a6.431,6.431,0,0,0,1.983.8,11.354,11.354,0,0,0,5.386,0,6.482,6.482,0,0,0,1.983-.8c.413-.3.413-.245.445-.214.072.079.041.445.083.56a.493.493,0,0,0,.4.324,1.928,1.928,0,0,0,1.679-.518,3.772,3.772,0,0,1,2-.9,2.3,2.3,0,0,1,.827.052,6.846,6.846,0,0,1,.726.3C38.363,39.66,38.358,39.341,38.352,39.315Z"
          style="fill:#ce1225"/>
    <path d="M26.491,19.383l.564-.56.445.487.445-.487.559.56.45-.539.711.576a6.4,6.4,0,0,1-.575-1.9,2.764,2.764,0,0,1-1.59.355,2.783,2.783,0,0,1-1.595-.355,6.241,6.241,0,0,1-.575,1.9l.711-.576Z"
          style="fill:#ce1225"/>
    <path d="M27.5,17.741c.863,0,1.569-.2,1.569-.445,0-.214-.528-.392-1.234-.439v.606h-.67v-.606c-.706.047-1.234.225-1.234.439C25.931,17.542,26.632,17.741,27.5,17.741Z"
          style="fill:#ce1225"/>
    <path d="M27.291,14.205v3.128H27.7V15.816l1.381.68-.738-1,1.025-.408L27.7,14.205c.105-.036.173-.1.173-.167,0-.11-.168-.2-.377-.2s-.382.094-.382.2C27.118,14.106,27.186,14.169,27.291,14.205Z"
          style="fill:#ce1225"/>
    <path d="M20.152,31.763a1.18,1.18,0,0,0-.351.172.539.539,0,0,0-.162.256.824.824,0,0,0,0,.492,1.16,1.16,0,0,0,.22.445c.083.094.225.266.387.245a.137.137,0,0,0,.089-.036c.078-.089-.079-.262-.037-.487a.292.292,0,0,1,.068-.167c.162-.162.539-.005.622.031.283.121.508.34.523.513a.3.3,0,0,1-.015.125c-.01.027-.032.058-.178.152-.094.058-.141.089-.162.073s-.006-.068.021-.245a.933.933,0,0,0,.021-.178c-.032-.178-.278-.262-.309-.272s-.262-.084-.324.005c-.047.068.057.152.057.377a.343.343,0,0,1-.052.224.34.34,0,0,1-.22.095.532.532,0,0,1-.329-.089,1.6,1.6,0,0,1-.4-.33,1.217,1.217,0,0,1-.355-.648.869.869,0,0,1,.183-.649.92.92,0,0,1,.376-.23.456.456,0,0,1,.351-.016c.01.006.083.042.078.079S20.188,31.747,20.152,31.763Z"
          style="fill:#f6df25"/>
    <path d="M23.169,34.184c-.015,0-.073-.016-.172.073-.115.105-.11.178-.2.314a1.125,1.125,0,0,1-.293.272.678.678,0,0,1-.292.152c-.016,0-.184.031-.215-.026-.021-.042.031-.105.052-.131a.865.865,0,0,1,.157-.126c.073-.062.126-.1.12-.157s-.073-.1-.125-.12-.105-.026-.33.052c-.125.047-.177.074-.334.131-.178.063-.214.058-.23.042-.047-.052.031-.2.036-.209.058-.1.12-.126.256-.23.283-.215.325-.346.335-.382s.037-.131-.01-.178-.136-.026-.2.01c-.115.068-.084.178-.235.372a.634.634,0,0,1-.167.152.452.452,0,0,1-.189.062c-.157.011-.345-.062-.382-.188-.01-.037,0-.068-.021-.167a.247.247,0,0,0-.042-.1.179.179,0,0,0-.2.058.219.219,0,0,0-.026.2.324.324,0,0,0,.126.183c.083.057.119.026.24.1a.219.219,0,0,1,.12.1c.031.062,0,.094.037.172a.172.172,0,0,0,.073.094c.053.037.089.021.136.058a.2.2,0,0,1,.078.094c.042.125-.078.214-.094.439,0,.042,0,.11.021.121s.084-.11.214-.2a.62.62,0,0,1,.241-.089,1.793,1.793,0,0,1,.4.021,1.1,1.1,0,0,0,.339-.047c.089-.032.095-.058.424-.335.022-.016.136-.141.366-.387a.158.158,0,0,0,.058-.126A.114.114,0,0,0,23.169,34.184ZM21.7,35c-.026.021-.062.005-.084,0,0-.005-.078-.026-.073-.052s.063-.058.115-.042c.021.005.063.026.063.057A.055.055,0,0,1,21.7,35Zm.225-.225a.131.131,0,0,1-.131.01c-.01,0-.068-.02-.073-.047s.052-.047.1-.062.105-.042.126-.021A.1.1,0,0,1,21.925,34.775Z"
          style="fill:#f6df25"/>
    <path d="M23.426,34.383c.078-.032.193.01.2.063s-.068.1-.189.2c-.376.324-.292.465-.6.711-.038.026-.1.073-.105.136a.207.207,0,0,0,.2.193c.068,0,.12-.062.183-.136.079-.089.073-.125.131-.151a.192.192,0,0,1,.214.052c.042.052.021.115.047.12s.048-.057.116-.11.162-.094.183-.068-.121.131-.163.33a.422.422,0,0,0,.021.246.416.416,0,0,0,.482.167.505.505,0,0,0,.282-.366c.032-.126,0-.235.078-.288a.121.121,0,0,1,.111-.021c.1.047.052.351.046.377a.569.569,0,0,1-.12.288.592.592,0,0,1-.314.193.715.715,0,0,1-.606-.016.4.4,0,0,1-.2-.219c-.053-.157.026-.3-.042-.351a.149.149,0,0,0-.105,0c-.277.074-.345.168-.471.168a.349.349,0,0,1-.3-.2c-.047-.121.021-.246.12-.419a4.547,4.547,0,0,1,.612-.721.924.924,0,0,1,.126-.131A.237.237,0,0,1,23.426,34.383Z"
          style="fill:#f6df25"/>
    <path d="M22.537,35.947a.076.076,0,0,0-.032.088.078.078,0,0,0,.074.063.076.076,0,0,0,.083-.068.085.085,0,0,0-.016-.073A.084.084,0,0,0,22.537,35.947Z"
          style="fill:#f6df25"/>
    <path d="M24.477,35.157c-.047.026-.141,0-.152-.058,0-.042.032-.078.068-.1s.115-.011.131.026a.106.106,0,0,1-.01.079C24.5,35.125,24.5,35.146,24.477,35.157Z"
          style="fill:#f6df25"/>
    <path d="M25.805,35.607a.087.087,0,0,0-.015.1.109.109,0,0,0,.162.026.081.081,0,0,0,.027-.063.1.1,0,0,0-.032-.068A.106.106,0,0,0,25.805,35.607Z"
          style="fill:#f6df25"/>
    <path d="M29.44,36.25c-.3-.063-.23-.063-.434-.1a.792.792,0,0,0-.476-.006.17.17,0,0,0-.089.089.14.14,0,0,0,.021.126c.074.057.2-.084.341-.026.057.021.046.047.141.1s.135.058.141.084c.01.057-.173.141-.282.178a.857.857,0,0,1-.487.068c-.152-.032-.209-.105-.324-.068-.074.021-.1.068-.168.062-.047-.005-.062-.026-.172-.088a.687.687,0,0,0-.162-.074c-.095-.01-.11.053-.256.089-.037.011-.189.047-.262-.026a.326.326,0,0,1-.026-.042c-.089-.136-.549.121-.738-.047a.273.273,0,0,1-.094-.157c0-.062.026-.1,0-.13s-.042-.027-.178-.016-.162.016-.224.016a.315.315,0,0,1-.147-.037c-.026-.011-.068-.042-.136-.188-.089-.173-.073-.225-.135-.278a.321.321,0,0,0-.184-.036.431.431,0,0,0-.256.115.494.494,0,0,0-.168.24.346.346,0,0,0,0,.241c.053.1.162.1.168.173.005.047-.053.094-.11.13a1.275,1.275,0,0,1-.539.178,1.04,1.04,0,0,1-.565-.073,1,1,0,0,0-.361-.141c-.052,0-.167-.016-.2.036s.047.168.094.22a.526.526,0,0,0,.115.084h0a1.1,1.1,0,0,0,.382.094,1.324,1.324,0,0,1,.162.021,1.428,1.428,0,0,0,.648-.047.974.974,0,0,0,.466-.251c.078-.094.13-.2.272-.262a.542.542,0,0,1,.193-.047c.126-.016.356-.047.409.047.031.058-.037.11,0,.178s.146.089.234.105a1.027,1.027,0,0,0,.215,0c.376-.016.455,0,.492.057.026.032,0,.052.031.084.063.078.22.036.371.01a2.357,2.357,0,0,1,.774.006,1.982,1.982,0,0,0,.314.041.909.909,0,0,0,.283-.015,1.025,1.025,0,0,0,.449-.2c.2-.147.173-.22.314-.262a2.12,2.12,0,0,0,.309-.1c.084-.032.1-.052.1-.063C29.7,36.307,29.6,36.287,29.44,36.25Zm-4.246-.068c-.016.052-.079.063-.121.063a.119.119,0,0,1-.1-.084c0-.021.011-.047.042-.1s.031-.053.036-.053c.042-.015.094.047.1.053A.129.129,0,0,1,25.194,36.182Z"
          style="fill:#f6df25"/>
    <path d="M31.046,35.821c-.068-.22-.094-.183-.162-.413s-.073-.387-.2-.466a.18.18,0,0,0-.126-.026c-.068.021-.083.115-.083.126a.27.27,0,0,0,.047.188,2.83,2.83,0,0,1,.183.429,4.809,4.809,0,0,1,.11.471c.052.193.084.256.052.35a.362.362,0,0,1-.177.22c-.142.062-.2-.037-.482-.021a1.08,1.08,0,0,0-.361.073c-.084.037-.141.078-.214.058a1.317,1.317,0,0,0-.162-.074.2.2,0,0,0-.095,0c-.073.037-.068.157-.068.173a.142.142,0,0,0,.037.115c.042.042.094,0,.2.016a.277.277,0,0,1,.193.094c.053.068,0,.125.053.2a.336.336,0,0,0,.256.1.269.269,0,0,0,.22-.047c.047-.047.026-.078.083-.188a.427.427,0,0,1,.126-.141.408.408,0,0,1,.152-.053.807.807,0,0,0,.47-.345C31.24,36.438,31.151,36.156,31.046,35.821Zm-.9,1.355c-.041.021-.083-.011-.109-.027a.113.113,0,0,1-.058-.078.106.106,0,0,1,.209-.016C30.2,37.1,30.188,37.16,30.146,37.176Z"
          style="fill:#f6df25"/>
    <path d="M31.538,34.383a.125.125,0,0,0,.1.141.119.119,0,0,0,.12-.078.092.092,0,0,0-.021-.116c-.01-.01-.021-.01-.057,0C31.6,34.346,31.548,34.351,31.538,34.383Z"
          style="fill:#f6df25"/>
    <path d="M34.639,33.054c0-.005-.063-.1-.11-.094s-.047.194-.047.215c.005.146.052.193.022.266-.011.027-.038.063-.163.121a4.016,4.016,0,0,1-.408.115.789.789,0,0,0-.34.246c-.12.146-.11.251-.277.413-.094.094-.141.094-.168.094-.094-.005-.1-.126-.235-.183a.352.352,0,0,0-.292.021.562.562,0,0,0-.194.256c-.015.042-.021.089-.042.089s-.026-.131-.1-.167a.161.161,0,0,0-.152.041.242.242,0,0,0-.058.231c.022.094.068.109.1.188a.436.436,0,0,1-.115.5.414.414,0,0,1-.262.047c-.072-.006-.2-.016-.261-.105s0-.193-.037-.2-.052.079-.136.1a.136.136,0,0,1-.125-.026c-.026-.032-.026-.063-.036-.147-.017-.131-.022-.193-.053-.209-.052-.031-.147.021-.2.078a.225.225,0,0,0-.062.121c-.027.12.088.188.182.355a3.482,3.482,0,0,1,.115.549c.037.215.053.325.074.325s.026-.084.078-.277a1.319,1.319,0,0,1,.058-.183c.1-.116.3.026.564-.058a.751.751,0,0,0,.377-.288.554.554,0,0,0,.136-.4c-.01-.094-.067-.178-.021-.236a.135.135,0,0,1,.094-.036.573.573,0,0,1,.361.057c.105.037.115.058.126.068.041.068-.006.163-.047.246-.225.492-.2.455-.225.492-.131.193-.215.235-.283.423-.01.037-.047.152-.01.178s.2-.13.272-.2a1.4,1.4,0,0,0,.408-.554c.1-.345-.105-.6.073-.8a.437.437,0,0,1,.126-.094c.193-.094.318.031.5-.052a.469.469,0,0,0,.21-.225c.062-.152-.032-.21.02-.325.079-.183.33-.12.492-.35a.687.687,0,0,0,.089-.23A.533.533,0,0,0,34.639,33.054Zm-1.694,1.569c-.037.037-.11.006-.126,0-.052-.026-.11-.089-.1-.13.01-.021.031-.037.078-.063s.058-.026.079-.021c.047.005.073.063.078.073C32.971,34.519,32.987,34.587,32.945,34.623Zm.9-.361c-.015.027-.062.089-.115.084a.084.084,0,0,1-.052-.052.107.107,0,0,1,.021-.1c.01-.021.042-.084.1-.089.006,0,.058,0,.074.036S33.87,34.236,33.849,34.262Z"
          style="fill:#f6df25"/>
    <path d="M33.949,32.4c.032-.063.089-.058.1-.105a.122.122,0,0,0-.068-.126c-.042-.015-.078.006-.141.037a.329.329,0,0,0-.131.115.23.23,0,0,0-.036.162.28.28,0,0,0,.089.157c.078.094.11.089.125.141.026.084-.042.157-.01.189a.08.08,0,0,0,.089,0c.068-.032.047-.1.12-.22.047-.078.089-.094.125-.194.032-.068.021-.083.016-.088-.021-.016-.068.036-.167.052-.031.01-.1.021-.131-.016S33.943,32.406,33.949,32.4Z"
          style="fill:#f6df25"/>
    <path d="M34.163,32.108c.068.162.345.282.534.465.209.215.193.408.36.434a.287.287,0,0,0,.215-.052c.125-.078.1-.188.2-.345.125-.194.251-.152.355-.319a.614.614,0,0,0,.068-.45c-.042-.23-.162-.194-.6-.706a.989.989,0,0,0-.4-.288c-.079-.026-.121-.026-.147-.005-.063.047-.036.225.052.33s.163.068.34.135a1.15,1.15,0,0,1,.424.34.549.549,0,0,1,.131.455c-.005.021-.032.1-.084.11s-.089-.031-.235-.172c-.644-.623-.168-.152-.257-.241-.109-.1-.136-.136-.162-.125-.052.015-.078.151-.052.261a1.04,1.04,0,0,0,.235.324c.084.095.115.121.121.178a.237.237,0,0,1-.105.209.172.172,0,0,1-.094.037c-.084-.005-.136-.1-.215-.214a2.032,2.032,0,0,0-.387-.455c-.052-.042-.052-.037-.172-.131-.089-.068-.115-.094-.136-.084-.047.021-.042.152-.021.23A.235.235,0,0,0,34.163,32.108Z"
          style="fill:#f6df25"/>
    <path d="M34.969,30.4c-.042.021-.053.142-.006.225a.278.278,0,0,0,.1.105,2.424,2.424,0,0,0,.3.178c.3.146.4.486.45.46.031-.01.016-.115.011-.131-.053-.261-.272-.314-.67-.7C35.079,30.45,35.01,30.377,34.969,30.4Z"
          style="fill:#f6df25"/>
    <path d="M21.4,37.254a.268.268,0,0,0-.188-.152.462.462,0,0,0-.366.047c-.1.058-.084.095-.183.147a.517.517,0,0,1-.633-.152c-.178-.188-.141-.308-.293-.408-.089-.052-.219-.083-.266-.036a.136.136,0,0,0-.016.094c.016.078.1.1.2.193.078.068.052.079.141.173a.836.836,0,0,0,.3.22,1.123,1.123,0,0,0,.293.078c.178.026.23.016.288.068a.469.469,0,0,1,.1.183c.042.1.031.141.063.157.068.037.2-.084.267-.141C21.255,37.589,21.454,37.411,21.4,37.254Zm-.345.225c-.021.005-.068.016-.089-.005a.1.1,0,0,1,.048-.141.1.1,0,0,1,.1.094C21.109,37.458,21.062,37.474,21.051,37.479Z"
          style="fill:#f6df25"/>
    <path d="M22.144,37.343a.3.3,0,0,0-.078.188,1.626,1.626,0,0,1-.12.413c-.089.157-.2.22-.173.3a.084.084,0,0,0,.058.062c.089.016.2-.183.287-.324.136-.241.084-.256.189-.382a.26.26,0,0,0,.083-.172.146.146,0,0,0-.083-.121A.178.178,0,0,0,22.144,37.343Z"
          style="fill:#f6df25"/>
    <path d="M21.151,38.159c.256.167.355.35.565.444a.5.5,0,0,0,.36.048.481.481,0,0,0,.309-.288c.058-.152-.026-.215.037-.4a.544.544,0,0,1,.157-.23c.02-.01.172-.13.256-.073a.161.161,0,0,1,.047.131c-.005.1-.1.131-.183.251-.115.162-.021.225-.136.423-.079.131-.157.157-.162.262a.3.3,0,0,0,.073.193,1.116,1.116,0,0,0,.79.325c.3.01.5-.079.606.042a.474.474,0,0,0,.136.162.359.359,0,0,0,.189.057c.282.042.329.011.376.063.063.073-.005.178.068.235a.178.178,0,0,0,.147.021c.167-.015.2-.13.319-.12.057.005.1.042.183.11.12.11.13.183.2.188s.152-.068.189-.11a.687.687,0,0,0,.147-.408c.015-.245-.079-.313-.006-.423.031-.053.052-.032.225-.194.026-.026.047-.042.068-.036.052.01.042.2.042.266-.016.319-.042.984-.476,1.182a.6.6,0,0,1-.492.016c-.152-.084-.136-.22-.277-.262-.183-.062-.319.121-.45.037a.568.568,0,0,1-.151-.188c-.021-.047-.021-.068-.048-.084-.062-.042-.13.032-.251.032a.336.336,0,0,1-.246-.095c-.062-.083-.015-.177-.073-.225s-.151-.015-.188,0a1.429,1.429,0,0,1-1.062-.209c-.193-.146-.183-.293-.413-.387-.115-.047-.125-.01-.293-.063a1.273,1.273,0,0,1-.507-.3.759.759,0,0,1-.188-.3c-.011-.037-.032-.1-.006-.126S21.119,38.138,21.151,38.159Z"
          style="fill:#f6df25"/>
    <path d="M25.717,40.523c.266,0,.475.016.533.021a2.041,2.041,0,0,0,.549-.026.546.546,0,0,0,.23-.105.4.4,0,0,0,.136-.162c.042-.094,0-.131.037-.277a.308.308,0,0,1,.12-.236c.037-.021.105-.041.141-.015s.032.1-.005.246a1.286,1.286,0,0,1-.167.5.7.7,0,0,1-.324.236c-.173.073-.215.021-.622.042-.309.015-.419.052-.576-.027-.089-.041-.2-.12-.183-.162C25.6,40.528,25.665,40.523,25.717,40.523Z"
          style="fill:#f6df25"/>
    <path d="M26.606,39.1c-.068.173.01.288.026.586a1.607,1.607,0,0,1-.026.512.581.581,0,0,0-.032.152c.021.011.089-.11.141-.214a1.728,1.728,0,0,0,.126-.466c.042-.22.027-.246.063-.429.01-.062.016-.13.026-.2s.016-.1,0-.121c-.042-.042-.162-.01-.235.053A.313.313,0,0,0,26.606,39.1Z"
          style="fill:#f6df25"/>
    <path d="M27.673,39.064c-.042.151.052.2.089.429s-.037.277-.021.664c0,.115.016.277.047.282s.1-.2.136-.35a2.493,2.493,0,0,0,.031-.377c.005-.094.016-.34.005-.674-.005-.163-.01-.215-.046-.231C27.85,38.787,27.714,38.912,27.673,39.064Z"
          style="fill:#f6df25"/>
    <path d="M28.473,39.592c.052.131.178.1.282.235s.115.335.042.4c-.042.036-.084-.005-.209.015a.618.618,0,0,0-.251.1c-.105.068-.214.136-.209.215a.125.125,0,0,0,.083.088c.1.037.178-.088.377-.177s.256-.021.356-.1a.594.594,0,0,0,.135-.476.788.788,0,0,0-.1-.356c-.058-.115-.141-.261-.272-.272a.228.228,0,0,0-.2.1A.247.247,0,0,0,28.473,39.592Z"
          style="fill:#f6df25"/>
    <path d="M30.471,39.315c-.058-.021-.173.12-.225.246a.422.422,0,0,0-.031.366c.078.136.271.146.465.157a1.6,1.6,0,0,0,.607-.089,1.439,1.439,0,0,0,.632-.382,1.42,1.42,0,0,0,.251-.371c.11-.21.095-.262.079-.293s-.052-.042-.22-.162a.78.78,0,0,1-.094-.068c-.073-.1.016-.2-.01-.419-.006-.047-.021-.2-.089-.22-.047-.01-.1.048-.136.105-.053.1.01.162,0,.366a.413.413,0,0,1-.047.262c-.063.078-.136.073-.194.172-.036.058-.057.141-.026.157.042.037.173-.172.346-.152a.213.213,0,0,1,.177.131.216.216,0,0,1-.047.183.443.443,0,0,1-.2.178c-.507.256-.523.345-.758.366-.131.005-.288.021-.377-.078C30.434,39.623,30.549,39.346,30.471,39.315Z"
          style="fill:#f6df25"/>
    <path d="M31.292,38.185a.1.1,0,0,0-.094.11c.011.063.141.1.177.063a.093.093,0,0,0,0-.1C31.37,38.248,31.344,38.185,31.292,38.185Z"
          style="fill:#f6df25"/>
    <path d="M31.543,40.089c-.058.01-.125.052-.12.083s.062.048.109.048c.068-.006.136-.068.126-.1S31.59,40.084,31.543,40.089Z"
          style="fill:#f6df25"/>
    <path d="M31.009,40.225a.113.113,0,0,0,.084.146.109.109,0,0,0,.1-.083.092.092,0,0,0-.036-.1A.1.1,0,0,0,31.009,40.225Z"
          style="fill:#f6df25"/>
    <path d="M33.771,37.16a.385.385,0,0,0-.2-.241.331.331,0,0,0-.356.089c-.026.026-.042.058-.067.419-.011.219-.011.3.036.334.031.021.073.016.141.006.105-.016.137-.047.178-.032.068.026.078.141.084.162a.515.515,0,0,1-.136.351,2.614,2.614,0,0,1-.351.4c-.073.062-.161.151-.293.277a.571.571,0,0,1-.057.068c-.094.1-.131.151-.115.172s.162-.021.261-.068a.949.949,0,0,0,.178-.115c.058-.052.126-.115.209-.2a2.237,2.237,0,0,0,.3-.371,1.87,1.87,0,0,0,.2-.706A.95.95,0,0,0,33.771,37.16Zm-.183.272c-.026.068-.11.141-.162.125s-.053-.141-.053-.162c0-.12.068-.261.131-.256S33.64,37.312,33.588,37.432Z"
          style="fill:#f6df25"/>
    <path d="M34.456,36.935a.946.946,0,0,0-.256.173.557.557,0,0,0-.115.293,3.719,3.719,0,0,0-.037.423,1.293,1.293,0,0,1-.078.372,2.915,2.915,0,0,1-.189.3c-.052.073-.083.11-.068.125.021.037.168,0,.272-.078a.709.709,0,0,0,.23-.387,1.553,1.553,0,0,0,.1-.518c0-.157-.026-.267.052-.382a.5.5,0,0,1,.115-.115c.2-.157.293-.136.429-.272a.285.285,0,0,0,.115-.235c0-.021,0-.073-.042-.089-.062-.021-.136.146-.355.288C34.576,36.872,34.587,36.857,34.456,36.935Z"
          style="fill:#f6df25"/>
    <path d="M34.8,37.327a.118.118,0,0,0-.042.152c.032.042.142.026.189-.031.015-.027.036-.074.015-.1A.119.119,0,0,0,34.8,37.327Z"
          style="fill:#f6df25"/>
    <path d="M11.956,24.289s.267,2.678.874,3.284,1.422,1.266,1.522,1.716c.083.4.094,3.044.094,3.7a.282.282,0,0,0,.136.24,2.2,2.2,0,0,0,1.067.288,2.084,2.084,0,0,0,.993-.241.26.26,0,0,0,.147-.246l-.058-4.979s.047-.418-.846-1.014a10.983,10.983,0,0,1-1.146-1.2c-.142-.136-.272-.335-.5-.277-.288.068.015.528.094.664a3.981,3.981,0,0,1,.376.706,3.723,3.723,0,0,1,.189.617.5.5,0,0,1-.011.178.352.352,0,0,1-.042.12.039.039,0,0,1-.063,0,.834.834,0,0,0-.094-.094c-.073-.073-.151-.141-.23-.209,0,0-.01-.01-.016-.01a7.183,7.183,0,0,1-1.134-.754.6.6,0,0,1-.126-.3,2.339,2.339,0,0,0-.633-1.265c-.036-.026-.005-.257-.005-.3a1.594,1.594,0,0,0-.309-.988.28.28,0,0,0-.078-.079C11.883,23.682,11.935,24.179,11.956,24.289Z"
          style="fill:#ce1225"/>
    <path d="M12.558,24.174c.01.047.032.1.042.146a2.912,2.912,0,0,1,.073.419c.005.078.015.162.015.24a.314.314,0,0,0,.058.215,2.668,2.668,0,0,1,.465.831,4.022,4.022,0,0,0,.157.622,1.785,1.785,0,0,0,.492.372c.125.063.8.523.842.57.026.021.01-.052.01-.058a.642.642,0,0,0-.03-.141,1.128,1.128,0,0,0-.3-.471.984.984,0,0,0-.471-.272.108.108,0,0,1-.037-.01c-.036-.021-.047-.11-.057-.146s-.016-.084-.031-.126c-.037-.115-.079-.225-.126-.335a1.97,1.97,0,0,0-.434-.664c-.031-.026-.057-.052-.089-.078a.149.149,0,0,1-.042-.037c-.021-.031,0-.084,0-.12V24.99a2.579,2.579,0,0,0,0-.278,1.456,1.456,0,0,0-.183-.627c-.058-.1-.288-.325-.345-.105A.47.47,0,0,0,12.558,24.174Z"
          style="fill:#ce1225"/>
    <path d="M13.149,24.184a1.322,1.322,0,0,0,.036.288c.021.141.047.282.058.423,0,.084-.021.257.042.325a2.544,2.544,0,0,1,.34.476,3.491,3.491,0,0,1,.235.439c.031.073.063.146.089.225s.031.146.12.193a1.544,1.544,0,0,1,.392.262.957.957,0,0,1-.115-.241c-.052-.11-.109-.219-.162-.329-.083-.162-.167-.33-.256-.492-.037-.073-.073-.146-.115-.22-.026-.036-.11-.141-.11-.183a1.681,1.681,0,0,0-.261-1.166.331.331,0,0,0-.168-.11C13.191,24.064,13.159,24.116,13.149,24.184Z"
          style="fill:#ce1225"/>
    <path d="M13.708,24.315a.319.319,0,0,0,.021.068,2.258,2.258,0,0,1,.136.492,2.01,2.01,0,0,1,.016.261c0,.042-.005.084-.005.126a.168.168,0,0,0,.005.115.727.727,0,0,0,.084.13c.037.047.052-.021.083-.047a.245.245,0,0,1,.068-.052.356.356,0,0,0,.084-.021.033.033,0,0,0,.005-.021,2.751,2.751,0,0,0-.026-.424,1.987,1.987,0,0,0-.141-.632.226.226,0,0,0-.241-.162C13.714,24.163,13.7,24.247,13.708,24.315Z"
          style="fill:#ce1225"/>
    <path d="M15.4,33.724a1.484,1.484,0,0,1-.346-.1,2.864,2.864,0,0,1-.381-.219c-.1-.063-.251-.126-.356-.032a.265.265,0,0,0,.042.382,2.076,2.076,0,0,0,.852.387,1.83,1.83,0,0,0,.858,0,2.08,2.08,0,0,0,.853-.387.266.266,0,0,0,.041-.382c-.1-.094-.251-.031-.355.032a2.943,2.943,0,0,1-.382.219,1.48,1.48,0,0,1-.345.1A1.65,1.65,0,0,1,15.4,33.724Z"
          style="fill:#ce1225"/>
    <path d="M15.356,34.33a1.614,1.614,0,0,1-.4-.1,4.468,4.468,0,0,1-.444-.225c-.121-.057-.293-.12-.413-.031a.248.248,0,0,0,.047.387,2.782,2.782,0,0,0,.988.387,2.69,2.69,0,0,0,1,0,2.78,2.78,0,0,0,.989-.387.249.249,0,0,0,.047-.387c-.12-.089-.293-.026-.413.031a4.489,4.489,0,0,1-.445.225,1.609,1.609,0,0,1-.4.1A1.811,1.811,0,0,1,15.356,34.33Z"
          style="fill:#ce1225"/>
    <path d="M15.319,34.995a2.026,2.026,0,0,1-.45-.1,4.868,4.868,0,0,1-.5-.225.537.537,0,0,0-.471-.031c-.147.1-.079.3.057.387a3.241,3.241,0,0,0,1.119.387,3.155,3.155,0,0,0,1.13,0,3.234,3.234,0,0,0,1.119-.387c.136-.084.2-.288.053-.387a.527.527,0,0,0-.466.031,4.967,4.967,0,0,1-.5.225,2.044,2.044,0,0,1-.451.1A2.343,2.343,0,0,1,15.319,34.995Z"
          style="fill:#ce1225"/>
    <path d="M43.044,24.289s-.267,2.678-.874,3.284-1.427,1.266-1.522,1.716c-.083.4-.094,3.044-.1,3.7a.283.283,0,0,1-.135.24,2.187,2.187,0,0,1-1.068.288,2.092,2.092,0,0,1-.994-.241.279.279,0,0,1-.146-.246l.058-4.979s-.042-.418.852-1.014a11.573,11.573,0,0,0,1.145-1.2c.142-.136.272-.335.5-.277.293.068-.015.528-.089.664a3.68,3.68,0,0,0-.376.706,3.23,3.23,0,0,0-.189.617.747.747,0,0,0,.006.178.365.365,0,0,0,.047.12c.01.021.042.021.063,0,.026-.036.062-.062.089-.094.073-.073.151-.141.23-.209,0,0,.01-.01.015-.01a7.146,7.146,0,0,0,1.135-.754.606.606,0,0,0,.131-.3,2.292,2.292,0,0,1,.628-1.265c.036-.026.01-.257.01-.3a1.6,1.6,0,0,1,.3-.988.414.414,0,0,1,.084-.079C43.112,23.682,43.059,24.179,43.044,24.289Z"
          style="fill:#ce1225"/>
    <path d="M42.437,24.174a.73.73,0,0,1-.042.146,2.9,2.9,0,0,0-.068.419c-.01.078-.015.162-.021.24a.29.29,0,0,1-.057.215,2.54,2.54,0,0,0-.46.831,3.684,3.684,0,0,1-.163.622,1.709,1.709,0,0,1-.491.372c-.126.063-.79.523-.837.57-.026.021-.016-.052-.016-.058.011-.047.021-.1.032-.141a1.166,1.166,0,0,1,.3-.471.984.984,0,0,1,.471-.272.135.135,0,0,0,.042-.01c.036-.021.041-.11.052-.146l.031-.126c.037-.115.079-.225.126-.335a1.968,1.968,0,0,1,.439-.664c.026-.026.058-.052.089-.078a.13.13,0,0,0,.037-.037c.021-.031,0-.084,0-.12V24.99c0-.095,0-.183,0-.278a1.409,1.409,0,0,1,.188-.627c.052-.1.288-.325.345-.105A.4.4,0,0,1,42.437,24.174Z"
          style="fill:#ce1225"/>
    <path d="M41.846,24.184a1.029,1.029,0,0,1-.037.288,4.069,4.069,0,0,0-.052.423c0,.084.021.257-.047.325a2.544,2.544,0,0,0-.34.476,4.286,4.286,0,0,0-.235.439,1.552,1.552,0,0,0-.084.225c-.031.084-.036.146-.125.193a1.8,1.8,0,0,0-.393.262.894.894,0,0,0,.115-.241c.053-.11.11-.219.163-.329.083-.162.172-.33.256-.492.036-.073.079-.146.12-.22.021-.036.11-.141.11-.183a1.713,1.713,0,0,1,.256-1.166.331.331,0,0,1,.168-.11C41.809,24.064,41.841,24.116,41.846,24.184Z"
          style="fill:#ce1225"/>
    <path d="M41.286,24.315c-.005.026-.01.047-.015.068a1.81,1.81,0,0,0-.136.492,2.01,2.01,0,0,0-.016.261,1.062,1.062,0,0,0,.005.126c0,.041.016.078-.005.115a.544.544,0,0,1-.089.13c-.036.047-.052-.021-.078-.047a.35.35,0,0,0-.068-.052c-.021-.005-.079-.01-.084-.021a.033.033,0,0,1,0-.021,2.875,2.875,0,0,1,.021-.424,2.163,2.163,0,0,1,.141-.632.235.235,0,0,1,.246-.162C41.281,24.163,41.3,24.247,41.286,24.315Z"
          style="fill:#ce1225"/>
    <path d="M39.6,33.724a1.551,1.551,0,0,0,.341-.1,2.933,2.933,0,0,0,.386-.219c.1-.063.246-.126.356-.032s.058.3-.042.382a2.076,2.076,0,0,1-.852.387,1.851,1.851,0,0,1-.863,0,2.08,2.08,0,0,1-.853-.387c-.1-.084-.151-.288-.042-.382s.251-.031.356.032a2.947,2.947,0,0,0,.387.219,1.531,1.531,0,0,0,.34.1A1.685,1.685,0,0,0,39.6,33.724Z"
          style="fill:#ce1225"/>
    <path d="M39.639,34.33a1.5,1.5,0,0,0,.4-.1,4.489,4.489,0,0,0,.45-.225.419.419,0,0,1,.413-.031c.131.1.068.3-.052.387a2.782,2.782,0,0,1-.988.387,2.664,2.664,0,0,1-1,0,2.787,2.787,0,0,1-.989-.387c-.12-.084-.183-.288-.052-.387a.419.419,0,0,1,.413.031,4.6,4.6,0,0,0,.45.225,1.512,1.512,0,0,0,.4.1A1.775,1.775,0,0,0,39.639,34.33Z"
          style="fill:#ce1225"/>
    <path d="M39.676,34.995a2.009,2.009,0,0,0,.449-.1,4.924,4.924,0,0,0,.508-.225.523.523,0,0,1,.465-.031c.147.1.079.3-.052.387a3.313,3.313,0,0,1-1.119.387,3.183,3.183,0,0,1-1.135,0,3.313,3.313,0,0,1-1.119-.387c-.131-.084-.2-.288-.053-.387a.525.525,0,0,1,.466.031,5,5,0,0,0,.507.225,2.026,2.026,0,0,0,.45.1A2.3,2.3,0,0,0,39.676,34.995Z"
          style="fill:#ce1225"/>
</svg>
