<svg xmlns="http://www.w3.org/2000/svg" xmlns:xlink="http://www.w3.org/1999/xlink" viewBox="0 0 55 55">
  <defs>
    <clipPath id="clip-path">
      <circle cx="27.5" cy="27.5" r="23.32" fill="none"/>
    </clipPath>
  </defs>
  <g id="brl">
    <g clip-path="url(#clip-path)">
      <g>
        <path d="M-8.13,3.75V51.25H63.13V3.75ZM57.05,27.5,27.5,46.36-2.05,27.5,27.5,8.64,57.05,27.5Z" fill="#48b649"/>
        <path d="M57.05,27.5,27.5,46.36-2.05,27.5,27.5,8.64,57.05,27.5Zm-41.5-3.07a12.34,12.34,0,0,0,23.72,6.75h0a12.15,12.15,0,0,0,.43-1.91,12.33,12.33,0,0,0-23.5-6.73,12.18,12.18,0,0,0-.66,1.9Z" fill="#fcee21"/>
        <polygon points="14.81 24.59 14.81 24.59 14.81 24.59 14.81 24.59" fill="#fff"/>
        <path d="M15.55,24.43a12.34,12.34,0,0,0,23.72,6.75A28.31,28.31,0,0,0,27.93,25a28.9,28.9,0,0,0-12.38-.55Zm12.83-1.12a28.64,28.64,0,0,1,11.33,6,12.33,12.33,0,0,0-23.5-6.73,29.46,29.46,0,0,1,12.17.77Z" fill="#28449c"/>
        <path d="M28.38,23.31a29.46,29.46,0,0,0-12.17-.77,12.15,12.15,0,0,0-.66,1.9A28.89,28.89,0,0,1,27.93,25a28.33,28.33,0,0,1,11.34,6.2,12.31,12.31,0,0,0,.43-1.91,28.64,28.64,0,0,0-11.33-6Z" fill="#fff"/>
        <path d="M16.9,22.71a.52.52,0,0,1,.44.15.65.65,0,0,1,.14.2.77.77,0,0,1,.07.25.67.67,0,0,1,0,.25.51.51,0,0,1-.1.19.55.55,0,0,1-.17.13.69.69,0,0,1-.22.07.67.67,0,0,1-.23,0,.52.52,0,0,1-.19-.08.48.48,0,0,1-.14-.16.68.68,0,0,1-.07-.23.74.74,0,0,1,0-.27.66.66,0,0,1,.1-.23.6.6,0,0,1,.17-.17.55.55,0,0,1,.23-.08Zm22.24,6.41a.59.59,0,0,0-.16-.19.53.53,0,0,0-.21-.11.51.51,0,0,0-.23,0,.57.57,0,0,0-.21.1.84.84,0,0,0-.31.43.64.64,0,0,0,0,.24.56.56,0,0,0,.07.22.57.57,0,0,0,.15.18.54.54,0,0,0,.21.11.53.53,0,0,0,.22,0,.61.61,0,0,0,.22-.09.81.81,0,0,0,.32-.42.66.66,0,0,0,0-.25.59.59,0,0,0-.07-.23Zm-.17.41h0a.61.61,0,0,1-.09.17.63.63,0,0,1-.13.13.42.42,0,0,1-.14.06.31.31,0,0,1-.14,0,.32.32,0,0,1-.13-.06.33.33,0,0,1-.09-.11.32.32,0,0,1,0-.14.48.48,0,0,1,0-.16.65.65,0,0,1,.09-.17.61.61,0,0,1,.13-.13.39.39,0,0,1,.14-.07.29.29,0,0,1,.14,0,.32.32,0,0,1,.13.06.35.35,0,0,1,.09.11.35.35,0,0,1,0,.14.45.45,0,0,1,0,.16Zm-1.12-1.43A.62.62,0,0,0,37.7,28a.54.54,0,0,0-.17-.08.41.41,0,0,0-.16,0,.33.33,0,0,0-.14,0,.34.34,0,0,0-.11.11.37.37,0,0,0-.05.12.3.3,0,0,0,0,.12.45.45,0,0,0,.06.13l.12.15.11.12.06.09a.16.16,0,0,1,0,.07.12.12,0,0,1,0,.06l-.05,0H37.3l-.08,0-.09,0L37,28.81a.25.25,0,0,1,0-.09.26.26,0,0,1,0-.11.28.28,0,0,1,0-.11l-.18-.13a.56.56,0,0,0-.07.18.41.41,0,0,0,0,.18.48.48,0,0,0,.08.18.69.69,0,0,0,.16.16.53.53,0,0,0,.16.08.43.43,0,0,0,.16,0,.37.37,0,0,0,.15,0,.36.36,0,0,0,.12-.11.37.37,0,0,0,.06-.12.3.3,0,0,0,0-.11.38.38,0,0,0,0-.11l-.06-.1-.07-.09-.08-.09-.07-.08,0-.07a.11.11,0,0,1,0-.05.09.09,0,0,1,0,0,.12.12,0,0,1,.11-.06.3.3,0,0,1,.16.07.23.23,0,0,1,.09.33l.18.13a.46.46,0,0,0,.07-.17.41.41,0,0,0,0-.18.49.49,0,0,0-.08-.16Zm-1.25-.85a.6.6,0,0,0-.15-.13.56.56,0,0,0-.17-.07.43.43,0,0,0-.16,0,.32.32,0,0,0-.14.05.31.31,0,0,0-.1.11.31.31,0,0,0,0,.12.26.26,0,0,0,0,.12.44.44,0,0,0,.07.13l.12.14.11.11.06.09a.15.15,0,0,1,0,.07.13.13,0,0,1,0,.06l-.05,0-.07,0-.08,0-.09,0L35.83,28a.25.25,0,0,1-.05-.09.24.24,0,0,1,0-.1.3.3,0,0,1,0-.11l-.19-.12a.53.53,0,0,0-.07.18.41.41,0,0,0,0,.18.47.47,0,0,0,.08.17.69.69,0,0,0,.17.15.55.55,0,0,0,.17.08.44.44,0,0,0,.16,0,.34.34,0,0,0,.14-.05.35.35,0,0,0,.11-.11.31.31,0,0,0,.05-.23.37.37,0,0,0,0-.1l-.06-.1-.08-.09-.08-.08-.08-.08,0-.07a.12.12,0,0,1,0-.05.08.08,0,0,1,0,0,.12.12,0,0,1,.1-.06.31.31,0,0,1,.17.06.23.23,0,0,1,.1.32l.18.12a.45.45,0,0,0,.06-.17.38.38,0,0,0,0-.17.45.45,0,0,0-.08-.15Zm-1.22-.48.11-.19-.8-.45c-.24.43-.35.63-.59,1.06l.79.46.11-.18-.6-.35.16-.27.55.32L35.2,27l-.55-.32.14-.24.59.34Zm-1.32-.88,0-.07L34,25.76l-.07,0-.08,0-.5-.24-.54,1.06.2.1.22-.43.22.11.06,0,0,.06a.21.21,0,0,1,0,.06.24.24,0,0,1,0,.07l-.05.34.21.11.06-.37a.93.93,0,0,0,0-.22.73.73,0,0,0,.19,0,.33.33,0,0,0,.14-.14l0-.07a.48.48,0,0,0,0-.07.39.39,0,0,0,0-.08.28.28,0,0,0,0-.07Zm-.23.19h0l0,.06-.06,0h-.08l-.1,0L33.27,26l.14-.28.29.14a.26.26,0,0,1,.12.1.14.14,0,0,1,0,.13Zm-1.29-1a.66.66,0,0,0-.18-.11.65.65,0,0,0-.24-.06.54.54,0,0,0-.41.17.7.7,0,0,0-.14.22.79.79,0,0,0-.06.25.57.57,0,0,0,0,.22.5.5,0,0,0,.12.18.59.59,0,0,0,.2.13.63.63,0,0,0,.19.05.43.43,0,0,0,.17,0v.09l.15.07.28-.58-.48-.21-.08.19.27.12-.05.11a.33.33,0,0,1-.17,0,.5.5,0,0,1-.19,0,.34.34,0,0,1-.12-.08.31.31,0,0,1-.07-.12.4.4,0,0,1,0-.15.6.6,0,0,1,0-.17.59.59,0,0,1,.1-.15.37.37,0,0,1,.12-.09.3.3,0,0,1,.14,0,.38.38,0,0,1,.14,0l.1.06.07.08a.21.21,0,0,1,0,.09.25.25,0,0,1,0,.1l.21.1a.44.44,0,0,0,0-.18.43.43,0,0,0,0-.17.53.53,0,0,0-.12-.15Zm-1.43-.55a.62.62,0,0,0-.21-.12.63.63,0,0,0-.24,0,.55.55,0,0,0-.22.05.57.57,0,0,0-.18.14.75.75,0,0,0-.17.47.57.57,0,0,0,0,.22.52.52,0,0,0,.13.18.63.63,0,0,0,.43.16.55.55,0,0,0,.21-.05.59.59,0,0,0,.18-.14.71.71,0,0,0,.13-.22.67.67,0,0,0,.05-.25.53.53,0,0,0,0-.22.52.52,0,0,0-.13-.18Zm-.1.57h0a.56.56,0,0,1-.09.15.4.4,0,0,1-.12.1.31.31,0,0,1-.13,0,.34.34,0,0,1-.14,0,.33.33,0,0,1-.12-.07.31.31,0,0,1-.07-.11.39.39,0,0,1,0-.15.53.53,0,0,1,0-.17.55.55,0,0,1,.09-.15.37.37,0,0,1,.12-.1.32.32,0,0,1,.13,0,.37.37,0,0,1,.14,0,.34.34,0,0,1,.12.07.29.29,0,0,1,.08.11.35.35,0,0,1,0,.15.52.52,0,0,1,0,.17Zm-1.28-1L29.67,24l-.07,0-.08,0-.09,0-.53-.16-.33,1.14.21.06.14-.46.23.07.06,0,0,0,0,.06a.31.31,0,0,1,0,.07c0,.14,0,.2,0,.34l.23.07c0-.15,0-.22,0-.37a1,1,0,0,0-.06-.21.67.67,0,0,0,.18-.07.33.33,0,0,0,.11-.16.43.43,0,0,0,0-.07.46.46,0,0,0,0-.07.32.32,0,0,0,0-.07l0-.07Zm-.19.22h0a.21.21,0,0,1,0,.07l-.05,0h-.08l-.1,0L29,24.29l.09-.3.31.09a.26.26,0,0,1,.14.08.13.13,0,0,1,0,.13Zm-1.27-.69-.09-.07-.11-.05-.13,0-.49-.11-.29,1.15.23.05.11-.43.26.06a.62.62,0,0,0,.38,0,.35.35,0,0,0,.2-.24.38.38,0,0,0,0-.13.28.28,0,0,0,0-.1.29.29,0,0,0-.06-.08Zm-.17.26h0a.19.19,0,0,1,0,.07L28,24h-.2l-.26-.06.08-.32.26.06.09,0,.07,0a.13.13,0,0,1,0,.06.14.14,0,0,1,0,.08Zm-2.35.34-.83-.14.17-1,.84.14,0,.18-.63-.11,0,.24.58.1,0,.18-.58-.1,0,.27.63.11,0,.18Zm-2.21-.32-.21,0,.07-.75-.32.72-.18,0-.2-.77c0,.3,0,.45-.05.74l-.21,0c0-.45,0-.69.07-1.18l.29,0,.21.87.35-.81.29,0c0,.48-.07.71-.12,1.17Zm-1.62-.11-.9,0c0-.44,0-.68,0-1.19l.9,0c0,.09,0,.13,0,.21l-.67,0c0,.11,0,.17,0,.27l.63,0c0,.08,0,.12,0,.2l-.62,0c0,.12,0,.18,0,.3l.68,0v.19Zm-1.43-.62c0,.4-.21.57-.61.58H19.5c0-.43,0-.66,0-1.19h.4a.55.55,0,0,1,.62.61Zm-.23,0h0a.76.76,0,0,0,0-.16.3.3,0,0,0-.06-.12.29.29,0,0,0-.12-.08.54.54,0,0,0-.19,0H19.7c0,.33,0,.49,0,.78h.17a.58.58,0,0,0,.18,0,.28.28,0,0,0,.12-.08.27.27,0,0,0,.06-.12.69.69,0,0,0,0-.16ZM19,23.76h-.24l-.13-.29,0-.06,0,0-.06,0h-.07l-.24,0c0,.19,0,.27,0,.44l-.22,0c0-.41,0-.65-.08-1.2l.55,0h.18l.08,0,.07,0,.05.06,0,.07,0,.08a.44.44,0,0,1,0,.08.35.35,0,0,1,0,.2.63.63,0,0,1-.14.13,1.09,1.09,0,0,1,.13.17l.14.32Zm-.83-.6h0l.3,0,.1,0,.07,0a.11.11,0,0,0,0-.05.22.22,0,0,0,0-.08.15.15,0,0,0-.06-.12.24.24,0,0,0-.16,0l-.33,0c0,.14,0,.2,0,.33ZM17,23.77h0l.13,0a.29.29,0,0,0,.1-.09.35.35,0,0,0,.06-.13.55.55,0,0,0,0-.17.54.54,0,0,0,0-.18.39.39,0,0,0-.09-.13.3.3,0,0,0-.12-.08.32.32,0,0,0-.14,0,.33.33,0,0,0-.24.15.43.43,0,0,0-.06.15.63.63,0,0,0,0,.18.52.52,0,0,0,0,.17.34.34,0,0,0,.09.11.31.31,0,0,0,.12.06Z" fill="#2ab34b"/>
        <path d="M18.52,29.94l.12.37H19l-.31.23.12.37-.31-.23-.31.23.12-.37L18,30.31h.39l.12-.37Zm9,7,0,.13h.13l-.11.08,0,.13-.11-.08-.11.08,0-.13-.11-.08h.13l0-.12Zm2.71-2.9.08.23h.25l-.2.14.08.23-.2-.14-.2.14.08-.23-.2-.14h.25l.08-.23Zm2,.32.08.23h.25l-.2.14.08.23-.2-.15L32,35l.08-.23-.2-.14h.25l.08-.23ZM33.62,34l.08.23h.25l-.2.14.08.23-.2-.14-.2.14.08-.23-.2-.14h.24l.08-.23Zm4.23-2.35.08.23h.25L38,32l.08.23-.2-.14-.2.14.08-.23-.2-.14h.25l.08-.23Zm-4.2,4.82.08.23H34l-.2.14.08.23-.2-.14-.2.14.08-.23-.2-.14h.25l.08-.23Zm1.25-2.21.08.23h.25l-.2.14.08.23-.2-.14-.2.14.08-.23-.2-.14h.24l.08-.23Zm-4-7.65.08.23h.24l-.2.14.08.23-.2-.14-.2.14.08-.23-.2-.14h.25l.08-.23Zm-4.59,3.69.08.23h.25l-.2.14.08.23-.2-.14-.2.14.08-.23-.2-.14h.25l.08-.23Zm-9.23,1,.08.23h.25l-.2.14.08.23-.2-.14-.2.14.08-.23-.2-.14h.25l.08-.23Zm19.62,1.27.1.3h.31L36.8,33l.1.3-.25-.19-.25.19.1-.3-.25-.19h.32l.1-.3Zm-.76,1,.1.3h.31L36,34l.1.3-.25-.19-.25.19.1-.3-.25-.19h.31l.1-.3Zm-4.69,1.88.1.3h.32l-.26.19.1.3L31.19,36l-.25.19.1-.3-.25-.19h.31l.1-.3Zm2.49-.29.1.3h.31l-.25.19.1.3-.25-.19-.25.19.1-.3-.25-.19h.31l.1-.3Zm-13-2.58.1.3h.31l-.25.19.1.3-.25-.19-.25.19.1-.3-.25-.19h.31l.1-.3Zm8.21-2.34.1.3h.31l-.25.19.1.3-.25-.19-.25.19.1-.3-.25-.19h.31l.1-.3Zm-1.42-1.1.1.3h.31l-.25.19.1.3-.25-.19-.25.19.1-.3-.26-.19h.32l.1-.3Zm-4.7-1.5.1.3h.32L23,28l.1.3-.26-.18-.25.18.1-.3-.25-.19h.31l.1-.3Zm-1.71,3.72.1.3h.32l-.26.19.1.3-.25-.19-.26.19.1-.3-.26-.19H21l.1-.3Zm5.79-.07.05.16h.17l-.14.1.05.16-.14-.1-.14.1.05-.16-.14-.1h.17l.05-.16Zm-7.13-1.73.05.16H20l-.14.1.05.16-.14-.1-.14.1.05-.16-.14-.1h.17l.05-.16Zm11.6-6.34.12.37h.39l-.31.23.12.37-.31-.23-.31.23.12-.37-.31-.23h.39l.12-.37Zm4.8,8.15.12.37h.39l-.31.23.12.37L36.14,32l-.31.23.12-.37-.31-.23H36l.12-.37ZM17.43,24.76l.12.37h.39l-.31.23.12.37-.31-.23-.31.23.12-.37-.31-.23h.39l.12-.37ZM27.5,32.5l.12.37H28l-.31.23.12.37-.31-.23-.31.23.12-.37L27,32.87h.39l.12-.37Zm-5,1,.12.37h.39l-.31.23.12.37-.31-.23-.31.23.12-.37L22,33.88h.39l.12-.37Z" fill="#fff"/>
      </g>
    </g>
  </g>
</svg>
