<?xml version="1.0" encoding="utf-8"?>
<!-- Generator: Adobe Illustrator 22.1.0, SVG Export Plug-In . SVG Version: 6.00 Build 0)  -->
<svg version="1.1" id="Layer_1" xmlns="http://www.w3.org/2000/svg" xmlns:xlink="http://www.w3.org/1999/xlink" x="0px" y="0px"
	 viewBox="0 0 55 55" style="enable-background:new 0 0 55 55;" xml:space="preserve">
<style type="text/css">
	.st0{fill:#F7931A;}
	.st1{fill:#FFFFFF;}
</style>
<g id="btc_x5F_55">
	<path class="st0" d="M50.1,33.2c-3.2,12.5-15.8,20.1-28.3,17C9.6,47.3,2,34.9,4.7,22.3c0-0.2,0.1-0.3,0.1-0.5
		C8,9.4,20.6,1.8,33.1,4.9S53.2,20.7,50.1,33.2L50.1,33.2z"/>
	<path class="st1" d="M37.8,24.2c0.5-3.1-1.9-4.8-5.1-5.9l1.1-4.2l-2.5-0.6l-1,4.1c-0.7-0.2-1.4-0.3-2-0.5l1-4.1l-2.5-0.6l-1,4.2
		l-5.2-1.3L19.6,18c0,0,1.9,0.4,1.9,0.5c0.7,0.1,1.3,0.7,1.2,1.4l-2.9,11.6c-0.2,0.5-0.7,0.8-1.2,0.6l-1.9-0.5l-1.3,2.9l5.2,1.3
		l-1.1,4.2l2.5,0.6l1.1-4.2c0.7,0.2,1.4,0.4,2,0.5l-1,4.2l2.5,0.6l1.1-4.2c4.4,0.8,7.6,0.5,9-3.5c1.1-3.2,0-5-2.4-6.2
		C36.3,27.6,37.7,26,37.8,24.2L37.8,24.2z M31.9,32.4c-0.8,3.2-6.1,1.5-7.9,1l1.4-5.6C27.2,28.2,32.7,29.1,31.9,32.4L31.9,32.4z
		 M32.7,24.1c-0.7,2.9-5.2,1.4-6.6,1l1.3-5.1C28.8,20.5,33.5,21.1,32.7,24.1L32.7,24.1z"/>
</g>
</svg>
