<svg xmlns="http://www.w3.org/2000/svg" viewBox="0 0 55 55"><path d="M50.8,27.5a22.987,22.987,0,0,1-.324,3.865c-.11.664-.246,1.318-.413,1.967a23.305,23.305,0,0,1-45.125,0c-.168-.649-.3-1.3-.414-1.967a23.215,23.215,0,0,1,0-7.73c.11-.664.246-1.318.414-1.967a23.305,23.305,0,0,1,45.125,0c.167.649.3,1.3.413,1.967A23.031,23.031,0,0,1,50.8,27.5Z" style="fill:#75aada"/><path d="M50.8,27.5a22.987,22.987,0,0,1-.324,3.865c-.11.664-.246,1.318-.413,1.967H4.938c-.168-.649-.3-1.3-.414-1.967a23.215,23.215,0,0,1,0-7.73c.11-.664.246-1.318.414-1.967H50.063c.167.649.3,1.3.413,1.967A23.031,23.031,0,0,1,50.8,27.5Z" style="fill:#fff"/><path d="M50.8,27.5a22.987,22.987,0,0,1-.324,3.865H4.524a23.215,23.215,0,0,1,0-7.73H50.476A23.031,23.031,0,0,1,50.8,27.5Z"/></svg>