<svg xmlns="http://www.w3.org/2000/svg" viewBox="0 0 55 55"><path d="M27.5,4.2A23.114,23.114,0,0,0,14.545,8.149V9.571h0v.753h0V15.6h0v.832h0v4.555h0v.832h0V33.18h0v.831h0v1.256H49.472A23.311,23.311,0,0,0,27.5,4.2Z" style="fill:#c7313d"/><path d="M14.545,35.518v3.049h0V39.4h0V44.67h0v.753h0v1.428A23.114,23.114,0,0,0,27.5,50.8,23.35,23.35,0,0,0,49.472,35.267H14.545Z" style="fill:#48a558"/><path d="M4.634,30.183v-.748H5.11V28.7h.455V27.96h.413v-.925H5.565V26.3H5.11V25.56H4.634v-.748H4.357a23.046,23.046,0,0,0,0,5.371Z" style="fill:#fff"/><path d="M5.053,23.279v.79h.491v.743h.393v-.743H6.4v-.743h.455v-.748h.455v-.747h.517v-.848H8.29v-.8H7.861v-.706H7.312v-.8H5.957v.8h.91v.706h-.4v.8H6.01v.785H5.544v-.785H5.131c-.2.665-.361,1.339-.5,2.03v.266Z" style="fill:#fff"/><path d="M10.466,11.621c-.079.084-.162.173-.236.262h.236Z" style="fill:#fff"/><rect x="10.476" y="12.61" width="0.486" height="0.753" style="fill:#fff"/><polygon points="14.111 31.715 13.693 31.715 13.693 30.926 13.201 30.926 13.201 30.183 12.803 30.183 12.803 30.926 12.348 30.926 12.348 31.668 11.893 31.668 11.893 32.416 11.438 32.416 11.438 33.159 10.915 33.159 10.915 34.011 10.45 34.011 10.45 34.812 10.884 34.812 10.884 35.267 11.878 35.267 11.878 34.812 12.275 34.812 12.275 34.011 12.736 34.011 12.736 33.227 13.201 33.227 13.201 34.011 13.661 34.011 13.661 34.812 14.053 34.812 14.053 35.267 14.545 35.267 14.545 34.011 14.111 34.011 14.111 33.18 14.545 33.18 14.545 32.479 14.111 32.479 14.111 31.715" style="fill:#fff"/><path d="M10.079,22.578H9.624v-.747h-.5v.747H8.666v.748H8.211v.743h-.46v.743H7.307v.748H6.852v3.875h.455v.748h.444v.743h.46v.742h.455v.748h.456v.743h.5v-.743h.455v-.748h.455v-.742h.46v-.743h.444v-.748h.455V25.56h-.455v-.748h-.444v-.743h-.46v-.743h-.455Zm-2.286,5.3H7.307v-.759h.486Zm3.159-.759h.486v.759h-.486ZM9.127,23.305h.486v.759H9.127Zm.486,8.379H9.127v-.753h.486Zm.837-6.857v1.538H9.995v.706H9.577v.847h.418v.712h.455v1.537h-.413v-.826h-.46V28.63H9.169v.711h-.46v.826H8.3V28.63H8.75v-.712h.419v-.847H8.75v-.706H8.3V24.827h.414v.827h.46v.711h.408v-.711h.46v-.827Z" style="fill:#fff"/><polygon points="14.111 25.56 13.635 25.56 13.635 26.297 13.18 26.297 13.18 27.035 12.762 27.035 12.762 27.96 13.18 27.96 13.18 28.698 13.635 28.698 13.635 29.435 14.111 29.435 14.111 30.183 14.545 30.183 14.545 24.812 14.111 24.812 14.111 25.56" style="fill:#fff"/><rect x="13.175" y="12.61" width="0.492" height="0.753" style="fill:#fff"/><path d="M14.1,8.75h-.419c-.01.011-.021.016-.031.026v.733h-.466v.753h-.392v.774h-.439v.8h-.539v-.795H11.37V10.7c-.136.131-.272.261-.4.4h.005v.785h.4v.743h.471v.721h-.471v.743h-.4v.785h-.507V14.09h-.4v-.743H9.6v-.721h.465v-.56c-.319.356-.622.722-.915,1.093v.188H9c-.11.142-.214.288-.319.435v.308H8.457c-.062.089-.12.173-.183.262v.523H7.929c-.162.251-.318.5-.471.758h.366v.8h.44v.727h.45v.758h.434v.759H9.6v-.759h.434v-.758h.449v-.727h.44v-.8h.439v-.795h.487v-.732H12.3v.732h.487v.8h.439v.8h.439v.727h.45v.758h.434V16.428h-.434V15.6h.434V13.347h-.471v.743h-.4v.785H13.17V14.09h-.408v-.743H12.3v-.721h.466v-.743h.408V11.1h.507v.785h.4v.743h.471v-2.3h-.429V9.571h.429V8.149c-.152.094-.3.2-.444.3ZM9.582,16.428H9.148v-1.59h.434Z" style="fill:#fff"/><polygon points="14.053 20.183 13.661 20.183 13.661 20.983 13.201 20.983 13.201 21.768 12.736 21.768 12.736 20.983 12.275 20.983 12.275 20.183 11.878 20.183 11.878 19.477 12.783 19.477 12.783 18.672 11.418 18.672 11.418 19.477 10.874 19.477 10.874 20.183 10.439 20.183 10.439 20.983 10.905 20.983 10.905 21.831 11.438 21.831 11.438 22.578 11.893 22.578 11.893 23.326 12.348 23.326 12.348 24.069 12.803 24.069 12.803 24.812 13.201 24.812 13.201 24.069 13.693 24.069 13.693 23.279 14.111 23.279 14.111 22.516 14.545 22.516 14.545 21.815 14.111 21.815 14.111 20.983 14.545 20.983 14.545 19.477 14.053 19.477 14.053 20.183" style="fill:#fff"/><path d="M5.544,33.227H6.01v.784h.46v.8h.4v.455h1v-.455h.434v-.8H7.84v-.852H7.307v-.743H6.852v-.748H6.4v-.742h-.46v-.743H5.544v.743H5.053v.789H4.634v.272c.136.686.3,1.36.5,2.024h.413Z" style="fill:#fff"/><rect x="14.053" y="35.267" width="0.492" height="0.251" style="fill:#fff"/><polygon points="11.433 35.518 11.433 36.323 12.783 36.323 12.783 35.518 11.878 35.518 11.878 35.267 10.884 35.267 10.884 35.518 11.433 35.518" style="fill:#fff"/><polygon points="6.867 35.518 5.957 35.518 5.957 36.323 7.328 36.323 7.328 35.518 7.872 35.518 7.872 35.267 6.867 35.267 6.867 35.518" style="fill:#fff"/><path d="M14.116,45.423V44.67h.429v-2.3h-.471v.743h-.4V43.9H13.17v-.784h-.408v-.743H12.3v-.722h.466V40.9h.408V40.12h.507V40.9h.4v.748h.471V39.4h-.434v-.831h.434V37.082h-.434v.758h-.45v.727h-.439v.8h-.439v.795H12.3v.727h-.449v-.727H11.36v-.795h-.439v-.8h-.44V37.84h-.449v-.758H9.6v-.759h-.45v.759H8.714v.758h-.45v.727h-.44v.8h-.37c.151.256.308.507.47.758h.35v.528c.058.084.121.168.178.251h.23v.319c.105.147.209.288.319.429h.147v.194c.293.371.6.737.915,1.093v-.565H9.6v-.722h.465V40.9h.4V40.12h.507V40.9h.4v.748h.471v.722h-.471v.743h-.4V43.9h-.011c.136.136.272.267.408.4v-.34h.445v-.8h.539v.8h.439v.774h.392v.758h.466v.733a.092.092,0,0,1,.026.021H14.1v.3c.146.1.292.2.444.3V45.423ZM9.6,40.157H9.163v-1.59H9.6Z" style="fill:#fff"/><rect x="13.175" y="41.632" width="0.492" height="0.753" style="fill:#fff"/><path d="M10.226,43.112c.078.094.156.178.24.267v-.267Z" style="fill:#fff"/><rect x="10.476" y="41.632" width="0.486" height="0.753" style="fill:#fff"/><rect x="14.111" y="15.596" width="0.434" height="0.832" style="fill:#c7313d"/><rect x="14.111" y="20.983" width="0.434" height="0.832" style="fill:#c7313d"/><rect x="9.148" y="14.838" width="0.434" height="1.59" style="fill:#c7313d"/><path d="M8.682,14.09v-.308c-.078.1-.151.2-.225.308Z" style="fill:#c7313d"/><path d="M9.148,13.347v-.188c-.047.063-.1.126-.147.188Z" style="fill:#c7313d"/><path d="M8.274,14.352c-.12.167-.235.345-.345.523h.345Z" style="fill:#c7313d"/><path d="M9.6,12.626v.721h.465v.743h.4v.785h.507V14.09h.4v-.743h.471v-.721h-.471v-.743h-.4V11.1h-.005c-.173.168-.34.346-.5.523v.262H10.23c-.057.058-.115.12-.167.183v.56Zm.878-.016h.486v.753h-.486Z" style="fill:#c7313d"/><path d="M14.074,11.883h-.4V11.1H13.17v.785h-.408v.743H12.3v.721h.466v.743h.408v.785h.507V14.09h.4v-.743h.471v-.721h-.471Zm-.408,1.48h-.491V12.61h.491Z" style="fill:#c7313d"/><rect x="14.116" y="9.571" width="0.429" height="0.753" style="fill:#c7313d"/><path d="M11.815,11.036v.8h.539v-.795h.439v-.774h.392V9.509h.466V8.776A23.6,23.6,0,0,0,11.37,10.7v.335Z" style="fill:#c7313d"/><path d="M14.1,8.452c-.142.094-.278.194-.419.3H14.1Z" style="fill:#c7313d"/><path d="M6.867,34.812h-.4v-.8H6.01v-.784H5.544v.784H5.131c.12.424.256.842.4,1.256H6.867Z" style="fill:#c7313d"/><path d="M14.111,17.155h-.45v-.727h-.439v-.8h-.439v-.795H12.3v-.732h-.449v.732H11.36v.8h-.439v.8h-.44v.727h-.449v.758H9.6v.759h-.45v-.759H8.714v-.758h-.45v-.727h-.44v-.8H7.458a22.953,22.953,0,0,0-2.327,5.35h.413v.785H6.01v-.785h.46v-.8h.4v-.706h-.91v-.8H7.312v.8h.549v.706H8.29v.8H7.824v.848H7.307v.747H6.852v.748H6.4v.743h-.46v.743H5.544v-.743H5.053v-.79H4.634v-.266c-.115.591-.209,1.192-.277,1.8h.277v.748H5.11V26.3h.455v.738h.413v.925H5.565V28.7H5.11v.737H4.634v.748H4.357c.068.607.162,1.208.277,1.8v-.272h.419v-.789h.491v-.743h.393v.743H6.4v.742h.455v.748h.455v.743H7.84v.852h.466v.8H7.872v.455h3.012v-.455H10.45v-.8h.465v-.852h.523v-.743h.455v-.748h.455v-.742H12.8v-.743h.4v.743h.492v.789h.418v.764h.434v-2.3h-.434v-.748h-.476V28.7H13.18V27.96h-.418v-.925h.418V26.3h.455V25.56h.476v-.748h.434v-2.3h-.434v.763h-.418v.79H13.2v.743h-.4v-.743h-.455v-.743h-.455v-.748h-.455v-.747h-.533v-.848h-.466v-.8h.435v-.706h.544v-.8h1.365v.8h-.9v.706h.4v.8h.461v.785H13.2v-.785h.46v-.8h.392v-.706h.492V17.913h-.434Zm-3.577,6.171v.743h.46v.743h.444v.748h.455v3.875h-.455v.748h-.444v.743h-.46v.742h-.455v.748H9.624v.743h-.5v-.743H8.666v-.748H8.211v-.742h-.46v-.743H7.307v-.748H6.852V25.56h.455v-.748h.444v-.743h.46v-.743h.455v-.748h.456v-.747h.5v.747h.455v.748Z" style="fill:#c7313d"/><polygon points="14.053 34.812 13.661 34.812 13.661 34.011 13.201 34.011 13.201 33.227 12.736 33.227 12.736 34.011 12.275 34.011 12.275 34.812 11.878 34.812 11.878 35.267 14.053 35.267 14.053 34.812" style="fill:#c7313d"/><path d="M14.053,35.267H11.878v.251h.9v.8h-1.35v-.8h-.549v-.251H7.872v.251H7.328v.8H5.957v-.8h.91v-.251H5.534a23.434,23.434,0,0,0,1.92,4.095h.37v-.8h.44V37.84h.45v-.758h.434v-.759H9.6v.759h.434v.758h.449v.727h.44v.8h.439v.795h.487v.727H12.3v-.727h.487v-.795h.439v-.8h.439V37.84h.45v-.758h.434V35.518h-.492Z" style="fill:#c7313d"/><rect x="14.111" y="38.567" width="0.434" height="0.832" style="fill:#c7313d"/><rect x="14.111" y="33.18" width="0.434" height="0.832" style="fill:#c7313d"/><rect x="9.163" y="38.567" width="0.435" height="1.59" style="fill:#c7313d"/><path d="M14.074,40.9h-.4V40.12H13.17V40.9h-.408v.748H12.3v.722h.466v.743h.408V43.9h.507v-.784h.4v-.743h.471v-.722h-.471Zm-.408,1.486h-.491v-.753h.491Z" style="fill:#c7313d"/><path d="M10.466,43.112v.267c.162.172.329.345.5.517h.011v-.784h.4v-.743h.471v-.722h-.471V40.9h-.4V40.12h-.507V40.9h-.4v.748H9.6v.722h.465v.565c.052.063.1.12.163.178Zm.01-1.48h.486v.753h-.486Z" style="fill:#c7313d"/><path d="M8.682,40.9h-.23c.073.11.152.215.23.319Z" style="fill:#c7313d"/><path d="M9.148,41.647H9c.047.063.094.131.147.194Z" style="fill:#c7313d"/><path d="M8.274,40.12h-.35c.115.178.23.356.35.528Z" style="fill:#c7313d"/><rect x="14.116" y="44.67" width="0.429" height="0.753" style="fill:#c7313d"/><path d="M13.651,45.491h-.466v-.758h-.392v-.774h-.439v-.8h-.539v.8H11.37v.34a23.6,23.6,0,0,0,2.281,1.925Z" style="fill:#c7313d"/><path d="M14.1,46.245h-.424c.141.1.282.2.424.3Z" style="fill:#c7313d"/><rect x="7.307" y="27.118" width="0.486" height="0.758" style="fill:#c7313d"/><rect x="10.952" y="27.118" width="0.486" height="0.758" style="fill:#c7313d"/><rect x="9.127" y="30.931" width="0.486" height="0.753" style="fill:#c7313d"/><rect x="9.127" y="23.305" width="0.486" height="0.758" style="fill:#c7313d"/><polygon points="10.037 25.654 9.577 25.654 9.577 26.365 9.169 26.365 9.169 25.654 8.709 25.654 8.709 24.827 8.295 24.827 8.295 25.654 8.295 26.365 8.75 26.365 8.75 27.071 9.169 27.071 9.169 27.918 8.75 27.918 8.75 28.63 8.295 28.63 8.295 29.341 8.295 30.167 8.709 30.167 8.709 29.341 9.169 29.341 9.169 28.63 9.577 28.63 9.577 29.341 10.037 29.341 10.037 30.167 10.45 30.167 10.45 29.341 10.45 28.63 9.995 28.63 9.995 27.918 9.577 27.918 9.577 27.071 9.995 27.071 9.995 26.365 10.45 26.365 10.45 25.654 10.45 24.827 10.037 24.827 10.037 25.654" style="fill:#c7313d"/></svg>