<svg xmlns="http://www.w3.org/2000/svg" xmlns:xlink="http://www.w3.org/1999/xlink" viewBox="0 0 55 55">
    <clipPath id="a">
        <circle cx="27.5" cy="27.5" r="23.3" fill="none"/>
    </clipPath>
    <g clip-path="url(#a)">
        <polygon points="9.98 4.18 45.02 4.18 45.02 50.82 9.98 50.82 9.98 4.18 9.98 4.18" fill="#f1f0f0"
                 fill-rule="evenodd"/>
        <polygon points="-7.48 4.18 9.98 4.18 9.98 50.82 -7.48 50.82 -7.48 4.18 -7.48 4.18" fill="#ee2724"
                 fill-rule="evenodd"/>
        <polygon points="45.02 4.18 62.48 4.18 62.48 50.82 45.02 50.82 45.02 4.18 45.02 4.18" fill="#ee2724"
                 fill-rule="evenodd"/>
        <path d="M27.44,12.66s2.07,3.89,2.36,4.39.59.57,1.31.23,1.75-.9,1.75-.9-1.16,6-1.34,7,.47,1.31,1.11.58,3-3.37,3-3.37.34,1.21.44,1.59.3.64,1,.51,3.59-.77,3.59-.77-1,3.61-1.12,4.09-.21.66.37,1,1.31.62,1.31.62-5.93,4.89-6.44,5.27-.61.61-.36,1.4.45,1.57.45,1.57l-6.51-.91c-.65-.09-.58.6-.57,1s.17,6.55.17,6.55H26.92s.16-6.19.17-6.55.08-1-.57-1L20,35.85s.2-.78.45-1.57.15-1-.36-1.4-6.44-5.27-6.44-5.27.72-.33,1.31-.62.48-.48.37-1-1.12-4.09-1.12-4.09,2.89.63,3.59.77.9-.13,1-.51.44-1.59.44-1.59,2.36,2.63,3,3.37,1.29.4,1.11-.58-1.34-7-1.34-7,1,.57,1.75.9,1,.27,1.31-.23,2.36-4.39,2.36-4.39Z"
              fill="#ee2724" fill-rule="evenodd"/>
    </g>
</svg>
