<svg xmlns="http://www.w3.org/2000/svg" viewBox="0 0 55 55"><path d="M45.125,12.27,5.769,35.9c-.245-.618-.454-1.25-.643-1.889l38.63-23.19C44.231,11.287,44.686,11.768,45.125,12.27Z" style="fill:#f6d524"/><path d="M43.756,10.821,5.126,34.011a23.293,23.293,0,0,1,38.63-23.19Z" style="fill:#0f7ffd"/><path d="M50.8,27.5A23.29,23.29,0,0,1,11.245,44.179l38.63-23.185A23.067,23.067,0,0,1,50.8,27.5Z" style="fill:#0f7ffd"/><path d="M49.236,19.106,9.88,42.73A23.3,23.3,0,0,1,5.769,35.9L45.125,12.27A23.249,23.249,0,0,1,49.236,19.106Z" style="fill:#cd1120"/><path d="M49.875,20.994,11.245,44.179c-.471-.466-.931-.947-1.365-1.449L49.236,19.106C49.477,19.723,49.691,20.35,49.875,20.994Z" style="fill:#f6d524"/><polygon points="17.228 8.551 18.965 13.891 24.576 13.891 20.037 17.192 21.773 22.531 17.228 19.231 12.689 22.531 14.42 17.192 9.88 13.891 15.492 13.891 17.228 8.551" style="fill:#f6d524"/></svg>