<svg xmlns="http://www.w3.org/2000/svg" viewBox="0 0 55 55"><path d="M27.5,4.2A23.327,23.327,0,0,0,4.2,27.5H27.5Z" style="fill:#0739a4"/><path d="M50.8,27.5A23.33,23.33,0,0,0,27.5,4.2h0V27.5Z" style="fill:#fff"/><path d="M27.5,27.5H4.2A23.323,23.323,0,0,0,27.5,50.8h0A23.327,23.327,0,0,0,50.8,27.5Z" style="fill:#d42b1e"/><polygon points="17.552 11.59 18.944 15.879 23.452 15.879 19.807 18.525 21.198 22.814 17.552 20.167 13.902 22.814 15.298 18.525 11.648 15.879 16.156 15.879 17.552 11.59" style="fill:#fff"/></svg>