<svg xmlns="http://www.w3.org/2000/svg" xmlns:xlink="http://www.w3.org/1999/xlink" viewBox="0 0 55 55">
  <defs>
    <clipPath id="clip-path">
      <circle cx="27.5" cy="27.5" r="23.32" fill="none"/>
    </clipPath>
  </defs>
  <g id="cny">
    <g clip-path="url(#clip-path)">
      <g>
        <polygon points="4.18 50.82 74.14 50.82 74.14 4.18 4.18 4.18 4.18 50.82 4.18 50.82" fill="#ee2724" fill-rule="evenodd"/>
        <path d="M28.31,6.6l-1,1.4-1.65-.56,1,1.42-1,1.39,1.66-.52,1,1.42,0-1.74,1.66-.51-1.65-.55,0-1.74ZM34,12.08l-1.64.56-1-1.39,0,1.74-1.65.56,1.66.51,0,1.74,1-1.42,1.66.52L33,13.5l1-1.42Zm.41,7.73-1.74,0-.51-1.66-.56,1.64-1.74,0,1.39,1-.57,1.64,1.42-1,1.39,1L33,20.8l1.43-1Zm-4.57,5.36-1.66-.51,0-1.74-1,1.42-1.66-.52,1,1.39-1,1.42,1.64-.56,1,1.39,0-1.74,1.65-.56Zm-14-16.32-1.59,4.92H9.08l4.19,3-1.61,4.92,4.18-3,4.18,3-1.61-4.92,4.19-3H17.43L15.84,8.85Z" fill="#fddf00" fill-rule="evenodd"/>
      </g>
    </g>
  </g>
</svg>
