<svg xmlns="http://www.w3.org/2000/svg" viewBox="0 0 55 55"><path d="M27.5,4.2A23.245,23.245,0,0,0,9.479,12.753c-.209.251-.407.507-.6.768H46.127A23.273,23.273,0,0,0,27.5,4.2Z" style="fill:#052a8d"/><path d="M9.479,42.247a23.267,23.267,0,0,0,36.648-.768H8.874C9.072,41.74,9.27,42,9.479,42.247Z" style="fill:#052a8d"/><path d="M5.533,35.268a23.226,23.226,0,0,0,3.341,6.211H46.127a23.422,23.422,0,0,0,3.34-6.211,22.992,22.992,0,0,0,.858-3.11H4.676A22.844,22.844,0,0,0,5.533,35.268Z" style="fill:#fff"/><path d="M5.538,19.732a22.749,22.749,0,0,0-.862,3.105H50.325a22.192,22.192,0,0,0-.863-3.105,23.265,23.265,0,0,0-3.335-6.211H8.878A23.139,23.139,0,0,0,5.538,19.732Z" style="fill:#fff"/><path d="M4.2,27.5a23.158,23.158,0,0,0,.476,4.658H50.325a23.1,23.1,0,0,0,0-9.321H4.676A23.245,23.245,0,0,0,4.2,27.5Z" style="fill:#052a8d"/><path d="M38.976,27.5l-15.53,7.768L9.479,42.247a23.243,23.243,0,0,1,0-29.494l13.962,6.979Z" style="fill:#ce152a"/><polygon points="15.344 22.356 16.62 26.287 20.754 26.287 17.409 28.713 18.684 32.644 15.344 30.213 12.004 32.644 13.28 28.713 9.939 26.287 14.069 26.287 15.344 22.356" style="fill:#fff"/></svg>