<svg xmlns="http://www.w3.org/2000/svg" viewBox="0 0 55 55"><path d="M50.8,27.5a23.132,23.132,0,0,1-3.06,11.527,23.285,23.285,0,0,1-40.48,0A23.251,23.251,0,0,1,4.2,27.5c0-.068,0-.136,0-.2a23.3,23.3,0,0,1,46.59,0C50.8,27.364,50.8,27.432,50.8,27.5Z" style="fill:#053891"/><path d="M50.8,27.5a22.813,22.813,0,0,1-.3,3.708H4.5A22.925,22.925,0,0,1,4.2,27.5c0-.068,0-.136,0-.2H50.8C50.8,27.364,50.8,27.432,50.8,27.5Z" style="fill:#fff"/><path d="M50.5,31.208a22.858,22.858,0,0,1-.983,3.912H5.481A22.858,22.858,0,0,1,4.5,31.208Z" style="fill:#ce2026"/><path d="M49.519,35.12a22.959,22.959,0,0,1-1.779,3.907H7.26A22.959,22.959,0,0,1,5.481,35.12Z" style="fill:#fff"/><polygon points="12.244 27.51 12.751 29.074 14.399 29.074 13.065 30.037 13.578 31.6 12.244 30.638 10.915 31.6 11.423 30.037 10.094 29.074 11.737 29.074 12.244 27.51" style="fill:#f6d023"/><polygon points="34.534 27.51 35.047 29.074 36.689 29.074 35.361 30.037 35.868 31.6 34.534 30.638 33.206 31.6 33.713 30.037 32.385 29.074 34.027 29.074 34.534 27.51" style="fill:#f6d023"/><polygon points="12.244 34.665 12.751 36.229 14.399 36.229 13.065 37.197 13.578 38.76 12.244 37.793 10.915 38.76 11.423 37.197 10.094 36.229 11.737 36.229 12.244 34.665" style="fill:#f6d023"/><polygon points="34.534 34.665 35.047 36.229 36.689 36.229 35.361 37.197 35.868 38.76 34.534 37.793 33.206 38.76 33.713 37.197 32.385 36.229 34.027 36.229 34.534 34.665" style="fill:#f6d023"/><polygon points="16.522 21.674 17.029 23.237 18.672 23.237 17.343 24.2 17.851 25.764 16.522 24.801 15.188 25.764 15.696 24.2 14.367 23.237 16.01 23.237 16.522 21.674" style="fill:#f6d023"/><polygon points="30.261 21.674 30.769 23.237 32.416 23.237 31.083 24.2 31.59 25.764 30.261 24.801 28.934 25.764 29.44 24.2 28.112 23.237 29.754 23.237 30.261 21.674" style="fill:#f6d023"/><polygon points="16.522 40.544 17.029 42.108 18.672 42.108 17.343 43.075 17.851 44.639 16.522 43.671 15.188 44.639 15.696 43.075 14.367 42.108 16.01 42.108 16.522 40.544" style="fill:#f6d023"/><polygon points="30.261 40.544 30.769 42.108 32.416 42.108 31.083 43.075 31.59 44.639 30.261 43.671 28.934 44.639 29.44 43.075 28.112 42.108 29.754 42.108 30.261 40.544" style="fill:#f6d023"/><polygon points="23.39 19.435 23.896 20.999 25.544 20.999 24.216 21.967 24.723 23.53 23.39 22.563 22.061 23.53 22.568 21.967 21.24 20.999 22.882 20.999 23.39 19.435" style="fill:#f6d023"/><polygon points="23.39 42.798 23.896 44.362 25.544 44.362 24.216 45.329 24.723 46.893 23.39 45.926 22.061 46.893 22.568 45.329 21.24 44.362 22.882 44.362 23.39 42.798" style="fill:#f6d023"/></svg>