<svg xmlns="http://www.w3.org/2000/svg" viewBox="0 0 55 55"><path d="M27.5,50.8A23.327,23.327,0,0,0,50.8,27.5H4.2A23.33,23.33,0,0,0,27.5,50.8Z" style="fill:#0bac2f"/><path d="M27.5,4.2A23.327,23.327,0,0,0,4.2,27.5H50.8A23.323,23.323,0,0,0,27.5,4.2Z" style="fill:#6ab2e6"/><path d="M32.3,27.5,21.967,35.267l-11.2,8.42a23.244,23.244,0,0,1,0-32.379l11.2,8.425Z" style="fill:#fff"/><polygon points="15.659 21.621 17.118 26.109 21.842 26.109 18.018 28.886 19.477 33.379 15.659 30.601 11.836 33.379 13.295 28.886 9.477 26.109 14.2 26.109 15.659 21.621" style="fill:#d6141a"/></svg>