<svg xmlns="http://www.w3.org/2000/svg" viewBox="0 0 55 55"><path d="M49.648,34.73A23.326,23.326,0,0,1,20.269,49.648l14.456-44.3A23.325,23.325,0,0,1,49.648,34.73Z" style="fill:#fff"/><path d="M34.725,5.352l-14.456,44.3a23.3,23.3,0,0,1,14.456-44.3Z" style="fill:#006133"/><path d="M27.814,37.417A9.329,9.329,0,1,1,39.487,25.4a11.667,11.667,0,1,0-3.55,10.877A9.308,9.308,0,0,1,27.814,37.417Z" style="fill:#d11133"/><polygon points="35.956 24.468 34.647 28.464 38.039 30.946 33.836 30.933 32.524 34.933 31.236 30.926 27.031 30.918 30.441 28.455 29.153 24.448 32.545 26.931 35.956 24.468" style="fill:#d11133"/></svg>