<svg xmlns="http://www.w3.org/2000/svg" viewBox="0 0 55 55"><path d="M49.466,19.733H5.534a23.3,23.3,0,0,1,43.932,0Z" style="fill:#cd1225"/><path d="M49.466,35.267a23.309,23.309,0,0,1-43.932,0Z"/><path d="M50.8,27.5a23.141,23.141,0,0,1-1.334,7.767H5.534a23.278,23.278,0,0,1,0-15.534H49.466A23.141,23.141,0,0,1,50.8,27.5Z" style="fill:#fff"/><path d="M24.783,33.473a.068.068,0,0,0-.062-.011l-.095.032a.057.057,0,0,0-.036.073.056.056,0,0,0,.063.042l-.048.167-.251-.068.1-.272a.069.069,0,0,0-.016-.063.068.068,0,0,0-.062-.015l-.09.026a.063.063,0,0,0-.042.078.057.057,0,0,0,.053.042l-.053.173-.172-.047.183-.612a.052.052,0,0,0-.026-.068.06.06,0,0,0-.073,0,.4.4,0,0,1-.215.021.068.068,0,0,0-.068.057.063.063,0,0,0,.058.068A.977.977,0,0,0,24.1,33.1l-.089.293a.329.329,0,0,0-.287.188.064.064,0,0,0,0,.047.063.063,0,0,0,.036.037l.209.068h.006v.005l.266.068a.1.1,0,0,0,.021.016h.026l.346.094h.015a.061.061,0,0,0,.063-.047l.089-.329A.069.069,0,0,0,24.783,33.473Zm-.831.12-.073-.026a.159.159,0,0,1,.094-.047Z" style="fill:#bf920d"/><path d="M26.049,33.316a.055.055,0,0,0-.084,0l-.047.042a.061.061,0,0,0-.016.042v.271a1.075,1.075,0,0,1-.1.466.078.078,0,0,1-.047.021.456.456,0,0,1,.01-.105.067.067,0,0,0,0-.031.13.13,0,0,0-.131-.073h-.015a.242.242,0,0,0-.037-.089l.147-.042a.086.086,0,0,0,.036-.047.081.081,0,0,0-.01-.058l-.094-.1-.1-.131a.072.072,0,0,0-.042-.026.048.048,0,0,0-.046.021l-.069.063a1.007,1.007,0,0,1-.151.089.055.055,0,0,0-.032.047.059.059,0,0,0,.016.052l.131.11a.2.2,0,0,1-.094.063.956.956,0,0,1-.225-.032.477.477,0,0,0-.037-.225.061.061,0,0,0-.11.053.309.309,0,0,1,.011.214.289.289,0,0,1-.209.131.063.063,0,0,0-.047.073.062.062,0,0,0,.062.047c.006,0,.006,0,.011,0a.389.389,0,0,0,.282-.173.92.92,0,0,0,.277.037.275.275,0,0,0,.178-.115.206.206,0,0,1,.031.057c0,.11.079.11.136.11h.006c-.01.079-.006.168.057.194a.145.145,0,0,0,.063.015.191.191,0,0,0,.131-.057,1.037,1.037,0,0,0,.136-.555v-.245l.026-.026A.055.055,0,0,0,26.049,33.316Zm-.58.455-.09-.073a.637.637,0,0,0,.105-.068l.021-.016.057.073v.005l.032.037Z" style="fill:#bf920d"/><path d="M26.221,34.085l.042-.57a.069.069,0,0,0,.063-.016.06.06,0,0,0,0-.089l-.068-.068a.051.051,0,0,0-.063-.016.052.052,0,0,0-.042.053l-.052.7a.06.06,0,0,0,.058.068h0A.059.059,0,0,0,26.221,34.085Z" style="fill:#bf920d"/><path d="M28.036,34.147l-.063-.261a.055.055,0,0,0-.031-.037.064.064,0,0,0-.052,0,.4.4,0,0,0-.246.262h-.089l-.016-.163a.061.061,0,0,0-.057-.057l-.617-.026v-.073a.065.065,0,0,0-.027-.048.058.058,0,0,0-.057-.01l-.073.026a.061.061,0,0,0-.036.079.056.056,0,0,0,.067.036v.2l-.1,0a.462.462,0,0,0-.1-.194.061.061,0,1,0-.089.084c.021.026.094.126.069.2s-.121.115-.278.136a.059.059,0,0,0-.052.068.057.057,0,0,0,.057.052h.011c.209-.031.34-.1.376-.214,0-.005,0-.005.006-.011l.575.042a.232.232,0,0,0,.063.147.136.136,0,0,0,.1.041.243.243,0,0,0,.026,0,.194.194,0,0,0,.163-.188h.418a.052.052,0,0,0,.047-.021A.077.077,0,0,0,28.036,34.147Zm-.654.147c-.021,0-.026,0-.026,0a.183.183,0,0,1-.031-.11.057.057,0,0,0-.058-.063l-.4-.031V33.98l.554.026.021.168C27.44,34.184,27.45,34.283,27.382,34.294Zm.388-.188a.23.23,0,0,1,.1-.115l.031.115Z" style="fill:#bf920d"/><path d="M28.816,33.734a.059.059,0,0,0-.058,0c-.032.016-.068.032-.079.037a.058.058,0,0,0-.057.057.06.06,0,0,0,.062.063.106.106,0,0,0,.042-.01v.167l-.177.026-.074-.659a.061.061,0,0,0-.036-.052.083.083,0,0,0-.068.016l-.058.057a.055.055,0,0,0,0,.084.052.052,0,0,0,.057.021l.037.314a.32.32,0,0,0-.214.292v.006c-.006.01,0,.026.005.042s.021.031.068.031a2.192,2.192,0,0,0,.241-.021l.292-.042a.068.068,0,0,0,.053-.063v-.313A.06.06,0,0,0,28.816,33.734Zm-.5.366a.17.17,0,0,1,.1-.115l.01.105A.994.994,0,0,1,28.318,34.1Z" style="fill:#bf920d"/><path d="M29.061,33.781a.059.059,0,0,0-.084.011.066.066,0,0,0,.011.089s.162.13.115.256a.226.226,0,0,1-.188.141.061.061,0,0,0-.058.068.059.059,0,0,0,.063.058h0a.342.342,0,0,0,.293-.225C29.291,33.97,29.071,33.792,29.061,33.781Z" style="fill:#bf920d"/><path d="M31.268,33.593l-.246.042a3.008,3.008,0,0,0-.167-.466.245.245,0,0,0-.189-.156.251.251,0,0,0-.193.052.061.061,0,0,0,0,.089.059.059,0,0,0,.084,0,.13.13,0,0,1,.094-.021.148.148,0,0,1,.094.083,3.624,3.624,0,0,1,.157.45l-.12.053a.006.006,0,0,0-.006-.006c-.225-.1-.251-.078-.272-.052a1.561,1.561,0,0,0-.1.136l-.063.021c-.021-.089-.078-.225-.193-.225a.5.5,0,0,0-.125.011,1.3,1.3,0,0,0-.038-.152.054.054,0,0,0-.073-.047.055.055,0,0,0-.042.073c.011.042.016.1.032.157a.105.105,0,0,0-.047.026c-.047.026-.1.084-.105.256l-.089.016c-.016-.152-.036-.183-.073-.194a.057.057,0,0,0-.058.006l-.209.157a.059.059,0,0,0-.026.062l.021.089a.066.066,0,0,0,.073.047l.157-.026a.2.2,0,0,1-.146.152.06.06,0,0,0,0,.12.328.328,0,0,0,.183-.1.3.3,0,0,0,.084-.194L30,34a.409.409,0,0,0,.068.146.132.132,0,0,0,.105.042.319.319,0,0,0,.1-.021c.026-.01.105-.047.105-.115v-.115l.052-.016a.026.026,0,0,0,.016.011.559.559,0,0,0,.266.047.163.163,0,0,0,.1-.136L31,33.766l.293-.053a.064.064,0,0,0,.052-.073A.062.062,0,0,0,31.268,33.593Zm-1.836.377.1-.074c0,.016,0,.032,0,.053Zm.44-.074c0-.109.036-.13.047-.136l.01-.01.031.131Zm.172-.177c.032,0,.068-.006.1-.006s.052.058.073.121l-.136.026C30.071,33.818,30.06,33.771,30.044,33.719Zm.209.313a.2.2,0,0,1-.078.032.031.031,0,0,1-.021-.005.377.377,0,0,1-.037-.084l.136-.021Zm.413-.177a.389.389,0,0,1-.141-.027.389.389,0,0,0,.047-.062c.026.005.068.026.11.041A.081.081,0,0,1,30.666,33.855Z" style="fill:#bf920d"/><path d="M28.25,33.541a.08.08,0,0,0-.073-.079.081.081,0,0,0-.078.079.08.08,0,0,0,.078.073A.079.079,0,0,0,28.25,33.541Z" style="fill:#bf920d"/><path d="M23.879,33.305a.073.073,0,1,0-.074-.073A.072.072,0,0,0,23.879,33.305Z" style="fill:#bf920d"/><circle cx="23.91" cy="33.849" r="0.073" style="fill:#bf920d"/><circle cx="24.119" cy="33.917" r="0.073" style="fill:#bf920d"/><circle cx="24.438" cy="34.006" r="0.073" style="fill:#bf920d"/><path d="M28.277,33.739a.079.079,0,0,0-.074-.073.08.08,0,0,0-.078.073.081.081,0,0,0,.078.079A.08.08,0,0,0,28.277,33.739Z" style="fill:#bf920d"/><path d="M28.428,34.283a.074.074,0,1,0,.074.074A.076.076,0,0,0,28.428,34.283Z" style="fill:#bf920d"/><path d="M28.611,34.268a.073.073,0,1,0,0,.146.073.073,0,1,0,0-.146Z" style="fill:#bf920d"/><path d="M31.053,33.875a.08.08,0,0,0-.073.079.079.079,0,0,0,.073.073.08.08,0,0,0,.079-.073A.081.081,0,0,0,31.053,33.875Z" style="fill:#bf920d"/><path d="M32.947,32.657v-.026c-.006-.115-.011-.225-.011-.34l-.031-.644c-.01-.287-.026-.575-.037-.863l-.2-4.456c-.01-.345-.026-.69-.041-1.04l-.079-1.731c-.016-.3-.188-.811-.591-.89a2.572,2.572,0,0,0-1.7.455c-.109.058-.214.115-.313.163a3.526,3.526,0,0,1-1.072.193,1.93,1.93,0,0,1-.168-.335,2.354,2.354,0,0,1-.131-.449,4.4,4.4,0,0,1-.041-1.015c0-.094.005-.178.005-.262a1.63,1.63,0,0,0-.162-.8.168.168,0,0,0-.021-.036.718.718,0,0,0-.466-.335c-.172-.031-.3-.063-.387-.079-.23-.052-.277-.068-.345-.031a.15.15,0,0,0-.083.079,1.558,1.558,0,0,0-.628-.068.4.4,0,0,0-.335.245.1.1,0,0,0-.01.026.052.052,0,0,0,0,.027.81.81,0,0,0-.016.329v.016a0,0,0,0,1,0,.005l.005,0v0a.006.006,0,0,1,.006.006s0,0,.01,0h0c.005,0,.005.005.011.005h.031c.006,0,.006-.005.01-.005h0s.006,0,.006,0a.005.005,0,0,1,.005-.006l0,0v0l.068-.026a.212.212,0,0,1,.063-.026.248.248,0,0,1,.136-.011.683.683,0,0,1,.382.481,1.4,1.4,0,0,1,.026.2,1.511,1.511,0,0,1-.037.481l-.01.053a4.564,4.564,0,0,1-.633,1.532,3.431,3.431,0,0,1-1.1-.193c-.1-.048-.2-.105-.313-.163a2.57,2.57,0,0,0-1.7-.455c-.408.079-.581.586-.6.89l-.074,1.731c-.015.35-.031.7-.047,1.04l-.193,4.456c-.01.288-.026.576-.037.863l-.031.644c0,.115,0,.225-.011.34v.026a.05.05,0,0,0,.011.052.053.053,0,0,0,.037.016.041.041,0,0,0,.031-.011,0,0,0,0,0,0,0l.633-.57c.073-.057.141-.125.22-.193l.036-.032.826-.742.006-.006.031-.031.418-.371c.1-.084.183-.168.278-.251a.127.127,0,0,0,.036-.037c.105-.089.2-.178.3-.267l-.564,2c-.089-.031-.189-.068-.283-.105a.239.239,0,0,0-.214.027l0,.005-.006.005a.663.663,0,0,0-.434.262.429.429,0,0,0-.036.345.637.637,0,0,0-.042.162c-.1.01-.277.084-.439.382h-.126a.068.068,0,0,0-.068.062.073.073,0,0,0,.052.074l.1.031c.016.115.068.4.257.5,0,.021.01.057.015.094a.44.44,0,0,0,.282.413,16,16,0,0,0,3.708.424h.863a15.876,15.876,0,0,0,3.6-.424.446.446,0,0,0,.282-.413c0-.037.011-.073.016-.094a.694.694,0,0,0,.256-.5l.1-.031a.069.069,0,0,0-.021-.136h-.126c-.162-.3-.34-.372-.434-.382a.949.949,0,0,0-.042-.162.425.425,0,0,0-.036-.345.67.67,0,0,0-.44-.262v-.005s0-.005-.01-.005a.228.228,0,0,0-.209-.027c-.1.037-.194.074-.283.105l-.564-2c.109.1.224.2.339.3.079.073.157.146.236.214a.272.272,0,0,1,.042.037l.449.4.006.006.24.214.622.56c.074.068.147.136.215.193l.638.57v0a.067.067,0,0,0,.036.011.053.053,0,0,0,.037-.016A.05.05,0,0,0,32.947,32.657ZM27.408,20.45a.1.1,0,1,1,0,.209.1.1,0,0,1,0-.209Zm-1.2,3.138c.026-.031.052-.068.073-.1s.047-.068.068-.105.042-.068.063-.105c.01-.015.021-.036.031-.052s.016-.037.026-.052c.021-.042.037-.079.058-.115a.186.186,0,0,1,.016-.037l.031-.063c.01-.026.016-.047.026-.068,0,0,0,0,0,0s.006-.026.011-.037c.01-.026.021-.052.031-.083a.219.219,0,0,0,.022-.047.751.751,0,0,1,.031-.074c.015-.057.036-.115.052-.162a.132.132,0,0,0,.01-.036c0-.021.011-.037.016-.053a.152.152,0,0,0,.01-.047c.047-.151.084-.282.11-.376l.011-.052a1.732,1.732,0,0,0,.036-.513,1.516,1.516,0,0,0-.026-.22.184.184,0,0,1-.01-.052c.052-.047.157-.021.319-.021-.345-.518-.549-.565-.727-.607a.241.241,0,0,0-.267.142.408.408,0,0,1-.042.021.03.03,0,0,0-.021.01.832.832,0,0,1,.006-.167l.01-.047V20.45a.31.31,0,0,1,.031-.052.266.266,0,0,1,.137-.063.965.965,0,0,1,.214-.016.214.214,0,0,1,.152.052,1.836,1.836,0,0,0,.287.215.534.534,0,0,0,.241.1c.021,0,.047.047.062.063a.133.133,0,0,0,.09.042.139.139,0,0,0,.14-.079c.017-.031.074-.052.105-.068a1.137,1.137,0,0,1,.173-.052.943.943,0,0,1,.209-.031.291.291,0,0,1,.225.062.17.17,0,0,1,.021.027.762.762,0,0,1,.047.1,1.575,1.575,0,0,1,.052.168,2.011,2.011,0,0,1,.052.439v.057c0,.079-.005.163-.005.257a4.3,4.3,0,0,0,.047,1.035,2.294,2.294,0,0,0,.282.774c.021.037.037.074.058.105s.052.073.073.1a.774.774,0,0,1-.334-.089.415.415,0,0,1-.121-.078c-.005,0-.005-.011-.01-.021-.016-.037-.032-.078-.047-.12-.053-.136-.115-.283-.162-.424a5.632,5.632,0,0,1-.142-.988.052.052,0,0,0-.052-.053.05.05,0,0,0-.047.058,4.88,4.88,0,0,0,.146,1.009,3.73,3.73,0,0,0,.163.44c.01.026.02.057.031.083s.026.073.042.105c.031.089.057.167.073.23a1.31,1.31,0,0,1-.481-.225.533.533,0,0,1-.1-.089v-.016a11.713,11.713,0,0,1-.084-1.584.05.05,0,0,0-.052-.053.053.053,0,0,0-.053.053,13.314,13.314,0,0,0,.079,1.584c0,.011,0,.016,0,.027a.536.536,0,0,1-.058.078c-.026.031-.067.073-.13.136a.723.723,0,0,1-.063.068.305.305,0,0,0-.042-.031,1.329,1.329,0,0,1-.167-.173c-.031-.037-.058-.073-.083-.105h0a3.33,3.33,0,0,0,.329-1.616.053.053,0,1,0-.105,0,2.948,2.948,0,0,1-.356,1.621.687.687,0,0,1-.089.105,1.147,1.147,0,0,1-.292.22c.01-.063.026-.141.042-.225,0-.032.015-.068.02-.105,0-.01.006-.021.006-.031a3.428,3.428,0,0,0,.5-1.533.05.05,0,0,0-.042-.062.055.055,0,0,0-.058.047,2.913,2.913,0,0,1-.56,1.574.71.71,0,0,1-.12.105.673.673,0,0,1-.193.094,1.3,1.3,0,0,1-.173.031A1.23,1.23,0,0,0,26.211,23.588Zm-.732,6.422.23.6a.036.036,0,0,0,.031.021.031.031,0,0,0,.037-.016l.376-.513.189.952c-.189.277-.35.513-.429.617-.037-.109-.11-.329-.225-.648a.051.051,0,0,0-.031-.026.039.039,0,0,0-.037.021l-.4.6-.308-1.046Zm4.058,2.438L29.213,32a.051.051,0,0,0-.037-.016.033.033,0,0,0-.031.027l-.189.486c-.13.005-.245.005-.349,0l-.126-.575.151-.764c.445.638.445.638.481.628a.038.038,0,0,0,.026-.037c.006-.037.126-.382.22-.633l.392.586Zm.272-.659.376.554a5.1,5.1,0,0,1-.57.1Zm-.356.68c-.146.015-.287.026-.413.031l.152-.392Zm-1.569.136a.3.3,0,0,0-.261.109.287.287,0,0,0-.052.136h-.147a.273.273,0,0,0-.047-.136.305.305,0,0,0-.267-.109.28.28,0,0,0-.214-.116,1.281,1.281,0,0,0-.246,0c-.052.006-.11.006-.178.011l.089-.418.183.287a.033.033,0,0,0,.053.011l.293-.262c0-.005.01-.01.01-.016l.225-1.767-.11,1.778c0,.01,0,.021,0,.026l.251.3a.041.041,0,0,0,.058,0l.251-.3c0-.005,0-.016,0-.026l-.11-1.778L27.9,32.1c0,.006.005.011.011.016l.292.262a.034.034,0,0,0,.053-.011l.177-.287.089.418c-.062-.005-.12-.005-.177-.011a1.236,1.236,0,0,0-.241,0A.31.31,0,0,0,27.884,32.6Zm.047.251h.006a.1.1,0,0,0,.026.041.206.206,0,0,0,.063.074A.171.171,0,0,0,28.02,33c-.015.057-.073.089-.136.125a.24.24,0,0,0-.057.042.207.207,0,0,0-.1.1,1.475,1.475,0,0,1-.078-.277.669.669,0,0,1,0-.142.175.175,0,0,1,.037-.089.206.206,0,0,1,.172-.078.122.122,0,0,0,.026.1A.538.538,0,0,1,27.931,32.856Zm-.579.136a1.574,1.574,0,0,1-.079.277.231.231,0,0,0-.1-.1.46.46,0,0,0-.063-.042c-.057-.036-.115-.068-.13-.125a.052.052,0,0,1-.006-.026.292.292,0,0,0,.064-.074.113.113,0,0,0,.025-.041h.006a.677.677,0,0,1,.041-.068.121.121,0,0,0,.032-.1.212.212,0,0,1,.172.078.249.249,0,0,1,.038.089A.836.836,0,0,1,27.352,32.992Zm-1.5-.978a.033.033,0,0,0-.031-.027.051.051,0,0,0-.037.016l-.324.445-.22-.743.4-.586c.089.251.209.6.214.633a.059.059,0,0,0,.032.037c.031.01.036.01.481-.628l.151.764-.125.575c-.1.005-.225.005-.35,0Zm.105.486c-.125-.005-.272-.016-.418-.031l.266-.361Zm-.575-.052a5.1,5.1,0,0,1-.57-.1l.376-.554Zm1.04-1.381a.011.011,0,0,0,.011-.011c.146-.209.293-.418.387-.559l-.267,1.234Zm.393-2c.083.083.167.167.256.246l-.183.857-.272-.857Zm-.576.58-.057-.565c.121-.115.24-.219.355-.319.074.084.147.168.225.246Zm2.139-.334-.272.857-.182-.857c.088-.079.172-.163.25-.246Zm-.146-.3c.078-.083.151-.167.225-.251.115.1.23.2.356.319l-.058.565ZM28.177,30.5c.094.141.241.35.387.559a.011.011,0,0,0,.011.011l-.136.664Zm.419.471c-.157-.225-.314-.461-.455-.659l.3-.931.314.387a.035.035,0,0,0,.036.01.049.049,0,0,0,.032-.031l.062-.6c.251.23.529.476.811.727a.758.758,0,0,0,.1.089c.032.026.064.058.094.084l.032.031a.3.3,0,0,0,.047.037l.084.314-.523-.508a.033.033,0,0,0-.036-.01.034.034,0,0,0-.027.021l-.225.586-.392-.529a.026.026,0,0,0-.036-.015.045.045,0,0,0-.032.031Zm1.27-1.088c-.031-.032-.062-.058-.094-.089-.015,0-.026-.021-.042-.032l-.125-3.091a7.128,7.128,0,0,0,.183-.815l.167,4.11C29.924,29.937,29.892,29.906,29.866,29.88Zm-.272-3.463a5.693,5.693,0,0,1-1.731,2.84v.006a.3.3,0,0,1-.041.036c-.016.016-.032.026-.042.037a.956.956,0,0,1-.079.068c-.068.057-.136.11-.2.167-.068-.057-.136-.11-.2-.167-.026-.021-.052-.042-.079-.068-.01-.011-.025-.021-.042-.037a.3.3,0,0,1-.041-.036c-.006,0-.006,0-.006-.006a5.851,5.851,0,0,1-.533-.549,5.632,5.632,0,0,1-1.192-2.291,6.011,6.011,0,0,1-.173-1.072l.021-.476a4.012,4.012,0,0,0,2.191-.617.235.235,0,0,0,.052-.042c.016.011.032.026.053.042a4.036,4.036,0,0,0,2.2.617l.021.476A6.4,6.4,0,0,1,29.594,26.417Zm-4.2.251-.131,3.091a.173.173,0,0,1-.036.032c-.032.031-.063.057-.094.089s-.063.057-.089.083l.167-4.11A6.2,6.2,0,0,0,25.4,26.668Zm-.324,3.405.037-.031c.031-.026.062-.058.094-.084s.062-.057.094-.089c.282-.251.559-.5.816-.727l.062.6a.034.034,0,0,0,.027.031.041.041,0,0,0,.041-.01l.314-.387.3.931c-.141.2-.3.434-.455.659L26.211,30a.032.032,0,0,0-.026-.031.026.026,0,0,0-.036.015l-.393.529-.225-.586a.034.034,0,0,0-.026-.021.032.032,0,0,0-.036.01l-.529.508.089-.314A.149.149,0,0,0,25.071,30.073Zm-.2.623.293.993-.423.633c-.1-.026-.2-.052-.3-.089Zm-.978,1.516.011-.01.01-.011a.138.138,0,0,1,.141-.015,3.022,3.022,0,0,0,.288.1,5.746,5.746,0,0,0,1.056.251c.147.016.293.032.429.037.057.005.11.01.168.01h.465c.073-.005.141-.005.2-.01a1.778,1.778,0,0,1,.231,0,.2.2,0,0,1,.172.1c.016.037.011.068,0,.073a.418.418,0,0,0-.057.084.2.2,0,0,0-.027.037v0a.2.2,0,0,1-.062.057.274.274,0,0,1-.115.042c-.2.016-.424.016-.654.011-.173-.006-.35-.021-.539-.042a.005.005,0,0,0,.006-.005.322.322,0,0,0,.01-.142.34.34,0,0,0-.131-.2.038.038,0,0,1-.02-.01.18.18,0,0,0-.079-.031h-.021a.22.22,0,0,0-.057.01h-.006a.259.259,0,0,0-.172.173.065.065,0,0,0-.011.031.411.411,0,0,0-.01.105v.01c-.157-.026-.3-.057-.44-.084a5.891,5.891,0,0,1-.773-.2c0-.005-.006-.01-.011-.021l0-.01c0-.026-.016-.058-.021-.1s-.011-.11-.011-.162A.11.11,0,0,1,23.889,32.212Zm1.642.7a.473.473,0,0,1-.047.11v0a.594.594,0,0,0-.042.047.611.611,0,0,0-.1.121.587.587,0,0,0-.047-.079.493.493,0,0,1-.105-.246.219.219,0,0,1,.011-.1.1.1,0,0,1,.01-.042.183.183,0,0,1,.12-.11.083.083,0,0,1,.037,0,.131.131,0,0,1,.058.016.231.231,0,0,1,.109.141A.252.252,0,0,1,25.531,32.913Zm-2.049-.476a.563.563,0,0,1,.3-.2.242.242,0,0,0-.01.053c0,.041,0,.094.01.141a1.03,1.03,0,0,0,.021.12c-.015.005-.036.01-.052.016a.779.779,0,0,0-.12.052.547.547,0,0,0-.178.115.418.418,0,0,1-.016-.11A.313.313,0,0,1,23.482,32.437Zm7.734-.2a.588.588,0,0,1,.3.2.32.32,0,0,1,.042.183.418.418,0,0,1-.016.11.691.691,0,0,0-.178-.115.779.779,0,0,0-.12-.052c-.016-.006-.037-.011-.052-.016a1.03,1.03,0,0,0,.021-.12c0-.047.01-.1.01-.141A.242.242,0,0,0,31.216,32.233Zm-.053.382a.8.8,0,0,1,.314.162.629.629,0,0,1,.052.209.075.075,0,0,0,.026.047.069.069,0,0,0,.053.011s.2-.021.382.345a.053.053,0,0,0,.016.021c-.011.11-.064.371-.2.424a.064.064,0,0,0-.036.036.428.428,0,0,0-.037.162c-.021.121-.036.236-.2.3a16.045,16.045,0,0,1-3.661.414h-.753a16.03,16.03,0,0,1-3.656-.414c-.162-.062-.177-.177-.2-.3a.549.549,0,0,0-.037-.162.083.083,0,0,0-.036-.036c-.136-.053-.189-.314-.2-.424a.08.08,0,0,0,.016-.021c.183-.366.376-.345.376-.345a.062.062,0,0,0,.052-.011.077.077,0,0,0,.032-.047.847.847,0,0,1,.047-.209.846.846,0,0,1,.314-.162s.01.016.016.016a5.881,5.881,0,0,0,1.275.314.689.689,0,0,0,.105.214.242.242,0,0,1,.068.152.044.044,0,0,0,.036.041h.006a.044.044,0,0,0,.036-.031.428.428,0,0,1,.12-.193.185.185,0,0,0,.053-.063l0,0a.259.259,0,0,0,.026-.053,6.967,6.967,0,0,0,.8.042c.152,0,.293-.005.434-.01a.823.823,0,0,0,.094-.026.34.34,0,0,0,.173.177l.057.032a.2.2,0,0,1,.079.1.611.611,0,0,1,.031.058.035.035,0,0,0,.032.021h0a.034.034,0,0,0,.031-.027,1.211,1.211,0,0,0,.115-.381h.147a1.394,1.394,0,0,0,.12.381c.005.016.016.027.027.027h0a.03.03,0,0,0,.032-.021.627.627,0,0,0,.036-.058.207.207,0,0,1,.079-.1.431.431,0,0,1,.058-.032.342.342,0,0,0,.172-.177.823.823,0,0,0,.094.026c.136,0,.282.01.434.01a6.894,6.894,0,0,0,.79-.042c.01.016.021.037.031.053v0a.2.2,0,0,0,.058.063.466.466,0,0,1,.12.193.044.044,0,0,0,.036.031h.006a.044.044,0,0,0,.037-.041c-.011-.047.02-.095.062-.152a.6.6,0,0,0,.11-.214,6,6,0,0,0,1.276-.314C31.158,32.631,31.158,32.62,31.163,32.615Zm-1.705.157a.283.283,0,0,1,.11-.141.134.134,0,0,1,.063-.016.083.083,0,0,1,.037,0,.183.183,0,0,1,.12.11.1.1,0,0,1,.01.042.323.323,0,0,1,.011.1.5.5,0,0,1-.1.246.6.6,0,0,0-.048.079.858.858,0,0,0-.1-.121c-.016-.021-.037-.036-.042-.047v0a.52.52,0,0,1-.047-.11A.266.266,0,0,1,29.458,32.772Zm1.2-.492a2.188,2.188,0,0,0,.293-.1.138.138,0,0,1,.141.015l.011.011.01.01a.139.139,0,0,1,.037.074.848.848,0,0,1-.016.162c-.005.041-.011.073-.015.1l-.006.01c0,.011-.01.016-.01.021a5.983,5.983,0,0,1-.774.2c-.136.027-.283.058-.44.084v-.01a.916.916,0,0,0-.01-.105.065.065,0,0,0-.011-.031.259.259,0,0,0-.172-.173h0a.235.235,0,0,0-.058-.01h-.026a.176.176,0,0,0-.073.031.045.045,0,0,1-.021.01.307.307,0,0,0-.131.2.339.339,0,0,0,.011.142v.005c-.184.021-.361.036-.534.042-.23.005-.455.005-.659-.011a.285.285,0,0,1-.11-.042.2.2,0,0,1-.062-.057s-.006,0-.006,0A.075.075,0,0,0,28,32.819a.349.349,0,0,0-.057-.084c-.011-.005-.015-.036,0-.073a.2.2,0,0,1,.172-.1,1.778,1.778,0,0,1,.231,0c.057.005.125.005.193.01h.471c.052,0,.11-.005.167-.01.136,0,.277-.021.429-.037A5.682,5.682,0,0,0,30.656,32.28Zm-.094-.047a3.061,3.061,0,0,1-.3.089l-.424-.633.293-.993Zm-.471-1.668-.308,1.046-.4-.6a.039.039,0,0,0-.037-.021.051.051,0,0,0-.031.026c-.115.319-.193.539-.225.648-.078-.1-.246-.34-.434-.617l.188-.952.382.513a.031.031,0,0,0,.037.016.036.036,0,0,0,.031-.021l.23-.6Zm2.165,1.464c-.052-.052-.115-.1-.178-.162l-.031-.031L31.7,23.5a6.507,6.507,0,0,1-.544.508l.3,7.295-.235-.214h0l-.037-.037-.288-6.84a4.844,4.844,0,0,1-.423.287l.256,6.146c-.078-.074-.162-.142-.241-.215a.2.2,0,0,0-.036-.031l-.241-5.753c-.11.057-.225.115-.35.167a.036.036,0,0,0-.031-.021,3.965,3.965,0,0,1-2.275-.643c-.016-.011-.021-.021-.026-.021a.039.039,0,0,0-.048,0s-.01.01-.031.021a3.906,3.906,0,0,1-2.27.643.036.036,0,0,0-.031.021c-.125-.052-.24-.11-.35-.167L24.553,30.4a.24.24,0,0,0-.036.031c-.079.073-.163.141-.241.215l.256-6.146a4.844,4.844,0,0,1-.423-.287l-.288,6.84-.037.037h0l-.235.214.3-7.295A4.952,4.952,0,0,1,23.3,23.5l-.35,8.332-.037.031c-.057.058-.12.11-.177.162l.366-8.682a3.023,3.023,0,0,0-.555.278l.006-.063c.01-.293.177-.732.5-.79a1.611,1.611,0,0,1,.271-.026,2.921,2.921,0,0,1,1.365.471c.11.057.215.109.319.162a3.4,3.4,0,0,0,1.072.2,1.038,1.038,0,0,1-.162.177.067.067,0,0,0,0,.068.055.055,0,0,0,.047.027s0,0,.011-.006c.026,0,.062-.01.1-.015a.829.829,0,0,0,.534-.209,2.9,2.9,0,0,0-.047.3.055.055,0,0,0,.026.047.052.052,0,0,0,.026.01s.016,0,.021,0a1.264,1.264,0,0,0,.476-.361l.015-.016c.006.006.006.011.011.016a1.355,1.355,0,0,0,.3.3.271.271,0,0,1,.037.016.018.018,0,0,0,.015,0,.057.057,0,0,0,.042-.016l.011-.015a2.481,2.481,0,0,0,.251-.272,1.3,1.3,0,0,0,.68.319.057.057,0,0,0,.052-.058.655.655,0,0,0-.047-.2,1.1,1.1,0,0,0,.5.11.053.053,0,0,0,.047-.026.06.06,0,0,0,0-.058l-.005-.01a1.332,1.332,0,0,1-.09-.12c.21-.021.419-.042.6-.074a2.037,2.037,0,0,0,.45-.13c.1-.053.2-.105.319-.162a2.9,2.9,0,0,1,1.365-.471,1.5,1.5,0,0,1,.266.026c.33.058.5.5.507.79l.006.063a3.023,3.023,0,0,0-.555-.278Z" style="fill:#bf920d"/><path d="M23.973,32.359a1.183,1.183,0,0,1,.35.125.033.033,0,0,0,.021,0c.016,0,.027,0,.031-.015a.035.035,0,0,0,0-.052,1.191,1.191,0,0,0-.383-.136.032.032,0,0,0-.041.031A.032.032,0,0,0,23.973,32.359Z" style="fill:#bf920d"/><path d="M24.6,32.552a2.015,2.015,0,0,1,.387.1c.005,0,.011.005.016.005a.052.052,0,0,0,.037-.021.039.039,0,0,0-.016-.052,2.417,2.417,0,0,0-.408-.115.045.045,0,0,0-.047.031A.046.046,0,0,0,24.6,32.552Z" style="fill:#bf920d"/><path d="M25.73,32.782a.208.208,0,0,1,.042,0,1.086,1.086,0,0,1,.366,0,.018.018,0,0,0,.011,0,.044.044,0,0,0,.036-.031.067.067,0,0,0,0-.031.1.1,0,0,0-.027-.016,1.091,1.091,0,0,0-.146-.021,2.2,2.2,0,0,0-.246.016.093.093,0,0,1-.031.005.036.036,0,0,0-.037.037A.041.041,0,0,0,25.73,32.782Z" style="fill:#bf920d"/><path d="M26.4,32.819h.006a3.765,3.765,0,0,1,.408-.037.04.04,0,0,0,.036-.041.036.036,0,0,0-.036-.037,3.043,3.043,0,0,0-.4.037.06.06,0,0,0-.021.005.029.029,0,0,0-.026.015.044.044,0,0,0-.005.027A.034.034,0,0,0,26.4,32.819Z" style="fill:#bf920d"/><path d="M30.651,32.489a.05.05,0,0,0,.026,0,1.218,1.218,0,0,1,.345-.125c.021-.005.037-.021.031-.042s-.02-.037-.041-.031a1.143,1.143,0,0,0-.382.136.04.04,0,0,0-.011.052A.047.047,0,0,0,30.651,32.489Z" style="fill:#bf920d"/><path d="M30,32.662s.011-.005.016-.005a2.015,2.015,0,0,1,.387-.1.04.04,0,0,0-.015-.078,2.277,2.277,0,0,0-.409.115.036.036,0,0,0-.016.052A.044.044,0,0,0,30,32.662Z" style="fill:#bf920d"/><path d="M29.27,32.7a.093.093,0,0,1-.031-.005A2.182,2.182,0,0,0,29,32.683h-.005a1.185,1.185,0,0,0-.152.021c-.005.005-.015.01-.021.016a.083.083,0,0,0,0,.031.041.041,0,0,0,.036.031s0,0,.01,0a1.086,1.086,0,0,1,.366,0c.021,0,.032,0,.042,0a.041.041,0,0,0,.037-.041A.036.036,0,0,0,29.27,32.7Z" style="fill:#bf920d"/><path d="M28.6,32.746a.069.069,0,0,0-.026-.005,2.953,2.953,0,0,0-.393-.037.036.036,0,0,0-.036.037.04.04,0,0,0,.036.041,3.914,3.914,0,0,1,.408.037H28.6a.037.037,0,0,0,.036-.031.044.044,0,0,0-.005-.027A.029.029,0,0,0,28.6,32.746Z" style="fill:#bf920d"/><path d="M29.61,25c-.026,0-.047-.005-.073-.005a.816.816,0,0,1-.115-.011,4.525,4.525,0,0,1-1.109-.22,1.2,1.2,0,0,1-.172-.057,3,3,0,0,1-.591-.293.169.169,0,0,1-.026-.021.079.079,0,0,0-.048,0,.085.085,0,0,1-.031.021,2.984,2.984,0,0,1-.758.35,4.51,4.51,0,0,1-1.114.22.745.745,0,0,1-.11.011c-.026,0-.052.005-.078.005s-.032.021-.032.042a6.5,6.5,0,0,0,.074.842,5.468,5.468,0,0,0,1.245,2.7.13.13,0,0,0,.025.036c.079.094.168.189.251.277s.142.142.215.21a4.066,4.066,0,0,0,.313.272.022.022,0,0,0,.021.01c.011,0,.021,0,.027-.01.109-.084.209-.178.313-.267a6.714,6.714,0,0,0,.466-.492.163.163,0,0,0,.026-.036,5.439,5.439,0,0,0,.962-1.637,5.538,5.538,0,0,0,.277-1.067,5.73,5.73,0,0,0,.079-.842A.041.041,0,0,0,29.61,25ZM28.3,28.5a.2.2,0,0,1-.032.037c-.01.01-.015.02-.026.031-.1.125-.219.246-.34.366a1.155,1.155,0,0,1-.089.084c-.1.1-.209.193-.319.282-.1-.089-.214-.183-.313-.277-.063-.058-.121-.12-.178-.178-.089-.094-.173-.183-.251-.277-.011-.011-.016-.021-.026-.031A.244.244,0,0,1,26.7,28.5V24.838c.006,0,.011-.005.016-.005a3.59,3.59,0,0,0,.732-.33.39.39,0,0,0,.052-.036.486.486,0,0,1,.053.036,3.808,3.808,0,0,0,.564.272c.058.021.116.042.173.058.006,0,.01.005.016.005Z" style="fill:#bf920d"/></svg>