<svg xmlns="http://www.w3.org/2000/svg" viewBox="0 0 55 55"><path d="M49.466,19.735H5.533a23.3,23.3,0,0,1,43.933,0Z" style="fill:#028832"/><path d="M49.466,35.265a23.3,23.3,0,0,1-43.933,0Z" style="fill:#d9131a"/><path d="M50.8,27.5a23.134,23.134,0,0,1-1.334,7.762H5.533a23.283,23.283,0,0,1,0-15.53H49.466A23.143,23.143,0,0,1,50.8,27.5Z" style="fill:#fbdc1d"/><path d="M43.043,27.5A15.547,15.547,0,1,1,27.5,11.952,15.547,15.547,0,0,1,43.043,27.5Z" style="fill:#1447ad"/><polygon points="23.885 29.804 24.184 30.019 26.234 31.509 27.201 30.808 24.55 28.884 24.252 28.669 23.29 27.963 19.487 25.201 17.557 25.201 22.918 29.098 20.088 37.807 21.652 36.672 22.248 34.836 23.885 29.804" style="fill:#fbdc1d"/><polygon points="32.745 34.836 28.462 31.724 28.76 31.509 30.81 30.019 30.444 28.884 27.792 30.808 27.499 31.023 26.532 31.724 22.73 34.486 22.133 36.322 27.499 32.425 34.905 37.807 34.309 35.971 32.745 34.836" style="fill:#fbdc1d"/><polygon points="31.71 27.963 31.595 27.618 30.81 25.206 29.612 25.206 30.627 28.319 30.742 28.669 31.108 29.804 32.562 34.271 34.126 35.406 32.076 29.098 39.482 23.721 37.552 23.721 35.988 24.856 31.71 27.963" style="fill:#fbdc1d"/><polygon points="29.131 23.721 28.765 23.721 26.229 23.721 25.862 24.856 29.136 24.856 29.503 24.856 30.695 24.856 35.392 24.856 36.955 23.721 30.329 23.721 27.499 15.007 26.899 16.848 27.499 18.684 29.131 23.721" style="fill:#fbdc1d"/><polygon points="20.052 24.856 24.299 24.856 24.184 25.206 23.399 27.618 24.367 28.319 25.382 25.206 25.491 24.856 25.862 23.721 27.311 19.249 26.715 17.413 24.67 23.721 15.512 23.721 17.076 24.856 19.006 24.856 20.052 24.856" style="fill:#fbdc1d"/><rect x="27.222" y="33.288" width="0.549" height="6.706" style="fill:#fbdc1d"/><polygon points="34.565 17.423 35.01 17.747 31.066 23.172 30.622 22.847 34.565 17.423" style="fill:#fbdc1d"/><polygon points="19.984 17.747 20.434 17.423 24.372 22.847 23.927 23.172 19.984 17.747" style="fill:#fbdc1d"/><polygon points="39.408 31.185 39.236 31.713 32.861 29.642 33.028 29.114 39.408 31.185" style="fill:#fbdc1d"/><polygon points="15.758 31.713 15.591 31.185 21.966 29.114 22.133 29.642 15.758 31.713" style="fill:#fbdc1d"/></svg>