<?xml version="1.0" encoding="utf-8"?>
<!-- Generator: Adobe Illustrator 22.1.0, SVG Export Plug-In . SVG Version: 6.00 Build 0)  -->
<svg version="1.1" id="Layer_1" xmlns="http://www.w3.org/2000/svg" xmlns:xlink="http://www.w3.org/1999/xlink" x="0px" y="0px"
	 viewBox="0 0 55 55" style="enable-background:new 0 0 55 55;" xml:space="preserve">
<style type="text/css">
	.st0{fill:#E0E1E2;}
	.st1{fill:#343434;}
	.st2{fill:#8C8C8C;}
	.st3{fill:#3C3C3B;}
	.st4{fill:#141414;}
	.st5{fill:#393939;}
</style>
<g id="Ethereum_x5F_55">
	<path class="st0" d="M27.5,4.2C14.7,4.2,4.2,14.6,4.2,27.5c0,12.9,10.4,23.3,23.3,23.4s23.3-10.4,23.4-23.3c0,0,0,0,0,0
		C50.8,14.7,40.4,4.2,27.5,4.2z"/>
	<g>
		<polygon class="st1" points="28.2,7.8 27.9,8.7 27.9,34.2 28.2,34.4 40,27.5 		"/>
		<polygon class="st2" points="28.2,7.8 16.3,27.5 28.2,34.4 		"/>
		<polygon class="st3" points="28.2,36.7 28,36.9 28,45.9 28.2,46.4 40,29.7 		"/>
		<polygon class="st2" points="28.2,46.4 28.2,36.7 16.3,29.7 		"/>
		<polygon class="st4" points="28.2,34.4 40,27.5 28.2,22.1 		"/>
		<path class="st5" d="M16.3,27.5l11.8,7V22.1L16.3,27.5z"/>
	</g>
</g>
</svg>
