<svg xmlns="http://www.w3.org/2000/svg" xmlns:xlink="http://www.w3.org/1999/xlink" viewBox="0 0 55 55">
  <defs>
    <clipPath id="clip-path">
      <circle cx="27.5" cy="27.5" r="23.32" fill="none"/>
    </clipPath>
  </defs>
  <g id="eur">
    <g clip-path="url(#clip-path)">
      <g>
        <polygon points="62.48 4.18 62.48 50.82 -7.48 50.82 -7.48 4.18 62.48 4.18 62.48 4.18" fill="#214097" fill-rule="evenodd"/>
        <path d="M27.5,8.15,28.12,10h2L28.5,11.2l.6,1.88-1.6-1.15-1.6,1.15.6-1.88L24.9,10h2l.62-1.87Zm-8.4,31.53.62,1.87h2L20.1,42.73l.6,1.88-1.6-1.15-1.6,1.15.6-1.88L16.5,41.56h2l.62-1.87ZM12.91,33.5l.62,1.87h2l-1.59,1.17.6,1.88-1.6-1.15-1.6,1.15.6-1.88-1.59-1.17h2l.62-1.87ZM10.62,25l.62,1.87h2L11.63,28.1l.6,1.88-1.6-1.15L9,30l.6-1.88L8,26.93h2L10.62,25Zm2.29-8.45.62,1.87h2l-1.59,1.17.6,1.88-1.6-1.15-1.6,1.15.6-1.88-1.59-1.17h2l.62-1.87Zm6.18-6.19.62,1.87h2l-1.59,1.17.6,1.88-1.6-1.15-1.6,1.15.6-1.88-1.59-1.17h2l.62-1.87Zm16.87,0,.62,1.87h2L37,13.47l.6,1.88L36,14.21l-1.6,1.15.6-1.88L33.36,12.3h2L36,10.42Zm6.16,6.16.62,1.87h2l-1.59,1.17.6,1.88-1.6-1.15-1.6,1.15.6-1.88-1.59-1.17h2l.62-1.87ZM44.38,25,45,26.9h2l-1.59,1.17L46,30l-1.6-1.15L42.77,30l.6-1.88-1.59-1.17h2L44.38,25Zm-2.24,8.43.62,1.87h2l-1.59,1.17.6,1.88-1.6-1.15-1.6,1.15.6-1.88-1.59-1.17h2l.62-1.87ZM36,39.64l.62,1.87h2L37,42.7l.6,1.88L36,43.43l-1.6,1.15.6-1.88-1.59-1.17h2L36,39.64ZM27.5,41.92l.62,1.87h2L28.5,45l.6,1.88-1.6-1.15-1.6,1.15.6-1.88L24.9,43.8h2l.62-1.87Z" fill="#fedd23" fill-rule="evenodd"/>
      </g>
    </g>
  </g>
</svg>
