<svg xmlns="http://www.w3.org/2000/svg" xmlns:xlink="http://www.w3.org/1999/xlink" viewBox="0 0 55 55">
    <clipPath id="globalClipPath">
        <circle cx="27.5" cy="27.5" r="23.3" fill="none"/>
    </clipPath>
    <g clip-path="url(#globalClipPath)">
        <path d="M1.18,4.18H21.72v13.7L1.18,4.18Zm32.1,0H53.82L33.28,17.88V4.18ZM62.48,10V19.8H47.71L62.48,10Zm0,25.25V45L47.71,35.2ZM53.82,50.82H33.28V37.12l20.55,13.7Zm-32.1,0H1.18l20.55-13.7v13.7ZM-7.48,45V35.2H7.29L-7.48,45Zm0-25.25V10L7.29,19.8Z"
              fill="#214097" fill-rule="evenodd"/>
        <polygon
                points="62.48 45.05 47.71 35.2 62.48 35.2 62.48 19.8 47.71 19.8 62.48 9.95 62.48 4.18 53.82 4.18 33.28 17.88 33.28 4.18 27.5 4.18 21.72 4.18 21.72 17.88 1.18 4.18 -7.48 4.18 -7.48 9.95 7.29 19.8 -7.48 19.8 -7.48 35.2 7.29 35.2 -7.48 45.05 -7.48 50.82 1.18 50.82 21.72 37.12 21.72 50.82 27.5 50.82 33.28 50.82 33.28 37.12 53.82 50.82 62.48 50.82 62.48 45.05 62.48 45.05"
                fill="#f4f4f5"/>
        <path d="M31.11,4.18V22.69H62.48v9.62H31.11V50.82H23.89V32.31H-7.48V22.69H23.89V4.18h7.21ZM62.48,48.65,42.3,35.2H35.81L59.23,50.82h3.25V48.65ZM42.3,19.8,62.48,6.35V4.18H59.23L35.81,19.8Zm-23.11,0L-4.23,4.18H-7.48V6.35L12.7,19.8ZM12.7,35.2-7.48,48.65v2.16h3.25L19.19,35.2Z"
              fill="#ee2724" fill-rule="evenodd"/>

    </g>
</svg>
