<svg xmlns="http://www.w3.org/2000/svg" xmlns:xlink="http://www.w3.org/1999/xlink" viewBox="0 0 55 55">
    <path d="M50.8,27.5A23.28,23.28,0,0,1,32.174,50.324a23.156,23.156,0,0,1-9.342,0A23.353,23.353,0,0,1,4.676,32.168a23.156,23.156,0,0,1,0-9.342A23.3,23.3,0,0,1,50.8,27.5Z"
          style="fill:#fff"/>
    <path d="M50.8,27.5a23.29,23.29,0,0,1-.47,4.673H32.174V50.324a23.156,23.156,0,0,1-9.342,0V32.168H4.676a23.156,23.156,0,0,1,0-9.342H22.832V4.67a23.446,23.446,0,0,1,9.342,0V22.826H50.33A23.369,23.369,0,0,1,50.8,27.5Z"
          style="fill:#ff0302"/>
    <path d="M19.852,15.952c0-.392.057-1.568.057-1.568s-1.866.24-3.288.36c.126-1.416.366-3.283.366-3.283s-1.176.058-1.574.058-1.573-.058-1.573-.058.246,1.867.366,3.283c-1.417-.12-3.283-.36-3.283-.36s.057,1.176.057,1.568-.057,1.573-.057,1.573,1.866-.24,3.283-.365c-.12,1.421-.366,3.288-.366,3.288s1.181-.058,1.573-.058,1.574.058,1.574.058-.24-1.867-.366-3.288c1.422.125,3.288.365,3.288.365S19.852,16.349,19.852,15.952Z"
          style="fill:#ff0302"/>
    <path d="M19.852,38.912c0-.392.057-1.573.057-1.573s-1.866.245-3.288.366c.126-1.417.366-3.283.366-3.283s-1.176.057-1.574.057-1.573-.057-1.573-.057.246,1.866.366,3.283c-1.417-.121-3.283-.366-3.283-.366s.057,1.181.057,1.573-.057,1.574-.057,1.574,1.866-.241,3.283-.366c-.12,1.422-.366,3.288-.366,3.288s1.181-.063,1.573-.063,1.574.063,1.574.063-.24-1.866-.366-3.288c1.422.125,3.288.366,3.288.366S19.852,39.309,19.852,38.912Z"
          style="fill:#ff0302"/>
    <path d="M44.02,38.912c0-.392.062-1.573.062-1.573s-1.866.245-3.288.366c.126-1.417.366-3.283.366-3.283s-1.176.057-1.573.057-1.574-.057-1.574-.057.246,1.866.366,3.283c-1.417-.121-3.283-.366-3.283-.366s.058,1.181.058,1.573-.058,1.574-.058,1.574,1.866-.241,3.283-.366c-.12,1.422-.366,3.288-.366,3.288s1.181-.063,1.574-.063,1.573.063,1.573.063-.24-1.866-.366-3.288c1.422.125,3.288.366,3.288.366S44.02,39.309,44.02,38.912Z"
          style="fill:#ff0302"/>
    <path d="M44.02,15.952c0-.392.062-1.568.062-1.568s-1.866.24-3.288.36c.126-1.416.366-3.283.366-3.283s-1.176.058-1.573.058-1.574-.058-1.574-.058.246,1.867.366,3.283c-1.417-.12-3.283-.36-3.283-.36s.058,1.176.058,1.568-.058,1.573-.058,1.573,1.866-.24,3.283-.365c-.12,1.421-.366,3.288-.366,3.288s1.181-.058,1.574-.058,1.573.058,1.573.058-.24-1.867-.366-3.288c1.422.125,3.288.365,3.288.365S44.02,16.349,44.02,15.952Z"
          style="fill:#ff0302"/>
</svg>
