<svg xmlns="http://www.w3.org/2000/svg" viewBox="0 0 55 55"><path d="M50.8,27.5a23.412,23.412,0,0,1-.737,5.816,23.128,23.128,0,0,1-2.39,5.831,23.286,23.286,0,0,1-40.346,0,23.247,23.247,0,0,1,0-23.3A23.3,23.3,0,0,1,50.8,27.5Z" style="fill:#fff"/><path d="M50.8,27.5a23.412,23.412,0,0,1-.737,5.816H33.318V50.063a23.333,23.333,0,0,1-11.636,0V33.316H4.937a23.337,23.337,0,0,1,0-11.637H21.682V4.932a23.487,23.487,0,0,1,11.636,0V21.679H50.063A23.482,23.482,0,0,1,50.8,27.5Z" style="fill:#e7122c"/><polygon points="43.055 25.56 29.438 25.56 29.438 11.946 31.341 10.042 29.438 10.042 25.562 10.042 23.659 10.042 25.562 11.946 25.562 25.56 11.945 25.56 10.042 23.661 10.042 25.56 10.042 25.56 10.042 29.44 10.042 29.44 10.042 31.339 11.945 29.44 25.562 29.44 25.562 43.054 23.659 44.958 25.562 44.958 29.438 44.958 31.341 44.958 29.438 43.054 29.438 29.44 43.055 29.44 44.959 31.339 44.959 29.44 44.959 25.56 44.959 23.661 43.055 25.56" style="fill:#f8dc24"/></svg>