<svg xmlns="http://www.w3.org/2000/svg" xmlns:xlink="http://www.w3.org/1999/xlink" viewBox="0 0 55 55">
    <clipPath id="globalClipPath">
        <circle cx="27.5" cy="27.5" r="23.3" fill="none"/>
    </clipPath>
    <g clip-path="url(#globalClipPath)">
        <rect x="-15.298" y="35.58" width="85.595" height="15.696" style="fill:#d81f26"/>
        <rect x="-15.298" y="3.724" width="85.595" height="31.857" style="fill:#fff"/>
        <rect x="16.794" y="25.503" width="11.529" height="7.932"/>
        <path d="M22.784,32.276H15.746L14.186,33.3v1.089h8.6"
              style="fill:#d81f26;stroke:#000;stroke-linecap:square;stroke-width:0.100000001490116px"/>
        <path d="M19.838,27.719a1.868,1.868,0,0,1,1.841,1.888v2.665H23v-10.1H15.746v10.1H18V29.607A1.885,1.885,0,0,1,19.838,27.719Z"
              style="fill:#d81f26;stroke:#000;stroke-linecap:square;stroke-width:0.100000001490116px"/>
        <rect x="18.228" y="15.345" width="3.337" height="6.123"/>
        <path d="M21.555,20.518h-2.92V19.482H16.494v1.036H15.042V19.482h-.867v1.882h7.38m-6.513-.007h6.3v.818h-6.3Z"
              style="fill:#d81f26;stroke:#000;stroke-linecap:square;stroke-width:0.100000001490116px"/>
        <path d="M17.541,13.12v6.362h1.094V17.735a1.181,1.181,0,0,1,1.107-1.223c.021,0,.041,0,.062,0a1.223,1.223,0,0,1,1.222,1.223v1.747h1.041V13.12Z"
              style="fill:#d81f26;stroke:#000;stroke-linecap:square;stroke-width:0.100000001490116px"/>
        <path d="M17.147,12.258v.862h5.269v-.862Z"
              style="fill:#d81f26;stroke:#000;stroke-linecap:square;stroke-width:0.100000001490116px"/>
        <path d="M16.472,10.607v1.651h6.322V10.607H21.82v.84H20.643v-.84h-1.8v.84H17.671v-.84Z"
              style="fill:#d81f26;stroke:#000;stroke-linecap:square;stroke-width:0.100000001490116px"/>
        <path d="M14.186,33.3h8.63"
              style="fill:#d81f26;stroke:#000;stroke-linecap:square;stroke-width:0.100000001490116px"/>
        <path d="M28.4,32.807H22.557l-1.762.851v1.268H28.4"
              style="fill:#d81f26;stroke:#000;stroke-linecap:square;stroke-width:0.100000001490116px"/>
        <path d="M20.793,33.656h7.788" style="fill:#d81f26;stroke:#000;stroke-width:0.100000001490116px"/>
        <rect x="26.676" y="25.503" width="11.529" height="7.932"/>
        <path d="M32.216,32.276h7.038l1.56,1.027v1.089h-8.6"
              style="fill:#d81f26;stroke:#000;stroke-linecap:square;stroke-width:0.100000001490116px"/>
        <path d="M35.161,27.719a1.867,1.867,0,0,0-1.84,1.888v2.665H32v-10.1h7.256v10.1H37V29.607A1.884,1.884,0,0,0,35.161,27.719Z"
              style="fill:#d81f26;stroke:#000;stroke-linecap:square;stroke-width:0.100000001490116px"/>
        <rect x="33.435" y="15.345" width="3.337" height="6.123"/>
        <path d="M33.444,20.518h2.92V19.482h2.141v1.036h1.453V19.482h.867v1.882H33.444m6.514-.007h-6.3v.818h6.3Z"
              style="fill:#d81f26;stroke:#000;stroke-linecap:square;stroke-width:0.100000001490116px"/>
        <path d="M37.458,13.12v6.362H36.364V17.735a1.181,1.181,0,0,0-1.107-1.223c-.021,0-.041,0-.062,0a1.222,1.222,0,0,0-1.221,1.223v1.747H32.932V13.12Z"
              style="fill:#d81f26;stroke:#000;stroke-linecap:square;stroke-width:0.100000001490116px"/>
        <path d="M37.852,12.258v.862H32.583v-.862Z"
              style="fill:#d81f26;stroke:#000;stroke-linecap:square;stroke-width:0.100000001490116px"/>
        <path d="M38.528,10.607v1.651H32.206V10.607h.974v.84h1.176v-.84h1.8v.84h1.177v-.84Z"
              style="fill:#d81f26;stroke:#000;stroke-linecap:square;stroke-width:0.100000001490116px"/>
        <path d="M40.814,33.3h-8.63"
              style="fill:#d81f26;stroke:#000;stroke-linecap:square;stroke-width:0.100000001490116px"/>
        <path d="M26.6,32.807h5.843l1.762.851v1.268H26.6"
              style="fill:#d81f26;stroke:#000;stroke-linecap:square;stroke-width:0.100000001490116px"/>
        <path d="M34.206,33.656H26.419" style="fill:#d81f26;stroke:#000;stroke-width:0.100000001490116px"/>
        <path d="M30.616,31.585a7.6,7.6,0,0,0-1.346.676,13.083,13.083,0,0,0-1.6,1.1,2.158,2.158,0,0,0-.484.41.749.749,0,0,0-.337.633c.01.116.157-.136.255-.148a.788.788,0,0,1,.566-.085,8.117,8.117,0,0,1,.779-.614,14.1,14.1,0,0,1,1.716-1.075,4.776,4.776,0,0,1,.635-.289l-.18-.608Z"
              style="fill:#f6d70f;stroke:#000;stroke-linecap:round;stroke-width:0.100000001490116px"/>
        <path d="M28.293,32.912v.7"
              style="fill:#f6d70f;stroke:#000;stroke-linecap:round;stroke-width:0.100000001490116px"/>
        <path d="M28.728,32.6v.7"
              style="fill:#f6d70f;stroke:#000;stroke-linecap:round;stroke-width:0.100000001490116px"/>
        <path d="M29.163,32.333v.7"
              style="fill:#f6d70f;stroke:#000;stroke-linecap:round;stroke-width:0.100000001490116px"/>
        <path d="M29.6,32.065v.717"
              style="fill:#f6d70f;stroke:#000;stroke-linecap:round;stroke-width:0.100000001490116px"/>
        <path d="M24.418,31.607l-.214.6a15.642,15.642,0,0,1,2.846,1.454,4.072,4.072,0,0,1,.864.693.181.181,0,0,1-.237.224.409.409,0,0,0-.4,0c-.2.09-.38.386-.077.485a.9.9,0,0,0,1.3-.333.724.724,0,0,0-.091-.783,5.882,5.882,0,0,0-1.337-1.023,16.125,16.125,0,0,0-2.649-1.314Z"
              style="fill:#f6d70f;stroke:#000;stroke-linecap:round;stroke-width:0.100000001490116px"/>
        <path d="M27.149,33.028l-.057.6"
              style="fill:#f6d70f;stroke:#000;stroke-linecap:round;stroke-width:0.100000001490116px"/>
        <path d="M27.65,33.335l-.156.59"
              style="fill:#f6d70f;stroke:#000;stroke-linecap:round;stroke-width:0.100000001490116px"/>
        <path d="M28.185,33.745l-.326.457"
              style="fill:#f6d70f;stroke:#000;stroke-linecap:round;stroke-width:0.100000001490116px"/>
        <path d="M28.349,34.857l-.47-.253"
              style="fill:#f6d70f;stroke:#000;stroke-linecap:round;stroke-width:0.100000001490116px"/>
        <path d="M28.5,34.361l-.54.05"
              style="fill:#f6d70f;stroke:#000;stroke-linecap:round;stroke-width:0.100000001490116px"/>
        <path d="M27.8,35.143l-.037-.475"
              style="fill:#f6d70f;stroke:#000;stroke-linecap:round;stroke-width:0.100000001490116px"/>
        <path d="M27.6,34.6l-.445.329"
              style="fill:#f6d70f;stroke:#000;stroke-linecap:round;stroke-width:0.100000001490116px"/>
        <path d="M25.46,32.108v.562"
              style="fill:#f6d70f;stroke:#000;stroke-linecap:round;stroke-width:0.100000001490116px"/>
        <path d="M26.592,32.705v.637"
              style="fill:#f6d70f;stroke:#000;stroke-linecap:round;stroke-width:0.100000001490116px"/>
        <path d="M26.026,32.407v.6"
              style="fill:#f6d70f;stroke:#000;stroke-linecap:round;stroke-width:0.100000001490116px"/>
        <path d="M23.858,45.564v1.448h.906v-.727H26v.727h.974V45.564Zm0,1.994v1.454h3.113V47.558H26v.727H24.764v-.727Z"
              style="fill:#f6d70f;stroke:#000;stroke-width:0.100000001490116px"/>
        <rect x="26.969" y="39.449" width="0.899" height="10.478"
              style="fill:#f6d70f;stroke:#000;stroke-width:0.100000001490116px"/>
        <rect x="26.969" y="40.356" width="0.899" height="9.026"
              style="fill:#f6d70f;stroke:#000;stroke-width:0.100000001490116px"/>
        <path d="M27.418,36.881,29.332,38l-1.914,1.11L25.5,38Zm-2.561.716h-.5v.8h.5l2.561,1.487L29.98,38.4h.5v-.8h-.5l-2.562-1.488Z"
              style="fill:#f6d70f;stroke:#000;stroke-width:0.100000001490116px"/>
        <path d="M27.382,34.154a.9.9,0,0,0-.738.925c0,.674,0,1.349,0,2.022a.9.9,0,0,0,1.708.326c-.1-.062-.206-.123-.309-.186A.545.545,0,0,1,27,37c0-.67,0-1.34,0-2.009a.514.514,0,0,1,.549-.469c.113-.032.268.122.338-.011.105-.15-.075-.266-.175-.349a3.154,3.154,0,0,0-.337-.006Zm1.041.7a.823.823,0,0,1-.338.285V36.5l.361.208c0-.577,0-1.155,0-1.733-.005-.035,0-.09-.02-.115Z"
              style="fill:#f6d70f;stroke:#000;stroke-width:0.100000001490116px"/>
        <rect x="24.762" y="11.448" width="5.283" height="9.602"/>
        <path d="M24.392,11.453v8.034H26.07V17.1a1.435,1.435,0,0,1,2.86,0v2.383h1.677V11.453Zm2.849.9h.518V15.1h-.518Zm-1.486.541h.523v2.012h-.523Zm2.966,0h.524v2.012h-.524Z"
              style="fill:#d81f26;stroke:#000;stroke-width:0.100000001490116px"/>
        <path d="M23.824,10.3v1.143h7.352V10.3Z" style="fill:#d81f26;stroke:#000;stroke-width:0.100000001490116px"/>
        <path d="M23.131,8.968V10.3h8.737V8.968h-1.1V9.7H29.532V8.968H28.119V9.7H26.881V8.968H25.468V9.7H24.229V8.968Z"
              style="fill:#d81f26;stroke:#000;stroke-width:0.100000001490116px"/>
        <path d="M21.51,22.175V23H33.489v-.828Z" style="fill:#d81f26;stroke:#000;stroke-width:0.100000001490116px"/>
        <path d="M21.02,19.482v2.693H33.979V19.482H32.752v1.036H31.12V19.482H28.93v1.036H26.07V19.482H23.88v1.036H22.248V19.482Z"
              style="fill:#d81f26;stroke:#000;stroke-width:0.100000001490116px"/>
        <path d="M22.58,23v9.8h2.313V29.134A2.383,2.383,0,0,1,27.5,26.592a2.409,2.409,0,0,1,2.606,2.542V32.8H32.42V23Z"
              style="fill:#d81f26;stroke:#000;stroke-linejoin:round;stroke-width:0.100000001490116px"/>
    </g>
</svg>
