<svg xmlns="http://www.w3.org/2000/svg" xmlns:xlink="http://www.w3.org/1999/xlink" viewBox="0 0 55 55">
    <path d="M49.466,19.733H5.534a23.3,23.3,0,0,1,43.932,0Z" style="fill:#ce1126"/>
    <path d="M49.466,35.267a23.3,23.3,0,0,1-43.932,0Z" style="fill:#3a7728"/>
    <path d="M50.8,27.5a23.435,23.435,0,0,1-.565,5.1,22.3,22.3,0,0,1-.769,2.662H5.534A21.578,21.578,0,0,1,4.765,32.6a23.345,23.345,0,0,1,0-10.21,21.885,21.885,0,0,1,.769-2.662H49.466a22.626,22.626,0,0,1,.769,2.662A23.469,23.469,0,0,1,50.8,27.5Z"
          style="fill:#0c1c8c"/>
    <path d="M50.235,22.4H4.765a21.885,21.885,0,0,1,.769-2.662H49.466A22.626,22.626,0,0,1,50.235,22.4Z"
          style="fill:#fff"/>
    <path d="M50.235,32.6a22.3,22.3,0,0,1-.769,2.662H5.534A21.578,21.578,0,0,1,4.765,32.6Z" style="fill:#fff"/>
</svg>
