<svg xmlns="http://www.w3.org/2000/svg" viewBox="0 0 55 55"><path d="M44.283,11.355A23.292,23.292,0,0,0,8.06,14.676c-.262.387-.508.779-.738,1.187-.245.424-.481.858-.7,1.3-.215.419-.408.847-.591,1.276A23.293,23.293,0,0,0,6.051,36.6c.184.434.382.858.591,1.276s.44.848.68,1.266c.23.4.476.795.738,1.182A23.29,23.29,0,1,0,44.283,11.355Z" style="fill:#009d4a"/><path d="M50.8,27.5,8.06,40.324c-.262-.387-.508-.779-.738-1.182-.24-.418-.47-.837-.68-1.266s-.407-.842-.591-1.276a23.293,23.293,0,0,1-.015-18.164c.183-.429.376-.857.591-1.276.214-.439.45-.873.7-1.3.23-.408.476-.8.738-1.187Z" style="fill:#fff"/><path d="M46.119,27.5,7.322,39.142c-.24-.418-.47-.837-.68-1.266s-.407-.842-.591-1.276a23.293,23.293,0,0,1-.015-18.164c.183-.429.376-.857.591-1.276.214-.439.45-.873.7-1.3Z" style="fill:#fbd023"/><path d="M23.891,27.563,6.642,37.876c-.209-.418-.407-.842-.591-1.276a23.293,23.293,0,0,1-.015-18.164c.183-.429.376-.857.591-1.276Z"/><path d="M21.276,27.558,6.051,36.6a23.293,23.293,0,0,1-.015-18.164Z" style="fill:#cd1225"/></svg>