<svg xmlns="http://www.w3.org/2000/svg" viewBox="0 0 55 55"><path d="M27.5,4.2A23.343,23.343,0,0,0,5.534,19.733H49.466A23.343,23.343,0,0,0,27.5,4.2Z" style="fill:#0a73cd"/><path d="M50.8,27.5a23.185,23.185,0,0,0-1.334-7.767H5.534a23.278,23.278,0,0,0,0,15.534H49.466A23.141,23.141,0,0,0,50.8,27.5Z" style="fill:#fff"/><path d="M5.534,35.267a23.3,23.3,0,0,0,43.932,0Z" style="fill:#0a73cd"/><polygon points="27.5 25.392 28.081 27.171 29.948 27.171 28.436 28.269 29.011 30.047 27.5 28.949 25.989 30.047 26.569 28.269 25.058 27.171 26.925 27.171 27.5 25.392" style="fill:#0a73cd"/><polygon points="15 21.433 15.575 23.211 17.448 23.211 15.936 24.31 16.512 26.088 15 24.99 13.489 26.088 14.064 24.31 12.552 23.211 14.425 23.211 15 21.433" style="fill:#0a73cd"/><polygon points="15 28.917 15.575 30.69 17.448 30.69 15.936 31.789 16.512 33.567 15 32.469 13.489 33.567 14.064 31.789 12.552 30.69 14.425 30.69 15 28.917" style="fill:#0a73cd"/><polygon points="40.005 21.433 40.58 23.211 42.448 23.211 40.936 24.31 41.517 26.088 40.005 24.99 38.488 26.088 39.069 24.31 37.558 23.211 39.425 23.211 40.005 21.433" style="fill:#0a73cd"/><polygon points="40.005 28.917 40.58 30.69 42.448 30.69 40.936 31.789 41.517 33.567 40.005 32.469 38.488 33.567 39.069 31.789 37.558 30.69 39.425 30.69 40.005 28.917" style="fill:#0a73cd"/></svg>