<svg xmlns="http://www.w3.org/2000/svg" xmlns:xlink="http://www.w3.org/1999/xlink" viewBox="0 0 55 55">
    <clipPath id="globalClipPath">
        <circle cx="27.5" cy="27.5" r="23.3" fill="none"/>
    </clipPath>
    <clipPath id="clip-path-3">
        <path d="M18.6,21.84l-2.11-4.78,1.58-2.57,2.73,1,1.94-2.18,2.51,1.44,2.26-1.82,2.23,1.83,2.53-1.44,1.92,2.18,2.73-1L38.51,17l-2.12,4.78a22.19,22.19,0,0,0-17.79,0Z"
              fill="#2491d0" stroke="#f4f4f5" stroke-miterlimit="2.41" stroke-width="0.2" clip-rule="evenodd"/>
    </clipPath>
    <clipPath id="clip-path-4">
        <path d="M18.57,22.43H36.46V33.71c0,4.22-4.09,8.37-8.95,8.37s-8.94-4.15-8.94-8.37V22.43Z" fill="#f4f4f5"
              stroke="#f4f4f5" stroke-miterlimit="2.41" stroke-width="0.32" clip-rule="evenodd"/>
    </clipPath>
    <g clip-path="url(#globalClipPath)">
        <polygon points="-7.48 19.73 62.48 19.73 62.48 4.18 -7.48 4.18 -7.48 19.73 -7.48 19.73" fill="#ed1d24"
                 fill-rule="evenodd"/>
        <polygon points="-7.48 35.27 62.48 35.27 62.48 19.73 -7.48 19.73 -7.48 35.27 -7.48 35.27" fill="#f1f0f0"
                 fill-rule="evenodd"/>
        <polygon points="-7.48 50.82 62.48 50.82 62.48 35.27 -7.48 35.27 -7.48 50.82 -7.48 50.82" fill="#214097"
                 fill-rule="evenodd"/>
        <g>
            <path d="M18.6,21.84l-2.11-4.78,1.58-2.57,2.73,1,1.94-2.18,2.51,1.44,2.26-1.82,2.23,1.83,2.53-1.44,1.92,2.18,2.73-1L38.51,17l-2.12,4.78a22.19,22.19,0,0,0-17.79,0Z"
                  fill="#2491d0" fill-rule="evenodd"/>
            <g clip-path="url(#clip-path-3)">
                <g>
                    <path d="M37.71,18.85l-.79,1.77h0a17.17,17.17,0,0,0-3.71-1.31l.49-1.9a20.07,20.07,0,0,1,4,1.44Z"
                          fill="#f4f4f5" fill-rule="evenodd"/>
                    <path d="M37.57,19.17l-.5,1.12A21,21,0,0,0,33.3,19l.32-1.24a22.07,22.07,0,0,1,4,1.44Z"
                          fill="#ed1d24" fill-rule="evenodd"/>
                    <path d="M29.74,14.76l2.53-1.44,1.92,2.18-1.32,5.14a23.08,23.08,0,0,0-3.55-.58l.41-5.29Z"
                          fill="#28449c" fill-rule="evenodd"/>
                    <path d="M20.8,15.49l1.94-2.18,2.51,1.44.42,5.3a21.68,21.68,0,0,0-3.55.59l-1.29-5,0-.13Z"
                          fill="#28449c" fill-rule="evenodd"/>
                    <path d="M20.83,15.61l.32,1.23a24.56,24.56,0,0,1,4.22-.7l-.1-1.28h0a27.4,27.4,0,0,0-4.43.75Zm.63,2.47.32,1.24a23.16,23.16,0,0,1,3.78-.64h0l-.1-1.27h0a19.73,19.73,0,0,0-4,.67Z"
                          fill="#ed1d24" fill-rule="evenodd"/>
                    <g>
                        <g>
                            <g>
                                <path d="M25.8,16.28c.09-.11,0-.22.15-.25a.35.35,0,0,1-.21-.19.62.62,0,0,1,.22,0,.39.39,0,0,1-.18-.37.32.32,0,0,0,.13,0l.13,0h0a.3.3,0,0,0-.05-.16L25.76,15a.32.32,0,0,0,.15.06c.07,0,.13,0,.12.1s.12-.1.21.06c0,0,0,0,0,0s0-.13.08-.11,0-.05,0-.1a.46.46,0,0,0,.13-.17.66.66,0,0,0,.14.16.08.08,0,0,1,0,.11s.1-.05.1.11,0,0,0,0a.14.14,0,0,1,.2-.1.07.07,0,0,1,0-.09.46.46,0,0,0,.2-.09s-.24.38-.21.51a.52.52,0,0,1,.16,0,.17.17,0,0,0,.11,0,.54.54,0,0,1-.14.38.53.53,0,0,1,.2,0,.3.3,0,0,1-.23.2s.11,0,.13.12.07.11.07.11a.32.32,0,0,1-.25,0,.25.25,0,0,1,.08.21.32.32,0,0,1-.16,0,.25.25,0,0,1,0,.1.18.18,0,0,0,0,.09.4.4,0,0,1-.22,0,.59.59,0,0,1,0,.2.92.92,0,0,0-.12-.12.31.31,0,0,1-.12.14.3.3,0,0,0-.05-.09.18.18,0,0,1,0-.06,1.09,1.09,0,0,0-.14.14.33.33,0,0,1,0-.19.23.23,0,0,1-.22,0,.2.2,0,0,0,0-.09.23.23,0,0,1,0-.1.24.24,0,0,1-.15,0,.22.22,0,0,1,.06-.21.32.32,0,0,1-.24,0Z"
                                      fill="#f7db12" stroke="#000" stroke-miterlimit="2.41" stroke-width="0.02"
                                      fill-rule="evenodd"/>
                                <path d="M26.49,15.61a.34.34,0,0,1,0,.08.53.53,0,0,1,0,.09.11.11,0,0,1,0,.06l0,0h0l-.06,0a.2.2,0,0,0-.13,0h0l0,0,0,0h0l0,0,0,0h0a.21.21,0,0,1,.14,0l0,0h0a.09.09,0,0,0,0,0,.56.56,0,0,0,0-.09.42.42,0,0,0,0-.08Z"/>
                                <path d="M26.27,15.68l.1,0a.26.26,0,0,1,.09.07h0a.26.26,0,0,0-.09-.07l-.1,0Z"/>
                                <path d="M26.43,15.85a.21.21,0,0,1,0,.1h0s-.21,0-.19-.16h0c0,.1.14.14.17.15a.22.22,0,0,0,0-.08Z"/>
                                <path d="M26.34,15.8l0,0a.05.05,0,0,1,0,0,.05.05,0,0,1,0,0l0,0,0,0a.05.05,0,0,1,0,0,.05.05,0,0,1,0,0l0,0Zm0,0h-.06a0,0,0,0,0,0,.06h.06a0,0,0,0,0,0-.06Z"/>
                                <path d="M26.34,15.84h0Z" fill-rule="evenodd"/>
                                <path d="M26.57,15.61a.34.34,0,0,0,0,.08.45.45,0,0,0,0,.09.11.11,0,0,0,0,.06l0,0h0l.06,0a.21.21,0,0,1,.13,0h0l0,0,0,0h0l0,0,0,0h0a.21.21,0,0,0-.14,0l0,0h0a.1.1,0,0,1,0,0,.41.41,0,0,1,0-.09.32.32,0,0,1,0-.08Z"/>
                                <path d="M26.8,15.68l-.1,0a.28.28,0,0,0-.09.07h0a.27.27,0,0,1,.09-.07l.1,0Z"/>
                                <path d="M26.63,15.85a.2.2,0,0,0,0,.1h0s.21,0,.19-.16h0c0,.1-.14.14-.17.15a.18.18,0,0,1,0-.08Z"/>
                                <path d="M26.73,15.8l0,0a.06.06,0,0,0,0,0,.05.05,0,0,0,0,0l0,0,0,0a.05.05,0,0,0,0,0,.05.05,0,0,0,0,0l0,0Zm0,0h.06a0,0,0,0,1,0,.06H26.7a0,0,0,0,1,0-.06Z"/>
                                <path d="M26.73,15.84h0Z" fill-rule="evenodd"/>
                                <path d="M26.42,16a.23.23,0,0,1,.08-.1h0a.21.21,0,0,0-.07.1Z"/>
                                <path d="M26.41,16.18h0a.12.12,0,0,0,0,.07.07.07,0,0,0,0,0h.11a.12.12,0,0,0,.07,0,.06.06,0,0,0,0,0v0h0l0,0v0a.06.06,0,0,1,0,0,.13.13,0,0,1-.07,0h-.11a.08.08,0,0,1-.06,0,.13.13,0,0,1,0-.07h0Z"/>
                                <path d="M26.54,16.29s0,.06,0,.08v0h0l0,0h0l0,0h0v0s0-.06,0-.08Z"/>
                                <path d="M26.39,16.45h.08a.09.09,0,0,0,.06,0h0a.1.1,0,0,1-.07,0h-.08Z"/>
                                <path d="M26.33,16.27l.05,0,.09,0h0l-.09,0-.06,0Z"/>
                                <path d="M26.35,16.35a.31.31,0,0,0,.12,0h0a.32.32,0,0,1-.13,0Z"/>
                                <path d="M26.75,16.27l-.05,0-.08,0h0l.09,0,.06,0Z"/>
                                <path d="M26.74,16.35a.31.31,0,0,1-.12,0h0a.31.31,0,0,0,.13,0Z"/>
                                <path d="M26,15.5l.52,0h0l-.52,0Z"/>
                                <path d="M26,15.46l.52,0h0l-.52,0Z"/>
                                <path d="M26,15.36a4.12,4.12,0,0,1,.55,0,3.45,3.45,0,0,1,.5,0h0a3.35,3.35,0,0,0-.5,0,4.19,4.19,0,0,0-.55,0Z"/>
                                <path d="M26,15.34a3.07,3.07,0,0,1,.53-.06,3.74,3.74,0,0,1,.56,0h0a3.64,3.64,0,0,0-.55,0,3.15,3.15,0,0,0-.52.05Z"/>
                                <path d="M26.5,15.35h0v0h0v0Zm0,0Z"/>
                                <path d="M26.27,15.36h0v0h0v0Zm0,0Z"/>
                                <path d="M26.75,15.35h0v0h0v0Zm0,0Z"/>
                                <path d="M27,15.35h0v0h0v0Zm0,0Z"/>
                                <path d="M26.06,15.38h0v0h0v0Zm0,0Z"/>
                                <path d="M26.51,15h0s0,0,.06.06h0a.08.08,0,0,0,0,.06h0a.16.16,0,0,0-.06-.06h0A.12.12,0,0,0,26.5,15v0Zm0,.07s0,0-.05-.05a.12.12,0,0,1,0,.06l.05,0a.09.09,0,0,1,0-.05Z"/>
                                <path d="M25.88,15.2h0l0,0v0a.07.07,0,0,1,0,0l0,0h0v0a.05.05,0,0,0,0,0h0l0,0h0Z"/>
                                <path d="M27.11,15.17H27a0,0,0,0,0,0,0l0,0h0l0,0a.06.06,0,0,1,0,0h0l0,0,0,0h0Z"/>
                                <path d="M26.11,15.61l-.05,0,0,0h0l0,0h0l.05,0Z"/>
                                <path d="M26.2,15.57l-.05,0,0,0h0l0,0,.05,0Z"/>
                                <path d="M26.26,15.54l0,0h0l0,0Z"/>
                                <path d="M26.33,15.53l0,0h0l0,0Z"/>
                                <polygon
                                        points="26.43 15.52 26.41 15.48 26.42 15.48 26.44 15.51 26.43 15.52 26.43 15.52"/>
                                <polygon
                                        points="26.59 15.51 26.61 15.47 26.62 15.47 26.6 15.52 26.59 15.51 26.59 15.51"/>
                                <polygon
                                        points="26.69 15.52 26.72 15.47 26.73 15.47 26.7 15.52 26.69 15.52 26.69 15.52"/>
                                <polygon
                                        points="26.77 15.52 26.8 15.47 26.81 15.47 26.78 15.52 26.77 15.52 26.77 15.52"/>
                                <polygon
                                        points="26.83 15.54 26.9 15.47 26.91 15.48 26.84 15.55 26.83 15.54 26.83 15.54"/>
                                <polygon
                                        points="26.92 15.57 27.01 15.47 27.02 15.48 26.93 15.57 26.92 15.57 26.92 15.57"/>
                                <path d="M27.14,15.5a.24.24,0,0,1,0,.1l0,.06a.19.19,0,0,0,.07-.09.22.22,0,0,1,.11-.12h0a.22.22,0,0,0-.1.12.19.19,0,0,1-.1.11h0l0,0a.29.29,0,0,0,.07-.18Z"/>
                                <path d="M25.89,15.54a.23.23,0,0,0,0,.1l0,.06a.15.15,0,0,1-.07-.08.18.18,0,0,0-.11-.11h0a.17.17,0,0,1,.1.1.15.15,0,0,0,.1.1h0l0,0a.2.2,0,0,1,0-.08.21.21,0,0,1,0-.09Z"/>
                                <path d="M26,15.93a.22.22,0,0,0,0-.07l-.06,0h0l.07,0a.25.25,0,0,1,.05.07Z"/>
                                <path d="M26,16l-.17-.08-.07,0h0l.07,0,.18.08Z"/>
                                <path d="M27,15.87l0-.06.06,0h0l-.05,0,0,.06Z"/>
                                <path d="M27.09,15.9a.31.31,0,0,1,.13-.07h0l.1-.05h0l-.1.05h0a.3.3,0,0,0-.13.07Z"/>
                                <path d="M27.07,16l.09,0a.25.25,0,0,1,.08.07h0l-.08-.06-.09,0Z"/>
                                <path d="M27.11,16.19l.07,0,0,0h0l0,0-.07,0Z"/>
                                <path d="M26.95,16.19l.09,0h0l-.09,0Z"/>
                                <path d="M27,16.25l.1.07.06.07h0l-.05-.06-.1-.07Z"/>
                                <path d="M26.94,16.32l.1,0a.27.27,0,0,1,.1.1h0a.24.24,0,0,0-.09-.09l-.09,0Z"/>
                                <path d="M26.94,16.39l0,0h0l0,0h0l0,0h0l0,0Z"/>
                                <path d="M26.84,16.42a.18.18,0,0,1,.09.09h0l0,.05.06,0h0l-.06,0,0-.06h0a.18.18,0,0,0-.09-.08Z"/>
                                <path d="M26.87,16.54s.09.08.09.08h0s-.08,0-.09-.08Z"/>
                                <path d="M26.74,16.49a.27.27,0,0,1,.07.08l0,0h0l0,0a.23.23,0,0,0-.06-.08Z"/>
                                <path d="M26.71,16.58a.3.3,0,0,1,0,.06.21.21,0,0,1,0,.05h0v-.05a.22.22,0,0,0,0-.06Z"/>
                                <path d="M26.75,16.57v0a.19.19,0,0,0,0,.08v0a.09.09,0,0,1,0,0h0a0,0,0,0,0,0,0v0a.2.2,0,0,1,0-.09v0Z"/>
                                <path d="M26.66,16.64a.29.29,0,0,1,0,0,.21.21,0,0,1,0,.05h0a.37.37,0,0,0,0,0v0Z"/>
                                <path d="M26.54,16.6a.39.39,0,0,1,0,.12.28.28,0,0,1,0,.11h0a.27.27,0,0,0,0-.1.36.36,0,0,0,0-.11Z"/>
                                <path d="M26.49,16.49h0Z"/>
                                <path d="M26.49,16.57a.73.73,0,0,0,0,.11h0a.65.65,0,0,1,0-.11Z"/>
                                <path d="M26.43,16.59a1,1,0,0,1,0,.13h0a1.09,1.09,0,0,0,0-.13Z"/>
                                <path d="M26.39,16.59h0a.38.38,0,0,1,0,.16h0a.41.41,0,0,0,0-.15h0Z"/>
                                <path d="M26.39,16.52l0,0,0,.06h0l0-.06,0,0Z"/>
                                <path d="M26.26,16.58l0,.06,0,0h0l0,0,0-.05Z"/>
                                <path d="M26.27,16.45l-.05,0,0,0,0,.07-.05,0h0l0,0,0-.07a.11.11,0,0,1,0-.05l.06,0Z"/>
                                <path d="M26.22,16.39l-.05,0,0,0h0l0,0,.05,0Z"/>
                                <path d="M26.15,16.36l-.09.05L26,16.5h0l.08-.09.09-.06Z"/>
                                <path d="M26.11,16.3l-.08.07-.06.08h0l.06-.08.08-.07Z"/>
                                <path d="M26.14,16.23l-.1.06h0l.11-.06Z"/>
                                <path d="M26,16.25l-.06,0-.07,0h0l.07,0,.06,0Z"/>
                                <path d="M26,16.1l-.08,0a.22.22,0,0,0-.08.07h0a.23.23,0,0,1,.08-.07l.09,0Z"/>
                                <path d="M26.09,16,26,16h0l.12,0Z"/>
                            </g>
                            <g>
                                <path d="M27.72,16.2c.1-.1.06-.21.17-.24a.35.35,0,0,1-.19-.2.62.62,0,0,1,.21,0,.39.39,0,0,1-.14-.39.31.31,0,0,0,.13,0l.13,0h0a.3.3,0,0,0,0-.17l-.18-.35A.32.32,0,0,0,28,15c.07,0,.12.05.11.11s.13-.09.2.08c0,0,0,0,0,0s0-.13.09-.11,0-.06,0-.1a.45.45,0,0,0,.14-.16.68.68,0,0,0,.13.18.09.09,0,0,1,0,.11s.11,0,.09.12,0,0,0,0a.14.14,0,0,1,.21-.08.07.07,0,0,1,.06-.08.47.47,0,0,0,.21-.07s-.28.35-.26.49a.51.51,0,0,1,.16,0,.17.17,0,0,0,.11,0,.54.54,0,0,1-.18.37.51.51,0,0,1,.2,0,.3.3,0,0,1-.25.18s.11,0,.11.14.06.12.06.12a.32.32,0,0,1-.25,0,.25.25,0,0,1,.06.22.32.32,0,0,1-.15,0,.25.25,0,0,1,0,.1.19.19,0,0,0,0,.09.39.39,0,0,1-.22,0,.57.57,0,0,1,0,.19.93.93,0,0,0-.11-.13.31.31,0,0,1-.13.13.28.28,0,0,0,0-.1.23.23,0,0,1,0-.07,1.18,1.18,0,0,0-.15.12.33.33,0,0,1,0-.2.23.23,0,0,1-.22,0,.21.21,0,0,0,0-.09.23.23,0,0,1,0-.09.24.24,0,0,1-.16,0,.22.22,0,0,1,.08-.2.32.32,0,0,1-.24,0Z"
                                      fill="#f7db12" stroke="#000" stroke-miterlimit="2.41" stroke-width="0.02"
                                      fill-rule="evenodd"/>
                                <path d="M28.47,15.6a.4.4,0,0,1,0,.08.39.39,0,0,1,0,.09.09.09,0,0,1,0,.05h0l-.05,0a.21.21,0,0,0-.13-.06h0l0,0,0,0h0l0,0,0,0h0a.22.22,0,0,1,.13.06l0,0h0a.1.1,0,0,0,0,0,.44.44,0,0,0,0-.09.31.31,0,0,0,0-.08Z"/>
                                <path d="M28.24,15.65l.1,0a.28.28,0,0,1,.09.08h0a.27.27,0,0,0-.08-.08l-.1,0Z"/>
                                <path d="M28.39,15.83a.21.21,0,0,1,0,.1h0s-.21-.06-.17-.18h0c0,.1.13.15.16.16a.21.21,0,0,0,0-.08Z"/>
                                <path d="M28.3,15.78l0,0a.06.06,0,0,1,0,0,.06.06,0,0,1,0,0h0l0,0a.05.05,0,0,1,0,0,.06.06,0,0,1,0,0Zm0,0,0,0h0l0,0a0,0,0,0,0,0,0l0,0h0l0,0a0,0,0,0,0,0,0Z"/>
                                <path d="M28.3,15.82v0h0Z" fill-rule="evenodd"/>
                                <path d="M28.56,15.61l0,.08a.46.46,0,0,0,0,.09.1.1,0,0,0,0,.06l0,0h0l.06,0a.21.21,0,0,1,.14,0h0l0,0,0,0h0l0,0,0,0h0a.22.22,0,0,0-.14,0l-.05,0h0l0,0a.09.09,0,0,1,0,0,.39.39,0,0,1,0-.09l0-.08Z"/>
                                <path d="M28.77,15.7h-.1a.27.27,0,0,0-.1.06h0a.26.26,0,0,1,.1-.06h.1Z"/>
                                <path d="M28.59,15.85a.21.21,0,0,0,0,.1h0s.22,0,.2-.14h0c0,.1-.15.13-.19.13a.19.19,0,0,1,0-.08Z"/>
                                <path d="M28.69,15.82h0a.06.06,0,0,0,0,0,.06.06,0,0,0,0,0l0,0h0a.05.05,0,0,0,0,0,.06.06,0,0,0,0,0l0,0Zm0,0h0l0,0a0,0,0,0,1,0,0l0,0h-.06a0,0,0,0,1,0,0l0,0Z"/>
                                <path d="M28.69,15.86h0Z" fill-rule="evenodd"/>
                                <path d="M28.36,16a.23.23,0,0,1,.09-.09h0a.22.22,0,0,0-.08.09Z"/>
                                <path d="M28.34,16.16h0a.12.12,0,0,0,0,.07.07.07,0,0,0,0,0h.11l.07,0a.05.05,0,0,0,0,0,0,0,0,0,0,0,0l0,0h0l0,0a.05.05,0,0,1,0,0,.06.06,0,0,1,0,0,.13.13,0,0,1-.08,0h-.11a.08.08,0,0,1-.05,0,.14.14,0,0,1,0-.08h0Z"/>
                                <path d="M28.45,16.28s0,.06,0,.08v0h0l0,0h0l-.05,0,0,0h0v0s0-.06,0-.08Z"/>
                                <path d="M28.3,16.42l.08,0a.08.08,0,0,0,.06,0h0a.1.1,0,0,1-.07,0l-.09,0Z"/>
                                <path d="M28.25,16.25l0,0,.08,0h0l-.08,0-.05,0Z"/>
                                <path d="M28.26,16.32a.31.31,0,0,0,.12.06h0a.32.32,0,0,1-.12-.06Z"/>
                                <path d="M28.67,16.29l-.06,0-.09,0h0l.09,0,.06,0Z"/>
                                <path d="M28.65,16.36a.31.31,0,0,1-.13,0h0a.33.33,0,0,0,.13,0Z"/>
                                <path d="M28,15.45l.52,0,.47.05h0l-.47-.05-.52,0Z"/>
                                <path d="M28,15.41l.52,0,.47.05h0l-.47-.05-.52,0Z"/>
                                <path d="M28,15.31a4.26,4.26,0,0,1,.56,0,3.38,3.38,0,0,1,.5.06h0a3.4,3.4,0,0,0-.5-.06,4.23,4.23,0,0,0-.55,0Z"/>
                                <path d="M28,15.29a3.05,3.05,0,0,1,.53,0,3.67,3.67,0,0,1,.55.06h0a3.66,3.66,0,0,0-.55-.06,3.08,3.08,0,0,0-.53,0Z"/>
                                <path d="M28.51,15.34h0a0,0,0,0,1,0,0v0h0a0,0,0,0,1,0,0v0Zm0,0Z"/>
                                <path d="M28.28,15.33h0a0,0,0,0,1,0,0v0h0a0,0,0,0,1,0,0v0Zm0,0Z"/>
                                <path d="M28.75,15.36h0a0,0,0,0,1,0,0v0h0v0Zm0,0Z"/>
                                <path d="M29,15.39h0a0,0,0,0,1,0,0v0h0a0,0,0,0,1,0,0v0Zm0,0Z"/>
                                <path d="M28.07,15.33h0a0,0,0,0,1,0,0v0h0a0,0,0,0,1,0,0v0Zm0,0h0a0,0,0,0,0,0,0h0Z"/>
                                <path d="M28.55,15h0s0,0,.05.06h0a.08.08,0,0,0-.05.05h0a.16.16,0,0,0-.06-.06h0a.12.12,0,0,0,.06-.07h0Zm0,.08s0,0,0-.06a.13.13,0,0,1-.05.06l0,.05a.08.08,0,0,1,.05,0Z"/>
                                <path d="M27.91,15.14h0l0,0v0a.06.06,0,0,1,0,0l0,0h0v-.06l0,0h0Z"/>
                                <path d="M29.13,15.23h0l0,0h0a0,0,0,0,0,0,0v0h0l0,0a.07.07,0,0,1,0,0h0l0,0h0Z"/>
                                <path d="M28.09,15.56l0,0,0,0h0l0,0h0l0,0Z"/>
                                <path d="M28.19,15.54l0,0,0,0h0l0,0,0,0Z"/>
                                <path d="M28.25,15.51l0-.05h0l0,.05Z"/>
                                <path d="M28.32,15.51l0,0h0l0,0Z"/>
                                <polygon
                                        points="28.43 15.51 28.41 15.47 28.42 15.46 28.44 15.5 28.43 15.51 28.43 15.51"/>
                                <polygon
                                        points="28.58 15.51 28.61 15.47 28.62 15.48 28.59 15.52 28.58 15.51 28.58 15.51"/>
                                <polygon
                                        points="28.68 15.53 28.72 15.48 28.73 15.49 28.69 15.54 28.68 15.53 28.68 15.53"/>
                                <polygon
                                        points="28.76 15.54 28.79 15.49 28.8 15.5 28.77 15.54 28.76 15.54 28.76 15.54"/>
                                <polygon
                                        points="28.82 15.57 28.89 15.5 28.9 15.51 28.82 15.57 28.82 15.57 28.82 15.57"/>
                                <polygon points="28.91 15.6 29 15.52 29.01 15.53 28.92 15.61 28.91 15.6 28.91 15.6"/>
                                <path d="M29.13,15.55a.27.27,0,0,1,0,.1l0,.06a.19.19,0,0,0,.08-.09.23.23,0,0,1,.12-.11h0a.21.21,0,0,0-.12.11.19.19,0,0,1-.11.1h0l0,0a.26.26,0,0,0,.06-.08.25.25,0,0,0,0-.09Z"/>
                                <path d="M27.89,15.47a.25.25,0,0,0,0,.1l0,.06a.16.16,0,0,1-.06-.09.18.18,0,0,0-.1-.12h0a.17.17,0,0,1,.09.11.15.15,0,0,0,.09.11h0l0,0a.21.21,0,0,1,0-.08.24.24,0,0,1,0-.09Z"/>
                                <path d="M28,15.88a.21.21,0,0,0,0-.07l-.05,0h0l.06,0a.22.22,0,0,1,0,.08Z"/>
                                <path d="M27.92,15.89l-.16-.09-.07,0h0l.06,0,.17.09Z"/>
                                <path d="M29,15.92l.05-.06.06,0h0l-.06,0,0,.06Z"/>
                                <path d="M29,16a.32.32,0,0,1,.14-.06h0l.1,0h0l-.1,0h0a.31.31,0,0,0-.13.06Z"/>
                                <path d="M29,16.09l.09,0a.23.23,0,0,1,.07.07h0l-.07-.07-.08,0Z"/>
                                <path d="M29,16.24l.07,0,0,0h0l0,0-.07,0Z"/>
                                <path d="M28.87,16.22l.09,0h0l-.09,0Z"/>
                                <path d="M28.9,16.29l.09.08a.23.23,0,0,1,0,.07h0l0-.07-.09-.08Z"/>
                                <path d="M28.86,16.35l.09,0a.26.26,0,0,1,.09.11h0a.25.25,0,0,0-.09-.1l-.09,0Z"/>
                                <path d="M28.85,16.43l0,0h0l0,0h0l0,0h0l0,0Z"/>
                                <path d="M28.74,16.44a.18.18,0,0,1,.08.1h0l0,.06.05,0h0l-.06,0,0-.06h0a.17.17,0,0,0-.08-.09Z"/>
                                <path d="M28.76,16.57s.08.09.08.09h0s-.07-.06-.08-.09Z"/>
                                <path d="M28.64,16.5a.28.28,0,0,1,.06.09l0,0h0l0,0a.26.26,0,0,0-.06-.08Z"/>
                                <path d="M28.59,16.59a.31.31,0,0,1,0,.06l0,.05h0l0,0a.28.28,0,0,0,0-.06Z"/>
                                <path d="M28.64,16.59v0a.22.22,0,0,0,0,.08.19.19,0,0,1,0,0v0h0v0a.15.15,0,0,0,0,0,.21.21,0,0,1,0-.09v0Z"/>
                                <path d="M28.54,16.65a.37.37,0,0,1,0,0,.35.35,0,0,1,0,0h0v0a.17.17,0,0,0,0,0Z"/>
                                <path d="M28.43,16.59a.42.42,0,0,1,0,.12.28.28,0,0,1,0,.11h0a.25.25,0,0,0,0-.1.38.38,0,0,0,0-.11Z"/>
                                <path d="M28.38,16.48h0Z"/>
                                <path d="M28.38,16.55a.64.64,0,0,0,0,.11h0a.82.82,0,0,1,0-.11Z"/>
                                <path d="M28.32,16.57a1,1,0,0,1,0,.13h0a1,1,0,0,0,0-.13Z"/>
                                <path d="M28.28,16.57h0a.39.39,0,0,1,0,.15h0a.38.38,0,0,0,0-.15h0Z"/>
                                <path d="M28.29,16.5l0,0,0,.06h0l0-.06,0,0Z"/>
                                <path d="M28.15,16.54l-.05.05,0,0h0l0,0,0,0Z"/>
                                <path d="M28.18,16.42l-.06,0,0,0,0,.07-.05,0h0l0,0,0-.07,0,0,.06,0Z"/>
                                <path d="M28.13,16.35l-.06,0,0,0h0l0,0,.06,0Z"/>
                                <path d="M28.06,16.32l-.09,0-.09.08h0l.09-.08.1,0Z"/>
                                <path d="M28,16.25l-.09.06-.06.07h0l.07-.08.09-.06Z"/>
                                <path d="M28.06,16.19l-.11,0h0l.11,0Z"/>
                                <path d="M27.91,16.19l-.06,0-.08,0h0l.07,0,.06,0Z"/>
                                <path d="M27.95,16h-.09a.21.21,0,0,0-.09.06h0a.22.22,0,0,1,.09-.07h.09Z"/>
                                <path d="M28,16l-.12,0h0L28,16Z"/>
                            </g>
                            <g>
                                <path d="M26.77,18.53c.09-.1,0-.21.15-.25a.36.36,0,0,1-.21-.19.6.6,0,0,1,.22,0,.39.39,0,0,1-.17-.38.31.31,0,0,0,.13,0l.13,0h0a.3.3,0,0,0,0-.17l-.2-.34a.31.31,0,0,0,.15.07c.07,0,.12,0,.12.1s.12-.1.2.07c0,0,0,0,0,0s0-.13.09-.11,0-.05,0-.1a.45.45,0,0,0,.13-.17.67.67,0,0,0,.14.17.08.08,0,0,1,0,.11s.1-.05.1.11,0,0,0,0a.14.14,0,0,1,.2-.09.07.07,0,0,1,.05-.08.46.46,0,0,0,.21-.08s-.25.37-.23.5a.52.52,0,0,1,.16,0,.17.17,0,0,0,.11,0,.53.53,0,0,1-.15.37.53.53,0,0,1,.2,0,.3.3,0,0,1-.23.19s.12,0,.12.13.07.11.07.11a.32.32,0,0,1-.25,0,.25.25,0,0,1,.07.21.32.32,0,0,1-.16,0,.24.24,0,0,1,0,.1.18.18,0,0,0,0,.09.38.38,0,0,1-.22,0,.61.61,0,0,1,0,.2.94.94,0,0,0-.11-.12.31.31,0,0,1-.13.14.28.28,0,0,0,0-.09.21.21,0,0,1,0-.06,1.19,1.19,0,0,0-.14.13.33.33,0,0,1,0-.2.23.23,0,0,1-.22,0,.22.22,0,0,0,0-.09.24.24,0,0,1,0-.09.23.23,0,0,1-.15,0,.22.22,0,0,1,.06-.21.32.32,0,0,1-.24,0Z"
                                      fill="#f7db12" stroke="#000" stroke-miterlimit="2.41" stroke-width="0.02"
                                      fill-rule="evenodd"/>
                                <path d="M27.49,17.88a.31.31,0,0,1,0,.08.41.41,0,0,1,0,.09.1.1,0,0,1,0,.05l0,0h0l-.05,0a.2.2,0,0,0-.13,0h0l0,0,0,0h0l0,0,0,0h0a.22.22,0,0,1,.14.05l0,0h0a.09.09,0,0,0,0,0,.6.6,0,0,0,0-.09l0-.08Z"/>
                                <path d="M27.26,17.95l.1,0a.29.29,0,0,1,.09.07h0a.29.29,0,0,0-.09-.07l-.1,0Z"/>
                                <path d="M27.42,18.12a.21.21,0,0,1,0,.1h0s-.21,0-.18-.17h0c0,.1.14.15.17.15a.18.18,0,0,0,0-.08Z"/>
                                <path d="M27.33,18.07l0,0a.06.06,0,0,1,0,0,.06.06,0,0,1,0,0h0l0,0a.05.05,0,0,1,0,0,.06.06,0,0,1,0,0Zm0,0H27.3a0,0,0,0,0,0,0,0,0,0,0,0,0,0h.06v0a0,0,0,0,0,0,0Z"/>
                                <path d="M27.33,18.11h0Z" fill-rule="evenodd"/>
                                <path d="M27.57,17.89a.4.4,0,0,0,0,.08.41.41,0,0,0,0,.09.11.11,0,0,0,0,.06l0,0h0l.06,0a.21.21,0,0,1,.13,0h0l0,0,0,0h0l0,0,0,0h0a.21.21,0,0,0-.14,0l0,0h0l0,0a.09.09,0,0,1,0,0,.46.46,0,0,1,0-.09.37.37,0,0,1,0-.08Z"/>
                                <path d="M27.79,18l-.1,0a.27.27,0,0,0-.1.07h0A.26.26,0,0,1,27.7,18l.1,0Z"/>
                                <path d="M27.62,18.13a.2.2,0,0,0,0,.1h0s.21,0,.19-.16h0c0,.1-.14.14-.18.14a.2.2,0,0,1,0-.08Z"/>
                                <path d="M27.72,18.08h0a.06.06,0,0,0,0,0,.06.06,0,0,0,0,0l0,0h0a.06.06,0,0,0,0,0,.05.05,0,0,0,0,0l0,0Zm0,0h.06a0,0,0,0,1,0,0,0,0,0,0,1,0,0h-.06a0,0,0,0,1,0,0v0Z"/>
                                <path d="M27.72,18.12h0Z" fill-rule="evenodd"/>
                                <path d="M27.4,18.29a.24.24,0,0,1,.08-.1h0a.22.22,0,0,0-.08.09Z"/>
                                <path d="M27.39,18.45h0a.12.12,0,0,0,0,.07.07.07,0,0,0,0,0h.11a.11.11,0,0,0,.07,0,0,0,0,0,0,0,0v0l0,0h0l0,0a.05.05,0,0,1,0,0,.06.06,0,0,1,0,0,.13.13,0,0,1-.07,0h-.11a.08.08,0,0,1-.06,0,.13.13,0,0,1,0-.07h0Z"/>
                                <path d="M27.51,18.57s0,.06,0,.08v0h0l0,0h0l0,0h0s0,0,0,0,0-.06,0-.08Z"/>
                                <path d="M27.37,18.72h.08a.09.09,0,0,0,.06,0h0a.09.09,0,0,1-.07,0h-.08Z"/>
                                <path d="M27.31,18.54l.05,0,.08,0h0l-.09,0-.06,0Z"/>
                                <path d="M27.32,18.62a.32.32,0,0,0,.12,0h0a.33.33,0,0,1-.13-.05Z"/>
                                <path d="M27.73,18.55l-.06,0-.09,0h0l.09,0,.06,0Z"/>
                                <path d="M27.71,18.63a.32.32,0,0,1-.12,0h0a.33.33,0,0,0,.13,0Z"/>
                                <path d="M27,17.76h.52l.47,0h0l-.47,0H27Z"/>
                                <path d="M27,17.72h.52l.47,0h0l-.47,0H27Z"/>
                                <path d="M27,17.62a4.2,4.2,0,0,1,.55,0,3.52,3.52,0,0,1,.5,0h0a3.43,3.43,0,0,0-.5,0,4.2,4.2,0,0,0-.55,0Z"/>
                                <path d="M27,17.6a3.16,3.16,0,0,1,.53,0,3.74,3.74,0,0,1,.55,0h0a3.72,3.72,0,0,0-.55,0,3.1,3.1,0,0,0-.52,0Z"/>
                                <path d="M27.51,17.62h0v0h0v0Zm0,0Z"/>
                                <path d="M27.28,17.63h0a0,0,0,0,1,0,0v0h0a0,0,0,0,1,0,0v0Zm0,0h0Z"/>
                                <path d="M27.75,17.63h0a0,0,0,0,1,0,0v0h0v0Zm0,0Z"/>
                                <path d="M28,17.64h0a0,0,0,0,1,0,0v0h0a0,0,0,0,1,0,0v0Zm0,0h0Z"/>
                                <path d="M27.07,17.64h0v0h0v0Zm0,0Z"/>
                                <path d="M27.53,17.3h0s0,0,.06.06h0a.08.08,0,0,0,0,.06h0a.16.16,0,0,0-.06-.06h0a.12.12,0,0,0,.06-.07v0Zm0,.07s0,0-.05-.06a.13.13,0,0,1,0,.06l.05,0a.09.09,0,0,1,0-.05Z"/>
                                <path d="M26.89,17.46h0l0,0v0a.05.05,0,0,1,0,0l0,0h0v0a.05.05,0,0,0,0,0v0l0,0h0Z"/>
                                <path d="M28.12,17.47h-.06a.06.06,0,0,0,0,0l0,0h0l0,0a.06.06,0,0,1,0,0h0l0,0h0Z"/>
                                <path d="M27.11,17.87l-.05,0,0,0h0l0,0h0l.05,0Z"/>
                                <path d="M27.21,17.84l-.05,0,0,0h0l0,0,0,0Z"/>
                                <path d="M27.26,17.8l0,0h0l0,0Z"/>
                                <path d="M27.34,17.8l0,0h0l0,0Z"/>
                                <polygon
                                        points="27.44 17.79 27.42 17.75 27.43 17.75 27.45 17.79 27.44 17.79 27.44 17.79"/>
                                <polygon
                                        points="27.59 17.79 27.62 17.75 27.63 17.75 27.6 17.8 27.59 17.79 27.59 17.79"/>
                                <polygon points="27.69 17.8 27.73 17.75 27.73 17.75 27.7 17.81 27.69 17.8 27.69 17.8"/>
                                <polygon points="27.77 17.8 27.8 17.75 27.81 17.76 27.78 17.8 27.77 17.8 27.77 17.8"/>
                                <polygon
                                        points="27.83 17.83 27.9 17.76 27.91 17.77 27.84 17.84 27.83 17.83 27.83 17.83"/>
                                <polygon
                                        points="27.93 17.86 28.01 17.77 28.02 17.77 27.93 17.86 27.93 17.86 27.93 17.86"/>
                                <path d="M28.15,17.79a.27.27,0,0,1,0,.1l0,.06a.19.19,0,0,0,.07-.09.23.23,0,0,1,.11-.12h0a.22.22,0,0,0-.11.11.19.19,0,0,1-.11.11h0l0,0a.26.26,0,0,0,.05-.08.27.27,0,0,0,0-.09Z"/>
                                <path d="M26.9,17.79a.23.23,0,0,0,0,.1l0,.06a.15.15,0,0,1-.07-.08.19.19,0,0,0-.11-.11h0a.17.17,0,0,1,.1.1.16.16,0,0,0,.1.1h0l0,0a.21.21,0,0,1,0-.08.25.25,0,0,1,0-.09Z"/>
                                <path d="M27,18.19a.2.2,0,0,0,0-.07l-.06,0h0a.11.11,0,0,1,.06,0,.23.23,0,0,1,.05.07Z"/>
                                <path d="M27,18.21l-.17-.08-.07,0h0l.07,0,.17.08Z"/>
                                <path d="M28,18.17l0-.06.06,0h0l-.06,0,0,.06Z"/>
                                <path d="M28.08,18.2a.31.31,0,0,1,.14-.07h0l.1,0h0l-.1,0h0a.3.3,0,0,0-.13.07Z"/>
                                <path d="M28.05,18.34l.09,0a.25.25,0,0,1,.08.07h0l-.07-.06-.09,0Z"/>
                                <path d="M28.09,18.49l.07,0,0,0h0l0,0-.07,0Z"/>
                                <path d="M27.93,18.48l.09,0h0l-.09,0Z"/>
                                <path d="M28,18.54l.09.07.05.07h0l0-.06L28,18.55Z"/>
                                <path d="M27.92,18.61l.1,0a.26.26,0,0,1,.1.1h0a.26.26,0,0,0-.09-.1l-.09,0Z"/>
                                <path d="M27.92,18.68l0,0h0l0,0h0l0,0h0l0,0Z"/>
                                <path d="M27.81,18.71a.18.18,0,0,1,.09.09h0l0,.05.06,0h0l-.06,0,0-.06h0a.18.18,0,0,0-.08-.09Z"/>
                                <path d="M27.84,18.83s.08.08.08.08h0s-.08-.05-.09-.09Z"/>
                                <path d="M27.71,18.77a.24.24,0,0,1,.06.08l0,0h0l0,0a.25.25,0,0,0-.06-.08Z"/>
                                <path d="M27.67,18.86a.24.24,0,0,1,0,.06.18.18,0,0,1,0,.05h0v-.05a.28.28,0,0,0,0-.06Z"/>
                                <path d="M27.72,18.86v0a.2.2,0,0,0,0,.08.14.14,0,0,1,0,0,.06.06,0,0,1,0,0h0a0,0,0,0,0,0,0v0a.22.22,0,0,1,0-.09v0Z"/>
                                <path d="M27.63,18.92a.22.22,0,0,1,0,0,.28.28,0,0,1,0,0h0a.4.4,0,0,0,0,0,.19.19,0,0,0,0,0Z"/>
                                <path d="M27.51,18.87a.41.41,0,0,1,0,.12.29.29,0,0,1,0,.11h0a.26.26,0,0,0,0-.1.35.35,0,0,0,0-.11Z"/>
                                <path d="M27.46,18.77h0Z"/>
                                <path d="M27.46,18.84a.63.63,0,0,0,0,.11h0a.67.67,0,0,1,0-.11Z"/>
                                <path d="M27.4,18.86a1,1,0,0,1,0,.13h0a1.08,1.08,0,0,0,0-.13Z"/>
                                <path d="M27.36,18.86h0a.4.4,0,0,1,0,.15h0a.41.41,0,0,0,0-.15h0Z"/>
                                <path d="M27.36,18.79l0,0,0,.06h0l0-.06,0,0Z"/>
                                <path d="M27.23,18.84l0,.05,0,0h0l0,0,0-.05Z"/>
                                <path d="M27.25,18.72l-.06,0,0,0,0,.07-.05,0h0l0,0,0-.07,0-.05.06,0Z"/>
                                <path d="M27.19,18.65l-.05,0,0,0h0l0,0,.06,0Z"/>
                                <path d="M27.12,18.62l-.09.05-.08.08h0l.08-.08.09-.05Z"/>
                                <path d="M27.09,18.56l-.08.07-.06.08h0l.06-.08.09-.07Z"/>
                                <path d="M27.12,18.49l-.11.06h0l.11-.06Z"/>
                                <path d="M27,18.5l-.06,0-.08,0h0l.07,0,.06,0Z"/>
                                <path d="M27,18.36l-.08,0a.21.21,0,0,0-.08.07h0a.24.24,0,0,1,.09-.07l.09,0Z"/>
                                <path d="M27.07,18.31l-.12,0h0l.12,0Z"/>
                            </g>
                        </g>
                        <g>
                            <path d="M30.44,16.13s-.13-.06-.15-.11,0,0,0,0-.08,0-.05-.06a.28.28,0,0,1,.33.09,1.07,1.07,0,0,1,.63-.28,1,1,0,0,1,.68.17,1.06,1.06,0,0,0,.65.14.47.47,0,0,1-.34.1,2.83,2.83,0,0,1-.53-.18s.13.09.25.21a1.06,1.06,0,0,0,.9.34.57.57,0,0,1-.51.07,3,3,0,0,1-.68-.41.77.77,0,0,0-.58-.06.42.42,0,0,1,.17.06.28.28,0,0,0,.18,0s-.09.12-.17.13-.06,0-.11,0a.17.17,0,0,1-.11-.05.14.14,0,0,1,0,.09.12.12,0,0,0,0,.14s0,.1,0,.12a.79.79,0,0,1,.14.11.32.32,0,0,1,0,.09.18.18,0,0,1,.08.09.12.12,0,0,1,.06,0s.33,0,.45.13a.16.16,0,0,0,.13,0,.39.39,0,0,1,.26-.06c.16,0,.19.1.24.12a.16.16,0,0,0,.15,0,.24.24,0,0,1,.23,0,.14.14,0,0,1,.13,0s.09-.09.16,0,0,.15-.15.15,0,.08-.06.09.06.12-.05.11,0,0-.07,0,0,.06-.1.05a.07.07,0,0,0,0,.08s0,.11-.08.08a.3.3,0,0,1,0,.15s.1.07,0,.11.11.1,0,.15c0,0,0,.11-.07.13s0,0,0,0a.07.07,0,0,1,0,.12.73.73,0,0,0-.19.15c-.05.06-.16.18-.18.22s-.09.12-.15.14.11.08,0,.14a.32.32,0,0,1-.23,0c-.06,0-.07-.06,0-.1s-.11,0-.11,0,.07,0,.13-.06,0-.08.1-.14.11-.06.18-.15a.67.67,0,0,0,.1-.15.16.16,0,0,0-.08-.14c-.06,0,0,0-.08-.06a.1.1,0,0,1,0,0s-.15.18-.2.2a.25.25,0,0,0-.16.1c0,.07-.07.06-.09.12s0,.12-.06.13h-.08s.08.1,0,.11a.35.35,0,0,1-.21,0s0-.05,0-.05-.11,0-.09,0,.06,0,.12-.06.1-.09.16-.12a.21.21,0,0,0,.09-.11s.06-.06.08-.1,0,0,0-.09,0-.06,0-.1,0-.09,0-.09-.16.12-.16,0-.07.08-.1,0a.17.17,0,0,1-.12,0,.13.13,0,0,0-.14.09,2.16,2.16,0,0,1-.11.29c0,.08,0,.14-.06.18s0,.08,0,.12,0,.06-.06.09a.15.15,0,0,1-.13,0,.06.06,0,0,1,0-.09s0,.05-.09,0,0,0,0-.07a.75.75,0,0,0,.12-.13s0,0,.06-.07a.53.53,0,0,0,.06-.14.26.26,0,0,0,0-.1s0-.06,0-.12a.3.3,0,0,0,0-.17c0-.05,0-.08,0-.08s-.06,0-.09.06a.5.5,0,0,1-.06.13c0,.06-.07,0-.07.1s0,.11,0,.13-.07,0-.06.09,0,.08,0,.11-.15,0-.19,0-.09,0,0-.09-.07,0-.07,0,.08-.05.11-.07a.23.23,0,0,0,.12-.11c0-.06,0-.08,0-.11s0,0,0,0a.69.69,0,0,1,0-.15c0-.06,0-.1,0-.11s0,0,0-.05,0,0,0-.07,0,0,0-.06,0,0,0-.07,0-.07,0-.12,0-.06,0-.09,0,0,0,0-.07,0-.07,0,.08-.1.1-.13,0-.08,0-.12.07,0,.08-.08,0,0,0-.08,0,0,0-.08-.07,0-.08,0,0,0,0-.06,0,0,0-.07,0,0,.07-.08,0-.08,0-.06,0,0-.07,0,0,0,0,0a.06.06,0,0,1-.07,0,.23.23,0,0,1-.06-.08s-.08,0-.08-.06.06-.06.07-.1,0-.1.08-.12.06,0,.07-.07v-.05Z"
                                  fill="#f7db12" stroke="#000" stroke-miterlimit="2.41" stroke-width="0.01"
                                  fill-rule="evenodd"/>
                            <path d="M31.83,18.9l.17,0h0s.1.08,0,.13l-.13,0h-.13v0a0,0,0,0,1,0,0l0,0,0,0h0s-.1,0-.1,0,0,0,.05,0l.07,0,0,0ZM31,16.11l-.06,0c-.08-.06-.13,0-.3-.06l-.06,0,0,0h0a1.06,1.06,0,0,1,.62-.28.9.9,0,0,1,.59.13l.09,0a1.28,1.28,0,0,0,.31.12,1.35,1.35,0,0,0,.33,0,.45.45,0,0,1-.33.09,2.24,2.24,0,0,1-.46-.16l-.07,0h0l0,0s.13.09.25.21l0,0a1,1,0,0,0,.86.32.55.55,0,0,1-.48.06,2.31,2.31,0,0,1-.57-.33l-.11-.08a.66.66,0,0,0-.28-.09.71.71,0,0,0-.3,0Zm.15,2.63.12,0,.06,0h0s.07.09,0,.1h-.12l-.09,0h0s-.09,0-.08,0a.06.06,0,0,1,0,0l.06,0Zm-.59,0,.06,0,.06,0h.07v0a.08.08,0,0,1,0,0l0,0-.07,0H30.6a0,0,0,0,1,0,0h0a.07.07,0,0,1,0,0h0l0-.05,0,0s0,0-.08,0,0,0,0,0l0,0,0,0a.31.31,0,0,0,.07-.08Zm-.28-.29a.25.25,0,0,0,.15.07h0v0h0a.06.06,0,0,1,0,.08.25.25,0,0,1-.17,0h0l0,0h0a0,0,0,0,1,0,0v0l0,0h0s-.06,0-.06,0,0,0,.07,0l0,0h0l0,0Z"
                                  fill="#ed1d24" fill-rule="evenodd"/>
                            <g>
                                <path d="M30.55,16.23l.06,0h.1a.24.24,0,0,0,.13,0h0a.25.25,0,0,1-.13,0h-.09l-.05,0Z"/>
                                <path d="M30.57,16.24l.06,0h.06l0,0h0l0,0h0l0,0h0l-.05,0h-.06l-.06,0Z"/>
                                <path d="M30.64,16.2a0,0,0,1,1,0,.05,0,0,0,0,1,0-.05,0,0,0,0,1,0,0Z"
                                      fill-rule="evenodd"/>
                                <path d="M30.54,16.15l0,0,0,0h0l0,0Z"/>
                                <path d="M30.62,16.15l0,0,0,0h0l0,0v0Z"/>
                                <path d="M30.46,16.23l0,0h0l0,0Z"/>
                                <path d="M30.47,16.32l0,0,0,0h0l0,0,0,0Z"/>
                                <path d="M30.43,16.3v0h0v0a.07.07,0,0,1,0,0Z"/>
                                <path d="M30.63,16.44a.09.09,0,0,1,0,0v0h0s0,0,0,0v0a.06.06,0,0,0,0,0Z"/>
                                <path d="M30.69,16.3h0l0,0h0l0,0h0Z"/>
                                <path d="M30.82,16.36l0,0,0,0h0l0,0,0,0Z"/>
                                <path d="M30.52,16.5a.09.09,0,0,1,0,0v0h0v0a.12.12,0,0,0,0,0Z"/>
                                <path d="M30.45,16.43v0h0v0Z"/>
                                <path d="M30.45,16.52l0,0a.1.1,0,0,0,0,0h0a.1.1,0,0,1,0,0l0,0Z"/>
                                <path d="M30.26,16.41h.07v0a.1.1,0,0,1,0,0h0v0h0s0,0,0,0h0Z"/>
                                <path d="M31.17,16.25h.05a.5.5,0,0,0,.13,0h0a.49.49,0,0,1-.13,0h-.05Z"/>
                                <path d="M31.18,16.21h0a.06.06,0,0,1,0,0h0l0,0h0Z"/>
                                <path d="M31,16.22l0,0h0l0,0Z"/>
                                <path d="M31,16.25v0l0,0h0l0,0v0Z"/>
                                <path d="M31,16.14l0,0h0l0,0Z"/>
                                <path d="M30.44,16.13a.12.12,0,0,1,0,0,0,0,0,0,1,0,0h.08s0,0,0,0h0s0,0,0,0h-.07a0,0,0,0,0,0,0,.1.1,0,0,0,0,0Z"/>
                                <path d="M30.41,15.94l0,0,0,0h0l0,0,0,0Z"/>
                                <path d="M30.31,16h0l0,0h0l0,0h0Z"/>
                                <path d="M30.32,16l0,0h0v0h0v0h0l0,0Z"/>
                                <path d="M30.95,16.35h0Z"/>
                                <path d="M30.55,16.57h0l.05,0h0l0,0h0Z"/>
                                <path d="M30.8,16.43h.09l.12,0h0l-.12,0H30.8Z"/>
                                <path d="M30.89,16.48l0,0,0,0h0l0,0,0,0Z"/>
                                <path d="M31,16.58s0-.05,0-.05h0s0,0,0,.05Z"/>
                                <path d="M31,16.62s0-.06,0-.06h0s0,.05,0,.06Z"/>
                                <path d="M30.73,16.52h0Z"/>
                                <path d="M30.8,16.58h-.1a.55.55,0,0,1-.09.2l-.09.09h0l.08-.08,0-.06s.06-.15.06-.15h.11Z"/>
                                <path d="M30.88,16.55a.23.23,0,0,1,0,.08.21.21,0,0,1,0,.07.46.46,0,0,0-.05.11h0a.5.5,0,0,1,.06-.12l0-.07a.19.19,0,0,0,0-.07Z"/>
                                <path d="M30.72,16.74l-.09.1-.12.1h0l.12-.1.09-.1Z"/>
                                <path d="M30.68,16.89a.58.58,0,0,1,0-.06.14.14,0,0,1,0,0h0a.14.14,0,0,0,0,0v.06Z"/>
                                <path d="M30.61,16.95a.34.34,0,0,1-.1.06h0a.34.34,0,0,0,.1-.06Z"/>
                                <path d="M30.63,17l0,0-.06,0h0l.06,0,0,0Z"/>
                                <path d="M30.57,17.1h0a.18.18,0,0,1-.13.06h0a.18.18,0,0,0,.12-.06h0Z"/>
                                <path d="M30.63,17.13a.21.21,0,0,1,.06-.14h0a.18.18,0,0,0,0-.11h0a.2.2,0,0,1,0,.12h0a.21.21,0,0,0-.06.13Z"/>
                                <path d="M30.64,17.18a.16.16,0,0,1,0,.1h0a.15.15,0,0,0,0-.09Z"/>
                                <path d="M30.57,17.32s0,.06-.07.08l0,0s0,0,0,0h0s0,0,0,0l0,0s.06,0,.06-.07Z"/>
                                <path d="M30.5,17.26a.28.28,0,0,1-.06.09l0,0a.09.09,0,0,0,0,0h0a.08.08,0,0,1,0,0l0,0a.27.27,0,0,0,.06-.08Z"/>
                                <path d="M30.53,17.5l.05,0a.11.11,0,0,0,0-.06.24.24,0,0,1,0-.07h0a.21.21,0,0,0,0,.07.12.12,0,0,1,0,.06l-.05,0Z"/>
                                <path d="M30.6,17.53a.37.37,0,0,1-.08.12l0,0,0,0h0l0,0,0,0a.36.36,0,0,0,.07-.12Z"/>
                                <path d="M30.64,17.68l0,0a.1.1,0,0,1,0,0h0a.11.11,0,0,0,0,0l0,0Z"/>
                                <path d="M30.57,17.72l0,0a.17.17,0,0,0,0,.07h0a.21.21,0,0,1,0-.07l0,0Z"/>
                                <path d="M30.61,17.76a.07.07,0,0,1,0,0v0a.1.1,0,0,0,0,0h0a.12.12,0,0,1,0,0v0a.07.07,0,0,0,0,0Z"/>
                                <path d="M30.67,17.93a.13.13,0,0,0,0,.05h0a.12.12,0,0,1,0-.06Z"/>
                                <path d="M30.71,17.89a.11.11,0,0,1,0-.06h0a.17.17,0,0,1,0-.05h0a.13.13,0,0,0,0,0,.11.11,0,0,0,0,.06Z"/>
                                <path d="M30.72,17.71l0-.07a.25.25,0,0,1,0-.08.27.27,0,0,1,.07-.14l0,0a.15.15,0,0,0,0-.11h0a.16.16,0,0,1,0,.12l0,0a.26.26,0,0,0-.07.13.19.19,0,0,0,0,.08l0,.07Z"/>
                                <path d="M30.7,17.34a.19.19,0,0,0,0-.13v-.06a.25.25,0,0,1,0-.09.16.16,0,0,1,0-.07h0a.15.15,0,0,0,0,.07.26.26,0,0,0,0,.09v.06a.19.19,0,0,1,0,.13Z"/>
                                <path d="M30.83,17.22a.3.3,0,0,1,0-.08.23.23,0,0,1,0-.08.17.17,0,0,1,0-.06l0-.05h0l0,0,0,.05a.2.2,0,0,0,0,.08.27.27,0,0,0,0,.08Z"/>
                                <path d="M30.88,17.05a.16.16,0,0,0,0-.09h0a.08.08,0,0,1,0-.07.17.17,0,0,1,.05-.07h0a.15.15,0,0,0,0,.07.08.08,0,0,0,0,.06h0a.16.16,0,0,1,0,.1Z"/>
                                <path d="M30.92,16.88a.12.12,0,0,0,0,.05h0a.13.13,0,0,1,0-.06Z"/>
                                <path d="M30.81,16.89a.13.13,0,0,1,0-.07l0,0a.12.12,0,0,0,0,0h0a.13.13,0,0,1,0,0l0,0a.13.13,0,0,0,0,.06Z"/>
                                <path d="M30.92,16.74a.12.12,0,0,0,0-.09v0h0v0a.12.12,0,0,1,0,.1Z"/>
                                <path d="M31,16.83l0-.09a.17.17,0,0,0,0-.07h0a.16.16,0,0,1,0,.07.4.4,0,0,1,0,.09Z"/>
                                <path d="M31.13,16.81l0,0a.11.11,0,0,0,0,0h0a.15.15,0,0,1,0,0l0,0Z"/>
                                <path d="M31.21,17l0,0s0,0,0-.06h0s0,.05,0,.07l0,0Z"/>
                                <path d="M31.18,16.9a.24.24,0,0,0,0,.09.09.09,0,0,0,0,.06h0a.1.1,0,0,1,0-.06.23.23,0,0,1,0-.09Z"/>
                                <path d="M31.11,17l0,.06a.25.25,0,0,1,0,.05s0,.05,0,.05h0s0,0,0-.06V17l0-.05Z"/>
                                <path d="M31.07,17a.07.07,0,0,0,0,0,.28.28,0,0,0,0,.08h0a.28.28,0,0,1,0-.08.08.08,0,0,1,0,0Z"/>
                                <path d="M31.09,16.84a.06.06,0,0,1,0,0,.08.08,0,0,0,0,.06A.14.14,0,0,1,31,17v0a.13.13,0,0,0,0,.05.15.15,0,0,0,0,.06.37.37,0,0,1,0,.1.26.26,0,0,1,0,.13h0a.25.25,0,0,0,0-.12.44.44,0,0,0,0-.1.15.15,0,0,1,0-.06A.12.12,0,0,1,31,17v0a.15.15,0,0,0,0-.08.09.09,0,0,1,0-.07.05.05,0,0,0,0,0Z"/>
                                <path d="M30.92,17.16a.19.19,0,0,0,0,.06.23.23,0,0,0,0,.05h0a.22.22,0,0,1,0-.06.31.31,0,0,1,0-.06Z"/>
                                <path d="M30.83,17.49l0-.06a.18.18,0,0,0,0,0h0a.13.13,0,0,1,0,0l0,.06Z"/>
                                <path d="M30.81,17.56v0h0v0Z"/>
                                <path d="M30.84,17.64l0,.06a.31.31,0,0,0,0,.12.44.44,0,0,0,0,.1.21.21,0,0,0,0,.07h0a.25.25,0,0,1,0-.07.64.64,0,0,1,0-.1.31.31,0,0,1,0-.13l0-.05Z"/>
                                <path d="M30.92,17.47a.3.3,0,0,1,0,.13.28.28,0,0,0,0,.09.36.36,0,0,0,0,.11h0a.33.33,0,0,1,0-.11.23.23,0,0,1,0-.09.33.33,0,0,0,0-.12Z"/>
                                <path d="M31,17.6v0a.11.11,0,0,0,0,.11l0,.05,0,0h0a0,0,0,0,0,0,0,.38.38,0,0,1,0,0h0a.26.26,0,0,0,0,0,0,0,0,0,1,0,0h0l0,0,0-.05a.12.12,0,0,1,0-.11v0Z"/>
                                <path d="M31,17.47a.41.41,0,0,0,0,.08.16.16,0,0,0,0,.06h0a.18.18,0,0,1,0-.07.36.36,0,0,1,0-.08Z"/>
                                <path d="M31.07,17.29a.14.14,0,0,1,0,.07.18.18,0,0,1,0,.09h0a.18.18,0,0,0,0-.08.13.13,0,0,0,0-.07Z"/>
                                <path d="M31.16,17.21h0a.25.25,0,0,1,.05.11h0v0a.26.26,0,0,0,0-.12h0a.3.3,0,0,1,0,.12v0h0a.25.25,0,0,0-.05-.11h0Zm.06.12h0Z"/>
                                <path d="M31.18,17.43a.12.12,0,0,1,0,.07.2.2,0,0,0,0,.11.2.2,0,0,0,0,.1l0,.05.06-.09a.56.56,0,0,0,.06-.1h0a.52.52,0,0,1-.07.1l-.07.1h0l0-.06a.17.17,0,0,1,0-.21s0,0,0-.07Z"/>
                                <path d="M31.21,17.87a.21.21,0,0,0,.06-.07.16.16,0,0,0,0-.08h0a.17.17,0,0,1,0,.09.24.24,0,0,1-.06.08Z"/>
                                <path d="M31.19,18a.13.13,0,0,1,0,.05l0,.06h0l0-.06a.1.1,0,0,0,0-.05Z"/>
                                <path d="M31.07,18a.24.24,0,0,0,0,.06.12.12,0,0,1,0,0,.26.26,0,0,1,0,.1h0a.25.25,0,0,0,0-.1.11.11,0,0,0,0,0,.21.21,0,0,1,0-.06Z"/>
                                <path d="M30.88,18.29a.16.16,0,0,1,0-.09h0a.15.15,0,0,0,0,.08Z"/>
                                <path d="M30.88,18.36a.12.12,0,0,1,0,.07h0a.12.12,0,0,0,0-.06Z"/>
                                <path d="M30.83,18.54a.16.16,0,0,1-.05.07h0a.15.15,0,0,0,0-.06Z"/>
                                <path d="M30.86,17.87a.23.23,0,0,0,0,.09.37.37,0,0,1,0,.13A.13.13,0,0,0,31,18h0a.13.13,0,0,1-.06.12h0a.35.35,0,0,0,0-.13.23.23,0,0,1,0-.09Z"/>
                                <path d="M31,17.87s0,.06,0,.06h0a.08.08,0,0,1,0-.07Z"/>
                                <path d="M31.29,17.93a.37.37,0,0,0,0,.11.17.17,0,0,0,0,.08h0a.17.17,0,0,1,0-.09.33.33,0,0,1,0-.11Z"/>
                                <path d="M31.54,18l-.11.07-.07.08h0a.3.3,0,0,1,.07-.08l.11-.08Z"/>
                                <path d="M31.38,17.9a.06.06,0,0,0,0,.06h0a.07.07,0,0,1,0-.07Z"/>
                                <path d="M31.31,17.37h0a.22.22,0,0,1,.06.23h0a.21.21,0,0,0-.06-.22h0Z"/>
                                <path d="M31.3,17.08a.15.15,0,0,1,0,.06h0a.39.39,0,0,1,0,.09.22.22,0,0,0,0,.12h0a.22.22,0,0,1,0-.12.32.32,0,0,0,0-.09h0a.15.15,0,0,0,0-.06Z"/>
                                <path d="M31.42,17.34a.08.08,0,0,1,0,0,.33.33,0,0,1,0,.07h0a.31.31,0,0,0,0-.07l0,0Z"/>
                                <path d="M31.41,17.2a.73.73,0,0,0,0-.12.2.2,0,0,0,0-.07h0a.22.22,0,0,1,0,.08.74.74,0,0,1,0,.12Z"/>
                                <path d="M31.3,17h0v0h0v0l0,0Z"/>
                                <path d="M31.58,17.2l0-.06a.24.24,0,0,1,0-.06.18.18,0,0,0-.05-.09h0a.19.19,0,0,1,.06.09.22.22,0,0,0,0,.06l0,.05Z"/>
                                <path d="M31.59,17.09l0,0,0,0h0l0,0,0,.05Z"/>
                                <path d="M31.67,17.1v.06a.08.08,0,0,1,0,0h0a.09.09,0,0,0,0,0V17.1Z"/>
                                <path d="M31.73,17.14a.14.14,0,0,0,0-.06l0-.06h0l0,.06a.13.13,0,0,1,0,.06Z"/>
                                <path d="M31.77,17.19a.08.08,0,0,1,0,.07h0a.07.07,0,0,0,0-.06Z"/>
                                <path d="M31.87,17.3a.33.33,0,0,0,0-.08.36.36,0,0,0,0-.09h0a.47.47,0,0,1,0,.09.3.3,0,0,1,0,.09Z"/>
                                <path d="M31.93,17.31a.4.4,0,0,0,0-.1.21.21,0,0,0,0-.07h0a.27.27,0,0,1,0,.08.46.46,0,0,1,0,.1Z"/>
                                <path d="M32.06,17.24l0-.06-.06,0h0l.06,0,0,.06Z"/>
                                <path d="M32.07,17.16a.14.14,0,0,0-.05,0h0a.15.15,0,0,1,.06,0Z"/>
                                <path d="M32.19,17.32a.43.43,0,0,0,0-.14.27.27,0,0,0-.07-.1h0a.27.27,0,0,1,.07.1.48.48,0,0,1,0,.14Z"/>
                                <path d="M32.21,17.14l0,0,0,0h0l0,0,0,0Z"/>
                                <path d="M32.33,17.27a.37.37,0,0,0,0-.09l0-.06a.22.22,0,0,1,0-.05h0a.28.28,0,0,0,0,.05l0,.05a.39.39,0,0,1,0,.09Z"/>
                                <path d="M32.36,17.11a.12.12,0,0,1,0,0v0h0v0a.07.07,0,0,0,0,0Z"/>
                                <path d="M32.37,17.29v0h0v0Z"/>
                                <path d="M32.46,17.35s0,0,0,0a.16.16,0,0,0,0-.07.08.08,0,0,1,0-.06h0a.08.08,0,0,0,0,.05.18.18,0,0,1,0,.07v0Z"/>
                                <path d="M32.53,17.26v-.05h0v.05Z"/>
                                <path d="M32.62,17.32a.11.11,0,0,0,0,0l0-.06h0l0,.06a.1.1,0,0,1,0,.05Z"/>
                                <path d="M32.55,17.31l0,.05a.22.22,0,0,1,0,.06h0a.22.22,0,0,0,0-.06l0,0Z"/>
                                <path d="M32.53,17.44a.12.12,0,0,1,0,.07.19.19,0,0,0,0,.05.43.43,0,0,0,0,.09h0a.38.38,0,0,1,0-.09.15.15,0,0,1,0-.06.14.14,0,0,0,0-.07Z"/>
                                <path d="M32.58,17.64l0,0,.05.06h0l-.05-.06,0,0Z"/>
                                <path d="M32.67,17.54l0,0,0,0h0v0l0,0Z"/>
                                <path d="M32.73,17.43a.42.42,0,0,0,.08.09h0a.43.43,0,0,1-.08-.09Z"/>
                                <path d="M32.82,17.4l0,0v0l0,0h0a.09.09,0,0,1,0,0v0l0,0Z"/>
                                <path d="M32.88,17.35l0,0h0l0,0Z"/>
                                <path d="M33,17.18l0,0,0,0h0l0,0,0,0Z"/>
                                <path d="M32.85,17.2h0a.09.09,0,0,1,0,0,0,0,0,0,1,0,0h0a0,0,0,0,0,0,0,.09.09,0,0,0,0,0v0Z"/>
                                <path d="M32.74,17.26a.18.18,0,0,0,0,.05h0a.17.17,0,0,1,0-.06Z"/>
                                <path d="M32.76,17.21l0,0,0,0h0l0,0,0,0Z"/>
                                <path d="M32.34,17.36l.07.07a.17.17,0,0,1,0,.08h0s0,0-.05,0a.3.3,0,0,1-.09.27h0a.29.29,0,0,0,0-.15h0a.29.29,0,0,1,0,.15.31.31,0,0,0,.08-.26h.06a.15.15,0,0,0,0-.07l-.07-.06Z"/>
                                <path d="M32.29,17.45a.08.08,0,0,0,0,.05h0a.09.09,0,0,1,0-.06Z"/>
                                <path d="M32.21,17.48a.12.12,0,0,1,0,.07.18.18,0,0,0,0,.07.33.33,0,0,0,0,.14h0s-.09-.06-.09-.13a.45.45,0,0,0,0-.12v0h0v0a.47.47,0,0,1,0,.12.17.17,0,0,0,.08.12.31.31,0,0,1,0-.13.2.2,0,0,1,0-.07.11.11,0,0,0,0-.06Z"/>
                                <path d="M32,17.63l0,.06,0,.05a.17.17,0,0,0,.11-.07h0a.18.18,0,0,1-.13.08h0l0-.06a.18.18,0,0,0,0-.05Z"/>
                                <path d="M32.05,17.31v0a.06.06,0,0,1,0,0h0a.05.05,0,0,0,0,0v0Z"/>
                                <path d="M32,17.37s0,.06,0,.06h0s0,0,0-.07Z"/>
                                <path d="M31.82,17.32l0,.05a.18.18,0,0,1,0,.06.25.25,0,0,1,0,0h0a.16.16,0,0,0,0,0,.16.16,0,0,0,0-.06l0-.05Z"/>
                                <path d="M31.79,17.47s0,0,0,0a.15.15,0,0,1,0,.1l0,0a.32.32,0,0,0-.06.12.6.6,0,0,1,.13-.09l0,0s0,0,0,0h0s0,0,0,0h0a.12.12,0,0,1-.06,0,.71.71,0,0,0-.13.09h0a.3.3,0,0,1,.07-.13l0,0a.16.16,0,0,0,0-.09.26.26,0,0,1,0,0Z"/>
                                <path d="M31.69,17.52a.08.08,0,0,0,0,0h0a.09.09,0,0,1,0,0Z"/>
                                <path d="M31.71,17.43a.19.19,0,0,0,0-.08l0-.06a.31.31,0,0,0,0,.12.28.28,0,0,1,0,.13h0a.31.31,0,0,0-.07-.2h0a.3.3,0,0,1,.07.19.3.3,0,0,0,0-.12.32.32,0,0,1,0-.13h0l0,.07a.2.2,0,0,1,0,.08Z"/>
                                <path d="M31.49,17.19s.05.09.05.09h0s-.06-.06-.05-.1Z"/>
                                <path d="M31.44,17.54a.17.17,0,0,1,0,.07.16.16,0,0,1,0,.06.1.1,0,0,0,0,.06h0a.11.11,0,0,1,0-.07.14.14,0,0,0,0-.06.18.18,0,0,0,0-.07Z"/>
                                <path d="M31.41,17.8a.37.37,0,0,1,.05-.08l0,0a.41.41,0,0,0,0-.1h0a.42.42,0,0,1,0,.11l0,0a.38.38,0,0,0-.05.08Z"/>
                                <path d="M31.49,17.9v0a.19.19,0,0,1,0-.12.28.28,0,0,0,0-.09h0a.28.28,0,0,1,0,.1.18.18,0,0,0,0,.11v0Z"/>
                                <path d="M31.59,17.9a.35.35,0,0,1,0-.05l0,0h0l0,0a.35.35,0,0,0,0,.05Z"/>
                                <path d="M31.82,17.77a.2.2,0,0,1-.05.06.43.43,0,0,0-.11.13.33.33,0,0,0,0,.18h0a.33.33,0,0,1,0-.19.42.42,0,0,1,.11-.14l.05-.06Z"/>
                                <path d="M31.61,18.19a.09.09,0,0,1,0,0l.05,0s.08-.07.1-.11v0h0a.09.09,0,0,1,.05,0h0a.08.08,0,0,0,0,0h0v0s-.06.1-.1.11l-.05,0,0,0Z"/>
                                <path d="M31.52,18.12l0,0,.07,0h0l-.06,0,0,0Z"/>
                                <path d="M31.67,18.22v0a.08.08,0,0,0,0,0h0a.09.09,0,0,1,0,0,.22.22,0,0,1,0,0Z"/>
                                <path d="M31.74,18.36a.25.25,0,0,0,0,.09h0a.25.25,0,0,1,0-.1Z"/>
                                <path d="M31.39,18.68a.06.06,0,0,1,0,0h0a.05.05,0,0,0,0,0Z"/>
                                <path d="M31.31,18.74l0,0,0,0h0l0,0,0,0Z"/>
                                <path d="M31.79,18.29l0,0h0l0,0h0l0,0h0l0,0Z"/>
                                <path d="M31.93,18.29a.34.34,0,0,1-.06-.1.15.15,0,0,1,0-.08.26.26,0,0,0-.14.12h0a.27.27,0,0,1,.15-.12h0a.13.13,0,0,0,0,.08.3.3,0,0,0,.05.1Z"/>
                                <path d="M31.78,18a.39.39,0,0,1,0,.1h0a0,0,0,0,0,0,0h0a.05.05,0,0,1,0,0h0a.42.42,0,0,0,0-.09Z"/>
                                <path d="M32.05,18.15l0,0,0,.05h0l0-.05,0,0Z"/>
                                <path d="M32,18.1h0v0h0v0h0Z"/>
                                <path d="M32.1,18.12l0,0v0h0v0Z"/>
                                <path d="M32.12,18.23a.06.06,0,0,0,0,0v0a.11.11,0,0,1,0,0h0a.09.09,0,0,0,0,0v0a.07.07,0,0,1,0,0Z"/>
                                <path d="M32.21,18.3v.07l0,0h0l0,0V18.3Z"/>
                                <path d="M32.23,18.37a.13.13,0,0,1,0,0l0,0h0l0,0,0,0Z"/>
                                <path d="M32.23,18.52a.16.16,0,0,1-.07.09h0a.15.15,0,0,0,.06-.08Z"/>
                                <path d="M32.17,18.68a.35.35,0,0,1-.08.09h0a.32.32,0,0,0,.08-.09Z"/>
                                <path d="M32.26,18.56l0,0h0l0,0Z"/>
                                <path d="M32.35,18.44a.2.2,0,0,1,0,.06.41.41,0,0,1,0,.07h0a.32.32,0,0,0,0-.07.26.26,0,0,0,0-.06Z"/>
                                <path d="M32.45,18.37a.24.24,0,0,1,0,.1h0a.22.22,0,0,0,0-.1Z"/>
                                <path d="M32.32,18.41a.14.14,0,0,1,0-.06h0s0,0,0,.06Z"/>
                                <path d="M32.61,18.09v0l0,0h0l0,0v0Z"/>
                                <path d="M32.52,18a.14.14,0,0,1,0,.06v0a.1.1,0,0,0,0,.07v0a.07.07,0,0,1,0,0h0s0,0,0,0v0a.12.12,0,0,1,0-.07v0a.14.14,0,0,0,0-.06Z"/>
                                <path d="M32.6,18h0Z"/>
                                <path d="M32.58,17.81l.09.07h0l-.09-.07Z"/>
                                <path d="M32.56,17.89s0,.07,0,.07h0s0-.06,0-.08Z"/>
                                <path d="M32.41,17.78a.23.23,0,0,1,0,.08.4.4,0,0,1,0,.09.2.2,0,0,0,0-.07v0a.09.09,0,0,1,0-.06.05.05,0,0,0,0,0h0a.06.06,0,0,1,0,0,.1.1,0,0,0,0,.05.18.18,0,0,1,0,0,.26.26,0,0,1,0,.09v0a.35.35,0,0,0,0-.1.19.19,0,0,0,0-.07Z"/>
                                <path d="M32.42,18.06v0a.13.13,0,0,1,0,.1h0a.12.12,0,0,0,0-.1v0Z"/>
                                <path d="M32.31,18v.07a.17.17,0,0,1,0,.05.06.06,0,0,0,0,0,.11.11,0,0,1,0-.06h0a.12.12,0,0,0,0,.06h0a.07.07,0,0,1,0-.05.16.16,0,0,0,0-.05V18Z"/>
                                <path d="M32.17,18.19a.07.07,0,0,0,0,0,.08.08,0,0,1,0,0l0,0h0l0,0v0a.06.06,0,0,1,0,0Z"/>
                                <path d="M32.28,18.22s0,0,0,0h0s0,0,0,0Z"/>
                                <path d="M32.16,18a.16.16,0,0,1,0-.06v0l0,0h0l0,.05v0a.13.13,0,0,0,0,.06Z"/>
                                <path d="M32.34,17.88h0a0,0,0,0,0,0,0h0a0,0,0,0,1,0,0v0h0Z"/>
                                <path d="M32.08,17.81h0l0,0h0s0,0,0,0l0,0h0Z"/>
                                <path d="M32,17.82l0,0A.17.17,0,0,1,32,18h0a.21.21,0,0,0-.11-.13h0A.21.21,0,0,1,32,18a.17.17,0,0,0,0-.15l0,0Z"/>
                                <path d="M30.48,18.35v0a0,0,0,0,1,0,0h0a0,0,0,0,0,0,0v0Z"/>
                                <path d="M30.53,18a.08.08,0,0,1,0,0h0a.08.08,0,0,0,0,0Z"/>
                                <path d="M30.66,16.07a.73.73,0,0,1,.19-.13,1,1,0,0,1,.39-.07c.35,0,.45.1.45.1h0s-.1-.1-.44-.1a.93.93,0,0,0-.38.07.7.7,0,0,0-.19.12Z"/>
                                <path d="M30.95,16.05A.14.14,0,0,0,30.9,16l-.07,0h0l.08,0A.15.15,0,0,1,31,16Z"/>
                                <path d="M31.14,16a.23.23,0,0,0,0-.09A.16.16,0,0,0,31,15.9h0a.17.17,0,0,1,.08.06.22.22,0,0,1,0,.09Z"/>
                                <path d="M31,15.9a.16.16,0,0,0-.06-.06l-.07,0h0l.08,0a.19.19,0,0,1,.07.06Z"/>
                                <path d="M31.22,15.88a.2.2,0,0,0,0-.09.07.07,0,0,0-.05,0h0a.08.08,0,0,1,.06,0,.21.21,0,0,1,0,.09Z"/>
                                <path d="M31.42,15.89l0,0a.18.18,0,0,0,0-.05.09.09,0,0,0,0,0l0,0h0l0,0a.09.09,0,0,1,0,.05.15.15,0,0,1,0,.06l0,0Z"/>
                                <path d="M31.62,15.94a.23.23,0,0,0,.05-.07.08.08,0,0,0,0-.06h0a.09.09,0,0,1,0,.07.23.23,0,0,1-.06.08Z"/>
                                <path d="M31.88,15.9h0a.1.1,0,0,1,0,.07.12.12,0,0,1-.06.05h0a.11.11,0,0,0,.05,0,.1.1,0,0,0,0-.06h0Z"/>
                                <path d="M32,16h0A.09.09,0,0,1,32,16l0,0h0l0,0A.08.08,0,0,0,32,16h0Z"/>
                                <path d="M32.21,16a.15.15,0,0,1,0,.08.06.06,0,0,1,0,0h0a.05.05,0,0,0,0,0,.13.13,0,0,0,0-.07Z"/>
                                <path d="M32.36,16.05a.1.1,0,0,1,0,.06.09.09,0,0,1,0,0h0l0,0a.09.09,0,0,0,0-.05Z"/>
                                <path d="M31.27,15.87l0,0a.13.13,0,0,1,0,.06.1.1,0,0,1,0,.07l0,0h0l0,0a.08.08,0,0,0,0-.07.13.13,0,0,0,0-.06l0,0Z"/>
                                <path d="M31.57,15.92a.16.16,0,0,1,0,.11s0,.07-.09.09h0c.06,0,.08-.05.09-.09a.15.15,0,0,0,0-.11Z"/>
                                <path d="M31.81,16.07a.09.09,0,0,1-.05.11.23.23,0,0,1-.1,0h.09a.09.09,0,0,0,0-.1Z"/>
                                <path d="M32,16.25a.09.09,0,0,1,0,0,.08.08,0,0,1,0,0l0,0h0l0,0a.07.07,0,0,0,0,0,.09.09,0,0,0,0,0Z"/>
                                <path d="M32.23,16.41a0,0,0,0,1,0,0,0,0,0,0,1,0,0l0,0h0l0,0v0h0a0,0,0,0,0,0,0Z"/>
                                <path d="M32.39,16.47h0a.06.06,0,0,1,0,.06l-.05,0h0l0,0a.06.06,0,0,0,0-.05h0Z"/>
                                <path d="M32.56,16.51h0a0,0,0,0,1,0,0l0,0,0,0h0l0,0,0,0a0,0,0,0,0,0,0h0Z"/>
                            </g>
                        </g>
                        <g>
                            <polygon
                                    points="35.77 15.6 36.23 15.76 36.61 15.43 36.7 15.92 37.17 16.09 36.8 16.41 36.89 16.89 36.42 16.74 36.05 17.06 35.95 16.57 35.49 16.41 35.85 16.09 35.77 15.6 35.77 15.6"
                                    fill="#f7db12" stroke="#000" stroke-miterlimit="2.41" stroke-width="0.02"
                                    fill-rule="evenodd"/>
                            <polygon points="35.77 15.6 36.9 16.9 36.89 16.9 35.77 15.61 35.77 15.6 35.77 15.6"/>
                            <polygon points="35.49 16.41 37.17 16.08 37.17 16.09 35.49 16.41 35.49 16.41 35.49 16.41"/>
                            <polygon points="36.05 17.05 36.6 15.43 36.61 15.44 36.05 17.05 36.05 17.05 36.05 17.05"/>
                            <polygon points="36.23 15.76 36.43 16.74 36.42 16.74 36.22 15.76 36.23 15.76 36.23 15.76"/>
                            <polygon points="35.95 16.57 36.7 15.91 36.7 15.92 35.95 16.58 35.95 16.57 35.95 16.57"/>
                            <polygon points="35.86 16.08 36.8 16.41 36.8 16.41 35.85 16.09 35.86 16.08 35.86 16.08"/>
                        </g>
                        <g>
                            <path d="M34,18.18c.06,0,.1,0,.11-.05s0-.09.06-.06a.25.25,0,0,0,.09.06s0,0,.07.06.08,0,.1,0,0,0,0,.08.07.06.09.09,0,0,.12,0a1.65,1.65,0,0,1,.37.18,2.16,2.16,0,0,0,.3.09.37.37,0,0,0,.22,0,.93.93,0,0,1,.68.16,2.06,2.06,0,0,0,.3.08,1.9,1.9,0,0,1,.42.1c.12.05.21.14.15.2s-.21.05-.27,0-.14-.1-.23-.13-.19-.14-.27-.15-.09,0,0,.06,0,.13,0,.18a.16.16,0,0,0,.11.09s.06,0,.09.12,0,.09.07.12,0,.07,0,.11-.05.06-.11.06-.15,0-.14-.07.06,0,.11,0a.07.07,0,0,0,0-.1s-.17-.09-.23-.14a.4.4,0,0,0-.2-.1c-.08,0-.07,0-.12-.06s-.08,0-.14,0-.11,0-.15,0-.11,0-.15,0-.08,0-.17,0-.12-.09,0-.1a.4.4,0,0,1,.14,0,.17.17,0,0,0,.14-.06s0,0-.09,0a.65.65,0,0,0-.23-.1c-.09,0-.08,0-.16.05a1.48,1.48,0,0,1-.19,0l-.15,0s-.09,0-.13,0L34.39,19c-.06,0-.08-.09,0-.1s.07,0,.12,0a.12.12,0,0,0,.12,0l.12,0s0,0-.05-.06,0,0-.09,0l-.15-.06a.36.36,0,0,0-.16,0c-.06,0-.12,0-.16,0s-.09,0-.11,0-.13-.06-.11-.1.11,0,.15,0a.43.43,0,0,1,.16,0s.1,0,.12,0,0-.08-.08-.12,0-.12-.14-.11a.3.3,0,0,1-.23-.14s.06,0,.08,0Z"
                                  fill-rule="evenodd"/>
                            <path d="M35.39,19.13h0a.63.63,0,0,0-.21-.09s0,0,0,0a.25.25,0,0,1,.19,0c.09,0,.13,0,.18,0s.11,0,.13.1,0,0-.1,0a.47.47,0,0,0-.18,0Z"
                                  fill="#f4f4f5" fill-rule="evenodd"/>
                        </g>
                        <g>
                            <polygon
                                    points="19.45 16.21 18.98 16.36 18.61 16.04 18.51 16.52 18.04 16.69 18.41 17.02 18.33 17.5 18.79 17.34 19.16 17.66 19.27 17.18 19.72 17.02 19.36 16.69 19.45 16.21 19.45 16.21"
                                    fill="#f7db12" stroke="#000" stroke-miterlimit="2.41" stroke-width="0.02"
                                    fill-rule="evenodd"/>
                            <polygon points="19.44 16.21 18.32 17.5 18.32 17.51 19.45 16.21 19.44 16.21 19.44 16.21"/>
                            <polygon points="19.72 17.01 18.04 16.69 18.04 16.7 19.72 17.02 19.72 17.01 19.72 17.01"/>
                            <polygon points="19.16 17.66 18.61 16.04 18.6 16.04 19.16 17.66 19.16 17.66 19.16 17.66"/>
                            <polygon points="18.98 16.36 18.79 17.34 18.8 17.34 18.99 16.37 18.98 16.36 18.98 16.36"/>
                            <polygon points="19.27 17.18 18.52 16.52 18.51 16.53 19.26 17.18 19.27 17.18 19.27 17.18"/>
                            <polygon points="19.36 16.69 18.41 17.01 18.41 17.02 19.36 16.7 19.36 16.69 19.36 16.69"/>
                        </g>
                        <path d="M20.71,18a1.33,1.33,0,1,1-2.5.8,1.33,1.33,0,0,0,2.52-.6,1.49,1.49,0,0,0,0-.21Z"
                              fill="#f4f4f5" stroke="#000" stroke-miterlimit="2.41" stroke-width="0.02"
                              fill-rule="evenodd"/>
                    </g>
                </g>
            </g>
            <path d="M18.6,21.84l-2.11-4.78,1.58-2.57,2.73,1,1.94-2.18,2.51,1.44,2.26-1.82,2.23,1.83,2.53-1.44,1.92,2.18,2.73-1L38.51,17l-2.12,4.78a22.19,22.19,0,0,0-17.79,0Z"
                  fill="none" stroke="#f4f4f5" stroke-miterlimit="2.41" stroke-width="0.2" fill-rule="evenodd"/>
        </g>
        <path d="M18.57,22.43H36.46V33.71c0,4.22-4.09,8.37-8.95,8.37s-8.94-4.15-8.94-8.37V22.43Z" fill="#fff"
              stroke="#ed1c24" stroke-miterlimit="2.41" stroke-width="0.68" fill-rule="evenodd"/>
        <g>
            <path d="M18.57,22.43H36.46V33.71c0,4.22-4.09,8.37-8.95,8.37s-8.94-4.15-8.94-8.37V22.43Z" fill="#f4f4f5"
                  fill-rule="evenodd"/>
            <g clip-path="url(#clip-path-4)">
                <polygon
                        points="36.31 22.55 32.79 22.55 32.79 26.46 29.26 26.46 29.26 22.55 25.74 22.55 25.74 26.46 22.22 26.46 22.22 22.55 18.7 22.55 18.7 26.46 22.22 26.46 22.22 30.36 25.74 30.36 25.74 34.27 25.74 38.17 29.26 38.17 29.26 34.27 29.26 30.36 25.74 30.36 25.74 26.46 29.26 26.46 29.26 30.36 32.79 30.36 32.79 34.27 32.79 38.17 36.31 38.17 36.31 42.08 32.79 42.08 32.79 38.17 29.26 38.17 29.26 42.08 25.74 42.08 25.74 38.17 22.22 38.17 22.22 42.08 18.7 42.08 18.7 38.17 22.22 38.17 22.22 34.27 18.7 34.27 18.7 30.36 22.22 30.36 22.22 34.27 25.74 34.27 29.26 34.27 32.79 34.27 36.31 34.27 36.31 30.36 32.79 30.36 32.79 26.46 36.31 26.46 36.31 22.55 36.31 22.55"
                        fill="#ed1d24" fill-rule="evenodd"/>
            </g>
            <path d="M18.57,22.43H36.46V33.71c0,4.22-4.09,8.37-8.95,8.37s-8.94-4.15-8.94-8.37V22.43Z" fill="none"
                  stroke="#f4f4f5" stroke-miterlimit="2.41" stroke-width="0.32" fill-rule="evenodd"/>
        </g>
    </g>
</svg>
