<svg xmlns="http://www.w3.org/2000/svg" xmlns:xlink="http://www.w3.org/1999/xlink" viewBox="0 0 55 55">
  <clipPath id="globalClipPath">
    <circle cx="27.5" cy="27.5" r="23.3" fill="none"/>
  </clipPath>
  <g clip-path="url(#globalClipPath)">
        <path d="M-7.48,4.18h70V8.55h-70V4.18Zm70,11.66V39.16h-70V15.84Zm0,30.6v4.37h-70V46.45Z" fill="#f1f0f0"/>
        <path d="M27.5,20.44l-1.21,2.09h2.42L27.5,20.44Zm-35-11.89h70v7.29h-70V8.55Zm0,30.6h70v7.29h-70V39.16ZM25.46,24l-2,3.53,2,3.53h4.08l2-3.53-2-3.53Zm-2.86,5L21.39,31h2.42L22.6,28.93ZM31.2,31h2.42L32.4,28.93,31.2,31ZM27.5,34.56l1.21-2.09H26.29l1.21,2.09Zm4.9-8.49L33.61,24H31.2l1.21,2.09ZM23.81,24H21.39l1.21,2.09L23.81,24Zm11.67-.36L33.23,27.5l2.25,3.89h0l.44.77.18.31H30.37l-2.25,3.89-.44.77-.18.31-.18-.31-.44-.77-2.24-3.89H18.9l.18-.31.44-.77h0l2.25-3.89-2.25-3.89h0l-.44-.77-.18-.31h5.73l2.25-3.89h0l.44-.77.18-.31.18.31.44.77,2.25,3.89H36.1l-.18.31-.44.77Z" fill="#4475ba"/>

  </g>
</svg>
