<svg xmlns="http://www.w3.org/2000/svg" viewBox="0 0 55 55"><circle cx="27.5" cy="27.5" r="23.3" style="fill:#ce142a"/><path d="M43.53,18.651c.016.13-.094.277-.287.392a1.438,1.438,0,0,1-.215.1c-.34-.282-.852-.711-1.25-1.04a3.8,3.8,0,0,1,1.2.136C43.316,18.347,43.515,18.494,43.53,18.651Z" style="fill:#fff"/><path d="M42.871,19.2c-.183.068-.429.152-.727.246l-1.213-1.266c.209-.036.423-.057.633-.073C41.951,18.431,42.5,18.886,42.871,19.2Z" style="fill:#fff"/><path d="M41.2,19.744c-.372.11-.721.214-.973.282-.241-.533-.56-1.255-.758-1.71l.512.063C40.371,18.813,40.842,19.341,41.2,19.744Z" style="fill:#fff"/><path d="M40.089,20.068l-.068.016c-.047.015-.089.026-.126.036a1.779,1.779,0,0,0-.376.162,3.9,3.9,0,0,0-.905-.889,1.715,1.715,0,0,0,.167-1.14c.126.011.314.026.523.047C39.5,18.74,39.833,19.5,40.089,20.068Z" style="fill:#fff"/><path d="M36.135,27.327a3.182,3.182,0,0,0-1.083-.162A3.2,3.2,0,0,1,35,25.528c.183-.068.439-.162.7-.235h.005v0h0l.173-.047c-.005.068-.011.136-.011.2a.018.018,0,0,0,0,.015A5.678,5.678,0,0,0,36.135,27.327Z" style="fill:#fff"/><path d="M38.483,19.331a.462.462,0,0,0-.444-.011c-.329.178-.387.8-.429,1.255v.037a3.116,3.116,0,0,1-.534,2.087,1.62,1.62,0,0,0-.8-.654,7.008,7.008,0,0,1,.372-.622,4.4,4.4,0,0,0,.758-2.1.043.043,0,0,0-.005-.036c-.366-.665-.167-.984.251-1.256.434-.277.884.178.9.194a.106.106,0,0,0,.047.026h.027A1.571,1.571,0,0,1,38.483,19.331Z" style="fill:#fff"/><path d="M36.993,22.84c-.157.251-.346.544-.586.9a3.114,3.114,0,0,0-.5,1.349c-.073.016-.147.037-.225.057-.005,0-.005,0-.01.006-.231.062-.461.146-.639.209a12.9,12.9,0,0,1,1.182-3.185A1.488,1.488,0,0,1,36.993,22.84Z" style="fill:#fff"/><path d="M38.551,23.159a7.927,7.927,0,0,1-.34,2.793,3.641,3.641,0,0,1-2.191-.534,3.157,3.157,0,0,1,.507-1.6c1.2-1.773,1.245-2.1,1.229-3.206v-.026c.037-.4.094-1,.356-1.14a.38.38,0,0,1,.366.042,3.333,3.333,0,0,1,.92.873C38.913,20.7,38.405,21.464,38.551,23.159Z" style="fill:#fff"/><path d="M37.835,27.15a6.418,6.418,0,0,0-.262.883v.027c.005.01.005.026.011.036a4.838,4.838,0,0,0-1.277-.711,5.654,5.654,0,0,1-.292-1.794,3.762,3.762,0,0,0,2.055.507h.1C38.06,26.491,37.939,26.841,37.835,27.15Z" style="fill:#fff"/><path d="M37.217,30.4l-.041-.041a.422.422,0,0,0,.162-.419.609.609,0,0,0-.2-.308,3.417,3.417,0,0,0-.309-.251,1.521,1.521,0,0,1-.659-.759,1.32,1.32,0,0,1,.053-1.109h0a4.434,4.434,0,0,1,1.4.811C37.84,29.414,37.824,29.7,37.217,30.4Z" style="fill:#fff"/><path d="M37.118,30.5c-.052.058-.1.115-.162.183a1.405,1.405,0,0,1-1.512.419,1.715,1.715,0,0,1-.313-1.135,1.706,1.706,0,0,0-.272-1.355,1.857,1.857,0,0,1,.236,0c.323,0,.533.209.773.539a1.674,1.674,0,0,1,.22.57,1.77,1.77,0,0,0,.23.591.478.478,0,0,0,.408.188.749.749,0,0,0,.319-.073Z" style="fill:#fff"/><path d="M27.573,43.138a3.818,3.818,0,0,1-.727.967c-.266.236-.491.33-.633.267a.475.475,0,0,1-.193-.45,1.607,1.607,0,0,1,.021-.235C26.465,43.541,27.087,43.316,27.573,43.138Z" style="fill:#fff"/><path d="M27.934,42.369a5.82,5.82,0,0,1-.261.581c-.471.167-1.141.408-1.6.57.032-.189.084-.434.157-.748Z" style="fill:#fff"/><path d="M28.562,41.046c-.105.141-.209.277-.314.408-.57.11-1.271.251-1.794.355.1-.407.193-.768.251-.983C27.291,40.894,28.075,40.983,28.562,41.046Z" style="fill:#fff"/><path d="M28.97,40.481c-.074.1-.173.246-.308.429-.477-.058-1.3-.157-1.92-.225.01-.047.021-.089.031-.125l.021-.068a1.481,1.481,0,0,0,.052-.4,4.1,4.1,0,0,0,1.224-.33A1.7,1.7,0,0,0,28.97,40.481Z" style="fill:#fff"/><path d="M29.733,39.629c.021.512-.6.669-.627.674a.077.077,0,0,0-.042.032l-.011.021a1.585,1.585,0,0,1-.857-.675.506.506,0,0,0,.235-.377c.01-.376-.5-.742-.868-1.009l-.021-.016-.005-.005a3.085,3.085,0,0,1-1.528-1.522,1.623,1.623,0,0,0,.968-.35c.146.245.267.47.345.638a4.363,4.363,0,0,0,1.423,1.72.053.053,0,0,0,.036.016,1.2,1.2,0,0,1,.633.152.529.529,0,0,1,.225.256A1.245,1.245,0,0,1,29.733,39.629Z" style="fill:#fff"/><path d="M26.9,36.276a1.513,1.513,0,0,1-.968.335c-.141-.262-.293-.576-.476-.963a3.123,3.123,0,0,0-.91-1.119c.021-.068.047-.141.068-.225v-.01a6.712,6.712,0,0,0,.141-.659A13.1,13.1,0,0,1,26.9,36.276Z" style="fill:#fff"/><path d="M28.285,39.3c-.006.11-.079.2-.225.3a3.484,3.484,0,0,1-1.219.345c-.047-.591-.445-1.417-1.982-2.154a7.917,7.917,0,0,1-2.228-1.711,3.644,3.644,0,0,1,1.574-1.616,3.173,3.173,0,0,1,1.119,1.25c.91,1.935,1.177,2.139,2.135,2.688l.02.016C27.8,38.645,28.3,39,28.285,39.3Z" style="fill:#fff"/><path d="M24.059,34.367a3.873,3.873,0,0,0-1.533,1.6c-.282-.3-.523-.58-.737-.826a5.2,5.2,0,0,0-.628-.669.036.036,0,0,0-.021-.011.262.262,0,0,1-.036-.015,4.736,4.736,0,0,0,1.26-.738A5.6,5.6,0,0,1,24.059,34.367Z" style="fill:#fff"/><path d="M24.623,33.525c-.031.194-.078.46-.145.727a.005.005,0,0,0-.006,0c-.016.063-.032.121-.047.178-.058-.042-.11-.078-.168-.115-.005-.005-.01-.005-.015-.01a5.744,5.744,0,0,0-1.742-.722,3.357,3.357,0,0,0,.7-.847A3.137,3.137,0,0,1,24.623,33.525Z" style="fill:#fff"/><path d="M22.3,33.567v.005a4.474,4.474,0,0,1-1.412.795C19.838,34,19.6,33.839,19.31,32.96l.057-.015a.411.411,0,0,0,.277.35.558.558,0,0,0,.367-.016,3.508,3.508,0,0,0,.376-.141,1.511,1.511,0,0,1,.989-.178A1.317,1.317,0,0,1,22.3,33.567Z" style="fill:#fff"/><path d="M22.04,31.836c-.037.073-.079.141-.115.2-.173.277-.455.35-.858.387a1.581,1.581,0,0,1-.6-.094,1.744,1.744,0,0,0-.628-.1.586.586,0,0,0-.471.565l-.1.026c-.026-.073-.047-.146-.073-.23a1.406,1.406,0,0,1,.408-1.517,1.733,1.733,0,0,1,1.135.309,1.725,1.725,0,0,0,1.155.465A1.452,1.452,0,0,0,22.04,31.836Z" style="fill:#fff"/><path d="M34.676,27.374a2.111,2.111,0,0,0-.257.937.8.8,0,0,0-.12-.011A13.757,13.757,0,0,1,28.813,26.7c-.053-.032-.11-.058-.162-.089l-.027-.016c-.041-.021-.078-.047-.119-.068-.111-.063-.21-.126-.309-.188.125-.105.287-.241.5-.4s.482-.371.795-.607c.068-.057.142-.11.2-.157s.126-.094.183-.136a.193.193,0,0,1,.063.011c.236.1,1.193.591,2.118,1.062.942.481,1.92.978,2.213,1.108A2.527,2.527,0,0,0,34.676,27.374Z" style="fill:#fff"/><path d="M35.246,31.041c-.094-.032-.189-.068-.267-.1a2.228,2.228,0,0,0-.34-.115c-.261-.042-.847-.1-1.584-.167-.409-.037-.874-.078-1.36-.126a19.043,19.043,0,0,1-3.426-.931,3.708,3.708,0,0,1-.209-.685c-.011-.062-.021-.13-.032-.193a7.391,7.391,0,0,1-.063-1.166v-.194h0l.006-.429c0-.12,0-.256,0-.392a.616.616,0,0,1,.11-.11c.115.073.23.141.35.214.042.021.084.048.12.068l.032.016a1.4,1.4,0,0,0,.162.089,13.794,13.794,0,0,0,5.549,1.621.548.548,0,0,1,.157.032c.005,0,.005.005.01.005a.608.608,0,0,1,.194.126h0l0,.005h0a1.513,1.513,0,0,1,.33,1.318A1.707,1.707,0,0,0,35.246,31.041Z" style="fill:#fff"/><path d="M27.442,29.535c-.349.235-1.056.685-1.8,1.161-.9.564-1.825,1.155-2.087,1.344a2.513,2.513,0,0,0-.35.272,2.1,2.1,0,0,0-.675-.7.733.733,0,0,0,.073-.1,13.69,13.69,0,0,1,4.143-3.885c.057-.037.109-.068.167-.1.005.037.01.073.016.115.015.089.036.178.052.267A15.5,15.5,0,0,0,27.442,29.535Z" style="fill:#fff"/><path d="M26.851,25.643c-.13-.052-.277-.1-.428-.157-.131-.047-.272-.094-.408-.141-.006,0-.006,0-.006,0-.439-.146-.878-.288-1.223-.4-.053-.46-.131-1.224-.2-1.966-.11-1.051-.22-2.134-.272-2.458a2.6,2.6,0,0,0-.084-.429h.026a2.171,2.171,0,0,0,.9-.293.34.34,0,0,0,.058.11,13.875,13.875,0,0,1,1.631,5.538.248.248,0,0,0,0,.058v.084A.256.256,0,0,1,26.851,25.643Z" style="fill:#fff"/><path d="M29.551,24.158c-.32.235-.77.575-1.2.9-.335.261-.576.444-.754.585-.094.074-.172.136-.23.189a.043.043,0,0,0-.021.021c-.073-.037-.188-.089-.345-.152,0-.042,0-.089-.01-.131a.479.479,0,0,0,0-.084v-.057a13.919,13.919,0,0,0-1.658-5.6.487.487,0,0,1-.063-.156.7.7,0,0,1,0-.236h0v0a1.515,1.515,0,0,1,.931-.994,1.717,1.717,0,0,0,.8-.816c.021.095.042.194.057.278a2.179,2.179,0,0,0,.09.345c.109.246.381.769.726,1.428.189.366.4.774.623,1.2A18.383,18.383,0,0,1,29.551,24.158Z" style="fill:#fff"/><path d="M26.94,17.416c-.157.3-.455.785-.779.884a1.7,1.7,0,0,0-.994.963c-.047-.074-.094-.136-.13-.2a1.007,1.007,0,0,1,.036-.942,1.612,1.612,0,0,1,.356-.5,1.778,1.778,0,0,0,.376-.513.588.588,0,0,0-.3-.675l.021-.1c.079.015.157.026.241.042A1.4,1.4,0,0,1,26.94,17.416Z" style="fill:#fff"/><path d="M25.387,16.313l-.016.057a.409.409,0,0,0-.434.089.657.657,0,0,0-.157.34c-.015.126-.026.267-.036.4a1.492,1.492,0,0,1-.283.962,1.347,1.347,0,0,1-.957.56l-.005-.006a4.5,4.5,0,0,1-.078-1.621C24.226,16.323,24.467,16.182,25.387,16.313Z" style="fill:#fff"/><path d="M23.844,19.885a3.214,3.214,0,0,1-1.344.931c-.157-.115-.371-.282-.58-.46l-.005-.006c-.048-.041-.095-.083-.137-.125a1.472,1.472,0,0,0,.173-.094h0a5.707,5.707,0,0,0,1.438-1.245A3.241,3.241,0,0,0,23.844,19.885Z" style="fill:#fff"/><path d="M23.353,18.708A5.844,5.844,0,0,1,22,19.932a3.91,3.91,0,0,0-.742-2.087c.387-.12.747-.209,1.066-.293a5.28,5.28,0,0,0,.879-.261.025.025,0,0,0,.021-.011l.026-.031A4.618,4.618,0,0,0,23.353,18.708Z" style="fill:#fff"/><path d="M22.343,20.879a13,13,0,0,1-3.321.737,1.52,1.52,0,0,1,.136-1.014c.3-.011.649-.006,1.072,0a3.16,3.16,0,0,0,1.412-.314c.053.052.105.105.168.157l.01.01C22,20.617,22.191,20.769,22.343,20.879Z" style="fill:#fff"/><path d="M21.852,20.021a3.147,3.147,0,0,1-1.617.439c-2.138-.047-2.442.094-3.357.712l-.026.01c-.351.183-.89.466-1.151.319a.4.4,0,0,1-.167-.329,3.55,3.55,0,0,1,.24-1.245c.549.22,1.465.235,2.809-.806a8,8,0,0,1,2.531-1.234A3.68,3.68,0,0,1,21.852,20.021Z" style="fill:#fff"/><path d="M18.881,21.627a6.586,6.586,0,0,1-.727.031,4.364,4.364,0,0,0-2.176.5.091.091,0,0,0-.031.031,1.24,1.24,0,0,1-.419.5h0a.777.777,0,0,1-.768-.031c-.471-.209-.335-.837-.324-.863a.1.1,0,0,0-.011-.053.064.064,0,0,1-.011-.02,1.6,1.6,0,0,1,.984-.466.49.49,0,0,0,.235.382.556.556,0,0,0,.246.057,2.61,2.61,0,0,0,1.041-.381l.026-.011a0,0,0,0,0,0,0A3.118,3.118,0,0,1,19,20.607,1.6,1.6,0,0,0,18.881,21.627Z" style="fill:#fff"/><path d="M15.639,19.864a3.862,3.862,0,0,0-.252,1.245,1.674,1.674,0,0,0-1.046.476c-.052-.094-.141-.256-.251-.46.267-.4.722-1.1,1.062-1.622.031.026.063.058.089.079l.062.057A1.431,1.431,0,0,0,15.639,19.864Z" style="fill:#fff"/><path d="M15.042,19.409c-.319.492-.753,1.151-1.025,1.564-.079-.152-.152-.309-.225-.466.152-.559.34-1.244.481-1.762C14.529,18.959,14.8,19.2,15.042,19.409Z" style="fill:#fff"/><path d="M13.52,18.112l-.408,1.705a5.626,5.626,0,0,1-.4-.492c.057-.5.146-1.2.2-1.689C13.07,17.751,13.269,17.908,13.52,18.112Z" style="fill:#fff"/><path d="M12.783,17.537c-.058.439-.136,1.1-.2,1.616a3.936,3.936,0,0,1-.539-1.088c-.094-.34-.073-.581.047-.68a.478.478,0,0,1,.492.026A1.72,1.72,0,0,1,12.783,17.537Z" style="fill:#fff"/><path d="M23.091,32.625l-.005.006a3.061,3.061,0,0,1-.67.837,1.5,1.5,0,0,0-1-.649,1.01,1.01,0,0,0-.277-.037,2.149,2.149,0,0,0-.81.22c-.126.052-.241.1-.361.141a.432.432,0,0,1-.278.016.3.3,0,0,1-.182-.3c0-.22.141-.471.339-.482a1.579,1.579,0,0,1,.576.1,1.8,1.8,0,0,0,.654.1.1.1,0,0,0,.041-.005,1.11,1.11,0,0,0,.926-.45,3.2,3.2,0,0,0,.184-.324.719.719,0,0,0,.182-.084C22.652,31.878,23.227,32.322,23.091,32.625Z" style="fill:#f9dd25"/><path d="M30.711,38.755l.037.874-.544-.686a.076.076,0,0,0-.084-.026l-.382.147a.737.737,0,0,0-.183-.22l.231-.35a.074.074,0,0,0,0-.084l-.544-.685.842.235a.066.066,0,0,0,.078-.031l.481-.727.042.873a.071.071,0,0,0,.052.068l.842.236-.821.3A.074.074,0,0,0,30.711,38.755Z" style="fill:#f9dd25"/><path d="M28.164,41.616a4.4,4.4,0,0,1-.167.591l-1.731.4c.047-.2.1-.424.151-.644Z" style="fill:#f9dd25"/><path d="M14.153,18.64c-.136.492-.319,1.156-.471,1.721a4.5,4.5,0,0,1-.449-.413l.407-1.731C13.8,18.342,13.97,18.483,14.153,18.64Z" style="fill:#f9dd25"/><path d="M16.088,23.8l.434.758-.8-.355a.063.063,0,0,0-.083.016l-.587.648.1-.868a.083.083,0,0,0-.042-.079l-.8-.355.857-.178a.078.078,0,0,0,.058-.063l.042-.408a.817.817,0,0,0,.277-.068l.209.361a.072.072,0,0,0,.078.037l.859-.178-.592.648A.07.07,0,0,0,16.088,23.8Z" style="fill:#f9dd25"/><path d="M25.392,16.538a.292.292,0,0,0-.355.026.5.5,0,0,0-.11.256c-.021.126-.026.251-.037.387a2.378,2.378,0,0,1-.131.753,1.033,1.033,0,0,1-.188.3,1.528,1.528,0,0,1-1.03.607,3.15,3.15,0,0,0,.45.978.063.063,0,0,0,.021.016l0,.01c.157.147.57.063,1.1-.225a.7.7,0,0,1,0-.2,3.314,3.314,0,0,1-.209-.3,1.163,1.163,0,0,1,.026-1.067.111.111,0,0,1,.021-.042,1.81,1.81,0,0,1,.366-.5,1.6,1.6,0,0,0,.345-.47C25.748,16.878,25.586,16.637,25.392,16.538Z" style="fill:#f9dd25"/><path d="M41.993,19.5l-.639.2c-.339-.382-.8-.895-1.186-1.329a4.766,4.766,0,0,1,.59-.151Z" style="fill:#f9dd25"/><path d="M37.165,18.311a.732.732,0,0,0-.089.272l-.423-.021a.074.074,0,0,0-.074.042l-.308.816-.23-.843a.063.063,0,0,0-.063-.052l-.873-.047L35.837,18a.078.078,0,0,0,.031-.078l-.23-.848.68.55a.079.079,0,0,0,.089,0l.732-.476-.314.816a.081.081,0,0,0,.021.083Z" style="fill:#f9dd25"/><path d="M37.191,29.969a.463.463,0,0,0-.151-.236,3.583,3.583,0,0,0-.3-.235,2.476,2.476,0,0,1-.565-.523,1.058,1.058,0,0,1-.146-.319,1.492,1.492,0,0,1,.047-1.193,3.1,3.1,0,0,0-1.062-.151.042.042,0,0,0-.026,0c-.319.068-.4.764-.423,1.046a.587.587,0,0,1,.167.115,3,3,0,0,1,.371-.01,1.147,1.147,0,0,1,.885.6,1.7,1.7,0,0,1,.245.617,1.666,1.666,0,0,0,.209.544c.11.167.4.157.586.047A.285.285,0,0,0,37.191,29.969Z" style="fill:#f9dd25"/><path d="M29.765,24.932c-.053.037-.105.078-.157.12-.068.047-.136.1-.209.157-.314.236-.581.44-.8.607-.256.2-.45.361-.576.471-.167.146-.188.183-.2.214,0,.011,0,.016,0,.026,0,.141,0,.283,0,.408l-.006.429a7.748,7.748,0,0,0,.1,1.58,3.792,3.792,0,0,0,.168.591c-.168-.058-.288-.105-.34-.121,0-.005,0-.005,0-.01v0h-.006c0-.006-.01-.006-.015-.011a.022.022,0,0,0-.011-.005h-.015a.005.005,0,0,1-.006,0c-.01,0-.02,0-.026,0h0c0,.005-.01.005-.016.01s-.005.006-.01.006l-.016.015c-.015.011-.031.021-.052.037a14.825,14.825,0,0,1-.445-1.574c-.02-.089-.036-.178-.052-.262s-.026-.146-.036-.214a3.266,3.266,0,0,1-.042-.445,2.012,2.012,0,0,1,.015-.408h0v-.016h0a.05.05,0,0,0,0-.026v0l-.015-.016v0h-.006a.011.011,0,0,0-.01-.01c-.005,0-.005-.006-.011-.006h0l-.4-.125c-.471-.152-.968-.314-1.392-.481-.214-.089-.4-.173-.554-.251.078-.068.152-.131.209-.178a.07.07,0,0,0,.022-.079h0c0-.005-.006-.01-.006-.02-.005-.048-.016-.126-.031-.231.334.105.742.241,1.15.382h0c.142.047.278.094.414.141.188.068.371.136.528.194a0,0,0,0,0,0,.005,2.534,2.534,0,0,1,.4.178.061.061,0,0,0,.042.016.068.068,0,0,0,.047-.021l.015-.011a.258.258,0,0,0,.047-.042c.058-.047.136-.109.225-.183.178-.141.419-.324.753-.585.4-.3.832-.628,1.146-.858.031.146.063.272.083.361A1.164,1.164,0,0,0,29.765,24.932Z" style="fill:#f9dd25"/><path d="M43.677,18.63c-.016-.152-.147-.366-.649-.528a4.3,4.3,0,0,0-1.448-.136h0a6.166,6.166,0,0,0-.811.1,4.323,4.323,0,0,0-.7.183l-.042-.01c-.225-.032-.444-.058-.669-.084-.361-.032-.6-.047-.664-.047l-.058,0a.891.891,0,0,0-1.062-.194,1.291,1.291,0,0,0-.329.282l-.267-.214L37.353,17a.072.072,0,0,0-.02-.084.081.081,0,0,0-.084-.005l-.879.57-.81-.659a.078.078,0,0,0-.089,0,.065.065,0,0,0-.027.079l.267,1.009-.873.57a.069.069,0,0,0-.032.079.068.068,0,0,0,.063.052l1.046.057.272,1.01a.068.068,0,0,0,.063.052h.005a.069.069,0,0,0,.068-.042l.377-.978.371.021a1.424,1.424,0,0,0,.2.6,4.346,4.346,0,0,1-.738,2.008,7.435,7.435,0,0,0-.418.711c-.188.356-1.8,3.478-1.213,5.131a.928.928,0,0,0-.131.042c-.058.021-.063.026-.445-.141-.287-.131-1.26-.628-2.2-1.1-.972-.5-1.888-.968-2.128-1.067a.377.377,0,0,0-.089-.026.99.99,0,0,1-.094-.241c-.026-.109-.063-.272-.11-.47-.11-.445-.267-1.072-.455-1.7a10.8,10.8,0,0,0-.623-1.668c-.219-.429-.433-.842-.627-1.208-.34-.654-.612-1.172-.717-1.418a1.711,1.711,0,0,1-.078-.314c-.031-.141-.063-.3-.115-.47a1.713,1.713,0,0,0-.471-.79,1.639,1.639,0,0,0-.821-.377c-.11-.021-.214-.036-.309-.052-1.051-.162-1.312-.016-2.186.826l-.167.157a5.642,5.642,0,0,1-.842.246c-.324.084-.738.188-1.161.319h-.011a8.1,8.1,0,0,0-2.62,1.276c-1.355,1.046-2.238.989-2.741.759a1.621,1.621,0,0,1-.36-.236l-.063-.057c-.042-.037-.094-.084-.152-.131-.282-.251-.612-.533-.9-.779-.231-.2-.445-.377-.633-.534l-.006,0c-.324-.261-.564-.455-.742-.58-.115-.079-.194-.131-.251-.163A.606.606,0,0,0,12,17.27c-.12.1-.235.324-.1.832a4.351,4.351,0,0,0,.669,1.286.005.005,0,0,1,.006,0,5.558,5.558,0,0,0,.517.623,4.388,4.388,0,0,0,.534.491l.016.037c.1.209.193.408.292.607.163.313.283.528.319.585a.381.381,0,0,1,.027.053.914.914,0,0,0,.418,1,1.439,1.439,0,0,0,.418.12l-.041.345-1.02.209A.078.078,0,0,0,14,23.53a.069.069,0,0,0,.042.074l.952.428-.11,1.036a.061.061,0,0,0,.042.073.06.06,0,0,0,.084-.015l.7-.775.958.429a.063.063,0,0,0,.078-.015.072.072,0,0,0,.01-.089l-.517-.9.7-.779a.07.07,0,0,0,.011-.084.067.067,0,0,0-.079-.031l-1.024.214-.184-.324a1.454,1.454,0,0,0,.4-.492,4.213,4.213,0,0,1,2.082-.476,6.9,6.9,0,0,0,.826-.031,12.966,12.966,0,0,0,3.546-.806A3.388,3.388,0,0,0,23.944,20a.442.442,0,0,0,.1.089c.047.037.052.042.12.45.053.314.163,1.4.267,2.447.079.769.162,1.559.215,2.014a2.838,2.838,0,0,0,.047.345c-.074.063-.162.131-.262.22a18.213,18.213,0,0,0-2.552,2.489c-.288.387-.56.769-.8,1.1-.434.6-.774,1.072-.946,1.271a1.694,1.694,0,0,1-.247.214c-.11.089-.24.188-.366.309a1.563,1.563,0,0,0-.471,1.684c.038.1.063.209.095.3.324,1.014.575,1.182,1.715,1.585l.047.02c.058.021.116.037.168.058a5.266,5.266,0,0,1,.6.643c.225.257.5.581.81.905A8.254,8.254,0,0,0,24.8,37.918c1.543.743,1.888,1.554,1.9,2.108a1.531,1.531,0,0,1-.047.429l-.021.063c-.01.062-.032.13-.052.214-.058.215-.173.659-.293,1.156-.068.272-.131.549-.194.8-.094.414-.151.717-.188.926a2.293,2.293,0,0,0-.032.3.6.6,0,0,0,.283.586.387.387,0,0,0,.157.031,1,1,0,0,0,.627-.319,4.106,4.106,0,0,0,.853-1.176,7.6,7.6,0,0,0,.329-.748,4.982,4.982,0,0,0,.2-.7l.021-.031c.136-.162.277-.346.413-.534.189-.251.319-.45.387-.549l.026-.042c.142-.042.733-.256.712-.816a1.6,1.6,0,0,0-.079-.429l.325-.12.648.816a.066.066,0,0,0,.058.031.2.2,0,0,1,.026-.005.08.08,0,0,0,.047-.068L30.858,38.8l.983-.361a.082.082,0,0,0,.047-.073.062.062,0,0,0-.052-.063l-1.01-.288-.042-1.04a.077.077,0,0,0-.057-.068.073.073,0,0,0-.078.031l-.581.873-1-.282a.085.085,0,0,0-.084.026.079.079,0,0,0,0,.089l.649.821-.2.309a1.429,1.429,0,0,0-.622-.141,4.23,4.23,0,0,1-1.355-1.653,6.406,6.406,0,0,0-.4-.722,13.172,13.172,0,0,0-2.3-2.814,3.509,3.509,0,0,0-1.5-.842.626.626,0,0,0,.032-.13c.01-.063.015-.068.35-.309.256-.188,1.182-.774,2.076-1.344.785-.5,1.527-.968,1.862-1.193l.115-.078c.058.021.241.089.5.183a19.078,19.078,0,0,0,3.493.952c.482.042.947.089,1.36.125.732.068,1.313.121,1.569.168a1.4,1.4,0,0,1,.308.1c.136.053.288.11.455.157h0a2,2,0,0,0,.539.084,1.519,1.519,0,0,0,1.146-.534c.078-.083.146-.162.214-.235.7-.79.722-1.093.492-2.285-.016-.068-.032-.147-.047-.22a6.348,6.348,0,0,1,.251-.847c.109-.319.245-.722.366-1.151a8.2,8.2,0,0,0,.361-2.9c-.147-1.705.376-2.417.842-2.71a1.57,1.57,0,0,1,.4-.177c.032-.011.079-.021.126-.037s.094-.026.146-.042c.277-.078.7-.2,1.145-.335.278-.083.55-.167.79-.245.392-.126.691-.225.9-.309a2.349,2.349,0,0,0,.272-.126A.6.6,0,0,0,43.677,18.63Zm-6.6-.047-.423-.021a.072.072,0,0,0-.074.047l-.313.811-.225-.843a.064.064,0,0,0-.068-.052l-.868-.047L35.837,18a.075.075,0,0,0,.031-.078l-.23-.848.68.55a.071.071,0,0,0,.089,0l.732-.476-.314.816a.081.081,0,0,0,.021.083l.319.257A.732.732,0,0,0,37.076,18.583Zm-.423,2.834a4.372,4.372,0,0,0,.758-2.1.043.043,0,0,0-.005-.036c-.366-.67-.167-.984.251-1.256.434-.277.884.178.905.194.005.016.026.021.041.026h.027a1.577,1.577,0,0,1-.147,1.083.452.452,0,0,0-.439-.011c-.334.178-.392.8-.434,1.255v.037a3.116,3.116,0,0,1-.534,2.087,1.62,1.62,0,0,0-.8-.654C36.417,21.794,36.548,21.574,36.653,21.417Zm-.44.759a1.488,1.488,0,0,1,.78.664c-.152.251-.346.549-.586.9a3.114,3.114,0,0,0-.5,1.349,2.122,2.122,0,0,0-.225.057h-.01c-.231.068-.461.147-.639.215A12.825,12.825,0,0,1,36.213,22.176ZM35,25.533a7.115,7.115,0,0,1,.7-.24,0,0,0,0,1,.005,0h0c.064-.016.116-.032.173-.042-.005.063-.011.131-.011.2,0,0,0,.01,0,.015a5.558,5.558,0,0,0,.262,1.867,3.367,3.367,0,0,0-1.083-.167A3.157,3.157,0,0,1,35,25.533Zm-.016,1.784a.05.05,0,0,1,.026,0,3.2,3.2,0,0,1,1.067.146,1.486,1.486,0,0,0-.052,1.2,1.058,1.058,0,0,0,.146.319,2.35,2.35,0,0,0,.565.518,3.535,3.535,0,0,1,.3.24.441.441,0,0,1,.157.236.285.285,0,0,1-.167.308c-.188.11-.476.12-.586-.047a1.561,1.561,0,0,1-.209-.544,1.7,1.7,0,0,0-.245-.617,1.147,1.147,0,0,0-.885-.6,3,3,0,0,0-.371.01.525.525,0,0,0-.167-.115C34.582,28.081,34.67,27.385,34.984,27.317Zm-5.1-2.286a.186.186,0,0,1,.057.011c.241.1,1.193.591,2.118,1.062.942.481,1.915.978,2.213,1.108a2.344,2.344,0,0,0,.413.162,2.129,2.129,0,0,0-.262.937L34.3,28.3a13.6,13.6,0,0,1-5.486-1.6c-.053-.027-.11-.058-.162-.089l-.027-.016c-.041-.026-.078-.047-.119-.068-.111-.063-.21-.126-.309-.188.125-.105.287-.241.5-.4s.482-.371.795-.607c.074-.052.142-.1.2-.157S29.817,25.073,29.88,25.031ZM27.061,17.9a1.722,1.722,0,0,0,.084.345c.1.246.381.769.721,1.428.194.366.408.779.628,1.208a18.169,18.169,0,0,1,1.057,3.279c-.32.235-.77.575-1.2.9-.335.261-.576.444-.754.585-.094.074-.172.136-.23.189-.01,0-.015.015-.021.021A3.144,3.144,0,0,0,27,25.7c0-.042,0-.089-.01-.131a.479.479,0,0,0,0-.084v-.057a13.89,13.89,0,0,0-1.658-5.6.428.428,0,0,1-.063-.156.511.511,0,0,1,0-.236h0v0a1.515,1.515,0,0,1,.931-.994,1.717,1.717,0,0,0,.8-.816C27.019,17.715,27.04,17.814,27.061,17.9Zm-1.528-1.564c.074.015.152.026.236.042a1.4,1.4,0,0,1,1.171,1.04c-.157.3-.46.785-.779.884a1.718,1.718,0,0,0-.994.957c-.047-.068-.094-.13-.13-.193a1.007,1.007,0,0,1,.036-.942,1.612,1.612,0,0,1,.356-.5,1.821,1.821,0,0,0,.376-.513.588.588,0,0,0-.3-.675Zm-2.112.758c.8-.769,1.046-.915,1.966-.779l-.016.057a.41.41,0,0,0-.439.089.7.7,0,0,0-.152.34c-.015.126-.026.262-.036.4a1.492,1.492,0,0,1-.283.962,1.308,1.308,0,0,1-.957.56l-.005-.006A4.5,4.5,0,0,1,23.421,17.092Zm-1.094.46a5.28,5.28,0,0,0,.879-.261.036.036,0,0,0,.021-.011l.026-.031a4.661,4.661,0,0,0,.1,1.464A5.95,5.95,0,0,1,22,19.932a3.892,3.892,0,0,0-.742-2.092C21.648,17.725,22.008,17.636,22.327,17.552Zm-6.558,2.375c.554.22,1.47.235,2.814-.811a8.1,8.1,0,0,1,2.531-1.229,3.624,3.624,0,0,1,.738,2.134,3.147,3.147,0,0,1-1.617.439c-2.144-.047-2.442.094-3.363.712l-.02.01c-.351.183-.89.466-1.151.319a.4.4,0,0,1-.167-.329A3.635,3.635,0,0,1,15.769,19.927Zm-3.724-1.862c-.094-.34-.073-.581.047-.685a.493.493,0,0,1,.492.031c.042.021.1.063.2.126-.058.439-.136,1.1-.2,1.616A3.936,3.936,0,0,1,12.045,18.065Zm.665,1.26c.062-.5.141-1.2.2-1.689.157.115.356.272.607.476l-.408,1.705A5.626,5.626,0,0,1,12.71,19.325Zm.523.623.407-1.731c.157.125.33.266.513.423-.136.492-.319,1.156-.471,1.721A5.133,5.133,0,0,1,13.233,19.948Zm.559.559c.152-.559.34-1.25.481-1.762.251.214.529.45.769.664-.319.492-.753,1.151-1.025,1.564C13.938,20.821,13.865,20.664,13.792,20.507Zm.3.618c.267-.4.727-1.1,1.062-1.622.031.032.063.053.089.079l.057.057a1.573,1.573,0,0,0,.341.225,3.838,3.838,0,0,0-.252,1.245,1.674,1.674,0,0,0-1.046.476C14.289,21.491,14.2,21.329,14.09,21.125Zm1.658,2.081a.066.066,0,0,0,.078.037l.859-.178-.592.648a.1.1,0,0,0-.01.084l.439.758-.8-.36a.081.081,0,0,0-.083.021l-.587.648.1-.868a.083.083,0,0,0-.042-.079l-.8-.355.857-.178a.072.072,0,0,0,.058-.068l.042-.4a.7.7,0,0,0,.277-.073Zm3.128-1.579a6.457,6.457,0,0,1-.722.031,4.33,4.33,0,0,0-2.181.5.065.065,0,0,0-.026.026,1.24,1.24,0,0,1-.419.5.581.581,0,0,1-.308.089,1.159,1.159,0,0,1-.46-.12c-.471-.209-.335-.832-.33-.863a.059.059,0,0,0,0-.053.064.064,0,0,1-.011-.02,1.6,1.6,0,0,1,.984-.466.5.5,0,0,0,.235.382.556.556,0,0,0,.246.057,2.61,2.61,0,0,0,1.041-.381l.026-.011a0,0,0,0,0,0,0A3.091,3.091,0,0,1,19,20.607,1.668,1.668,0,0,0,18.876,21.627Zm.146-.011a1.52,1.52,0,0,1,.136-1.014c.3-.006.649-.006,1.077,0a3.22,3.22,0,0,0,1.407-.309c.047.047.105.1.168.157l.005.005c.183.157.376.309.528.419A13,13,0,0,1,19.022,21.616Zm3.478-.8c-.157-.115-.376-.282-.58-.46l-.005-.006c-.048-.041-.095-.083-.137-.125.058-.031.115-.063.173-.089,0,0,0,0,.01,0a5.764,5.764,0,0,0,1.433-1.245,3.306,3.306,0,0,0,.45,1A3.214,3.214,0,0,1,22.5,20.816Zm1.517-.952-.01,0-.016-.016a3.15,3.15,0,0,1-.45-.978,1.528,1.528,0,0,0,1.03-.607.987.987,0,0,0,.188-.3,2.378,2.378,0,0,0,.131-.753c.011-.136.021-.267.037-.387a.5.5,0,0,1,.11-.256.292.292,0,0,1,.355-.026c.194.1.356.34.277.523a1.714,1.714,0,0,1-.345.465,1.931,1.931,0,0,0-.371.5.376.376,0,0,0-.016.042,1.148,1.148,0,0,0-.021,1.067,2.932,2.932,0,0,0,.2.3.945.945,0,0,0-.005.2C24.587,19.937,24.174,20.016,24.017,19.864Zm.565,3.107c-.11-1.051-.22-2.139-.272-2.458a2.726,2.726,0,0,0-.084-.429h.026a2.171,2.171,0,0,0,.9-.293.34.34,0,0,0,.058.11,13.875,13.875,0,0,1,1.631,5.538.248.248,0,0,0,0,.058v.084a.256.256,0,0,1,0,.062c-.13-.052-.277-.1-.423-.157s-.272-.094-.413-.141c-.006,0-.006,0-.006,0-.439-.146-.878-.288-1.223-.4C24.733,24.477,24.655,23.713,24.582,22.971Zm-4.6,7.782a1.946,1.946,0,0,0,.271-.23c.167-.209.513-.685.947-1.287.246-.329.518-.706.8-1.1a18.211,18.211,0,0,1,2.495-2.432,6.7,6.7,0,0,0,.622.288c.429.167.926.329,1.4.481l.345.11a2.109,2.109,0,0,0-.011.371v.011c0,.094.011.193.026.3l.006.109-.032.021-.01.006a1.762,1.762,0,0,0-.168.1,13.894,13.894,0,0,0-4.194,3.938.42.42,0,0,1-.11.126.514.514,0,0,1-.209.1,1.49,1.49,0,0,1-1.308-.382,1.716,1.716,0,0,0-1.088-.345C19.833,30.868,19.911,30.811,19.98,30.753Zm3.106,1.872v.006a3,3,0,0,1-.67.837,1.507,1.507,0,0,0-1-.649,1.041,1.041,0,0,0-.277-.037,2.149,2.149,0,0,0-.81.22c-.126.052-.241.1-.361.141a.447.447,0,0,1-.283.016.3.3,0,0,1-.177-.3c0-.22.141-.471.339-.482a1.433,1.433,0,0,1,.57.1,1.848,1.848,0,0,0,.66.1c.015,0,.031-.005.041-.005a1.11,1.11,0,0,0,.926-.45,3.2,3.2,0,0,0,.184-.324.809.809,0,0,0,.182-.084C22.652,31.878,23.227,32.317,23.086,32.625ZM19.2,32.589a1.406,1.406,0,0,1,.408-1.517,1.689,1.689,0,0,1,1.135.309,1.725,1.725,0,0,0,1.155.465,1.341,1.341,0,0,0,.147-.01c-.037.073-.073.141-.115.209a1,1,0,0,1-.858.382,1.581,1.581,0,0,1-.6-.094,1.744,1.744,0,0,0-.628-.1.586.586,0,0,0-.471.565l-.1.026C19.242,32.746,19.221,32.673,19.2,32.589Zm1.694,1.778C19.838,34,19.6,33.839,19.31,32.96l.057-.015a.4.4,0,0,0,.277.35.558.558,0,0,0,.367-.016,3.508,3.508,0,0,0,.376-.141,1.517,1.517,0,0,1,.989-.178,1.305,1.305,0,0,1,.925.607l0,.005A4.394,4.394,0,0,1,20.889,34.367Zm.9.774a4.869,4.869,0,0,0-.628-.669c-.005-.006-.016-.011-.021-.016a.345.345,0,0,1-.036-.01,4.736,4.736,0,0,0,1.26-.738,5.6,5.6,0,0,1,1.7.659,3.873,3.873,0,0,0-1.533,1.6C22.244,35.669,22,35.387,21.789,35.141Zm3.07,2.647a8,8,0,0,1-2.228-1.711,3.644,3.644,0,0,1,1.574-1.616,3.1,3.1,0,0,1,1.119,1.25c.91,1.935,1.172,2.139,2.135,2.688l.02.016c.324.23.816.586.806.884a.391.391,0,0,1-.225.3,3.484,3.484,0,0,1-1.219.345C26.794,39.351,26.4,38.525,24.859,37.788Zm1.987,6.317c-.266.236-.491.33-.633.262-.12-.052-.193-.22-.193-.45a1.608,1.608,0,0,1,.021-.23c.424-.146,1.046-.371,1.532-.549A3.818,3.818,0,0,1,26.846,44.105Zm.832-1.155c-.471.167-1.146.408-1.606.575.032-.194.084-.439.157-.753l1.705-.4C27.856,42.568,27.767,42.761,27.678,42.95ZM28,42.207l-1.731.4c.047-.2.094-.424.151-.644l1.747-.35A4.4,4.4,0,0,1,28,42.207Zm.251-.753c-.57.11-1.271.251-1.794.355.1-.407.193-.768.251-.983.586.068,1.37.157,1.857.22C28.457,41.187,28.348,41.323,28.248,41.454Zm.414-.544c-.477-.058-1.3-.157-1.92-.225.01-.047.026-.089.037-.125l.015-.068a1.76,1.76,0,0,0,.052-.4,4.054,4.054,0,0,0,1.224-.33,1.683,1.683,0,0,0,.894.717C28.9,40.58,28.792,40.732,28.662,40.91Zm1.124-2.416a.074.074,0,0,0,0-.084l-.544-.685.842.235a.066.066,0,0,0,.078-.031l.487-.727.031.873a.083.083,0,0,0,.057.068l.842.236-.821.3a.074.074,0,0,0-.047.073l.037.874-.544-.691a.08.08,0,0,0-.084-.021l-.382.147a.737.737,0,0,0-.183-.22ZM27.322,37.04a4.414,4.414,0,0,0,1.423,1.726.105.105,0,0,0,.042.005,1.232,1.232,0,0,1,.627.157.555.555,0,0,1,.225.256,1.128,1.128,0,0,1,.094.445c.021.512-.6.669-.627.679s-.032.016-.042.027l-.011.021a1.585,1.585,0,0,1-.857-.675.506.506,0,0,0,.235-.377c.01-.376-.5-.742-.868-1.009l-.021-.016-.005-.005a3.085,3.085,0,0,1-1.528-1.522,1.622,1.622,0,0,0,.963-.35A6.477,6.477,0,0,1,27.322,37.04Zm-2.568-3.405A13.245,13.245,0,0,1,26.9,36.276a1.5,1.5,0,0,1-.968.335c-.141-.262-.293-.576-.476-.963a3.167,3.167,0,0,0-.91-1.119,1.306,1.306,0,0,0,.063-.225c0-.005,0-.005,0-.01A6.712,6.712,0,0,0,24.754,33.635Zm-.131-.11c-.031.194-.078.46-.145.727-.006,0-.006,0-.006.01-.016.058-.032.116-.047.173-.058-.042-.115-.078-.168-.115-.005-.005-.01-.01-.015-.01a5.684,5.684,0,0,0-1.742-.722,3.357,3.357,0,0,0,.7-.847A3.137,3.137,0,0,1,24.623,33.525ZM25.638,30.7c-.9.564-1.825,1.155-2.092,1.344a2.577,2.577,0,0,0-.34.272,2.164,2.164,0,0,0-.68-.7.733.733,0,0,0,.073-.1,13.69,13.69,0,0,1,4.143-3.885c.052-.032.109-.068.167-.1.005.037.01.079.016.115.015.089.031.178.052.267a15.867,15.867,0,0,0,.465,1.627C27.093,29.77,26.386,30.22,25.638,30.7Zm2.108-1.282c0-.005,0-.005,0-.01l-.006,0h0c0-.006-.01-.006-.015-.011s-.006-.005-.011-.005h-.015s-.006,0-.006,0-.02,0-.026,0-.01.005-.016.01-.005.006-.01.006l-.016.015c-.015.011-.031.021-.052.037a15.952,15.952,0,0,1-.45-1.574c-.015-.089-.031-.173-.047-.262-.016-.073-.026-.146-.036-.214a3.266,3.266,0,0,1-.042-.445,2.012,2.012,0,0,1,.015-.408v-.016a.05.05,0,0,0,0-.026v0l-.015-.016v0h-.006s0-.01-.015-.01l-.006-.006h0l-.4-.125c-.471-.152-.968-.314-1.392-.481a5.742,5.742,0,0,1-.554-.257c.078-.062.152-.125.209-.167a.081.081,0,0,0,.022-.084c0-.005-.006-.01-.006-.02-.005-.048-.016-.126-.031-.231.334.105.742.241,1.15.382h0c.142.047.278.094.414.141.188.068.371.136.528.194l0,.005a2.917,2.917,0,0,1,.4.178.061.061,0,0,0,.042.016A.078.078,0,0,0,27.4,26l.015-.016a.258.258,0,0,0,.047-.042c.058-.047.136-.109.225-.183.178-.141.419-.324.753-.585.4-.3.832-.628,1.141-.858.036.152.068.272.088.361a1.164,1.164,0,0,0,.095.256c-.053.037-.105.078-.162.12s-.131.1-.2.157c-.314.23-.581.44-.8.607-.256.2-.45.361-.581.471-.162.146-.183.188-.194.214v.434l-.01.429a7.748,7.748,0,0,0,.1,1.58,3.792,3.792,0,0,0,.168.591C27.918,29.472,27.8,29.43,27.746,29.414Zm7.233,1.527a2.228,2.228,0,0,0-.34-.115c-.261-.042-.847-.1-1.584-.167-.409-.037-.874-.078-1.36-.126a19.043,19.043,0,0,1-3.426-.931,3.708,3.708,0,0,1-.209-.685c-.011-.062-.021-.13-.032-.193a7.391,7.391,0,0,1-.063-1.166v-.194l.006-.429c0-.115,0-.256,0-.392.011-.016.042-.042.11-.11.115.073.23.141.35.214a1.042,1.042,0,0,0,.12.068l.032.016c.052.032.1.063.162.094a13.853,13.853,0,0,0,5.549,1.616.555.555,0,0,1,.157.032c.005,0,.005.005.01.005a.608.608,0,0,1,.194.126h0v.005h0a1.5,1.5,0,0,1,.33,1.323,1.7,1.7,0,0,0,.256,1.109C35.152,31.009,35.057,30.973,34.979,30.941Zm1.977-.256a1.405,1.405,0,0,1-1.512.419,1.675,1.675,0,0,1-.313-1.135,1.686,1.686,0,0,0-.272-1.355,1.921,1.921,0,0,1,.24,0c.319,0,.529.214.769.539a1.578,1.578,0,0,1,.22.57,1.908,1.908,0,0,0,.23.591.466.466,0,0,0,.408.188.749.749,0,0,0,.319-.073l.073.078C37.066,30.56,37.014,30.617,36.956,30.685Zm.256-.288-.042-.041a.405.405,0,0,0,.163-.419.6.6,0,0,0-.2-.314c-.094-.083-.2-.162-.309-.245a1.5,1.5,0,0,1-.659-.759,1.32,1.32,0,0,1,.053-1.109h0a4.585,4.585,0,0,1,1.407.811C37.84,29.414,37.824,29.7,37.212,30.4Zm.623-3.247a6.418,6.418,0,0,0-.262.883.044.044,0,0,0,.005.027c0,.01.006.021.006.036a4.674,4.674,0,0,0-1.277-.711,5.629,5.629,0,0,1-.292-1.794,3.762,3.762,0,0,0,2.055.507h.1C38.06,26.491,37.939,26.836,37.835,27.15Zm.716-3.991a7.927,7.927,0,0,1-.34,2.793,3.641,3.641,0,0,1-2.191-.534,3.172,3.172,0,0,1,.507-1.6c1.2-1.773,1.245-2.1,1.229-3.206v-.026c.037-.4.094-1,.351-1.14a.376.376,0,0,1,.371.042,3.331,3.331,0,0,1,.915.873C38.913,20.7,38.405,21.464,38.551,23.159Zm1.47-3.075c-.047.015-.089.026-.126.042a1.5,1.5,0,0,0-.376.156,3.8,3.8,0,0,0-.905-.889,1.705,1.705,0,0,0,.167-1.135c.126.006.314.021.523.042.194.44.529,1.2.785,1.768Zm.209-.058c-.246-.533-.56-1.255-.758-1.71l.512.063c.387.434.858.962,1.219,1.365C40.831,19.854,40.482,19.958,40.23,20.026Zm1.124-.329c-.339-.382-.8-.895-1.186-1.329a4.907,4.907,0,0,1,.59-.157L41.987,19.5C41.794,19.561,41.574,19.629,41.354,19.7Zm.79-.246-1.213-1.266c.209-.036.423-.057.633-.073.387.324.931.774,1.307,1.093C42.688,19.273,42.442,19.357,42.144,19.451Zm1.1-.4c-.042.021-.121.052-.215.094-.34-.282-.852-.711-1.25-1.04a3.8,3.8,0,0,1,1.2.136c.335.109.534.251.549.413C43.546,18.781,43.436,18.928,43.243,19.048Z"/><path d="M26.878,27.374l-.032.021-.01.006a1.762,1.762,0,0,0-.168.1,13.705,13.705,0,0,0-4.189,3.938.526.526,0,0,1-.115.126.594.594,0,0,1-.209.1,1.522,1.522,0,0,1-1.313-.387,1.7,1.7,0,0,0-1.088-.345c.079-.068.157-.125.226-.183a1.946,1.946,0,0,0,.271-.23c.173-.209.513-.68.952-1.287.241-.329.513-.706.8-1.1a18.211,18.211,0,0,1,2.495-2.432,6.7,6.7,0,0,0,.622.288c.429.167.926.329,1.4.481l.345.11a2.109,2.109,0,0,0-.011.371v.011c0,.094.011.193.021.3Z" style="fill:#fff"/></svg>