<svg xmlns="http://www.w3.org/2000/svg" viewBox="0 0 55 55"><path d="M49.466,35.267a23.3,23.3,0,0,1-43.938,0Z"/><path d="M49.466,19.733H5.533a23.3,23.3,0,0,1,43.933,0Z" style="fill:#cd1225"/><path d="M50.8,27.5a23.141,23.141,0,0,1-1.334,7.767H5.528a23.336,23.336,0,0,1,.005-15.534H49.466A23.185,23.185,0,0,1,50.8,27.5Z" style="fill:#fff"/><path d="M16.966,31.323a.4.4,0,1,0,.4.4A.4.4,0,0,0,16.966,31.323Z" style="fill:#00793d"/><path d="M25.894,26.726a2.371,2.371,0,0,1-.256-.131c-.006,0-.068.047-.074.047-.157.115-.35.162-.512.272a1.162,1.162,0,0,0-.241.215,1.583,1.583,0,0,0-.35.92H20.3l.2-.183c.167-.162.334-.324.507-.486.23-.225.465-.45.7-.675.261-.251.518-.5.779-.748.246-.24.5-.476.743-.711.193-.188.392-.377.585-.565.074-.068.142-.152.215-.22a.71.71,0,0,1,.293-.146c.052-.016.1-.026.157-.047a.506.506,0,0,1-.121-.068,5.5,5.5,0,0,1-.622-.837c.01.01-.052.11-.057.126a1.18,1.18,0,0,1-.33.407c-.152.152-.309.3-.46.445-.2.2-.408.392-.617.591-.231.22-.466.445-.7.669s-.476.455-.717.686c-.214.209-.434.418-.653.627-.178.173-.356.345-.534.513l-.345.329c-.026.026-.057.053-.084.084l.1.873h5.967v-.664c0-.136.006-.272,0-.408,0-.261.377-.371.555-.214a.419.419,0,0,1,.11.319c-.011.382-.006.763-.006,1.145v.424h-8V27.547a2.833,2.833,0,0,1-.936.56,1.971,1.971,0,0,1,.2.721v.487H15.418a8.109,8.109,0,0,0-.335-1.266,4.109,4.109,0,0,1-1.124.779c-.079.032,1.977,2.16-.309,3.285a1.481,1.481,0,0,0,1.826-1.323H26.83V27.547a.4.4,0,0,0-.068-.146.873.873,0,0,0-.094-.147,1.393,1.393,0,0,0-.24-.251,1.607,1.607,0,0,0-.383-.209C25.993,26.768,25.941,26.747,25.894,26.726Z" style="fill:#00793d"/><path d="M29.456,29.069a1.462,1.462,0,0,1-.314.314,1.928,1.928,0,0,1-.555,0v-4.9a.554.554,0,0,1,.162-.3c-.151-.052-1.056-.69-1.056-.69v7.27H30.12C29.811,30.69,29.456,29.069,29.456,29.069Z" style="fill:#00793d"/><path d="M40.674,29.069a1.51,1.51,0,0,1-.309.314,1.917,1.917,0,0,1-.554,0v-4.9a.566.566,0,0,1,.157-.3c-.146-.052-1.051-.69-1.051-.69v7.27h2.421C41.035,30.69,40.674,29.069,40.674,29.069Z" style="fill:#00793d"/><path d="M37.625,23.933c-.115.105-.235.215-.351.319-.078.073-.162.141-.24.215a.011.011,0,0,1-.011.01c-.015.016-.036.021-.036.047a.123.123,0,0,0,.01.042.582.582,0,0,1,.026.235v4.216H36.38V25.052a.494.494,0,0,1-.057.053c-.042.041-.095.083-.142.125-.057.058-.12.11-.182.168s-.126.115-.184.172a1.818,1.818,0,0,0-.146.131.465.465,0,0,1-.1.073c-.01,0-.02,0-.02.016l.015.047a.789.789,0,0,1,.026.125.489.489,0,0,1,.011.126v2.929h-.648V26.334l-.78.706-.042.047.042.251V28.1c-.35-.047-1.255-.125-1.642.272-.492.487-.664,1.073-.309,2.391h5.586V23.771C37.745,23.823,37.688,23.881,37.625,23.933Zm-4.142,5.361a.292.292,0,1,1,.345-.288A.32.32,0,0,1,33.483,29.294Z" style="fill:#00793d"/><path d="M35.12,23.661c-.063-.172-.147-.24-.147-.455s.121-.392.209-.3.085.491.085.638S35.177,23.823,35.12,23.661Z" style="fill:#00793d"/><path d="M34.064,24.5c.031-.026.14.016.182.021a1.062,1.062,0,0,0,.288.016.861.861,0,0,0,.455-.183c.094-.073.173-.246.3-.251a.226.226,0,0,1,.152.078.918.918,0,0,0,.131.12.427.427,0,0,0,.372-.031.694.694,0,0,1,.366-.1.152.152,0,0,1,.046.01.074.074,0,0,1,.026.079c-.036.324-.4.413-.669.345a.718.718,0,0,1-.418-.314c.036.057-.105.214-.142.256a.529.529,0,0,1-.261.173,1.114,1.114,0,0,1-.664,0c-.058-.021-.2-.131-.178-.209A.011.011,0,0,1,34.064,24.5Z" style="fill:#00793d"/></svg>