<svg xmlns="http://www.w3.org/2000/svg" viewBox="0 0 55 55"><path d="M49.472,35.267c-.027.073-.053.146-.084.214-.068.194-.141.382-.215.575l-.109.267c-.063.157-.126.309-.2.466s-.136.308-.209.465c-.026.063-.058.136-.094.2-.037.089-.084.178-.131.267a23.291,23.291,0,0,1-41.867-.011c-.047-.089-.089-.177-.131-.266-.026-.047-.046-.1-.068-.142-.078-.172-.157-.345-.23-.517s-.136-.309-.2-.466c-.036-.089-.072-.178-.109-.267-.074-.193-.147-.381-.215-.575-.031-.068-.052-.141-.078-.214Z" style="fill:#d90201"/><path d="M50.8,27.5a23.137,23.137,0,0,1-1.313,7.714c0,.016-.01.037-.015.053H5.534a.2.2,0,0,1-.021-.053,23.275,23.275,0,0,1,0-15.428.088.088,0,0,1,.016-.053H49.466a.088.088,0,0,1,.017.053A23,23,0,0,1,50.8,27.5Z" style="fill:#fff"/><path d="M49.466,19.733H5.534c.026-.073.047-.146.078-.219.147-.408.3-.806.476-1.2.047-.105.09-.2.136-.309.068-.151.141-.308.215-.46.041-.089.083-.183.13-.272a23.3,23.3,0,0,1,41.862,0c.047.089.089.183.131.272.073.152.146.309.214.46.052.11.094.22.141.324.173.393.33.79.471,1.188A1.914,1.914,0,0,1,49.466,19.733Z" style="fill:#1f9e42"/><path d="M31.182,26.459a6.284,6.284,0,0,0-.319-.931,5.789,5.789,0,0,0-1.057-1.694,16.91,16.91,0,0,1,.4,1.883,9.083,9.083,0,0,1,.11,1.856,4.484,4.484,0,0,1-.152.989,3.644,3.644,0,0,1-.35.925,4.067,4.067,0,0,1-.565.811,5.256,5.256,0,0,1-.732.675c-.136.1-.283.2-.424.293.021-1.622.157-6.826.157-7.72l-.758-.5-.748.5c0,.894.136,6.1.157,7.72-.141-.094-.288-.194-.429-.293a5.616,5.616,0,0,1-.732-.675,4.259,4.259,0,0,1-.56-.811,3.9,3.9,0,0,1-.356-.925,4.931,4.931,0,0,1-.146-.989,9.171,9.171,0,0,1,.105-1.856,17.526,17.526,0,0,1,.408-1.883,5.789,5.789,0,0,0-1.057,1.694,6.284,6.284,0,0,0-.319.931,5.2,5.2,0,0,0-.178,1.109,4.715,4.715,0,0,0,.068,1.234,4.422,4.422,0,0,0,.424,1.235,4.657,4.657,0,0,0,.779,1.056,5.264,5.264,0,0,0,.989.748,4.521,4.521,0,0,0,.554.282c-.319.142-.6.257-.816.34-.318.126-.5.21-.5.21s.2.015.55.02a4.379,4.379,0,0,0,.627-.02,5.62,5.62,0,0,0,.81-.11c.016-.006.027-.006.042-.011.037.089.079.173.11.241.137.287.225.45.225.45s.089-.163.225-.45c.031-.068.068-.152.11-.241.015.005.026.005.042.011a5.62,5.62,0,0,0,.81.11,4.389,4.389,0,0,0,.628.02c.35,0,.544-.02.544-.02s-.183-.084-.5-.21c-.22-.083-.5-.2-.816-.34a4.521,4.521,0,0,0,.554-.282,5.43,5.43,0,0,0,.989-.748,4.493,4.493,0,0,0,.774-1.056,4.279,4.279,0,0,0,.429-1.235,4.715,4.715,0,0,0,.068-1.234A5.2,5.2,0,0,0,31.182,26.459Z" style="fill:#d90201"/><path d="M23.264,30.4a3.428,3.428,0,0,1-.193-.539c-.058-.2-.142-.4-.2-.628s-.094-.455-.151-.69c-.015-.241-.053-.481-.058-.727a4.28,4.28,0,0,1,.047-.732c.021-.12.032-.246.058-.366s.068-.241.1-.356a5.2,5.2,0,0,1,.251-.69c.115-.215.2-.44.324-.633.11-.2.231-.387.346-.565.23-.345.439-.638.591-.837s.251-.324.251-.324a2.4,2.4,0,0,0-.393.136,4.417,4.417,0,0,0-.941.56,4.743,4.743,0,0,0-1.088,1.15c-.084.126-.152.262-.225.4a1.973,1.973,0,0,0-.2.423c-.053.152-.11.3-.157.455s-.063.319-.089.481a4.292,4.292,0,0,0-.026.973,6.942,6.942,0,0,0,.193.91c.1.277.235.534.345.774a4.883,4.883,0,0,0,.424.617,2.4,2.4,0,0,0,.413.461c.131.125.256.23.356.314.2.167.324.251.324.251s-.047-.152-.136-.393C23.384,30.706,23.332,30.56,23.264,30.4Z" style="fill:#d90201"/><path d="M33.462,26.919c-.031-.162-.052-.324-.088-.481s-.105-.3-.157-.455a2.025,2.025,0,0,0-.2-.423c-.079-.136-.141-.272-.225-.4a4.743,4.743,0,0,0-1.088-1.15,4.542,4.542,0,0,0-.941-.56,2.365,2.365,0,0,0-.393-.136s.094.12.246.324.366.492.6.837c.115.178.23.361.346.565s.2.418.324.633a6.015,6.015,0,0,1,.251.69c.031.115.063.235.1.356s.037.246.058.366a4.28,4.28,0,0,1,.047.732c-.005.246-.042.486-.058.727-.057.235-.1.465-.151.69s-.147.429-.2.628a4.158,4.158,0,0,1-.194.539,4.5,4.5,0,0,0-.167.423c-.089.241-.136.393-.136.393s.12-.084.324-.251c.1-.084.225-.189.356-.314a2.4,2.4,0,0,0,.413-.461,4.873,4.873,0,0,0,.419-.617,8.066,8.066,0,0,0,.35-.774,6.942,6.942,0,0,0,.193-.91A4.235,4.235,0,0,0,33.462,26.919Z" style="fill:#d90201"/><path d="M26.569,23.044a.982.982,0,0,0,.931-.675.982.982,0,0,0,1.914-.308,1.021,1.021,0,0,0-.052-.309.978.978,0,0,1-1.862.005v0a.978.978,0,0,1-1.862-.005,1.021,1.021,0,0,0-.052.309A.982.982,0,0,0,26.569,23.044Z" style="fill:#d90201"/><rect x="31.25" y="17.27" width="4.644" height="0.272" style="fill:#fff"/><rect x="31.25" y="19.514" width="3.243" height="0.267" style="fill:#fff"/><rect x="34.932" y="19.514" width="3.243" height="0.267" style="fill:#fff"/><polygon points="33.436 18.002 33.436 18.274 34.221 18.274 34.221 18.672 32.96 18.672 32.96 18.274 32.96 18.002 32.694 18.002 31.522 18.002 31.25 18.002 31.25 18.274 31.25 18.944 31.522 18.944 31.522 18.274 32.694 18.274 32.694 18.944 32.897 18.944 32.96 18.944 34.221 18.944 34.493 18.944 34.493 18.672 34.493 18.274 34.493 18.002 34.221 18.002 33.436 18.002" style="fill:#fff"/><polygon points="36.689 18.928 37.16 18.928 37.427 18.928 37.897 18.928 38.164 18.928 38.164 18.661 38.164 17.27 37.897 17.27 37.897 18.661 37.427 18.661 37.427 17.27 37.16 17.27 37.16 18.661 36.689 18.661 36.689 17.27 36.417 17.27 36.417 18.002 35.209 18.002 34.937 18.002 34.937 18.274 34.937 18.661 34.937 18.928 35.209 18.928 35.884 18.928 35.884 18.661 35.209 18.661 35.209 18.274 36.417 18.274 36.417 18.661 36.417 18.928 36.689 18.928" style="fill:#fff"/><rect x="31.972" y="18.661" width="0.267" height="0.282" style="fill:#fff"/><path d="M48.562,17.542H45.675V17.27h2.756C48.478,17.359,48.52,17.453,48.562,17.542Z" style="fill:#fff"/><rect x="45.675" y="19.514" width="3.243" height="0.267" style="fill:#fff"/><path d="M49.483,19.786h-.127v-.272h.032a1.914,1.914,0,0,1,.078.219A.088.088,0,0,1,49.483,19.786Z" style="fill:#fff"/><path d="M48.917,18.326v.618h-1.8v-.67H45.946v.67h-.271V18h1.71v.67H48.65v-.4h-.789V18h.915C48.828,18.112,48.87,18.222,48.917,18.326Z" style="fill:#fff"/><rect x="46.397" y="18.661" width="0.271" height="0.282" style="fill:#fff"/><rect x="38.462" y="17.27" width="4.65" height="0.272" style="fill:#fff"/><rect x="38.462" y="19.514" width="3.243" height="0.267" style="fill:#fff"/><rect x="42.144" y="19.514" width="3.243" height="0.267" style="fill:#fff"/><polygon points="40.648 18.002 40.648 18.274 41.438 18.274 41.438 18.672 40.173 18.672 40.173 18.274 40.173 18.002 39.906 18.002 38.734 18.002 38.462 18.002 38.462 18.274 38.462 18.944 38.734 18.944 38.734 18.274 39.906 18.274 39.906 18.944 40.11 18.944 40.173 18.944 41.438 18.944 41.705 18.944 41.705 18.672 41.705 18.274 41.705 18.002 41.438 18.002 40.648 18.002" style="fill:#fff"/><polygon points="43.902 18.928 44.372 18.928 44.639 18.928 45.11 18.928 45.376 18.928 45.376 18.661 45.376 17.27 45.11 17.27 45.11 18.661 44.639 18.661 44.639 17.27 44.372 17.27 44.372 18.661 43.902 18.661 43.902 17.27 43.63 17.27 43.63 18.002 42.422 18.002 42.155 18.002 42.155 18.274 42.155 18.661 42.155 18.928 42.422 18.928 43.096 18.928 43.096 18.661 42.422 18.661 42.422 18.274 43.63 18.274 43.63 18.661 43.63 18.928 43.902 18.928" style="fill:#fff"/><rect x="39.184" y="18.661" width="0.272" height="0.282" style="fill:#fff"/><rect x="24.038" y="17.27" width="4.644" height="0.272" style="fill:#fff"/><rect x="24.038" y="19.514" width="3.243" height="0.267" style="fill:#fff"/><rect x="27.72" y="19.514" width="3.243" height="0.267" style="fill:#fff"/><polygon points="26.224 18.002 26.224 18.274 27.008 18.274 27.008 18.672 25.748 18.672 25.748 18.274 25.748 18.002 25.481 18.002 24.31 18.002 24.038 18.002 24.038 18.274 24.038 18.944 24.31 18.944 24.31 18.274 25.481 18.274 25.481 18.944 25.686 18.944 25.748 18.944 27.008 18.944 27.28 18.944 27.28 18.672 27.28 18.274 27.28 18.002 27.008 18.002 26.224 18.002" style="fill:#fff"/><polygon points="29.477 18.928 29.942 18.928 30.214 18.928 30.685 18.928 30.952 18.928 30.952 18.661 30.952 17.27 30.685 17.27 30.685 18.661 30.214 18.661 30.214 17.27 29.942 17.27 29.942 18.661 29.477 18.661 29.477 17.27 29.205 17.27 29.205 18.002 27.997 18.002 27.725 18.002 27.725 18.274 27.725 18.661 27.725 18.928 27.997 18.928 28.672 18.928 28.672 18.661 27.997 18.661 27.997 18.274 29.205 18.274 29.205 18.661 29.205 18.928 29.477 18.928" style="fill:#fff"/><rect x="24.759" y="18.661" width="0.267" height="0.282" style="fill:#fff"/><rect x="16.825" y="17.27" width="4.644" height="0.272" style="fill:#fff"/><rect x="16.825" y="19.514" width="3.243" height="0.267" style="fill:#fff"/><rect x="20.508" y="19.514" width="3.243" height="0.267" style="fill:#fff"/><polygon points="19.012 18.002 19.012 18.274 19.796 18.274 19.796 18.672 18.536 18.672 18.536 18.274 18.536 18.002 18.264 18.002 17.097 18.002 16.825 18.002 16.825 18.274 16.825 18.944 17.097 18.944 17.097 18.274 18.264 18.274 18.264 18.944 18.473 18.944 18.536 18.944 19.796 18.944 20.068 18.944 20.068 18.672 20.068 18.274 20.068 18.002 19.796 18.002 19.012 18.002" style="fill:#fff"/><polygon points="22.265 18.928 22.73 18.928 23.002 18.928 23.473 18.928 23.74 18.928 23.74 18.661 23.74 17.27 23.473 17.27 23.473 18.661 23.002 18.661 23.002 17.27 22.73 17.27 22.73 18.661 22.265 18.661 22.265 17.27 21.993 17.27 21.993 18.002 20.785 18.002 20.513 18.002 20.513 18.274 20.513 18.661 20.513 18.928 20.785 18.928 21.459 18.928 21.459 18.661 20.785 18.661 20.785 18.274 21.993 18.274 21.993 18.661 21.993 18.928 22.265 18.928" style="fill:#fff"/><rect x="17.547" y="18.661" width="0.267" height="0.282" style="fill:#fff"/><rect x="9.613" y="17.27" width="4.644" height="0.272" style="fill:#fff"/><rect x="9.613" y="19.514" width="3.243" height="0.267" style="fill:#fff"/><rect x="13.295" y="19.514" width="3.243" height="0.267" style="fill:#fff"/><polygon points="11.799 18.002 11.799 18.274 12.584 18.274 12.584 18.672 11.323 18.672 11.323 18.274 11.323 18.002 11.051 18.002 9.885 18.002 9.613 18.002 9.613 18.274 9.613 18.944 9.885 18.944 9.885 18.274 11.051 18.274 11.051 18.944 11.261 18.944 11.323 18.944 12.584 18.944 12.856 18.944 12.856 18.672 12.856 18.274 12.856 18.002 12.584 18.002 11.799 18.002" style="fill:#fff"/><polygon points="15.052 18.928 15.518 18.928 15.79 18.928 16.261 18.928 16.527 18.928 16.527 18.661 16.527 17.27 16.261 17.27 16.261 18.661 15.79 18.661 15.79 17.27 15.518 17.27 15.518 18.661 15.052 18.661 15.052 17.27 14.78 17.27 14.78 18.002 13.572 18.002 13.3 18.002 13.3 18.274 13.3 18.661 13.3 18.928 13.572 18.928 14.247 18.928 14.247 18.661 13.572 18.661 13.572 18.274 14.78 18.274 14.78 18.661 14.78 18.928 15.052 18.928" style="fill:#fff"/><rect x="10.335" y="18.661" width="0.267" height="0.282" style="fill:#fff"/><path d="M7.045,17.27v.272H6.439c.041-.089.083-.183.13-.272Z" style="fill:#fff"/><path d="M5.644,19.514v.272H5.518a.088.088,0,0,1,.016-.053c.026-.073.047-.146.078-.219Z" style="fill:#fff"/><rect x="6.083" y="19.514" width="3.243" height="0.267" style="fill:#fff"/><path d="M9.316,17.27v1.658H7.568v-.654H6.36v.387h.669v.267H6.088v-.617c.047-.105.09-.2.136-.309H7.568V17.27H7.84v1.391h.466V17.27h.272v1.391h.465V17.27Z" style="fill:#fff"/><rect x="31.26" y="36.056" width="4.644" height="0.267" style="fill:#fff"/><rect x="20.508" y="35.214" width="3.243" height="0.267" style="fill:#fff"/><rect x="16.825" y="35.214" width="3.243" height="0.267" style="fill:#fff"/><polygon points="33.447 36.789 33.447 37.055 34.231 37.055 34.231 37.453 32.971 37.453 32.971 37.055 32.971 36.789 32.699 36.789 31.527 36.789 31.26 36.789 31.26 37.055 31.26 37.725 31.527 37.725 31.527 37.055 32.699 37.055 32.699 37.725 32.908 37.725 32.971 37.725 34.231 37.725 34.503 37.725 34.503 37.453 34.503 37.055 34.503 36.789 34.231 36.789 33.447 36.789" style="fill:#fff"/><polygon points="36.694 37.714 37.165 37.714 37.437 37.714 37.903 37.714 38.175 37.714 38.175 37.442 38.175 36.056 37.903 36.056 37.903 37.442 37.437 37.442 37.437 36.056 37.165 36.056 37.165 37.442 36.694 37.442 36.694 36.056 36.428 36.056 36.428 36.789 35.22 36.789 34.948 36.789 34.948 37.055 34.948 37.442 34.948 37.714 35.22 37.714 35.889 37.714 35.889 37.442 35.22 37.442 35.22 37.055 36.428 37.055 36.428 37.442 36.428 37.714 36.694 37.714" style="fill:#fff"/><rect x="31.977" y="37.442" width="0.272" height="0.282" style="fill:#fff"/><path d="M49.173,36.056l-.109.267H45.685v-.267Z" style="fill:#fff"/><rect x="6.083" y="35.214" width="3.243" height="0.267" style="fill:#fff"/><path d="M5.644,35.214v.267H5.612c-.031-.068-.052-.141-.078-.214a.2.2,0,0,1-.021-.053Z" style="fill:#fff"/><path d="M47.4,37.458h1.167c-.037.089-.084.178-.131.267H47.123v-.67H45.952v.67h-.267v-.936H47.4Z" style="fill:#fff"/><path d="M48.656,37.254v-.2h-.785v-.266h.994C48.8,36.946,48.729,37.1,48.656,37.254Z" style="fill:#fff"/><rect x="46.407" y="37.442" width="0.267" height="0.282" style="fill:#fff"/><rect x="38.473" y="36.056" width="4.644" height="0.267" style="fill:#fff"/><rect x="13.295" y="35.214" width="3.243" height="0.267" style="fill:#fff"/><rect x="9.613" y="35.214" width="3.243" height="0.267" style="fill:#fff"/><polygon points="40.659 36.789 40.659 37.055 41.443 37.055 41.443 37.453 40.183 37.453 40.183 37.055 40.183 36.789 39.912 36.789 38.739 36.789 38.473 36.789 38.473 37.055 38.473 37.725 38.739 37.725 38.739 37.055 39.912 37.055 39.912 37.725 40.121 37.725 40.183 37.725 41.443 37.725 41.715 37.725 41.715 37.453 41.715 37.055 41.715 36.789 41.443 36.789 40.659 36.789" style="fill:#fff"/><polygon points="43.907 37.714 44.377 37.714 44.649 37.714 45.115 37.714 45.387 37.714 45.387 37.442 45.387 36.056 45.115 36.056 45.115 37.442 44.649 37.442 44.649 36.056 44.377 36.056 44.377 37.442 43.907 37.442 43.907 36.056 43.64 36.056 43.64 36.789 42.432 36.789 42.16 36.789 42.16 37.055 42.16 37.442 42.16 37.714 42.432 37.714 43.102 37.714 43.102 37.442 42.432 37.442 42.432 37.055 43.64 37.055 43.64 37.442 43.64 37.714 43.907 37.714" style="fill:#fff"/><rect x="39.189" y="37.442" width="0.272" height="0.282" style="fill:#fff"/><rect x="24.048" y="36.056" width="4.644" height="0.267" style="fill:#fff"/><rect x="27.72" y="35.214" width="3.243" height="0.267" style="fill:#fff"/><rect x="24.038" y="35.214" width="3.243" height="0.267" style="fill:#fff"/><polygon points="26.234 36.789 26.234 37.055 27.019 37.055 27.019 37.453 25.758 37.453 25.758 37.055 25.758 36.789 25.486 36.789 24.315 36.789 24.048 36.789 24.048 37.055 24.048 37.725 24.315 37.725 24.315 37.055 25.486 37.055 25.486 37.725 25.696 37.725 25.758 37.725 27.019 37.725 27.286 37.725 27.286 37.453 27.286 37.055 27.286 36.789 27.019 36.789 26.234 36.789" style="fill:#fff"/><polygon points="29.482 37.714 29.953 37.714 30.225 37.714 30.69 37.714 30.962 37.714 30.962 37.442 30.962 36.056 30.69 36.056 30.69 37.442 30.225 37.442 30.225 36.056 29.953 36.056 29.953 37.442 29.482 37.442 29.482 36.056 29.215 36.056 29.215 36.789 28.002 36.789 27.735 36.789 27.735 37.055 27.735 37.442 27.735 37.714 28.002 37.714 28.677 37.714 28.677 37.442 28.002 37.442 28.002 37.055 29.215 37.055 29.215 37.442 29.215 37.714 29.482 37.714" style="fill:#fff"/><rect x="24.765" y="37.442" width="0.272" height="0.282" style="fill:#fff"/><rect x="16.836" y="36.056" width="4.644" height="0.267" style="fill:#fff"/><rect x="34.932" y="35.214" width="3.243" height="0.267" style="fill:#fff"/><rect x="31.25" y="35.214" width="3.243" height="0.267" style="fill:#fff"/><polygon points="19.022 36.789 19.022 37.055 19.807 37.055 19.807 37.453 18.546 37.453 18.546 37.055 18.546 36.789 18.274 36.789 17.103 36.789 16.836 36.789 16.836 37.055 16.836 37.725 17.103 37.725 17.103 37.055 18.274 37.055 18.274 37.725 18.483 37.725 18.546 37.725 19.807 37.725 20.073 37.725 20.073 37.453 20.073 37.055 20.073 36.789 19.807 36.789 19.022 36.789" style="fill:#fff"/><polygon points="22.27 37.714 22.741 37.714 23.007 37.714 23.478 37.714 23.751 37.714 23.751 37.442 23.751 36.056 23.478 36.056 23.478 37.442 23.007 37.442 23.007 36.056 22.741 36.056 22.741 37.442 22.27 37.442 22.27 36.056 22.003 36.056 22.003 36.789 20.79 36.789 20.523 36.789 20.523 37.055 20.523 37.442 20.523 37.714 20.79 37.714 21.464 37.714 21.464 37.442 20.79 37.442 20.79 37.055 22.003 37.055 22.003 37.442 22.003 37.714 22.27 37.714" style="fill:#fff"/><rect x="17.552" y="37.442" width="0.272" height="0.282" style="fill:#fff"/><rect x="9.618" y="36.056" width="4.65" height="0.267" style="fill:#fff"/><rect x="42.144" y="35.214" width="3.243" height="0.267" style="fill:#fff"/><rect x="38.462" y="35.214" width="3.243" height="0.267" style="fill:#fff"/><polygon points="11.81 36.789 11.81 37.055 12.594 37.055 12.594 37.453 11.334 37.453 11.334 37.055 11.334 36.789 11.062 36.789 9.891 36.789 9.618 36.789 9.618 37.055 9.618 37.725 9.891 37.725 9.891 37.055 11.062 37.055 11.062 37.725 11.266 37.725 11.334 37.725 12.594 37.725 12.861 37.725 12.861 37.453 12.861 37.055 12.861 36.789 12.594 36.789 11.81 36.789" style="fill:#fff"/><polygon points="15.058 37.714 15.528 37.714 15.795 37.714 16.266 37.714 16.538 37.714 16.538 37.442 16.538 36.056 16.266 36.056 16.266 37.442 15.795 37.442 15.795 36.056 15.528 36.056 15.528 37.442 15.058 37.442 15.058 36.056 14.791 36.056 14.791 36.789 13.578 36.789 13.311 36.789 13.311 37.055 13.311 37.442 13.311 37.714 13.578 37.714 14.252 37.714 14.252 37.442 13.578 37.442 13.578 37.055 14.791 37.055 14.791 37.442 14.791 37.714 15.058 37.714" style="fill:#fff"/><rect x="10.34" y="37.442" width="0.272" height="0.282" style="fill:#fff"/><path d="M7.056,36.056v.267H5.936c-.036-.089-.072-.178-.109-.267Z" style="fill:#fff"/><path d="M49.487,35.214c0,.016-.01.037-.015.053-.027.073-.053.146-.084.214h-.032v-.267Z" style="fill:#fff"/><rect x="45.675" y="35.214" width="3.243" height="0.267" style="fill:#fff"/><path d="M6.433,37.448H7.04v.266H6.564C6.517,37.625,6.475,37.537,6.433,37.448Z" style="fill:#fff"/><path d="M9.32,36.056v1.658H7.579v-.659H6.365v.251c-.078-.172-.157-.345-.23-.517H7.579v-.733h.266v1.392h.471V36.056h.267v1.392h.471V36.056Z" style="fill:#fff"/></svg>