<svg xmlns="http://www.w3.org/2000/svg" viewBox="0 0 55 55"><path d="M49.467,19.733H5.534a23.3,23.3,0,0,1,43.933,0Z"/><path d="M50.8,27.5a23.209,23.209,0,0,1-1.333,7.767H5.528a23.328,23.328,0,0,1,.006-15.534H49.467A23.166,23.166,0,0,1,50.8,27.5Z" style="fill:#fff"/><path d="M49.467,35.267a23.316,23.316,0,0,1-43.939,0Z" style="fill:#00793d"/><path d="M33.133,27.5,22.8,35.267,11.114,44.048A23.179,23.179,0,0,1,4.2,27.5a22.993,22.993,0,0,1,1.334-7.767,23.272,23.272,0,0,1,5.585-8.786L22.8,19.733Z" style="fill:#cd1225"/></svg>