<svg xmlns="http://www.w3.org/2000/svg" viewBox="0 0 55 55"><path d="M47.672,15.847H7.322a23.3,23.3,0,0,1,40.35,0Z" style="fill:#0a2f9f"/><path d="M47.672,39.147a23.291,23.291,0,0,1-40.35,0Z" style="fill:#0a2f9f"/><path d="M50.8,27.5a23.144,23.144,0,0,1-3.128,11.647H7.322a23.3,23.3,0,0,1,0-23.3h40.35A23.182,23.182,0,0,1,50.8,27.5Z" style="fill:#df0324"/><path d="M42.515,35.69h-.664V34.325a.072.072,0,0,0-.073-.073h-.659V33.065a.072.072,0,0,0-.074-.073h-.659v-.874a.071.071,0,0,0-.073-.073h-.408v-.664a.075.075,0,0,0-.073-.074h-.565c-.157-.026-.324-.235-.434-.4V28.326l.476-.517a.057.057,0,0,0,.021-.047V25.518a.078.078,0,0,0-.031-.063.085.085,0,0,0-.063-.01.984.984,0,0,0-.356.24v-.638a.1.1,0,0,0-.01-.042.3.3,0,0,0-.194-.11.235.235,0,0,0-.2.105.051.051,0,0,0-.02.047V25.2h-.418v-.952a.072.072,0,0,0-.074-.073.073.073,0,0,0-.073.062v.006a.057.057,0,0,1-.01.021.19.19,0,0,1-.011.021.85.85,0,0,1-.074.141c-.088.136-.177.2-.287.2a.053.053,0,0,1-.021-.005s-.016-.026.016-.1a.836.836,0,0,1,.047-.095.3.3,0,0,0,.036-.062.977.977,0,0,0,.1-.492.412.412,0,0,0-.089-.314.075.075,0,0,0-.073-.015.061.061,0,0,0-.047.057.294.294,0,0,1-.121.188.066.066,0,0,1-.036.016c-.011-.01-.026-.057.11-.308l.005-.006a.639.639,0,0,0,0-.528.083.083,0,0,0-.068-.037.075.075,0,0,0-.063.053.715.715,0,0,1-.1.214c.006-.063.027-.157.037-.225a1.966,1.966,0,0,0,.052-.35.735.735,0,0,0-.068-.356.065.065,0,0,0-.073-.036.074.074,0,0,0-.063.052,1.426,1.426,0,0,1-.073.251,1.294,1.294,0,0,1-.025-.277c0-.22-.121-.7-.466-.79-.037-.173-.074-.35-.288-.35s-.246.177-.283.35c-.35.089-.465.57-.465.79a1.6,1.6,0,0,1-.026.277,2.409,2.409,0,0,1-.079-.251.066.066,0,0,0-.057-.052.078.078,0,0,0-.079.036.832.832,0,0,0-.068.356,1.976,1.976,0,0,0,.053.35,2.2,2.2,0,0,1,.042.225.715.715,0,0,1-.105-.214.074.074,0,0,0-.136-.016.685.685,0,0,0,0,.528l0,.006c.141.251.121.3.115.308a.078.078,0,0,1-.042-.016A.293.293,0,0,1,35,23.593a.072.072,0,0,0-.052-.057.064.064,0,0,0-.068.015.418.418,0,0,0-.089.319.911.911,0,0,0,.1.487c.015.021.02.042.036.062a.744.744,0,0,1,.052.095c.027.078.016.1.016.1a.063.063,0,0,1-.026.005c-.105.006-.2-.062-.282-.2a.6.6,0,0,1-.079-.141c0-.006-.005-.011-.01-.021a.044.044,0,0,0-.006-.016.071.071,0,0,0-.078-.068.066.066,0,0,0-.068.068v1.705H33.9a.8.8,0,0,0-.214-.105.06.06,0,0,0-.058.016.065.065,0,0,0-.031.058v.068h-2.8V24.367a.066.066,0,0,0-.047-.063.057.057,0,0,0-.073.011l-.371.329a.065.065,0,0,0-.026.053v.277h-.183a.475.475,0,0,1-.168-.366c.016-.115.121-.22.309-.3a.071.071,0,0,0,.042-.068v-.581a.068.068,0,0,0-.068-.073c-.027,0-.225,0-.508.335a.208.208,0,0,0-.157-.079.2.2,0,0,0-.167.105.064.064,0,0,0-.01.042v.622h-.079v-.722l.069-.063c.015-.015.031-.026.041-.036a.748.748,0,0,1,.063-.063.514.514,0,0,0,.183-.272,1.212,1.212,0,0,0-.042-.575.073.073,0,0,0-.063-.047.07.07,0,0,0-.068.042c-.015.026-.026.052-.042.078a.965.965,0,0,1-.1.194.145.145,0,0,1-.089.068v-.2a.447.447,0,0,1,.141-.278l.016-.021a1.866,1.866,0,0,0,.23-.339.868.868,0,0,0-.068-.738.062.062,0,0,0-.073-.031.071.071,0,0,0-.058.062,1.263,1.263,0,0,1-.11.393c-.031.057-.042.073-.068.078a.528.528,0,0,1-.089,0v-.366a1.133,1.133,0,0,0,.225-.507.9.9,0,0,0-.136-.5.065.065,0,0,0-.068-.021.1.1,0,0,0-.052.052c-.021.073-.037.141-.052.2a.727.727,0,0,1-.083.246H28.88v-.3a1.061,1.061,0,0,0,.236-.507.405.405,0,0,0-.089-.3.075.075,0,0,0-.068-.021.1.1,0,0,0-.053.052,1.023,1.023,0,0,1-.13.3h-.142v-.146a.628.628,0,0,0,.246-.4.284.284,0,0,0-.115-.225.073.073,0,0,0-.1,0l-.146.147h-.037l.125-.518a.072.072,0,0,0-.015-.063.084.084,0,0,0-.058-.026h-.089l.063-.3a.063.063,0,0,0-.016-.058.082.082,0,0,0-.057-.026h-.094l.031-.2a.049.049,0,0,0-.016-.052.065.065,0,0,0-.057-.026h-.22l.042-.241a.06.06,0,0,0-.016-.058.065.065,0,0,0-.052-.026H27.84a.53.53,0,0,0-.058-.355.344.344,0,0,0-.262-.152.06.06,0,0,0-.026,0s-.01,0-.02,0a.362.362,0,0,0-.262.152.561.561,0,0,0-.058.355h-.209a.084.084,0,0,0-.057.026.06.06,0,0,0-.016.058l.047.241h-.225a.052.052,0,0,0-.052.026.065.065,0,0,0-.021.052l.036.2h-.1a.062.062,0,0,0-.052.026.063.063,0,0,0-.016.058l.058.3h-.089a.084.084,0,0,0-.058.026.069.069,0,0,0-.016.063l.126.518h-.037l-.146-.147a.073.073,0,0,0-.1,0,.276.276,0,0,0-.11.225.628.628,0,0,0,.24.4v.146h-.136a1.016,1.016,0,0,1-.136-.3.072.072,0,0,0-.052-.052.079.079,0,0,0-.068.021.415.415,0,0,0-.084.3,1.059,1.059,0,0,0,.231.507v.3h-.105c-.031-.016-.063-.136-.089-.246a1.2,1.2,0,0,0-.052-.2.075.075,0,0,0-.053-.052.064.064,0,0,0-.067.021.9.9,0,0,0-.137.5,1.144,1.144,0,0,0,.225.507v.366a.456.456,0,0,1-.083,0c-.027,0-.037-.021-.074-.084a1.193,1.193,0,0,1-.1-.387.079.079,0,0,0-.058-.062.066.066,0,0,0-.078.031.849.849,0,0,0-.063.738,1.817,1.817,0,0,0,.225.339l.016.021a.419.419,0,0,1,.141.278v.2a.173.173,0,0,1-.089-.068,1.406,1.406,0,0,1-.105-.194.543.543,0,0,0-.036-.078.075.075,0,0,0-.068-.042.073.073,0,0,0-.063.047,1.141,1.141,0,0,0-.042.575.515.515,0,0,0,.184.272l.062.063a.212.212,0,0,0,.037.036c.015.016.058.048.073.063v.722h-.079v-.622a.07.07,0,0,0-.015-.042.188.188,0,0,0-.168-.105.222.222,0,0,0-.157.079c-.282-.33-.481-.335-.5-.335a.071.071,0,0,0-.073.073v.581a.071.071,0,0,0,.042.068c.188.078.293.183.314.3a.475.475,0,0,1-.168.366h-.188V24.7a.065.065,0,0,0-.026-.053l-.366-.329a.065.065,0,0,0-.079-.011.068.068,0,0,0-.041.063v1.622H21.4v-.068a.077.077,0,0,0-.026-.058.069.069,0,0,0-.063-.016.807.807,0,0,0-.209.105h-.544V24.247a.071.071,0,0,0-.073-.073.074.074,0,0,0-.074.062v.006a.045.045,0,0,1-.01.021.1.1,0,0,1-.01.021.932.932,0,0,1-.074.141c-.089.136-.177.2-.287.2a.053.053,0,0,1-.021-.005s-.016-.026.015-.1a.847.847,0,0,1,.048-.095.356.356,0,0,0,.036-.062.977.977,0,0,0,.105-.492.458.458,0,0,0-.089-.314.075.075,0,0,0-.073-.015.066.066,0,0,0-.047.057.3.3,0,0,1-.121.188.066.066,0,0,1-.036.016c-.011-.01-.027-.057.115-.308v-.006a.686.686,0,0,0,.005-.528.1.1,0,0,0-.073-.037.084.084,0,0,0-.063.053.607.607,0,0,1-.11.214c.011-.063.026-.157.042-.225a1.928,1.928,0,0,0,.057-.35.713.713,0,0,0-.073-.356.068.068,0,0,0-.073-.036.074.074,0,0,0-.063.052,2.455,2.455,0,0,1-.073.251,1.222,1.222,0,0,1-.026-.277c0-.22-.12-.7-.466-.79-.036-.173-.073-.35-.287-.35s-.251.177-.283.35c-.345.089-.465.57-.465.79a1.283,1.283,0,0,1-.026.277,2.2,2.2,0,0,1-.078-.251.068.068,0,0,0-.058-.052.077.077,0,0,0-.079.036.832.832,0,0,0-.068.356,1.888,1.888,0,0,0,.053.35,1.951,1.951,0,0,1,.041.225.632.632,0,0,1-.1-.214.1.1,0,0,0-.063-.053.092.092,0,0,0-.073.037.681.681,0,0,0,0,.528l0,.006c.137.251.126.3.115.308a.064.064,0,0,1-.036-.016.3.3,0,0,1-.121-.188.067.067,0,0,0-.047-.057.084.084,0,0,0-.078.015.436.436,0,0,0-.084.319.959.959,0,0,0,.1.487c.011.021.027.042.037.062a.406.406,0,0,1,.052.095c.026.078.016.1.016.1a.063.063,0,0,1-.026.005c-.1.006-.2-.062-.283-.2q-.039-.063-.078-.141c0-.006-.005-.011-.01-.021s-.006-.016-.011-.016a.066.066,0,0,0-.068-.068.071.071,0,0,0-.078.068V25.2h-.419v-.152A.065.065,0,0,0,16.522,25a.25.25,0,0,0-.2-.105.286.286,0,0,0-.189.11.059.059,0,0,0-.01.042v.638a.984.984,0,0,0-.356-.24.1.1,0,0,0-.068.01.071.071,0,0,0-.026.063v2.244a.072.072,0,0,0,.016.047l.476.517v2.589c-.105.157-.272.366-.429.392h-.565a.072.072,0,0,0-.073.074v.664h-.413a.074.074,0,0,0-.073.073v.874h-.66a.074.074,0,0,0-.072.073v1.187h-.655a.072.072,0,0,0-.073.073V35.69h-.664a.072.072,0,0,0-.073.074V37.2a.075.075,0,0,0,.073.073H42.515a.079.079,0,0,0,.074-.073V35.764A.076.076,0,0,0,42.515,35.69Z" style="fill:#fff"/><path d="M42.515,35.69h-.664V34.325a.072.072,0,0,0-.073-.073h-.659V33.065a.072.072,0,0,0-.074-.073h-.659v-.874a.071.071,0,0,0-.073-.073h-.408v-.664a.075.075,0,0,0-.073-.074h-.565c-.157-.026-.324-.235-.434-.4V28.326l.476-.517a.057.057,0,0,0,.021-.047V25.518a.078.078,0,0,0-.031-.063.085.085,0,0,0-.063-.01.984.984,0,0,0-.356.24v-.638a.1.1,0,0,0-.01-.042.3.3,0,0,0-.194-.11.235.235,0,0,0-.2.105.051.051,0,0,0-.02.047V25.2h-.418v-.952a.072.072,0,0,0-.074-.073.073.073,0,0,0-.073.062v.006a.057.057,0,0,1-.01.021.19.19,0,0,1-.011.021.85.85,0,0,1-.074.141c-.088.136-.177.2-.287.2a.053.053,0,0,1-.021-.005s-.016-.026.016-.1a.836.836,0,0,1,.047-.095.3.3,0,0,0,.036-.062.977.977,0,0,0,.1-.492.412.412,0,0,0-.089-.314.075.075,0,0,0-.073-.015.061.061,0,0,0-.047.057.294.294,0,0,1-.121.188.066.066,0,0,1-.036.016c-.011-.01-.026-.057.11-.308l.005-.006a.639.639,0,0,0,0-.528.083.083,0,0,0-.068-.037.075.075,0,0,0-.063.053.715.715,0,0,1-.1.214c.006-.063.027-.157.037-.225a1.966,1.966,0,0,0,.052-.35.735.735,0,0,0-.068-.356.065.065,0,0,0-.073-.036.074.074,0,0,0-.063.052,1.426,1.426,0,0,1-.073.251,1.294,1.294,0,0,1-.025-.277c0-.22-.121-.7-.466-.79-.037-.173-.074-.35-.288-.35s-.246.177-.283.35c-.35.089-.465.57-.465.79a1.6,1.6,0,0,1-.026.277,2.409,2.409,0,0,1-.079-.251.066.066,0,0,0-.057-.052.078.078,0,0,0-.079.036.832.832,0,0,0-.068.356,1.976,1.976,0,0,0,.053.35,2.2,2.2,0,0,1,.042.225.715.715,0,0,1-.105-.214.074.074,0,0,0-.136-.016.685.685,0,0,0,0,.528l0,.006c.141.251.121.3.115.308a.078.078,0,0,1-.042-.016A.293.293,0,0,1,35,23.593a.072.072,0,0,0-.052-.057.064.064,0,0,0-.068.015.418.418,0,0,0-.089.319.911.911,0,0,0,.1.487c.015.021.02.042.036.062a.744.744,0,0,1,.052.095c.027.078.016.1.016.1a.063.063,0,0,1-.026.005c-.105.006-.2-.062-.282-.2a.6.6,0,0,1-.079-.141c0-.006-.005-.011-.01-.021a.044.044,0,0,0-.006-.016.071.071,0,0,0-.078-.068.066.066,0,0,0-.068.068v1.705H33.9a.8.8,0,0,0-.214-.105.06.06,0,0,0-.058.016.065.065,0,0,0-.031.058v.068h-2.8V24.367a.066.066,0,0,0-.047-.063.057.057,0,0,0-.073.011l-.371.329a.065.065,0,0,0-.026.053v.277h-.183a.475.475,0,0,1-.168-.366c.016-.115.121-.22.309-.3a.071.071,0,0,0,.042-.068v-.581a.068.068,0,0,0-.068-.073c-.027,0-.225,0-.508.335a.208.208,0,0,0-.157-.079.2.2,0,0,0-.167.105.064.064,0,0,0-.01.042v.622h-.079v-.722l.069-.063c.015-.015.031-.026.041-.036a.748.748,0,0,1,.063-.063.514.514,0,0,0,.183-.272,1.212,1.212,0,0,0-.042-.575.073.073,0,0,0-.063-.047.07.07,0,0,0-.068.042c-.015.026-.026.052-.042.078a.965.965,0,0,1-.1.194.145.145,0,0,1-.089.068v-.2a.447.447,0,0,1,.141-.278l.016-.021a1.866,1.866,0,0,0,.23-.339.868.868,0,0,0-.068-.738.062.062,0,0,0-.073-.031.071.071,0,0,0-.058.062,1.263,1.263,0,0,1-.11.393c-.031.057-.042.073-.068.078a.528.528,0,0,1-.089,0v-.366a1.133,1.133,0,0,0,.225-.507.9.9,0,0,0-.136-.5.065.065,0,0,0-.068-.021.1.1,0,0,0-.052.052c-.021.073-.037.141-.052.2a.727.727,0,0,1-.083.246H28.88v-.3a1.061,1.061,0,0,0,.236-.507.405.405,0,0,0-.089-.3.075.075,0,0,0-.068-.021.1.1,0,0,0-.053.052,1.023,1.023,0,0,1-.13.3h-.142v-.146a.628.628,0,0,0,.246-.4.284.284,0,0,0-.115-.225.073.073,0,0,0-.1,0l-.146.147h-.037l.125-.518a.072.072,0,0,0-.015-.063.084.084,0,0,0-.058-.026h-.089l.063-.3a.063.063,0,0,0-.016-.058.082.082,0,0,0-.057-.026h-.094l.031-.2a.049.049,0,0,0-.016-.052.065.065,0,0,0-.057-.026h-.22l.042-.241a.06.06,0,0,0-.016-.058.065.065,0,0,0-.052-.026H27.84a.53.53,0,0,0-.058-.355.344.344,0,0,0-.262-.152.06.06,0,0,0-.026,0s-.01,0-.02,0a.362.362,0,0,0-.262.152.561.561,0,0,0-.058.355h-.209a.084.084,0,0,0-.057.026.06.06,0,0,0-.016.058l.047.241h-.225a.052.052,0,0,0-.052.026.065.065,0,0,0-.021.052l.036.2h-.1a.062.062,0,0,0-.052.026.063.063,0,0,0-.016.058l.058.3h-.089a.084.084,0,0,0-.058.026.069.069,0,0,0-.016.063l.126.518h-.037l-.146-.147a.073.073,0,0,0-.1,0,.276.276,0,0,0-.11.225.628.628,0,0,0,.24.4v.146h-.136a1.016,1.016,0,0,1-.136-.3.072.072,0,0,0-.052-.052.079.079,0,0,0-.068.021.415.415,0,0,0-.084.3,1.059,1.059,0,0,0,.231.507v.3h-.105c-.031-.016-.063-.136-.089-.246a1.2,1.2,0,0,0-.052-.2.075.075,0,0,0-.053-.052.064.064,0,0,0-.067.021.9.9,0,0,0-.137.5,1.144,1.144,0,0,0,.225.507v.366a.456.456,0,0,1-.083,0c-.027,0-.037-.021-.074-.084a1.193,1.193,0,0,1-.1-.387.079.079,0,0,0-.058-.062.066.066,0,0,0-.078.031.849.849,0,0,0-.063.738,1.817,1.817,0,0,0,.225.339l.016.021a.419.419,0,0,1,.141.278v.2a.173.173,0,0,1-.089-.068,1.406,1.406,0,0,1-.105-.194.543.543,0,0,0-.036-.078.075.075,0,0,0-.068-.042.073.073,0,0,0-.063.047,1.141,1.141,0,0,0-.042.575.515.515,0,0,0,.184.272l.062.063a.212.212,0,0,0,.037.036c.015.016.058.048.073.063v.722h-.079v-.622a.07.07,0,0,0-.015-.042.188.188,0,0,0-.168-.105.222.222,0,0,0-.157.079c-.282-.33-.481-.335-.5-.335a.071.071,0,0,0-.073.073v.581a.071.071,0,0,0,.042.068c.188.078.293.183.314.3a.475.475,0,0,1-.168.366h-.188V24.7a.065.065,0,0,0-.026-.053l-.366-.329a.065.065,0,0,0-.079-.011.068.068,0,0,0-.041.063v1.622H21.4v-.068a.077.077,0,0,0-.026-.058.069.069,0,0,0-.063-.016.807.807,0,0,0-.209.105h-.544V24.247a.071.071,0,0,0-.073-.073.074.074,0,0,0-.074.062v.006a.045.045,0,0,1-.01.021.1.1,0,0,1-.01.021.932.932,0,0,1-.074.141c-.089.136-.177.2-.287.2a.053.053,0,0,1-.021-.005s-.016-.026.015-.1a.847.847,0,0,1,.048-.095.356.356,0,0,0,.036-.062.977.977,0,0,0,.105-.492.458.458,0,0,0-.089-.314.075.075,0,0,0-.073-.015.066.066,0,0,0-.047.057.3.3,0,0,1-.121.188.066.066,0,0,1-.036.016c-.011-.01-.027-.057.115-.308v-.006a.686.686,0,0,0,.005-.528.1.1,0,0,0-.073-.037.084.084,0,0,0-.063.053.607.607,0,0,1-.11.214c.011-.063.026-.157.042-.225a1.928,1.928,0,0,0,.057-.35.713.713,0,0,0-.073-.356.068.068,0,0,0-.073-.036.074.074,0,0,0-.063.052,2.455,2.455,0,0,1-.073.251,1.222,1.222,0,0,1-.026-.277c0-.22-.12-.7-.466-.79-.036-.173-.073-.35-.287-.35s-.251.177-.283.35c-.345.089-.465.57-.465.79a1.283,1.283,0,0,1-.026.277,2.2,2.2,0,0,1-.078-.251.068.068,0,0,0-.058-.052.077.077,0,0,0-.079.036.832.832,0,0,0-.068.356,1.888,1.888,0,0,0,.053.35,1.951,1.951,0,0,1,.041.225.632.632,0,0,1-.1-.214.1.1,0,0,0-.063-.053.092.092,0,0,0-.073.037.681.681,0,0,0,0,.528l0,.006c.137.251.126.3.115.308a.064.064,0,0,1-.036-.016.3.3,0,0,1-.121-.188.067.067,0,0,0-.047-.057.084.084,0,0,0-.078.015.436.436,0,0,0-.084.319.959.959,0,0,0,.1.487c.011.021.027.042.037.062a.406.406,0,0,1,.052.095c.026.078.016.1.016.1a.063.063,0,0,1-.026.005c-.1.006-.2-.062-.283-.2q-.039-.063-.078-.141c0-.006-.005-.011-.01-.021s-.006-.016-.011-.016a.066.066,0,0,0-.068-.068.071.071,0,0,0-.078.068V25.2h-.419v-.152A.065.065,0,0,0,16.522,25a.25.25,0,0,0-.2-.105.286.286,0,0,0-.189.11.059.059,0,0,0-.01.042v.638a.984.984,0,0,0-.356-.24.1.1,0,0,0-.068.01.071.071,0,0,0-.026.063v2.244a.072.072,0,0,0,.016.047l.476.517v2.589c-.105.157-.272.366-.429.392h-.565a.072.072,0,0,0-.073.074v.664h-.413a.074.074,0,0,0-.073.073v.874h-.66a.074.074,0,0,0-.072.073v1.187h-.655a.072.072,0,0,0-.073.073V35.69h-.664a.072.072,0,0,0-.073.074V37.2a.075.075,0,0,0,.073.073H42.515a.079.079,0,0,0,.074-.073V35.764A.076.076,0,0,0,42.515,35.69ZM41.7,34.4V35.69H37.217V34.4Zm-15.24-6.6v-.617a.9.9,0,0,1,.261.246.074.074,0,0,0,.079.026.066.066,0,0,0,.052-.052,1.632,1.632,0,0,1,.628-1.109,1.642,1.642,0,0,1,.627,1.109.069.069,0,0,0,.053.052.062.062,0,0,0,.073-.026.891.891,0,0,1,.267-.246V27.8Zm1.94.141-.125.178a.058.058,0,0,0-.016.042v2.573h-.2V27.939Zm-.486,0v2.793h-.894V27.939ZM17.746,27.8v-.591a1.011,1.011,0,0,1,.465.387.079.079,0,0,0,.078.037.072.072,0,0,0,.058-.063,1.391,1.391,0,0,1,.408-.837,1.374,1.374,0,0,1,.408.837.078.078,0,0,0,.062.063.076.076,0,0,0,.074-.037,1.031,1.031,0,0,1,.465-.387V27.8Zm1.448.141v2.793h-.873V27.939Zm-1.83,2.94a.56.56,0,0,1-.356.428h-.717a.891.891,0,0,0,.22-.428Zm-.492-.147V28.944h.288v1.788Zm.643.147h.325a1.03,1.03,0,0,1-.3.428H17.29A.888.888,0,0,0,17.515,30.879Zm.089-3.008a.039.039,0,0,0,.005.026V27.9c0,.005.006.005.006.01l.251.34v2.479h-.34v-2.7a.069.069,0,0,0-.021-.052l-.3-.3H17.6v.193ZM18,30.879h.178v.428h-.428A1.266,1.266,0,0,0,18,30.879Zm.016-.147v-2.5a.177.177,0,0,0-.01-.042l-.183-.246h.355v2.793Zm.565-7.766a.883.883,0,0,1,.178-.257.753.753,0,0,1,.178.257.078.078,0,0,0,.052.047A.076.076,0,0,0,19.053,23a.65.65,0,0,1,.094-.058v.147l-.1.131a.579.579,0,0,0-.266-.173s0,0-.006,0h-.03l-.006,0a.546.546,0,0,0-.262.173l-.109-.131v-.147a.716.716,0,0,1,.094.058.074.074,0,0,0,.068.016A.062.062,0,0,0,18.577,22.966Zm-.194-.414v-.094a.313.313,0,0,1,.068.037.066.066,0,0,0,.068.021.085.085,0,0,0,.053-.042.636.636,0,0,1,.183-.277.559.559,0,0,1,.183.277.081.081,0,0,0,.057.042.072.072,0,0,0,.068-.021.529.529,0,0,1,.063-.037v.094l-.172.162a1,1,0,0,0-.152-.162,0,0,0,0,0,0,0,.02.02,0,0,0-.016,0c0-.005,0-.005-.011-.005h-.026a.019.019,0,0,0-.015.005c-.006,0-.006,0-.011,0s0,0-.01,0a1.252,1.252,0,0,0-.152.162Zm.027,1a.806.806,0,0,1,.345-.366.791.791,0,0,1,.345.366.09.09,0,0,0,.063.042.084.084,0,0,0,.068-.031.311.311,0,0,1,.13-.121v.246l-.188.189a.707.707,0,0,0-.387-.335v0H18.77s-.01-.006-.015-.006-.011.006-.015.006h-.011s-.006,0-.006,0a.7.7,0,0,0-.381.335l-.189-.189v-.246a.313.313,0,0,1,.131.121.075.075,0,0,0,.063.031A.082.082,0,0,0,18.41,23.551Zm-.058.659,0-.01c.017-.042.037-.089.058-.136a.634.634,0,0,1,.34-.382.662.662,0,0,1,.345.382c.021.047.037.094.052.136l.006.01a.072.072,0,0,0,.062.047.062.062,0,0,0,.068-.036.421.421,0,0,1,.257-.178v.34l-.278.314a1.349,1.349,0,0,0-.475-.617c0-.006-.006-.006-.011-.006s0-.005-.011-.005h-.026s-.01.005-.015.005-.006,0-.011.006a1.344,1.344,0,0,0-.476.617l-.272-.314v-.345a.421.421,0,0,1,.251.183.07.07,0,0,0,.074.036A.073.073,0,0,0,18.352,24.21Zm.4.016a2.178,2.178,0,0,1,.57,1.072.085.085,0,0,0,.068.058.068.068,0,0,0,.068-.042.689.689,0,0,1,.361-.361v.6l-.23.346a1.011,1.011,0,0,0-.189.183,1.365,1.365,0,0,0-.606-.947l0,0h-.011s0,0-.011,0h-.026a.019.019,0,0,0-.015,0h-.011s0,0,0,0a1.366,1.366,0,0,0-.607.947.757.757,0,0,0-.188-.183l-.224-.346v-.6a.71.71,0,0,1,.355.361.072.072,0,0,0,.136-.016A2.263,2.263,0,0,1,18.755,24.226Zm-.691,2.1a.079.079,0,0,0,.074.053.082.082,0,0,0,.068-.058,1.444,1.444,0,0,1,.549-1.036,1.41,1.41,0,0,1,.549,1.036.081.081,0,0,0,.068.058.078.078,0,0,0,.073-.053.749.749,0,0,1,.377-.392v.518l-.372.439a1.54,1.54,0,0,0-.664-.758H18.77a.017.017,0,0,0-.015-.006.016.016,0,0,0-.015.006h-.011a1.087,1.087,0,0,0-.4.319,2.748,2.748,0,0,0-.271.439l-.366-.439v-.518A.7.7,0,0,1,18.064,26.323Zm1.376.905a1.4,1.4,0,0,0-.167.152,1.273,1.273,0,0,0-.481-.8h-.011c0-.006,0-.006-.011-.006a.018.018,0,0,0-.015-.005.019.019,0,0,0-.011.005.017.017,0,0,0-.015.006h-.011a1.318,1.318,0,0,0-.481.8,1.48,1.48,0,0,0-.167-.152c.073-.178.329-.784.685-.952A1.908,1.908,0,0,1,19.44,27.228Zm-.105.711H19.7l-.183.246a.093.093,0,0,0-.016.042v2.5h-.162Zm.309.314.251-.34s0,0,0-.01.005-.006.005-.006.006-.015.006-.026v-.193h.4l-.3.3a.069.069,0,0,0-.021.052v2.7h-.345ZM20,30.879a.869.869,0,0,0,.219.428h-.267a1.028,1.028,0,0,1-.3-.428Zm.152,0H21a.977.977,0,0,0,.225.428H20.5A.559.559,0,0,1,20.152,30.879Zm.2-.147V28.944h.283v1.788ZM26.323,27.9s0,.006,0,.006,0,.005,0,.01l.2.272v2.547h-.638V27.605c0-.006,0-.011,0-.021v-.006c-.006,0-.006,0-.006,0l-.015-.015v-.006l-.2-.2h.653v.517C26.317,27.882,26.323,27.887,26.323,27.9Zm.021-1.15v.2a3.567,3.567,0,0,0-.487-.2Zm-.937-.147v-.857a1.782,1.782,0,0,1,.748.763V26.6Zm1.815-6.234a.894.894,0,0,0,.058-.11.808.808,0,0,1,.2-.3.885.885,0,0,1,.2.3.885.885,0,0,0,.057.11.058.058,0,0,0,.053.037.075.075,0,0,0,.062-.021.758.758,0,0,1,.225-.12v.219l-.319.251a1.339,1.339,0,0,0-.214-.308.072.072,0,0,0-.068-.021.059.059,0,0,0-.062.021,1.2,1.2,0,0,0-.221.308l-.319-.251v-.219a.764.764,0,0,1,.226.12.074.074,0,0,0,.062.021A.062.062,0,0,0,27.222,20.366Zm-.1-.366v-.256a.436.436,0,0,1,.083.057.08.08,0,0,0,.105,0,.709.709,0,0,0,.11-.136.185.185,0,0,1,.068-.083.259.259,0,0,1,.073.083.632.632,0,0,0,.105.136.079.079,0,0,0,.1,0,.326.326,0,0,1,.084-.057V20l-.105.052a.614.614,0,0,0-.219-.245V19.8H27.52a.015.015,0,0,1-.01,0,.022.022,0,0,1-.011,0h-.031s0,0-.01,0-.006,0-.011,0h0v.006a.665.665,0,0,0-.22.245Zm.078,1.156a1.6,1.6,0,0,1,.288-.591,1.524,1.524,0,0,1,.287.591.075.075,0,0,0,.063.052.074.074,0,0,0,.073-.036.493.493,0,0,1,.257-.194v.429l-.236.225a1.294,1.294,0,0,0-.392-.424.067.067,0,0,0-.052-.01.065.065,0,0,0-.053.01,1.3,1.3,0,0,0-.392.424l-.235-.225v-.429a.515.515,0,0,1,.256.194.075.075,0,0,0,.073.036A.079.079,0,0,0,27.2,21.156Zm.288.193a1.978,1.978,0,0,1,.565.827.079.079,0,0,0,.062.047.078.078,0,0,0,.068-.042.732.732,0,0,1,.267-.235V22.4h-.774c-.041-.037-.078-.074-.125-.11a.073.073,0,0,0-.063-.016.07.07,0,0,0-.062.016,1.183,1.183,0,0,0-.127.11h-.768v-.455a.745.745,0,0,1,.261.235.069.069,0,0,0,.063.042.076.076,0,0,0,.068-.047A1.969,1.969,0,0,1,27.484,21.349Zm.654,1.2a1.589,1.589,0,0,0-.147.22,1.92,1.92,0,0,0-.173-.22Zm-.984,0a1.7,1.7,0,0,0-.178.22,1.493,1.493,0,0,0-.146-.22Zm.33-.12a2.023,2.023,0,0,1,.544.69c.031.052.062.11.1.173a.073.073,0,0,0,.063.036.059.059,0,0,0,.057-.031.822.822,0,0,1,.325-.256v.47h-.806a.651.651,0,0,0-.24-.167.139.139,0,0,0-.042,0,.083.083,0,0,0-.037,0,.63.63,0,0,0-.246.167h-.8v-.47a.729.729,0,0,1,.319.256.082.082,0,0,0,.063.031.07.07,0,0,0,.062-.036c.037-.063.068-.121.1-.173A2.011,2.011,0,0,1,27.484,22.427Zm.91,1.229a.843.843,0,0,0-.23.408,2.838,2.838,0,0,0-.272-.408Zm-1.318,0a2.681,2.681,0,0,0-.272.408.82.82,0,0,0-.23-.408Zm.408-.173a2.46,2.46,0,0,1,.784,1.167.074.074,0,0,0,.058.057.064.064,0,0,0,.073-.031.778.778,0,0,1,.4-.345V24.9h-.848a.972.972,0,0,0-.428-.408.06.06,0,0,0-.042,0,.061.061,0,0,0-.042,0,1.011,1.011,0,0,0-.434.408h-.842v-.564a.754.754,0,0,1,.4.345.08.08,0,0,0,.079.031.066.066,0,0,0,.057-.057A2.434,2.434,0,0,1,27.484,23.483ZM28.7,25.042a1.961,1.961,0,0,0-.256,1.03.909.909,0,0,0-.063.079,4.113,4.113,0,0,0-.34-1.109Zm-1.768,0a4.187,4.187,0,0,0-.34,1.109.749.749,0,0,0-.062-.079,1.961,1.961,0,0,0-.256-1.03Zm-.371,1.349a.07.07,0,0,0,.079.053.079.079,0,0,0,.062-.068c.073-.6.34-1.549.785-1.747.444.2.711,1.15.784,1.747a.081.081,0,0,0,.063.068.069.069,0,0,0,.078-.053.9.9,0,0,1,.257-.335V26.6h-.685a1.219,1.219,0,0,0-.445-.449.062.062,0,0,0-.052-.006.05.05,0,0,0-.047.006,1.2,1.2,0,0,0-.45.449H26.3v-.544c.031.027.063.058.1.095A.723.723,0,0,1,26.558,26.391Zm2.578.356a2.937,2.937,0,0,0-.512.22v-.22h.512Zm-.324-.147v-.057a.045.045,0,0,0,.022-.021,1.783,1.783,0,0,1,.752-.779V26.6Zm-.329.147v.277a.9.9,0,0,0-.262.2,2.271,2.271,0,0,0-.162-.476Zm-1.575,0a2.393,2.393,0,0,0-.162.476,1.026,1.026,0,0,0-.256-.2v-.277Zm-1.16.931V28.8h-.262a.071.071,0,0,0-.073.068v1.862h-.644V27.96c0-.026,0-.047-.026-.057l-.267-.225Zm0,1.271v1.783h-.189V28.949Zm-1.141-.973.021.016v.434H21.134v-.45Zm.021.6V28.8h-.272a.074.074,0,0,0-.072.073v1.862h-.336V28.87a.075.075,0,0,0-.073-.073H23.53a.075.075,0,0,0-.073.073v1.862h-.335V28.87a.07.07,0,0,0-.068-.073h-.345a.076.076,0,0,0-.074.073v1.862H22.3V28.87a.075.075,0,0,0-.073-.073h-.346a.079.079,0,0,0-.073.073v1.862H21.48V28.87a.079.079,0,0,0-.073-.073h-.273v-.225Zm0,.372v1.788h-.2V28.944Zm-.826,0v1.788h-.2V28.944Zm-.821,0v1.788h-.2V28.944Zm-.821,0v1.788h-.2V28.944Zm-.827,0v1.788h-.2V28.944Zm-.183,1.935h3.468a.527.527,0,0,1-.372.428H21.527C21.286,31.271,21.187,31.015,21.15,30.879Zm3.614,0h.968a.676.676,0,0,1-.4.428h-.785A.758.758,0,0,0,24.764,30.879Zm1.119,0h.628a.685.685,0,0,1-.34.428h-.56A.764.764,0,0,0,25.883,30.879Zm.78,0h.214v.428h-.455A.839.839,0,0,0,26.663,30.879Zm.01-.147V28.159a.1.1,0,0,0-.01-.042l-.131-.178h.345v2.793Zm1.8-2.547.2-.272a.085.085,0,0,0,0-.078c0-.011-.016-.016-.021-.021v-.46h.685l-.209.2v.006c-.005,0-.01.01-.01.015s-.006,0-.006,0v.006c0,.01,0,.015,0,.021v3.127h-.637Zm5.125.612a.076.076,0,0,0-.074.073v1.862h-.334V28.87a.076.076,0,0,0-.074-.073h-.345a.079.079,0,0,0-.073.073v1.862h-.33V28.87a.075.075,0,0,0-.073-.073h-.345a.075.075,0,0,0-.073.073v1.862h-.335V28.87a.074.074,0,0,0-.068-.073h-.345a.081.081,0,0,0-.079.073v1.862h-.329V28.87a.075.075,0,0,0-.073-.073h-.272v-.225h3.493V28.8Zm.271.147v1.788h-.2V28.944Zm-.821,0v1.788h-.2V28.944Zm-.826,0v1.788h-.2V28.944Zm-.821,0v1.788h-.2V28.944Zm-.826,0v1.788h-.2V28.944Zm-.2-.518v-.434l.021-.016h3.472v.45ZM30.25,27.9a.068.068,0,0,0-.026.057v2.772h-.643V28.87a.071.071,0,0,0-.073-.068h-.256V27.678h1.27Zm-.81,1.046v1.783h-.188V28.949Zm-.324,1.93a.747.747,0,0,0,.266.428h-.554a.678.678,0,0,1-.345-.428Zm.151,0h.968a.774.774,0,0,0,.214.428h-.784A.648.648,0,0,1,29.267,30.879Zm1.114,0h3.463c-.037.136-.136.392-.372.428H30.747A.521.521,0,0,1,30.381,30.879Zm3.614,0h.853a.57.57,0,0,1-.356.428h-.716A.9.9,0,0,0,33.995,30.879Zm.361-.147V28.944h.288v1.788Zm.643.147h.346a1.067,1.067,0,0,1-.3.428h-.267A.935.935,0,0,0,35,30.879Zm.011-.147v-2.7a.066.066,0,0,0-.021-.052l-.3-.3h.392v.193a.2.2,0,0,0,.005.026l.006.006c0,.005,0,.005,0,.01l.256.34v2.479Zm1.051-7.766a.8.8,0,0,1,.178-.257.821.821,0,0,1,.183.257.062.062,0,0,0,.048.047A.077.077,0,0,0,36.537,23c.01-.011.052-.031.094-.058v.147l-.109.131a.524.524,0,0,0-.262-.173s0,0,0,0h-.032l0,0a.546.546,0,0,0-.262.173l-.109-.131v-.147a.716.716,0,0,1,.094.058.083.083,0,0,0,.068.016A.062.062,0,0,0,36.061,22.966Zm-.193-.414v-.094a.373.373,0,0,1,.068.037.065.065,0,0,0,.068.021.086.086,0,0,0,.052-.042.636.636,0,0,1,.183-.277.608.608,0,0,1,.188.277.072.072,0,0,0,.053.042.07.07,0,0,0,.067-.021.373.373,0,0,1,.068-.037v.094l-.177.162a1.557,1.557,0,0,0-.147-.162.015.015,0,0,0-.01,0,.017.017,0,0,0-.011,0,.018.018,0,0,0-.015-.005h-.027a.018.018,0,0,0-.015.005c-.005,0-.011,0-.011,0s0,0-.01,0a1.335,1.335,0,0,0-.152.162Zm.026,1a.838.838,0,0,1,.345-.366.781.781,0,0,1,.345.366.1.1,0,0,0,.063.042.084.084,0,0,0,.068-.031.282.282,0,0,1,.131-.121v.246l-.194.189a.679.679,0,0,0-.382-.335v0h-.015c-.006,0-.011-.006-.016-.006s-.011.006-.016.006h-.01l-.005,0a.7.7,0,0,0-.382.335l-.189-.189v-.246a.307.307,0,0,1,.131.121.084.084,0,0,0,.068.031A.094.094,0,0,0,35.894,23.551Zm-.058.659.006-.01c.015-.042.036-.089.052-.136a.662.662,0,0,1,.345-.382.662.662,0,0,1,.345.382c.021.047.037.094.052.136l.006.01a.073.073,0,0,0,.062.047.058.058,0,0,0,.068-.036.411.411,0,0,1,.257-.178v.34l-.278.314a1.342,1.342,0,0,0-.475-.617.006.006,0,0,0-.006-.006c-.005,0-.01-.005-.015-.005h-.027c-.005,0-.01.005-.015.005s-.005,0-.011.006a1.357,1.357,0,0,0-.476.617l-.277-.314v-.345a.414.414,0,0,1,.256.183.066.066,0,0,0,.068.036A.062.062,0,0,0,35.836,24.21Zm.4.016a2.178,2.178,0,0,1,.57,1.072.072.072,0,0,0,.063.058.075.075,0,0,0,.073-.042.692.692,0,0,1,.361-.361v.6l-.23.346a.835.835,0,0,0-.183.183,1.392,1.392,0,0,0-.612-.947v0H36.27a.018.018,0,0,0-.015,0h-.027a.018.018,0,0,0-.015,0H36.2a0,0,0,0,1,0,0,1.369,1.369,0,0,0-.607.947A.853.853,0,0,0,35.4,25.9l-.23-.346v-.6a.7.7,0,0,1,.361.361.075.075,0,0,0,.073.042.086.086,0,0,0,.068-.058A2.167,2.167,0,0,1,36.239,24.226Zm-.69,2.1a.077.077,0,0,0,.073.053.075.075,0,0,0,.068-.058,1.41,1.41,0,0,1,.549-1.036,1.41,1.41,0,0,1,.549,1.036.081.081,0,0,0,.068.058.069.069,0,0,0,.073-.053.735.735,0,0,1,.377-.392v.518l-.371.439a1.576,1.576,0,0,0-.665-.758h-.015a.019.019,0,0,0-.016-.006.018.018,0,0,0-.016.006h-.01a1.023,1.023,0,0,0-.392.319,2.54,2.54,0,0,0-.278.439l-.371-.439v-.518A.683.683,0,0,1,35.549,26.323Zm1.375.905a1.109,1.109,0,0,0-.162.152,1.3,1.3,0,0,0-.486-.8H36.27a.017.017,0,0,0-.015-.006.022.022,0,0,0-.016-.005s0,0-.011.005a.017.017,0,0,0-.015.006H36.2a1.323,1.323,0,0,0-.481.8,1.146,1.146,0,0,0-.167-.152c.073-.178.329-.784.685-.952A1.908,1.908,0,0,1,36.924,27.228Zm-1.229.366a.079.079,0,0,0,.078.037.078.078,0,0,0,.063-.063,1.368,1.368,0,0,1,.4-.837,1.374,1.374,0,0,1,.408.837.079.079,0,0,0,.063.063.071.071,0,0,0,.073-.037,1.068,1.068,0,0,1,.465-.387V27.8H35.23v-.591A1.011,1.011,0,0,1,35.7,27.594Zm2.788,3.285a.908.908,0,0,0,.225.428h-.722a.563.563,0,0,1-.351-.428Zm-.644-.147V28.944h.283v1.788Zm-.136.575h-.245a1.027,1.027,0,0,1-.3-.428h.325A.878.878,0,0,0,37.7,31.307Zm-.23-3.279v2.7h-.345V28.253l.251-.34.011-.01V27.9a.2.2,0,0,0,.005-.026v-.193h.4l-.3.3A.066.066,0,0,0,37.473,28.028ZM37,28.185a.089.089,0,0,0-.015.042v2.5h-.163V27.939h.356Zm-.178,2.694H37a1.358,1.358,0,0,0,.245.428h-.429Zm4.153,2.259v1.114H37.217V33.138Zm-.732-.947v.8H37.217v-.8Zm-.481-.737v.591H37.217v-.591Zm-.8-.157a.567.567,0,0,1-.33-.418h.011A1.653,1.653,0,0,0,38.964,31.3Zm-.1-3.64a.076.076,0,0,0,.016-.021v0a.033.033,0,0,0,.005-.021V25.936a.814.814,0,0,1,.3-.308v2.107l-.475.508a.087.087,0,0,0-.021.052v2.437h-.068V27.9ZM38.6,25.073a.121.121,0,0,1,.068-.031.093.093,0,0,1,.063.031v1.6a.66.66,0,0,0-.131.062Zm.131,1.758v.7h-.665A1.356,1.356,0,0,1,38.734,26.831Zm-.7-1.491h.418v.214h-.418Zm0,.361h.418v1.124a1.417,1.417,0,0,0-.418.455ZM38,27.678h.633l-.136.141a.059.059,0,0,0-.021.052v2.861h-.2V28.87A.075.075,0,0,0,38.2,28.8h-.43a.075.075,0,0,0-.073.073v1.862h-.079V28.06Zm-3.405-3.133a.458.458,0,0,0,.382.225.181.181,0,0,0,.141-.068.258.258,0,0,0,0-.235.643.643,0,0,0-.062-.126.473.473,0,0,1-.032-.052.833.833,0,0,1-.089-.424.225.225,0,0,1,.006-.063.32.32,0,0,0,.162.131.144.144,0,0,0,.157-.037c.115-.109-.006-.329-.089-.475V23.41a.362.362,0,0,1-.037-.178.262.262,0,0,0,.147.126.111.111,0,0,0,.109-.032c.058-.057.038-.167-.01-.4a2.14,2.14,0,0,1-.047-.319v-.037a.374.374,0,0,0,.068.121.09.09,0,0,0,.11.02c.12-.047.13-.371.13-.47,0-.2.116-.617.387-.654a.071.071,0,0,0,.063-.058l.011-.041c.036-.194.052-.241.141-.241s.105.047.146.241l.006.041a.071.071,0,0,0,.062.058c.272.037.393.45.393.654,0,.1.01.423.125.47a.09.09,0,0,0,.11-.02.491.491,0,0,0,.073-.121v.037a2.224,2.224,0,0,1-.052.319c-.047.23-.068.34-.011.4a.119.119,0,0,0,.115.032.3.3,0,0,0,.147-.126.362.362,0,0,1-.037.178l-.005.011c-.078.146-.2.366-.089.475a.152.152,0,0,0,.162.037.4.4,0,0,0,.162-.125v.062a.818.818,0,0,1-.083.419.473.473,0,0,1-.032.052.449.449,0,0,0-.062.126.231.231,0,0,0,0,.235.174.174,0,0,0,.141.068.465.465,0,0,0,.382-.225v2.986h-.5V27.1a.065.065,0,0,0-.032-.057.062.062,0,0,0-.068-.011,2.346,2.346,0,0,0-.24.115A1.045,1.045,0,0,1,37,27.029l.434-.507a.073.073,0,0,0,.015-.047v-.654a.075.075,0,0,0-.031-.063.092.092,0,0,0-.062-.01.022.022,0,0,1-.011,0l.094-.141a.1.1,0,0,0,.01-.037v-.721a.065.065,0,0,0-.026-.053.057.057,0,0,0-.057-.015.745.745,0,0,0-.466.313c-.026-.078-.052-.162-.089-.251l.34-.387a.055.055,0,0,0,.021-.047v-.46a.075.075,0,0,0-.021-.052.077.077,0,0,0-.057-.021.621.621,0,0,0-.366.162c0-.011-.006-.016-.011-.026l.246-.246a.072.072,0,0,0,.027-.052v-.377a.063.063,0,0,0-.027-.052.079.079,0,0,0-.058-.021.54.54,0,0,0-.245.125c-.016-.021-.027-.041-.048-.068l.147-.167a.091.091,0,0,0,.016-.052v-.288a.069.069,0,0,0-.1-.063,1.258,1.258,0,0,0-.146.079l.209-.2a.061.061,0,0,0,.021-.052v-.236a.077.077,0,0,0-.026-.057.081.081,0,0,0-.068-.011.784.784,0,0,0-.136.058.739.739,0,0,0-.241-.293h-.005a.017.017,0,0,0-.011-.005c-.005,0-.01,0-.015,0h-.027c-.005,0-.01,0-.015,0s-.011,0-.011.005h0a.67.67,0,0,0-.241.293c-.062-.031-.12-.052-.135-.058a.08.08,0,0,0-.068.011.066.066,0,0,0-.032.057v.236a.065.065,0,0,0,.026.052l.209.2c-.052-.032-.109-.058-.146-.079a.076.076,0,0,0-.073,0,.081.081,0,0,0-.037.063v.288a.085.085,0,0,0,.016.052l.146.167a.538.538,0,0,1-.047.068.539.539,0,0,0-.24-.125.072.072,0,0,0-.058.021.062.062,0,0,0-.026.052v.377a.066.066,0,0,0,.021.052l.246.246c-.005.01-.005.015-.011.026a.621.621,0,0,0-.366-.162.073.073,0,0,0-.052.021.059.059,0,0,0-.021.052v.46a.069.069,0,0,0,.016.047l.345.387a2.258,2.258,0,0,0-.089.251.773.773,0,0,0-.466-.313.071.071,0,0,0-.083.068v.721a.052.052,0,0,0,.01.037l.089.141-.005,0a.1.1,0,0,0-.068.01.087.087,0,0,0-.026.063v.654a.073.073,0,0,0,.015.047l.435.507a1.239,1.239,0,0,1-.053.115,1.721,1.721,0,0,0-.246-.115.067.067,0,0,0-.068.011.08.08,0,0,0-.031.057v.434h-.492Zm-.1,3.133.376.382v2.672h-.078V28.87a.074.074,0,0,0-.068-.073h-.429a.079.079,0,0,0-.078.073v1.862h-.2V28.87h0V27.9h0v-.032a.061.061,0,0,0-.021-.052l-.136-.141Zm-.539-1.58h.5V27.28a1.527,1.527,0,0,0-.5-.507Zm-.2.225h0v-.261h0v-.037c.021.011.037.021.058.031V26.7c-.021-.006-.042-.016-.058-.021Zm0,.774v-.005h0v-.261a1.35,1.35,0,0,1,.664.7h-.664Zm-2.95-.962h2.8v.115h-2.8Zm0,.261h2.8v.33h-2.8Zm0,.476h2.8v.147h-2.8Zm0,.293h2.8v.366h-2.8Zm-.047.513h2.9l.151.151H30.564Zm-.392-.324a.069.069,0,0,0,.068-.068V24.728l.225-.2v3H29.357l.187-.177Zm-.22-2.234h.142V26.6h-.142Zm-.4-1a1.108,1.108,0,0,1,.4-.366V24.2a.561.561,0,0,0-.355.392.619.619,0,0,0,.209.491V26.6h-.256Zm.544,2.631v.46H28.65v-.084a4.045,4.045,0,0,1,1.02-.376Zm-.837-1.988a.071.071,0,0,0,.068-.073v-.669c.016-.021.026-.026.036-.026a.122.122,0,0,1,.068.041c0,.006,0,.011-.01.016a.058.058,0,0,0-.016.042v1.5a1.712,1.712,0,0,0-.774.69V25.91a.073.073,0,0,0-.036-.063.1.1,0,0,0-.074,0c-.005.006-.052.037-.109.084.015-.3.094-.758.324-.9,0,0,0,0,0-.01s0,0,0-.005.011-.011.011-.016a0,0,0,0,0,.005,0,.05.05,0,0,0,0-.026h0v-.21Zm0-1.522a1.221,1.221,0,0,0,.063-.109.952.952,0,0,1,0,.3.424.424,0,0,1-.146.2c-.022.02-.043.047-.069.068l-.026.026c-.084.073-.12.109-.12.157v.737h-.194v-.371a.079.079,0,0,0-.021-.058.106.106,0,0,0-.057-.016.775.775,0,0,0-.507.309,1.467,1.467,0,0,0-.084-.188.708.708,0,0,1,.392-.638c.006-.006.006-.006.01-.006s.011-.01.016-.01,0-.005.005-.01.006-.006.006-.011a.017.017,0,0,1,.005-.01v-.021a.005.005,0,0,0,0-.006v-.214h.445A.3.3,0,0,0,29.445,23.237Zm-.178-.957c.105-.015.142-.089.178-.157a1.4,1.4,0,0,0,.073-.188.707.707,0,0,1-.026.377,1.949,1.949,0,0,1-.209.314l-.016.015a.56.56,0,0,0-.178.377v.2h-.371v-.288a.1.1,0,0,0-.031-.058.081.081,0,0,0-.068-.01,1.193,1.193,0,0,0-.419.261.367.367,0,0,1-.042-.073q-.039-.078-.078-.141a1.1,1.1,0,0,1,.267-.361h.173a.07.07,0,0,0,.067-.073V22.28h.5c.021,0,.037.006.058.006A.489.489,0,0,0,29.267,22.28ZM29,21.386a.019.019,0,0,0,.016,0c.115-.026.152-.147.194-.33a.974.974,0,0,1,.026.215,1.034,1.034,0,0,1-.209.439.055.055,0,0,0-.011.042v.392h-.429v-.314a.072.072,0,0,0-.031-.062.065.065,0,0,0-.068-.006,1.275,1.275,0,0,0-.356.251,2.637,2.637,0,0,0-.125-.245l.277-.272a.068.068,0,0,0,.021-.053v-.052Zm-.214-.784c.026,0,.094,0,.183-.189v.016a1.018,1.018,0,0,1-.22.439.089.089,0,0,0-.015.047v.325h-.429v-.356a.067.067,0,0,0-.026-.058.059.059,0,0,0-.058-.015.7.7,0,0,0-.345.172c-.016-.042-.031-.078-.047-.12l.356-.272c.015,0,.094,0,.376.011Zm-.235-.623a.108.108,0,0,0,.052-.021l.11-.115a.083.083,0,0,1,.021.063c0,.12-.157.267-.214.314a.081.081,0,0,0-.027.057v.178c-.146,0-.225,0-.261,0v-.288a.071.071,0,0,0-.032-.057.083.083,0,0,0-.062-.011,1.454,1.454,0,0,0-.309.126.068.068,0,0,0-.011-.032,0,0,0,0,1-.005,0l.147-.078A.074.074,0,0,0,28,20.042v-.068a0,0,0,0,1,0,0ZM27.332,17.96a.225.225,0,0,1,.162-.089h.011a.213.213,0,0,1,.157.089.414.414,0,0,1,.031.272h-.387A.414.414,0,0,1,27.332,17.96Zm.633.419-.037.178h-.863l-.036-.178Zm.251.319-.021.141H26.8l-.021-.141Zm.131.287-.047.241H26.694l-.047-.241Zm-.863.387a.018.018,0,0,0,.015,0c.006,0,.006,0,.011,0h.936l-.11.461H28v-.194a.081.081,0,0,0-.027-.057.073.073,0,0,0-.063-.016.828.828,0,0,0-.183.084c-.021-.026-.031-.042-.047-.063a.408.408,0,0,0-.151-.152.019.019,0,0,0-.011,0,.019.019,0,0,0-.016,0s-.01,0-.015,0a.01.01,0,0,0-.016,0s0,0-.01,0-.011,0-.011,0a.4.4,0,0,0-.157.152.308.308,0,0,1-.047.063.787.787,0,0,0-.183-.084.069.069,0,0,0-.063.016.084.084,0,0,0-.026.057v.194h-.308l-.11-.461Zm-1.219.534a.117.117,0,0,1,.016-.063l.115.115a.077.077,0,0,0,.052.021h.523v.063a.074.074,0,0,0,.037.063l.146.078v0l-.015.032a1.475,1.475,0,0,0-.309-.126.085.085,0,0,0-.063.011.07.07,0,0,0-.031.057v.288c-.042,0-.115,0-.23,0v-.178a.084.084,0,0,0-.026-.057C26.417,20.173,26.265,20.026,26.265,19.906Zm-.235.523v-.016c.084.189.157.189.183.189h.22c.214-.006.313-.006.355-.011l.351.272c-.016.042-.031.078-.047.12a.7.7,0,0,0-.346-.172.054.054,0,0,0-.057.015.084.084,0,0,0-.026.058v.356h-.4v-.325a.083.083,0,0,0-.016-.047A1.08,1.08,0,0,1,26.03,20.429Zm-.272.837a.918.918,0,0,1,.026-.215c.047.183.078.3.2.33a.018.018,0,0,0,.015,0h.665v.052a.068.068,0,0,0,.021.053l.277.272a1.8,1.8,0,0,0-.121.245,1.452,1.452,0,0,0-.36-.251.065.065,0,0,0-.068.006.077.077,0,0,0-.036.062v.314h-.393v-.392a.058.058,0,0,0-.016-.042A1.1,1.1,0,0,1,25.758,21.266Zm-.026,1.375-.016-.015a2.452,2.452,0,0,1-.214-.314.705.705,0,0,1-.027-.377,1.762,1.762,0,0,0,.079.194c.037.062.073.136.172.151a.524.524,0,0,0,.131.006c.021,0,.037-.006.053-.006h.466v.194a.074.074,0,0,0,.072.073h.173a1.1,1.1,0,0,1,.267.361c-.027.042-.048.089-.079.141a.29.29,0,0,1-.042.073,1.193,1.193,0,0,0-.418-.261.081.081,0,0,0-.068.01.074.074,0,0,0-.032.058v.288H25.91V23.2a1.118,1.118,0,0,1,0-.183A.614.614,0,0,0,25.732,22.641Zm-.026,1.052-.068-.068a.379.379,0,0,1-.142-.2.917.917,0,0,1-.01-.3c.021.036.042.073.068.109a.293.293,0,0,0,.277.126h.031a.188.188,0,0,1,.053,0h.334v.22c0,.01.006.015.006.021a.015.015,0,0,0,.005.01s0,0,0,.011l.011.01.01.01s0,0,.011.006h0a.7.7,0,0,1,.392.638,1.34,1.34,0,0,0-.084.188.777.777,0,0,0-.507-.309.112.112,0,0,0-.058.016.116.116,0,0,0-.021.058v.371h-.162v-.737c0-.048-.042-.084-.12-.157A.21.21,0,0,1,25.706,23.693Zm-.257.3c.011,0,.021,0,.037.026v.669a.071.071,0,0,0,.073.073h.46v.21h0a.043.043,0,0,0,.006.026,0,0,0,0,0,.005,0s0,.01.01.016a0,0,0,0,0,.005.005l.011.01c.225.142.3.6.32.9-.059-.047-.105-.078-.111-.084a.092.092,0,0,0-.073,0,.074.074,0,0,0-.037.063v.319a1.662,1.662,0,0,0-.748-.643v-1.5a.1.1,0,0,0-.01-.042s-.01-.01-.01-.016A.132.132,0,0,1,25.449,23.991Zm-.439,1.087a.633.633,0,0,0,.2-.491.542.542,0,0,0-.35-.392v-.44a1.065,1.065,0,0,1,.4.361V26.6H25.01Zm-.293.042h.147V26.6h-.147Zm0,1.627h.613a4.313,4.313,0,0,1,.987.361v.1h-1.6Zm-.366-2.218.22.2v2.558a.071.071,0,0,0,.073.068h.805l.189.177H24.351ZM21.4,26.135h2.809v.115H21.4Zm0,.261h2.809v.33H21.4Zm0,.476h2.809v.147H21.4Zm0,.293h2.809v.366H21.4Zm-.041.513h2.891l.183.151H21.2ZM21.2,26.056c.015-.01.036-.02.057-.031v.649c-.021,0-.037.015-.057.021Zm.057.775v.7h-.664A1.333,1.333,0,0,1,21.255,26.831Zm-.7-.733h.5v.675a1.481,1.481,0,0,0-.5.507Zm-.042,1.58h.633l-.136.141a.058.058,0,0,0-.02.052v2.861h-.205V28.87a.075.075,0,0,0-.073-.073h-.429a.075.075,0,0,0-.073.073v1.862h-.073V28.06ZM17.1,24.545a.473.473,0,0,0,.387.225.189.189,0,0,0,.141-.068.258.258,0,0,0,0-.235.643.643,0,0,0-.062-.126.1.1,0,0,1-.031-.052.772.772,0,0,1-.085-.424V23.8a.326.326,0,0,0,.163.131.152.152,0,0,0,.162-.037c.11-.109-.011-.329-.089-.475l0-.011a.351.351,0,0,1-.037-.178.28.28,0,0,0,.146.126.111.111,0,0,0,.111-.032c.057-.057.036-.167-.011-.4a2.14,2.14,0,0,1-.047-.319v-.037a.374.374,0,0,0,.068.121.09.09,0,0,0,.11.02c.12-.047.13-.371.13-.47,0-.2.116-.617.393-.654a.077.077,0,0,0,.062-.058l.006-.041c.036-.194.057-.241.141-.241s.11.047.146.241l0,.041a.073.073,0,0,0,.063.058c.272.037.392.45.392.654,0,.1.011.423.126.47a.089.089,0,0,0,.11-.02.375.375,0,0,0,.073-.121v.037a1.69,1.69,0,0,1-.052.319c-.047.23-.068.34,0,.4a.1.1,0,0,0,.109.032.278.278,0,0,0,.147-.126.362.362,0,0,1-.037.178l0,.011c-.079.146-.2.366-.089.475a.152.152,0,0,0,.162.037.4.4,0,0,0,.162-.125v.062a.873.873,0,0,1-.083.419.473.473,0,0,1-.032.052.711.711,0,0,0-.068.126.279.279,0,0,0,0,.235.174.174,0,0,0,.136.068.452.452,0,0,0,.387-.225v2.986h-.5V27.1a.065.065,0,0,0-.032-.057.056.056,0,0,0-.063-.011,2.081,2.081,0,0,0-.251.115c-.01-.026-.026-.068-.047-.115l.434-.507a.069.069,0,0,0,.016-.047v-.654a.075.075,0,0,0-.031-.063.1.1,0,0,0-.068-.01,0,0,0,0,1,0,0l.094-.141a.1.1,0,0,0,.01-.037v-.721a.067.067,0,0,0-.025-.053.062.062,0,0,0-.059-.015.743.743,0,0,0-.464.313c-.027-.078-.053-.162-.09-.251l.345-.387a.069.069,0,0,0,.016-.047v-.46a.059.059,0,0,0-.021-.052.078.078,0,0,0-.057-.021.625.625,0,0,0-.367.162.05.05,0,0,1,0-.026l.246-.246a.1.1,0,0,0,.021-.052v-.377a.065.065,0,0,0-.026-.052.079.079,0,0,0-.058-.021.523.523,0,0,0-.246.125c-.01-.021-.026-.041-.041-.068l.141-.167a.091.091,0,0,0,.015-.052v-.288a.069.069,0,0,0-.036-.063.066.066,0,0,0-.068,0,1.267,1.267,0,0,0-.147.079l.21-.2a.075.075,0,0,0,.021-.052v-.236a.064.064,0,0,0-.032-.057.067.067,0,0,0-.063-.011,1.116,1.116,0,0,0-.136.058.71.71,0,0,0-.245-.293h0a.02.02,0,0,0-.016-.005.018.018,0,0,0-.011,0h-.026l-.015,0c-.006,0-.011,0-.011.005h0a.8.8,0,0,0-.246.293.786.786,0,0,0-.131-.058.075.075,0,0,0-.067.011.079.079,0,0,0-.032.057v.236a.062.062,0,0,0,.026.052l.209.2a1.226,1.226,0,0,0-.151-.079.066.066,0,0,0-.068,0,.08.08,0,0,0-.036.063v.288a.084.084,0,0,0,.015.052l.146.167a.538.538,0,0,1-.047.068.511.511,0,0,0-.24-.125.1.1,0,0,0-.063.021.059.059,0,0,0-.021.052v.377a.066.066,0,0,0,.021.052l.246.246c0,.01-.005.015-.011.026a.612.612,0,0,0-.366-.162.065.065,0,0,0-.052.021.059.059,0,0,0-.021.052v.46a.069.069,0,0,0,.016.047l.339.387c-.031.089-.057.173-.083.251a.77.77,0,0,0-.466-.313.07.07,0,0,0-.062.015.066.066,0,0,0-.027.053v.721a.06.06,0,0,0,.016.037l.089.141-.005,0a.109.109,0,0,0-.068.01.076.076,0,0,0-.032.063v.654a.058.058,0,0,0,.021.047l.434.507c-.021.047-.036.089-.052.115a1.721,1.721,0,0,0-.246-.115.066.066,0,0,0-.068.011.08.08,0,0,0-.031.057v.434h-.5ZM17,27.678l.377.382v2.672h-.074V28.87a.08.08,0,0,0-.078-.073H16.8a.074.074,0,0,0-.068.073v1.862h-.2V27.871a.065.065,0,0,0-.026-.052l-.136-.141Zm-.466-2.338h.419v.214h-.419Zm0,.361h.419V27.28a1.442,1.442,0,0,0-.419-.455Zm-.277-.628a.1.1,0,0,1,.063-.031.136.136,0,0,1,.073.031v1.663a.7.7,0,0,0-.136-.062Zm0,1.758a1.353,1.353,0,0,1,.664.7H16.26Zm-.449.9V25.628a.821.821,0,0,1,.308.308v1.7a.005.005,0,0,1,.006,0,.06.06,0,0,0,.015.021l.24.246v2.829h-.073V28.3a.083.083,0,0,0-.016-.052Zm.543,3.144h.005a.555.555,0,0,1-.324.418A1.782,1.782,0,0,0,16.354,30.879Zm1.428,6.25H12.557V35.837h5.225Zm0-1.439H13.3V34.4h4.487Zm0-1.438h-3.76V33.138h3.76Zm0-1.26H14.754v-.8h3.028Zm0-.947H15.235v-.591h2.547Zm.4,5.084h-.257V35.837h.257Zm0-1.439h-.257V34.4h.257Zm0-1.438h-.257V33.138h.257Zm0-1.26h-.257v-.8h.257Zm0-.947h-.257v-.591h.257Zm.136-1.166h.873v.428h-.873Zm.9,6.25h-.9v-.576h.9Zm0-.717h-.9v-.575h.9Zm0-.722h-.9v-.58h.9Zm0-.727h-.9V34.4h.9Zm0-.711h-.9v-.607h.9Zm0-.753h-.9v-.361h.9Zm0-.507h-.9v-.084h.9Zm0-.231h-.9v-.57h.9Zm0-.716h-.9v-.591h.9Zm.4,5.084h-.262V35.837h.262Zm0-1.439h-.262V34.4h.262Zm0-1.438h-.262V33.138h.262Zm0-1.26h-.262v-.8h.262Zm0-.947h-.262v-.591h.262Zm-.294-.738v-.428H19.5a1.377,1.377,0,0,0,.246.428ZM26.5,37.129H19.769V35.837H26.5Zm0-1.439H19.769V34.4H26.5Zm0-1.438H19.769V33.138H26.5Zm0-1.26H19.769v-.8H26.5Zm0-.947H19.769v-.591H26.5Zm.4,5.084h-.256V35.837H26.9Zm0-1.439h-.256V34.4H26.9Zm0-1.438h-.256V33.138H26.9Zm0-1.26h-.256v-.8H26.9Zm0-.947h-.256v-.591H26.9Zm.121-1.166h.894v.428h-.894Zm.921,6.25H27.05v-.576h.895Zm0-.717H27.05v-.575h.895Zm0-.722H27.05v-.58h.895Zm0-.727H27.05V34.4h.895Zm0-.711H27.05v-.607h.895Zm0-.753H27.05v-.361h.895Zm0-.507H27.05v-.084h.895Zm0-.231H27.05v-.57h.895Zm0-.716H27.05v-.591h.895Zm.119-1.166h.272a.8.8,0,0,0,.241.428h-.513Zm.283,6.25H28.09V35.837h.257Zm0-1.439H28.09V34.4h.257Zm0-1.438H28.09V33.138h.257Zm0-1.26H28.09v-.8h.257Zm0-.947H28.09v-.591h.257Zm6.877,5.084H28.493V35.837h6.731Zm0-1.439H28.493V34.4h6.731Zm0-1.438H28.493V33.138h6.731Zm0-1.26H28.493v-.8h6.731Zm0-.947H28.493v-.591h6.731Zm.4,5.084h-.256V35.837h.256Zm0-1.439h-.256V34.4h.256Zm0-1.438h-.256V33.138h.256Zm0-1.26h-.256v-.8h.256Zm0-.947h-.256v-.591h.256Zm.031-.738H35.25a1.32,1.32,0,0,0,.246-.428h.162Zm0-.575H35.5v-2.5a.089.089,0,0,0-.015-.042l-.183-.246h.355Zm1.01,6.4h-.895v-.576h.895Zm0-.717h-.895v-.575h.895Zm0-.722h-.895v-.58h.895Zm0-.727h-.895V34.4h.895Zm0-.711h-.895v-.607h.895Zm0-.753h-.895v-.361h.895Zm0-.507h-.895v-.084h.895Zm0-.231h-.895v-.57h.895Zm0-.716h-.895v-.591h.895Zm.005-.738h-.868v-.428h.868Zm0-.575h-.868V27.939h.868Zm.4,6.4h-.257V35.837h.257Zm0-1.439h-.257V34.4h.257Zm0-1.438h-.257V33.138h.257Zm0-1.26h-.257v-.8h.257Zm0-.947h-.257v-.591h.257Zm5.371,5.084H37.217V35.837h5.225Z" style="fill:#231f20"/></svg>