<svg xmlns="http://www.w3.org/2000/svg" viewBox="0 0 55 55"><path d="M10.764,43.687a23.264,23.264,0,0,0,36.9-4.54H7.333A23.269,23.269,0,0,0,10.764,43.687Z" style="fill:#3b75c2"/><path d="M4.2,27.5a23.163,23.163,0,0,0,1.334,7.767,22.7,22.7,0,0,0,1.8,3.88H47.667A23.105,23.105,0,0,0,50.8,27.5H4.2Z" style="fill:#cd1225"/><path d="M27.5,4.2A23.389,23.389,0,0,0,7.333,15.847H47.667A23.3,23.3,0,0,0,27.5,4.2Z" style="fill:#fec527"/><path d="M47.667,15.847H7.333A23.167,23.167,0,0,0,4.2,27.5H50.8a23.167,23.167,0,0,0-3.133-11.653Z" style="fill:#fff"/><path d="M32.3,27.5,21.967,35.267l-11.2,8.42a23.234,23.234,0,0,1,0-32.374l11.2,8.42Z" style="fill:#3b8d35"/><path d="M11.37,27.5a7.836,7.836,0,0,1,6.088-7.636,7.656,7.656,0,0,0-1.747-.2,7.835,7.835,0,0,0,0,15.67,7.656,7.656,0,0,0,1.747-.2A7.836,7.836,0,0,1,11.37,27.5Z" style="fill:#fff"/><polygon points="17.458 20.455 17.788 21.464 18.844 21.464 17.986 22.087 18.316 23.096 17.458 22.469 16.601 23.096 16.93 22.087 16.072 21.464 17.129 21.464 17.458 20.455" style="fill:#fff"/><polygon points="17.458 31.632 17.788 32.641 18.844 32.641 17.986 33.264 18.316 34.273 17.458 33.651 16.601 34.273 16.93 33.264 16.072 32.641 17.129 32.641 17.458 31.632" style="fill:#fff"/><polygon points="17.458 27.908 17.788 28.917 18.844 28.917 17.986 29.54 18.316 30.549 17.458 29.927 16.601 30.549 16.93 29.54 16.072 28.917 17.129 28.917 17.458 27.908" style="fill:#fff"/><polygon points="17.458 24.179 17.788 25.188 18.844 25.188 17.986 25.811 18.316 26.82 17.458 26.198 16.601 26.82 16.93 25.811 16.072 25.188 17.129 25.188 17.458 24.179" style="fill:#fff"/></svg>