<svg xmlns="http://www.w3.org/2000/svg" viewBox="0 0 55 55"><path d="M50.8,27.5a23.172,23.172,0,0,1-4.867,14.235H9.067a23.251,23.251,0,0,1,0-28.47H45.933A23.149,23.149,0,0,1,50.8,27.5Z" style="fill:#ec1c26"/><path d="M44.851,11.968h-34.7a23.262,23.262,0,0,1,34.7,0Z" style="fill:#084fa0"/><path d="M44.857,43.026a23.262,23.262,0,0,1-34.713,0Z" style="fill:#084fa0"/><path d="M45.933,41.735c-.345.444-.7.873-1.076,1.291H10.144c-.376-.418-.731-.847-1.077-1.291Z" style="fill:#fff"/><path d="M45.933,13.265H9.067c.346-.444.7-.878,1.082-1.3h34.7C45.232,12.387,45.593,12.821,45.933,13.265Z" style="fill:#fff"/><path d="M32.634,27.5A10.448,10.448,0,1,1,22.189,17.05,10.442,10.442,0,0,1,32.634,27.5Z" style="fill:#fff"/><polygon points="22.189 17.379 24.463 24.374 31.813 24.374 25.864 28.692 28.138 35.687 22.189 31.363 16.239 35.687 18.514 28.692 12.564 24.374 19.915 24.374 22.189 17.379" style="fill:#ec1c26"/></svg>