<svg xmlns="http://www.w3.org/2000/svg" xmlns:xlink="http://www.w3.org/1999/xlink" viewBox="0 0 55 55">
  <clipPath id="globalClipPath">
    <circle cx="27.5" cy="27.5" r="23.3" fill="none"/>
  </clipPath>
  <g clip-path="url(#globalClipPath)">
        <polygon points="-7.49 4.18 62.48 4.18 62.48 50.82 -7.49 50.82 -7.49 4.18 -7.49 4.18" fill="#f1f0f0" stroke="#f3f3f4" stroke-miterlimit="2.41" stroke-width="0.09"/>
          <path d="M38.12,32.22A11.68,11.68,0,1,1,17,22.16c-1.11,5.77,3.37,9.24,7.52,7.58,2.3-.92,2.74-2.46,4.46-3.72,4.26-3.14,9.84.38,9.12,6.15l0,0Z" fill="#214097" fill-rule="evenodd"/>
          <path d="M27.43,15.83A11.68,11.68,0,0,1,38.14,32.17C38.86,26.4,33.28,22.88,29,26c-1.72,1.27-2.16,2.8-4.46,3.72-4.15,1.66-8.63-1.82-7.52-7.58a11.68,11.68,0,0,1,10.38-6.33Z" fill="#ee2724" fill-rule="evenodd"/>
          <path d="M5.63,19.92l6.49-9.73,1.61,1.08L7.25,21,5.63,19.92ZM8,21.55l6.49-9.73,1.61,1.08L9.63,22.64,8,21.55ZM3.15,18.34,9.64,8.61l1.61,1.08L4.76,19.42,3.15,18.34Z"/>
          <path d="M47.75,21l-6.49-9.73,1.61-1.08,6.49,9.73L47.75,21Zm2.49-1.58-3-4.53,1.61-1.08,3,4.53-1.61,1.08ZM46.7,14.11l-3-4.42,1.61-1.08,3,4.43L46.7,14.11Zm-1.33,8.52-3-4.51L44,17l3,4.51-1.61,1.08Zm-3.53-5.29-3-4.45,1.61-1.08,3,4.45-1.61,1.08Z"/>
          <path d="M47,33.44,44,38l-1.61-1.08,3-4.51L47,33.44Zm-3.52,5.28-3,4.45L38.88,42.1l3-4.45,1.61,1.08Zm8.39-2.07-3,4.53-1.61-1.08,3-4.53,1.61,1.08ZM48.31,42l-3,4.43-1.61-1.08,3-4.42L48.31,42Zm1.05-6.89-3,4.48-1.61-1.08,3-4.48,1.61,1.08Zm-3.5,5.25-3,4.48-1.61-1.08,3-4.48,1.62,1.08Z"/>
          <path d="M7.28,34l3,4.48L8.66,39.55l-3-4.48L7.28,34Zm2.38-1.63,6.49,9.73-1.61,1.08L8.05,33.44l1.61-1.08ZM4.8,35.58l6.49,9.73L9.68,46.39,3.18,36.66,4.8,35.58Zm6,3.67,3,4.48-1.61,1.08-3-4.48,1.61-1.08Z"/>

  </g>
</svg>
