<svg xmlns="http://www.w3.org/2000/svg" xmlns:xlink="http://www.w3.org/1999/xlink" viewBox="0 0 55 55">
    <path d="M50.8,27.5A23.287,23.287,0,0,1,13.1,45.805c-.152-.115-.3-.235-.445-.361-.073-.057-.146-.12-.214-.177s-.147-.126-.22-.189c-.047-.042-.1-.083-.147-.13-.151-.131-.3-.267-.449-.408s-.309-.288-.461-.44c-.183-.178-.36-.361-.538-.544-.121-.125-.24-.256-.356-.387-.093-.1-.183-.2-.272-.3l-.214-.246c-.147-.172-.293-.345-.429-.523-.272-.329-.528-.664-.769-1.009a23.225,23.225,0,0,1,0-27.171c.246-.345.5-.685.769-1.014h0c.142-.173.282-.345.429-.518.068-.084.141-.162.214-.246.089-.1.179-.2.272-.3.12-.131.241-.262.361-.387.173-.188.356-.366.533-.544.152-.152.309-.3.466-.445s.293-.272.444-.4c.048-.047.1-.089.147-.131v0h0c.068-.063.141-.121.215-.178a2.341,2.341,0,0,1,.214-.188c.146-.121.3-.241.445-.356A23.282,23.282,0,0,1,50.8,27.5Z"
          style="fill:#03aec9"/>
    <path d="M12.254,31.5c-.178-.371-.355-.743-.538-1.119-.136-.277-.267-.56-.4-.837-.036-.084-.073-.162-.115-.241,0,0,0-.01-.005-.01a1.121,1.121,0,0,1-.042-.879.738.738,0,0,1,.858-.444.814.814,0,0,1,.5.376.709.709,0,0,1,0,.811.48.48,0,0,1-.382.214.461.461,0,0,1-.4-.115.489.489,0,0,1-.083-.188.258.258,0,0,1,.015-.167.3.3,0,0,1,.346-.126c.1.068.115.235.146.309,0,0,.031-.058.037-.068a.465.465,0,0,0,.02-.089.617.617,0,0,0,.006-.105c0-.031-.006-.042.026-.047.016,0,.209-.047.209-.052s-.047-.1-.235-.152a.618.618,0,0,0-.032-.188.323.323,0,0,0-.047-.084c0-.01-.057-.052-.057-.063a.67.67,0,0,1-.006.11c-.026.094-.109.1-.193.089a.448.448,0,0,0-.4.178.719.719,0,0,0-.141.513.65.65,0,0,0,.22.434,1.069,1.069,0,0,0,.523.172c.032,0,.246.042.183.105a.582.582,0,0,0-.131.22.315.315,0,0,1,.016.387c-.131.24.078.078.34,0-.121,1.26.758,1.213.758,1.213a2.538,2.538,0,0,1-.235-2.024,1.784,1.784,0,0,0-.215-1.867.5.5,0,0,0,.33-.272.485.485,0,0,0-.33-.267,1.8,1.8,0,0,0,.215-1.872,2.544,2.544,0,0,1,.235-2.024s-.879-.047-.758,1.213c-.262-.068-.471-.23-.34,0a.325.325,0,0,1-.016.393.582.582,0,0,0,.131.214c.063.068-.151.1-.183.105a1.066,1.066,0,0,0-.523.178.625.625,0,0,0-.22.434.711.711,0,0,0,.141.507.435.435,0,0,0,.4.178c.084-.011.167,0,.193.089a.67.67,0,0,1,.006.11c0-.006.052-.048.057-.058a.348.348,0,0,0,.047-.089.559.559,0,0,0,.032-.183.375.375,0,0,0,.235-.152,1.771,1.771,0,0,0-.209-.052c-.032-.01-.026-.021-.026-.052a.56.56,0,0,0-.006-.1.539.539,0,0,0-.02-.094.667.667,0,0,1-.037-.062c-.031.073-.047.235-.146.3a.284.284,0,0,1-.346-.126.258.258,0,0,1-.015-.167.378.378,0,0,1,.481-.3.473.473,0,0,1,.382.219.7.7,0,0,1,0,.806.814.814,0,0,1-.5.376.735.735,0,0,1-.858-.439,1.12,1.12,0,0,1,.042-.879c.005,0,.005,0,.005-.01.042-.084.079-.162.115-.241.136-.282.267-.559.4-.842.183-.371.36-.748.538-1.114.262-.538.529-1.077.785-1.616a3.05,3.05,0,0,0,.487-1.59,1.4,1.4,0,0,0-.111-.4,1.148,1.148,0,0,0-1.114-.627,1.632,1.632,0,0,0-1.558.8,1.641,1.641,0,0,0-1.558-.8,1.158,1.158,0,0,0-1.12.627,1.387,1.387,0,0,0-.1.4,3.044,3.044,0,0,0,.482,1.59c.261.539.528,1.078.784,1.616.178.366.361.743.539,1.114.136.283.272.56.4.842.041.079.078.157.115.241.005,0,.005,0,.005.01a1.075,1.075,0,0,1,.042.879.731.731,0,0,1-.858.439.808.808,0,0,1-.5-.376.7.7,0,0,1,0-.806.486.486,0,0,1,.387-.219.46.46,0,0,1,.4.12.484.484,0,0,1,.084.183.264.264,0,0,1-.016.167c-.047.105-.251.194-.345.126s-.12-.23-.152-.3c0,0-.031.057-.036.062a.461.461,0,0,0-.021.094c0,.032-.005.068-.005.1s.005.042-.021.052a1.771,1.771,0,0,0-.209.052s.041.1.23.152a.687.687,0,0,0,.031.183.646.646,0,0,0,.048.089.506.506,0,0,1,.057.058.407.407,0,0,1,.01-.11c.021-.094.11-.1.194-.089a.443.443,0,0,0,.4-.178.717.717,0,0,0,.142-.507.649.649,0,0,0-.22-.434,1.105,1.105,0,0,0-.528-.178c-.026,0-.241-.037-.178-.105a.582.582,0,0,0,.131-.214.33.33,0,0,1-.021-.393c.136-.235-.074-.073-.335,0,.115-1.26-.758-1.213-.758-1.213a2.554,2.554,0,0,1,.23,2.024,1.8,1.8,0,0,0,.219,1.872.5.5,0,0,0-.334.267.512.512,0,0,0,.334.272,1.782,1.782,0,0,0-.219,1.867,2.548,2.548,0,0,1-.23,2.024s.873.047.758-1.213c.261.073.471.235.335,0a.319.319,0,0,1,.021-.387.582.582,0,0,0-.131-.22c-.063-.063.152-.1.178-.105a1.109,1.109,0,0,0,.528-.172.676.676,0,0,0,.22-.434.724.724,0,0,0-.142-.513.458.458,0,0,0-.4-.178c-.084.011-.173,0-.194-.089a.407.407,0,0,1-.01-.11c0,.011-.047.053-.057.063a.6.6,0,0,0-.048.084.769.769,0,0,0-.031.188c-.189.052-.23.147-.23.152s.193.047.209.052.021.016.021.047.005.068.005.105a.4.4,0,0,0,.021.089l.036.068c.032-.074.053-.241.152-.309s.3.026.345.126a.264.264,0,0,1,.016.167.506.506,0,0,1-.084.188.457.457,0,0,1-.4.115.494.494,0,0,1-.387-.214.707.707,0,0,1,0-.811.808.808,0,0,1,.5-.376.734.734,0,0,1,.858.444,1.076,1.076,0,0,1-.042.879.015.015,0,0,1-.005.01c-.037.079-.074.157-.115.241-.131.277-.267.56-.4.837-.178.376-.361.748-.539,1.119-.256.539-.523,1.072-.784,1.611A3.044,3.044,0,0,0,7.96,34.7a1.31,1.31,0,0,0,.1.4,1.161,1.161,0,0,0,1.12.632,1.64,1.64,0,0,0,1.558-.81,1.631,1.631,0,0,0,1.558.81,1.152,1.152,0,0,0,1.114-.632,1.318,1.318,0,0,0,.111-.4,3.05,3.05,0,0,0-.487-1.59C12.783,32.573,12.516,32.04,12.254,31.5ZM9.237,22.38c-.183-.382-.4-.753-.571-1.151A1.245,1.245,0,0,1,8.6,20.105a.775.775,0,0,1,.675-.356.913.913,0,0,1,.471.105.618.618,0,0,1,.3.366.442.442,0,0,1-.083.429.336.336,0,0,1-.419.057.384.384,0,0,1-.136-.209,1.244,1.244,0,0,1-.026-.246.313.313,0,0,0-.241.225,1.072,1.072,0,0,1-.041.183c-.027.068-.073.079-.136.089a.275.275,0,0,0-.146.073.715.715,0,0,0-.085.094c.068.142.242.157.377.173a.568.568,0,0,0,.078.308.486.486,0,0,0,.105.126c0,.005.12.073.12.058-.01-.168.016-.377.2-.45.058-.026.141.01.209.005.2-.016.382-.131.586-.131,0,.445-.02,1.224-.02,1.224-.084.335-.383.272-.754.215a1.025,1.025,0,0,0,.832.627.893.893,0,0,0,.277,1.255.894.894,0,0,0,.277-1.255,1.042,1.042,0,0,0,.832-.627c-.377.057-.675.12-.754-.215,0,0-.02-.779-.02-1.224.2,0,.381.115.585.131.063,0,.147-.031.21-.005.177.073.2.282.193.45,0,.015.115-.053.126-.058a.531.531,0,0,0,.177-.434c.142-.016.309-.031.382-.173a.765.765,0,0,0-.089-.094.246.246,0,0,0-.146-.073.151.151,0,0,1-.136-.089c-.026-.057-.021-.125-.042-.183a.305.305,0,0,0-.235-.225,1.325,1.325,0,0,1-.032.246.384.384,0,0,1-.136.209.328.328,0,0,1-.413-.057.439.439,0,0,1-.088-.429.629.629,0,0,1,.3-.366.909.909,0,0,1,.47-.105.776.776,0,0,1,.68.356,1.255,1.255,0,0,1-.073,1.124c-.167.4-.382.769-.57,1.151-.481,1-.942,2.008-1.407,3.023a.6.6,0,0,0-.094.2.6.6,0,0,0-.1-.2C10.183,24.388,9.718,23.384,9.237,22.38Zm.821,5.12c.35-.058.685-.549.685-.549s.335.491.68.549c-.345.063-.68.554-.68.554S10.408,27.563,10.058,27.5Zm2.829,7.4a.792.792,0,0,1-.68.361.919.919,0,0,1-.47-.1.665.665,0,0,1-.3-.367.434.434,0,0,1,.088-.428.328.328,0,0,1,.413-.063.4.4,0,0,1,.136.209,1.379,1.379,0,0,1,.032.251.321.321,0,0,0,.235-.225c.021-.063.016-.125.042-.188s.078-.073.136-.084a.223.223,0,0,0,.146-.078.679.679,0,0,0,.089-.089c-.073-.147-.24-.162-.382-.178A.615.615,0,0,0,12.3,33.6a.607.607,0,0,0-.1-.126c-.011,0-.126-.068-.126-.052a.423.423,0,0,1-.193.449c-.063.027-.147-.01-.21-.005-.2.011-.386.126-.585.126,0-.445.02-1.224.02-1.224.079-.335.377-.267.754-.209a1.023,1.023,0,0,0-.832-.628.9.9,0,0,0-.277-1.26.9.9,0,0,0-.277,1.26,1.006,1.006,0,0,0-.832.628c.371-.058.67-.126.754.209,0,0,.02.779.02,1.224-.2,0-.386-.115-.586-.126-.068,0-.151.032-.209.005a.418.418,0,0,1-.2-.449c0-.016-.115.052-.12.052a.486.486,0,0,0-.105.126.58.58,0,0,0-.078.308c-.135.016-.309.031-.377.178a.635.635,0,0,0,.085.089.245.245,0,0,0,.146.078c.063.011.109.016.136.084a1.15,1.15,0,0,1,.041.188.329.329,0,0,0,.241.225,1.3,1.3,0,0,1,.026-.251.4.4,0,0,1,.136-.209.336.336,0,0,1,.419.063.437.437,0,0,1,.083.428.653.653,0,0,1-.3.367.922.922,0,0,1-.471.1A.791.791,0,0,1,8.6,34.9a1.246,1.246,0,0,1,.068-1.124c.173-.392.388-.764.571-1.151.481-1,.946-2.008,1.406-3.018a.669.669,0,0,0,.1-.209.674.674,0,0,0,.094.209c.465,1.01.926,2.014,1.407,3.018.188.387.4.759.57,1.151A1.256,1.256,0,0,1,12.887,34.9Z"
          style="fill:#fdc41b"/>
    <path d="M13.039,16.642c-.256-.538-.523-1.072-.785-1.611-.178-.371-.355-.747-.538-1.114-.136-.282-.267-.564-.4-.847-.036-.078-.073-.157-.115-.235,0-.005,0-.005-.005-.011a1.129,1.129,0,0,1-.042-.883.741.741,0,0,1,.858-.44.815.815,0,0,1,.5.377.707.707,0,0,1,0,.81.484.484,0,0,1-.382.215.467.467,0,0,1-.4-.12.449.449,0,0,1-.083-.183.261.261,0,0,1,.015-.168.3.3,0,0,1,.346-.125c.1.073.115.235.146.308l.037-.068a.448.448,0,0,0,.02-.089.605.605,0,0,0,.006-.1c0-.032-.006-.042.026-.047a1.722,1.722,0,0,0,.209-.058.361.361,0,0,0-.235-.146.6.6,0,0,0-.032-.189.254.254,0,0,0-.047-.083c0-.011-.057-.053-.057-.063a.676.676,0,0,1-.006.11c-.026.094-.109.1-.193.089a.447.447,0,0,0-.4.177.72.72,0,0,0-.141.513.639.639,0,0,0,.22.434,1.081,1.081,0,0,0,.523.173c.032.005.246.042.183.1a.582.582,0,0,0-.131.22.315.315,0,0,1,.016.387c-.131.241.078.078.34.005-.121,1.261.758,1.214.758,1.214a2.539,2.539,0,0,1-.235-2.024A1.8,1.8,0,0,0,12.8,11.3a.485.485,0,0,0,.33-.267h-1.7c-.345.058-.68.555-.68.555s-.041-.058-.11-.136c-.12.125-.241.256-.361.387a.66.66,0,0,1,.058.105,1.084,1.084,0,0,1-.042.883c0,.006,0,.006-.005.011-.037.078-.074.157-.115.235-.131.283-.267.565-.4.847-.178.367-.361.743-.539,1.114-.256.539-.523,1.073-.784,1.611a3.061,3.061,0,0,0-.482,1.59,1.3,1.3,0,0,0,.1.4,1.161,1.161,0,0,0,1.12.633,1.639,1.639,0,0,0,1.558-.811,1.631,1.631,0,0,0,1.558.811,1.151,1.151,0,0,0,1.114-.633,1.31,1.31,0,0,0,.111-.4A3.066,3.066,0,0,0,13.039,16.642Zm-.152,1.789a.8.8,0,0,1-.68.356.973.973,0,0,1-.47-.105.663.663,0,0,1-.3-.366.436.436,0,0,1,.088-.429.329.329,0,0,1,.413-.063.432.432,0,0,1,.136.21,1.425,1.425,0,0,1,.032.251.313.313,0,0,0,.235-.225c.021-.063.016-.131.042-.189s.078-.073.136-.083a.224.224,0,0,0,.146-.079.623.623,0,0,0,.089-.089c-.073-.146-.24-.162-.382-.177a.631.631,0,0,0-.073-.309.469.469,0,0,0-.1-.12c-.011-.011-.126-.074-.126-.058a.425.425,0,0,1-.193.45c-.063.026-.147-.011-.21,0-.2.01-.386.125-.585.125,0-.444.02-1.224.02-1.224.079-.334.377-.266.754-.209a1.02,1.02,0,0,0-.832-.627.9.9,0,0,0-.277-1.261.9.9,0,0,0-.277,1.261,1,1,0,0,0-.832.627c.371-.057.67-.125.754.209,0,0,.02.78.02,1.224-.2,0-.386-.115-.586-.125-.068-.006-.151.031-.209,0a.42.42,0,0,1-.2-.45c0-.016-.115.047-.12.058a.392.392,0,0,0-.105.12.6.6,0,0,0-.078.309c-.135.015-.309.031-.377.177a.585.585,0,0,0,.085.089.247.247,0,0,0,.146.079c.063.01.109.015.136.083a1.058,1.058,0,0,1,.041.189.321.321,0,0,0,.241.225,1.328,1.328,0,0,1,.026-.251.432.432,0,0,1,.136-.21.337.337,0,0,1,.419.063.439.439,0,0,1,.083.429.651.651,0,0,1-.3.366.977.977,0,0,1-.471.105.8.8,0,0,1-.675-.356,1.257,1.257,0,0,1,.068-1.13c.173-.392.388-.763.571-1.15.481-1,.946-2.009,1.406-3.018a.679.679,0,0,0,.1-.209.684.684,0,0,0,.094.209c.465,1.009.926,2.019,1.407,3.018.188.387.4.758.57,1.15A1.268,1.268,0,0,1,12.887,18.431Zm-2.882-6.287c0-.005,0-.005-.005-.005-.073.084-.146.162-.214.246a.3.3,0,0,1,.036.047.268.268,0,0,1,.016.168.464.464,0,0,1-.084.183.458.458,0,0,1-.4.12h0c-.267.329-.523.669-.769,1.014a2.62,2.62,0,0,1-.35,1.277s.873.047.758-1.214c.261.073.471.236.335-.005a.32.32,0,0,1,.021-.387.582.582,0,0,0-.131-.22c-.063-.062.152-.1.178-.1a1.121,1.121,0,0,0,.528-.173.665.665,0,0,0,.22-.434A.725.725,0,0,0,10.005,12.144Z"
          style="fill:#fdc41b"/>
    <path d="M12.49,41.02c-.262-.073-.471-.23-.34,0a.315.315,0,0,1-.016.387.546.546,0,0,0,.131.22c.063.068-.151.1-.183.1a1.086,1.086,0,0,0-.523.178.628.628,0,0,0-.22.429.713.713,0,0,0,.141.513.454.454,0,0,0,.4.183c.084-.011.167-.011.193.083a.676.676,0,0,1,.006.11c0-.005.052-.047.057-.057a.293.293,0,0,0,.047-.089.593.593,0,0,0,.032-.183.38.38,0,0,0,.235-.152s-.193-.047-.209-.052c-.032-.011-.026-.021-.026-.053a.549.549,0,0,0-.006-.1.52.52,0,0,0-.02-.094.67.67,0,0,1-.037-.063c-.031.073-.047.235-.146.3a.285.285,0,0,1-.346-.125.261.261,0,0,1-.015-.168.449.449,0,0,1,.083-.183.467.467,0,0,1,.4-.12.476.476,0,0,1,.382.22.707.707,0,0,1,0,.81.826.826,0,0,1-.5.372.736.736,0,0,1-.858-.44,1.13,1.13,0,0,1,.042-.883c.005,0,.005-.006.005-.006.042-.078.079-.162.115-.24.136-.283.267-.56.4-.842.183-.372.36-.743.538-1.114.262-.539.529-1.072.785-1.611a3.07,3.07,0,0,0,.487-1.595,1.4,1.4,0,0,0-.111-.4,1.147,1.147,0,0,0-1.114-.628,1.632,1.632,0,0,0-1.558.806,1.64,1.64,0,0,0-1.558-.806,1.157,1.157,0,0,0-1.12.628,1.387,1.387,0,0,0-.1.4,3.064,3.064,0,0,0,.482,1.595c.261.539.528,1.072.784,1.611.178.371.361.742.539,1.114.136.282.272.559.4.842.041.078.078.162.115.24.005,0,.005.006.005.006a1.085,1.085,0,0,1,.042.883,1.055,1.055,0,0,1-.058.11c.116.131.235.262.356.387a1.106,1.106,0,0,0,.115-.141s.335.5.68.555h1.705a.485.485,0,0,0-.33-.267,1.8,1.8,0,0,0,.215-1.873,2.546,2.546,0,0,1,.235-2.024S12.369,39.765,12.49,41.02Zm-1.653.847a.684.684,0,0,0-.094.209.679.679,0,0,0-.1-.209c-.46-1-.925-2.014-1.406-3.018-.183-.387-.4-.753-.571-1.145a1.258,1.258,0,0,1-.068-1.13.788.788,0,0,1,.675-.355.912.912,0,0,1,.471.1.621.621,0,0,1,.3.366.439.439,0,0,1-.083.429.335.335,0,0,1-.419.058.387.387,0,0,1-.136-.21,1.234,1.234,0,0,1-.026-.245.311.311,0,0,0-.241.225,1.012,1.012,0,0,1-.041.183c-.027.073-.073.073-.136.083a.327.327,0,0,0-.146.079.607.607,0,0,0-.085.094c.068.141.242.157.377.172a.569.569,0,0,0,.078.309.428.428,0,0,0,.105.126c0,.005.12.073.12.057a.417.417,0,0,1,.2-.45c.058-.026.141.011.209.006.2-.016.382-.126.586-.126,0,.439-.02,1.219-.02,1.219-.084.34-.383.272-.754.209a1,1,0,0,0,.832.627.9.9,0,0,0,.277,1.261.9.9,0,0,0,.277-1.261,1.02,1.02,0,0,0,.832-.627c-.377.063-.675.131-.754-.209,0,0-.02-.78-.02-1.219.2,0,.381.11.585.126.063.005.147-.032.21-.006.177.074.2.283.193.45,0,.016.115-.052.126-.057a.518.518,0,0,0,.1-.126.6.6,0,0,0,.073-.309c.142-.015.309-.031.382-.172a.644.644,0,0,0-.089-.094.285.285,0,0,0-.146-.079c-.058-.01-.105-.01-.136-.083-.026-.058-.021-.121-.042-.183a.3.3,0,0,0-.235-.225,1.314,1.314,0,0,1-.032.245.387.387,0,0,1-.136.21.327.327,0,0,1-.413-.058.436.436,0,0,1-.088-.429.632.632,0,0,1,.3-.366.909.909,0,0,1,.47-.1.789.789,0,0,1,.68.355,1.269,1.269,0,0,1-.073,1.13c-.167.392-.382.758-.57,1.145C11.763,39.853,11.3,40.863,10.837,41.867Zm-.91.047a1.127,1.127,0,0,0-.528-.178c-.026,0-.241-.036-.178-.1a.546.546,0,0,0,.131-.22.32.32,0,0,1-.021-.387c.136-.235-.074-.078-.335,0,.115-1.255-.758-1.214-.758-1.214a2.652,2.652,0,0,1,.35,1.282c.241.345.5.68.769,1.009a.379.379,0,0,1,.481.3.268.268,0,0,1-.016.168.193.193,0,0,1-.036.052l.214.246c0-.005.005-.005.005-.01a.719.719,0,0,0,.142-.513A.653.653,0,0,0,9.927,41.914Z"
          style="fill:#fdc41b"/>
    <path d="M12.15,44.785l-.074.163c.048.047.1.088.147.13A.641.641,0,0,0,12.15,44.785Zm.073.293c.073.063.141.126.22.189A.316.316,0,0,0,12.223,45.078Zm.492-.737c0-.005.151-.073.167-.079a.535.535,0,0,0,.246-.292h-1.7a1.26,1.26,0,0,0-.257.13c.152.152.309.3.461.44a.789.789,0,0,1,.251-.021c.408.026.643.167.748.449a.907.907,0,0,1,.031.476c.146.126.293.246.445.361A1.318,1.318,0,0,0,12.715,44.341Z"
          style="fill:#fdc41b"/>
    <path d="M12.882,10.743a1.616,1.616,0,0,1-.167-.084A1.315,1.315,0,0,0,13.1,9.2c-.147.115-.3.235-.445.356a.9.9,0,0,1-.031.476c-.1.287-.34.428-.748.449a.746.746,0,0,1-.246-.021c-.157.147-.314.293-.466.445a1.073,1.073,0,0,0,.257.125h1.705A.508.508,0,0,0,12.882,10.743Zm-.654-.821a.321.321,0,0,0,.215-.178C12.369,9.8,12.3,9.859,12.228,9.922Zm-.152.136.074.157a.633.633,0,0,0,.073-.288C12.176,9.969,12.124,10.011,12.076,10.058Z"
          style="fill:#fdc41b"/>
    <path d="M37.521,23.76a6.271,6.271,0,1,1-6.271-6.27A6.274,6.274,0,0,1,37.521,23.76Z" style="fill:#fdc41b"/>
    <path d="M31.763,16.151a.513.513,0,0,1-1.026,0c0-.288.513-2.15.513-2.15S31.763,15.863,31.763,16.151Z"
          style="fill:#fdc41b"/>
    <path d="M31.763,16.151a.513.513,0,0,1-1.026,0c0-.288.513-2.15.513-2.15S31.763,15.863,31.763,16.151Z"
          style="fill:#fdc41b"/>
    <path d="M30.267,16.193a.515.515,0,0,1-1.01.2c-.052-.283.089-2.208.089-2.208S30.214,15.915,30.267,16.193Z"
          style="fill:#fdc41b"/>
    <path d="M30.267,16.193a.515.515,0,0,1-1.01.2c-.052-.283.089-2.208.089-2.208S30.214,15.915,30.267,16.193Z"
          style="fill:#fdc41b"/>
    <path d="M28.813,16.533a.515.515,0,0,1-.952.392c-.109-.262-.345-2.181-.345-2.181S28.7,16.271,28.813,16.533Z"
          style="fill:#fdc41b"/>
    <path d="M28.813,16.533a.515.515,0,0,1-.952.392c-.109-.262-.345-2.181-.345-2.181S28.7,16.271,28.813,16.533Z"
          style="fill:#fdc41b"/>
    <path d="M27.448,17.144a.515.515,0,1,1-.858.571c-.157-.236-.764-2.066-.764-2.066S27.291,16.909,27.448,17.144Z"
          style="fill:#fdc41b"/>
    <path d="M27.448,17.144a.515.515,0,1,1-.858.571c-.157-.236-.764-2.066-.764-2.066S27.291,16.909,27.448,17.144Z"
          style="fill:#fdc41b"/>
    <path d="M26.229,18.013a.517.517,0,0,1,0,.727.507.507,0,0,1-.726,0c-.205-.2-1.157-1.878-1.157-1.878S26.03,17.814,26.229,18.013Z"
          style="fill:#fdc41b"/>
    <path d="M26.229,18.013a.517.517,0,0,1,0,.727.507.507,0,0,1-.726,0c-.205-.2-1.157-1.878-1.157-1.878S26.03,17.814,26.229,18.013Z"
          style="fill:#fdc41b"/>
    <path d="M25.2,19.106a.513.513,0,1,1-.57.852c-.235-.157-1.5-1.616-1.5-1.616S24.969,18.949,25.2,19.106Z"
          style="fill:#fdc41b"/>
    <path d="M25.2,19.106a.513.513,0,1,1-.57.852c-.235-.157-1.5-1.616-1.5-1.616S24.969,18.949,25.2,19.106Z"
          style="fill:#fdc41b"/>
    <path d="M24.409,20.371a.515.515,0,1,1-.392.952c-.262-.11-1.784-1.3-1.784-1.3S24.148,20.267,24.409,20.371Z"
          style="fill:#fdc41b"/>
    <path d="M24.409,20.371a.515.515,0,1,1-.392.952c-.262-.11-1.784-1.3-1.784-1.3S24.148,20.267,24.409,20.371Z"
          style="fill:#fdc41b"/>
    <path d="M23.881,21.773a.514.514,0,0,1-.2,1.009c-.277-.057-2-.925-2-.925S23.6,21.716,23.881,21.773Z"
          style="fill:#fdc41b"/>
    <path d="M23.881,21.773a.514.514,0,0,1-.2,1.009c-.277-.057-2-.925-2-.925S23.6,21.716,23.881,21.773Z"
          style="fill:#fdc41b"/>
    <path d="M23.635,23.248a.515.515,0,0,1,0,1.03c-.282,0-2.144-.518-2.144-.518S23.353,23.248,23.635,23.248Z"
          style="fill:#fdc41b"/>
    <path d="M23.635,23.248a.515.515,0,0,1,0,1.03c-.282,0-2.144-.518-2.144-.518S23.353,23.248,23.635,23.248Z"
          style="fill:#fdc41b"/>
    <path d="M23.682,24.744a.509.509,0,0,1,.6.4.517.517,0,0,1-.4.607c-.277.052-2.2-.089-2.2-.089S23.405,24.8,23.682,24.744Z"
          style="fill:#fdc41b"/>
    <path d="M23.682,24.744a.509.509,0,0,1,.6.4.517.517,0,0,1-.4.607c-.277.052-2.2-.089-2.2-.089S23.405,24.8,23.682,24.744Z"
          style="fill:#fdc41b"/>
    <path d="M24.017,26.2a.512.512,0,1,1,.392.947c-.261.109-2.176.35-2.176.35S23.755,26.308,24.017,26.2Z"
          style="fill:#fdc41b"/>
    <path d="M24.017,26.2a.512.512,0,1,1,.392.947c-.261.109-2.176.35-2.176.35S23.755,26.308,24.017,26.2Z"
          style="fill:#fdc41b"/>
    <path d="M24.634,27.563a.515.515,0,0,1,.57.857c-.235.157-2.071.764-2.071.764S24.4,27.725,24.634,27.563Z"
          style="fill:#fdc41b"/>
    <path d="M24.634,27.563a.515.515,0,0,1,.57.857c-.235.157-2.071.764-2.071.764S24.4,27.725,24.634,27.563Z"
          style="fill:#fdc41b"/>
    <path d="M25.5,28.781a.514.514,0,0,1,.726.727c-.2.2-1.883,1.156-1.883,1.156S25.3,28.985,25.5,28.781Z"
          style="fill:#fdc41b"/>
    <path d="M25.5,28.781a.514.514,0,0,1,.726.727c-.2.2-1.883,1.156-1.883,1.156S25.3,28.985,25.5,28.781Z"
          style="fill:#fdc41b"/>
    <path d="M26.59,29.806a.517.517,0,0,1,.858.576c-.157.235-1.622,1.5-1.622,1.5S26.433,30.042,26.59,29.806Z"
          style="fill:#fdc41b"/>
    <path d="M26.59,29.806a.517.517,0,0,1,.858.576c-.157.235-1.622,1.5-1.622,1.5S26.433,30.042,26.59,29.806Z"
          style="fill:#fdc41b"/>
    <path d="M27.861,30.6a.515.515,0,0,1,.952.393c-.11.261-1.3,1.788-1.3,1.788S27.752,30.863,27.861,30.6Z"
          style="fill:#fdc41b"/>
    <path d="M27.861,30.6a.515.515,0,0,1,.952.393c-.11.261-1.3,1.788-1.3,1.788S27.752,30.863,27.861,30.6Z"
          style="fill:#fdc41b"/>
    <path d="M29.257,31.13a.516.516,0,0,1,.607-.4.509.509,0,0,1,.4.6c-.053.283-.921,2.009-.921,2.009S29.205,31.407,29.257,31.13Z"
          style="fill:#fdc41b"/>
    <path d="M29.257,31.13a.516.516,0,0,1,.607-.4.509.509,0,0,1,.4.6c-.053.283-.921,2.009-.921,2.009S29.205,31.407,29.257,31.13Z"
          style="fill:#fdc41b"/>
    <path d="M30.737,31.375a.513.513,0,0,1,1.026,0c0,.288-.513,2.15-.513,2.15S30.737,31.663,30.737,31.375Z"
          style="fill:#fdc41b"/>
    <path d="M30.737,31.375a.513.513,0,0,1,1.026,0c0,.288-.513,2.15-.513,2.15S30.737,31.663,30.737,31.375Z"
          style="fill:#fdc41b"/>
    <path d="M32.228,31.328a.514.514,0,0,1,1.009-.2c.058.277-.083,2.207-.083,2.207S32.286,31.611,32.228,31.328Z"
          style="fill:#fdc41b"/>
    <path d="M32.228,31.328a.514.514,0,0,1,1.009-.2c.058.277-.083,2.207-.083,2.207S32.286,31.611,32.228,31.328Z"
          style="fill:#fdc41b"/>
    <path d="M33.687,30.994a.51.51,0,0,1,.277-.67.516.516,0,0,1,.675.277c.11.262.345,2.181.345,2.181S33.8,31.255,33.687,30.994Z"
          style="fill:#fdc41b"/>
    <path d="M33.687,30.994a.51.51,0,0,1,.277-.67.516.516,0,0,1,.675.277c.11.262.345,2.181.345,2.181S33.8,31.255,33.687,30.994Z"
          style="fill:#fdc41b"/>
    <path d="M35.052,30.382a.515.515,0,1,1,.853-.576c.162.236.769,2.072.769,2.072S35.209,30.617,35.052,30.382Z"
          style="fill:#fdc41b"/>
    <path d="M35.052,30.382a.515.515,0,1,1,.853-.576c.162.236.769,2.072.769,2.072S35.209,30.617,35.052,30.382Z"
          style="fill:#fdc41b"/>
    <path d="M36.271,29.508a.508.508,0,0,1,0-.727.519.519,0,0,1,.727,0c.2.2,1.15,1.883,1.15,1.883S36.47,29.712,36.271,29.508Z"
          style="fill:#fdc41b"/>
    <path d="M36.271,29.508a.508.508,0,0,1,0-.727.519.519,0,0,1,.727,0c.2.2,1.15,1.883,1.15,1.883S36.47,29.712,36.271,29.508Z"
          style="fill:#fdc41b"/>
    <path d="M37.3,28.42a.515.515,0,0,1,.57-.857c.235.162,1.5,1.621,1.5,1.621S37.532,28.577,37.3,28.42Z"
          style="fill:#fdc41b"/>
    <path d="M37.3,28.42a.515.515,0,0,1,.57-.857c.235.162,1.5,1.621,1.5,1.621S37.532,28.577,37.3,28.42Z"
          style="fill:#fdc41b"/>
    <path d="M38.086,27.15a.513.513,0,1,1,.4-.947c.262.105,1.784,1.3,1.784,1.3S38.347,27.259,38.086,27.15Z"
          style="fill:#fdc41b"/>
    <path d="M38.086,27.15a.513.513,0,1,1,.4-.947c.262.105,1.784,1.3,1.784,1.3S38.347,27.259,38.086,27.15Z"
          style="fill:#fdc41b"/>
    <path d="M38.619,25.753a.514.514,0,1,1,.2-1.009c.277.057,2,.92,2,.92S38.9,25.805,38.619,25.753Z"
          style="fill:#fdc41b"/>
    <path d="M38.619,25.753a.514.514,0,1,1,.2-1.009c.277.057,2,.92,2,.92S38.9,25.805,38.619,25.753Z"
          style="fill:#fdc41b"/>
    <path d="M38.865,24.278a.515.515,0,1,1,0-1.03c.282,0,2.144.512,2.144.512S39.147,24.278,38.865,24.278Z"
          style="fill:#fdc41b"/>
    <path d="M38.865,24.278a.515.515,0,1,1,0-1.03c.282,0,2.144.512,2.144.512S39.147,24.278,38.865,24.278Z"
          style="fill:#fdc41b"/>
    <path d="M38.818,22.782a.514.514,0,1,1-.2-1.009c.277-.057,2.2.084,2.2.084S39.1,22.725,38.818,22.782Z"
          style="fill:#fdc41b"/>
    <path d="M38.818,22.782a.514.514,0,1,1-.2-1.009c.277-.057,2.2.084,2.2.084S39.1,22.725,38.818,22.782Z"
          style="fill:#fdc41b"/>
    <path d="M38.483,21.323a.516.516,0,1,1-.4-.952c.261-.1,2.181-.345,2.181-.345S38.745,21.213,38.483,21.323Z"
          style="fill:#fdc41b"/>
    <path d="M38.483,21.323a.516.516,0,1,1-.4-.952c.261-.1,2.181-.345,2.181-.345S38.745,21.213,38.483,21.323Z"
          style="fill:#fdc41b"/>
    <path d="M37.866,19.958a.513.513,0,1,1-.57-.852c.236-.157,2.071-.764,2.071-.764S38.1,19.8,37.866,19.958Z"
          style="fill:#fdc41b"/>
    <path d="M37.866,19.958a.513.513,0,1,1-.57-.852c.236-.157,2.071-.764,2.071-.764S38.1,19.8,37.866,19.958Z"
          style="fill:#fdc41b"/>
    <path d="M37,18.74a.514.514,0,0,1-.727-.727c.2-.2,1.877-1.151,1.877-1.151S37.2,18.541,37,18.74Z"
          style="fill:#fdc41b"/>
    <path d="M37,18.74a.514.514,0,0,1-.727-.727c.2-.2,1.877-1.151,1.877-1.151S37.2,18.541,37,18.74Z"
          style="fill:#fdc41b"/>
    <path d="M35.905,17.715a.511.511,0,0,1-.712.146.521.521,0,0,1-.141-.717c.157-.235,1.622-1.495,1.622-1.495S36.067,17.479,35.905,17.715Z"
          style="fill:#fdc41b"/>
    <path d="M35.905,17.715a.511.511,0,0,1-.712.146.521.521,0,0,1-.141-.717c.157-.235,1.622-1.495,1.622-1.495S36.067,17.479,35.905,17.715Z"
          style="fill:#fdc41b"/>
    <path d="M34.639,16.925a.515.515,0,0,1-.952-.392c.11-.262,1.3-1.789,1.3-1.789S34.749,16.663,34.639,16.925Z"
          style="fill:#fdc41b"/>
    <path d="M34.639,16.925a.515.515,0,0,1-.952-.392c.11-.262,1.3-1.789,1.3-1.789S34.749,16.663,34.639,16.925Z"
          style="fill:#fdc41b"/>
    <path d="M33.237,16.4a.508.508,0,0,1-.6.4.517.517,0,0,1-.408-.606c.058-.278.926-2,.926-2S33.3,16.114,33.237,16.4Z"
          style="fill:#fdc41b"/>
    <path d="M33.237,16.4a.508.508,0,0,1-.6.4.517.517,0,0,1-.408-.606c.058-.278.926-2,.926-2S33.3,16.114,33.237,16.4Z"
          style="fill:#fdc41b"/>
    <path d="M31.779,34.728c-.2.089-.393.392-.529.539-.235.261-.471.517-.722.768a4.131,4.131,0,0,1-1.475,1.005c-.366.078-.742.026-.935.219s-.4.387-.4.5-.408.183-.481.429a1.285,1.285,0,0,0-.036.576,1.161,1.161,0,0,0,.418-.22c.079-.073.079.094.079.094s.235-.026.282-.026a5.3,5.3,0,0,1,1.323-.2c.7,0,2.223.141,2.563.094s-.3-.136-.528-.136-1-.115-1.146-.115-.622.037-.622-.042.22-.324.267-.366-.555.058-.178-.172.251-.408.057-.34a4.469,4.469,0,0,0-.967.376c0,.079-.3.4-.392.309a.5.5,0,0,0-.288-.084s-.042-.146.23-.235.125.042.586-.215a17.022,17.022,0,0,0,2.641-1.715,3.56,3.56,0,0,1,1.626-.554c.409-.053.822-.079,1.23-.136a2.092,2.092,0,0,0,1.14-.34,6.931,6.931,0,0,1,1.914-1.392,5.909,5.909,0,0,0,1.46-.7A17.662,17.662,0,0,0,40.3,31.02a4.842,4.842,0,0,1,1.213-.858c.157-.078,1.156-.575,1.046-.047a4.23,4.23,0,0,1-.659,1.077c-.052.053.544-.23.67-.109s.057.381-.089.523-.492.5-.492.5.549-.047.5.136-1.1.712-1.182.785.021.12.021.183-.157.157-.292.293-.6.282-.518.476.026.094-.084.2-.507.12-.507.261.047.361-.037.45a1.975,1.975,0,0,1-.6.157.391.391,0,0,1,0,.345,10.756,10.756,0,0,1-2.181,1.119c-.115,0-.293.1-.251.1a7.218,7.218,0,0,0,2.327-.377c.576-.339,1.078-.449,1.214-.585s-.476-.262-.476-.413.361-.33.988-.408.942-.121.664-.2-.69,0-.69-.121.068-.1.366-.193,1.041-.152,1.041-.33-.554-.1-.717-.162.006-.057.56-.246,1.088-.408,1.088-.533-.544-.157-.706-.157-.262-.037.042-.2a8.178,8.178,0,0,0,1.716-1.219c.219-.34.407-.528.276-.653S44,31.13,43.6,31.2s-.519.157-.4-.037.669-.58,1.218-1.135,1.313-1.192,1.313-1.438.031-.476-.282-.408-.691.607-.9.816S43.3,30.005,43.3,30.005s.575-.7,1.2-1.574a5.493,5.493,0,0,0,.925-1.512.793.793,0,0,0-.1-.381.538.538,0,0,0-.6.177c-.272.272-1.067,1.533-1.318,1.7s-.429.424-.257.162a15.946,15.946,0,0,0,.738-1.621,5.879,5.879,0,0,0,.371-1.5c0-.2-.036-.606-.251-.711-.24-.115-.439.115-.465.324a10.873,10.873,0,0,1-.256,1.3,4.614,4.614,0,0,1-.231.648,2.445,2.445,0,0,1-.355.534c.036-.278.162-.544.172-.832a3.481,3.481,0,0,0-.052-.9c-.026-.115-.068-.256-.2-.245-.267.02-.4.308-.428.538a4.209,4.209,0,0,1-.273,1.031c-.188.5-.4.983-.628,1.464a10.7,10.7,0,0,1-4.471,4.618,12.114,12.114,0,0,1-4.953,1.475A.248.248,0,0,0,31.779,34.728Z"
          style="fill:#fdc41b"/>
    <path d="M35.2,37.8c-.157,0-.361-.11-.361.183a.634.634,0,0,1-.444.638,13.4,13.4,0,0,1-3.107.215,2.276,2.276,0,0,0-1.972.748c-.126.261-.079.612.2.439a5.427,5.427,0,0,1,.931-.586c.136,0-.141.633.157.586s.507-.45.763-.513.277.116.189.32-.126.481.329.125.623-.565.623-.272.1.418.475.173.251-.424.408-.424.121.146.23.262.293.287.68-.215c.126-.125.157-.1.278.021s.047.377.366.173.455-.529.643-.529c.152,0,.152.366.356.215a.362.362,0,0,0,.068-.084c.094-.157.209-.544.439-.544.3,0,.329.277.575.277s.508.016.6-.334.095-.727.283-.534c.246.241.559.46.879.22a.911.911,0,0,0,.314-.445.238.238,0,0,0-.2-.308c-.513-.068-1.031-.115-1.549-.152-.3-.021-.606-.037-.91-.052a3.619,3.619,0,0,0-.863-.021C35.3,37.442,35.2,37.8,35.2,37.8Z"
          style="fill:#fdc41b"/>
    <path d="M20.345,29.346a4.394,4.394,0,0,1,.565.544c.2.209.4.413.612.623a12.321,12.321,0,0,0,1.611,1.909,11.7,11.7,0,0,0,1.543.774,7.777,7.777,0,0,1,1.313,1,3.749,3.749,0,0,0,2.024.857,4.246,4.246,0,0,1,1.752.178c.193.194.685.372.795.262a4.718,4.718,0,0,0,.376-.628,2.206,2.206,0,0,0-.784-.1A9.956,9.956,0,0,1,26.1,33.525a11.123,11.123,0,0,1-4.122-3.488,16.167,16.167,0,0,1-1.794-3.949c-.141-.523-.538-.523-.538.2s.387,1.3.277,1.412c-.079.084-.539-.847-.57-.915a10.468,10.468,0,0,1-.513-1.648c-.031-.131-.047-.355-.2-.408-.172-.057-.3.11-.382.241a.833.833,0,0,0-.036.518,3.592,3.592,0,0,0,.2.878c.11.3.2.591.308.889.157.461.325.916.5,1.376,0,0-.993-1.381-1.328-1.716-.115-.115-.23-.23-.356-.334-.073-.063-.3-.283-.387-.121a.279.279,0,0,0-.016.116,2.737,2.737,0,0,0,.424,1.344c.366.58,1.428,1.95,1.428,1.95s-.685-.611-1.02-.946-1.428-1.119-1.355-.6,2.15,2.364,2.317,2.651c.037.063.157.356-.036.3a.228.228,0,0,1-.115-.084,2.514,2.514,0,0,0-.4-.3.769.769,0,0,0-.35-.178c-.142,0-.33.173.01.513S20.3,32.489,20.3,32.615s-.826.031-1.051.031-.345.068-.094.215a9.887,9.887,0,0,0,1.1.329c.33.126.612.074.513.173-.079.078-.246.078-.346.089-.156.021-.355-.021-.5.016-.114.026-.094.078-.015.162.209.2,1.119.313,1.182.376s-.283.2-.377.2-.507-.021-.193.162A9,9,0,0,0,22,34.744c.026.031-.622.225-.622.329s.292.173.319.2a15.8,15.8,0,0,0,4.048,1.292,25.02,25.02,0,0,1-3.4-1.407c-.1-.2.387-.282.387-.418s-.36-.136-.69-.309-.461-.173-.34-.293.5-.11.157-.261-.759-.053-.69-.3.282-.162.224-.329-.272-.147-.324-.293c-.037-.11.036-.188-.026-.3-.142-.262-.565-.33-.811-.46a1.077,1.077,0,0,1-.356-.231c-.13-.172.3-.23.419-.224-.105-.084-1.041-.874-.806-.947a1.047,1.047,0,0,1,.309-.073c.094,0,.22.036.23-.1a.748.748,0,0,0-.11-.313c-.157-.314-.575-.848-.429-.905.173-.068.4.209.534.1.063-.047.089-.136.136-.193S20.256,29.289,20.345,29.346Z"
          style="fill:#fdc41b"/>
</svg>
