<svg xmlns="http://www.w3.org/2000/svg" viewBox="0 0 55 55"><path d="M47.677,15.853H7.327a23.291,23.291,0,0,1,40.35,0Z" style="fill:#ec1c24"/><path d="M47.677,39.153a23.3,23.3,0,0,1-40.35,0Z" style="fill:#ec1c24"/><path d="M50.8,27.5a23.168,23.168,0,0,1-3.123,11.653H7.327a23.265,23.265,0,0,1,0-23.3h40.35A23.13,23.13,0,0,1,50.8,27.5Z" style="fill:#fff"/><path d="M38.932,34.514a3.349,3.349,0,0,0-.617-.665,2.131,2.131,0,0,0-.7-.47,5.541,5.541,0,0,1-.926-.5c-.3-.184-.6-.377-.894-.576a9.8,9.8,0,0,0-.853-.6c-.22-.12-.612-.371-.413-.664a.664.664,0,0,1,.293-.215,1.434,1.434,0,0,1,.533-.193,2.042,2.042,0,0,1,.774.24c.356.121.712.236,1.072.34.163.047.408.11.408-.13a.837.837,0,0,0-.523-.738,3.252,3.252,0,0,1-.91-.711c-.444-.445-.821-1.2-1.558-1.146-.209.016-.419.068-.628.074-.157,0-.366.015-.46-.136a.394.394,0,0,1-.042-.267.513.513,0,0,1,.549-.465,6.848,6.848,0,0,0,2.265-.152c.078-.026.183-.068.215-.152.057-.136-.116-.24-.215-.293a8.038,8.038,0,0,0-1.951-.517,1.589,1.589,0,0,1-.622-.241c-.241-.188-.361-.868.115-.779a1.639,1.639,0,0,1,.3.115,2.643,2.643,0,0,0,1.115.225c.276-.006.6-.163.4-.476a.817.817,0,0,0-.236-.225c-.318-.22-.69-.351-1.009-.57-.628-.424-1.24-.869-1.857-1.3a14.438,14.438,0,0,0-1.595-.936.572.572,0,0,1-.209-.151.427.427,0,0,1-.079-.283c.011-.11.037-.392.194-.387a.26.26,0,0,1,.105.031,6.667,6.667,0,0,0,.878.356,3.087,3.087,0,0,0,.685.11c.178.01.455.057.513-.173.115-.46-.5-.68-.816-.831a1.123,1.123,0,0,1-.612-.565.209.209,0,0,1-.01-.157c.031-.078.125-.058.2-.058a1.621,1.621,0,0,0,.69-.041c.3-.136-.037-.366-.167-.5a4.787,4.787,0,0,0-.461-.408,3.791,3.791,0,0,0-1.559-.847,5.164,5.164,0,0,1-1.631-.393,3.251,3.251,0,0,1-.79-.633,3.327,3.327,0,0,1-.314-.413,5.041,5.041,0,0,1-.3-.449c-.068-.136-.162-.278-.225-.414a.947.947,0,0,0-.156-.313.066.066,0,0,0-.048-.021.052.052,0,0,0-.037.01,1.46,1.46,0,0,0-.251.361,5.7,5.7,0,0,1-.554.795c-.183.188-1.344,1.213-1.459,1.328s-.466.424-.377.513.424-.042.539.073a.3.3,0,0,1-.11.476,6.933,6.933,0,0,0-.826.439,7.782,7.782,0,0,0-.852.508.707.707,0,0,0-.194.314.168.168,0,0,0-.006.088.119.119,0,0,0,.074.068,2.482,2.482,0,0,0,.4.032.424.424,0,0,1,.225.073.751.751,0,0,1,.084.356.209.209,0,0,1-.084.125.8.8,0,0,1-.356.136c-.125.032-.251.058-.376.1a1.866,1.866,0,0,0-.225.109,1.479,1.479,0,0,0-.267.152.752.752,0,0,0-.209.35,1.086,1.086,0,0,1-.251.4,2.736,2.736,0,0,1-.643.413c-.3.162-.612.309-.926.455a2.505,2.505,0,0,0-.738.434c-.188.189-.47.717-.261.806a.808.808,0,0,0,.445-.032,4.653,4.653,0,0,1,.883-.162c.225,0,.576-.1.769.052a.892.892,0,0,1,.188.419.712.712,0,0,1-.073.716,5.389,5.389,0,0,1-1.469,1.093,3.34,3.34,0,0,0-1.057.492c-.172.173-.345.351-.518.523a1.153,1.153,0,0,1-.251.209c-.141.079-.308.11-.387.251-.6,1.036.074,1.156.586.9a6,6,0,0,1,1.166-.565.872.872,0,0,1,.6.037c.188.1.413.381.319.606-.142.34-.675.476-.978.633a2.509,2.509,0,0,0-1.01.722,4.838,4.838,0,0,1-.852.91,3.725,3.725,0,0,1-.868.638c-.173.084-.649.319-.649.549,0,.283.549.335.732.319a3.8,3.8,0,0,0,1.245-.444c.345-.152.69-.293,1.02-.471.544-.282,1.381-.853,1.992-.5a.389.389,0,0,1,.178.178c.121.256-.334.6-.5.727a4.181,4.181,0,0,1-1.193.659,14.509,14.509,0,0,1-1.507.382,1.8,1.8,0,0,0-.386.151c-.252.121-.769.231-.55.586a.856.856,0,0,0,.864.366c.444-.11.889-.209,1.333-.314a5.485,5.485,0,0,0,1.161-.313c.435-.2.837-.476,1.281-.659.523-.22,1.47-.5,1.962-.126a1.392,1.392,0,0,1,.554,1.606,6.079,6.079,0,0,1-1.417,2.05,4.438,4.438,0,0,1-1.669,1.088,3.413,3.413,0,0,0-.727.22.616.616,0,0,0-.287.742.311.311,0,0,0,.235.147.108.108,0,0,0,.11-.1c.063-.251.314-.627.669-.627a3,3,0,0,0,1.669-.288,5.855,5.855,0,0,0,1.475-.884,1.046,1.046,0,0,1,.627-.408,1.1,1.1,0,0,1,.466.084.728.728,0,0,0,.188.036c.3,0,.56-.162.873-.162a.978.978,0,0,1,.649.162c.314.283.141.665.831.968.189.078.246.34.419.45.277.178.471-.063.586-.293a.394.394,0,0,1,.319-.277,2.193,2.193,0,0,1,.957.094,2.772,2.772,0,0,1,1.1.565,2.545,2.545,0,0,1,.393.429c.094.13.182.251.366.251h.02a.389.389,0,0,0,.34-.33c.042-.314-.528-.607-.748-.753a7.383,7.383,0,0,1-1.009-.743,3.768,3.768,0,0,1-1.124-2.51,3.164,3.164,0,0,1,.088-1.062,1.829,1.829,0,0,1,.466-.936c.455-.366.994.209,1.386.366a3.557,3.557,0,0,0,1.015.215,9,9,0,0,0,1.182-.032c.292-.021.591.016.889-.031a1.381,1.381,0,0,1,.575.1,5.661,5.661,0,0,1,1.632.649,8.461,8.461,0,0,0,1.59.889.575.575,0,0,0,.523-.037.336.336,0,0,0,.141-.224A.351.351,0,0,0,38.932,34.514ZM22.74,28.394c-.13.162-.277.121-.653.262-.487.183-.534.361-.769.329a.8.8,0,0,1-.523-.429c-.016-.031-.225-.423-.053-.643.079-.1.241-.12.555-.146a4.915,4.915,0,0,1,.753,0c.622.021.717.031.774.115A.474.474,0,0,1,22.74,28.394Zm.241-3.577a.413.413,0,0,1-.21.2c-.292.125-.617-.152-.669-.189a.871.871,0,0,1-.261-.4.5.5,0,0,1,.02-.4.508.508,0,0,1,.424-.173.67.67,0,0,1,.241.058.76.76,0,0,1,.329.382C22.965,24.5,23.043,24.66,22.981,24.817Zm4.388-1.485c.062.089-.037.3-.189.408a.408.408,0,0,1-.418.052.333.333,0,0,1-.167-.324A.4.4,0,0,1,27,23.2a.673.673,0,0,1,.2.047C27.3,23.279,27.348,23.3,27.369,23.332Zm-3.29-3a.3.3,0,0,1,.3-.027c.142.079.136.288.111.4-.011.026-.069.241-.231.262-.146.021-.277-.131-.309-.272A.36.36,0,0,1,24.079,20.33Zm.246,10.993a.415.415,0,0,1-.387.267c-.183-.021-.277-.215-.408-.476a1.672,1.672,0,0,1-.147-.633c-.01-.251.053-.3.074-.319.068-.047.162-.016.245.016a.858.858,0,0,1,.372.24,1.19,1.19,0,0,1,.21.508A.676.676,0,0,1,24.325,31.323Zm.031-7.243a.544.544,0,0,1-.319.282.568.568,0,0,1-.533.01.467.467,0,0,1-.178-.34.418.418,0,0,1,.084-.287.519.519,0,0,1,.444-.147.694.694,0,0,1,.283.063.378.378,0,0,1,.224.209A.324.324,0,0,1,24.356,24.08Zm-.219-1.491c-.095-.2.1-.445.141-.5.083-.105.11-.089.6-.382.188-.115.277-.178.345-.136s.079.157.084.262a.929.929,0,0,1-.078.413.84.84,0,0,1-.79.533A.405.405,0,0,1,24.137,22.589Zm.575,4.393c-.2-.073-.194-.355-.194-.4s.006-.209.089-.251.215.078.257.12c.083.078.266.3.172.45A.275.275,0,0,1,24.712,26.982Zm.894,4.587c-.094.052-.287-.105-.387-.22a.609.609,0,0,1-.157-.5.168.168,0,0,1,.047-.1.213.213,0,0,1,.183-.016.423.423,0,0,1,.215.136.66.66,0,0,1,.157.44C25.664,31.428,25.669,31.532,25.606,31.569Zm.487-10.4a1.272,1.272,0,0,1,.481-.287.485.485,0,0,1,.11-.047.5.5,0,0,1,.481.078.426.426,0,0,1,.073.439c-.084.22-.335.278-.5.319-.236.058-.67.084-.759-.12C25.915,21.4,26.077,21.187,26.093,21.166Zm.224,5.534a.29.29,0,0,1-.287-.288.252.252,0,0,1,.434-.193.292.292,0,0,1,.084.251A.273.273,0,0,1,26.317,26.7Zm.921,4.534a.424.424,0,0,1-.408.152A.511.511,0,0,1,26.5,31.1a.6.6,0,0,1,.015-.57c.016-.026.11-.172.236-.167.052,0,.083.026.193.115.173.141.256.209.267.225A.486.486,0,0,1,27.238,31.234Zm.617-3.65a.4.4,0,0,1-.444.162c-.246-.073-.3-.424-.309-.518a.688.688,0,0,1,.031-.246c.016-.063.037-.131.053-.193a.906.906,0,0,1,.068-.2.146.146,0,0,1,.157-.079c.088.006.13.079.172.147s.079.115.115.172a1.229,1.229,0,0,1,.142.314C27.9,27.343,27.928,27.463,27.855,27.584Zm.021-6.381a.341.341,0,0,1,0-.345.333.333,0,0,1,.335-.162.294.294,0,0,1,.246.2.311.311,0,0,1-.074.251.358.358,0,0,1-.287.183A.309.309,0,0,1,27.876,21.2Zm.141,2.427a.374.374,0,0,1,.4-.434.317.317,0,0,1,.256.115c.126.178-.063.449-.078.47-.048.058-.136.183-.267.183C28.169,23.964,28.038,23.787,28.017,23.63Zm.623,4.011c-.016.016-.12.126-.225.089s-.126-.167-.136-.23c-.026-.136-.016-.377.12-.424a.245.245,0,0,1,.225.063.325.325,0,0,1,.078.12A.428.428,0,0,1,28.64,27.641Zm.455-6.265a.355.355,0,0,1-.021-.445.4.4,0,0,1,.214-.084.4.4,0,0,1,.345.037.329.329,0,0,1,.09.235.364.364,0,0,1-.053.257A.406.406,0,0,1,29.1,21.376Zm1.563,2.845a.506.506,0,0,1-.36.246.752.752,0,0,1-.623-.053c-.026-.015-.308-.2-.287-.444.031-.283.465-.4.575-.429a.568.568,0,0,1,.314-.021.575.575,0,0,1,.355.293A.49.49,0,0,1,30.658,24.221Zm.764,1.339a.438.438,0,0,1,.759.413.431.431,0,0,1-.382.293.464.464,0,0,1-.424-.372A.441.441,0,0,1,31.422,25.56Zm.847,4.346c-.12.131-.256.152-.528.209a1.025,1.025,0,0,1-.575.01c-.1-.031-.314-.094-.366-.277a.421.421,0,0,1,.1-.355c.052-.068.173-.11.4-.194a2.055,2.055,0,0,1,.439-.115c.074-.005.084,0,.167-.01.215-.032.257-.068.325-.053.146.042.2.267.2.293A.581.581,0,0,1,32.269,29.906Zm1.8.68c-.224.193-.413.35-.617.293a.542.542,0,0,1-.314-.335.644.644,0,0,1,0-.46.674.674,0,0,1,.377-.356c.12-.068.466-.246.722-.063a.492.492,0,0,1,.2.419C34.43,30.282,34.288,30.4,34.068,30.586Z" style="fill:#00a552"/></svg>