<svg xmlns="http://www.w3.org/2000/svg" viewBox="0 0 55 55"><path d="M50.8,27.5a23.283,23.283,0,0,1-.669,5.565,1.333,1.333,0,0,0-.037.151c-.167.659-.366,1.308-.591,1.946-.021.063-.037.12-.063.183a23.3,23.3,0,1,1-34.8-27.259,23.233,23.233,0,0,1,25.727,0,23.415,23.415,0,0,1,6.967,7.2c.031.042.057.089.083.131.272.444.528.9.769,1.359.037.068.068.136.1.2.172.34.34.691.5,1.041.021.047.042.1.064.147.119.272.235.543.344.821.022.057.042.12.068.177.084.225.168.45.246.68.022.058.042.115.058.173a19.851,19.851,0,0,1,.559,1.914,1.608,1.608,0,0,1,.042.162,23.573,23.573,0,0,1,.513,2.992c.005.052.01.105.01.157C50.763,25.989,50.8,26.736,50.8,27.5Z" style="fill:#feb613"/><path d="M8.337,14.263V40.737a23.245,23.245,0,0,1,0-26.474Z" style="fill:#005540"/><path d="M17.945,8.086V46.914H14.639a23.354,23.354,0,0,1-6.3-6.177V14.263a23.354,23.354,0,0,1,6.3-6.177Z" style="fill:#ff5a06"/><path d="M50.8,27.5a23.283,23.283,0,0,1-.669,5.565,1.333,1.333,0,0,0-.037.151c-.167.659-.366,1.308-.591,1.946-.021.063-.037.12-.063.183a23.353,23.353,0,0,1-9.074,11.569H20.288V8.086H40.366a23.415,23.415,0,0,1,6.967,7.2c.031.042.057.089.083.131.272.444.528.9.769,1.359.037.068.068.136.1.2.172.34.34.691.5,1.041.021.047.042.1.064.147.119.272.235.543.344.821.022.057.042.12.068.177.084.225.168.45.246.68.022.058.042.115.058.173a19.851,19.851,0,0,1,.559,1.914,1.608,1.608,0,0,1,.042.162,23.573,23.573,0,0,1,.513,2.992c.005.052.01.105.01.157C50.763,25.989,50.8,26.736,50.8,27.5Z" style="fill:#8c1f28"/><path d="M21.156,45.471c.01.047.016.094.021.136s-.021.455-.011.455a3.591,3.591,0,0,1,1.01.146,2.253,2.253,0,0,0,1.684.188,1.848,1.848,0,0,0,1.119-1.318,4.628,4.628,0,0,0,.031-.978,5.693,5.693,0,0,1,.163-1.224,8.231,8.231,0,0,0,.408-1.563,1.971,1.971,0,0,0-.021-.764,2.968,2.968,0,0,0-.314.513,3.935,3.935,0,0,1-2.1,1.338,5.841,5.841,0,0,0-1.856.733,1.406,1.406,0,0,0-.461.627,1.6,1.6,0,0,0,.089,1.067A4.666,4.666,0,0,1,21.156,45.471Z" style="fill:#feb613"/><path d="M25.628,40.512l-.047-.088-.074.062a1.105,1.105,0,0,0-.209.33,1.159,1.159,0,0,1-.115.2,3.937,3.937,0,0,1-2.065,1.312c-.137.042-.278.079-.424.126a4.005,4.005,0,0,0-1.454.622,1.466,1.466,0,0,0-.487.659,1.618,1.618,0,0,0,.089,1.119c.027.068.058.142.089.21a2.756,2.756,0,0,1,.152.423.62.62,0,0,1,.015.131v.152c-.015.35-.015.361.063.371l.235.016a2.487,2.487,0,0,1,.748.12,3.27,3.27,0,0,0,1.172.3,1.53,1.53,0,0,0,.575-.1,1.924,1.924,0,0,0,1.167-1.375,2.819,2.819,0,0,0,.036-.69c-.005-.1-.005-.2-.005-.3a5.121,5.121,0,0,1,.157-1.2,5.278,5.278,0,0,1,.167-.538,3.781,3.781,0,0,0,.246-1.046c0-.042.005-.095.01-.152A1.385,1.385,0,0,0,25.628,40.512Zm-.7,3.583c0,.11.005.214.005.314a2.457,2.457,0,0,1-.031.654,1.774,1.774,0,0,1-1.072,1.26,2.2,2.2,0,0,1-1.632-.188,2.608,2.608,0,0,0-.8-.136,1.469,1.469,0,0,1-.162-.011c0-.057,0-.151,0-.214,0-.11,0-.152,0-.173,0-.047-.01-.094-.02-.146a2.56,2.56,0,0,0-.163-.45c-.031-.073-.057-.136-.083-.2a1.447,1.447,0,0,1-.089-1.015,1.3,1.3,0,0,1,.434-.591,4.011,4.011,0,0,1,1.4-.6c.147-.042.293-.078.435-.125a4.072,4.072,0,0,0,2.139-1.365,1.847,1.847,0,0,0,.13-.23,1.393,1.393,0,0,1,.085-.163,2.127,2.127,0,0,1-.011.435,1.327,1.327,0,0,1-.011.156,3.622,3.622,0,0,1-.235,1c-.063.177-.126.366-.173.544A5.821,5.821,0,0,0,24.932,44.1Z" style="fill:#000101"/><path d="M21.156,9.529a1.24,1.24,0,0,0,.021-.136c.006-.041-.021-.455-.011-.455a3.591,3.591,0,0,0,1.01-.146A2.253,2.253,0,0,1,23.86,8.6a1.848,1.848,0,0,1,1.119,1.318,4.628,4.628,0,0,1,.031.978,5.651,5.651,0,0,0,.163,1.224,8.231,8.231,0,0,1,.408,1.563,2,2,0,0,1-.021.769,3.224,3.224,0,0,1-.314-.518,3.935,3.935,0,0,0-2.1-1.338,5.617,5.617,0,0,1-1.856-.733,1.379,1.379,0,0,1-.461-.627,1.605,1.605,0,0,1,.089-1.067A4.666,4.666,0,0,0,21.156,9.529Z" style="fill:#feb613"/><path d="M25.669,13.839c0-.057-.01-.11-.01-.152a3.823,3.823,0,0,0-.246-1.046,5.278,5.278,0,0,1-.167-.538,5.121,5.121,0,0,1-.157-1.2c0-.1,0-.2.005-.3a2.819,2.819,0,0,0-.036-.69,1.924,1.924,0,0,0-1.167-1.375,1.53,1.53,0,0,0-.575-.105,3.15,3.15,0,0,0-1.172.3,2.487,2.487,0,0,1-.748.12l-.235.016c-.078.01-.078.026-.063.371v.157a.613.613,0,0,1-.015.126,2.579,2.579,0,0,1-.152.423c-.031.068-.062.142-.089.21a1.617,1.617,0,0,0-.089,1.119,1.507,1.507,0,0,0,.487.664,4.185,4.185,0,0,0,1.454.622c.146.042.287.079.424.121a3.974,3.974,0,0,1,2.065,1.312,1.044,1.044,0,0,1,.115.2,1.144,1.144,0,0,0,.209.325l.074.062.047-.088A1.385,1.385,0,0,0,25.669,13.839Zm-.145.45c-.032-.052-.059-.115-.085-.168a1.847,1.847,0,0,0-.13-.23,4.1,4.1,0,0,0-2.139-1.365c-.142-.047-.288-.083-.435-.125a3.92,3.92,0,0,1-1.4-.6,1.265,1.265,0,0,1-.434-.591,1.448,1.448,0,0,1,.089-1.015c.026-.068.052-.131.083-.2a2.768,2.768,0,0,0,.163-.455h0c.01-.052.015-.1.02-.146,0-.021,0-.063,0-.173,0-.063,0-.157,0-.214.052-.006.11-.006.162-.011a2.465,2.465,0,0,0,.8-.136,2.2,2.2,0,0,1,1.632-.188,1.774,1.774,0,0,1,1.072,1.26,2.457,2.457,0,0,1,.031.654c0,.105-.005.2-.005.309a5.7,5.7,0,0,0,.162,1.239c.047.183.11.372.173.555a3.534,3.534,0,0,1,.235,1,1.327,1.327,0,0,1,.011.156A2.168,2.168,0,0,1,25.524,14.289Z" style="fill:#000101"/><path d="M50.125,21.935a19.851,19.851,0,0,0-.559-1.914c-.016-.058-.036-.115-.058-.173a.939.939,0,0,0-.2.3.755.755,0,0,1-.214-.466,1.073,1.073,0,0,1,.172-.513c-.026-.057-.046-.12-.068-.177-.109-.278-.225-.549-.344-.821-.022-.048-.043-.1-.064-.147a2.78,2.78,0,0,0-1.072.68,1.472,1.472,0,0,1-.544-.622.841.841,0,0,1,.016-.774.743.743,0,0,1,.649-.419,1.08,1.08,0,0,1,.455.094c-.037-.068-.068-.136-.1-.2-.241-.46-.5-.915-.769-1.359-.026-.042-.052-.089-.083-.131a3.376,3.376,0,0,0-1.653,2.06,2.809,2.809,0,0,0,.983,2.6,1.175,1.175,0,0,0-.335,1.014l.032.126c.136.6.293,1.265.674,1.265.236,0,.278-.23.319-.434s.079-.418.267-.491a3,3,0,0,1,1.459.35c.241.094.466.178.654.235a2.826,2.826,0,0,0,.434.089A1.608,1.608,0,0,0,50.125,21.935Zm.565,3.311c0-.052,0-.105-.01-.157-.173.01-.351.016-.523.016-.518,0-1.041.01-1.548.021-.183,0-.361,0-.539.01-.22,0-.445.01-.659.021a14.688,14.688,0,0,1-1.679-.011,1.2,1.2,0,0,1-.424-.094l.079-.031a.083.083,0,0,0,.047-.073c0-.006,0-.011,0-.016a.076.076,0,0,0-.047-.057,4.244,4.244,0,0,1-.3-.513,2.415,2.415,0,0,1-.163-.513c0-.01-.005-.021-.005-.041a.494.494,0,0,1-.026-.115c.021.01.042.015.063.026h0a2.167,2.167,0,0,1,.209.083c.1.053.173.084.241.037s.063-.131.042-.288a5.318,5.318,0,0,0-.163-.648,3.329,3.329,0,0,1-.146-.633.185.185,0,0,1,.094,0c.089.01.256.037.3-.157,0-.042.4-3.792-.544-4.372.031-.032.062-.068.1-.105A2.747,2.747,0,0,0,46,15.6a.133.133,0,0,0-.073-.126c-.048-.021-.178-.078-.822.565-.245.246-.4.376-.659.115a6.244,6.244,0,0,0-1.087-.832l-.021,0c-.183-.078-.554-.246-.759-.047a.625.625,0,0,0-.125.382.577.577,0,0,1-.126.366.161.161,0,0,1-.162.037.683.683,0,0,1-.382-.288,2.349,2.349,0,0,0-1.092-.649.426.426,0,0,0-.414.068.851.851,0,0,0-.162.675.6.6,0,0,1-.016.251,1.455,1.455,0,0,1-.371-.188,2.262,2.262,0,0,0-.853-.382,5.893,5.893,0,0,0-1.616.1c-.062.068-.031.189.068.45.017.042.032.084.037.1a.289.289,0,0,1-.079.272,1.265,1.265,0,0,1-.35.261,1.854,1.854,0,0,0-.173.115,1.3,1.3,0,0,1-.8.162,2.279,2.279,0,0,0-.465.032,5.773,5.773,0,0,0-.622.157,3.923,3.923,0,0,1-.811.183c-.016,0-.042,0-.068.01a.622.622,0,0,1-.157.016h0c0-.016-.005-.032-.005-.053a.583.583,0,0,1,0-.167c0-.042.005-.078.005-.12a.924.924,0,0,0-.089-.413.911.911,0,0,0-.559-.429,1.276,1.276,0,0,0-.947.083c-.67.367-.554,1.219-.476,1.564a3.744,3.744,0,0,0,.968,1.616l.125.142a9.438,9.438,0,0,0,1.7,1.521.079.079,0,0,0,.125-.062l-.042-.586c.7.549.727.549.759.549.062,0,.094,0,.245-.622.231.282.8.993,1.041,1.349a7.887,7.887,0,0,1-2.552-.617c-.4-.2-.711-.345-1.009-.466-.032-.015-.068-.026-.1-.041a1.146,1.146,0,0,0-1.014-.105.441.441,0,0,0-.246.408c.026.324.371.57.633.737a.934.934,0,0,0-.414.623c-.1.476-.344,1.208-.344,1.213a.071.071,0,0,0,.01.073.084.084,0,0,0,.068.032c.193-.011,1-.068,1.417-.131-.225.23-.392.429-.34.575a.18.18,0,0,0,.167.121,3.269,3.269,0,0,0,1.271-.241.517.517,0,0,0,.293.34.5.5,0,0,0,.409-.042A.743.743,0,0,0,35.23,24a.233.233,0,0,1,.026.042c.032.068.073.152.126.241.141.23.45.6.68.517.094-.036.125-.136.151-.235a.4.4,0,0,1,.251-.309c.2-.068.325-.036.377.016a.109.109,0,0,1,.026.12,1.7,1.7,0,0,1-.586.753,2.081,2.081,0,0,1-.324.173c-.089.042-.183.084-.267.131a4,4,0,0,0-.57.418,10.01,10.01,0,0,0-1.464,1.559,5.313,5.313,0,0,0-1.093,3.561,4.32,4.32,0,0,0,.089.581c-.712-.6-2.391-2.28-2.746-2.641a1.183,1.183,0,0,0,.3-.3,1.316,1.316,0,0,0,.131-1.171.9.9,0,0,0-1.03-.507c.021-.837.193-6.894.293-8.233q.03-.486.062-.972c.037-.544.073-1.1.121-1.658a8.586,8.586,0,0,1,.543-2.683.493.493,0,0,0,.042-.084c.126-.246.241-.492.189-.633a.131.131,0,0,0-.084-.083.257.257,0,0,0-.193.01,4.687,4.687,0,0,0-2.464,2.835,9.952,9.952,0,0,0-.392,1.255c-.8,3.269-.6,9.283-.56,10.314a.422.422,0,0,0-.125-.047.92.92,0,0,0-1.13.486,1.3,1.3,0,0,0,.131,1.171,1.731,1.731,0,0,0,1.213.644.3.3,0,0,0-.084.214.554.554,0,0,0,.064.314.392.392,0,0,0-.372.387.549.549,0,0,0,.188.492,1.631,1.631,0,0,0,.2.141.364.364,0,0,0-.147.476.728.728,0,0,0,.335.3.24.24,0,0,0-.084.058.261.261,0,0,0-.052.214.722.722,0,0,0,.45.591.067.067,0,0,0-.037.084.357.357,0,0,1-.083.335.375.375,0,0,1-.136-.063l-.032-.016c-.02-.01-.042-.026-.068-.037a.808.808,0,0,0-.266-.109.425.425,0,0,0-.445.219.594.594,0,0,0,.11.607.6.6,0,0,0,.507.256h.047c.063,0,.215-.005.256.037a.025.025,0,0,1,.011.021.545.545,0,0,1-.162.277l-.026.031c-.1.115-.2.225-.335.356a.08.08,0,0,0-.011.094l.048.089a4.791,4.791,0,0,1,.36.769c.058.167-.026.413-.235.722L26.93,36.1l-.2-.2a.393.393,0,0,0-.586.01.623.623,0,0,0-.136.309.84.84,0,0,0,.21.805,1.026,1.026,0,0,0,.408.209c.01,0,.047.011.088.021s.105.021.152.037a1.1,1.1,0,0,1-.115.125c-.037.037-.073.074-.105.11-.083.094-.162.189-.245.277a.074.074,0,0,0-.011.084c.037.089.377.168.931.215a1.1,1.1,0,0,0,.628.821H28a1.112,1.112,0,0,0,.628-.821c.555-.047.894-.126.931-.215a.1.1,0,0,0-.01-.084c-.084-.088-.163-.183-.247-.277-.031-.036-.067-.073-.1-.11s-.084-.083-.12-.125c.057-.016.115-.026.157-.037s.078-.021.083-.021a1.015,1.015,0,0,0,.413-.209.85.85,0,0,0,.209-.805.615.615,0,0,0-.136-.309.392.392,0,0,0-.585-.01l-.2.2c-.011.011-.016.021-.026.027a.927.927,0,0,1-.241-.722,5.405,5.405,0,0,1,.366-.769l.047-.089a.085.085,0,0,0-.01-.094c-.13-.131-.241-.241-.335-.356l-.026-.031a.545.545,0,0,1-.162-.277.026.026,0,0,1,.01-.021c.042-.042.194-.037.257-.037h.042a.659.659,0,0,0,.622-.863.4.4,0,0,0-.329-.219c.02-.006.046-.016.073-.027.073-.031.125-.057.167-.078a.786.786,0,0,1,.4.664,4.5,4.5,0,0,0,.414,1.758c.146.146.361-.032.5-.152a.837.837,0,0,1,.083-.068c.047.036.142.131.231.214.486.476,1.38,1.355,1.914,1.355a2.361,2.361,0,0,0,2.107-1.156c.3.194.612.366.921.528a5.432,5.432,0,0,0,1.109.429,6.737,6.737,0,0,0,.46,1.271,2.545,2.545,0,0,1,.178,2.531,1.13,1.13,0,0,1-.821.56,4.7,4.7,0,0,1-.607-.052,4.617,4.617,0,0,0-.533-.058,1.929,1.929,0,0,0-1.167.372,1.579,1.579,0,0,0-.69,1.244.507.507,0,0,0,.078.272.325.325,0,0,0,.288.157,1.431,1.431,0,0,0,.633-.246l.005-.005c.047.005.052.016.073.047.053.094.136.183.466.183a1.39,1.39,0,0,0,1.025-.319h0a.3.3,0,0,1,.068.058.344.344,0,0,0,.136.11,1.007,1.007,0,0,0,.413.041.932.932,0,0,1,.115,0c.052,0,.115,0,.183.011a1.194,1.194,0,0,0,.775-.121.938.938,0,0,0,.564.163l.157.015a1.389,1.389,0,0,0,.952-.115,1.011,1.011,0,0,0,.387-.669,1.786,1.786,0,0,0-.262-1.235A.11.11,0,0,1,40,40.235c.016-.052.141-.1.214-.136l.079-.031c.784-.309,1.758-.7,2.024-1.585a.3.3,0,0,0-.032-.261.31.31,0,0,0-.23-.11c-.052-.005-.12-.005-.193-.005-.534-.006-1.014-.042-1.014-.445a1.747,1.747,0,0,1,.219-.722.92.92,0,0,0,.042-.11c.073-.156.157-.313.235-.47.089-.173.184-.345.262-.534.026-.057.062-.13.115-.225.1-.041.2-.078.308-.12.79-.314,1.564-.675,2.312-1.02.261-.125.528-.246.8-.366a9.971,9.971,0,0,1,3.708-.894,2.542,2.542,0,0,0,.2,1.422,3.67,3.67,0,0,0,.4.722c.026-.063.042-.12.063-.183.225-.638.424-1.287.591-1.946a1.333,1.333,0,0,1,.037-.151A23.283,23.283,0,0,0,50.8,27.5C50.8,26.736,50.763,25.989,50.69,25.246ZM28.525,32.6h.141a.265.265,0,0,0,.168-.052.053.053,0,0,0,.047.026c.01.005.021.016.031.021a.576.576,0,0,0,.188.063.891.891,0,0,0-.245.1c-.027.011-.047.027-.074.037a.1.1,0,0,1-.026.016.352.352,0,0,1-.141.063A.393.393,0,0,1,28.525,32.6Z" style="fill:#feb613"/><path d="M49.508,19.848a.939.939,0,0,0-.2.3.755.755,0,0,1-.214-.466,1.073,1.073,0,0,1,.172-.513c-.026-.057-.046-.12-.068-.177a1.207,1.207,0,0,0-.261.69c0,.282.246.643.392.643a.1.1,0,0,0,.11-.089.747.747,0,0,1,.131-.214C49.55,19.963,49.53,19.906,49.508,19.848ZM47.714,18.7a1.472,1.472,0,0,1-.544-.622.841.841,0,0,1,.016-.774.743.743,0,0,1,.649-.419,1.08,1.08,0,0,1,.455.094c-.037-.068-.068-.136-.1-.2a1.185,1.185,0,0,0-.356-.047.893.893,0,0,0-.779.5,1.255,1.255,0,0,0,.481,1.538c.136.1.215.12.267.068l.006,0a2.591,2.591,0,0,1,1.046-.664c-.022-.048-.043-.1-.064-.147A2.78,2.78,0,0,0,47.714,18.7Zm2.411,3.232a2.393,2.393,0,0,1-.35-.073c-.178-.058-.4-.141-.638-.235a2.864,2.864,0,0,0-1.569-.346c-.272.1-.324.377-.372.6s-.068.308-.162.308c-.261,0-.418-.685-.528-1.145l-.026-.125A1.073,1.073,0,0,1,46.83,20a.07.07,0,0,0,.021-.063.065.065,0,0,0-.026-.057,2.737,2.737,0,0,1-.994-2.495,3.23,3.23,0,0,1,1.585-1.966c-.026-.042-.052-.089-.083-.131a3.376,3.376,0,0,0-1.653,2.06,2.809,2.809,0,0,0,.983,2.6,1.175,1.175,0,0,0-.335,1.014l.032.126c.136.6.293,1.265.674,1.265.236,0,.278-.23.319-.434s.079-.418.267-.491a3,3,0,0,1,1.459.35c.241.094.466.178.654.235a2.826,2.826,0,0,0,.434.089A1.608,1.608,0,0,0,50.125,21.935Zm-2.709,3.379c.215-.011.44-.021.654-.021.178,0,.361-.011.539-.011.507-.01,1.03-.02,1.548-.02.178,0,.361-.006.533-.016,0-.052,0-.105-.01-.157-.173.01-.351.016-.523.016-.518,0-1.041.01-1.548.021-.183,0-.361,0-.539.01-.22,0-.445.01-.659.021a14.688,14.688,0,0,1-1.679-.011,1.2,1.2,0,0,1-.424-.094l.079-.031a.083.083,0,0,0,.047-.073c0-.006,0-.011,0-.016a.076.076,0,0,0-.047-.057,4.244,4.244,0,0,1-.3-.513,2.415,2.415,0,0,1-.163-.513c0-.01-.005-.021-.005-.041a.494.494,0,0,1-.026-.115c.021.01.042.015.063.026h0a2.167,2.167,0,0,1,.209.083c.1.053.173.084.241.037s.063-.131.042-.288a5.318,5.318,0,0,0-.163-.648,3.329,3.329,0,0,1-.146-.633.185.185,0,0,1,.094,0c.089.01.256.037.3-.157,0-.042.4-3.792-.544-4.372.031-.032.062-.068.1-.105A2.747,2.747,0,0,0,46,15.6a.133.133,0,0,0-.073-.126c-.048-.021-.178-.078-.822.565-.245.246-.4.376-.659.115a6.244,6.244,0,0,0-1.087-.832l-.021,0c-.183-.078-.554-.246-.759-.047a.625.625,0,0,0-.125.382.577.577,0,0,1-.126.366.161.161,0,0,1-.162.037.683.683,0,0,1-.382-.288,2.349,2.349,0,0,0-1.092-.649.426.426,0,0,0-.414.068.851.851,0,0,0-.162.675.6.6,0,0,1-.016.251,1.455,1.455,0,0,1-.371-.188,2.262,2.262,0,0,0-.853-.382,5.893,5.893,0,0,0-1.616.1c-.062.068-.031.189.068.45.017.042.032.084.037.1a.289.289,0,0,1-.079.272,1.265,1.265,0,0,1-.35.261,1.854,1.854,0,0,0-.173.115,1.3,1.3,0,0,1-.8.162,2.279,2.279,0,0,0-.465.032,5.773,5.773,0,0,0-.622.157,3.923,3.923,0,0,1-.811.183c-.016,0-.042,0-.068.01a.622.622,0,0,1-.157.016h0c0-.016-.005-.032-.005-.053a.583.583,0,0,1,0-.167c0-.042.005-.078.005-.12a.924.924,0,0,0-.089-.413.911.911,0,0,0-.559-.429,1.276,1.276,0,0,0-.947.083c-.67.367-.554,1.219-.476,1.564a3.744,3.744,0,0,0,.968,1.616l.125.142a9.438,9.438,0,0,0,1.7,1.521.079.079,0,0,0,.125-.062l-.042-.586c.7.549.727.549.759.549.062,0,.094,0,.245-.622.231.282.8.993,1.041,1.349a7.887,7.887,0,0,1-2.552-.617c-.4-.2-.711-.345-1.009-.466-.032-.015-.068-.026-.1-.041a1.146,1.146,0,0,0-1.014-.105.441.441,0,0,0-.246.408c.026.324.371.57.633.737a.934.934,0,0,0-.414.623c-.1.476-.344,1.208-.344,1.213a.071.071,0,0,0,.01.073.084.084,0,0,0,.068.032c.193-.011,1-.068,1.417-.131-.225.23-.392.429-.34.575a.18.18,0,0,0,.167.121,3.269,3.269,0,0,0,1.271-.241.517.517,0,0,0,.293.34.5.5,0,0,0,.409-.042A.743.743,0,0,0,35.23,24a.233.233,0,0,1,.026.042c.032.068.073.152.126.241.141.23.45.6.68.517.094-.036.125-.136.151-.235a.4.4,0,0,1,.251-.309c.2-.068.325-.036.377.016a.109.109,0,0,1,.026.12,1.7,1.7,0,0,1-.586.753,2.081,2.081,0,0,1-.324.173c-.089.042-.183.084-.267.131a4,4,0,0,0-.57.418,10.01,10.01,0,0,0-1.464,1.559,5.313,5.313,0,0,0-1.093,3.561,4.32,4.32,0,0,0,.089.581c-.712-.6-2.391-2.28-2.746-2.641a1.183,1.183,0,0,0,.3-.3,1.316,1.316,0,0,0,.131-1.171.9.9,0,0,0-1.03-.507c.021-.837.193-6.894.293-8.233q.03-.486.062-.972c.037-.544.073-1.1.121-1.658a8.586,8.586,0,0,1,.543-2.683.493.493,0,0,0,.042-.084c.126-.246.241-.492.189-.633a.131.131,0,0,0-.084-.083.257.257,0,0,0-.193.01,4.687,4.687,0,0,0-2.464,2.835,9.952,9.952,0,0,0-.392,1.255c-.8,3.269-.6,9.283-.56,10.314a.422.422,0,0,0-.125-.047.92.92,0,0,0-1.13.486,1.3,1.3,0,0,0,.131,1.171,1.731,1.731,0,0,0,1.213.644.3.3,0,0,0-.084.214.554.554,0,0,0,.064.314.392.392,0,0,0-.372.387.549.549,0,0,0,.188.492,1.631,1.631,0,0,0,.2.141.364.364,0,0,0-.147.476.728.728,0,0,0,.335.3.24.24,0,0,0-.084.058.261.261,0,0,0-.052.214.722.722,0,0,0,.45.591.067.067,0,0,0-.037.084.357.357,0,0,1-.083.335.375.375,0,0,1-.136-.063l-.032-.016c-.02-.01-.042-.026-.068-.037a.808.808,0,0,0-.266-.109.425.425,0,0,0-.445.219.594.594,0,0,0,.11.607.6.6,0,0,0,.507.256h.047c.063,0,.215-.005.256.037a.025.025,0,0,1,.011.021.545.545,0,0,1-.162.277l-.026.031c-.1.115-.2.225-.335.356a.08.08,0,0,0-.011.094l.048.089a4.791,4.791,0,0,1,.36.769c.058.167-.026.413-.235.722L26.93,36.1l-.2-.2a.393.393,0,0,0-.586.01.623.623,0,0,0-.136.309.84.84,0,0,0,.21.805,1.026,1.026,0,0,0,.408.209c.01,0,.047.011.088.021s.105.021.152.037a1.1,1.1,0,0,1-.115.125c-.037.037-.073.074-.105.11-.083.094-.162.189-.245.277a.074.074,0,0,0-.011.084c.037.089.377.168.931.215a1.1,1.1,0,0,0,.628.821H28a1.112,1.112,0,0,0,.628-.821c.555-.047.894-.126.931-.215a.1.1,0,0,0-.01-.084c-.084-.088-.163-.183-.247-.277-.031-.036-.067-.073-.1-.11s-.084-.083-.12-.125c.057-.016.115-.026.157-.037s.078-.021.083-.021a1.015,1.015,0,0,0,.413-.209.85.85,0,0,0,.209-.805.615.615,0,0,0-.136-.309.392.392,0,0,0-.585-.01l-.2.2c-.011.011-.016.021-.026.027a.927.927,0,0,1-.241-.722,5.405,5.405,0,0,1,.366-.769l.047-.089a.085.085,0,0,0-.01-.094c-.13-.131-.241-.241-.335-.356l-.026-.031a.545.545,0,0,1-.162-.277.026.026,0,0,1,.01-.021c.042-.042.194-.037.257-.037h.042a.659.659,0,0,0,.622-.863.4.4,0,0,0-.329-.219c.02-.006.046-.016.073-.027.073-.031.125-.057.167-.078a.786.786,0,0,1,.4.664,4.5,4.5,0,0,0,.414,1.758c.146.146.361-.032.5-.152a.837.837,0,0,1,.083-.068c.047.036.142.131.231.214.486.476,1.38,1.355,1.914,1.355a2.361,2.361,0,0,0,2.107-1.156c.3.194.612.366.921.528a5.432,5.432,0,0,0,1.109.429,6.737,6.737,0,0,0,.46,1.271,2.545,2.545,0,0,1,.178,2.531,1.13,1.13,0,0,1-.821.56,4.7,4.7,0,0,1-.607-.052,4.617,4.617,0,0,0-.533-.058,1.929,1.929,0,0,0-1.167.372,1.579,1.579,0,0,0-.69,1.244.507.507,0,0,0,.078.272.325.325,0,0,0,.288.157,1.431,1.431,0,0,0,.633-.246l.005-.005c.047.005.052.016.073.047.053.094.136.183.466.183a1.39,1.39,0,0,0,1.025-.319h0a.3.3,0,0,1,.068.058.344.344,0,0,0,.136.11,1.007,1.007,0,0,0,.413.041.932.932,0,0,1,.115,0c.052,0,.115,0,.183.011a1.194,1.194,0,0,0,.775-.121.938.938,0,0,0,.564.163l.157.015a1.389,1.389,0,0,0,.952-.115,1.011,1.011,0,0,0,.387-.669,1.786,1.786,0,0,0-.262-1.235A.11.11,0,0,1,40,40.235c.016-.052.141-.1.214-.136l.079-.031c.784-.309,1.758-.7,2.024-1.585a.3.3,0,0,0-.032-.261.31.31,0,0,0-.23-.11c-.052-.005-.12-.005-.193-.005-.534-.006-1.014-.042-1.014-.445a1.747,1.747,0,0,1,.219-.722.92.92,0,0,0,.042-.11c.073-.156.157-.313.235-.47.089-.173.184-.345.262-.534.026-.057.062-.13.115-.225.1-.041.2-.078.308-.12.79-.314,1.564-.675,2.312-1.02.261-.125.528-.246.8-.366a9.971,9.971,0,0,1,3.708-.894,2.542,2.542,0,0,0,.2,1.422,3.67,3.67,0,0,0,.4.722c.026-.063.042-.12.063-.183a4.1,4.1,0,0,1-.319-.6,2.387,2.387,0,0,1-.177-1.37c.062-.006.13-.006.193-.006l.057,0a6.607,6.607,0,0,1,.837.031,1.333,1.333,0,0,1,.037-.151,5.5,5.5,0,0,0-.874-.032h-.063a10.315,10.315,0,0,0-4.126.921c-.262.12-.528.241-.79.366-.748.345-1.522.706-2.306,1.015-.047.021-.095.041-.142.057.021-.042.047-.083.068-.125a8.2,8.2,0,0,0,1.256-3.787c0-.125-.005-.251-.016-.376a.073.073,0,0,0-.084-.068.078.078,0,0,0-.073.073s0,0,0,.01c.011.121.016.241.016.361a8.037,8.037,0,0,1-1.24,3.713c-.062.116-.12.215-.172.309-.058.115-.1.2-.126.267-.073.178-.167.35-.256.523-.084.157-.167.314-.241.476-.015.036-.026.068-.041.1a1.919,1.919,0,0,0-.231.79c0,.591.728.6,1.167.6.068,0,.136,0,.189,0a.145.145,0,0,1,.109.047.142.142,0,0,1,.01.125c-.245.811-1.182,1.188-1.935,1.486l-.073.031c-.126.047-.277.11-.314.235a.267.267,0,0,0,.053.225,1.642,1.642,0,0,1,.24,1.12.859.859,0,0,1-.324.564,1.277,1.277,0,0,1-.847.1,1.505,1.505,0,0,0-.162-.016c-.435-.037-.477-.131-.477-.131a.08.08,0,0,0-.041-.084.076.076,0,0,0-.1.027s-.015.02-.036.041c-.136.131-.455.115-.691.1-.067-.005-.13-.011-.183-.011s-.083.006-.125.006A.95.95,0,0,1,36.8,42.1a.306.306,0,0,1-.083-.073.263.263,0,0,0-.178-.11.152.152,0,0,0-.11.047,1.251,1.251,0,0,1-.915.272c-.272,0-.3-.057-.335-.1a.223.223,0,0,0-.225-.126.067.067,0,0,0-.042.016l-.021.016c-.287.172-.6.324-.711.141a.5.5,0,0,1-.057-.2,1.435,1.435,0,0,1,.632-1.109,1.726,1.726,0,0,1,1.068-.34c.167.005.344.032.517.052a4.039,4.039,0,0,0,.628.058,1.271,1.271,0,0,0,.952-.633,2.7,2.7,0,0,0-.168-2.683,6.7,6.7,0,0,1-.465-1.287,8.1,8.1,0,0,1-.241-2.013,7.719,7.719,0,0,1,.126-1.444.018.018,0,0,0,0-.015.084.084,0,0,0-.063-.079.078.078,0,0,0-.094.058,7.857,7.857,0,0,0-.131,1.48,8.379,8.379,0,0,0,.22,1.925,5.045,5.045,0,0,1-.994-.4,6.382,6.382,0,0,1-1.679-1.13,6.015,6.015,0,0,1-1.726-3.441,5.168,5.168,0,0,1,1.067-3.457,9.483,9.483,0,0,1,1.439-1.538,3.791,3.791,0,0,1,.554-.4,2.168,2.168,0,0,1,.246-.126,1.706,1.706,0,0,0,.35-.188,1.826,1.826,0,0,0,.644-.826.268.268,0,0,0-.063-.283.513.513,0,0,0-.534-.052.532.532,0,0,0-.35.413c-.021.063-.037.12-.063.131-.078.031-.308-.157-.486-.455-.053-.084-.094-.162-.126-.225-.063-.131-.1-.2-.178-.194s-.089.079-.1.105a.493.493,0,0,1-.246.225.364.364,0,0,1-.282.037.387.387,0,0,1-.209-.262c-.021-.058-.037-.1-.089-.11a.083.083,0,0,0-.068.016,3.292,3.292,0,0,1-1.235.246.186.186,0,0,1-.041-.011c-.016-.042.041-.151.371-.481.115-.12.152-.157.11-.22a.087.087,0,0,0-.115-.021,12.577,12.577,0,0,1-1.491.163c.073-.225.235-.754.319-1.12a.7.7,0,0,1,.445-.57v0h.01a3.9,3.9,0,0,1,.863.267,9.865,9.865,0,0,0,1.574.277c.3.037.576.073.649.094-.005,0-.016.011-.021.016-.026.026-.183.24-.126.376a.167.167,0,0,0,.168.1,4.309,4.309,0,0,1,.444.042c.795.083,1.094.1,1.177.021.1-.11-.005-.356-.272-.863-.047-.089-.089-.168-.12-.236-.152-.3-1.219-1.611-1.26-1.663a.07.07,0,0,0-.079-.026.082.082,0,0,0-.063.052c-.052.241-.12.508-.162.628-.136-.1-.465-.356-.764-.591a.069.069,0,0,0-.083,0,.077.077,0,0,0-.042.073l.042.591a8.986,8.986,0,0,1-1.533-1.4c-.041-.052-.083-.094-.125-.146a3.511,3.511,0,0,1-.936-1.548c-.073-.309-.178-1.073.4-1.392a1.118,1.118,0,0,1,.825-.068.771.771,0,0,1,.471.351.7.7,0,0,1,.068.34.855.855,0,0,1,0,.11.87.87,0,0,0,0,.2.1.1,0,0,1,0,.036c0,.068.026.094.084.126a.451.451,0,0,0,.256.005.3.3,0,0,1,.058-.011,4.417,4.417,0,0,0,.842-.188,4.609,4.609,0,0,1,.6-.157,2.472,2.472,0,0,1,.445-.026,1.435,1.435,0,0,0,.878-.193c.047-.032.105-.068.168-.105a1.707,1.707,0,0,0,.387-.3.46.46,0,0,0,.11-.408c-.006-.021-.021-.058-.042-.12a1.22,1.22,0,0,1-.089-.278A7.667,7.667,0,0,1,38.86,15.7a2.194,2.194,0,0,1,.789.356c.272.167.45.277.555.172.078-.078.073-.214.068-.376a.716.716,0,0,1,.115-.555.258.258,0,0,1,.209-.036,2.452,2.452,0,0,1,1.041.559.813.813,0,0,0,.492.387.306.306,0,0,0,.308-.078.7.7,0,0,0,.167-.46.511.511,0,0,1,.084-.283c.126-.131.45.011.586.073l.016.006a5.693,5.693,0,0,1,1.046.8.483.483,0,0,0,.5.172,1.122,1.122,0,0,0,.382-.287,3.181,3.181,0,0,1,.628-.523,2.6,2.6,0,0,1-.858,1.9,1.908,1.908,0,0,0-.178.194.062.062,0,0,0-.01.068.079.079,0,0,0,.047.052c.879.3.617,3.881.544,4.236-.011.047-.021.058-.131.042a.22.22,0,0,0-.057,0,1.065,1.065,0,0,1-.257-.225c-.115-.12-.24-.267-.334-.371-.121-.136-.236-.267-.314-.351a1.491,1.491,0,0,1-.324-.7c-.032-.116-.063-.231-.1-.356-.11-.319-.288-.528-.4-.549a.094.094,0,0,0-.1.031.2.2,0,0,0,0,.194,3.96,3.96,0,0,1-.016,1.192c-.136-.115-.423-.387-.685-.638a.082.082,0,0,0-.11,0,.081.081,0,0,0,.006.11c.748.727.789.727.831.727a.092.092,0,0,0,.069-.037,3.891,3.891,0,0,0,.072-1.338,1.256,1.256,0,0,1,.183.355c.037.12.068.23.1.345a1.575,1.575,0,0,0,.361.769c.078.079.188.209.309.34a5.436,5.436,0,0,0,.528.56.112.112,0,0,0-.021.036,1.7,1.7,0,0,0,.136.738,4.371,4.371,0,0,1,.157.622.751.751,0,0,1,.01.126.524.524,0,0,0-.073-.032,1.516,1.516,0,0,0-.225-.094.119.119,0,0,1-.026-.015c-.021-.006-.042-.016-.063-.021a6.209,6.209,0,0,1-1.041-.863c-.465-.445-.6-.555-.7-.529a.108.108,0,0,0-.068.074c-.032.1-.183.219-.277.287-.5-.5-.534-.465-.591-.429-.042.032-.042.084-.006.147a.272.272,0,0,1-.026.183,1.317,1.317,0,0,1-.35.481c-.141-.152-.691-.743-.7-.753a.08.08,0,0,0-.109,0,.076.076,0,0,0-.006.11c.026.031.654.716.727.784.031.031.089.052.183-.016a1.337,1.337,0,0,0,.439-.7c.1.088.246.224.367.35a.072.072,0,0,0,.094.01,1.055,1.055,0,0,0,.376-.35,4.674,4.674,0,0,1,.529.471,7.766,7.766,0,0,0,.962.821.711.711,0,0,0,.036.235.254.254,0,0,0,.006.037,2.443,2.443,0,0,0,.172.544c.016.026.09.172.168.308a1.724,1.724,0,0,0,.11.189c-.027.01-.058.026-.089.041a4.858,4.858,0,0,1-.633-.052c-.267-.036-.7-.518-.989-.837s-.382-.413-.465-.392a.087.087,0,0,0-.073.068.894.894,0,0,0-.037.178c-.026.157-.068.382-.162.45a.109.109,0,0,1-.089.01,2.45,2.45,0,0,1-.632-.523c-.336-.34-.54-.544-.66-.418l-.037.031a1.6,1.6,0,0,1-.219.194v-.021c0-.278-.638-.869-.81-.869a.109.109,0,0,0-.111.11,1.993,1.993,0,0,1-.35.665,8.123,8.123,0,0,1-.816-1.057.077.077,0,0,0-.11-.021.076.076,0,0,0-.016.105c.346.512.8,1.129.947,1.145a.116.116,0,0,0,.079-.031,2.269,2.269,0,0,0,.413-.743c.178.089.617.528.617.7a.172.172,0,0,0,.089.177c.11.042.235-.073.4-.24l.021-.016a2.686,2.686,0,0,1,.455.4,2.175,2.175,0,0,0,.712.57.267.267,0,0,0,.209-.037c.146-.1.188-.35.225-.549.005-.026.011-.058.015-.084.068.063.189.2.293.309.34.376.764.842,1.083.884a5.238,5.238,0,0,0,.627.057h.021a.835.835,0,0,0,.288.131c.272.23.476.387.617.5.068.052.136.105.178.136a.576.576,0,0,1-.1.021c-.068.016-.163.031-.267.057a2.359,2.359,0,0,1-.628.037.794.794,0,0,0-.6.115.629.629,0,0,0-.146.471,5.4,5.4,0,0,0,.041.591,1.784,1.784,0,0,1,.011.272,1.043,1.043,0,0,1-.194-.094,4.215,4.215,0,0,1-.455-.319c-.324-.246-.606-.466-.81-.414a.25.25,0,0,0-.162.147c-.178.392-.712,1.041-.832,1.009,0,0-.02-.021-.02-.125a2.437,2.437,0,0,0-1.021-1.674.178.178,0,0,0-.214.1,3.8,3.8,0,0,1-.612.857c-.063-.245-.35-.774-.534-.789-.031-.006-.125,0-.151.141a3.224,3.224,0,0,1-.487.873c-.188-1.14-.235-1.14-.313-1.135s-.084.105-.084.189c0,.392-.7,1.03-.952,1.192-.005-1.056-.141-1.114-.188-1.135a.121.121,0,0,0-.136.037,1.863,1.863,0,0,1-.874.293c.037-.162.236-.743.429-1.266a.08.08,0,0,0-.152-.052c-.068.2-.439,1.208-.439,1.349a.118.118,0,0,0,.079.105,1.707,1.707,0,0,0,1.04-.3,4.046,4.046,0,0,1,.089,1.066.081.081,0,0,0,.026.068.088.088,0,0,0,.063.021,2.64,2.64,0,0,0,1.125-1.155c.047.245.11.6.162.925a.079.079,0,0,0,.058.063.075.075,0,0,0,.083-.026,4.019,4.019,0,0,0,.622-1.083v-.01a1.6,1.6,0,0,1,.387.711.112.112,0,0,0,.079.11c.193.042.722-.764.821-.989.01-.021.016-.021.037-.015a2.319,2.319,0,0,1,.9,1.522c0,.162.048.256.142.277h.031c.3,0,.863-.853.973-1.1a.085.085,0,0,1,.057-.058c.131-.031.424.188.68.387a5.608,5.608,0,0,0,.471.33c.167.094.277.141.361.088s.078-.188.053-.418a4.99,4.99,0,0,1-.037-.575.5.5,0,0,1,.094-.356c.094-.089.266-.084.486-.073a2.5,2.5,0,0,0,.669-.042c.1-.026.194-.042.262-.058.157-.031.241-.047.256-.12.021-.089-.047-.141-.272-.308-.1-.079-.24-.183-.412-.325h0A15.305,15.305,0,0,0,47.416,25.314ZM27.578,16.736a9.67,9.67,0,0,1,.387-1.234,4.539,4.539,0,0,1,2.375-2.746c.016-.005.057-.021.073-.015.021.031,0,.146-.178.5l-.047.094a8.645,8.645,0,0,0-.559,2.73c-.047.554-.084,1.119-.121,1.663-.021.324-.036.649-.062.973-.1,1.365-.278,7.62-.293,8.279a.619.619,0,0,0-.4.45.576.576,0,0,0,.1.56.017.017,0,0,1,.006.015.1.1,0,0,1-.032.089c-.146.168-.664.215-.847.22a1.571,1.571,0,0,1-.847-.22.114.114,0,0,1-.036-.089c0-.005,0-.01.01-.015a.576.576,0,0,0,.1-.56.711.711,0,0,0-.173-.309C27,26.616,26.742,20.157,27.578,16.736Zm-1.71,11.8a1.153,1.153,0,0,1-.115-1.026.766.766,0,0,1,.952-.392.461.461,0,0,1,.345.356.435.435,0,0,1-.057.408.167.167,0,0,0-.053.12.267.267,0,0,0,.074.2c.219.24.883.267.962.272s.743-.032.962-.272a.259.259,0,0,0,.073-.2.189.189,0,0,0-.052-.12.437.437,0,0,1-.063-.408.481.481,0,0,1,.351-.356.752.752,0,0,1,.946.392,1.132,1.132,0,0,1-.109,1.026c-.319.46-1.031.669-2.113.627-.131,0-.257,0-.377,0-.031,0-.068,0-.11,0A1.971,1.971,0,0,1,25.868,28.536Zm2.976,1.443a.274.274,0,0,1,.037.068v0l-.026.089a1.566,1.566,0,0,1-.152.063.658.658,0,0,0-.073.026,1.1,1.1,0,0,1-.461-.068c-.2-.073-.418-.146-.632-.209-.173-.063-.309-.126-.366-.152-.11-.063-.142-.089-.142-.319a.152.152,0,0,1,.042-.11.23.23,0,0,1,.152-.047h.021c.083,0,.162,0,.235,0a.877.877,0,0,1,.115,0A1.406,1.406,0,0,1,28.844,29.979Zm-1.993.575c-.125-.1-.13-.2-.13-.371,0-.2.2-.23.261-.235.152.042.33.1.523.162s.419.146.623.2a3.711,3.711,0,0,1,.57.251c.057.041.125.1.115.167-.011.084-.115.173-.251.22a.783.783,0,0,1-.272.01l-.032,0c-.172-.016-.345-.042-.491-.068-.1-.021-.2-.042-.3-.058-.068-.015-.136-.031-.2-.042A1.037,1.037,0,0,1,26.851,30.554Zm.085.665c-.069-.126.052-.231.1-.272.387.047,1.354.188,1.359.188a.931.931,0,0,1,.513.324c.026.042.052.1.031.141-.036.058-.178.095-.361.095a8.635,8.635,0,0,1-1.051-.147l-.094-.016A.713.713,0,0,1,26.936,31.219Zm2.107-1.177a.247.247,0,0,1,.037-.094,2.3,2.3,0,0,1,.585-.4c.043.01.1.021.11.042,0,0,.011.036-.037.136a1.6,1.6,0,0,1-.319.4l-.036.037c-.12.12-.256.256-.408.225a.023.023,0,0,1-.016-.005c0-.006,0-.016,0-.053l.027-.089a.392.392,0,0,0,.052-.078A.224.224,0,0,0,29.043,30.042Zm.031,1.632a.27.27,0,0,0-.036-.293c-.01-.016-.021-.032-.032-.047a.392.392,0,0,0,.042.015.091.091,0,0,0,.042.006.464.464,0,0,0,.23-.11,2.115,2.115,0,0,0,.34-.319.471.471,0,0,1-.042.58,3.273,3.273,0,0,0-.24.262c-.136.162-.189.219-.283.2a.361.361,0,0,1-.209-.162A.321.321,0,0,0,29.074,31.674Zm-1.919.172a.109.109,0,0,1,.016-.089.117.117,0,0,1,.083-.031,4.943,4.943,0,0,1,.9.12c.125.032.246.058.361.1a.442.442,0,0,1,.235.235.239.239,0,0,1,.016.22c-.006.01-.026.047-.1.047h-.011a1.481,1.481,0,0,0-.168-.006C27.955,32.437,27.238,32.432,27.155,31.846Zm1.679.7a.053.053,0,0,0,.047.026c.01.005.021.016.031.021a.576.576,0,0,0,.188.063.891.891,0,0,0-.245.1c-.027.011-.047.027-.074.037a.1.1,0,0,1-.026.016.352.352,0,0,1-.141.063.393.393,0,0,1-.089-.278h.141A.265.265,0,0,0,28.834,32.547Zm.591.387a.468.468,0,0,1-.089.45.459.459,0,0,1-.392.2h-.037a.5.5,0,0,0-.371.078.173.173,0,0,0-.053.131.638.638,0,0,0,.194.376l.026.032a3.455,3.455,0,0,0,.3.324l-.021.042a5.261,5.261,0,0,0-.376.795,1.057,1.057,0,0,0,.262.863.169.169,0,0,0,.114.083.143.143,0,0,0,.121-.068c.01,0,.015-.015.026-.026l.2-.2a.243.243,0,0,1,.188-.079.216.216,0,0,1,.167.084.394.394,0,0,1,.1.23.675.675,0,0,1-.157.664.862.862,0,0,1-.346.173.793.793,0,0,0-.083.021c-.3.073-.3.073-.319.109a.077.077,0,0,0,0,.074,1.434,1.434,0,0,0,.2.24l.1.1c.058.073.115.136.173.2a4.074,4.074,0,0,1-.8.125.071.071,0,0,0-.068.063,1.015,1.015,0,0,1-.518.748,1.025,1.025,0,0,1-.517-.748.069.069,0,0,0-.069-.063,4.08,4.08,0,0,1-.8-.125c.062-.068.12-.131.178-.2l.1-.1a1.389,1.389,0,0,0,.2-.24.09.09,0,0,0,.005-.074c-.016-.036-.016-.036-.319-.109a.73.73,0,0,0-.084-.021.864.864,0,0,1-.345-.173.675.675,0,0,1-.157-.664.467.467,0,0,1,.094-.23.237.237,0,0,1,.173-.084.254.254,0,0,1,.189.079l.2.2c.011.011.016.021.026.026.032.037.063.074.121.068a.176.176,0,0,0,.115-.083c.245-.361.334-.644.256-.863a4.425,4.425,0,0,0-.371-.795l-.021-.042a3.455,3.455,0,0,0,.3-.324l.026-.032a.638.638,0,0,0,.194-.376.173.173,0,0,0-.053-.131.511.511,0,0,0-.371-.078h-.037a.448.448,0,0,1-.392-.2.468.468,0,0,1-.089-.45.265.265,0,0,1,.277-.125.609.609,0,0,1,.22.088.7.7,0,0,0,.073.042.086.086,0,0,1,.026.011c.084.052.231.13.314.047a.535.535,0,0,0,.131-.5,0,0,0,0,1-.005-.005,2.842,2.842,0,0,0,.81.1.522.522,0,0,0,.142.4c.083.083.23.005.319-.047a.039.039,0,0,1,.021-.011c.026-.015.047-.026.073-.042a.612.612,0,0,1,.219-.088A.268.268,0,0,1,29.425,32.934Zm-.178-.45a.249.249,0,0,1-.256-.026.156.156,0,0,0-.068-.031.424.424,0,0,0-.037-.319.7.7,0,0,0-.214-.262.206.206,0,0,0,.052,0,.53.53,0,0,0,.345.282.225.225,0,0,0,.063.006c.151,0,.24-.115.366-.262.042-.047.084-.1.131-.152a.825.825,0,0,1,.036.084.911.911,0,0,1-.136.46C29.456,32.39,29.446,32.4,29.247,32.484Zm3.473-.659a6.652,6.652,0,0,0,1.61,2.7,4.5,4.5,0,0,0,.665.549,2.193,2.193,0,0,1-1.977,1.083c-.471,0-1.371-.884-1.8-1.308-.261-.256-.282-.271-.334-.271s-.1.036-.189.115c-.068.057-.25.209-.287.167a4.636,4.636,0,0,1-.377-1.653.951.951,0,0,0-.423-.774c.02-.026.036-.057.062-.1a.99.99,0,0,0,.147-.586,1.029,1.029,0,0,0-.068-.157.637.637,0,0,0,.036-.774.1.1,0,0,0-.031-.021.233.233,0,0,0,.037-.084c.062-.219.125-.455.015-.564a.077.077,0,1,0-.11.109c.017.016.042.084-.052.414a1.416,1.416,0,0,1-.413.444c-.1.073-.131.084-.136.079s-.016-.006-.047-.068a.6.6,0,0,1,.078-.434l.523-.529a.066.066,0,0,0,.021-.078,1.337,1.337,0,0,0,.209-.293.314.314,0,0,0,.043-.277.285.285,0,0,0-.215-.126c-.183-.042-.727.44-.732.44a.226.226,0,0,0-.016.026,1.419,1.419,0,0,0-.643-.534,3.078,3.078,0,0,0,1.459-.314C30.1,29.346,32.1,31.36,32.72,31.825Zm4.194-9.649a2.654,2.654,0,0,1,.293.68,6.656,6.656,0,0,1-1.046-.068c-.209-.021-.382-.042-.46-.042-.016,0-.021,0-.021,0-.016-.042.052-.173.089-.209.005-.006.01-.006.021-.011.037-.026.1-.068.089-.141s-.1-.11-.142-.12a5.963,5.963,0,0,0-.685-.105A10.108,10.108,0,0,1,33.52,21.9a3.681,3.681,0,0,0-.926-.278h-.01l-.006,0c-.235-.146-.627-.392-.653-.68a.3.3,0,0,1,.167-.261c.256-.147.6,0,.873.115.038.015.074.031.1.042.293.12.6.266,1,.465a8.322,8.322,0,0,0,2.72.643Z" style="fill:#000101"/><path d="M37.725,19.116a.476.476,0,0,0,.371-.167.468.468,0,0,0,.1-.4.456.456,0,0,0-.283-.313.076.076,0,1,0-.057.141.311.311,0,0,1,.188.209.3.3,0,0,1-.068.261.376.376,0,0,1-.408.084c-.1-.036-.335-.136-.335-.319a.758.758,0,0,1,.188-.5.456.456,0,0,1,.529-.1,2.274,2.274,0,0,1,.392.188c.063.031.125.068.188.1.23.115.413.2.592.272a3.607,3.607,0,0,0,1.385.335h.173a.09.09,0,0,0,.068-.052.076.076,0,0,0-.021-.084l-.052-.052a2.467,2.467,0,0,1-.45-.534,3.383,3.383,0,0,0,2.463.351.087.087,0,0,0,.058-.053.075.075,0,0,0-.011-.073,2.349,2.349,0,0,0-.345-.34,1.688,1.688,0,0,1-.335-.335,4.134,4.134,0,0,0,2.652-.774.075.075,0,0,0,.005-.109.08.08,0,0,0-.11-.011,4.072,4.072,0,0,1-2.688.743.064.064,0,0,0-.063.036.078.078,0,0,0-.005.074,1.72,1.72,0,0,0,.439.5,1.849,1.849,0,0,1,.241.22,3.079,3.079,0,0,1-2.406-.486.081.081,0,0,0-.089-.006.078.078,0,0,0-.036.079,1.52,1.52,0,0,0,.5.753,3.535,3.535,0,0,1-1.313-.319c-.173-.073-.356-.157-.576-.267-.062-.031-.125-.068-.188-.1a2.313,2.313,0,0,0-.413-.2.619.619,0,0,0-.7.141.926.926,0,0,0-.23.607c0,.2.163.371.44.466A.8.8,0,0,0,37.725,19.116Z" style="fill:#000101"/><path d="M42.306,20.058a.08.08,0,0,0-.078.078,1.589,1.589,0,0,1-.319.764,3.261,3.261,0,0,1-.46-.555.077.077,0,0,0-.089-.031.073.073,0,0,0-.053.073.972.972,0,0,1-.245.607l-.257-.256a.078.078,0,0,0-.083-.016.08.08,0,0,0-.047.073,1.754,1.754,0,0,1-.115.774,2.736,2.736,0,0,1-.758-.716.076.076,0,0,0-.085-.027.081.081,0,0,0-.052.068,3.27,3.27,0,0,1-.382.659,1.466,1.466,0,0,1-.8-.883.083.083,0,0,0-.1-.058.08.08,0,0,0-.053.094,1.6,1.6,0,0,0,.952,1.015.047.047,0,0,0,.026,0,.069.069,0,0,0,.063-.031,6.024,6.024,0,0,0,.387-.644c.209.241.612.675.8.675.2,0,.251-.408.266-.748l.183.183a.074.074,0,0,0,.1,0,1.189,1.189,0,0,0,.324-.559,3.783,3.783,0,0,0,.429.475.075.075,0,0,0,.058.016.063.063,0,0,0,.052-.026,1.879,1.879,0,0,0,.408-.931A.08.08,0,0,0,42.306,20.058Z" style="fill:#000101"/><path d="M38.457,23.938c-.021,0-.078-.01-.115.074a4.948,4.948,0,0,1-.544.664l-.188-.753a.078.078,0,1,0-.152.036l.22.895a.082.082,0,0,0,.057.052.064.064,0,0,0,.073-.021,6.964,6.964,0,0,0,.612-.706,6.244,6.244,0,0,1,.058.654.087.087,0,0,0,.078.089c.131.031.581-.309.717-.612.063.005.246.136.811.92a1.48,1.48,0,0,0,.1.136.107.107,0,0,0,.063.026.079.079,0,0,0,.036,0,2.4,2.4,0,0,0,.429-.973,6.935,6.935,0,0,1,.952.848.178.178,0,0,0,.194.052c.125-.052.194-.246.194-.534V24.3a.073.073,0,0,0-.074-.078.074.074,0,0,0-.079.078v.476c0,.262-.068.377-.1.387-.01.006-.021-.01-.026-.015-.983-.978-1.088-.931-1.146-.91a.1.1,0,0,0-.062.1,3.163,3.163,0,0,1-.314.853.582.582,0,0,1-.042-.058c-.528-.732-.79-1-.962-.978a.141.141,0,0,0-.121.094,1.349,1.349,0,0,1-.491.5C38.624,24.529,38.593,23.964,38.457,23.938Z" style="fill:#000101"/></svg>