<svg xmlns="http://www.w3.org/2000/svg" viewBox="0 0 55 55"><path d="M27.5,33.855H5.084a22.963,22.963,0,0,0,1.669,4.236h41.5a23.03,23.03,0,0,0,1.668-4.236Z" style="fill:#fff"/><path d="M27.5,38.091H6.753A23.361,23.361,0,0,0,9.54,42.327H45.46a23.443,23.443,0,0,0,2.793-4.236Z" style="fill:#bf0a30"/><path d="M27.5,46.564H14.116A23.2,23.2,0,0,0,27.5,50.8h0a23.183,23.183,0,0,0,13.384-4.236Z" style="fill:#bf0a30"/><path d="M27.5,42.327H9.54a23.6,23.6,0,0,0,4.576,4.237H40.884a23.453,23.453,0,0,0,4.576-4.237Z" style="fill:#fff"/><path d="M27.5,29.618H4.3a23.166,23.166,0,0,0,.785,4.237H49.921a23.166,23.166,0,0,0,.785-4.237Z" style="fill:#bf0a30"/><path d="M40.884,8.436A23.183,23.183,0,0,0,27.5,4.2h0V8.436Z" style="fill:#bf0a30"/><path d="M27.5,21.145H49.921a23.03,23.03,0,0,0-1.668-4.236H27.5Z" style="fill:#fff"/><path d="M27.5,16.909H48.253a23.686,23.686,0,0,0-2.788-4.236H27.5Z" style="fill:#bf0a30"/><path d="M27.5,12.673H45.465a23.48,23.48,0,0,0-4.581-4.237H27.5Z" style="fill:#fff"/><path d="M27.5,25.382H50.706a23.166,23.166,0,0,0-.785-4.237H27.5Z" style="fill:#bf0a30"/><path d="M14.116,8.436A23.6,23.6,0,0,0,9.54,12.673,23.184,23.184,0,0,0,4.3,25.382H27.5V4.2A23.2,23.2,0,0,0,14.116,8.436Z" style="fill:#002868"/><path d="M50.706,25.382H4.3c-.062.7-.1,1.4-.1,2.118s.037,1.423.1,2.118H50.706q.094-1.043.094-2.118T50.706,25.382Z" style="fill:#fff"/><polygon points="17.49 10.141 18.897 14.477 23.457 14.477 19.77 17.16 21.177 21.496 17.49 18.818 13.797 21.496 15.209 17.16 11.517 14.477 16.078 14.477 17.49 10.141" style="fill:#fff"/></svg>