<?xml version="1.0" encoding="utf-8"?>
<!-- Generator: Adobe Illustrator 22.1.0, SVG Export Plug-In . SVG Version: 6.00 Build 0)  -->
<svg version="1.1" id="Layer_1" xmlns="http://www.w3.org/2000/svg" xmlns:xlink="http://www.w3.org/1999/xlink" x="0px" y="0px"
	 viewBox="0 0 55 55" style="enable-background:new 0 0 55 55;" xml:space="preserve">
<style type="text/css">
	.st0{fill:#BEBEBE;}
</style>
<path id="Litecoin_x5F_55" class="st0" d="M27.5,4.2C14.7,4.2,4.2,14.6,4.2,27.5c0,12.9,10.4,23.3,23.3,23.4s23.3-10.4,23.4-23.3
	c0,0,0,0,0,0C50.8,14.7,40.4,4.2,27.5,4.2z M36.9,38.3H17.7l2-7.4l-2.8,1l0.9-3.4l2.8-1L23.9,15h7.2l-2.6,9.6l3.6-1.4v0.1l-0.9,3.4
	L27.7,28l-1.5,5.7h12L36.9,38.3z"/>
</svg>
