<svg xmlns="http://www.w3.org/2000/svg" viewBox="0 0 55 55"><path d="M47.672,15.853H7.328a23.286,23.286,0,0,1,40.344,0Z" style="fill:#e70013"/><path d="M47.667,39.153a23.288,23.288,0,0,1-40.339,0Z" style="fill:#239e46"/><path d="M50.8,27.5a23.112,23.112,0,0,1-3.133,11.653H7.328a23.259,23.259,0,0,1,0-23.3H47.672A23.133,23.133,0,0,1,50.8,27.5Z"/><path d="M26.255,32.557a5.055,5.055,0,1,1,3.18-8.985,5.868,5.868,0,1,0,0,7.856A5.027,5.027,0,0,1,26.255,32.557Z" style="fill:#fff"/><polygon points="30.947 23.389 32.793 25.931 35.784 24.963 33.933 27.505 35.779 30.047 32.793 29.074 30.941 31.616 30.947 28.473 27.955 27.5 30.947 26.532 30.947 23.389" style="fill:#fff"/></svg>