<svg xmlns="http://www.w3.org/2000/svg" viewBox="0 0 55 55"><path d="M14.362,8.264V46.736a23.287,23.287,0,0,1,0-38.472Z" style="fill:#0846ac"/><path d="M50.8,27.5A23.3,23.3,0,0,1,40.643,46.736V8.264A23.3,23.3,0,0,1,50.8,27.5Z" style="fill:#cb0b2e"/><path d="M40.643,8.264V46.736a23.276,23.276,0,0,1-26.281,0V8.264a23.276,23.276,0,0,1,26.281,0Z" style="fill:#fed117"/><path d="M26.271,17.193a.473.473,0,0,1,.057.225.431.431,0,0,1-.057.214,1.16,1.16,0,0,0-.089-.12l0,0h-.56v1.731l.011,0a.6.6,0,0,0,.12.089.52.52,0,0,0-.1.142c-.037.068-.084.156-.125.156s-.085-.088-.121-.156a.446.446,0,0,0-.1-.142.738.738,0,0,0,.126-.089l.005,0V17.507H24.9l-.006,0a1.334,1.334,0,0,0-.089.12.446.446,0,0,1-.057-.219.48.48,0,0,1,.057-.22.906.906,0,0,0,.089.126l.006.005h.538v-.513l-.005,0c-.052-.042-.094-.073-.12-.094a.467.467,0,0,1,.439,0,1.145,1.145,0,0,0-.12.094l-.011,0v.513h.56l0-.005A.827.827,0,0,0,26.271,17.193Z" style="fill:#fed117"/><path d="M26.308,17.162l-.032-.053-.02.032a1.425,1.425,0,0,1-.1.136h-.5v-.445a.9.9,0,0,1,.141-.1l.032-.021-.053-.032a.515.515,0,0,0-.507,0l-.047.032.031.021a.968.968,0,0,1,.136.1v.445h-.476a.781.781,0,0,1-.1-.136l-.021-.032-.026.053a.477.477,0,0,0,0,.507l.026.052.021-.031a.934.934,0,0,1,.1-.141h.476v1.668a1.036,1.036,0,0,1-.136.1l-.031.021.047.026a.424.424,0,0,1,.1.13c.052.095.1.178.161.178s.11-.083.162-.178a.43.43,0,0,1,.089-.13l.053-.026-.032-.021a.958.958,0,0,1-.141-.1V17.549h.5c.057.073.1.141.1.141l.02.031.032-.052a.549.549,0,0,0,0-.507Zm-.037.47a1.16,1.16,0,0,0-.089-.12l0,0h-.56v1.731l0,0a1.185,1.185,0,0,0,.126.089.7.7,0,0,0-.1.142c-.037.068-.084.156-.121.156s-.089-.088-.125-.156a.446.446,0,0,0-.1-.142.576.576,0,0,0,.121-.089l.01,0V17.507H24.9l-.006,0a1.334,1.334,0,0,0-.089.12.442.442,0,0,1-.057-.214.45.45,0,0,1,.057-.22.89.89,0,0,0,.089.115l.006.011h.538v-.513l-.01,0c-.047-.042-.089-.073-.115-.094a.472.472,0,0,1,.434,0l-.121.094,0,0v.513h.56l0-.011a.807.807,0,0,0,.089-.115.394.394,0,0,1,.057.22A.385.385,0,0,1,26.271,17.632Z"/><path d="M34.5,20.342l-.256.507-.314-.345c-.041-.152-.12-.33-.277-.366a.1.1,0,0,0-.13.078.109.109,0,0,0,.078.136c.041.006.078.084.109.178l-.344.429c-.006,0-.017,0-.022,0a.1.1,0,0,0-.057.021l-.3-.251c.011-.168-.036-.393-.235-.44a.108.108,0,0,0-.131.079.111.111,0,0,0,.084.131c.057.015.068.141.063.224l-.654.66-.131-.053v-1a5.072,5.072,0,0,0,1.387-1.046A4.063,4.063,0,0,1,34.5,20.342Z" style="fill:#af7e55"/><path d="M34.744,20.886v1.177l-.34-.241v-.784l.23-.466A1.577,1.577,0,0,1,34.744,20.886Z" style="fill:#af7e55"/><polygon points="34.744 22.324 34.744 22.983 34.404 23.261 34.404 22.089 34.744 22.324" style="fill:#af7e55"/><polygon points="34.226 22.11 34.226 23.198 33.97 22.983 33.97 22.319 34.226 22.11" style="fill:#af7e55"/><polygon points="34.226 21.153 34.226 21.827 33.97 22.037 33.97 20.87 34.226 21.153" style="fill:#af7e55"/><polygon points="33.75 20.834 33.75 22.052 33.431 21.827 33.431 21.231 33.75 20.834" style="fill:#af7e55"/><polygon points="33.75 22.324 33.75 22.983 33.431 23.234 33.431 22.094 33.75 22.324" style="fill:#af7e55"/><polygon points="33.258 22.105 33.258 23.224 32.981 22.983 32.981 22.324 33.258 22.105" style="fill:#af7e55"/><polygon points="33.258 21.231 33.258 21.827 32.981 22.042 32.981 21.001 33.258 21.231" style="fill:#af7e55"/><polygon points="32.767 21.032 32.767 22.037 32.218 21.582 32.767 21.032" style="fill:#af7e55"/><polygon points="32.767 22.319 32.767 22.983 32.463 23.224 32.463 22.073 32.767 22.319" style="fill:#af7e55"/><path d="M31.878,21.623a2.537,2.537,0,0,0-1.308.434l.246.121L31,21.822l.5.419a2.262,2.262,0,0,0,.382-.618Z" style="fill:#af7e55"/><path d="M34.744,23.266V34.533a2.792,2.792,0,0,1-.774-1.062v-10.2l.277.23a.05.05,0,0,0,.026.021l.078.068Z" style="fill:#af7e55"/><path d="M33.75,33.507a.034.034,0,0,1,.005.021,1.758,1.758,0,0,1-.774-1.035V23.276l.361.309.408-.324V33.507Z" style="fill:#af7e55"/><path d="M24.273,21.817a2.77,2.77,0,0,0-.879-.194h-.01a2.3,2.3,0,0,0,.387.618l.5-.419.178.356.246-.121A2.347,2.347,0,0,0,24.273,21.817Z" style="fill:#af7e55"/><polygon points="22.809 22.073 22.809 23.224 22.505 22.983 22.505 22.319 22.809 22.073" style="fill:#af7e55"/><polygon points="23.054 21.582 22.505 22.037 22.505 21.032 23.054 21.582" style="fill:#af7e55"/><polygon points="22.286 21.001 22.286 22.042 22.014 21.827 22.014 21.231 22.286 21.001" style="fill:#af7e55"/><polygon points="22.286 22.324 22.286 22.983 22.014 23.224 22.014 22.105 22.286 22.324" style="fill:#af7e55"/><polygon points="21.836 22.094 21.836 23.234 21.522 22.983 21.522 22.324 21.836 22.094" style="fill:#af7e55"/><polygon points="21.302 22.319 21.302 22.983 21.046 23.198 21.046 22.11 21.302 22.319" style="fill:#af7e55"/><polygon points="20.869 22.089 20.869 23.261 20.528 22.983 20.528 22.324 20.869 22.089" style="fill:#af7e55"/><path d="M20.638,20.572l.231.466v.784l-.341.241V20.886A1.643,1.643,0,0,1,20.638,20.572Z" style="fill:#af7e55"/><polygon points="21.302 20.87 21.302 22.037 21.046 21.827 21.046 21.153 21.302 20.87" style="fill:#af7e55"/><polygon points="21.836 21.231 21.836 21.827 21.522 22.052 21.522 20.834 21.836 21.231" style="fill:#af7e55"/><path d="M23.29,20.321v1l-.131.053-.659-.66c0-.078.011-.209.068-.224a.111.111,0,0,0,.084-.131.112.112,0,0,0-.136-.079c-.2.047-.241.272-.235.44l-.3.251a.1.1,0,0,0-.057-.021s-.016,0-.021,0l-.345-.429c.026-.094.068-.172.109-.178a.11.11,0,0,0,.079-.136.108.108,0,0,0-.131-.078c-.157.036-.24.214-.277.366l-.319.345-.251-.507A3.984,3.984,0,0,1,21.9,19.275,5.066,5.066,0,0,0,23.29,20.321Z" style="fill:#af7e55"/><path d="M21.3,23.266v10.2a2.771,2.771,0,0,1-.774,1.062V23.266l.393.319.073-.068a.055.055,0,0,0,.032-.021Z" style="fill:#af7e55"/><path d="M21.522,33.5V23.261l.408.324.356-.309v9.217a1.739,1.739,0,0,1-.774,1.041.062.062,0,0,0,0-.027Z" style="fill:#af7e55"/><path d="M32.767,23.266v8.808a6.037,6.037,0,0,1-1.093-2.955l-.011-.094H23.609l-.016.094a6.052,6.052,0,0,1-1.088,2.955V23.266l.4.319.769-.664a.1.1,0,0,0,.01-.152.109.109,0,0,0-.152-.016l-.549.471v-1.3l.22-.183a1.818,1.818,0,0,0,.523.732l.063.037.413-.346.157.3.559-.278a2.047,2.047,0,0,0,1.4-.2h2.646a2.042,2.042,0,0,0,1.4.2l.559.278.152-.3.419.346.062-.037a1.818,1.818,0,0,0,.523-.732l.215.183v1.3l-.544-.471a.115.115,0,0,0-.157.016.108.108,0,0,0,.015.152l.769.664Z" style="fill:#af7e55"/><path d="M21.454,30l-.152-.4v2.856a1.08,1.08,0,0,1,.22-.042V30.165Zm7.118-8.223h-.246c.027.068.053.146.084.22h.418A1.457,1.457,0,0,1,28.572,21.775Zm-.638,0H27.8v.073l.011.021a.241.241,0,0,1,.031.042L27.772,22h.3a1.555,1.555,0,0,1-.136-.183Zm-.444.094.01-.021v-.073h-.131v.037c-.01.015-.021.026-.031.041v.006a.988.988,0,0,1-.105.136h.309l-.073-.1C27.479,21.885,27.484,21.874,27.49,21.869ZM26.47,22h.423c.032-.079.063-.152.084-.22h-.256A1.451,1.451,0,0,1,26.47,22ZM35.026,34.81c-.031-.105-.052-.183-.063-.215V20.86l-.005-.011a1.8,1.8,0,0,0-.235-.57,3.694,3.694,0,0,0-.806-.884,4.719,4.719,0,0,0-.512-.356l-.073-.047-.063.068a5.071,5.071,0,0,1-1.423,1.078l-.078.021v1.25a2.586,2.586,0,0,0-1.449.57,1.564,1.564,0,0,1-1.213-.162.809.809,0,0,0-.1-.037l-.015-.005h-2.71l-.015.005a.311.311,0,0,0-.063.021,1.621,1.621,0,0,1-1.25.178,2.6,2.6,0,0,0-1.449-.57v-1.25l-.078-.021A5.087,5.087,0,0,1,22,19.06l-.063-.068-.073.047a4.258,4.258,0,0,0-1.318,1.24,1.606,1.606,0,0,0-.141.277,1.487,1.487,0,0,0-.1.293V34.6c-.011.032-.032.11-.063.215l-.109.35.281-.23a4.687,4.687,0,0,0,.968-1.093,1.871,1.871,0,0,0,.931-.847,1.509,1.509,0,0,0,.115-.246.036.036,0,0,0,.011-.021c0-.011.01-.026.015-.037s.011-.036.016-.057a.463.463,0,0,0,.026-.089l0-.016V32.4c.006-.011.016-.016.026-.027a1.073,1.073,0,0,0,.105-.115c.031-.036.068-.073.105-.12a0,0,0,0,1,0-.005c.036-.058.084-.121.125-.189s.105-.162.163-.261a6.211,6.211,0,0,0,.5-1.245,1.533,1.533,0,0,0,.041-.162c.021-.058.037-.126.053-.188.063-.257.12-.534.168-.843h7.677c.047.309.1.586.168.837.015.068.031.131.046.194l.047.157a4.906,4.906,0,0,0,.889,1.82.429.429,0,0,0,.053.052.523.523,0,0,0,.089.095v.141c.031.1.068.2.1.293l.032.062a1.857,1.857,0,0,0,.983.942,4.708,4.708,0,0,0,.967,1.093l.283.23Zm-.282-11.827-.34.278V22.089l.34.24Zm0-2.1v1.182l-.34-.241v-.784l.23-.466A1.816,1.816,0,0,1,34.744,20.881Zm-2.762-.555a5.044,5.044,0,0,0,1.381-1.051,4,4,0,0,1,1.14,1.067l-.251.507-.319-.345c-.041-.146-.12-.33-.277-.366a.113.113,0,0,0-.136.078.117.117,0,0,0,.084.136c.036.011.078.084.109.178l-.344.429c-.011,0-.017,0-.027,0a.1.1,0,0,0-.052.021l-.3-.257c.011-.162-.036-.387-.235-.434a.108.108,0,0,0-.131.084.116.116,0,0,0,.084.131c.057.01.068.136.063.219l-.654.66-.131-.053Zm1.988,1.711V20.865l.256.288v.674Zm.256.073V23.2l-.256-.215v-.664Zm-.476.214v.659l-.319.251v-1.14Zm-.319-.5v-.6l.319-.4v1.223Zm-.445.215V21l.272.23v.6Zm.272.063v1.114l-.272-.23v-.665Zm-.8-.032.3.251v.659l-.3.241Zm-.245-.491.549-.55v1Zm-.34.041h0a2.162,2.162,0,0,1-.387.618l-.5-.419-.178.356-.251-.121A2.537,2.537,0,0,1,31.878,21.623Zm-8.484,0a2.594,2.594,0,0,1,.879.194,2.347,2.347,0,0,1,.424.24l-.246.121-.178-.356-.5.419a2.169,2.169,0,0,1-.382-.618ZM21.9,19.275a5.22,5.22,0,0,0,1.381,1.051v1l-.126.053-.659-.66c0-.078.011-.209.068-.219a.108.108,0,0,0,.079-.131.1.1,0,0,0-.131-.084c-.2.047-.241.272-.23.434l-.3.257a.1.1,0,0,0-.057-.021s-.016,0-.021,0l-.345-.429c.026-.094.068-.167.109-.178a.11.11,0,0,0,.079-.136.108.108,0,0,0-.131-.078c-.157.036-.235.22-.277.366l-.319.345-.251-.507A4.008,4.008,0,0,1,21.9,19.275Zm.6,2.762v-1l.549.55Zm.3.036v1.151l-.3-.241v-.664Zm-.523.251v.665l-.272.23V22.105Zm-.272-.5v-.6l.272-.23v1.041Zm-.492.23V20.834l.319.4v.6Zm.319.037v1.14l-.319-.251v-.659Zm-.539.225v.664l-.256.215V22.11Zm-.256-.492v-.674l.256-.288v1.172Zm-.518-.946a1.906,1.906,0,0,1,.11-.309l.231.466v.784l-.341.241Zm0,1.448.341-.24v1.172l-.341-.278ZM21.3,33.471a2.771,2.771,0,0,1-.774,1.062V23.266l.393.319.073-.068a.055.055,0,0,0,.032-.021l.276-.225Zm.858-.654c-.01.026-.021.047-.031.068a1.685,1.685,0,0,1-.617.649.062.062,0,0,0,0-.027l0-.01V23.261l.408.324.356-.309v9.217c-.005.026-.016.052-.021.078a.355.355,0,0,0-.026.073c-.01.027-.021.047-.032.074s-.031.068-.042.1Zm9.733-2.647c-.036-.141-.073-.287-.11-.45-.036-.188-.073-.387-.109-.6l-.011-.089H23.609l-.016.089c-.031.214-.068.413-.109.6-.032.163-.069.309-.105.45a6.347,6.347,0,0,1-.445,1.214c-.021.042-.042.083-.063.12a3.045,3.045,0,0,1-.366.57V23.266l.4.319.439-.377.11-.1.11-.094.11-.094a.114.114,0,0,0,.026-.136c0-.006,0-.011-.011-.016a.116.116,0,0,0-.157-.016l-.031.032-.01,0-.105.094-.105.089-.3.251v-1.3l.22-.178a1.874,1.874,0,0,0,.518.727l.068.037.413-.346.157.3.559-.272a1.722,1.722,0,0,0,1.036-.063c.095-.037.183-.073.267-.11L26.313,22h2.646l.131.047c.078.031.157.068.246.1a1.784,1.784,0,0,0,1.02.053l.559.272.152-.3.413.346.068-.037a1.836,1.836,0,0,0,.523-.727l.215.178v1.3l-.293-.251-.1-.094-.105-.089-.005,0-.036-.032a.115.115,0,0,0-.157.016c-.006.005-.006.01-.011.016a.107.107,0,0,0,.026.136l.1.094.11.094.115.1.439.377.4-.319v8.808c-.006-.01-.016-.015-.021-.026A5.094,5.094,0,0,1,31.893,30.17Zm1.2,2.61-.031-.062a2.2,2.2,0,0,1-.074-.225V23.276l.356.309.408-.324V33.486l.005.021a.031.031,0,0,0,0,.021A1.647,1.647,0,0,1,33.091,32.78Zm1.653,1.753a2.792,2.792,0,0,1-.774-1.062v-10.2l.277.225a.05.05,0,0,0,.026.021l.078.068.393-.319Z"/><path d="M26.58,18.673a1.369,1.369,0,0,1-.167.2,1.949,1.949,0,0,0-.241-.225A2.518,2.518,0,0,0,26.58,18.673Z" style="fill:#cb0b2e"/><path d="M26.684,18.563a.943.943,0,0,0-.941-.418.535.535,0,0,1,.246-.152,1.327,1.327,0,0,1,.366-.021h.01a.533.533,0,0,1,.1.006,1.035,1.035,0,0,0,.115.24l.031.079C26.663,18.422,26.71,18.532,26.684,18.563Z" style="fill:#cb0b2e"/><path d="M26.893,18.626a.926.926,0,0,1,.225.288.767.767,0,0,0-.57-.084.2.2,0,0,0-.094.094l-.016-.015a1.1,1.1,0,0,0,.194-.241h0l.105,0-.032-.058s0-.01.011-.015c.036-.048,0-.142-.053-.278a.325.325,0,0,0,.157.079c.053.005.084.026.094.057s.006.084-.031.147l-.005.015Z"/><path d="M27.123,18.265a.054.054,0,0,1-.057.053.055.055,0,0,1-.058-.053.059.059,0,0,1,.058-.057A.058.058,0,0,1,27.123,18.265Z"/><path d="M27.186,18.155h-.021l-.02-.01a.63.63,0,0,0-.084-.047.17.17,0,0,0-.162.167.164.164,0,0,0,.167.162.167.167,0,0,0,.167-.162A.149.149,0,0,0,27.186,18.155Zm-.12.168a.058.058,0,1,1,0-.115.058.058,0,0,1,0,.115Z" style="fill:#fed117"/><path d="M27.066,21.545V20.232A.065.065,0,0,0,27,20.169a.06.06,0,0,0-.062.063v1.276a1.817,1.817,0,0,1-.885.717,3.787,3.787,0,0,0,.628-2.914,1.182,1.182,0,0,0-.194-.345.165.165,0,0,1,.085-.094c.14-.073.386.016.59.105l.052.026-.026-.053a1,1,0,0,0-.25-.345.239.239,0,0,0,.031-.157.207.207,0,0,0,.308-.183.248.248,0,0,0-.037-.12.108.108,0,0,0,.037,0,1.146,1.146,0,0,1,1.083.345.061.061,0,0,0,.089,0,.065.065,0,0,0-.006-.094,1.25,1.25,0,0,0-1.192-.372c-.021,0-.037,0-.052,0a1.9,1.9,0,0,0-.743-.172.561.561,0,0,1,.554-.262,3.483,3.483,0,0,1,1.5.419,3.761,3.761,0,0,0,.367.162l-.121.094.058.052c.005.006.151.136.251.236a.6.6,0,0,1-.152.031l-.11.011.063.094a1.326,1.326,0,0,1,.146.282c-.094-.031-.146-.052-.146-.052l-.11-.047.021.115a3.459,3.459,0,0,1,.058.659.594.594,0,0,1-.12.22.515.515,0,0,0-.142.313,4.174,4.174,0,0,0,.628,2.014,1.567,1.567,0,0,1-.832-.685V20.237a.065.065,0,0,0-.063-.068.07.07,0,0,0-.068.068v1.3l.006.005h0a7.687,7.687,0,0,0,.293.743,1.019,1.019,0,0,1-.6-.476v-1.57a.06.06,0,0,0-.063-.062.065.065,0,0,0-.068.062v1.606l.011.016.031.047-.2.246-.172-.267a.174.174,0,0,0,.016-.026l.01-.016V20.242a.064.064,0,0,0-.068-.062.06.06,0,0,0-.063.062v1.57c-.01.015-.021.026-.031.041v.006a1,1,0,0,1-.57.429c.12-.251.267-.659.293-.733Z" style="fill:#af7e55"/><path d="M26.512,17.983a2.231,2.231,0,0,1,.476.089.2.2,0,0,0-.131.193.189.189,0,0,0,.026.094l-.052-.015C26.647,18.318,26.553,18.1,26.512,17.983Z" style="fill:#af7e55"/><path d="M28.368,21.5V20.237a.065.065,0,0,0-.063-.068.07.07,0,0,0-.068.068v1.308h.006c.005.026.042.115.083.23h.246A1.72,1.72,0,0,1,28.368,21.5Zm-.5-1.323a.065.065,0,0,0-.068.062v1.533h.131V20.242A.06.06,0,0,0,27.871,20.18Zm-.439,0a.06.06,0,0,0-.063.062v1.533H27.5V20.242A.064.064,0,0,0,27.432,20.18ZM27,20.169a.063.063,0,0,0-.062.063v1.276a1.582,1.582,0,0,1-.215.267h.256c.042-.1.073-.193.084-.22l0-.01V20.232A.065.065,0,0,0,27,20.169Zm2.437,2.218.351.073-.3-.193a.816.816,0,0,1-.146-.121,1.263,1.263,0,0,1-.23-.329,4.867,4.867,0,0,1-.4-1.648.414.414,0,0,1,.115-.23.641.641,0,0,0,.146-.277,2.52,2.52,0,0,0-.041-.586c.047.016.1.037.172.058l.11.036-.026-.115a1.42,1.42,0,0,0-.151-.361.8.8,0,0,0,.182-.057l.068-.042-.052-.063a3.171,3.171,0,0,0-.267-.262l.188-.151-.115-.037a3.566,3.566,0,0,1-.47-.2,3.6,3.6,0,0,0-1.554-.428c-.476,0-.638.24-.69.387a1.254,1.254,0,0,0-.371.026.67.67,0,0,0-.288.178.2.2,0,0,0-.042.052.452.452,0,0,0-.063.131l-.036.12.1-.031.021-.011s.016,0,.021,0a.8.8,0,0,1,.842.24,3.981,3.981,0,0,1-.591-.062l-.251-.058-.042-.01-.1-.021-.032,0,.136.073.042.026.2.115a1.639,1.639,0,0,1,.69.753,3.712,3.712,0,0,1-.01,1.46,2.99,2.99,0,0,1-.34.988,1.371,1.371,0,0,1-.251.335,1.116,1.116,0,0,1-.23.188L25.4,22.5l.361-.057a1.941,1.941,0,0,0,.915-.45,1.1,1.1,0,0,0,.115-.1,1.064,1.064,0,0,0-.042.1,1.913,1.913,0,0,1-.182.371l-.126.152-.016.021.068-.021.146-.047a1.3,1.3,0,0,0,.748-.461l.246.372.282-.361a1.327,1.327,0,0,0,.744.45l.146.047.068.021-.021-.021-.126-.152A2.057,2.057,0,0,1,28.551,22c-.01-.026-.021-.058-.031-.084a.722.722,0,0,0,.094.084A1.7,1.7,0,0,0,29.435,22.387ZM25.743,18.15a.5.5,0,0,1,.246-.157,1.306,1.306,0,0,1,.366-.021h.01c.031,0,.068.006.1.006a.854.854,0,0,0,.115.235c.01.031.02.057.031.084.052.125.094.235.073.266A.933.933,0,0,0,25.743,18.15Zm1.114.115a.189.189,0,0,0,.026.094.166.166,0,0,0-.052-.01c-.178-.031-.278-.251-.319-.366a2.231,2.231,0,0,1,.476.089A.2.2,0,0,0,26.857,18.265Zm.2-.167a.63.63,0,0,1,.084.047l.02.01h.021a.149.149,0,0,1,.047.11.167.167,0,0,1-.167.162.164.164,0,0,1-.167-.162A.17.17,0,0,1,27.061,18.1Zm-.889.554a3.25,3.25,0,0,0,.408.021,1.154,1.154,0,0,1-.167.2A1.949,1.949,0,0,0,26.172,18.652Zm.272.257a1.26,1.26,0,0,0,.188-.241h0l.105,0-.032-.058s0-.01.011-.015c.036-.048,0-.142-.058-.278a.314.314,0,0,0,.162.074.129.129,0,0,1,.1.062.163.163,0,0,1-.037.147l-.005.015.01.016a1.013,1.013,0,0,1,.23.288.785.785,0,0,0-.575-.084.23.23,0,0,0-.094.094S26.444,18.914,26.444,18.909Zm2.128,2.866a1.72,1.72,0,0,1-.2-.272V20.237a.065.065,0,0,0-.063-.068.07.07,0,0,0-.068.068v1.308h.006c.005.026.042.115.083.23.027.068.053.146.084.22.042.1.084.2.126.287A1.05,1.05,0,0,1,28.07,22a1.555,1.555,0,0,1-.136-.183v-1.57a.06.06,0,0,0-.063-.062.065.065,0,0,0-.068.062v1.606l.011.021a.241.241,0,0,1,.031.042L27.772,22l-.126.162-.1-.162-.073-.1c.01-.01.015-.021.021-.026l.01-.021V20.242a.064.064,0,0,0-.068-.062.06.06,0,0,0-.063.062v1.57c-.01.015-.021.026-.031.041v.006a.988.988,0,0,1-.105.136.958.958,0,0,1-.465.287c.042-.083.083-.188.125-.287.032-.079.063-.152.084-.22.042-.1.073-.193.084-.22l0-.01V20.232A.065.065,0,0,0,27,20.169a.063.063,0,0,0-.062.063v1.276a1.582,1.582,0,0,1-.215.267,1.451,1.451,0,0,1-.251.22,1.632,1.632,0,0,1-.419.23,1.036,1.036,0,0,0,.168-.2,1.7,1.7,0,0,0,.151-.251,4.187,4.187,0,0,0,.309-2.464,1.182,1.182,0,0,0-.194-.345.182.182,0,0,1,.085-.094c.14-.073.391.016.59.105l.052.026-.026-.053a1.046,1.046,0,0,0-.25-.345.247.247,0,0,0,.036-.157.176.176,0,0,0,.094.026.21.21,0,0,0,.209-.209.166.166,0,0,0-.037-.115c.011,0,.027,0,.037-.01a1.141,1.141,0,0,1,1.083.35.067.067,0,0,0,.083-.1,1.25,1.25,0,0,0-1.192-.372.133.133,0,0,0-.052.011,1.8,1.8,0,0,0-.738-.178c.058-.12.2-.262.549-.262a3.5,3.5,0,0,1,1.5.419c.131.057.251.12.367.162l-.121.094.063.052c0,.006.146.136.246.236a.6.6,0,0,1-.152.031l-.11.011.063.094a1.326,1.326,0,0,1,.146.282c-.094-.031-.146-.052-.146-.052l-.11-.047.021.115a3.463,3.463,0,0,1,.063.659.7.7,0,0,1-.125.22.49.49,0,0,0-.142.319,5.367,5.367,0,0,0,.372,1.595,2.665,2.665,0,0,0,.146.267,1.592,1.592,0,0,0,.11.146A1.507,1.507,0,0,1,28.828,22,1.457,1.457,0,0,1,28.572,21.775Z"/><path d="M30.858,36.06a3.051,3.051,0,0,0-.989.424,9.048,9.048,0,0,1-1.527-2.49l-.272-.617.016.674a6.2,6.2,0,0,0,.847,2.72c.026.058.058.115.084.168a5.083,5.083,0,0,0-1.381,1.056,5.173,5.173,0,0,0-1.38-1.056c.025-.053.052-.11.083-.168a6.139,6.139,0,0,0,.842-2.72l.021-.674-.272.617a9.048,9.048,0,0,1-1.527,2.49,3.108,3.108,0,0,0-.989-.424,10.769,10.769,0,0,0,2.679-4.383H28.18A10.77,10.77,0,0,0,30.858,36.06Z" style="fill:#af7e55"/><path d="M31.224,36.044a10.415,10.415,0,0,1-2.605-3.9l-.047-.125c-.015-.042-.031-.084-.047-.131-.042-.125-.084-.251-.12-.382l-.016-.052-.016-.047h-1.48l-.01.047-.016.052c-.042.131-.078.257-.125.382a1.183,1.183,0,0,1-.042.131l-.047.125a10.393,10.393,0,0,1-2.61,3.9l-.241.2.319.026a2.863,2.863,0,0,1,1.2.471l.068.053.068-.042a6,6,0,0,0,1.365-1.936,7.262,7.262,0,0,1-.721,1.831c-.053.1-.105.2-.147.3l-.067.131.14.047a4.819,4.819,0,0,1,1.507,1.151l.1.11.1-.11a4.8,4.8,0,0,1,1.512-1.151l.131-.047-.063-.131c-.042-.094-.094-.193-.152-.3a7.454,7.454,0,0,1-.722-1.831,6.191,6.191,0,0,0,1.365,1.936l.074.042.068-.053a2.858,2.858,0,0,1,1.2-.471l.313-.026Zm-1.355.44A9.082,9.082,0,0,1,28.342,34l-.272-.622.016.674a6.2,6.2,0,0,0,.847,2.72c.031.058.058.115.084.168a5.067,5.067,0,0,0-1.381,1.056,5.091,5.091,0,0,0-1.38-1.056c.025-.053.052-.11.083-.168a6.139,6.139,0,0,0,.842-2.72l.021-.674L26.93,34A9.082,9.082,0,0,1,25.4,36.484a3.363,3.363,0,0,0-.989-.429,10.824,10.824,0,0,0,2.469-3.772c.016-.047.031-.088.047-.13a1.24,1.24,0,0,0,.042-.126c.042-.115.083-.235.121-.35H28.18c.037.115.073.235.115.35.016.042.031.089.047.126a1.271,1.271,0,0,0,.047.125,10.919,10.919,0,0,0,2.463,3.777A3.329,3.329,0,0,0,29.869,36.484Z"/><path d="M32.233,35.061l-.408.366-.073-.544.157-.042a.21.21,0,0,0,.105.073.239.239,0,0,0,.12.011Z" style="fill:#fed117"/><path d="M32.092,34.69c.068.026.11.083.089.125s-.084.063-.147.037a.109.109,0,0,1-.088-.126C31.961,34.684,32.029,34.669,32.092,34.69Z" style="fill:#fed117"/><path d="M32.7,33.314l-.5,1.365a.271.271,0,0,0-.079-.052.218.218,0,0,0-.1-.011l.5-1.365a.367.367,0,0,0,.084.042A.312.312,0,0,0,32.7,33.314Z" style="fill:#fed117"/><path d="M35.418,26.184a.226.226,0,0,0,.068-.094.24.24,0,0,0,0-.172l.1-.074-.041-.538-.382.382.031.12a.229.229,0,0,0-.12.131.167.167,0,0,0,0,.115l-.1.021-.219.041-.21.048.006.031s.136.795-.073,1.051l-.011.011.063.235V27.5a.1.1,0,0,0-.047.057.166.166,0,0,0,.015.131l-.517,1.423-.084.225a.15.15,0,0,0-.1.089.174.174,0,0,0,.015.135l-.005.021c-.016.006-.031.006-.047.011a.2.2,0,0,0-.146.125.234.234,0,0,0,.057.225l-.005.026a.135.135,0,0,0-.1.089.15.15,0,0,0,.016.131L32.986,31.8l-.041.11a.447.447,0,0,0-.178.125.072.072,0,0,1-.021.016,1,1,0,0,0-.121.2c-.005.011-.005.021-.01.031a.5.5,0,0,0,.084.576.249.249,0,0,0-.288.125.221.221,0,0,0,.058.22l-.011.031-.047.121-.11.3-.219.612-.079.2-.031.089-.032.083a.124.124,0,0,0-.057.068.1.1,0,0,0,0,.079l-.2.047.094.732.55-.5L32.2,34.9a.118.118,0,0,0,.047-.063c.005,0,.005-.01.005-.021a.162.162,0,0,0-.005-.068l.015-.042.074-.2.036-.1.073-.2.042-.094.073-.21.048-.125.088-.235.048-.136.031-.084a.216.216,0,0,0,.183-.131.241.241,0,0,0-.136-.277.369.369,0,0,0,.272-.126.684.684,0,0,0,.162-.266.583.583,0,0,0-.01-.5l.507-1.376.125-.34a.153.153,0,0,0,.095-.084v0a.152.152,0,0,0,0-.105.247.247,0,0,0-.016-.026l.01-.026h.006a.224.224,0,0,0,.188-.131.241.241,0,0,0-.057-.23l.005-.021a.148.148,0,0,0,.1-.094.165.165,0,0,0-.016-.131l.555-1.511.047-.131a.15.15,0,0,0,.1-.094.169.169,0,0,0,.005-.073l.006-.006.062-.041.132-.1v-.016c.01-.329.621-.842.627-.847l.026-.021Zm.068-.732.027.361-.074.047a.183.183,0,0,0-.083-.057.236.236,0,0,0-.105-.011l-.026-.084Zm-.355.5a.159.159,0,0,1,.2-.089.157.157,0,0,1-.11.293A.161.161,0,0,1,35.131,25.954Zm-.257.387.089-.036.22-.094c.005,0,.01.005.016.01s.015,0,.026,0l.146.3a3.875,3.875,0,0,0-.408.539.685.685,0,0,0-.115.309l-.094.11s0-.006-.01-.006h-.006a.015.015,0,0,0-.01,0V27.33s.01-.016.016-.021A2.3,2.3,0,0,0,34.874,26.341Zm-.266-.125.136-.032.219-.041.115-.027a.005.005,0,0,1,.006,0,.225.225,0,0,0,.036.053l-.157.073-.157.063v.02a3.1,3.1,0,0,1-.062.827.313.313,0,0,1-.074.146l-.01.011v.157a.157.157,0,0,0-.084.01l-.047-.193A1.816,1.816,0,0,0,34.608,26.216Zm-2.668,8.51a.126.126,0,0,1,.152-.036.132.132,0,0,1,.068.047.082.082,0,0,1,.026.078.115.115,0,0,1-.152.037A.119.119,0,0,1,31.94,34.726Zm.293.335-.413.366-.068-.544.162-.042a.177.177,0,0,0,.1.073.194.194,0,0,0,.12.011Zm.4-1.58-.094.257-.042.125-.073.188-.032.1-.078.2-.037.1-.073.2-.01.026a.18.18,0,0,0-.084-.047.174.174,0,0,0-.073-.016h-.021l.005-.01.037-.094.073-.2.036-.1.063-.173.131-.366.11-.293.047-.126v-.01a.249.249,0,0,0,.084.047.312.312,0,0,0,.094.021l-.01.036Zm.256-.319a.207.207,0,0,1-.261.073c-.115-.047-.189-.146-.157-.224a.2.2,0,0,1,.261-.074C32.85,32.979,32.918,33.084,32.892,33.162Zm.3-.669a.572.572,0,0,1-.13.225.327.327,0,0,1-.189.115.145.145,0,0,1-.094-.006c-.141-.052-.188-.282-.1-.523h0a.5.5,0,0,1,.308-.34.145.145,0,0,1,.105.006C33.237,32.022,33.279,32.257,33.19,32.493Zm.56-2.046L33.2,31.959a.206.206,0,0,0-.079-.052.311.311,0,0,0-.1-.016l.606-1.642a.149.149,0,0,0,.079.047.165.165,0,0,0,.047.01c.016,0,.037.011.047,0Zm.162-.256c-.016.047-.089.068-.162.052-.005,0-.015,0-.021,0-.084-.031-.131-.1-.11-.157.016-.042.068-.062.131-.057a.155.155,0,0,1,.052.01C33.881,30.066,33.933,30.134,33.912,30.191ZM34.1,29.9a.131.131,0,0,1-.125.089.29.29,0,0,1-.147-.01.347.347,0,0,1-.073-.042.184.184,0,0,1-.089-.194.151.151,0,0,1,.089-.078.29.29,0,0,1,.188,0,.08.08,0,0,1,.032.016A.19.19,0,0,1,34.1,29.9Zm.047-.34c-.021.053-.093.073-.172.053a.017.017,0,0,1-.011-.006c-.078-.026-.131-.1-.11-.151a.119.119,0,0,1,.121-.063.267.267,0,0,1,.062.01C34.111,29.433,34.163,29.506,34.142,29.558Zm-.005-.167a.192.192,0,0,0-.078-.047.28.28,0,0,0-.089-.016h-.011l.011-.021.57-1.553a.273.273,0,0,0,.084.047.3.3,0,0,0,.094.015Zm.69-1.7a.094.094,0,0,1-.083.057.161.161,0,0,1-.1-.01c-.078-.031-.13-.1-.11-.157s.105-.073.184-.047c.01.005.015.01.026.016C34.806,27.581,34.848,27.644,34.827,27.691Zm.2-.23-.068.047-.094.068a.263.263,0,0,0-.052-.063l.094-.115v-.016a.372.372,0,0,1,.052-.183,3.178,3.178,0,0,1,.471-.643l.016-.021-.146-.3a.111.111,0,0,0,.057-.016v0l.293.377C35.539,26.7,35.052,27.136,35.031,27.461Z"/><path d="M35.361,26.221l.3.377c-.12.1-.607.538-.628.863l-.162.115a.2.2,0,0,0-.057-.063l.1-.115v-.016c-.016-.2.371-.664.523-.831l.016-.016-.146-.3a.52.52,0,0,0,.057-.016Z" style="fill:#fed117"/><path d="M35.225,26.226l.146.3c-.089.1-.528.6-.523.848l-.094.11s0-.006-.01-.006a.034.034,0,0,0-.021,0l.005-.141a2.124,2.124,0,0,0,.146-.989l.3-.13c.01,0,.015.005.026.01A.033.033,0,0,1,35.225,26.226Z" style="fill:#fed117"/><path d="M33.091,31.97c.146.052.188.287.1.523s-.278.387-.419.334-.188-.287-.1-.523S32.95,31.917,33.091,31.97Z" style="fill:#fed117"/><path d="M33.938,29.668c.115.042.189.147.157.23a.2.2,0,0,1-.272.073c-.12-.041-.188-.146-.157-.23S33.818,29.626,33.938,29.668Z" style="fill:#fed117"/><path d="M32.735,32.937c.115.042.189.142.157.225a.194.194,0,0,1-.261.068c-.115-.042-.189-.141-.157-.219A.2.2,0,0,1,32.735,32.937Z" style="fill:#fed117"/><path d="M35.481,25.452l.032.361-.074.047a.232.232,0,0,0-.083-.057.245.245,0,0,0-.105-.011l-.021-.084Z" style="fill:#fed117"/><path d="M35.329,25.865a.154.154,0,0,1,.095.2.151.151,0,0,1-.2.094.156.156,0,0,1-.094-.2A.153.153,0,0,1,35.329,25.865Z" style="fill:#fed117"/><path d="M34.718,27.534c.078.031.13.105.109.157a.141.141,0,0,1-.183.047c-.078-.031-.13-.1-.11-.157S34.639,27.508,34.718,27.534Z" style="fill:#fed117"/><path d="M34.032,29.407c.079.026.131.1.11.151s-.1.079-.183.047-.131-.1-.11-.151A.135.135,0,0,1,34.032,29.407Z" style="fill:#fed117"/><path d="M33.8,30.034c.079.032.131.1.11.157s-.1.073-.183.047-.131-.1-.11-.157S33.724,30.008,33.8,30.034Z" style="fill:#fed117"/><path d="M33.8,30.317,33.2,31.959a.162.162,0,0,0-.079-.052.311.311,0,0,0-.1-.016l.606-1.642a.293.293,0,0,0,.079.052A.37.37,0,0,0,33.8,30.317Z" style="fill:#fed117"/><path d="M34.718,27.816l-.581,1.575a.18.18,0,0,0-.084-.047.277.277,0,0,0-.094-.016l.581-1.58a.232.232,0,0,0,.084.053A.3.3,0,0,0,34.718,27.816Z" style="fill:#fed117"/><path d="M34.66,27.3v.152a.43.43,0,0,0-.084.01l-.047-.194a1.835,1.835,0,0,0,.079-1.056l.47-.1h.006a.375.375,0,0,0,.036.048l-.314.136v.02c.011.225.006.832-.136.973Z" style="fill:#fed117"/><path d="M20.418,27.063l.027-.036.021-.006,0,.021,0-.005.3.769v.026a1.6,1.6,0,0,0,.042.361l.005.026a1.068,1.068,0,0,0-.125-.183l-.382-1Z" style="fill:#067654"/><path d="M23.557,34.616a.25.25,0,0,1,.115.2l.01.251a.15.15,0,0,1-.1.157.152.152,0,0,1-.172-.037l-.168-.177a.25.25,0,0,1-.067-.2l.031-.267.146-.058Z" style="fill:#067654"/><path d="M21.062,28.554a.192.192,0,0,1-.042.026c0,.005,0,.005-.011.005a.036.036,0,0,1-.041-.005.049.049,0,0,1-.021-.026l-.021.01s-.016.006-.021.006l.748,1.945a.012.012,0,0,1,.01.011l.047.047-.031.01.707,1.831c.03.058.052.11.067.141l.016.053h-.011l.005.005a.322.322,0,0,0,.037.037l.042.047-.042.021.68,1.757.141-.052-.68-1.763-.1-.282h-.006v-.006l-.151-.4h-.011v-.021l-.549-1.423-.114-.3H21.7a.006.006,0,0,0,.006-.006l-.153-.387h-.01c0-.01.006-.015.006-.021Z" style="fill:#067654"/><path d="M22.752,31.08c.01.042.025.084.036.121a1.978,1.978,0,0,1,.121.591.568.568,0,0,1-.331.46s-.01.011-.015.011l-.115-.293h.01A1.2,1.2,0,0,1,22.752,31.08Z" style="fill:#067654"/><path d="M23.222,31.671c-.005.042-.011.084-.016.121-.031.335-.047.491-.518.8l-.073-.188h0a.456.456,0,0,1,.026-.079.653.653,0,0,0,.351-.507A1.374,1.374,0,0,1,23.222,31.671Z" style="fill:#067654"/><path d="M21.062,32.529a1.264,1.264,0,0,1,1.328.136A1.639,1.639,0,0,1,21.062,32.529Z" style="fill:#067654"/><path d="M21.145,31.8a1.3,1.3,0,0,1,1.193.712,1.273,1.273,0,0,0-.722-.194A1.884,1.884,0,0,1,21.145,31.8Z" style="fill:#067654"/><path d="M21.506,30.4a1.036,1.036,0,0,0-.6-.152,1.581,1.581,0,0,1-.392-.434A1.1,1.1,0,0,1,21.506,30.4Z" style="fill:#067654"/><path d="M20.45,30.427a1.046,1.046,0,0,1,1.1.115A1.384,1.384,0,0,1,20.45,30.427Z" style="fill:#067654"/><path d="M22.27,29.705c0,.031,0,.057-.011.089a.686.686,0,0,1-.4.648l-.078-.193v-.006h.005v0h0v0a.889.889,0,0,1,.287-.4A.694.694,0,0,1,22.27,29.705Z" style="fill:#067654"/><path d="M21.872,29.2c.011.037.021.068.032.1a1.841,1.841,0,0,1,.1.481,1.082,1.082,0,0,0-.267.355l-.109-.3h.005A.951.951,0,0,1,21.872,29.2Z" style="fill:#067654"/><path d="M20.769,28.4c.01.005.021.016.031.021a1.189,1.189,0,0,1-.977-.131.947.947,0,0,1,.371-.078A.873.873,0,0,0,20.769,28.4Z" style="fill:#067654"/><path d="M19.864,27.707a1.047,1.047,0,0,1,.9.6A1.116,1.116,0,0,1,19.864,27.707Z" style="fill:#067654"/><path d="M21.026,28.088a.816.816,0,0,1,.391-.439.474.474,0,0,1-.005.084c-.016.272-.026.4-.434.659A.773.773,0,0,1,21.026,28.088Z" style="fill:#067654"/><path d="M20.889,28.12a1.812,1.812,0,0,1-.026-.288.949.949,0,0,1,.194-.669.35.35,0,0,0,.026.083,1.961,1.961,0,0,1,.1.461.864.864,0,0,0-.247.387.1.1,0,0,0-.021.01A.1.1,0,0,1,20.889,28.12Z" style="fill:#067654"/><path d="M20.476,26.807c-.01-.052-.031-.131-.052-.23a1.224,1.224,0,0,0-.021-.272,1.118,1.118,0,0,1,.167-.623.884.884,0,0,1,.194.665A.7.7,0,0,1,20.476,26.807Z" style="fill:#067654"/><path d="M19.953,26.5a3,3,0,0,0,.246.34c0,.026.01.057.016.088v.016l0,.032a.384.384,0,0,1,.005.073c-.455.026-.748-.513-.837-.7A1.281,1.281,0,0,1,19.953,26.5Z" style="fill:#067654"/><path d="M19.786,25.51a1.088,1.088,0,0,1,.528.784,1.67,1.67,0,0,0,.026.3,2.042,2.042,0,0,1-.031.246c-.011-.01-.021-.026-.032-.036a.567.567,0,0,0-.261-.361A1.251,1.251,0,0,1,19.786,25.51Z" style="fill:#067654"/><path d="M23.755,34.81a.339.339,0,0,0-.151-.272l-.194-.12-.021-.016v0l-.3-.785-.115-.292-.047-.126-.178-.465-.026-.068a1.619,1.619,0,0,0,.219-.157A.835.835,0,0,0,23.3,31.8c0-.063.01-.125.021-.2l.011-.073-.074.026a1.561,1.561,0,0,0-.219.126.2.2,0,0,0-.042.021,1.67,1.67,0,0,0-.058-.319c-.021-.063-.042-.136-.063-.209-.015-.058-.036-.116-.057-.184l-.016-.062-.052.042a.8.8,0,0,0-.241.308,1.451,1.451,0,0,0-.13.5l-.089-.235L22,30.787l-.1-.251-.006-.01.022-.016c.031-.021.062-.042.088-.063a.744.744,0,0,0,.283-.329.968.968,0,0,0,.062-.314c.006-.052.011-.11.016-.167l.011-.079-.068.032a.037.037,0,0,0-.021.01,1.155,1.155,0,0,0-.2.11,2.311,2.311,0,0,0-.1-.439c-.015-.053-.031-.105-.047-.163l-.02-.062-.053.042a.891.891,0,0,0-.308.585l-.037-.11-.22-.57-.1-.256-.1-.256-.021-.047a1.8,1.8,0,0,0,.219-.173.684.684,0,0,0,.2-.523c0-.052,0-.1.011-.157l.01-.078-.068.031a.775.775,0,0,0-.152.084.171.171,0,0,0-.036.021,2.219,2.219,0,0,0-.1-.419c-.015-.047-.031-.094-.047-.152l-.021-.062-.047.042a.85.85,0,0,0-.272.6l-.177-.466-.074-.2L20.5,26.9l.006,0c.01-.005.015-.011.025-.016a.59.59,0,0,0,.058-.047.787.787,0,0,0,.267-.476,1.009,1.009,0,0,0-.251-.779l-.037-.042-.031.047a.005.005,0,0,0-.006.005,1.055,1.055,0,0,0-.193.466c-.011-.026-.016-.047-.026-.068a1.038,1.038,0,0,0-.534-.576l-.042-.015-.015.042a1.171,1.171,0,0,0,.151.931,1.674,1.674,0,0,0-.544-.11h-.073l.026.062c.016.032.272.691.764.806a.678.678,0,0,0,.235.01h0l.027.074.031.083.188.487.053.131c-.016-.016-.037-.027-.053-.042a.872.872,0,0,0-.219-.136,1.362,1.362,0,0,0-.518-.121h-.079l.037.063a1.626,1.626,0,0,0,.345.45,1.26,1.26,0,0,0-.387.115l-.063.032.058.041a1.373,1.373,0,0,0,.607.241,1.061,1.061,0,0,0,.219.005.966.966,0,0,0,.283-.052l.062.162.079.215.35.9.136.356A1.092,1.092,0,0,0,21.3,30a1.264,1.264,0,0,0-.774-.277.464.464,0,0,0-.089-.006h-.073l.032.063a1.426,1.426,0,0,0,.13.2,1.631,1.631,0,0,0,.246.272,1.464,1.464,0,0,0-.246.052,1.584,1.584,0,0,0-.2.073l-.021.011-.047.026.047.031.015.011a2.07,2.07,0,0,0,.2.105,1.443,1.443,0,0,0,.774.125.859.859,0,0,0,.22-.047.365.365,0,0,0,.089-.031h.01l.042.109.079.215.487,1.255a1.359,1.359,0,0,0-.707-.423,1.31,1.31,0,0,0-.22-.037,1.706,1.706,0,0,0-.23-.016H21l.031.063a1.771,1.771,0,0,0,.272.377,1.288,1.288,0,0,0,.183.178.8.8,0,0,0-.183.036,1.626,1.626,0,0,0-.35.115l-.073.037.062.042a1.715,1.715,0,0,0,.361.172,1.644,1.644,0,0,0,.22.063,1.551,1.551,0,0,0,.591.026.151.151,0,0,0,.047-.005h0a1.327,1.327,0,0,0,.267-.073h.011l.031.078.183.481.047.121.105.282.047.126h0l.052.146.042.1.079.2.036.094.052.136h0l-.016.1-.011.136-.005.042a.311.311,0,0,0,.089.272l.167.183a.252.252,0,0,0,.267.058.247.247,0,0,0,.162-.241Zm-.533-3.139c-.005.042-.011.084-.016.121a.753.753,0,0,1-.3.643c-.058.047-.131.094-.215.152l-.041-.105-.016-.036-.016-.047h.005l.016-.079c0-.005,0-.005.011-.005a.633.633,0,0,0,.345-.5A1.374,1.374,0,0,1,23.222,31.671Zm-.717-.141a.958.958,0,0,1,.247-.45c.015.042.025.084.036.121.031.11.062.214.083.3a.985.985,0,0,1,.038.288.3.3,0,0,1-.038.151.477.477,0,0,1-.125.189,0,0,0,0,0,0,.005,1.6,1.6,0,0,1-.136.1.24.24,0,0,1-.027.016s-.01.011-.015.011l-.115-.293h.01v-.006A1.874,1.874,0,0,1,22.505,31.53ZM22.27,29.7c0,.037,0,.063-.011.095a.683.683,0,0,1-.4.648l-.073-.193h.005v-.016a.968.968,0,0,1,.287-.4A1.1,1.1,0,0,1,22.27,29.7Zm-.4-.5a.442.442,0,0,1,.027.089,1.687,1.687,0,0,1,.1.481,1.082,1.082,0,0,0-.267.355c0-.021-.015-.041-.02-.062l-.089-.236h.005A.922.922,0,0,1,21.872,29.2Zm-.57-1.481a.973.973,0,0,1,.115-.073c0,.026-.005.052-.005.084a.647.647,0,0,1-.11.4,1.321,1.321,0,0,1-.324.267.735.735,0,0,1,.052-.309A.754.754,0,0,1,21.3,27.722Zm-.774-1.972a.626.626,0,0,1,.042-.068.869.869,0,0,1,.194.665.7.7,0,0,1-.236.418.4.4,0,0,1-.052.042,1.831,1.831,0,0,1-.047-.235,1.61,1.61,0,0,0-.026-.267A1.206,1.206,0,0,1,20.528,25.75Zm-.742-.24a1.078,1.078,0,0,1,.523.763c0,.011,0,.016,0,.021a1.67,1.67,0,0,0,.026.3,1.714,1.714,0,0,1-.031.231s-.006.01-.006.015a.136.136,0,0,0-.026-.036.567.567,0,0,0-.261-.361A1.251,1.251,0,0,1,19.786,25.51Zm-.4.842a1.217,1.217,0,0,1,.565.152,3.544,3.544,0,0,0,.246.34c0,.031.01.057.016.088v.016l0,.032a.384.384,0,0,1,.005.073C19.77,27.079,19.477,26.54,19.388,26.352Zm.476,1.355a1.255,1.255,0,0,1,.445.12,1.4,1.4,0,0,1,.219.152,1.051,1.051,0,0,1,.236.329.857.857,0,0,1-.236-.031.835.835,0,0,1-.219-.1A1.5,1.5,0,0,1,19.864,27.707Zm.664.763a.991.991,0,0,1-.219-.01,1.357,1.357,0,0,1-.486-.173.947.947,0,0,1,.371-.078.833.833,0,0,0,.115.073,1.006,1.006,0,0,0,.219.089.732.732,0,0,0,.241.026.118.118,0,0,1,.026.021A1.008,1.008,0,0,1,20.528,28.47Zm.168-.434-.168-.439-.214-.56c0-.016.042,0,.057,0s.016,0,.027,0l.02.026.027-.031.021-.011,0,.021,0-.005.037.089v0l.015.037.246.643v.021a1.6,1.6,0,0,0,.042.361l.005.026A1.306,1.306,0,0,0,20.7,28.036Zm.167-.209a.944.944,0,0,1,.194-.664c.01.031.015.057.021.083a1.775,1.775,0,0,1,.105.461.9.9,0,0,0-.252.387c-.005,0-.01.01-.016.01a.1.1,0,0,1-.026.016A1.826,1.826,0,0,1,20.863,27.827Zm-.335,2s-.01-.015-.015-.021h.015a1.168,1.168,0,0,1,.774.314,1.043,1.043,0,0,1,.2.272.905.905,0,0,0-.2-.094,1.049,1.049,0,0,0-.392-.058A1.475,1.475,0,0,1,20.528,29.83Zm.994.722a.859.859,0,0,1-.22.047,1.407,1.407,0,0,1-.774-.131.554.554,0,0,1-.078-.041.517.517,0,0,1,.078-.027,1.121,1.121,0,0,1,.774,0,.73.73,0,0,1,.22.115l.031.032C21.543,30.547,21.532,30.547,21.522,30.552Zm-.22,1.47a1.914,1.914,0,0,1-.157-.22l.157.016a2.1,2.1,0,0,1,.22.042,1.252,1.252,0,0,1,.764.559c.021.037.036.068.052.1a.473.473,0,0,0-.052-.032,1.279,1.279,0,0,0-.67-.162.5.5,0,0,1-.094-.073A1.776,1.776,0,0,1,21.3,32.022Zm.905.7-.068.015h0a1.556,1.556,0,0,1-.612-.026,1.606,1.606,0,0,1-.22-.068,1.2,1.2,0,0,1-.235-.11,1.412,1.412,0,0,1,.235-.073,1.08,1.08,0,0,1,.22-.042,1.155,1.155,0,0,1,.743.157.743.743,0,0,1,.125.094A1.261,1.261,0,0,1,22.207,32.718Zm.973,1.757-.058-.146-.036-.1-.073-.188-.142-.356-.109-.293-.048-.12-.183-.476-.031-.078.042-.021L22.5,32.65a.156.156,0,0,1-.026-.021c0-.006,0-.011-.011-.011l-.005-.01h.016l-.021-.053a1.275,1.275,0,0,0-.067-.136l-.1-.261-.027-.063-.553-1.444-.027-.068.027-.01-.038-.047s-.01-.011-.015-.011l-.131-.35L21.454,30l-.152-.4-.4-1.025c.01,0,.016,0,.021-.011l.015,0c.006.011.016.016.027.026a.049.049,0,0,0,.041,0h.011c.016-.01.026-.021.042-.031l.24.622.22.571.021.057.006.011v.015h0l.147.387v.006h.006l.119.3.027.084.036.083.4,1.041.047.121.036.094v.021h.011l.151.4v.006h.006l.058.146.046.136.016.042.031.078.173.44.048.12.114.3.235.618.058.151.005.011-.016,0Zm.4.753a.163.163,0,0,1-.172-.042l-.168-.177a.25.25,0,0,1-.067-.2l.02-.147.011-.12.146-.058.016.011.194.125a.25.25,0,0,1,.115.2l.01.251A.163.163,0,0,1,23.577,35.228Z"/><path d="M21.485,30.181l.189.491.12-.078s.11.026.11.016-.173-.518-.272-.78c-.047-.125-.068-.1-.068-.1l-.073.22-.053.073Z"/><path d="M22.317,32.336s.136.355.141.361a1.271,1.271,0,0,1,.047.125l.063-.063.063-.041.1.109s-.162-.476-.068-.564c-.1.026-.229-.288-.224-.388s-.178.011-.178.011l-.006.3Z"/><path d="M20.346,27.257a.181.181,0,0,1-.362,0,.181.181,0,0,1,.362,0Z"/><path d="M20.821,27a.176.176,0,0,1-.178.178.178.178,0,1,1,0-.355A.176.176,0,0,1,20.821,27Z"/><path d="M20.962,28.821a.178.178,0,1,1-.355,0,.178.178,0,1,1,.355,0Z"/><path d="M21.438,28.57a.178.178,0,1,1-.355,0,.178.178,0,1,1,.355,0Z"/><circle cx="21.574" cy="30.876" r="0.178"/><path d="M22.233,30.62a.181.181,0,1,1-.183-.178A.181.181,0,0,1,22.233,30.62Z"/><path d="M22.474,32.817a.181.181,0,0,1-.183.178.176.176,0,0,1-.178-.178.181.181,0,0,1,.178-.183A.186.186,0,0,1,22.474,32.817Z"/><path d="M22.95,32.561a.181.181,0,1,1-.178-.178A.18.18,0,0,1,22.95,32.561Z"/><path d="M24.7,30.929c.141.073.513.256,1.077.554a5.251,5.251,0,0,0-.6.6c-.095.1-.183.2-.262.287v-.041c0-.173-.005-.377-.005-.393v-.094l-.335.147.026-.252-.251.021h-.031a2.4,2.4,0,0,0,.246-.455C24.623,31.154,24.671,31.012,24.7,30.929Z" style="fill:#af7e55"/><path d="M23.447,33.962l.042-.12-.278.079a.979.979,0,0,1,.11-.246l.115-.183-.2.089a.888.888,0,0,1-.156.047,2.571,2.571,0,0,0-.288.083c-.063.027-.12.053-.183.079a1.2,1.2,0,0,0-.288.2,1.014,1.014,0,0,1,.283-.487,1.071,1.071,0,0,1,.742-.193l.037.005,1-1.423.063,0-.037.314.361-.157c.005.078.005.188.005.288-.4.5-1.124,1.49-1.38,1.867A.8.8,0,0,1,23.447,33.962Z" style="fill:#cb0b2e"/><path d="M23.311,34.423l-.34.319a.076.076,0,0,1-.062.026.109.109,0,0,1-.069-.026l-.01-.011a.094.094,0,0,1,.005-.13l.34-.325a.079.079,0,0,1,.057-.021.07.07,0,0,1,.037.006v0a.2.2,0,0,0,.063.12A.09.09,0,0,1,23.311,34.423Z" style="fill:#cb0b2e"/><path d="M23.075,34.051l.021.016.022.021a.111.111,0,0,1,.015.058.1.1,0,0,1-.026.062l-.34.319a.076.076,0,0,1-.063.027.11.11,0,0,1-.068-.027l-.01-.015a.087.087,0,0,1-.027-.063.126.126,0,0,1,.032-.063l.34-.324a.081.081,0,0,1,.063-.021A.123.123,0,0,1,23.075,34.051Z" style="fill:#cb0b2e"/><path d="M22.563,34.313a.084.084,0,0,1-.125,0l-.016-.011a.1.1,0,0,1-.021-.068.083.083,0,0,1,.026-.062l.308-.293a.605.605,0,0,1,.105-.042.019.019,0,0,1,.016-.005.05.05,0,0,1,.036.021l.017.01a.1.1,0,0,1-.006.131Z" style="fill:#cb0b2e"/><path d="M25.947,31.426c-.816-.435-1.26-.649-1.266-.649l-.068-.031-.021.073s-.016.047-.037.12c-.015.037-.025.079-.047.131-.015.037-.026.078-.047.125a1.91,1.91,0,0,1-.345.6l-.131.131.231-.021-.895,1.271a1.441,1.441,0,0,0-.4.026l-.063.016a1.161,1.161,0,0,0-.147.052.26.26,0,0,0-.057.031.5.5,0,0,0-.146.11,1.022,1.022,0,0,0-.33.743l0,.141.126-.12.01-.011a.278.278,0,0,0-.01.068.174.174,0,0,0,.047.126l.01.01a.188.188,0,0,0,.131.058h.016v.021a.168.168,0,0,0,.047.125l.01.011a.2.2,0,0,0,.126.057h0a.022.022,0,0,0,.016-.005.193.193,0,0,0,.047.152l.01.01a.168.168,0,0,0,.126.058h.006a.173.173,0,0,0,.125-.052l.057-.053.1-.094.173-.167,0-.005a.116.116,0,0,0,.042-.068.005.005,0,0,0,0-.006l.021-.031c.136-.215.874-1.24,1.339-1.831l-.016.147.126-.115c.1-.095.241-.246.387-.408s.3-.33.434-.461c.037-.036.079-.068.11-.1a.334.334,0,0,1,.11-.068l.042-.011.136-.026Zm-3.384,2.892a.088.088,0,0,1-.125,0l-.016-.011a.1.1,0,0,1-.021-.068.083.083,0,0,1,.026-.062l.308-.293c.037-.016.069-.026.105-.042,0,0,.01-.005.016-.005h0a.262.262,0,0,1,.037.021l.011.01a.1.1,0,0,1,0,.115.024.024,0,0,1-.01.016Zm.2.209a.076.076,0,0,1-.063.027.1.1,0,0,1-.068-.027l0-.015a.071.071,0,0,1-.026-.063.087.087,0,0,1,.026-.063l.324-.308.011-.016a.113.113,0,0,1,.047-.021h.021a.063.063,0,0,1,.041.01l.021.016.016.021a.079.079,0,0,1,.021.058.087.087,0,0,1-.026.062l-.021.021-.052.053Zm.335.089-.131.126a.082.082,0,0,1-.062.026.109.109,0,0,1-.069-.026l-.01-.011a.09.09,0,0,1,.005-.13l.235-.225.105-.094a.069.069,0,0,1,.062-.027c.011,0,.016,0,.021.006h.011v0a.2.2,0,0,0,.063.12c0,.011-.011.016-.016.026a.018.018,0,0,1,0,.011l-.006,0Zm.3-.418a.835.835,0,0,1,.047-.236l.042-.12-.278.079a.979.979,0,0,1,.11-.246l.115-.183-.193.089a1.1,1.1,0,0,1-.157.041c0,.006,0,.006,0,.006l-.058.015c-.047.011-.1.027-.152.042-.021,0-.041.016-.062.021-.005,0-.011,0-.021,0-.058.027-.121.053-.178.079a1.2,1.2,0,0,0-.288.2.988.988,0,0,1,.288-.487.341.341,0,0,1,.094-.078.6.6,0,0,1,.058-.032,1.208,1.208,0,0,1,.147-.052c.02-.005.041-.005.062-.01a1.541,1.541,0,0,1,.376-.021l.042.005,1-1.423.063-.01-.037.319.366-.157v.288C24.378,32.827,23.656,33.821,23.4,34.2Zm2.374-2.715a1.1,1.1,0,0,0-.094.079.956.956,0,0,0-.11.1c-.11.11-.246.251-.4.419-.089.1-.183.2-.262.287v-.041c0-.178-.005-.377-.005-.393v-.094l-.335.147.026-.252-.251.021h-.031a1.955,1.955,0,0,0,.24-.455.178.178,0,0,0,.021-.052c.021-.042.037-.084.053-.12s.031-.089.042-.126a.708.708,0,0,1,.026-.078c.13.062.444.219.92.47C25.669,31.426,25.722,31.452,25.774,31.483Z"/><path d="M30.575,30.929c-.146.073-.512.256-1.077.554a4.919,4.919,0,0,1,.6.6c.094.1.189.2.267.287v-.041c0-.173,0-.377,0-.393v-.094l.335.147-.026-.252.251.021h.026a2.7,2.7,0,0,1-.241-.455C30.649,31.154,30.6,31.012,30.575,30.929Z" style="fill:#af7e55"/><path d="M31.825,33.962l-.042-.12.272.079a.685.685,0,0,0-.109-.246l-.115-.183.2.089a1.022,1.022,0,0,0,.162.047,2.647,2.647,0,0,1,.289.083c.062.027.119.053.182.079a1.084,1.084,0,0,1,.283.2.975.975,0,0,0-.283-.487,1.059,1.059,0,0,0-.737-.193l-.042.005-1-1.423-.063,0,.037.314-.366-.157v.288c.4.5,1.119,1.49,1.38,1.867A.767.767,0,0,0,31.825,33.962Z" style="fill:#cb0b2e"/><path d="M31.961,34.423l.34.319a.077.077,0,0,0,.063.026.087.087,0,0,0,.063-.026l.015-.011a.094.094,0,0,0-.005-.13l-.34-.325a.085.085,0,0,0-.063-.021.089.089,0,0,0-.036.006v0a.172.172,0,0,1-.058.12A.1.1,0,0,0,31.961,34.423Z" style="fill:#cb0b2e"/><path d="M32.2,34.051l-.021.016-.021.021a.075.075,0,0,0-.016.058.1.1,0,0,0,.027.062l.339.319a.072.072,0,0,0,.063.027.087.087,0,0,0,.063-.027l.01-.015a.071.071,0,0,0,.026-.063.087.087,0,0,0-.026-.063l-.34-.324a.089.089,0,0,0-.063-.021A.1.1,0,0,0,32.2,34.051Z" style="fill:#cb0b2e"/><path d="M32.709,34.313a.085.085,0,0,0,.126,0l.011-.011a.1.1,0,0,0,0-.13l-.309-.293a.766.766,0,0,0-.1-.042.019.019,0,0,0-.016-.005.061.061,0,0,0-.041.021l-.011.01a.1.1,0,0,0,.005.131Z" style="fill:#cb0b2e"/><path d="M32.756,33.413c-.005,0-.01-.015-.015-.015a.615.615,0,0,0-.052-.048.64.64,0,0,0-.168-.094.358.358,0,0,0-.063-.021,1.455,1.455,0,0,0-.512-.057l-.89-1.271.231.021-.131-.131a1.8,1.8,0,0,1-.345-.6c-.021-.047-.037-.088-.053-.125-.015-.052-.031-.094-.042-.131a.637.637,0,0,0-.036-.12l-.021-.073-.073.031s-.445.214-1.261.649l-.157.083.131.026.043.011a.351.351,0,0,1,.114.068c.031.031.068.063.11.1.136.131.3.309.434.461s.283.313.382.408l.131.115L30.5,32.55c.466.591,1.2,1.616,1.339,1.831l.021.031a.146.146,0,0,0,.047.074l.068.068.052.052.016.01h0l.12.121.078.068c.006.005.006.01.011.01a.185.185,0,0,0,.115.042h.005a.177.177,0,0,0,.126-.058l.01-.01a.2.2,0,0,0,.047-.152c.005.005.005.005.011.005h0a.2.2,0,0,0,.131-.057l.01-.011a.191.191,0,0,0,.047-.125c0-.011,0-.016-.005-.021h.016a.171.171,0,0,0,.131-.058l.01-.01a.16.16,0,0,0,.052-.126.151.151,0,0,0-.015-.068c.005.006.01.006.015.011l.126.12.005-.141A1.006,1.006,0,0,0,32.756,33.413Zm-2.39-1.569v.094c0,.016,0,.215,0,.393v.041c-.078-.083-.173-.183-.267-.287-.152-.168-.282-.309-.392-.419-.042-.042-.079-.073-.11-.1a1.1,1.1,0,0,0-.1-.079c.058-.031.11-.057.157-.084.481-.251.8-.408.925-.47.006.021.016.047.026.078s.027.079.042.126.032.078.053.12a.193.193,0,0,0,.015.052,2.23,2.23,0,0,0,.246.455h-.031l-.251-.021.026.252Zm2.071,2.887-.01.011a.087.087,0,0,1-.063.026.077.077,0,0,1-.063-.026l-.042-.037-.052-.052-.146-.141L32,34.465l-.042-.042a.1.1,0,0,1-.021-.037.172.172,0,0,0,.058-.12v0a.089.089,0,0,1,.036-.006.077.077,0,0,1,.048.011l.015.016.037.031.146.141.053.047.1.1A.09.09,0,0,1,32.437,34.731Zm.2-.219-.01.015a.087.087,0,0,1-.063.027.078.078,0,0,1-.063-.027l-.136-.125-.052-.047-.147-.141,0-.006a.112.112,0,0,1-.032-.062.108.108,0,0,1,.021-.058l.021-.021.021-.016a.05.05,0,0,1,.036-.01h.005a.071.071,0,0,1,.063.021l.094.089.047.047.2.188a.087.087,0,0,1,.026.063A.071.071,0,0,1,32.641,34.512Zm.209-.21-.015.011a.09.09,0,0,1-.126,0l-.225-.214-.057-.053-.058-.057a.1.1,0,0,1-.005-.131l.016-.01a.1.1,0,0,1,.031-.021c.011,0,.016.005.021.005.021.01.042.016.068.026l.037.016.02.015.289.278a.086.086,0,0,1,.025.062A.1.1,0,0,1,32.85,34.3Zm-.188-.512a.591.591,0,0,1-.057-.021.306.306,0,0,0-.063-.031c-.021-.011-.042-.016-.062-.027-.038-.01-.079-.026-.116-.036-.021,0-.041-.016-.063-.021-.042-.011-.078-.021-.11-.026-.068-.016-.13-.037-.162-.047l-.2-.089.115.183a.868.868,0,0,1,.115.246l-.278-.079.042.12a.8.8,0,0,1,.047.236c-.256-.377-.983-1.371-1.38-1.867v-.288l.366.157-.037-.319.063.01,1,1.423.042-.005a1.379,1.379,0,0,1,.486.047.28.28,0,0,1,.063.026.435.435,0,0,1,.162.1.118.118,0,0,1,.026.021l.031.032a.926.926,0,0,1,.252.455A1.084,1.084,0,0,0,32.662,33.79Z"/><path d="M31.789,27v3.008a.4.4,0,0,1-.058.2,3.165,3.165,0,0,1-1.752,1.213,6.472,6.472,0,0,0-2.343,1.251h0a6.472,6.472,0,0,0-2.343-1.251,3.165,3.165,0,0,1-1.752-1.213.393.393,0,0,1-.057-.2V27Z" style="fill:#0846ac"/><path d="M27.714,22.649h4.3a1.325,1.325,0,0,0-.168.35,1.214,1.214,0,0,0-.057.387V27h-8.3V23.386a1.325,1.325,0,0,0-.226-.737h4.456Z" style="fill:#cb0b2e"/><path d="M31.742,22.753a.115.115,0,0,0-.157.016c-.006.005-.006.01-.011.016h.2Zm-.121,7.386a2.429,2.429,0,0,1-.9.8c.011.037.027.079.042.131a2.756,2.756,0,0,0,.931-.8c-.015-.063-.031-.126-.046-.194C31.637,30.1,31.627,30.123,31.621,30.139ZM23.53,22.753l-.031.032h.2c0-.006,0-.011-.011-.016A.116.116,0,0,0,23.53,22.753Zm-.523-.235.142.2a.952.952,0,0,1,.13.251,1.5,1.5,0,0,1,.063.235c.005.058.011.115.011.178v6.622a.539.539,0,0,0,.026.162.367.367,0,0,0,.047.1c.026.042.063.1.11.162a3.294,3.294,0,0,0,.925.758,1.126,1.126,0,0,1,.115.058,5.256,5.256,0,0,0,.67.288c.115.042.219.083.324.125l.136.047a7.621,7.621,0,0,1,.947.434,1.994,1.994,0,0,1,.23.136c.193.121.345.236.512.361.047.042.105.084.163.131l.031.026h.089l.036-.026.163-.131c.167-.125.319-.24.512-.366.068-.042.147-.089.23-.131a7.165,7.165,0,0,1,.947-.434l.136-.047c.1-.042.209-.083.324-.125a5.585,5.585,0,0,0,.67-.288.773.773,0,0,1,.115-.058,3.055,3.055,0,0,0,.925-.763c.047-.063.084-.115.11-.157a.588.588,0,0,0,.047-.1.539.539,0,0,0,.026-.162V23.386c0-.063.006-.12.011-.178a1.638,1.638,0,0,1,.036-.167c.011-.026.016-.047.027-.068a1.367,1.367,0,0,1,.125-.251l.141-.2Zm8.776.272a1.078,1.078,0,0,0-.062.172c-.006.021-.011.037-.016.053a1.26,1.26,0,0,0-.052.371v6.622a.184.184,0,0,1-.01.073c-.006.021-.016.042-.022.058a2.429,2.429,0,0,1-.9.8c-.036.021-.073.047-.115.068a4.526,4.526,0,0,1-.669.288c-.1.036-.188.073-.282.1-.126.048-.241.095-.351.136-.319.136-.57.252-.774.356-.084.047-.157.094-.23.136a5.848,5.848,0,0,0-.575.413,1.02,1.02,0,0,0-.084.063c-.031-.021-.052-.042-.084-.063a5.2,5.2,0,0,0-.58-.413c-.068-.042-.147-.089-.23-.136-.2-.1-.45-.22-.774-.356l-.351-.136c-.089-.031-.183-.068-.282-.1a5.433,5.433,0,0,1-.664-.288c-.042-.026-.079-.047-.116-.068a2.432,2.432,0,0,1-.9-.8.172.172,0,0,1-.021-.052.206.206,0,0,1-.016-.079V23.386a1.294,1.294,0,0,0-.052-.371.9.9,0,0,0-.073-.225l0,0h8.305Z" style="fill:#fed117"/><rect x="26.257" y="28.083" width="0.387" height="0.387" transform="translate(-12.259 27.388) rotate(-45.596)" style="fill:#fed117"/><path d="M30.4,26.43a3.431,3.431,0,0,0,.967.57,4.676,4.676,0,0,0-.936.66,5.335,5.335,0,0,0-.983-.66A2.987,2.987,0,0,0,30.4,26.43Z" style="fill:#fed117"/><path d="M30.816,29.48a.681.681,0,0,0-.152-.016.8.8,0,0,0-.8.8.787.787,0,0,0,.145.461.8.8,0,0,1,.152-1.585A.8.8,0,0,1,30.816,29.48Z" style="fill:#fed117"/><path d="M29.754,23.674a1.958,1.958,0,0,1,.659,1.611,2.072,2.072,0,0,1-1.4,1.532c.151.387.3.691.3.691a1.224,1.224,0,0,0-1.093.931,5.08,5.08,0,0,0-.063,1.088,4.117,4.117,0,0,0,.037.507.719.719,0,0,0,.188.445c.136.115.314.152.408.324a.308.308,0,0,1-.042.372.892.892,0,0,1-.345.177,2.151,2.151,0,0,0-.356.246.752.752,0,0,1-.418.141h0a.739.739,0,0,1-.418-.141,2.151,2.151,0,0,0-.356-.246.957.957,0,0,1-.35-.177.323.323,0,0,1-.042-.372c.1-.172.277-.209.413-.324a.719.719,0,0,0,.188-.445,4.117,4.117,0,0,0,.037-.507,5.08,5.08,0,0,0-.063-1.088,1.233,1.233,0,0,0-1.1-.931s.157-.3.309-.691a2.069,2.069,0,0,1-1.4-1.532,1.94,1.94,0,0,1,.659-1.611s.361-.325.549-.455A3.93,3.93,0,0,0,25.6,25a1.171,1.171,0,0,0,.319.759,1.319,1.319,0,0,0,.6.282,1.32,1.32,0,0,1,.2.068l.147.063s.167-.178.3-.178a.866.866,0,0,1,.287.12c.105.063.194.126.194.126h0A1.6,1.6,0,0,1,28.117,26c.131,0,.3.178.3.178l.142-.063a1.5,1.5,0,0,1,.2-.068,1.312,1.312,0,0,0,.6-.282A1.135,1.135,0,0,0,29.67,25a3.856,3.856,0,0,0-.47-1.783C29.388,23.349,29.754,23.674,29.754,23.674Z" style="fill:#fed117"/><polygon points="29.095 28.277 28.818 28.549 28.546 28.277 28.818 28.005 29.095 28.277" style="fill:#fed117"/><path d="M28.447,29.856c-.011-.188-.157-1.15.549-1.082a7.5,7.5,0,0,0-.178,1.605A.788.788,0,0,1,28.447,29.856Z" style="fill:#fed117"/><polygon points="28.687 24.27 28.122 24.469 28.379 25.013 27.835 24.751 27.636 25.321 27.432 24.751 26.893 25.013 27.15 24.469 26.585 24.27 27.15 24.066 26.893 23.522 27.432 23.784 27.636 23.219 27.835 23.784 28.379 23.522 28.122 24.066 28.687 24.27" style="fill:#fed117"/><path d="M26.276,28.774c.706-.068.56.894.549,1.082a.788.788,0,0,1-.371.523A7.5,7.5,0,0,0,26.276,28.774Z" style="fill:#fed117"/><path d="M25.962,29.3a.349.349,0,0,1-.109.486.331.331,0,0,1-.173.052h0a.335.335,0,0,0-.073-.005.4.4,0,0,1-.089-.026.258.258,0,0,0-.016-.089.337.337,0,0,0-.188-.23.281.281,0,0,1,.016-.094h0v0a.419.419,0,0,0,.026-.063h0a.314.314,0,0,1,.125-.136A.347.347,0,0,1,25.962,29.3Z" style="fill:#fed117"/><path d="M25.847,29.914a.354.354,0,0,1,.043.5.35.35,0,0,1-.492.042.314.314,0,0,1-.105-.147.451.451,0,0,0-.021-.078.265.265,0,0,1,0-.089.351.351,0,0,0,.241-.293l.094-.016a.384.384,0,0,0,.073.005h0A.354.354,0,0,1,25.847,29.914Z" style="fill:#fed117"/><path d="M25.518,29.8c0,.016,0,.031,0,.042a.351.351,0,0,1-.241.293s-.016,0-.021,0-.016.005-.026.005a.341.341,0,0,1-.345-.141.125.125,0,0,1-.026-.037.221.221,0,0,1-.032-.083.343.343,0,0,1,.058-.293.171.171,0,0,1,.031-.037.359.359,0,0,1,.167-.1.347.347,0,0,1,.194.01l.042.016a.337.337,0,0,1,.188.23A.258.258,0,0,1,25.518,29.8Z" style="fill:#fed117"/><path d="M25.816,27a5.162,5.162,0,0,0-.978.66A4.8,4.8,0,0,0,23.9,27a3.415,3.415,0,0,0,.973-.57A2.985,2.985,0,0,0,25.816,27Z" style="fill:#fed117"/><path d="M25.356,29.14a.378.378,0,0,1,0,.183h0a.28.28,0,0,0-.026.063v0h0a.785.785,0,0,1-.058.078.347.347,0,0,0-.194-.01.359.359,0,0,0-.167.1h-.005a.3.3,0,0,1-.084-.042h0c-.021-.015-.036-.031-.057-.047a.322.322,0,0,1-.089-.157.354.354,0,0,1,.256-.428A.349.349,0,0,1,25.356,29.14Z" style="fill:#fed117"/><path d="M25.293,30.306a.418.418,0,0,1-.021.178.353.353,0,0,1-.46.2.357.357,0,0,1-.2-.46.37.37,0,0,1,.11-.142h0a.183.183,0,0,0,.063-.042h0a.335.335,0,0,1,.094-.031h0a.341.341,0,0,0,.345.141.3.3,0,0,1,.047.079A.376.376,0,0,0,25.293,30.306Z" style="fill:#fed117"/><path d="M24.88,29.6h0a.343.343,0,0,0-.058.293.221.221,0,0,0,.032.083.365.365,0,0,1-.068.068h0a.575.575,0,0,0-.063.042h0a.342.342,0,0,1-.178.032.351.351,0,0,1-.329-.372.358.358,0,0,1,.376-.329.4.4,0,0,1,.173.057.217.217,0,0,0,.057.047A.754.754,0,0,1,24.88,29.6Z" style="fill:#fed117"/><path d="M28.949,24.265l-.706-.246.319-.68-.675.324-.251-.706-.251.706-.68-.324.324.68-.706.246.706.256-.324.675.68-.324.251.711.251-.711.675.324-.319-.675Zm-1.313.795-.152-.429-.408.194.194-.408-.424-.152.424-.147-.194-.408.408.194.152-.429.152.429.408-.194L28,24.118l.424.147L28,24.417l.194.408-.408-.194Z"/><path d="M29.812,23.606c-.016-.011-.366-.325-.56-.461l-.293-.209.168.319A3.976,3.976,0,0,1,29.587,25a1.039,1.039,0,0,1-.293.7,1.3,1.3,0,0,1-.554.267.957.957,0,0,0-.215.073l-.094.036a.522.522,0,0,0-.314-.157,1.289,1.289,0,0,0-.481.22c-.037-.021-.089-.052-.146-.089a.7.7,0,0,0-.335-.131.533.533,0,0,0-.319.157l-.089-.036a.957.957,0,0,0-.215-.073,1.342,1.342,0,0,1-.559-.267,1.057,1.057,0,0,1-.288-.7,3.976,3.976,0,0,1,.46-1.742l.168-.319-.293.209c-.194.136-.544.45-.56.466a2,2,0,0,0-.685,1.684,2.11,2.11,0,0,0,1.37,1.569c-.021.048-.041.095-.057.136-.12.272-.215.466-.215.471l-.062.115.131.011a1.14,1.14,0,0,1,1.019.858c.027.183.047.376.058.575.005.068.005.141.005.214,0,.095,0,.184-.005.278v.052a4.193,4.193,0,0,1-.037.445.648.648,0,0,1-.157.4c-.042.031-.089.058-.141.089a.672.672,0,0,0-.288.256.411.411,0,0,0,.053.476.676.676,0,0,0,.293.162l.083.032.058.026c.057.037.11.078.167.12a.9.9,0,0,0,.115.089c.006,0,.011,0,.016.011a.792.792,0,0,0,.455.151.8.8,0,0,0,.455-.151l.01-.011a.659.659,0,0,0,.116-.089c.057-.042.115-.083.172-.12.016-.01.037-.016.052-.026.032-.011.058-.021.084-.032a.665.665,0,0,0,.3-.162.411.411,0,0,0,.053-.476.672.672,0,0,0-.288-.256c-.052-.031-.1-.058-.147-.089a.688.688,0,0,1-.151-.4,3.13,3.13,0,0,1-.037-.445l0-.052c0-.094-.005-.183-.005-.278,0-.073.005-.146.01-.214a3.276,3.276,0,0,1,.063-.575,1.125,1.125,0,0,1,1.015-.858l.125-.011-.057-.115s-.1-.2-.214-.471c-.017-.041-.038-.088-.053-.136A2.119,2.119,0,0,0,30.5,25.3,2.061,2.061,0,0,0,29.812,23.606Zm.512,1.668a2.01,2.01,0,0,1-1.344,1.465l-.078.037.031.078c.021.047.042.1.063.146.078.189.151.346.193.445a1.255,1.255,0,0,0-1.046.983,4.52,4.52,0,0,0-.068.6c0,.068,0,.141,0,.214,0,.095,0,.189,0,.283v.057c.006.152.016.309.037.466a.773.773,0,0,0,.22.5,1.065,1.065,0,0,0,.167.11.528.528,0,0,1,.225.188.236.236,0,0,1-.032.272.559.559,0,0,1-.224.12l-.095.032a1.088,1.088,0,0,0-.224.141c-.01.01-.027.021-.037.031a1.339,1.339,0,0,1-.11.084.595.595,0,0,1-.732,0,1.339,1.339,0,0,1-.11-.084c-.01-.01-.026-.021-.037-.031a.989.989,0,0,0-.23-.141c-.031-.011-.062-.021-.089-.032a.592.592,0,0,1-.23-.12.246.246,0,0,1-.026-.272.528.528,0,0,1,.225-.188,1.362,1.362,0,0,0,.167-.11.744.744,0,0,0,.215-.5,3.546,3.546,0,0,0,.036-.466l.006-.057c.005-.094.005-.188.005-.283,0-.073-.005-.146-.011-.214a3.717,3.717,0,0,0-.062-.6,1.254,1.254,0,0,0-1.052-.983c.047-.1.121-.256.2-.445.021-.047.042-.1.063-.146l.026-.078-.073-.037a2,2,0,0,1-1.344-1.465,1.846,1.846,0,0,1,.628-1.537s.125-.11.261-.22a3.53,3.53,0,0,0-.324,1.491,1.213,1.213,0,0,0,.35.816,1.359,1.359,0,0,0,.633.308.765.765,0,0,1,.183.058l.2.089.047-.042a.445.445,0,0,1,.23-.152.669.669,0,0,1,.246.11c.1.057.183.115.188.115l.021.016h.052l.021-.016a1.608,1.608,0,0,1,.434-.225.5.5,0,0,1,.236.152l.036.042.2-.089a.8.8,0,0,1,.183-.058,1.4,1.4,0,0,0,.638-.308,1.234,1.234,0,0,0,.346-.816,3.545,3.545,0,0,0-.325-1.491c.136.11.256.22.256.22A1.834,1.834,0,0,1,30.324,25.274Z"/><path d="M26.449,27.911l-.366.366.366.366.371-.366Zm0,.188.183.178-.183.178-.178-.178Z"/><path d="M26.888,29.244a.741.741,0,0,0-.063-.214.44.44,0,0,0-.12-.188.526.526,0,0,0-.439-.136l-.074.01.016.073s.021.095.052.241c.011.063.027.136.037.214a6.245,6.245,0,0,1,.094,1.135l0,.136.11-.078a.849.849,0,0,0,.392-.575c0-.016,0-.037,0-.058A2.192,2.192,0,0,0,26.888,29.244Zm-.125.544c0,.027-.006.047-.006.063a.61.61,0,0,1-.235.392,6.972,6.972,0,0,0-.094-1c-.011-.078-.026-.151-.037-.214-.015-.084-.026-.146-.036-.194a.366.366,0,0,1,.261.1.429.429,0,0,1,.068.094.668.668,0,0,1,.073.214A2.121,2.121,0,0,1,26.763,29.788Z"/><path d="M28.823,27.911l-.371.366.371.366.362-.366Zm0,.188.178.178-.178.178-.183-.178Z"/><path d="M29,28.706a.543.543,0,0,0-.439.136.7.7,0,0,0-.121.188.915.915,0,0,0-.062.214,2.947,2.947,0,0,0-.006.56.208.208,0,0,1,.006.058.842.842,0,0,0,.4.575l.11.078,0-.136a6.335,6.335,0,0,1,.094-1.135c.016-.078.026-.151.036-.214.027-.146.048-.241.048-.241l.021-.073Zm-.12.324c-.016.063-.026.136-.042.214a7.011,7.011,0,0,0-.089,1,.61.61,0,0,1-.235-.392c0-.016-.006-.036-.006-.063a2.121,2.121,0,0,1,.006-.544.566.566,0,0,1,.073-.214.429.429,0,0,1,.068-.094.367.367,0,0,1,.261-.1A1.941,1.941,0,0,0,28.881,29.03Z"/><path d="M25.842,26.938a2.88,2.88,0,0,1-.926-.555l-.041-.047-.053.047a3.367,3.367,0,0,1-.946.555l-.136.052.02.01.11.058a5.036,5.036,0,0,1,.921.643l.042.053.052-.047a5.276,5.276,0,0,1,.962-.649L25.962,27l.021-.01Zm-.178.073a4.95,4.95,0,0,0-.82.554,4.666,4.666,0,0,0-.8-.554c.005,0,.011,0,.016-.011a3.214,3.214,0,0,0,.8-.481,2.722,2.722,0,0,0,.78.481C25.654,27.006,25.659,27.006,25.664,27.011Z"/><path d="M31.4,26.938a3.437,3.437,0,0,1-.951-.555l-.048-.047-.041.047a2.818,2.818,0,0,1-.926.555l-.136.052.016.01.115.058a5.306,5.306,0,0,1,.963.649l.046.047.047-.053a4.835,4.835,0,0,1,.921-.643l.1-.058.021-.01Zm-.172.073a4.623,4.623,0,0,0-.8.554,5.215,5.215,0,0,0-.821-.554s.01,0,.015-.011a2.722,2.722,0,0,0,.78-.481,3.286,3.286,0,0,0,.8.481C31.213,27.006,31.219,27.006,31.224,27.011Z"/><path d="M30.868,29.443a.889.889,0,0,0-.193-.2.862.862,0,0,0-1.02,0A.861.861,0,0,0,30,30.787l.162.032-.094-.136a.7.7,0,0,1-.136-.419.735.735,0,0,1,.737-.732.664.664,0,0,1,.142.016l.162.031Zm-1.072.821a.855.855,0,0,0,.073.346.732.732,0,0,1,.063-1.366.753.753,0,0,1,.46,0,.766.766,0,0,1,.267.157A.864.864,0,0,0,29.8,30.264Z"/><path d="M26.072,29.574a.419.419,0,0,0-.052-.314c0-.005,0-.01-.011-.016a.426.426,0,0,0-.564-.115c-.006.006-.016.011-.021.016a.033.033,0,0,0,0-.021.2.2,0,0,0-.037-.094.351.351,0,0,0-.152-.162.42.42,0,0,0-.575.146c0,.006-.005.011-.005.016a.43.43,0,0,0-.053.214l.016.084s0,.016,0,.021H24.6a.406.406,0,0,0-.3.1.411.411,0,0,0-.141.288.412.412,0,0,0,.387.445h.026a.027.027,0,0,0-.011.021.419.419,0,0,0,.236.544.5.5,0,0,0,.151.026.468.468,0,0,0,.168-.032.427.427,0,0,0,.22-.23.031.031,0,0,0,.005-.021.141.141,0,0,1,.021.016.406.406,0,0,0,.261.1.121.121,0,0,0,.042,0,.4.4,0,0,0,.283-.152.391.391,0,0,0,.094-.3.43.43,0,0,0-.146-.282l-.017-.016c.006,0,.011,0,.017-.011A.394.394,0,0,0,26.072,29.574Zm-.633.832a.3.3,0,0,1-.083-.115.36.36,0,0,0-.021-.074v-.036a.429.429,0,0,0,.235-.278.083.083,0,0,1,.037,0c.015,0,.036,0,.062,0h.006a.281.281,0,0,1,.13.063.267.267,0,0,1,.1.189.312.312,0,0,1-.063.214.287.287,0,0,1-.193.1A.292.292,0,0,1,25.439,30.406Zm-.381.214a.294.294,0,0,1-.22,0,.286.286,0,0,1-.162-.371.332.332,0,0,1,.073-.105l.021-.01a.3.3,0,0,0,.047-.037c.01-.005.027-.01.037-.016a.416.416,0,0,0,.308.142c.011,0,.021-.006.032-.006l.016.032c0,.026.01.047.015.068a.269.269,0,0,1-.015.141A.309.309,0,0,1,25.058,30.62Zm-.471-1.14a.24.24,0,0,1,.136.042.4.4,0,0,1,.052.047.055.055,0,0,1,.026.026.424.424,0,0,0-.042.308.338.338,0,0,0,.021.058.113.113,0,0,1-.031.021l-.047.031-.047.021a.325.325,0,0,1-.105.016.309.309,0,0,1-.2-.1.29.29,0,0,1-.067-.2.277.277,0,0,1,.3-.267Zm.183-.4c.01-.016.026-.031.037-.047a.3.3,0,0,1,.141-.084.276.276,0,0,1,.214.032.286.286,0,0,1,.063.052.271.271,0,0,1,.068.126.176.176,0,0,1,0,.088.228.228,0,0,1,0,.058.166.166,0,0,0-.026.063l0,.005c-.006.01-.006.016-.011.026a.374.374,0,0,0-.188,0,.4.4,0,0,0-.167.089c-.011,0-.027-.016-.037-.021a.213.213,0,0,0-.052-.042.338.338,0,0,1-.068-.125c0-.016-.006-.037-.006-.053A.276.276,0,0,1,24.77,29.077Zm.737.167c.006,0,.006,0,.006,0a.3.3,0,0,1,.308,0,.238.238,0,0,1,.089.089.285.285,0,0,1,.037.215.292.292,0,0,1-.126.178.335.335,0,0,1-.136.047.3.3,0,0,0-.073-.006c-.011,0-.021,0-.036-.01a.175.175,0,0,0-.006-.058.415.415,0,0,0-.188-.251c0-.01,0-.026.01-.036L25.4,29.4h0s0-.01,0-.015l.016-.047A.4.4,0,0,1,25.507,29.244Zm-.272.837a.037.037,0,0,0-.021.006.3.3,0,0,1-.282-.116.1.1,0,0,1-.021-.031.284.284,0,0,1,.026-.309.1.1,0,0,0,.016-.026.32.32,0,0,1,.141-.083.261.261,0,0,1,.068-.006.471.471,0,0,1,.089.011c.016,0,.021.01.037.016a.279.279,0,0,1,.151.188.307.307,0,0,1,.011.073h0a.083.083,0,0,1,0,.037.282.282,0,0,1-.194.235C25.246,30.076,25.241,30.081,25.235,30.081Z"/></svg>