<svg xmlns="http://www.w3.org/2000/svg" viewBox="0 0 55 55"><path d="M50.8,27.5c0,.779-.042,1.548-.115,2.311a22.922,22.922,0,0,1-2.348,8.1A23.284,23.284,0,0,1,8.718,41.272a23.334,23.334,0,0,1-4.4-11.458,22.323,22.323,0,0,1,0-4.623,23.329,23.329,0,0,1,4.4-11.463,23.275,23.275,0,0,1,37.564,0,23.651,23.651,0,0,1,2.055,3.357,22.984,22.984,0,0,1,2.348,8.106C50.758,25.949,50.8,26.723,50.8,27.5Z" style="fill:#d10201"/><path d="M21.055,32.774l-12.337,8.5a22.9,22.9,0,0,1-2.05-3.357l13.377-6.689A8.223,8.223,0,0,0,21.055,32.774Z" style="fill:#fee51b"/><path d="M48.337,37.915a23.373,23.373,0,0,1-2.055,3.357l-12.331-8.5a8.5,8.5,0,0,0,1-1.548Z" style="fill:#fee51b"/><path d="M48.337,17.085,34.955,23.779a8.539,8.539,0,0,0-1-1.553l12.331-8.5A23.651,23.651,0,0,1,48.337,17.085Z" style="fill:#fee51b"/><path d="M21.055,22.226a8.26,8.26,0,0,0-1.01,1.553L6.668,17.085a22.9,22.9,0,0,1,2.05-3.357Z" style="fill:#fee51b"/><path d="M32.058,50.35a23.278,23.278,0,0,1-9.11,0l3.4-14.6a8.085,8.085,0,0,0,2.311,0Z" style="fill:#fee51b"/><path d="M32.058,4.65l-3.4,14.6a8.6,8.6,0,0,0-2.311,0l-3.4-14.6a23.278,23.278,0,0,1,9.11,0Z" style="fill:#fee51b"/><path d="M19.167,27.5c0,.272.016.549.042.815L4.32,29.814a22.323,22.323,0,0,1,0-4.623l14.889,1.491C19.183,26.954,19.167,27.225,19.167,27.5Z" style="fill:#fee51b"/><path d="M50.8,27.5c0,.779-.042,1.548-.115,2.311l-14.894-1.5a8.145,8.145,0,0,0,.042-.815c0-.278-.015-.549-.042-.821l14.894-1.491C50.758,25.949,50.8,26.723,50.8,27.5Z" style="fill:#fee51b"/><path d="M34.149,27.5c0,.219-.01.434-.031.648a6.607,6.607,0,0,1-.669,2.322,6.487,6.487,0,0,1-.889,1.344A6.614,6.614,0,0,1,28.271,34.1a6.057,6.057,0,0,1-.768.047,6.152,6.152,0,0,1-.774-.047,6.6,6.6,0,0,1-4.283-2.285,6.473,6.473,0,0,1-.9-1.344,6.607,6.607,0,0,1-.669-2.322c-.021-.214-.031-.429-.031-.648s.01-.44.031-.654A6.655,6.655,0,0,1,26.729,20.9a6.21,6.21,0,0,1,.774-.047,6.057,6.057,0,0,1,.768.047,6.642,6.642,0,0,1,5.847,5.951C34.139,27.063,34.149,27.283,34.149,27.5Z" style="fill:#fee51b"/></svg>