<svg xmlns="http://www.w3.org/2000/svg" viewBox="0 0 55 55"><path d="M49.467,35.265a23.3,23.3,0,0,1-43.934,0Z" style="fill:#e92838"/><path d="M50.8,27.5a23.193,23.193,0,0,1-1.333,7.768H5.533a23.283,23.283,0,0,1,0-15.53h43.94A23.306,23.306,0,0,1,50.8,27.5Z" style="fill:#31b137"/><path d="M49.473,19.735H5.533a23.3,23.3,0,0,1,43.94,0Z" style="fill:#fdca16"/><polygon points="27.505 11.957 31.363 23.828 43.847 23.828 33.747 31.167 37.606 43.043 27.505 35.704 17.4 43.043 21.258 31.167 11.158 23.828 23.642 23.828 27.505 11.957" style="fill:#fff"/></svg>