<svg xmlns="http://www.w3.org/2000/svg" viewBox="0 0 55 55"><path d="M19.737,5.533V49.467A23.415,23.415,0,0,1,8.419,40.852c-.157-.22-.309-.45-.46-.675-.293-.455-.575-.915-.837-1.39A22.874,22.874,0,0,1,5.768,35.9,23.14,23.14,0,0,1,4.2,27.5c0-.345.011-.69.026-1.035A23.186,23.186,0,0,1,9.558,12.653c.068-.078.131-.157.2-.24l.006-.005A23.312,23.312,0,0,1,19.737,5.533Z" style="fill:#c4272f"/><path d="M50.8,27.5A23.337,23.337,0,0,0,35.268,5.533V49.467A23.337,23.337,0,0,0,50.8,27.5Z" style="fill:#c4272f"/><path d="M27.5,4.2a23.164,23.164,0,0,0-7.768,1.333V49.467a23.3,23.3,0,0,0,15.536,0V5.533A23.164,23.164,0,0,0,27.5,4.2Z" style="fill:#015197"/><path d="M5.768,26.465V35.9A23.14,23.14,0,0,1,4.2,27.5c0-.345.011-.69.026-1.035Z" style="fill:#f9cf02"/><rect x="14.023" y="26.465" width="3.393" height="16.446" style="fill:#f9cf02"/><path d="M7.222,32.519a3.425,3.425,0,0,0,.544,4.809,4.2,4.2,0,0,0,.553.361c-.005-.005-.005-.011-.01-.016-.031-.031-.058-.063-.089-.1h0c-.026-.037-.052-.068-.078-.1l-.016-.027a.719.719,0,0,1-.068-.1,0,0,0,0,1,0,0A.807.807,0,0,1,8,37.25c-.006-.006-.011-.016-.016-.021-.016-.037-.031-.068-.047-.1a.018.018,0,0,1,0-.015A.356.356,0,0,1,7.9,37.03c0-.005,0-.016-.01-.021l-.032-.094c0-.005,0-.01,0-.016a.674.674,0,0,1-.021-.083c0-.005,0-.011,0-.021a.478.478,0,0,1-.021-.089v-.021a.432.432,0,0,1-.011-.073c0-.011,0-.016-.005-.021a.479.479,0,0,0,0-.084V36.4c0-.027,0-.058,0-.084v-.021c.005-.021.005-.047.011-.073v0c0-.027,0-.053.01-.079,0-.005,0-.01,0-.021s.011-.047.016-.073A2.039,2.039,0,0,1,9.883,34.51a2.252,2.252,0,0,0,1.265-.454,1.451,1.451,0,0,0,.46-.764,1.706,1.706,0,0,0-.5-1.578,1.81,1.81,0,0,0-1.537-.466A3.582,3.582,0,0,0,8.56,31.5a3.491,3.491,0,0,0-.889.549A3.8,3.8,0,0,0,7.222,32.519Z" style="fill:#f9cf02"/><path d="M12.57,36.779a3.412,3.412,0,0,0-.544-4.8,3.608,3.608,0,0,0-.7-.434s.006.01.006.01l.052.053a2.233,2.233,0,0,1,.517.951A1.811,1.811,0,0,1,10.756,34.6a3.383,3.383,0,0,1-.847.189,2.088,2.088,0,0,0-1.574.773,1.48,1.48,0,0,0-.246,1.093,1.8,1.8,0,0,0,1.48,1.385,2.875,2.875,0,0,0,1.38-.141A3.43,3.43,0,0,0,12.57,36.779Z" style="fill:#f9cf02"/><circle cx="9.94" cy="36.392" r="0.716" style="fill:#c4272f"/><path d="M10.656,32.89a.716.716,0,1,1-.716-.716A.718.718,0,0,1,10.656,32.89Z" style="fill:#c4272f"/><rect x="6.479" y="29.194" width="6.838" height="1.396" style="fill:#f9cf02"/><path d="M13.317,38.787v1.39H7.959c-.293-.455-.575-.915-.837-1.39Z" style="fill:#f9cf02"/><path d="M13.317,40.852l-1.709,1.029-1.616.973a23.348,23.348,0,0,1-1.573-2Z" style="fill:#f9cf02"/><polygon points="9.898 26.465 13.317 26.465 11.608 27.495 9.898 28.519 8.189 27.495 6.479 26.465 9.898 26.465" style="fill:#f9cf02"/><circle cx="9.898" cy="20.976" r="2.765" style="fill:#f9cf02"/><path d="M9.893,17.557a1.715,1.715,0,0,1-1.709-1.715,1.431,1.431,0,0,1,.413-.894c.036-.078-.037-.23-.047-.423s-.048-.3.083-.46c.115-.136.183-.209.2-.225a.761.761,0,0,0-.026.314,1,1,0,0,0,.162.261.921.921,0,0,1,.01.664c-.078.219-.178.491-.01.648a.314.314,0,0,0,.5.011c.151-.173.126-.288.041-.481a1.11,1.11,0,0,1-.209-.8,3.121,3.121,0,0,1,.3-.81,1.269,1.269,0,0,0-.031-.79.793.793,0,0,1-.016-.2c.068-.078.131-.157.2-.24a.283.283,0,0,0,.063.188c.471.58,1.072,1.359.643,2.248,0,0-.329.591-.167.784.042.078.366.413.611.026a.612.612,0,0,0-.073-.507.673.673,0,0,1,.058-.774.533.533,0,0,0,.062-.559.781.781,0,0,1,.3.512c.031.319-.162.455.036.732a1.1,1.1,0,0,1,.3.779A1.675,1.675,0,0,1,9.893,17.557Z" style="fill:#f9cf02"/><path d="M9.9,24.426A4.116,4.116,0,0,1,6.134,21.98c0,.02-.005.036-.005.052a3.767,3.767,0,0,0,7.533,0V21.98A4.12,4.12,0,0,1,9.9,24.426Z" style="fill:#f9cf02"/></svg>