<svg xmlns="http://www.w3.org/2000/svg" viewBox="0 0 55 55"><path d="M27.5,4.2A23.312,23.312,0,0,0,7.328,15.847H47.672A23.317,23.317,0,0,0,27.5,4.2Z" style="fill:#e92838"/><path d="M27.5,50.8A23.31,23.31,0,0,0,47.672,39.147H7.328A23.3,23.3,0,0,0,27.5,50.8Z" style="fill:#00a452"/><path d="M47.672,15.847H7.328A23.172,23.172,0,0,0,4.2,27.5H50.8A23.172,23.172,0,0,0,47.672,15.847Z" style="fill:#1b206c"/><path d="M4.2,27.5A23.167,23.167,0,0,0,7.328,39.147H47.672A23.167,23.167,0,0,0,50.8,27.5Z" style="fill:#fed417"/></svg>