<svg xmlns="http://www.w3.org/2000/svg" viewBox="0 0 55 55"><path d="M49.466,19.737H5.534a23.3,23.3,0,0,1,43.932,0Z"/><path d="M50.8,27.5a23,23,0,0,1-1.334,7.765H5.539a23.228,23.228,0,0,1,0-15.531H49.466A23.008,23.008,0,0,1,50.8,27.5Z" style="fill:#cd1225"/><path d="M49.466,35.268a23.3,23.3,0,0,1-43.927,0Z" style="fill:#309d37"/><path d="M27.5,11.893A10.08,10.08,0,0,0,18,18.618H37.009A10.083,10.083,0,0,0,27.5,11.893Z" style="fill:#cd1225"/><path d="M27.5,10.737c.241,0,.439-3.865.439-4.105s-.2-.549-.439-.549-.434.308-.434.549S27.259,10.737,27.5,10.737Z" style="fill:#cd1225"/><path d="M26.522,10.784c.241-.021.1-3.891.079-4.131s-.241-.529-.482-.508-.413.34-.392.581S26.281,10.805,26.522,10.784Z" style="fill:#cd1225"/><path d="M25.549,10.909c.241-.041-.24-3.885-.282-4.12s-.287-.508-.523-.466-.377.377-.335.617S25.314,10.951,25.549,10.909Z" style="fill:#cd1225"/><path d="M24.592,11.124c.235-.063-.575-3.849-.638-4.084s-.329-.476-.565-.414a.547.547,0,0,0-.282.638C23.169,7.5,24.362,11.187,24.592,11.124Z" style="fill:#cd1225"/><path d="M23.661,11.417c.225-.084-.915-3.786-.994-4.011s-.371-.445-.6-.366a.548.548,0,0,0-.22.664C21.925,7.929,23.431,11.5,23.661,11.417Z" style="fill:#cd1225"/><path d="M22.756,11.793c.22-.1-1.239-3.692-1.344-3.911s-.407-.414-.622-.309a.54.54,0,0,0-.168.68C20.722,8.472,22.537,11.893,22.756,11.793Z" style="fill:#cd1225"/><path d="M21.883,12.243c.209-.12-1.553-3.567-1.674-3.776a.547.547,0,0,0-.653-.256.541.541,0,0,0-.105.69C19.571,9.11,21.679,12.363,21.883,12.243Z" style="fill:#cd1225"/><path d="M21.057,12.771c.2-.141-1.857-3.42-2-3.619a.535.535,0,0,0-.669-.193.54.54,0,0,0-.048.7C18.483,9.853,20.863,12.907,21.057,12.771Z" style="fill:#cd1225"/><path d="M20.282,13.367c.184-.157-2.154-3.242-2.306-3.43a.543.543,0,0,0-.685-.136.54.54,0,0,0,.016.7C17.458,10.685,20.094,13.519,20.282,13.367Z" style="fill:#cd1225"/><path d="M19.561,14.026c.167-.167-2.426-3.043-2.6-3.211a.539.539,0,0,0-.7-.078.545.545,0,0,0,.078.7C16.517,11.605,19.388,14.2,19.561,14.026Z" style="fill:#cd1225"/><path d="M18.9,14.753c.156-.188-2.684-2.824-2.867-2.975a.545.545,0,0,0-.7-.021.542.542,0,0,0,.141.685C15.654,12.6,18.74,14.936,18.9,14.753Z" style="fill:#cd1225"/><path d="M14.686,13.529c.194.136,3.478,2.2,3.614,2s-2.918-2.573-3.117-2.714a.541.541,0,0,0-.7.047C14.346,13.054,14.488,13.388,14.686,13.529Z" style="fill:#cd1225"/><path d="M14,14.68c.21.12,3.656,1.883,3.776,1.673s-3.128-2.311-3.337-2.431a.541.541,0,0,0-.69.1A.539.539,0,0,0,14,14.68Z" style="fill:#cd1225"/><path d="M13.41,15.883c.22.1,3.808,1.558,3.912,1.338S14,15.192,13.782,15.093a.54.54,0,0,0-.68.162A.551.551,0,0,0,13.41,15.883Z" style="fill:#cd1225"/><path d="M12.934,17.133c.23.083,3.928,1.223,4.012,1s-3.484-1.736-3.714-1.819a.548.548,0,0,0-.659.224C12.49,16.761,12.709,17.049,12.934,17.133Z" style="fill:#cd1225"/><path d="M12.155,17.859c-.063.231.183.5.413.565.069.016.419.094.894.194H15.8c-1.088-.434-2.845-1-3-1.041A.544.544,0,0,0,12.155,17.859Z" style="fill:#cd1225"/><path d="M42.432,18.424c.235-.063.481-.334.418-.565a.544.544,0,0,0-.643-.282c-.157.042-1.914.607-3,1.041h2.338C42.013,18.518,42.369,18.44,42.432,18.424Z" style="fill:#cd1225"/><path d="M38.055,18.131c.083.225,3.786-.915,4.011-1s.45-.372.366-.6a.552.552,0,0,0-.664-.224C41.543,16.4,37.976,17.9,38.055,18.131Z" style="fill:#cd1225"/><path d="M37.683,17.221c.1.22,3.687-1.234,3.907-1.338a.549.549,0,0,0,.314-.628.542.542,0,0,0-.68-.162C41,15.192,37.578,17.007,37.683,17.221Z" style="fill:#cd1225"/><path d="M37.228,16.353c.12.21,3.572-1.553,3.776-1.673a.547.547,0,0,0,.256-.654.541.541,0,0,0-.69-.1C40.361,14.042,37.108,16.144,37.228,16.353Z" style="fill:#cd1225"/><path d="M36.705,15.527c.136.2,3.415-1.862,3.614-2a.545.545,0,0,0,.2-.669.55.55,0,0,0-.7-.047C39.624,12.954,36.564,15.328,36.705,15.527Z" style="fill:#cd1225"/><path d="M36.109,14.753c.151.183,3.242-2.154,3.425-2.311a.541.541,0,0,0,.136-.685.538.538,0,0,0-.7.021C38.787,11.929,35.952,14.565,36.109,14.753Z" style="fill:#cd1225"/><path d="M35.444,14.026c.173.173,3.044-2.421,3.217-2.594a.546.546,0,0,0,.074-.7.541.541,0,0,0-.7.078C37.871,10.983,35.272,13.859,35.444,14.026Z" style="fill:#cd1225"/><path d="M34.723,13.367c.183.152,2.819-2.682,2.976-2.865a.545.545,0,0,0,.015-.7.543.543,0,0,0-.685.136C36.872,10.125,34.534,13.21,34.723,13.367Z" style="fill:#cd1225"/><path d="M33.943,12.771c.2.136,2.579-2.918,2.715-3.117a.533.533,0,0,0-.042-.7.544.544,0,0,0-.675.193C35.806,9.351,33.745,12.63,33.943,12.771Z" style="fill:#cd1225"/><path d="M33.117,12.243c.209.12,2.312-3.133,2.432-3.342a.541.541,0,0,0-.1-.69.541.541,0,0,0-.648.256C34.676,8.676,32.908,12.123,33.117,12.243Z" style="fill:#cd1225"/><path d="M32.249,11.793c.22.1,2.029-3.321,2.134-3.54a.546.546,0,0,0-.168-.68c-.219-.105-.523.089-.627.309S32.029,11.689,32.249,11.793Z" style="fill:#cd1225"/><path d="M31.344,11.417c.226.083,1.731-3.488,1.815-3.713a.542.542,0,0,0-.225-.664c-.225-.079-.512.141-.6.366S31.119,11.333,31.344,11.417Z" style="fill:#cd1225"/><path d="M30.408,11.124c.235.063,1.423-3.624,1.485-3.86a.543.543,0,0,0-.277-.638c-.235-.062-.5.178-.565.414S30.178,11.061,30.408,11.124Z" style="fill:#cd1225"/><path d="M29.451,10.909c.24.042,1.1-3.733,1.145-3.969s-.1-.575-.334-.617-.487.225-.529.466S29.216,10.868,29.451,10.909Z" style="fill:#cd1225"/><path d="M28.484,10.784c.235.021.768-3.818.789-4.058s-.146-.56-.387-.581-.46.267-.481.508S28.243,10.763,28.484,10.784Z" style="fill:#cd1225"/></svg>