<svg xmlns="http://www.w3.org/2000/svg" viewBox="0 0 55 55"><path d="M49.121,36.208a23.43,23.43,0,0,1-8.029,10.235A23.285,23.285,0,0,1,27.5,50.8a23.24,23.24,0,0,1-15.97-6.318c-.172-.162-.345-.329-.517-.5a23.164,23.164,0,0,1-5.137-7.772Z" style="fill:#fbe019"/><path d="M49.121,18.787H5.879A23.048,23.048,0,0,1,9.3,12.939c.01-.015.021-.026.031-.041a.237.237,0,0,1,.037-.042.075.075,0,0,1,.031-.042.59.59,0,0,0,.047-.058.1.1,0,0,1,.021-.021v0a.577.577,0,0,1,.052-.063.181.181,0,0,1,.027-.031c.01-.016.026-.031.036-.047s.005-.01.016-.01a.2.2,0,0,1,.036-.053c.262-.308.529-.612.811-.915.005-.01.016-.016.026-.026V11.58a.558.558,0,0,0,.058-.053.143.143,0,0,1,.026-.031c.016-.021.037-.037.052-.058a.061.061,0,0,1,.032-.026.863.863,0,0,1,.1-.1.279.279,0,0,1,.037-.042l.042-.042a.321.321,0,0,1,.041-.042c.053-.057.105-.11.163-.167.172-.173.345-.34.517-.5.272-.257.55-.5.827-.743a.189.189,0,0,1,.036-.026l.032-.031c.011-.006.021-.016.031-.021.267-.231.539-.45.811-.659a.152.152,0,0,1,.037-.027.108.108,0,0,1,.036-.026.242.242,0,0,1,.037-.031c.172-.131.35-.262.528-.392.555-.4,1.125-.769,1.7-1.109a.184.184,0,0,1,.047-.026c.11-.068.225-.136.341-.2.025-.016.046-.026.072-.042.074-.042.147-.084.22-.12a.138.138,0,0,1,.042-.021A.347.347,0,0,1,16.4,7a23.156,23.156,0,0,1,8.61-2.667,22.383,22.383,0,0,1,2.3-.131h.372A23.242,23.242,0,0,1,38.6,6.993a24.417,24.417,0,0,1,2.495,1.564,23.342,23.342,0,0,1,8.029,10.23Z" style="fill:#007067"/><path d="M50.8,27.5a23.374,23.374,0,0,1-1.151,7.259H5.351a23.485,23.485,0,0,1,0-14.524h44.3A23.392,23.392,0,0,1,50.8,27.5Z"/><path d="M49.649,20.235H5.351l.172-.5c.11-.319.231-.633.356-.946H49.121c.131.313.251.627.361.946C49.539,19.9,49.6,20.068,49.649,20.235Z" style="fill:#fff"/><path d="M49.649,34.759c-.052.168-.11.34-.167.508q-.165.469-.361.941H5.879c-.125-.314-.246-.628-.356-.941l-.172-.508Z" style="fill:#fff"/><path d="M33.832,27.5,24.3,34.759l-1.9,1.449L11.533,44.482c-.172-.162-.345-.329-.517-.5a23.164,23.164,0,0,1-5.137-7.772c-.125-.314-.246-.628-.356-.941l-.172-.508a23.485,23.485,0,0,1,0-14.524l.172-.5c.11-.319.231-.633.356-.946A23.048,23.048,0,0,1,9.3,12.939c.01-.015.021-.026.031-.041a.237.237,0,0,1,.037-.042.075.075,0,0,1,.031-.042.59.59,0,0,0,.047-.058.1.1,0,0,1,.021-.021v0a.577.577,0,0,1,.052-.063.181.181,0,0,1,.027-.031c.01-.016.026-.031.036-.047s.005-.01.016-.01a.2.2,0,0,1,.036-.053c.262-.308.529-.612.811-.915.005-.01.016-.016.026-.026V11.58a.558.558,0,0,0,.058-.053.143.143,0,0,1,.026-.031c.016-.021.037-.037.052-.058a.061.061,0,0,1,.032-.026.863.863,0,0,1,.1-.1.279.279,0,0,1,.037-.042l.042-.042a.321.321,0,0,1,.041-.042c.053-.057.105-.11.163-.167.172-.173.345-.34.517-.5L22.4,18.787l1.9,1.448Z" style="fill:#d11133"/><polygon points="15.137 18.797 17.298 25.445 24.286 25.445 18.631 29.55 20.792 36.192 15.137 32.087 9.483 36.192 11.643 29.55 5.989 25.445 12.977 25.445 15.137 18.797" style="fill:#fbe019"/><polygon points="11.643 26.726 10.812 30.497 10.147 31.391 11.162 27.165 11.643 26.726" style="fill:#fff"/><polygon points="19.113 27.165 20.133 31.391 19.463 30.497 18.631 26.726 19.113 27.165" style="fill:#fff"/><path d="M19.406,30.554l.732.984H16.084a1.956,1.956,0,0,0-.832-.591A11.175,11.175,0,0,1,19.406,30.554Z" style="fill:#fff"/><path d="M18.532,26.642l.842,3.829a11,11,0,0,0-4.195.418V26.627C16.042,25.894,18.281,26.564,18.532,26.642Z" style="fill:#fff"/><path d="M15.169,31a1.971,1.971,0,0,1,.837.57,1.292,1.292,0,0,1-1.736,0,1.932,1.932,0,0,1,.836-.57l.031-.01Z" style="fill:#fff"/><path d="M10.874,30.554a11.181,11.181,0,0,1,4.153.393,2,2,0,0,0-.836.591H10.142Z" style="fill:#fff"/><path d="M15.1,26.627v4.262a9.054,9.054,0,0,0-3.117-.46c-.528,0-.931.031-1.078.042l.848-3.829C11.994,26.564,14.232,25.894,15.1,26.627Z" style="fill:#fff"/><path d="M20.028,30.612l-.423-1.768-.414-1.71a.026.026,0,0,0-.01-.021L18.6,26.58c0-.006-.011-.006-.016-.011a7.983,7.983,0,0,0-2.134-.366,2.724,2.724,0,0,0-.288.01,2.359,2.359,0,0,0-.382.058,1.55,1.55,0,0,0-.413.141,1.119,1.119,0,0,0-.225.147A2.061,2.061,0,0,0,13.83,26.2h-.021a8.064,8.064,0,0,0-2.113.366c-.006.005-.011.005-.016.011l-.586.533a.026.026,0,0,0-.01.021l-.371,1.548-.043.162-.01.058-.194.795-.449,1.872v.016h0a.017.017,0,0,0,.005.01V31.6h0c0,.006.006.006.006.011h0s.006,0,.011,0a.015.015,0,0,0,.01,0h4.133a1.468,1.468,0,0,0,.931.366,1.548,1.548,0,0,0,.957-.366h4.137a.017.017,0,0,0,.011,0c.006,0,.01,0,.01,0h.005l.006-.011h0V31.6a.017.017,0,0,0,0-.01h0v-.016Zm-.91-3.447.413,1.731.382,1.585.22.915-.67-.9-.157-.7-.136-.638-.539-2.432Zm-3.939-.538a1.1,1.1,0,0,1,.241-.152,2.244,2.244,0,0,1,.225-.089,2.588,2.588,0,0,1,.58-.089,7.523,7.523,0,0,1,2.3.345l.57,2.573.1.455.178.8c-.078-.006-.24-.021-.449-.026h-.016a10.026,10.026,0,0,0-3.73.444Zm-3.431.015a7.993,7.993,0,0,1,1.967-.35,2.06,2.06,0,0,1,1.38.335v4.262a8.19,8.19,0,0,0-2.589-.45c-.183,0-.361-.01-.523-.01-.094,0-.183,0-.267.005-.136,0-.256,0-.36.011-.131,0-.236.01-.314.015-.058,0-.11,0-.136.011l.261-1.193.016-.063.047-.224.136-.623ZM10.576,29.6l.037-.167.131-.534.057-.245.361-1.486.481-.439-.382,1.726-.136.633-.021.073-.041.209-.251,1.13-.67.9Zm3.615,1.941H10.137l.737-.984c.026,0,.074,0,.142-.01s.183-.016.313-.016.267-.01.43-.015c.229-.006.491,0,.768.01a8.2,8.2,0,0,1,2.5.424A2,2,0,0,0,14.191,31.538Zm.079.041A1.9,1.9,0,0,1,15.106,31l.031-.01.032.01a1.927,1.927,0,0,1,.837.57A1.3,1.3,0,0,1,14.27,31.579Zm1.814-.041a2.022,2.022,0,0,0-.837-.591,10.252,10.252,0,0,1,3.7-.419h.037c.22.011.366.021.419.026l.732.984Z"/><path d="M10.922,28.74l2.536-2.129.084-.167.732-.665.481.534,1.266-1.062-.1-.084-1.135.963-.283-.314,1.313-1.193.11.11,1-.983h.634l.779-.716.068-.586.5.361s.408-.361.476-.136a.536.536,0,0,1,0,.366l3.321-2.312-2.95,2.986-.324-.041-1.773,1.49-.435-.34-.633.56-.031.167-2,1.831-.424-.45-.036.063.245.371s-.914.272-.36.706a5.882,5.882,0,0,0,2.306.518v1.093s-.873.607-3.295-.994a.869.869,0,0,1-.193.162l.24.414L12.4,30l.288,1.119-.518.387s-.387-1.171-.669-1.354c.57-.523.648-.607.648-.607l.272,0,.251-.293-.146-.209-.22.188.142.11L12.4,29.4l-.3.02-1.031.947-.084.256L8.965,33.1a.326.326,0,0,1-.178.11h0a.323.323,0,0,1-.314-.1L7.61,32.15a.151.151,0,0,1,.011-.215l1.532-1.328a.558.558,0,0,1,.288-.126l.3-.036.815-.848.252-.01,1.522-1.334.13.047.163-.178.015-.094.926-.81-1.077.8-.121-.053-1.642,1.47-.126,0,.079-.738.151-.047Z"/><path d="M21.582,32.38l-7.93-9.012a.709.709,0,0,0-.194-.627l-.512-.508a.709.709,0,0,0-1.209.555l-.847-.047a.494.494,0,0,0-.408.193L8.233,26.051l1.308,1.564,2.641-3.3.058-.774.214.209a.684.684,0,0,0,.717.172l7.867,8.944a.358.358,0,0,0,.512.031h0A.359.359,0,0,0,21.582,32.38Z"/></svg>