<svg xmlns="http://www.w3.org/2000/svg" viewBox="0 0 55 55"><path d="M41.433,8.834,4.906,33.185A23.215,23.215,0,0,1,6.59,17.244c.136-.293.288-.586.445-.874q.471-.863,1.02-1.684c.288-.439.6-.868.915-1.286.287-.382.586-.748.894-1.109s.628-.7.957-1.036A23.252,23.252,0,0,1,41.433,8.834Z" style="fill:#04357f"/><path d="M50.8,27.5A23.286,23.286,0,0,1,13.573,46.166L50.1,21.815A23.444,23.444,0,0,1,50.8,27.5Z" style="fill:#009444"/><path d="M43.018,10.136,5.5,35.152c-.23-.644-.424-1.3-.591-1.967L41.433,8.834Q42.257,9.454,43.018,10.136Z" style="fill:#fff"/><path d="M50.1,21.815,13.573,46.166h0c-.55-.413-1.078-.847-1.591-1.3L49.508,19.848C49.733,20.492,49.932,21.151,50.1,21.815Z" style="fill:#fff"/><path d="M49.508,19.848,11.982,44.864A23.31,23.31,0,0,1,5.5,35.152L43.018,10.136A23.343,23.343,0,0,1,49.508,19.848Z" style="fill:#d11133"/><path d="M17.929,18.107l3.18-1.214-3.18-1.213,2.144-2.646-3.357.538.533-3.363-2.641,2.145L13.389,9.179l-1.213,3.175-1.355-1.1q-.493.5-.957,1.036l.209,1.281L8.97,13.4c-.319.418-.627.847-.915,1.286l.8.994-1.82.69c-.157.288-.309.581-.445.874l2.265.863L6.71,20.748l3.363-.533-.538,3.362,2.641-2.149,1.213,3.18,1.219-3.18,2.641,2.149-.533-3.362,3.357.533Zm-4.54,3.467a4.684,4.684,0,1,1,4.686-4.681A4.682,4.682,0,0,1,13.389,21.574Z" style="fill:#fecd17"/><path d="M13.394,13.018a3.876,3.876,0,1,0,3.876,3.875A3.874,3.874,0,0,0,13.394,13.018Z" style="fill:#fecd17"/></svg>