<svg xmlns="http://www.w3.org/2000/svg" viewBox="0 0 55 55"><circle cx="27.5" cy="27.5" r="23.3" style="fill:#003893"/><path d="M27.5,48.212A20.712,20.712,0,1,1,48.212,27.5,20.736,20.736,0,0,1,27.5,48.212Z" style="fill:#dc143c"/><polygon points="32.707 35.775 36.194 34.38 32.707 32.984 35.028 30.035 31.312 30.569 31.844 26.852 28.896 29.173 27.5 25.686 26.104 29.173 23.156 26.852 23.689 30.569 19.972 30.035 22.298 32.984 18.812 34.38 22.298 35.775 19.972 38.724 23.689 38.191 23.156 41.908 26.104 39.587 27.5 43.068 28.896 39.587 31.844 41.908 31.312 38.191 35.028 38.724 32.707 35.775" style="fill:#fff"/><path d="M27.406,21.99a7.976,7.976,0,0,0,7.977-7.978c0-.057-.005-.115-.005-.172a7.2,7.2,0,0,1-4.25,4.626l-.585-.7,1.594-.716-1.594-.716,1.124-1.333-1.747.047.434-1.694-1.552.8-.345-1.715-1.051,1.4-1.051-1.4-.345,1.715-1.553-.8.434,1.694-1.746-.047,1.124,1.333-1.594.716,1.594.716-.585.7a7.188,7.188,0,0,1-4.25-4.626,1.648,1.648,0,0,0-.006.172A7.977,7.977,0,0,0,27.406,21.99Z" style="fill:#fff"/></svg>