<svg xmlns="http://www.w3.org/2000/svg" xmlns:xlink="http://www.w3.org/1999/xlink" viewBox="0 0 55 55">
  <clipPath id="globalClipPath">
    <circle cx="27.5" cy="27.5" r="23.3" fill="none"/>
  </clipPath>
  <g clip-path="url(#globalClipPath)">
        <polygon points="-7.48 4.18 27.5 4.18 62.48 4.18 62.48 50.82 27.5 50.82 -7.48 50.82 -7.48 4.18 -7.48 4.18" fill="#214097" fill-rule="evenodd"/>
        <path d="M7.12,4.18H8.21v9.25H-7.48V12H-.09L-7.48,7.07V5.26L2.61,12H5.86L-5.85,4.18h2.7L7.12,11V4.18Zm4.69,0H12.9V11L23.17,4.18h2.7L14.17,12h3.24L27.5,5.26v1.8L20.12,12H27.5v1.45H11.82V4.18ZM27.5,18.25v1.45H20.12l7.38,4.92v1.8L17.41,19.69H14.17L25.88,27.5h-2.7L12.9,20.65V27.5H11.82V18.25ZM8.21,27.5H7.12V20.65L-3.15,27.5h-2.7L5.86,19.69H2.61L-7.48,26.42v-1.8l7.38-4.92H-7.48V18.25H8.21V27.5Z" fill="#fff" fill-rule="evenodd"/>
        <path d="M11.82,4.18v9.25H27.5v4.81H11.82V27.5H8.21V18.25H-7.48V13.44H8.21V4.18h3.61ZM27.5,26.42,17.41,19.69H14.17L25.88,27.5H27.5V26.42ZM17.41,12,27.5,5.26V4.18H25.88L14.17,12ZM5.86,12-5.85,4.18H-7.48V5.26L2.61,12Zm-3.25,7.7L-7.48,26.42V27.5h1.62L5.86,19.69Z" fill="#ee2724" fill-rule="evenodd"/>
        <path d="M45.64,34.91l.45,1.41h1.48l-1.2.87.46,1.41-1.19-.87-1.19.87.46-1.41-1.2-.87h1.48l.45-1.41ZM53.3,19.23l.45,1.41h1.48L54,21.5l.46,1.4L53.3,22l-1.19.87.46-1.4-1.2-.87h1.48l.45-1.41ZM37.16,21.44l.45,1.41h1.48l-1.2.87.46,1.4-1.19-.87L36,25.12l.46-1.4-1.2-.87H36.7l.45-1.41Zm8.64-8.64.45,1.41h1.48l-1.2.87.46,1.4-1.19-.87-1.19.87.46-1.4-1.2-.87h1.48l.45-1.41Z" fill="#ee2724" stroke="#fff" stroke-miterlimit="2.41" stroke-width="0.21" fill-rule="evenodd"/>

  </g>
</svg>
