<svg xmlns="http://www.w3.org/2000/svg" viewBox="0 0 55 55">
	<g fill="#aa7d51">
		<path d="M27.5 50.85c-12.875 0-23.35-10.475-23.35-23.352C4.15 14.624 14.625 4.15 27.5 4.15c12.875 0 23.35 10.475 23.35 23.349 0 12.876-10.475 23.351-23.35 23.351m0-46.021c-12.5 0-22.669 10.17-22.669 22.669C4.831 40 15 50.171 27.5 50.171S50.169 40 50.169 27.499c0-12.5-10.169-22.67-22.669-22.67"/>
		<path d="M25.106 15.99c-.486 0-.881-.396-.881-.881 0-.486.395-.882.881-.882s.882.396.882.882c0 .485-.396.881-.882.881m0-1.432c-.304 0-.551.247-.551.551 0 .304.247.551.551.551a.552.552 0 0 0 .551-.551.552.552 0 0 0-.551-.551M40.041 28.333c-.486 0-.882-.396-.882-.882 0-.485.395-.881.882-.881.485 0 .88.396.88.881 0 .486-.395.882-.88.882m0-1.433c-.304 0-.552.247-.552.551 0 .304.247.552.552.552.303 0 .55-.247.55-.552 0-.304-.247-.551-.55-.551M15.271 13.314c-.486 0-.882-.396-.882-.88 0-.486.395-.882.882-.882.486 0 .881.396.881.882 0 .484-.396.88-.881.88m0-1.432c-.304 0-.552.247-.552.552 0 .303.248.55.552.55.304 0 .55-.247.55-.55 0-.305-.247-.552-.55-.552M34.17 40.783c-.486 0-.881-.396-.881-.883 0-.485.395-.882.881-.882s.881.396.881.882c0 .487-.395.883-.881.883m0-1.433c-.304 0-.552.247-.552.551 0 .304.248.552.552.552a.5516.5516 0 0 0 0-1.103M26.219 40.732c-.486 0-.882-.395-.882-.882 0-.486.396-.881.882-.881s.882.395.882.881c-.001.487-.396.882-.882.882m0-1.433c-.304 0-.551.247-.551.551 0 .303.247.551.551.551.304 0 .552-.247.552-.551-.001-.304-.248-.551-.552-.551M34.024 19.594c-.485 0-.881-.396-.881-.882s.396-.882.881-.882c.486 0 .882.396.882.882 0 .487-.396.882-.882.882m0-1.432c-.303 0-.55.247-.55.551 0 .304.247.551.55.551.304 0 .551-.247.551-.551 0-.304-.247-.551-.551-.551M13.541 25.575c-.486 0-.882-.395-.882-.881s.395-.882.882-.882c.486 0 .882.396.882.882-.001.486-.396.881-.882.881m0-1.432c-.304 0-.551.247-.551.551 0 .303.247.551.551.551.303 0 .55-.247.55-.551 0-.303-.247-.551-.55-.551M40.158 15.986c-.486 0-.881-.396-.881-.881 0-.486.395-.882.881-.882s.882.395.882.882c0 .486-.395.881-.882.881m0-1.432c-.303 0-.55.247-.55.551 0 .303.247.551.55.551.304 0 .551-.247.551-.551a.552.552 0 0 0-.551-.551M12.088 36.495a.8821.8821 0 0 1-.882-.882c0-.486.395-.882.882-.882.486 0 .881.396.881.882s-.395.882-.881.882m0-1.432c-.304 0-.552.246-.552.551 0 .304.248.552.552.552.303 0 .55-.247.55-.552a.5493.5493 0 0 0-.55-.551M22.743 43.415c-.486 0-.881-.396-.881-.882s.395-.882.881-.882c.487 0 .882.396.882.882 0 .487-.395.882-.882.882m0-1.432c-.303 0-.551.246-.551.551a.5514.5514 0 0 0 1.103 0c0-.304-.248-.551-.552-.551M44.808 36.88c-.486 0-.881-.395-.881-.882 0-.486.395-.881.881-.881s.881.395.881.881c0 .487-.395.882-.881.882m0-1.432c-.304 0-.551.247-.551.551 0 .304.247.551.551.551.304 0 .551-.247.551-.551 0-.304-.247-.551-.551-.551M19.205 35.145c-.486 0-.882-.395-.882-.881s.395-.882.882-.882c.486 0 .882.396.882.882s-.396.881-.882.881m0-1.432c-.304 0-.551.247-.551.551 0 .304.247.551.551.551.304 0 .551-.247.551-.551 0-.304-.247-.551-.551-.551M27.64 49.191c-.486 0-.881-.395-.881-.882 0-.486.395-.882.881-.882s.881.395.881.882-.394.882-.881.882m0-1.432a.5514.5514 0 1 0 .552.551c0-.304-.247-.551-.552-.551"/>
		<path d="M27.507 6.193c-11.71 0-21.236 9.526-21.236 21.235 0 11.43 9.075 20.777 20.397 21.22v-.454C15.67 47.755 6.846 38.731 6.727 27.655h1.247c.122 10.668 8.837 19.311 19.533 19.311 7.417 0 13.88-4.155 17.188-10.261a.7114.7114 0 0 1-.405-.213c-1.627 3.001-4.032 5.522-6.947 7.283l-.644-1.068c5.175-3.125 8.642-8.804 8.642-15.279 0-4.176-1.443-8.021-3.857-11.064l-.352.284c2.004 2.527 3.322 5.623 3.667 9.003l-1.244.101c-.841-8.112-7.717-14.458-16.047-14.458-3.892 0-7.466 1.385-10.256 3.688l-.837-.924c3.011-2.503 6.878-4.011 11.093-4.011 4.641 0 8.863 1.83 11.982 4.805a.7103.7103 0 0 1 .286-.35 17.8554 17.8554 0 0 0-2.03-1.668l.701-1.031c4.92 3.455 8.142 9.17 8.142 15.625 0 2.506-.487 4.899-1.369 7.094l.415.187c.907-2.252 1.408-4.708 1.408-7.281 0-10.772-8.763-19.535-19.534-19.535-4.429 0-8.516 1.483-11.796 3.976.121.095.21.226.25.379 3.208-2.446 7.21-3.901 11.546-3.901 3.904 0 7.538 1.18 10.564 3.201l-.7 1.031c-2.828-1.884-6.221-2.984-9.864-2.984-9.834 0-17.835 8.001-17.835 17.835 0 2.801.651 5.452 1.806 7.812a.7112.7112 0 0 1 .36-.297c-1.096-2.276-1.713-4.824-1.713-7.515 0-5.208 2.304-9.888 5.944-13.077l.837.924c-3.389 2.96-5.533 7.31-5.533 12.152 0 6.717 4.125 12.487 9.975 14.914l.164-.423c-5.68-2.36-9.686-7.966-9.686-14.49 0-8.646 7.035-15.681 15.682-15.681.062 0 .123.002.185.002l-.037 1.247a7.3035 7.3035 0 0 0-.148-.002c-6.772 0-12.467 4.687-14.017 10.987.017-.001.034-.003.051-.003.143 0 .276.043.388.115 1.499-6.104 7.018-10.646 13.578-10.646 7.708 0 13.981 6.272 13.981 13.981 0 2.825-.843 5.457-2.29 7.658l-1.021-.716a12.6484 12.6484 0 0 0 1.958-5.319l-.45-.039c-.659 5.085-4.436 9.203-9.345 10.367l-.278-1.216c4.856-1.157 8.478-5.53 8.478-10.735a10.99 10.99 0 0 0-.627-3.665l1.17-.434c.387 1.091.624 2.252.686 3.459a.7034.7034 0 0 1 .273-.054c.062 0 .123.009.182.025-.349-6.712-5.919-12.065-12.716-12.065-.593 0-1.176.042-1.748.121.04.09.064.189.064.294 0 .054-.007.106-.019.158a12.414 12.414 0 0 1 1.703-.118c5.174 0 9.612 3.217 11.417 7.756l-1.171.435c-.67-1.674-1.74-3.147-3.092-4.301-.07.138-.185.25-.325.318 2.292 1.943 3.75 4.839 3.75 8.072 0 5.835-4.746 10.581-10.58 10.581-2.71 0-5.185-1.024-7.058-2.705l-.318.322c1.956 1.762 4.541 2.836 7.376 2.836.722 0 1.428-.07 2.113-.203l.277 1.216c-.624.123-1.264.2-1.917.224l-.005.454c4.108-.148 7.726-2.253 9.948-5.408l1.02.716a14.109 14.109 0 0 1-3.437 3.427l.242.384c3.74-2.611 6.192-6.947 6.192-11.844 0-7.757-6.151-14.104-13.832-14.421l.038-1.246C36.5 12.1 43.19 18.998 43.19 27.43c0 8.647-7.034 15.683-15.68 15.683-1.4 0-2.757-.188-4.049-.534-.01.162-.073.31-.173.424 1.347.366 2.761.562 4.222.562 8.896 0 16.134-7.238 16.134-16.136 0-.412-.016-.82-.045-1.224l1.243-.101c.033.438.05.88.05 1.326 0 9.585-7.798 17.383-17.381 17.383-6.175 0-11.607-3.236-14.691-8.102l-.39.231c3.164 4.999 8.74 8.325 15.081 8.325 3.198 0 6.202-.847 8.8-2.328l.644 1.068c-2.785 1.595-6.01 2.507-9.444 2.507-10.522 0-19.082-8.562-19.082-19.084 0-5.401 2.256-10.285 5.875-13.76L14 13.33c-3.661 3.51-5.964 8.426-6.026 13.871H6.727c.123-11.354 9.396-20.554 20.78-20.554 11.459 0 20.782 9.323 20.782 20.782 0 11.007-8.601 20.042-19.433 20.739.009.046.014.093.014.142 0 .114-.027.221-.074.315 11.112-.669 19.947-9.918 19.947-21.196-.001-11.71-9.528-21.236-21.236-21.236"/>
		<path d="M33.474 40.069a13.9067 13.9067 0 0 1-5.968 1.341c-2.889 0-5.576-.88-7.807-2.387l.705-1.028a12.653 12.653 0 0 0 5.115 2.011.722.722 0 0 1-.018-.155c0-.107.025-.207.066-.298-4.331-.689-7.916-3.65-9.487-7.622l1.169-.436c.344.863.795 1.673 1.335 2.413a.7144.7144 0 0 1 .34-.302c-1.256-1.74-1.998-3.873-1.998-6.177 0-5.834 4.746-10.58 10.58-10.58 1.767 0 3.436.437 4.902 1.206l.256-.376c-1.54-.818-3.296-1.283-5.158-1.283-6.084 0-11.034 4.95-11.034 11.033 0 1.275.218 2.501.618 3.642l-1.169.435c-.451-1.276-.697-2.648-.697-4.077 0-5.38 3.478-9.962 8.303-11.619l-.128-.436c-5.013 1.712-8.628 6.469-8.628 12.055 0 4.232 2.075 7.988 5.261 10.305l-.705 1.028c-3.513-2.542-5.804-6.676-5.804-11.334 0-.381.016-.758.046-1.131l-.451-.05a14.89 14.89 0 0 0-.048 1.182c0 7.959 6.475 14.436 14.434 14.436 2.222 0 4.328-.506 6.21-1.408a.7321.7321 0 0 1-.24-.388"/>
		<path d="M25.459 18.276h1.088v18.447h-1.088zM28.453 18.276h1.088v18.447h-1.088z"/>
		<path d="M27.5 35.447c-4.382 0-7.947-3.565-7.947-7.948 0-4.382 3.565-7.947 7.947-7.947s7.947 3.566 7.947 7.947c0 4.382-3.565 7.948-7.947 7.948m0-14.718c-3.732 0-6.768 3.037-6.768 6.769 0 3.733 3.037 6.77 6.768 6.77 3.732 0 6.769-3.037 6.769-6.77 0-3.732-3.037-6.769-6.769-6.769"/>
	</g>
</svg>
