<svg xmlns="http://www.w3.org/2000/svg" viewBox="0 0 55 55"><path d="M46.135,41.475a23.276,23.276,0,0,1-33.441,4.006c-.142-.12-.283-.235-.424-.361A23.306,23.306,0,0,1,4.979,33.478c-.02-.068-.042-.136-.057-.209h0a21.087,21.087,0,0,1-.513-2.647v0c-.025-.172-.047-.35-.068-.528A23.619,23.619,0,0,1,4.2,27.5,23.178,23.178,0,0,1,8.865,13.525Z"/><path d="M50.8,27.5a23.191,23.191,0,0,1-4.665,13.975L8.865,13.525A23.294,23.294,0,0,1,50.8,27.5Z" style="fill:#cd1225"/><polygon points="13.834 18.849 14.54 21.02 16.82 21.02 14.974 22.359 15.681 24.529 13.834 23.19 11.993 24.529 12.694 22.359 10.853 21.02 13.128 21.02 13.834 18.849" style="fill:#fff"/><path d="M7.8,31.428,8.5,33.6,6.658,32.254,4.979,33.478c-.02-.068-.042-.136-.057-.209h0l.6-1.841-1.109-.806v0c-.025-.172-.047-.35-.068-.528H5.953l.705-2.171.707,2.171H9.639Z" style="fill:#fff"/><polygon points="20.884 27.327 21.591 29.493 23.87 29.493 22.024 30.832 22.73 33.002 20.884 31.663 19.038 33.002 19.744 30.832 17.898 29.493 20.178 29.493 20.884 27.327" style="fill:#fff"/><polygon points="16.967 35.12 17.333 36.25 18.525 36.25 17.563 36.951 17.929 38.086 16.967 37.385 16.004 38.086 16.37 36.951 15.408 36.25 16.601 36.25 16.967 35.12" style="fill:#fff"/><path d="M14.974,43.823l.707,2.171-1.847-1.339-1.14.826c-.142-.12-.283-.235-.424-.361l.424-1.3-1.841-1.339h2.275l.706-2.165.706,2.165h2.28Z" style="fill:#fff"/><path d="M44.283,25.842c-.157-.23-.324-.455-.5-.68a8.382,8.382,0,0,0-1.066-3.541c.052-.256.078-.528.334-.439.382.136.5.832.743.481s-.126-1.412-.554-1.867.512.021.517-.24a10.564,10.564,0,0,0-2.055-2.4c-.408-.256.376-.272.382-.387a10.511,10.511,0,0,0-1.967-1.386c-.433-.2.691-.2.429-.486a7.95,7.95,0,0,0-3.875-.251c-.978.314.02-.623.193-.79s-.1-.429-.089-.659-.031-.026.351-.387-.173-.46-.414-.466.534-.387.544-.747-.815.041-.716-.058.7-1.015.3-1.03-.512.057-.507-.1.931-1.15.565-1.166a1.132,1.132,0,0,0-.393.126,5.1,5.1,0,0,0-.716.4,6.01,6.01,0,0,0-1.7,1.669,5.014,5.014,0,0,0-.743,1.841,4.858,4.858,0,0,0-.083,1.025c0,.35.1.685.12,1.03a1.068,1.068,0,0,1-.152.643.6.6,0,0,1-1.02.011,5.028,5.028,0,0,0-.863-.874,1.387,1.387,0,0,0-.622-.287,2.3,2.3,0,0,0-.758.068,3.546,3.546,0,0,1-1.365.141,1.969,1.969,0,0,0-.937-.078,5.308,5.308,0,0,0,.7.371,6.343,6.343,0,0,1,.952.57,2.239,2.239,0,0,0,.936.549c.131.026.267.026.4.047a1.6,1.6,0,0,1,.847.633.2.2,0,0,1,.042.073.141.141,0,0,1-.026.089c-.152.309-.34.685-.738.67-.491-.016-.905-.733-1.93-.764a3.288,3.288,0,0,0-2.4.894,11.742,11.742,0,0,0-2.207,3.138c-.016.476.549.032.795-.193s.036.371.036.371-.047.575.78-.345c.177-.167.313.026.3.377s.12.439.632-.251c.309.01.095.439.084.7s.717-.632,1.02-.622-.063.329.183.45.936-.821,1.24-.811-.063.806.1.858.884-1.47,1.2-1.13-.335,1.512,1.548,3.2,1.559,1.166,1.569.92-.125-.873.246-.58.6,1.072.879.816a1.191,1.191,0,0,0,.33-.607s2.64,2.725,3.634,2.756c.209-.193.052-.6-.1-.758s.81.371.7-.073-1.443-1.486-1.02-1.475.759-.042.314-.513-1.2-1.574-.8-1.563c.309.01-.078-.837-.12-.958-.026-.073-.058-.146-.079-.219a.613.613,0,0,1-.015-.094c0-.053.068-.162.13-.157a.13.13,0,0,1,.068.042c.194.151.387.3.591.439a1.952,1.952,0,0,0,.649.329.308.308,0,0,0,.157-.01.509.509,0,0,0,.282-.3,23.624,23.624,0,0,1,3.374,3.42c.052.074,0,.393-.011.492a3.468,3.468,0,0,1-.068.523A3.2,3.2,0,0,1,40.8,28.7a6.319,6.319,0,0,1-2.28.152,1.581,1.581,0,0,1-.215-.011c.22.141,3.311,2.029,4.869-.947a5.34,5.34,0,0,0,.523-1.5c.084.157.162.314.225.466a4.074,4.074,0,0,1-.335,3.959,4.158,4.158,0,0,1-3.237,1.208,3.745,3.745,0,0,0,4.095-.8,3.294,3.294,0,0,0,.706-1.82A5.217,5.217,0,0,0,44.283,25.842Zm-3.038-3.368a12.517,12.517,0,0,0-1.078-.826c-.167-.121-.34-.231-.518-.346.016-.361.429-.308.68-.047a1.066,1.066,0,0,0,.937.288c.366-.152.632.12.836.4a4.712,4.712,0,0,1,.706,2.045A18.416,18.416,0,0,0,41.245,22.474Z" style="fill:#fbd023"/></svg>