<svg xmlns="http://www.w3.org/2000/svg" xmlns:xlink="http://www.w3.org/1999/xlink" viewBox="0 0 55 55">
  <clipPath id="globalClipPath">
    <circle cx="27.5" cy="27.5" r="23.3" fill="none"/>
  </clipPath>
  <g clip-path="url(#globalClipPath)">
        <polygon points="-7.56 4.18 33.04 27.5 62.41 27.5 62.41 50.82 -7.56 50.82 33.04 27.5 -7.56 4.18 -7.56 4.18" fill="#ee2724"/>
        <polygon points="-7.56 4.18 62.41 4.18 62.41 27.5 33.04 27.5 -7.56 4.18 -7.56 4.18" fill="#295aa9"/>
        <polygon points="33.04 27.5 -7.56 50.82 -7.56 4.18 33.04 27.5 33.04 27.5" fill="#f1f0f0"/>
        <path d="M6.58,17.6l.59.54-.28,4.56.32,0,.5-4.1.5.46-.74,3.68a4.57,4.57,0,0,1,1.68.69l2.08-3.12.68,0L9.35,23.63l.25.21,3-3.43.8,0,0,.8-3.43,3,.21.25L13.49,22l0,.68-3.12,2.07a4.55,4.55,0,0,1,.69,1.68l3.68-.74.46.5-4.1.5c0,.11,0,.21,0,.32l4.56-.28.54.59-.54.59-4.56-.29c0,.11,0,.22,0,.32l4.1.5-.46.5-3.68-.74a4.55,4.55,0,0,1-.69,1.67l3.12,2.08,0,.68-3.25-2.54-.21.25,3.43,3,0,.8-.8,0-3-3.43-.25.21,2.54,3.25-.68,0L9.14,31.09a4.55,4.55,0,0,1-1.68.69l.74,3.68-.5.46-.5-4.1-.32,0,.28,4.56L6.58,37,6,36.43l.28-4.56-.32,0-.5,4.1L5,35.47l.74-3.68A4.55,4.55,0,0,1,4,31.09L1.94,34.22l-.68,0,2.54-3.25-.25-.21-3,3.43-.8,0,0-.8,3.43-3-.21-.25L-.33,32.6l0-.68,3.12-2.08a4.56,4.56,0,0,1-.69-1.67l-3.68.74-.46-.5,4.1-.5c0-.11,0-.21,0-.32l-4.56.29-.54-.59.54-.59L2,27c0-.11,0-.22,0-.32l-4.1-.5.46-.5,3.68.74a4.59,4.59,0,0,1,.69-1.68L-.36,22.65l0-.68,3.25,2.54.21-.25-3.43-3,0-.8.8,0,3,3.43.25-.21L1.27,20.38l.68,0L4,23.48a4.57,4.57,0,0,1,1.68-.69L5,19.11l.5-.46.5,4.1.32,0L6,18.14l.59-.54Zm19.15,7.28v1.84l1.75.57-1.75.57v1.84L24.64,28.2l-1.75.57L24,27.28,22.89,25.8l1.75.57,1.08-1.49ZM-4.41,41.55l.76,1.68L-1.82,43l-1.36,1.24.77,1.68L-4,45l-1.36,1.25.37-1.8-1.6-.91,1.83-.2.37-1.81Zm-1-33.24L-4,9.55l1.59-.93L-3.2,10.3l1.38,1.22-1.83-.19L-4.39,13l-.39-1.8L-6.61,11-5,10.12l-.4-1.8Z" fill="#fddb38" fill-rule="evenodd"/>

  </g>
</svg>
