<svg xmlns="http://www.w3.org/2000/svg" viewBox="0 0 55 55"><path d="M4.2,27.5A23.319,23.319,0,0,0,16.208,47.878V7.128A23.308,23.308,0,0,0,4.2,27.5Z" style="fill:#fff"/><path d="M27.5,4.2A23.094,23.094,0,0,0,16.208,7.128v40.75A23.3,23.3,0,1,0,27.5,4.2Z" style="fill:#00401c"/><path d="M37.025,35.378a10.864,10.864,0,0,1-6.639-19.463,11.869,11.869,0,1,0,14.47,16.128A10.832,10.832,0,0,1,37.025,35.378Z" style="fill:#fff"/><polygon points="43.382 23.94 40.543 23.328 39.085 25.843 38.787 22.952 35.949 22.34 38.604 21.164 38.306 18.273 40.245 20.437 42.901 19.261 41.442 21.776 43.382 23.94" style="fill:#fff"/></svg>