<?xml version="1.0" encoding="utf-8"?>
<!-- Generator: Adobe Illustrator 23.0.3, SVG Export Plug-In . SVG Version: 6.00 Build 0)  -->
<svg version="1.1" id="Layer_1" xmlns="http://www.w3.org/2000/svg" xmlns:xlink="http://www.w3.org/1999/xlink" x="0px" y="0px"
	 viewBox="0 0 55 55" style="enable-background:new 0 0 55 55;" xml:space="preserve">
<style type="text/css">
	.st0{fill:#2D8EFE;}
	.st1{fill:#FFFFFF;}
</style>
<g>
	<path id="Litecoin" class="st0" d="M27.7,4.2c-13,0-23.5,10.4-23.5,23.3s10.5,23.3,23.5,23.3s23.5-10.4,23.5-23.3l0,0
		C51.2,14.6,40.7,4.2,27.7,4.2z"/>
	<g>
		<path class="st1" d="M23.4,31.2c0,0.2,0,0.4,0,0.6c0,1.9,0,3.9,0,5.8c0,0.4-0.2,0.6-0.6,0.6c-1.7,0-3.4,0-4.9,0
			c-0.4,0-0.4-0.2-0.4-0.6c0-7.3,0-14.4,0-21.6c0-0.4,0.2-0.4,0.6-0.4c2.8,0,5.6,0,8.3,0c2.8,0,4.9,1.1,6.4,3.5
			c2.6,3.7,1.1,8.6-1.7,10.8c-0.9,0.7-2.1,1.1-3.2,1.3c-1.3,0-2.6,0-3.9,0C23.5,31,23.4,31,23.4,31.2z M27.9,22.3
			c-0.2-0.7-0.8-1.3-1.5-1.3c-0.9,0-1.9,0-2.6,0c-0.2,0-0.4,0-0.4,0.4c0,1.3,0,2.8,0,4.1c0,0.4,0.2,0.4,0.4,0.4c0.9,0,1.7,0,2.6,0
			c0.8,0,1.3-0.4,1.5-1.1c0.2-0.4,0.2-0.9,0.2-1.3C28.1,22.6,28.1,22.5,27.9,22.3z"/>
		<path class="st1" d="M26,33.8c0.2,0,0.4,0,0.6,0c4.3,0,8.5,0,12.8,0c0.6,0,0.6,0.2,0.6,0.6c0,1.1,0,2.2,0,3.2c0,0.2,0,0.4-0.4,0.4
			c-4.5,0-9,0-13.5,0C26,36.6,26,35.3,26,33.8z"/>
	</g>
</g>
</svg>
