<svg xmlns="http://www.w3.org/2000/svg" viewBox="0 0 55 55"><path d="M47.264,15.178,5.774,35.92A23.279,23.279,0,0,1,8.065,14.66a23.7,23.7,0,0,1,2.212-2.835,23.273,23.273,0,0,1,36.987,3.353Z" style="fill:#0951b8"/><path d="M50.8,27.5A23.295,23.295,0,0,1,7.736,39.827L49.226,19.08A23.224,23.224,0,0,1,50.8,27.5Z" style="fill:#1f5a33"/><path d="M49.226,19.08,7.736,39.827A22.881,22.881,0,0,1,5.774,35.92l41.49-20.742A22.833,22.833,0,0,1,49.226,19.08Z" style="fill:#fbd023"/><polygon points="15.612 14.958 16.302 17.076 18.53 17.076 16.726 18.389 17.416 20.507 15.612 19.195 13.813 20.507 14.498 18.389 12.699 17.076 14.927 17.076 15.612 14.958" style="fill:#fff"/><path d="M10.743,13.274l.691,2.118-1.8-1.307-1.8,1.307.235-.732a23.7,23.7,0,0,1,2.212-2.835l.042.136h2.223Z" style="fill:#fff"/><polygon points="21.595 9.848 22.286 11.967 24.514 11.967 22.709 13.274 23.4 15.392 21.595 14.085 19.796 15.392 20.482 13.274 18.682 11.967 20.91 11.967 21.595 9.848" style="fill:#fff"/><polygon points="9.629 20.073 10.319 22.191 12.547 22.191 10.743 23.499 11.434 25.617 9.629 24.31 7.83 25.617 8.52 23.499 6.716 22.191 8.944 22.191 9.629 20.073" style="fill:#fff"/><polygon points="21.595 20.073 22.286 22.191 24.514 22.191 22.709 23.499 23.4 25.617 21.595 24.31 19.796 25.617 20.482 23.499 18.682 22.191 20.91 22.191 21.595 20.073" style="fill:#fff"/></svg>