<svg xmlns="http://www.w3.org/2000/svg" xmlns:xlink="http://www.w3.org/1999/xlink" viewBox="0 0 55 55"><defs><clipPath id="a"><circle cx="97.5" cy="27.5" r="23.3" transform="translate(37.881 109.403) rotate(-69.699)" style="fill:none"/></clipPath><clipPath id="b"><rect x="52.227" y="3.931" width="80.426" height="46.916" style="fill:none"/></clipPath></defs><path d="M49.467,19.733H5.534a23.3,23.3,0,0,1,43.933,0Z" style="fill:#d11133"/><path d="M50.8,27.5a23.188,23.188,0,0,1-1.333,7.767H5.534a23.278,23.278,0,0,1,0-15.534H49.467A23.188,23.188,0,0,1,50.8,27.5Z" style="fill:#fff"/><path d="M49.467,35.267a23.31,23.31,0,0,1-43.933,0Z"/><path d="M32.3,27.5,21.967,35.267l-11.208,8.42a23.273,23.273,0,0,1-5.225-8.42,23.249,23.249,0,0,1,5.225-23.954l11.208,8.42Z" style="fill:#00712a"/><g style="clip-path:url(#a)"><g style="clip-path:url(#b)"><rect x="52.227" y="3.931" width="80.426" height="46.916" style="fill:#231e60"/><polygon points="87.489 3.931 75.626 9.844 75.626 3.931 68.945 3.931 68.945 9.844 57.079 3.931 52.227 3.931 52.227 6.373 60.707 10.631 52.227 10.631 52.227 17.335 60.707 17.335 52.227 21.593 52.227 24.037 57.079 24.037 68.945 18.122 68.945 24.037 75.626 24.037 75.626 18.122 87.489 24.037 92.386 24.037 92.386 21.593 83.86 17.335 92.386 17.335 92.386 10.631 83.86 10.631 92.386 6.373 92.386 3.931 87.489 3.931" style="fill:#fff"/><polygon points="52.227 5.534 62.419 10.636 65.655 10.636 52.227 3.931 52.227 5.534" style="fill:#bc1f34"/><polygon points="65.629 17.335 52.227 24.037 55.434 24.037 68.838 17.335 65.629 17.335" style="fill:#bc1f34"/><polygon points="70.368 3.931 70.368 12.022 52.227 12.022 52.227 15.949 70.368 15.949 70.368 24.037 74.293 24.037 74.293 15.949 92.386 15.949 92.386 12.022 74.293 12.022 74.293 3.931 70.368 3.931" style="fill:#bc1f34"/></g></g></svg>