<?xml version="1.0" encoding="utf-8"?>
<!-- Generator: Adobe Illustrator 23.0.3, SVG Export Plug-In . SVG Version: 6.00 Build 0)  -->
<svg version="1.1" id="Layer_1" xmlns="http://www.w3.org/2000/svg" xmlns:xlink="http://www.w3.org/1999/xlink" x="0px" y="0px"
	 viewBox="0 0 55 55" style="enable-background:new 0 0 55 55;" xml:space="preserve">
<style type="text/css">
	.st0{fill:#05ADED;}
	.st1{fill:#FAFDFE;}
</style>
<path id="Litecoin_2_" class="st0" d="M27.7,4.2c-13,0-23.5,10.5-23.5,23.4S14.7,51,27.7,51s23.5-10.5,23.5-23.4l0,0
	C51.2,14.7,40.7,4.2,27.7,4.2z"/>
<g>
	<path class="st1" d="M42.8,36.9c0,1.1-0.6,2.2-1.7,2.6c-1.1,0.6-2.2,0.4-3.2-0.4c-0.9-0.7-1.3-1.7-1.1-3c0-0.4,0-0.6-0.4-0.7
		c-2.1-1.3-4.1-2.6-6-3.9c-1.5-0.9-2.2-2.2-2.2-4.1c0-3.2,0-6.2,0-9.4c0-0.4,0-0.4-0.4-0.6c-1.3-0.6-2.1-2.1-1.9-3.4
		c0.4-1.5,1.5-2.4,3-2.4c1.5,0,2.6,0.9,3,2.4c0.4,1.3-0.4,2.8-1.9,3.4c-0.4,0.2-0.4,0.4-0.4,0.6c0,2.6,0,5.2,0,7.9
		c0,2.1,0.9,3.7,2.6,4.9c1.7,1.1,3.2,2.1,4.9,3.2c0.2,0.2,0.4,0.2,0.7,0c0.9-0.7,2.1-0.7,3.2-0.2C42.2,34.7,42.8,35.6,42.8,36.9z
		 M30.4,14.8c0-0.7-0.6-1.5-1.5-1.5c-0.7,0-1.5,0.6-1.5,1.5c0,0.7,0.6,1.5,1.5,1.5C29.9,16.3,30.4,15.8,30.4,14.8z M38.3,36.7
		c0,0.7,0.6,1.5,1.5,1.5c0.7,0,1.5-0.7,1.5-1.5c0-0.7-0.6-1.5-1.5-1.5C39,35.4,38.3,36,38.3,36.7z"/>
	<path class="st1" d="M26.9,25.5c0,0.7,0,1.5,0,2.2c0,1.7-0.7,2.8-2.1,3.7c-2.1,1.3-4.1,2.6-6.2,3.9c-0.4,0.2-0.4,0.4-0.4,0.7
		c0.2,1.7-0.7,3.2-2.4,3.6c-1.5,0.4-3.2-0.7-3.6-2.2c-0.4-1.7,0.6-3.2,2.2-3.7c0.9-0.2,1.7,0,2.4,0.4c0.2,0.2,0.4,0.2,0.7,0
		c1.7-1.1,3.4-2.1,4.9-3.2c1.7-1.1,2.6-2.8,2.6-4.9c0-1.1,0-2.2,0-3.4c0-0.4,0-0.7,0.4-0.9c0.6-0.4,1.1,0,1.1,0.7
		C26.9,23.6,26.9,24.6,26.9,25.5z M15.3,38.2c0.7,0,1.5-0.6,1.5-1.5c0-0.7-0.6-1.5-1.5-1.5c-0.7,0-1.5,0.7-1.5,1.5
		S14.5,38.2,15.3,38.2z"/>
	<path class="st1" d="M33.6,35.6c0,0.6-0.6,0.9-1.1,0.7c-0.6-0.4-0.9-0.6-1.5-0.9c-2.2-1.5-4.5-1.5-6.7,0c-0.4,0.4-0.9,0.6-1.3,0.9
		c-0.4,0.2-0.9,0.2-1.1-0.2c-0.2-0.4-0.2-0.9,0.4-1.1c1.1-0.7,2.2-1.5,3.4-2.1c1.5-0.9,3.2-0.9,4.7,0c1.1,0.7,2.1,1.3,3.2,2.1
		C33.4,35.1,33.6,35.2,33.6,35.6z"/>
</g>
</svg>
