<svg xmlns="http://www.w3.org/2000/svg" xmlns:xlink="http://www.w3.org/1999/xlink" viewBox="0 0 55 55">
  <defs>
    <clipPath id="clip-path">
      <circle cx="27.5" cy="27.5" r="23.32" fill="none"/>
    </clipPath>
  </defs>
  <g id="sgd">
    <g clip-path="url(#clip-path)">
      <g>
        <polygon points="4.18 27.5 74.14 27.5 74.14 4.18 4.18 4.18 4.18 27.5 4.18 27.5" fill="#ed1d24"/>
        <path d="M4.18,50.82h70V27.5h-70V50.82ZM19.45,7.05a8.73,8.73,0,0,1,2.84.47,8.48,8.48,0,0,0-7.85,8.27,8.49,8.49,0,0,0,7.85,8.27,8.75,8.75,0,1,1-2.84-17Zm4.62,1.63.47,1.45h1.52L24.83,11l.47,1.45-1.23-.9-1.23.9L23.31,11l-1.23-.89H23.6l.47-1.45Zm4.67,3.56.47,1.45h1.52l-1.23.89L30,16l-1.23-.9-1.23.9L28,14.58l-1.23-.89h1.52l.47-1.45Zm-9.34,0,.47,1.45h1.52l-1.23.89L20.63,16l-1.23-.9-1.23.9.47-1.45-1.23-.89h1.52l.47-1.45Zm1.75,5.49.47,1.45h1.52l-1.23.89.47,1.45-1.23-.9-1.23.9.47-1.45-1.23-.89h1.52l.47-1.45Zm5.85,0,.47,1.45H29l-1.23.89.47,1.45L27,20.62l-1.23.9.47-1.45L25,19.18h1.52L27,17.73Z" fill="#f1f0f0"/>
      </g>
    </g>
  </g>
</svg>
