<svg xmlns="http://www.w3.org/2000/svg" viewBox="0 0 55 55"><path d="M46.124,13.515H8.87a23.281,23.281,0,0,1,37.254,0Z" style="fill:#357d40"/><path d="M46.124,41.485a23.281,23.281,0,0,1-37.254,0Z" style="fill:#357d40"/><path d="M48.844,18.159H6.156A23.277,23.277,0,0,1,8.87,13.515H46.124A23.254,23.254,0,0,1,48.844,18.159Z" style="fill:#fff"/><path d="M50.8,27.5a23.155,23.155,0,0,1-1.956,9.346H6.156a23.294,23.294,0,0,1,0-18.687H48.844A23.131,23.131,0,0,1,50.8,27.5Z" style="fill:#b30b2c"/><path d="M48.844,36.846a23.217,23.217,0,0,1-2.72,4.639H8.87a23.24,23.24,0,0,1-2.714-4.639Z" style="fill:#fff"/><polygon points="27.501 19.08 29.587 25.513 36.355 25.513 30.879 29.487 32.971 35.926 27.501 31.946 22.024 35.926 24.116 29.487 18.645 25.513 25.408 25.513 27.501 19.08" style="fill:#ebc726"/></svg>