<svg xmlns="http://www.w3.org/2000/svg" viewBox="0 0 55 55"><path d="M49.466,19.733H5.533c.184-.517.387-1.025.6-1.527a23.54,23.54,0,0,1,3.854-6.062,23.282,23.282,0,0,1,38.87,6.062C49.079,18.708,49.278,19.216,49.466,19.733Z"/><path d="M50.8,27.5a23.149,23.149,0,0,1-1.078,7c-.084.256-.167.513-.256.764H5.533c-.089-.251-.178-.508-.256-.764a23.306,23.306,0,0,1,0-14.006c.078-.256.167-.513.256-.764H49.466c.089.251.172.508.251.764A23,23,0,0,1,50.8,27.5Z" style="fill:#d9131a"/><path d="M49.466,35.267c-.188.517-.387,1.03-.607,1.532a23.314,23.314,0,0,1-42.724,0c-.215-.5-.418-1.015-.6-1.532Z" style="fill:#028832"/><path d="M49.717,20.5H5.277c.078-.256.167-.513.256-.764.184-.517.387-1.025.6-1.527H48.859c.22.5.419,1.01.607,1.527C49.555,19.984,49.638,20.241,49.717,20.5Z" style="fill:#fff"/><path d="M49.722,34.5c-.084.256-.167.513-.256.764-.188.517-.387,1.03-.607,1.532H6.135c-.215-.5-.418-1.015-.6-1.532-.089-.251-.178-.508-.256-.764Z" style="fill:#fff"/><path d="M36.558,27.5l-12.113,7-1.323.764L20.475,36.8,9.989,42.856A23.411,23.411,0,0,1,6.135,36.8c-.215-.5-.418-1.015-.6-1.532-.089-.251-.178-.508-.256-.764a23.306,23.306,0,0,1,0-14.006c.078-.256.167-.513.256-.764.184-.517.387-1.025.6-1.527a23.54,23.54,0,0,1,3.854-6.062l10.486,6.062,2.647,1.527,1.318.764Z" style="fill:#1447ad"/><polygon points="13.431 20.544 16.558 24.838 21.616 23.19 18.493 27.495 21.621 31.794 16.563 30.157 13.446 34.456 13.441 29.142 8.384 27.505 13.436 25.858 13.431 20.544" style="fill:#fbdc1d"/></svg>