<svg xmlns="http://www.w3.org/2000/svg" viewBox="0 0 55 55"><path d="M48.561,17.537H6.439a22.623,22.623,0,0,1,1.4-2.526,23.294,23.294,0,0,1,40.726,2.526Z" style="fill:#0bac2f"/><path d="M48.561,37.463A23.294,23.294,0,0,1,7.835,39.989a23.631,23.631,0,0,1-1.4-2.526Z" style="fill:#0bac2f"/><path d="M50.8,27.5a23.1,23.1,0,0,1-2.239,9.963H6.439a23.286,23.286,0,0,1,0-19.926H48.561A23.1,23.1,0,0,1,50.8,27.5Z" style="fill:#fecd17"/><path d="M20.337,27.5l-9.975,9.963L7.835,39.989a23.631,23.631,0,0,1-1.4-2.526,23.286,23.286,0,0,1,0-19.926,22.623,22.623,0,0,1,1.4-2.526l2.527,2.526Z" style="fill:#d11133"/><polygon points="27.932 21.464 29.428 26.077 34.276 26.077 30.353 28.923 31.849 33.536 27.932 30.685 24.009 33.536 25.505 28.923 21.582 26.077 26.43 26.077 27.932 21.464"/><polygon points="42.745 21.464 44.241 26.077 49.09 26.077 45.167 28.923 46.668 33.536 42.745 30.685 38.822 33.536 40.318 28.923 36.4 26.077 41.244 26.077 42.745 21.464"/></svg>