<svg xmlns="http://www.w3.org/2000/svg" viewBox="0 0 55 55"><path d="M49.472,35.268a23.3,23.3,0,0,1-43.939,0Z"/><path d="M50.8,27.5a23.161,23.161,0,0,1-1.328,7.768H5.533a23.3,23.3,0,0,1,0-15.536H49.467A23.04,23.04,0,0,1,50.8,27.5Z" style="fill:#fff"/><path d="M49.467,19.732H5.533a23.3,23.3,0,0,1,43.934,0Z" style="fill:#cd1225"/><polygon points="17.133 22.905 18.274 26.418 21.964 26.418 18.979 28.587 20.118 32.095 17.133 29.926 14.144 32.095 15.288 28.587 12.298 26.418 15.989 26.418 17.133 22.905" style="fill:#00793d"/><polygon points="38.128 22.905 39.268 26.418 42.958 26.418 39.973 28.587 41.113 32.095 38.128 29.926 35.138 32.095 36.277 28.587 33.292 26.418 36.983 26.418 38.128 22.905" style="fill:#00793d"/></svg>