<svg xmlns="http://www.w3.org/2000/svg" viewBox="0 0 55 55"><path d="M48.546,17.516H6.449c.272-.565.565-1.125.879-1.663a23.286,23.286,0,0,1,40.344,0C47.986,16.391,48.28,16.951,48.546,17.516Z" style="fill:#cb0201"/><path d="M48.546,37.484c-.266.57-.56,1.125-.874,1.663a23.286,23.286,0,0,1-40.344,0q-.471-.807-.879-1.663Z" style="fill:#006506"/><path d="M50.8,27.5a23.041,23.041,0,0,1-2.254,9.984H6.449a23.286,23.286,0,0,1,0-19.968h42.1A23.041,23.041,0,0,1,50.8,27.5Z" style="fill:#fff"/><path d="M33.849,36.485a22.6,22.6,0,0,0-12.7,0l-.325-1.041a23.632,23.632,0,0,1,13.348,0Z" style="fill:#f7c215"/><path d="M27.918,33.3c0-.8-.418-.952-.418-.952s-.418.152-.418.952c-.246-.167-.691,0-.691,0,0,.46.5.837,1.109.837s1.109-.377,1.109-.837C28.609,33.3,28.164,33.133,27.918,33.3Z" style="fill:#f7c215"/><path d="M23.954,33.478c-.173-.779-.617-.837-.617-.837s-.377.241-.2,1.02c-.272-.11-.675.152-.675.152a1.008,1.008,0,0,0,1.266.575c.6-.136,1-.607.905-1.056C24.629,33.332,24.158,33.264,23.954,33.478Z" style="fill:#f7c215"/><path d="M31.046,33.478c.173-.779.617-.837.617-.837s.377.241.2,1.02c.272-.11.675.152.675.152a1.011,1.011,0,0,1-1.266.575c-.6-.136-1-.607-.905-1.056C30.371,33.332,30.842,33.264,31.046,33.478Z" style="fill:#f7c215"/><polygon points="27.5 18.515 27.856 19.608 29.001 19.608 28.07 20.277 28.426 21.365 27.5 20.696 26.575 21.365 26.93 20.277 26 19.608 27.144 19.608 27.5 18.515" style="fill:#f7c215"/><polygon points="19.425 23.154 19.78 24.242 20.926 24.242 20 24.916 20.356 26.004 19.425 25.33 18.499 26.004 18.855 24.916 17.929 24.242 19.074 24.242 19.425 23.154" style="fill:#f7c215"/><polygon points="35.575 23.154 35.926 24.242 37.071 24.242 36.146 24.916 36.501 26.004 35.575 25.33 34.644 26.004 35 24.916 34.074 24.242 35.22 24.242 35.575 23.154" style="fill:#f7c215"/><polygon points="36.826 27.829 37.181 28.917 38.326 28.917 37.401 29.587 37.751 30.68 36.826 30.005 35.9 30.68 36.255 29.587 35.329 28.917 36.47 28.917 36.826 27.829" style="fill:#f7c215"/><polygon points="18.175 27.829 18.53 28.917 19.671 28.917 18.745 29.587 19.1 30.68 18.175 30.005 17.249 30.68 17.599 29.587 16.674 28.917 17.819 28.917 18.175 27.829" style="fill:#f7c215"/><polygon points="22.824 19.78 23.175 20.868 24.32 20.868 23.394 21.538 23.751 22.631 22.824 21.956 21.893 22.631 22.249 21.538 21.323 20.868 22.469 20.868 22.824 19.78" style="fill:#f7c215"/><polygon points="32.176 19.78 32.531 20.868 33.677 20.868 32.751 21.538 33.107 22.631 32.176 21.956 31.25 22.631 31.606 21.538 30.68 20.868 31.825 20.868 32.176 19.78" style="fill:#f7c215"/><path d="M36.02,32.034c-2.605,1.167-3.5-.313-3.954-1.161-2.7,1.716-3.781-.214-4.148-1.26a2.965,2.965,0,0,1-.162-.973V26.909a1.2,1.2,0,0,1,1.318-.434l.382.125-.047-.392a2.087,2.087,0,0,0-1.344-1.9,1.674,1.674,0,0,0-1.13,0,2.087,2.087,0,0,0-1.344,1.9l-.047.392.377-.125a1.2,1.2,0,0,1,1.323.434V28.64a2.965,2.965,0,0,1-.162.973c-.367,1.046-1.444,2.976-4.143,1.26-.46.848-1.354,2.328-3.959,1.161-.11,1.146,2.913,2.929,4.132-.292,0,0,2.547,2.677,4.388-1.062,1.836,3.739,4.388,1.062,4.388,1.062C33.107,34.963,36.13,33.18,36.02,32.034Zm-9.728-6.129c-.047,0-.089,0-.131,0a1.46,1.46,0,0,1,.947-1.119,1.125,1.125,0,0,1,.784,0,1.475,1.475,0,0,1,.952,1.119,1.717,1.717,0,0,0-1.344.518A1.724,1.724,0,0,0,26.292,25.905Z" style="fill:#f7c215"/></svg>