<svg xmlns="http://www.w3.org/2000/svg" viewBox="0 0 55 55"><circle cx="27.5" cy="27.5" r="23.3" style="fill:#e60313"/><path d="M39.189,27.5A11.687,11.687,0,1,1,27.5,15.816,11.691,11.691,0,0,1,39.189,27.5Z" style="fill:#fff"/><path d="M30.685,34.529a7.027,7.027,0,1,1,4.691-12.254,8.743,8.743,0,1,0,0,10.455A7.012,7.012,0,0,1,30.685,34.529Z" style="fill:#e60313"/><polygon points="29.074 22.563 31.297 25.607 34.88 24.43 32.673 27.484 34.901 30.528 31.313 29.372 29.106 32.432 29.095 28.661 25.507 27.51 29.085 26.334 29.074 22.563" style="fill:#e60313"/></svg>