<svg xmlns="http://www.w3.org/2000/svg" viewBox="0 0 55 55"><path d="M50.8,27.5A23.3,23.3,0,1,1,27.5,4.2h2.7v.157A23.332,23.332,0,0,1,50.8,27.5Z" style="fill:#fd0302"/><path d="M30.2,4.2V27.5H4.2A23.327,23.327,0,0,1,27.5,4.2Z" style="fill:#060593"/><path d="M19.888,12.455a4.6,4.6,0,0,0-1.954,0l.977-3.529Z" style="fill:#fff"/><path d="M17.541,12.559a4.53,4.53,0,0,0-1.688.978l-.92-3.545Z" style="fill:#fff"/><path d="M15.565,13.824a4.539,4.539,0,0,0-.977,1.689L12.026,12.9Z" style="fill:#fff"/><path d="M14.379,16.877a4.629,4.629,0,0,0,.1.978l-3.524-.978,3.524-.972A4.58,4.58,0,0,0,14.379,16.877Z" style="fill:#fff"/><path d="M15.565,19.935l-3.539.921,2.562-2.609A4.574,4.574,0,0,0,15.565,19.935Z" style="fill:#fff"/><path d="M17.541,21.2l-2.608,2.566.92-3.544A4.6,4.6,0,0,0,17.541,21.2Z" style="fill:#fff"/><path d="M19.883,21.305l-.972,3.524-.977-3.524a4.575,4.575,0,0,0,1.949,0Z" style="fill:#fff"/><path d="M22.884,23.767,20.275,21.2a4.559,4.559,0,0,0,1.694-.978Z" style="fill:#fff"/><path d="M25.8,20.856l-3.545-.921a4.509,4.509,0,0,0,.978-1.688Z" style="fill:#fff"/><path d="M23.333,17.855a4.629,4.629,0,0,0,.105-.978,4.58,4.58,0,0,0-.105-.972l3.529.972Z" style="fill:#fff"/><path d="M25.8,12.9l-2.567,2.609a4.494,4.494,0,0,0-.978-1.694Z" style="fill:#fff"/><path d="M22.884,9.992l-.915,3.545a4.492,4.492,0,0,0-1.694-.978Z" style="fill:#fff"/><circle cx="18.911" cy="16.877" r="4.02" style="fill:#fff"/></svg>