<svg xmlns="http://www.w3.org/2000/svg" viewBox="0 0 55 55"><path d="M50.8,27.5a23.3,23.3,0,0,1-1.323,7.767H5.528A23.333,23.333,0,0,1,4.2,27.5Z"/><path d="M49.477,35.267a23.335,23.335,0,0,1-4.613,7.766H10.136a23.239,23.239,0,0,1-4.608-7.766Z" style="fill:#fbdb1b"/><path d="M50.8,27.5H4.2a23.289,23.289,0,0,1,1.328-7.767H49.477A23.261,23.261,0,0,1,50.8,27.5Z" style="fill:#d80201"/><path d="M44.864,43.033a23.293,23.293,0,0,1-34.728,0Z" style="fill:#d80201"/><path d="M44.864,11.967H10.136a23.293,23.293,0,0,1,34.728,0Z"/><path d="M49.477,19.733H5.528a23.141,23.141,0,0,1,4.608-7.766H44.864A23.236,23.236,0,0,1,49.477,19.733Z" style="fill:#fbdb1b"/><path d="M34.869,27.5A7.367,7.367,0,1,1,27.5,20.131,7.365,7.365,0,0,1,34.869,27.5Z" style="fill:#fff"/><path d="M26.156,23.122a.567.567,0,0,0-.377.638c.074.178.45.32.607.168a.348.348,0,0,0,.058-.3C26.428,23.525,26.313,23.1,26.156,23.122Z" style="fill:#d80201"/><path d="M26.47,23.625a1.023,1.023,0,0,0-.225-.508.144.144,0,0,0-.073-.026h-.021a.46.46,0,0,0-.241.146.843.843,0,0,0-.1.142.478.478,0,0,0-.058.392.459.459,0,0,0,.241.2.338.338,0,0,0,.1.031.361.361,0,0,0,.105.011.283.283,0,0,0,.2-.068A.35.35,0,0,0,26.47,23.625Zm-.361.329a.385.385,0,0,1-.079-.021.38.38,0,0,1-.225-.183.412.412,0,0,1,.053-.345.75.75,0,0,1,.136-.173.355.355,0,0,1,.167-.083c.016-.006.031,0,.052.015a.923.923,0,0,1,.2.466.324.324,0,0,1-.047.282A.286.286,0,0,1,26.109,23.954Z"/><path d="M28.112,21.3l-.717.983-.768-.209V20.748a2.241,2.241,0,0,1,.408.021A1.761,1.761,0,0,1,28.112,21.3Z" style="fill:#fbdb1b"/><path d="M28.6,22.233c-.46.074-.758.147-.81.157l-.335-.094.7-.957a1.823,1.823,0,0,1,.125.157.119.119,0,0,1,.026.031A2.619,2.619,0,0,1,28.6,22.233Z" style="fill:#d80201"/><path d="M26.574,20.748v1.307l-.366-.1-.539-.921A1.972,1.972,0,0,1,26.574,20.748Z" style="fill:#d80201"/><path d="M28.656,22.254a2.576,2.576,0,0,0-.309-.758c-.005-.011-.015-.021-.02-.032a1.861,1.861,0,0,0-1.287-.753A2.094,2.094,0,0,0,25.612,21l-.016.016.5.857.074.126,1.051.293.272.078.293.079,0,0s.042-.011.115-.021c.136-.032.387-.089.722-.142l.031-.005Zm-2.082-.2-.366-.1-.068-.12-.471-.806a1.972,1.972,0,0,1,.905-.282Zm.821.225-.172-.047-.6-.162V20.743a2.27,2.27,0,0,1,.408.026,1.761,1.761,0,0,1,1.077.528l-.45.617-.235.33Zm.869.011c-.063.01-.121.021-.173.031l-.194.042-.057.016a.468.468,0,0,1-.052.01l-.325-.089-.01,0,0,0,.241-.335.455-.617a1.823,1.823,0,0,1,.125.157.119.119,0,0,1,.026.031,2.464,2.464,0,0,1,.288.706C28.473,22.254,28.363,22.27,28.264,22.291Z"/><path d="M30.936,29.325c-.084-.324-.659-.633-.978-.847-.214-.141-.428-.277-.643-.413l-.241-.157-.01-.005c-.1-.063-.2-.131-.3-.2l-.3-.2a5.663,5.663,0,0,1-.486-.366c-.188-.162-.387-.309-.565-.481l-.042-.037v0a.949.949,0,0,1-.063-.073,1.505,1.505,0,0,1-.324-.68.278.278,0,0,1-.01-.068,1.083,1.083,0,0,1-.021-.147,7.406,7.406,0,0,1-.021-.978,1.524,1.524,0,0,1,.246-.852,2.447,2.447,0,0,1,.361-.413.954.954,0,0,0,.35-.565,1.359,1.359,0,0,0,.021-.413.2.2,0,0,0-.011-.058.614.614,0,0,0-.057-.183,1.021,1.021,0,0,0-.141-.225c-.011-.01-.021-.026-.037-.042a1.041,1.041,0,0,0-.685-.34,1.138,1.138,0,0,0-.35.021l-.053.016a1.014,1.014,0,0,0-.434.225.146.146,0,0,0-.042.036.785.785,0,0,0-.245.612,1.907,1.907,0,0,0,.031.236,2.2,2.2,0,0,0-1,.491c.727-.162.894-.2,1.088-.23.015.032.026.058.036.084-.183.037-.926.188-1.067.235,0,0,.4,0,.973-.063a.121.121,0,0,0,.042,0h.042a.6.6,0,0,1,.094-.01,1.167,1.167,0,0,0,.068.1c.084.12.152.225.063.361a2.2,2.2,0,0,1-.189.251.059.059,0,0,1-.021.021s-.01.016-.015.021l-.032.031c-.266.325-.538.644-.8.973a2.458,2.458,0,0,0-.277,2.28,2,2,0,0,0,.13.241,2.256,2.256,0,0,0,.189.251l0,0c.037.042.068.079.105.115l.36.387a.111.111,0,0,0,.089.042.177.177,0,0,1,.074.021c.319.256.653.492.993.717.173.109.346.214.518.319.011.272.026.774.037,1.3l-1.454-.079a4.735,4.735,0,0,0-.68.037c-.847.183-.779.811-.753,1.443.01-.146.062-.125.287-.58a.749.749,0,0,0,.278.512,1.54,1.54,0,0,1,.1-.711c-.025.089.157.455.256.439-.015-.319.435-.768.435-.768s.779,0,1.537.021c.011.287.016.564.021.8.031.988.073,1.323.073,1.323s-1.475-.136-1.783.361c.4.037.946.037.946.037s-.47.6-.271.81a3.326,3.326,0,0,1,1.563-.789,4.772,4.772,0,0,1,1.109.01s.084-.465-1.124-.476c-.027-.214-.074-1.171-.11-2.071.042,0,.083,0,.125,0a6.106,6.106,0,0,0,.937,0,.322.322,0,0,0,.3-.434A.406.406,0,0,0,29.1,30.4c-.1-.146-.716-.92-.387-1.046a.38.38,0,0,1,.131-.015,3.393,3.393,0,0,1,.962.151c.058.016.121.037.178.058a.376.376,0,0,0,.074.016.426.426,0,0,0,.073.026l.062.015a1.417,1.417,0,0,0,.257.058c.021,0,.042,0,.057,0h.115C30.79,29.655,31,29.592,30.936,29.325Zm-2.5,1.308a.111.111,0,0,1-.073.073.092.092,0,0,1-.052,0l-.512-.031c-.022-.419-.032-.8-.037-1.057.01.011.021.016.031.026a2.533,2.533,0,0,1,.607.727A.291.291,0,0,1,28.441,30.633Z"/><path d="M26.632,22.636a.152.152,0,1,1-.3,0,.152.152,0,0,1,.3,0Z" style="fill:#fff"/><path d="M27.212,22.055c.006.178.037.518-.094.659-.1.11-.235.173-.335.278a.206.206,0,0,0-.062.219.252.252,0,0,0,.3.152.532.532,0,0,0,.172-.089.889.889,0,0,0,.351-.638A.621.621,0,0,0,27.212,22.055Z" style="fill:#9ba59b"/><path d="M26.642,23.661a7.021,7.021,0,0,0-.7,1,3.245,3.245,0,0,0-.466,1.506,2.91,2.91,0,0,0,.22,1.02s.016-.418.031-.439a1.076,1.076,0,0,0,.194.183l-.037-.356.22.068-.083-.246h.261l-.068-.282.293.01c-.032,0-.126-.3-.142-.339A1.757,1.757,0,0,1,26.3,25.4a3.073,3.073,0,0,1,.079-.843,3.316,3.316,0,0,1,.157-.5c.031-.074.068-.147.1-.225,0-.011.064-.209.032-.2C26.658,23.64,26.653,23.651,26.642,23.661Z" style="fill:#9ba59b"/><path d="M27.066,27.8a1.6,1.6,0,0,0,.058.91c.1-.036.475-.193.711-.062C27.918,28.63,27.2,28.117,27.066,27.8Z" style="fill:#9ba59b"/><path d="M29.7,27.882c-.236-.084-.832-.22-.858-.23l-.115-.026.471.381h-.408a.887.887,0,0,1-.079-.073c-.031-.031-.063-.063-.1-.094a2.647,2.647,0,0,0-.691-.554c-.021-.011-.047-.021-.073-.037-.219-.105-.444-.214-.45-.481a.24.24,0,0,1,.089-.215.5.5,0,0,1,.419-.021,3,3,0,0,1,.465.22c.052.031.1.058.152.084a3.564,3.564,0,0,0,.69.261c.058.016.115.042.178.063a1.137,1.137,0,0,0,.408.11,3.6,3.6,0,0,1,.466.476,8.085,8.085,0,0,0-.963-.4c-.01,0-.016,0-.026-.01l-.016.052c.006,0,.016,0,.021.01A1.485,1.485,0,0,1,29.7,27.882Z" style="fill:#fff"/><path d="M29.885,31.339l.193-.225-.2-.068c.287-.141.915-.523.7-1.768l-.032-.167-.021.167c-.1.628-.235.847-.345.936a1.19,1.19,0,0,0,.021-.564,1.556,1.556,0,0,0-.2-.461,2.317,2.317,0,0,0-.4-.439c-.1-.094-.2-.188-.314-.282-.147-.131-.3-.262-.45-.4h.5l-.4-.33a7.048,7.048,0,0,1,.8.225l.078.042-.041-.078a2.562,2.562,0,0,0-.346-.471,3.738,3.738,0,0,1,.91.418l.142.131-.1-.162a3.35,3.35,0,0,0-.565-.617c-.078-.079-.136-.136-.177-.173l.392.063c.031.016.068.031.1.047A4.5,4.5,0,0,1,31.522,28a1.685,1.685,0,0,1,.471,1.166,3.308,3.308,0,0,1-.068.936,1.792,1.792,0,0,1-.34.717,2.284,2.284,0,0,1-1.135.941,1.427,1.427,0,0,1,.151-.219,1.668,1.668,0,0,0,.231-.361l.026-.073-.439.277.109-.314-.063.026A3.123,3.123,0,0,1,29.885,31.339Z" style="fill:#d80201"/><path d="M29.739,27.212a1.455,1.455,0,0,1-.33-.1c-.063-.026-.126-.047-.183-.068a3.613,3.613,0,0,1-.68-.256c-.052-.026-.1-.053-.152-.084a2.987,2.987,0,0,0-.47-.225.547.547,0,0,0-.471.032.3.3,0,0,0-.115.261c.01.3.261.418.486.528l.073.032a2.682,2.682,0,0,1,.675.544c.032.031.063.062.1.094.188.188.392.366.591.538.1.095.209.183.308.278a1.778,1.778,0,0,1,.581.863l-.058.073c-.016-.152-.125-.5-.69-.978a3.339,3.339,0,0,0-1.088-.67l-.037-.01a2.57,2.57,0,0,1-.993-.471,1.609,1.609,0,0,1-.414-1.564.407.407,0,0,1,.2-.24.111.111,0,0,1,.037-.011.492.492,0,0,1,.22.058c.026.01.047.021.068.031a3.966,3.966,0,0,1,.428.178c.67.34,1.355.664,1.993.968l.032.015-.393-.068.084.068A2.286,2.286,0,0,1,29.739,27.212Z" style="fill:#9ba59b"/><path d="M29.932,27.646c-.063-.026-.136-.052-.214-.083Zm2.113,1.512a1.71,1.71,0,0,0-.486-1.2,2.647,2.647,0,0,0-.612-.46,8.445,8.445,0,0,0-.785-.392c-.1-.047-.209-.094-.314-.147-.643-.3-1.323-.627-1.992-.962-.142-.068-.283-.126-.434-.183a.61.61,0,0,1-.068-.026.438.438,0,0,0-.241-.063.235.235,0,0,0-.058.01.214.214,0,0,0-.083.053.562.562,0,0,0-.147.219,1.624,1.624,0,0,0,.3,1.491.992.992,0,0,0,.125.136,2.568,2.568,0,0,0,1.015.481l.036.011a3.161,3.161,0,0,1,1.067.659,1.978,1.978,0,0,1,.617.758.546.546,0,0,1,.058.251l-.016.11.136-.183a1.375,1.375,0,0,1-.047.544l-.016.062.058-.031c.1-.052.24-.183.35-.633.017-.063.032-.13.047-.209.006.073.011.141.016.209a1.267,1.267,0,0,1-.774,1.36l-.063.026.251.084-.225.277h.058a2.108,2.108,0,0,0,.617-.24l-.115.339.424-.271c-.047.078-.121.177-.183.261-.115.152-.178.241-.178.293v.037l.031-.011a2.257,2.257,0,0,0,1.219-.973,1.849,1.849,0,0,0,.345-.737A3.232,3.232,0,0,0,32.045,29.158Zm-1.951.56a.673.673,0,0,0-.036-.157h0a.385.385,0,0,0-.027-.068.433.433,0,0,0-.042-.079,1.6,1.6,0,0,0-.209-.3c-.016-.016-.031-.037-.047-.052a2.63,2.63,0,0,0-.324-.309,3.269,3.269,0,0,0-1.088-.675l-.037-.01a2.5,2.5,0,0,1-.993-.471c-.032-.031-.063-.057-.1-.094l0-.01c-.026-.027-.047-.063-.073-.095a.133.133,0,0,1-.016-.026.373.373,0,0,1-.057-.094,1.694,1.694,0,0,1-.162-.376.259.259,0,0,1-.021-.063c-.011-.042-.016-.079-.026-.121a1.019,1.019,0,0,1-.021-.125v-.042a.892.892,0,0,1-.011-.125,1.073,1.073,0,0,1,.073-.393.871.871,0,0,1,.11-.172.277.277,0,0,1,.042-.042.1.1,0,0,1,.052-.026.108.108,0,0,1,.042-.011.489.489,0,0,1,.215.058c.026.01.047.021.068.031a3.585,3.585,0,0,1,.428.178c.67.34,1.355.664,1.993.968l.032.015-.393-.068.084.068a2.286,2.286,0,0,1,.194.183,1.455,1.455,0,0,1-.33-.1c-.063-.026-.126-.047-.183-.068a3.613,3.613,0,0,1-.68-.256c-.052-.026-.1-.053-.152-.084a3.215,3.215,0,0,0-.47-.225.547.547,0,0,0-.471.032.132.132,0,0,0-.047.047.181.181,0,0,0-.037.052v0a.341.341,0,0,0-.031.152c.01.3.261.423.486.533a.5.5,0,0,1,.073.037c.042.021.084.047.126.068s.089.063.131.094a.253.253,0,0,1,.047.037,1.049,1.049,0,0,1,.126.1c.083.073.167.157.245.236l.1.1c.188.188.392.361.591.533.1.095.209.183.308.278.037.036.073.068.1.1a.843.843,0,0,1,.068.063,1.615,1.615,0,0,1,.225.293.228.228,0,0,1,.047.073c.015.026.026.047.037.068s.025.052.041.084.026.078.037.115a.388.388,0,0,1,.021.063ZM29.278,27.4a.494.494,0,0,1,.131.105,2.357,2.357,0,0,1,.288.382c-.236-.084-.832-.22-.858-.23l-.115-.026.34.277.01.005.115.1h-.4a.887.887,0,0,1-.079-.073l-.1-.094a3.3,3.3,0,0,0-.366-.34v0c-.042-.032-.084-.063-.131-.094-.016-.011-.031-.021-.042-.027-.047-.031-.1-.062-.146-.088a.513.513,0,0,1-.079-.037c-.219-.105-.444-.214-.45-.481a.225.225,0,0,1,.006-.063.129.129,0,0,1,.01-.042v-.01a.248.248,0,0,1,.073-.1.5.5,0,0,1,.419-.021,2.467,2.467,0,0,1,.465.225c.052.026.1.053.152.079a3.564,3.564,0,0,0,.69.261c.058.016.115.042.178.063a1.249,1.249,0,0,0,.408.11c.026.021.131.115.246.23.073.073.151.162.22.246a3.566,3.566,0,0,0-.388-.183c-.052-.016-.109-.042-.167-.063-.12-.047-.251-.1-.408-.157a.048.048,0,0,0-.026,0l-.016.052A.031.031,0,0,1,29.278,27.4Zm2.647,2.7a1.792,1.792,0,0,1-.34.717,2.284,2.284,0,0,1-1.135.941,1.72,1.72,0,0,1,.151-.219,1.473,1.473,0,0,0,.231-.366l.026-.068-.439.282.109-.319-.063.031a4.419,4.419,0,0,1-.575.241l.188-.225-.2-.068a1.325,1.325,0,0,0,.742-1.381,1.129,1.129,0,0,0-.015-.183v0c-.006-.068-.016-.131-.026-.2l-.027-.167-.026.167c-.026.147-.052.277-.078.382-.011.042-.021.078-.031.12a1.057,1.057,0,0,1-.058.168s0,.015-.011.021a.446.446,0,0,1-.031.068.592.592,0,0,1-.131.177,1.229,1.229,0,0,0,.016-.564.139.139,0,0,0-.011-.048.756.756,0,0,0-.036-.1.838.838,0,0,0-.042-.1.909.909,0,0,0-.11-.2,2.292,2.292,0,0,0-.392-.445c-.11-.1-.209-.188-.314-.277l-.455-.408h.5l-.4-.33a7.422,7.422,0,0,1,.8.225l.078.042-.041-.078a1.167,1.167,0,0,0-.068-.11c-.016-.032-.037-.058-.053-.084a1.642,1.642,0,0,0-.188-.23c-.01-.016-.026-.031-.037-.047l.11.047c.063.021.115.042.168.063l.214.083a.72.72,0,0,0,.073.037.448.448,0,0,1,.089.037c.037.015.068.036.1.052a.611.611,0,0,1,.058.031.826.826,0,0,1,.1.068l.142.131-.1-.162a2.1,2.1,0,0,0-.282-.34.946.946,0,0,0-.1-.105.264.264,0,0,0-.041-.041c-.079-.074-.136-.121-.147-.131a1.855,1.855,0,0,0-.172-.173l.392.063c.036.016.068.031.1.047.236.105.471.214.7.34a1.93,1.93,0,0,1,.183.105l.178.115a2.238,2.238,0,0,1,.324.277,1.685,1.685,0,0,1,.471,1.166A3.308,3.308,0,0,1,31.925,30.1Z"/></svg>