<svg xmlns="http://www.w3.org/2000/svg" xmlns:xlink="http://www.w3.org/1999/xlink" viewBox="0 0 55 55">
  <defs>
    <clipPath id="clip-path">
      <circle cx="27.5" cy="27.5" r="23.32" fill="none"/>
    </clipPath>
  </defs>
  <g id="usd">
    <g clip-path="url(#clip-path)">
      <g>
        <path d="M62.48,7.77v3.59H28V7.77Zm0,7.17v3.59H28V14.94Zm0,7.17v3.59H28V22.12Zm0,7.17v3.59h-70V29.29Zm0,7.18v3.59h-70V36.47Zm0,7.17v3.59h-70V43.64Z" fill="#f4f4f5" fill-rule="evenodd"/>
        <path d="M-7.48,4.18h70V7.77h-70V4.18Zm0,43h70v3.59h-70V47.23Zm0-7.17h70v3.59h-70V40.06Zm0-7.17h70v3.59h-70V32.88Zm0-7.18h70v3.59h-70V25.71Zm0-7.17h70v3.59h-70V18.53Zm0-7.17h70v3.59h-70V11.36Z" fill="#ee2724" fill-rule="evenodd"/>
        <polygon points="-7.48 4.18 27.97 4.18 27.97 29.29 -7.48 29.29 -7.48 4.18 -7.48 4.18" fill="#214097" fill-rule="evenodd"/>
        <path d="M25,5.43l.32,1h1L25.53,7l.32,1L25,7.41,24.17,8l.32-1-.85-.61h1l.32-1Zm-29.54,10,.32,1h1L-4,17l.32,1-.84-.62-.84.62L-5,17l-.85-.61h1l.32-1Zm3,2.5.32,1h1l-.85.61.33,1-.84-.62-.84.62.33-1-.85-.61h1l.32-1Zm23.63,0,.32,1h1l-.85.61.32,1-.84-.62-.84.62.33-1-.85-.61h1l.32-1Zm-5.91,0,.32,1h1l-.85.61.33,1-.84-.62-.84.62.33-1-.85-.61h1l.32-1Zm-5.91,0,.32,1h1l-.85.61.32,1-.84-.62-.84.62.32-1-.85-.61h1l.32-1Zm-5.91,0,.32,1h1l-.85.61.32,1-.84-.62-.84.62.32-1L3,18.94H4l.32-1Zm-3-2.5.32,1h1L1.9,17l.32,1-.84-.62L.54,18l.33-1L0,16.43h1l.32-1Zm17.72,0,.32,1h1l-.85.61L20,18l-.84-.62-.84.62.32-1-.85-.61h1l.32-1Zm5.91,0,.32,1h1l-.85.61.32,1L25,17.42l-.84.62.32-1-.85-.61h1l.32-1Zm0,5,.32,1h1l-.85.61.32,1L25,22.43l-.84.62.32-1-.85-.61h1l.32-1Zm-5.91,0,.32,1h1l-.85.61L20,23l-.84-.62-.84.62.32-1-.85-.61h1l.32-1Zm-17.72,0,.32,1h1L1.9,22l.32,1-.84-.62L.54,23l.33-1L0,21.44h1l.32-1Zm-3,2.5.32,1h1l-.85.61.33,1-.84-.62-.84.62.33-1-.85-.61h1l.32-1Zm23.63,0,.32,1h1l-.85.61.32,1-.84-.62-.84.62.33-1-.85-.61h1l.32-1Zm-5.91,0,.32,1h1l-.85.61.33,1-.84-.62-.84.62.33-1-.85-.61h1l.32-1Zm-5.91,0,.32,1h1l-.85.61.32,1-.84-.62-.84.62.32-1-.85-.61h1l.32-1Zm-5.91,0,.32,1h1l-.85.61.32,1-.84-.62-.84.62.32-1L3,23.94H4l.32-1Zm-8.86-2.5.32,1h1L-4,22l.32,1-.84-.62-.84.62L-5,22l-.85-.61h1l.32-1Zm0,5,.32,1h1l-.85.61.32,1-.84-.62-.84.62.32-1-.85-.61h1l.32-1Zm5.91,0,.32,1h1l-.85.61.32,1-.84-.62L.54,28l.33-1L0,26.44h1l.32-1Zm17.72,0,.32,1h1l-.85.61L20,28l-.84-.62-.84.62.32-1-.85-.61h1l.32-1Zm5.91,0,.32,1h1l-.85.61.32,1L25,27.43l-.84.62.32-1-.85-.61h1l.32-1ZM-1.57,12.94l.32,1h1l-.85.61.33,1-.84-.62-.84.62.33-1-.85-.61h1l.32-1Zm0-5,.32,1h1l-.85.61.33,1-.84-.62-.84.62.33-1-.85-.61h1l.32-1Zm23.63,0,.32,1h1l-.85.61.32,1-.84-.62-.84.62.33-1-.85-.61h1l.32-1Zm-5.91,0,.32,1h1l-.85.61.33,1-.84-.62-.84.62.33-1-.85-.61h1l.32-1Zm-5.91,0,.32,1h1l-.85.61.32,1-.84-.62-.84.62.32-1-.85-.61h1l.32-1Zm-5.91,0,.32,1h1l-.85.61.32,1-.84-.62-.84.62.32-1L3,8.92H4l.32-1Zm-8.86,2.5.32,1h1L-4,12l.32,1-.84-.62-.84.62L-5,12l-.85-.61h1l.32-1Zm26.58,2.5.32,1h1l-.85.61.32,1-.84-.62-.84.62.33-1-.85-.61h1l.32-1Zm-5.91,0,.32,1h1l-.85.61.33,1-.84-.62-.84.62.33-1-.85-.61h1l.32-1Zm-5.91,0,.32,1h1l-.85.61.32,1-.84-.62-.84.62.32-1-.85-.61h1l.32-1Zm-5.91,0,.32,1h1l-.85.61.32,1-.84-.62-.84.62.32-1L3,13.93H4l.32-1Zm-3-2.5.32,1h1L1.9,12l.32,1-.84-.62L.54,13l.33-1L0,11.43h1l.32-1Zm0-5,.32,1h1L1.9,7l.32,1-.84-.62L.54,8,.86,7,0,6.42h1l.32-1Zm-5.91,0,.32,1h1L-4,7l.32,1-.84-.62L-5.37,8-5,7l-.85-.61h1l.32-1Zm11.82,20,.32,1h1l-.85.61.32,1-.84-.62L6.45,28l.32-1-.85-.61H7l.32-1Zm0-5,.32,1h1L7.81,22l.32,1-.84-.62L6.45,23l.32-1-.85-.61H7l.32-1Zm0-5,.32,1h1L7.81,17l.32,1-.84-.62L6.45,18l.32-1-.85-.61H7l.32-1Zm0-5,.32,1h1L7.81,12l.32,1-.84-.62L6.45,13l.32-1-.85-.61H7l.32-1Zm0-5,.32,1h1L7.81,7l.32,1-.84-.62L6.45,8l.32-1-.85-.61H7l.32-1Zm5.91,20,.32,1h1l-.85.61L14,28l-.84-.62-.84.62.32-1-.85-.61h1l.32-1Zm0-5,.32,1h1l-.85.61L14,23l-.84-.62-.84.62.32-1-.85-.61h1l.32-1Zm0-5,.32,1h1l-.85.61L14,18l-.84-.62-.84.62.32-1-.85-.61h1l.32-1Zm0-5,.32,1h1l-.85.61L14,13l-.84-.62-.84.62.32-1-.85-.61h1l.32-1Zm0-5,.32,1h1L13.72,7,14,8l-.84-.62L12.36,8l.32-1-.85-.61h1l.32-1Zm5.91,5,.32,1h1l-.85.61L20,13l-.84-.62-.84.62.32-1-.85-.61h1l.32-1Zm0-5,.32,1h1L19.63,7,20,8l-.84-.62L18.26,8l.32-1-.85-.61h1l.32-1Zm5.91,5,.32,1h1l-.85.61.32,1L25,12.42l-.84.62.32-1-.85-.61h1l.32-1Z" fill="#f4f4f5" fill-rule="evenodd"/>
      </g>
    </g>
  </g>
</svg>
