<?xml version="1.0" encoding="utf-8"?>
<!-- Generator: Adobe Illustrator 22.1.0, SVG Export Plug-In . SVG Version: 6.00 Build 0)  -->
<svg version="1.1" id="Layer_1" xmlns="http://www.w3.org/2000/svg" xmlns:xlink="http://www.w3.org/1999/xlink" x="0px" y="0px"
	 viewBox="0 0 55 55" style="enable-background:new 0 0 55 55;" xml:space="preserve">
<style type="text/css">
	.st0{fill:#53AE94;}
	.st1{fill:#FFFFFF;}
</style>
<g id="tether_x5F_55">
	<g id="_2081025168608">
		<path class="st0" d="M27.5,4.2c12.9,0,23.3,10.4,23.3,23.3S40.4,50.8,27.5,50.8S4.2,40.4,4.2,27.5S14.6,4.2,27.5,4.2z"/>
		<g>
			<path class="st1" d="M30.4,24.4v-3.5h7.9v-5.3H16.7v5.3h7.9v3.5c-6.4,0.3-11.3,1.6-11.3,3.1s4.8,2.8,11.3,3.1v11.1h5.7V30.6
				c6.4-0.3,11.3-1.6,11.3-3.1C41.7,26,36.8,24.7,30.4,24.4L30.4,24.4z M30.4,29.7L30.4,29.7c-0.2,0-1,0.1-2.8,0.1
				c-1.5,0-2.5,0-2.9-0.1v0c-5.7-0.3-10-1.2-10-2.4c0-1.2,4.3-2.2,10-2.4v3.9c0.4,0,1.4,0.1,2.9,0.1c1.8,0,2.7-0.1,2.8-0.1v-3.9
				c5.7,0.3,9.9,1.2,9.9,2.4C40.3,28.4,36.1,29.4,30.4,29.7L30.4,29.7z M30.4,29.7L30.4,29.7L30.4,29.7z"/>
		</g>
	</g>
</g>
</svg>
