<svg xmlns="http://www.w3.org/2000/svg" viewBox="0 0 55 55"><path d="M49.231,19.1H5.769a23.3,23.3,0,0,1,43.462,0Z" style="fill:#0398b4"/><path d="M49.231,35.9a23.3,23.3,0,0,1-43.462,0Z" style="fill:#19b43d"/><path d="M50.8,27.5a23.148,23.148,0,0,1-1.119,7.134H5.319a23.284,23.284,0,0,1,0-14.263H49.681A23.135,23.135,0,0,1,50.8,27.5Z" style="fill:#fff"/><path d="M49.681,20.366H5.319c.136-.429.283-.852.45-1.271H49.231C49.393,19.514,49.545,19.937,49.681,20.366Z" style="fill:#cd1225"/><path d="M49.681,34.629c-.136.428-.288.852-.45,1.271H5.769c-.167-.419-.314-.843-.45-1.271Z" style="fill:#cd1225"/><path d="M21.915,17.636a4.7,4.7,0,0,1,0-9.409c.031,0,.067,0,.1,0a5.132,5.132,0,0,0-1.632-.277,4.977,4.977,0,0,0,0,9.953,5.132,5.132,0,0,0,1.632-.277C21.982,17.631,21.946,17.636,21.915,17.636Z" style="fill:#fff"/><polygon points="30.889 15.685 31.124 16.417 31.893 16.417 31.271 16.867 31.511 17.594 30.889 17.144 30.267 17.594 30.507 16.867 29.885 16.417 30.654 16.417 30.889 15.685" style="fill:#fff"/><polygon points="27.04 15.685 27.275 16.417 28.044 16.417 27.422 16.867 27.662 17.594 27.04 17.144 26.423 17.594 26.658 16.867 26.036 16.417 26.804 16.417 27.04 15.685" style="fill:#fff"/><polygon points="23.19 15.685 23.432 16.417 24.195 16.417 23.577 16.867 23.813 17.594 23.19 17.144 22.573 17.594 22.809 16.867 22.186 16.417 22.955 16.417 23.19 15.685" style="fill:#fff"/><polygon points="34.738 15.685 34.974 16.417 35.743 16.417 35.12 16.867 35.356 17.594 34.738 17.144 34.116 17.594 34.351 16.867 33.735 16.417 34.498 16.417 34.738 15.685" style="fill:#fff"/><polygon points="38.583 15.685 38.823 16.417 39.587 16.417 38.97 16.867 39.205 17.594 38.583 17.144 37.965 17.594 38.201 16.867 37.584 16.417 38.347 16.417 38.583 15.685" style="fill:#fff"/><polygon points="30.889 11.82 31.124 12.552 31.893 12.552 31.271 13.002 31.511 13.729 30.889 13.279 30.267 13.729 30.507 13.002 29.885 12.552 30.654 12.552 30.889 11.82" style="fill:#fff"/><polygon points="27.04 11.82 27.275 12.552 28.044 12.552 27.422 13.002 27.662 13.729 27.04 13.279 26.423 13.729 26.658 13.002 26.036 12.552 26.804 12.552 27.04 11.82" style="fill:#fff"/><polygon points="34.738 11.82 34.974 12.552 35.743 12.552 35.12 13.002 35.356 13.729 34.738 13.279 34.116 13.729 34.351 13.002 33.735 12.552 34.498 12.552 34.738 11.82" style="fill:#fff"/><polygon points="38.583 11.82 38.823 12.552 39.587 12.552 38.97 13.002 39.205 13.729 38.583 13.279 37.965 13.729 38.201 13.002 37.584 12.552 38.347 12.552 38.583 11.82" style="fill:#fff"/><polygon points="30.889 7.955 31.124 8.687 31.893 8.687 31.271 9.137 31.511 9.864 30.889 9.414 30.267 9.864 30.507 9.137 29.885 8.687 30.654 8.687 30.889 7.955" style="fill:#fff"/><polygon points="34.738 7.955 34.974 8.687 35.743 8.687 35.12 9.137 35.356 9.864 34.738 9.414 34.116 9.864 34.351 9.137 33.735 8.687 34.498 8.687 34.738 7.955" style="fill:#fff"/><polygon points="38.583 7.955 38.823 8.687 39.587 8.687 38.97 9.137 39.205 9.864 38.583 9.414 37.965 9.864 38.201 9.137 37.584 8.687 38.347 8.687 38.583 7.955" style="fill:#fff"/></svg>