<svg xmlns="http://www.w3.org/2000/svg" viewBox="0 0 55 55"><path d="M27.5,4.2V27.5H4.2A23.145,23.145,0,0,1,7.443,15.654,23.509,23.509,0,0,1,14.66,8.07Q15.517,7.5,16.428,7A23.2,23.2,0,0,1,27.5,4.2Z" style="fill:#042b7d"/><path d="M27.5,4.2V27.5H4.2A23.3,23.3,0,1,0,27.5,4.2Z" style="fill:#cd1225"/><path d="M16.815,8.2l.612,1.883L15.821,8.918l-1.605,1.161L14.828,8.2,14.66,8.07Q15.517,7.5,16.428,7l.006.026h1.981Z" style="fill:#fff"/><path d="M9.7,14.022l.612,1.883L8.7,14.739l-1.26.915a23.483,23.483,0,0,1,1.95-2.8h1.9Z" style="fill:#fff"/><polygon points="23.112 9.958 23.698 11.757 25.591 11.757 24.059 12.871 24.645 14.676 23.112 13.562 21.58 14.676 22.165 12.871 20.628 11.757 22.526 11.757 23.112 9.958" style="fill:#fff"/><polygon points="15.821 20.319 16.595 22.704 19.101 22.704 17.076 24.174 17.851 26.559 15.821 25.084 13.797 26.559 14.571 24.174 12.542 22.704 15.047 22.704 15.821 20.319" style="fill:#fff"/><polygon points="19.388 15.952 19.775 17.155 21.041 17.155 20.021 17.903 20.409 19.106 19.388 18.358 18.363 19.106 18.755 17.903 17.73 17.155 18.996 17.155 19.388 15.952" style="fill:#fff"/></svg>