<svg xmlns="http://www.w3.org/2000/svg" viewBox="0 0 55 55"><path d="M50.8,27.5H4.2A23.163,23.163,0,0,1,7.327,15.847H47.672A23.164,23.164,0,0,1,50.8,27.5Z" style="fill:#fff"/><path d="M47.672,15.847H7.332a23.431,23.431,0,0,1,5.042-6.056c.371-.319.748-.622,1.14-.915q.833-.628,1.721-1.177c.424-.267.858-.518,1.3-.753A23.317,23.317,0,0,1,33.326,4.937a23.375,23.375,0,0,1,14.346,10.91Z" style="fill:#043080"/><path d="M50.8,27.5v0a23.177,23.177,0,0,1-3.128,11.647H7.327A23.176,23.176,0,0,1,4.2,27.5v0Z" style="fill:#25962b"/><path d="M47.672,39.147a23.284,23.284,0,0,1-40.345,0Z" style="fill:#fecd17"/><path d="M33.326,4.937V50.063a23.38,23.38,0,0,1-11.648,0V4.937a23.38,23.38,0,0,1,11.648,0Z" style="fill:#d11133"/><path d="M17.876,11.072l1.156,3.552L16,12.427l-3.017,2.2,1.15-3.552L12.374,9.791c.371-.319.748-.622,1.14-.915h1.339L15.235,7.7c.424-.267.858-.518,1.3-.753l.628,1.93H20.9Z" style="fill:#fecd17"/></svg>