<svg xmlns="http://www.w3.org/2000/svg" viewBox="0 0 55 55"><path d="M27.5,32.16H4.671a23.244,23.244,0,0,0,4.2,9.32H46.13a23.163,23.163,0,0,0,4.2-9.32Z" style="fill:#fecd17"/><path d="M27.5,41.48H8.87A23.292,23.292,0,0,0,27.5,50.8h0A23.289,23.289,0,0,0,46.13,41.48Z" style="fill:#00694e"/><path d="M27.5,22.84H50.329a23.163,23.163,0,0,0-4.2-9.32H27.5Z" style="fill:#fecd17"/><path d="M50.329,22.84H27.5v9.32H50.329a23.288,23.288,0,0,0,0-9.32Z" style="fill:#00694e"/><path d="M8.87,13.52a23.267,23.267,0,0,0-4.2,18.64H27.5V4.2A23.292,23.292,0,0,0,8.87,13.52Z" style="fill:#d11133"/><path d="M46.13,13.52A23.289,23.289,0,0,0,27.5,4.2h0v9.32Z" style="fill:#00694e"/><polygon points="16.364 10.105 18.372 16.271 24.856 16.271 19.611 20.084 21.614 26.255 16.364 22.443 11.119 26.255 13.122 20.084 7.876 16.271 14.361 16.271 16.364 10.105" style="fill:#fff"/></svg>