<svg xmlns="http://www.w3.org/2000/svg" xmlns:xlink="http://www.w3.org/1999/xlink" viewBox="0 0 55 55"><defs><clipPath id="a"><circle cx="-42.5" cy="27.5" r="23.3" style="fill:none"/></clipPath></defs><g style="clip-path:url(#a)"><rect x="-86.43" y="3.094" width="87.86" height="48.811" style="fill:#cd2028"/><rect x="-86.43" y="15.297" width="87.86" height="24.406" style="fill:#fff"/></g><path d="M27.5,50.8A23.336,23.336,0,0,0,49.466,35.267H5.534A23.33,23.33,0,0,0,27.5,50.8Z"/><path d="M27.5,4.2A23.337,23.337,0,0,0,5.534,19.733H49.466A23.343,23.343,0,0,0,27.5,4.2Z" style="fill:#ce1126"/><path d="M49.466,19.733H5.534a23.278,23.278,0,0,0,0,15.534H49.466a23.278,23.278,0,0,0,0-15.534Z" style="fill:#fff"/></svg>