<svg id="zar" xmlns="http://www.w3.org/2000/svg" xmlns:xlink="http://www.w3.org/1999/xlink" viewBox="0 0 55 55">
    <clipPath id="globalClipPath">
        <circle cx="27.5" cy="27.5" r="23.3" fill="none"/>
    </clipPath>
    <g clip-path="url(#globalClipPath)">
        <polygon points="-7.48 4.18 62.47 4.18 62.47 50.79 -7.48 50.79 -7.48 4.18 -7.48 4.18" fill="#f4f4f5"
                 fill-rule="evenodd"/>
        <polygon points="29.99 19.71 6.75 4.18 62.46 4.2 62.48 19.71 29.99 19.71 29.99 19.71" fill="#ee2724"/>
        <polygon points="-7.48 45.19 -7.48 41.46 13.35 27.48 -7.48 13.58 -7.48 9.78 18.87 27.48 -7.48 45.19 -7.48 45.19"
                 fill="#ffcf32"/>
        <polygon
                points="-7.48 9.78 -7.48 4.18 1.08 4.19 28.77 22.85 62.48 22.83 62.46 32.16 28.82 32.14 1.07 50.78 -7.48 50.78 -7.48 45.19 18.87 27.48 -7.48 9.78 -7.48 9.78"
                fill="#0c8542"/>
        <polygon points="6.75 50.78 29.96 35.22 62.45 35.27 62.48 50.82 6.75 50.78 6.75 50.78" fill="#214097"/>
        <polygon points="-7.48 13.58 13.35 27.48 -7.48 41.46 -7.48 13.58 -7.48 13.58"/>
    </g>
</svg>
