<svg xmlns="http://www.w3.org/2000/svg" viewBox="0 0 55 55"><path d="M50.8,27.5c0,.121,0,.236,0,.351a.179.179,0,0,1,0,.073v.162a23.293,23.293,0,0,1-.23,2.715c-.01.1-.027.2-.042.293-.042.3-.094.591-.157.884-.005.042-.016.089-.026.136h0a1.394,1.394,0,0,1-.026.141A23.28,23.28,0,0,1,27.5,50.8H25.842v-.058A23.284,23.284,0,0,1,4.749,32.535a1.248,1.248,0,0,1-.031-.142.926.926,0,0,1-.026-.125,22.124,22.124,0,0,1-.387-2.589c-.011-.074-.016-.152-.021-.225v-.006c-.037-.449-.063-.9-.074-1.365a.216.216,0,0,1,0-.057.191.191,0,0,1,0-.053c0-.115,0-.225,0-.34a.148.148,0,0,1,0-.047V27.5c0-.157,0-.313,0-.47a.191.191,0,0,1,0-.053.218.218,0,0,1,0-.057c.011-.471.037-.937.074-1.4,0-.021,0-.042,0-.058s0-.047,0-.068c.016-.156.032-.308.047-.46,0-.026,0-.047.011-.068h0a.2.2,0,0,1,0-.057A23.3,23.3,0,0,1,42.678,9.823a.276.276,0,0,1,.062.058,4.656,4.656,0,0,1,.424.376.272.272,0,0,1,.058.052c.063.053.125.11.188.173.026.021.057.052.089.078.141.136.282.272.418.408.026.027.053.048.073.068.042.048.089.1.136.142l.053.052c.261.272.523.549.769.832.02.021.036.042.052.057.1.115.2.23.3.345a.481.481,0,0,1,.052.063c.115.136.225.272.335.408a22.628,22.628,0,0,1,2,2.914,23.134,23.134,0,0,1,2.165,5.032c.126.434.241.873.345,1.323a.406.406,0,0,1,.016.063l.016.062c.121.529.225,1.073.308,1.617a.187.187,0,0,0,0,.052c.006.021.006.042.011.058a24.488,24.488,0,0,1,.246,2.861v.11C50.8,27.184,50.8,27.34,50.8,27.5Z" style="fill:#15890b"/><path d="M34.163,20.881V49.832A23.163,23.163,0,0,1,27.5,50.8H25.842V20.881Z" style="fill:#dd2010"/><path d="M50.8,27.5c0,.121,0,.236,0,.351a.179.179,0,0,1,0,.073v.162a23.293,23.293,0,0,1-.23,2.715c-.01.1-.027.2-.042.293-.042.3-.094.591-.157.884-.005.042-.016.089-.026.136h0a1.394,1.394,0,0,1-.026.141,23.313,23.313,0,0,1-7.835,13.092V20.881h7.369c.126.434.241.873.345,1.323a.406.406,0,0,1,.016.063l.016.062c.121.529.225,1.073.308,1.617a.187.187,0,0,0,0,.052c.006.021.006.042.011.058a24.488,24.488,0,0,1,.246,2.861v.11C50.8,27.184,50.8,27.34,50.8,27.5Z" style="fill:#ee7c0a"/><path d="M42.479,20.881V45.344a23.1,23.1,0,0,1-8.316,4.488V20.881Z"/><path d="M45.3,12.464c-.094-.115-.194-.23-.3-.345-.016-.015-.032-.036-.052-.057-.246-.283-.508-.56-.769-.832l-.053-.052c-.047-.047-.094-.094-.136-.142-.02-.02-.047-.041-.073-.068-.136-.136-.277-.272-.418-.408-.032-.026-.063-.057-.089-.078-.063-.063-.125-.12-.188-.173a.272.272,0,0,0-.058-.052,4.656,4.656,0,0,0-.424-.376.276.276,0,0,0-.062-.058c-.037,0-.079.016-.11.021a7.908,7.908,0,0,0-1.03.277c-.283.089-.571.183-.837.241a5.428,5.428,0,0,0-2.417.157.7.7,0,0,1-.1-.6.4.4,0,0,1,.209-.245A3.84,3.84,0,0,1,38.9,9.6a.123.123,0,0,1,.048.037.283.283,0,0,1,.02.209.036.036,0,0,0,.011.037c.01,0,.026.01.031,0a.55.55,0,0,0,.272-.272.258.258,0,0,0-.02-.22c-.137-.251-.655-.282-.77-.288-.083-.167-.381-.23-.6-.261A1.765,1.765,0,0,0,36.925,9a1.865,1.865,0,0,0-.832,1.286,4.028,4.028,0,0,0-.649-.162c-.261-.047-.564-.084-.826-.115a5,5,0,0,1-.68-.1c-.115-.042-1.113-.471-1.841-.785-.423-.183-.763-.329-.831-.356s-.1-.015-.126.006a.123.123,0,0,0-.016.136,1.414,1.414,0,0,0,.393.507l.047.042c.036.036.078.078.12.115-.539-.251-1.4-.612-1.9-.816-.152-.063-.267-.115-.33-.141-.1-.042-.235-.11-.371-.183-.387-.2-.549-.283-.607-.225-.005,0-.005.01-.01.01-.074.194.047.345.151.481a.164.164,0,0,1,.037.042,5.394,5.394,0,0,0,.408.476,2.574,2.574,0,0,0,.623.429l-.058-.026-.3-.126a3.956,3.956,0,0,1-1.14-.627c-.036-.037-.073-.079-.115-.115a1.563,1.563,0,0,0-.167-.157c-.068-.053-.194-.147-.236-.131a.059.059,0,0,0-.026.031.977.977,0,0,0,.194.639l.021.047a1.7,1.7,0,0,0,.3.4l-.335-.235c-.256-.183-.355-.251-.413-.241a.043.043,0,0,0-.021.011.058.058,0,0,0,0,.026,1.388,1.388,0,0,0,.91.983,3,3,0,0,1-.857-.465c-.027-.021-.043-.037-.069-.037a.024.024,0,0,0-.026,0,.141.141,0,0,0-.016.021c-.036.272.215.471.367.591a3.357,3.357,0,0,0,.627.414,5.872,5.872,0,0,0,1.214.413c-.136.01-.257.036-.278.1a.166.166,0,0,0,.064.126c.072.068.418.34,1.38.2a3.529,3.529,0,0,1-.727.136c-.032.005-.12.01-.126.073-.01.12.419.293.555.319a3.59,3.59,0,0,0,1.208,0,3.376,3.376,0,0,1-.6.131c-.073,0-.105.026-.11.068-.005.084.219.188.376.214a4.8,4.8,0,0,0,1.412.016c-.177.058-.339.1-.407.115-.042.011-.053.037-.053.058.011.1.335.266.565.261.042,0,.094.005.152.011a2.073,2.073,0,0,0,.523-.021c-.094.052-.131.083-.125.125,0,.021.015.037.041.053a1.019,1.019,0,0,0,.466.088,1.776,1.776,0,0,0,.355-.041c-.12.094-.1.13-.094.146a.076.076,0,0,0,.021.016,1.257,1.257,0,0,0,.34.047A1.95,1.95,0,0,0,35.1,13.2c-.11.1-.151.178-.125.235.031.073.162.089.439.052a5.316,5.316,0,0,0,.727-.2c-.173.1-.282.194-.267.257.027.083.152.345.717.345a1.148,1.148,0,0,0,.131,0,1.627,1.627,0,0,0,.423-.073l-.021.235a.03.03,0,0,0,.021.036c.011.006.026,0,.037-.015l.142-.188a7.267,7.267,0,0,0-.268,1.082.029.029,0,0,0,.016.026c.005.006.011.006.021.006h.01a1.021,1.021,0,0,0,.408-.435c-.015.142-.03.272-.052.377s-.026.194-.026.251a.039.039,0,0,0,.01.026c.011.006.016.011.021.011a.017.017,0,0,0,.011,0,.077.077,0,0,0,.031-.011c-.036.115-.115.319-.261.371a.666.666,0,0,1-.183.032c-.283.031-.754.084-.7.784a.035.035,0,0,0,.021.032.027.027,0,0,0,.036-.016.713.713,0,0,1,.136-.183,1.045,1.045,0,0,0,.581-.084.257.257,0,0,0-.026.325c-.011.141-.016.345.209.392a.039.039,0,0,0,.031-.01.044.044,0,0,0,.011-.027l-.032-.219a.443.443,0,0,0,.356-.3c.037.173.078.267.2.325a.125.125,0,0,1,.011.041c.046.136.078.236.282.236a.047.047,0,0,0,.032-.016.056.056,0,0,0,0-.036c-.027-.037-.048-.068-.064-.095-.062-.094-.083-.13-.047-.188a.465.465,0,0,0,.168-.3.139.139,0,0,0,.005-.042.53.53,0,0,0,.157.24.04.04,0,0,0,.036.006.038.038,0,0,0,.016-.032c0-.062,0-.11,0-.146a.329.329,0,0,1-.005-.1.446.446,0,0,0,.334-.1.44.44,0,0,0,.053.33.436.436,0,0,0,.1.329.186.186,0,0,0,.131.042.2.2,0,0,0,.052,0c.011,0,.021-.005.021-.016a.034.034,0,0,0,0-.031.48.48,0,0,1-.073-.262.291.291,0,0,0,.172-.115.632.632,0,0,0,.063-.465c.032-.042.053-.048.063-.048s.037.021.057.053a.515.515,0,0,1,.027.057.31.31,0,0,0,.329.225.216.216,0,0,1,0,.105.1.1,0,0,1-.068.073.034.034,0,0,0-.021.042.04.04,0,0,0,.037.026.457.457,0,0,0,.366-.309c.037-.115.021-.3-.24-.507a.091.091,0,0,1,.052-.057c.031-.011.125-.016.314.162,0,.01.015.01.031.01A.049.049,0,0,0,40.3,15.7a.28.28,0,0,0-.042-.251c-.078-.094-.235-.136-.491-.131,0,0-.006,0-.011-.01-.057-.037-.11-.068-.089-.236a.853.853,0,0,0,.439.183h.006a.041.041,0,0,0,.026-.01c0-.011.011-.021,0-.031a.912.912,0,0,0-.084-.152,1.873,1.873,0,0,1-.266-.623.912.912,0,0,1,.125.084c.126.1.256.2.413.157a.029.029,0,0,0,.021-.037c-.005-.047-.057-.1-.136-.183a1.666,1.666,0,0,1-.178-.188,1.177,1.177,0,0,0,.6.23c.042,0,.1-.005.12-.047s-.005-.078-.063-.152a2.21,2.21,0,0,0,.8.288c.126,0,.2-.031.236-.084a.15.15,0,0,0-.021-.151c0-.006-.011-.006-.016-.011a5.31,5.31,0,0,1-.548-.392,3.769,3.769,0,0,0,1.385.34.1.1,0,0,0,.089-.079c.021-.1-.11-.256-.392-.449-.006,0-.011-.006-.016-.011a1.5,1.5,0,0,0,.3.032,1.144,1.144,0,0,0,.565-.136c.006-.006.01-.006.01-.011s.016-.026.011-.042c-.011-.036-.068-.078-.131-.11a2.017,2.017,0,0,0,.617-.109c.005,0,.005-.006.011-.006a.054.054,0,0,0,.021-.052c-.01-.052-.105-.105-.215-.146h.084c.1,0,.214-.006.324-.016a1.841,1.841,0,0,0,1.234-.581c.11-.015.215-.031.314-.047A.481.481,0,0,0,45.3,12.464Zm-7.17,2.794v-.367a1.844,1.844,0,0,0,.2.194.041.041,0,0,0,.032.01.04.04,0,0,0,.026-.026,1.131,1.131,0,0,0-.078-.47c.041-.252.068-.989.073-1.266.063.1.12.209.178.319l.031.052a2.687,2.687,0,0,1,.309,1.428.036.036,0,0,0,.015.031.033.033,0,0,0,.037.006.583.583,0,0,0,.11-.084.942.942,0,0,1-.026.387.531.531,0,0,1-.178.011.8.8,0,0,0-.455.073l-.173-.1A.234.234,0,0,1,38.128,15.258Zm.12.831a.322.322,0,0,0-.084-.13.609.609,0,0,1,.084-.068A1.3,1.3,0,0,0,38.248,16.089Z" style="fill:#ee7c0a"/><path d="M44.126,11.178c-.12.031-.24.057-.36.089a.034.034,0,0,0-.027.041.036.036,0,0,0,.032.027h.01c.136-.032.267-.068.4-.105Zm.822.884A5.936,5.936,0,0,1,42.5,11.92a.036.036,0,0,0-.042.021.035.035,0,0,0,.021.042,5.86,5.86,0,0,0,1.6.209A5.792,5.792,0,0,0,45,12.119C44.984,12.1,44.968,12.083,44.948,12.062Zm.35.4c-.089.016-.183.032-.282.042h0c-.43.063-.937.11-1.528.142a1.211,1.211,0,0,0-.277-.084,8.117,8.117,0,0,1-1.621-.534c-.2-.1-.461-.256-.7-.4.073.031.152.062.241.094a1.813,1.813,0,0,0,1.365.062l.015.006a3.966,3.966,0,0,0,.476.036,1.371,1.371,0,0,0,.262-.021.042.042,0,0,0,.026-.041.046.046,0,0,0-.041-.027,2.364,2.364,0,0,1-.712-.015l-.021-.006c-.173-.088-.319-.167-.45-.235-.094-.052-.183-.1-.261-.141a3.609,3.609,0,0,0,1.663.178c.015-.011.026-.021.021-.042-.016-.058-.152-.136-.335-.215a1.035,1.035,0,0,0,.193,0c.053,0,.1,0,.152,0,.283-.005.382-.01.392-.073.011-.047-.036-.089-.177-.157-.006,0-.011,0-.016,0h.026a2.664,2.664,0,0,0,.282.015c-.02-.02-.047-.041-.073-.068a1.4,1.4,0,0,1-.2-.015,2.346,2.346,0,0,1-.329-.053,2.827,2.827,0,0,0-.345-.073c-.021-.005-.037.005-.037.026a.03.03,0,0,0,.021.037l.345.078a1.807,1.807,0,0,1,.3.116,1.031,1.031,0,0,1,.142.083,1.968,1.968,0,0,1-.33.026,1.213,1.213,0,0,0-.147.006,1.9,1.9,0,0,1-.575-.079,2.254,2.254,0,0,0-.429-.094.03.03,0,0,0-.036.026c-.006.016.01.032.026.037a3,3,0,0,1,.355.083c.021.006.048.011.063.016a2.539,2.539,0,0,1,.649.277,4.183,4.183,0,0,1-1.909-.308.036.036,0,0,0-.042.015.027.027,0,0,0,.01.042c.157.105.335.194.576.325.115.062.246.125.4.209a1.839,1.839,0,0,1-1.26-.089,2.578,2.578,0,0,1-.7-.371c.125-.006.152-.037.163-.068.015-.053-.053-.11-.2-.184.932.173.968.074.989.027s0-.11-.214-.241c.632.089.972.063,1-.084.02-.078-.068-.167-.173-.23a4.986,4.986,0,0,0,.821-.115,2.235,2.235,0,0,0,.654.167c-.032-.026-.063-.057-.089-.078a3.059,3.059,0,0,1-.45-.11c.089-.021.183-.047.262-.063a.272.272,0,0,0-.058-.052,5.237,5.237,0,0,1-1.3.183.031.031,0,0,0-.032.032.03.03,0,0,0,.021.036c.147.042.293.157.278.215-.006.031-.089.172-1.1,0a.038.038,0,0,0-.036.026.027.027,0,0,0,.015.037c.325.177.335.24.335.245s-.073.105-1.182-.12a.049.049,0,0,0-.042.026.038.038,0,0,0,.021.042h.006a1.686,1.686,0,0,1,.407.22c-.026.016-.167.052-.941-.042a.039.039,0,0,0-.041.026.038.038,0,0,0,.025.037.448.448,0,0,1,.236.141c0,.005-.048.078-.717-.026a2.077,2.077,0,0,0-.669-.7c-.042-.021-.078-.047-.116-.068a5.539,5.539,0,0,1,2.37-.141h.01c.273-.058.565-.157.848-.246a8.033,8.033,0,0,1,1.019-.277c.047-.006.1-.016.162-.026a.276.276,0,0,0-.062-.058c-.037,0-.079.016-.11.021a7.908,7.908,0,0,0-1.03.277c-.283.089-.571.183-.837.241a5.428,5.428,0,0,0-2.417.157.7.7,0,0,1-.1-.6.4.4,0,0,1,.209-.245A3.84,3.84,0,0,1,38.9,9.6a.123.123,0,0,1,.048.037.283.283,0,0,1,.02.209.036.036,0,0,0,.011.037c.01,0,.026.01.031,0a.55.55,0,0,0,.272-.272.258.258,0,0,0-.02-.22c-.137-.251-.655-.282-.77-.288-.083-.167-.381-.23-.6-.261A1.765,1.765,0,0,0,36.925,9a1.865,1.865,0,0,0-.832,1.286,4.028,4.028,0,0,0-.649-.162c-.261-.047-.564-.084-.826-.115a5,5,0,0,1-.68-.1c-.115-.042-1.113-.471-1.841-.785-.423-.183-.763-.329-.831-.356s-.1-.015-.126.006a.123.123,0,0,0-.016.136,1.414,1.414,0,0,0,.393.507l.047.042c.036.036.078.078.12.115-.539-.251-1.4-.612-1.9-.816-.152-.063-.267-.115-.33-.141-.1-.042-.235-.11-.371-.183-.387-.2-.549-.283-.607-.225-.005,0-.005.01-.01.01-.074.194.047.345.151.481a.164.164,0,0,1,.037.042,5.394,5.394,0,0,0,.408.476,2.574,2.574,0,0,0,.623.429l-.058-.026-.3-.126a3.956,3.956,0,0,1-1.14-.627c-.036-.037-.073-.079-.115-.115a1.563,1.563,0,0,0-.167-.157c-.068-.053-.194-.147-.236-.131a.059.059,0,0,0-.026.031.977.977,0,0,0,.194.639l.021.047a1.7,1.7,0,0,0,.3.4l-.335-.235c-.256-.183-.355-.251-.413-.241a.043.043,0,0,0-.021.011.058.058,0,0,0,0,.026,1.388,1.388,0,0,0,.91.983,3,3,0,0,1-.857-.465c-.027-.021-.043-.037-.069-.037a.024.024,0,0,0-.026,0,.141.141,0,0,0-.016.021c-.036.272.215.471.367.591a3.357,3.357,0,0,0,.627.414,5.872,5.872,0,0,0,1.214.413c-.136.01-.257.036-.278.1a.166.166,0,0,0,.064.126c.072.068.418.34,1.38.2a3.529,3.529,0,0,1-.727.136c-.032.005-.12.01-.126.073-.01.12.419.293.555.319a3.59,3.59,0,0,0,1.208,0,3.376,3.376,0,0,1-.6.131c-.073,0-.105.026-.11.068-.005.084.219.188.376.214a4.8,4.8,0,0,0,1.412.016c-.177.058-.339.1-.407.115-.042.011-.053.037-.053.058.011.1.335.266.565.261.042,0,.094.005.152.011a2.073,2.073,0,0,0,.523-.021c-.094.052-.131.083-.125.125,0,.021.015.037.041.053a1.019,1.019,0,0,0,.466.088,1.776,1.776,0,0,0,.355-.041c-.12.094-.1.13-.094.146a.076.076,0,0,0,.021.016,1.257,1.257,0,0,0,.34.047A1.95,1.95,0,0,0,35.1,13.2c-.11.1-.151.178-.125.235.031.073.162.089.439.052a5.316,5.316,0,0,0,.727-.2c-.173.1-.282.194-.267.257.027.083.152.345.717.345a1.148,1.148,0,0,0,.131,0,1.627,1.627,0,0,0,.423-.073l-.021.235a.03.03,0,0,0,.021.036c.011.006.026,0,.037-.015l.142-.188a7.267,7.267,0,0,0-.268,1.082.029.029,0,0,0,.016.026c.005.006.011.006.021.006h.01a1.021,1.021,0,0,0,.408-.435c-.015.142-.03.272-.052.377s-.026.194-.026.251a.039.039,0,0,0,.01.026c.011.006.016.011.021.011a.017.017,0,0,0,.011,0,.077.077,0,0,0,.031-.011c-.036.115-.115.319-.261.371a.666.666,0,0,1-.183.032c-.283.031-.754.084-.7.784a.035.035,0,0,0,.021.032.027.027,0,0,0,.036-.016.713.713,0,0,1,.136-.183,1.045,1.045,0,0,0,.581-.084.257.257,0,0,0-.026.325c-.011.141-.016.345.209.392a.039.039,0,0,0,.031-.01.044.044,0,0,0,.011-.027l-.032-.219a.443.443,0,0,0,.356-.3c.037.173.078.267.2.325a.125.125,0,0,1,.011.041c.046.136.078.236.282.236a.047.047,0,0,0,.032-.016.056.056,0,0,0,0-.036c-.027-.037-.048-.068-.064-.095-.062-.094-.083-.13-.047-.188a.465.465,0,0,0,.168-.3.139.139,0,0,0,.005-.042.53.53,0,0,0,.157.24.04.04,0,0,0,.036.006.038.038,0,0,0,.016-.032c0-.062,0-.11,0-.146a.329.329,0,0,1-.005-.1.446.446,0,0,0,.334-.1.44.44,0,0,0,.053.33.436.436,0,0,0,.1.329.186.186,0,0,0,.131.042.2.2,0,0,0,.052,0c.011,0,.021-.005.021-.016a.034.034,0,0,0,0-.031.48.48,0,0,1-.073-.262.291.291,0,0,0,.172-.115.632.632,0,0,0,.063-.465c.032-.042.053-.048.063-.048s.037.021.057.053a.515.515,0,0,1,.027.057.31.31,0,0,0,.329.225.216.216,0,0,1,0,.105.1.1,0,0,1-.068.073.034.034,0,0,0-.021.042.04.04,0,0,0,.037.026.457.457,0,0,0,.366-.309c.037-.115.021-.3-.24-.507a.091.091,0,0,1,.052-.057c.031-.011.125-.016.314.162,0,.01.015.01.031.01A.049.049,0,0,0,40.3,15.7a.28.28,0,0,0-.042-.251c-.078-.094-.235-.136-.491-.131,0,0-.006,0-.011-.01-.057-.037-.11-.068-.089-.236a.853.853,0,0,0,.439.183h.006a.041.041,0,0,0,.026-.01c0-.011.011-.021,0-.031a.912.912,0,0,0-.084-.152,1.873,1.873,0,0,1-.266-.623.912.912,0,0,1,.125.084c.126.1.256.2.413.157a.029.029,0,0,0,.021-.037c-.005-.047-.057-.1-.136-.183a1.666,1.666,0,0,1-.178-.188,1.177,1.177,0,0,0,.6.23c.042,0,.1-.005.12-.047s-.005-.078-.063-.152a2.21,2.21,0,0,0,.8.288c.126,0,.2-.031.236-.084a.15.15,0,0,0-.021-.151c0-.006-.011-.006-.016-.011a5.31,5.31,0,0,1-.548-.392,3.769,3.769,0,0,0,1.385.34.1.1,0,0,0,.089-.079c.021-.1-.11-.256-.392-.449-.006,0-.011-.006-.016-.011a1.5,1.5,0,0,0,.3.032,1.144,1.144,0,0,0,.565-.136c.006-.006.01-.006.01-.011s.016-.026.011-.042c-.011-.036-.068-.078-.131-.11a2.017,2.017,0,0,0,.617-.109c.005,0,.005-.006.011-.006a.054.054,0,0,0,.021-.052c-.01-.052-.105-.105-.215-.146h.084c.1,0,.214-.006.324-.016a1.841,1.841,0,0,0,1.234-.581c.11-.015.215-.031.314-.047A.481.481,0,0,0,45.3,12.464Zm-5.633-1c.183,0,.225-.036.236-.078s-.032-.089-.1-.131c.246.026.414.042.529.042a6.125,6.125,0,0,0,1.218.8,8.147,8.147,0,0,0,1.637.539c.252.057.293.1.3.109-.006,0-.011.006-.027.016-1.307.345-3.1-.8-3.614-1.161a.026.026,0,0,0-.041.005.029.029,0,0,0,0,.047,10,10,0,0,0,1.977,1.245c.167.089.3.162.387.209a1.951,1.951,0,0,1-1.078-.136,1.819,1.819,0,0,1-.293-.167H40.8c0-.005-.01-.01-.016-.01a19.048,19.048,0,0,1-1.579-1.266c0-.016-.016-.037-.021-.053s-.016-.036-.026-.052A3.3,3.3,0,0,0,39.665,11.46ZM33.42,13a1.1,1.1,0,0,1,.231-.146c.036-.021.073-.042.115-.068a2.352,2.352,0,0,0,.628-.388.027.027,0,0,0,0-.041.028.028,0,0,0-.041-.011c-.262.173-.471.3-.628.387a1.6,1.6,0,0,1-.774.1c-.063-.006-.11-.011-.157-.011a.8.8,0,0,1-.492-.188,3.626,3.626,0,0,0,.984-.372.034.034,0,0,0,.005-.047.042.042,0,0,0-.042-.01,3.731,3.731,0,0,1-1.956.173.638.638,0,0,1-.324-.147.3.3,0,0,1,.047,0,9.108,9.108,0,0,0,1.469-.408.036.036,0,0,0,.022-.042.034.034,0,0,0-.042-.021,4.385,4.385,0,0,1-2.056.209,1.126,1.126,0,0,1-.5-.251.2.2,0,0,1,.063-.01,7.383,7.383,0,0,0,1.653-.419.031.031,0,0,0,.021-.042.033.033,0,0,0-.042-.02c-1.5.455-2.066.162-2.2.062a.252.252,0,0,1-.084-.094.9.9,0,0,1,.45-.063h.016a2.955,2.955,0,0,0,.842-.136.035.035,0,0,0,.021-.041.029.029,0,0,0-.037-.021,3.086,3.086,0,0,1-.837.13l-.089-.021a6.458,6.458,0,0,1-1.344-.444,3.136,3.136,0,0,1-.612-.4c-.172-.136-.34-.282-.345-.476.115.105.455.419,2.694,1.114a.037.037,0,0,0,.041-.021.033.033,0,0,0-.02-.042q-.314-.117-.6-.219c-1.171-.429-1.882-.691-2.045-1.36a3.773,3.773,0,0,1,.325.22,4.059,4.059,0,0,0,.575.366c.052.015.152.057.278.11.209.1.428.183.642.266h.011c.031.016.063.026.1.042a13.722,13.722,0,0,0,1.533.544.029.029,0,0,0,.036-.021.035.035,0,0,0-.02-.042c-.126-.042-.252-.089-.377-.13-.377-.131-.769-.272-1.151-.414-.25-.1-.486-.2-.674-.277-.027-.01-.047-.021-.074-.031a2.932,2.932,0,0,1-.324-.178,1.3,1.3,0,0,1-.424-.492L27.892,9.1a1.044,1.044,0,0,1-.193-.56,1.006,1.006,0,0,1,.162.105,1.468,1.468,0,0,1,.162.152c.042.042.078.078.12.115a4.02,4.02,0,0,0,1.156.643c.1.037.2.084.3.126l.063.026c.4.178.821.361,1.25.5a.807.807,0,0,0,.131.042.033.033,0,1,0,.021-.063c-.455-.188-.9-.376-1.323-.591a2.511,2.511,0,0,1-.628-.429,4.65,4.65,0,0,1-.4-.471c-.01-.01-.021-.026-.036-.041-.095-.121-.2-.252-.142-.4a2.537,2.537,0,0,1,.529.24c.136.068.272.142.371.183.063.027.178.074.329.142.586.24,1.679.695,2.155.936a2.061,2.061,0,0,0,.361.2.789.789,0,0,1-.643.136.027.027,0,0,0-.032.01.033.033,0,0,0,0,.037.247.247,0,0,0,.011.031c.036.105.1.3.8.168a1.707,1.707,0,0,1-.544.319.028.028,0,0,0-.026.026.03.03,0,0,0,.021.037,2.48,2.48,0,0,0,.868.151,3.235,3.235,0,0,1-.371.325.034.034,0,0,0-.016.041.043.043,0,0,0,.032.021c.3,0,.5,0,.654-.015-.163.1-.278.188-.293.193a.047.047,0,0,0-.016.037.033.033,0,0,0,.031.026,3.1,3.1,0,0,0,1.172-.11,3.945,3.945,0,0,1-.675.345h-.005a.005.005,0,0,0,0,.006c-.006,0-.006,0-.006,0h-.005c0,.005,0,.005-.005.01v.016c0,.005,0,.005.005.01h0a.011.011,0,0,0,.011.011.979.979,0,0,0,.559.136,2.333,2.333,0,0,0,.445-.047,2.712,2.712,0,0,0,.565-.162c-.215.157-.513.371-.575.408a.078.078,0,0,0-.037.094c.021.057.13.089.293.089a2.289,2.289,0,0,0,1.595-.712.914.914,0,0,0,.2.215l-.126.152a1.013,1.013,0,0,0-.11.1h-.005a17.865,17.865,0,0,1-1.632.9A1.358,1.358,0,0,1,33.42,13Zm-.292-2.568a.08.08,0,0,0,.031.015c-.125.131-.251.257-.356.361a2.579,2.579,0,0,1-.821-.11,2.024,2.024,0,0,0,.565-.392.025.025,0,0,0,0-.036.029.029,0,0,0-.036-.011c-.707.152-.8.005-.832-.089a.781.781,0,0,0,.664-.183,5.075,5.075,0,0,0,1.041.3.965.965,0,0,1-.236.089c-.015,0-.031.005-.031.021A.033.033,0,0,0,33.128,10.43Zm.094.047a1.646,1.646,0,0,0,.821.11c-.1.1-.141.136-.152.146a8.374,8.374,0,0,0-.748.445c-.141.01-.34.01-.659.015.079-.068.2-.177.356-.329C32.955,10.749,33.086,10.618,33.222,10.477Zm2.834,1.056a2.34,2.34,0,0,1-1.223.68c-.439.074-.565,0-.571-.015s0-.006.016-.011c.094-.068.785-.559.816-.586a2.508,2.508,0,0,0,.884-.659A.927.927,0,0,0,36.056,11.533Zm.659,2.281c-.627.037-.752-.22-.779-.3a2.673,2.673,0,0,1,.738-.434.029.029,0,0,0,.015-.037.031.031,0,0,0-.042-.021,7.524,7.524,0,0,1-1.244.392c-.319.048-.361,0-.366-.015s-.016-.073.251-.283a3.586,3.586,0,0,0,.606-.35.032.032,0,0,0,.006-.042.03.03,0,0,0-.048-.005,2.4,2.4,0,0,1-1.663.486,1.541,1.541,0,0,1,.257-.178,15.258,15.258,0,0,0,1.438-.779c-.094.105-.162.2-.141.262a.063.063,0,0,0,.057.047,1.55,1.55,0,0,0,.837-.251,1.7,1.7,0,0,1,.581,1.3C37.218,13.694,37.212,13.772,36.715,13.814Zm.785,1.313c.005-.052.016-.115.026-.188.021-.147.052-.335.068-.544v-.006a3.4,3.4,0,0,0,0-.476c0-.021-.015-.031-.036-.031s-.031.016-.031.037a3.331,3.331,0,0,1-.006.46,1.329,1.329,0,0,1-.4.518,9.679,9.679,0,0,1,.319-1.188.04.04,0,0,0-.016-.041.037.037,0,0,0-.042.01l-.193.251.015-.162a.177.177,0,0,0,.073-.162,2.073,2.073,0,0,0-.141-.722.974.974,0,0,1,.084-.361,1.543,1.543,0,0,0,.628.35.806.806,0,0,1,.465.361c0,.115-.031,1.088-.078,1.36,0,.006,0,.011,0,.011a1.59,1.59,0,0,1,.078.392.949.949,0,0,1-.361-.518l-.005-.026c0-.01-.016-.021-.031-.021a.042.042,0,0,0-.031.021,1.615,1.615,0,0,1-.356.638,0,0,0,0,1-.005.005A.244.244,0,0,1,37.5,15.127Zm1.417.036a.033.033,0,0,0,.037.006.583.583,0,0,0,.11-.084.942.942,0,0,1-.026.387.531.531,0,0,1-.178.011.8.8,0,0,0-.455.073l-.173-.1a.234.234,0,0,1-.1-.193v-.367a1.844,1.844,0,0,0,.2.194.041.041,0,0,0,.032.01.04.04,0,0,0,.026-.026,1.131,1.131,0,0,0-.078-.47c.041-.252.068-.989.073-1.266.063.1.12.209.178.319l.031.052a2.687,2.687,0,0,1,.309,1.428A.036.036,0,0,0,38.917,15.163Zm-.669.926a.322.322,0,0,0-.084-.13.609.609,0,0,1,.084-.068A1.3,1.3,0,0,0,38.248,16.089Zm.016-.3c0,.01-.006.016-.006.026a.427.427,0,0,0-.167.131.033.033,0,0,0,0,.047.294.294,0,0,1,.11.261.425.425,0,0,1-.141.257.011.011,0,0,0-.01.01c-.074.1-.022.173.036.262a.218.218,0,0,0,.026.042c-.094-.016-.114-.068-.157-.183a.424.424,0,0,0-.016-.053c-.005-.01-.01-.021-.02-.021-.136-.057-.152-.151-.2-.413l-.011-.047a.038.038,0,0,0-.036-.026.034.034,0,0,0-.032.031.394.394,0,0,1-.355.424c-.011.005-.021.005-.026.016a.022.022,0,0,0-.006.026l.026.2c-.119-.053-.119-.168-.115-.32a.036.036,0,0,0,0-.02c-.069-.105-.058-.2.182-.45a.033.033,0,0,0-.047-.047.9.9,0,0,1-.732.214h-.016c-.015,0-.042-.005-.13.126,0-.539.371-.581.648-.607a.932.932,0,0,0,.2-.037c.219-.083.3-.429.319-.5a1.571,1.571,0,0,0,.335-.559.691.691,0,0,0,.136.235v.445a.289.289,0,0,0,.141.251l.151.089A.3.3,0,0,0,38.264,15.786Zm1.459-.424c.005.005.01.011.015.011a.028.028,0,0,0,.021.005c.231,0,.382.031.445.11a.167.167,0,0,1,.036.136c-.162-.147-.271-.152-.329-.131a.149.149,0,0,0-.1.126.024.024,0,0,0,.01.031c.194.152.277.3.235.45a.381.381,0,0,1-.193.219c0-.01.005-.015.005-.02a.2.2,0,0,0-.031-.178.037.037,0,0,0-.026-.011c-.178.021-.231-.083-.283-.188a.532.532,0,0,1-.026-.058.15.15,0,0,0-.11-.089c-.057-.005-.1.048-.131.084a.061.061,0,0,0,0,.026.55.55,0,0,1-.053.429.242.242,0,0,1-.152.1.029.029,0,0,0-.031.026.512.512,0,0,0,.057.282A.132.132,0,0,1,39,16.691a.417.417,0,0,1-.073-.283c0-.01,0-.015-.006-.021a.453.453,0,0,1,0-.449.041.041,0,0,0-.02-.047.031.031,0,0,0-.042.02.392.392,0,0,1-.4.21.008.008,0,0,0-.015,0c-.053.015-.048.057-.037.167v.052a.655.655,0,0,1-.079-.544c.042-.261.325-.256.529-.251.12.006.193.006.23-.031.073-.094.042-.408.031-.5a1,1,0,0,0,.173-.439,1.806,1.806,0,0,0,.314.444C39.572,15.247,39.634,15.31,39.723,15.362Zm.444-.858c.042.047.084.089.1.115a.5.5,0,0,1-.319-.151.836.836,0,0,0-.168-.115.048.048,0,0,0-.026-.006c-.01.006-.021.016-.021.021-.057.173.136.5.262.722.021.032.036.058.052.084-.35-.079-.491-.246-.753-.717a.027.027,0,0,0-.037-.015c-.015,0-.026.01-.026.026a1,1,0,0,1-.172.518.439.439,0,0,1-.084.083,2.933,2.933,0,0,0-.329-1.4l-.032-.053a4.6,4.6,0,0,0-.235-.413,0,0,0,0,1-.005-.005.924.924,0,0,0-.508-.4,1.555,1.555,0,0,1-.633-.36.036.036,0,0,0-.031-.011.025.025,0,0,0-.021.016,1.37,1.37,0,0,0-.1.3,1.4,1.4,0,0,0-.429-.512.04.04,0,0,0-.037,0,1.436,1.436,0,0,1-.81.251h-.005c-.016-.047.167-.267.4-.476v-.006l.157-.177a.044.044,0,0,0,0-.027c0-.01,0-.015-.015-.021a.64.64,0,0,1-.231-.251.027.027,0,0,0-.01-.021,1.083,1.083,0,0,1,.042-.936.029.029,0,0,0-.016-.042.036.036,0,0,0-.047.016,2.232,2.232,0,0,0-.078.23,2.868,2.868,0,0,1-1.778,1.036,1.465,1.465,0,0,1-.9-.042,5.51,5.51,0,0,0,.993-.565.9.9,0,0,0,.178-.12.049.049,0,0,0,.006-.047.04.04,0,0,0-.048-.006c-.057.037-.109.079-.167.116a2.669,2.669,0,0,1-1.443.292,11.549,11.549,0,0,1,1.051-.643,1.17,1.17,0,0,0,.8-.047c-.1.157-.115.209-.115.225a.036.036,0,0,0,.031.037h.3a.036.036,0,0,0,.036-.037.034.034,0,0,0-.036-.031h-.252a1.357,1.357,0,0,1,.168-.262.033.033,0,0,0,0-.042.032.032,0,0,0-.042-.005,1.125,1.125,0,0,1-.816.11c.031-.032.094-.089.193-.189a.03.03,0,0,0,.006-.041.032.032,0,0,0-.037-.016,1.536,1.536,0,0,1-.884-.084,0,0,0,0,0-.005-.005c.1-.037.235-.105.257-.115a.042.042,0,0,0,.015-.037c0-.01-.015-.021-.026-.026A5.6,5.6,0,0,1,32.3,9.9a2.48,2.48,0,0,1-.7-.491l-.042-.042a1.543,1.543,0,0,1-.377-.476c-.01-.047-.005-.068,0-.073a.093.093,0,0,1,.058.01c.063.026.4.173.826.351.769.334,1.726.748,1.846.789a4.55,4.55,0,0,0,.691.105c.261.031.565.068.832.11a3.3,3.3,0,0,1,.653.178.019.019,0,0,0,.016.005l0,0h.006c.088.037.125.058.13.058a.028.028,0,0,0,.042-.011.028.028,0,0,0-.011-.042.461.461,0,0,0-.125-.068,1.847,1.847,0,0,1,.8-1.255,1.7,1.7,0,0,1,.925-.146c.121.021.5.073.56.24a.033.033,0,0,0,.031.026c.006,0,.6.006.733.257a.18.18,0,0,1,.015.162.438.438,0,0,1-.177.2A.29.29,0,0,0,39,9.6a.215.215,0,0,0-.167-.089c-.1-.005-.372-.021-.419-.1a.029.029,0,0,0-.042-.011.034.034,0,0,0-.01.047c.031.058.115.1.277.115a1.775,1.775,0,0,0-.271.053.485.485,0,0,0-.252.282.722.722,0,0,0,.037.513,1.483,1.483,0,0,1-.194-.272.037.037,0,0,0-.042-.016.032.032,0,0,0-.015.047,1.367,1.367,0,0,0,.35.424,1.707,1.707,0,0,0,.157.1,2.078,2.078,0,0,1,.711.8,3.928,3.928,0,0,1,.157,1.035.034.034,0,1,0,.068,0,6.547,6.547,0,0,0-.11-.884,17.52,17.52,0,0,0,1.527,1.214c.194.193.388.376.6.575a.347.347,0,0,1,.068.073.168.168,0,0,1-.078.011.68.68,0,0,1-.236-.037,2.8,2.8,0,0,1-.455-.194c-.047-.026-.094-.047-.141-.073a2.124,2.124,0,0,1-.576-.434c-.1-.131-.235-.261-.24-.272s-.032-.016-.047,0a.033.033,0,0,0-.006.047c.011.011.11.131.252.272a.583.583,0,0,1,.078.12,1.959,1.959,0,0,0,.209.252,1.641,1.641,0,0,1,.273.345c-.513.089-1.408-.8-1.418-.811a.04.04,0,0,0-.047,0,.038.038,0,0,0,0,.047c.015.016.157.157.355.319a1.444,1.444,0,0,1,.267.492,2.629,2.629,0,0,0,.131.345A1.753,1.753,0,0,0,40.167,14.5Zm2.386-.308a.038.038,0,0,1-.037.026,3.222,3.222,0,0,1-1.669-.544.033.033,0,1,0-.047.047,4.539,4.539,0,0,0,.847.67c.017.026.032.057.017.078s-.038.047-.174.047a2.35,2.35,0,0,1-1.082-.492.034.034,0,0,0-.047,0,.037.037,0,0,0,0,.047l.005.006a1.548,1.548,0,0,1,.329.345.323.323,0,0,1-.057,0,1.158,1.158,0,0,1-.753-.382h0c-.027-.047-.047-.094-.074-.146-.062-.152-.1-.256-.125-.34a1.3,1.3,0,0,0-.157-.34,1.7,1.7,0,0,0,.868.387.987.987,0,0,0,.121-.01.046.046,0,0,0,.02-.037c0-.089-.12-.225-.3-.419-.026-.031-.057-.062-.083-.094a1.564,1.564,0,0,0,.334.22c.047.021.094.047.147.073a3.254,3.254,0,0,0,.46.194.807.807,0,0,0,.261.042c.063-.006.126-.016.136-.058s-.026-.089-.083-.146c-.141-.131-.277-.257-.408-.387.026.01.047.026.073.036.069.026.136.047.2.068a7.92,7.92,0,0,0,.911.727C42.557,14.07,42.557,14.175,42.553,14.2Zm.465-.6a1.381,1.381,0,0,1-.957.052c-.272-.2-.513-.4-.644-.518.09.021.173.031.247.042l.01.01a2.911,2.911,0,0,0,1.129.293A.91.91,0,0,1,43.018,13.6Zm.779-.513a3.841,3.841,0,0,1-1.5-.167.029.029,0,0,0-.042.015.043.043,0,0,0,.021.047,3.9,3.9,0,0,0,.9.178c.005,0,.01,0,.015.011a1.231,1.231,0,0,1,.34.146,2.468,2.468,0,0,1-1.694-.131.169.169,0,0,0,.057.006,1.653,1.653,0,0,0,.377-.042c.01-.006.021-.016.021-.026a.032.032,0,0,0-.011-.037c-.062-.042-.23-.131-.465-.256-.4-.215-.973-.523-1.412-.811a5.49,5.49,0,0,0,2.536.863,2.064,2.064,0,0,0,.544-.068c.006,0,.006,0,.011,0s.068-.042.057-.084a.022.022,0,0,0,0-.016c.528-.031.983-.073,1.381-.125A1.835,1.835,0,0,1,43.8,13.087Z"/><path d="M38.358,12.548c-.047-.042-.084-.078-.11-.1a.439.439,0,0,1-.1-.283.029.029,0,0,0-.031-.037.03.03,0,0,0-.031.032.481.481,0,0,0,.11.335c.031.026.073.068.12.109.157.142.392.351.419.539a.03.03,0,0,0,.031.032h.005c.021-.006.031-.021.026-.037C38.771,12.92,38.526,12.7,38.358,12.548Z"/><path d="M37.95,9.059c-.084-.073-.261-.01-.434.053a.759.759,0,0,1-.2.062.023.023,0,0,0-.021.021.039.039,0,0,0,.005.037,1.36,1.36,0,0,0,.445.084.3.3,0,0,0,.1-.011c.114-.047.14-.1.146-.136A.118.118,0,0,0,37.95,9.059Zm-.126.178a.9.9,0,0,1-.382-.026c.032-.01.063-.026.1-.037.136-.047.308-.109.366-.062a.049.049,0,0,1,.016.047C37.924,9.185,37.882,9.216,37.824,9.237Z"/></svg>