<svg xmlns="http://www.w3.org/2000/svg" viewBox="0 0 55 55"><path d="M49.472 35.267a22.994 22.994 0 0 1-1.8 3.88 23.4 23.4 0 0 1-12.4 10.319 23.278 23.278 0 0 1-15.534 0 23.381 23.381 0 0 1-14.2-14.2zM49.472 19.733H5.534a23.161 23.161 0 0 1 1.794-3.886A23.46 23.46 0 0 1 19.733 5.528a23.377 23.377 0 0 1 15.534 0 23.423 23.423 0 0 1 12.4 10.319 22.873 22.873 0 0 1 1.805 3.886z" style="fill:#fff"/><path d="M35.267 5.528v43.938a23.278 23.278 0 0 1-15.534 0V5.528a23.377 23.377 0 0 1 15.534 0z" style="fill:#db171d"/><path d="M50.8 27.5a23.333 23.333 0 0 1-1.328 7.767H5.534a23.278 23.278 0 0 1 0-15.534h43.938A23.289 23.289 0 0 1 50.8 27.5z" style="fill:#062a85"/><path style="fill:#fff" d="m17.124 25.617.465 1.438h1.506l-1.218.884.465 1.439-1.218-.89-1.224.89.47-1.439-1.223-.884h1.511l.466-1.438zM37.882 25.617l.465 1.438h1.512l-1.224.884.466 1.439-1.219-.89-1.219.89.466-1.439-1.224-.884h1.511l.466-1.438zM23.787 20.445l.465 1.433h1.512l-1.224.889.465 1.433-1.218-.889-1.219.889.466-1.433-1.224-.889h1.511l.466-1.433zM31.219 20.445l.465 1.433h1.507l-1.219.889.465 1.433-1.218-.889-1.224.889.465-1.433-1.218-.889h1.511l.466-1.433zM23.787 30.795l.465 1.433h1.512l-1.224.889.465 1.433-1.218-.884-1.219.884.466-1.433-1.224-.889h1.511l.466-1.433zM31.219 30.795l.465 1.433h1.507l-1.219.889.465 1.433-1.218-.884-1.224.884.465-1.433-1.218-.889h1.511l.466-1.433z"/></svg>