<svg xmlns="http://www.w3.org/2000/svg" viewBox="0 0 55 55"><path d="M50.8 27.5a23.3 23.3 0 1 1-46.6 0z" style="fill:#1e1815"/><path d="M50.8 27.5H4.2a23.295 23.295 0 0 1 43.472-11.647A23.133 23.133 0 0 1 50.8 27.5z" style="fill:#d7241b"/><path style="fill:#f6d324" d="m26.522 16.82.931 2.856h3.002l-2.432 1.768.931 2.855-2.432-1.768-2.427 1.768.926-2.855-2.427-1.768h3.002l.926-2.856zM25.3 29.77a.083.083 0 0 1-.016-.115.084.084 0 0 1 .116-.016l10.379 7.981c.089-.094.141-.157.141-.157l-.12-.094c-.517-.4-1.03-.8-1.548-1.2l-2.7-2.087q-1.5-1.152-3-2.316c-.815-.639-1.637-1.271-2.452-1.9-.361-.277-.722-.56-1.072-.848a20.029 20.029 0 0 1-1.978-1.8 4.889 4.889 0 0 1-.784-.952 9.016 9.016 0 0 1-.554-1.14 13.12 13.12 0 0 0-.56 1.308 3.7 3.7 0 0 0-.1 1.516c.23 1.648 1.584 2.861 2.9 3.735 4.916 3.111 10.821 7.113 10.821 7.113l.9-1.041zM40.036 40.8c-.177-.178-3.87-3.1-3.87-3.1l-.946 1.166 3.07 2.364s.288.905.941.947a.885.885 0 0 0 .941-.607.831.831 0 0 0-.136-.77zm-2.913-1.538a.149.149 0 1 1 0-.3.149.149 0 0 1 0 .3zm.743.576a.152.152 0 1 1 .152-.152.152.152 0 0 1-.152.147zm.706.549a.15.15 0 0 1-.151-.147.149.149 0 1 1 .3 0 .15.15 0 0 1-.149.142zM23.609 35.549a10.541 10.541 0 0 1-5.654-2.2l-1.041 1.308c.314.246.633.476.968.69l-.445 1.125 1.815.931.659-1.015a12.393 12.393 0 0 0 2.432.69l.022 1.214 2.028.167.221-1.2a12.045 12.045 0 0 0 2.51-.287l.481 1.114 1.94-.628-.256-1.182c.219-.094.434-.193.643-.3l-1.674-1.088a10.478 10.478 0 0 1-4.649.661z"/><path d="m37.751 27.113.167-2.035-1.2-.214a11.768 11.768 0 0 0-.288-2.51l1.114-.487-.628-1.94-1.182.256a12.418 12.418 0 0 0-1.229-2.207l.842-.873-1.318-1.554-1 .691a12.275 12.275 0 0 0-1.983-1.569l.445-1.13-1.809-.931-.66 1.02a12.22 12.22 0 0 0-1.961-.6l-.324 1.643a10.579 10.579 0 0 1 4.456 18.5l2.228 1.82.5-.423-.7-.994a12.028 12.028 0 0 0 1.574-1.982l1.13.444.931-1.814-1.02-.654a12.153 12.153 0 0 0 .691-2.432z" style="fill:#f6d324"/></svg>