<svg xmlns="http://www.w3.org/2000/svg" viewBox="0 0 55 55"><path d="M50.8 27.5a23.141 23.141 0 0 1-1.334 7.767H5.528a23.377 23.377 0 0 1 0-15.534h43.938A23.141 23.141 0 0 1 50.8 27.5z" style="fill:#fff"/><path d="M49.466 19.733H5.528a23.308 23.308 0 0 1 43.938 0zM49.466 35.267a23.314 23.314 0 0 1-43.938 0z" style="fill:#74abde"/><path d="m29.278 23.206-.837 1.81a2.136 2.136 0 0 0-.13-.047l1.595-3.4a.039.039 0 0 1 .057-.021.046.046 0 0 1 .027.058l-1.282 3.53a.834.834 0 0 0-.12-.058zM27.918 24.88a4.356 4.356 0 0 1 .22-1.449 2.148 2.148 0 0 1 .11-.22 2.227 2.227 0 0 0 .105-.219 2.25 2.25 0 0 0 .146-.549 1.455 1.455 0 0 0 .01-.309 1.938 1.938 0 0 1 0-.241.886.886 0 0 1 .105-.35.623.623 0 0 1 .215-.241h-.006a.565.565 0 0 1-.073.136.686.686 0 0 0-.11.241 1.713 1.713 0 0 0 .026.434 2.7 2.7 0 0 1 .042.366 3.1 3.1 0 0 1-.245.905 2.784 2.784 0 0 0-.184.779 3.445 3.445 0 0 0-.021.4 1.143 1.143 0 0 1-.057.371c-.026-.005-.058-.015-.089-.021a1.5 1.5 0 0 0 .021-.188c.01-.089.016-.188.021-.3s0-.225 0-.34a1.723 1.723 0 0 1 .047-.335 2.6 2.6 0 0 1 .079-.287c.031-.079.057-.147.073-.194a.362.362 0 0 0 .026-.073l-.031.068c-.021.047-.047.115-.084.193s-.068.178-.1.283a3.049 3.049 0 0 0-.068.34c-.015.115-.015.235-.026.34s-.021.209-.031.293c-.011.068-.026.13-.031.177a.625.625 0 0 0-.09-.01zM27.28 24.854l.173-3.756c0-.036.037-.041.047-.041a.04.04 0 0 1 .042.041l.172 3.756c-.047-.006-.088-.006-.136-.011l-.078-1.987-.078 1.987c-.048.005-.095.005-.142.011zM26.381 22.155a1.888 1.888 0 0 1-.094-.22.865.865 0 0 1-.037-.366.589.589 0 0 1 .105-.3.784.784 0 0 1-.021.151.921.921 0 0 0-.011.267 1.76 1.76 0 0 0 .194.392 2.386 2.386 0 0 1 .178.325 3.114 3.114 0 0 1 .12.925 2.8 2.8 0 0 0 .125.79c.042.126.084.251.136.382a1.3 1.3 0 0 1 .095.366l-.095.016a1.777 1.777 0 0 0-.047-.183c-.026-.084-.062-.183-.1-.283s-.088-.209-.126-.319a2.059 2.059 0 0 1-.083-.324 2.088 2.088 0 0 1-.036-.3c-.006-.084-.006-.157-.011-.209a2.137 2.137 0 0 0-.006.214c0 .084.006.188.017.3a1.53 1.53 0 0 0 .067.335c.026.115.073.225.105.329s.057.2.078.283c.016.068.032.125.042.172-.031.006-.063.016-.094.021a4.166 4.166 0 0 1-.345-1.422 1.8 1.8 0 0 1 .01-.241 1.848 1.848 0 0 0 .016-.246 2.251 2.251 0 0 0-.073-.559 1.826 1.826 0 0 0-.109-.296zM25.722 23.206l.69 1.872a1.396 1.396 0 0 0-.125.058l-1.276-3.53a.042.042 0 0 1 .026-.058c.005 0 .036-.016.057.021l1.591 3.4-.132.047zM25.513 24.655c.073.094.151.183.219.261a2.76 2.76 0 0 1 .183.23l.105.147c-.026.021-.052.037-.079.057a4.242 4.242 0 0 1-.863-1.182 2.958 2.958 0 0 1-.083-.23 1.641 1.641 0 0 0-.079-.23 2.152 2.152 0 0 0-.282-.491 1.7 1.7 0 0 0-.215-.225 1.809 1.809 0 0 1-.167-.173.784.784 0 0 1-.172-.319.57.57 0 0 1-.021-.319c.015.047.026.094.041.146a.664.664 0 0 0 .089.251 1.65 1.65 0 0 0 .33.283 3.228 3.228 0 0 1 .283.235 2.973 2.973 0 0 1 .47.811 2.639 2.639 0 0 0 .419.68c.083.1.172.2.271.3a1.216 1.216 0 0 1 .225.3v.006a.6.6 0 0 0-.078.047 1.937 1.937 0 0 0-.12-.152 2.479 2.479 0 0 0-.2-.225c-.079-.078-.162-.157-.236-.246a1.93 1.93 0 0 1-.2-.267c-.057-.094-.1-.183-.141-.256s-.068-.146-.089-.193a.336.336 0 0 1-.031-.074.27.27 0 0 0 .027.074 2.032 2.032 0 0 0 .078.2 2.284 2.284 0 0 0 .125.267 2.074 2.074 0 0 0 .191.287zM24.216 24.216l1.354 1.464a1.528 1.528 0 0 0-.094.1l-2.531-2.772a.043.043 0 0 1 0-.062.039.039 0 0 1 .062-.006l2.778 2.537a1.654 1.654 0 0 0-.105.094zM23.823 25.167a1.363 1.363 0 0 0-.162-.183 2.24 2.24 0 0 0-.45-.345 1.215 1.215 0 0 0-.282-.125c-.073-.032-.152-.058-.219-.095a.752.752 0 0 1-.283-.23.55.55 0 0 1-.141-.287c.031.036.062.078.094.12a.646.646 0 0 0 .178.2 1.648 1.648 0 0 0 .413.136 2.428 2.428 0 0 1 .35.1 3.135 3.135 0 0 1 .749.57 2.592 2.592 0 0 0 .648.471 2.655 2.655 0 0 0 .366.173 1.31 1.31 0 0 1 .319.193h.005l-.058.073c-.041-.02-.1-.057-.167-.088a2.586 2.586 0 0 0-.272-.131c-.1-.047-.209-.089-.308-.136a2.307 2.307 0 0 1-.293-.173 2.227 2.227 0 0 1-.23-.183c-.068-.057-.121-.11-.157-.146a.274.274 0 0 0-.047-.042.316.316 0 0 0 .047.047c.031.037.083.089.147.152a2.814 2.814 0 0 0 .219.2 2.4 2.4 0 0 0 .287.194c.1.057.21.1.3.157s.183.1.256.141.115.073.152.1l-.047.079a4.29 4.29 0 0 1-1.256-.759c-.053-.057-.105-.12-.158-.183zM24.974 26.684l-3.405-1.59a.051.051 0 0 1-.021-.063.052.052 0 0 1 .058-.026l3.53 1.282c-.02.041-.037.083-.058.125l-1.867-.69 1.8.831a1.105 1.105 0 0 0-.037.131zM21.543 26.381a.628.628 0 0 1-.241-.209h.006c.042.02.083.047.13.073a.7.7 0 0 0 .241.115 1.676 1.676 0 0 0 .434-.032 2.157 2.157 0 0 1 .366-.036 2.882 2.882 0 0 1 .905.24 2.781 2.781 0 0 0 .779.189c.131.01.262.015.4.015a1.3 1.3 0 0 1 .371.058c-.005.031-.015.057-.021.089-.047 0-.109-.016-.188-.021a2.38 2.38 0 0 0-.3-.016h-.34a2.179 2.179 0 0 1-.334-.052 2.376 2.376 0 0 1-.283-.079 1.915 1.915 0 0 1-.2-.073.319.319 0 0 0-.068-.021.424.424 0 0 1 .063.026c.047.021.115.053.193.084s.178.068.283.1a2.132 2.132 0 0 0 .34.068c.115.016.235.021.34.026s.209.021.293.037.13.021.177.031c0 .032-.01.058-.015.089a4.206 4.206 0 0 1-1.449-.219 4.853 4.853 0 0 1-.22-.105 1.494 1.494 0 0 0-.219-.11 2.458 2.458 0 0 0-.544-.146 2.083 2.083 0 0 0-.314-.011 1.142 1.142 0 0 1-.241 0 .736.736 0 0 1-.344-.11zM21.1 27.453l3.75-.173a1.116 1.116 0 0 0-.006.142l-1.992.078 1.992.073a1.109 1.109 0 0 0 .006.141l-3.75-.172a.042.042 0 0 1-.047-.042.045.045 0 0 1 .047-.047zM21.271 28.64c.047 0 .094.011.146.021a.69.69 0 0 0 .272.011 1.531 1.531 0 0 0 .387-.194 2.3 2.3 0 0 1 .325-.173 2.961 2.961 0 0 1 .925-.125 2.814 2.814 0 0 0 .8-.126c.12-.036.245-.083.381-.136a1.3 1.3 0 0 1 .361-.094l.016.094c-.047.011-.11.032-.183.053s-.183.057-.283.1-.209.089-.319.126a2.526 2.526 0 0 1-.324.083 4.05 4.05 0 0 1-.507.042h-.079a.565.565 0 0 0 .079 0c.052 0 .126.006.214.006s.188-.006.3-.021a1.974 1.974 0 0 0 .335-.063c.115-.031.225-.073.329-.11s.2-.057.283-.078c.068-.016.125-.027.172-.037.006.031.016.058.021.089a4.168 4.168 0 0 1-1.417.35 2.03 2.03 0 0 1-.246-.015l-.246-.016a2.513 2.513 0 0 0-.559.073 1.784 1.784 0 0 0-.293.115 1.843 1.843 0 0 1-.22.089.806.806 0 0 1-.366.037.589.589 0 0 1-.3-.105zM21.606 29.99a.046.046 0 0 1-.058-.027.039.039 0 0 1 .021-.057l3.405-1.595a.825.825 0 0 0 .042.13l-1.8.832 1.867-.69c.021.041.038.083.058.125zM23.1 30.193a3.009 3.009 0 0 1 .811-.465 2.812 2.812 0 0 0 .68-.424 2.751 2.751 0 0 0 .3-.272 1.207 1.207 0 0 1 .3-.219h.006c.015.026.031.057.047.083-.042.026-.089.068-.152.115s-.141.126-.225.2-.157.162-.241.235a1.771 1.771 0 0 1-.272.2c-.088.058-.177.105-.256.147l-.193.089a.268.268 0 0 1-.068.026c.01 0 .036-.011.073-.021s.115-.047.193-.079.173-.078.272-.13a2.445 2.445 0 0 0 .283-.189c.094-.073.183-.156.261-.224s.162-.131.23-.184.11-.073.152-.1c.016.021.032.047.052.073a4.339 4.339 0 0 1-1.182.869 2.378 2.378 0 0 1-.23.078c-.073.026-.151.047-.23.078a2.874 2.874 0 0 0-.491.283 1.463 1.463 0 0 0-.225.22c-.053.057-.11.115-.168.167a.929.929 0 0 1-.323.172.657.657 0 0 1-.325.021h.005a.644.644 0 0 1 .146-.041.747.747 0 0 0 .251-.095 1.581 1.581 0 0 0 .289-.324 2.452 2.452 0 0 1 .23-.289zM24.216 30.779l1.464-1.349a.822.822 0 0 0 .105.089l-2.778 2.536a.044.044 0 0 1-.062-.062l2.531-2.778c.031.037.063.068.094.105zM26.109 29.759a4.188 4.188 0 0 1-.759 1.25 1.916 1.916 0 0 1-.182.163c-.063.052-.126.1-.184.162a2.7 2.7 0 0 0-.345.449 1.764 1.764 0 0 0-.125.288 1.9 1.9 0 0 1-.095.22.845.845 0 0 1-.23.282.6.6 0 0 1-.287.141 1.132 1.132 0 0 1 .12-.094.735.735 0 0 0 .2-.183 1.579 1.579 0 0 0 .136-.413 2.638 2.638 0 0 1 .1-.35 3.1 3.1 0 0 1 .57-.743 2.713 2.713 0 0 0 .471-.649 3.442 3.442 0 0 0 .173-.366 1.368 1.368 0 0 1 .193-.324.776.776 0 0 1 .073.058c-.02.041-.052.094-.088.162s-.089.172-.131.272-.083.209-.136.313a2.5 2.5 0 0 1-.173.288c-.063.089-.125.167-.183.235s-.11.116-.141.152a.34.34 0 0 0-.052.058.453.453 0 0 1 .052-.053c.037-.036.094-.083.152-.146a2.7 2.7 0 0 0 .392-.507c.058-.105.11-.21.157-.309a2.779 2.779 0 0 1 .146-.256c.037-.063.069-.11.094-.152.03.016.056.037.082.052zM25.722 31.789l.831-1.81.132.047-1.591 3.4c-.021.036-.052.026-.057.021a.04.04 0 0 1-.026-.058l1.276-3.53a1.153 1.153 0 0 0 .125.057zM26.172 33.692a.966.966 0 0 1 .073-.13.72.72 0 0 0 .115-.246 1.488 1.488 0 0 0-.032-.434 2.679 2.679 0 0 1-.036-.366 3.229 3.229 0 0 1 .24-.9 2.58 2.58 0 0 0 .189-.779c.01-.126.021-.257.021-.4a1.307 1.307 0 0 1 .052-.371c.031 0 .063.015.089.02 0 .053-.016.115-.021.189 0 .089-.016.193-.016.3v.34c0 .115-.027.225-.048.33s-.057.2-.084.287a2.037 2.037 0 0 1-.073.2.683.683 0 0 1-.026.068c0-.011.016-.037.031-.068.021-.047.053-.115.084-.194a2.034 2.034 0 0 0 .1-.282 1.731 1.731 0 0 0 .069-.335c.015-.12.02-.235.025-.345s.027-.2.037-.293c.011-.068.021-.125.031-.172l.089.015a4.083 4.083 0 0 1-.219 1.444 1.63 1.63 0 0 1-.105.219 2.306 2.306 0 0 0-.105.22 2.262 2.262 0 0 0-.151.549 1.5 1.5 0 0 0 0 .314v.235a.817.817 0 0 1-.11.351.653.653 0 0 1-.209.246zM27.453 33.9l-.173-3.755a1.337 1.337 0 0 0 .142.011l.078 1.987.078-1.987a1.226 1.226 0 0 0 .136-.011l-.172 3.755a.04.04 0 0 1-.042.042c-.01-.004-.047-.009-.047-.042zM27.918 30.5a1.315 1.315 0 0 1-.089-.366c.032-.006.059-.006.089-.011.016.047.032.11.053.178.026.084.057.183.1.288s.089.2.126.314a2.6 2.6 0 0 1 .083.329c.016.105.027.2.032.293s.01.157.01.209a.483.483 0 0 0 0 .079v-.079c0-.052.006-.125.006-.209s-.006-.194-.016-.3a2.921 2.921 0 0 0-.068-.34c-.031-.115-.073-.225-.105-.324s-.062-.2-.083-.283-.027-.131-.037-.178a.4.4 0 0 0 .089-.021 4.117 4.117 0 0 1 .351 1.423 2.185 2.185 0 0 1-.016.246c-.006.078-.016.157-.016.24a2.973 2.973 0 0 0 .073.565 1.788 1.788 0 0 0 .116.288 1.94 1.94 0 0 1 .088.22.813.813 0 0 1 .037.366.618.618 0 0 1-.1.308v-.005a.837.837 0 0 1 .016-.152.664.664 0 0 0 .011-.266 1.378 1.378 0 0 0-.194-.387 3.6 3.6 0 0 1-.172-.325 2.969 2.969 0 0 1-.126-.931 2.6 2.6 0 0 0-.126-.789 2.879 2.879 0 0 0-.132-.38zM29.906 33.426l-1.595-3.4a3.12 3.12 0 0 0 .13-.047l.837 1.81-.69-1.873a1.072 1.072 0 0 0 .125-.057l1.277 3.53a.044.044 0 0 1-.027.058.039.039 0 0 1-.057-.021zM29.032 30.105a1.211 1.211 0 0 1-.219-.3.909.909 0 0 0 .083-.047 4.817 4.817 0 0 0 .315.372c.074.079.162.157.241.246a2.235 2.235 0 0 1 .2.266 2.734 2.734 0 0 1 .147.262c.036.078.068.141.089.188a.489.489 0 0 0 .026.063.015.015 0 0 1 .005.01.015.015 0 0 0-.005-.01.436.436 0 0 0-.021-.063 4.056 4.056 0 0 1-.079-.2 2.461 2.461 0 0 0-.13-.266 2.187 2.187 0 0 0-.189-.288c-.073-.094-.151-.178-.224-.262s-.131-.162-.184-.23-.073-.11-.1-.146a.548.548 0 0 1 .073-.052 4.107 4.107 0 0 1 .869 1.176 1.682 1.682 0 0 1 .078.23c.026.079.047.157.078.231a2.694 2.694 0 0 0 .283.491 1.834 1.834 0 0 0 .22.23c.057.053.115.11.167.168a.817.817 0 0 1 .173.324.621.621 0 0 1 .02.314.618.618 0 0 1-.041-.147.779.779 0 0 0-.089-.251 1.81 1.81 0 0 0-.33-.282 3.281 3.281 0 0 1-.288-.23 2.972 2.972 0 0 1-.465-.816 2.753 2.753 0 0 0-.424-.68 3.3 3.3 0 0 0-.279-.301zM30.784 30.779 29.43 29.32c.031-.037.063-.068.089-.105l2.536 2.772a.039.039 0 0 1-.005.063.034.034 0 0 1-.057.005l-2.778-2.536c.037-.026.068-.058.105-.089zM29.916 29.32a1.219 1.219 0 0 1-.324-.193l.058-.074c.041.026.1.058.162.094s.172.084.272.131.209.084.314.136a2.1 2.1 0 0 1 .287.168c.089.062.167.13.236.188s.115.1.151.141a.611.611 0 0 1 .052.047c-.01-.01-.026-.031-.046-.052-.037-.037-.084-.089-.147-.152a2.122 2.122 0 0 0-.225-.2 2.221 2.221 0 0 0-.282-.193c-.105-.058-.21-.1-.309-.157a2.806 2.806 0 0 1-.256-.141l-.152-.1a.322.322 0 0 0 .052-.073 4.186 4.186 0 0 1 1.25.753c.058.058.11.121.163.183a2.352 2.352 0 0 0 .162.183 2.224 2.224 0 0 0 .449.346 1.419 1.419 0 0 0 .289.13 1.894 1.894 0 0 1 .219.089.87.87 0 0 1 .282.23.615.615 0 0 1 .141.288 1.244 1.244 0 0 1-.094-.12.714.714 0 0 0-.182-.194 1.426 1.426 0 0 0-.409-.141 2.027 2.027 0 0 1-.355-.105 3.052 3.052 0 0 1-.743-.57 2.776 2.776 0 0 0-.649-.47 9.233 9.233 0 0 0-.366-.172zM33.426 29.906a.039.039 0 0 1 .021.057c0 .011-.016.037-.053.027l-3.535-1.282.063-.125 1.867.69-1.809-.832c.015-.041.03-.088.046-.13zM33.452 28.614a.58.58 0 0 1 .246.214h-.005a.538.538 0 0 1-.131-.073.773.773 0 0 0-.246-.115 1.676 1.676 0 0 0-.429.031 2.776 2.776 0 0 1-.366.042 3.064 3.064 0 0 1-.91-.246 2.587 2.587 0 0 0-.774-.183 3.533 3.533 0 0 0-.408-.021 1.134 1.134 0 0 1-.366-.057c.01-.032.015-.058.026-.089.047.005.109.016.183.021.089.01.193.016.3.021s.225 0 .34 0a1.767 1.767 0 0 1 .335.047 2.5 2.5 0 0 1 .282.079c.084.031.152.057.2.073l.068.026c-.011 0-.031-.016-.068-.031s-.11-.053-.194-.084-.177-.068-.282-.1a2.336 2.336 0 0 0-.335-.068c-.12-.015-.235-.015-.345-.026a4.8 4.8 0 0 1-.465-.068c0-.026.01-.057.015-.089a4.222 4.222 0 0 1 1.444.22 1.66 1.66 0 0 1 .219.11c.074.037.147.073.22.105a2.25 2.25 0 0 0 .549.146 2.06 2.06 0 0 0 .314.01 1.842 1.842 0 0 1 .235 0 .862.862 0 0 1 .348.105zM33.9 27.453a.041.041 0 0 1 .042.047.037.037 0 0 1-.042.042l-3.75.172c0-.047.006-.094.006-.141l1.992-.073-1.992-.078c0-.048-.006-.095-.006-.142zM33.729 26.355a.865.865 0 0 1-.152-.021.762.762 0 0 0-.266-.011 1.723 1.723 0 0 0-.387.194 3.1 3.1 0 0 1-.325.178 3.19 3.19 0 0 1-.931.12 2.828 2.828 0 0 0-.789.125c-.126.037-.246.084-.382.136a1.318 1.318 0 0 1-.361.095.615.615 0 0 0-.011-.095 1.438 1.438 0 0 0 .183-.052c.084-.026.178-.057.283-.1s.209-.084.314-.121a1.512 1.512 0 0 1 .329-.083 2.094 2.094 0 0 1 .293-.037c.089-.005.157-.005.209-.01h.079a.773.773 0 0 1-.079-.006h-.209c-.089 0-.188.006-.3.016a2.022 2.022 0 0 0-.34.063c-.115.031-.225.073-.324.11s-.2.057-.283.078-.131.032-.178.037c0-.026-.01-.058-.015-.089a4.281 4.281 0 0 1 1.417-.351c.084 0 .162.011.246.016a1.759 1.759 0 0 0 .24.016 2.262 2.262 0 0 0 .565-.073 1.564 1.564 0 0 0 .293-.115c.068-.032.147-.063.22-.089a.85.85 0 0 1 .361-.037.593.593 0 0 1 .308.105zM33.389 25.005a.045.045 0 0 1 .058.026.046.046 0 0 1-.021.063l-3.4 1.59c-.016-.042-.031-.089-.046-.131l1.809-.831-1.867.69-.063-.125zM29.806 26.187l-.047-.078c.037-.032.089-.073.147-.12a2.621 2.621 0 0 0 .225-.2c.078-.079.157-.162.246-.236a1.983 1.983 0 0 1 .266-.2 2.8 2.8 0 0 1 .262-.141c.078-.042.146-.068.188-.089s.058-.026.068-.031a.3.3 0 0 0-.068.026 1.854 1.854 0 0 0-.193.079 2 2 0 0 0-.272.125 2.14 2.14 0 0 0-.288.194c-.094.068-.178.151-.262.219a2.815 2.815 0 0 1-.23.183c-.057.042-.1.079-.146.105-.016-.026-.036-.052-.052-.079a4.206 4.206 0 0 1 1.176-.863 1.638 1.638 0 0 1 .236-.081 1.888 1.888 0 0 0 .225-.079 2.208 2.208 0 0 0 .5-.282 1.7 1.7 0 0 0 .225-.215 1.763 1.763 0 0 1 .168-.167.774.774 0 0 1 .324-.172.6.6 0 0 1 .319-.027v.006a1.246 1.246 0 0 1-.146.036.773.773 0 0 0-.257.094 1.651 1.651 0 0 0-.282.33 2.437 2.437 0 0 1-.23.282 3.068 3.068 0 0 1-.816.471 2.749 2.749 0 0 0-.68.418c-.1.084-.2.173-.3.272a1.371 1.371 0 0 1-.306.22zM30.784 24.216 29.32 25.57c-.037-.031-.068-.063-.105-.094l2.772-2.531c.032-.032.058-.011.063 0a.038.038 0 0 1 .005.062l-2.536 2.772a1.945 1.945 0 0 0-.089-.1zM29.064 25.136a2.432 2.432 0 0 1-.094.152l-.079-.047a4.235 4.235 0 0 1 .759-1.256 1.465 1.465 0 0 1 .183-.162c.057-.052.12-.1.177-.162a2.455 2.455 0 0 0 .351-.45 1.908 1.908 0 0 0 .125-.282c.027-.079.058-.152.089-.22a.78.78 0 0 1 .236-.282.548.548 0 0 1 .287-.147v.006a.851.851 0 0 1-.12.094.691.691 0 0 0-.194.178 1.554 1.554 0 0 0-.141.413 2.7 2.7 0 0 1-.1.35 2.914 2.914 0 0 1-.576.743 2.741 2.741 0 0 0-.465.648c-.063.115-.12.236-.178.366a1.349 1.349 0 0 1-.188.325h-.005c-.021-.016-.048-.037-.074-.053.026-.047.058-.1.094-.167s.084-.173.131-.272.084-.209.136-.308a1.765 1.765 0 0 1 .173-.293 1.636 1.636 0 0 1 .183-.23c.057-.068.105-.121.141-.157a.521.521 0 0 1 .052-.053c-.01.006-.026.021-.057.047s-.089.089-.152.147-.131.141-.2.225a1.915 1.915 0 0 0-.193.287c-.058.1-.1.21-.152.3s-.102.187-.149.26z" style="fill:#f5b31a"/><path d="M29.906 31.156a.015.015 0 0 1 .005.01.015.015 0 0 0-.005-.01z" style="fill:#83330b"/><path d="M28.468 26.993a.617.617 0 0 1 .272.188.476.476 0 0 1-.32.146.184.184 0 0 0 .136-.177.182.182 0 0 0-.088-.157zM28.065 27.165a.414.414 0 0 1 .246-.183.182.182 0 0 0-.121.168.175.175 0 0 0 .095.156.431.431 0 0 1-.22-.141z" style="fill:#f5b31a"/><path d="M28.373 26.919a.608.608 0 0 0-.449.246.672.672 0 0 0 .952.032.752.752 0 0 0-.503-.278zm-.088.387a.431.431 0 0 1-.22-.141.434.434 0 0 1 .246-.188.183.183 0 0 0-.115.173.179.179 0 0 0 .089.156zm.135.016a.178.178 0 0 0 .136-.172.182.182 0 0 0-.088-.157.577.577 0 0 1 .272.188.45.45 0 0 1-.32.141z" style="fill:#83330b"/><path d="M27.824 27.275c0-.037.064-.047.089-.037a.508.508 0 0 1 .052.037c.016.016.037.026.053.042a.7.7 0 0 0 .826-.026.487.487 0 0 1-.491.193.928.928 0 0 1-.456-.13c-.02-.016-.078-.054-.073-.079zM27.877 27.129a.108.108 0 0 1-.079 0c-.015-.006-.042-.011-.047-.032-.005-.047.094-.047.12-.057.053-.021.079-.079.121-.115a.546.546 0 0 1 .554-.105.88.88 0 0 1 .33.188c.031.032.062.058.094.089a.243.243 0 0 1 .031.037s0 .026-.047 0a1.053 1.053 0 0 1-.089-.068 1.018 1.018 0 0 0-.084-.058.935.935 0 0 0-.387-.136.451.451 0 0 0-.2.027 1.418 1.418 0 0 0-.183.13c-.026.021-.057.037-.078.058s-.033.031-.056.042z" style="fill:#83330b"/><path d="M27.615 27.218a.8.8 0 0 0 .026.272.526.526 0 0 0 .073.172.21.21 0 0 0 .053.063c.01.01.047.037.042.052s-.011.016-.016.021a.086.086 0 0 1-.126-.036 1.192 1.192 0 0 1-.093-.7.775.775 0 0 1 .083-.325.415.415 0 0 1 .162-.151.865.865 0 0 1 .466-.126 1.041 1.041 0 0 1 .585.22.889.889 0 0 1 .251.235c-.031-.015-.062-.042-.089-.057a.8.8 0 0 0-.094-.053 1.625 1.625 0 0 0-.161-.083.945.945 0 0 0-1.042.11.3.3 0 0 0-.094.13 1.068 1.068 0 0 0-.026.256zM27.5 29.09a.357.357 0 0 0-.356.314v-.042a.356.356 0 0 1 .712 0c0 .016-.006.031-.006.042a.351.351 0 0 0-.35-.314z" style="fill:#83330b"/><path d="M27.181 28.75a.369.369 0 0 0-.194-.078v-.011a.974.974 0 0 1 .435.026.247.247 0 0 0 .152 0 .992.992 0 0 1 .439-.026v.011a.353.353 0 0 0-.194.078c-.031.026-.057.058-.094.084a.393.393 0 0 1-.225.078.408.408 0 0 1-.23-.078c-.032-.026-.058-.058-.089-.084z" style="fill:#f5b31a"/><path d="M27.04 28.217c-.136-.016-.168-.236 0-.356 0 0-.079.172.041.225s.162-.1.162-.1a.314.314 0 0 0 .524 0s.041.157.162.1.041-.225.041-.225c.163.12.132.34 0 .356-.172.02-.188-.058-.219-.142a.068.068 0 0 1-.01.021l-.017.016-.031.031a.5.5 0 0 1-.073.037.272.272 0 0 1-.11.026h-.016a.416.416 0 0 1-.125-.037.206.206 0 0 1-.1-.094c-.041.084-.057.162-.229.142zM26.987 28.661a.765.765 0 0 1 .45-.037.226.226 0 0 0 .121 0 .775.775 0 0 1 .455.037.992.992 0 0 0-.439.026.247.247 0 0 1-.152 0 .974.974 0 0 0-.435-.026z" style="fill:#83330b"/><path d="M26.987 28.672a.5.5 0 0 0-.125-.011.434.434 0 0 0 .235-.125.266.266 0 0 1 .147-.068c.11-.006.188.052.256.052s.146-.058.251-.052a.233.233 0 0 1 .146.068.447.447 0 0 0 .241.125.481.481 0 0 0-.125.011v-.011a.775.775 0 0 0-.455-.037.226.226 0 0 1-.121 0 .765.765 0 0 0-.45.037z" style="fill:#f5b31a"/><path d="M26.836 28.661h.026a.5.5 0 0 1 .125.011.369.369 0 0 1 .194.078c.031.026.057.058.089.084a.408.408 0 0 0 .23.078.393.393 0 0 0 .225-.078c.037-.026.063-.058.094-.084a.353.353 0 0 1 .194-.078.481.481 0 0 1 .125-.011h.026a.569.569 0 0 0-.345.194.431.431 0 0 1-.638 0 .569.569 0 0 0-.345-.194z" style="fill:#83330b"/><path d="M26.836 28.661a.216.216 0 0 0 .167-.12.371.371 0 0 1 .293-.188.338.338 0 0 1 .136.041c.037.021.068.042.068.042a.451.451 0 0 1 .2-.083.377.377 0 0 1 .293.188.216.216 0 0 0 .167.12h-.026a.447.447 0 0 1-.241-.125.233.233 0 0 0-.146-.068c-.105-.006-.188.052-.251.052s-.146-.058-.256-.052a.266.266 0 0 0-.147.068.434.434 0 0 1-.235.125h-.026z" style="fill:#83330b"/><path d="M26.8 27.15a.175.175 0 0 0-.119-.168.433.433 0 0 1 .25.183.431.431 0 0 1-.22.141.179.179 0 0 0 .089-.156z" style="fill:#f5b31a"/><path d="M26.647 27.484c-.381.026-.491-.193-.491-.193a.689.689 0 0 0 .821.026l.058-.042c.016-.01.031-.026.052-.037s.084 0 .089.037-.053.063-.073.079a.928.928 0 0 1-.456.13z" style="fill:#83330b"/><path d="M26.26 27.181a.617.617 0 0 1 .272-.188.182.182 0 0 0-.088.157.186.186 0 0 0 .13.177.477.477 0 0 1-.314-.146z" style="fill:#f5b31a"/><path d="M26.621 26.919a.766.766 0 0 0-.5.278.677.677 0 0 0 .957-.032.609.609 0 0 0-.457-.246zm-.361.262a.577.577 0 0 1 .272-.188.182.182 0 0 0-.088.157.18.18 0 0 0 .13.172.449.449 0 0 1-.314-.141zm.455.125a.179.179 0 0 0 .089-.156.183.183 0 0 0-.115-.173.43.43 0 0 1 .246.188.431.431 0 0 1-.22.141z" style="fill:#83330b"/><path d="M25.879 26.914a.827.827 0 0 1 .251-.235 1.039 1.039 0 0 1 .58-.22.87.87 0 0 1 .471.126.452.452 0 0 1 .162.151.785.785 0 0 1 .079.325 1.155 1.155 0 0 1-.095.7.078.078 0 0 1-.119.036.038.038 0 0 1-.022-.021c0-.015.037-.042.047-.052a.322.322 0 0 0 .053-.063.526.526 0 0 0 .073-.172 1.168 1.168 0 0 0 .026-.272 1.075 1.075 0 0 0-.031-.257.284.284 0 0 0-.089-.13.943.943 0 0 0-1.041-.11 1.538 1.538 0 0 0-.162.083.8.8 0 0 0-.094.053c-.032.016-.058.044-.089.058z" style="fill:#83330b"/><path d="M27.5 24.99A2.508 2.508 0 1 0 30 27.5a2.51 2.51 0 0 0-2.5-2.51zm.262 2.991s.041.157.162.1.052-.2.041-.225c.157.125.132.34 0 .356-.172.02-.188-.058-.219-.142 0 .006-.01.016-.01.021l-.017.016a.192.192 0 0 1-.036.031.418.418 0 0 1-.068.042.382.382 0 0 1-.11.021h-.021a.34.34 0 0 1-.12-.037.206.206 0 0 1-.1-.094c-.032.084-.048.162-.22.142-.136-.016-.168-.231-.011-.356 0 .021-.062.178.047.225s.162-.1.162-.1a.366.366 0 0 0 .262.141.38.38 0 0 0 .258-.141zm-1.883-1.067a.827.827 0 0 1 .251-.235 1.039 1.039 0 0 1 .58-.22.916.916 0 0 1 .471.126.415.415 0 0 1 .162.151.785.785 0 0 1 .079.325 1.124 1.124 0 0 1-.095.7.083.083 0 0 1-.125.036.063.063 0 0 1-.016-.021c0-.015.037-.042.047-.052a.322.322 0 0 0 .053-.063.66.66 0 0 0 .073-.172 1.2 1.2 0 0 0 .026-.272 1.075 1.075 0 0 0-.031-.257.284.284 0 0 0-.089-.13.935.935 0 0 0-1.041-.11 1.538 1.538 0 0 0-.162.083.8.8 0 0 0-.094.053c-.032.016-.058.044-.089.058zm.12.22s.026-.026.031-.037l.089-.089a.964.964 0 0 1 .33-.188.583.583 0 0 1 .559.105c.037.036.068.094.121.11.026.015.125.015.12.062 0 .021-.031.032-.047.037a.143.143 0 0 1-.079 0c-.02-.011-.031-.032-.052-.042s-.057-.037-.078-.058a1.149 1.149 0 0 0-.189-.13.43.43 0 0 0-.2-.027.909.909 0 0 0-.381.136l-.089.058a.418.418 0 0 1-.089.068C26 27.16 26 27.134 26 27.134zm.622-.215a.609.609 0 0 1 .455.246.677.677 0 0 1-.957.032.766.766 0 0 1 .502-.278zm-.465.377a.7.7 0 0 0 .821.021l.058-.042c.016-.01.031-.026.052-.037s.084 0 .089.037-.053.063-.073.079a.928.928 0 0 1-.456.13.5.5 0 0 1-.491-.184zM27.85 29.4a.351.351 0 0 0-.35-.314.347.347 0 0 0-.35.314.091.091 0 0 1-.006-.042.356.356 0 0 1 .712 0c0 .02-.006.035-.006.042zm-.031-.555a.42.42 0 0 1-.638 0 .582.582 0 0 0-.345-.188.215.215 0 0 0 .164-.121.377.377 0 0 1 .293-.183.429.429 0 0 1 .136.036l.068.047a.451.451 0 0 1 .2-.083.382.382 0 0 1 .293.183.215.215 0 0 0 .167.125.582.582 0 0 0-.338.188zm.534-1.365a.928.928 0 0 1-.456-.13c-.02-.016-.078-.053-.073-.079s.064-.047.089-.037.032.027.052.037.037.026.053.042a.7.7 0 0 0 .821-.021.48.48 0 0 1-.486.192zm-.429-.319a.608.608 0 0 1 .449-.246.752.752 0 0 1 .5.278.672.672 0 0 1-.949-.028zm1.03-.031a1.053 1.053 0 0 1-.089-.068 1.018 1.018 0 0 0-.084-.058.906.906 0 0 0-.387-.136.409.409 0 0 0-.2.027 1.149 1.149 0 0 0-.189.13c-.026.021-.057.037-.078.058s-.032.031-.052.042a.145.145 0 0 1-.079 0c-.015 0-.042-.016-.047-.037-.005-.047.094-.047.12-.062.053-.016.079-.074.115-.11a.6.6 0 0 1 .565-.105.9.9 0 0 1 .325.188c.031.032.062.058.094.089.005.011.031.032.031.037s.001.035-.045.009zm.078-.277a.8.8 0 0 0-.094-.053 1.625 1.625 0 0 0-.161-.083.935.935 0 0 0-1.042.11.3.3 0 0 0-.094.13 1.043 1.043 0 0 0-.026.257 1.193 1.193 0 0 0 .021.272.536.536 0 0 0 .078.172.361.361 0 0 0 .053.063c.01.01.047.037.042.052s-.011.016-.016.021a.086.086 0 0 1-.126-.036 1.2 1.2 0 0 1-.093-.7.858.858 0 0 1 .083-.325.415.415 0 0 1 .162-.151.9.9 0 0 1 .466-.126 1.041 1.041 0 0 1 .585.22.889.889 0 0 1 .251.235c-.031-.011-.062-.039-.089-.054z" style="fill:#f5b31a"/><path d="M26.13 27.066a.6.6 0 0 1-.089.068c-.042.026-.042 0-.042 0a.243.243 0 0 1 .031-.037c.027-.031.058-.057.089-.089a.964.964 0 0 1 .33-.188.552.552 0 0 1 .559.105c.037.036.068.094.115.115.032.01.131.01.126.057 0 .021-.031.026-.047.032a.108.108 0 0 1-.079 0c-.02-.011-.031-.032-.052-.042s-.052-.037-.078-.058a1.149 1.149 0 0 0-.189-.13.44.44 0 0 0-.2-.027.909.909 0 0 0-.381.136zM23.2 26.611z" style="fill:#83330b"/><path d="m33.9 27.338-3.379-.152h.016a4.77 4.77 0 0 1 .371-.131 2.628 2.628 0 0 1 .758-.125 3.226 3.226 0 0 0 .973-.126 3.694 3.694 0 0 0 .34-.183 1.636 1.636 0 0 1 .351-.183.632.632 0 0 1 .224.011 1.02 1.02 0 0 0 .173.02.1.1 0 0 0 .115-.078.1.1 0 0 0-.021-.094.588.588 0 0 0-.382-.152.937.937 0 0 0-.413.042 1.307 1.307 0 0 0-.23.094 1.6 1.6 0 0 1-.272.105 2.377 2.377 0 0 1-.539.073c-.072 0-.156-.01-.229-.016a2.215 2.215 0 0 0-.257-.015 3.864 3.864 0 0 0-1.2.256l3.175-1.485a.16.16 0 0 0 .073-.2.15.15 0 0 0-.193-.089l-3.185 1.15c.005 0 .01 0 .016-.01.1-.1.193-.183.292-.267a2.545 2.545 0 0 1 .654-.4 3.309 3.309 0 0 0 .842-.492 2.714 2.714 0 0 0 .246-.3 1.578 1.578 0 0 1 .256-.3.7.7 0 0 1 .214-.079 1.031 1.031 0 0 0 .168-.042.124.124 0 0 0 .078-.12.111.111 0 0 0-.057-.079.579.579 0 0 0-.413.006.9.9 0 0 0-.367.2c-.062.053-.12.116-.177.173a1.915 1.915 0 0 1-.21.2 2.3 2.3 0 0 1-.47.267c-.068.031-.147.052-.215.078a1.574 1.574 0 0 0-.251.084 3.862 3.862 0 0 0-1.009.7l2.369-2.594a.157.157 0 0 0-.224-.22l-2.5 2.275a.044.044 0 0 0 .006-.016c.057-.125.11-.24.172-.35a2.331 2.331 0 0 1 .445-.622 3.441 3.441 0 0 0 .6-.78 2.476 2.476 0 0 0 .11-.371 1.572 1.572 0 0 1 .125-.377.539.539 0 0 1 .168-.151 1.2 1.2 0 0 0 .131-.105.106.106 0 0 0-.053-.193.632.632 0 0 0-.382.162 1 1 0 0 0-.261.324 1.707 1.707 0 0 0-.094.23 2.462 2.462 0 0 1-.115.267 2.4 2.4 0 0 1-.335.429 1.533 1.533 0 0 1-.173.151 6.71 6.71 0 0 0-.193.173 4.035 4.035 0 0 0-.67 1.035l1.2-3.3a.157.157 0 0 0-.089-.2.158.158 0 0 0-.2.078l-1.433 3.065v-.021c.005-.141.011-.267.021-.392a2.558 2.558 0 0 1 .178-.748 3.236 3.236 0 0 0 .251-.947 1.859 1.859 0 0 0-.041-.382 1.643 1.643 0 0 1-.032-.4.617.617 0 0 1 .1-.2 1.144 1.144 0 0 0 .079-.147.11.11 0 0 0-.026-.141.1.1 0 0 0-.094-.015.6.6 0 0 0-.288.3.913.913 0 0 0-.12.392 1.751 1.751 0 0 0 0 .251 2.551 2.551 0 0 1-.006.293 2.218 2.218 0 0 1-.146.523 1.6 1.6 0 0 1-.1.209 1.583 1.583 0 0 0-.11.235 3.93 3.93 0 0 0-.225 1.2l-.157-3.5a.154.154 0 0 0-.157-.146.161.161 0 0 0-.105.036.166.166 0 0 0-.057.11l-.152 3.384v-.021a3.832 3.832 0 0 1-.13-.371 2.532 2.532 0 0 1-.121-.759 3.155 3.155 0 0 0-.131-.967 3.231 3.231 0 0 0-.183-.345 1.508 1.508 0 0 1-.183-.351.549.549 0 0 1 .016-.225c0-.052.015-.109.015-.167a.106.106 0 0 0-.073-.12.115.115 0 0 0-.1.021.635.635 0 0 0-.152.381.962.962 0 0 0 .042.419 1.848 1.848 0 0 0 .094.23 1.823 1.823 0 0 1 .11.272 2.585 2.585 0 0 1 .068.533c0 .079-.01.157-.016.236a2.123 2.123 0 0 0-.015.256 3.851 3.851 0 0 0 .256 1.192l-1.485-3.169a.157.157 0 0 0-.2-.078.15.15 0 0 0-.084.2l1.151 3.18c-.006 0-.011-.01-.016-.01-.1-.1-.183-.2-.267-.3a2.609 2.609 0 0 1-.4-.649 3.243 3.243 0 0 0-.492-.847 3.29 3.29 0 0 0-.3-.246 1.521 1.521 0 0 1-.3-.256.554.554 0 0 1-.074-.215 1.647 1.647 0 0 0-.047-.162.126.126 0 0 0-.115-.084.106.106 0 0 0-.083.063.557.557 0 0 0 0 .408.869.869 0 0 0 .2.366 1.951 1.951 0 0 0 .173.178 1.537 1.537 0 0 1 .2.209 2.353 2.353 0 0 1 .272.471c.026.073.047.146.073.22s.052.167.084.246a4 4 0 0 0 .7 1l-2.588-2.359a.149.149 0 0 0-.214 0 .154.154 0 0 0-.006.215l2.28 2.5s-.01-.006-.015-.006a5.698 5.698 0 0 1-.356-.172 2.65 2.65 0 0 1-.622-.45 3.335 3.335 0 0 0-.78-.6c-.094-.037-.235-.073-.371-.11a1.657 1.657 0 0 1-.377-.12.6.6 0 0 1-.151-.168.9.9 0 0 0-.105-.136.115.115 0 0 0-.136-.031.1.1 0 0 0-.052.084.563.563 0 0 0 .162.381.914.914 0 0 0 .319.262c.073.036.157.068.23.1a1.4 1.4 0 0 1 .267.115 2.412 2.412 0 0 1 .434.33c.052.052.1.115.152.178a1.887 1.887 0 0 0 .173.188 3.865 3.865 0 0 0 1.029.669l-3.3-1.2a.159.159 0 0 0-.12.293l3.065 1.433h-.016a3.33 3.33 0 0 1-.4-.021 2.524 2.524 0 0 1-.743-.178 3.305 3.305 0 0 0-.952-.251 2.824 2.824 0 0 0-.382.042 1.685 1.685 0 0 1-.4.031.669.669 0 0 1-.2-.1.789.789 0 0 0-.146-.084.126.126 0 0 0-.142.026.107.107 0 0 0-.015.1.618.618 0 0 0 .3.288.9.9 0 0 0 .4.12c.084.006.167 0 .251 0a1.306 1.306 0 0 1 .288.006 2.208 2.208 0 0 1 .523.141c.074.031.141.068.209.1a1.651 1.651 0 0 0 .235.115 3.747 3.747 0 0 0 1.2.22l-3.5.157a.163.163 0 0 0-.151.162.159.159 0 0 0 .151.157l3.379.152a.06.06 0 0 0-.016 0c-.13.052-.251.094-.376.131a2.576 2.576 0 0 1-.759.125 3.155 3.155 0 0 0-.967.131 2.567 2.567 0 0 0-.34.178 1.58 1.58 0 0 1-.355.183.674.674 0 0 1-.226-.011.887.887 0 0 0-.167-.021.117.117 0 0 0-.12.079.1.1 0 0 0 .026.094.557.557 0 0 0 .382.152.735.735 0 0 0 .109.01 1.225 1.225 0 0 0 .3-.047 1.875 1.875 0 0 0 .23-.1 1.9 1.9 0 0 1 .272-.105 2.078 2.078 0 0 1 .533-.068c.079 0 .157 0 .236.01a1.371 1.371 0 0 0 .256.016 3.864 3.864 0 0 0 1.2-.256L21.522 29.8a.16.16 0 0 0 .063.3.186.186 0 0 0 .057-.011l3.18-1.15a.011.011 0 0 1-.01.01 3.712 3.712 0 0 1-.293.267 2.966 2.966 0 0 1-.654.4 3.123 3.123 0 0 0-.847.492 3.29 3.29 0 0 0-.246.3 1.294 1.294 0 0 1-.256.3.558.558 0 0 1-.215.079 1.067 1.067 0 0 0-.162.047.121.121 0 0 0-.084.115.1.1 0 0 0 .063.078.352.352 0 0 0 .162.037.932.932 0 0 0 .246-.042.875.875 0 0 0 .372-.193c.062-.058.12-.121.172-.178a1.863 1.863 0 0 1 .215-.2 2.4 2.4 0 0 1 .465-.267c.073-.031.152-.052.22-.078a1.374 1.374 0 0 0 .246-.084 3.766 3.766 0 0 0 1.009-.7l-2.364 2.589a.153.153 0 0 0 .006.215.144.144 0 0 0 .109.052.151.151 0 0 0 .105-.047l2.5-2.275s-.006.01-.006.015c-.057.126-.115.241-.172.356a2.65 2.65 0 0 1-.45.622 3.066 3.066 0 0 0-.591.78 2.813 2.813 0 0 0-.115.366 1.716 1.716 0 0 1-.12.382.675.675 0 0 1-.168.146c-.046.037-.094.068-.136.1a.123.123 0 0 0-.031.141.14.14 0 0 0 .089.052h.019a.664.664 0 0 0 .355-.162.954.954 0 0 0 .267-.324c.031-.073.063-.152.094-.23a2.146 2.146 0 0 1 .115-.267 2.377 2.377 0 0 1 .33-.429 1.59 1.59 0 0 1 .178-.152c.062-.057.13-.109.193-.172a3.83 3.83 0 0 0 .659-1.03L24.9 33.352a.157.157 0 0 0 .089.2.124.124 0 0 0 .062.011.152.152 0 0 0 .142-.089l1.433-3.065v.021a3.244 3.244 0 0 1-.021.392 2.569 2.569 0 0 1-.173.748 2.985 2.985 0 0 0-.251.947 2.138 2.138 0 0 0 .037.381 1.689 1.689 0 0 1 .031.4.619.619 0 0 1-.1.2c-.027.047-.058.1-.079.146a.118.118 0 0 0 .021.142.1.1 0 0 0 .063.02.09.09 0 0 0 .036-.005.587.587 0 0 0 .288-.293.942.942 0 0 0 .12-.4 1.752 1.752 0 0 0 0-.251 1.767 1.767 0 0 1 .006-.293 2.607 2.607 0 0 1 .141-.523c.031-.073.068-.141.1-.209s.079-.152.11-.23a3.78 3.78 0 0 0 .22-1.2l.157 3.5a.158.158 0 0 0 .162.146.156.156 0 0 0 .105-.037.178.178 0 0 0 .052-.109l.152-3.379v.016a2.55 2.55 0 0 1 .131.371 2.444 2.444 0 0 1 .125.758 3.218 3.218 0 0 0 .131.973 2.442 2.442 0 0 0 .183.34 1.547 1.547 0 0 1 .178.351.662.662 0 0 1-.011.224c0 .058-.015.11-.021.168a.113.113 0 0 0 .079.12.039.039 0 0 0 .026 0 .121.121 0 0 0 .068-.026.593.593 0 0 0 .157-.382 1.006 1.006 0 0 0-.042-.413 2.353 2.353 0 0 0-.1-.235 1.845 1.845 0 0 1-.105-.267 2.687 2.687 0 0 1-.068-.539c0-.078.01-.156.016-.23a2.226 2.226 0 0 0 .01-.261 3.827 3.827 0 0 0-.256-1.193l1.485 3.17a.156.156 0 0 0 .141.089.128.128 0 0 0 .063-.011.157.157 0 0 0 .089-.2l-1.15-3.179c.005.005.01.01.01.015a2.775 2.775 0 0 1 .267.293 2.571 2.571 0 0 1 .4.654 3.169 3.169 0 0 0 .492.842 2.714 2.714 0 0 0 .3.246 1.645 1.645 0 0 1 .3.256.7.7 0 0 1 .074.214 1.665 1.665 0 0 0 .047.163.114.114 0 0 0 .1.083h.011a.12.12 0 0 0 .084-.057.64.64 0 0 0-.006-.413.961.961 0 0 0-.2-.367 2.125 2.125 0 0 0-.178-.177 1.861 1.861 0 0 1-.2-.21 2.366 2.366 0 0 1-.272-.47 1.889 1.889 0 0 1-.073-.22 2.282 2.282 0 0 0-.089-.246 3.808 3.808 0 0 0-.69-1l2.584 2.359a.156.156 0 0 0 .1.047.166.166 0 0 0 .12-.267l-2.28-2.5s.01.006.016.006c.125.052.245.11.355.167a2.622 2.622 0 0 1 .622.45 3.235 3.235 0 0 0 .78.6 3.142 3.142 0 0 0 .366.11 1.616 1.616 0 0 1 .382.12.751.751 0 0 1 .146.168c.037.047.069.094.1.136a.138.138 0 0 0 .094.041.158.158 0 0 0 .047-.01.1.1 0 0 0 .052-.084.6.6 0 0 0-.162-.382 1.013 1.013 0 0 0-.324-.261 1.707 1.707 0 0 0-.23-.094 2.027 2.027 0 0 1-.267-.121 2.372 2.372 0 0 1-.429-.329 2.292 2.292 0 0 1-.152-.173 1.89 1.89 0 0 0-.172-.193 3.85 3.85 0 0 0-1.03-.664l3.3 1.192a.154.154 0 0 0 .052.011.148.148 0 0 0 .141-.1.159.159 0 0 0-.078-.2l-3.06-1.433h.016a3.132 3.132 0 0 1 .4.021 2.571 2.571 0 0 1 .743.178 3.318 3.318 0 0 0 .947.251 3 3 0 0 0 .387-.042 1.643 1.643 0 0 1 .392-.031.734.734 0 0 1 .209.1.639.639 0 0 0 .147.084.1.1 0 0 0 .052.01.093.093 0 0 0 .084-.036.09.09 0 0 0 .015-.094c-.026-.1-.125-.194-.293-.288a1.045 1.045 0 0 0-.4-.126h-.251a1.294 1.294 0 0 1-.293 0 2.261 2.261 0 0 1-.523-.141 1.974 1.974 0 0 1-.209-.1 1.309 1.309 0 0 0-.23-.11 3.762 3.762 0 0 0-1.2-.225l3.5-.157a.154.154 0 0 0 .146-.157.158.158 0 0 0-.121-.168zm-2.4-.806a2.032 2.032 0 0 1 .246.016c.078.005.162.016.24.016a2.558 2.558 0 0 0 .565-.073 1.564 1.564 0 0 0 .293-.115c.068-.032.147-.063.215-.089a.805.805 0 0 1 .366-.037.631.631 0 0 1 .308.105h-.005a.865.865 0 0 1-.152-.021.762.762 0 0 0-.266-.011 1.626 1.626 0 0 0-.387.194 2.183 2.183 0 0 1-.325.172 2.969 2.969 0 0 1-.931.126 2.828 2.828 0 0 0-.789.125c-.126.037-.246.084-.382.136a1.3 1.3 0 0 1-.366.095c-.006-.032-.006-.063-.011-.095a1.2 1.2 0 0 0 .178-.052c.089-.026.183-.057.288-.1s.2-.089.314-.121a1.866 1.866 0 0 1 .329-.083 2.094 2.094 0 0 1 .293-.037c.089-.005.157-.01.209-.01h.084a.5.5 0 0 0-.084-.006h-.209a2 2 0 0 0-.3.016 2.022 2.022 0 0 0-.34.063c-.115.031-.225.073-.324.11s-.2.057-.283.078c-.068.016-.131.032-.172.037a.4.4 0 0 1-.021-.089 4.312 4.312 0 0 1 1.419-.35zm1.888-1.527a.045.045 0 0 1 .058.026.046.046 0 0 1-.021.063l-3.4 1.59c-.016-.042-.031-.089-.046-.131l1.809-.831-1.867.69-.063-.125zm-2.563.073a1.854 1.854 0 0 1 .23-.083 1.981 1.981 0 0 0 .236-.079 2.288 2.288 0 0 0 .491-.282 1.7 1.7 0 0 0 .225-.215 1.323 1.323 0 0 1 .168-.167.865.865 0 0 1 .324-.178.645.645 0 0 1 .319-.021.646.646 0 0 1-.146.042.7.7 0 0 0-.251.094 1.408 1.408 0 0 0-.288.325 2.154 2.154 0 0 1-.23.287 3.068 3.068 0 0 1-.816.471 2.749 2.749 0 0 0-.68.418 3.674 3.674 0 0 0-.3.272 1.371 1.371 0 0 1-.3.225l-.047-.078c.042-.032.089-.068.147-.12s.146-.121.225-.2.157-.162.246-.236a1.983 1.983 0 0 1 .266-.2 2.8 2.8 0 0 1 .262-.141c.078-.042.141-.073.188-.094a.242.242 0 0 0 .058-.021c-.011 0-.032.011-.058.021a2.705 2.705 0 0 0-.2.079 2.845 2.845 0 0 0-.266.125 2.908 2.908 0 0 0-.288.194c-.089.068-.178.151-.256.219a2.834 2.834 0 0 1-.236.183c-.057.042-.1.079-.146.105-.016-.026-.036-.052-.052-.079a4.206 4.206 0 0 1 1.176-.866zm1.161-2.133a.043.043 0 0 1 .063 0 .038.038 0 0 1 .005.062l-2.536 2.772c-.032-.036-.058-.068-.089-.1l1.349-1.464-1.458 1.355a1.654 1.654 0 0 0-.105-.094zm-2.343 1.04c.058-.057.121-.109.183-.162a2.352 2.352 0 0 0 .183-.162 2.268 2.268 0 0 0 .351-.45 1.908 1.908 0 0 0 .125-.282c.027-.079.058-.152.089-.22a.78.78 0 0 1 .236-.282.625.625 0 0 1 .287-.147v.006a1.185 1.185 0 0 1-.115.089.735.735 0 0 0-.2.183 1.758 1.758 0 0 0-.141.413 2.488 2.488 0 0 1-.1.35 3.035 3.035 0 0 1-.576.743 3.067 3.067 0 0 0-.47.648 6.33 6.33 0 0 0-.173.372 1.428 1.428 0 0 1-.188.319h-.005c-.021-.016-.048-.037-.074-.053.026-.047.058-.1.094-.167s.084-.173.131-.272.084-.209.136-.308a2.307 2.307 0 0 1 .173-.293 1.636 1.636 0 0 1 .183-.23 1.675 1.675 0 0 1 .141-.157.521.521 0 0 1 .052-.053c-.01.006-.026.021-.057.047s-.089.089-.152.147a2.226 2.226 0 0 0-.2.225 1.915 1.915 0 0 0-.193.287c-.058.1-.1.21-.157.3a2.806 2.806 0 0 1-.141.256 2.432 2.432 0 0 1-.094.152l-.079-.047a4.234 4.234 0 0 1 .752-1.252zm.262-2.416a.039.039 0 0 1 .057-.021c.011 0 .037.016.027.058l-1.277 3.53a.964.964 0 0 0-.13-.058l.7-1.872-.837 1.81a2.136 2.136 0 0 0-.13-.047zm-1.768 1.862a2.148 2.148 0 0 1 .11-.22c.037-.073.073-.141.105-.219a2.438 2.438 0 0 0 .151-.549 1.886 1.886 0 0 0 0-.309 1.937 1.937 0 0 1 0-.241.886.886 0 0 1 .105-.35.647.647 0 0 1 .215-.246.955.955 0 0 1-.079.136.648.648 0 0 0-.11.241 1.514 1.514 0 0 0 .032.434c.015.131.036.272.036.366a3.1 3.1 0 0 1-.245.905 2.62 2.62 0 0 0-.184.779 3.445 3.445 0 0 0-.021.4 1.544 1.544 0 0 1-.052.376.823.823 0 0 0-.094-.026c.005-.052.016-.109.021-.188s.016-.188.021-.3 0-.23 0-.34a1.723 1.723 0 0 1 .047-.335c.026-.1.052-.2.079-.287s.057-.147.073-.2c0-.016.015-.026.015-.042a.368.368 0 0 1-.02.042c-.021.047-.053.115-.084.193s-.068.178-.1.283-.052.225-.068.34-.015.235-.026.34-.021.209-.031.293-.026.13-.031.177c-.032 0-.063-.015-.1-.02a4.222 4.222 0 0 1 .236-1.433zm-.684-2.331a.046.046 0 0 1 .047-.041.04.04 0 0 1 .042.041l.172 3.756c-.047-.006-.088-.006-.136-.011l-.078-1.989-.078 1.987c-.048 0-.095 0-.136.011zm-.915 2.4a1.8 1.8 0 0 1 .01-.241c.005-.084.016-.162.016-.246a2.513 2.513 0 0 0-.073-.559 1.826 1.826 0 0 0-.11-.293 1.888 1.888 0 0 1-.094-.22.865.865 0 0 1-.037-.366.631.631 0 0 1 .105-.308c0 .052-.011.1-.016.151a.8.8 0 0 0-.016.272 1.857 1.857 0 0 0 .194.387 3.1 3.1 0 0 1 .178.325 3.114 3.114 0 0 1 .12.925 2.8 2.8 0 0 0 .125.79c.042.126.084.251.136.382a1.309 1.309 0 0 1 .095.361c-.032 0-.063 0-.095.011a1.217 1.217 0 0 0-.052-.178 2.917 2.917 0 0 0-.094-.283c-.042-.1-.088-.209-.126-.319a2.059 2.059 0 0 1-.083-.324c-.021-.11-.026-.209-.036-.3s-.006-.157-.006-.209v-.079.079c0 .052-.006.125-.006.209a2.946 2.946 0 0 0 .017.3 1.858 1.858 0 0 0 .067.34c.026.115.073.225.105.329s.057.2.078.283c.016.068.032.125.042.172-.031.006-.063.016-.094.021a4.2 4.2 0 0 1-.35-1.418zm-1.527-1.888c-.016-.042.015-.058.02-.058a.045.045 0 0 1 .063.021l1.595 3.4a2.676 2.676 0 0 0-.136.047l-.831-1.81.69 1.872a1.396 1.396 0 0 0-.125.058zm.067 2.562a1.518 1.518 0 0 1-.083-.23 1.9 1.9 0 0 0-.079-.23 2.288 2.288 0 0 0-.282-.491 2.236 2.236 0 0 0-.215-.231 1.015 1.015 0 0 1-.167-.167.81.81 0 0 1-.178-.319.615.615 0 0 1-.015-.319 1.246 1.246 0 0 1 .036.146.775.775 0 0 0 .094.251 1.65 1.65 0 0 0 .33.283 3.232 3.232 0 0 1 .288.235 3.208 3.208 0 0 1 .465.811 2.639 2.639 0 0 0 .419.68c.083.1.172.2.271.3a1.216 1.216 0 0 1 .225.3v.006a.6.6 0 0 0-.078.047 1.937 1.937 0 0 0-.12-.152c-.058-.068-.121-.141-.2-.225s-.162-.157-.236-.241a3.06 3.06 0 0 1-.2-.272 2.762 2.762 0 0 1-.141-.256c-.041-.078-.068-.146-.089-.193a.37.37 0 0 0-.031-.063l.027.063c.02.047.041.12.078.2a2.284 2.284 0 0 0 .125.267 2.074 2.074 0 0 0 .194.288c.073.094.151.178.219.261a2.76 2.76 0 0 1 .183.23l.105.147c-.026.021-.052.037-.079.057a4.242 4.242 0 0 1-.866-1.189zm-2.133-1.161a.044.044 0 1 1 .062-.062l2.772 2.531c-.031.031-.068.063-.1.094l-1.464-1.354 1.355 1.458a1.528 1.528 0 0 0-.094.1zm1.04 2.343c-.057-.057-.1-.12-.162-.183a1.83 1.83 0 0 0-.162-.183 1.93 1.93 0 0 0-.45-.345 2 2 0 0 0-.282-.131 1.5 1.5 0 0 1-.219-.089.8.8 0 0 1-.283-.23.55.55 0 0 1-.141-.287.691.691 0 0 1 .089.12.825.825 0 0 0 .183.2 1.722 1.722 0 0 0 .413.136 2.428 2.428 0 0 1 .35.1 3.01 3.01 0 0 1 .743.57 2.833 2.833 0 0 0 .648.471c.121.063.236.115.372.173a1.31 1.31 0 0 1 .319.193h.005a.74.74 0 0 0-.058.073c-.047-.026-.1-.052-.167-.088a2.586 2.586 0 0 0-.272-.131c-.1-.047-.209-.089-.308-.141a1.817 1.817 0 0 1-.293-.168c-.089-.063-.168-.131-.23-.183s-.121-.11-.157-.141a.12.12 0 0 0-.027-.031.17.17 0 0 0 .021.031c.037.037.089.089.147.152s.141.13.225.2a2 2 0 0 0 .287.194c.105.057.21.1.3.157s.183.1.256.141.115.073.152.1a.717.717 0 0 0-.047.079 4.29 4.29 0 0 1-1.252-.765zm-2.411-.256a.055.055 0 0 1-.026-.063.052.052 0 0 1 .058-.026l3.535 1.282-.063.125-1.867-.69 1.8.831c-.016.042-.026.089-.042.131zm1.862 1.763a3.304 3.304 0 0 1-.225-.105 1.494 1.494 0 0 0-.219-.11 2.387 2.387 0 0 0-.544-.146 1.5 1.5 0 0 0-.314 0h-.241a.817.817 0 0 1-.35-.11.628.628 0 0 1-.241-.209.721.721 0 0 1 .136.073.7.7 0 0 0 .241.115 1.676 1.676 0 0 0 .434-.032 2.111 2.111 0 0 1 .366-.036 2.882 2.882 0 0 1 .905.24 2.781 2.781 0 0 0 .779.189c.131.01.262.015.4.015a1.545 1.545 0 0 1 .371.058c-.01.026-.015.057-.026.089-.052 0-.109-.016-.188-.021s-.188-.016-.3-.021-.225 0-.34-.005a2.192 2.192 0 0 1-.334-.042c-.105-.026-.205-.058-.288-.084s-.147-.052-.194-.073a.319.319 0 0 0-.068-.021.683.683 0 0 0 .068.026c.042.021.11.053.188.084a2.236 2.236 0 0 0 .288.1 2.092 2.092 0 0 0 .335.068c.115.016.235.021.34.026s.209.021.293.037.13.021.177.031c0 .032-.01.058-.015.089a4.178 4.178 0 0 1-1.434-.231zm-2.332.685a.037.037 0 0 1-.042-.042.041.041 0 0 1 .042-.047l3.75-.173c-.006.047-.006.094-.011.142l-1.987.078 1.987.078c0 .042 0 .089.011.136zm2.395.92a2.03 2.03 0 0 1-.246-.015c-.078-.006-.162-.016-.246-.016a2.257 2.257 0 0 0-.559.078 1.5 1.5 0 0 0-.293.11 3.376 3.376 0 0 1-.22.089.791.791 0 0 1-.361.037.606.606 0 0 1-.3-.1.884.884 0 0 1 .152.016.758.758 0 0 0 .266.011 1.531 1.531 0 0 0 .387-.194 2.3 2.3 0 0 1 .325-.173 2.961 2.961 0 0 1 .925-.125 2.743 2.743 0 0 0 .79-.126c.126-.036.251-.083.387-.136a1.35 1.35 0 0 1 .361-.094l.016.094a1.665 1.665 0 0 0-.183.053c-.084.026-.178.057-.283.1s-.209.089-.319.126a2.526 2.526 0 0 1-.324.083 4.05 4.05 0 0 1-.502.042h-.084a.6.6 0 0 0 .084 0c.047 0 .121.006.209.006a2.2 2.2 0 0 0 .3-.021 1.974 1.974 0 0 0 .335-.063c.115-.031.225-.073.329-.11s.2-.057.283-.078c.068-.016.125-.027.172-.037.006.031.016.058.021.089a4.168 4.168 0 0 1-1.421.348zm-1.893 1.522a.046.046 0 0 1-.058-.027c0-.01-.01-.041.021-.057l3.405-1.595c.016.047.026.089.042.13l-1.8.832 1.867-.69a1.317 1.317 0 0 0 .063.125zm2.562-.068a2.378 2.378 0 0 1-.23.078c-.073.026-.151.047-.23.078a2.577 2.577 0 0 0-.491.283 1.762 1.762 0 0 0-.225.214 1.054 1.054 0 0 1-.173.168.742.742 0 0 1-.318.177.637.637 0 0 1-.32.021.579.579 0 0 1 .146-.041.844.844 0 0 0 .251-.089 1.462 1.462 0 0 0 .283-.33 2.639 2.639 0 0 1 .235-.288 3.009 3.009 0 0 1 .811-.465 2.719 2.719 0 0 0 .68-.424 3.3 3.3 0 0 0 .3-.272 1.092 1.092 0 0 1 .3-.219h.006c.015.026.031.047.047.078a1.56 1.56 0 0 0-.152.115c-.068.058-.141.126-.225.2s-.157.162-.241.241a2.215 2.215 0 0 1-.272.2 1.843 1.843 0 0 1-.256.142 3.43 3.43 0 0 1-.193.094.2.2 0 0 0-.042.021.18.18 0 0 1 .047-.016c.042-.021.115-.047.193-.079s.173-.078.272-.13a1.819 1.819 0 0 0 .288-.194c.089-.068.178-.151.256-.219s.162-.131.23-.184a1.354 1.354 0 0 1 .152-.1c.016.021.032.047.052.073a4.218 4.218 0 0 1-1.181.867zm-1.161 2.133a.039.039 0 0 1-.062-.005.044.044 0 0 1 0-.063l2.531-2.772c.031.037.063.068.094.105l-1.354 1.459 1.464-1.349a1.324 1.324 0 0 1 .1.089zm2.343-1.046a1.451 1.451 0 0 1-.182.163c-.063.052-.126.1-.184.162a2.416 2.416 0 0 0-.345.449 1.418 1.418 0 0 0-.125.288 1.527 1.527 0 0 1-.095.215.712.712 0 0 1-.23.282.576.576 0 0 1-.287.146 1.132 1.132 0 0 1 .12-.094.735.735 0 0 0 .2-.183 1.579 1.579 0 0 0 .136-.413 2.887 2.887 0 0 1 .1-.35 3.1 3.1 0 0 1 .57-.743 2.713 2.713 0 0 0 .471-.649c.063-.115.115-.235.173-.366a1.368 1.368 0 0 1 .193-.324c.026.021.053.037.073.052a1.765 1.765 0 0 1-.088.168c-.042.078-.089.172-.131.272s-.089.209-.136.308a2.194 2.194 0 0 1-.173.293 2.34 2.34 0 0 1-.183.23c-.057.068-.1.121-.141.157a.34.34 0 0 0-.052.058.453.453 0 0 1 .052-.053 1.746 1.746 0 0 0 .152-.146c.062-.063.13-.136.2-.225a2.659 2.659 0 0 0 .188-.288c.058-.1.11-.2.157-.3s.1-.183.141-.256.074-.11.1-.152a.386.386 0 0 0 .079.052 4.188 4.188 0 0 1-.753 1.247zm-.256 2.417a.046.046 0 0 1-.063.021s-.036-.016-.02-.058l1.276-3.53.125.063-.69 1.867.831-1.81c.042.016.089.031.136.047zm1.763-1.862a1.984 1.984 0 0 1-.105.219 2.306 2.306 0 0 0-.105.22 2.262 2.262 0 0 0-.151.549 1.5 1.5 0 0 0 0 .314v.235a.886.886 0 0 1-.105.351.7.7 0 0 1-.214.246v-.006a.966.966 0 0 1 .073-.13.679.679 0 0 0 .115-.246 1.488 1.488 0 0 0-.032-.434 2.769 2.769 0 0 1-.036-.361 2.917 2.917 0 0 1 .246-.91 2.783 2.783 0 0 0 .183-.774 10.1 10.1 0 0 0 .021-.408 1.307 1.307 0 0 1 .052-.371.545.545 0 0 0 .089.02c0 .053-.016.115-.021.189-.011.089-.011.193-.016.3s0 .23 0 .34a2.349 2.349 0 0 1-.048.335c-.026.1-.057.2-.084.287a2.037 2.037 0 0 1-.073.2c-.01.026-.016.047-.021.057a.6.6 0 0 0 .026-.057c.021-.047.053-.11.084-.194a2.034 2.034 0 0 0 .1-.282 1.706 1.706 0 0 0 .069-.34c.015-.115.02-.23.025-.34s.027-.2.037-.293c.011-.068.021-.125.031-.172l.089.015a4.083 4.083 0 0 1-.229 1.441zm.685 2.332a.037.037 0 0 1-.042.042.043.043 0 0 1-.047-.042l-.167-3.755a1.118 1.118 0 0 0 .136.011l.078 1.987.078-1.987a1.226 1.226 0 0 0 .136-.011zm-.042-3.891a2.508 2.508 0 1 1 2.5-2.5 2.509 2.509 0 0 1-2.5 2.5zm.963 1.5a2.185 2.185 0 0 1-.016.246c-.006.078-.016.157-.016.24a2.625 2.625 0 0 0 .078.565 2.139 2.139 0 0 0 .111.293c.031.068.067.141.093.215a.885.885 0 0 1 .032.366.7.7 0 0 1-.1.308v-.005a.793.793 0 0 1 .016-.152.762.762 0 0 0 .016-.266 1.824 1.824 0 0 0-.2-.393 2.453 2.453 0 0 1-.172-.319 2.969 2.969 0 0 1-.126-.931 2.627 2.627 0 0 0-.126-.789 3.824 3.824 0 0 0-.136-.382 1.619 1.619 0 0 1-.094-.366c.037-.006.068-.006.094-.011.016.047.032.11.053.178.026.089.057.183.1.288s.089.2.126.314a2.756 2.756 0 0 1 .083.324c.016.11.027.209.032.3s.01.157.01.209a.483.483 0 0 0 0 .079v-.079c0-.052.006-.12.006-.209s-.006-.194-.016-.3a2.921 2.921 0 0 0-.068-.34c-.031-.115-.073-.225-.105-.33a2.657 2.657 0 0 1-.078-.277c-.021-.068-.032-.131-.042-.178.031 0 .063-.015.089-.021a4.232 4.232 0 0 1 .356 1.418zm1.527 1.888c.01.042-.016.058-.027.058a.039.039 0 0 1-.057-.021l-1.595-3.4a3.12 3.12 0 0 0 .13-.047l.837 1.81-.7-1.867c.047-.021.089-.042.13-.063zm-.068-2.563c.031.074.052.152.078.23a2.02 2.02 0 0 0 .084.236 2.5 2.5 0 0 0 .277.491 2.215 2.215 0 0 0 .22.225 1.767 1.767 0 0 1 .167.168.817.817 0 0 1 .173.324.62.62 0 0 1 .02.314.618.618 0 0 1-.041-.147.677.677 0 0 0-.089-.251 1.81 1.81 0 0 0-.33-.282 2.557 2.557 0 0 1-.288-.23 2.972 2.972 0 0 1-.465-.816 2.81 2.81 0 0 0-.418-.68 3.62 3.62 0 0 0-.278-.3 1.211 1.211 0 0 1-.219-.3.807.807 0 0 1 .078-.047 4.817 4.817 0 0 0 .315.372c.074.079.162.157.241.246a2.235 2.235 0 0 1 .2.266 2.734 2.734 0 0 1 .147.262c.036.078.068.141.089.188a.43.43 0 0 1 .026.068.319.319 0 0 0-.021-.068 4.056 4.056 0 0 1-.079-.2 2.461 2.461 0 0 0-.13-.266 1.9 1.9 0 0 0-.189-.288c-.073-.094-.151-.178-.224-.262s-.131-.162-.184-.23-.073-.11-.1-.146a.548.548 0 0 1 .073-.052 4.107 4.107 0 0 1 .867 1.171zm2.133 1.161a.049.049 0 0 1-.068.068l-2.772-2.536.105-.089 1.459 1.349-1.349-1.463c.031-.037.063-.068.089-.105zm-1.046-2.343c.058.058.11.121.168.183a1.583 1.583 0 0 0 .157.183 2.448 2.448 0 0 0 .449.351 1.738 1.738 0 0 0 .289.125c.072.027.151.058.214.089a.789.789 0 0 1 .287.236.558.558 0 0 1 .141.282 1.244 1.244 0 0 1-.094-.12.729.729 0 0 0-.182-.194 1.6 1.6 0 0 0-.409-.141 2.574 2.574 0 0 1-.355-.105 3.018 3.018 0 0 1-.743-.57 2.64 2.64 0 0 0-.649-.47 7.985 7.985 0 0 0-.366-.173 1.361 1.361 0 0 1-.324-.188v-.005a.888.888 0 0 0 .058-.074c.041.026.1.058.162.094s.172.084.272.131.209.084.314.136a1.688 1.688 0 0 1 .287.168c.089.062.167.13.236.188a1.378 1.378 0 0 1 .151.141.329.329 0 0 1 .032.026c-.006-.01-.016-.015-.026-.031-.037-.037-.084-.089-.147-.152a2.8 2.8 0 0 0-.219-.2 2.834 2.834 0 0 0-.288-.193c-.105-.058-.21-.1-.309-.157s-.178-.094-.256-.141c-.058-.037-.11-.068-.152-.1a.322.322 0 0 0 .052-.073 4.186 4.186 0 0 1 1.25.75zm2.417.262a.039.039 0 0 1 .021.057c0 .011-.016.037-.058.027l-3.53-1.282a1.317 1.317 0 0 0 .063-.125l1.867.69-1.809-.832a5.98 5.98 0 0 0 .046-.13zm-1.862-1.768c.078.031.146.068.225.1a1.728 1.728 0 0 0 .214.11 2.9 2.9 0 0 0 .549.151 1.937 1.937 0 0 0 .314 0 1.842 1.842 0 0 1 .235 0 .862.862 0 0 1 .351.105.58.58 0 0 1 .246.214h-.005a.821.821 0 0 1-.131-.078.773.773 0 0 0-.246-.115 1.676 1.676 0 0 0-.429.031 2.062 2.062 0 0 1-.366.037 2.828 2.828 0 0 1-.905-.241 2.658 2.658 0 0 0-.779-.183 3.533 3.533 0 0 0-.408-.021 1.471 1.471 0 0 1-.366-.052c.01-.026.015-.058.026-.089.047.005.109.016.183.021.089.01.193.016.3.021s.225 0 .335 0a1.66 1.66 0 0 1 .335.047 2.323 2.323 0 0 1 .287.079c.084.031.147.057.2.073l.068.026c-.011 0-.031-.016-.068-.031s-.11-.053-.194-.084-.177-.068-.282-.1a2.272 2.272 0 0 0-.34-.068c-.115-.015-.23-.02-.335-.026s-.209-.021-.3-.031c-.068-.016-.125-.026-.172-.037 0-.026.01-.057.015-.089a4.2 4.2 0 0 1 1.443.226zm2.332-.6-3.755.172a1.354 1.354 0 0 0 .011-.136l1.987-.078-1.987-.078a1.337 1.337 0 0 0-.011-.142l3.755.173a.041.041 0 0 1 .042.047.037.037 0 0 1-.038.042z" style="fill:#83330b"/></svg>