<svg xmlns="http://www.w3.org/2000/svg" viewBox="0 0 55 55"><path d="M50.8 27.5a23.192 23.192 0 0 1-1.334 7.772H5.534A23.3 23.3 0 1 1 50.8 27.5z" style="fill:#4289db"/><path d="M46.867 40.439a22.534 22.534 0 0 1-2.014 2.589H10.141a23.214 23.214 0 0 1-2.013-2.589z" style="fill:#f8d523"/><path d="M44.853 43.028a23.265 23.265 0 0 1-34.712 0zM48.368 37.856a22.641 22.641 0 0 1-1.506 2.586H8.128a23.145 23.145 0 0 1-.806-1.286c-.24-.424-.476-.858-.69-1.3z" style="fill:#4289db"/><path d="M49.466 35.272a22.116 22.116 0 0 1-1.1 2.584H6.632a22.116 22.116 0 0 1-1.1-2.584z" style="fill:#f8d523"/><path style="fill:#fff" d="m17.6 16.36-5.848-1.825 5.848-1.831 1.831-5.847 1.824 5.847 5.848 1.831-5.848 1.825-1.824 5.847L17.6 16.36z"/><path style="fill:#d11133" d="m19.431 8.598 1.412 4.525 4.523 1.412-4.523 1.412-1.412 4.524-1.418-4.524-4.519-1.412 4.519-1.412 1.418-4.525z"/></svg>