<svg xmlns="http://www.w3.org/2000/svg" viewBox="0 0 55 55"><path d="M50.8 27.5a23.371 23.371 0 0 1-13.874 21.3 22.608 22.608 0 0 1-3.6 1.255A23.292 23.292 0 0 1 4.2 27.5a22.934 22.934 0 0 1 .183-2.892c.026-.215.052-.424.089-.633A21.322 21.322 0 0 1 4.99 21.5c.151-.586.329-1.156.528-1.72a23.013 23.013 0 0 1 1.265-2.93l.042-.125.011.031A23.283 23.283 0 0 1 27.3 4.205h.4A23.329 23.329 0 0 1 50.8 27.5z" style="fill:#062493"/><path d="M44.373 11.453v32.088a23.2 23.2 0 0 1-3.933 3.321L8.148 14.539A23.3 23.3 0 0 1 27.3 4.205h.4a23.209 23.209 0 0 1 16.673 7.248z" style="fill:#fdca16"/><path d="M36.926 48.8a22.608 22.608 0 0 1-3.6 1.255l-1.556-1.127h3.211l.993-3.054zM30.149 40.043l.988 3.054h3.216l-2.599 1.888.994 3.059-2.599-1.888-2.599 1.888.988-3.059-2.599-1.888h3.216l.994-3.054zM24.318 34.212l.993 3.054h3.211l-2.599 1.893.994 3.054-2.599-1.888-2.599 1.888.993-3.054-2.598-1.893h3.21l.994-3.054zM18.487 28.381l.994 3.059h3.21l-2.599 1.888.994 3.054-2.599-1.888-2.599 1.888.994-3.054-2.6-1.888h3.211l.994-3.059zM12.656 22.556l.994 3.054h3.211l-2.599 1.887.993 3.054-2.599-1.887-2.599 1.887.994-3.054-2.599-1.887h3.21l.994-3.054zM8.431 21.667l.993 3.054-2.6-1.888-2.441 1.778c.026-.215.052-.424.089-.633l.748-2.311-.23-.167c.151-.586.329-1.156.528-1.72h.314l.951-2.929.042-.125.011.031.983 3.023h3.211z" style="fill:#fff"/></svg>