<svg xmlns="http://www.w3.org/2000/svg" viewBox="0 0 55 55"><path d="M15.851 7.328v40.344a23.288 23.288 0 0 1 0-40.344z" style="fill:#04267d"/><path d="M39.148 7.328v40.344a23.253 23.253 0 0 1-23.3 0V7.328a23.253 23.253 0 0 1 23.3 0z" style="fill:#fec62d"/><path d="M50.8 27.5a23.3 23.3 0 0 1-11.652 20.172V7.328A23.318 23.318 0 0 1 50.8 27.5z" style="fill:#04267d"/><path d="M37.413 19.42a9.817 9.817 0 0 0-5.157 2.625.035.035 0 0 0 .037.058c.261-.068.685-.173.951-.236a.133.133 0 0 1 .157.173c-.24.674-.5 1.344-.758 2.008a16.517 16.517 0 0 0-.779 2.673 38.9 38.9 0 0 0-.366 1.726c-.058.293-.11.58-.162.873-.032.2-.131.889-.184 1.281a.189.189 0 0 1-.219.168l-2.259-.33v-8.666a11.129 11.129 0 0 1 1.971.262C29.249 21 27.5 16.213 27.5 16.208s-1.746 4.8-3.148 5.827a11.2 11.2 0 0 1 1.972-.262v8.666l-2.259.33a.193.193 0 0 1-.22-.168 95.106 95.106 0 0 0-.183-1.281 53.456 53.456 0 0 0-.528-2.599 16.517 16.517 0 0 0-.779-2.673c-.257-.664-.518-1.334-.759-2.008a.134.134 0 0 1 .157-.173c.267.063.69.168.952.236a.035.035 0 0 0 .037-.058 9.82 9.82 0 0 0-5.157-2.625.064.064 0 0 0-.062.1 41.767 41.767 0 0 1 3 6.072 26.555 26.555 0 0 1 1.339 5.288 19.082 19.082 0 0 1 .246 2.374l4.215-.633v6.172h2.348V32.62l4.215.633a19.08 19.08 0 0 1 .245-2.374 26.624 26.624 0 0 1 1.339-5.288 41.3 41.3 0 0 1 3.007-6.072.068.068 0 0 0-.064-.099z"/></svg>