<svg xmlns="http://www.w3.org/2000/svg" viewBox="0 0 55 55"><g style="fill:#fff"><path d="M48.928 36.653a23.254 23.254 0 0 1-3.28 5.444l-8.76-5.256a13.239 13.239 0 0 1-18.776-.005l-8.766 5.256a23.444 23.444 0 0 1-3.274-5.445l8.771-5.261a13.325 13.325 0 0 1 0-7.777l-8.771-5.262a23.121 23.121 0 0 1 3.28-5.439l8.76 5.256a13.241 13.241 0 0 1 18.771 0l8.76-5.256a23.121 23.121 0 0 1 3.28 5.439l-8.771 5.262a13.325 13.325 0 0 1 0 7.777z"/><path d="M48.928 36.653a23.254 23.254 0 0 1-3.28 5.444l-8.76-5.256L27.5 31.2l-3.185-1.909-.042-.026-2.95-1.765-6.48-3.891-8.771-5.262a23.121 23.121 0 0 1 3.28-5.439l8.76 5.256 6.658 3.991.026.016 2.7 1.616 6.175 3.713 6.486 3.886z"/><path d="m48.928 18.347-8.771 5.262-6.486 3.891-2.949 1.768-.037.026L27.5 31.2l-9.388 5.633-8.766 5.259a23.444 23.444 0 0 1-3.274-5.445l8.771-5.261 6.48-3.886 6.177-3.708 2.693-1.616.032-.021 6.653-3.991 8.76-5.256a23.121 23.121 0 0 1 3.29 5.439z"/><path d="M40.737 27.5a13.24 13.24 0 0 1-22.625 9.336 13.24 13.24 0 0 1 18.771-18.672 13.193 13.193 0 0 1 3.854 9.336z"/></g><g style="fill:#19b43d"><path d="M50.8 27.5a23.134 23.134 0 0 1-1.872 9.153l-8.771-5.267a13.325 13.325 0 0 0 0-7.777l8.771-5.262A23.221 23.221 0 0 1 50.8 27.5zM14.263 27.5a13.029 13.029 0 0 0 .58 3.886l-8.771 5.261a23.3 23.3 0 0 1 0-18.3l8.771 5.262a13.086 13.086 0 0 0-.58 3.891zM20.67 32.437h-1.826l.915-1.585-.915-1.584h1.826l.915-1.58.915 1.58h1.825l-.914 1.584.914 1.585H22.5l-.915 1.58-.915-1.58zM32.5 32.437h-1.831l.916-1.585-.916-1.584H32.5l.91-1.58.915 1.58h1.826l-.91 1.584.91 1.585h-1.826l-.915 1.58-.91-1.58zM26.585 22.176h-1.826l.91-1.585-.91-1.579h1.826l.915-1.585.91 1.585h1.831l-.916 1.579.916 1.585H28.41l-.91 1.579-.915-1.579z"/></g><g style="fill:#cd1225"><path d="m21.585 28.394.711 1.229h1.417l-.711 1.229.711 1.23h-1.417l-.711 1.229-.712-1.229h-1.417l.712-1.23-.712-1.229h1.417l.712-1.229zM45.648 42.1a23.275 23.275 0 0 1-36.3-.005l8.766-5.256a13.239 13.239 0 0 0 18.776.005zM45.648 12.908l-8.76 5.256a13.241 13.241 0 0 0-18.771 0l-8.76-5.256a23.265 23.265 0 0 1 36.3 0zM33.41 28.394l.711 1.229h1.418l-.706 1.229.706 1.23h-1.418l-.711 1.229-.706-1.229h-1.423l.712-1.23-.712-1.229h1.423l.706-1.229z"/><path d="m27.5 18.133.706 1.229h1.423l-.712 1.229.712 1.229h-1.423l-.706 1.229-.711-1.229h-1.418l.707-1.229-.707-1.229h1.418l.711-1.229z"/></g></svg>