<svg xmlns="http://www.w3.org/2000/svg" viewBox="0 0 55 55"><defs><clipPath id="a"><circle cx="97.5" cy="27.5" r="23.3" style="fill:none"/></clipPath></defs><path d="M50.8 27.5a23.134 23.134 0 0 1-1.872 9.153l-8.771-5.267a13.325 13.325 0 0 0 0-7.777l8.771-5.262A23.221 23.221 0 0 1 50.8 27.5z" style="fill:#19b43d"/><path d="M45.648 42.1a23.275 23.275 0 0 1-36.3-.005l8.766-5.256a13.239 13.239 0 0 0 18.776.005z" style="fill:#cd1225"/><path d="M14.263 27.5a13.029 13.029 0 0 0 .58 3.886l-8.771 5.261a23.3 23.3 0 0 1 0-18.3l8.771 5.262a13.086 13.086 0 0 0-.58 3.891z" style="fill:#19b43d"/><path d="m45.648 12.908-8.76 5.256a13.241 13.241 0 0 0-18.771 0l-8.76-5.256a23.265 23.265 0 0 1 36.3 0z" style="fill:#cd1225"/><path d="M48.928 36.653a23.254 23.254 0 0 1-3.28 5.444l-8.76-5.256a13.239 13.239 0 0 1-18.776-.005l-8.766 5.256a23.444 23.444 0 0 1-3.274-5.445l8.771-5.261a13.325 13.325 0 0 1 0-7.777l-8.771-5.262a23.121 23.121 0 0 1 3.28-5.439l8.76 5.256a13.241 13.241 0 0 1 18.771 0l8.76-5.256a23.121 23.121 0 0 1 3.28 5.439l-8.771 5.262a13.325 13.325 0 0 1 0 7.777z" style="fill:#fff"/><path d="M48.928 36.653a23.254 23.254 0 0 1-3.28 5.444l-8.76-5.256L27.5 31.2l-3.185-1.909-.042-.026-2.95-1.765-6.48-3.891-8.771-5.262a23.121 23.121 0 0 1 3.28-5.439l8.76 5.256 6.658 3.991.026.016 2.7 1.616 6.175 3.713 6.486 3.886z" style="fill:#fff"/><path d="m48.928 18.347-8.771 5.262-6.486 3.891-2.949 1.768-.037.026L27.5 31.2l-9.388 5.633-8.766 5.259a23.444 23.444 0 0 1-3.274-5.445l8.771-5.261 6.48-3.886 6.177-3.708 2.693-1.616.032-.021 6.653-3.991 8.76-5.256a23.121 23.121 0 0 1 3.29 5.439z" style="fill:#fff"/><path d="M40.737 27.5a13.24 13.24 0 0 1-22.625 9.336 13.24 13.24 0 0 1 18.771-18.672 13.193 13.193 0 0 1 3.854 9.336z" style="fill:#fff"/><path style="fill:#19b43d" d="M20.67 32.437h-1.826l.915-1.585-.915-1.584h1.826l.915-1.58.915 1.58h1.825l-.914 1.584.914 1.585H22.5l-.915 1.58-.915-1.58z"/><path style="fill:#cd1225" d="m21.585 28.394.711 1.229h1.417l-.711 1.229.711 1.23h-1.417l-.711 1.229-.712-1.229h-1.417l.712-1.23-.712-1.229h1.417l.712-1.229z"/><path style="fill:#19b43d" d="M32.5 32.437h-1.831l.916-1.585-.916-1.584H32.5l.91-1.58.915 1.58h1.826l-.91 1.584.91 1.585h-1.826l-.915 1.58-.91-1.58z"/><path style="fill:#cd1225" d="m33.41 28.394.711 1.229h1.418l-.706 1.229.706 1.23h-1.418l-.711 1.229-.706-1.229h-1.423l.712-1.23-.712-1.229h1.423l.706-1.229z"/><path style="fill:#19b43d" d="M26.585 22.176h-1.826l.91-1.585-.91-1.579h1.826l.915-1.585.91 1.585h1.831l-.916 1.579.916 1.585H28.41l-.91 1.579-.915-1.579z"/><path style="fill:#cd1225" d="m27.5 18.133.706 1.229h1.423l-.712 1.229.712 1.229h-1.423l-.706 1.229-.711-1.229h-1.418l.707-1.229-.707-1.229h1.418l.711-1.229z"/><g style="clip-path:url(#a)"><path style="fill:#ce202c" d="M54.388 3.545h86.233v47.911H54.388z"/><path style="fill:#273376" d="M54.388 3.545h43.116v23.956H54.388z"/><path style="fill:#fff" d="M97.535 27.502h-4.79l-13.117-7.286-.033 7.286h-7.248l.055-7.265-13.181 7.265h-4.82v-2.684l9.491-5.26-9.491-.058v-7.954l9.471-.011-9.471-5.307V3.544h4.654l13.295 7.345-.007-7.345h7.24l.011 7.298 13.087-7.298h4.854v2.743l-9.493 5.247 9.493-.024v8.012l-9.421-.01 9.421 5.295v2.695z"/><path d="M97.7 13.254V18.1q-9.634 0-19.269-.005c-.174 0-.226.037-.226.245q.01 4.725 0 9.449h-4.329v-9.4c0-.222-.031-.293-.249-.293q-9.627.012-19.248.004v-4.846q9.639 0 19.278.005c.179 0 .224-.046.223-.249q-.009-4.726 0-9.454h4.332v9.4c0 .238.043.3.265.3q9.606-.008 19.223-.002z" style="fill:#ce202c"/><path d="M54.444 3.55c.607.385 1.242.708 1.867 1.055Q62.419 8 68.529 11.4c.062.034.136.047.189.145h-2.911a.84.84 0 0 1-.432-.115Q60 8.439 54.617 5.457c-.068-.038-.129-.106-.216-.087v-1.7c-.001-.036-.052-.116.043-.12zM54.442 27.5c1.032-.579 2.064-1.161 3.1-1.736l11.047-6.143a.885.885 0 0 1 .453-.117c.891.006 1.782 0 2.673 0h.224a.549.549 0 0 1-.25.18q-6.94 3.861-13.884 7.72c-.05.028-.1.061-.148.092z" style="fill:#ce202c"/></g></svg>