<svg xmlns="http://www.w3.org/2000/svg" viewBox="0 0 55 55"><clipPath id="a"><circle cx="27.5" cy="27.5" r="23.3" fill="none"/></clipPath><g clip-path="url(#a)"><path style="fill:#ce202c" d="M-15.612 3.545h86.233v47.911h-86.233z"/><path d="M48.128 24.5v9.224c0 2.464-5.385 3.264-5.385 3.264s-5.386-.8-5.386-3.264V24.5z" style="fill:#fff"/><path d="M48.128 33.728c0 2.464-5.385 3.264-5.385 3.264s-5.386-.8-5.386-3.264a.512.512 0 0 1 .109-.312.867.867 0 0 0 .285.72.875.875 0 0 1-.006-.867 1 1 0 0 0 .279.871 1.222 1.222 0 0 1 .027-.956s-.116.824.294.989a1.313 1.313 0 0 0-.051-.778s.282.1.267.791c0 0 .09-.1.113-.6 0 0 .012.566.226.7 0 0 .065-.057-.024-.314s.039-.348.059-.342a.566.566 0 0 0 .214.5s-.113-.446.045-.507c0 0-.033.378.293.463a.353.353 0 0 0-.047-.233.387.387 0 0 1-.015-.258s.1.343.247.4a.571.571 0 0 1-.006-.4.493.493 0 0 0 .3.4.555.555 0 0 1-.111-.463l1.794.08.929.041 2.787-.18.481-.378s.19.241-.11.621a.551.551 0 0 0 .392-.473.518.518 0 0 1-.045.5 1.292 1.292 0 0 0 .377-.643.7.7 0 0 1-.184.687.68.68 0 0 0 .4-.463s.095.228-.175.549a.883.883 0 0 0 .489-.751.587.587 0 0 1-.029.662.838.838 0 0 0 .282-.525s.142.142-.012.533a1.179 1.179 0 0 0 .362-.564.765.765 0 0 1-.2.614s.184-.042.359-.375c0 0 .048.131-.113.372 0 0 .172-.027.288-.329a.945.945 0 0 1-.03.343s.134-.08.164-.422a.521.521 0 0 1 .076.252c-.007.137-.009.045-.009.045z" style="fill:#318f44"/><path d="M45.355 28.4a1.112 1.112 0 0 1-.427-.038.507.507 0 0 0-.413 0s.1-.177-.14-.316c0 0 .078.178-.029.261 0 0-.048.041-.1-.02a1.721 1.721 0 0 0-.171-.139s.2-.064.165-.251a.27.27 0 0 0-.206-.236.3.3 0 0 1 0 .142s-.22-.112.078-.27.244-.252.19-.333a.76.76 0 0 0-.224-.2.264.264 0 0 1 .049.157c-.01.073-.145.119-.119-.008s0-.1 0-.241a.305.305 0 0 0 .37-.155s.1-.245-.233-.366c0 0 .081.1.041.175 0 0-.071.123-.156.023s-.138-.119-.129-.237c0 0 .3.039.221-.264 0 0-.049.2-.443-.07 0 0 .256-.24.157-.435 0 0-.031-.089-.31-.037 0 0 .242-.139.139-.258 0 0-.052-.08-.277.024 0 0 .087-.138-.134-.287a1.374 1.374 0 0 0-.227.137 2.066 2.066 0 0 0-.248-.245.365.365 0 0 0-.219.245.535.535 0 0 0-.267-.13.249.249 0 0 0 .026.282.812.812 0 0 1-.243-.066s-.18-.078-.153.063a.641.641 0 0 0 .076.238s-.4-.086-.386.114a.489.489 0 0 0 .193.357s-.226.269-.419.067c0 0-.066.065.078.238 0 0 .144.145.025.237 0 0-.159.116-.236-.11a.241.241 0 0 0 .046.413.374.374 0 0 0 .393-.054s-.061.449-.251.362c0 0-.114-.076.091-.168 0 0-.3-.034-.343.227a.261.261 0 0 0 .221.283s.2.066-.007.207a.183.183 0 0 0-.051.252s.115.166-.175.182a1.087 1.087 0 0 1-.214-.02.3.3 0 0 0-.019.231s-.144-.1-.472.01-.3.032-.329.065-.091.144-.091.144.172.191.175.187-.032.219-.032.219l.084.037.676-.275.685-.327.551.031.35.076.459.031.329-.161h.47l.524.239.6.326.312.05.24-.011v-.443z" style="fill:#d21f26;stroke:#000;stroke-linejoin:round;stroke-width:.050000000745058px"/><path d="M39.917 28.914s.261.121.37-.026c0 0 .142-.249-.171-.335a.251.251 0 0 0-.012-.359.242.242 0 0 0-.262-.025.26.26 0 0 0-.232-.127.206.206 0 0 0-.191.141s-.2-.074-.3.033a.2.2 0 0 0 .071.331l.181.015.178-.076.2.052a.389.389 0 0 0 .168.376z" style="fill:#d21f26;stroke:#000;stroke-linejoin:round;stroke-width:.050000000745058px"/><path d="M45.747 28.477a.4.4 0 0 1 .24.758.738.738 0 0 1 .03.183.466.466 0 0 1 .406.562l-.163-.124c-.285-.1-.579.121-.789.493s-.11.547-.075.988.82.7.82.7-.371.874-.612 1.435a.543.543 0 0 1-.887.21c-.146-.118-.182-.053-.255 0s.329.34-.4.611a2.9 2.9 0 0 0-.982.547 1.2 1.2 0 0 1-.68-.036c-.051-.057-.021-.057-.211-.164s-.51-.2-.86-.356-.342-.355-.339-.4.122-.375-.288-.11a.6.6 0 0 1-.759-.126c-.081-.1-.422-.933-.422-.933a5 5 0 0 0-.273-.676c.009 0-.018.038.285-.121a1.2 1.2 0 0 0 .543-.684 1.4 1.4 0 0 0-.036-.8c-.038-.09-.264-.5-.543-.591a.462.462 0 0 0-.467.129.466.466 0 0 1 .407-.562.738.738 0 0 1 .03-.183.4.4 0 0 1 .24-.758l-.076.131s-.079.723 1.077.238 1.122-.574 1.781-.271l.481-.008s.694-.294.917-.167 1.024.537 1.024.537.774.265.926-.225z" style="fill:#64b3d0;stroke:#000;stroke-width:.050000000745058px"/><path d="M42.267 31.609s-.04-.221-.083-.365a.4.4 0 0 1 .061-.384l.182-.191a.461.461 0 0 1 .252-.157s.14 0 .153-.03.166-.256.53 0a.506.506 0 0 1 .294-.2.28.28 0 0 1 .285.078.288.288 0 0 1 .4.092.349.349 0 0 1 .444.13.329.329 0 0 1 .409.128c.156.242.125.34.125.34l.115.383.41.463-.953.328h-.427l-.855.21-1.518.106-.423-.455z" style="fill:#fff;stroke:#273376;stroke-miterlimit:10;stroke-width:.050000000745058px"/><path d="M40.984 33.917a1.245 1.245 0 0 0-.343.065c-.116.054-.2.111-.338.189 0 0-.063.076-.325.03 0 0-.454-.1-.454.225 0 0-.544.041-.321.476a.28.28 0 0 0 .463.1s-.2.263.187.366a.3.3 0 0 0 .356-.2.229.229 0 0 0-.062-.23.4.4 0 0 0 .227-.156s-.285.329.027.448c0 0 .391.09.413-.284a.215.215 0 0 1 .12-.234.7.7 0 0 0 .455-.384s-.449-.217-.405-.411zM40.067 30.642s-.35-.147-.517 0a.522.522 0 0 0-.475 0 2.584 2.584 0 0 0-.391.291s-.113.088-.071.367a.636.636 0 0 1 .023.294s-.077-.014-.231.154c0 0-.2.207-.368.024a.307.307 0 0 0 .377.214s-.158.112-.021.4a.5.5 0 0 1-.059.463.428.428 0 0 0 .27-.408.665.665 0 0 1 .059-.351s-.083.132.11.414a.4.4 0 0 1 .026.413.388.388 0 0 0 .253-.4c-.027-.31-.2-.181-.086-.466a.445.445 0 0 0 .109.22.393.393 0 0 1 .146.4.524.524 0 0 0 .128-.384.747.747 0 0 0-.081-.253l.526-.272.261-.432z" style="fill:#d21f26;stroke:#000;stroke-linejoin:round;stroke-width:.050000000745058px"/><path d="M39.269 31.863s-.217-.014-.253-.168M38.636 31.594a.224.224 0 0 1 .144.06.153.153 0 0 0 .126.063" style="fill:none;stroke:#000;stroke-miterlimit:10;stroke-width:.050000000745058px"/><path d="M39.589 31.28a.33.33 0 0 1-.175-.05.073.073 0 0 0-.1.025.087.087 0 0 0 .05.134s.137.063-.08.189c0 0 .258-.085.155-.2 0 0-.113-.074-.072-.1 0 0 .012-.022.057 0a.211.211 0 0 0 .165.002z"/><path style="fill:#794622;stroke:#000;stroke-width:.050000000745058px" d="m43.129 31.802-.868-2.74-.032.008.767 2.773.133-.041z"/><path d="M40.107 34.877a.385.385 0 0 0-.374.018s.017-.068.146-.1a.268.268 0 0 1 .266-.165 1.226 1.226 0 0 1-.187.162s.113.008.149.085z"/><path d="M39.386 35.312a.366.366 0 0 1-.15-.5.149.149 0 0 1 .15-.072s.2.057.044.314a.432.432 0 0 0-.044.258zM40.044 35.608s-.463-.193-.32-.521c0 0 .044-.111.146-.1 0 0 .179.008.143.226a.684.684 0 0 0 .031.395z" style="fill:#64b3d0;stroke:#273376;stroke-miterlimit:2.613;stroke-width:.050000000745058px"/><path d="M39.946 34.382a1.407 1.407 0 0 0-.2.157.533.533 0 0 0-.131-.1.216.216 0 0 1 .131.025.387.387 0 0 1 .2-.082z"/><path d="M40.358 35.526a.373.373 0 0 0 .3-.427.169.169 0 0 0-.189-.129s-.185.043-.064.261a.294.294 0 0 1-.047.295z" style="fill:#64b3d0;stroke:#273376;stroke-miterlimit:2.613;stroke-width:.050000000745058px"/><path d="M42 28.274s.234.065.361.113a1.2 1.2 0 0 0 .768 0s.291-.106.329-.113l-.222.31-.011.16.139.186s-.084.031-.333-.108a.572.572 0 0 0-.6 0 .754.754 0 0 1-.332.108l.214-.218-.083-.2z" style="fill:#f4ce10;stroke:#000;stroke-miterlimit:2.613;stroke-width:.050000000745058px"/><path d="M40.5 35.116s.014-.016 0-.023c0 0-.015-.006-.027.014a.142.142 0 0 0-.005.13.154.154 0 0 1 .015.106s0 .016.012.018a.024.024 0 0 0 .015-.016.136.136 0 0 0-.013-.1s-.042-.085.003-.129z" style="fill:#fff"/><path d="M45.524 28.914s-.261.121-.37-.026c0 0-.143-.249.17-.335a.252.252 0 0 1 .012-.359.244.244 0 0 1 .263-.025.26.26 0 0 1 .232-.127.206.206 0 0 1 .191.141s.2-.074.3.033a.2.2 0 0 1-.071.331l-.181.015-.178-.076-.2.052a.389.389 0 0 1-.168.376z" style="fill:#d21f26;stroke:#000;stroke-linejoin:round;stroke-width:.050000000745058px"/><path d="M43.456 28.72a.067.067 0 0 1-.061.055.076.076 0 0 1-.088-.047v-.021a.179.179 0 0 1 .086-.185s.164-.123.479.026c0 0 .249.11.421.2 0 0 .445.219.5.235a1.419 1.419 0 0 0 .5.1.706.706 0 0 0 .583-.235s.132-.2 0-.327a.173.173 0 0 0-.141-.047.183.183 0 0 0-.117.062.109.109 0 0 0 .01.148.086.086 0 0 0 .131-.06s0-.009 0 0a.214.214 0 0 1-.027.167s-.247.342-.927-.012l-.9-.46a.625.625 0 0 0-.719.119.3.3 0 0 0 .063.453.263.263 0 0 0 .338-.067s.108-.178-.062-.256a.158.158 0 0 0-.21.073c-.059.137.116.172.133.075-.001.006.003-.016.008.004z" style="fill:#f4ce10;stroke:#000;stroke-miterlimit:2.613;stroke-width:.050000000745058px"/><path d="M39.9 30.131v-.513a.126.126 0 0 1 .067-.123c.066-.049.138-.127.24.094a1.924 1.924 0 0 1 .267-.221.127.127 0 0 1 .2.041.7.7 0 0 1 .191-.185s.2-.119.21.238l.156-.131a.2.2 0 0 1 .253.033 2.378 2.378 0 0 1 .258.258.289.289 0 0 1 .054.161.276.276 0 0 0 .062.172.385.385 0 0 0 .14.07.257.257 0 0 1 .221.143s.026-.024.107.645v1.219l-.9.981-1.442-.377-.574-.218-.129-.386.556-.328.3-.747-.1-.526z" style="fill:#e2ca5e;stroke:#000;stroke-miterlimit:2.613;stroke-width:.050000000745058px"/><path d="m43.877 30.779.068-.093.163-.115a5.973 5.973 0 0 1 .262.729v.185a.659.659 0 0 1 .439.613l-.309.52-.484-.246-.139-.094v-1.5z" style="fill:#794622;stroke:#000;stroke-width:.050000000745058px"/><path d="M39.3 34.887s.018-.022.006-.031-.008-.011-.029.014a.221.221 0 0 0-.02.255s.009.022.024.015c0 0 .014-.006 0-.025a.209.209 0 0 1 .019-.228z" style="fill:#fff"/><path d="M40.754 34.786a.113.113 0 0 0-.021-.1.119.119 0 0 1-.015-.082M41.074 29.462a.689.689 0 0 0 .041.223c.04.094.176.258.184.346" style="fill:none;stroke:#000;stroke-miterlimit:10;stroke-width:.050000000745058px"/><path d="M44.466 33.917a1.245 1.245 0 0 1 .343.065c.116.054.205.111.338.189 0 0 .062.076.325.03 0 0 .454-.1.454.225 0 0 .543.041.321.476a.28.28 0 0 1-.463.1s.2.263-.187.366a.3.3 0 0 1-.356-.2.229.229 0 0 1 .062-.23.4.4 0 0 1-.227-.156s.285.329-.027.448c0 0-.391.09-.414-.284a.214.214 0 0 0-.12-.234.7.7 0 0 1-.454-.384s.449-.217.405-.411z" style="fill:#d21f26;stroke:#000;stroke-linejoin:round;stroke-width:.050000000745058px"/><path style="fill:none;stroke:#000;stroke-miterlimit:10;stroke-width:.050000000745058px" d="m40.895 30.031.37 2.735M40.98 30.025l.416 2.549M41.058 30.013l.479 2.528"/><path style="fill:#794622;stroke:#000;stroke-width:.050000000745058px" d="m41.948 32.283-.868-2.741-.032.008.767 2.774.133-.041z"/><path style="fill:none;stroke:#000;stroke-miterlimit:10;stroke-width:.050000000745058px" d="m41.324 29.913.876 2.025M41.265 29.945l.846 2.116"/><path d="M39.877 35.414a.307.307 0 0 1-.088-.249s.006-.034-.013-.039c0 0-.019-.008-.022.032a.292.292 0 0 0 .094.263.026.026 0 0 0 .023.006s.014-.003.006-.013z" style="fill:#fff"/><path style="fill:none;stroke:#000;stroke-miterlimit:10;stroke-width:.050000000745058px" d="m41.363 29.885.904 1.848M41.116 30l.554 2.488"/><path d="M45.65 31.843a1.022 1.022 0 0 1-.483-.661 1.289 1.289 0 0 1 .1-.812 1.119 1.119 0 0 1 .7-.587 1.468 1.468 0 0 0-.55.64 1.509 1.509 0 0 0-.04.616 1.667 1.667 0 0 0 .116.464z" style="fill:#f4ce10;stroke:#000;stroke-miterlimit:2.613;stroke-width:.050000000745058px"/><path d="m43.945 30.686-1.663.48-.091.677a1.961 1.961 0 0 1-1.2.616l.624.608 1.2.23.63-.444.569-.481a2.562 2.562 0 0 1-.026-.639 1.9 1.9 0 0 1 .026-.215 4.989 4.989 0 0 1-.069-.832z" style="fill:#794622;stroke:#000;stroke-width:.050000000745058px"/><path d="M42.214 31.673s1.095-.313 1.749-.564M41.688 32.244a9.249 9.249 0 0 0 2.328-.726l.354-.218" style="fill:none;stroke:#000;stroke-miterlimit:10;stroke-width:.050000000745058px"/><path d="m44.37 31.485-.38.248a8.956 8.956 0 0 1-2.693.661M43.989 32.191a6.242 6.242 0 0 1-1.848.561" style="fill:none;stroke:#000;stroke-miterlimit:10;stroke-width:.050000000745058px"/><path d="M45.39 30.642s.351-.147.517 0a.522.522 0 0 1 .475 0 2.623 2.623 0 0 1 .392.291s.112.088.071.367a.632.632 0 0 0-.024.294s.077-.014.232.154c0 0 .2.207.368.024a.308.308 0 0 1-.377.214s.157.112.02.4a.5.5 0 0 0 .06.463.428.428 0 0 1-.27-.408.67.67 0 0 0-.06-.351s.083.132-.11.414a.4.4 0 0 0-.026.413.388.388 0 0 1-.253-.4c.027-.31.2-.181.087-.466a.451.451 0 0 1-.11.22.4.4 0 0 0-.146.4.52.52 0 0 1-.127-.384.737.737 0 0 1 .08-.253l-.525-.272-.262-.432z" style="fill:#d21f26;stroke:#000;stroke-linejoin:round;stroke-width:.050000000745058px"/><path d="M39.44 32.373a.189.189 0 0 1 .272-.129.487.487 0 0 1 .48-.36.393.393 0 0 1 .428.386.377.377 0 0 1 .317-.141s.343-.019.215.484l.065.063a.719.719 0 0 1 .8-.414.357.357 0 0 1 .182.612s.259.308.479.279a.777.777 0 0 0 .634-.443.991.991 0 0 1 .855-.386.3.3 0 0 1 .252.18 1.1 1.1 0 0 1 1.235-.691l.387.178.147.062-.219.565-.534 1.1-.405.114-.423-.222-.146.072-.012.33-.558.367-.388.146-.427.267-.1.239a.8.8 0 0 0-.5 0l-.088-.2-.249-.217-.969-.418-.175-.516-.176-.072-.2.207-.29.031-.431-.267z" style="fill:#fff;stroke:#273376;stroke-miterlimit:10;stroke-width:.050000000745058px"/><path d="M43.657 28.358s-.369-.015-.356.335" style="fill:none;stroke:#000;stroke-miterlimit:2.613;stroke-width:.050000000745058px"/><path d="M46.089 32.079a1.246 1.246 0 0 1-.819-.813 1.338 1.338 0 0 1 .08-.888.953.953 0 0 1 .791-.631.248.248 0 0 1 .279.189.17.17 0 0 1-.083.188.234.234 0 0 1-.278-.03.13.13 0 0 1-.016-.16.128.128 0 0 1 .127-.032.09.09 0 0 1 .06.095.087.087 0 0 0-.084-.1s-.194-.039-.421.22a1.362 1.362 0 0 0-.3.8 1.088 1.088 0 0 0 .928 1.068 2.841 2.841 0 0 0-.289.634 6.693 6.693 0 0 1-.409.984.7.7 0 0 1-.858.291s-.352-.142-.352-.376a.2.2 0 0 1 .187-.23s.207-.014.2.148c0 0 .006.176-.22.136 0 0-.079-.016-.065-.087 0 0 .013-.063.108-.036a.122.122 0 0 0-.075 0 .064.064 0 0 0-.038.061.069.069 0 0 0 .044.062.305.305 0 0 0 .1.015.34.34 0 0 0 .2.148.506.506 0 0 0 .439-.068.785.785 0 0 0 .19-.239 6.2 6.2 0 0 0 .325-.771 4.829 4.829 0 0 1 .2-.5z" style="fill:#f4ce10;stroke:#000;stroke-miterlimit:2.613;stroke-width:.050000000745058px"/><path d="M44.273 33.687s.121-.015.121.083c0 0-.008.143-.2.112a.164.164 0 0 1-.122-.23.2.2 0 0 1 .223-.116.3.3 0 0 1 .248.223.437.437 0 0 1-.041.337 1.129 1.129 0 0 1-.525.339 5.1 5.1 0 0 0-.7.306s-.247.168-.138.324a.148.148 0 0 0 .106.06.083.083 0 0 0 .085-.065.073.073 0 0 1-.044.056.107.107 0 0 1-.108-.018.1.1 0 0 1-.01-.131.169.169 0 0 1 .214-.04.143.143 0 0 1 .078.187.218.218 0 0 1-.207.118.337.337 0 0 1-.2-.077.348.348 0 0 1-.02-.453.743.743 0 0 1 .3-.2c.116-.043.334-.13.561-.211a1.009 1.009 0 0 0 .4-.229.47.47 0 0 0 .109-.234s.023-.111-.051-.135a.178.178 0 0 0-.079-.01s-.004.004 0 .004z" style="fill:#f4ce10;stroke:#000;stroke-miterlimit:2.613;stroke-width:.050000000745058px"/><path d="M44.284 33.686a.218.218 0 0 1 .215.123.652.652 0 0 1 .057.146M44.6 33.439s-.133.021-.065.193a.453.453 0 0 0 .22.238" style="fill:none;stroke:#000;stroke-miterlimit:2.613;stroke-width:.050000000745058px"/><path d="M42 28.72a.066.066 0 0 0 .06.055.077.077 0 0 0 .089-.047v-.021a.179.179 0 0 0-.086-.185s-.165-.123-.479.026c0 0-.249.109-.422.2 0 0-.445.218-.5.235a1.419 1.419 0 0 1-.5.1.706.706 0 0 1-.583-.235s-.132-.2 0-.327a.171.171 0 0 1 .141-.047.183.183 0 0 1 .117.062.109.109 0 0 1-.01.148.086.086 0 0 1-.131-.06s0-.009 0 0a.214.214 0 0 0 .027.167s.247.342.927-.012l.9-.46a.624.624 0 0 1 .718.119.3.3 0 0 1-.062.453.263.263 0 0 1-.338-.067s-.109-.178.062-.256a.157.157 0 0 1 .209.073c.06.136-.115.172-.132.075-.001.006-.007-.016-.007.004zM39.8 31.843a1.022 1.022 0 0 0 .483-.661 1.3 1.3 0 0 0-.1-.812 1.119 1.119 0 0 0-.7-.587 1.468 1.468 0 0 1 .55.64 1.53 1.53 0 0 1 .04.616 1.667 1.667 0 0 1-.116.464z" style="fill:#f4ce10;stroke:#000;stroke-miterlimit:2.613;stroke-width:.050000000745058px"/><path d="M41.8 28.358s.37-.015.357.335" style="fill:none;stroke:#000;stroke-miterlimit:2.613;stroke-width:.050000000745058px"/><path d="M39.364 32.079a1.249 1.249 0 0 0 .819-.813 1.338 1.338 0 0 0-.08-.888.953.953 0 0 0-.791-.631.248.248 0 0 0-.279.189.169.169 0 0 0 .082.188.235.235 0 0 0 .279-.03.112.112 0 0 0-.112-.192.091.091 0 0 0-.059.095.088.088 0 0 1 .085-.1s.194-.039.421.22a1.362 1.362 0 0 1 .3.8 1.088 1.088 0 0 1-.928 1.068 2.906 2.906 0 0 1 .289.634 6.693 6.693 0 0 0 .409.984.694.694 0 0 0 .858.291s.343-.144.343-.378a.2.2 0 0 0-.187-.23s-.207-.014-.2.148c0 0-.006.176.22.136 0 0 .079-.016.064-.087 0 0-.012-.063-.108-.036a.125.125 0 0 1 .076 0 .064.064 0 0 1 .038.061.069.069 0 0 1-.045.062.3.3 0 0 1-.1.015.34.34 0 0 1-.2.148.506.506 0 0 1-.439-.068.777.777 0 0 1-.191-.239 6.263 6.263 0 0 1-.324-.771 4.829 4.829 0 0 0-.2-.5z" style="fill:#f4ce10;stroke:#000;stroke-miterlimit:2.613;stroke-width:.050000000745058px"/><path d="M41.179 33.687s-.12-.015-.12.083c0 0 .007.143.2.112a.164.164 0 0 0 .122-.23.2.2 0 0 0-.223-.116.3.3 0 0 0-.248.223.437.437 0 0 0 .041.337 1.129 1.129 0 0 0 .525.339 5.1 5.1 0 0 1 .7.306s.247.168.138.324a.148.148 0 0 1-.106.06.082.082 0 0 1-.085-.065.075.075 0 0 0 .045.056.107.107 0 0 0 .108-.018.1.1 0 0 0 .009-.131.168.168 0 0 0-.213-.04.143.143 0 0 0-.078.187.216.216 0 0 0 .207.118.333.333 0 0 0 .2-.077.347.347 0 0 0 .021-.453.753.753 0 0 0-.3-.2c-.116-.043-.334-.13-.561-.211a1 1 0 0 1-.4-.229.47.47 0 0 1-.109-.234s-.023-.111.051-.135a.176.176 0 0 1 .078-.01s.002.004-.002.004z" style="fill:#f4ce10;stroke:#000;stroke-miterlimit:2.613;stroke-width:.050000000745058px"/><path d="M41.169 33.686a.219.219 0 0 0-.216.123.617.617 0 0 0-.056.146M40.853 33.439s.133.021.065.193a.457.457 0 0 1-.22.238M42.405 28.673a.667.667 0 0 1 .65.02M40.575 30.472s.045-.164-.16-.451c0 0-.134-.263-.2-.432M40.673 29.409s.116.258.156.374l.174.389" style="fill:none;stroke:#000;stroke-miterlimit:2.613;stroke-width:.050000000745058px"/><path d="M40.731 30.653a.429.429 0 0 1 .107.32M40.33 30.526s.134.058.125.383a.412.412 0 0 0 .187.356M40.312 31.348s.418-.042.441.194c0 0 .009.225.151.25 0 0 .214.019.256.2M40.444 31.609a.641.641 0 0 0 .144.144M40.98 31.361a.95.95 0 0 1 .126.233M41.44 29.589a.943.943 0 0 0 .193.18M41.832 30.311s.208.093.172.572a.918.918 0 0 0 .06.434" style="fill:none;stroke:#000;stroke-miterlimit:10;stroke-width:.050000000745058px"/><path d="m40.853 29.986.014.045a.8.8 0 0 0 .573-.218l-.021-.044a.836.836 0 0 0-.566.217z" style="fill:#794622;stroke:#000;stroke-width:.050000000745058px"/><path d="M42.2 31.813s1.288-.351 1.785-.556" style="fill:none;stroke:#000;stroke-miterlimit:10;stroke-width:.050000000745058px"/><path style="fill:#794622;stroke:#000;stroke-width:.050000000745058px" d="m42.042 29.602.637-.222.015.039-.637.221-.015-.038z"/><path style="fill:none;stroke:#000;stroke-miterlimit:10;stroke-width:.050000000745058px" d="m42.111 29.622.423 1.896M42.184 29.596l.485 1.888M42.267 29.568l.53 1.873M42.475 29.495l.722 1.407M42.57 29.462l.77 1.398M42.641 29.438l.833 1.384M42.505 31.533l.327-.099M42.258 31.345s.958-.256 1.683-.523M42.245 31.441a14.909 14.909 0 0 0 1.7-.508M42.616 32.344l.063.178.174-.051-.059-.176M43.106 32.216l.064.178.173-.05-.059-.177M42.282 31.166l-.015-.241 1.592-.442.086.203M42.942 30.738l.087.212M43.499 30.583l.101.202M43.631 30.546l.095.192M43.757 30.512l.1.199M43.859 30.483l.175-.09.074.178M43.945 30.439l.089.184"/><path d="M40 33.211a.376.376 0 0 1 0-.572s-.338-.151-.285-.4M40.553 33.439s-.323.04-.227-.534a3.445 3.445 0 0 0-.18.345.252.252 0 0 0 .125.3c.055.031.344.1.438-.076M40.192 32.56a.259.259 0 0 0-.038.314M40.328 32.586a.582.582 0 0 0 .122.308M40.42 32.509a.513.513 0 0 0 .182.375M40.511 32.428a.577.577 0 0 0 .213.421M41.561 32.81a.379.379 0 0 1 .332-.2.169.169 0 0 0 .073.326.326.326 0 0 0 .234-.059" style="fill:none;stroke:#273376;stroke-miterlimit:10;stroke-width:.050000000745058px"/><path d="M42.093 33.785s-.554-.238-.5-.581a.409.409 0 0 1 .246-.308" style="fill:none;stroke:#273376;stroke-miterlimit:10;stroke-width:.050000000745058px"/><path d="M41.726 33.114a.252.252 0 0 0 .06.25M41.851 33.013a.285.285 0 0 0 .044.284M41.984 32.935a.234.234 0 0 0 .016.255M41.479 33.82a1.155 1.155 0 0 0 .539.242M41.383 33.9a1.56 1.56 0 0 0 .46.24M41.276 33.955a1.559 1.559 0 0 0 .567.3M42.7 34.516s-.344.169-.078.349M42.481 34.329s.389-.187.558-.256M42.621 34.426s.563-.314.73-.382M42.91 34.446s.481-.293.739-.421M43.228 34.436a7.071 7.071 0 0 1 .653-.411M43.994 33.728s-.162-.218-.7 0a1.893 1.893 0 0 1 .584-.289M44.42 32.5a.549.549 0 0 1 0 .284" style="fill:none;stroke:#273376;stroke-miterlimit:10;stroke-width:.050000000745058px"/><path d="M43.553 33.36a.739.739 0 0 1 .394-.223.262.262 0 0 0 .3.135.292.292 0 0 0 .232-.392s-.069-.248-.448-.273M45.154 32.191s.385.063.378.35a.5.5 0 0 1-.465.516" style="fill:none;stroke:#273376;stroke-miterlimit:10;stroke-width:.050000000745058px"/><path d="M45.478 32.368a.665.665 0 0 1 .341-.3" style="fill:none;stroke:#273376;stroke-miterlimit:10;stroke-width:.050000000745058px"/><path d="M45.533 31.948s.1.154.177.177M45.478 32.071a1.092 1.092 0 0 0 .132.129M45.445 32.178a.39.39 0 0 0 .1.093M43.464 30.512a.234.234 0 0 1 .262-.065M44.486 31.345a.388.388 0 0 1 .53-.284" style="fill:none;stroke:#273376;stroke-miterlimit:10;stroke-width:.050000000745058px"/><path d="M44.849 31.024a.4.4 0 0 0-.06-.313M44.568 31.01a.161.161 0 0 1 .008.156" style="fill:none;stroke:#273376;stroke-miterlimit:10;stroke-width:.050000000745058px"/><path d="M45.405 35.608s.463-.193.321-.521a.161.161 0 0 0-.147-.1s-.178.008-.143.226a.675.675 0 0 1-.031.395z" style="fill:#64b3d0;stroke:#273376;stroke-miterlimit:2.613;stroke-width:.050000000745058px"/><path d="M45.573 35.414a.307.307 0 0 0 .088-.249s-.006-.034.012-.039c0 0 .02-.008.023.032a.294.294 0 0 1-.095.263.023.023 0 0 1-.022.006s-.014-.003-.006-.013z" style="fill:#fff"/><path d="M46.064 35.312a.366.366 0 0 0 .149-.5.147.147 0 0 0-.149-.072s-.2.057-.044.314a.432.432 0 0 1 .044.258z" style="fill:#64b3d0;stroke:#273376;stroke-miterlimit:2.613;stroke-width:.050000000745058px"/><path d="M46.145 34.886s-.017-.021-.005-.03.008-.011.029.014a.221.221 0 0 1 .02.255s-.009.022-.025.015c0 0-.013-.006 0-.025a.212.212 0 0 0-.019-.229z" style="fill:#fff"/><path d="M45.091 35.526a.374.374 0 0 1-.3-.427.17.17 0 0 1 .19-.129s.185.043.064.261a.3.3 0 0 0 .046.295z" style="fill:#64b3d0;stroke:#273376;stroke-miterlimit:2.613;stroke-width:.050000000745058px"/><path d="M44.951 35.116s-.013-.016 0-.023c0 0 .015-.006.026.014a.14.14 0 0 1 .006.13.158.158 0 0 0-.016.106s0 .016-.011.018a.023.023 0 0 1-.015-.016.136.136 0 0 1 .013-.1s.046-.085-.003-.129z" style="fill:#fff"/><path d="M45.352 34.877a.385.385 0 0 1 .374.018s-.017-.068-.147-.1a.268.268 0 0 0-.266-.165 1.226 1.226 0 0 0 .187.162s-.113.008-.148.085zM45.5 34.382a1.459 1.459 0 0 1 .2.157.533.533 0 0 1 .131-.1.216.216 0 0 0-.131.025.388.388 0 0 0-.2-.082z"/><path d="M44.7 34.786a.113.113 0 0 1 .021-.1.119.119 0 0 0 .015-.082M46.189 31.863s.216-.014.252-.168M46.821 31.594a.226.226 0 0 0-.144.06.153.153 0 0 1-.126.063" style="fill:none;stroke:#000;stroke-miterlimit:10;stroke-width:.050000000745058px"/><path d="M45.868 31.28a.33.33 0 0 0 .175-.05.073.073 0 0 1 .1.025.086.086 0 0 1-.05.134s-.137.063.08.189c0 0-.258-.085-.154-.2 0 0 .112-.074.071-.1 0 0-.012-.022-.057 0a.211.211 0 0 1-.165.002z"/><path d="M46.022 28.787s.051-.063.03-.253a.148.148 0 0 1 .229-.158s.072.057.006.178a.507.507 0 0 1-.265.233z" style="fill:#64b3d0;stroke:#273376;stroke-miterlimit:2.613;stroke-width:.050000000745058px"/><path d="M46.09 28.645a.228.228 0 0 0 .035-.211s0-.014.009-.015.016 0 .019.01a.3.3 0 0 1-.04.238s-.014.012-.023 0a.015.015 0 0 1 0-.022z" style="fill:#fff"/><path d="M45.964 28.718s0-.077-.15-.207-.026-.25.063-.249c0 0 .092 0 .125.129a.437.437 0 0 1-.038.327z" style="fill:#64b3d0;stroke:#273376;stroke-miterlimit:2.613;stroke-width:.050000000745058px"/><path d="M45.941 28.551s0-.094-.128-.192c0 0-.011-.011-.005-.017a.016.016 0 0 1 .023 0s.141.1.144.216c0 0 0 .018-.017.014a.019.019 0 0 1-.017-.021z" style="fill:#fff"/><path d="M45.767 28.66s-.038-.062-.217-.12-.13-.2-.055-.232c0 0 .078-.031.162.065a.417.417 0 0 1 .11.287z" style="fill:#64b3d0;stroke:#273376;stroke-miterlimit:2.613;stroke-width:.050000000745058px"/><path d="M45.689 28.545a.287.287 0 0 0-.2-.123s-.015-.007-.012-.014a.015.015 0 0 1 .019-.012s.176.039.23.14c0 0 .007.017-.01.019a.018.018 0 0 1-.027-.01z" style="fill:#fff"/><path d="M45.879 28.723a.49.49 0 0 1-.275-.063c-.191-.085-.275.062-.242.141 0 0 .035.082.184.067a.549.549 0 0 0 .333-.145z" style="fill:#64b3d0;stroke:#273376;stroke-miterlimit:2.613;stroke-width:.050000000745058px"/><path d="M45.434 28.779a.31.31 0 0 0 .244-.007s.016 0 .019.005a.013.013 0 0 1-.008.019.42.42 0 0 1-.276.008s-.016-.011 0-.021a.02.02 0 0 1 .021-.004z" style="fill:#fff"/><path d="M45.6 28.169a.129.129 0 0 1 .073.145" style="fill:none;stroke:#000;stroke-miterlimit:2.613;stroke-width:.050000000745058px"/><path d="M46.022 28.183s.037.109 0 .167" style="fill:none;stroke:#000;stroke-miterlimit:10;stroke-width:.050000000745058px"/><path d="M39.419 28.787s-.051-.063-.03-.253a.148.148 0 0 0-.229-.158s-.072.057-.006.178a.507.507 0 0 0 .265.233z" style="fill:#64b3d0;stroke:#273376;stroke-miterlimit:2.613;stroke-width:.050000000745058px"/><path d="M39.351 28.645a.224.224 0 0 1-.035-.211s0-.014-.009-.015-.016 0-.019.01a.3.3 0 0 0 .04.238s.014.012.023 0a.016.016 0 0 0 0-.022z" style="fill:#fff"/><path d="M39.477 28.718s.005-.077.15-.207.026-.25-.063-.249c0 0-.092 0-.125.129a.437.437 0 0 0 .038.327z" style="fill:#64b3d0;stroke:#273376;stroke-miterlimit:2.613;stroke-width:.050000000745058px"/><path d="M39.5 28.551s0-.094.129-.192c0 0 .01-.011 0-.017a.015.015 0 0 0-.022 0s-.141.1-.145.216c0 0 0 .018.018.014a.019.019 0 0 0 .02-.021z" style="fill:#fff"/><path d="M39.673 28.66s.038-.062.217-.12.131-.2.056-.232c0 0-.079-.031-.162.065a.412.412 0 0 0-.111.287z" style="fill:#64b3d0;stroke:#273376;stroke-miterlimit:2.613;stroke-width:.050000000745058px"/><path d="M39.752 28.545a.283.283 0 0 1 .2-.123s.015-.007.013-.014a.015.015 0 0 0-.019-.012s-.176.039-.231.14c0 0-.007.017.01.019a.02.02 0 0 0 .027-.01z" style="fill:#fff"/><path d="M39.561 28.723a.489.489 0 0 0 .275-.063c.192-.085.276.062.242.141 0 0-.035.082-.183.067a.551.551 0 0 1-.334-.145z" style="fill:#64b3d0;stroke:#273376;stroke-miterlimit:2.613;stroke-width:.050000000745058px"/><path d="M40.007 28.779a.312.312 0 0 1-.245-.007s-.016 0-.018.005a.013.013 0 0 0 .008.019.42.42 0 0 0 .276.008s.016-.011 0-.021a.021.021 0 0 0-.021-.004z" style="fill:#fff"/><path d="M39.842 28.169a.13.13 0 0 0-.074.145" style="fill:none;stroke:#000;stroke-miterlimit:2.613;stroke-width:.050000000745058px"/><path d="M39.419 28.183s-.038.109 0 .167" style="fill:none;stroke:#000;stroke-miterlimit:10;stroke-width:.050000000745058px"/><path d="M43.573 27.188a.65.65 0 0 1 .035.3c-.023.128.008.161.059.186a.129.129 0 0 0 .158-.117.265.265 0 0 1-.114.36.279.279 0 0 1-.31-.032.332.332 0 0 1-.048-.282.585.585 0 0 0-.024-.313.34.34 0 0 1 .071.28s-.049.334.221.318a.2.2 0 0 0 .193-.21.173.173 0 0 1-.157.05.143.143 0 0 1-.108-.158 1.826 1.826 0 0 0 .024-.382zM43.267 27.737a.37.37 0 0 1-.279.328s.037-.048-.022-.179a.33.33 0 0 1-.054-.2s-.084.06.012.219a.192.192 0 0 1-.01.215c-.014.008.436-.051.353-.383zM42.924 27.474a.335.335 0 0 1-.068-.218c0-.152-.036-.189-.058-.206a.779.779 0 0 1 .024.212.355.355 0 0 0 .018.165s-.144.021-.235-.171-.174-.168-.217-.167c0 0 .051.005.152.173s.129.201.384.212zM42.251 27.077a1.049 1.049 0 0 1 .086.278.4.4 0 0 1-.245-.212.208.208 0 0 0-.131.281.523.523 0 0 1-.258-.19.877.877 0 0 0 .191.1s-.01-.175.23-.241c0 0 .036.157.156.194 0-.001-.009-.099-.029-.21zM42.568 26.765a.272.272 0 0 0 .2.093.235.235 0 0 0 .2-.093s-.009.155-.2.156c.003 0-.2.007-.2-.156zM41.727 27.822a1.39 1.39 0 0 1 .122.112.087.087 0 0 0 .133-.019s.078-.131.173-.128a.548.548 0 0 0-.144.168.094.094 0 0 1-.077.051.117.117 0 0 1-.111-.038.808.808 0 0 1-.096-.146zM42.771 26.145c-.2 0-.032.144-.032.144a.229.229 0 0 1-.331.232c-.136-.066-.03-.232-.03-.232a.154.154 0 0 0-.056.225c.1.134.355.074.449-.049.095.123.351.183.449.049a.153.153 0 0 0-.055-.225s.106.166-.03.232a.23.23 0 0 1-.332-.232s.172-.144-.032-.144zM42.9 25.9a.471.471 0 0 1 .055.279.269.269 0 0 0-.055-.279zM42.271 26.159a.154.154 0 0 0-.144-.131.593.593 0 0 1 .144.131zM43.273 26.159a.156.156 0 0 1 .145-.131.61.61 0 0 0-.145.131zM42.066 26.344a.173.173 0 0 0 .165-.041zM41.735 25.6s.119-.012.238.15a.68.68 0 0 0-.147.092.141.141 0 0 1 .058-.1.257.257 0 0 0-.149-.142zM43.729 25.6s-.119-.012-.238.15a.68.68 0 0 1 .147.092.141.141 0 0 0-.058-.1.257.257 0 0 1 .149-.142zM42.81 25.722a.37.37 0 0 0 .24-.041s.165-.08.27 0a.371.371 0 0 0-.267.041s-.176.088-.243 0z"/><path d="M42.921 25.821a.372.372 0 0 1 .37-.118s-.076.204-.37.118z" style="fill:#fff"/><path d="M43.113 25.711a.065.065 0 0 1 0 .128.065.065 0 0 1 0-.128z" style="fill:#794622"/><path d="M43.113 25.736a.037.037 0 0 1 .033.039.033.033 0 1 1-.066 0 .037.037 0 0 1 .033-.039zM42.325 25.509a.777.777 0 0 1 .282.071.241.241 0 0 0 .243-.026.93.93 0 0 0 .23-.177 1.782 1.782 0 0 1-.3.156.318.318 0 0 1-.1-.125s.011-.055.127-.158c0 0-.156.043-.187.164a.42.42 0 0 0 .089.132s-.029.012-.105-.031a.5.5 0 0 0-.279-.006zM42.771 26.474c-.152.121 0 .108 0 .108s.153.018 0-.108zM42.683 25.722a.37.37 0 0 1-.24-.041s-.165-.08-.269 0a.37.37 0 0 1 .267.041s.176.088.242 0z"/><path d="M42.572 25.821s-.091-.147-.369-.118c-.003-.003.075.204.369.118z" style="fill:#fff"/><path d="M42.38 25.711a.065.065 0 1 1-.055.064.06.06 0 0 1 .055-.064z" style="fill:#794622"/><path d="M42.38 25.736a.037.037 0 0 1 .033.039.033.033 0 1 1-.066 0 .037.037 0 0 1 .033-.039z"/><path d="M48.146 24.5v9.224c0 2.464-5.386 3.264-5.386 3.264s-5.386-.8-5.386-3.264V24.5z" style="fill:none;stroke:#000;stroke-width:.050000000745058px"/><path style="fill:#273376" d="M-15.612 3.545h43.116v23.956h-43.116z"/><path style="fill:#fff" d="M27.535 27.502h-4.79L9.628 20.216l-.033 7.286H2.347l.055-7.265-13.181 7.265h-4.82v-2.684l9.491-5.26-9.491-.058v-7.954l9.471-.011-9.471-5.307V3.544h4.654L2.35 10.889l-.007-7.345h7.24l.011 7.298 13.087-7.298h4.854v2.743l-9.493 5.247 9.493-.024v8.012l-9.421-.01 9.421 5.295v2.695z"/><path d="M27.7 13.254V18.1q-9.635 0-19.269-.005c-.174 0-.226.037-.226.245q.011 4.725.005 9.449H3.876v-9.4c0-.222-.031-.293-.249-.293q-9.627.012-19.248.004v-4.846q9.639 0 19.278.005c.179 0 .224-.046.223-.249q-.009-4.726 0-9.454h4.328q0 4.7-.005 9.4c0 .238.043.3.265.3q9.615-.008 19.232-.002z" style="fill:#ce202c"/><path d="M27.5 3.55c-.032.071-.1.078-.156.108l-13.986 7.77a.861.861 0 0 1-.432.116c-.97-.005-1.94 0-2.922 0 .04-.1.125-.109.19-.145q6.931-3.852 13.862-7.7c.072-.04.164-.052.209-.144zM-15.558 27.5c1.032-.579 2.064-1.161 3.1-1.736l11.047-6.143a.885.885 0 0 1 .453-.117c.891.006 1.782 0 2.673 0h.224a.549.549 0 0 1-.25.18q-6.94 3.861-13.884 7.72c-.05.028-.1.061-.148.092zM27.5 27.494q-1.7-.954-3.407-1.906l-10.686-5.936c-.06-.034-.135-.047-.184-.143h1.727c.338 0 .677.015 1.014 0a1.379 1.379 0 0 1 .778.208q5.345 2.976 10.694 5.941c.032.017.066.033.1.049l.009 1.7c-.002.032.004.076-.045.087z" style="fill:#ce202c"/></g></svg>