<svg xmlns="http://www.w3.org/2000/svg" viewBox="0 0 55 55" style="enable-background:new 0 0 55 55" xml:space="preserve"><path d="M50.1 33.2c-3.2 12.5-15.8 20.1-28.3 17C9.6 47.3 2 34.9 4.7 22.3c0-.2.1-.3.1-.5C8 9.4 20.6 1.8 33.1 4.9s20.1 15.8 17 28.3z" style="fill:#f7931a"/><path d="M37.8 24.2c.5-3.1-1.9-4.8-5.1-5.9l1.1-4.2-2.5-.6-1 4.1c-.7-.2-1.4-.3-2-.5l1-4.1-2.5-.6-1 4.2-5.2-1.3-1 2.7s1.9.4 1.9.5c.7.1 1.3.7 1.2 1.4l-2.9 11.6c-.2.5-.7.8-1.2.6l-1.9-.5-1.3 2.9 5.2 1.3-1.1 4.2 2.5.6 1.1-4.2c.7.2 1.4.4 2 .5l-1 4.2 2.5.6 1.1-4.2c4.4.8 7.6.5 9-3.5 1.1-3.2 0-5-2.4-6.2 2-.2 3.4-1.8 3.5-3.6zm-5.9 8.2c-.8 3.2-6.1 1.5-7.9 1l1.4-5.6c1.8.4 7.3 1.3 6.5 4.6zm.8-8.3c-.7 2.9-5.2 1.4-6.6 1l1.3-5.1c1.4.5 6.1 1.1 5.3 4.1z" style="fill:#fff"/></svg>