<svg xmlns="http://www.w3.org/2000/svg" viewBox="0 0 55 55"><path d="M27.5 4.2a23.114 23.114 0 0 0-12.955 3.949v27.118h34.927A23.311 23.311 0 0 0 27.5 4.2z" style="fill:#c7313d"/><path d="M14.545 35.518V46.851A23.114 23.114 0 0 0 27.5 50.8a23.35 23.35 0 0 0 21.972-15.533H14.545z" style="fill:#48a558"/><path d="M4.634 30.183v-.748h.476V28.7h.455v-.74h.413v-.925h-.413V26.3H5.11v-.74h-.476v-.748h-.277a23.046 23.046 0 0 0 0 5.371zM5.053 23.279v.79h.491v.743h.393v-.743H6.4v-.743h.455v-.748h.455v-.747h.517v-.848h.463v-.8h-.429v-.706h-.549v-.8H5.957v.8h.91v.706h-.4v.8H6.01v.785h-.466v-.785h-.413c-.2.665-.361 1.339-.5 2.03v.266zM10.466 11.621a5.87 5.87 0 0 0-.236.262h.236zM10.476 12.61h.486v.753h-.486zM14.111 31.715h-.418v-.789h-.492v-.743h-.398v.743h-.455v.742h-.455v.748h-.455v.743h-.523v.852h-.465v.801h.434v.455h.994v-.455h.397v-.801h.461v-.784h.465v.784h.46v.801h.392v.455h.492v-1.256h-.434v-.831h.434v-.701h-.434v-.764zM10.079 22.578h-.455v-.747h-.5v.747h-.458v.748h-.455v.743h-.46v.743h-.444v.748h-.455v3.875h.455v.748h.444v.743h.46v.742h.455v.748h.456v.743h.5v-.743h.455v-.748h.455v-.742h.46v-.743h.444v-.748h.455V25.56h-.455v-.748h-.444v-.743h-.46v-.743h-.455zm-2.286 5.3h-.486v-.759h.486zm3.159-.759h.486v.759h-.486zm-1.825-3.814h.486v.759h-.486zm.486 8.379h-.486v-.753h.486zm.837-6.857v1.538h-.455v.706h-.418v.847h.418v.712h.455v1.537h-.413v-.826h-.46v-.711h-.408v.711h-.46v.826H8.3V28.63h.45v-.712h.419v-.847H8.75v-.706H8.3v-1.538h.414v.827h.46v.711h.408v-.711h.46v-.827zM14.111 25.56h-.476v.737h-.455v.738h-.418v.925h.418v.738h.455v.737h.476v.748h.434v-5.371h-.434v.748zM13.175 12.61h.492v.753h-.492z" style="fill:#fff"/><path d="M14.1 8.75h-.419c-.01.011-.021.016-.031.026v.733h-.466v.753h-.392v.774h-.439v.8h-.539v-.795h-.444V10.7c-.136.131-.272.261-.4.4h.005v.785h.4v.743h.471v.721h-.471v.743h-.4v.785h-.507v-.787h-.4v-.743H9.6v-.721h.465v-.56c-.319.356-.622.722-.915 1.093v.188H9c-.11.142-.214.288-.319.435v.308h-.224l-.183.262v.523h-.345c-.162.251-.318.5-.471.758h.366v.8h.44v.727h.45v.758h.434v.759H9.6v-.759h.434v-.758h.449v-.727h.44v-.8h.439v-.795h.487v-.732h.451v.732h.487v.8h.439v.8h.439v.727h.45v.758h.434v-1.495h-.434V15.6h.434v-2.253h-.471v.743h-.4v.785h-.508v-.785h-.408v-.743H12.3v-.721h.466v-.743h.408V11.1h.507v.785h.4v.743h.471v-2.3h-.429v-.757h.429V8.149c-.152.094-.3.2-.444.3zm-4.518 7.678h-.434v-1.59h.434zM14.053 20.183h-.392v.8h-.46v.785h-.465v-.785h-.461v-.8h-.397v-.706h.905v-.805h-1.365v.805h-.544v.706h-.435v.8h.466v.848h.533v.747h.455v.748h.455v.743h.455v.743h.398v-.743h.492v-.79h.418v-.763h.434v-.701h-.434v-.832h.434v-1.506h-.492v.706zM5.544 33.227h.466v.784h.46v.8h.4v.455h1v-.455h.434v-.8H7.84v-.852h-.533v-.743h-.455v-.748H6.4v-.742h-.46v-.743h-.396v.743h-.491v.789h-.419v.272c.136.686.3 1.36.5 2.024h.413zM14.053 35.267h.492v.251h-.492zM11.433 35.518v.805h1.35v-.805h-.905v-.251h-.994v.251h.549zM6.867 35.518h-.91v.805h1.371v-.805h.544v-.251H6.867v.251zM14.116 45.423v-.753h.429v-2.3h-.471v.743h-.4v.787h-.504v-.784h-.408v-.743H12.3v-.722h.466V40.9h.408v-.78h.507v.78h.4v.748h.471V39.4h-.434v-.831h.434v-1.487h-.434v.758h-.45v.727h-.439v.8h-.439v.795h-.49v.727h-.449v-.727h-.491v-.795h-.439v-.8h-.44v-.727h-.449v-.758H9.6v-.759h-.45v.759h-.436v.758h-.45v.727h-.44v.8h-.37c.151.256.308.507.47.758h.35v.528c.058.084.121.168.178.251h.23v.319c.105.147.209.288.319.429h.147v.194c.293.371.6.737.915 1.093v-.565H9.6v-.722h.465V40.9h.4v-.78h.507v.78h.4v.748h.471v.722h-.471v.743h-.4v.787h-.011c.136.136.272.267.408.4v-.34h.445v-.8h.539v.8h.439v.774h.392v.758h.466v.733a.092.092 0 0 1 .026.021h.424v.3c.146.1.292.2.444.3v-1.423zM9.6 40.157h-.437v-1.59H9.6z" style="fill:#fff"/><path style="fill:#fff" d="M13.175 41.632h.492v.753h-.492zM10.226 43.112c.078.094.156.178.24.267v-.267zM10.476 41.632h.486v.753h-.486z"/><path style="fill:#c7313d" d="M14.111 15.596h.434v.832h-.434zM14.111 20.983h.434v.832h-.434zM9.148 14.838h.434v1.59h-.434zM8.682 14.09v-.308c-.078.1-.151.2-.225.308zM9.148 13.347v-.188c-.047.063-.1.126-.147.188zM8.274 14.352c-.12.167-.235.345-.345.523h.345zM9.6 12.626v.721h.465v.743h.4v.785h.507v-.785h.4v-.743h.471v-.721h-.471v-.743h-.4V11.1h-.005c-.173.168-.34.346-.5.523v.262h-.237c-.057.058-.115.12-.167.183v.56zm.878-.016h.486v.753h-.486zM14.074 11.883h-.4V11.1h-.504v.785h-.408v.743H12.3v.721h.466v.743h.408v.785h.507v-.787h.4v-.743h.471v-.721h-.471zm-.408 1.48h-.491v-.753h.491zM14.116 9.571h.429v.753h-.429zM11.815 11.036v.8h.539v-.795h.439v-.774h.392v-.758h.466v-.733A23.6 23.6 0 0 0 11.37 10.7v.335zM14.1 8.452a8.563 8.563 0 0 0-.419.3h.419zM6.867 34.812h-.4v-.8H6.01v-.784h-.466v.784h-.413c.12.424.256.842.4 1.256h1.336z"/><path d="M14.111 17.155h-.45v-.727h-.439v-.8h-.439v-.795H12.3v-.732h-.449v.732h-.491v.8h-.439v.8h-.44v.727h-.449v.758H9.6v.759h-.45v-.759h-.436v-.758h-.45v-.727h-.44v-.8h-.366a22.953 22.953 0 0 0-2.327 5.35h.413v.785h.466v-.785h.46v-.8h.4v-.706h-.91v-.8h1.352v.8h.549v.706h.429v.8h-.466v.848h-.517v.747h-.455v.748H6.4v.743h-.46v.743h-.396v-.743h-.491v-.79h-.419v-.266a22.554 22.554 0 0 0-.277 1.8h.277v.748h.476v.739h.455v.738h.413v.925h-.413v.737H5.11v.737h-.476v.748h-.277c.068.607.162 1.208.277 1.8v-.272h.419v-.789h.491v-.743h.393v.743H6.4v.742h.455v.748h.455v.743h.53v.852h.466v.8h-.434v.455h3.012v-.455h-.434v-.8h.465v-.852h.523v-.743h.455v-.748h.455v-.742h.452v-.743h.4v.743h.492v.789h.418v.764h.434v-2.3h-.434v-.748h-.476V28.7h-.454v-.74h-.418v-.925h.418V26.3h.455v-.74h.476v-.748h.434v-2.3h-.434v.763h-.418v.79H13.2v.743h-.4v-.743h-.455v-.743h-.455v-.748h-.455v-.747h-.533v-.848h-.466v-.8h.435v-.706h.544v-.8h1.365v.8h-.9v.706h.4v.8h.461v.785h.459v-.785h.46v-.8h.392v-.706h.492v-1.56h-.434zm-3.577 6.171v.743h.46v.743h.444v.748h.455v3.875h-.455v.748h-.444v.743h-.46v.742h-.455v.748h-.455v.743h-.5v-.743h-.458v-.748h-.455v-.742h-.46v-.743h-.444v-.748h-.455V25.56h.455v-.748h.444v-.743h.46v-.743h.455v-.748h.456v-.747h.5v.747h.455v.748z" style="fill:#c7313d"/><path style="fill:#c7313d" d="M14.053 34.812h-.392v-.801h-.46v-.784h-.465v.784h-.461v.801h-.397v.455h2.175v-.455zM14.053 35.267h-2.175v.251h.9v.8h-1.35v-.8h-.549v-.251H7.872v.251h-.544v.8H5.957v-.8h.91v-.251H5.534a23.434 23.434 0 0 0 1.92 4.095h.37v-.8h.44v-.722h.45v-.758h.434v-.759H9.6v.759h.434v.758h.449v.727h.44v.8h.439v.795h.487v.727h.451v-.727h.487v-.795h.439v-.8h.439v-.727h.45v-.758h.434v-1.564h-.492zM14.111 38.567h.434v.832h-.434zM14.111 33.18h.434v.832h-.434z"/><path style="fill:#c7313d" d="M9.163 38.567h.435v1.59h-.435zM14.074 40.9h-.4v-.78h-.504v.78h-.408v.748H12.3v.722h.466v.743h.408v.787h.507v-.784h.4v-.743h.471v-.722h-.471zm-.408 1.486h-.491v-.753h.491zM10.466 43.112v.267c.162.172.329.345.5.517h.011v-.784h.4v-.743h.471v-.722h-.471V40.9h-.4v-.78h-.507v.78h-.4v.748H9.6v.722h.465v.565c.052.063.1.12.163.178zm.01-1.48h.486v.753h-.486zM8.682 40.9h-.23c.073.11.152.215.23.319zM9.148 41.647H9c.047.063.094.131.147.194zM8.274 40.12h-.35c.115.178.23.356.35.528zM14.116 44.67h.429v.753h-.429zM13.651 45.491h-.466v-.758h-.392v-.774h-.439v-.8h-.539v.8h-.445v.34a23.6 23.6 0 0 0 2.281 1.925zM14.1 46.245h-.424l.424.3zM7.307 27.118h.486v.758h-.486zM10.952 27.118h.486v.758h-.486zM9.127 30.931h.486v.753h-.486zM9.127 23.305h.486v.758h-.486zM10.037 25.654h-.46v.711h-.408v-.711h-.46v-.827h-.414V26.365h.455v.706h.419v.847H8.75v.712h-.455v1.537h.414v-.826h.46v-.711h.408v.711h.46v.826h.413V28.63h-.455v-.712h-.418v-.847h.418v-.706h.455V24.827h-.413v.827z"/></svg>