<svg xmlns="http://www.w3.org/2000/svg" viewBox="0 0 55 55"><defs><clipPath id="a"><circle cx="27.5" cy="27.5" r="23.32" fill="none"/></clipPath></defs><g fill-rule="evenodd" clip-path="url(#a)"><path fill="#f1f0f0" d="M9.98 4.18h35.04v46.64H9.98V4.18z"/><path fill="#ee2724" d="M-7.48 4.18H9.98v46.64H-7.48V4.18zM45.02 4.18h17.46v46.64H45.02V4.18zM27.44 12.66s2.07 3.89 2.36 4.39.59.57 1.31.23 1.75-.9 1.75-.9-1.16 6-1.34 7 .47 1.31 1.11.58 3-3.37 3-3.37.34 1.21.44 1.59.3.64 1 .51 3.59-.77 3.59-.77-1 3.61-1.12 4.09-.21.66.37 1 1.31.62 1.31.62-5.93 4.89-6.44 5.27-.61.61-.36 1.4.45 1.57.45 1.57l-6.51-.91c-.65-.09-.58.6-.57 1l.17 6.55h-1.04l.17-6.55c.01-.36.08-1-.57-1l-6.52.89s.2-.78.45-1.57.15-1-.36-1.4-6.44-5.27-6.44-5.27.72-.33 1.31-.62.48-.48.37-1-1.12-4.09-1.12-4.09 2.89.63 3.59.77.9-.13 1-.51.44-1.59.44-1.59 2.36 2.63 3 3.37 1.29.4 1.11-.58-1.34-7-1.34-7 1 .57 1.75.9 1 .27 1.31-.23 2.36-4.39 2.36-4.39z"/></g></svg>