<svg xmlns="http://www.w3.org/2000/svg" viewBox="0 0 55 55"><path d="M45.125 12.27 5.769 35.9a22.214 22.214 0 0 1-.643-1.889l38.63-23.19c.475.466.93.947 1.369 1.449z" style="fill:#f6d524"/><path d="m43.756 10.821-38.63 23.19a23.293 23.293 0 0 1 38.63-23.19zM50.8 27.5a23.29 23.29 0 0 1-39.555 16.679l38.63-23.185A23.067 23.067 0 0 1 50.8 27.5z" style="fill:#0f7ffd"/><path d="M49.236 19.106 9.88 42.73a23.3 23.3 0 0 1-4.111-6.83l39.356-23.63a23.249 23.249 0 0 1 4.111 6.836z" style="fill:#cd1120"/><path d="m49.875 20.994-38.63 23.185A25.6 25.6 0 0 1 9.88 42.73l39.356-23.624c.241.617.455 1.244.639 1.888zM17.228 8.551l1.737 5.34h5.611l-4.539 3.301 1.736 5.339-4.545-3.3-4.539 3.3 1.731-5.339-4.54-3.301h5.612l1.736-5.34z" style="fill:#f6d524"/></svg>