<svg xmlns="http://www.w3.org/2000/svg" viewBox="0 0 55 55"><path d="M44.853 11.967H10.147a23.269 23.269 0 0 1 34.706 0z" style="fill:#042b7d"/><path d="M49.466 35.267a23.235 23.235 0 0 1-4.613 7.766H10.147a23.318 23.318 0 0 1-4.613-7.766z" style="fill:#fff"/><path d="M44.853 43.033a23.269 23.269 0 0 1-34.706 0z" style="fill:#042b7d"/><path d="M50.8 27.5a23.163 23.163 0 0 1-1.334 7.767H5.534a23.278 23.278 0 0 1 0-15.534h43.932A23.163 23.163 0 0 1 50.8 27.5z" style="fill:#cd1225"/><path d="M49.466 19.733H5.534a23.318 23.318 0 0 1 4.613-7.766h34.706a23.235 23.235 0 0 1 4.613 7.766z" style="fill:#fff"/></svg>