<svg xmlns="http://www.w3.org/2000/svg" viewBox="0 0 55 55"><path d="M27.5 4.2a23.245 23.245 0 0 0-18.021 8.553c-.209.251-.407.507-.6.768h37.248A23.273 23.273 0 0 0 27.5 4.2zM9.479 42.247a23.267 23.267 0 0 0 36.648-.768H8.874c.198.261.396.521.605.768z" style="fill:#052a8d"/><path d="M5.533 35.268a23.226 23.226 0 0 0 3.341 6.211h37.253a23.422 23.422 0 0 0 3.34-6.211 22.992 22.992 0 0 0 .858-3.11H4.676a22.844 22.844 0 0 0 .857 3.11zM5.538 19.732a22.749 22.749 0 0 0-.862 3.105h45.649a22.192 22.192 0 0 0-.863-3.105 23.265 23.265 0 0 0-3.335-6.211H8.878a23.139 23.139 0 0 0-3.34 6.211z" style="fill:#fff"/><path d="M4.2 27.5a23.158 23.158 0 0 0 .476 4.658h45.649a23.1 23.1 0 0 0 0-9.321H4.676A23.245 23.245 0 0 0 4.2 27.5z" style="fill:#052a8d"/><path d="m38.976 27.5-15.53 7.768-13.967 6.979a23.243 23.243 0 0 1 0-29.494l13.962 6.979z" style="fill:#ce152a"/><path style="fill:#fff" d="m15.344 22.356 1.276 3.931h4.134l-3.345 2.426 1.275 3.931-3.34-2.431-3.34 2.431 1.276-3.931-3.341-2.426h4.13l1.275-3.931z"/></svg>