<svg xmlns="http://www.w3.org/2000/svg" viewBox="0 0 55 55"><path d="M50.8 27.5a23.132 23.132 0 0 1-3.06 11.527 23.285 23.285 0 0 1-40.48 0A23.251 23.251 0 0 1 4.2 27.5v-.2a23.3 23.3 0 0 1 46.59 0c.01.064.01.132.01.2z" style="fill:#053891"/><path d="M50.8 27.5a22.813 22.813 0 0 1-.3 3.708h-46a22.925 22.925 0 0 1-.3-3.708v-.2h46.6v.2z" style="fill:#fff"/><path d="M50.5 31.208a22.858 22.858 0 0 1-.983 3.912H5.481a22.858 22.858 0 0 1-.981-3.912z" style="fill:#ce2026"/><path d="M49.519 35.12a22.959 22.959 0 0 1-1.779 3.907H7.26a22.959 22.959 0 0 1-1.779-3.907z" style="fill:#fff"/><path style="fill:#f6d023" d="m12.244 27.51.507 1.564h1.648l-1.334.963.513 1.563-1.334-.962-1.329.962.508-1.563-1.329-.963h1.643l.507-1.564zM34.534 27.51l.513 1.564h1.642l-1.328.963.507 1.563-1.334-.962-1.328.962.507-1.563-1.328-.963h1.642l.507-1.564zM12.244 34.665l.507 1.564h1.648l-1.334.968.513 1.563-1.334-.967-1.329.967.508-1.563-1.329-.968h1.643l.507-1.564zM34.534 34.665l.513 1.564h1.642l-1.328.968.507 1.563-1.334-.967-1.328.967.507-1.563-1.328-.968h1.642l.507-1.564zM16.522 21.674l.507 1.563h1.643l-1.329.963.508 1.564-1.329-.963-1.334.963.508-1.564-1.329-.963h1.643l.512-1.563zM30.261 21.674l.508 1.563h1.647l-1.333.963.507 1.564-1.329-.963-1.327.963.506-1.564-1.328-.963h1.642l.507-1.563zM16.522 40.544l.507 1.564h1.643l-1.329.967.508 1.564-1.329-.968-1.334.968.508-1.564-1.329-.967h1.643l.512-1.564zM30.261 40.544l.508 1.564h1.647l-1.333.967.507 1.564-1.329-.968-1.327.968.506-1.564-1.328-.967h1.642l.507-1.564zM23.39 19.435l.506 1.564h1.648l-1.328.968.507 1.563-1.333-.967-1.329.967.507-1.563-1.328-.968h1.642l.508-1.564zM23.39 42.798l.506 1.564h1.648l-1.328.967.507 1.564-1.333-.967-1.329.967.507-1.564-1.328-.967h1.642l.508-1.564z"/></svg>