<svg xmlns="http://www.w3.org/2000/svg" viewBox="0 0 55 55"><path d="M27.5 50.8a23.327 23.327 0 0 0 23.3-23.3H4.2a23.33 23.33 0 0 0 23.3 23.3z" style="fill:#0bac2f"/><path d="M27.5 4.2A23.327 23.327 0 0 0 4.2 27.5h46.6A23.323 23.323 0 0 0 27.5 4.2z" style="fill:#6ab2e6"/><path d="m32.3 27.5-10.333 7.767-11.2 8.42a23.244 23.244 0 0 1 0-32.379l11.2 8.425z" style="fill:#fff"/><path style="fill:#d6141a" d="m15.659 21.621 1.459 4.488h4.724l-3.824 2.777 1.459 4.493-3.818-2.778-3.823 2.778 1.459-4.493-3.818-2.777H14.2l1.459-4.488z"/></svg>