<svg xmlns="http://www.w3.org/2000/svg" viewBox="0 0 55 55"><path d="M22.845 4.671V22.84H4.671A23.367 23.367 0 0 1 22.845 4.671z" style="fill:#022d61"/><path d="M22.845 32.16v18.175A23.367 23.367 0 0 1 4.671 32.16zM50.335 22.84H32.16V4.671A23.368 23.368 0 0 1 50.335 22.84z" style="fill:#cd1225"/><path d="M50.335 32.16A23.377 23.377 0 0 1 32.16 50.335V32.16z" style="fill:#022d61"/><path d="M50.8 27.5a23.613 23.613 0 0 1-.465 4.66H32.16v18.175a23.558 23.558 0 0 1-9.315 0V32.16H4.671a23.288 23.288 0 0 1 0-9.32h18.174V4.671a23.263 23.263 0 0 1 9.315 0V22.84h18.175a23.613 23.613 0 0 1 .465 4.66z" style="fill:#fff"/><path d="M23.964 28.588a.479.479 0 0 1-.643-.011.508.508 0 0 1 .643.011z" style="fill:#006206"/><path d="M23.891 28.588a.439.439 0 0 1-.5-.005c.157-.058.366-.136.507-.021l-.345.021z" style="fill:#00853e"/><path d="M24.922 30.173a.474.474 0 0 1 .172-.612.5.5 0 0 1-.172.612z" style="fill:#006206"/><path d="M24.942 30.105a.44.44 0 0 1 .131-.482c.016.168.042.387-.1.5a9.63 9.63 0 0 1 .062-.34z" style="fill:#00853e"/><path d="M24.388 26.145c-.031.131-.078.314-.131.544a6.736 6.736 0 0 0-.157.952 3.926 3.926 0 0 0 .079 1.093 4.389 4.389 0 0 0 .439 1.13 1.3 1.3 0 0 0 .215.335 1.629 1.629 0 0 0 .69.423c.23.079.471.084.7.142a4.381 4.381 0 0 1 .675.261c.183.079.355.167.538.241a7.061 7.061 0 0 1 .848.366c.026.01.078.036.083.083a.078.078 0 0 1-.042.074c-.078.052-.219-.047-.266-.074-.267-.177-.586-.266-.869-.423a6.647 6.647 0 0 0-.878-.382c-.173-.063-.345-.1-.523-.146-.162-.048-.335-.074-.5-.131a1.269 1.269 0 0 1-.628-.575 4.289 4.289 0 0 1-.5-1.167 3.888 3.888 0 0 1-.125-.669 4.145 4.145 0 0 1 .047-.978 6.931 6.931 0 0 1 .23-1.046s.096-.121.075-.053zM24.487 30.11a.462.462 0 0 1-.465.021 1.308 1.308 0 0 1-.324-.251.764.764 0 0 1 .789.23z" style="fill:#006206"/><path d="M24.4 30.078a.3.3 0 0 0-.142-.125.613.613 0 0 0-.258-.026 1.137 1.137 0 0 1-.183 0c-.01 0-.031 0-.037-.006a1.522 1.522 0 0 0 .325.2.361.361 0 0 0 .3-.021l-.23-.047-.11.011.052-.021-.115-.052.393.088" style="fill:#00853e"/><path d="M24.65 27.73a.455.455 0 0 1-.094-.455 1.266 1.266 0 0 1 .193-.361.753.753 0 0 1-.099.816z" style="fill:#006206"/><path d="M24.671 27.636a.3.3 0 0 0 .094-.162.509.509 0 0 0-.011-.251 1.231 1.231 0 0 1-.026-.188c0-.006-.005-.027 0-.032a1.43 1.43 0 0 0-.152.351.4.4 0 0 0 .074.3l.011-.236-.032-.1.032.042.036-.121-.026.4" style="fill:#00853e"/><path d="M24.043 27.9a.461.461 0 0 1 .241-.4 1.221 1.221 0 0 1 .387-.131s-.171.513-.628.531z" style="fill:#006206"/><path d="M24.116 27.84a.284.284 0 0 0 .183-.052.481.481 0 0 0 .162-.194 1.379 1.379 0 0 1 .11-.152s.016-.026.021-.026a1.441 1.441 0 0 0-.345.152.431.431 0 0 0-.157.267l.168-.162.052-.1-.011.053.11-.063-.3.277" style="fill:#00853e"/><path d="M24.184 26.862a.462.462 0 0 1 .293-.366 1.135 1.135 0 0 1 .4-.079.762.762 0 0 1-.693.445z" style="fill:#006206"/><path d="M24.268 26.815a.291.291 0 0 0 .188-.026.522.522 0 0 0 .183-.173.843.843 0 0 1 .131-.136s.016-.026.021-.026a1.552 1.552 0 0 0-.361.11.409.409 0 0 0-.188.246l.188-.142.058-.088-.016.052.115-.052-.324.235" style="fill:#00853e"/><path d="M24.456 28.959a.588.588 0 0 1 .141-.408c.152-.125.4-.214.419-.261a1.091 1.091 0 0 1-.126.413.624.624 0 0 1-.3.23.454.454 0 0 0-.152.073z" style="fill:#006206"/><path d="M24.493 28.891a.338.338 0 0 1 .052-.183.294.294 0 0 1 .209-.188.462.462 0 0 0 .194-.115.457.457 0 0 1-.053.2 1.014 1.014 0 0 1-.3.287.907.907 0 0 0-.1.042s.214-.225.246-.267a1.016 1.016 0 0 0 .062-.1l-.078.068-.026-.052a.163.163 0 0 1-.016.115.9.9 0 0 1-.19.193z" style="fill:#00853e"/><path d="M23.876 28.494a.578.578 0 0 0-.142-.408c-.157-.126-.4-.22-.423-.262a1.122 1.122 0 0 0 .125.408.657.657 0 0 0 .3.236.526.526 0 0 1 .146.068z" style="fill:#006206"/><path d="M23.834 28.426a.373.373 0 0 0-.047-.183c-.058-.094-.053-.131-.21-.194a.454.454 0 0 1-.2-.115.541.541 0 0 0 .052.2 1.051 1.051 0 0 0 .3.293.371.371 0 0 1 .105.042s-.215-.225-.246-.267a.631.631 0 0 1-.058-.105l.079.073.021-.052a.178.178 0 0 0 .021.115 1.208 1.208 0 0 0 .183.193z" style="fill:#00853e"/><path d="M24.116 27.354a.46.46 0 0 1 .131-.335c.131-.1.35-.183.366-.215a.841.841 0 0 1-.105.335.568.568 0 0 1-.272.194.46.46 0 0 0-.13.057z" style="fill:#006206"/><path d="M24.153 27.3a.3.3 0 0 1 .047-.146.254.254 0 0 1 .183-.163.351.351 0 0 0 .173-.094.331.331 0 0 1-.048.162.85.85 0 0 1-.261.241.687.687 0 0 0-.094.037s.188-.183.219-.22a.475.475 0 0 0 .053-.084l-.068.058-.021-.042a.135.135 0 0 1-.016.094 1.159 1.159 0 0 1-.167.157z" style="fill:#00853e"/><path d="M26.046 30.816a.372.372 0 0 1-.272-.2.665.665 0 0 1 .042-.518c.042.073.057.2.12.241a.352.352 0 0 1 .11.477z" style="fill:#006206"/><path d="M26.015 30.758a.229.229 0 0 1-.194-.115 1.182 1.182 0 0 1-.016-.418s.032.146.136.183.1.366.1.366l-.079-.256-.01.047-.058-.068.047.11h-.025l.046.021z" style="fill:#00853e"/><path d="M24.661 29.953a.365.365 0 0 1-.147.3.718.718 0 0 1-.518.063c.068-.058.183-.094.214-.167a.349.349 0 0 1 .451-.196z" style="fill:#006206"/><path d="M24.608 29.99a.235.235 0 0 1-.073.214 1.224 1.224 0 0 1-.408.1s.136-.062.151-.172.34-.162.34-.162l-.235.12.047.005-.058.068.105-.068v.026l.016-.052z" style="fill:#00853e"/><path d="M24.325 29.268a.343.343 0 0 1-.141.3.667.667 0 0 1-.517.063c.062-.052.182-.094.214-.167a.345.345 0 0 1 .444-.196z" style="fill:#006206"/><path d="M24.278 29.31a.224.224 0 0 1-.073.209 1.108 1.108 0 0 1-.408.1s.136-.063.152-.167.34-.168.34-.168l-.236.126h.047l-.057.068.1-.063.006.021.015-.052z" style="fill:#00853e"/><path d="M25.455 30.633a.352.352 0 0 1-.261.209.675.675 0 0 1-.492-.173c.084-.02.2 0 .267-.052a.343.343 0 0 1 .486.016z" style="fill:#006206"/><path d="M25.4 30.649a.224.224 0 0 1-.162.156 1.188 1.188 0 0 1-.409-.089s.152 0 .21-.088.381 0 .381 0l-.266.005.036.021-.078.037.12-.016-.01.026.036-.042z" style="fill:#00853e"/><path d="M25.089 30.5a.364.364 0 0 1-.272-.2.692.692 0 0 1 .037-.518c.041.073.057.2.125.241a.356.356 0 0 1 .11.477z" style="fill:#006206"/><path d="M25.058 30.439a.229.229 0 0 1-.194-.115 1.1 1.1 0 0 1-.021-.418s.037.146.141.183.095.366.095.366l-.074-.256-.01.042-.058-.068.042.115h-.021l.047.021z" style="fill:#00853e"/><path d="M24.644 27.694a.362.362 0 0 0 .3.146.7.7 0 0 0 .439-.272c-.084-.005-.2.037-.272 0a.344.344 0 0 0-.467.126z" style="fill:#006206"/><path d="M24.707 27.694a.224.224 0 0 0 .194.12 1.127 1.127 0 0 0 .376-.178.276.276 0 0 1-.225-.037c-.078-.073-.371.084-.371.084l.261-.052-.031.031.084.016-.12.016.015.02-.047-.031z" style="fill:#00853e"/><path d="M24.493 28.74a.362.362 0 0 1-.121-.314.7.7 0 0 1 .314-.419c0 .089-.057.2-.031.272a.342.342 0 0 1-.162.461z" style="fill:#006206"/><path d="M24.5 28.677a.221.221 0 0 1-.1-.2 1.072 1.072 0 0 1 .2-.361.275.275 0 0 0 .02.225c.063.084-.115.361-.115.361l.074-.256-.032.031-.01-.089-.026.12-.016-.015.026.047z" style="fill:#00853e"/><path d="M24.1 28.687a.342.342 0 0 1-.266-.2.668.668 0 0 1 .036-.517c.042.073.058.193.121.24a.349.349 0 0 1 .109.477z" style="fill:#006206"/><path d="M24.069 28.635a.216.216 0 0 1-.188-.115 1.107 1.107 0 0 1-.021-.419s.036.147.136.184.1.366.1.366l-.078-.257-.011.042-.052-.068.042.115h-.026l.052.026z" style="fill:#00853e"/><path d="M24.2 26.689a.243.243 0 0 1-.173-.157.464.464 0 0 1 .063-.355c.021.052.026.136.068.172a.25.25 0 0 1 .042.34z" style="fill:#006206"/><path d="M24.179 26.653a.163.163 0 0 1-.126-.094.891.891 0 0 1 .016-.293s.016.1.084.136.042.261.042.261l-.032-.183-.01.032-.037-.053.022.079h-.017l.032.021z" style="fill:#00853e"/><path d="M24.074 27.369a.284.284 0 0 1-.209-.151.524.524 0 0 1 .031-.4c.032.058.042.152.095.188a.267.267 0 0 1 .083.363z" style="fill:#006206"/><path d="M24.048 27.327a.17.17 0 0 1-.146-.089.841.841 0 0 1-.016-.313s.026.11.105.136.078.277.078.277l-.057-.194-.012.037-.042-.052.032.083h-.016l.037.016z" style="fill:#00853e"/><path d="M24.142 26.967a.359.359 0 0 1-.266-.2.671.671 0 0 1 .036-.518c.042.073.058.194.121.241a.348.348 0 0 1 .109.477z" style="fill:#006206"/><path d="M24.111 26.909a.216.216 0 0 1-.188-.115 1.055 1.055 0 0 1-.021-.413s.036.146.136.183.1.361.1.361l-.079-.257-.011.047-.048-.068.042.11h-.026l.052.026z" style="fill:#00853e"/><path d="M24.357 29.294a.442.442 0 0 0-.105-.319.81.81 0 0 0-.4-.188.881.881 0 0 0 .151.36.6.6 0 0 0 .354.147z" style="fill:#006206"/><path d="M24.325 29.242a.405.405 0 0 0-.4-.387c.021.125.183.413.381.4a1.519 1.519 0 0 1-.271-.282l.157.131v-.084s.081.206.133.222z" style="fill:#00853e"/><path d="M24.3 29.1a.414.414 0 0 1-.12-.308.843.843 0 0 1 .178-.4.938.938 0 0 1 .12.371.594.594 0 0 1-.178.337z" style="fill:#006206"/><path d="M24.289 29.038a.405.405 0 0 1 .062-.555c.063.11.126.44-.036.555a1.328 1.328 0 0 0 .032-.387c-.027.125-.037.2-.037.2l-.058-.062s.073.211.037.249z" style="fill:#00853e"/><path d="M25.465 30.68a.488.488 0 0 1-.109-.633.5.5 0 0 1 .109.633z" style="fill:#006206"/><path d="M25.455 30.607a.436.436 0 0 1-.094-.487c.089.136.209.33.125.487a10.2 10.2 0 0 0-.093-.33z" style="fill:#00853e"/><path d="M25.115 30.528a.48.48 0 0 1 .173-.617.5.5 0 0 1-.173.617z" style="fill:#006206"/><path d="M25.136 30.46a.439.439 0 0 1 .131-.481c.015.162.042.387-.105.492.058-.325.063-.34.063-.34z" style="fill:#00853e"/><path d="M24.759 30.089a.477.477 0 0 1-.115-.628.5.5 0 0 1 .115.628z" style="fill:#006206"/><path d="M24.749 30.021a.434.434 0 0 1-.094-.492c.089.141.2.33.12.492l-.094-.335z" style="fill:#00853e"/><path d="M24.587 29.848a.482.482 0 0 1-.565-.3.493.493 0 0 1 .565.3z" style="fill:#006206"/><path d="M24.524 29.812a.434.434 0 0 1-.444-.23c.167.02.387.047.46.209a7.635 7.635 0 0 0-.319-.131z" style="fill:#00853e"/><path d="M24.325 26.213a.478.478 0 0 1 .628-.109.5.5 0 0 1-.628.109z" style="fill:#006206"/><path d="M24.393 26.2a.444.444 0 0 1 .492-.094c-.141.089-.329.2-.492.12.32-.089.335-.089.335-.089z" style="fill:#00853e"/><path d="M24.477 29.017a.48.48 0 0 1 .633-.115.5.5 0 0 1-.633.115z" style="fill:#006206"/><path d="M24.55 29.006a.436.436 0 0 1 .487-.094c-.136.089-.33.2-.487.12.32-.088.33-.088.33-.088z" style="fill:#00853e"/><path d="M24.3 26.271a.452.452 0 0 1 .252-.392 1.255 1.255 0 0 1 .386-.126s-.173.513-.638.518z" style="fill:#006206"/><path d="M24.383 26.219a.3.3 0 0 0 .183-.053.478.478 0 0 0 .162-.188 1.21 1.21 0 0 1 .115-.152s.016-.026.021-.026a1.445 1.445 0 0 0-.35.152.4.4 0 0 0-.157.261l.172-.162.053-.094-.011.052.11-.062-.3.272" style="fill:#00853e"/><path d="M24.278 26.308a.438.438 0 0 1-.125-.308.832.832 0 0 1 .183-.4.939.939 0 0 1 .12.372.6.6 0 0 1-.178.336z" style="fill:#006206"/><path d="M24.268 26.25a.412.412 0 0 1 .063-.56c.062.11.125.44-.037.56a1.257 1.257 0 0 0 .026-.392c-.021.125-.031.2-.031.2l-.058-.062s.069.204.037.254z" style="fill:#00853e"/><path d="M25.622 30.722a.438.438 0 0 1-.125-.309.806.806 0 0 1 .183-.4.932.932 0 0 1 .115.372.6.6 0 0 1-.173.337z" style="fill:#006206"/><path d="M25.612 30.659a.4.4 0 0 1 .063-.554c.062.109.12.439-.037.554a1.433 1.433 0 0 0 .026-.392c-.021.13-.036.2-.036.2l-.053-.063s.068.213.037.255z" style="fill:#00853e"/><path d="M24.033 28.206a2.351 2.351 0 0 0-.089-.34.89.89 0 0 0-.231-.272l.037-.047a.834.834 0 0 1 .25.293 1.818 1.818 0 0 1 .094.356z" style="fill:#006206"/><path d="M23.844 27.73a.462.462 0 0 1-.246-.4 1.125 1.125 0 0 1 .063-.4.762.762 0 0 1 .183.8z" style="fill:#006206"/><path d="M23.828 27.636a.276.276 0 0 0 .037-.183.491.491 0 0 0-.1-.235 1.548 1.548 0 0 1-.084-.168.06.06 0 0 1-.015-.031 1.989 1.989 0 0 0-.022.382.4.4 0 0 0 .168.256l-.068-.225-.063-.089.042.031v-.125l.109.387" style="fill:#00853e"/><path d="M23.6 27.411a.364.364 0 0 1-.272-.2.673.673 0 0 1 .042-.518c.037.079.058.2.121.246a.348.348 0 0 1 .109.472z" style="fill:#006206"/><path d="M23.567 27.354a.229.229 0 0 1-.194-.116 1.183 1.183 0 0 1-.02-.413s.036.142.141.178.094.366.094.366l-.073-.256-.011.047-.057-.068.047.11h-.026l.047.026z" style="fill:#00853e"/><path d="M23.755 27.673a.488.488 0 0 1-.533-.361c.131-.012.486.062.533.361z" style="fill:#006206"/><path d="M23.693 27.631a.442.442 0 0 1-.414-.277c.162.036.382.083.434.256-.287-.157-.3-.168-.3-.168z" style="fill:#00853e"/><path d="M24.127 28.724c.005-.016.005-.032.011-.052a.2.2 0 0 1 0-.048c.006-.031.011-.062.021-.1s.016-.063.021-.094.011-.031.016-.047l.016-.047a.544.544 0 0 1 .031-.094 1931391774434.8 1931391774434.8 0 0 0 .042-.094c.015-.032.031-.058.047-.089l.005-.011.01-.01.006-.011a.017.017 0 0 1 0-.01l.01-.011.011-.01a.053.053 0 0 1 .016-.021v-.006l.005-.01h.011v-.006l.037-.036.031-.037.031-.037c.042-.052.084-.1.126-.151.078-.105.162-.209.24-.309h.006c-.068.11-.142.22-.22.325a1.888 1.888 0 0 1-.115.162l-.026.042-.032.036a.242.242 0 0 1-.031.037v.005h-.005l.013.01-.01.01v.006l-.016.015v.011l-.006.01v.006l-.01.01v.011l-.006.01c-.01.031-.026.058-.036.089-.026.057-.047.12-.073.183l-.032.089a.832.832 0 0 0-.036.089l-.078.183z" style="fill:#006206"/><path d="M24.111 28.494a.366.366 0 0 0 .272-.2.7.7 0 0 0-.036-.518c-.043.073-.058.194-.121.241a.348.348 0 0 0-.115.477z" style="fill:#006206"/><path d="M24.142 28.436a.223.223 0 0 0 .194-.115 1.075 1.075 0 0 0 .021-.413s-.037.146-.141.183-.1.361-.1.361l.084-.252.01.047.058-.068-.042.11h.021l-.047.026z" style="fill:#00853e"/><path d="M24.43 29.456a.434.434 0 0 1-.126-.309.836.836 0 0 1 .183-.4.96.96 0 0 1 .116.371.6.6 0 0 1-.173.338z" style="fill:#006206"/><path d="M24.419 29.393a.406.406 0 0 1 .063-.554c.063.11.121.439-.036.554a1.447 1.447 0 0 0 .026-.387c-.021.126-.037.2-.037.2l-.052-.063s.068.208.036.25z" style="fill:#00853e"/><path d="M24.765 27.594a.489.489 0 0 1 .345-.544c.016.131-.047.487-.345.544z" style="fill:#006206"/><path d="M24.807 27.531a.437.437 0 0 1 .261-.423c-.031.162-.068.382-.241.444l.157-.308z" style="fill:#00853e"/><path d="M28.332 31.721a.075.075 0 0 1-.006.047.1.1 0 0 1-.115 0c0-.006-.031-.032-.026-.063a.08.08 0 0 1 .068-.047.09.09 0 0 1 .079.063z" style="fill:#e9c015"/><path d="M28.792 30.7a.147.147 0 0 0 .057.052 1.032 1.032 0 0 0 .084-.162.322.322 0 0 0 .037.037h-.016a.144.144 0 0 0 .057.11h.027a.182.182 0 0 0 .062.068.561.561 0 0 0 .037-.079 2.6 2.6 0 0 1 .748.032 1.257 1.257 0 0 0-.387-.11 1.913 1.913 0 0 1 .533.036 1.612 1.612 0 0 0-.512-.12 2.2 2.2 0 0 1 .617.031 1.328 1.328 0 0 0-.319-.094 3.291 3.291 0 0 1 .947.058 2.575 2.575 0 0 0-.869-.2 3.411 3.411 0 0 1 1.057.052 2.627 2.627 0 0 0-.91-.209 3.442 3.442 0 0 1 .988-.366 1.857 1.857 0 0 0-.544.063c.006 0 .006-.011.011-.021a4.478 4.478 0 0 0 1.36-.685 5.585 5.585 0 0 1-1.256.47.283.283 0 0 0 .011-.031 7.526 7.526 0 0 0 .821-.528c.01.021.027.052.042.078 0-.042 0-.083.01-.12a1.937 1.937 0 0 0 .434-.413 2.531 2.531 0 0 1-.439.314c-.026-.236-.188-.178-.46-.037a.025.025 0 0 0-.021.011v-.058h.005a1.441 1.441 0 0 1 .225-.267c.309-.277.361-.121.476.089.052-.481-.12-.429-.455-.257a.811.811 0 0 0-.22.168 1.011 1.011 0 0 1 .047-.178 3.252 3.252 0 0 1 .675-.377 2.431 2.431 0 0 0-.612.236 1.859 1.859 0 0 1 .638-.67.882.882 0 0 0-.439.183 2.285 2.285 0 0 1 .439-.366.844.844 0 0 0-.554.288 2.87 2.87 0 0 0-.235.251.072.072 0 0 0-.011-.031 5.5 5.5 0 0 1 .5-.743.615.615 0 0 1 .162.225c.047-.481-.125-.429-.46-.256a.685.685 0 0 0-.157.109 3.274 3.274 0 0 1 .423-.549 2.671 2.671 0 0 0-.606.628 1.547 1.547 0 0 1-.037-.22 3.6 3.6 0 0 1 .528-.722 1.373 1.373 0 0 0-.266.225 3.2 3.2 0 0 1 .418-.538 1.628 1.628 0 0 0-.413.392c-.063-.1-.11-.131-.152-.12a1.064 1.064 0 0 1 .141-.272 2.234 2.234 0 0 0-.3.46v.016a.133.133 0 0 0-.016.026 6.219 6.219 0 0 0-.151.324.3.3 0 0 0-.047-.037 4.906 4.906 0 0 1 .392-.957 2.512 2.512 0 0 0-.335.539 2.93 2.93 0 0 1 .283-.69 2.816 2.816 0 0 0-.361.622 2.985 2.985 0 0 1 .115-.727 2.467 2.467 0 0 0-.2.69 2.86 2.86 0 0 1-.152-.721 3.072 3.072 0 0 0 .073.826 7.027 7.027 0 0 1-.068-.173 2.672 2.672 0 0 1-.151-.732 1.855 1.855 0 0 0 0 .419 3.236 3.236 0 0 0-.408-.659 3.908 3.908 0 0 1 .4.92 2.183 2.183 0 0 0-.23-.335c.032.047.063.105.095.162a1.783 1.783 0 0 0-.278-.376 2.2 2.2 0 0 1 .272.523 2.021 2.021 0 0 0-.219-.309 2.568 2.568 0 0 1 .235.466 3.332 3.332 0 0 0-.662-.384 3.87 3.87 0 0 1 .727.565 1.805 1.805 0 0 0-.371-.183 2.267 2.267 0 0 1 .4.272.74.74 0 0 0 .031.094 2.957 2.957 0 0 0-.649-.366 2.724 2.724 0 0 1 .513.366 4.472 4.472 0 0 0-.622-.288 4.635 4.635 0 0 1 .879.712h.01a.6.6 0 0 0 .01.1l-.078-.031a3.092 3.092 0 0 0-.612-.492 2.7 2.7 0 0 1 .434.424 2.925 2.925 0 0 0-.554-.147 3.24 3.24 0 0 1 .669.283c.063.083.121.157.157.209a2.466 2.466 0 0 1 0 .272 2.527 2.527 0 0 0-.335-.518 2.942 2.942 0 0 1 .277.565.077.077 0 0 0-.031-.011 2.808 2.808 0 0 0-.356-.554 2.661 2.661 0 0 1 .262.523 2.22 2.22 0 0 0-.419-.084 3.05 3.05 0 0 1 .445.152 4.406 4.406 0 0 1 .146.455s.037.021.1.063c-.021.047-.037.089-.053.12a.578.578 0 0 0-.02-.1c-.121-.356-.2-.518-.508-.141.23-.068.377-.142.4.272a1.5 1.5 0 0 1-.052.413 3.206 3.206 0 0 0-.382-.612 3.551 3.551 0 0 1 .345.763c-.015.053-.031.1-.047.147a1.307 1.307 0 0 0-.036-.243c-.146-.565-.471-.094-.5-.057a.4.4 0 0 0-.036-.063 2.241 2.241 0 0 1 .13.7 7.064 7.064 0 0 1-.3.763s-.01.005-.021.005a3.416 3.416 0 0 0 .262-1.1 2.943 2.943 0 0 1-.2.643 1.641 1.641 0 0 0 .015-.209v-.026a1.435 1.435 0 0 1-.162.429 1.208 1.208 0 0 0 .057-.34 2.25 2.25 0 0 1-.24.58 1.455 1.455 0 0 0 .094-.47 1.869 1.869 0 0 1-.23.559 1.79 1.79 0 0 0 .141-.664 3.674 3.674 0 0 1-.434.983 7.213 7.213 0 0 0-.712.293c-.177.079-.355.167-.538.241a6.979 6.979 0 0 0-.847.366c-.027.01-.079.036-.084.083a.083.083 0 0 0 .047.074c.073.052.22-.047.261-.074.272-.177.592-.266.874-.423a10.14 10.14 0 0 1 .988-.424s.175-.079.201-.169zm2.364-3.363c.141-.126.23-.162.293-.147a4.054 4.054 0 0 0-.523.618c-.016-.037-.032-.074-.047-.115a1.578 1.578 0 0 1 .277-.355zM31 29.1c.22-.2.308-.172.382-.073-.194.115-.4.225-.591.314A1.342 1.342 0 0 1 31 29.1zm-.2-2.426c.058-.23.137-.21.246-.152a4.115 4.115 0 0 0-.266.335 1.708 1.708 0 0 1 .02-.183zm-1 3.159a3.263 3.263 0 0 0-.267-.889c.551-.461.341.556.267.889z" style="fill:#006106"/><path d="M30.638 29.791a7.713 7.713 0 0 0 .7-.455c.01.021.021.042.036.068 0-.037.006-.073.006-.105a1.481 1.481 0 0 0 .376-.355 2.505 2.505 0 0 1-.376.271c-.026-.2-.168-.151-.4-.031h-.015v-.047a1.054 1.054 0 0 1 .188-.23c.267-.235.314-.105.413.073.043-.408-.1-.366-.392-.22a.779.779 0 0 0-.193.147.94.94 0 0 1 .047-.152 2.471 2.471 0 0 1 .575-.324 2.035 2.035 0 0 0-.523.2 1.556 1.556 0 0 1 .544-.57.711.711 0 0 0-.377.157 2.4 2.4 0 0 1 .377-.32.721.721 0 0 0-.471.252 1.585 1.585 0 0 0-.2.214v-.026a3.922 3.922 0 0 1 .423-.638.493.493 0 0 1 .137.193c.041-.413-.105-.366-.393-.219a.693.693 0 0 0-.136.094 2.755 2.755 0 0 1 .361-.471 2.329 2.329 0 0 0-.518.539c0-.032-.021-.105-.031-.189a3.256 3.256 0 0 1 .455-.622 1 1 0 0 0-.23.194 2.625 2.625 0 0 1 .361-.461 1.4 1.4 0 0 0-.356.335c-.052-.084-.094-.11-.131-.1a.814.814 0 0 1 .126-.236 1.71 1.71 0 0 0-.256.393c-.006.005-.006.01-.011.015a.043.043 0 0 0-.01.026c-.053.1-.094.189-.131.272a.365.365 0 0 0-.041-.031 4.279 4.279 0 0 1 .339-.821 2.176 2.176 0 0 0-.293.465 2.69 2.69 0 0 1 .246-.591 2.341 2.341 0 0 0-.309.534 2.361 2.361 0 0 1 .1-.623 2.124 2.124 0 0 0-.178.591 2.6 2.6 0 0 1-.126-.622 2.547 2.547 0 0 0 .058.711c-.021-.052-.042-.109-.058-.146a2.631 2.631 0 0 1-.13-.628 1.341 1.341 0 0 0 .005.356 2.607 2.607 0 0 0-.351-.56 3.09 3.09 0 0 1 .34.785 2.144 2.144 0 0 0-.193-.288c.027.042.052.089.079.136a1.6 1.6 0 0 0-.236-.319 1.919 1.919 0 0 1 .23.45 1.68 1.68 0 0 0-.188-.267 1.972 1.972 0 0 1 .2.4 2.625 2.625 0 0 0-.56-.324 3.075 3.075 0 0 1 .623.486 1.565 1.565 0 0 0-.316-.157 2.246 2.246 0 0 1 .345.235.856.856 0 0 1 .026.084A2.6 2.6 0 0 0 29.67 27a2.591 2.591 0 0 1 .44.314 3.688 3.688 0 0 0-.533-.246 3.877 3.877 0 0 1 .752.612h.006a.47.47 0 0 1 .01.084.341.341 0 0 1-.063-.027 3.064 3.064 0 0 0-.528-.423 2.7 2.7 0 0 1 .377.366 2.309 2.309 0 0 0-.481-.126 2.509 2.509 0 0 1 .575.241c.057.073.1.136.136.178a1.841 1.841 0 0 1 0 .235 2 2 0 0 0-.288-.444 2.392 2.392 0 0 1 .236.481c-.006 0-.016-.006-.021-.006a2.41 2.41 0 0 0-.309-.475 2.543 2.543 0 0 1 .225.449 2.225 2.225 0 0 0-.361-.073 1.9 1.9 0 0 1 .382.131c.078.209.131.387.131.387s.026.021.078.057c-.016.042-.031.074-.042.105a.4.4 0 0 0-.021-.089c-.1-.3-.167-.444-.434-.12.2-.058.324-.121.345.235a1.211 1.211 0 0 1-.041.356 2.328 2.328 0 0 0-.33-.528 3.076 3.076 0 0 1 .3.653c-.016.047-.026.089-.042.126a1.066 1.066 0 0 0-.036-.209c-.121-.482-.4-.079-.424-.053l-.031-.052a1.9 1.9 0 0 1 .11.6 6.635 6.635 0 0 1-.251.659h-.021a2.913 2.913 0 0 0 .22-.946 1.993 1.993 0 0 1-.168.549 1.057 1.057 0 0 0 .016-.173V29.8a1.2 1.2 0 0 1-.142.372.83.83 0 0 0 .047-.293 1.748 1.748 0 0 1-.2.5 1.279 1.279 0 0 0 .085-.4 1.832 1.832 0 0 1-.2.481 1.7 1.7 0 0 0 .121-.57 4.079 4.079 0 0 1-.4.9.153.153 0 0 0 .084.116 1.645 1.645 0 0 0 .1-.2.139.139 0 0 0 .047.042.738.738 0 0 0 .074-.148c.01.011.02.027.031.037h-.015c.01.078.052.094.052.094h.02a.2.2 0 0 0 .053.063.557.557 0 0 0 .032-.068 2.078 2.078 0 0 1 .642.026 1.025 1.025 0 0 0-.329-.094 1.59 1.59 0 0 1 .455.031 1.358 1.358 0 0 0-.439-.1 1.781 1.781 0 0 1 .533.031.992.992 0 0 0-.277-.084 2.781 2.781 0 0 1 .811.048 2.377 2.377 0 0 0-.743-.173 3.1 3.1 0 0 1 .9.047 2.319 2.319 0 0 0-.785-.178 3.1 3.1 0 0 1 .853-.314 1.5 1.5 0 0 0-.466.058c0-.011.005-.016.005-.021a3.935 3.935 0 0 0 1.167-.586 4.593 4.593 0 0 1-1.077.4c.005-.011.01-.017.015-.026zm.466-1.977c.115-.105.193-.136.245-.12a3.353 3.353 0 0 0-.444.523c-.016-.027-.026-.063-.042-.095a1.3 1.3 0 0 1 .237-.308zm-.142 1.511c.189-.167.267-.146.33-.057a7.99 7.99 0 0 1-.508.267 1.52 1.52 0 0 1 .178-.21zm-.162-2.076c.052-.2.115-.183.209-.136a4.774 4.774 0 0 0-.224.288.676.676 0 0 1 .015-.152zm-.858 2.7a2.823 2.823 0 0 0-.23-.758c.466-.391.288.479.225.762z" style="fill:#0c750e"/><path d="M30.45 29.874a6.043 6.043 0 0 0 .638-.329c.01.016.016.037.026.057 0-.031.01-.057.016-.083a1.374 1.374 0 0 0 .345-.272 2.342 2.342 0 0 1-.34.2c-.005-.178-.126-.142-.335-.063 0 0-.01.005-.016.005a.082.082 0 0 1 .006-.037h.01a1.132 1.132 0 0 1 .183-.178c.246-.178.272-.063.34.1.073-.346-.058-.319-.314-.22a.608.608 0 0 0-.172.1.6.6 0 0 1 .047-.125 2.232 2.232 0 0 1 .516-.229 1.815 1.815 0 0 0-.465.126 1.289 1.289 0 0 1 .512-.44.587.587 0 0 0-.335.1 1.608 1.608 0 0 1 .35-.236.64.64 0 0 0-.428.168 2.045 2.045 0 0 0-.189.167s-.005-.016-.005-.021a3.9 3.9 0 0 1 .413-.507c.048.031.068.1.105.178.073-.351-.057-.325-.314-.225a.512.512 0 0 0-.126.073 2.02 2.02 0 0 1 .351-.371 1.774 1.774 0 0 0-.491.413c0-.026-.011-.089-.011-.168a2.916 2.916 0 0 1 .439-.486.824.824 0 0 0-.209.146 2.213 2.213 0 0 1 .345-.366 1.422 1.422 0 0 0-.335.257c-.036-.074-.068-.105-.1-.095a.736.736 0 0 1 .126-.193 1.7 1.7 0 0 0-.252.314s0 .01-.01.015a.03.03 0 0 0-.01.021 1.971 1.971 0 0 0-.136.22.158.158 0 0 0-.032-.031 3.583 3.583 0 0 1 .356-.67 2.054 2.054 0 0 0-.283.372 2.177 2.177 0 0 1 .257-.482 1.908 1.908 0 0 0-.309.424 2.3 2.3 0 0 1 .136-.518 1.926 1.926 0 0 0-.2.487 2.31 2.31 0 0 1-.057-.539 2.3 2.3 0 0 0-.011.607 1.888 1.888 0 0 0-.036-.126 2.419 2.419 0 0 1-.058-.549 1.672 1.672 0 0 0-.026.309 2.348 2.348 0 0 0-.246-.513 2.865 2.865 0 0 1 .22.7 1.44 1.44 0 0 0-.136-.261c.021.037.036.079.058.126a1.186 1.186 0 0 0-.179-.293 1.563 1.563 0 0 1 .163.4 1.119 1.119 0 0 0-.136-.241 2.048 2.048 0 0 1 .136.356 2.318 2.318 0 0 0-.45-.325 3 3 0 0 1 .491.466 1.317 1.317 0 0 0-.261-.162 1.557 1.557 0 0 1 .277.23l.016.073a2.208 2.208 0 0 0-.45-.319 1.734 1.734 0 0 1 .35.309 2.441 2.441 0 0 0-.434-.257 3.231 3.231 0 0 1 .586.581.018.018 0 0 0 .011 0v.073l-.053-.031a2.4 2.4 0 0 0-.413-.4 2.107 2.107 0 0 1 .288.34 1.7 1.7 0 0 0-.4-.146 2.28 2.28 0 0 1 .471.256 1.7 1.7 0 0 1 .1.162c0 .068-.01.136-.015.2a1.874 1.874 0 0 0-.21-.4 2.054 2.054 0 0 1 .157.429h-.021a2.049 2.049 0 0 0-.214-.434 2.733 2.733 0 0 1 .152.408 1.529 1.529 0 0 0-.3-.094 1.751 1.751 0 0 1 .314.141c.052.188.079.34.079.34s.02.021.062.057a.493.493 0 0 1-.047.084.335.335 0 0 0-.005-.073c-.062-.272-.11-.393-.361-.141.173-.032.288-.074.272.23a1.339 1.339 0 0 1-.063.3 2.132 2.132 0 0 0-.24-.481 2.71 2.71 0 0 1 .2.585c-.015.037-.031.074-.041.105a1.182 1.182 0 0 0-.016-.183c-.063-.424-.334-.1-.356-.079-.01-.015-.015-.031-.026-.047a1.554 1.554 0 0 1 .048.518c-.079.194-.231.46-.273.539h-.015a2.478 2.478 0 0 0 .266-.785 2.088 2.088 0 0 1-.187.455c.01-.057.02-.1.025-.151V29.8a.954.954 0 0 1-.146.3.785.785 0 0 0 .063-.246 1.564 1.564 0 0 1-.215.408 1.1 1.1 0 0 0 .1-.334 1.341 1.341 0 0 1-.2.392 1.564 1.564 0 0 0 .152-.476 3.3 3.3 0 0 1-.423.732.128.128 0 0 0 .062.105 1.246 1.246 0 0 0 .105-.162.16.16 0 0 0 .036.047 1.077 1.077 0 0 0 .079-.115.106.106 0 0 0 .021.031h-.011a.1.1 0 0 0 .032.084h.021a.18.18 0 0 0 .036.057.578.578 0 0 0 .037-.052 1.977 1.977 0 0 1 .544.073.849.849 0 0 0-.277-.105 1.435 1.435 0 0 1 .387.063 1.1 1.1 0 0 0-.366-.125 1.752 1.752 0 0 1 .455.068.978.978 0 0 0-.231-.089 2.278 2.278 0 0 1 .691.11 1.875 1.875 0 0 0-.623-.21 2.425 2.425 0 0 1 .769.115 1.861 1.861 0 0 0-.653-.219 2.514 2.514 0 0 1 .753-.194 1.309 1.309 0 0 0-.4.006c0-.006 0-.011.01-.016a3.315 3.315 0 0 0 1.041-.4 3.826 3.826 0 0 1-.952.251c-.008-.014-.003-.019-.003-.025zm.565-1.647c.109-.078.177-.1.225-.084a2.842 2.842 0 0 0-.424.413l-.032-.083a1.574 1.574 0 0 1 .231-.246zm-.246 1.273c.178-.125.24-.1.287-.021a5.27 5.27 0 0 1-.455.183.979.979 0 0 1 .168-.162zm.036-1.783c.058-.162.11-.147.189-.094-.074.068-.147.146-.22.224a.8.8 0 0 1 .031-.127zm-.962 2.233a2.54 2.54 0 0 0-.131-.67c.434-.295.21.438.131.673z" style="fill:#00853e"/><path d="M26.464 31.721a.056.056 0 0 0 .011.047c.021.026.078.021.11 0a.083.083 0 0 0 .026-.063.08.08 0 0 0-.068-.047.09.09 0 0 0-.079.063z" style="fill:#e9c015"/><path d="M27.793 27v-1.895h-.785V27h-1.48v.784h1.48v1.93a.783.783 0 0 1 .393.257.755.755 0 0 1 .272-.21.484.484 0 0 1 .12-.047v-1.93h1.48V27z" style="fill:#fff"/><path d="m29.77 25.105-.23.209a.833.833 0 0 0-.267.617V27h-1.48v-1.895zM27.008 27.782v1.93a.729.729 0 0 0-.214-.031h-.523a.746.746 0 0 1-.743-.743v-1.156z" style="fill:#cd1225"/><path d="M29.273 27.782v1.156a.747.747 0 0 1-.748.743h-.517a.731.731 0 0 0-.215.031v-1.93zM27.008 25.105V27h-1.48v-1.069a.834.834 0 0 0-.272-.617l-.225-.209z" style="fill:#022d61"/><path d="M27.793 25.084h-2.814l.267.246a.81.81 0 0 1 .261.6v3.007a.745.745 0 0 0 .225.539.755.755 0 0 0 .539.225h.523a.72.72 0 0 1 .209.031.756.756 0 0 1 .382.251l.016.021.015-.021a.728.728 0 0 1 .262-.209.78.78 0 0 1 .121-.042l-.011-.042a.507.507 0 0 0-.126.047.832.832 0 0 0-.261.2.829.829 0 0 0-.387-.246l-.006.021.006-.021a.8.8 0 0 0-.22-.031h-.523a.722.722 0 0 1-.721-.722v-3.007a.855.855 0 0 0-.278-.633l-.188-.172h4.634l-.189.172a.854.854 0 0 0-.277.633v3.007a.724.724 0 0 1-.727.722h-.517a.741.741 0 0 0-.22.031l.011.042a.687.687 0 0 1 .209-.031h.517a.765.765 0 0 0 .544-.225.757.757 0 0 0 .22-.539v-3.007a.814.814 0 0 1 .266-.6l.267-.246z"/><path d="M26.893 28.039a.017.017 0 0 1-.015-.006l.084-1.244-.252-.3-.094 1.355c-.22-.209-.481-.518-.586-.638-.005.131-.015.256-.021.376.116.147.241.283.367.419a2.021 2.021 0 0 0 .22.214c0 .105.015.3.161.372a.416.416 0 0 0 .351-.042.916.916 0 0 1 .047-.089v-.016c-.282.079-.3-.11-.3-.136a.857.857 0 0 0 .45-.282l.01-.162c-.155.147-.239.226-.422.179z" style="fill:#fff"/><path d="M27.108 28.541a.96.96 0 0 1-.189.261.574.574 0 0 1-.538.11.638.638 0 0 1-.413-.554.308.308 0 0 1 0-.105c0-.036.021-.314.041-.675.116.147.241.283.367.419a2.021 2.021 0 0 0 .22.214c0 .105.015.3.161.372a.416.416 0 0 0 .351-.042zM27.364 27.265l-.042.591c-.162.151-.246.23-.429.183a.017.017 0 0 1-.015-.006l.084-1.244z" style="fill:#cd1225"/><path d="M27.312 28.018v.031a2.655 2.655 0 0 1-.152.387c-.282.079-.3-.11-.3-.136a.857.857 0 0 0 .452-.282zM26.71 26.485l-.094 1.355c-.22-.209-.481-.518-.586-.638.047-.67.089-1.412.089-1.412z" style="fill:#022d61"/><path d="M26.506 28.959a.494.494 0 0 1-.13-.031.645.645 0 0 1-.429-.57.308.308 0 0 1 0-.105c0-.042.021-.392.042-.675 0-.12.015-.245.02-.376.047-.67.095-1.412.095-1.412v-.053l1.281 1.517-.052.795a3.163 3.163 0 0 1-.152.393c-.005.005-.005.01-.01.01a.968.968 0 0 1-.042.094.925.925 0 0 1-.2.267.6.6 0 0 1-.423.146zm-.366-3.117c-.01.178-.052.8-.089 1.365 0 .126-.015.256-.021.371-.021.288-.041.633-.041.675a.308.308 0 0 0 0 .105.61.61 0 0 0 .4.533.5.5 0 0 0 .125.026.547.547 0 0 0 .392-.13.885.885 0 0 0 .188-.257c.016-.031.031-.062.042-.089a.015.015 0 0 0 0-.01 2.556 2.556 0 0 0 .152-.387l.052-.774z"/><path d="m26.046 25.622 1.154 1.365-.042.037L26 25.664a.119.119 0 0 1 .026-.015c.01-.011.015-.016.02-.027z" style="fill:#e8c015"/><path d="M26.046 25.586a.024.024 0 0 1 0 .026.1.1 0 0 1-.021.031c-.021.016-.047.021-.057.011s-.006-.037.015-.058a.059.059 0 0 1 .037-.015h.01a.019.019 0 0 1 .016.005zM26.015 25.492c-.032.015-.021.068-.021.089l-.011.01-.214-.272c.052.037.204.146.246.173zM25.769 25.324l.209.272h-.005a.129.129 0 0 0-.1 0z" style="fill:#e8c015"/><path d="m27.155 27.024.042-.037-1.151-1.365c0 .011-.01.016-.016.027a.119.119 0 0 0-.026.015zm-1.14-1.532c-.042-.027-.194-.136-.246-.173l.214.272c.006-.005.011-.005.011-.01 0-.021-.011-.074.021-.089zm-.042.109h.005l-.209-.272.1.277a.129.129 0 0 1 .104-.006zm.005.063a.022.022 0 0 1-.016-.005c-.01-.01-.01-.031.006-.052a.129.129 0 0 0-.095 0l-.12-.309.006.005.261.189c-.026.015-.021.062-.021.089a.035.035 0 0 1 .021-.006.022.022 0 0 1 .026.006.025.025 0 0 1 0 .031v.005l1.156 1.37-.052.048L26 25.664zm-.01-.01c.01.01.036 0 .057-.011a.1.1 0 0 0 .021-.031.024.024 0 0 0 0-.026.019.019 0 0 0-.016 0h-.01a.059.059 0 0 0-.037.015c-.021.016-.031.042-.015.053z"/><path d="m26.4 25.565.91 1.538-.053.031-.9-1.538c.01 0 .015 0 .026-.01s.017-.016.017-.021z" style="fill:#e8c015"/><path d="M26.407 25.523a.024.024 0 0 1 0 .026.146.146 0 0 1-.026.032c-.026.01-.053.015-.063 0s0-.037.031-.053a.048.048 0 0 1 .038-.01.023.023 0 0 1 .02.005zM26.391 25.429c-.026.01-.031.063-.031.084 0 0-.011 0-.011.01l-.167-.3c.042.039.178.169.209.206zM26.177 25.22l.167.3a.017.017 0 0 0-.01 0 .11.11 0 0 0-.094-.015z" style="fill:#e8c015"/><path d="m27.259 27.134.053-.031-.91-1.538c-.006 0-.011.016-.021.021s-.016.005-.026.01zm-.868-1.705c-.031-.037-.167-.167-.209-.209l.167.3s.006 0 .011-.01c0-.018.005-.071.031-.081zm-.057.1a.017.017 0 0 1 .01 0l-.167-.3.063.293a.11.11 0 0 1 .094.006zm-.006.068s-.01 0-.015-.015a.05.05 0 0 1 .015-.048.115.115 0 0 0-.094-.015l-.068-.324.006.005s.193.193.224.23c-.026.01-.031.057-.031.084.005 0 .016-.006.022-.006a.03.03 0 0 1 .025.016.034.034 0 0 1 0 .031v.006l.91 1.543-.058.036-.91-1.543zm-.01-.015c.01.015.037.01.063 0a.146.146 0 0 0 .026-.032.024.024 0 0 0 0-.026.023.023 0 0 0-.016 0 .048.048 0 0 0-.038.01c-.03.01-.045.031-.035.047z"/><path d="M26.862 28.222h-.016v-1.255l-.272-.283v1.36a8.198 8.198 0 0 1-.622-.6v.376q.188.2.392.393a2.044 2.044 0 0 0 .236.2c.005.105.036.3.188.361a.4.4 0 0 0 .345-.068c.016-.031.026-.063.042-.094v-.01c-.277.094-.309-.095-.314-.121a.837.837 0 0 0 .434-.314v-.162c-.146.164-.225.253-.413.217z" style="fill:#fff"/><path d="M27.113 28.708a.865.865 0 0 1-.173.277.575.575 0 0 1-.528.142.64.64 0 0 1-.45-.523.84.84 0 0 1-.01-.105v-.675q.188.2.392.393a2.044 2.044 0 0 0 .236.2c.005.105.036.3.188.361a.4.4 0 0 0 .345-.07zM27.28 27.416v.591c-.151.162-.23.251-.418.215h-.016v-1.255z" style="fill:#cd1225"/><path d="M27.28 28.169v.031a2.738 2.738 0 0 1-.12.4c-.277.094-.309-.095-.314-.121a.837.837 0 0 0 .434-.31zM26.574 26.684v1.36a8.198 8.198 0 0 1-.622-.6l-.011-1.418z" style="fill:#022d61"/><path d="M26.543 29.163a.545.545 0 0 1-.136-.016.666.666 0 0 1-.466-.543.681.681 0 0 1-.01-.105v-1.051l-.01-1.418v-.052l1.38 1.428v.8a2.141 2.141 0 0 1-.125.4.018.018 0 0 1 0 .015c-.011.027-.027.058-.037.089a.943.943 0 0 1-.178.283.594.594 0 0 1-.418.17zm-.581-3.08c0 .177.006.8.006 1.365V28.5a.664.664 0 0 0 .01.1.615.615 0 0 0 .434.508.542.542 0 0 0 .126.015.554.554 0 0 0 .382-.151.8.8 0 0 0 .167-.272c.016-.032.031-.063.042-.089v-.016a2.614 2.614 0 0 0 .12-.392v-.779z"/><path d="m25.947 25.962 1.244 1.282-.041.042L25.905 26a.046.046 0 0 0 .026-.021.08.08 0 0 0 .016-.017z" style="fill:#e8c015"/><path d="M25.941 25.921a.022.022 0 0 1 .006.026.168.168 0 0 1-.021.036c-.021.021-.047.026-.058.016a.053.053 0 0 1 .016-.063.045.045 0 0 1 .032-.015.014.014 0 0 1 .01-.006c.005 0 .01.006.015.006zM25.905 25.832c-.026.021-.016.068-.011.089l-.01.01-.23-.256c.053.031.209.13.251.157zM25.649 25.68l.23.256-.011.011a.107.107 0 0 0-.094.005z" style="fill:#e8c015"/><path d="m27.15 27.286.041-.042-1.244-1.282a.08.08 0 0 1-.016.021.046.046 0 0 1-.026.021zm-1.245-1.454-.251-.157.23.256.01-.01c-.005-.021-.015-.068.011-.089zm-.037.115.011-.011-.23-.256.125.272a.107.107 0 0 1 .094-.005zm.016.062a.041.041 0 0 1-.021-.01c-.01-.01 0-.031 0-.047a.115.115 0 0 0-.094 0h-.005l-.136-.3h.005c0 .005.235.146.272.167l.006.006h-.001c-.026.015-.016.062-.01.089a.017.017 0 0 1 .016-.006c.015 0 .025 0 .031.006a.029.029 0 0 1 .005.031l1.248 1.299-.047.047L25.9 26c-.006 0-.011.009-.016.009zM25.868 26c.011.01.037.005.058-.016a.168.168 0 0 0 .021-.036.022.022 0 0 0-.006-.026s-.01-.006-.015-.006a.014.014 0 0 0-.01.006.045.045 0 0 0-.032.015.053.053 0 0 0-.016.063z"/><path d="M27.908 28.039a.019.019 0 0 0 .016-.006l-.084-1.244.251-.3.089 1.355c.22-.209.486-.518.586-.638.01.131.015.256.026.376a9.38 9.38 0 0 1-.366.419 2.021 2.021 0 0 1-.22.214c0 .105-.021.3-.162.372a.411.411 0 0 1-.35-.042 1.195 1.195 0 0 0-.048-.089v-.016c.282.079.3-.11.3-.136a.832.832 0 0 1-.449-.282l-.016-.162c.155.147.239.226.427.179z" style="fill:#fff"/><path d="M27.694 28.541a.846.846 0 0 0 .188.261.571.571 0 0 0 .538.11.649.649 0 0 0 .414-.554.736.736 0 0 0 0-.105c0-.036-.021-.314-.042-.675a9.38 9.38 0 0 1-.366.419 2.021 2.021 0 0 1-.22.214c0 .105-.021.3-.162.372a.411.411 0 0 1-.35-.042zM27.437 27.265l.037.591c.162.151.246.23.434.183a.019.019 0 0 0 .016-.006l-.084-1.244z" style="fill:#cd1225"/><path d="M27.49 28.018v.031a2.446 2.446 0 0 0 .152.387c.282.079.3-.11.3-.136a.832.832 0 0 1-.452-.282zM28.091 26.485l.089 1.355c.22-.209.486-.518.586-.638l-.089-1.412z" style="fill:#022d61"/><path d="M27.871 28.818a.921.921 0 0 1-.2-.267l-.047-.094a.014.014 0 0 0-.006-.01 3.166 3.166 0 0 1-.151-.393l-.053-.795 1.286-1.522v.053l.089 1.412c.01.131.015.256.026.376.015.283.036.633.042.675v.105a.656.656 0 0 1-.429.57.512.512 0 0 1-.131.031.6.6 0 0 1-.426-.141zm-.413-1.548.052.774a2.551 2.551 0 0 0 .147.387v.01c.016.027.032.058.047.089a.8.8 0 0 0 .188.257.542.542 0 0 0 .393.13.42.42 0 0 0 .12-.026.611.611 0 0 0 .4-.533.369.369 0 0 0 0-.105c0-.042-.026-.387-.042-.675-.011-.115-.016-.245-.026-.371-.032-.57-.073-1.187-.084-1.365z"/><path d="M28.755 25.622 27.6 26.987l.047.037 1.151-1.36-.026-.015c-.006-.011-.012-.016-.017-.027z" style="fill:#e8c015"/><path d="M28.755 25.586a.024.024 0 0 0 0 .026c0 .01.011.021.021.031s.047.021.058.011 0-.037-.021-.058a.047.047 0 0 0-.032-.015h-.01a.02.02 0 0 0-.016.005zM28.787 25.492c.026.015.021.068.015.089.006 0 .011 0 .016.01l.209-.272a6.334 6.334 0 0 1-.24.173zM29.032 25.324l-.214.272a.017.017 0 0 1 .01 0 .131.131 0 0 1 .1 0z" style="fill:#e8c015"/><path d="m28.8 25.664-.026-.015c-.005-.011-.011-.016-.016-.027L27.6 26.987l.047.037zm0-.083c.006 0 .011 0 .016.01l.209-.272c-.047.037-.2.146-.24.173.028.015.023.068.015.089zm.126.02.1-.277-.214.272a.017.017 0 0 1 .01 0 .131.131 0 0 1 .106.004zm-.126.063-1.156 1.371-.052-.048 1.156-1.37v-.005a.034.034 0 0 1 0-.031.033.033 0 0 1 .031-.006.017.017 0 0 1 .016.006c0-.027.011-.074-.016-.089.037-.027.257-.189.262-.189v-.005l-.12.309a.126.126 0 0 0-.094 0c.011.021.015.042 0 .052s-.011.005-.021.005zm.011-.068a.047.047 0 0 0-.032-.015h-.01a.02.02 0 0 0-.016 0 .024.024 0 0 0 0 .026c0 .01.011.021.021.031s.047.021.058.011.007-.032-.019-.049z"/><path d="m28.394 25.565-.9 1.538.047.031.91-1.538c-.011 0-.021 0-.027-.01s-.019-.016-.03-.021z" style="fill:#e8c015"/><path d="M28.394 25.523a.024.024 0 0 0 0 .026.183.183 0 0 0 .026.032c.027.01.053.015.063 0s0-.037-.031-.053a.052.052 0 0 0-.037-.01h-.01a.022.022 0 0 0-.011.005zM28.41 25.429c.026.01.031.063.031.084 0 0 .006 0 .011.01l.162-.3a4.37 4.37 0 0 0-.204.206zM28.619 25.22l-.162.3h.011a.109.109 0 0 1 .094-.015z" style="fill:#e8c015"/><path d="M28.447 25.6c-.011 0-.021 0-.027-.01s-.015-.016-.026-.021l-.9 1.538.047.031zm-.006-.083s.006 0 .011.01l.162-.3c-.042.042-.173.172-.2.209.022.003.027.056.027.077zm.121 0 .057-.293-.162.3h.011a.109.109 0 0 1 .094-.011zm-.11.083-.91 1.543-.057-.036.909-1.543v-.006a.034.034 0 0 1 0-.031.03.03 0 0 1 .026-.016c.005 0 .011.006.016.006 0-.027 0-.074-.031-.084.031-.037.224-.225.224-.23l.011-.005-.068.324a.1.1 0 0 0-.089.015.048.048 0 0 1 .015.048c0 .01-.009.01-.02.015zm0-.068a.052.052 0 0 0-.037-.01h-.01a.022.022 0 0 0-.011 0 .024.024 0 0 0 0 .026.183.183 0 0 0 .026.032c.027.01.053.015.063 0s-.004-.036-.031-.052z"/><path d="M27.939 28.222h.011v-1.255l.272-.283v1.36c.235-.194.518-.486.627-.6v.376a5.13 5.13 0 0 1-.4.393 1.7 1.7 0 0 1-.23.2c-.005.105-.037.3-.189.361a.406.406 0 0 1-.345-.068c-.015-.031-.026-.063-.042-.094v-.01c.276.094.308-.095.308-.121a.861.861 0 0 1-.434-.314v-.162c.15.164.229.253.422.217z" style="fill:#fff"/><path d="M27.688 28.708a.787.787 0 0 0 .173.277.576.576 0 0 0 .528.142.638.638 0 0 0 .456-.628v-.675a5.13 5.13 0 0 1-.4.393 1.7 1.7 0 0 1-.23.2c-.005.105-.037.3-.189.361a.406.406 0 0 1-.338-.07zM27.516 27.416v.591c.151.162.23.251.423.215h.011v-1.255z" style="fill:#cd1225"/><path d="M27.516 28.169v.031a3.358 3.358 0 0 0 .126.4c.276.094.308-.095.308-.121a.861.861 0 0 1-.434-.31zM28.222 26.684v1.36c.235-.194.518-.486.627-.6.006-.675.006-1.418.006-1.418z" style="fill:#022d61"/><path d="M27.845 29a.87.87 0 0 1-.178-.283c-.015-.031-.025-.062-.036-.089a.018.018 0 0 1 0-.015 2.07 2.07 0 0 1-.126-.4v-.8l1.376-1.428v.052s0 .743-.006 1.418v.376c0 .283-.005.633-.005.675a.7.7 0 0 1 0 .105.666.666 0 0 1-.466.543.539.539 0 0 1-.136.016.6.6 0 0 1-.423-.17zm-.308-1.574v.774a3.347 3.347 0 0 0 .125.392s.005.011.005.016a.959.959 0 0 1 .037.089 1.022 1.022 0 0 0 .167.272.575.575 0 0 0 .387.151.542.542 0 0 0 .126-.015.623.623 0 0 0 .434-.508.657.657 0 0 0 0-.1V27.446c.006-.57.006-1.188.006-1.365z"/><path d="m28.855 25.962-1.245 1.282.042.042L28.891 26a.083.083 0 0 1-.021-.021c-.01-.001-.015-.006-.015-.017zM28.86 25.921c-.011 0-.011.015 0 .026a.062.062 0 0 0 .021.036.044.044 0 0 0 .057.016.052.052 0 0 0-.016-.063.046.046 0 0 0-.036-.015c0-.006 0-.006-.011-.006s-.015.006-.015.006z" style="fill:#e8c015"/><path d="M28.9 25.832c.026.021.015.068.01.089a.011.011 0 0 0 .01.01l.23-.256c-.05.031-.217.13-.25.157zM29.153 25.68l-.23.256s.005 0 .005.011a.115.115 0 0 1 .1.005z" style="fill:#e8c015"/><path d="M28.891 26a.083.083 0 0 1-.021-.021c-.01 0-.015-.01-.015-.021l-1.245 1.286.042.042zm.016-.083a.011.011 0 0 0 .01.01l.23-.256c-.052.031-.214.13-.25.157.026.025.015.072.01.093zm.12.031.126-.272-.23.256s.005 0 .005.011a.115.115 0 0 1 .099.009zM28.9 26l-1.245 1.287-.047-.047 1.244-1.287c0-.016 0-.026.006-.031s.015-.011.031-.006a.018.018 0 0 1 .016.006c0-.027.015-.074-.011-.089v-.006c.037-.021.267-.162.272-.167l-.141.3a.115.115 0 0 0-.094 0c.011.016.016.037 0 .047 0 .005-.01.01-.016.01S28.907 26 28.9 26zm.02-.068a.046.046 0 0 0-.036-.015c0-.006 0-.006-.011-.006s-.01.006-.01.006-.011.015 0 .026a.062.062 0 0 0 .021.036.044.044 0 0 0 .057.016.052.052 0 0 0-.024-.059z"/><path d="m27.218 27.505-.063.931a.028.028 0 0 1-.016-.01c-.042-.047-.036-.168-.031-.241l.083-.68zM27.442 29.106a.184.184 0 0 1-.13.2.139.139 0 0 1-.105-.021.2.2 0 0 1-.063-.089v-.021c0-.011.006-.016.011-.026a.2.2 0 0 1 .188-.068l.068.015c.011.004.022.01.031.01z" style="fill:#022d61"/><path d="m27.485 28.813.02.266c-.015 0-.026 0-.042-.01a.123.123 0 0 1-.041-.01l-.074-.016a.342.342 0 0 0-.125.01.347.347 0 0 0-.073.042l.109-1.59h.041l-.062 1.195a.136.136 0 0 0 .038.1.131.131 0 0 0 .1.042.357.357 0 0 0 .109-.029z" style="fill:#022d61"/><path d="m27.15 28.478-.027.434a.075.075 0 0 1-.062-.026.122.122 0 0 1-.026-.089l.047-.387a.107.107 0 0 0 .026.042.07.07 0 0 0 .042.026zM27.469 28.609l.016.162c-.058.021-.137.047-.179 0a.077.077 0 0 1-.02-.084.172.172 0 0 1 .167-.078zM27.4 27.505l.074 1.062h-.016a.266.266 0 0 0-.167.052l.052-1.114zM27.767 28.41c0 .031-.032.068-.089.1l-.078-.61a1.377 1.377 0 0 0-.021-.162c.083.269.188.625.188.672z" style="fill:#cd1225"/><path d="M27.678 28.86c0 .068.016.136-.036.183a.138.138 0 0 1-.095.036l-.037-.479v-.042l-.073-1.057h.068c.021.121.037.251.058.4.026.209.052.418.079.622v.047c0 .021.006.047.006.073.01.058.015.126.021.189.004.012.009.017.009.028z" style="fill:#fff"/><path d="M27.809 28.41c0 .047-.047.1-.126.141 0 .032 0 .058.011.089.005.058.015.126.02.194a.037.037 0 0 0 .006.021.244.244 0 0 1-.053.219.192.192 0 0 1-.182.042.244.244 0 0 1-.037.136.191.191 0 0 1-.126.094.136.136 0 0 1-.042 0 .178.178 0 0 1-.094-.026.192.192 0 0 1-.078-.115.047.047 0 0 1 0-.026v-.005l.016-.225a.114.114 0 0 1-.09-.042.15.15 0 0 1-.036-.12l.078-.612v-.031l.084-.68h.387v.015c.016.058.253.847.262.931zm-.131.1c.057-.031.089-.068.089-.1 0-.047-.105-.4-.189-.675a1.377 1.377 0 0 1 .021.162zm-.036.534c.052-.047.041-.115.036-.183 0-.011-.005-.016-.005-.026-.006-.063-.011-.131-.021-.189 0-.026-.006-.052-.006-.073v-.047c-.027-.2-.053-.413-.079-.622-.021-.147-.037-.277-.058-.4h-.068l.073 1.057v.039l.037.475a.138.138 0 0 0 .091-.032zm-.137.036-.02-.266a.357.357 0 0 1-.111.026.131.131 0 0 1-.1-.042.136.136 0 0 1-.038-.1l.058-1.193h-.037L27.15 29.1a.347.347 0 0 1 .073-.042.342.342 0 0 1 .125-.01l.074.016a.123.123 0 0 0 .041.01c.016 0 .027 0 .042.005zm-.02-.308-.016-.162h-.016a.172.172 0 0 0-.167.078.077.077 0 0 0 .02.084c.042.046.121.02.179-.001zm-.016-.2-.069-1.067h-.057l-.052 1.114a.266.266 0 0 1 .167-.052zm-.053.664a.2.2 0 0 0 .026-.125c-.009 0-.02-.006-.031-.006l-.068-.015a.2.2 0 0 0-.188.068c-.005.01-.011.015-.011.026v.016a.2.2 0 0 0 .063.089.139.139 0 0 0 .105.021.193.193 0 0 0 .104-.079zm-.261-.8.063-.931h-.027l-.083.68c0 .073-.011.194.031.241a.028.028 0 0 0 .016.01zm-.032.476.027-.434a.07.07 0 0 1-.042-.026.107.107 0 0 1-.026-.042l-.047.387a.122.122 0 0 0 .026.089.075.075 0 0 0 .062.026z"/><path d="M27.51 26.956h-.219v-.973h-.209v-.219h.209v-.22h.219v.22h.21v.219h-.21z" style="fill:#e8c015"/><path d="M27.51 26.956h-.219v-.973h-.209v-.219h.209v-.22h.219v.22h.21v.219h-.21zm-.177-.042h.136v-.973h.209v-.136h-.209v-.219h-.136v.219h-.214v.136h.214z" style="fill:#020202"/><path style="fill:#fff" d="m27.636 26.585.549.852-1.072.701-.502-.889 1.025-.664z"/><path d="m27.646 26.538.591.91-1.14.742-.533-.957zm.539.9-.549-.852-1.025.664.5.889z"/><path d="M27.113 27.986v.074l-.465-.822v-.067c.088.156.439.774.465.815zM27.547 26.543l.518.79a.2.2 0 0 1-.12.12.373.373 0 0 0-.267.225l-.46-.785a.177.177 0 0 1 .031-.083.358.358 0 0 1 .2-.152.128.128 0 0 0 .078-.078zM27.2 26.9l.455.784a.389.389 0 0 0-.3.141c-.011.011-.016.027-.026.037a.15.15 0 0 1-.042.052.189.189 0 0 1-.079.047.225.225 0 0 1-.062.011h-.021l-.471-.837a.154.154 0 0 0 .068 0 .308.308 0 0 0 .188-.115.329.329 0 0 1 .189-.115.369.369 0 0 1 .101-.005z" style="fill:#fff"/><path d="m28.091 27.333.042.136-1 .638-.011.01-.5-.873-.011-.131.026.01a.37.37 0 0 0 .084 0 .263.263 0 0 0 .173-.11.344.344 0 0 1 .2-.12.329.329 0 0 1 .094-.005.331.331 0 0 1 .031-.084.411.411 0 0 1 .22-.162.126.126 0 0 0 .068-.068l.026-.073.549.831zm-.026 0-.518-.79-.016.037a.128.128 0 0 1-.078.078.358.358 0 0 0-.2.152.177.177 0 0 0-.031.083l.46.785a.373.373 0 0 1 .267-.225.2.2 0 0 0 .116-.12zm-.408.355L27.2 26.9a.369.369 0 0 0-.1 0 .329.329 0 0 0-.189.115.308.308 0 0 1-.188.115.154.154 0 0 1-.068 0c.068.126.439.779.471.837h.021a.225.225 0 0 0 .062-.011.189.189 0 0 0 .079-.047.15.15 0 0 0 .042-.052c.01-.01.015-.026.026-.037a.389.389 0 0 1 .301-.132zm-.544.372v-.074a92.49 92.49 0 0 1-.465-.815v.067z"/><path d="M30.058 24.7a.035.035 0 0 1-.037.031.079.079 0 0 1-.063-.015.552.552 0 0 1-.131-.089.293.293 0 0 0-.041-.032.367.367 0 0 0-.178-.089l.031-.078c.058.026.12.052.178.084a.983.983 0 0 1 .214.151c.017.013.027.023.027.037zM25.141 24.435l.047.073a.4.4 0 0 0-.172.089l-.047.032a.444.444 0 0 1-.126.089.086.086 0 0 1-.068.015c-.016 0-.036-.015-.031-.031a.052.052 0 0 1 .021-.037 1 1 0 0 1 .219-.151z" style="fill:#032344"/><path d="M26.538 24.08a.633.633 0 0 0 .251-.053.262.262 0 0 1 .036-.015c.047-.027.11-.063.162-.032l-.036-.193c0-.011-.058 0-.063 0a.621.621 0 0 0-.429.146c-.052.067.005.141.079.147zm.462-.011s0-.021-.021-.047-.083-.01-.141.021a.154.154 0 0 0-.036.016.768.768 0 0 1-.273.057c-.083 0-.115-.068-.136-.131l-.015-.036c0-.026-.016-.058-.026-.094-.006-.016-.011-.037-.016-.053a1.2 1.2 0 0 1-.042-.157c-.105 0-.214 0-.329.006a3.163 3.163 0 0 0-.931.214l-.079.031a.905.905 0 0 0-.507.325.231.231 0 0 0 .031.24 1.05 1.05 0 0 0 .225.23.132.132 0 0 1 .037-.052.989.989 0 0 1 .225-.157 2.286 2.286 0 0 1 .669-.24 2.828 2.828 0 0 1 .727-.032 1.7 1.7 0 0 0 .44-.026c.065-.01.185-.063.198-.115zm1.01-.042a.626.626 0 0 0 .251.053.093.093 0 0 0 .078-.147.617.617 0 0 0-.429-.146s-.062-.011-.062 0l-.042.193c.052-.031.12 0 .167.032zm-4.524.921c.109-.006.292-.016.4-.016l.042.005-.026.026c-.031.037-.12.173-.183.278a2.411 2.411 0 0 1 .356-.152 5 5 0 0 1 .507-.152 1.766 1.766 0 0 0 .4-.146c.146-.079.23-.152.23-.209a.051.051 0 0 0-.011-.037c-.031-.016-.11.031-.172.078a.137.137 0 0 0-.029.037 1.311 1.311 0 0 1-.136.094.149.149 0 0 1-.089.016h-.021s0-.006-.01-.006h-.006a1.186 1.186 0 0 1-.272-.261 2.789 2.789 0 0 0-.977.445zm6.574-.189a.021.021 0 0 0-.011.006h-.021a.145.145 0 0 1-.088-.016.942.942 0 0 1-.137-.094.274.274 0 0 0-.041-.037c-.063-.047-.147-.094-.173-.078-.01 0-.015.016-.015.037 0 .057.083.13.229.209a1.82 1.82 0 0 0 .408.146 5.076 5.076 0 0 1 .508.152 2.374 2.374 0 0 1 .35.152 3.344 3.344 0 0 0-.178-.278l-.026-.026.042-.005c.11 0 .293.01.4.016a2.787 2.787 0 0 0-.973-.455 1.184 1.184 0 0 1-.277.261zm.031-.068a1.028 1.028 0 0 0 .225-.23.217.217 0 0 0 .026-.24.873.873 0 0 0-.5-.325 1.15 1.15 0 0 1-.084-.031 3.163 3.163 0 0 0-.931-.214 3.278 3.278 0 0 0-.329-.006.9.9 0 0 1-.037.157c0 .016-.01.037-.015.053a1.015 1.015 0 0 1-.032.094l-.01.036c-.021.063-.052.126-.141.131a.733.733 0 0 1-.263-.057c-.011-.006-.026-.011-.037-.016-.063-.031-.109-.052-.141-.021s-.026.042-.02.047c.01.052.135.105.193.115a1.747 1.747 0 0 0 .444.026 2.826 2.826 0 0 1 .727.032 2.3 2.3 0 0 1 .67.24 1.141 1.141 0 0 1 .225.157.129.129 0 0 1 .033.052zm-2.259-.941q.408.015.5.126l.047.062c0-.026.016-.057.026-.094 0-.016.01-.036.016-.052a.884.884 0 0 0 .042-.162.283.283 0 0 0-.136-.319l-.084-.032a1.7 1.7 0 0 0-.23-.026h-.037c-.084-.005-.178-.011-.267-.011h-.622c-.094 0-.183.006-.267.011h-.037a1.721 1.721 0 0 0-.23.026l-.083.032a.282.282 0 0 0-.136.319 1.451 1.451 0 0 0 .036.162c.006.016.017.036.021.052.011.037.016.068.026.094a.533.533 0 0 1 .047-.062q.095-.111.5-.126c.183-.01.361 0 .413 0h.036c.061 0 .239-.01.422 0zM31.423 25l-.058-.005a4.078 4.078 0 0 0-.418-.021c.052.078.157.251.2.329l.067.126-.094-.105a3.014 3.014 0 0 0-.915-.345 1.847 1.847 0 0 1-.413-.152c-.11-.057-.246-.151-.246-.24 0-.021 0-.037.01-.047s.022-.048.032-.068l.015-.053a2.311 2.311 0 0 0-.449-.141 2.971 2.971 0 0 0-.717-.026 1.846 1.846 0 0 1-.45-.026c-.052-.011-.2-.063-.224-.141a.051.051 0 0 1 0-.042l.052-.257a3.875 3.875 0 0 0-.4.006h-.035a3.758 3.758 0 0 0-.393-.006l.053.257a.118.118 0 0 1 0 .042c-.026.078-.173.13-.225.141a1.843 1.843 0 0 1-.45.026 3.024 3.024 0 0 0-.722.026 2.179 2.179 0 0 0-.465.152l.063.1a.073.073 0 0 1 .015.053c0 .089-.136.183-.246.24a1.979 1.979 0 0 1-.418.152 2.981 2.981 0 0 0-.91.345l-.094.105.063-.126c.047-.078.146-.251.2-.329a4.116 4.116 0 0 0-.419.021l-.053.009.042-.037a2.681 2.681 0 0 1 1.019-.5.255.255 0 0 1-.021-.261.942.942 0 0 1 .523-.34l.085-.032a3.226 3.226 0 0 1 .941-.214h.324a.313.313 0 0 1 .162-.33.466.466 0 0 1 .089-.031 1.137 1.137 0 0 1 .235-.031.069.069 0 0 0 .037-.006c.089 0 .178 0 .272-.01h.627c.1 0 .183 0 .267.01a.094.094 0 0 0 .037.006 1.185 1.185 0 0 1 .24.031.422.422 0 0 1 .089.031.3.3 0 0 1 .157.33h.33a3.24 3.24 0 0 1 .941.214l.079.032a.939.939 0 0 1 .523.34.249.249 0 0 1-.016.261 2.747 2.747 0 0 1 1.02.5zm-1.4-.262a.035.035 0 0 0 .037-.031c0-.016-.01-.026-.027-.037a.983.983 0 0 0-.214-.151c-.058-.032-.12-.058-.178-.084l-.031.078a.367.367 0 0 1 .178.089.293.293 0 0 1 .041.032.552.552 0 0 0 .131.089.079.079 0 0 0 .061.01zm-4.833-.225-.047-.073-.157.079a1 1 0 0 0-.219.151.052.052 0 0 0-.021.037c0 .016.015.031.031.031a.086.086 0 0 0 .068-.015.444.444 0 0 0 .126-.089l.047-.032a.4.4 0 0 1 .17-.094z"/><path d="M30.345 24.221a.217.217 0 0 1-.026.24 1.028 1.028 0 0 1-.225.23.129.129 0 0 0-.036-.052 1.141 1.141 0 0 0-.225-.157 2.3 2.3 0 0 0-.67-.24 2.826 2.826 0 0 0-.727-.032 1.747 1.747 0 0 1-.444-.026c-.058-.01-.183-.063-.193-.115-.006 0-.011-.021.02-.047s.078-.01.141.021c.011 0 .026.01.037.016a.733.733 0 0 0 .267.057c.089 0 .12-.068.141-.131l.01-.036c.011-.026.021-.058.032-.094l.015-.053a.9.9 0 0 0 .037-.157 3.278 3.278 0 0 1 .329.006 3.163 3.163 0 0 1 .931.214c.027.011.053.021.084.031a.873.873 0 0 1 .502.325z" style="fill:#022d61"/><path d="M29.592 24.545c.026-.016.11.031.173.078a.274.274 0 0 1 .041.037.942.942 0 0 0 .137.094.145.145 0 0 0 .088.016h.021a.021.021 0 0 1 .011-.006 1.184 1.184 0 0 0 .277-.261 2.787 2.787 0 0 1 .973.455c-.11-.006-.293-.016-.4-.016l-.042.005.026.026c.032.037.115.173.178.278a2.374 2.374 0 0 0-.35-.152 5.076 5.076 0 0 0-.508-.152 1.82 1.82 0 0 1-.408-.146c-.146-.079-.229-.152-.229-.209-.003-.031.002-.042.012-.047z" style="fill:#022d61"/><path d="M27.913 23.787a.617.617 0 0 1 .429.146.093.093 0 0 1-.078.147.626.626 0 0 1-.251-.053l-.037-.015c-.047-.027-.115-.063-.167-.032l.042-.193c0-.011.057 0 .062 0z" style="fill:#032344"/><path d="M28.018 23.253a1.7 1.7 0 0 1 .23.026l.084.032a.283.283 0 0 1 .136.319.884.884 0 0 1-.042.162c-.006.016-.011.036-.016.052-.01.037-.021.068-.026.094l-.047-.062q-.095-.111-.5-.126c-.183-.01-.361 0-.419 0h-.038c-.052 0-.23-.01-.413 0q-.408.015-.5.126a.533.533 0 0 0-.047.062c-.01-.026-.015-.057-.026-.094 0-.016-.015-.036-.021-.052a1.451 1.451 0 0 1-.036-.162.282.282 0 0 1 .136-.319l.083-.032a1.721 1.721 0 0 1 .23-.026h.037c.084-.005.173-.011.267-.011h.629c.089 0 .183.006.267.011.006-.005.022 0 .032 0z" style="fill:#022d61"/><path d="m26.951 23.787.036.193c-.052-.031-.115 0-.162.032a.262.262 0 0 0-.036.015.633.633 0 0 1-.251.053c-.074-.006-.131-.084-.079-.147a.621.621 0 0 1 .429-.146s.063-.011.063 0z" style="fill:#032344"/><path d="M24.461 24.493a1.186 1.186 0 0 0 .272.261h.006l.01.006h.021a.149.149 0 0 0 .089-.016A1.311 1.311 0 0 0 25 24.66a.137.137 0 0 1 .042-.037c.062-.047.141-.094.172-.078a.051.051 0 0 1 .011.037c0 .057-.084.13-.23.209a1.766 1.766 0 0 1-.4.146 5 5 0 0 0-.507.152 2.411 2.411 0 0 0-.356.152c.063-.105.152-.241.183-.278l.026-.026-.042-.005c-.11 0-.293.01-.4.016a2.789 2.789 0 0 1 .962-.455z" style="fill:#022d61"/><path d="M26.355 23.855c.01.036.021.068.026.094l.015.036c.021.063.053.126.136.131a.768.768 0 0 0 .273-.057.154.154 0 0 1 .036-.016c.058-.031.11-.052.141-.021s.021.042.021.047c-.016.052-.136.105-.2.115a1.7 1.7 0 0 1-.44.026 2.828 2.828 0 0 0-.727.032 2.286 2.286 0 0 0-.669.24.989.989 0 0 0-.225.157.132.132 0 0 0-.037.052 1.05 1.05 0 0 1-.225-.23.231.231 0 0 1-.031-.24.905.905 0 0 1 .507-.325l.079-.031a3.163 3.163 0 0 1 .931-.214c.115-.006.224-.011.329-.006a1.2 1.2 0 0 0 .042.157c.007.016.012.037.018.053z" style="fill:#022d61"/><path d="M25.371 24.027c.037.1 0 .168-.109.2l-.095.032-.005-.011.032-.01-.094-.268-.026.01v-.016l.094-.031c.104-.033.172-.005.203.094zm-.052.016a.2.2 0 0 0-.057-.094.114.114 0 0 0-.095-.005l-.021.01.095.272h.015c.042-.016.068-.037.074-.063a.156.156 0 0 0-.011-.12zM25.55 24.142l-.105.026v-.01l.026-.005-.071-.283-.027.011v-.011l.105-.026v.011h-.031l.073.282.032-.01zM25.821 23.938a.183.183 0 0 1-.021.121.128.128 0 0 1-.089.057.116.116 0 0 1-.109-.026.181.181 0 0 1-.058-.11.179.179 0 0 1 .021-.12.131.131 0 0 1 .2-.032.189.189 0 0 1 .056.11zm-.057.006a.331.331 0 0 0-.037-.11.067.067 0 0 0-.068-.026c-.052.01-.073.062-.057.162a.354.354 0 0 0 .036.115.073.073 0 0 0 .069.026.07.07 0 0 0 .057-.047.238.238 0 0 0 0-.12zM26.1 23.991a.084.084 0 0 1-.031.068.146.146 0 0 1-.094.031.126.126 0 0 1-.094-.021l-.006-.094h.011a.313.313 0 0 0 .037.089.063.063 0 0 0 .057.021.084.084 0 0 0 .052-.026.058.058 0 0 0 0-.089.113.113 0 0 0-.052-.021.252.252 0 0 1-.078-.037.066.066 0 0 1-.032-.057.074.074 0 0 1 .03-.055.132.132 0 0 1 .083-.031.248.248 0 0 1 .084.015l.006.089h-.011a.326.326 0 0 0-.032-.073.059.059 0 0 0-.052-.021.1.1 0 0 0-.057.021.04.04 0 0 0-.021.037.054.054 0 0 0 .026.042.4.4 0 0 0 .068.026.32.32 0 0 1 .073.036.059.059 0 0 1 .033.05zM26.967 23.431a.076.076 0 0 1-.032.063.221.221 0 0 1-.1.021h-.026l.01.131h.037v.01h-.115v-.01h.026l-.02-.272h-.027v-.011l.11-.01a.33.33 0 0 1 .083 0 .076.076 0 0 1 .054.078zm-.053 0a.063.063 0 0 0-.021-.047.159.159 0 0 0-.057-.011l-.037.006.011.125h.015a.1.1 0 0 0 .068-.015c.017-.011.021-.032.021-.058zM27.259 23.651h-.1l-.005-.011h.031l-.031-.1h-.095l-.036.109h.042v.011h-.079v-.011h.026l.1-.292.026-.006.1.293h.026zm-.115-.126-.041-.136-.042.136zM27.479 23.457h-.01c-.011-.042-.021-.068-.021-.073a.028.028 0 0 0-.026-.016H27.4v.277h.032v.011l-.11.005v-.01l.031-.006v-.277h-.026a.023.023 0 0 0-.026.016.473.473 0 0 0-.02.073h-.011v-.094h.214zM27.751 23.651h-.068l-.1-.142s-.006 0-.011-.01v.141h.028v.011h-.1v-.011h.026v-.272H27.5v-.015h.12c.073 0 .115.021.11.068a.057.057 0 0 1-.026.052.132.132 0 0 1-.073.021l.1.141h.021zm-.073-.225c0-.042-.026-.058-.073-.058h-.032v.126h.011c.062 0 .094-.026.094-.068zM27.861 23.656h-.105v-.016h.026l.011-.272h-.026v-.01h.1v.01h-.027l-.011.277h.032zM28.138 23.682l-.11-.016.005-.01.027.005-.021-.11-.094-.01-.048.1.042.006v.01l-.073-.01v-.007h.026l.126-.282h.031l.068.3.026.006zm-.1-.141-.031-.136-.058.125zM28.729 24.09h-.193.02l-.005-.257h-.026.105v.01h-.037l.011.257h.057a.053.053 0 0 0 .021-.005.011.011 0 0 0 .01-.011.257.257 0 0 0 .021-.089h.011zM28.845 24.09h-.095v-.01h.026v-.257h-.026v-.01h.095v.01h-.027v.257h.027zM29.1 24.027c0 .047-.036.068-.1.068h-.131v-.01h.026l.021-.257h-.026v-.01l.089.005a.129.129 0 0 1 .078.016.072.072 0 0 1 .042.057c0 .037-.031.058-.088.058a.181.181 0 0 1 .072.026.066.066 0 0 1 .017.047zm-.047-.005a.059.059 0 0 0-.021-.052.121.121 0 0 0-.073-.016h-.016v.131h.026c.026 0 .052 0 .063-.011s.011-.026.016-.052zm0-.131c0-.026 0-.042-.021-.047a.079.079 0 0 0-.058-.016h-.015l-.005.116h.01c.047.005.074-.016.079-.053zM29.315 24.142l-.215-.036V24.1l.027.005.047-.251h-.021v-.01l.2.036-.016.089h-.016a.205.205 0 0 0 0-.068.017.017 0 0 0 0-.01c-.005 0-.011-.006-.021-.006l-.073-.015-.021.115.021.005a.03.03 0 0 0 .031-.005c.005 0 .011-.016.021-.042h.01l-.02.115h-.011a.24.24 0 0 1 0-.047.025.025 0 0 0-.026-.016h-.026l-.021.126.078.015a.029.029 0 0 0 .021.006c0-.006 0-.006.01-.011a.633.633 0 0 0 .037-.073h.011zM29.566 24.221 29.5 24.2l-.052-.152a.022.022 0 0 0 0-.016l-.042.131h.026v.011l-.094-.026v-.011l.026.006.073-.246-.021-.006v-.01l.1.031c.068.021.094.053.083.095a.05.05 0 0 1-.036.036.084.084 0 0 1-.073 0l.052.157.021.005zm0-.225c.01-.037-.011-.058-.053-.073l-.026-.006-.036.11c.063.021.094.011.11-.027zM29.812 24.116H29.8c.005-.042.011-.063.011-.068s-.006-.021-.016-.021l-.026-.01-.094.24.026.011-.005.01-.095-.042v-.01l.032.01.095-.236-.021-.01c-.01-.006-.021-.006-.026 0s-.021.021-.042.052h-.01l.031-.084.188.079zM29.969 24.409l-.089-.047h.005l.026.01.016-.1-.079-.042-.073.073.031.016h-.005l-.063-.031.006-.005.021.01.209-.2.021.011-.042.282.021.011zm-.037-.152.021-.13-.094.089zM30.257 24.419a.131.131 0 0 1-.2.048l-.079-.048.005-.01.026.016.126-.225-.026-.011v-.01l.078.047a.126.126 0 0 1 .07.193zm-.043-.026a.145.145 0 0 0 .027-.094c0-.026-.021-.047-.053-.068l-.015-.005-.125.22.015.01a.1.1 0 0 0 .083.011.16.16 0 0 0 .068-.074z" style="fill:#e8c015"/><path d="M27.563 31.307a.132.132 0 0 1 0 .063.045.045 0 0 1-.016.032c-.016.015-.057.015-.126.015s-.125 0-.14-.015a.042.042 0 0 1-.006-.037.017.017 0 0 0 .006-.016l.015-.047a.312.312 0 0 0 0-.068.272.272 0 0 0-.032-.062c-.01-.021-.021-.032-.021-.048v-.01s0-.016.011-.021a.065.065 0 0 1 .026-.031c.01-.011.026-.016.094-.026a.884.884 0 0 1 .1-.011c.016 0 .022 0 .027.005a.094.094 0 0 1 .041.063.018.018 0 0 1 .006.016v.01a.037.037 0 0 0-.006.021.116.116 0 0 0 0 .073c0 .011.011.016.011.021v.006c.005.005.005.01.01.015s-.005.037 0 .052z" style="fill:#b21229"/><path d="M28.081 31.334a.15.15 0 0 1-.006.068c.168.062.3.1.366.125a3.607 3.607 0 0 1-.1-.183l-.011-.016h.016a.48.48 0 0 0 .126-.063 2.593 2.593 0 0 1-.377-.109.1.1 0 0 1-.016.057v.016a.053.053 0 0 0-.016.042.125.125 0 0 0 .011.041c-.004.006.001.011.007.022zm-.487.031a1.372 1.372 0 0 0 .209.068.216.216 0 0 0 .058.01c0-.005 0-.01-.016-.02a.353.353 0 0 0-.172-.079l-.016-.005-.063-.016zm-.021-.131a.27.27 0 0 0 .073.021.457.457 0 0 0 .068.021.589.589 0 0 1 .152.052.3.3 0 0 1 .084.079l-.021.021a.434.434 0 0 0-.078-.073.424.424 0 0 0-.151-.055.635.635 0 0 0-.062-.015l-.058-.016a.033.033 0 0 1 0 .021.36.36 0 0 1 .078.021h.011a.418.418 0 0 1 .188.089c.016.015.037.041.026.057s-.015.016-.036.016a.265.265 0 0 1-.057-.011 1.613 1.613 0 0 1-.21-.068c0 .006 0 .011-.011.016a.649.649 0 0 0 .068.026c.168.058.241.084.3.053a.192.192 0 0 0 .089-.089.085.085 0 0 0 .01-.058.041.041 0 0 0-.01-.021.165.165 0 0 1-.016-.063.144.144 0 0 1 .016-.052l.01-.01c0-.021.011-.042.016-.068a.134.134 0 0 0-.032-.094.16.16 0 0 0-.146-.042.252.252 0 0 0-.115.031.863.863 0 0 1-.094.042l-.11.031v.011h.074a.971.971 0 0 0 .24-.016.378.378 0 0 0 .1-.031l.011.026a.564.564 0 0 1-.105.036 1.122 1.122 0 0 1-.245.011h-.079v.016a.056.056 0 0 0 0 .052v.021h.005s.012.012.017.012zm-.842.073a.065.065 0 0 0 .016-.041.058.058 0 0 0-.016-.042s-.005-.011-.005-.016a.1.1 0 0 1-.016-.057 2.775 2.775 0 0 1-.376.109.489.489 0 0 0 .12.063h.021l-.011.016s-.068.12-.1.183c.068-.021.193-.063.366-.125a.1.1 0 0 1 0-.068c-.004-.006-.004-.011.001-.022zm0-.177a.14.14 0 0 0 .017.068v.01a.087.087 0 0 1 .016.052.08.08 0 0 1-.016.063v.021a.08.08 0 0 0 .01.058.186.186 0 0 0 .088.089c.063.031.136 0 .3-.053a.722.722 0 0 0 .089-.036.019.019 0 0 1-.006-.016 1.819 1.819 0 0 1-.235.078.321.321 0 0 1-.063.011c-.015 0-.026-.005-.03-.016s0-.042.025-.057a.428.428 0 0 1 .184-.089h.015a.516.516 0 0 1 .125-.026v-.027c-.031.011-.068.016-.1.027l-.068.015a.428.428 0 0 0-.141.053.24.24 0 0 0-.079.073l-.026-.021a.411.411 0 0 1 .089-.079.529.529 0 0 1 .152-.052.4.4 0 0 0 .068-.021.549.549 0 0 0 .094-.026.111.111 0 0 0-.021-.042.093.093 0 0 1-.021-.052h-.037a1.21 1.21 0 0 1-.25-.011.937.937 0 0 1-.105-.036l.015-.026a.327.327 0 0 0 .1.031.981.981 0 0 0 .241.016h.047v-.016c-.026-.01-.052-.016-.084-.026s-.073-.031-.1-.042a.219.219 0 0 0-.11-.031.161.161 0 0 0-.146.042.134.134 0 0 0-.032.094zm1.81.1-.031.026a.42.42 0 0 1-.147.084l.115.2.021.026h-.036c-.063-.011-.278-.089-.408-.136a.232.232 0 0 1-.095.094.192.192 0 0 1-.073.016.891.891 0 0 1-.256-.074c-.031-.01-.058-.021-.084-.031a.288.288 0 0 1-.136.016h-.021a.267.267 0 0 1-.131-.021.673.673 0 0 1-.094.036.9.9 0 0 1-.255.074.175.175 0 0 1-.074-.016.23.23 0 0 1-.094-.094c-.131.047-.346.125-.408.136h-.037l.021-.026c.021-.037.089-.152.11-.2a.46.46 0 0 1-.141-.084l-.037-.026h.042a2.064 2.064 0 0 0 .413-.115.2.2 0 0 1 .037-.1.219.219 0 0 1 .172-.053.285.285 0 0 1 .126.038c.021.01.052.021.094.037l.089.031a.055.055 0 0 1 .026-.026c.021-.021.042-.026.11-.037s.12-.016.146 0a.107.107 0 0 1 .053.068.926.926 0 0 0 .109-.036l.095-.037a.265.265 0 0 1 .12-.037.208.208 0 0 1 .172.053.137.137 0 0 1 .037.1 2.036 2.036 0 0 0 .418.115zm-.983.136a.132.132 0 0 0 0-.063c0-.015-.011-.036-.016-.052s0-.01-.01-.015v-.006c0-.005-.006-.01-.011-.021a.116.116 0 0 1 0-.073.037.037 0 0 1 .006-.021v-.01a.018.018 0 0 0-.006-.016.094.094 0 0 0-.041-.063c0-.005-.011-.005-.027-.005a.884.884 0 0 0-.1.011c-.068.01-.084.015-.094.026a.065.065 0 0 0-.026.031c-.006 0-.006.016-.011.021v.01c0 .016.011.027.021.048a.272.272 0 0 1 .032.062.312.312 0 0 1 0 .068l-.015.047a.017.017 0 0 1-.006.016.042.042 0 0 0 .006.037c.015.015.062.015.14.015s.11 0 .126-.015a.045.045 0 0 0 .016-.032zm-.314-.031s.005-.016.005-.021a.8.8 0 0 0-.115.021l-.01.005a.353.353 0 0 0-.173.079c-.01.01-.016.015-.016.02a.163.163 0 0 0 .053-.01 1.594 1.594 0 0 0 .251-.084s.01-.001.01-.006z"/><path d="M28.091 31.151a2.593 2.593 0 0 0 .377.109.48.48 0 0 1-.126.063h-.016l.011.016s.068.12.1.183a7.016 7.016 0 0 1-.366-.125.15.15 0 0 0 .006-.068c-.006-.011-.011-.016-.016-.027a.125.125 0 0 1-.011-.041.053.053 0 0 1 .016-.042v-.016a.1.1 0 0 0 .025-.052z" style="fill:#cd1225"/><path d="M27.589 31.4a1.613 1.613 0 0 0 .21.068.265.265 0 0 0 .057.011c.021 0 .031-.005.036-.016s-.01-.042-.026-.057a.418.418 0 0 0-.188-.089h-.011a.36.36 0 0 0-.078-.021.033.033 0 0 0 0-.021l.058.016a.635.635 0 0 1 .062.015.424.424 0 0 1 .147.053.434.434 0 0 1 .078.073l.021-.021a.3.3 0 0 0-.084-.079.589.589 0 0 0-.152-.052.457.457 0 0 1-.068-.021.27.27 0 0 1-.073-.021v-.01h-.005v-.021a.056.056 0 0 1 0-.052v-.016h.079a1.122 1.122 0 0 0 .245-.011.564.564 0 0 0 .105-.036l-.011-.026a.378.378 0 0 1-.1.031.971.971 0 0 1-.24.016h-.074V31.1l.11-.031a.863.863 0 0 0 .094-.042.252.252 0 0 1 .115-.031.16.16 0 0 1 .146.042.134.134 0 0 1 .032.094c-.005.026-.011.047-.016.068l-.01.01a.144.144 0 0 0-.016.052.165.165 0 0 0 .016.063.041.041 0 0 1 .01.021.085.085 0 0 1-.01.058.192.192 0 0 1-.089.089c-.063.031-.136 0-.3-.053a.649.649 0 0 1-.068-.026c-.007-.007-.007-.014-.002-.014z" style="fill:#cd1225"/><path d="M27.673 31.344a.353.353 0 0 1 .172.079c.011.01.016.015.016.02a.216.216 0 0 1-.058-.01 1.372 1.372 0 0 1-.209-.068v-.042l.063.016zM26.757 31.323a.08.08 0 0 0 .016-.063.087.087 0 0 0-.016-.052v-.01a.14.14 0 0 1-.017-.068.134.134 0 0 1 .032-.094.161.161 0 0 1 .146-.042.219.219 0 0 1 .11.031c.026.011.058.026.1.042s.058.016.084.026v.016h-.052a.981.981 0 0 1-.241-.016.327.327 0 0 1-.1-.031l-.015.026a.937.937 0 0 0 .105.036 1.21 1.21 0 0 0 .25.011h.047a.093.093 0 0 0 .021.052.111.111 0 0 1 .021.042.549.549 0 0 1-.094.026.4.4 0 0 1-.068.021.529.529 0 0 0-.152.052.411.411 0 0 0-.089.079l.026.021a.24.24 0 0 1 .079-.073.428.428 0 0 1 .141-.053l.068-.015c.031-.011.068-.016.1-.027v.027a.516.516 0 0 0-.125.026h-.015a.428.428 0 0 0-.184.089c-.021.015-.036.041-.025.057s.015.016.03.016a.321.321 0 0 0 .06-.011 1.819 1.819 0 0 0 .235-.078.019.019 0 0 0 .006.016.722.722 0 0 1-.089.036c-.168.058-.241.084-.3.053a.186.186 0 0 1-.088-.089.08.08 0 0 1-.01-.058c-.001-.005.003-.016.003-.021z" style="fill:#cd1225"/><path d="M27.139 31.339a.8.8 0 0 1 .115-.021s-.005.016-.005.021v.01a1.594 1.594 0 0 1-.251.084.163.163 0 0 1-.053.01c0-.005.006-.01.016-.02a.353.353 0 0 1 .173-.079zM26.747 31.266a.065.065 0 0 1-.016.041l-.01.027a.1.1 0 0 0 0 .068c-.173.062-.3.1-.366.125.036-.063.1-.178.1-.183l.011-.016h-.021a.489.489 0 0 1-.12-.063 2.775 2.775 0 0 0 .376-.109.1.1 0 0 0 .016.057c0 .005.005.011.005.016a.058.058 0 0 1 .025.037zM31.5 29.9a.973.973 0 0 0-.188.272c-.073.141-.136.308-.2.465a.751.751 0 0 1-.272.35.049.049 0 0 1-.026.021.446.446 0 0 1-.215.121.054.054 0 0 1-.03-.006h-.006c-.021-.037.021-.105.052-.126s.058-.047.089-.068a1.075 1.075 0 0 0 .183-.146.231.231 0 0 0 .048-.073.094.094 0 0 0 0-.084 1.728 1.728 0 0 0-.221-.335 2.061 2.061 0 0 1 .471-.638 2.456 2.456 0 0 0-.089.414l-.01.057.036-.042a1.068 1.068 0 0 1 .378-.182z" style="fill:#cd1225"/><path d="M30.9 30.633c.01.01.015.026.005.057a.246.246 0 0 1-.042.058 2.285 2.285 0 0 1-.178.146 1.715 1.715 0 0 0-.089.063.2.2 0 0 0-.073.126l-.047-.042.031-.079a.605.605 0 0 1 .23-.3c.037-.029.131-.055.163-.029z" style="fill:#b21229"/><path d="M30.879 30.591a.3.3 0 0 0-.163.037.651.651 0 0 0-.24.319 2.1 2.1 0 0 1-.246.449c-.037.053-.068.089-.1.131a.631.631 0 0 1-.476.236.684.684 0 0 1-.638-.272.092.092 0 0 1 0-.089.067.067 0 0 1 .057 0 .513.513 0 0 1 .152.094c.173.146.283.209.371.209a.221.221 0 0 0 .142-.058 1.393 1.393 0 0 0 .235-.308.541.541 0 0 0 .105-.366.25.25 0 0 0-.1-.126c.356-.622.534-.638.644-.586a.3.3 0 0 1 .057.037 1.3 1.3 0 0 1 .2.293z" style="fill:#cd1225"/><path d="M29.728 31.585c.006.01 0 .026-.005.036a.174.174 0 0 1-.168.042.857.857 0 0 1-.3-.193.635.635 0 0 0-.167-.105.2.2 0 0 0-.052 0l.052-.136a2.1 2.1 0 0 1 .528.24c.034.016.107.069.112.116zM25.707 31.224l.057.136a.257.257 0 0 0-.057 0 .7.7 0 0 0-.163.105.9.9 0 0 1-.3.193.17.17 0 0 1-.167-.042.083.083 0 0 1-.011-.036c.011-.047.084-.1.116-.121a2.12 2.12 0 0 1 .525-.235z" style="fill:#b21229"/><path d="M30.052 30.983a.509.509 0 0 1-.1.34 1.424 1.424 0 0 1-.183.251.263.263 0 0 0-.126-.136 3 3 0 0 0-1.135-.392 5.59 5.59 0 0 0-2.207 0 2.966 2.966 0 0 0-1.135.392c-.057.037-.115.084-.125.136a1.141 1.141 0 0 1-.183-.251.511.511 0 0 1-.105-.34.255.255 0 0 1 .1-.115 1.157 1.157 0 0 1 .157-.073c.016-.005.026-.011.042-.016a4.591 4.591 0 0 1 .45-.167 6.005 6.005 0 0 1 1.9-.246 6.023 6.023 0 0 1 1.9.246 4.5 4.5 0 0 1 .45.167c.016 0 .026.011.042.016a1.053 1.053 0 0 1 .152.073.263.263 0 0 1 .106.115z" style="fill:#cd1225"/><path d="m24.325 31.041-.047.042a.2.2 0 0 0-.073-.126c-.031-.021-.057-.042-.089-.063a1.258 1.258 0 0 1-.178-.146.169.169 0 0 1-.042-.058c-.01-.031-.01-.047.006-.057.026-.026.12 0 .162.026a.564.564 0 0 1 .225.3.553.553 0 0 1 .036.082z" style="fill:#b21229"/><path d="M25.779 31.4a.078.078 0 0 1 0 .089.675.675 0 0 1-.633.272.621.621 0 0 1-.475-.236c-.032-.042-.063-.078-.105-.131a2.357 2.357 0 0 1-.241-.449.633.633 0 0 0-.245-.319.27.27 0 0 0-.157-.037 1.293 1.293 0 0 1 .193-.293.327.327 0 0 1 .052-.037c.116-.052.293-.036.649.586a.248.248 0 0 0-.1.126c-.037.1.036.251.1.366a1.4 1.4 0 0 0 .23.308.234.234 0 0 0 .147.058c.089 0 .2-.063.371-.209a.457.457 0 0 1 .152-.094.067.067 0 0 1 .062 0z" style="fill:#cd1225"/><path d="M24.184 30.988c.032.021.073.089.052.126h-.005c0 .006-.016.006-.026.006a.481.481 0 0 1-.219-.121.168.168 0 0 1-.027-.021.822.822 0 0 1-.272-.35 3.22 3.22 0 0 0-.2-.465.894.894 0 0 0-.187-.263.986.986 0 0 1 .371.172l.041.042-.01-.057a2.581 2.581 0 0 0-.088-.414 2.158 2.158 0 0 1 .47.638 1.5 1.5 0 0 0-.22.335.1.1 0 0 0 0 .084.228.228 0 0 0 .052.073 1.16 1.16 0 0 0 .183.146.914.914 0 0 1 .085.069z" style="fill:#cd1225"/><path d="m31.715 29.812-.12.068c-.193.1-.345.507-.444.774a.871.871 0 0 1-.288.366s-.016.01-.021.021a.543.543 0 0 1-.235.125.111.111 0 0 1-.058-.015v-.006l-.084-.073a2.085 2.085 0 0 1-.2.345 1.539 1.539 0 0 1-.1.131.648.648 0 0 1-.5.251h-.037a.936.936 0 0 1-.335-.052.613.613 0 0 1-.292-.236.109.109 0 0 1-.006-.12l.074-.183a5.722 5.722 0 0 0-.56-.125 5.424 5.424 0 0 0-1.1-.11 5.433 5.433 0 0 0-1.1.11 5.34 5.34 0 0 0-.559.125l.073.183a.122.122 0 0 1 0 .12.633.633 0 0 1-.3.236 1 1 0 0 1-.367.052.648.648 0 0 1-.5-.251.936.936 0 0 1-.1-.131 1.783 1.783 0 0 1-.2-.345l-.084.073-.005.006a.108.108 0 0 1-.057.015.541.541 0 0 1-.236-.125.071.071 0 0 0-.026-.021.887.887 0 0 1-.282-.366c-.1-.267-.257-.675-.445-.774l-.12-.068.136.031a1.513 1.513 0 0 1 .439.173 1.35 1.35 0 0 0-.12-.44l-.083-.13.109.109a2.12 2.12 0 0 1 .544.7c.016-.01.031-.021.042-.026a.239.239 0 0 1 .266.037 1.91 1.91 0 0 1 .429.559c.047-.026.1-.047.142-.068l.041-.015a4.329 4.329 0 0 1 .455-.168 6.056 6.056 0 0 1 1.852-.246h.047a6.125 6.125 0 0 1 1.914.246 4.687 4.687 0 0 1 .455.168l.036.015c.048.021.1.042.147.068a1.91 1.91 0 0 1 .429-.559.231.231 0 0 1 .261-.037.111.111 0 0 1 .042.026 2.265 2.265 0 0 1 .544-.7l.115-.109-.084.13a1.253 1.253 0 0 0-.12.44 1.513 1.513 0 0 1 .439-.173zm-.4.361a.973.973 0 0 1 .185-.273 1.068 1.068 0 0 0-.377.172l-.036.042.01-.057a2.456 2.456 0 0 1 .089-.414 2.061 2.061 0 0 0-.471.638 1.728 1.728 0 0 1 .221.335.094.094 0 0 1 0 .084.231.231 0 0 1-.048.073 1.075 1.075 0 0 1-.183.146c-.031.021-.057.042-.089.068s-.073.089-.052.126h.006a.054.054 0 0 0 .03.006.446.446 0 0 0 .215-.121.049.049 0 0 0 .026-.021.751.751 0 0 0 .272-.35c.064-.146.127-.313.2-.454zm-.408.517c.01-.031 0-.047-.005-.057-.032-.026-.126 0-.163.026a.605.605 0 0 0-.23.3l-.031.079.047.042a.2.2 0 0 1 .073-.126c.027-.021.058-.042.089-.063a2.285 2.285 0 0 0 .178-.146.246.246 0 0 0 .04-.055zm-.189-.062a.3.3 0 0 1 .163-.037 1.3 1.3 0 0 0-.194-.293.3.3 0 0 0-.057-.037c-.11-.052-.288-.036-.644.586a.25.25 0 0 1 .1.126.541.541 0 0 1-.105.366 1.393 1.393 0 0 1-.235.308.221.221 0 0 1-.142.058c-.088 0-.2-.063-.371-.209a.513.513 0 0 0-.152-.094.067.067 0 0 0-.057 0 .092.092 0 0 0 0 .089.684.684 0 0 0 .638.272.631.631 0 0 0 .476-.236c.031-.042.062-.078.1-.131a2.1 2.1 0 0 0 .246-.449.651.651 0 0 1 .232-.319zm-.768.7a.509.509 0 0 0 .1-.34.263.263 0 0 0-.1-.115 1.053 1.053 0 0 0-.15-.073c-.016-.005-.026-.011-.042-.016a4.5 4.5 0 0 0-.45-.167 6.023 6.023 0 0 0-1.9-.246 6.005 6.005 0 0 0-1.9.246 4.591 4.591 0 0 0-.45.167c-.016 0-.026.011-.042.016a1.157 1.157 0 0 0-.157.073.255.255 0 0 0-.1.115.511.511 0 0 0 .105.34 1.141 1.141 0 0 0 .183.251c.01-.052.068-.1.125-.136a2.966 2.966 0 0 1 1.135-.392 5.59 5.59 0 0 1 2.207 0 3 3 0 0 1 1.135.392.263.263 0 0 1 .126.136 1.424 1.424 0 0 0 .173-.256zm-.225.3c.005-.01.011-.026.005-.036-.005-.047-.078-.1-.11-.121a2.1 2.1 0 0 0-.528-.24l-.052.136a.2.2 0 0 1 .052 0 .635.635 0 0 1 .167.105.857.857 0 0 0 .3.193.174.174 0 0 0 .164-.044zm-3.944-.13a.078.078 0 0 0 0-.089.067.067 0 0 0-.057 0 .457.457 0 0 0-.152.094c-.172.146-.282.209-.371.209a.234.234 0 0 1-.147-.058 1.4 1.4 0 0 1-.23-.308c-.068-.115-.141-.267-.1-.366a.248.248 0 0 1 .1-.126c-.356-.622-.533-.638-.649-.586a.327.327 0 0 0-.052.037 1.293 1.293 0 0 0-.193.293.27.27 0 0 1 .157.037.633.633 0 0 1 .245.319 2.357 2.357 0 0 0 .241.449c.042.053.073.089.105.131a.621.621 0 0 0 .475.236.675.675 0 0 0 .626-.279zm-.015-.131-.057-.136a2.12 2.12 0 0 0-.523.24c-.032.021-.105.074-.116.121a.083.083 0 0 0 .011.036.17.17 0 0 0 .167.042.9.9 0 0 0 .3-.193.7.7 0 0 1 .163-.105.257.257 0 0 1 .053-.012zm-1.486-.277.047-.042a.553.553 0 0 0-.036-.079.564.564 0 0 0-.225-.3c-.042-.026-.136-.052-.162-.026-.016.01-.016.026-.006.057a.169.169 0 0 0 .042.058 1.258 1.258 0 0 0 .178.146c.032.021.058.042.089.063a.2.2 0 0 1 .071.116zm-.042.031c.021-.037-.02-.105-.052-.126a.914.914 0 0 0-.089-.068 1.16 1.16 0 0 1-.183-.146.228.228 0 0 1-.052-.073.1.1 0 0 1 0-.084 1.5 1.5 0 0 1 .22-.335 2.158 2.158 0 0 0-.47-.638 2.581 2.581 0 0 1 .088.414l.01.057-.041-.042a.986.986 0 0 0-.369-.18.894.894 0 0 1 .182.272 3.22 3.22 0 0 1 .2.465.822.822 0 0 0 .272.35.168.168 0 0 0 .027.021.481.481 0 0 0 .219.121c.01 0 .021 0 .026-.006h.005z"/><path d="m25.465 31.1-.057.021-.136-.083s-.01-.006-.016-.006l.053.126.026-.011v.006l-.089.036v-.005l.021-.01-.1-.236-.021.011-.005-.011.1-.042c.062-.026.1-.021.12.021a.065.065 0 0 1 0 .053.127.127 0 0 1-.058.041l.136.089.021-.01zm-.146-.167c-.01-.037-.042-.042-.083-.021l-.027.01.042.1h.011c.057-.022.073-.054.057-.091zM25.669 31.036l-.2.062v-.01l.026-.005-.078-.246-.026.01v-.01l.2-.063.026.084h-.016a.285.285 0 0 0-.041-.058h-.027l-.073.026.036.11h.021a.052.052 0 0 0 .026-.016v-.052h.011l.037.11-.016.005a.23.23 0 0 0-.026-.042.056.056 0 0 0-.026 0l-.027.006.042.12.074-.021c.01 0 .015-.01.02-.01s.006-.006.006-.016a.526.526 0 0 0-.006-.079h.016zM25.853 30.774a.049.049 0 0 1-.016.063.21.21 0 0 1-.089.036l-.021.006.032.12h.036l-.1.026-.006-.01.027-.006-.063-.245h-.026v-.011l.1-.026a.2.2 0 0 1 .073 0 .057.057 0 0 1 .053.047zm-.048.01a.056.056 0 0 0-.026-.041.059.059 0 0 0-.052.005h-.031l.031.115h.016a.117.117 0 0 0 .057-.026c.011-.011.016-.026.005-.053zM26.093 30.664h-.026l.037.189c.01.052-.011.083-.068.094-.037 0-.063 0-.079-.011a.1.1 0 0 1-.031-.068l-.037-.167h-.021v-.01l.1-.021v.01l-.026.006.037.177a.114.114 0 0 0 .021.058c.01.01.026.01.052.01a.053.053 0 0 0 .042-.031.091.091 0 0 0 0-.073l-.032-.162h-.031v-.011l.068-.015zM26.37 30.805c.011.047-.015.074-.078.089a.251.251 0 0 1-.042.011l-.089.015v-.01h.026l-.047-.251h-.026v-.01l.089-.016a.548.548 0 0 1 .079 0 .07.07 0 0 1 .052.047c0 .036-.016.062-.068.078a.1.1 0 0 1 .073.011c.021.005.031.015.031.036zm-.083-.12c0-.021-.011-.036-.027-.042a.1.1 0 0 0-.057 0l-.021.006.021.109h.016c.052-.01.081-.031.068-.073zm.041.126a.053.053 0 0 0-.031-.042.178.178 0 0 0-.073 0h-.016l.022.131.025-.006a.16.16 0 0 0 .063-.026c.01-.01.01-.031.01-.057zM26.6 30.847l-.189.032v-.011h.026l-.037-.251-.026.005v-.01l.105-.016v.01l-.037.006.042.251.057-.011c.011 0 .016 0 .021-.005s.006 0 .006-.01a.363.363 0 0 0 .01-.089h.011zM26.715 30.832l-.1.015v-.01h.026l-.031-.251h-.026v-.006l.094-.015v.01h-.026l.031.251h.026zM26.946 30.8a.168.168 0 0 1-.074.026.116.116 0 0 1-.1-.031.107.107 0 0 1-.047-.094.154.154 0 0 1 .027-.11.134.134 0 0 1 .093-.047.117.117 0 0 1 .073.01l.006.073h-.014a.2.2 0 0 0-.027-.062.047.047 0 0 0-.037-.016.087.087 0 0 0-.063.042.2.2 0 0 0-.01.1c0 .094.037.136.094.131.021 0 .032-.011.037-.026a.653.653 0 0 0 .021-.079h.01zM27.218 30.8h-.1v-.01l.031-.006-.037-.094-.089.006L27 30.8h.031l.006.01h-.073v-.01h.02l.079-.272h.026l.11.266h.021zm-.11-.115-.047-.12-.032.125zM27.6 30.654c0 .094-.052.141-.151.136h-.089v-.011h.026v-.251h-.026v-.01h.089c.103 0 .151.047.151.136zm-.047 0a.153.153 0 0 0-.026-.094.091.091 0 0 0-.078-.032h-.015v.251h.015a.077.077 0 0 0 .078-.026.159.159 0 0 0 .025-.099zM27.877 30.675a.135.135 0 0 1-.042.1.091.091 0 0 1-.089.031.1.1 0 0 1-.084-.041.186.186 0 0 1-.031-.105.194.194 0 0 1 .042-.105.121.121 0 0 1 .094-.031.105.105 0 0 1 .084.042.157.157 0 0 1 .026.109zm-.048-.006a.3.3 0 0 0-.01-.1.074.074 0 0 0-.052-.037c-.047 0-.079.042-.084.131a.267.267 0 0 0 .011.105.057.057 0 0 0 .052.036.059.059 0 0 0 .057-.031.2.2 0 0 0 .026-.104zM28.185 30.847l-.1-.015v-.011h.036l.026-.24-.115.24h-.015l-.057-.266-.027.245.031.006v.01l-.068-.01V30.8h.026l.027-.256h-.027l.006-.01.073.01.047.22.1-.2h.074v.011h-.032l-.031.251h.031zM28.3 30.863l-.094-.011v-.01h.021l.037-.251-.021-.005v-.011l.094.016v.01h-.026l-.037.256h.026zM28.614 30.649l-.026-.006-.047.262-.032-.005-.1-.293-.047.256h.042l-.006.011-.072-.011v-.01h.025l.042-.246h-.026v-.011l.079.011.094.24.031-.2-.036-.01v-.011l.078.016zM28.682 30.931l-.094-.021h.026l.047-.251h-.026v-.011l.1.016-.005.01h-.026l-.047.251.026.005zM28.912 30.962a.112.112 0 0 1-.073.006.138.138 0 0 1-.089-.058.125.125 0 0 1-.016-.105.152.152 0 0 1 .058-.1.125.125 0 0 1 .1-.016.16.16 0 0 1 .067.032l-.015.073-.016-.005a.58.58 0 0 0 0-.068c-.005-.016-.016-.021-.031-.026a.079.079 0 0 0-.074.02.165.165 0 0 0-.042.095c-.021.089 0 .136.053.146a.043.043 0 0 0 .042-.01.279.279 0 0 0 .041-.068h.016zM29.174 31.046l-.095-.026v-.011l.027.011-.006-.105-.083-.021-.058.084.037.01v.011l-.063-.016v-.01l.021.005.157-.241.026.011.021.282.021.006zm-.074-.141-.005-.131-.068.11zM29.5 30.879l-.021-.006-.089.246-.026-.01-.063-.3-.084.246.037.011v.01l-.073-.026v-.01l.026.01.084-.241-.026-.01v-.005l.078.026.047.251.074-.2-.042-.016v-.01l.073.026zM29.644 31.24l-.089-.042.006-.011.026.011.01-.1-.078-.036-.068.073.031.016v.01l-.063-.031.006-.011.015.011.2-.2.026.01-.031.283.021.01zm-.042-.152.016-.131-.089.094z" style="fill:#e8c015"/></svg>