<svg xmlns="http://www.w3.org/2000/svg" viewBox="0 0 55 55"><path d="M49.648 34.73a23.326 23.326 0 0 1-29.379 14.918l14.456-44.3A23.325 23.325 0 0 1 49.648 34.73z" style="fill:#fff"/><path d="m34.725 5.352-14.456 44.3a23.3 23.3 0 0 1 14.456-44.3z" style="fill:#006133"/><path d="M27.814 37.417A9.329 9.329 0 1 1 39.487 25.4a11.667 11.667 0 1 0-3.55 10.877 9.308 9.308 0 0 1-8.123 1.14z" style="fill:#d11133"/><path style="fill:#d11133" d="m35.956 24.468-1.309 3.996 3.392 2.482-4.203-.013-1.312 4-1.288-4.007-4.205-.008 3.41-2.463-1.288-4.007 3.392 2.483 3.411-2.463z"/></svg>