<svg xmlns="http://www.w3.org/2000/svg" viewBox="0 0 55 55"><path d="M50.8 27.5 13.53 8.865A23.3 23.3 0 0 1 50.8 27.5z" style="fill:#0bac2f"/><path d="M50.8 27.5a23.288 23.288 0 0 1-37.27 18.635z" style="fill:#4289db"/><path d="M50.8 27.5 13.53 46.135a23.517 23.517 0 0 1-6.208-6.982 23.3 23.3 0 0 1 0-23.3 23.589 23.589 0 0 1 6.208-6.988z" style="fill:#e90736"/><path d="M21.083 37.7a1.734 1.734 0 0 0-1.726-1.512 15.862 15.862 0 0 0 5.466-.732 9.17 9.17 0 0 0 1.924-.853 4.885 4.885 0 0 0 .429-.3c.057-.047.371-.256.366-.335a3.624 3.624 0 0 0-1.574-.172c4.335-2.458 4.09-4.278 4.09-5.052a5.589 5.589 0 0 1-2.3 2.447c2.725-3.755 2.108-4.587 1.554-5.627-.278 1.129-.424 1.333-.822 1.726 1.318-4.362.173-5.822-.235-6.229.2 1.553-.047 1.992-.235 2.332a9.617 9.617 0 0 0-.7-3.467c-.4-.78-.638-.78-1.1-.879a2.454 2.454 0 0 1 .455.936 4.75 4.75 0 0 1 .168 1.7 4.9 4.9 0 0 0-.607-1.02 6.3 6.3 0 0 0-.879-.842 8.093 8.093 0 0 1-.821-1.156 11.438 11.438 0 0 0-.878-.926 9.325 9.325 0 0 0-1.512-1.114 3.472 3.472 0 0 0 .262 1.114 4.1 4.1 0 0 0 1.171 1.5c-.429-.042-.978-.612-1.433-1.067s-.664-.193-1.454 0a1.751 1.751 0 0 1-1.009.047c.157.293.162.251.5.586-.2.1-.523 0-.937-.146.335.81 1.507 1.02 2.072 1.02s.789-.079 1.3-.079.465.079 1.376.518a3.214 3.214 0 0 1-1.543-.052 2.362 2.362 0 0 0 2.014.81c.68 0 .669-.418 1.04-.193a9.3 9.3 0 0 1 1.318 1.992c-.351.157-.858-.3-1.083-.789a1.642 1.642 0 0 0-.674-.863c-.074-.042-.084.549-.084.57a3.35 3.35 0 0 0 .1.68 3.11 3.11 0 0 0 .576 1.224c.272.319.654.517.947.81a4.822 4.822 0 0 0 .345 1.878c.167.439.533.905.664 1.307a3.7 3.7 0 0 1 .084 1.177 4.261 4.261 0 0 1-.738-.983 2.985 2.985 0 0 1-.235-1.5c0 .026-.277.261-.314.308a1.7 1.7 0 0 0-.215.361 1.6 1.6 0 0 0-.015.926c.083.319.225.622.287.952a1.2 1.2 0 0 1-.094.8 1.969 1.969 0 0 0-.235.607 6.085 6.085 0 0 0-.12 1.014c0 .34-.544.848-.544.848a3.877 3.877 0 0 0 0-1.073c0 .058-.2.246-.23.288-.131.162-.261.293-.4.439a3.483 3.483 0 0 0-.7 1.052 8.124 8.124 0 0 1-.418.983 2.017 2.017 0 0 1-1.5.758 7.449 7.449 0 0 0-1.993.722 2.585 2.585 0 0 1-.7.22 3.246 3.246 0 0 1 .272-1.747 1.224 1.224 0 0 1 .523-.5c2.385-.439 2.035-1.8 1.857-2.108-.262.508-.439.529-1.036.769 1.329-1.171 1.156-2.008.952-2.343-.12.554-.685.921-1.156 1.24.419-1.2 0-1.073-.2-1.026-.706.4-1.014 1.768-1.2 2.579a22.664 22.664 0 0 0-.632-2.9c-.121-.68.554-.894.9-.894 2.558.743 2.579-.874 2.537-1.261a1.9 1.9 0 0 1-1.883.461c1.7-1.554.8-2.265.533-2.521a2.4 2.4 0 0 1-1.301 1.785 4.015 4.015 0 0 1-.058-1.794 5.23 5.23 0 0 0-.852 2.071c.089-2.709.549-2.511.878-2.511 2.207.633 2.563-.763 2.511-1.124-.78.586-.868.408-1.25.408 1.537-.905 1.292-1.726 1.135-2.118-.518.763-.633.685-1.135.821a1.786 1.786 0 0 1 .716-1.3c-1.312-.34-1.595.852-1.877 1.485-.068-.518-.178-.889-.3-1.532.9-1.533-.157-1.972-.554-2.1a1.655 1.655 0 0 0 .026 1.25c-1.13-.58-1.626-.308-1.935 0 .586.628.921.534 1.778.361-.251.544-.779.5-1.432.314a1.448 1.448 0 0 0 1.641.826 3.074 3.074 0 0 1 .2 1.292c0 .486-.842 1.465-.842 1.465a5.121 5.121 0 0 0-.166-1.371c-.163-.376-.613-1.025-.948-.779s.068.821.3 1.318c-.644-.293-.984-1.24-1.208-1.668a3.56 3.56 0 0 0 .465 2.531c-.246.246-.7-.387-.858-.549a2.092 2.092 0 0 0 .994 1.951c.356.224 1.192-.084 1.192-.084s-.02 1.83.053 3.473a4.408 4.408 0 0 0-2.024-1.836c-.073.528.188.811.69 1.658a8.272 8.272 0 0 1-1.537-.821c0 .732.847 1.448 1.783 2.024a3.522 3.522 0 0 1-1.783-.748c.083 2.782 3.263 1.626 3.263 1.626l.282 3.876c-.825-.183-1.464-.413-2.024-.492-1.82-.366-3.211-3.561-3.211-3.561a3.347 3.347 0 0 1-.172.617 6.7 6.7 0 0 0-1.073-2.024 10.238 10.238 0 0 1-.015 1.537c-.733-1.318-.147-1.856.089-2.693a4.335 4.335 0 0 0-.539-2.317 13.253 13.253 0 0 1-.617 1.935 5.308 5.308 0 0 1 .674-2.8A1.969 1.969 0 0 0 12 24.4c-.225.225-.277.538-.612 1.009 0-1.365 1.292-1.94 1.742-2.39a1.482 1.482 0 0 0 .439-1.83 12.748 12.748 0 0 0-1.438 1.684c0-.424.22-.733.69-1.465s1.35-.92 2.652-1.072 1.051-.277 1.37-.591a4.292 4.292 0 0 1-1.427.115s-.189-.418 1.574-.5 1.736-.491 1.872-.774a6.125 6.125 0 0 1-2.244.021A16.235 16.235 0 0 0 20 17.39c-1.239-.857-3.87.68-4.634 1.1a4.791 4.791 0 0 0 1.234-1.544 2.9 2.9 0 0 0-1.836 1.119 9.764 9.764 0 0 0-1.433 1.9 1.773 1.773 0 0 1-.523.57 3.481 3.481 0 0 0-.858.978 16.606 16.606 0 0 0 .607-2.892c-1.271.564-1.543 2.243-1.543 3.357a9.724 9.724 0 0 1-.256 2.579c0-2.166-.178-2.5-.528-3.123-.958 1.951-.294 4.765.015 6.188a5.582 5.582 0 0 1-.931-1.972c-.878 2.038 1.086 4.58 1.994 5.75a8.385 8.385 0 0 1-2.6-2.532 3.76 3.76 0 0 0 1.229 2.757 16.212 16.212 0 0 0 2.919 2.075c-1.9-.957-2.4-.46-2.647-.209.053-.053.445.094.508.115a6.184 6.184 0 0 1 .648.251 12.745 12.745 0 0 1 1.219.554c.507.272.894.706 1.412.962a5.23 5.23 0 0 0 .863.325 14.69 14.69 0 0 0 3.018.429c.361.021.727.036 1.093.047A1.773 1.773 0 0 0 17.1 37.7z" style="fill:#fec62d"/></svg>