<svg xmlns="http://www.w3.org/2000/svg" viewBox="0 0 55 55"><path d="M49.466 19.735H5.533a23.3 23.3 0 0 1 43.933 0z" style="fill:#028832"/><path d="M49.466 35.265a23.3 23.3 0 0 1-43.933 0z" style="fill:#d9131a"/><path d="M50.8 27.5a23.134 23.134 0 0 1-1.334 7.762H5.533a23.283 23.283 0 0 1 0-15.53h43.933A23.143 23.143 0 0 1 50.8 27.5z" style="fill:#fbdc1d"/><path d="M43.043 27.5A15.547 15.547 0 1 1 27.5 11.952 15.547 15.547 0 0 1 43.043 27.5z" style="fill:#1447ad"/><path style="fill:#fbdc1d" d="m23.885 29.804.299.215 2.05 1.49.967-.701-2.651-1.924-.298-.215-.962-.706-3.803-2.762h-1.93l5.361 3.897-2.83 8.709 1.564-1.135.596-1.836 1.637-5.032z"/><path style="fill:#fbdc1d" d="m32.745 34.836-4.283-3.112.298-.215 2.05-1.49-.366-1.135-2.652 1.924-.293.215-.967.701-3.802 2.762-.597 1.836 5.366-3.897 7.406 5.382-.596-1.836-1.564-1.135z"/><path style="fill:#fbdc1d" d="m31.71 27.963-.115-.345-.785-2.412h-1.198l1.015 3.113.115.35.366 1.135 1.454 4.467 1.564 1.135-2.05-6.308 7.406-5.377h-1.93l-1.564 1.135-4.278 3.107z"/><path style="fill:#fbdc1d" d="M29.131 23.721h-2.902l-.367 1.135H35.392l1.563-1.135h-6.626l-2.83-8.714-.6 1.841.6 1.836 1.632 5.037z"/><path style="fill:#fbdc1d" d="M20.052 24.856h4.247l-.115.35-.785 2.412.968.701 1.015-3.113.109-.35.371-1.135 1.449-4.472-.596-1.836-2.045 6.308h-9.158l1.564 1.135h2.976zM27.222 33.288h.549v6.706h-.549zM34.565 17.423l.445.324-3.944 5.425-.444-.325 3.943-5.424z"/><path style="fill:#fbdc1d" d="m19.984 17.747.45-.324 3.938 5.424-.445.325-3.943-5.425zM39.408 31.185l-.172.528-6.375-2.071.167-.528 6.38 2.071zM15.758 31.713l-.167-.528 6.375-2.071.167.528-6.375 2.071z"/></svg>