<svg version="1.1" id="Layer_1" xmlns="http://www.w3.org/2000/svg" x="0" y="0" viewBox="0 0 55 55" style="enable-background:new 0 0 55 55" xml:space="preserve"><style>.st2{fill:#8c8c8c}</style><g id="Ethereum_x5F_55"><path d="M27.5 4.2C14.7 4.2 4.2 14.6 4.2 27.5s10.4 23.3 23.3 23.4 23.3-10.4 23.4-23.3C50.8 14.7 40.4 4.2 27.5 4.2z" style="fill:#e0e1e2"/><path style="fill:#343434" d="m28.2 7.8-.3.9v25.5l.3.2L40 27.5z"/><path class="st2" d="M28.2 7.8 16.3 27.5l11.9 6.9z"/><path style="fill:#3c3c3b" d="m28.2 36.7-.2.2v9l.2.5L40 29.7z"/><path class="st2" d="M28.2 46.4v-9.7l-11.9-7z"/><path style="fill:#141414" d="M28.2 34.4 40 27.5l-11.8-5.4z"/><path d="m16.3 27.5 11.8 7V22.1l-11.8 5.4z" style="fill:#393939"/></g></svg>