<svg xmlns="http://www.w3.org/2000/svg" viewBox="0 0 55 55"><defs><clipPath id="a"><circle cx="27.5" cy="27.5" r="23.32" fill="none"/></clipPath></defs><g fill-rule="evenodd" clip-path="url(#a)"><path fill="#214097" d="M62.48 4.18v46.64H-7.48V4.18h69.96z"/><path d="m27.5 8.15.62 1.85h2l-1.62 1.2.6 1.88-1.6-1.15-1.6 1.15.6-1.88-1.6-1.2h2l.62-1.87zm-8.4 31.53.62 1.87h2l-1.62 1.18.6 1.88-1.6-1.15-1.6 1.15.6-1.88-1.6-1.17h2l.62-1.87zm-6.19-6.18.62 1.87h2l-1.59 1.17.6 1.88-1.6-1.15-1.6 1.15.6-1.88-1.59-1.17h2l.62-1.87zM10.62 25l.62 1.87h2l-1.61 1.23.6 1.88-1.6-1.15L9 30l.6-1.88L8 26.93h2l.62-1.93zm2.29-8.45.62 1.87h2l-1.59 1.17.6 1.88-1.6-1.15-1.6 1.15.6-1.88-1.59-1.17h2l.62-1.87zm6.18-6.19.62 1.87h2l-1.59 1.17.6 1.88-1.6-1.15-1.6 1.15.6-1.88-1.59-1.17h2l.62-1.87zm16.87 0 .62 1.87h2L37 13.47l.6 1.88-1.6-1.14-1.6 1.15.6-1.88-1.64-1.18h2l.64-1.88zm6.16 6.16.62 1.87h2l-1.59 1.17.6 1.88-1.6-1.15-1.6 1.15.6-1.88-1.59-1.17h2l.62-1.87zM44.38 25l.62 1.9h2l-1.59 1.17L46 30l-1.6-1.15L42.77 30l.6-1.88-1.59-1.17h2l.6-1.95zm-2.24 8.43.62 1.87h2l-1.59 1.17.6 1.88-1.6-1.15-1.6 1.15.6-1.88-1.59-1.17h2l.62-1.87zM36 39.64l.62 1.87h2L37 42.7l.6 1.88-1.6-1.15-1.6 1.15.6-1.88-1.59-1.17h2l.59-1.89zm-8.5 2.28.62 1.87h2L28.5 45l.6 1.88-1.6-1.15-1.6 1.15.6-1.88-1.6-1.2h2l.62-1.87z" fill="#fedd23"/></g></svg>