<svg xmlns="http://www.w3.org/2000/svg" xmlns:xlink="http://www.w3.org/1999/xlink" viewBox="0 0 55 55"><defs><mask id="t" x="27.372" y="-8429" width="14.269" height="32766" maskUnits="userSpaceOnUse"/><mask id="D" x="40.114" y="-8429" width="12.207" height="32766" maskUnits="userSpaceOnUse"/><mask id="F" x="40.137" y="-8429" width="13.611" height="32766" maskUnits="userSpaceOnUse"/><mask id="H" x="27.694" y="-8429" width="12.207" height="32766" maskUnits="userSpaceOnUse"/><mask id="J" x="26.268" y="-8429" width="13.611" height="32766" maskUnits="userSpaceOnUse"/><mask id="L" x="32.472" y="-8429" width="4.138" height="32766" maskUnits="userSpaceOnUse"/><mask id="u" x="26.87" y="-8429" width="15.957" height="32766" maskUnits="userSpaceOnUse"/><mask id="M" x="31.481" y="-8429" width="6.245" height="32766" maskUnits="userSpaceOnUse"/><mask id="N" x="43.546" y="-8429" width="3.997" height="32766" maskUnits="userSpaceOnUse"/><mask id="O" x="42.289" y="-8429" width="6.055" height="32766" maskUnits="userSpaceOnUse"/><mask id="P" x="31.925" y="-8429" width="16.165" height="32766" maskUnits="userSpaceOnUse"/><mask id="Q" x="45.214" y="-8429" width="2.261" height="32766" maskUnits="userSpaceOnUse"/><mask id="R" x="45.237" y="-8429" width="3.411" height="32766" maskUnits="userSpaceOnUse"/><mask id="S" x="32.302" y="-8429" width="2.499" height="32766" maskUnits="userSpaceOnUse"/><mask id="T" x="31.368" y="-8429" width="3.411" height="32766" maskUnits="userSpaceOnUse"/><mask id="x" x="38.628" y="-8429" width="14.016" height="32766" maskUnits="userSpaceOnUse"/><mask id="z" x="37.189" y="-8429" width="14.686" height="32766" maskUnits="userSpaceOnUse"/><mask id="B" x="26.825" y="-8429" width="26.365" height="32766" maskUnits="userSpaceOnUse"/><mask id="V" x="27.372" y="27.683" width="14.269" height="14.107" maskUnits="userSpaceOnUse"><g style="mask:url(#t);filter:url(#be)"><path d="M35.722 35.922s-.5-.743-.912-.69a1.639 1.639 0 0 0-.829.557 3.367 3.367 0 0 1-.608-.637c.027-.026.635-1.405.967-1.458a2.352 2.352 0 0 1 1.047.154c0 .053.335 2.074.335 2.074z" style="stroke:#fff;stroke-linejoin:bevel;stroke-width:12px;mix-blend-mode:multiply;fill:url(#c)"/></g></mask><mask id="W" x="26.87" y="29.347" width="15.957" height="15.508" maskUnits="userSpaceOnUse"><g style="mask:url(#u);filter:url(#bh)"><path d="M36.827 35.126a5.4 5.4 0 0 1-.884 2.705 3.456 3.456 0 0 1-2.294 1.008c-.414-.106-1.354-2.095-1.354-2.095s.995.955 1.741.8 1.188-1.353 1.326-1.937a7.239 7.239 0 0 0 .028-1.724l1.437 1.247z" style="stroke:#fff;stroke-linejoin:bevel;stroke-width:12px;mix-blend-mode:multiply;fill:url(#v)"/></g></mask><mask id="Y" x="38.628" y="27.683" width="14.016" height="14.107" maskUnits="userSpaceOnUse"><g style="mask:url(#x);filter:url(#bk)"><path d="M44.294 35.922s.5-.743.912-.69a1.649 1.649 0 0 1 .829.557 3.431 3.431 0 0 0 .608-.637c-.028-.026-.636-1.405-.968-1.458a2.352 2.352 0 0 0-1.047.154c0 .053-.334 2.074-.334 2.074z" style="stroke:#fff;stroke-linejoin:bevel;stroke-width:12px;mix-blend-mode:multiply;fill:url(#y)"/></g></mask><mask id="aa" x="37.189" y="29.347" width="14.686" height="15.508" maskUnits="userSpaceOnUse"><g style="mask:url(#z);filter:url(#bn)"><path d="M43.189 35.126a5.4 5.4 0 0 0 .884 2.705 3.454 3.454 0 0 0 2.293 1.008c.415-.106 1.354-2.095 1.354-2.095s-.994.955-1.74.8-1.189-1.353-1.327-1.937a7.22 7.22 0 0 1-.027-1.724l-1.437 1.247z" style="stroke:#fff;stroke-linejoin:bevel;stroke-width:12px;mix-blend-mode:multiply;fill:url(#A)"/></g></mask><mask id="ac" x="26.825" y="30.841" width="26.365" height="14.025" maskUnits="userSpaceOnUse"><g style="mask:url(#B);filter:url(#bq)"><path d="M33.536 34.838a6.418 6.418 0 0 0-.647.871c-.138.212-.056.507.263.929a10.985 10.985 0 0 0 6.856 2.228 10.989 10.989 0 0 0 6.857-2.228c.319-.422.4-.717.26-.929a6.28 6.28 0 0 0-.645-.871c0 .557-2.343 2.57-6.472 2.57s-6.472-2.008-6.472-2.57z" style="stroke:#fff;stroke-linejoin:bevel;stroke-width:12px;mix-blend-mode:multiply;fill:url(#C)"/></g></mask><mask id="ae" x="40.114" y="32.351" width="12.207" height="12.204" maskUnits="userSpaceOnUse"><g style="mask:url(#D);filter:url(#bt)"><path d="M46.314 38.543c.056-.079.636-1.008.636-1.008l-.318-.215c-.1.262-.456.348-.511.666a.728.728 0 0 0 .193.557z" style="stroke:#Eff;stroke-linejoin:bevel;stroke-width:12px;mix-blend-mode:multiply;fill:url(#f)"/></g></mask><mask id="ag" x="40.137" y="29.967" width="13.611" height="13.945" maskUnits="userSpaceOnUse"><g style="mask:url(#F);filter:url(#bw)"><path d="M46.891 38.256s.111-.451-.248-.5-.55.252-.5.132a1.263 1.263 0 0 0 .3-.716 2.62 2.62 0 0 0-.028-.689.654.654 0 0 1 .719-.505.621.621 0 0 1 .608.664.446.446 0 0 1-.055.239l-.8 1.379z" style="stroke:#fff;stroke-linejoin:bevel;stroke-width:12px;mix-blend-mode:multiply;fill:url(#G)"/></g></mask><mask id="ai" x="27.694" y="32.351" width="12.207" height="12.204" maskUnits="userSpaceOnUse"><g style="mask:url(#H);filter:url(#bz)"><path d="M33.7 38.543a108.22 108.22 0 0 1-.636-1.008l.319-.215c.1.262.455.348.51.666a.719.719 0 0 1-.193.557z" style="stroke:#fff;stroke-linejoin:bevel;stroke-width:12px;mix-blend-mode:multiply;fill:url(#I)"/></g></mask><mask id="ak" x="26.268" y="29.967" width="13.611" height="13.945" maskUnits="userSpaceOnUse"><g style="mask:url(#J);filter:url(#cc)"><path d="M33.124 38.256s-.11-.451.249-.5.549.252.5.132a1.263 1.263 0 0 1-.3-.716 2.677 2.677 0 0 1 .028-.689.654.654 0 0 0-.719-.505.62.62 0 0 0-.607.664.446.446 0 0 0 .055.239l.8 1.379z" style="stroke:#fff;stroke-linejoin:bevel;stroke-width:12px;mix-blend-mode:multiply;fill:url(#K)"/></g></mask><mask id="am" x="32.472" y="32.783" width="4.138" height="3.907" maskUnits="userSpaceOnUse"><g style="mask:url(#L);filter:url(#cf)"><path d="M35.722 35.922s-.5-.743-.912-.69a1.639 1.639 0 0 0-.829.557 3.367 3.367 0 0 1-.608-.637c.027-.026.635-1.405.967-1.458a2.352 2.352 0 0 1 1.047.154c0 .053.335 2.074.335 2.074z" style="stroke:#fff;stroke-linejoin:bevel;stroke-width:1.8px;mix-blend-mode:multiply;fill:url(#c)"/></g></mask><mask id="an" x="31.481" y="33.199" width="6.245" height="6.556" maskUnits="userSpaceOnUse"><g style="mask:url(#M);filter:url(#ci)"><path d="M36.827 35.126a5.4 5.4 0 0 1-.884 2.705 3.456 3.456 0 0 1-2.294 1.008c-.414-.106-1.354-2.095-1.354-2.095s.995.955 1.741.8 1.188-1.353 1.326-1.937a7.239 7.239 0 0 0 .028-1.724l1.437 1.247z" style="stroke:#fff;stroke-linejoin:bevel;stroke-width:1.8px;mix-blend-mode:multiply;fill:url(#v)"/></g></mask><mask id="ao" x="43.546" y="32.783" width="3.997" height="3.907" maskUnits="userSpaceOnUse"><g style="mask:url(#N);filter:url(#cl)"><path d="M44.294 35.922s.5-.743.912-.69a1.649 1.649 0 0 1 .829.557 3.431 3.431 0 0 0 .608-.637c-.028-.026-.636-1.405-.968-1.458a2.352 2.352 0 0 0-1.047.154c0 .053-.334 2.074-.334 2.074z" style="stroke:#fff;stroke-linejoin:bevel;stroke-width:1.8px;mix-blend-mode:multiply;fill:url(#y)"/></g></mask><mask id="ap" x="42.289" y="33.199" width="6.055" height="6.556" maskUnits="userSpaceOnUse"><g style="mask:url(#O);filter:url(#co)"><path d="M43.189 35.126a5.4 5.4 0 0 0 .884 2.705 3.454 3.454 0 0 0 2.293 1.008c.415-.106 1.354-2.095 1.354-2.095s-.994.955-1.74.8-1.189-1.353-1.327-1.937a7.22 7.22 0 0 1-.027-1.724l-1.437 1.247z" style="stroke:#fff;stroke-linejoin:bevel;stroke-width:1.8px;mix-blend-mode:multiply;fill:url(#A)"/></g></mask><mask id="aq" x="31.925" y="34.239" width="16.165" height="5.527" maskUnits="userSpaceOnUse"><g style="mask:url(#P);filter:url(#cr)"><path d="M33.536 34.838a6.418 6.418 0 0 0-.647.871c-.138.212-.056.507.263.929a10.985 10.985 0 0 0 6.856 2.228 10.989 10.989 0 0 0 6.857-2.228c.319-.422.4-.717.26-.929a6.28 6.28 0 0 0-.645-.871c0 .557-2.343 2.57-6.472 2.57s-6.472-2.008-6.472-2.57z" style="stroke:#fff;stroke-linejoin:bevel;stroke-width:1.8px;mix-blend-mode:multiply;fill:url(#C)"/></g></mask><mask id="ar" x="45.214" y="36.574" width="2.261" height="2.881" maskUnits="userSpaceOnUse"><g style="mask:url(#Q);filter:url(#cu)"><path d="M46.314 38.543c.056-.079.636-1.008.636-1.008l-.318-.215c-.1.262-.456.348-.511.666a.728.728 0 0 0 .193.557z" style="stroke:#Eff;stroke-linejoin:bevel;stroke-width:1.8px;mix-blend-mode:multiply;fill:url(#f)"/></g></mask><mask id="as" x="45.237" y="35.067" width="3.411" height="3.745" maskUnits="userSpaceOnUse"><g style="mask:url(#R);filter:url(#cx)"><path d="M46.891 38.256s.111-.451-.248-.5-.55.252-.5.132a1.263 1.263 0 0 0 .3-.716 2.62 2.62 0 0 0-.028-.689.654.654 0 0 1 .719-.505.621.621 0 0 1 .608.664.446.446 0 0 1-.055.239l-.8 1.379z" style="stroke:#fff;stroke-linejoin:bevel;stroke-width:1.8px;mix-blend-mode:multiply;fill:url(#G)"/></g></mask><mask id="at" x="32.302" y="36.574" width="2.499" height="2.881" maskUnits="userSpaceOnUse"><g style="mask:url(#S);filter:url(#da)"><path d="M33.7 38.543a108.22 108.22 0 0 1-.636-1.008l.319-.215c.1.262.455.348.51.666a.719.719 0 0 1-.193.557z" style="stroke:#fff;stroke-linejoin:bevel;stroke-width:1.8px;mix-blend-mode:multiply;fill:url(#I)"/></g></mask><mask id="au" x="31.368" y="35.067" width="3.411" height="3.745" maskUnits="userSpaceOnUse"><g style="mask:url(#T);filter:url(#dd)"><path d="M33.124 38.256s-.11-.451.249-.5.549.252.5.132a1.263 1.263 0 0 1-.3-.716 2.677 2.677 0 0 1 .028-.689.654.654 0 0 0-.719-.505.62.62 0 0 0-.607.664.446.446 0 0 0 .055.239l.8 1.379z" style="stroke:#fff;stroke-linejoin:bevel;stroke-width:1.8px;mix-blend-mode:multiply;fill:url(#K)"/></g></mask><linearGradient id="c" x1="35.744" y1="440.557" x2="33.467" y2="441.902" gradientTransform="matrix(1 0 0 -1 0 476)" gradientUnits="userSpaceOnUse"><stop offset="0" stop-color="#fefefe"/><stop offset="1" stop-color="#fff"/></linearGradient><linearGradient id="E" x1="33.207" y1="438.17" x2="54.233" y2="438" xlink:href="#c"/><linearGradient id="G" x1="47.727" y1="438.935" x2="46.033" y2="438.834" xlink:href="#c"/><linearGradient id="I" x1="32.85" y1="438.172" x2="34.475" y2="437.914" xlink:href="#c"/><linearGradient id="K" x1="34.449" y1="438.158" x2="31.75" y2="439.656" xlink:href="#c"/><linearGradient id="v" x1="37.105" y1="439.161" x2="31.932" y2="440.119" xlink:href="#c"/><linearGradient id="y" x1="46.798" y1="441.31" x2="44.399" y2="441.17" xlink:href="#c"/><linearGradient id="A" x1="47.836" y1="439.836" x2="42.728" y2="439.402" xlink:href="#c"/><linearGradient id="C" x1="47.19" y1="439.148" x2="32.825" y2="439.148" xlink:href="#c"/><linearGradient id="w" x1="35.744" y1="440.557" x2="33.467" y2="441.902" gradientTransform="matrix(1 0 0 -1 0 476)" gradientUnits="userSpaceOnUse"><stop offset="0" stop-color="#a23c23"/><stop offset="1" stop-color="#fff"/></linearGradient><linearGradient id="X" x1="37.105" y1="439.161" x2="31.932" y2="440.119" xlink:href="#w"/><linearGradient id="Z" x1="46.798" y1="441.31" x2="44.399" y2="441.17" xlink:href="#w"/><linearGradient id="ab" x1="47.836" y1="439.836" x2="42.728" y2="439.402" xlink:href="#w"/><linearGradient id="ad" x1="47.19" y1="439.148" x2="32.825" y2="439.148" xlink:href="#w"/><linearGradient id="af" x1="33.207" y1="438.17" x2="54.233" y2="438" xlink:href="#w"/><linearGradient id="ah" x1="47.727" y1="438.935" x2="46.033" y2="438.834" xlink:href="#w"/><linearGradient id="aj" x1="32.85" y1="438.172" x2="34.475" y2="437.914" xlink:href="#w"/><linearGradient id="al" x1="34.449" y1="438.158" x2="31.75" y2="439.656" xlink:href="#w"/><filter id="a" x="27.372" y="-8429" width="14.269" height="32766" filterUnits="userSpaceOnUse" color-interpolation-filters="sRGB"><feFlood flood-color="#fff" result="bg"/><feBlend in="SourceGraphic" in2="bg"/></filter><filter id="b" x="40.114" y="-8429" width="12.207" height="32766" filterUnits="userSpaceOnUse" color-interpolation-filters="sRGB"><feFlood flood-color="#fff" result="bg"/><feBlend in="SourceGraphic" in2="bg"/></filter><filter id="d" x="40.137" y="-8429" width="13.611" height="32766" filterUnits="userSpaceOnUse" color-interpolation-filters="sRGB"><feFlood flood-color="#fff" result="bg"/><feBlend in="SourceGraphic" in2="bg"/></filter><filter id="e" x="27.694" y="-8429" width="12.207" height="32766" filterUnits="userSpaceOnUse" color-interpolation-filters="sRGB"><feFlood flood-color="#fff" result="bg"/><feBlend in="SourceGraphic" in2="bg"/></filter><filter id="f" x="26.268" y="-8429" width="13.611" height="32766" filterUnits="userSpaceOnUse" color-interpolation-filters="sRGB"><feFlood flood-color="#fff" result="bg"/><feBlend in="SourceGraphic" in2="bg"/></filter><filter id="g" x="32.472" y="-8429" width="4.138" height="32766" filterUnits="userSpaceOnUse" color-interpolation-filters="sRGB"><feFlood flood-color="#fff" result="bg"/><feBlend in="SourceGraphic" in2="bg"/></filter><filter id="h" x="26.87" y="-8429" width="15.957" height="32766" filterUnits="userSpaceOnUse" color-interpolation-filters="sRGB"><feFlood flood-color="#fff" result="bg"/><feBlend in="SourceGraphic" in2="bg"/></filter><filter id="i" x="31.481" y="-8429" width="6.245" height="32766" filterUnits="userSpaceOnUse" color-interpolation-filters="sRGB"><feFlood flood-color="#fff" result="bg"/><feBlend in="SourceGraphic" in2="bg"/></filter><filter id="j" x="43.546" y="-8429" width="3.997" height="32766" filterUnits="userSpaceOnUse" color-interpolation-filters="sRGB"><feFlood flood-color="#fff" result="bg"/><feBlend in="SourceGraphic" in2="bg"/></filter><filter id="k" x="42.289" y="-8429" width="6.055" height="32766" filterUnits="userSpaceOnUse" color-interpolation-filters="sRGB"><feFlood flood-color="#fff" result="bg"/><feBlend in="SourceGraphic" in2="bg"/></filter><filter id="l" x="31.925" y="-8429" width="16.165" height="32766" filterUnits="userSpaceOnUse" color-interpolation-filters="sRGB"><feFlood flood-color="#fff" result="bg"/><feBlend in="SourceGraphic" in2="bg"/></filter><filter id="m" x="45.214" y="-8429" width="2.261" height="32766" filterUnits="userSpaceOnUse" color-interpolation-filters="sRGB"><feFlood flood-color="#fff" result="bg"/><feBlend in="SourceGraphic" in2="bg"/></filter><filter id="n" x="45.237" y="-8429" width="3.411" height="32766" filterUnits="userSpaceOnUse" color-interpolation-filters="sRGB"><feFlood flood-color="#fff" result="bg"/><feBlend in="SourceGraphic" in2="bg"/></filter><filter id="o" x="32.302" y="-8429" width="2.499" height="32766" filterUnits="userSpaceOnUse" color-interpolation-filters="sRGB"><feFlood flood-color="#fff" result="bg"/><feBlend in="SourceGraphic" in2="bg"/></filter><filter id="p" x="31.368" y="-8429" width="3.411" height="32766" filterUnits="userSpaceOnUse" color-interpolation-filters="sRGB"><feFlood flood-color="#fff" result="bg"/><feBlend in="SourceGraphic" in2="bg"/></filter><filter id="q" x="38.628" y="-8429" width="14.016" height="32766" filterUnits="userSpaceOnUse" color-interpolation-filters="sRGB"><feFlood flood-color="#fff" result="bg"/><feBlend in="SourceGraphic" in2="bg"/></filter><filter id="r" x="37.189" y="-8429" width="14.686" height="32766" filterUnits="userSpaceOnUse" color-interpolation-filters="sRGB"><feFlood flood-color="#fff" result="bg"/><feBlend in="SourceGraphic" in2="bg"/></filter><filter id="s" x="26.825" y="-8429" width="26.365" height="32766" filterUnits="userSpaceOnUse" color-interpolation-filters="sRGB"><feFlood flood-color="#fff" result="bg"/><feBlend in="SourceGraphic" in2="bg"/></filter><clipPath id="U"><circle cx="27.5" cy="27.5" r="23.3" style="fill:none"/></clipPath></defs><g style="clip-path:url(#U)"><path style="fill:#273376" d="M-16.592 3.004h88.184v48.991h-88.184z"/><g style="mask:url(#V)"><path d="M35.722 35.922s-.5-.743-.912-.69a1.639 1.639 0 0 0-.829.557 3.367 3.367 0 0 1-.608-.637c.027-.026.635-1.405.967-1.458a2.352 2.352 0 0 1 1.047.154c0 .053.335 2.074.335 2.074z" style="stroke:#fff;stroke-linejoin:bevel;stroke-width:.100000001490116px;fill:url(#w)"/></g><g style="mask:url(#W)"><path d="M36.827 35.126a5.4 5.4 0 0 1-.884 2.705 3.456 3.456 0 0 1-2.294 1.008c-.414-.106-1.354-2.095-1.354-2.095s.995.955 1.741.8 1.188-1.353 1.326-1.937a7.239 7.239 0 0 0 .028-1.724l1.437 1.247z" style="stroke:#fff;stroke-linejoin:bevel;stroke-width:.100000001490116px;fill:url(#X)"/></g><g style="mask:url(#Y)"><path d="M44.294 35.922s.5-.743.912-.69a1.649 1.649 0 0 1 .829.557 3.431 3.431 0 0 0 .608-.637c-.028-.026-.636-1.405-.968-1.458a2.352 2.352 0 0 0-1.047.154c0 .053-.334 2.074-.334 2.074z" style="stroke:#fff;stroke-linejoin:bevel;stroke-width:.100000001490116px;fill:url(#Z)"/></g><g style="mask:url(#aa)"><path d="M43.189 35.126a5.4 5.4 0 0 0 .884 2.705 3.454 3.454 0 0 0 2.293 1.008c.415-.106 1.354-2.095 1.354-2.095s-.994.955-1.74.8-1.189-1.353-1.327-1.937a7.22 7.22 0 0 1-.027-1.724l-1.437 1.247z" style="stroke:#fff;stroke-linejoin:bevel;stroke-width:.100000001490116px;fill:url(#ab)"/></g><g style="mask:url(#ac)"><path d="M33.536 34.838a6.418 6.418 0 0 0-.647.871c-.138.212-.056.507.263.929a10.985 10.985 0 0 0 6.856 2.228 10.989 10.989 0 0 0 6.857-2.228c.319-.422.4-.717.26-.929a6.28 6.28 0 0 0-.645-.871c0 .557-2.343 2.57-6.472 2.57s-6.472-2.008-6.472-2.57z" style="stroke:#fff;stroke-linejoin:bevel;stroke-width:.100000001490116px;fill:url(#ad)"/></g><g style="mask:url(#ae)"><path d="M46.314 38.543c.056-.079.636-1.008.636-1.008l-.318-.215c-.1.262-.456.348-.511.666a.728.728 0 0 0 .193.557z" style="stroke:#fff;stroke-linejoin:bevel;stroke-width:.100000001490116px;fill:url(#af)"/></g><g style="mask:url(#ag)"><path d="M46.891 38.256s.111-.451-.248-.5-.55.252-.5.132a1.263 1.263 0 0 0 .3-.716 2.62 2.62 0 0 0-.028-.689.654.654 0 0 1 .719-.505.621.621 0 0 1 .608.664.446.446 0 0 1-.055.239l-.8 1.379z" style="stroke:#fff;stroke-linejoin:bevel;stroke-width:.100000001490116px;fill:url(#ah)"/></g><g style="mask:url(#ai)"><path d="M33.7 38.543a108.22 108.22 0 0 1-.636-1.008l.319-.215c.1.262.455.348.51.666a.719.719 0 0 1-.193.557z" style="stroke:#fff;stroke-linejoin:bevel;stroke-width:.100000001490116px;fill:url(#aj)"/></g><g style="mask:url(#ak)"><path d="M33.124 38.256s-.11-.451.249-.5.549.252.5.132a1.263 1.263 0 0 1-.3-.716 2.677 2.677 0 0 1 .028-.689.654.654 0 0 0-.719-.505.62.62 0 0 0-.607.664.446.446 0 0 0 .055.239l.8 1.379z" style="stroke:#fff;stroke-linejoin:bevel;stroke-width:.100000001490116px;fill:url(#al)"/></g><g style="mask:url(#am)"><path d="M35.722 35.922s-.5-.743-.912-.69a1.639 1.639 0 0 0-.829.557 3.367 3.367 0 0 1-.608-.637c.027-.026.635-1.405.967-1.458a2.352 2.352 0 0 1 1.047.154c0 .053.335 2.074.335 2.074z" style="stroke:#000;stroke-linejoin:bevel;stroke-width:.100000001490116px;fill:url(#w)"/></g><g style="mask:url(#an)"><path d="M36.827 35.126a5.4 5.4 0 0 1-.884 2.705 3.456 3.456 0 0 1-2.294 1.008c-.414-.106-1.354-2.095-1.354-2.095s.995.955 1.741.8 1.188-1.353 1.326-1.937a7.239 7.239 0 0 0 .028-1.724l1.437 1.247z" style="stroke:#000;stroke-linejoin:bevel;stroke-width:.100000001490116px;fill:url(#X)"/></g><g style="mask:url(#ao)"><path d="M44.294 35.922s.5-.743.912-.69a1.649 1.649 0 0 1 .829.557 3.431 3.431 0 0 0 .608-.637c-.028-.026-.636-1.405-.968-1.458a2.352 2.352 0 0 0-1.047.154c0 .053-.334 2.074-.334 2.074z" style="stroke:#000;stroke-linejoin:bevel;stroke-width:.100000001490116px;fill:url(#Z)"/></g><g style="mask:url(#ap)"><path d="M43.189 35.126a5.4 5.4 0 0 0 .884 2.705 3.454 3.454 0 0 0 2.293 1.008c.415-.106 1.354-2.095 1.354-2.095s-.994.955-1.74.8-1.189-1.353-1.327-1.937a7.22 7.22 0 0 1-.027-1.724l-1.437 1.247z" style="stroke:#000;stroke-linejoin:bevel;stroke-width:.100000001490116px;fill:url(#ab)"/></g><g style="mask:url(#aq)"><path d="M33.536 34.838a6.418 6.418 0 0 0-.647.871c-.138.212-.056.507.263.929a10.985 10.985 0 0 0 6.856 2.228 10.989 10.989 0 0 0 6.857-2.228c.319-.422.4-.717.26-.929a6.28 6.28 0 0 0-.645-.871c0 .557-2.343 2.57-6.472 2.57s-6.472-2.008-6.472-2.57z" style="stroke:#000;stroke-linejoin:bevel;stroke-width:.100000001490116px;fill:url(#ad)"/></g><g style="mask:url(#ar)"><path d="M46.314 38.543c.056-.079.636-1.008.636-1.008l-.318-.215c-.1.262-.456.348-.511.666a.728.728 0 0 0 .193.557z" style="stroke:#000;stroke-linejoin:bevel;stroke-width:.100000001490116px;fill:url(#af)"/></g><g style="mask:url(#as)"><path d="M46.891 38.256s.111-.451-.248-.5-.55.252-.5.132a1.263 1.263 0 0 0 .3-.716 2.62 2.62 0 0 0-.028-.689.654.654 0 0 1 .719-.505.621.621 0 0 1 .608.664.446.446 0 0 1-.055.239l-.8 1.379z" style="stroke:#000;stroke-linejoin:bevel;stroke-width:.100000001490116px;fill:url(#ah)"/></g><g style="mask:url(#at)"><path d="M33.7 38.543a108.22 108.22 0 0 1-.636-1.008l.319-.215c.1.262.455.348.51.666a.719.719 0 0 1-.193.557z" style="stroke:#000;stroke-linejoin:bevel;stroke-width:.100000001490116px;fill:url(#aj)"/></g><g style="mask:url(#au)"><path d="M33.124 38.256s-.11-.451.249-.5.549.252.5.132a1.263 1.263 0 0 1-.3-.716 2.677 2.677 0 0 1 .028-.689.654.654 0 0 0-.719-.505.62.62 0 0 0-.607.664.446.446 0 0 0 .055.239l.8 1.379z" style="stroke:#000;stroke-linejoin:bevel;stroke-width:.100000001490116px;fill:url(#al)"/></g><path d="m34.963 36.5-.3-.191-.035.051.059.046.005.027-.379.553-.028.006-.066-.035-.035.051.3.191a.451.451 0 0 0 .289.089.431.431 0 0 0 .321-.2.378.378 0 0 0-.131-.585zm-.126 0 .06.038c.164.1.179.249.044.444s-.279.242-.443.138l-.06-.038.4-.582zM35.064 37.5l.6.274.1-.2-.076-.035-.078.111-.024.011-.258-.119.145-.292.145.066.008.023-.029.086.066.03.129-.261-.066-.03-.051.076-.023.009-.145-.067.133-.268.222.1.007.022-.033.106.078.036L36 37l-.561-.257-.028.055.065.037.01.024-.3.6-.026.01-.071-.025-.028.055zM35.857 37.808a.7.7 0 0 0 .214.109c.193.06.346-.005.393-.147a.216.216 0 0 0-.046-.21c-.054-.067-.111-.1-.14-.138-.049-.057-.07-.1-.052-.158a.131.131 0 0 1 .177-.07.193.193 0 0 1 .08.044l.011.021-.022.13.085.026.064-.192a.687.687 0 0 0-.207-.109.267.267 0 0 0-.356.148.226.226 0 0 0 .028.188.7.7 0 0 0 .125.136c.069.068.1.124.075.188s-.094.1-.189.066a.372.372 0 0 1-.1-.048l-.009-.023.029-.148-.09-.028-.072.215zM36.482 38.03l.352.109.019-.058-.077-.031-.012-.024.211-.633.025-.011.081.019.019-.059-.351-.109-.02.059.076.03.013.022-.212.633-.025.013-.079-.018-.02.058zM37.237 37.37l-.013.06.07.021.015.021-.146.65-.024.016-.072-.008-.014.059.341.069.013-.059-.072-.021-.015-.024.061-.274h.021c.122.025.141.083.153.207a.284.284 0 0 0 .056.181.2.2 0 0 0 .117.063.766.766 0 0 0 .123.015l.013-.058h-.015c-.081-.016-.113-.042-.124-.114a.792.792 0 0 0-.029-.2.2.2 0 0 0-.11-.1c.142 0 .23-.054.255-.167.03-.135-.05-.228-.237-.266l-.367-.075zm.232.12.055.012c.117.023.166.092.144.192s-.1.151-.227.125l-.044-.01.072-.319zM38 38.39l.662.031.01-.223h-.083l-.028.131-.017.019-.286-.013.016-.324.16.007.016.019.009.09h.072l.014-.289h-.073l-.016.089-.018.017-.161-.008.014-.3.246.011.015.017.013.11h.087l.009-.2-.621-.029v.061l.075.01.019.018-.032.665-.021.019h-.075v.061zM39.166 37.685v.221h.088l.021-.133.021-.016h.152l-.007.679-.022.02-.082.005v.061h.379v-.061l-.082-.007-.021-.02.007-.679h.152l.018.016.021.134h.087v-.221l-.73-.008zM39.935 37.709v.061h.074l.02.02.013.662-.02.021-.073.007v.061l.358-.006v-.061l-.076-.005-.021-.02-.006-.314.366-.006.006.315-.018.02-.076.007v.061l.357-.005v-.061h-.074l-.02-.02-.013-.662.02-.021.073-.007V37.7l-.357.005v.062l.076.005.02.019.005.273-.366.006-.005-.273.02-.02.075-.008V37.7zM40.943 38.526l.678-.057-.021-.223-.086.007-.009.134-.014.021-.293.025-.03-.323.164-.014.019.016.021.088.075-.006-.027-.288-.075.006v.09l-.016.019-.164.014-.028-.3.251-.021.019.015.029.108.088-.008-.018-.2-.636.054.006.061h.077l.022.016.061.662-.018.022-.076.013v.061zM41.9 37.559l.01.061.08-.006.024.014.113.656-.018.023-.078.018.011.061.375-.059-.011-.06-.082.006-.024-.016-.048-.277h.023c.134-.021.177.027.239.137a.29.29 0 0 0 .13.148.247.247 0 0 0 .145.016 1.015 1.015 0 0 0 .131-.03l-.01-.06h-.017c-.089.014-.132 0-.172-.062a.776.776 0 0 0-.108-.17.237.237 0 0 0-.153-.054c.146-.049.212-.133.193-.246-.024-.137-.143-.194-.349-.162l-.4.063zm.285.028.061-.01c.129-.02.206.026.223.127s-.039.176-.181.2c-.015 0-.031 0-.048.006zM43.026 38.215l.384-.111-.019-.059-.088.019-.027-.013-.208-.636.015-.023.084-.031-.019-.058-.385.111.019.058.087-.018.026.011.209.636-.014.025-.084.03.02.059zM43.826 37.526l.018.059.1-.021.026.011.077.243c-.033.012-.057.021-.07.024a.326.326 0 0 1-.427-.248.3.3 0 0 1 .207-.423.307.307 0 0 1 .113-.012l.026.016.064.12.094-.027-.063-.2a1.051 1.051 0 0 0-.285.038.423.423 0 0 0-.343.544.448.448 0 0 0 .586.291.985.985 0 0 0 .274-.132l-.087-.279.015-.023.073-.027-.018-.059-.377.108zM44.025 37.026l.029.055.073-.028.028.008.312.592-.01.027-.067.039.029.055.34-.165-.028-.055-.076.03-.028-.009-.148-.28.347-.169.148.281-.008.026-.07.041.029.054.339-.164-.029-.054-.072.028-.029-.009-.312-.591.01-.027.067-.04-.029-.054-.339.164.029.055.075-.03.027.009.129.244-.347.169-.129-.244.01-.027.069-.041-.029-.055-.34.165zM44.877 36.574l.118.19.08-.046-.053-.125.01-.025.139-.079.363.583-.009.028-.072.049.033.052.345-.2-.032-.052-.079.037-.03-.006-.363-.582.139-.08h.026l.09.1.08-.045-.118-.19-.667.382z"/><path d="M40.008 37.024s-6.67-1.8-6.631-8.67l.051-9.075h13.159l.051 9.023c.039 6.865-6.63 8.722-6.63 8.722z" style="fill:#1c72b9;stroke:#fff;stroke-width:.100000001490116px"/><path d="M34.344 21.334a1.485 1.485 0 0 0 .165-.132c.1-.048.2-.114.3-.159.078-.042.232-.074.3-.106a.755.755 0 0 0 .249-.186 3.4 3.4 0 0 0 .028-.345c.11-.048.207-.095.3-.132a2.4 2.4 0 0 1 .3-.107 1.4 1.4 0 0 1 .359-.026c.137 0 .224.09.347.111a1 1 0 0 1 .332.185.645.645 0 0 0 .22.2 1.566 1.566 0 0 0 .276.133 1.125 1.125 0 0 1 .3.185c.081.054.114.132.193.186a2.162 2.162 0 0 0 .277.186.635.635 0 0 0 .427.112 1.431 1.431 0 0 1 .332 0 1.68 1.68 0 0 1 .387.026c.14 0 .255.018.386.027a2.3 2.3 0 0 0 .387.026 1.678 1.678 0 0 0 .387.027h.774a2.134 2.134 0 0 1 .387.026 3.378 3.378 0 0 0 .386-.026c.15 0 .265-.025.415-.027h.47a1.421 1.421 0 0 1 .359.106c.11.029.165.077.276.106a.8.8 0 0 1 .277.186 1.355 1.355 0 0 1 .221.292 1.869 1.869 0 0 1 .165.345 1.483 1.483 0 0 1 .056.371 1.5 1.5 0 0 1 .027.371 3.285 3.285 0 0 1-.083.372 1.889 1.889 0 0 1-.055.345 1.235 1.235 0 0 0-.055.318v.37c-.01.122-.039.212-.055.345a3.8 3.8 0 0 0-.194.4.849.849 0 0 0-.221.212c-.059.034-.093.084-.083.106.11.036.083.106.083.239a2.991 2.991 0 0 0 .055.345.729.729 0 0 0 .083.292c.044.052.052.026-.055.026-.08.058-.161.028-.193-.079a.553.553 0 0 1-.111-.292.867.867 0 0 0-.083-.319c-.014-.149-.057-.147-.221-.159a.5.5 0 0 0-.332-.079c-.15 0-.163-.014-.165.132v.372c-.026.107-.083.2-.111.291-.082.056-.125.149-.221.213-.046.12-.112.141-.249.159a2.387 2.387 0 0 1-.143-.185c.077-.119.145-.137.193-.265.059-.106.093-.174.138-.265a1.2 1.2 0 0 1-.166-.239 1.412 1.412 0 0 1-.138-.292 1.6 1.6 0 0 1-.3-.079c-.134-.029-.171.106-.331.106H41c-.171 0-.214.087-.359.079-.043.013-.147 0-.3 0a1.326 1.326 0 0 1-.387.027 1.75 1.75 0 0 1-.359-.053 2.918 2.918 0 0 0-.387-.08.507.507 0 0 0-.332.08c-.086.047-.211.154-.3.212-.039.088-.059.237-.11.345-.03.1-.077.169-.111.265a.979.979 0 0 0-.083.318c-.009.179-.051.157-.165.106a2.789 2.789 0 0 1-.166-.238 1.7 1.7 0 0 0 .055-.345c-.027-.1-.089-.1-.166-.027 0 .139.007.246-.055.319a.333.333 0 0 1-.166.212.4.4 0 0 1-.221.186c-.014-.005 0-.036 0-.107-.066-.121 0-.222 0-.371a.962.962 0 0 1 .035-.345 1.474 1.474 0 0 0-.086-.345.286.286 0 0 0-.221-.185.8.8 0 0 1-.3-.159.559.559 0 0 0-.249-.186 1.184 1.184 0 0 1-.276-.133c-.085-.086-.155-.124-.194-.238a1.973 1.973 0 0 1-.11-.345 1.106 1.106 0 0 0-.083-.319 1.216 1.216 0 0 0-.083-.318 2.9 2.9 0 0 0-.083-.345 1.492 1.492 0 0 0-.027-.371v-.371c-.02-.108-.028-.265-.055-.345a.739.739 0 0 0-.056-.319c-.063-.093-.068-.135-.166-.159a.488.488 0 0 1-.331.133 2.2 2.2 0 0 1-.36-.08 1.321 1.321 0 0 1-.276-.106 2.208 2.208 0 0 0-.166-.212c-.017-.138-.05-.21-.055-.345 0-.1 0-.047.111-.186z" style="fill:#bbbcbb"/><path d="M35.98 22.29a3.8 3.8 0 0 0 .779-.481c.251-.146.764 0 .784-.39a3.669 3.669 0 0 1-.473.593c-.319.186.157.377.234.11a1.369 1.369 0 0 1 .708-.657.556.556 0 0 0 .039.563c.052-.086.065-.44.059-.149-.1.166.155.648.162.273.041-.238.026.256.1.33.166.293.151-.269.188-.38.027-.21.039-.155.006 0-.034.191.035-.4.048-.073.023.169 0 .63.176.264.143-.217.177-.22.021-.027-.051.072.234-.4.121-.07a1.213 1.213 0 0 0 .141.738c.107-.121.045-.748.152-.317.041.122 0 .46.174.2a.8.8 0 0 0 .27-.655c.023-.142.117-.37.2-.119-.057.327.314.536.269.85a.877.877 0 0 0-.02-.828c-.023-.273.452-.11.334.13-.014.173.256.617.277.206.037-.2.154-.213.128.006.049.141.258.555.235.194a1.5 1.5 0 0 1 .062-.589c.068.118.075.3.156.075.165 0 .065.416.274.506.083.151.292.4.233.073.033-.176-.139-.54-.065-.587.219.254.3.59.594.8.28.13.034-.361.019-.488-.167-.084-.3-.412-.067-.156a1.643 1.643 0 0 0 .681.476c-.124-.084-.236-.115-.027 0 .156.058-.092-.355-.182-.426-.08-.132-.47-.325-.36-.416.306.061.395.367.58.558.116.089.394.278.239 0 .087-.033.516.4.414.054-.071-.151-.447-.424-.406-.44.129.171.051.049-.051-.041.372.038.591.379.825.6.029.1.114.606 0 .276-.242-.095.093.451-.171.38-.012-.12-.245-.374-.132-.123.194.366.048.768.065 1.154a5.381 5.381 0 0 1-.02.568c.014-.14.026-.372 0-.067-.008.212-.093-.306-.209-.332-.024-.1-.114-.583-.191-.293 0 .285.3.583.061.834-.081.069-.123.268-.166.06a2.243 2.243 0 0 0-.4-.707c-.087-.157-.386-.536-.3-.138a1.557 1.557 0 0 1 .073.549 5.881 5.881 0 0 0-.43-.787c.023.119.18.63.043.3a1.02 1.02 0 0 0-.542-.663c-.081-.009.2.478.09.481-.026-.157-.181-.506-.335-.443a2.924 2.924 0 0 1 .06.829c.016.279-.187-.278-.254-.352-.3-.168.022.472-.214.225a.488.488 0 0 1-.274-.488c-.354-.055-.218.289-.234.484-.03.148-.118.43-.216.473a4.785 4.785 0 0 1-.019-.657c.057-.125-.006-.448-.172-.295-.028.283.174.643-.055.874-.122.128-.346-.2-.558-.111-.27-.127-.159-.523-.342-.731-.182-.175-.1.7-.216.285.086-.263-.438-.367-.335-.085a.479.479 0 0 1 .135.429c.036.187-.115.242-.151.032-.014-.231-.446-.327-.357-.023-.227-.133-.014.527-.291.324-.313-.2-.513.177-.856.1-.194.03-.66.077-.378-.183.265-.146.376-.588.744-.362a1.655 1.655 0 0 0 .809-.366c.188-.116.1-.412-.126-.229-.191.264-.74.264-.905.243.163-.142.662-.163.539-.411-.183.014-.505.266-.608.119.064-.065.274-.244.031-.166a2.648 2.648 0 0 1-.952.047c-.317-.285.462-.207.45-.394-.076-.006-.38.032-.247-.071a.78.78 0 0 0 .7-.2c.111-.106.5-.349.4-.435-.285.151-.585.408-.943.258.308-.21-.119-.228-.313-.208-.141.04-.534-.107-.2-.1.229.045.456-.246.1-.191a1.093 1.093 0 0 0-.229-.011zM34.288 21.865a1.517 1.517 0 0 1-.048-.412 1.656 1.656 0 0 1 .27-.251 2.224 2.224 0 0 1 .521-.235.709.709 0 0 0 .335-.216c.043-.118-.033-.308.088-.372.149-.075.311-.123.462-.192a1.325 1.325 0 0 1 .517-.038c.138.055.277.1.414.161a.868.868 0 0 1 .3.245 1.679 1.679 0 0 0 .335.193.058.058 0 1 1 0 .115c-.039.168-.268.026-.311-.073.038-.066.022.149-.05.151-.129.053-.125-.148-.144-.225.016-.065-.04-.142-.069-.04-.087.087.093.275-.095.223a.586.586 0 0 0-.417.042c-.1.1.11.137.176.184.089.077.208 0 .311-.009a.619.619 0 0 1 .432.039c.061.12-.061.24-.176.289a1.033 1.033 0 0 1-.351.09c-.177.008-.142.209-.315.225a.737.737 0 0 1-.352.039c-.023-.058.117-.151.132-.239.126-.139-.182-.113-.137.018.021.09-.192.222-.12.07 0-.082.1-.209-.06-.15-.085 0-.259 0-.211.118a.546.546 0 0 1-.331-.025.193.193 0 0 0-.327-.071c-.1.128-.251-.039-.355.027 0 .119.133.182.251.181a1.6 1.6 0 0 1 .366-.012c.111.122-.107.161-.211.144a3.7 3.7 0 0 0-.406-.068c-.068-.009-.223.069-.077.079.108.02.33.014.281.17-.085.036-.19 0-.286.034-.057-.014-.226.028-.132-.016-.05-.079-.146-.124-.211-.193z" style="fill:#fff"/><path d="M34.905 21.24a.871.871 0 0 0-.117.075 2.418 2.418 0 0 0-.234.15c-.045.033-.045.047-.1.056a.552.552 0 0 0 .215-.075.52.52 0 0 0 .254-.075c.051-.016 0-.091-.02-.131zM35.8 20.358c.011 0 .034.059.078.094a.613.613 0 0 1 .059.206 2.035 2.035 0 0 0 .078-.262c-.03-.05-.032-.073-.117-.075.002.05.01.017-.098.037zM36.156 20.377v.023c0-.051 0-.025.019.075a.461.461 0 0 1 .04.225.363.363 0 0 0 .117-.169c0-.152-.022-.143-.176-.154zM36.879 22.534h.021c-.057 0-.025 0 .079-.056a.732.732 0 0 1 .215-.132.8.8 0 0 1 .253-.131c.046-.02.087-.055.137-.019a.175.175 0 0 1-.117.169.467.467 0 0 1-.176.113c-.063.027-.133.028-.156.093-.106.045-.12.038-.254-.037zM37.25 23.078c.035-.025.157-.143.215-.188a.846.846 0 0 1 .2-.187c.056-.081.129-.135.175-.206s.095-.117.157-.188a.663.663 0 0 0 .019.244.358.358 0 0 1-.059.225.331.331 0 0 1-.175.15 1.541 1.541 0 0 0-.215.112 1.835 1.835 0 0 1-.176.094c-.056.023-.03.013-.137-.056zM36.644 23.509h.02c-.058 0-.025 0 .078-.056A.684.684 0 0 1 37 23.3a.682.682 0 0 0 .235-.056c.047-.008.08-.036.117 0 .061.079.078.1-.02.15a.589.589 0 0 1-.2.094.628.628 0 0 1-.235.056c-.079 0-.124.009-.156-.038l.156.038a.557.557 0 0 1-.253-.035zM37.485 23.509v-.018c0 .052 0 .024.039-.075.073-.105.1-.163.2-.188a.458.458 0 0 1 .215-.094c.035.057.008.122 0 .188a.635.635 0 0 1-.137.169.385.385 0 0 1-.176.093c-.079 0-.04-.001-.141-.075z" style="fill:#bbbcbb"/><path d="M35.2 21.127c-.044 0 .077-.042.117-.056a.324.324 0 0 1 .117-.15.242.242 0 0 1 .2.094 1.466 1.466 0 0 0 .214.075c.039.031.091.034 0 .056a.52.52 0 0 1-.234.038.638.638 0 0 0-.235.056c-.13 0-.11 0-.175-.113z" style="fill:#c3c3c0;stroke:#000;stroke-width:.100000001490116px"/><path d="M35.472 20.977a.094.094 0 1 1-.1.094.1.1 0 0 1 .1-.094z"/><path d="M35.8 26.3h.078c-.245 0-.1-.015.313.3.172-.138.17-.156.313.075.082.132.106-.013.234-.15.062.273.1.559.313.3a1.245 1.245 0 0 1 .625.075c.158.283.106-.048.234.075.345.04.338-.283.713-.366.233.279.335.064.625-.075.216.058.419.372.46.066.176-.276.192-.253.313 0 .171.149.243-.074.39-.15a1.225 1.225 0 0 0 .938.075c.065.25.229.142.391.075a.825.825 0 0 0 .86 0c.2-.221.084.006.234.15a.854.854 0 0 1 .547-.075c.338 0 .365-.008.469-.225.17.163.231.281.469.075.364.011.252.044.469-.075.161.342.2.095.391.225a1.241 1.241 0 0 1-.547.6c-.151.239-.245.5-.548.6a6.148 6.148 0 0 1-.7.525 4.8 4.8 0 0 1-1.094.075h-3.281a4.362 4.362 0 0 1-.938.225 3.96 3.96 0 0 1-1.016-.075c-.168-.161-.462-.341-.626-.525-.165-.128-.17-.379-.312-.525-.131-.215-.171-.551-.313-.751V26.3z" style="fill:#0b5229;stroke:#102b18;stroke-width:.100000001490116px"/><path d="M43.385 26.979v.075c0-.209.01-.1-.156.3-.034.1-.107.12-.235.151M42.682 27.279h.078c-.289.263-.484.384-.547.676l.547-.676c-.289.263-.484.384-.547.676M41.588 26.9a1.024 1.024 0 0 1-.079.375M41.275 27.43zM40.65 26.979zM36.273 26.979c.037 0 .191.239.391.375a.9.9 0 0 0 0 .676M36.9 27.43c.038 0 .191.238.391.375l-.391-.375c.038 0 .191.238.391.375v.075a1.112 1.112 0 0 1 .078-.6c.087.142.2.369.235.151a2.84 2.84 0 0 0 .938-.225c0 .11-.019.057.078.15M43.932 27.054h.078a3.407 3.407 0 0 0-.391.526M40.728 26.829h.625" style="fill:#0b5229;stroke:#102b18;stroke-width:.100000001490116px"/><path d="M35.621 27.4c-.94 0-1.252.9-2.192.9h-.053v.054a9.574 9.574 0 0 0 .148 1.751c.867-.058 1.189-.9 2.1-.9.939 0 1.253.9 2.193.9s1.254-.9 2.194-.9 1.253.9 2.193.9 1.254-.9 2.194-.9c.9 0 1.228.837 2.09.9a9.578 9.578 0 0 0 .154-1.8h-.053c-.94 0-1.252-.9-2.191-.9s-1.254.9-2.194.9-1.253-.9-2.193-.9-1.254.9-2.194.9-1.254-.9-2.193-.9zM35.621 30.92c-.732 0-1.083.544-1.646.787a8.082 8.082 0 0 0 .7 1.364 1.592 1.592 0 0 1 .948-.345c.939 0 1.253.9 2.193.9s1.254-.9 2.194-.9 1.253.9 2.193.9 1.254-.9 2.194-.9a1.571 1.571 0 0 1 .929.333 8.1 8.1 0 0 0 .7-1.358c-.553-.246-.905-.781-1.629-.781-.94 0-1.254.9-2.194.9s-1.253-.9-2.193-.9-1.254.9-2.194.9-1.254-.9-2.193-.9zM40.008 34.44c-.94 0-1.254.9-2.194.9-.889 0-1.218-.808-2.046-.9a10.419 10.419 0 0 0 3.218 2.194c.289-.206.589.251 1.022.251s.727-.46 1.015-.255a10.558 10.558 0 0 0 3.187-2.186c-.8.108-1.133.892-2.009.892-.94.008-1.253-.896-2.193-.896z" style="fill:#fff"/><path d="M34.189 31.376a7.85 7.85 0 0 1 .925-.247l1.439 1.333-1.182.221-1.182-1.307zM37 33.089a21.6 21.6 0 0 1 .653-2.07M37.216 33.11c0-.019.5-2.072.5-2.072M37.387 33.113c.022-.116.416-2.075.416-2.075" style="fill:none;stroke:#51230f;stroke-width:.100000001490116px"/><path d="M37.172 32.528a1.427 1.427 0 0 0 .327-.077M37.237 32.3a1.94 1.94 0 0 1 .327-.078M37.281 32.005l.348-.058M37.433 31.754a1.024 1.024 0 0 0 .24.019M40.875 34.458c-.026-.53-.771-3.546-.771-3.546M40.618 34.359c0-.034-.591-3.413-.591-3.413M40.361 34.094c-.026-.2-.437-3.148-.437-3.148" style="fill:none;stroke:#51230f;stroke-width:.100000001490116px"/><path d="M40.849 34.027a2.705 2.705 0 0 0-.514-.232M40.669 33.5a1.272 1.272 0 0 1-.385-.132M40.592 33.1a1.726 1.726 0 0 0-.385-.133M40.541 32.6l-.411-.1M40.361 32.172c0 .033-.283.033-.283.033M40.284 31.774a2.345 2.345 0 0 0-.284.066M42.85 32.976a1.581 1.581 0 0 1-.385-.1" style="fill:none;stroke:#51230f;stroke-width:.100000001490116px"/><path d="M43.056 33.692c-.026-.4-.771-2.64-.771-2.64M42.8 33.618c0-.025-.591-2.541-.591-2.541M42.542 33.42c-.026-.147-.437-2.343-.437-2.343" style="fill:none;stroke:#51230f;stroke-width:.100000001490116px"/><path d="M42.773 32.68a2.266 2.266 0 0 0-.385-.1M42.722 32.31l-.411-.074M42.542 31.99c0 .024-.283.024-.283.024M42.465 31.694c-.052 0-.283.049-.283.049" style="fill:none;stroke:#51230f;stroke-width:.100000001490116px"/><path d="m39.74 33.991.077-6.193s.232-.024.232 0-.026 6.168-.052 6.193-.282.049-.257 0zM42.259 28.07l-.051 5.206-.18.2.051-5.4zM37.787 32.807c.026-.148.026-4.614.026-4.614l-.154-.025-.026 4.565.154.074z" style="fill:#de8a59;stroke:#51230f;stroke-width:.100000001490116px"/><path d="M36.81 31.129c.1 0 1.851-.271 1.851-.271l-.026.271-1.722.173-.1-.173zM36.836 29.7c.1.025 2.108-.518 2.108-.518s0 .173-.026.173-2.082.518-2.082.518V29.7zM36.913 28.982a.424.424 0 0 0 .026.223l1.671-.543s.077-.124 0-.124-1.722.494-1.7.444zM39.124 28.637c.051 0 1.722-.518 1.722-.518s.025.222 0 .222-1.568.444-1.568.444l-.154-.148zM38.995 29.279s-.051.222-.026.222 2.185-.543 2.185-.543v-.148l-2.159.469zM39.072 31.03v.17l1.851-.247-.052-.123-1.8.2zM41.205 31.154l.026.148s1.851-.222 1.851-.247 0-.173-.026-.173-1.825.296-1.851.272zM41.18 29.575l.025.172 2.185-.567s.051-.148.026-.148a22.7 22.7 0 0 1-2.236.543zM41.411 28.785s-.026.148 0 .148 1.619-.37 1.619-.394.155-.173.026-.149a12.178 12.178 0 0 1-1.645.395z" style="fill:#de8a59;stroke:#51230f;stroke-width:.100000001490116px"/><path d="M37.916 29.279c.231-.074.077-.247.128-.247s.231.123.334.025.18-.395.129-.371a9.714 9.714 0 0 1-1.394.409 1.826 1.826 0 0 0 .8.184zM41.488 28.933s.129.3.257.247a1.184 1.184 0 0 0 .255-.148s.1.247.283.2.283-.321.283-.321a.659.659 0 0 0 .257.025c.077-.025.179-.419.179-.419l-1.516.419zM41.334 31.327c-.026.049.129.172.257.172s.18-.172.206-.123.025.271.359.2.335-.3.335-.3-.1.074.128.1.463-.321.437-.321-1.671.296-1.722.272zM41.334 29.723a.77.77 0 0 0-.18.641 2.614 2.614 0 0 0 .206.691c.025 0 .308-.493.617-.518a2.308 2.308 0 0 1 .873.271 5.625 5.625 0 0 1-.051-.863 2.011 2.011 0 0 1 .463-.74l-1.928.518zM36.888 31.327c.025 0 0 .222.205.172a.353.353 0 0 0 .257-.172.306.306 0 0 0 .334.246.622.622 0 0 0 .437-.321s.026.223.206.149a.419.419 0 0 0 .231-.247l-1.619.222zM36.888 29.871s-.232.074-.155.518a1.281 1.281 0 0 0 .283.691c.026 0 .231-.42.54-.494a1.646 1.646 0 0 1 .848.222 2.6 2.6 0 0 1 .026-.764 1.48 1.48 0 0 1 .334-.642s-1.8.469-1.876.469zM39.175 28.711c.1.025.283.271.386.222a1.415 1.415 0 0 0 .257-.2s-.026.3.18.246a.306.306 0 0 0 .231-.246.334.334 0 0 0 .282 0c.129-.074.257-.444.206-.444s-1.491.444-1.542.419zM39.124 29.427a1.52 1.52 0 0 0-.18.814 2.188 2.188 0 0 0 .257.715 2.392 2.392 0 0 1 .745-.468 1.243 1.243 0 0 1 .8.246 1.661 1.661 0 0 1-.129-.641A5.044 5.044 0 0 1 41 28.982l-1.876.445zM39.124 31.2a.276.276 0 0 0 .257.2.2.2 0 0 0 .2-.173s-.025.3.257.271a.482.482 0 0 0 .386-.3s.025.148.257.074a1.516 1.516 0 0 0 .519-.316 16.309 16.309 0 0 1-1.876.247z" style="fill:#fdcf3f;stroke:#51230f;stroke-width:.100000001490116px"/><path d="M36.888 32.979a2.889 2.889 0 0 0 3.212 2.468 4.031 4.031 0 0 0 3.778-2.566s-1.259-.05-1.285-.05a3.539 3.539 0 0 1-2.313 1.16 2.693 2.693 0 0 1-1.979-.567 4.013 4.013 0 0 1-.54-.617l-1.49-.568.077.543.54.2zM44.867 32.716c-.026-.074-.089-.329-.089-.329v-.3l.142-.3s-2.236.307-2.236.332l-.014.584 2.2.008z" style="fill:#de8a59;stroke:#51230f;stroke-width:.100000001490116px"/><path d="m44.444 32.091-.051.518h.359l-.025-.518zM44.058 32.116l-.025.543.231-.025.026-.518zM43.673 32.659v-.42l.231-.074.026.42zM43.236 32.634l.051-.37.257.025.026.394-.334-.049zM42.747 32.634l.026-.321.257-.024v.37zM42.491 32.832l2.441.049.026-.173-2.519-.025zM42.593 32.215c.283 0 2.416-.4 2.416-.4s.077-.247 0-.247-2.416.469-2.416.469v.173zM34.112 31.351l1.953.913-.051.123s-1.877-.838-1.877-.863.026-.124-.025-.173z" style="fill:#de8a59;stroke:#51230f;stroke-width:.100000001490116px"/><path d="M35.011 31.08c0 .074.283 1.579.283 1.579s.18.024.18 0-.308-1.555-.308-1.555l-.155-.024z" style="fill:#de8a59;stroke:#51230f;stroke-width:.100000001490116px"/><path d="M38.961 33.867c.025-.411.771-2.744.771-2.744M39.218 33.894c0-.025.591-2.745.591-2.745M39.42 33.9c.026-.153.492-2.749.492-2.749" style="fill:none;stroke:#51230f;stroke-width:.100000001490116px"/><path d="M38.986 33.533a3.132 3.132 0 0 1 .514-.179M39.166 33.123a1.519 1.519 0 0 0 .386-.1M39.243 32.815a2.2 2.2 0 0 1 .386-.1M39.3 32.431l.411-.077M39.475 32.1c0 .026.282.026.282.026M39.552 31.79c.051 0 .283.051.283.051M41.142 33.849c.025-.395.771-2.64.771-2.64M41.4 33.775c0-.025.591-2.541.591-2.541M41.656 33.577c.025-.148.436-2.343.436-2.343" style="fill:none;stroke:#51230f;stroke-width:.100000001490116px"/><path d="M41.167 33.528a3.251 3.251 0 0 1 .514-.173M41.347 33.133a1.58 1.58 0 0 0 .386-.1M41.424 32.837a2.277 2.277 0 0 1 .386-.1M41.476 32.467l.411-.074M41.656 32.147c0 .024.282.024.282.024M41.733 31.85c.051 0 .282.05.282.05M38.676 33.586c-.026-.4-.771-2.656-.771-2.656M38.419 33.511c0-.025-.591-2.556-.591-2.556M38.162 33.313c-.026-.149-.437-2.358-.437-2.358" style="fill:none;stroke:#51230f;stroke-width:.100000001490116px"/><path d="M38.65 33.263a3.249 3.249 0 0 0-.514-.174M38.47 32.866a1.569 1.569 0 0 1-.385-.1M38.393 32.568a2.18 2.18 0 0 0-.385-.1M38.342 32.2l-.411-.075M38.162 31.873c0 .025-.283.025-.283.025M38.085 31.575c-.052 0-.283.05-.283.05" style="fill:none;stroke:#51230f;stroke-width:.100000001490116px"/><path d="M36.219 32.264s-.514-.074-.488.049.257.247.283.321-.077.345.077.321.308-.124.308-.2-.025-.419-.025-.419l-.155-.074z" style="fill:#b5b5b3;stroke:#51230f;stroke-width:.100000001490116px"/><path d="M36.785 32.955c.077 0 .668.123.668.123l.617.79" style="fill:none;stroke:#51230f;stroke-width:.100000001490116px"/><path d="M37.222 33.054c.025.024.539 1.677 3.007 1.677a3.029 3.029 0 0 0 3.058-1.875" style="fill:none;stroke:#51230f;stroke-width:.100000001490116px"/><path d="M43.673 32.906s-1.182 2.467-3.444 2.294-2.622-.987-2.8-1.406a7.734 7.734 0 0 1-.282-.765M43.03 30.907c.026-.074.1-1.554.1-1.554M44.829 31.647l-1.593-2.418M40 27.872a5.483 5.483 0 0 1 .8.346c0 .024 2.827 3.626 2.853 3.626M42.234 28.218l.719.3.232.542M37.761 28.168c-.025 0 .8.593.8.593l.1.493M34.96 31.77c.36-.147 2.853-2.245 2.853-2.245M34.292 31.376c.308-.247 2.8-2.27 2.8-2.27M38.969 29.451l2.648 4.219M41.3 31.2s.313.994.621 1.142a5.994 5.994 0 0 1 .668.395" style="fill:none;stroke:#51230f;stroke-width:.100000001490116px"/><path d="M41.269 31.217s.219 1.17.527 1.392.617.469.617.469M39.137 31.135s.308 1.628.925 2 1.131.691 1.131.691" style="fill:none;stroke:#51230f;stroke-width:.100000001490116px"/><path d="M39.111 31.11a6.2 6.2 0 0 0 1.234 1.678 11.326 11.326 0 0 0 1.336.765M36.952 31.209c.18.3.154.864.36 1.061a5.614 5.614 0 0 1 .514.641" style="fill:none;stroke:#51230f;stroke-width:.100000001490116px"/><path d="M37 31.234c.1.148.389.885.565 1.11.129.2 1.439 1.456 1.439 1.456" style="fill:none;stroke:#51230f;stroke-width:.100000001490116px"/><path d="M38.379 33.676a.185.185 0 1 1-.193.185.19.19 0 0 1 .193-.185zM39.355 34.1a.16.16 0 1 1-.167.16.163.163 0 0 1 .167-.16zM40.563 34.194a.161.161 0 1 1-.167.161.164.164 0 0 1 .167-.161zM41.643 33.836a.137.137 0 1 1-.154.136.146.146 0 0 1 .154-.136zM42.465 33.331a.162.162 0 1 1-.141.16.152.152 0 0 1 .141-.16z" style="stroke:#51230f;stroke-width:.100000001490116px"/><path d="M37.646 28.2c-.077.049-1.362.345-1.182.321s1.208.246 1.182.172a3.116 3.116 0 0 1 0-.493zM39.831 27.829c-.052 0-.8.271-.771.271a6.27 6.27 0 0 0 .822.173c-.026-.049-.026-.37-.051-.444zM42.067 28.076c-.052.024-.925.221-.771.246a5.1 5.1 0 0 0 .745.173 2.138 2.138 0 0 1 .026-.419z" style="fill:#ec2224;stroke:#51230f;stroke-width:.100000001490116px"/><path d="M39.219 30.012a.136.136 0 0 1 .142-.126.131.131 0 1 1-.142.126zM40.144 29.785a.137.137 0 1 1 .131.136.134.134 0 0 1-.131-.136zM39.682 30.255a.133.133 0 0 1 .141-.125.132.132 0 0 1 .131.136.136.136 0 0 1-.272-.011zM39.682 29.542a.136.136 0 1 1 .131.136.134.134 0 0 1-.131-.136zM39.682 29.9a.136.136 0 1 1 .131.137.133.133 0 0 1-.131-.137z" style="fill:#bc2026;stroke:#51230f;stroke-width:.100000001490116px"/><path d="M-16.592 11.166h9.3l-9.3-5.185V3h5.321l13.008 7.21V3h7.326v7.21L22.072 3h5.366v2.981l-9.345 5.185h9.345v8.169h-9.345l9.345 5.185v2.98h-5.366L9.063 20.291V27.5H1.737v-7.209L-11.271 27.5h-5.321v-2.98l9.3-5.185h-9.3z" style="fill:#fff"/><path d="m23.977 3-14.7 8.168H12.8L27.438 3zM27.438 27.5l-14.655-8.166h3.534l11.121 6.217zM-1.9 19.334-16.592 27.5h3.516l14.7-8.163z" style="fill:#ce202c"/><path d="M-16.592 12.861H3.3V3h4.3v9.857h19.838v4.783H7.6v9.86H3.3v-9.856h-19.89z" style="fill:#ce202c"/></g></svg>