<svg xmlns="http://www.w3.org/2000/svg" viewBox="0 0 55 55"><path d="M50.8 27.5a23.412 23.412 0 0 1-.737 5.816 23.128 23.128 0 0 1-2.39 5.831 23.286 23.286 0 0 1-40.346 0 23.247 23.247 0 0 1 0-23.3A23.3 23.3 0 0 1 50.8 27.5z" style="fill:#fff"/><path d="M50.8 27.5a23.412 23.412 0 0 1-.737 5.816H33.318v16.747a23.333 23.333 0 0 1-11.636 0V33.316H4.937a23.337 23.337 0 0 1 0-11.637h16.745V4.932a23.487 23.487 0 0 1 11.636 0v16.747h16.745A23.482 23.482 0 0 1 50.8 27.5z" style="fill:#e7122c"/><path style="fill:#f8dc24" d="M43.055 25.56H29.438V11.946l1.903-1.904h-7.682l1.903 1.904V25.56H11.945l-1.903-1.899v7.678l1.903-1.899h13.617v13.614l-1.903 1.904h7.682l-1.903-1.904V29.44h13.617l1.904 1.899v-7.678l-1.904 1.899z"/></svg>