<svg xmlns="http://www.w3.org/2000/svg" viewBox="0 0 55 55"><defs><clipPath id="a"><circle cx="97.5" cy="27.5" r="23.3" style="fill:none"/></clipPath></defs><path d="M27.5 4.2A23.33 23.33 0 0 0 5.534 19.733h43.932A23.336 23.336 0 0 0 27.5 4.2z" style="fill:#ce1126"/><path d="M50.8 27.5a23.141 23.141 0 0 0-1.334-7.767H5.534a23.278 23.278 0 0 0 0 15.534h43.932A23.185 23.185 0 0 0 50.8 27.5z" style="fill:#fcd116"/><path d="M5.534 35.267a23.3 23.3 0 0 0 43.932 0z" style="fill:#006b3f"/><path d="m27.5 19.733 1.925 5.931h6.239l-5.047 3.667 1.93 5.936-5.047-3.672-5.047 3.672 1.925-5.936-5.047-3.667h6.239l1.93-5.931z"/><g style="clip-path:url(#a)"><path style="fill:#d81f26" d="M54.702 35.58h85.595v15.696H54.702z"/><path style="fill:#fff" d="M54.702 3.724h85.595v31.857H54.702z"/></g></svg>