<svg xmlns="http://www.w3.org/2000/svg" viewBox="0 0 55 55"><defs><clipPath id="a"><circle cx="27.5" cy="27.5" r="23.3" style="fill:none"/></clipPath></defs><g style="clip-path:url(#a)"><path style="fill:#d81f26" d="M-15.298 35.58h85.595v15.696h-85.595z"/><path style="fill:#fff" d="M-15.298 3.724h85.595v31.857h-85.595z"/><path d="M16.794 25.503h11.529v7.932H16.794z"/><path d="M22.784 32.276h-7.038l-1.56 1.024v1.089h8.6M19.838 27.719a1.868 1.868 0 0 1 1.841 1.888v2.665H23v-10.1h-7.254v10.1H18v-2.665a1.885 1.885 0 0 1 1.838-1.888z" style="fill:#d81f26;stroke:#000;stroke-linecap:square;stroke-width:.100000001490116px"/><path d="M18.228 15.345h3.337v6.123h-3.337z"/><path d="M21.555 20.518h-2.92v-1.036h-2.141v1.036h-1.452v-1.036h-.867v1.882h7.38m-6.513-.007h6.3v.818h-6.3zM17.541 13.12v6.362h1.094v-1.747a1.181 1.181 0 0 1 1.107-1.223h.062a1.223 1.223 0 0 1 1.222 1.223v1.747h1.041V13.12zM17.147 12.258v.862h5.269v-.862zM16.472 10.607v1.651h6.322v-1.651h-.974v.84h-1.177v-.84h-1.8v.84h-1.172v-.84zM14.186 33.3h8.63M28.4 32.807h-5.843l-1.762.851v1.268H28.4" style="fill:#d81f26;stroke:#000;stroke-linecap:square;stroke-width:.100000001490116px"/><path d="M20.793 33.656h7.788" style="fill:#d81f26;stroke:#000;stroke-width:.100000001490116px"/><path d="M26.676 25.503h11.529v7.932H26.676z"/><path d="M32.216 32.276h7.038l1.56 1.027v1.089h-8.6M35.161 27.719a1.867 1.867 0 0 0-1.84 1.888v2.665H32v-10.1h7.256v10.1H37v-2.665a1.884 1.884 0 0 0-1.839-1.888z" style="fill:#d81f26;stroke:#000;stroke-linecap:square;stroke-width:.100000001490116px"/><path d="M33.435 15.345h3.337v6.123h-3.337z"/><path d="M33.444 20.518h2.92v-1.036h2.141v1.036h1.453v-1.036h.867v1.882h-7.381m6.514-.007h-6.3v.818h6.3zM37.458 13.12v6.362h-1.094v-1.747a1.181 1.181 0 0 0-1.107-1.223h-.062a1.222 1.222 0 0 0-1.221 1.223v1.747h-1.042V13.12zM37.852 12.258v.862h-5.269v-.862zM38.528 10.607v1.651h-6.322v-1.651h.974v.84h1.176v-.84h1.8v.84h1.177v-.84zM40.814 33.3h-8.63M26.6 32.807h5.843l1.762.851v1.268H26.6" style="fill:#d81f26;stroke:#000;stroke-linecap:square;stroke-width:.100000001490116px"/><path d="M34.206 33.656h-7.787" style="fill:#d81f26;stroke:#000;stroke-width:.100000001490116px"/><path d="M30.616 31.585a7.6 7.6 0 0 0-1.346.676 13.083 13.083 0 0 0-1.6 1.1 2.158 2.158 0 0 0-.484.41.749.749 0 0 0-.337.633c.01.116.157-.136.255-.148a.788.788 0 0 1 .566-.085 8.117 8.117 0 0 1 .779-.614 14.1 14.1 0 0 1 1.716-1.075 4.776 4.776 0 0 1 .635-.289l-.18-.608zM28.293 32.912v.7M28.728 32.6v.7M29.163 32.333v.7M29.6 32.065v.717" style="fill:#f6d70f;stroke:#000;stroke-linecap:round;stroke-width:.100000001490116px"/><path d="m24.418 31.607-.214.6a15.642 15.642 0 0 1 2.846 1.454 4.072 4.072 0 0 1 .864.693.181.181 0 0 1-.237.224.409.409 0 0 0-.4 0c-.2.09-.38.386-.077.485a.9.9 0 0 0 1.3-.333.724.724 0 0 0-.091-.783 5.882 5.882 0 0 0-1.337-1.023 16.125 16.125 0 0 0-2.649-1.314zM27.149 33.028l-.057.6M27.65 33.335l-.156.59M28.185 33.745l-.326.457M28.349 34.857l-.47-.253M28.5 34.361l-.54.05M27.8 35.143l-.037-.475M27.6 34.6l-.445.329M25.46 32.108v.562M26.592 32.705v.637M26.026 32.407v.6" style="fill:#f6d70f;stroke:#000;stroke-linecap:round;stroke-width:.100000001490116px"/><path d="M23.858 45.564v1.448h.906v-.727H26v.727h.974v-1.448zm0 1.994v1.454h3.113v-1.454H26v.727h-1.236v-.727z" style="fill:#f6d70f;stroke:#000;stroke-width:.100000001490116px"/><path style="fill:#f6d70f;stroke:#000;stroke-width:.100000001490116px" d="M26.969 39.449h.899v10.478h-.899z"/><path style="fill:#f6d70f;stroke:#000;stroke-width:.100000001490116px" d="M26.969 40.356h.899v9.026h-.899zM27.418 36.881 29.332 38l-1.914 1.11L25.5 38zm-2.561.716h-.5v.8h.5l2.561 1.487L29.98 38.4h.5v-.8h-.5l-2.562-1.488z"/><path d="M27.382 34.154a.9.9 0 0 0-.738.925v2.022a.9.9 0 0 0 1.708.326c-.1-.062-.206-.123-.309-.186A.545.545 0 0 1 27 37v-2.009a.514.514 0 0 1 .549-.469c.113-.032.268.122.338-.011.105-.15-.075-.266-.175-.349a3.154 3.154 0 0 0-.337-.006zm1.041.7a.823.823 0 0 1-.338.285V36.5l.361.208v-1.733c-.005-.035 0-.09-.02-.115z" style="fill:#f6d70f;stroke:#000;stroke-width:.100000001490116px"/><path d="M24.762 11.448h5.283v9.602h-5.283z"/><path d="M24.392 11.453v8.034h1.678V17.1a1.435 1.435 0 0 1 2.86 0v2.383h1.677v-8.03zm2.849.9h.518V15.1h-.518zm-1.486.541h.523v2.012h-.523zm2.966 0h.524v2.012h-.524zM23.824 10.3v1.143h7.352V10.3zM23.131 8.968V10.3h8.737V8.968h-1.1V9.7h-1.236v-.732h-1.413V9.7h-1.238v-.732h-1.413V9.7h-1.239v-.732zM21.51 22.175V23h11.979v-.828z" style="fill:#d81f26;stroke:#000;stroke-width:.100000001490116px"/><path d="M21.02 19.482v2.693h12.959v-2.693h-1.227v1.036H31.12v-1.036h-2.19v1.036h-2.86v-1.036h-2.19v1.036h-1.632v-1.036z" style="fill:#d81f26;stroke:#000;stroke-width:.100000001490116px"/><path d="M22.58 23v9.8h2.313v-3.666a2.383 2.383 0 0 1 2.607-2.542 2.409 2.409 0 0 1 2.606 2.542V32.8h2.314V23z" style="fill:#d81f26;stroke:#000;stroke-linejoin:round;stroke-width:.100000001490116px"/></g></svg>