<svg xmlns="http://www.w3.org/2000/svg" viewBox="0 0 55 55"><defs><clipPath id="a"><circle cx="-42.5" cy="27.5" r="23.3" style="fill:none"/></clipPath></defs><g style="clip-path:url(#a)"><path style="fill:#d81f26" d="M-85.298 35.58H.297v15.696h-85.595z"/><path style="fill:#fff" d="M-85.298 3.724H.297v31.857h-85.595z"/></g><path d="M49.466 19.733H5.534a23.3 23.3 0 0 1 43.932 0z" style="fill:#ce1126"/><path d="M49.466 35.267a23.3 23.3 0 0 1-43.932 0z" style="fill:#3a7728"/><path d="M50.8 27.5a23.435 23.435 0 0 1-.565 5.1 22.3 22.3 0 0 1-.769 2.662H5.534a21.578 21.578 0 0 1-.769-2.662 23.345 23.345 0 0 1 0-10.21 21.885 21.885 0 0 1 .769-2.662h43.932a22.626 22.626 0 0 1 .769 2.662 23.469 23.469 0 0 1 .565 5.11z" style="fill:#0c1c8c"/><path d="M50.235 22.4H4.765a21.885 21.885 0 0 1 .769-2.662h43.932a22.626 22.626 0 0 1 .769 2.662zM50.235 32.6a22.3 22.3 0 0 1-.769 2.662H5.534a21.578 21.578 0 0 1-.769-2.662z" style="fill:#fff"/></svg>