<svg xmlns="http://www.w3.org/2000/svg" viewBox="0 0 55 55"><defs><clipPath id="a"><circle cx="27.5" cy="27.5" r="23.32" fill="none"/></clipPath></defs><g clip-path="url(#a)"><path fill="#ed1d24" d="M-7.48 4.18h69.96v46.64H-7.48V4.18z"/><g fill="#fff" fill-rule="evenodd"><path d="M30 13.91c-.54.33-1.54.81-1.42 2s1.21 2.53.89 3.94-1.8 2.38-2.53 2.92a3 3 0 0 0-.58 4.36 4.49 4.49 0 0 1-1.15-1.23 5.2 5.2 0 0 1-.7-2.22 5.37 5.37 0 0 1 .1-1.78 4.8 4.8 0 0 1 .66-1.61l-.17-.12a5 5 0 0 0-.7 1.69 5.58 5.58 0 0 0-.11 1.85A5.4 5.4 0 0 0 25 26a4.54 4.54 0 0 0 1 1.12 6.83 6.83 0 0 1 .4-12.5 9.37 9.37 0 0 1 3.6-.73zm-4.49 4.28.63.66.82-.39-.44.8.63.66-.9-.17-.43.8-.12-.91-.9-.16.83-.39-.12-.91z"/><path d="M40.64 26.43a2.11 2.11 0 0 0-2.36-.73c-1.11.48-2 1.93-3.47 2.06s-2.81-1-3.56-1.51a3 3 0 0 0-4.32.79 4.49 4.49 0 0 1 .82-1.47 5.21 5.21 0 0 1 1.9-1.35 5.39 5.39 0 0 1 1.73-.45 4.82 4.82 0 0 1 1.74.14l.06-.19a5.06 5.06 0 0 0-1.82-.15 5.6 5.6 0 0 0-1.79.47 5.4 5.4 0 0 0-2 1.41 4.56 4.56 0 0 0-.76 1.29 6.83 6.83 0 0 1 12-3.47 9.37 9.37 0 0 1 1.8 3.2zm-5.45-3-.44.8.63.66-.9-.17-.44.8-.12-.91-.9-.17.83-.39-.12-.91.63.67.82-.39z"/><path d="M32 40.48a2.12 2.12 0 0 0 0-2.47c-.81-.9-2.48-1.32-3-2.64s0-3 .31-3.85a3 3 0 0 0-2.12-3.85 4.5 4.5 0 0 1 1.65.31 5.22 5.22 0 0 1 1.88 1.37 5.37 5.37 0 0 1 1 1.49 4.8 4.8 0 0 1 .28 1.69h.21a5 5 0 0 0-.44-1.77 5.57 5.57 0 0 0-1-1.55 5.39 5.39 0 0 0-2-1.42 4.54 4.54 0 0 0-1.47-.31 6.83 6.83 0 0 1 7.09 10.3 9.37 9.37 0 0 1-2.39 2.7zm1.08-6.11-.9-.16-.43.81-.12-.9-.9-.16.82-.4-.13-.9.63.66.82-.4-.43.8.63.66z"/><path d="M16.15 36.51a2.12 2.12 0 0 0 2.34-.79c.62-1 .51-2.76 1.6-3.7s2.85-.86 3.77-.87a3 3 0 0 0 3-3.18 4.49 4.49 0 0 1 .2 1.67 5.21 5.21 0 0 1-.74 2.21 5.38 5.38 0 0 1-1.13 1.38 4.83 4.83 0 0 1-1.49.91l.06.2a5.05 5.05 0 0 0 1.56-1 5.58 5.58 0 0 0 1.17-1.43 5.4 5.4 0 0 0 .77-2.3 4.57 4.57 0 0 0-.14-1.49A6.83 6.83 0 0 1 19.49 38a9.38 9.38 0 0 1-3.34-1.54zm6.15-.81-.12-.91-.9-.17.83-.39-.11-.9.63.67.82-.39-.44.8.63.66-.9-.17-.44.8z"/><path d="M14.77 20.33c.15.61.32 1.71 1.51 2s2.78-.41 4 .31 1.74 2.42 2 3.28a3 3 0 0 0 4 1.84 4.5 4.5 0 0 1-1.51.74 5.2 5.2 0 0 1-2.33 0 5.39 5.39 0 0 1-1.67-.62 4.82 4.82 0 0 1-1.34-1.11l-.16.12A5 5 0 0 0 20.73 28a5.59 5.59 0 0 0 1.73.65 5.41 5.41 0 0 0 2.42 0 4.54 4.54 0 0 0 1.36-.65 6.83 6.83 0 0 1-11.83-4 9.35 9.35 0 0 1 .37-3.66zm2.77 5.56.82-.4-.13-.9.64.65.82-.41-.43.81.64.65-.9-.15-.42.81-.13-.9-.9-.15z"/></g></g></svg>