<svg xmlns="http://www.w3.org/2000/svg" viewBox="0 0 55 55"><path d="M27.5 4.2A23.343 23.343 0 0 0 5.534 19.733h43.932A23.343 23.343 0 0 0 27.5 4.2z" style="fill:#0a73cd"/><path d="M50.8 27.5a23.185 23.185 0 0 0-1.334-7.767H5.534a23.278 23.278 0 0 0 0 15.534h43.932A23.141 23.141 0 0 0 50.8 27.5z" style="fill:#fff"/><path d="M5.534 35.267a23.3 23.3 0 0 0 43.932 0zM27.5 25.392l.581 1.779h1.867l-1.512 1.098.575 1.778-1.511-1.098-1.511 1.098.58-1.778-1.511-1.098h1.867l.575-1.779zM15 21.433l.575 1.778h1.873l-1.512 1.099.576 1.778L15 24.99l-1.511 1.098.575-1.778-1.512-1.099h1.873L15 21.433zM15 28.917l.575 1.773h1.873l-1.512 1.099.576 1.778L15 32.469l-1.511 1.098.575-1.778-1.512-1.099h1.873L15 28.917zM40.005 21.433l.575 1.778h1.868l-1.512 1.099.581 1.778-1.512-1.098-1.517 1.098.581-1.778-1.511-1.099h1.867l.58-1.778zM40.005 28.917l.575 1.773h1.868l-1.512 1.099.581 1.778-1.512-1.098-1.517 1.098.581-1.778-1.511-1.099h1.867l.58-1.773z" style="fill:#0a73cd"/></svg>