<svg xmlns="http://www.w3.org/2000/svg" viewBox="0 0 55 55"><defs><clipPath id="a"><circle cx="27.5" cy="27.5" r="23.32" fill="none"/></clipPath><clipPath id="b"><path d="m18.6 21.84-2.11-4.78 1.58-2.57 2.73 1 1.94-2.18 2.51 1.44 2.26-1.82 2.23 1.83 2.53-1.44 1.92 2.18 2.73-1 1.59 2.5-2.12 4.78a22.19 22.19 0 0 0-17.79 0z" fill="#2491d0" stroke="#f4f4f5" stroke-miterlimit="2.41" stroke-width=".2" clip-rule="evenodd"/></clipPath><clipPath id="c"><path d="M18.57 22.43h17.89v11.28c0 4.22-4.09 8.37-8.95 8.37s-8.94-4.15-8.94-8.37V22.43z" fill="#f4f4f5" stroke="#f4f4f5" stroke-miterlimit="2.41" stroke-width=".32" clip-rule="evenodd"/></clipPath></defs><g clip-path="url(#a)"><path fill="#ed1d24" fill-rule="evenodd" d="M-7.48 19.73h69.96V4.18H-7.48v15.55z"/><path fill="#f1f0f0" fill-rule="evenodd" d="M-7.48 35.27h69.96V19.73H-7.48v15.54z"/><path fill="#214097" fill-rule="evenodd" d="M-7.48 50.82h69.96V35.27H-7.48v15.55z"/><path d="m18.6 21.84-2.11-4.78 1.58-2.57 2.73 1 1.94-2.18 2.51 1.44 2.26-1.82 2.23 1.83 2.53-1.44 1.92 2.18 2.73-1 1.59 2.5-2.12 4.78a22.19 22.19 0 0 0-17.79 0z" fill="#2491d0" fill-rule="evenodd"/><g clip-path="url(#b)"><path d="m37.71 18.85-.79 1.77a17.17 17.17 0 0 0-3.71-1.31l.49-1.9a20.07 20.07 0 0 1 4 1.44z" fill="#f4f4f5" fill-rule="evenodd"/><path d="m37.57 19.17-.5 1.12A21 21 0 0 0 33.3 19l.32-1.24a22.07 22.07 0 0 1 4 1.44z" fill="#ed1d24" fill-rule="evenodd"/><path d="m29.74 14.76 2.53-1.44 1.92 2.18-1.32 5.14a23.08 23.08 0 0 0-3.55-.58l.41-5.29zM20.8 15.49l1.94-2.18 2.51 1.44.42 5.3a21.68 21.68 0 0 0-3.55.59l-1.29-5v-.13z" fill="#28449c" fill-rule="evenodd"/><path d="m20.83 15.61.32 1.23a24.56 24.56 0 0 1 4.22-.7l-.1-1.28a27.4 27.4 0 0 0-4.43.75zm.63 2.47.32 1.24a23.16 23.16 0 0 1 3.78-.64l-.1-1.27a19.73 19.73 0 0 0-4 .67z" fill="#ed1d24" fill-rule="evenodd"/><path d="M25.8 16.28c.09-.11 0-.22.15-.25a.35.35 0 0 1-.21-.19.62.62 0 0 1 .22 0 .39.39 0 0 1-.18-.37.32.32 0 0 0 .13 0h.13a.3.3 0 0 0-.05-.16l-.23-.31a.32.32 0 0 0 .15.06c.07 0 .13 0 .12.1s.12-.1.21.06 0-.13.08-.11 0-.05 0-.1a.46.46 0 0 0 .13-.17.66.66 0 0 0 .14.16.08.08 0 0 1 0 .11s.1-.05.1.11a.14.14 0 0 1 .2-.1.07.07 0 0 1 0-.09.46.46 0 0 0 .2-.09s-.24.38-.21.51a.52.52 0 0 1 .16 0 .17.17 0 0 0 .11 0 .54.54 0 0 1-.14.38.53.53 0 0 1 .2 0 .3.3 0 0 1-.23.2s.11 0 .13.12.07.11.07.11a.32.32 0 0 1-.25 0 .25.25 0 0 1 .08.21.32.32 0 0 1-.16 0 .25.25 0 0 1 0 .1.18.18 0 0 0 0 .09.4.4 0 0 1-.22 0 .59.59 0 0 1 0 .2.92.92 0 0 0-.12-.12.31.31 0 0 1-.12.14.3.3 0 0 0-.05-.09.18.18 0 0 1 0-.06 1.09 1.09 0 0 0-.14.14.33.33 0 0 1 0-.19.23.23 0 0 1-.22 0 .2.2 0 0 0 0-.09.23.23 0 0 1 0-.1.24.24 0 0 1-.15 0 .22.22 0 0 1 .06-.21.32.32 0 0 1-.24 0z" fill="#f7db12" stroke="#000" stroke-miterlimit="2.41" stroke-width=".02" fill-rule="evenodd"/><path d="M26.49 15.61a.34.34 0 0 1 0 .08.53.53 0 0 1 0 .09.11.11 0 0 1 0 .06h-.06a.2.2 0 0 0-.13 0 .21.21 0 0 1 .14 0 .56.56 0 0 0 0-.09.42.42 0 0 0 0-.08z"/><path d="M26.27 15.68h.1a.26.26 0 0 1 .09.07.26.26 0 0 0-.09-.07h-.1zM26.43 15.85a.21.21 0 0 1 0 .1s-.21 0-.19-.16c0 .1.14.14.17.15a.22.22 0 0 0 0-.08z"/><path d="M26.34 15.8zm0 0h-.06v.06h.06v-.06z"/><path d="M26.34 15.84z" fill-rule="evenodd"/><path d="M26.57 15.61a.34.34 0 0 0 0 .08.45.45 0 0 0 0 .09.11.11 0 0 0 0 .06h.06a.21.21 0 0 1 .13 0 .21.21 0 0 0-.14 0 .41.41 0 0 1 0-.09.32.32 0 0 1 0-.08z"/><path d="M26.8 15.68h-.1a.28.28 0 0 0-.09.07.27.27 0 0 1 .09-.07h.1zM26.63 15.85a.2.2 0 0 0 0 .1s.21 0 .19-.16c0 .1-.14.14-.17.15a.18.18 0 0 1 0-.08z"/><path d="M26.73 15.8zm0 0h.06v.06h-.09v-.06z"/><path d="M26.73 15.84z" fill-rule="evenodd"/><path d="M26.42 16a.23.23 0 0 1 .08-.1.21.21 0 0 0-.07.1zM26.41 16.18a.12.12 0 0 0 0 .07h.11a.12.12 0 0 0 .07 0 .13.13 0 0 1-.07 0h-.11a.08.08 0 0 1-.06 0 .13.13 0 0 1 0-.07zM26.54 16.29v.08-.08zM26.39 16.45h.08a.09.09 0 0 0 .06 0 .1.1 0 0 1-.07 0h-.08zM26.33 16.27h.14-.15zM26.35 16.35a.31.31 0 0 0 .12 0 .32.32 0 0 1-.13 0zM26.75 16.27h-.13.15zM26.74 16.35a.31.31 0 0 1-.12 0 .31.31 0 0 0 .13 0zM26 15.5h.52H26zM26 15.46h.52H26zM26 15.36a4.12 4.12 0 0 1 .55 0 3.45 3.45 0 0 1 .5 0 3.35 3.35 0 0 0-.5 0 4.19 4.19 0 0 0-.55 0zM26 15.34a3.07 3.07 0 0 1 .53-.06 3.74 3.74 0 0 1 .56 0 3.64 3.64 0 0 0-.55 0 3.15 3.15 0 0 0-.52.05zM26.5 15.35zm0 0zM26.27 15.36zm0 0zM26.75 15.35zm0 0zM27 15.35zm0 0zM26.06 15.38zm0 0zM26.51 15l.06.06a.08.08 0 0 0 0 .06.16.16 0 0 0-.06-.06.12.12 0 0 0-.01-.06zm0 .07-.05-.05a.12.12 0 0 1 0 .06h.05a.09.09 0 0 1 0-.05zM25.88 15.2zM27.11 15.17H27zM26.11 15.61h-.05.05zM26.2 15.57h-.05.05zM26.26 15.54zM26.33 15.53zM26.43 15.52l-.02-.04h.01l.02.03-.01.01zM26.59 15.51l.02-.04h.01l-.02.05-.01-.01zM26.69 15.52l.03-.05h.01l-.03.05h-.01zM26.77 15.52l.03-.05h.01l-.03.05h-.01zM26.83 15.54l.07-.07.01.01-.07.07-.01-.01zM26.92 15.57l.09-.1.01.01-.09.09h-.01zM27.14 15.5a.24.24 0 0 1 0 .1v.06a.19.19 0 0 0 .07-.09.22.22 0 0 1 .11-.12.22.22 0 0 0-.1.12.19.19 0 0 1-.1.11.29.29 0 0 0 .07-.18zM25.89 15.54a.23.23 0 0 0 0 .1v.06a.15.15 0 0 1-.07-.08.18.18 0 0 0-.11-.11.17.17 0 0 1 .1.1.15.15 0 0 0 .1.1.2.2 0 0 1 0-.08.21.21 0 0 1 0-.09zM26 15.93a.22.22 0 0 0 0-.07h-.06.07a.25.25 0 0 1 .05.07zM26 16l-.17-.08h-.07.07l.18.08zM27 15.87v-.06h.06-.05v.06zM27.09 15.9a.31.31 0 0 1 .13-.07l.1-.05-.1.05a.3.3 0 0 0-.13.07zM27.07 16h.09a.25.25 0 0 1 .08.07l-.08-.06h-.09zM27.11 16.19h.07-.07zM26.95 16.19h.09-.09zM27 16.25l.1.07.06.07-.05-.06-.1-.07zM26.94 16.32h.1a.27.27 0 0 1 .1.1.24.24 0 0 0-.09-.09h-.09zM26.94 16.39zM26.84 16.42a.18.18 0 0 1 .09.09v.05h.06-.06v-.06a.18.18 0 0 0-.09-.08zM26.87 16.54l.09.08s-.08 0-.09-.08zM26.74 16.49a.27.27 0 0 1 .07.08.23.23 0 0 0-.06-.08zM26.71 16.58a.3.3 0 0 1 0 .06.21.21 0 0 1 0 .05v-.05a.22.22 0 0 0 0-.06zM26.75 16.57a.19.19 0 0 0 0 .08.2.2 0 0 1 0-.09zM26.66 16.64a.21.21 0 0 1 0 .05zM26.54 16.6a.39.39 0 0 1 0 .12.28.28 0 0 1 0 .11.27.27 0 0 0 0-.1.36.36 0 0 0 0-.11zM26.49 16.49zM26.49 16.57a.73.73 0 0 0 0 .11.65.65 0 0 1 0-.11zM26.43 16.59a1 1 0 0 1 0 .13 1.09 1.09 0 0 0 0-.13zM26.39 16.59a.38.38 0 0 1 0 .16.41.41 0 0 0 0-.15zM26.39 16.52v.06-.06zM26.26 16.58v.06-.05zM26.27 16.45h-.05v.07h-.05v-.07a.11.11 0 0 1 0-.05h.06zM26.22 16.39h-.05.05zM26.15 16.36l-.09.05-.06.09.08-.09.09-.06zM26.11 16.3l-.08.07-.06.08.06-.08.08-.07zM26.14 16.23l-.1.06.11-.06zM26 16.25h-.13.13zM26 16.1h-.08a.22.22 0 0 0-.08.07.23.23 0 0 1 .08-.07h.09zM26.09 16H26h.12z"/><g><path d="M27.72 16.2c.1-.1.06-.21.17-.24a.35.35 0 0 1-.19-.2.62.62 0 0 1 .21 0 .39.39 0 0 1-.14-.39.31.31 0 0 0 .13 0h.13a.3.3 0 0 0 0-.17l-.18-.35A.32.32 0 0 0 28 15c.07 0 .12.05.11.11s.13-.09.2.08 0-.13.09-.11 0-.06 0-.1a.45.45 0 0 0 .14-.16.68.68 0 0 0 .13.18.09.09 0 0 1 0 .11s.11 0 .09.12a.14.14 0 0 1 .21-.08.07.07 0 0 1 .06-.08.47.47 0 0 0 .21-.07s-.28.35-.26.49a.51.51 0 0 1 .16 0 .17.17 0 0 0 .11 0 .54.54 0 0 1-.18.37.51.51 0 0 1 .2 0 .3.3 0 0 1-.25.18s.11 0 .11.14.06.12.06.12a.32.32 0 0 1-.25 0 .25.25 0 0 1 .06.22.32.32 0 0 1-.15 0 .25.25 0 0 1 0 .1.19.19 0 0 0 0 .09.39.39 0 0 1-.22 0 .57.57 0 0 1 0 .19.93.93 0 0 0-.11-.13.31.31 0 0 1-.13.13.28.28 0 0 0 0-.1.23.23 0 0 1 0-.07 1.18 1.18 0 0 0-.15.12.33.33 0 0 1 0-.2.23.23 0 0 1-.22 0 .21.21 0 0 0 0-.09.23.23 0 0 1 0-.09.24.24 0 0 1-.16 0 .22.22 0 0 1 .08-.2.32.32 0 0 1-.24 0z" fill="#f7db12" stroke="#000" stroke-miterlimit="2.41" stroke-width=".02" fill-rule="evenodd"/><path d="M28.47 15.6a.4.4 0 0 1 0 .08.39.39 0 0 1 0 .09.09.09 0 0 1 0 .05h-.05a.21.21 0 0 0-.13-.06.22.22 0 0 1 .13.06.44.44 0 0 0 0-.09.31.31 0 0 0 0-.08z"/><path d="M28.24 15.65h.1a.28.28 0 0 1 .09.08.27.27 0 0 0-.08-.08h-.1zM28.39 15.83a.21.21 0 0 1 0 .1s-.21-.06-.17-.18c0 .1.13.15.16.16a.21.21 0 0 0 0-.08zM28.3 15.78zm0 0z"/><path d="M28.3 15.82z" fill-rule="evenodd"/><path d="M28.56 15.61v.08a.46.46 0 0 0 0 .09.1.1 0 0 0 0 .06h.06a.21.21 0 0 1 .14 0 .22.22 0 0 0-.14 0h-.05a.39.39 0 0 1 0-.09v-.08z"/><path d="M28.77 15.7h-.1a.27.27 0 0 0-.1.06.26.26 0 0 1 .1-.06h.1zM28.59 15.85a.21.21 0 0 0 0 .1s.22 0 .2-.14c0 .1-.15.13-.19.13a.19.19 0 0 1 0-.08zM28.69 15.82zm0 0h-.06z"/><path d="M28.69 15.86z" fill-rule="evenodd"/><path d="M28.36 16a.23.23 0 0 1 .09-.09.22.22 0 0 0-.08.09zM28.34 16.16a.12.12 0 0 0 0 .07h.18a.13.13 0 0 1-.08 0h-.11a.08.08 0 0 1-.05 0 .14.14 0 0 1 0-.08zM28.45 16.28v.08h-.05v-.08zM28.3 16.42h.08a.08.08 0 0 0 .06 0 .1.1 0 0 1-.07 0h-.09zM28.25 16.25h.08-.13zM28.26 16.32a.31.31 0 0 0 .12.06.32.32 0 0 1-.12-.06zM28.67 16.29h-.15.15zM28.65 16.36a.31.31 0 0 1-.13 0 .33.33 0 0 0 .13 0zM28 15.45h.52l.47.05-.47-.05H28zM28 15.41h.52l.47.05-.47-.05H28zM28 15.31a4.26 4.26 0 0 1 .56 0 3.38 3.38 0 0 1 .5.06 3.4 3.4 0 0 0-.5-.06 4.23 4.23 0 0 0-.55 0z"/><path d="M28 15.29a3.05 3.05 0 0 1 .53 0 3.67 3.67 0 0 1 .55.06 3.66 3.66 0 0 0-.55-.06 3.08 3.08 0 0 0-.53 0zM28.51 15.34zm0 0zM28.28 15.33zm0 0zM28.75 15.36zm0 0zM29 15.39zm0 0zM28.07 15.33zm0 0zM28.55 15l.05.06a.08.08 0 0 0-.05.05.16.16 0 0 0-.06-.06.12.12 0 0 0 .06-.07zm0 .08v-.06a.13.13 0 0 1-.05.06v.05a.08.08 0 0 1 .05 0zM27.91 15.14v-.06zM29.13 15.23zM28.09 15.56zM28.19 15.54zM28.25 15.51v-.05.05zM28.32 15.51zM28.43 15.51l-.02-.04.01-.01.02.04-.01.01zM28.58 15.51l.03-.04.01.01-.03.04-.01-.01zM28.68 15.53l.04-.05.01.01-.04.05-.01-.01zM28.76 15.54l.03-.05.01.01-.03.04h-.01zM28.82 15.57l.07-.07.01.01-.08.06zM28.91 15.6l.09-.08.01.01-.09.08-.01-.01zM29.13 15.55a.27.27 0 0 1 0 .1v.06a.19.19 0 0 0 .08-.09.23.23 0 0 1 .12-.11.21.21 0 0 0-.12.11.19.19 0 0 1-.11.1.26.26 0 0 0 .06-.08.25.25 0 0 0 0-.09zM27.89 15.47a.25.25 0 0 0 0 .1v.06a.16.16 0 0 1-.06-.09.18.18 0 0 0-.1-.12.17.17 0 0 1 .09.11.15.15 0 0 0 .09.11.21.21 0 0 1 0-.08.24.24 0 0 1 0-.09zM28 15.88a.21.21 0 0 0 0-.07h-.05.06a.22.22 0 0 1 0 .08zM27.92 15.89l-.16-.09h-.07.06l.17.09zM29 15.92l.05-.06h.06-.06v.06zM29 16a.32.32 0 0 1 .14-.06h.1-.1a.31.31 0 0 0-.13.06zM29 16.09h.09a.23.23 0 0 1 .07.07l-.07-.07h-.08zM29 16.24h.07H29zM28.87 16.22h.09-.09zM28.9 16.29l.09.08a.23.23 0 0 1 0 .07v-.07l-.09-.08z"/><path d="M28.86 16.35h.09a.26.26 0 0 1 .09.11.25.25 0 0 0-.09-.1h-.09zM28.85 16.43zM28.74 16.44a.18.18 0 0 1 .08.1v.06h.05-.06v-.06a.17.17 0 0 0-.08-.09zM28.76 16.57l.08.09s-.07-.06-.08-.09zM28.64 16.5a.28.28 0 0 1 .06.09.26.26 0 0 0-.06-.08zM28.59 16.59a.31.31 0 0 1 0 .06v.05a.28.28 0 0 0 0-.06zM28.64 16.59a.22.22 0 0 0 0 .08.21.21 0 0 1 0-.09zM28.54 16.65zM28.43 16.59a.42.42 0 0 1 0 .12.28.28 0 0 1 0 .11.25.25 0 0 0 0-.1.38.38 0 0 0 0-.11zM28.38 16.48zM28.38 16.55a.64.64 0 0 0 0 .11.82.82 0 0 1 0-.11zM28.32 16.57a1 1 0 0 1 0 .13 1 1 0 0 0 0-.13zM28.28 16.57a.39.39 0 0 1 0 .15.38.38 0 0 0 0-.15zM28.29 16.5v.06-.06zM28.15 16.54l-.05.05zM28.18 16.42h-.06v.07h-.05v-.07h.06zM28.13 16.35h-.06.06zM28.06 16.32h-.09l-.09.08.09-.08h.1zM28 16.25l-.09.06-.06.07.07-.08.09-.06zM28.06 16.19h-.11.11zM27.91 16.19h-.14.13zM27.95 16h-.09a.21.21 0 0 0-.09.06.22.22 0 0 1 .09-.07h.09zM28 16h-.12.12z"/></g><g><path d="M26.77 18.53c.09-.1 0-.21.15-.25a.36.36 0 0 1-.21-.19.6.6 0 0 1 .22 0 .39.39 0 0 1-.17-.38.31.31 0 0 0 .13 0h.13a.3.3 0 0 0 0-.17l-.2-.34a.31.31 0 0 0 .15.07c.07 0 .12 0 .12.1s.12-.1.2.07 0-.13.09-.11 0-.05 0-.1a.45.45 0 0 0 .13-.17.67.67 0 0 0 .14.17.08.08 0 0 1 0 .11s.1-.05.1.11a.14.14 0 0 1 .2-.09.07.07 0 0 1 .05-.08.46.46 0 0 0 .21-.08s-.25.37-.23.5a.52.52 0 0 1 .16 0 .17.17 0 0 0 .11 0 .53.53 0 0 1-.15.37.53.53 0 0 1 .2 0 .3.3 0 0 1-.23.19s.12 0 .12.13.07.11.07.11a.32.32 0 0 1-.25 0 .25.25 0 0 1 .07.21.32.32 0 0 1-.16 0 .24.24 0 0 1 0 .1.18.18 0 0 0 0 .09.38.38 0 0 1-.22 0 .61.61 0 0 1 0 .2.94.94 0 0 0-.11-.12.31.31 0 0 1-.13.14.28.28 0 0 0 0-.09.21.21 0 0 1 0-.06 1.19 1.19 0 0 0-.14.13.33.33 0 0 1 0-.2.23.23 0 0 1-.22 0 .22.22 0 0 0 0-.09.24.24 0 0 1 0-.09.23.23 0 0 1-.15 0 .22.22 0 0 1 .06-.21.32.32 0 0 1-.24 0z" fill="#f7db12" stroke="#000" stroke-miterlimit="2.41" stroke-width=".02" fill-rule="evenodd"/><path d="M27.49 17.88a.31.31 0 0 1 0 .08.41.41 0 0 1 0 .09.1.1 0 0 1 0 .05h-.05a.2.2 0 0 0-.13 0 .22.22 0 0 1 .14.05.6.6 0 0 0 0-.09v-.08z"/><path d="M27.26 17.95h.1a.29.29 0 0 1 .09.07.29.29 0 0 0-.09-.07h-.1zM27.42 18.12a.21.21 0 0 1 0 .1s-.21 0-.18-.17c0 .1.14.15.17.15a.18.18 0 0 0 0-.08zM27.33 18.07zm0 0h-.03.06z"/><path d="M27.33 18.11z" fill-rule="evenodd"/><path d="M27.57 17.89a.4.4 0 0 0 0 .08.41.41 0 0 0 0 .09.11.11 0 0 0 0 .06h.06a.21.21 0 0 1 .13 0 .21.21 0 0 0-.14 0 .46.46 0 0 1 0-.09.37.37 0 0 1 0-.08z"/><path d="M27.79 18h-.1a.27.27 0 0 0-.1.07.26.26 0 0 1 .11-.07h.1zM27.62 18.13a.2.2 0 0 0 0 .1s.21 0 .19-.16c0 .1-.14.14-.18.14a.2.2 0 0 1 0-.08zM27.72 18.08zm0 0h.06-.06z"/><path d="M27.72 18.12z" fill-rule="evenodd"/><path d="M27.4 18.29a.24.24 0 0 1 .08-.1.22.22 0 0 0-.08.09zM27.39 18.45a.12.12 0 0 0 0 .07h.11a.11.11 0 0 0 .07 0 .13.13 0 0 1-.07 0h-.11a.08.08 0 0 1-.06 0 .13.13 0 0 1 0-.07zM27.51 18.57v.08-.08zM27.37 18.72h.08a.09.09 0 0 0 .06 0 .09.09 0 0 1-.07 0h-.08zM27.31 18.54h.13-.15zM27.32 18.62a.32.32 0 0 0 .12 0 .33.33 0 0 1-.13-.05zM27.73 18.55h-.15.15zM27.71 18.63a.32.32 0 0 1-.12 0 .33.33 0 0 0 .13 0zM27 17.76h.99H27zM27 17.72h.99H27zM27 17.62a4.2 4.2 0 0 1 .55 0 3.52 3.52 0 0 1 .5 0 3.43 3.43 0 0 0-.5 0 4.2 4.2 0 0 0-.55 0zM27 17.6a3.16 3.16 0 0 1 .53 0 3.74 3.74 0 0 1 .55 0 3.72 3.72 0 0 0-.55 0 3.1 3.1 0 0 0-.52 0zM27.51 17.62zm0 0zM27.28 17.63zm0 0zM27.75 17.63zm0 0zM28 17.64zm0 0zM27.07 17.64zm0 0zM27.53 17.3l.06.06a.08.08 0 0 0 0 .06.16.16 0 0 0-.06-.06.12.12 0 0 0 .06-.07zm0 .07-.05-.06a.13.13 0 0 1 0 .06h.05a.09.09 0 0 1 0-.05zM26.89 17.46zM28.12 17.47h-.06zM27.11 17.87h-.05.05zM27.21 17.84h-.05zM27.26 17.8zM27.34 17.8zM27.44 17.79l-.02-.04h.01l.02.04h-.01zM27.59 17.79l.03-.04h.01l-.03.05-.01-.01zM27.69 17.8l.04-.05-.03.06-.01-.01zM27.77 17.8l.03-.05.01.01-.03.04h-.01zM27.83 17.83l.07-.07.01.01-.07.07-.01-.01zM27.93 17.86l.08-.09h.01l-.09.09zM28.15 17.79a.27.27 0 0 1 0 .1v.06a.19.19 0 0 0 .07-.09.23.23 0 0 1 .11-.12.22.22 0 0 0-.11.11.19.19 0 0 1-.11.11.26.26 0 0 0 .05-.08.27.27 0 0 0 0-.09zM26.9 17.79a.23.23 0 0 0 0 .1v.06a.15.15 0 0 1-.07-.08.19.19 0 0 0-.11-.11.17.17 0 0 1 .1.1.16.16 0 0 0 .1.1.21.21 0 0 1 0-.08.25.25 0 0 1 0-.09zM27 18.19a.2.2 0 0 0 0-.07h-.06a.11.11 0 0 1 .06 0 .23.23 0 0 1 .05.07zM27 18.21l-.17-.08h-.07.07l.17.08zM28 18.17v-.06h.06H28v.06zM28.08 18.2a.31.31 0 0 1 .14-.07h.1-.1a.3.3 0 0 0-.13.07zM28.05 18.34h.09a.25.25 0 0 1 .08.07l-.07-.06h-.09zM28.09 18.49h.07-.07zM27.93 18.48h.09-.09zM28 18.54l.09.07.05.07v-.06l-.14-.07zM27.92 18.61h.1a.26.26 0 0 1 .1.1.26.26 0 0 0-.09-.1h-.09zM27.92 18.68zM27.81 18.71a.18.18 0 0 1 .09.09v.05h.06-.06v-.06a.18.18 0 0 0-.08-.09zM27.84 18.83l.08.08s-.08-.05-.09-.09zM27.71 18.77a.24.24 0 0 1 .06.08.25.25 0 0 0-.06-.08zM27.67 18.86a.24.24 0 0 1 0 .06.18.18 0 0 1 0 .05v-.05a.28.28 0 0 0 0-.06zM27.72 18.86a.2.2 0 0 0 0 .08.22.22 0 0 1 0-.09zM27.63 18.92zM27.51 18.87a.41.41 0 0 1 0 .12.29.29 0 0 1 0 .11.26.26 0 0 0 0-.1.35.35 0 0 0 0-.11zM27.46 18.77zM27.46 18.84a.63.63 0 0 0 0 .11.67.67 0 0 1 0-.11zM27.4 18.86a1 1 0 0 1 0 .13 1.08 1.08 0 0 0 0-.13zM27.36 18.86a.4.4 0 0 1 0 .15.41.41 0 0 0 0-.15zM27.36 18.79v.06-.06zM27.23 18.84v.05-.05zM27.25 18.72h-.06v.07h-.05V18.67h.06zM27.19 18.65h-.05.06zM27.12 18.62l-.09.05-.08.08.08-.08.09-.05zM27.09 18.56l-.08.07-.06.08.06-.08.09-.07zM27.12 18.49l-.11.06.11-.06zM27 18.5h-.14.13zM27 18.36h-.08a.21.21 0 0 0-.08.07.24.24 0 0 1 .09-.07h.09zM27.07 18.31h-.12.12z"/></g><g><path d="M30.44 16.13s-.13-.06-.15-.11-.08 0-.05-.06a.28.28 0 0 1 .33.09 1.07 1.07 0 0 1 .63-.28 1 1 0 0 1 .68.17 1.06 1.06 0 0 0 .65.14.47.47 0 0 1-.34.1 2.83 2.83 0 0 1-.53-.18s.13.09.25.21a1.06 1.06 0 0 0 .9.34.57.57 0 0 1-.51.07 3 3 0 0 1-.68-.41.77.77 0 0 0-.58-.06.42.42 0 0 1 .17.06.28.28 0 0 0 .18 0s-.09.12-.17.13-.06 0-.11 0a.17.17 0 0 1-.11-.05.14.14 0 0 1 0 .09.12.12 0 0 0 0 .14v.12a.79.79 0 0 1 .14.11.32.32 0 0 1 0 .09.18.18 0 0 1 .08.09.12.12 0 0 1 .06 0s.33 0 .45.13a.16.16 0 0 0 .13 0 .39.39 0 0 1 .26-.06c.16 0 .19.1.24.12a.16.16 0 0 0 .15 0 .24.24 0 0 1 .23 0 .14.14 0 0 1 .13 0s.09-.09.16 0 0 .15-.15.15 0 .08-.06.09.06.12-.05.11 0 0-.07 0 0 .06-.1.05a.07.07 0 0 0 0 .08s0 .11-.08.08a.3.3 0 0 1 0 .15s.1.07 0 .11.11.1 0 .15c0 0 0 .11-.07.13a.07.07 0 0 1 0 .12.73.73 0 0 0-.19.15c-.05.06-.16.18-.18.22s-.09.12-.15.14.11.08 0 .14a.32.32 0 0 1-.23 0c-.06 0-.07-.06 0-.1s-.11 0-.11 0 .07 0 .13-.06 0-.08.1-.14.11-.06.18-.15a.67.67 0 0 0 .1-.15.16.16 0 0 0-.08-.14c-.06 0 0 0-.08-.06s-.15.18-.2.2a.25.25 0 0 0-.16.1c0 .07-.07.06-.09.12s0 .12-.06.13h-.08s.08.1 0 .11a.35.35 0 0 1-.21 0v-.05h-.09c.02 0 .06 0 .12-.06s.1-.09.16-.12a.21.21 0 0 0 .09-.11s.06-.06.08-.1 0 0 0-.09v-.19s-.16.12-.16 0-.07.08-.1 0a.17.17 0 0 1-.12 0 .13.13 0 0 0-.14.09 2.16 2.16 0 0 1-.11.29c0 .08 0 .14-.06.18s0 .08 0 .12 0 .06-.06.09a.15.15 0 0 1-.13 0 .06.06 0 0 1 0-.09s0 .05-.09 0 0 0 0-.07a.75.75 0 0 0 .12-.13l.06-.07a.53.53 0 0 0 .06-.14.26.26 0 0 0 0-.1v-.12a.3.3 0 0 0 0-.17v-.08s-.06 0-.09.06a.5.5 0 0 1-.06.13c0 .06-.07 0-.07.1v.13c0 .02-.07 0-.06.09s0 .08 0 .11-.15 0-.19 0-.09 0 0-.09-.07 0-.07 0l.11-.07a.23.23 0 0 0 .12-.11v-.11c0-.03 0 0 0 0a.69.69 0 0 1 0-.15V17.45c0-.03 0 0 0 0h-.07s.08-.1.1-.13 0-.08 0-.12.07 0 .08-.08 0 0 0-.08v-.08c0-.08-.07 0-.08 0s0 0 0-.06v-.07c0-.07 0 0 .07-.08s0-.08 0-.06 0 0-.07 0a.06.06 0 0 1-.07 0 .23.23 0 0 1-.06-.08s-.08 0-.08-.06.06-.06.07-.1 0-.1.08-.12.06 0 .07-.07v-.05z" fill="#f7db12" stroke="#000" stroke-miterlimit="2.41" stroke-width=".01" fill-rule="evenodd"/><path d="M31.83 18.9H32s.1.08 0 .13h-.36H31.76zM31 16.11h-.06c-.08-.06-.13 0-.3-.06h-.06a1.06 1.06 0 0 1 .62-.28.9.9 0 0 1 .59.13h.09a1.28 1.28 0 0 0 .31.12 1.35 1.35 0 0 0 .33 0 .45.45 0 0 1-.33.09 2.24 2.24 0 0 1-.46-.16h-.07s.13.09.25.21a1 1 0 0 0 .86.32.55.55 0 0 1-.48.06 2.31 2.31 0 0 1-.57-.33l-.11-.08a.66.66 0 0 0-.28-.09.71.71 0 0 0-.3 0zm.15 2.63h.18s.07.09 0 .1h-.29.06zm-.59 0h.19H30.6v-.05h-.08c-.08 0 0 0 0 0a.31.31 0 0 0 .07-.08zm-.28-.29a.25.25 0 0 0 .15.07.06.06 0 0 1 0 .08.25.25 0 0 1-.17 0h-.06.07z" fill="#ed1d24" fill-rule="evenodd"/><path d="M30.55 16.23h.16a.24.24 0 0 0 .13 0 .25.25 0 0 1-.13 0h-.14zM30.57 16.24h.12H30.52z"/><path d="M30.64 16.2v.05-.05z" fill-rule="evenodd"/><path d="M30.54 16.15zM30.62 16.15zM30.46 16.23zM30.47 16.32zM30.43 16.3zM30.63 16.44zM30.69 16.3zM30.82 16.36zM30.52 16.5zM30.45 16.43zM30.45 16.52zM30.26 16.41h.07zM31.17 16.25h.05a.5.5 0 0 0 .13 0 .49.49 0 0 1-.13 0h-.05zM31.18 16.21zM31 16.22zM31 16.25zM31 16.14zM30.44 16.13h.08-.07zM30.41 15.94zM30.31 16zM30.32 16zM30.95 16.35zM30.55 16.57h.05zM30.8 16.43h.21-.21zM30.89 16.48zM31 16.58v-.05.05zM31 16.62v-.06.06zM30.73 16.52zM30.8 16.58h-.1a.55.55 0 0 1-.09.2l-.09.09.08-.08v-.06l.06-.15h.11zM30.88 16.55a.23.23 0 0 1 0 .08.21.21 0 0 1 0 .07.46.46 0 0 0-.05.11.5.5 0 0 1 .06-.12v-.07a.19.19 0 0 0 0-.07zM30.72 16.74l-.09.1-.12.1.12-.1.09-.1zM30.68 16.89a.58.58 0 0 1 0-.06v.06zM30.61 16.95a.34.34 0 0 1-.1.06.34.34 0 0 0 .1-.06zM30.63 17h-.06.06zM30.57 17.1a.18.18 0 0 1-.13.06.18.18 0 0 0 .12-.06zM30.63 17.13a.21.21 0 0 1 .06-.14.18.18 0 0 0 0-.11.2.2 0 0 1 0 .12.21.21 0 0 0-.06.13zM30.64 17.18a.16.16 0 0 1 0 .1.15.15 0 0 0 0-.09zM30.57 17.32s0 .06-.07.08.06 0 .06-.07zM30.5 17.26a.28.28 0 0 1-.06.09.27.27 0 0 0 .06-.08zM30.53 17.5h.05a.11.11 0 0 0 0-.06.24.24 0 0 1 0-.07.21.21 0 0 0 0 .07.12.12 0 0 1 0 .06h-.05zM30.6 17.53a.37.37 0 0 1-.08.12.36.36 0 0 0 .07-.12zM30.64 17.68zM30.57 17.72a.17.17 0 0 0 0 .07.21.21 0 0 1 0-.07zM30.61 17.76zM30.67 17.93a.13.13 0 0 0 0 .05.12.12 0 0 1 0-.06zM30.71 17.89a.11.11 0 0 1 0-.06.17.17 0 0 1 0-.05.11.11 0 0 0 0 .06zM30.72 17.71v-.07a.25.25 0 0 1 0-.08.27.27 0 0 1 .07-.14.15.15 0 0 0 0-.11.16.16 0 0 1 0 .12.26.26 0 0 0-.07.13.19.19 0 0 0 0 .08v.07zM30.7 17.34a.19.19 0 0 0 0-.13v-.06a.25.25 0 0 1 0-.09.16.16 0 0 1 0-.07.15.15 0 0 0 0 .07.26.26 0 0 0 0 .09v.06a.19.19 0 0 1 0 .13zM30.83 17.22a.3.3 0 0 1 0-.08.23.23 0 0 1 0-.08.17.17 0 0 1 0-.06v-.05.05a.2.2 0 0 0 0 .08.27.27 0 0 0 0 .08zM30.88 17.05a.16.16 0 0 0 0-.09.08.08 0 0 1 0-.07.17.17 0 0 1 .05-.07.15.15 0 0 0 0 .07.08.08 0 0 0 0 .06.16.16 0 0 1 0 .1z"/><path d="M30.92 16.88a.12.12 0 0 0 0 .05.13.13 0 0 1 0-.06zM30.81 16.89a.13.13 0 0 1 0-.07.13.13 0 0 0 0 .06zM30.92 16.74a.12.12 0 0 0 0-.09.12.12 0 0 1 0 .1zM31 16.83v-.09a.17.17 0 0 0 0-.07.16.16 0 0 1 0 .07.4.4 0 0 1 0 .09zM31.13 16.81zM31.21 17v-.06.07zM31.18 16.9a.24.24 0 0 0 0 .09.09.09 0 0 0 0 .06.1.1 0 0 1 0-.06.23.23 0 0 1 0-.09zM31.11 17v.06a.25.25 0 0 1 0 .05v.05V16.95zM31.07 17a.28.28 0 0 0 0 .08.28.28 0 0 1 0-.08zM31.09 16.84a.08.08 0 0 0 0 .06.14.14 0 0 1-.09.1.13.13 0 0 0 0 .05.15.15 0 0 0 0 .06.37.37 0 0 1 0 .1.26.26 0 0 1 0 .13.25.25 0 0 0 0-.12.44.44 0 0 0 0-.1.15.15 0 0 1 0-.06.12.12 0 0 1 0-.06.15.15 0 0 0 0-.08.09.09 0 0 1 0-.07zM30.92 17.16a.19.19 0 0 0 0 .06.23.23 0 0 0 0 .05.22.22 0 0 1 0-.06.31.31 0 0 1 0-.06zM30.83 17.49v-.06.06zM30.81 17.56zM30.84 17.64v.06a.31.31 0 0 0 0 .12.44.44 0 0 0 0 .1.21.21 0 0 0 0 .07.25.25 0 0 1 0-.07.64.64 0 0 1 0-.1.31.31 0 0 1 0-.13v-.05zM30.92 17.47a.3.3 0 0 1 0 .13.28.28 0 0 0 0 .09.36.36 0 0 0 0 .11.33.33 0 0 1 0-.11.23.23 0 0 1 0-.09.33.33 0 0 0 0-.12zM31 17.6a.11.11 0 0 0 0 .11v.05-.05a.12.12 0 0 1 0-.11z"/><path d="M31 17.47a.41.41 0 0 0 0 .08.16.16 0 0 0 0 .06.18.18 0 0 1 0-.07.36.36 0 0 1 0-.08zM31.07 17.29a.14.14 0 0 1 0 .07.18.18 0 0 1 0 .09.18.18 0 0 0 0-.08.13.13 0 0 0 0-.07zM31.16 17.21a.25.25 0 0 1 .05.11.26.26 0 0 0 0-.12.3.3 0 0 1 0 .12.25.25 0 0 0-.05-.11zm.06.12zM31.18 17.43a.12.12 0 0 1 0 .07.2.2 0 0 0 0 .11.2.2 0 0 0 0 .1v.05l.06-.09a.56.56 0 0 0 .06-.1.52.52 0 0 1-.07.1l-.07.1v-.06a.17.17 0 0 1 0-.21v-.07zM31.21 17.87a.21.21 0 0 0 .06-.07.16.16 0 0 0 0-.08.17.17 0 0 1 0 .09.24.24 0 0 1-.06.08zM31.19 18a.13.13 0 0 1 0 .05v.06-.06a.1.1 0 0 0 0-.05zM31.07 18a.24.24 0 0 0 0 .06.26.26 0 0 1 0 .1.25.25 0 0 0 0-.1.21.21 0 0 1 0-.06zM30.88 18.29a.16.16 0 0 1 0-.09.15.15 0 0 0 0 .08zM30.88 18.36a.12.12 0 0 1 0 .07.12.12 0 0 0 0-.06zM30.83 18.54a.16.16 0 0 1-.05.07.15.15 0 0 0 0-.06zM30.86 17.87a.23.23 0 0 0 0 .09.37.37 0 0 1 0 .13A.13.13 0 0 0 31 18a.13.13 0 0 1-.06.12.35.35 0 0 0 0-.13.23.23 0 0 1 0-.09zM31 17.87v.06a.08.08 0 0 1 0-.07zM31.29 17.93a.37.37 0 0 0 0 .11.17.17 0 0 0 0 .08.17.17 0 0 1 0-.09.33.33 0 0 1 0-.11zM31.54 18l-.11.07-.07.08a.3.3 0 0 1 .07-.08l.11-.08zM31.38 17.9a.06.06 0 0 0 0 .06.07.07 0 0 1 0-.07zM31.31 17.37a.22.22 0 0 1 .06.23.21.21 0 0 0-.06-.22zM31.3 17.08a.15.15 0 0 1 0 .06.39.39 0 0 1 0 .09.22.22 0 0 0 0 .12.22.22 0 0 1 0-.12.32.32 0 0 0 0-.09.15.15 0 0 0 0-.06zM31.42 17.34a.33.33 0 0 1 0 .07.31.31 0 0 0 0-.07zM31.41 17.2a.73.73 0 0 0 0-.12.2.2 0 0 0 0-.07.22.22 0 0 1 0 .08.74.74 0 0 1 0 .12zM31.3 17zM31.58 17.2v-.06a.24.24 0 0 1 0-.06.18.18 0 0 0-.05-.09.19.19 0 0 1 .06.09.22.22 0 0 0 0 .06v.05zM31.59 17.09v.05zM31.67 17.1v.06-.06zM31.73 17.14a.14.14 0 0 0 0-.06v-.06.06a.13.13 0 0 1 0 .06zM31.77 17.19a.08.08 0 0 1 0 .07.07.07 0 0 0 0-.06zM31.87 17.3a.33.33 0 0 0 0-.08.36.36 0 0 0 0-.09.47.47 0 0 1 0 .09.3.3 0 0 1 0 .09zM31.93 17.31a.4.4 0 0 0 0-.1.21.21 0 0 0 0-.07.27.27 0 0 1 0 .08.46.46 0 0 1 0 .1zM32.06 17.24v-.06H32h.06v.06zM32.07 17.16a.14.14 0 0 0-.05 0 .15.15 0 0 1 .06 0zM32.19 17.32a.43.43 0 0 0 0-.14.27.27 0 0 0-.07-.1.27.27 0 0 1 .07.1.48.48 0 0 1 0 .14zM32.21 17.14zM32.33 17.27a.37.37 0 0 0 0-.09v-.06a.22.22 0 0 1 0-.05.28.28 0 0 0 0 .05v.05a.39.39 0 0 1 0 .09zM32.36 17.11zM32.37 17.29zM32.46 17.35a.16.16 0 0 0 0-.07.08.08 0 0 1 0-.06.08.08 0 0 0 0 .05.18.18 0 0 1 0 .07zM32.53 17.26v-.05.05zM32.62 17.32v-.06.06a.1.1 0 0 1 0 .05zM32.55 17.31v.05a.22.22 0 0 1 0 .06.22.22 0 0 0 0-.06zM32.53 17.44a.12.12 0 0 1 0 .07.19.19 0 0 0 0 .05.43.43 0 0 0 0 .09.38.38 0 0 1 0-.09.15.15 0 0 1 0-.06.14.14 0 0 0 0-.07zM32.58 17.64l.05.06-.05-.06zM32.67 17.54zM32.73 17.43a.42.42 0 0 0 .08.09.43.43 0 0 1-.08-.09zM32.82 17.4zM32.88 17.35zM33 17.18zM32.85 17.2zM32.74 17.26a.18.18 0 0 0 0 .05.17.17 0 0 1 0-.06zM32.76 17.21zM32.34 17.36l.07.07a.17.17 0 0 1 0 .08h-.05a.3.3 0 0 1-.09.27.29.29 0 0 0 0-.15.29.29 0 0 1 0 .15.31.31 0 0 0 .08-.26h.06a.15.15 0 0 0 0-.07l-.07-.06zM32.29 17.45a.08.08 0 0 0 0 .05.09.09 0 0 1 0-.06zM32.21 17.48a.12.12 0 0 1 0 .07.18.18 0 0 0 0 .07.33.33 0 0 0 0 .14s-.09-.06-.09-.13a.45.45 0 0 0 0-.12.47.47 0 0 1 0 .12.17.17 0 0 0 .08.12.31.31 0 0 1 0-.13.2.2 0 0 1 0-.07.11.11 0 0 0 0-.06zM32 17.63v.11a.17.17 0 0 0 .11-.07.18.18 0 0 1-.13.08v-.06a.18.18 0 0 0 0-.05zM32.05 17.31zM32 17.37v.06-.07zM31.82 17.32v.05a.18.18 0 0 1 0 .06.16.16 0 0 0 0-.06v-.05zM31.79 17.47a.15.15 0 0 1 0 .1.32.32 0 0 0-.06.12.6.6 0 0 1 .13-.09.12.12 0 0 1-.06 0 .71.71 0 0 0-.13.09.3.3 0 0 1 .07-.13.16.16 0 0 0 0-.09zM31.69 17.52zM31.71 17.43a.19.19 0 0 0 0-.08v-.06a.31.31 0 0 0 0 .12.28.28 0 0 1 0 .13.31.31 0 0 0-.07-.2.3.3 0 0 1 .07.19.3.3 0 0 0 0-.12.32.32 0 0 1 0-.13v.07a.2.2 0 0 1 0 .08zM31.49 17.19l.05.09s-.06-.06-.05-.1zM31.44 17.54a.17.17 0 0 1 0 .07.16.16 0 0 1 0 .06.1.1 0 0 0 0 .06.11.11 0 0 1 0-.07.14.14 0 0 0 0-.06.18.18 0 0 0 0-.07z"/><path d="M31.41 17.8a.37.37 0 0 1 .05-.08.41.41 0 0 0 0-.1.42.42 0 0 1 0 .11.38.38 0 0 0-.05.08zM31.49 17.9a.19.19 0 0 1 0-.12.28.28 0 0 0 0-.09.28.28 0 0 1 0 .1.18.18 0 0 0 0 .11zM31.59 17.9a.35.35 0 0 1 0-.05.35.35 0 0 0 0 .05zM31.82 17.77a.2.2 0 0 1-.05.06.43.43 0 0 0-.11.13.33.33 0 0 0 0 .18.33.33 0 0 1 0-.19.42.42 0 0 1 .11-.14l.05-.06zM31.61 18.19h.05s.08-.07.1-.11a.09.09 0 0 1 .05 0s-.06.1-.1.11h-.05zM31.52 18.12h.07-.06zM31.67 18.22zM31.74 18.36a.25.25 0 0 0 0 .09.25.25 0 0 1 0-.1zM31.39 18.68zM31.31 18.74zM31.79 18.29zM31.93 18.29a.34.34 0 0 1-.06-.1.15.15 0 0 1 0-.08.26.26 0 0 0-.14.12.27.27 0 0 1 .15-.12.13.13 0 0 0 0 .08.3.3 0 0 0 .05.1z"/><path d="M31.78 18a.39.39 0 0 1 0 .1.42.42 0 0 0 0-.09zM32.05 18.15v.05-.05zM32 18.1zM32.1 18.12zM32.12 18.23zM32.21 18.3v.07-.07zM32.23 18.37zM32.23 18.52a.16.16 0 0 1-.07.09.15.15 0 0 0 .06-.08zM32.17 18.68a.35.35 0 0 1-.08.09.32.32 0 0 0 .08-.09zM32.26 18.56zM32.35 18.44a.2.2 0 0 1 0 .06.41.41 0 0 1 0 .07.32.32 0 0 0 0-.07.26.26 0 0 0 0-.06zM32.45 18.37a.24.24 0 0 1 0 .1.22.22 0 0 0 0-.1zM32.32 18.41a.14.14 0 0 1 0-.06v.06zM32.61 18.09zM32.52 18a.14.14 0 0 1 0 .06.1.1 0 0 0 0 .07.12.12 0 0 1 0-.07.14.14 0 0 0 0-.06zM32.6 18zM32.58 17.81l.09.07-.09-.07zM32.56 17.89v.07-.08zM32.41 17.78a.23.23 0 0 1 0 .08.4.4 0 0 1 0 .09.2.2 0 0 0 0-.07.09.09 0 0 1 0-.06.1.1 0 0 0 0 .05.26.26 0 0 1 0 .09.35.35 0 0 0 0-.1.19.19 0 0 0 0-.07zM32.42 18.06a.13.13 0 0 1 0 .1.12.12 0 0 0 0-.1zM32.31 18v.07a.17.17 0 0 1 0 .05.11.11 0 0 1 0-.06.12.12 0 0 0 0 .06.07.07 0 0 1 0-.05.16.16 0 0 0 0-.05V18zM32.17 18.19zM32.28 18.22zM32.16 18a.16.16 0 0 1 0-.06v.05a.13.13 0 0 0 0 .06zM32.34 17.88zM32.08 17.81zM32 17.82a.17.17 0 0 1 0 .18.21.21 0 0 0-.11-.13.21.21 0 0 1 .11.13.17.17 0 0 0 0-.15zM30.48 18.35zM30.53 18zM30.66 16.07a.73.73 0 0 1 .19-.13 1 1 0 0 1 .39-.07c.35 0 .45.1.45.1s-.1-.1-.44-.1a.93.93 0 0 0-.38.07.7.7 0 0 0-.19.12z"/><path d="M30.95 16.05a.14.14 0 0 0-.05-.05h-.07.08a.15.15 0 0 1 .09 0zM31.14 16a.23.23 0 0 0 0-.09.16.16 0 0 0-.14-.01.17.17 0 0 1 .08.06.22.22 0 0 1 0 .09z"/><path d="M31 15.9a.16.16 0 0 0-.06-.06h-.07.08a.19.19 0 0 1 .07.06zM31.22 15.88a.2.2 0 0 0 0-.09.07.07 0 0 0-.05 0 .08.08 0 0 1 .06 0 .21.21 0 0 1 0 .09zM31.42 15.89a.18.18 0 0 0 0-.05.09.09 0 0 1 0 .05.15.15 0 0 1 0 .06zM31.62 15.94a.23.23 0 0 0 .05-.07.08.08 0 0 0 0-.06.09.09 0 0 1 0 .07.23.23 0 0 1-.06.08zM31.88 15.9a.1.1 0 0 1 0 .07.12.12 0 0 1-.06.05.11.11 0 0 0 .05 0 .1.1 0 0 0 0-.06zM32 16zM32.21 16a.15.15 0 0 1 0 .08.13.13 0 0 0 0-.07zM32.36 16.05a.1.1 0 0 1 0 .06.09.09 0 0 0 0-.05zM31.27 15.87a.13.13 0 0 1 0 .06.1.1 0 0 1 0 .07.08.08 0 0 0 0-.07.13.13 0 0 0 0-.06zM31.57 15.92a.16.16 0 0 1 0 .11s0 .07-.09.09c.06 0 .08-.05.09-.09a.15.15 0 0 0 0-.11zM31.81 16.07a.09.09 0 0 1-.05.11.23.23 0 0 1-.1 0h.09a.09.09 0 0 0 0-.1zM32 16.25zM32.23 16.41zM32.39 16.47a.06.06 0 0 1 0 .06h-.05a.06.06 0 0 0 0-.05zM32.56 16.51z"/></g><g><path fill="#f7db12" stroke="#000" stroke-miterlimit="2.41" stroke-width=".02" fill-rule="evenodd" d="m35.77 15.6.46.16.38-.33.09.49.47.17-.37.32.09.48-.47-.15-.37.32-.1-.49-.46-.16.36-.32-.08-.49z"/><path d="m35.77 15.6 1.13 1.3h-.01l-1.12-1.29v-.01z"/><path d="m35.49 16.41 1.68-.33v.01l-1.68.32z"/><path d="m36.05 17.05.55-1.62.01.01-.56 1.61z"/><path d="m36.23 15.76.2.98h-.01l-.2-.98h.01z"/><path d="m35.95 16.57.75-.66v.01l-.75.66v-.01z"/><path d="m35.86 16.08.94.33-.95-.32.01-.01z"/></g><g fill-rule="evenodd"><path d="M34 18.18c.06 0 .1 0 .11-.05s0-.09.06-.06a.25.25 0 0 0 .09.06l.07.06c.07.06.08 0 .1 0s0 0 0 .08.07.06.09.09 0 0 .12 0a1.65 1.65 0 0 1 .37.18 2.16 2.16 0 0 0 .3.09.37.37 0 0 0 .22 0 .93.93 0 0 1 .68.16 2.06 2.06 0 0 0 .3.08 1.9 1.9 0 0 1 .42.1c.12.05.21.14.15.2s-.21.05-.27 0-.14-.1-.23-.13-.19-.14-.27-.15-.09 0 0 .06 0 .13 0 .18a.16.16 0 0 0 .11.09s.06 0 .09.12 0 .09.07.12 0 .07 0 .11-.05.06-.11.06-.15 0-.14-.07.06 0 .11 0a.07.07 0 0 0 0-.1s-.17-.09-.23-.14a.4.4 0 0 0-.2-.1c-.08 0-.07 0-.12-.06s-.08 0-.14 0h-.47c-.09 0-.12-.09 0-.1a.4.4 0 0 1 .14 0 .17.17 0 0 0 .14-.06h-.09a.65.65 0 0 0-.23-.1c-.09 0-.08 0-.16.05a1.48 1.48 0 0 1-.19 0h-.28l-.22.05c-.06 0-.08-.09 0-.1s.07 0 .12 0a.12.12 0 0 0 .12 0h.12l-.05-.06c-.05-.06 0 0-.09 0l-.15-.06a.36.36 0 0 0-.16 0h-.27c-.02 0-.13-.06-.11-.1s.11 0 .15 0a.43.43 0 0 1 .16 0h.12c.02 0 0-.08-.08-.12s0-.12-.14-.11a.3.3 0 0 1-.23-.14h.08z"/><path d="M35.39 19.13a.63.63 0 0 0-.21-.09.25.25 0 0 1 .19 0h.18c.05 0 .11 0 .13.1s0 0-.1 0a.47.47 0 0 0-.18 0z" fill="#f4f4f5"/></g><g><path fill="#f7db12" stroke="#000" stroke-miterlimit="2.41" stroke-width=".02" fill-rule="evenodd" d="m19.45 16.21-.47.15-.37-.32-.1.48-.47.17.37.33-.08.48.46-.16.37.32.11-.48.45-.16-.36-.33.09-.48z"/><path d="m19.44 16.21-1.12 1.29v.01l1.13-1.3h-.01z"/><path d="m19.72 17.01-1.68-.32v.01l1.68.32v-.01z"/><path d="m19.16 17.66-.55-1.62h-.01l.56 1.62z"/><path d="m18.98 16.36-.19.98h.01l.19-.97-.01-.01z"/><path d="m19.27 17.18-.75-.66-.01.01.75.65h.01z"/><path d="m19.36 16.69-.95.32v.01l.95-.32v-.01z"/></g><path d="M20.71 18a1.33 1.33 0 1 1-2.5.8 1.33 1.33 0 0 0 2.52-.6 1.49 1.49 0 0 0 0-.21z" fill="#f4f4f5" stroke="#000" stroke-miterlimit="2.41" stroke-width=".02" fill-rule="evenodd"/></g><path d="m18.6 21.84-2.11-4.78 1.58-2.57 2.73 1 1.94-2.18 2.51 1.44 2.26-1.82 2.23 1.83 2.53-1.44 1.92 2.18 2.73-1 1.59 2.5-2.12 4.78a22.19 22.19 0 0 0-17.79 0z" fill="none" stroke="#f4f4f5" stroke-miterlimit="2.41" stroke-width=".2"/><path d="M18.57 22.43h17.89v11.28c0 4.22-4.09 8.37-8.95 8.37s-8.94-4.15-8.94-8.37V22.43z" fill="#fff" stroke="#ed1c24" stroke-miterlimit="2.41" stroke-width=".68" fill-rule="evenodd"/><g><path d="M18.57 22.43h17.89v11.28c0 4.22-4.09 8.37-8.95 8.37s-8.94-4.15-8.94-8.37V22.43z" fill="#f4f4f5" fill-rule="evenodd"/><g clip-path="url(#c)"><path fill="#ed1d24" fill-rule="evenodd" d="M36.31 22.55h-3.52v3.91h-3.53v-3.91h-3.52v3.91h-3.52v-3.91H18.7v3.91h3.52v3.9h3.52V38.17h3.52V30.36h-3.52v-3.9h3.52v3.9h3.53V38.17h3.52v3.91h-3.52v-3.91h-3.53v3.91h-3.52v-3.91h-3.52v3.91H18.7v-3.91h3.52v-3.9H18.7v-3.91h3.52v3.91h14.09v-3.91h-3.52v-3.9h3.52v-3.91z"/></g><path d="M18.57 22.43h17.89v11.28c0 4.22-4.09 8.37-8.95 8.37s-8.94-4.15-8.94-8.37V22.43z" fill="none" stroke="#f4f4f5" stroke-miterlimit="2.41" stroke-width=".32"/></g></g></svg>