<svg xmlns="http://www.w3.org/2000/svg" viewBox="0 0 55 55"><defs><clipPath id="a"><circle cx="27.5" cy="27.5" r="23.32" fill="none"/></clipPath></defs><g clip-path="url(#a)"><path d="M-7.48 4.18h70v4.37h-70V4.18zm70 11.66v23.32h-70V15.84zm0 30.6v4.37h-70v-4.36z" fill="#f1f0f0"/><path d="m27.5 20.44-1.21 2.09h2.42l-1.21-2.09zm-35-11.89h70v7.29h-70V8.55zm0 30.6h70v7.29h-70v-7.28zM25.46 24l-2 3.53 2 3.53h4.08l2-3.53-2-3.53zm-2.86 5-1.21 2h2.42l-1.21-2.07zm8.6 2h2.42l-1.22-2.07L31.2 31zm-3.7 3.56 1.21-2.09h-2.42l1.21 2.09zm4.9-8.49L33.61 24H31.2l1.21 2.09zM23.81 24h-2.42l1.21 2.09L23.81 24zm11.67-.36-2.25 3.86 2.25 3.89.44.77.18.31h-5.73l-2.25 3.89-.44.77-.18.31-.18-.31-.44-.77-2.24-3.89H18.9l.18-.31.44-.77 2.25-3.89-2.25-3.89-.44-.77-.18-.31h5.73l2.25-3.89.44-.77.18-.31.18.31.44.77 2.25 3.89h5.73l-.18.31-.44.77z" fill="#4475ba"/></g></svg>