<svg xmlns="http://www.w3.org/2000/svg" viewBox="0 0 55 55"><defs><clipPath id="a"><circle cx="27.5" cy="27.5" r="23.32" fill="none"/></clipPath></defs><g clip-path="url(#a)"><path fill="#f1f0f0" d="M62.48 19.73v15.54H-7.48V19.73h69.96z"/><path fill="#f39229" d="M-7.48 4.18h69.96v15.55H-7.48V4.18z"/><path fill="#48b649" d="M-7.48 35.27h69.96v15.55H-7.48V35.27z"/><path d="M27.55 26.29h.21l.19-1.29 1.11-3.36-.72 3.46-.48 1.2.19.08.51-1.18 1.94-3-1.59 3.16-.77 1 .17.13.8-1 2.64-2.35-2.35 2.64-1 .8a1.19 1.19 0 0 1 .13.17l1-.77 3.16-1.59-3 1.94-1.18.51a1.28 1.28 0 0 1 .08.19l1.2-.48 3.46-.72L30 27.05l-1.28.19a1.22 1.22 0 0 1 0 .21L30 27.3l3.53.2-3.53.2-1.28-.15a1.28 1.28 0 0 1 0 .21l1.27.19 3.36 1.11-3.46-.72-1.2-.48a1.24 1.24 0 0 1-.08.19l1.18.51 3 1.94-3.16-1.59-1-.77-.13.17 1 .8 2.35 2.64-2.64-2.35-.8-1-.17.13.77 1 1.59 3.16-1.94-3-.51-1.18-.19.08.48 1.2.72 3.46L27.95 30l-.19-1.28h-.21L27.7 30l-.2 3.53-.2-3.53.15-1.28h-.21L27.05 30l-1.11 3.36.72-3.46.48-1.2-.19-.08-.51 1.18-1.94 3 1.59-3.16.77-1-.17-.13-.8 1-2.64 2.35 2.35-2.64 1-.8-.13-.17-1 .77-3.16 1.59 3-1.94 1.18-.51a1.19 1.19 0 0 1-.08-.19l-1.2.48-3.46.72L25 27.95l1.28-.19a1.23 1.23 0 0 1 0-.21L25 27.7l-3.53-.2 3.53-.2 1.28.15a1.22 1.22 0 0 1 0-.21L25 27.05l-3.36-1.11 3.46.72 1.2.48a1.27 1.27 0 0 1 .08-.19l-1.18-.51-3-1.94 3.16 1.59 1 .77.13-.17-1-.8-2.35-2.64 2.64 2.35.8 1 .17-.13-.77-1-1.59-3.16 1.94 3 .51 1.18.19-.08-.48-1.2-.72-3.46L27.05 25l.19 1.28h.21L27.3 25l.2-3.53.2 3.53-.15 1.28zM27 21.4a.31.31 0 0 1-.61.08 6.05 6.05 0 0 0-.95.25.31.31 0 0 1-.57.24 6.12 6.12 0 0 0-.85.49.31.31 0 0 1-.49.38l-.36.33-.33.36a.31.31 0 0 1-.38.49 6.08 6.08 0 0 0-.49.85.31.31 0 0 1-.24.57 6.08 6.08 0 0 0-.25.95.31.31 0 0 1-.08.61v.98a.31.31 0 0 1 .08.61 6.09 6.09 0 0 0 .25.95.31.31 0 0 1 .24.57 6.12 6.12 0 0 0 .49.85.31.31 0 0 1 .38.49l.33.36.36.33a.31.31 0 0 1 .49.38 6.11 6.11 0 0 0 .85.49.31.31 0 0 1 .57.24 6.08 6.08 0 0 0 .95.25.31.31 0 0 1 .61.08h.98a.31.31 0 0 1 .61-.08 6.08 6.08 0 0 0 .95-.25.31.31 0 0 1 .57-.24 6.16 6.16 0 0 0 .85-.49.31.31 0 0 1 .49-.38l.36-.33.33-.36a.31.31 0 0 1 .38-.49 6.18 6.18 0 0 0 .49-.85.31.31 0 0 1 .24-.57 6.05 6.05 0 0 0 .25-.95.31.31 0 0 1 .1-.59v-.98a.31.31 0 0 1-.08-.61 6 6 0 0 0-.25-.95.31.31 0 0 1-.24-.57 6.14 6.14 0 0 0-.49-.85.31.31 0 0 1-.38-.49l-.33-.36-.36-.33a.31.31 0 0 1-.49-.38 6.17 6.17 0 0 0-.85-.49.31.31 0 0 1-.57-.24 6.05 6.05 0 0 0-.95-.25.31.31 0 0 1-.61-.1h-.98zm.49-.89a7 7 0 1 1-4.95 2 7 7 0 0 1 4.95-2z" fill="#214097" fill-rule="evenodd"/></g></svg>