<svg xmlns="http://www.w3.org/2000/svg" viewBox="0 0 55 55"><path d="M49.472 35.267c-.027.073-.053.146-.084.214-.068.194-.141.382-.215.575l-.109.267c-.063.157-.126.309-.2.466s-.136.308-.209.465a1.888 1.888 0 0 1-.094.2c-.037.089-.084.178-.131.267a23.291 23.291 0 0 1-41.867-.011 6.534 6.534 0 0 1-.131-.266c-.026-.047-.046-.1-.068-.142-.078-.172-.157-.345-.23-.517s-.136-.309-.2-.466a29.945 29.945 0 0 0-.109-.267c-.074-.193-.147-.381-.215-.575-.031-.068-.052-.141-.078-.214z" style="fill:#d90201"/><path d="M50.8 27.5a23.137 23.137 0 0 1-1.313 7.714c0 .016-.01.037-.015.053H5.534a.2.2 0 0 1-.021-.053 23.275 23.275 0 0 1 0-15.428.088.088 0 0 1 .016-.053h43.937a.088.088 0 0 1 .017.053A23 23 0 0 1 50.8 27.5z" style="fill:#fff"/><path d="M49.466 19.733H5.534c.026-.073.047-.146.078-.219.147-.408.3-.806.476-1.2.047-.105.09-.2.136-.309.068-.151.141-.308.215-.46.041-.089.083-.183.13-.272a23.3 23.3 0 0 1 41.862 0c.047.089.089.183.131.272.073.152.146.309.214.46.052.11.094.22.141.324.173.393.33.79.471 1.188a1.914 1.914 0 0 1 .078.216z" style="fill:#1f9e42"/><path d="M31.182 26.459a6.284 6.284 0 0 0-.319-.931 5.789 5.789 0 0 0-1.057-1.694 16.91 16.91 0 0 1 .4 1.883 9.083 9.083 0 0 1 .11 1.856 4.484 4.484 0 0 1-.152.989 3.644 3.644 0 0 1-.35.925 4.067 4.067 0 0 1-.565.811 5.256 5.256 0 0 1-.732.675c-.136.1-.283.2-.424.293.021-1.622.157-6.826.157-7.72l-.758-.5-.748.5c0 .894.136 6.1.157 7.72a21.79 21.79 0 0 1-.429-.293 5.616 5.616 0 0 1-.732-.675 4.259 4.259 0 0 1-.56-.811 3.9 3.9 0 0 1-.356-.925 4.931 4.931 0 0 1-.146-.989 9.171 9.171 0 0 1 .105-1.856 17.526 17.526 0 0 1 .408-1.883 5.789 5.789 0 0 0-1.057 1.694 6.284 6.284 0 0 0-.319.931 5.2 5.2 0 0 0-.178 1.109 4.715 4.715 0 0 0 .068 1.234 4.422 4.422 0 0 0 .424 1.235 4.657 4.657 0 0 0 .779 1.056 5.264 5.264 0 0 0 .989.748 4.521 4.521 0 0 0 .554.282c-.319.142-.6.257-.816.34-.318.126-.5.21-.5.21s.2.015.55.02a4.379 4.379 0 0 0 .627-.02 5.62 5.62 0 0 0 .81-.11c.016-.006.027-.006.042-.011.037.089.079.173.11.241.137.287.225.45.225.45s.089-.163.225-.45c.031-.068.068-.152.11-.241.015.005.026.005.042.011a5.62 5.62 0 0 0 .81.11 4.389 4.389 0 0 0 .628.02c.35 0 .544-.02.544-.02s-.183-.084-.5-.21c-.22-.083-.5-.2-.816-.34a4.521 4.521 0 0 0 .554-.282 5.43 5.43 0 0 0 .989-.748 4.493 4.493 0 0 0 .774-1.056 4.279 4.279 0 0 0 .429-1.235 4.715 4.715 0 0 0 .068-1.234 5.2 5.2 0 0 0-.174-1.109z" style="fill:#d90201"/><path d="M23.264 30.4a3.428 3.428 0 0 1-.193-.539c-.058-.2-.142-.4-.2-.628s-.094-.455-.151-.69c-.015-.241-.053-.481-.058-.727a4.28 4.28 0 0 1 .047-.732c.021-.12.032-.246.058-.366s.068-.241.1-.356a5.2 5.2 0 0 1 .251-.69c.115-.215.2-.44.324-.633.11-.2.231-.387.346-.565a16.832 16.832 0 0 1 .842-1.161 2.4 2.4 0 0 0-.393.136 4.417 4.417 0 0 0-.941.56 4.743 4.743 0 0 0-1.088 1.15c-.084.126-.152.262-.225.4a1.973 1.973 0 0 0-.2.423c-.053.152-.11.3-.157.455s-.063.319-.089.481a4.292 4.292 0 0 0-.026.973 6.942 6.942 0 0 0 .193.91c.1.277.235.534.345.774a4.883 4.883 0 0 0 .424.617 2.4 2.4 0 0 0 .413.461 7.289 7.289 0 0 0 .68.565s-.047-.152-.136-.393c-.046-.119-.098-.265-.166-.425zM33.462 26.919c-.031-.162-.052-.324-.088-.481s-.105-.3-.157-.455a2.025 2.025 0 0 0-.2-.423c-.079-.136-.141-.272-.225-.4a4.743 4.743 0 0 0-1.088-1.15 4.542 4.542 0 0 0-.941-.56 2.365 2.365 0 0 0-.393-.136s.094.12.246.324.366.492.6.837c.115.178.23.361.346.565s.2.418.324.633a6.015 6.015 0 0 1 .251.69c.031.115.063.235.1.356s.037.246.058.366a4.28 4.28 0 0 1 .047.732c-.005.246-.042.486-.058.727-.057.235-.1.465-.151.69s-.147.429-.2.628a4.158 4.158 0 0 1-.194.539 4.5 4.5 0 0 0-.167.423c-.089.241-.136.393-.136.393s.12-.084.324-.251c.1-.084.225-.189.356-.314a2.4 2.4 0 0 0 .413-.461 4.873 4.873 0 0 0 .419-.617 8.066 8.066 0 0 0 .35-.774 6.942 6.942 0 0 0 .193-.91 4.235 4.235 0 0 0-.029-.971zM26.569 23.044a.982.982 0 0 0 .931-.675.982.982 0 0 0 1.914-.308 1.021 1.021 0 0 0-.052-.309.978.978 0 0 1-1.862.005.978.978 0 0 1-1.862-.005 1.021 1.021 0 0 0-.052.309.982.982 0 0 0 .983.983z" style="fill:#d90201"/><path style="fill:#fff" d="M31.25 17.27h4.644v.272H31.25zM31.25 19.514h3.243v.267H31.25zM34.932 19.514h3.243v.267h-3.243zM33.436 18.002v.272h.785v.398H32.96v-.67h-1.71V18.944h.272v-.67h1.172v.67h1.799V18.002h-1.057z"/><path style="fill:#fff" d="M36.689 18.928h1.475V17.27h-.267v1.391h-.47V17.27h-.267v1.391h-.471V17.27h-.272v.732h-1.48v.926H35.884v-.267h-.675v-.387h1.208v.654h.272zM31.972 18.661h.267v.282h-.267zM48.562 17.542h-2.887v-.272h2.756c.047.089.089.183.131.272zM45.675 19.514h3.243v.267h-3.243zM49.483 19.786h-.127v-.272h.032a1.914 1.914 0 0 1 .078.219.088.088 0 0 1 .017.053zM48.917 18.326v.618h-1.8v-.67h-1.171v.67h-.271V18h1.71v.67h1.265v-.4h-.789V18h.915c.052.112.094.222.141.326z"/><path style="fill:#fff" d="M46.397 18.661h.271v.282h-.271zM38.462 17.27h4.65v.272h-4.65zM38.462 19.514h3.243v.267h-3.243zM42.144 19.514h3.243v.267h-3.243zM40.648 18.002v.272h.79v.398h-1.265v-.67h-1.711V18.944h.272v-.67h1.172v.67h1.799V18.002h-1.057z"/><path style="fill:#fff" d="M43.902 18.928h1.474V17.27h-.266v1.391h-.471V17.27h-.267v1.391h-.47V17.27h-.272v.732h-1.475v.926H43.096v-.267h-.674v-.387h1.208v.654h.272zM39.184 18.661h.272v.282h-.272zM24.038 17.27h4.644v.272h-4.644zM24.038 19.514h3.243v.267h-3.243zM27.72 19.514h3.243v.267H27.72zM26.224 18.002v.272h.784v.398h-1.26v-.67H24.038V18.944h.272v-.67h1.171v.67H27.28V18.002h-1.056z"/><path style="fill:#fff" d="M29.477 18.928h1.475V17.27h-.267v1.391h-.471V17.27h-.272v1.391h-.465V17.27h-.272v.732h-1.48v.926H28.672v-.267h-.675v-.387h1.208v.654h.272zM24.759 18.661h.267v.282h-.267zM16.825 17.27h4.644v.272h-4.644zM16.825 19.514h3.243v.267h-3.243zM20.508 19.514h3.243v.267h-3.243zM19.012 18.002v.272h.784v.398h-1.26v-.67h-1.711V18.944h.272v-.67h1.167v.67h1.804V18.002h-1.056z"/><path style="fill:#fff" d="M22.265 18.928h1.475V17.27h-.267v1.391h-.471V17.27h-.272v1.391h-.465V17.27h-.272v.732h-1.48v.926H21.459v-.267h-.674v-.387h1.208v.654h.272zM17.547 18.661h.267v.282h-.267zM9.613 17.27h4.644v.272H9.613zM9.613 19.514h3.243v.267H9.613zM13.295 19.514h3.243v.267h-3.243zM11.799 18.002v.272h.785v.398h-1.261v-.67h-1.71V18.944h.272v-.67h1.166v.67h1.805V18.002h-1.057z"/><path style="fill:#fff" d="M15.052 18.928h1.475V17.27h-.266v1.391h-.471V17.27h-.272v1.391h-.466V17.27h-.272v.732H13.3v.926H14.247v-.267h-.675v-.387h1.208v.654h.272zM10.335 18.661h.267v.282h-.267zM7.045 17.27v.272h-.606c.041-.089.083-.183.13-.272zM5.644 19.514v.272h-.126a.088.088 0 0 1 .016-.053c.026-.073.047-.146.078-.219zM6.083 19.514h3.243v.267H6.083zM9.316 17.27v1.658H7.568v-.654H6.36v.387h.669v.267h-.941v-.617c.047-.105.09-.2.136-.309h1.344v-.732h.272v1.391h.466V17.27h.272v1.391h.465V17.27zM31.26 36.056h4.644v.267H31.26zM20.508 35.214h3.243v.267h-3.243zM16.825 35.214h3.243v.267h-3.243zM33.447 36.789v.266h.784v.398h-1.26v-.664H31.26v.936h.267v-.67h1.172v.67h1.804v-.936h-1.056z"/><path style="fill:#fff" d="M36.694 37.714h1.481v-1.658h-.272v1.386h-.466v-1.386h-.272v1.386h-.471v-1.386h-.266v.733h-1.48v.925H35.889v-.272h-.669v-.387h1.208v.659h.266zM31.977 37.442h.272v.282h-.272zM49.173 36.056l-.109.267h-3.379v-.267zM6.083 35.214h3.243v.267H6.083zM5.644 35.214v.267h-.032c-.031-.068-.052-.141-.078-.214a.2.2 0 0 1-.021-.053zM47.4 37.458h1.167c-.037.089-.084.178-.131.267h-1.313v-.67h-1.171v.67h-.267v-.936H47.4zM48.656 37.254v-.2h-.785v-.266h.994a9.731 9.731 0 0 1-.209.466z"/><path style="fill:#fff" d="M46.407 37.442h.267v.282h-.267zM38.473 36.056h4.644v.267h-4.644zM13.295 35.214h3.243v.267h-3.243zM9.613 35.214h3.243v.267H9.613zM40.659 36.789v.266h.784v.398h-1.26v-.664h-1.71v.936h.266v-.67h1.173v.67H41.715v-.936h-1.056z"/><path style="fill:#fff" d="M43.907 37.714h1.48v-1.658h-.272v1.386h-.466v-1.386h-.272v1.386h-.47v-1.386h-.267v.733h-1.48v.925H43.102v-.272h-.67v-.387h1.208v.659h.267zM39.189 37.442h.272v.282h-.272zM24.048 36.056h4.644v.267h-4.644zM27.72 35.214h3.243v.267H27.72zM24.038 35.214h3.243v.267h-3.243zM26.234 36.789v.266h.785v.398h-1.261v-.664h-1.71v.936h.267v-.67h1.171v.67H27.286v-.936h-1.052z"/><path style="fill:#fff" d="M29.482 37.714h1.48v-1.658h-.272v1.386h-.465v-1.386h-.272v1.386h-.471v-1.386h-.267v.733h-1.48v.925H28.677v-.272h-.675v-.387h1.213v.659h.267zM24.765 37.442h.272v.282h-.272zM16.836 36.056h4.644v.267h-4.644zM34.932 35.214h3.243v.267h-3.243zM31.25 35.214h3.243v.267H31.25zM19.022 36.789v.266h.785v.398h-1.261v-.664h-1.71v.936h.267v-.67h1.171v.67h1.799v-.936H19.022z"/><path style="fill:#fff" d="M22.27 37.714H23.751v-1.658h-.273v1.386h-.471v-1.386h-.266v1.386h-.471v-1.386h-.267v.733h-1.48v.925H21.464v-.272h-.674v-.387h1.213v.659h.267zM17.552 37.442h.272v.282h-.272zM9.618 36.056h4.65v.267h-4.65zM42.144 35.214h3.243v.267h-3.243zM38.462 35.214h3.243v.267h-3.243zM11.81 36.789v.266h.784v.398h-1.26v-.664H9.618v.936h.273v-.67h1.171v.67h1.799v-.936H11.81z"/><path style="fill:#fff" d="M15.058 37.714h1.48v-1.658h-.272v1.386h-.471v-1.386h-.267v1.386h-.47v-1.386h-.267v.733h-1.48v.925H14.252v-.272h-.674v-.387h1.213v.659h.267zM10.34 37.442h.272v.282h-.272zM7.056 36.056v.267h-1.12a29.945 29.945 0 0 0-.109-.267zM49.487 35.214c0 .016-.01.037-.015.053-.027.073-.053.146-.084.214h-.032v-.267zM45.675 35.214h3.243v.267h-3.243zM6.433 37.448h.607v.266h-.476a6.534 6.534 0 0 1-.131-.266z"/><path d="M9.32 36.056v1.658H7.579v-.659H6.365v.251c-.078-.172-.157-.345-.23-.517h1.444v-.733h.266v1.392h.471v-1.392h.267v1.392h.471v-1.392z" style="fill:#fff"/></svg>