<svg xmlns="http://www.w3.org/2000/svg" viewBox="0 0 55 55"><path d="M50.8 27.5a22.855 22.855 0 0 1-.141 2.552 22.4 22.4 0 0 1-.466 2.735A23.346 23.346 0 0 1 27.5 50.8a23.62 23.62 0 0 1-2.453-.131 24.792 24.792 0 0 1-2.735-.449 23.407 23.407 0 0 1-5.1-1.82 22.819 22.819 0 0 1-2.73-1.59 23.374 23.374 0 0 1-9.676-14.026 22.4 22.4 0 0 1-.465-2.735 23.111 23.111 0 0 1 0-5.1 22.563 22.563 0 0 1 .465-2.735A23.374 23.374 0 0 1 14.481 8.19a22.819 22.819 0 0 1 2.73-1.59 23.083 23.083 0 0 1 5.1-1.814 23.3 23.3 0 0 1 27.884 17.43 22.565 22.565 0 0 1 .466 2.735A22.827 22.827 0 0 1 50.8 27.5z" style="fill:#063895"/><path d="M50.8 27.5a22.855 22.855 0 0 1-.141 2.552 22.4 22.4 0 0 1-.466 2.735H25.044v17.882a24.792 24.792 0 0 1-2.735-.449 23.407 23.407 0 0 1-5.1-1.82 22.819 22.819 0 0 1-2.73-1.59V32.784H4.806a22.4 22.4 0 0 1-.465-2.735 23.111 23.111 0 0 1 0-5.1 22.563 22.563 0 0 1 .465-2.735h9.675V8.19a22.819 22.819 0 0 1 2.73-1.59 23.083 23.083 0 0 1 5.1-1.814 23.46 23.46 0 0 1 2.735-.455v17.885h25.147a22.565 22.565 0 0 1 .466 2.735A22.827 22.827 0 0 1 50.8 27.5z" style="fill:#fff"/><path d="M50.8 27.5a22.855 22.855 0 0 1-.141 2.552h-28.35V50.22a23.407 23.407 0 0 1-5.1-1.82V30.049H4.341a23.111 23.111 0 0 1 0-5.1h12.87V6.6a23.083 23.083 0 0 1 5.1-1.814v20.165h28.35A22.827 22.827 0 0 1 50.8 27.5z" style="fill:#d62827"/></svg>