<svg xmlns="http://www.w3.org/2000/svg" viewBox="0 0 55 55"><path d="M48.849 36.824a23.294 23.294 0 0 1-42.7 0z" style="fill:#006506"/><path d="M49.728 34.5a22.624 22.624 0 0 1-.879 2.328H6.151a22.624 22.624 0 0 1-.879-2.328z" style="fill:#fff"/><path d="M50.8 27.5a23.269 23.269 0 0 1-1.072 7H5.272a23.348 23.348 0 0 1 0-13.987h44.456A23.251 23.251 0 0 1 50.8 27.5z" style="fill:#ba0201"/><path d="M49.728 20.509H5.272a22.1 22.1 0 0 1 .879-2.327h42.7a22.1 22.1 0 0 1 .877 2.327z" style="fill:#fff"/><path d="M48.849 18.182H6.151a23.29 23.29 0 0 1 42.7 0z"/><path d="m35.885 41.359-13.633-23.69a.969.969 0 0 0 .1-1.1c-.267-.461-3.891-5.89-4.351-5.623s2.416 6.119 2.677 6.585a.966.966 0 0 0 1 .465l13.637 23.687z" style="fill:#fff"/><path d="m33.292 36.824-.523-.91-.821-1.414-3.448-5.993-.6-1.057v-.015l-.011-.011-.361-.633-.01-.01v-.016L27 25.871l-3.1-5.362-1.312-2.28-.031-.047-.288-.508a.989.989 0 0 0 .094-1.114c-.141-.241-1.134-1.737-2.1-3.081-1.3-1.8-2.065-2.662-2.265-2.547s.152 1.208 1.062 3.238c.675 1.517 1.469 3.122 1.611 3.368a.989.989 0 0 0 1.009.476l.094.168.476.826.863 1.5 3.409 5.916.591 1.025.006.011v.015l.366.633.005.011.011.016.543.941 3.114 5.424 1.271 2.2.073.126 2.8 4.869.01.011.591-.34zm-5.784-8.73v-.016l-.366-.628-.006-.015-.01-.016-.596-1.019-3.384-5.89-.883-1.532-.46-.8-.11-.189-.006-.01h-.005a.946.946 0 0 1-.988-.46c-.141-.241-.936-1.847-1.616-3.364-1.177-2.641-1.177-3.138-1.072-3.2s.538.188 2.233 2.537a72.757 72.757 0 0 1 2.1 3.081.957.957 0 0 1-.094 1.088h-.011l.293.513.052.078 1.292 2.249 3.1 5.383.518.9.01.016v.01l.366.633.011.016.005.01.612 1.057 3.423 5.974.837 1.454.507.874 2.605 4.529-.539.314-2.787-4.843-.095-.157L31.2 34.5l-3.128-5.435-.549-.957z"/><path d="M37 10.948c-.46-.267-4.084 5.162-4.345 5.623a.951.951 0 0 0 .1 1.1l-13.64 23.688.57.324L33.318 18a.966.966 0 0 0 1-.465c.271-.468 3.142-6.321 2.682-6.587z" style="fill:#fff"/><path d="m32.46 18.182-.041.062-1.3 2.265-3.09 5.372-.518.9v.01l-.011.016v.01l.011-.01.01-.016.518-.905 3.1-5.377 1.3-2.249.047-.078zm4.55-7.25c-.2-.115-.968.743-2.27 2.547-.967 1.344-1.961 2.84-2.1 3.081a.986.986 0 0 0 .09 1.114l-.289.508-.031.047-1.31 2.28-3.086 5.362-.512.894-.011.011-.01.015-.361.628v.016l-.006.015-.614 1.05v.005L23.052 34.5l-.821 1.418-.523.91-2.6 4.524v.016l.591.34 2.808-4.88.073-.126 1.272-2.2 3.116-5.419.544-.941v-.016l.01-.016.361-.628.011-.015v-.011l.591-1.025 3.4-5.916.863-1.5.476-.826.094-.168a.989.989 0 0 0 1.009-.476c.142-.246.936-1.851 1.616-3.368a12.158 12.158 0 0 0 1.114-3.081c.005-.091-.016-.143-.047-.164zm-3.687 7.051h-.01l-.115.2-.461.8-.878 1.532-3.389 5.879v.006l-.591 1.025-.005.011-.011.015-.36.628-.011.016-.005.015-.549.952-3.127 5.438-1.255 2.171-.089.157-2.788 4.843-.543-.314 2.6-4.529.507-.879.837-1.449 3.43-5.963.607-1.057.01-.015.006-.011.36-.633.011-.01.01-.016.518-.905 3.1-5.377 1.3-2.249.047-.078.287-.5.006-.01h-.006a.957.957 0 0 1-.1-1.088c.141-.241 1.13-1.737 2.1-3.081 1.7-2.349 2.123-2.6 2.233-2.537s.1.56-1.071 3.2c-.676 1.517-1.476 3.123-1.612 3.364a.946.946 0 0 1-.993.449zm-.863.2-.041.062-1.3 2.265-3.09 5.372-.518.9v.01l-.011.016v.01l.011-.01.01-.016.518-.905 3.1-5.377 1.3-2.249.047-.078z"/><path d="M33.041 19.756c-1.282-3.494-3.289-6.308-5.538-6.308s-4.262 2.814-5.543 6.308a23.474 23.474 0 0 1 1.458 7.726 23.5 23.5 0 0 1-1.458 7.731c1.281 3.494 3.289 6.3 5.543 6.3s4.256-2.809 5.538-6.3a23.634 23.634 0 0 1-1.459-7.731 23.605 23.605 0 0 1 1.459-7.726z" style="fill:#ba0201"/><path d="M33.041 19.756a23.605 23.605 0 0 0-1.459 7.726 23.634 23.634 0 0 0 1.459 7.731 23.514 23.514 0 0 0 1.464-7.731 23.485 23.485 0 0 0-1.464-7.726zM21.96 19.756a23.452 23.452 0 0 0-1.46 7.726 23.48 23.48 0 0 0 1.46 7.731 23.5 23.5 0 0 0 1.458-7.731 23.474 23.474 0 0 0-1.458-7.726z"/><path d="M28.726 27.482c0 .983-.549 1.778-1.223 1.778s-1.229-.8-1.229-1.778.549-1.774 1.229-1.774 1.223.792 1.223 1.774zM25.987 19.531a13.217 13.217 0 0 0 1.2 6.036V13.49a13.255 13.255 0 0 0-1.2 6.041zM29.014 19.531a13.23 13.23 0 0 1-1.2 6.036V13.49a13.268 13.268 0 0 1 1.2 6.041zM29.014 35.438a13.276 13.276 0 0 0-1.2-6.042v12.078a13.236 13.236 0 0 0 1.2-6.036zM25.987 35.438a13.263 13.263 0 0 1 1.2-6.042v12.078a13.223 13.223 0 0 1-1.2-6.036z" style="fill:#fff"/></svg>