<svg xmlns="http://www.w3.org/2000/svg" viewBox="0 0 55 55"><path d="M50.8 27.5A23.295 23.295 0 0 1 7.328 39.147a23.294 23.294 0 1 1 40.344-23.3A23.172 23.172 0 0 1 50.8 27.5z" style="fill:#e7122c"/><path d="M27.076 24.759c.142.1.283.2.424.314.141-.11.282-.214.424-.314a12.202 12.202 0 0 0-.424-.308c-.141.099-.288.199-.424.308zM26.271 23.724a5.061 5.061 0 0 0-.439.319c.193.094.392.2.586.308.146-.109.287-.214.433-.313a7.854 7.854 0 0 0-.58-.314zM28.086 23.316c-.194-.115-.392-.22-.586-.319-.2.1-.392.2-.586.319.194.094.393.2.586.314.194-.115.392-.22.586-.314zM28.577 24.351c.2-.109.393-.214.591-.308a7.256 7.256 0 0 0-.439-.319 8.34 8.34 0 0 0-.585.314c.146.099.292.204.433.313zM27.5 25.994c-1.543 1.516-2.72 3.849-2.976 7.416a7.038 7.038 0 0 0 5.947 0c-.251-3.567-1.428-5.9-2.971-7.416zM25.915 24.765a8.782 8.782 0 0 0-.575-.319 12.944 12.944 0 0 0-3.776 6.338 6.548 6.548 0 0 0 .491.691 13.226 13.226 0 0 1 3.86-6.71z" style="fill:#feee1c"/><path d="M28.436 25.194c-.135.1-.272.209-.408.319a11.072 11.072 0 0 1 3.358 7.379 7.032 7.032 0 0 0 .706-.538 12.586 12.586 0 0 0-3.656-7.16zM26.972 25.513c-.136-.11-.272-.215-.408-.319a12.556 12.556 0 0 0-3.656 7.16 7.032 7.032 0 0 0 .706.538 11.072 11.072 0 0 1 3.358-7.379zM29.906 23.719a12.837 12.837 0 0 1 3.263-.79c-.078-.1-.156-.215-.24-.314a11.939 11.939 0 0 0-3.478.785c.149.1.303.209.455.319zM34.085 29.467a6.991 6.991 0 0 0-.649-6.141 12.178 12.178 0 0 0-3.039.78 12.593 12.593 0 0 1 3.688 5.361zM29.661 24.446c-.194.1-.388.2-.582.319a13.135 13.135 0 0 1 3.86 6.71 6.459 6.459 0 0 0 .5-.691 12.95 12.95 0 0 0-3.778-6.338zM31.585 21.355a7.011 7.011 0 0 0-8.17 0 14.081 14.081 0 0 1 4.085 1 14.081 14.081 0 0 1 4.085-1zM28.8 23a12.086 12.086 0 0 1 3.74-.816 6.28 6.28 0 0 0-.382-.366 12.31 12.31 0 0 0-3.949.863c.196.096.391.201.591.319zM24.6 24.106a12.158 12.158 0 0 0-3.044-.78 6.984 6.984 0 0 0-1.073 3.729 7.087 7.087 0 0 0 .424 2.412 12.652 12.652 0 0 1 3.693-5.361zM25.549 23.4a11.939 11.939 0 0 0-3.478-.785c-.084.1-.162.209-.24.314a12.938 12.938 0 0 1 3.263.79c.152-.11.306-.219.455-.319zM26.794 22.678a12.31 12.31 0 0 0-3.949-.863c-.136.115-.261.24-.387.366A12.056 12.056 0 0 1 26.2 23c.2-.118.4-.223.594-.322zM26.909 19.137a7.202 7.202 0 0 1 1.198 0v-.016a4.243 4.243 0 0 1-.162-1.61c.052-.827.209-1.182.209-2.166a2.446 2.446 0 0 0-.654-1.835 4.97 4.97 0 0 1 0 1.72c-.073.549-.539 1.93-.685 2.709a1.843 1.843 0 0 0 .084 1.182zM25.607 19.331c.188-.042.382-.084.58-.115s.4-.053.6-.074a.018.018 0 0 0-.005-.015 4.376 4.376 0 0 1-.408-1.559c-.079-.832.02-1.2-.131-2.176a2.449 2.449 0 0 0-.931-1.71 5.118 5.118 0 0 1 .267 1.7c.015.554-.231 1.987-.251 2.782a1.825 1.825 0 0 0 .261 1.151zM24.351 19.728c.184-.073.367-.146.555-.2s.392-.12.586-.167a.018.018 0 0 1-.006-.016 4.227 4.227 0 0 1-.648-1.48c-.209-.8-.167-1.187-.476-2.123a2.428 2.428 0 0 0-1.187-1.542 4.977 4.977 0 0 1 .533 1.637c.105.544.084 2 .183 2.787a1.875 1.875 0 0 0 .445 1.1zM23.175 20.314c.167-.1.34-.2.518-.288s.366-.178.549-.256l-.011-.011a4.354 4.354 0 0 1-.868-1.359 21.747 21.747 0 0 0-.8-2.024 2.458 2.458 0 0 0-1.412-1.345 5.239 5.239 0 0 1 .779 1.538c.183.523.392 1.961.618 2.72a1.89 1.89 0 0 0 .611 1.02zM22.1 21.083a6.811 6.811 0 0 1 .972-.706l-.01-.011a4.461 4.461 0 0 1-1.078-1.208c-.444-.7-.523-1.077-1.1-1.878a2.442 2.442 0 0 0-1.606-1.1 5.143 5.143 0 0 1 1.01 1.391c.266.487.7 1.878 1.035 2.594a1.856 1.856 0 0 0 .764.9zM21.166 22a7.293 7.293 0 0 1 .845-.847c-.006 0-.006 0-.011-.011a4.222 4.222 0 0 1-1.25-1.025c-.549-.622-.69-.978-1.386-1.678a2.449 2.449 0 0 0-1.762-.837 4.96 4.96 0 0 1 1.218 1.218c.34.44.984 1.747 1.428 2.4a1.884 1.884 0 0 0 .894.774zM20.382 23.06a7.857 7.857 0 0 1 .706-.968h-.011a4.434 4.434 0 0 1-1.4-.816c-.643-.533-.837-.863-1.631-1.444a2.415 2.415 0 0 0-1.868-.549 4.908 4.908 0 0 1 1.391 1.01c.4.382 1.245 1.569 1.789 2.144a1.856 1.856 0 0 0 1 .628zM19.776 24.231a7.275 7.275 0 0 1 .55-1.067c-.005-.005-.01-.005-.015-.01a4.252 4.252 0 0 1-1.507-.586c-.716-.424-.957-.722-1.835-1.166a2.447 2.447 0 0 0-1.936-.257 5.1 5.1 0 0 1 1.538.785c.455.314 1.47 1.355 2.1 1.841a1.857 1.857 0 0 0 1.093.46zM19.362 25.476c.048-.188.1-.377.157-.57s.136-.382.214-.565a.018.018 0 0 0-.015-.005 4.466 4.466 0 0 1-1.58-.345c-.774-.309-1.062-.565-2-.869a2.446 2.446 0 0 0-1.945.053 5.057 5.057 0 0 1 1.637.533c.5.236 1.668 1.109 2.358 1.486a1.843 1.843 0 0 0 1.151.287zM19.142 26.778c.021-.2.042-.392.074-.591s.073-.4.115-.6h-.016A4.332 4.332 0 0 1 17.7 25.5c-.811-.183-1.135-.387-2.108-.544a2.456 2.456 0 0 0-1.914.356 5.02 5.02 0 0 1 1.7.272c.528.156 1.82.836 2.563 1.1a1.849 1.849 0 0 0 1.182.1zM19.132 28.091a7.7 7.7 0 0 1 .005-1.198h-.016a4.35 4.35 0 0 1-1.61.162c-.827-.052-1.182-.209-2.166-.209a2.418 2.418 0 0 0-1.835.654 4.97 4.97 0 0 1 1.72 0c.549.073 1.931.539 2.7.685a1.855 1.855 0 0 0 1.187-.084zM19.331 29.393a8.054 8.054 0 0 1-.189-1.18h-.015a4.249 4.249 0 0 1-1.564.413c-.827.079-1.2-.02-2.171.131a2.449 2.449 0 0 0-1.71.931 5.1 5.1 0 0 1 1.7-.267c.554-.015 1.988.231 2.777.251a1.86 1.86 0 0 0 1.156-.266zM19.728 30.649c-.073-.184-.146-.367-.209-.555s-.115-.392-.162-.586c0 0-.011.006-.016.006a4.425 4.425 0 0 1-1.48.648c-.8.209-1.187.167-2.123.471A2.46 2.46 0 0 0 14.2 31.82a4.955 4.955 0 0 1 1.637-.528c.544-.105 2-.084 2.782-.183a1.9 1.9 0 0 0 1.1-.445zM20.314 31.825c-.1-.167-.2-.34-.288-.518s-.178-.366-.256-.549a.021.021 0 0 0-.011.006 4.314 4.314 0 0 1-1.359.873c-.764.329-1.151.35-2.03.8a2.449 2.449 0 0 0-1.339 1.412 5.05 5.05 0 0 1 1.538-.779c.518-.188 1.961-.4 2.72-.617a1.857 1.857 0 0 0 1.014-.612zM21.077 32.9a6.811 6.811 0 0 1-.7-.972c-.006 0-.011 0-.011.01a4.461 4.461 0 0 1-1.208 1.078c-.7.444-1.077.523-1.878 1.1a2.442 2.442 0 0 0-1.1 1.606 4.964 4.964 0 0 1 1.391-1.01c.487-.266 1.878-.7 2.594-1.035a1.856 1.856 0 0 0 .9-.764zM22 33.834c-.146-.131-.292-.262-.434-.4s-.282-.293-.413-.445l-.008.011a4.3 4.3 0 0 1-1.025 1.25c-.622.549-.983.69-1.678 1.386a2.44 2.44 0 0 0-.837 1.757 4.945 4.945 0 0 1 1.218-1.213c.44-.34 1.747-.984 2.4-1.433a1.855 1.855 0 0 0 .779-.9zM23.06 34.618c-.168-.1-.33-.214-.492-.329s-.324-.251-.476-.377c0 .005 0 .005-.01.011a4.288 4.288 0 0 1-.816 1.4c-.528.638-.863.832-1.438 1.632a2.439 2.439 0 0 0-.555 1.867 5.035 5.035 0 0 1 1.015-1.391c.382-.4 1.569-1.245 2.144-1.789a1.856 1.856 0 0 0 .628-1zM24.226 35.225c-.178-.079-.356-.162-.533-.251s-.361-.194-.534-.3a.018.018 0 0 1 0 .015 4.252 4.252 0 0 1-.586 1.507c-.424.716-.722.957-1.171 1.835a2.448 2.448 0 0 0-.252 1.93 5.073 5.073 0 0 1 .785-1.532c.314-.455 1.355-1.475 1.836-2.1a1.846 1.846 0 0 0 .465-1.093zM25.476 35.638a8.115 8.115 0 0 1-1.14-.371v.015a4.466 4.466 0 0 1-.345 1.58c-.309.774-.565 1.062-.868 2a2.442 2.442 0 0 0 .052 1.945 4.938 4.938 0 0 1 .533-1.637c.236-.5 1.109-1.668 1.486-2.364a1.823 1.823 0 0 0 .287-1.145zM26.773 35.858c-.193-.021-.387-.042-.586-.074s-.4-.073-.6-.12v.021A4.446 4.446 0 0 1 25.5 37.3c-.183.811-.392 1.135-.544 2.108a2.44 2.44 0 0 0 .356 1.914 5.02 5.02 0 0 1 .272-1.7c.157-.533.831-1.82 1.1-2.568a1.841 1.841 0 0 0 .105-1.177zM28.092 35.868a7.7 7.7 0 0 1-1.199-.005v.016a4.463 4.463 0 0 1 .162 1.61c-.052.827-.209 1.182-.209 2.166a2.418 2.418 0 0 0 .654 1.835 4.97 4.97 0 0 1 0-1.72c.069-.549.539-1.93.685-2.709a1.9 1.9 0 0 0-.084-1.182zM29.393 35.669c-.193.047-.387.084-.58.115s-.4.053-.607.074a.018.018 0 0 1 0 .015 4.273 4.273 0 0 1 .408 1.564c.079.827-.015 1.2.136 2.171a2.431 2.431 0 0 0 .931 1.71 5.122 5.122 0 0 1-.267-1.7c-.015-.554.231-1.987.251-2.782a1.852 1.852 0 0 0-.266-1.151zM30.649 35.272c-.184.073-.367.146-.56.2s-.387.12-.581.167a.018.018 0 0 0 .006.016 4.425 4.425 0 0 1 .648 1.48c.2.8.167 1.187.471 2.123a2.428 2.428 0 0 0 1.187 1.543 4.955 4.955 0 0 1-.528-1.637c-.105-.544-.084-2-.188-2.782a1.865 1.865 0 0 0-.445-1.1zM31.825 34.686c-.167.1-.34.2-.518.288s-.366.178-.548.256a.019.019 0 0 0 0 .011 4.359 4.359 0 0 1 .873 1.359c.329.764.35 1.151.8 2.03a2.449 2.449 0 0 0 1.412 1.339 5.121 5.121 0 0 1-.779-1.538c-.188-.518-.4-1.961-.617-2.72a1.894 1.894 0 0 0-.612-1.02zM32.892 33.923c-.146.125-.3.245-.459.366s-.336.23-.508.334c0 .006 0 .011.01.011a4.385 4.385 0 0 1 1.073 1.208c.449.7.528 1.077 1.108 1.878a2.442 2.442 0 0 0 1.606 1.1 4.939 4.939 0 0 1-1.01-1.391c-.266-.487-.7-1.878-1.041-2.594a1.86 1.86 0 0 0-.758-.905zM33.834 33c-.131.146-.262.293-.4.434s-.293.282-.445.413l.011.011a4.3 4.3 0 0 1 1.25 1.025c.549.622.69.983 1.386 1.678a2.44 2.44 0 0 0 1.757.837 5.051 5.051 0 0 1-1.213-1.218c-.34-.44-.984-1.747-1.433-2.4a1.859 1.859 0 0 0-.9-.774zM34.613 31.94c-.1.162-.209.33-.33.492s-.245.319-.376.476h.016a4.43 4.43 0 0 1 1.4.821c.638.528.832.858 1.632 1.439a2.442 2.442 0 0 0 1.867.554 5.035 5.035 0 0 1-1.391-1.015c-.4-.382-1.245-1.569-1.789-2.144a1.856 1.856 0 0 0-1-.628zM35.22 30.769a7.232 7.232 0 0 1-.546 1.067c0 .005.01.005.015.01a4.252 4.252 0 0 1 1.507.586c.716.424.957.722 1.835 1.166a2.435 2.435 0 0 0 1.931.257 5.009 5.009 0 0 1-1.533-.785c-.455-.314-1.475-1.355-2.1-1.836a1.835 1.835 0 0 0-1.087-.465zM35.638 29.524c-.047.188-.1.377-.162.57s-.136.382-.209.57h.015a4.466 4.466 0 0 1 1.58.345c.774.309 1.056.565 2 .869a2.446 2.446 0 0 0 1.945-.053 5.057 5.057 0 0 1-1.637-.533c-.5-.236-1.668-1.109-2.364-1.486a1.839 1.839 0 0 0-1.15-.287zM35.852 28.227a7.165 7.165 0 0 1-.188 1.186h.016a4.357 4.357 0 0 1 1.62.087c.811.183 1.135.392 2.108.544a2.456 2.456 0 0 0 1.914-.356 5 5 0 0 1-1.7-.272c-.533-.156-1.82-.836-2.568-1.1a1.852 1.852 0 0 0-1.182-.1zM35.863 26.909a7.202 7.202 0 0 1 0 1.198h.016a4.35 4.35 0 0 1 1.61-.162c.827.052 1.182.209 2.166.209a2.427 2.427 0 0 0 1.835-.654 4.97 4.97 0 0 1-1.72 0c-.549-.068-1.93-.539-2.709-.685a1.843 1.843 0 0 0-1.182.084zM35.669 25.607c.042.193.084.387.115.58s.053.4.074.6h.015a4.27 4.27 0 0 1 1.559-.408c.832-.084 1.2.015 2.176-.136a2.449 2.449 0 0 0 1.71-.931 5.114 5.114 0 0 1-1.7.267c-.554.015-1.993-.231-2.782-.251a1.877 1.877 0 0 0-1.156.266zM35.272 24.351c.073.184.142.367.2.555s.115.392.167.586a.018.018 0 0 0 .016-.006 4.385 4.385 0 0 1 1.475-.648c.8-.209 1.192-.167 2.128-.471a2.46 2.46 0 0 0 1.543-1.187 4.955 4.955 0 0 1-1.637.528c-.544.105-2 .084-2.787.188a1.855 1.855 0 0 0-1.1.44zM34.686 23.175c.1.167.2.34.288.518s.172.366.251.549c0 0 .01-.006.016-.006a4.359 4.359 0 0 1 1.359-.873 21.747 21.747 0 0 0 2.024-.8 2.435 2.435 0 0 0 1.34-1.412 5.031 5.031 0 0 1-1.533.779c-.523.188-1.961.4-2.72.617a1.866 1.866 0 0 0-1.02.612zM33.917 22.1c.126.151.251.308.366.465s.236.335.34.507l.011-.01a4.37 4.37 0 0 1 1.208-1.072c.7-.45 1.077-.529 1.878-1.109a2.442 2.442 0 0 0 1.1-1.606 4.939 4.939 0 0 1-1.391 1.01c-.487.266-1.878.7-2.594 1.035a1.888 1.888 0 0 0-.91.764zM33 21.166c.146.131.293.262.434.4s.282.293.414.445c0-.006 0-.006.01-.011a4.261 4.261 0 0 1 1.019-1.25c.628-.549.984-.69 1.684-1.386a2.44 2.44 0 0 0 .839-1.754 5.016 5.016 0 0 1-1.218 1.213c-.44.34-1.747.984-2.4 1.433a1.848 1.848 0 0 0-.779.895zM31.935 20.387c.167.1.335.209.5.324s.318.251.475.377v-.011a4.489 4.489 0 0 1 .816-1.4c.534-.638.863-.832 1.444-1.632a2.433 2.433 0 0 0 .549-1.867 5.008 5.008 0 0 1-1.01 1.391c-.382.4-1.569 1.245-2.144 1.789a1.856 1.856 0 0 0-.628 1zM30.769 19.78a7.232 7.232 0 0 1 1.067.546.018.018 0 0 0 .005-.015 4.383 4.383 0 0 1 .592-1.507c.423-.716.721-.957 1.165-1.835a2.425 2.425 0 0 0 .251-1.93 4.911 4.911 0 0 1-.779 1.532c-.314.455-1.355 1.475-1.84 2.1a1.855 1.855 0 0 0-.461 1.093zM29.524 19.362c.189.047.377.1.565.162s.387.131.57.209c0 0 .005-.01.005-.015a4.489 4.489 0 0 1 .345-1.58c.309-.774.565-1.062.869-2a2.446 2.446 0 0 0-.053-1.945 5.181 5.181 0 0 1-.533 1.637c-.241.5-1.108 1.668-1.491 2.364a1.883 1.883 0 0 0-.287 1.15zM28.222 19.148c.2.015.393.036.591.068s.4.073.6.12v-.016a4.234 4.234 0 0 1 .1-1.616c.177-.811.386-1.135.543-2.108a2.456 2.456 0 0 0-.356-1.914 5.147 5.147 0 0 1-.272 1.7c-.156.533-.836 1.82-1.1 2.568a1.835 1.835 0 0 0-.1 1.177z" style="fill:#feee1c"/></svg>