<svg xmlns="http://www.w3.org/2000/svg" viewBox="0 0 55 55"><path d="M10.764 43.687a23.264 23.264 0 0 0 36.9-4.54H7.333a23.269 23.269 0 0 0 3.431 4.54z" style="fill:#3b75c2"/><path d="M4.2 27.5a23.163 23.163 0 0 0 1.334 7.767 22.7 22.7 0 0 0 1.8 3.88h40.333A23.105 23.105 0 0 0 50.8 27.5H4.2z" style="fill:#cd1225"/><path d="M27.5 4.2A23.389 23.389 0 0 0 7.333 15.847h40.334A23.3 23.3 0 0 0 27.5 4.2z" style="fill:#fec527"/><path d="M47.667 15.847H7.333A23.167 23.167 0 0 0 4.2 27.5h46.6a23.167 23.167 0 0 0-3.133-11.653z" style="fill:#fff"/><path d="m32.3 27.5-10.333 7.767-11.2 8.42a23.234 23.234 0 0 1 0-32.374l11.2 8.42z" style="fill:#3b8d35"/><path d="M11.37 27.5a7.836 7.836 0 0 1 6.088-7.636 7.656 7.656 0 0 0-1.747-.2 7.835 7.835 0 0 0 0 15.67 7.656 7.656 0 0 0 1.747-.2A7.836 7.836 0 0 1 11.37 27.5z" style="fill:#fff"/><path style="fill:#fff" d="m17.458 20.455.33 1.009h1.056l-.858.623.33 1.009-.858-.627-.857.627.329-1.009-.858-.623h1.057l.329-1.009zM17.458 31.632l.33 1.009h1.056l-.858.623.33 1.009-.858-.622-.857.622.329-1.009-.858-.623h1.057l.329-1.009zM17.458 27.908l.33 1.009h1.056l-.858.623.33 1.009-.858-.622-.857.622.329-1.009-.858-.623h1.057l.329-1.009zM17.458 24.179l.33 1.009h1.056l-.858.623.33 1.009-.858-.622-.857.622.329-1.009-.858-.623h1.057l.329-1.009z"/></svg>