<svg xmlns="http://www.w3.org/2000/svg" viewBox="0 0 55 55"><path d="M50.8 27.5a23.172 23.172 0 0 1-4.867 14.235H9.067a23.251 23.251 0 0 1 0-28.47h36.866A23.149 23.149 0 0 1 50.8 27.5z" style="fill:#ec1c26"/><path d="M44.851 11.968h-34.7a23.262 23.262 0 0 1 34.7 0zM44.857 43.026a23.262 23.262 0 0 1-34.713 0z" style="fill:#084fa0"/><path d="M45.933 41.735c-.345.444-.7.873-1.076 1.291H10.144a23.745 23.745 0 0 1-1.077-1.291zM45.933 13.265H9.067c.346-.444.7-.878 1.082-1.3h34.7c.383.422.744.856 1.084 1.3zM32.634 27.5a10.448 10.448 0 1 1-10.445-10.45A10.442 10.442 0 0 1 32.634 27.5z" style="fill:#fff"/><path style="fill:#ec1c26" d="m22.189 17.379 2.274 6.995h7.35l-5.949 4.318 2.274 6.995-5.949-4.324-5.95 4.324 2.275-6.995-5.95-4.318h7.351l2.274-6.995z"/></svg>