<svg xmlns="http://www.w3.org/2000/svg" viewBox="0 0 55 55"><path d="M48.865 36.794a22.465 22.465 0 0 1-1.193 2.359 23.292 23.292 0 0 1-40.344 0 22.659 22.659 0 0 1-1.193-2.359z" style="fill:#009444"/><path d="M50.8 27.5a23.148 23.148 0 0 1-1.935 9.294H6.135a23.288 23.288 0 0 1 0-18.588h42.73A23.166 23.166 0 0 1 50.8 27.5z" style="fill:#fff"/><path d="M48.865 18.206H6.135a22.467 22.467 0 0 1 1.193-2.353 23.323 23.323 0 0 1 41.537 2.353z" style="fill:#07219d"/><path d="m33.7 31.271-.413.209a4.846 4.846 0 0 1-.34.167l-3.5-4.775a12.652 12.652 0 0 0 1.03-3.106 4.112 4.112 0 0 0-.544-3.295 2.84 2.84 0 0 0-1.888-1.13.573.573 0 0 0-.544-.382.585.585 0 0 0-.549.382 2.854 2.854 0 0 0-1.883 1.13 4.137 4.137 0 0 0-.544 3.295 12.626 12.626 0 0 0 1.031 3.106l-3.5 4.775c-.116-.052-.226-.1-.341-.167l-.413-.209-1.443 2.829.414.209a15.895 15.895 0 0 0 14.45 0l.418-.209zm-5.619-11.145a2.058 2.058 0 0 1 1.234.795 3.27 3.27 0 0 1 .418 2.677.8.8 0 0 0-.026.126 12.581 12.581 0 0 1-.779 2.448l-.643-.884V23.63h.889l-1.093-1.093zm-2.783 3.6a2.342 2.342 0 0 0-.031-.126 3.293 3.293 0 0 1 .418-2.677 2.058 2.058 0 0 1 1.234-.795v2.411l-1.093 1.091h.889v1.658l-.643.884a11.717 11.717 0 0 1-.772-2.448zm-3.582 8.818.245.7-.732.225zm-.246 1.3.638-.193.183.528a16.615 16.615 0 0 1-.821-.335zm.915-1.375c.361.151.717.282 1.078.4l.224.508-.889.266zm.7 1.977-.136-.382.92-.283.435.984a16.254 16.254 0 0 1-1.223-.319zm1.208-1.334c.345.089.7.167 1.046.225l.272.444-.9.278zm.789 1.8-.193-.45.957-.293.55.9a16.68 16.68 0 0 1-1.318-.158zm1.094-1.459a12.943 12.943 0 0 0 1.61.068l.183.282-1.323.419zm1.005 1.647-.3-.5 1.333-.418.56.868a14.776 14.776 0 0 1-1.593.05zm1.355-1.627c.423-.031.847-.089 1.265-.162l.246.329-1.072.518zm.962 1.5-.282-.44 1.1-.533.538.727c-.454.106-.901.184-1.354.247zm1.009-1.81c.377-.094.749-.2 1.12-.324l.261.376-.888.608zm1.031 1.391-.278-.376.869-.6.439.643c-.34.13-.68.24-1.03.334zm.727-1.945c.287-.11.575-.236.863-.372l.235.45-.57.7zm.931 1.375-.147-.214.534-.664.3.575a9.51 9.51 0 0 1-.683.304z"/></svg>