<svg xmlns="http://www.w3.org/2000/svg" viewBox="0 0 55 55"><path d="M47.672 15.853H7.328a23.286 23.286 0 0 1 40.344 0z" style="fill:#e70013"/><path d="M47.667 39.153a23.288 23.288 0 0 1-40.339 0z" style="fill:#239e46"/><path d="M50.8 27.5a23.112 23.112 0 0 1-3.133 11.653H7.328a23.259 23.259 0 0 1 0-23.3h40.344A23.133 23.133 0 0 1 50.8 27.5z"/><path d="M26.255 32.557a5.055 5.055 0 1 1 3.18-8.985 5.868 5.868 0 1 0 0 7.856 5.027 5.027 0 0 1-3.18 1.129z" style="fill:#fff"/><path style="fill:#fff" d="m30.947 23.389 1.846 2.542 2.991-.968-1.851 2.542 1.846 2.542-2.986-.973-1.852 2.542.006-3.143-2.992-.973 2.992-.968v-3.143z"/></svg>