<svg xmlns="http://www.w3.org/2000/svg" viewBox="0 0 55 55"><path d="M50.8 27.5c0 .779-.042 1.548-.115 2.311a22.922 22.922 0 0 1-2.348 8.1 23.284 23.284 0 0 1-39.619 3.361 23.334 23.334 0 0 1-4.4-11.458 22.323 22.323 0 0 1 0-4.623 23.329 23.329 0 0 1 4.4-11.463 23.275 23.275 0 0 1 37.564 0 23.651 23.651 0 0 1 2.055 3.357 22.984 22.984 0 0 1 2.348 8.106c.073.758.115 1.532.115 2.309z" style="fill:#d10201"/><path d="m21.055 32.774-12.337 8.5a22.9 22.9 0 0 1-2.05-3.357l13.377-6.689a8.223 8.223 0 0 0 1.01 1.546zM48.337 37.915a23.373 23.373 0 0 1-2.055 3.357l-12.331-8.5a8.5 8.5 0 0 0 1-1.548zM48.337 17.085l-13.382 6.694a8.539 8.539 0 0 0-1-1.553l12.331-8.5a23.651 23.651 0 0 1 2.051 3.359zM21.055 22.226a8.26 8.26 0 0 0-1.01 1.553L6.668 17.085a22.9 22.9 0 0 1 2.05-3.357zM32.058 50.35a23.278 23.278 0 0 1-9.11 0l3.4-14.6a8.085 8.085 0 0 0 2.311 0zM32.058 4.65l-3.4 14.6a8.6 8.6 0 0 0-2.311 0l-3.4-14.6a23.278 23.278 0 0 1 9.11 0zM19.167 27.5c0 .272.016.549.042.815L4.32 29.814a22.323 22.323 0 0 1 0-4.623l14.889 1.491a8.567 8.567 0 0 0-.042.818zM50.8 27.5c0 .779-.042 1.548-.115 2.311l-14.894-1.5a8.145 8.145 0 0 0 .042-.815c0-.278-.015-.549-.042-.821l14.894-1.491c.073.765.115 1.539.115 2.316zM34.149 27.5c0 .219-.01.434-.031.648a6.607 6.607 0 0 1-.669 2.322 6.487 6.487 0 0 1-.889 1.344 6.614 6.614 0 0 1-4.289 2.286 6.057 6.057 0 0 1-.768.047 6.152 6.152 0 0 1-.774-.047 6.6 6.6 0 0 1-4.283-2.285 6.473 6.473 0 0 1-.9-1.344 6.607 6.607 0 0 1-.669-2.322 6.617 6.617 0 0 1 0-1.302 6.655 6.655 0 0 1 5.852-5.947 6.21 6.21 0 0 1 .774-.047 6.057 6.057 0 0 1 .768.047 6.642 6.642 0 0 1 5.847 5.951c.021.212.031.432.031.649z" style="fill:#fee51b"/></svg>