<svg xmlns="http://www.w3.org/2000/svg" viewBox="0 0 55 55"><path d="M49.467 35.265a23.3 23.3 0 0 1-43.934 0z" style="fill:#e92838"/><path d="M50.8 27.5a23.193 23.193 0 0 1-1.333 7.768H5.533a23.283 23.283 0 0 1 0-15.53h43.94A23.306 23.306 0 0 1 50.8 27.5z" style="fill:#31b137"/><path d="M49.473 19.735H5.533a23.3 23.3 0 0 1 43.94 0z" style="fill:#fdca16"/><path style="fill:#fff" d="m27.505 11.957 3.858 11.871h12.484l-10.1 7.339 3.859 11.876-10.101-7.339L17.4 43.043l3.858-11.876-10.1-7.339h12.484l3.863-11.871z"/></svg>