<svg xmlns="http://www.w3.org/2000/svg" viewBox="0 0 55 55"><path d="M49.466 19.737H5.534a23.3 23.3 0 0 1 43.932 0z"/><path d="M50.8 27.5a23 23 0 0 1-1.334 7.765H5.539a23.228 23.228 0 0 1 0-15.531h43.927A23.008 23.008 0 0 1 50.8 27.5z" style="fill:#cd1225"/><path d="M49.466 35.268a23.3 23.3 0 0 1-43.927 0z" style="fill:#309d37"/><path d="M27.5 11.893a10.08 10.08 0 0 0-9.5 6.725h19.009a10.083 10.083 0 0 0-9.509-6.725zM27.5 10.737c.241 0 .439-3.865.439-4.105s-.2-.549-.439-.549-.434.308-.434.549.193 4.105.434 4.105zM26.522 10.784c.241-.021.1-3.891.079-4.131s-.241-.529-.482-.508-.413.34-.392.581.554 4.079.795 4.058zM25.549 10.909c.241-.041-.24-3.885-.282-4.12s-.287-.508-.523-.466-.377.377-.335.617.905 4.011 1.14 3.969zM24.592 11.124c.235-.063-.575-3.849-.638-4.084s-.329-.476-.565-.414a.547.547 0 0 0-.282.638c.062.236 1.255 3.923 1.485 3.86zM23.661 11.417c.225-.084-.915-3.786-.994-4.011s-.371-.445-.6-.366a.548.548 0 0 0-.22.664c.078.225 1.584 3.796 1.814 3.713zM22.756 11.793c.22-.1-1.239-3.692-1.344-3.911s-.407-.414-.622-.309a.54.54 0 0 0-.168.68c.1.219 1.915 3.64 2.134 3.54zM21.883 12.243c.209-.12-1.553-3.567-1.674-3.776a.547.547 0 0 0-.653-.256.541.541 0 0 0-.105.69c.12.209 2.228 3.462 2.432 3.342zM21.057 12.771c.2-.141-1.857-3.42-2-3.619a.535.535 0 0 0-.669-.193.54.54 0 0 0-.048.7c.143.194 2.523 3.248 2.717 3.112zM20.282 13.367c.184-.157-2.154-3.242-2.306-3.43a.543.543 0 0 0-.685-.136.54.54 0 0 0 .016.7c.151.184 2.787 3.018 2.975 2.866zM19.561 14.026c.167-.167-2.426-3.043-2.6-3.211a.539.539 0 0 0-.7-.078.545.545 0 0 0 .078.7c.178.168 3.049 2.763 3.222 2.589zM18.9 14.753c.156-.188-2.684-2.824-2.867-2.975a.545.545 0 0 0-.7-.021.542.542 0 0 0 .141.685c.18.158 3.266 2.494 3.426 2.311zM14.686 13.529c.194.136 3.478 2.2 3.614 2s-2.918-2.573-3.117-2.714a.541.541 0 0 0-.7.047c-.137.192.005.526.203.667zM14 14.68c.21.12 3.656 1.883 3.776 1.673s-3.128-2.311-3.337-2.431a.541.541 0 0 0-.69.1.539.539 0 0 0 .251.658zM13.41 15.883c.22.1 3.808 1.558 3.912 1.338s-3.322-2.029-3.54-2.128a.54.54 0 0 0-.68.162.551.551 0 0 0 .308.628zM12.934 17.133c.23.083 3.928 1.223 4.012 1s-3.484-1.736-3.714-1.819a.548.548 0 0 0-.659.224c-.083.223.136.511.361.595zM12.155 17.859c-.063.231.183.5.413.565.069.016.419.094.894.194H15.8c-1.088-.434-2.845-1-3-1.041a.544.544 0 0 0-.645.282zM42.432 18.424c.235-.063.481-.334.418-.565a.544.544 0 0 0-.643-.282 48.22 48.22 0 0 0-3 1.041h2.338c.468-.1.824-.178.887-.194zM38.055 18.131c.083.225 3.786-.915 4.011-1s.45-.372.366-.6a.552.552 0 0 0-.664-.224c-.225.093-3.792 1.593-3.713 1.824zM37.683 17.221c.1.22 3.687-1.234 3.907-1.338a.549.549 0 0 0 .314-.628.542.542 0 0 0-.68-.162c-.224.099-3.646 1.914-3.541 2.128zM37.228 16.353c.12.21 3.572-1.553 3.776-1.673a.547.547 0 0 0 .256-.654.541.541 0 0 0-.69-.1c-.209.116-3.462 2.218-3.342 2.427zM36.705 15.527c.136.2 3.415-1.862 3.614-2a.545.545 0 0 0 .2-.669.55.55 0 0 0-.7-.047c-.195.143-3.255 2.517-3.114 2.716zM36.109 14.753c.151.183 3.242-2.154 3.425-2.311a.541.541 0 0 0 .136-.685.538.538 0 0 0-.7.021c-.183.151-3.018 2.787-2.861 2.975zM35.444 14.026c.173.173 3.044-2.421 3.217-2.594a.546.546 0 0 0 .074-.7.541.541 0 0 0-.7.078c-.164.173-2.763 3.049-2.591 3.216zM34.723 13.367c.183.152 2.819-2.682 2.976-2.865a.545.545 0 0 0 .015-.7.543.543 0 0 0-.685.136c-.157.187-2.495 3.272-2.306 3.429zM33.943 12.771c.2.136 2.579-2.918 2.715-3.117a.533.533 0 0 0-.042-.7.544.544 0 0 0-.675.193c-.135.204-2.196 3.483-1.998 3.624zM33.117 12.243c.209.12 2.312-3.133 2.432-3.342a.541.541 0 0 0-.1-.69.541.541 0 0 0-.648.256c-.125.209-1.893 3.656-1.684 3.776zM32.249 11.793c.22.1 2.029-3.321 2.134-3.54a.546.546 0 0 0-.168-.68c-.219-.105-.523.089-.627.309s-1.559 3.807-1.339 3.911zM31.344 11.417c.226.083 1.731-3.488 1.815-3.713a.542.542 0 0 0-.225-.664c-.225-.079-.512.141-.6.366s-1.215 3.927-.99 4.011zM30.408 11.124c.235.063 1.423-3.624 1.485-3.86a.543.543 0 0 0-.277-.638c-.235-.062-.5.178-.565.414s-.873 4.021-.643 4.084zM29.451 10.909c.24.042 1.1-3.733 1.145-3.969s-.1-.575-.334-.617-.487.225-.529.466-.517 4.079-.282 4.12zM28.484 10.784c.235.021.768-3.818.789-4.058s-.146-.56-.387-.581-.46.267-.481.508-.162 4.11.079 4.131z" style="fill:#cd1225"/></svg>