<svg xmlns="http://www.w3.org/2000/svg" viewBox="0 0 55 55"><clipPath id="b"><circle cx="27.5" cy="27.5" r="23.3" fill="none"/></clipPath><radialGradient id="a" data-name="New Gradient 53" cx="40190.73" cy="-13412.03" r="11.71" gradientTransform="matrix(.04 0 0 .04 -1568.73 558.58)" gradientUnits="userSpaceOnUse"><stop offset="0" stop-color="#fff"/><stop offset=".75" stop-color="#f05870"/><stop offset="1" stop-color="#f05770"/></radialGradient><radialGradient id="c" cx="24304.7" cy="-45350.71" r="11.72" gradientTransform="rotate(40.75 -1630.735 -1769.001) scale(.03)" href="#a"/><radialGradient id="d" cx="-2976.49" cy="-40501.74" r="11.72" gradientTransform="matrix(.01 .04 -.04 .01 -1537.16 689.82)" href="#a"/><g clip-path="url(#b)"><path fill="#f1f0f0" fill-rule="evenodd" d="M15.84 4.18h23.54v46.64H15.84V4.18z"/><path fill="#48b649" fill-rule="evenodd" d="M-7.48 4.18h23.32v46.64H-7.48V4.18z"/><path fill="#ee2724" fill-rule="evenodd" d="M39.38 4.18h23.1v46.64h-23.1V4.18z"/><g fill-rule="evenodd"><path d="m19.59 29-.46-.29v.07l.19.17.31.27V29zM18.76 28.53c.05-.06.16 0 .21 0l.08.09-.07.11a.37.37 0 0 1-.14 0c-.06 0-.12-.11-.08-.18z" fill="#fcca3e" stroke="#aa8c30" stroke-miterlimit="2.41" stroke-width=".02"/><path fill="#aa8c30" d="m19.3 28.96-.02-.14-.15-.09v.07l.17.16z"/><path d="M19.18 28.8a.25.25 0 0 0 0-.26.1.1 0 0 0-.17 0 .21.21 0 0 1-.08.15c-.06.05-.09.11 0 .16s.18 0 .24-.09zM19.59 28.93l.31-.44v.05l-.11.23-.18.37-.06-.21zM20.16 28.16c-.07 0-.15 0-.18.11v.11l.11.07a.35.35 0 0 0 .11-.1c0-.05.07-.15 0-.19z" fill="#fcca3e" stroke="#aa8c30" stroke-miterlimit="2.41" stroke-width=".02"/><path fill="#aa8c30" d="m19.83 28.77-.03-.14.1-.14.03.06-.1.22z"/><path d="M19.88 28.57c-.07-.05-.14-.16-.11-.24a.1.1 0 0 1 .17 0 .2.2 0 0 0 .13.11c.08 0 .12.07.07.14s-.18 0-.26 0z" fill="#fcca3e" stroke="#aa8c30" stroke-miterlimit="2.41" stroke-width=".02"/><g><path d="M21 31.6h-.54v.06h.25l.41.05-.12-.11zM20.1 31.67c0-.08.12-.11.19-.09h.12v.13a.35.35 0 0 1-.14 0c-.07 0-.16 0-.17-.1z" fill="#fcca3e" stroke="#aa8c30" stroke-miterlimit="2.41" stroke-width=".02"/><path fill="#aa8c30" d="m20.79 31.71-.1-.1-.18.01.04.06.24.03z"/><path d="M20.6 31.65c0-.09-.06-.21-.14-.22a.1.1 0 0 0-.11.13.2.2 0 0 1 0 .17c0 .08 0 .14.08.14s.14-.12.14-.21z" fill="#fcca3e" stroke="#aa8c30" stroke-miterlimit="2.41" stroke-width=".02"/></g><g><path d="m21.06 31.6.07-.54h.06V31.72l-.16-.16zM21.2 30.65c-.08 0-.11.11-.11.18v.12h.13a.35.35 0 0 0 .05-.14c0-.07 0-.16-.09-.17z" fill="#fcca3e" stroke="#aa8c30" stroke-miterlimit="2.41" stroke-width=".02"/><path fill="#aa8c30" d="m21.19 31.34-.09-.1.02-.18.05.04.02.24z"/><path d="M21.14 31.15c-.09 0-.2-.08-.21-.16a.1.1 0 0 1 .14-.1.21.21 0 0 0 .17 0c.08 0 .14 0 .13.09s-.13.12-.22.13z" fill="#fcca3e" stroke="#aa8c30" stroke-miterlimit="2.41" stroke-width=".02"/></g><g><path d="m23.3 33.6-.53.1v.06h.66l-.17-.15zM22.36 33.79c0-.08.11-.12.17-.12h.12v.13a.35.35 0 0 1-.13.06c-.07 0-.16 0-.18-.08z" fill="#fcca3e" stroke="#aa8c30" stroke-miterlimit="2.41" stroke-width=".02"/><path fill="#aa8c30" d="m23.05 33.75-.11-.09-.17.03.04.05.24.01z"/><path d="M22.86 33.71c0-.09-.09-.19-.17-.2a.1.1 0 0 0-.09.14.2.2 0 0 1 0 .17c0 .08 0 .14.1.12s.12-.14.12-.23z" fill="#fcca3e" stroke="#aa8c30" stroke-miterlimit="2.41" stroke-width=".02"/></g><g><path d="m23.32 33.66-.05-.54h.06l.07.24.11.4-.19-.12zM23.25 32.7c-.08 0-.09.13-.07.2v.11h.13a.35.35 0 0 0 0-.14c0-.07 0-.16-.12-.15z" fill="#fcca3e" stroke="#aa8c30" stroke-miterlimit="2.41" stroke-width=".02"/><path fill="#aa8c30" d="m23.39 33.38-.11-.09-.02-.17.06.03.07.23z"/><path d="M23.3 33.2c-.09 0-.21 0-.24-.11a.1.1 0 0 1 .11-.13.2.2 0 0 0 .17 0c.08 0 .14 0 .15.06s-.1.15-.19.17z" fill="#fcca3e" stroke="#aa8c30" stroke-miterlimit="2.41" stroke-width=".02"/></g></g><path fill="#fcca3e" stroke="#aa8c30" stroke-miterlimit="2.41" stroke-width=".02" fill-rule="evenodd" d="m34.81 29.08-.39-.38.08-.07.07.05.26.2-.02.2z"/><path fill="#aa8c30" fill-rule="evenodd" d="m34.57 28.68-.01.16-.13-.14.07-.07.07.05z"/><circle cx="34.39" cy="28.6" r=".15" fill="#fcca3e" stroke="#aa8c30" stroke-miterlimit="2.41" stroke-width=".02"/><path fill="#fcca3e" stroke="#aa8c30" stroke-miterlimit="2.41" stroke-width=".02" fill-rule="evenodd" d="m34.83 29.09.57-.17-.03-.1-.09.02-.4.05-.05.2z"/><path fill="#aa8c30" fill-rule="evenodd" d="m35.28 28.84-.06.14.18-.06-.03-.1-.09.02z"/><circle cx="35.48" cy="28.84" r=".15" transform="rotate(-63.78 35.473 28.838)" fill="#fcca3e" stroke="#aa8c30" stroke-miterlimit="2.41" stroke-width=".02"/><path fill="#fcca3e" stroke="#aa8c30" stroke-miterlimit="2.41" stroke-width=".02" fill-rule="evenodd" d="m33.5 31.7-.34-.59.08-.06.06.07.31.43-.11.15z"/><path fill="#aa8c30" fill-rule="evenodd" d="m33.3 31.12-.04.15-.1-.16.08-.06.06.07z"/><circle cx="33.15" cy="31" r=".15" transform="rotate(-76.24 33.15 30.994)" fill="#fcca3e" stroke="#aa8c30" stroke-miterlimit="2.41" stroke-width=".02"/><path fill="#fcca3e" stroke="#aa8c30" stroke-miterlimit="2.41" stroke-width=".02" fill-rule="evenodd" d="m33.49 31.7.54.1.01-.11-.08-.02-.35-.12-.12.15z"/><path fill="#aa8c30" fill-rule="evenodd" d="m33.96 31.67-.12.1.18.03.02-.11-.08-.02z"/><circle cx="34.13" cy="31.76" r=".15" transform="rotate(-37.45 34.13 31.764)" fill="#fcca3e" stroke="#aa8c30" stroke-miterlimit="2.41" stroke-width=".02"/><path fill="#fcca3e" stroke="#aa8c30" stroke-miterlimit="2.41" stroke-width=".02" fill-rule="evenodd" d="m31.14 33.58-.01-.55h.1l.01.09.06.32-.16.14z"/><path fill="#aa8c30" fill-rule="evenodd" d="m31.24 33.12-.11.11v-.19l.1-.01.01.09z"/><circle cx="31.18" cy="32.94" r=".15" transform="rotate(-45.94 31.183 32.936)" fill="#fcca3e" stroke="#aa8c30" stroke-miterlimit="2.41" stroke-width=".02"/><path fill="#fcca3e" stroke="#aa8c30" stroke-miterlimit="2.41" stroke-width=".02" fill-rule="evenodd" d="m31.15 33.6.53.27.04-.09-.07-.05-.33-.24-.17.11z"/><path fill="#aa8c30" fill-rule="evenodd" d="m31.65 33.73-.15.06.17.08.05-.09-.07-.05z"/><circle cx="31.78" cy="33.87" r=".15" transform="rotate(-19.54 31.78 33.876)" fill="#fcca3e" stroke="#aa8c30" stroke-miterlimit="2.41" stroke-width=".02"/><path d="m23 30.83 1.26.63c.28.13.46.07.39-.2s.1-.22.22 0a1.29 1.29 0 0 0 .48.53c.18.08.49-.06.49-.06s2.62.19 2.88.25a2.4 2.4 0 0 0 .82 0c.18 0 .58-.15.79-.2s.36 0 .35 0-.14.17-.39.24-.68.16-.69.31.28.24.44.29-.12.11-.28.15a2.23 2.23 0 0 0-.91.36c-.28.23-.32.31-.63.34s-1.17 0-1.47 0a1 1 0 0 1-.68-.18 1.61 1.61 0 0 0-.61-.37 2.72 2.72 0 0 0-.87 0c-.24 0-.14-.14.08-.23s.3-.13.3-.24-.09-.23-.45-.32a3.6 3.6 0 0 0-.9-.13c-.33 0-.24-.08-.2-.12s.34-.07.36-.17 0-.17-.28-.34l-.57-.35c-.17-.11-.2-.41.08-.28z" fill="#32c2dc" stroke="#0972a7" stroke-miterlimit="2.41" stroke-width=".04" fill-rule="evenodd"/><path d="M25.65 32a.33.33 0 0 1 0-.5.29.29 0 0 1 .2-.09.25.25 0 0 1 .22.11h1.35a4.3 4.3 0 0 1 1 .15.29.29 0 0 1 .27-.12.28.28 0 0 1 .18.1.37.37 0 0 1 .09.21.35.35 0 0 1 0 .12.72.72 0 0 1-.09.17.57.57 0 0 1 0 .6.34.34 0 0 1 .13.41.29.29 0 0 1-.05.09.25.25 0 0 1-.17.08.39.39 0 0 1-.17 0h-.06a.34.34 0 0 1-.15.09h-1.93a.87.87 0 0 1-.23 0 .46.46 0 0 1-.15-.12.46.46 0 0 1-.28.1.3.3 0 0 1-.18-.06.3.3 0 0 1-.11-.16.27.27 0 0 1 0-.15.29.29 0 0 1 .08-.13l.08-.08a.92.92 0 0 1-.13-.21.49.49 0 0 1 0-.18.39.39 0 0 1 0-.17l.09-.17z" fill="#963320"/><path d="M25.57 31.74a.35.35 0 0 0 .12.26l-.1.18a.32.32 0 0 0 0 .15.45.45 0 0 0 0 .16.84.84 0 0 0 .13.21.6.6 0 0 1-.1.11.25.25 0 0 0-.07.11.23.23 0 0 0 0 .12.25.25 0 0 0 .09.13.27.27 0 0 0 .16 0 .41.41 0 0 0 .27-.11.42.42 0 0 0 .14.12.8.8 0 0 0 .22 0H28.28a.24.24 0 0 0 .14-.09h.07a.37.37 0 0 0 .15 0 .2.2 0 0 0 .14-.07.26.26 0 0 0 0-.08.31.31 0 0 0-.13-.37.53.53 0 0 0 .05-.58.71.71 0 0 0 .09-.17.3.3 0 0 0 0-.1.33.33 0 0 0-.08-.18.24.24 0 0 0-.15-.08.24.24 0 0 0-.24.12 4 4 0 0 0-1-.15h-1.36a.21.21 0 0 0-.19-.1.25.25 0 0 0-.17.08.33.33 0 0 0-.09.19z" fill="#f9aa51"/><path d="M28.63 31.82h-.11a.09.09 0 0 1-.06-.07.16.16 0 0 1 0-.09.22.22 0 0 0 0 .11.13.13 0 0 0 .08.1h.14a.1.1 0 0 0 0-.05zM25.8 33a.11.11 0 0 1 .05-.07H26a.18.18 0 0 1 .1.06.2.2 0 0 1 0 .11v.08-.14a.24.24 0 0 0 0-.04.22.22 0 0 0-.12-.07.15.15 0 0 0-.11 0 .15.15 0 0 0-.07.1zm2.88.09a.19.19 0 0 0 0-.13.15.15 0 0 0-.12-.06h-.07a.21.21 0 0 0-.08.07.2.2 0 0 0 0 .12.31.31 0 0 0 0 .14.27.27 0 0 1 0-.12.16.16 0 0 1 0-.09l.09-.02a.12.12 0 0 1 .09 0 .15.15 0 0 1 0 .1zm-2.84-1.35v.05h.07a.11.11 0 0 0 .08 0 .23.23 0 0 0 .06-.15.2.2 0 0 0 0-.14.16.16 0 0 1 0 .11.18.18 0 0 1 0 .12H26z" fill="#963320"/><path d="M26.13 33.06c0 .07 0 .13.28.18a6.29 6.29 0 0 0 .95.05H28a.35.35 0 0 0 .28-.17c.05-.1.1-.08.1-.08a.27.27 0 0 0 0 .23 1 1 0 0 1-.18.09 1.65 1.65 0 0 1-.53 0h-1.23a.45.45 0 0 1-.25-.11v-.06a.17.17 0 0 0 0-.12z" fill="#963320" fill-rule="evenodd"/><path d="M26.24 31.55a1.82 1.82 0 0 1 .31.37 1.6 1.6 0 0 1 .19.51 2.65 2.65 0 0 0 .45.89 2.71 2.71 0 0 1-.46-.9 1.56 1.56 0 0 0-.18-.5 1.7 1.7 0 0 0-.31-.36zM26.63 31.54a1.86 1.86 0 0 1 .29.35 1.55 1.55 0 0 1 .2.52 2.61 2.61 0 0 0 .52.92 2.63 2.63 0 0 1-.52-.93 1.52 1.52 0 0 0-.19-.51 1.9 1.9 0 0 0-.31-.37zM27.48 32.22v.19a2.61 2.61 0 0 0 .52.92 2.64 2.64 0 0 1-.52-.93v-.19z" fill="#963320"/><path d="M27.37 32s0 .21.09.23a4.62 4.62 0 0 0 .64 0c.05 0 0-.15.07-.26a.68.68 0 0 1 .17-.28v-.05L28 31.6a2.07 2.07 0 0 0-.27 0l-.31.4z" fill="#963320" fill-rule="evenodd"/><g fill-rule="evenodd"><path d="M22.33 27.92v.22c0 .05.23 0 0-.22zm-1 .88a.49.49 0 0 0 .18 0c.06 0 0 .09 0 .09a.26.26 0 0 1-.19-.11zm.35.64a.32.32 0 0 0 .2 0c.08 0 .06.05.06.05a.22.22 0 0 1-.26 0zm.57.46a.26.26 0 0 0 .12-.19c0-.14.07 0 .07 0a.2.2 0 0 1-.19.16zm.72.47a1.3 1.3 0 0 1 .17-.18c.06 0 .1.07.1.07a1 1 0 0 1-.27.1zm.78.26a.91.91 0 0 1 .06-.15h.1a.43.43 0 0 1-.16.11zm.1.09a.81.81 0 0 1 .09-.22h.1a.42.42 0 0 1-.19.2zm1.51.33s.14-.08.15-.12.07.05.07.05a.2.2 0 0 1-.22.07zm.73.18a.45.45 0 0 0 .12-.16c0-.07.09 0 .09 0a.25.25 0 0 1-.2.13zm.78 0s.12-.12.1-.24-.18.06-.18.06a.58.58 0 0 1-.1.18.34.34 0 0 0 .18-.18.39.39 0 0 1 0 .17zm3.21.33a.47.47 0 0 1-.08-.26c0-.13-.11 0-.11 0a.34.34 0 0 0 .18.28zm1.36-.1a.34.34 0 0 1-.2-.14c0-.11-.06 0-.06 0s0 .15.26.12zm.11-.1s-.2 0-.24-.13 0 .06 0 .06a.23.23 0 0 0 .28.07zm.58-.49a.68.68 0 0 0-.24 0v.05a.26.26 0 0 0 .27 0zm-.86-1.14a.32.32 0 0 0-.08.18l-.1.06a.2.2 0 0 1 .18-.24zm-.56.31a.49.49 0 0 0 0 .3c0 .07-.1 0-.1 0s-.05-.25.13-.33zm-4-.63a1.38 1.38 0 0 0 0 .26s.18-.07 0-.26zm-.2-.08a.46.46 0 0 1 0 .23c0 .05.08 0 .08 0s0-.22-.11-.27zm-.88-.15c0 .07.05.25.14.28s.2 0 .2-.06a1 1 0 0 0-.2-.24.74.74 0 0 0 0 .13s-.12-.11-.17-.11zm-.45.24c0 .13.19.3.25.27s-.1-.22-.25-.27zM23.5 29c0 .1 0 .23.12.22s0-.2-.12-.22zm-.37-.31a.59.59 0 0 1-.12.1c-.06 0 0 .11 0 .1s.11-.14.08-.2z"/><path d="M28.16 31.93a.57.57 0 0 1 .26-.47 1.32 1.32 0 0 1 .65-.22 1.36 1.36 0 0 0 .37-.09 6 6 0 0 0 .8.29 1.77 1.77 0 0 0 .71 0 2.77 2.77 0 0 0 .69-.29c.12-.07.27-.16.29-.26a.86.86 0 0 0-.11-.6 1.45 1.45 0 0 0-.51-.38.42.42 0 0 0-.31.09 5.08 5.08 0 0 0-.42.35c-.07.08-.23.33-.35.37a.75.75 0 0 1-.37 0 .82.82 0 0 0 0-.58c-.12-.25-.59-.37-.9-.37s-1 .09-1.25.11a1.31 1.31 0 0 1-.47 0c-.09 0-.27-.17-.55-.3a1.83 1.83 0 0 0-.72-.19.73.73 0 0 0-.53.21 1.7 1.7 0 0 0-.21.26 2.71 2.71 0 0 0-.81-.63 1.11 1.11 0 0 0-1.16.1 1.39 1.39 0 0 0-.37-.88 1.13 1.13 0 0 0-.95-.4c-.37 0-.44.54-.41.78a1.18 1.18 0 0 0 .59.78 1.63 1.63 0 0 0 .86.22s0 .25.3.47a2.33 2.33 0 0 0 1.16.28 1.21 1.21 0 0 0 .63-.21.81.81 0 0 0 .49.6 2.63 2.63 0 0 0 1.39.12 1.71 1.71 0 0 0 .45-.22 1.56 1.56 0 0 0-.06.41v.71c0 .19.06.19.17.19h.61a.09.09 0 0 0 .08 0 1 1 0 0 0 0-.19z" fill="#04534e"/><path d="M29.55 31.1a.65.65 0 0 0 .17-.14.48.48 0 0 0 .09-.14h.17a.53.53 0 0 0 .34-.06c.08-.07.18-.25.26-.33a4.09 4.09 0 0 1 .37-.31l.2-.12a.27.27 0 0 1 .25 0 .92.92 0 0 1 .29.21.63.63 0 0 1 .18.41c0 .16 0 .26-.11.33a3.43 3.43 0 0 1-.76.38 1.34 1.34 0 0 1-.74 0 5.12 5.12 0 0 1-.7-.24zm-6.61-1.38a1.14 1.14 0 0 1 .19-.33 3.11 3.11 0 0 0-.25-.71 1.12 1.12 0 0 0-.58-.51.64.64 0 0 0-.54 0c-.23.12-.24.53-.23.63a1.12 1.12 0 0 0 .43.57 1.49 1.49 0 0 0 1 .35zm2.05.58a.94.94 0 0 1 .12-.36 2.15 2.15 0 0 0-.61-.51 1.32 1.32 0 0 0-.9-.24.75.75 0 0 0-.58.47.33.33 0 0 0 .05.4 1.67 1.67 0 0 0 .8.36 1.82 1.82 0 0 0 1.13-.13zm2.22-.3a.93.93 0 0 1-.34-.14 1.83 1.83 0 0 0-.59-.27 1.52 1.52 0 0 0-.61 0 1 1 0 0 0-.48.41c-.11.16-.18.47 0 .6a1.67 1.67 0 0 0 1 .44 1.63 1.63 0 0 0 1.13-.2c.16-.1.22-.32.35-.42s.27-.24.27-.24v-.08a3.09 3.09 0 0 0-.42 0c-.08 0-.11 0-.12.1a.36.36 0 0 1-.12-.19zm.46.45a.72.72 0 0 0-.2.24 1.7 1.7 0 0 0-.12.51v.79c0 .09 0 .14.15.15a2 2 0 0 0 .46 0c.09 0 .1-.1.12-.2a.69.69 0 0 1 .19-.39 1.22 1.22 0 0 1 .4-.24 2.36 2.36 0 0 1 .47-.09 1.13 1.13 0 0 0 .46-.18.52.52 0 0 0 .2-.29c0-.09 0-.19-.15-.26s-.12-.13-.22-.22a.33.33 0 0 0-.32-.11 3.1 3.1 0 0 0-.39.06.34.34 0 0 0-.24.23c0 .1-.07.12-.21.13s-.27 0-.3 0 0 .13 0 .18-.12 0-.15-.12 0-.3-.12-.21z" fill="#0b8489"/><path d="M29.77 30.89v-.08h.17a.53.53 0 0 0 .34-.06c.08-.07.18-.25.26-.33a4.09 4.09 0 0 1 .37-.31l.2-.12a.27.27 0 0 1 .25 0h.08-.15a.75.75 0 0 0-.33.28.12.12 0 0 1 0 .11h-.07a.93.93 0 0 1-.49.34h-.08a.25.25 0 0 1-.08.18c-.1.09-.17.06-.21 0a.24.24 0 0 1 0-.19zm-8.22-2.34a.48.48 0 0 1 .21-.23.84.84 0 0 1 .66 0 1.6 1.6 0 0 1 .33.4v.06s-.11 0-.1.07a.12.12 0 0 0 .08.1.07.07 0 0 0 .08 0c0 .08.06.17.08.24a3.17 3.17 0 0 1 0 .49 1.14 1.14 0 0 1 .18-.31 3.11 3.11 0 0 0-.25-.71 1.12 1.12 0 0 0-.58-.51.64.64 0 0 0-.54 0 .51.51 0 0 0-.21.38zm3 1.53a.12.12 0 0 0 .11.08s.08 0 .06-.09-.05-.08-.1-.08-.1 0-.07.09zm-.3.17a.09.09 0 0 1 .11 0 .07.07 0 0 1-.06.09s-.08 0-.1-.05 0-.06 0-.09zm-.25-.19h.13c.06 0-.07-.2-.14-.12s0 .08 0 .15zm-.42.15s.14.07.17 0 0-.08 0-.13-.19 0-.13.14zm0-.56c.09 0 .1.07.07.11a.1.1 0 0 1-.14 0s0-.12.07-.11zm.3-.19s.06 0 .06.06 0 0-.09 0a.06.06 0 0 1-.08-.06s0-.07.1-.06zm-1.15-.05s.12.06.15 0a.09.09 0 0 0 0-.12s-.2 0-.16.1zm-.32-.06s.09 0 .11.07-.05.08-.09.1-.09 0-.1 0 0-.1.08-.12zm0-.5c.06 0 .09.08.11.13s0 .09-.08.09-.09-.06-.1-.11 0-.11.08-.11zm-.41.06a.07.07 0 0 1 .1 0L22 29a.08.08 0 0 1-.13 0s0-.11.06-.13zm0-.28a.09.09 0 0 0 .13 0v-.1c0-.03-.17 0-.13.11zm.41-.12a.07.07 0 0 0 0 .11.09.09 0 0 0 .12-.07c0-.07-.13-.09-.16 0zm.87 1.64a1 1 0 0 1-.05-.36c0-.31.31-.35.42-.35a1.4 1.4 0 0 1 .74.15 2.68 2.68 0 0 1 .5.34c.14.11.22.06.17 0a1.36 1.36 0 0 0-.2-.28 2 2 0 0 0-.26-.17 1.32 1.32 0 0 0-.9-.24.75.75 0 0 0-.58.47.33.33 0 0 0 .05.4l.12.09zm7.94.55h.14a.08.08 0 0 0 0-.13s-.23 0-.12.12zm-.11.46c.06.06.14.06.18 0s0-.1 0-.13-.3 0-.17.14zm-.4-.26v.16c0 .05.12 0 .13 0s0-.22-.16-.11zm-1.7.18a.1.1 0 0 0 .14.05c.05 0 0-.09 0-.13s-.2 0-.14.08zm-.56-.08a.12.12 0 0 0 .16 0v-.13c0-.05-.23-.06-.16.09zm-.67.62h.18c.07 0 0-.1 0-.14a.16.16 0 0 0-.19 0v.15zm-1.85-1.72h.16a.12.12 0 0 0 0-.13 3.49 3.49 0 0 1 .57.23c0 .06.06.09.1.09a.09.09 0 0 0 .08-.06l.15.08.52.28a.25.25 0 0 0 .13 0c.12-.1.27-.24.27-.24v-.08a3.09 3.09 0 0 0-.42 0c-.08 0-.11 0-.12.1a.36.36 0 0 1-.12-.19 1 1 0 0 1-.34-.14 1.83 1.83 0 0 0-.59-.27 1.52 1.52 0 0 0-.61 0 1 1 0 0 0-.48.41c-.11.16-.18.47 0 .6a1.2 1.2 0 0 1 0-.38.58.58 0 0 1 .3-.36 1.12 1.12 0 0 1 .49-.1.13.13 0 0 0 0 .13zm.4.3a.13.13 0 0 1 .07.14.09.09 0 0 1-.12.07c-.08 0-.08-.08-.07-.13a.09.09 0 0 1 .12-.07zm.44.22c0-.06.1-.06.16 0a.1.1 0 0 1 0 .12s0 .08-.11.06a.11.11 0 0 1-.08-.15zm-.25.24a.11.11 0 0 1 .09.1s0 .07-.09.09a.12.12 0 0 1-.13-.08s0-.12.12-.11zm-.75-.12a.12.12 0 0 1 .15.07c0 .06 0 .09-.08.12s-.1 0-.12-.06a.1.1 0 0 1 .05-.13zm-.21-.39c0 .06 0 .1.09.12s.11-.06.11-.1-.16-.18-.2 0zm2 1.43a2.51 2.51 0 0 1 .24-.43c.1-.12.09-.13.14-.13h.16a2.33 2.33 0 0 1 .12-.24.83.83 0 0 1 .25-.19c.1-.05.12-.08.17-.05s0 .08 0 .1a.12.12 0 0 0 .16-.06c0-.08 0-.14.17-.15s.21 0 .22.06 0 0 0 .08 0 .15.07.17a.18.18 0 0 0 .17-.06v-.12c0-.03 0 0 .08 0s.09.08.13.08 0-.06.06-.14l-.1-.07c-.13-.07-.12-.13-.22-.22a.33.33 0 0 0-.32-.11 3.1 3.1 0 0 0-.39.06.34.34 0 0 0-.24.23c0 .1-.07.12-.21.13s-.27 0-.3 0 0 .13 0 .18 0 0-.06 0-.11-.1-.16-.14 0 0-.08 0-.14.39-.15.46-.07.33-.08.41a.57.57 0 0 0 0 .25c0 .06.07.21.1.13a1.64 1.64 0 0 1 .08-.31z" fill="#8cbec0"/><path d="M22.33 28.59s0 .08.06.1.11 0 .13-.07a.1.1 0 0 0 0-.12.09.09 0 0 1-.12.07zm8.51 2a.07.07 0 0 0 .08 0c.06 0 .09-.11.09-.14a.11.11 0 0 0 0-.06.12.12 0 0 1 0 .11h-.07zM30 31c0 .07 0 .13.12.14s.15-.12.17-.2a.24.24 0 0 1-.07.1c-.1.09-.17.06-.21 0A.12.12 0 0 1 30 31zm.65-.07s0 .16.11.16a.14.14 0 0 0 .11-.18c0-.08-.07-.08-.07-.08a.18.18 0 0 1 0 .13c0 .07-.1.1-.13 0a.41.41 0 0 1 0-.08zm.39.12c0 .05 0 .13.09.14s.12-.08.13-.12c0 .07-.11.07-.18 0v-.05zm.11-.44a.14.14 0 0 0 .11.13c.09 0 .12-.1.12-.13a.09.09 0 0 0-.07-.07.08.08 0 0 1 0 .12h-.14zm-3.35.91a.11.11 0 0 0 .11.1.16.16 0 0 0 .14-.09.07.07 0 0 0 0-.08v.09c0 .03-.12.07-.18 0zm1-1a.18.18 0 0 0 .14-.06.2.2 0 0 0 0-.1v.09a.13.13 0 0 1-.11.07zm.47-.07a.17.17 0 0 0 0 .2c.07 0 .17 0 .19-.05a.14.14 0 0 0 0-.07.19.19 0 0 1-.17.06c-.05 0-.08-.12-.07-.17zm.26.07zm-1 .29a.12.12 0 0 0 0 .14.17.17 0 0 0 .15 0v-.1a.06.06 0 0 1 0 .06.12.12 0 0 1-.16 0v-.1zm.19.08zM28 31s0 .05.1 0a.15.15 0 0 0 .1-.08.21.21 0 0 0 0-.08v.07c0 .05-.12 0-.16 0zm-1.56-.27a.12.12 0 0 0 .07.09.13.13 0 0 0 .14 0 .07.07 0 0 0 0-.1s0 .07-.09.09a.12.12 0 0 1-.13-.08zm.36-.31a.1.1 0 0 0 0 .11.13.13 0 0 0 .13 0 .08.08 0 0 0 0-.09s0 .08-.11.06a.11.11 0 0 1-.09-.11zm-1 .28a.19.19 0 0 0 .13 0 .1.1 0 0 0 0-.08.12.12 0 0 0-.08-.08.15.15 0 0 1 0 .06c0 .06 0 .09-.08.12zm.11-1s0 .16.1.16a.11.11 0 0 0 .13-.11.09.09 0 0 0 0-.07.11.11 0 0 1 0 .09c0 .08-.12.06-.16 0a.14.14 0 0 1 0-.1zm.32.56s0 .08.11.08a.1.1 0 0 0 .1-.07.11.11 0 0 0 0-.12.17.17 0 0 1 0 .09.09.09 0 0 1-.12.07.09.09 0 0 1-.07 0zm-.65-.2a.1.1 0 0 0 0 .11.11.11 0 0 0 .12.05.09.09 0 0 0 .07-.1s-.05.09-.1.07-.11-.06-.09-.12zm1-.1s.05.1.11.09a.12.12 0 0 0 .11-.05.09.09 0 0 1-.08.06.12.12 0 0 1-.1-.06zm-2 0s0 .15.06.17a.1.1 0 0 0 .12-.06.06.06 0 0 1-.06 0 .12.12 0 0 1-.11-.08.14.14 0 0 1 0-.06zm-.88-.5a.1.1 0 0 0 .07.1c.06 0 .1-.07.09-.09s0 0-.09 0a.06.06 0 0 1-.08-.06zm-.29.19s0 .13.06.15.12-.11.11-.13a.1.1 0 0 1-.14 0 .09.09 0 0 1 0-.05zm.53.27s0 .15.06.17.16-.08.14-.16v.05c-.06.06-.11.06-.13 0a.23.23 0 0 1 0-.09zm.34.39a.08.08 0 0 0 .14 0 .07.07 0 0 0-.06-.07.07.07 0 0 1 0 .14.09.09 0 0 1-.07 0zm-1.58-1.44a.07.07 0 0 0 0 .06.09.09 0 0 0 .11.06.09.09 0 0 0 .06-.06.07.07 0 0 1-.08 0 .16.16 0 0 1-.07-.07zm-.06.47s0 .12.08.14.11-.12.1-.15-.14 0-.15 0zm-.31.12a.35.35 0 0 0 .15-.07s-.05-.08-.09-.09a.11.11 0 0 1 0 .05s-.05.08-.09.1zm-.09-.46s0 .11.05.12.09-.06.11-.08a.09.09 0 0 1-.16 0zm-.38.06a.13.13 0 0 0 .12.05.11.11 0 0 0 .09-.12l-.09-.08.02.09a.08.08 0 0 1-.11 0zm.06-.44a.11.11 0 0 0 .07.11.14.14 0 0 0 .14-.1.09.09 0 0 0-.07-.09v.1a.09.09 0 0 1-.13 0z" fill="#04534e"/><path d="M21.85 28.46s.07.14.11.15.05-.05.05-.11a.34.34 0 0 0 0-.12.8.8 0 0 0 0 .14.51.51 0 0 0-.11-.06zm9.07 1.82c-.07 0-.13.12-.1.16s.11-.07.1-.16zm.39.24c-.08 0-.16.08-.14.13s.07-.06.14-.13zm-.05.45c-.05 0-.2.06-.18.1s.13 0 .18-.1zm-.53-.2c-.08.07-.11.21-.06.24s.13-.11.15-.13-.09 0-.11 0a.39.39 0 0 1 0-.16zm-.5.1c-.15 0-.24.14-.2.19s.14-.14.2-.19zm-1.35-.62c-.08 0-.2.13-.17.19s.15-.11.17-.19zm.56.18c-.11.05-.19.13-.16.18s.14-.11.16-.18zm-.21.51c-.07 0-.25 0-.22.14a.22.22 0 0 0 .22-.14zm-.6-.25c-.06.06-.14.19-.11.27a.46.46 0 0 1 .28 0s0-.05-.18-.06 0 0 0-.17zm-.68.58c-.08.07-.12.21-.09.25s.24-.09.27-.13a.64.64 0 0 0-.2.05.33.33 0 0 1 0-.18zm.23-.59c-.09.06-.22.17-.17.25s.17-.19.17-.25zm-.59.14v.21c0 .01.07 0 .05 0s-.05 0-.06-.17zm-1.77-1.12c0 .06.11.2.2.16s-.08-.17-.2-.16zm.68.12c0 .09.13.24.2.21s-.06-.2-.2-.21zm.18.57c.06.08.16.13.2.09s0-.11-.2-.09zm-1 .28s.12-.08.16-.05-.1.09-.16.05zm.67.1c.09 0 .2-.07.23 0s-.19 0-.23 0zm-.3-.56c.05.06.19.2.27.13s-.18-.24-.21-.26a.66.66 0 0 0 .07.15.4.4 0 0 0-.13 0zm-.62 0c.06 0 .22.06.25 0s-.16-.2-.23-.22a.82.82 0 0 0 .12.18.46.46 0 0 0-.14 0zm-.97-.21c.06 0 .18.07.2 0s-.08-.06-.2 0zm-.37.3c.08 0 .17-.06.19 0s-.12 0-.19 0zm-.24-.53c.08 0 .21.14.19.2s-.23 0-.23 0a.6.6 0 0 1 .13 0s-.09-.11-.09-.16zm-.43.38c.08 0 .18 0 .19-.07s-.12-.1-.18-.1a.29.29 0 0 0 .06.08.23.23 0 0 0-.08.09zm-.1-.55c0 .06.1.14.15.1s-.09-.11-.15-.1zm.28-.32c0 .1.11.23.18.19s-.08-.18-.18-.19zm-1.42 0a.24.24 0 0 0 .11.15s0-.13-.11-.15zm.41 0a.26.26 0 0 0 .09.11v-.25a.31.31 0 0 0 0 .15zm.15-.59v.24-.24zm-.95.16c0 .05.08.15.11.12s-.06-.1-.11-.12zm.38 0c0 .06.1.16.14.13s-.08-.13-.14-.13zm.22-.55v.21-.21z"/><path d="M21.3 27.46c.16-.09.4 0 .53.27s.11.51 0 .6-.4 0-.53-.28-.11-.51 0-.59z" fill="url(#a)"/><path d="M21 26.64a.15.15 0 0 1 .1.26l.21.31-.14.09-.17-.36a.15.15 0 1 1 0-.3z" fill="#fcca3e"/><path d="M21 26.64a.13.13 0 0 0-.11.13.13.13 0 0 0 .13.13.13.13 0 0 0 .11-.05v.06l.21.31s-.16-.24-.14-.15 0 .19.05.27l-.25-.4a.15.15 0 1 1 0-.3z" fill="#aa8c30"/><path d="M20.91 27.62a.15.15 0 0 0 .21.16.18.18 0 0 0 .11-.22.17.17 0 0 0 .2-.07.14.14 0 0 0 0-.06.17.17 0 0 0 .19 0 .14.14 0 0 0 0-.24v-.05c0-.05 0 0-.06 0h-.14s-.06 0 0 0 0 0 0 .06a.2.2 0 0 0 0 .07.13.13 0 0 0-.07 0v-.07c0-.07 0 0-.07 0l-.16.09s-.05.05 0 .05.05 0 0 0a.23.23 0 0 0 0 .12h-.07v-.06c0-.06 0 0-.05 0l-.11.1s-.07.08 0 .08z" fill="#e82836"/><path d="M21.54 27.25h.12c.02 0 0 .1-.08.11a.14.14 0 0 1-.11-.07.08.08 0 0 1 .06-.09zm-.54.33s.07-.07.12 0a.1.1 0 0 1 0 .13.15.15 0 0 1-.13 0 .08.08 0 0 1 0-.11zm.23-.22c.06 0 .1-.06.15 0a.11.11 0 0 1 0 .15.16.16 0 0 1-.14 0 .09.09 0 0 1 0-.12z" fill="#f6e200"/><g><path d="M24.44 28.89c.15 0 .23.24.18.46s-.2.38-.35.35-.23-.24-.18-.46.2-.38.35-.35z" fill="url(#c)"/><path d="M24.69 28.21a.13.13 0 0 1 0 .18.12.12 0 0 1-.09 0v.31h-.13l.09-.32a.13.13 0 0 1 .16-.19z" fill="#fcca3e"/><path d="M24.69 28.21a.11.11 0 0 0-.13.18.11.11 0 0 0 .1 0h-.05v.31-.17l-.11.2.09-.32a.13.13 0 0 1 .16-.19z" fill="#aa8c30"/><path d="M24.1 28.78a.12.12 0 0 0 0 .22.15.15 0 0 0 .19-.07.15.15 0 0 0 .16.06.14.14 0 0 0 .12.11.11.11 0 0 0 .13-.15v-.06l-.1-.06h-.05a.11.11 0 0 0 0-.07h-.14s-.06 0 0 0 0 0 0 .05a.19.19 0 0 0-.06.08v-.11c0-.06 0 0 0 0h-.13s-.08 0 0 0z" fill="#e82836"/><path d="M24.7 28.89s.07 0 .05.09a.08.08 0 0 1-.11 0 .12.12 0 0 1 0-.1.06.06 0 0 1 .09 0zm-.52-.08h.1c.01 0 0 .08-.07.09a.12.12 0 0 1-.09-.06.06.06 0 0 1 .05-.07zm.26 0c.06 0 .1 0 .1.08s-.07.08-.1.08a.14.14 0 0 1-.07-.09.07.07 0 0 1 .08-.06z" fill="#f6e200"/></g><g><path d="M32.37 29.74c.11.11 0 .37-.19.58s-.48.28-.6.16 0-.37.19-.58.48-.28.6-.16z" fill="url(#d)"/><path d="M33 29.32a.13.13 0 0 1-.09.16.13.13 0 0 1-.11 0l-.22.25-.1-.1.27-.22a.13.13 0 1 1 .26-.07z" fill="#fcca3e"/><path d="M33 29.32a.12.12 0 0 0-.22.08.11.11 0 0 0 .07.08h-.06l-.22.25s.17-.18.09-.15l-.21.1.27-.22a.13.13 0 1 1 .26-.07z" fill="#aa8c30"/><path d="M32.12 29.46a.13.13 0 0 0-.09.22.15.15 0 0 0 .21 0 .16.16 0 0 0 .1.15h.06a.15.15 0 0 0 0 .16.12.12 0 0 0 .21 0V29.82h-.06a.11.11 0 0 0 0-.07h.06c.06 0 0 0 0-.06l-.11-.11h-.05c.01 0 0 0 0 0a.21.21 0 0 0-.1 0 .19.19 0 0 0 0-.06l-.11-.07h-.07c.01 0 0 0 0 0z" fill="#e82836"/><path d="M32.57 29.92v.11a.08.08 0 0 1-.11 0 .13.13 0 0 1 0-.1.07.07 0 0 1 .09 0zm-.4-.38s.08 0 .06.1a.08.08 0 0 1-.11 0 .13.13 0 0 1 0-.1.07.07 0 0 1 .09 0zm.24.15s.07.08 0 .12a.1.1 0 0 1-.13 0 .14.14 0 0 1 0-.12.08.08 0 0 1 .11 0z" fill="#f6e200"/></g></g><g><path d="M28.55 29.14v.17a1.93 1.93 0 0 1-.29.17H27.92a.2.2 0 0 0-.18 0 .29.29 0 0 0-.21.23l.06.22s0 .08.21.07a.79.79 0 0 0 0 .14c0 .07.19.24.19.24a.43.43 0 0 0 .25 0c.13-.06.08-.21.08-.21l.31-.22s0 .09.11.09a.13.13 0 0 0 .13-.11.13.13 0 0 0 .13.07.13.13 0 0 0 .14-.12s0 .05.13.05a.09.09 0 0 0 .08.09.3.3 0 0 0 .15.21.3.3 0 0 0 .26 0h.06l.2-.23a.14.14 0 0 0-.07-.1s.05-.29-.35-.19a.31.31 0 0 0-.21-.13.29.29 0 0 0-.2-.14.72.72 0 0 0-.21-.19c-.1 0-.23-.31-.23-.31h-.09s-.18 0-.16.19z" fill="#fcca3d" stroke="#987c2e" stroke-miterlimit="2.41" stroke-width=".02" fill-rule="evenodd"/><g fill="#987c2e"><path d="M27.79 30a.25.25 0 0 1 .13-.14h.09a.75.75 0 0 0 .2-.08 2 2 0 0 0 .23-.16.13.13 0 0 1 .07 0 .1.1 0 0 0-.06 0 2.25 2.25 0 0 1-.23.17.75.75 0 0 1-.21.08h-.09a.24.24 0 0 0-.12.13zM28.55 29.31v.07a1.23 1.23 0 0 0 0 .15.14.14 0 0 0 .06.09.21.21 0 0 0 .13 0 .27.27 0 0 0 .14 0 .11.11 0 0 0 0-.08v-.33.33a.12.12 0 0 1 0 .09.29.29 0 0 1-.15 0 .22.22 0 0 1-.14 0 .16.16 0 0 1-.07-.1 1.2 1.2 0 0 1 0-.15v-.07zM29 29.5a.29.29 0 0 0 .08.08.07.07 0 0 0 .07 0 .47.47 0 0 0 .13-.15.48.48 0 0 1-.13.15.08.08 0 0 1-.08 0 .31.31 0 0 1-.09-.09zM29.11 29.6a.3.3 0 0 0 0 .08l.06.06a.08.08 0 0 0 .1 0l.1-.12-.1.12a.09.09 0 0 1-.12 0l-.07-.06a.29.29 0 0 1-.05-.09zM29.31 29.74v.07l.08.08a.06.06 0 0 0 .05 0h.06l.05-.08v-.06.07l-.06.08a.13.13 0 0 1-.07 0 .07.07 0 0 1-.07 0l-.08-.08v-.07z"/><path d="m28.3 29.71.06.07v.05h.07l.12-.08a.35.35 0 0 0 .09-.1.36.36 0 0 1-.09.1l-.13.09H28.3v-.05l-.06-.07zM28 29.83a.46.46 0 0 0 .09.11.32.32 0 0 0 .1.06.13.13 0 0 0 .1 0 .21.21 0 0 0 .06-.09.23.23 0 0 1-.07.09.14.14 0 0 1-.11 0 .31.31 0 0 1-.11-.07.47.47 0 0 1-.09-.11zM27.93 29.53a.23.23 0 0 0 0 .1.19.19 0 0 0 0 .08.12.12 0 0 0 .09 0 .19.19 0 0 0 .1 0l.06-.07-.07.07a.2.2 0 0 1-.11 0 .14.14 0 0 1-.1 0 .21.21 0 0 1 0-.09.27.27 0 0 1 0-.11zM28.2 29.5a.2.2 0 0 0 0 .09h.12-.13a.2.2 0 0 1 0-.1z"/></g><path d="M27.33 30.16s-.13-.3.28-.19a.29.29 0 0 0-.06-.31s-.3 0-.36.19a.28.28 0 0 0 .15.32zM28 30.4s-.28 0-.1.32c0 0-.31-.12-.27-.39s.24-.23.26-.2a.31.31 0 0 1 .11.26zM30.05 30a.35.35 0 0 1 .23.35c0 .22-.21.27-.38.22a.18.18 0 0 0 .13-.12c0-.1-.08-.16-.17-.17s0-.11 0-.14a.61.61 0 0 1 .16-.14z" fill="#202020" stroke="#494037" stroke-miterlimit="2.41" stroke-width=".02" fill-rule="evenodd"/><path d="M23.69 27.58s-.25.1-.36 0a1 1 0 0 1-.17-.42.9.9 0 0 0-.36-.51c-.25-.21-.4-.33-.43-.49s.11-.37.17-.64 0-.6-.57-.88h-.23l-.06.27.18.1c.1.06.31.17.21.43a1.6 1.6 0 0 0-.2.94c.08.39.46.56.58.67a.64.64 0 0 1 .22.45c0 .26.08.65.38.77a.86.86 0 0 0 .84-.13c.25-.18-.21-.54-.21-.54z" fill="#a9ad72" fill-rule="evenodd"/><path d="M22.67 27.42v.05c0 .26.08.65.38.77a.86.86 0 0 0 .84-.13.18.18 0 0 0 0-.25l-.09.07a.76.76 0 0 1-.26.24.84.84 0 0 1-.35.05 1.48 1.48 0 0 1 .1-.2 1.31 1.31 0 0 1-.4 0 2.25 2.25 0 0 1 .16-.25 1 1 0 0 1-.34-.08 2 2 0 0 1 .14-.19l-.25-.12z" fill="#78732f" fill-rule="evenodd"/><path d="M23.69 27.58s-.25.1-.36 0a.86.86 0 0 1-.16-.38l-.23.37a.6.6 0 0 0 .26 0 1.27 1.27 0 0 1-.06.3.74.74 0 0 0 .27-.14s0 .3-.06.35a.43.43 0 0 0 .24-.14 1.5 1.5 0 0 0 .19-.21l-.1-.09zM23.13 27a.84.84 0 0 0-.2-.28l-.13.12-.06.07a.9.9 0 0 0-.3.09.51.51 0 0 1 .17.25l.11-.3.38.06z" fill="#78732f" fill-rule="evenodd"/><path d="M23.47 27.62h-.07a1.32 1.32 0 0 1-.21.18 1.56 1.56 0 0 0 .1-.29.57.57 0 0 1-.26.11 3.36 3.36 0 0 0 .19-.34l-.19.36c0 .07-.06.06-.1 0l-.2-.1.21.1-.07.06v.11H23.22l-.1.11-.22.08h.1a2.22 2.22 0 0 0 .29-.06 1.53 1.53 0 0 1-.11.19 1 1 0 0 0 .36 0 1.38 1.38 0 0 0 .41-.3.76.76 0 0 0-.15.16.6.6 0 0 1-.48.24.55.55 0 0 0 .09-.16.92.92 0 0 0 .43-.37h-.05a1 1 0 0 1-.36.35 2.25 2.25 0 0 0 .08-.37zm-.33-.56-.32-.07a1.31 1.31 0 0 1 .15-.16.79.79 0 0 0-.17.21.43.43 0 0 0-.3.08h.05a.4.4 0 0 1 .19-.06c.06 0 0 0 0 .07s0 .15-.06.2l.09-.26s0-.11.07-.09l.34.07zm-.4-.49h-.09a.76.76 0 0 0-.28.14.69.69 0 0 0-.07.27h.08a.82.82 0 0 1 .11-.24.5.5 0 0 1 .24-.16zm-.19-.16h-.05a1.25 1.25 0 0 0-.23.07 1.3 1.3 0 0 0-.25.24h.06a2.14 2.14 0 0 1 .21-.24.59.59 0 0 1 .22-.12zm-.09-.09h-.06a.51.51 0 0 0-.29 0 1.54 1.54 0 0 0-.22.2.53.53 0 0 1 .25-.21.62.62 0 0 1 .28 0zm0-.43a.47.47 0 0 0-.24-.16.51.51 0 0 0-.25.09.5.5 0 0 1 .27-.08.41.41 0 0 1 .23.14zm.08-.23a.5.5 0 0 0-.22-.17.41.41 0 0 0-.25.07.42.42 0 0 1 .26-.08.38.38 0 0 1 .22.18zm.07-.36a.45.45 0 0 0-.22-.06.44.44 0 0 0-.23.1.54.54 0 0 1 .24-.08.47.47 0 0 1 .23.1zm-.13-.35h-.09a.24.24 0 0 0-.18.05.68.68 0 0 0-.13.21.34.34 0 0 1 .15-.17.44.44 0 0 1 .23 0zm-.25-.23a.38.38 0 0 0-.13.12.59.59 0 0 0-.1.16.45.45 0 0 1 0-.19.75.75 0 0 1 .15-.16zm-.23-.08a.34.34 0 0 0-.13.15.46.46 0 0 0 0 .2.6.6 0 0 1 0-.2.4.4 0 0 1 .14-.15zM23 28l.16-.2a.47.47 0 0 0 .25-.12 1.89 1.89 0 0 1-.07.28A1 1 0 0 1 23 28zm0-.47a.74.74 0 0 0 .22 0 1 1 0 0 1-.08.23.73.73 0 0 1-.27-.07.84.84 0 0 0 .12-.15z" fill="#fff" fill-rule="evenodd"/><path d="M23.69 27.58s-.25.1-.36 0a1 1 0 0 1-.17-.42.9.9 0 0 0-.36-.51c-.25-.21-.4-.33-.43-.49s.11-.37.17-.64 0-.6-.57-.88h-.23l-.06.27.18.1c.1.06.31.17.21.43a1.6 1.6 0 0 0-.2.94c.08.39.46.56.58.67a.64.64 0 0 1 .22.45c0 .26.08.65.38.77a.86.86 0 0 0 .84-.13c.25-.18-.21-.54-.21-.54z" fill="none" stroke="#78732f" stroke-miterlimit="2.41" stroke-width=".01"/><path fill="#41421b" fill-rule="evenodd" d="m25.22 27.2.11.06.05.15-.17.16-.03-.08.04-.29z"/><path d="M23.34 21.54a.38.38 0 0 1 .08.23.53.53 0 0 1 0 .16h.07a.62.62 0 0 0 0-.31.69.69 0 0 0 0-.14l-.11.09z" fill="#f1a720" fill-rule="evenodd"/><path d="M23.7 22.67a3.2 3.2 0 0 1-.5 0 .17.17 0 0 1-.16-.22s.44-.09.57-.31 0 0-.1 0a.94.94 0 0 1-.42.12c-.11 0-.08-.09-.06-.17a2.12 2.12 0 0 1 .18-.26c.06-.1 0-.22.09-.29l.15-.14s0-.17-.1-.12-.09.1-.12.11-.07 0-.14 0a1.52 1.52 0 0 0-.39.28c-.06.06-.28.23-.27.41a.41.41 0 0 0 .15.29 4.37 4.37 0 0 0 0 .44c0 .13.05.35.25.38s.74 0 .74 0l.14-.58z" fill="#a9ad72" fill-rule="evenodd"/><path d="M23.7 22.67a3.2 3.2 0 0 1-.5 0 .16.16 0 0 1-.17-.14 1 1 0 0 0-.34.09.67.67 0 0 0-.12.11v.06c.2-.2.33-.19.33-.19a.39.39 0 0 0-.06.31.59.59 0 0 0-.09.24h.8l.14-.58zm-.4.28a1.71 1.71 0 0 0 .2.16s.1-.22.08-.25a.62.62 0 0 0-.09-.1h-.08l-.1.11v.06zm-.17.23-.21-.23.21-.18a.31.31 0 0 0 .06.12v.09a.65.65 0 0 0 0 .14v.06zM22.73 21.72a.47.47 0 0 0 .14-.12.28.28 0 0 1 .33-.09v.11a1 1 0 0 0 0 .18c0 .06-.07.13-.09.17a1.11 1.11 0 0 0-.12.26v.18H23a.09.09 0 0 1 0 .07s-.09-.06-.09-.13a.47.47 0 0 1 .06-.23c0-.08.13-.2.16-.25a.34.34 0 0 0 0-.14.87.87 0 0 1 .05-.19H23c-.06 0-.17.17-.26.16z" fill="#fff" fill-rule="evenodd"/><path d="M22.87 22a1.49 1.49 0 0 0 .23-.2v-.08a.87.87 0 0 1 .05-.19h-.18c-.06 0-.17.17-.25.16a.42.42 0 0 0-.17.16c-.06.09-.08.18 0 .22s.24 0 .35-.09z" fill="#c6c7a6" fill-rule="evenodd"/><path d="M23.13 21.52z" fill-rule="evenodd"/><path d="M23.7 22.67a3.2 3.2 0 0 1-.5 0 .16.16 0 0 1-.16-.1c-.06 0-.1.06-.12.1v.13s0 .07 0 0a2.42 2.42 0 0 1 .2-.18l.08.07c.08.07 0 .13.07.11l.16-.17a.07.07 0 0 1 .07 0l.13.08v-.14zm-.92.54h.25l-.03-.05-.1-.16a1.68 1.68 0 0 0-.07.19zm.41 0h.36-.05l-.19-.14s-.07-.09-.09 0a1 1 0 0 0 0 .22z" fill="#78732f" fill-rule="evenodd"/><path d="M23.7 22.67a3.2 3.2 0 0 1-.5 0 .17.17 0 0 1-.16-.22s.44-.09.57-.31 0 0-.1 0a.94.94 0 0 1-.42.12c-.11 0-.08-.09-.06-.17a2.12 2.12 0 0 1 .18-.26c.06-.1 0-.22.09-.29l.15-.14s0-.17-.1-.12-.09.1-.12.11-.07 0-.14 0a1.52 1.52 0 0 0-.39.28c-.06.06-.28.23-.27.41a.41.41 0 0 0 .15.29 4.37 4.37 0 0 0 0 .44c0 .13.05.35.25.38s.74 0 .74 0l.14-.58z" fill="none" stroke="#78732f" stroke-miterlimit="2.41" stroke-width=".01"/><path d="M24.18 23.53s-.12.15-.38 0a.61.61 0 0 1-.35-.57.86.86 0 0 1 .36-.45s0-.13.18-.23a.12.12 0 0 1 0-.19 1.48 1.48 0 0 0 .61-1s.14.08.09.45c0 0 .23-.12.2-.72 0 0 .23.14.1.53a.78.78 0 0 0 .14-.07 1.11 1.11 0 0 0 .14-.69s.13 0 .16.47a.73.73 0 0 0 .25-.43.73.73 0 0 1 .18.43.24.24 0 0 0 .15 0 1.07 1.07 0 0 1 .45.09c.17.09.39.17.54.05a.41.41 0 0 1 0 .17 1.18 1.18 0 0 1 .47.64.61.61 0 0 0-.12-.69 1.16 1.16 0 0 0-.74-.38c-.16 0-.35-.06-.35-.36s.1-.54.73-.52c0 0 0-.3.67-.29a5.65 5.65 0 0 1 1.88.41 3.87 3.87 0 0 1 .89.48.59.59 0 0 0 .49.14c.23 0 .27 0 .23.05s-.13.15-.15.2 0 .06 0 .08a5.34 5.34 0 0 1 .75.58 7.76 7.76 0 0 1 .79 1 12.46 12.46 0 0 1 .68 1.29.8.8 0 0 0 .38.47c.15.1.11.23-.15.21a2.82 2.82 0 0 1 .2.9 2.56 2.56 0 0 1-.16 1.09 9.6 9.6 0 0 0-.13 1.24 1.69 1.69 0 0 1-.1.76.52.52 0 0 0-.06.34c0 .11-.12.13-.14 0a.73.73 0 0 1 0-.36 1.92 1.92 0 0 0 0-.75 3.92 3.92 0 0 1-.1-.68v-1.18a.87.87 0 0 0-.25-.42v2.32a3.71 3.71 0 0 1-.06.71c0 .14-.11.07-.12-.08s0-.72 0-.85-.12-.25-.17-.47a7.44 7.44 0 0 1-.08-.74 1.82 1.82 0 0 0-.27-.84l.1 1c.03.29.05.63.06.94s0 .66 0 .75-.07 0-.07-.08v-.58a1 1 0 0 0-.14-.35 3 3 0 0 1-.22-.68 5.08 5.08 0 0 1-.06-.56.45.45 0 0 0-.26-.42 3.66 3.66 0 0 0 0 .52c0 .16.17.49.2.69a2.83 2.83 0 0 1 0 .46c0 .1-.07 0-.1-.07s-.15-.42-.19-.52-.13-.52-.19-.65-.2-.38-.41-.43c0 0 .06 0 .11.2l.14.48c.06.2.08.39.13.5s.12.22.09.23-.11-.09-.14-.14-.2-.35-.25-.45a2.16 2.16 0 0 1-.13-.38.3.3 0 0 0-.12-.21 2.81 2.81 0 0 0-.33-.26.28.28 0 0 0-.19 0 1.1 1.1 0 0 1 .17.32c.1.25.09.31.13.39a1.36 1.36 0 0 0 .18.3c.06.05.1.09 0 .1s-.12 0-.22-.17-.35-.51-.43-.6a.63.63 0 0 0-.35-.24.81.81 0 0 1-.38-.34c-.06-.07-.11-.07-.11-.07a.35.35 0 0 1-.12.28 1.6 1.6 0 0 1 .28 1.07l3 2.27c.14.09-.48.41-.73.28 0 0-.39.33-.75.14 0 0-.23.35-.62 0a.28.28 0 0 1-.47 0c-.25-.29-.56-.67-.56-.67s.07.45 0 .47-.19-.13-.19-.13v.33c0 .01-.3-.32-.3-.32s.1.47 0 .5-.42-.41-.42-.41-.05.24-.14.25-.44-.67-.44-.67 0 .07-.62-.63c0 0 0 .62-.14.62s-.22-.27-.22-.27-.72.3-.92.18c0 0-.06-.06 0-.19a2.77 2.77 0 0 1-.77-.27s0-.16.41-.12a.17.17 0 0 1 0-.09.45.45 0 0 0 .37.08s-.27-.14-.3-.21a.44.44 0 0 1 .45-.3s-.26-.11-.31-.22-.15-.25-.06-.26a.35.35 0 0 1 .2.05c.06 0 .12.1.19.14s-.61-.55-.46-1.07a1.57 1.57 0 0 1-.14-.24l-.2.11a3.15 3.15 0 0 0-.1-.58 1.33 1.33 0 0 1-.16-.5 1.75 1.75 0 0 1 .31-.75.63.63 0 0 1 0-.09.53.53 0 0 1-.14 0 5 5 0 0 1 .41-.7.2.2 0 0 1-.12-.08 1.18 1.18 0 0 0 .23-.45h-.06s0-.25-.17-.22a.49.49 0 0 1-.23.19 4.43 4.43 0 0 1-.51.22c-.17.07-.61 0-.56.42z" fill="#202020" fill-rule="evenodd"/><path d="M25.89 21.1a.24.24 0 0 0 .15 0 1.07 1.07 0 0 1 .45.09c.17.09.39.17.54.05a.41.41 0 0 1 0 .17s0 .18-.33.2a.37.37 0 0 1 .11.28.65.65 0 0 1-.34 0s.17.26.12.36-.37 0-.37 0a.65.65 0 0 1 0 .19.19.19 0 0 1-.07.1c-.05 0-.18 0-.17-.14s-.23-.2-.23-.2a.39.39 0 0 0 0-.23c0-.13-.38 0-.38 0a1 1 0 0 0 .52-.84z" fill="#dbad6c" fill-rule="evenodd"/><path d="M25.89 21.1a.24.24 0 0 0 .15 0 1.07 1.07 0 0 1 .45.09c.17.09.39.17.54.05 0 .08-.09.22-.32.13a2.39 2.39 0 0 0-.53-.19.9.9 0 0 0-.3 0 .41.41 0 0 0 0-.06zm1.05.44a.44.44 0 0 1-.23.07c-.15-.05-.18-.12-.28-.17a2.66 2.66 0 0 0-.33-.11l-.1-.06h-.12H26.11a1.3 1.3 0 0 1 .45.12 1.05 1.05 0 0 0 .39.11zm-.12.35a.65.65 0 0 1-.34 0l-.23-.19a1.58 1.58 0 0 0-.5-.17v-.05l.42.08a1.11 1.11 0 0 1 .62.31zm-.22.39c0 .1-.37 0-.37 0a.5.5 0 0 0-.25-.33s-.08-.07 0-.06a2 2 0 0 1 .54.28c.09.09.09.14.09.14zm-.64.15c0-.18-.23-.2-.23-.2s.18-.2.16-.33a1.2 1.2 0 0 1 .2.19.45.45 0 0 1 .08.35.1.1 0 0 1-.2 0z" fill="#ab6e29" fill-rule="evenodd"/><path d="M24.18 23.53s-.12.15-.38 0a.61.61 0 0 1-.35-.57.86.86 0 0 1 .36-.45s0-.13.18-.23a.12.12 0 0 1 0-.19 1.48 1.48 0 0 0 .61-1s.14.08.09.45c0 0 .23-.12.2-.72 0 0 .23.14.1.53a.78.78 0 0 0 .14-.07 1.11 1.11 0 0 0 .14-.69s.13 0 .16.47a.73.73 0 0 0 .25-.43.73.73 0 0 1 .18.43 1 1 0 0 1-.52.84s.36-.11.38 0a.39.39 0 0 1 0 .23s.24 0 .23.2.12.17.17.14.09-.1.1-.28l.2.06a1.49 1.49 0 0 1-.1.59s0-.37-.13-.35-.11.07-.15.2a1.25 1.25 0 0 1-.3.33 2.3 2.3 0 0 0 .21-.34c0-.1 0-.14-.08-.05a.39.39 0 0 1-.2.16h-.06s0-.25-.17-.22a.49.49 0 0 1-.23.19 4.43 4.43 0 0 1-.51.22c-.17.07-.61 0-.56.42z" fill="#904620" fill-rule="evenodd"/><path d="M29.06 29.31c-.06 0-.25-.25-.29-.31l-.22-.54.05-.12c.05-.12.13-.11.15 0s.13.47.19.63.1.26.15.37zm-.26.08v.11c0 .01-.42-.41-.42-.41a.85.85 0 0 1 0 .12c0 .05-.1.1-.13 0s-.23-.62-.25-.72.15-.17.15-.17a.38.38 0 0 1 .2.19c.08.16.18.33.19.35s0-.13 0-.17 0-.05 0 0 .12.24.15.32.06.19.09.33z" fill="#4c2b17" fill-rule="evenodd"/><path d="m28.28 24.48.18.29c0 .06 0 .08.13.06a1.33 1.33 0 0 0 .34-.21.29.29 0 0 0 .12-.22v-.1a.16.16 0 0 0 .16 0 .44.44 0 0 0 .22-.23.89.89 0 0 0 0-.27v-.07a.12.12 0 0 0 .1 0 1.85 1.85 0 0 0 .22-.24.24.24 0 0 0 0-.19.45.45 0 0 0-.15-.18c-.07-.06-.18-.17-.2-.19s-.08-.11-.12 0a.65.65 0 0 0-.08.19v.13a.37.37 0 0 1 .1.23.6.6 0 0 1 0 .18h-.05l-.15-.17h-.12a2 2 0 0 0-.12.23v.07a.22.22 0 0 1 .14.19.38.38 0 0 1-.09.21l-.19-.22h-.08l-.18.2v.08c0 .03.07 0 .08.09s0 .06-.05.05a.25.25 0 0 0-.17 0h-.1z" fill="#904620" fill-rule="evenodd"/><path d="M29.39 22.85s-.06-.05-.08 0a.65.65 0 0 0-.08.19v.13a.37.37 0 0 1 .1.23.6.6 0 0 1 0 .18.12.12 0 0 0 .05.05.42.42 0 0 0 .1-.12.47.47 0 0 0 0-.3c0-.06-.08-.23-.13-.36zm-.35.57a2 2 0 0 0-.12.23v.07a.22.22 0 0 1 .14.19.38.38 0 0 1-.09.21.11.11 0 0 0 .14 0 .32.32 0 0 0 .12-.21.5.5 0 0 0-.08-.25l-.15-.23zm-.29.47h-.06l-.18.2v.08c0 .03.07 0 .08.09s0 .06-.05.05a.25.25 0 0 0-.17 0h-.1a.45.45 0 0 0 .24.1c.14 0 .23-.14.25-.23s0-.17 0-.27a.17.17 0 0 1 0-.11z" fill="#4c2b17" fill-rule="evenodd"/><path d="M28.44 24.75c0 .06 0 .08.13.06a1.33 1.33 0 0 0 .34-.21.29.29 0 0 0 .12-.22v-.1a.16.16 0 0 0 .16 0 .44.44 0 0 0 .22-.23.89.89 0 0 0 0-.27v-.07a.12.12 0 0 0 .1 0 1.85 1.85 0 0 0 .22-.24.24.24 0 0 0 0-.19.45.45 0 0 0-.15-.18l-.04-.1a.17.17 0 0 0 0 .1c0 .07.12.2.15.27s0 .13-.08.17-.11.11-.2.1a.11.11 0 0 1-.08-.06l-.15-.17a.26.26 0 0 0 0 .13 1.6 1.6 0 0 0 .18.25.26.26 0 0 1 0 .26c0 .07-.17.2-.24.2a.1.1 0 0 1-.11-.07l-.19-.22a.17.17 0 0 0 0 .11s.12.14.17.21 0 .08 0 .17a.3.3 0 0 1-.14.2.77.77 0 0 1-.23.13h-.15z" fill="#d2a567" fill-rule="evenodd"/><g fill-rule="evenodd"><path d="M29.88 20.37a4.54 4.54 0 0 0-.66-.26 6.91 6.91 0 0 0-.92-.21 4.35 4.35 0 0 0-.76-.06c-.21 0-.47.13-.5.25a.46.46 0 0 0 0 .29.37.37 0 0 0 .24.2 4.17 4.17 0 0 1 .78.44 1.54 1.54 0 0 1 .41.75 4.6 4.6 0 0 1 .1.89.73.73 0 0 1-.19.5 1 1 0 0 1-.54.36v.1s.29.64.35.71.07.06.11 0a1.61 1.61 0 0 0 .15-.18v-.07a.52.52 0 0 1-.21-.22c0-.09 0-.07 0 0s.1.18.2.17a.2.2 0 0 0 .16-.03 2.34 2.34 0 0 0 .24-.23v-.07a.3.3 0 0 1-.2-.16c0-.09 0-.07 0 0a.31.31 0 0 0 .2.12.15.15 0 0 0 .14-.08l.18-.3s0-.06-.05-.06a.32.32 0 0 1-.23-.16v-.08c0 .03.11.15.22.12s.15 0 .17-.15a2.72 2.72 0 0 0 0-.34c0-.06 0-.14-.1-.12a.29.29 0 0 1-.31-.1c-.05-.1 0-.11 0-.08a.24.24 0 0 0 .22.12.19.19 0 0 0 .18-.14 1.6 1.6 0 0 0 0-.23c0-.08-.08-.16-.11-.2a.35.35 0 0 1 0-.09h-.1a.28.28 0 0 1-.31-.1c-.08-.14 0 0 .07 0s.21.07.28-.05a.23.23 0 0 0 0-.27.86.86 0 0 1-.08-.22h-.08a.31.31 0 0 1-.32 0c-.08-.09 0-.06 0 0s.2.09.28 0 0-.23-.06-.29a5.05 5.05 0 0 0-.43-.37 2.11 2.11 0 0 1 .4.28c.18.16.18.22.26.25s.19 0 .19-.06a.51.51 0 0 0-.17-.38.49.49 0 0 1 .19.3c0 .19 0 .17.08.2a1.07 1.07 0 0 0 .29.1c.06 0 .2 0 .09-.23l-.12-.19a2 2 0 0 1 .17.23.17.17 0 0 1 0 .2v.08a4.09 4.09 0 0 0 .37.19c.08 0 .12 0 .12-.08a1.17 1.17 0 0 0 0-.31 1.12 1.12 0 0 1 .05.31v.14a.51.51 0 0 0 .29 0l.39-.21h.1c.01 0 0 0 0-.08a1.26 1.26 0 0 0 .11-.18H30.8a2.08 2.08 0 0 1-.54-.32l-.31-.18z" fill="#904620"/><path d="M28.7 20.68a4.88 4.88 0 0 0-.4-.34s-.12-.06-.08-.09a.67.67 0 0 1 .32 0 .73.73 0 0 1 .36.23.51.51 0 0 1 .12.38c.06 0 .12 0 .11-.08a.51.51 0 0 0-.17-.38 1 1 0 0 0-.15-.15 1.61 1.61 0 0 0-.73-.28c-.37 0-.79-.07-.85.06a.31.31 0 0 0 .24.39 1.77 1.77 0 0 0 .59 0 1.05 1.05 0 0 1 .41.09l.2.1zm.83.35c.06 0 .19-.05.08-.23l-.12-.19a1.48 1.48 0 0 0-.43-.36c-.22-.1-.09 0 0 0a1.16 1.16 0 0 1 .34.3 1.58 1.58 0 0 1 .16.45zm.52.28c.08 0 .12 0 .12-.08a1.18 1.18 0 0 0 0-.3 1.29 1.29 0 0 0-.08-.21c0-.09-.16-.17-.19-.14s0 .09.07.14a1.23 1.23 0 0 1 .11.6zm.14 0v.09a.51.51 0 0 0 .29 0l.39-.21h.06A.39.39 0 0 0 31 21c0-.08 0-.15-.19-.09a2.67 2.67 0 0 0-.42.3.24.24 0 0 1-.19 0z" fill="#d2a567"/></g><g fill-rule="evenodd"><path d="M27.51 22a.61.61 0 0 0-.12-.69 1.16 1.16 0 0 0-.74-.38c-.16 0-.35-.06-.35-.36s.1-.54.73-.52a.46.46 0 0 0 0 .29.36.36 0 0 0 .23.2c.07.06.46.25.58.34a3.25 3.25 0 0 1 .42.37 2 2 0 0 1 .18.46 4.6 4.6 0 0 1 .1.89.73.73 0 0 1-.19.5 1 1 0 0 1-.52.35 3.34 3.34 0 0 0-.32-1.45z" fill="#4c2b17"/><path d="M28.3 21.33a2 2 0 0 1 .17.44 4.64 4.64 0 0 1 .1.89.73.73 0 0 1-.19.5 1 1 0 0 1-.52.35v-.11a.82.82 0 0 0 .46-.46 1.46 1.46 0 0 0 0-.89 2.4 2.4 0 0 0-.21-.72v-.07a.46.46 0 0 1 .14.08z" fill="#d2a567"/><path d="M27.86 23.29a.87.87 0 0 0 .27-.23c.09-.15-.08-.25-.19-.35.12 0 .29.24.34.13a.86.86 0 0 0 .08-.24c0-.2-.26-.39-.46-.41.1 0 .29 0 .36.06a2.51 2.51 0 0 0-.05-.32.39.39 0 0 0-.19-.21.42.42 0 0 0-.23 0 .37.37 0 0 1 .21-.05c.1 0 .12 0 .15.05s-.08-.21-.08-.24a.3.3 0 0 0 0-.12.31.31 0 0 0-.15-.1.55.55 0 0 0-.24 0 .45.45 0 0 1 .22 0h.06l-.13-.26a.53.53 0 0 0-.56-.16h-.17a.11.11 0 0 1 .09-.09.26.26 0 0 1 .11 0v-.07a1.05 1.05 0 0 0-.62 0h-.15a.49.49 0 0 1 .22-.13 1 1 0 0 1 .23 0c.05 0 .06 0 0-.08a.57.57 0 0 0-.24-.06h.06a.51.51 0 0 1 .19 0h.09a1.69 1.69 0 0 0 0-.26 1.31 1.31 0 0 0-.33 0 .43.43 0 0 0-.33.25.78.78 0 0 0 0 .37c0 .08.07.12.27.16a1.55 1.55 0 0 1 .53.19 1.41 1.41 0 0 1 .36.36.67.67 0 0 1 .07.43 1.35 1.35 0 0 1-.07.19 3.55 3.55 0 0 1 .32 1.2z" fill="#ab6e29"/><path d="M28.24 21.91a.39.39 0 0 0-.19-.21.42.42 0 0 0-.21 0 1.06 1.06 0 0 1 .48.19zM28.35 22.52a.57.57 0 0 0-.44-.32 1.45 1.45 0 0 1 .44.32zM28.1 21.38a.24.24 0 0 0 0-.09.31.31 0 0 0-.15-.1.55.55 0 0 0-.24 0 1 1 0 0 1 .47.18zm-.24-.38a.53.53 0 0 0-.56-.16h-.1a4.2 4.2 0 0 1 .69.17zm-1.36-.35a.48.48 0 0 1 .22-.13 1 1 0 0 1 .23 0c.05 0 .06 0 0-.08a.57.57 0 0 0-.24-.06h.06a.51.51 0 0 1 .19 0h.09a1.5 1.5 0 0 0 0-.25h-.27a.59.59 0 0 0-.27.16.41.41 0 0 0-.07.27c0 .07 0 .11.06.11z" fill="#d2a567"/></g><path d="M29.53 22.9c0 .07.07.19.2.21a.44.44 0 0 0 .34-.15.27.27 0 0 0 0-.29.32.32 0 0 0-.16-.16.4.4 0 0 0 .26-.08.26.26 0 0 0 0-.31 2 2 0 0 0-.24-.34s.23.08.34-.06a.27.27 0 0 0 0-.33h-.11a4.16 4.16 0 0 1-.64-.24l-.23-.15c-.06 0-.11 0 0 0a4 4 0 0 1 .47.37.83.83 0 0 1 .18.22 3.54 3.54 0 0 0-.38-.22 1.42 1.42 0 0 0-.26-.11c-.06 0-.06 0 0 0s.11 0 .08.1-.13.12-.06.17l.43.36c.06.05 0 .09 0 .11s-.09.08-.24 0-.17-.09-.11 0 .14.12.09.17-.08.1 0 .17l.22.24v.14c0 .04-.1.07-.07.13z" fill="#4c2b17" fill-rule="evenodd"/><path d="M29.57 23a.22.22 0 0 0 .16.13.44.44 0 0 0 .34-.15.27.27 0 0 0 0-.29.32.32 0 0 0-.16-.16.4.4 0 0 0 .26-.08.26.26 0 0 0 0-.31 2 2 0 0 0-.24-.34s.23.08.34-.06a.27.27 0 0 0 0-.33h-.07c-.07 0 0 .2-.06.25a.42.42 0 0 1-.3 0l-.17-.11a.17.17 0 0 0-.18.08.15.15 0 0 0 .06.22c.05 0 .21.12.25.19a.13.13 0 0 1-.11.2h-.09a1.2 1.2 0 0 1 .22.26c0 .08.1.25 0 .32a.76.76 0 0 1-.3.1z" fill="#904620" fill-rule="evenodd"/><path d="M29.6 23a.2.2 0 0 0 .13.08.44.44 0 0 0 .34-.15.27.27 0 0 0 0-.29.32.32 0 0 0-.16-.16.09.09 0 0 0 0 .08s.12.13.1.22a.28.28 0 0 1-.21.19h-.22zm.52-.54h.08a.26.26 0 0 0 0-.31 2 2 0 0 0-.24-.34s.23.08.34-.06a.27.27 0 0 0 0-.33.28.28 0 0 1 0 .25.31.31 0 0 1-.28.1h-.08l-.15-.1a.14.14 0 0 0 0 .11L30 22c.11.13.19.26.13.34s-.23.07-.32.07-.06 0 0 0a.75.75 0 0 0 .28.07z" fill="#d2a567" fill-rule="evenodd"/><path d="M31.55 22.3a7.55 7.55 0 0 1 .52.58 7 7 0 0 1 .55.79 2.22 2.22 0 0 1 .17.4s.24.5.1.47a2.15 2.15 0 0 1-.54-.37c-.06-.07-.2-.64-.26-.79a7.13 7.13 0 0 0-.61-1c-.18-.22 0-.15.07-.07z" fill="#4c2b17" fill-rule="evenodd"/><path d="m30.79 21.36.22-.18h.07a3.6 3.6 0 0 1 .61.51c.28.29.44.45.58.64a5.73 5.73 0 0 1 .46.72c.16.28.34.75.4.86a2.18 2.18 0 0 0 .21.43.6.6 0 0 0 .2.17c.07 0 .06.07 0 .08a3.12 3.12 0 0 1-.64-.07c-.19 0-.21-.16-.17-.28a.89.89 0 0 0-.07-.5 7.54 7.54 0 0 0-.36-.66h.07c.07 0 .05 0 0 0a.25.25 0 0 1-.19-.11c-.07-.1-.26-.4-.31-.45s0-.06 0-.06H32h-.1c-.04 0 0 0-.12-.08l-.27-.38a3.05 3.05 0 0 0-.28-.24c-.08-.06-.08-.07 0-.08h.16a1.81 1.81 0 0 1-.25 0 1.2 1.2 0 0 1-.27-.21c-.05-.06 0-.08 0-.1z" fill="#904620" fill-rule="evenodd"/><path d="m30.79 21.36.2-.16c.08.08.19.25.11.31a.45.45 0 0 1-.17.08l-.14-.13c-.05-.06 0-.08 0-.1zm1.83 2.3v-.09l.12.05h-.08zm-.19-.35-.13-.22h.07v.08c0 .02.13 0 .15.05s-.08.15-.17.14zm-.43-.67-.12-.16v-.06H32a.18.18 0 0 0 .11 0s.06.05 0 .11-.13.12-.13.12zm-.38-.47-.11-.17a3.05 3.05 0 0 0-.28-.24c-.08-.06-.08-.07 0-.08h.18a.29.29 0 0 1 .2.09.81.81 0 0 1 .07.29.35.35 0 0 1 0 .07zM33.36 24.61a3.94 3.94 0 0 1-.45-.07l-.11-.05a2.74 2.74 0 0 1-.32-.22 2 2 0 0 1 .54.12 1.26 1.26 0 0 1 .36.22z" fill="#d2a567" fill-rule="evenodd"/><path d="M33.11 24.68a.86.86 0 0 1-.46-.19 1.62 1.62 0 0 1-.34-.35 1.08 1.08 0 0 0 0 .38 1.37 1.37 0 0 0 .2.72 3.53 3.53 0 0 0 .38.47.44.44 0 0 1 .11.29v1.46c0 .12 0 .24.06 0s.07-.62.07-.67v-.66c0-.14-.1-.66-.12-.74a1.78 1.78 0 0 0-.06-.2.39.39 0 0 0 .21.2.45.45 0 0 1-.14-.05 5.29 5.29 0 0 1 .13.64v2.01c0 .03.07-.27.08-.5s.05-.55.08-.68.08-.42.14-.61a1.9 1.9 0 0 0 0-.6c0-.16-.14-.69-.16-.78s-.13-.15-.3-.17z" fill="#4c2b17" fill-rule="evenodd"/><path d="M32.31 24.14a1.08 1.08 0 0 0 0 .38 1.37 1.37 0 0 0 .2.72 3.42 3.42 0 0 0 .29.37.16.16 0 0 0 .07-.17 4.93 4.93 0 0 0-.24-.77c-.06-.11-.24-.44-.27-.53zm.69 1.08a.38.38 0 0 0 .2.18.45.45 0 0 1-.14-.05 5.29 5.29 0 0 1 .13.64 6.32 6.32 0 0 1 0 .69.8.8 0 0 0 .14-.27v-.65a5.79 5.79 0 0 0-.06-.7.43.43 0 0 0-.19-.23 1.17 1.17 0 0 0-.28-.14v.06c0 .06.26.19.27.21s0 0-.06 0l-.16-.09a.45.45 0 0 0 .06.17.75.75 0 0 1 .07.12z" fill="#904620" fill-rule="evenodd"/><path d="M33.13 25s.08 0 .06.07a.45.45 0 0 1-.28 0V25s0-.07 0 0l.16.09h.06zm.1.43h-.15v-.09a.45.45 0 0 0 .14.05z" fill="#d2a567" fill-rule="evenodd"/><path d="M32.27 24.36v.17a1.37 1.37 0 0 0 .2.72 3.42 3.42 0 0 0 .29.37v-.07a4.72 4.72 0 0 0-.21-.78 1.4 1.4 0 0 0-.28-.39z" fill="#ab6e29" fill-rule="evenodd"/><path d="M32.28 24.7a1.29 1.29 0 0 0 .19.54l.14.19-.15-.43a1.23 1.23 0 0 0-.18-.32z" fill="#d2a567" fill-rule="evenodd"/><g fill-rule="evenodd"><path d="M31.56 23.92a1.53 1.53 0 0 0 .32.42c.15.12.16.1.22.12s.08 0 .1.22a1.9 1.9 0 0 0 .1.54c.07.18.21.45.28.6a1.59 1.59 0 0 1 .08.53v1.2c0 .12-.06 0-.1-.13a1.27 1.27 0 0 1-.14-.3c0-.09 0-.27-.06-.5a4.5 4.5 0 0 0-.06-.62.71.71 0 0 0-.23-.39 3.12 3.12 0 0 1-.39-.52 1.69 1.69 0 0 1-.12-.62v-.58z" fill="#4c2b17"/><path d="M31.88 25.41c-.08-.11-.15-.23-.2-.3a1.69 1.69 0 0 1-.12-.62s.05-.07.11 0 .2.11.24.25a2.32 2.32 0 0 1 0 .72z" fill="#ab6e29"/><path d="m31.78 25.26-.1-.15a1.66 1.66 0 0 1-.12-.6.56.56 0 0 1 .18.32v.42z" fill="#d2a567"/><path d="M32.59 27.42a1.27 1.27 0 0 1-.14-.3c0-.09 0-.27-.06-.5a4.41 4.41 0 0 0-.09-.62.71.71 0 0 0-.23-.39 1.89 1.89 0 0 1-.19-.23 2.32 2.32 0 0 0 0-.72.33.33 0 0 0-.14-.19c0-.09 0-.12.09-.08a.61.61 0 0 1 .22.29c0 .15.16.56.21.72a4.83 4.83 0 0 0 .23.53 1.27 1.27 0 0 1 .09.51v.96z" fill="#904620"/></g><g fill-rule="evenodd"><path d="M31 24.19c.08.12.11.21.21.25s.16 0 .2.11a2.67 2.67 0 0 1 .11.48 1.07 1.07 0 0 0 .24.45.73.73 0 0 1 .19.34c0 .12.08.7.1.86s.06.72.06.81 0 0-.06 0-.15-.34-.18-.42a4.39 4.39 0 0 1-.13-.59 2.93 2.93 0 0 0-.07-.52.55.55 0 0 0-.17-.22l-.22-.16a1.2 1.2 0 0 1-.31-.42c-.15-.33-.21-.76 0-.93z" fill="#4c2b17"/><path d="m32 27.17-.07-.17a4.39 4.39 0 0 1-.13-.59 2.93 2.93 0 0 0-.07-.52.55.55 0 0 0-.17-.22l-.22-.16a1.2 1.2 0 0 1-.31-.42 1.23 1.23 0 0 1-.12-.72.34.34 0 0 1 .08.08l.26.31a3.42 3.42 0 0 1 .22.49 2.13 2.13 0 0 0 .27.42.69.69 0 0 1 .15.22c0 .08.12.58.13.68a2.14 2.14 0 0 1 0 .47.38.38 0 0 1 0 .09z" fill="#904620"/><path d="m31.45 25.63-.1-.07a1.2 1.2 0 0 1-.31-.42 1.44 1.44 0 0 1-.13-.54 2.66 2.66 0 0 1 .34.45 2.15 2.15 0 0 1 .21.59z" fill="#ab6e29"/><path d="M31.3 25.51a1.21 1.21 0 0 1-.27-.38 1.56 1.56 0 0 1-.12-.37 1.72 1.72 0 0 1 .21.37l.17.37z" fill="#d2a567"/></g><g fill-rule="evenodd"><path d="M30.43 24.29a.41.41 0 0 0 .21.3c.15.06.17 0 .19.12a1 1 0 0 0 .13.41c.09.15.17.3.22.37s.13.16.19.24a1.4 1.4 0 0 1 .11.39 3.55 3.55 0 0 0 .09.42v.23c0 .03-.08-.06-.1-.13a4.6 4.6 0 0 0-.16-.51 1.09 1.09 0 0 0-.25-.39 2.65 2.65 0 0 0-.29-.16 2.61 2.61 0 0 1-.38-.38.67.67 0 0 1-.09-.39 1 1 0 0 0 0-.35c0-.07 0-.16.08-.16z" fill="#4c2b17"/><path d="M31.52 26.75a.42.42 0 0 1 0-.11 4.6 4.6 0 0 0-.16-.51 1.09 1.09 0 0 0-.25-.39 2.65 2.65 0 0 0-.29-.16 2.61 2.61 0 0 1-.38-.38.67.67 0 0 1-.09-.39v-.13a.88.88 0 0 1 .23.22c.12.16.38.54.45.62a2.8 2.8 0 0 1 .28.32 2.22 2.22 0 0 1 .16.49 2.43 2.43 0 0 1 .06.43z" fill="#904620"/><path d="m30.94 25.66-.16-.08a2.61 2.61 0 0 1-.38-.38.72.72 0 0 1-.09-.37.12.12 0 0 1 .1.07 3.09 3.09 0 0 0 .27.34 2.45 2.45 0 0 1 .23.32v.1z" fill="#ab6e29"/><path d="M30.7 25.51a2.42 2.42 0 0 1-.3-.32.85.85 0 0 1-.08-.21.3.3 0 0 1 .13.12l.13.22c0 .07.12.13.12.19z" fill="#d2a567"/></g><g fill-rule="evenodd"><path d="M29.71 24.62a1.29 1.29 0 0 1 .3.14s0 .18.08.24a2.84 2.84 0 0 0 .42.51c.23.21.37.27.4.36l.15.36a2.76 2.76 0 0 1 .09.52c0 .09-.06 0-.11-.13a1.65 1.65 0 0 1-.14-.33 1.38 1.38 0 0 0-.06-.26 1.56 1.56 0 0 0-.26-.29.86.86 0 0 0-.2-.15 1.77 1.77 0 0 0-.25 0 3.45 3.45 0 0 1-.44-.47 4.3 4.3 0 0 1 0-.47z" fill="#4c2b17"/><path d="m31.11 26.71-.06-.1a1.65 1.65 0 0 1-.14-.33 1.38 1.38 0 0 0-.06-.26 1.56 1.56 0 0 0-.26-.29.86.86 0 0 0-.2-.15 1.77 1.77 0 0 0-.25 0 3.45 3.45 0 0 1-.44-.47.37.37 0 0 1 0-.09.63.63 0 0 1 .21 0 1.25 1.25 0 0 1 .39.3c.07.07.24.21.33.28l.24.22a1.24 1.24 0 0 1 .11.22 2.37 2.37 0 0 1 .12.33 1.19 1.19 0 0 1 0 .31z" fill="#904620"/><path d="M30.35 25.57h-.21a3 3 0 0 1-.39-.41.72.72 0 0 1 .35.12 1.23 1.23 0 0 1 .24.31z" fill="#ab6e29"/><path d="M30.18 25.56a2.26 2.26 0 0 1-.31-.32.62.62 0 0 1 .26.14.39.39 0 0 1 .09.18z" fill="#d2a567"/></g><g fill-rule="evenodd"><path d="M30.55 24s-.63-.66-.68-.73 0-.06.07-.08h.07a1.56 1.56 0 0 0 .22.32c.08.1.45.44.45.44-.18 0-.16 0-.13.07zm-.46-.89s0-.09.07-.06.34.24.46.34a8.68 8.68 0 0 1 .63.63.1.1 0 0 0-.07.13L31 24a.15.15 0 0 0-.07 0l-.12-.13c-.07-.09-.31-.34-.43-.45l-.34-.3zm.27-.75s0-.07.07-.05a1.06 1.06 0 0 1 .17.11s.32.29.42.39.46.49.64.72a2.36 2.36 0 0 1 .22.3s-.18-.29-.31-.47a7.43 7.43 0 0 0-.69-.81c-.25-.24-.43-.35-.44-.43a1.24 1.24 0 0 1 0-.37l.2.18.54.57c.1.11.39.52.46.64s.25.46.28.53.11.3 0 .32a.57.57 0 0 1-.43-.26c-.06-.12-.18-.35-.26-.48a4.24 4.24 0 0 0-.38-.5 4.08 4.08 0 0 0-.46-.42zm0 1.93s-.4-.49-.44-.56a.17.17 0 0 1 0-.15h.14l.55.51.07.07c-.09-.07-.36-.25-.41-.22s.09.28.11.31z" fill="#4c2b17"/><path d="M30.65 21.68c.09.09.53.48.76.72a5.62 5.62 0 0 1 .51.67 5.41 5.41 0 0 1 .3.54c.07.16.23.68.07.74s-.52-.18-.6-.27-.09-.09-.08 0 .08.35 0 .39a.57.57 0 0 1-.39-.13c-.07-.07-.07-.07-.07 0s.08.25-.1.25a.73.73 0 0 1-.36-.07l-.18-.11s-.06 0 0 0 .07.28 0 .36a.48.48 0 0 1-.46 0 .66.66 0 0 1-.17-.27l-.14-.3c0-.07 0-.08 0 0s.43.33.49.39.07 0 0 0l-.63-.67v-.08c0-.01.11 0 .14-.06s.05-.13.09-.12.1.09.15.14.37.43.39.47.06 0 0 0-.16-.27-.11-.31.38.2.43.24.08.08.1.08l-.13-.14a1.1 1.1 0 0 1-.13-.15s0-.09.13-.07c0 0-.37-.34-.45-.44a1.56 1.56 0 0 1-.22-.32s.06 0 .08-.06l.34.3c.12.11.36.36.43.45l.12.13A.15.15 0 0 1 31 24l.13.12a.1.1 0 0 1 .07-.13l.17.18v-.06c0-.06-.19-.25-.21-.29s0-.06.12 0a.62.62 0 0 1 .14.05.27.27 0 0 0-.12-.07h-.19l-.26-.29c-.08-.08-.2-.22-.15-.22a.63.63 0 0 1 .23.05.7.7 0 0 0-.14-.08.6.6 0 0 1-.18-.06l-.26-.23-.24-.24v-.07a.31.31 0 0 0 .15-.09.42.42 0 0 0 .06-.12 4.08 4.08 0 0 1 .46.42 4.24 4.24 0 0 1 .38.5c.08.13.2.36.26.48a.57.57 0 0 0 .43.26c.15 0 .06-.25 0-.32s-.2-.4-.28-.53-.36-.53-.46-.64l-.54-.57-.2-.18v-.09c0-.04.06-.08.16 0z" fill="#904620"/><path d="M30.46 24.36h.16a1.39 1.39 0 0 0 .31.05v-.09l-.09-.09-.13-.14a1.1 1.1 0 0 1-.13-.15s0-.09.13-.07c0 0 .08 0 .1.06s0 .1 0 .16a.79.79 0 0 0 .13.18H31a1.6 1.6 0 0 1 0-.28.15.15 0 0 1 0 .01l.13.12a1.1 1.1 0 0 0 .28.2c.07 0 .12 0 .14-.08a.72.72 0 0 0 0-.14c0 .1.06.32 0 .35a.57.57 0 0 1-.39-.13c-.07-.07-.07-.07-.07 0s.08.25-.1.25a.73.73 0 0 1-.36-.07l-.18-.11zm1.15-.36h.07a3.89 3.89 0 0 0 .36.19c.11 0 .16 0 .15-.05s-.09-.47-.1-.6a1 1 0 0 1 0-.24l.14.27c.07.16.23.68.07.74s-.52-.18-.6-.27l-.09-.04zm-1.17.38c0 .05.07.28 0 .36a.26.26 0 0 1-.14.06.62.62 0 0 1-.28-.08c-.07-.06-.07-.08 0-.08h.24V24.49l-.27-.29h.18s-.14-.27-.18-.34 0-.08 0-.08l.35.43.09.17z" fill="#d2a567"/></g><g fill-rule="evenodd"><path d="M29.53 24.21a4.49 4.49 0 0 1 .27.42.47.47 0 0 1 0 .34.48.48 0 0 1-.12.16v.06c0 .06.25.27.36.37a1 1 0 0 1 .22.28 1.63 1.63 0 0 1 .12.3 1.83 1.83 0 0 0 .11.29.2.2 0 0 1 0 .14l-.48-.67a.55.55 0 0 0-.26-.19.45.45 0 0 1-.23-.1l-.18-.22a.24.24 0 0 0-.17-.11s0 .35-.38.39v.14c0 .01-.07-.22-.08-.32a4.88 4.88 0 0 0-.14-.54v-.07a.32.32 0 0 1 .13.07 1.16 1.16 0 0 1 .19.3.51.51 0 0 0-.15-.34c-.14-.11 0-.1.09-.14a.92.92 0 0 0 .1-.12s.08 0 .11.06l.12.2v-.08a2.39 2.39 0 0 1-.1-.3c0-.07 0-.07.07 0l.44.44-.45-.53.08-.05a.38.38 0 0 0 .19-.16c0-.08.08 0 .1 0z" fill="#904620"/><path d="M29.22 25.28s0 .35-.38.39c0 0-.06-.24-.07-.29s0-.06 0 0a.18.18 0 0 0 .21 0 .31.31 0 0 0 .1-.32 2.73 2.73 0 0 0-.12-.38s.08 0 .11.06l.12.2a1.8 1.8 0 0 1 0 .35z" fill="#ab6e29"/><path d="M29.22 25.28s0 .35-.38.39v-.2a.29.29 0 0 0 .26 0 .46.46 0 0 0 .14-.42v-.16.06a1.8 1.8 0 0 1 0 .35zM29.53 24.21a4.49 4.49 0 0 1 .27.42.47.47 0 0 1 0 .34.48.48 0 0 1-.12.16.41.41 0 0 1-.16 0c-.08 0-.1 0 0 0s.15-.05.15-.1a.07.07 0 0 0 0-.05l-.18-.21v-.07a.31.31 0 0 1 .16 0c.05 0 0 0 0-.09s-.15-.32-.12-.39z" fill="#d2a567"/><path d="M29.7 25.13v.06c0 .06.25.27.36.37a1 1 0 0 1 .22.28 1.63 1.63 0 0 1 .12.3 1.83 1.83 0 0 0 .11.29.2.2 0 0 1 0 .14l-.17-.23a.86.86 0 0 0 0-.14.56.56 0 0 0-.11-.29 1.76 1.76 0 0 0-.33-.35 1.59 1.59 0 0 1-.34-.34v-.08c0-.02.07 0 .11 0z" fill="#4c2b17"/></g><g fill-rule="evenodd"><path d="m29.44 27.24.94.87 1 .85c.12.1.37.26.59.13s.23-.24.23-.24l-2.82-2.14v.32a.26.26 0 0 0 .06.21z" fill="#4c2b17"/><path d="m29.59 27.15.67.57a.72.72 0 0 0 .28.06c.06 0 .06 0 0 0h-.12a3.42 3.42 0 0 0 .35.3 1 1 0 0 0 .26 0c.08 0 .13 0 .05.05s-.21 0-.09.09a2.69 2.69 0 0 0 .27.21 1.29 1.29 0 0 0 .36 0c.07 0 .12.05 0 0a.4.4 0 0 0-.2 0v.08l.36.29s0 .06-.09 0l-.41-.27h-.07c-.07 0-.06.14-.07.09s0-.19 0-.23 0-.07-.12-.15a1 1 0 0 0-.22-.16h-.07v.13a.52.52 0 0 1 0-.12v-.14l-.21.05c-.05 0-.13-.12-.15-.08s0 .1 0 .13 0-.13-.05-.19l-.68-.68s0-.07 0 0z" fill="#b0732a"/></g><g fill-rule="evenodd"><path d="m29.41 27.41 1 .92c.25.22.9.72 1.07.83 0 0-.19.33-.64 0a16.26 16.26 0 0 1-1.51-1.43.69.69 0 0 0 0-.34z" fill="#4c2b17"/><path d="m29.41 27.41 1 .92c.25.22.9.72 1.07.83a.33.33 0 0 1-.1.1c-.34-.21-1-.76-1.17-.88a10.83 10.83 0 0 1-.84-.84v-.13z" fill="#80401d"/><path d="M29.35 27.83a.28.28 0 0 1-.14 0 1.19 1.19 0 0 1 0 .19c0 .11.08.19.14.25l.87.86c.13.14.44.48.65.19 0 0-1.11-1-1.5-1.47z" fill="#4c2b17"/><path d="M29.35 27.83a.28.28 0 0 1-.14 0v.07c.35.39 1.13 1.38 1.59 1.47l.05-.06s-1.11-1-1.5-1.47z" fill="#80401d"/><path d="M29.27 28.34c.08.1.91.9.94.93s-.06.13-.14.11-.15-.08-.28-.22-.44-.55-.48-.59a.3.3 0 0 1-.05-.23zM29.13 28.11a1.86 1.86 0 0 1 .1.36 2.51 2.51 0 0 1 0 .35s-.06 0-.08-.08a2.38 2.38 0 0 1-.07-.32v-.32zM28.9 28.26a2.8 2.8 0 0 1 .17.43s.09.22 0 .25-.08 0-.11-.12a2 2 0 0 1-.13-.41v-.14z" fill="#4c2b17"/></g><g fill-rule="evenodd"><path d="M29 25.63a2.35 2.35 0 0 1 .26.59 7.28 7.28 0 0 1 .1 1c0 .21 0 .51-.08.53s-.13-.09-.13-.09v.28a.23.23 0 0 1-.21-.13s0 .35-.11.36a.3.3 0 0 1-.33-.17s.08.35 0 .38a.39.39 0 0 1-.34-.18s0 .29-.08.31-.32-.25-.32-.25.1.25 0 .32-.18-.15-.2-.22a1 1 0 0 0-.12-.37l-.5-.72a.86.86 0 0 0-.14-.14.53.53 0 0 0 .22 0 1.15 1.15 0 0 0 .22.34 1.69 1.69 0 0 0 .72.55 5.64 5.64 0 0 1-.48-.79.46.46 0 0 0 .05-.44.38.38 0 0 0 .1.06 4.16 4.16 0 0 0 .3.57l.27.39a.85.85 0 0 0 0-.52A2 2 0 0 1 28 27a.14.14 0 0 0 .06-.13.79.79 0 0 1 .29.37l.14.35a4.13 4.13 0 0 0-.15-.55 3.72 3.72 0 0 0-.22-.42.47.47 0 0 0 .24.07c.1 0 .09-.09.09-.09a4.68 4.68 0 0 1 .27.56 9.82 9.82 0 0 0-.21-1 .24.24 0 0 0 .19.05s.19.6.25.72a3 3 0 0 0-.06-.54c0-.19-.14-.49-.13-.54a.08.08 0 0 1 .07-.07s.09.08.14.19a1 1 0 0 0 0-.37z" fill="#8b451f"/><path d="M29 25.63a2.35 2.35 0 0 1 .26.59 7.28 7.28 0 0 1 .1 1c0 .21 0 .51-.08.53a.1.1 0 0 1-.1 0 .13.13 0 0 0 .09 0c.05 0 0-.17 0-.38a6.86 6.86 0 0 0-.12-.73c0-.08-.1-.39-.15-.51s-.07-.13 0-.07.07.24.11.36.14.65.15.79 0 .44 0 .44-.08 0-.09-.12a2.58 2.58 0 0 0-.07-.39l-.1-.19a3 3 0 0 0-.06-.54c0-.19-.14-.49-.13-.54a.08.08 0 0 1 .07-.07s.09.08.14.19a1 1 0 0 0 0-.37zM28.5 28a1.14 1.14 0 0 1 0 .26c0-.09-.05-.08-.08-.06s-.09 0-.13-.06-.11-.28-.11-.28a1.12 1.12 0 0 0 0-.31c.07.16.26.45.26.45zm-1-.81a.59.59 0 0 0 0-.35.38.38 0 0 0 .1.06 4.16 4.16 0 0 0 .3.57l.2.28-.06.09s-.06.05-.1 0a1.4 1.4 0 0 1-.17-.23l-.26-.43zm.55-.23a.16.16 0 0 0 0-.09.79.79 0 0 1 .29.37l.14.35s0-.21-.1-.4a4.74 4.74 0 0 1 .24.8c0 .08 0 0-.1-.06s-.11-.2-.23-.44l-.21-.49zm.32.12a3.72 3.72 0 0 0-.22-.42.47.47 0 0 0 .24.07c.1 0 .09-.09.09-.09s.16.39.2.51a1.72 1.72 0 0 1 .1.52c0 .17-.09.12-.1.05a1.39 1.39 0 0 0-.08-.26 1.54 1.54 0 0 0-.2-.34zm.37.08a9.82 9.82 0 0 0-.21-1 .24.24 0 0 0 .19.05l.08.24c0 .14.1.41.11.45s.13.45.09.45-.1-.19-.13-.26-.05-.06 0 0a4.85 4.85 0 0 1 .13.51c0 .14 0 .17-.08.1s0-.17-.06-.29-.08-.26-.08-.26z" fill="#4c2b17"/></g><g fill-rule="evenodd"><path d="M28.25 24.58a1.55 1.55 0 0 1 .19.38 3.29 3.29 0 0 0 .16.37.93.93 0 0 1 .13.26 1.42 1.42 0 0 1 0 .51c0 .09-.11.07-.3-.07 0 0 .09.59 0 .63s-.31-.1-.41-.21.07.52 0 .54-.24 0-.55-.24c0 0 .1.45 0 .52s-.34-.09-.39-.14-.08.07-.28 0l-.16-.06a1.86 1.86 0 0 1 0 .19 2.92 2.92 0 0 1-.82-.94 2.48 2.48 0 0 1-.27-.56c0-.2.18-.18.18-.18a5.83 5.83 0 0 0 1 1.27s-.58-.64-.58-.9.13-.1.13-.1v-.36a3.72 3.72 0 0 0 .6.85 1.24 1.24 0 0 1-.08-.34c0-.07.08 0 .11.12a.79.79 0 0 0 .2.27c.08.07.06 0 0 0s-.17-.24-.22-.33a.38.38 0 0 1-.05-.2.14.14 0 0 1 0-.1s0-.07.09 0a1.39 1.39 0 0 0 .34.3s-.37-.5-.26-.6.52.41.52.41a1.17 1.17 0 0 0-.14-.32c-.07-.07 0-.06 0-.09s0-.07.08-.13.08 0 .11.07a2.3 2.3 0 0 0 .2.35v-.09l-.15-.41c0-.08-.07-.21-.08-.25s.1 0 .17 0a3.21 3.21 0 0 1 .26.22 1.56 1.56 0 0 1 .21.27c0 .07.08.08 0-.07s-.21-.48-.22-.54a.61.61 0 0 1 0-.24c0-.11.05-.13.11-.06z" fill="#4c2b17"/><path d="m28.52 25.18.07.15a.93.93 0 0 1 .13.26 1.42 1.42 0 0 1 0 .51c0 .09-.11.07-.3-.07 0 0 .09.59 0 .63s-.31-.1-.41-.21.07.52 0 .54-.24 0-.55-.24c0 0 .1.45 0 .52s-.34-.09-.39-.14l-.26-.29s-.58-.64-.58-.9.13-.1.13-.1a6.19 6.19 0 0 0 .41.62c.14.16.18.1.19 0s0-.13.08 0a1.65 1.65 0 0 0 .23.33c.08.07.1-.07.11-.17l-.13-.16s-.17-.24-.22-.33a.38.38 0 0 1-.05-.2.14.14 0 0 1 0-.1 4.58 4.58 0 0 0 .41.57 1.32 1.32 0 0 0 .33.31s0-.09-.05-.17a2.82 2.82 0 0 1-.14-.28c0-.06 0 0 .11 0s.15.13.18.11a1.88 1.88 0 0 0-.15-.45 1.17 1.17 0 0 0-.14-.32c-.07-.07 0-.06 0-.09s0-.07.08-.13a1.51 1.51 0 0 0 .15.44 1.94 1.94 0 0 0 .28.36c.07.08.07 0 0 0l-.04-.43v-.08s0-.06.05 0l.17.08s.06 0 0-.07-.12-.23-.14-.3a1 1 0 0 0-.13-.2l-.2-.18h.11a3.21 3.21 0 0 1 .26.22.59.59 0 0 1 .12.14 1.27 1.27 0 0 0 0 .23.6.6 0 0 0 .16.21c.06 0 .08 0 .08-.05v-.46a.63.63 0 0 1 0-.11zm-1.46 1.94s-.08.07-.28 0l-.16-.06a5.55 5.55 0 0 1-.8-.78 2.32 2.32 0 0 1-.26-.54c0-.17.12-.18.17-.18a3.61 3.61 0 0 0 .54.94 2.25 2.25 0 0 0 .79.62z" fill="#904620"/><path d="M25.6 25.85a.48.48 0 0 1 .1.12 3.14 3.14 0 0 0 .28.4 5 5 0 0 0 .47.51l.25.19.13.07h-.05l-.16-.06a5.55 5.55 0 0 1-.8-.78 3 3 0 0 1-.22-.43z" fill="#ab6e29"/><path d="M28.45 26.26v.4c0 .03-.31-.1-.41-.21s.07.52 0 .54-.24 0-.55-.24c0 0 .1.45 0 .52s-.34-.09-.39-.14l-.26-.29a4.18 4.18 0 0 1-.53-.73l.19.18.44.49c.09.12.11 0 .11-.1v-.16c0 .09.27.52.33.59s.11-.35.11-.35l-.11-.16-.13-.16s-.17-.24-.22-.33a.38.38 0 0 1-.05-.2 4.34 4.34 0 0 0 .46.61c.06.06.44.4.45.36s-.13-.21-.13-.21a.57.57 0 0 0-.07-.17 2.82 2.82 0 0 1-.14-.28c0-.06 0 0 .11 0s.15.13.18.11a.82.82 0 0 0 .16.12c.07 0 0-.09-.05-.17l-.25-.37a1.17 1.17 0 0 0-.14-.32.21.21 0 0 1 .12.07c0 .06.25.35.29.44s.27.35.3.33 0-.17-.08-.22 0 0 0-.07l-.19-.39v-.08s0-.06.05 0l.17.08.13.14h-.07c-.07 0-.07 0 0 .09a.62.62 0 0 0 .14.21.18.18 0 0 0 .11 0zm.1-1v.1a.93.93 0 0 1 .13.26 1.42 1.42 0 0 1 0 .51c0 .09-.11.07-.3-.07v-.05c0 .05.13.11.17.05a1.29 1.29 0 0 0 0-.53 1.51 1.51 0 0 1 0-.26z" fill="#d2a567"/></g><g fill-rule="evenodd"><path d="M25.32 24.21a1.53 1.53 0 0 0-.27.65 1 1 0 0 0 .13.47 2.42 2.42 0 0 1 .11.61.73.73 0 0 0 .4-.3s.34.42.44.41.19-.57.2-.68.34.48.46.44.24-.34.25-.43a1 1 0 0 0 0-.18s.23.15.28.2a.17.17 0 0 0 .24-.06 2 2 0 0 0 .06-.55s.17.18.27.14.09-.44.09-.44a.27.27 0 0 0 .15 0c.05 0 0-.21-.08-.33a1.06 1.06 0 0 0-.26-.25s-.06 0-.06.16a2.9 2.9 0 0 0 .13.64 1.31 1.31 0 0 1-.16-.35c-.06-.21-.08-.37-.14-.38s-.1.13-.09.24a1.13 1.13 0 0 0 .1.37 1.41 1.41 0 0 1-.19-.37c0-.16 0-.06-.05 0a.57.57 0 0 0 .1.38.77.77 0 0 1-.13-.12v.08a1.06 1.06 0 0 0 .14.26.48.48 0 0 1-.16-.14 1.52 1.52 0 0 0 .15.51c.11.17 0 .09 0 .07a.75.75 0 0 1-.16-.29 2.38 2.38 0 0 1-.09-.57v-.34a.45.45 0 0 0-.26.12 1.86 1.86 0 0 1-.42.32c-.1 0-.15 0-.16-.06a1.24 1.24 0 0 1 0-.3s-.09 0-.22.09a1.38 1.38 0 0 1-.38.29c-.08 0-.11-.14-.11-.18v-.08c0 .01-.24.09-.27 0z" fill="#4c2b17"/><path d="M27.51 25.39a.12.12 0 0 0 .05-.06 2 2 0 0 0 .06-.55s.17.18.27.14.07-.14.08-.24a2.93 2.93 0 0 0-.06-.37c0-.08-.07-.27-.1-.39s0 0 0 .06l.05.11a3.7 3.7 0 0 1 .14.42c0 .08 0 .39-.08.4s-.23-.18-.23-.18a1.66 1.66 0 0 0 0-.22 3.71 3.71 0 0 0-.12-.39.38.38 0 0 0 0 .1 1.2 1.2 0 0 1 .08.26.62.62 0 0 1 0 .08 4.85 4.85 0 0 1 0 .63v.16z" fill="#5c3919"/><path d="M25.32 24.21a1.53 1.53 0 0 0-.27.65 1 1 0 0 0 .13.47 2.42 2.42 0 0 1 .11.61.73.73 0 0 0 .4-.3s.34.42.44.41.19-.57.2-.68.34.48.46.44.24-.34.25-.43a1 1 0 0 0 0-.18s.23.15.28.2a.18.18 0 0 0 .22 0l-.08-.08h-.05a.75.75 0 0 1-.16-.29 1.4 1.4 0 0 1 0-.16.21.21 0 0 0-.22.09c-.1.13-.06-.21-.06-.21v-.56a1.86 1.86 0 0 1-.42.32c-.1 0-.15 0-.16-.06a1.24 1.24 0 0 1 0-.3s-.09 0-.22.09a1.38 1.38 0 0 1-.38.29c-.08 0-.11-.14-.11-.18v-.08c0 .01-.24.09-.27 0z" fill="#904620"/><path d="M25.32 24.21a1.53 1.53 0 0 0-.27.65 1 1 0 0 0 .13.47 2.42 2.42 0 0 1 .11.61.73.73 0 0 0 .4-.3s.34.42.44.41.19-.57.2-.68.34.48.46.44.24-.34.25-.43a1 1 0 0 0 0-.18v-.4a1.36 1.36 0 0 1 0-.51.75.75 0 0 0 0-.21h-.08a.79.79 0 0 1 0 .16 2.2 2.2 0 0 0-.06.24 1.53 1.53 0 0 0 0 .36v.07a.71.71 0 0 1-.11-.12s-.08-.1-.1 0a.51.51 0 0 0 0 .26s.15.15.17.18 0 0-.07 0-.13-.07-.13 0v.05c0-.06 0-.13-.07-.26s-.07-.16-.11-.11-.09.25-.1.17a.45.45 0 0 1 0-.23c0-.06.12-.13.13-.21a.85.85 0 0 0 0-.18h-.08c-.1 0-.15 0-.16-.06-.08 0-.17.05-.17.08a3.19 3.19 0 0 0 0 .34c0 .12 0 .11.06.14s0 0 0 .05a.38.38 0 0 0-.14.21v.15c0-.04 0-.1-.08-.17s-.05 0-.09.09a1.35 1.35 0 0 0 0 .2v-.14a.53.53 0 0 1 .07-.22c0-.05.06-.08.06-.13v-.18c0-.04 0 0-.09 0s-.13.19-.13.17a.75.75 0 0 1 .09-.25l.16-.17c.05-.06 0-.17 0-.19a.49.49 0 0 1-.18.11.08.08 0 0 1-.07 0 .42.42 0 0 0-.14.1.65.65 0 0 0 0 .28 2 2 0 0 0 0 .3c0 .08.06.16 0 .22s-.06.11-.08.19 0 .1 0 0v-.52c0 .01-.06.07-.06 0a1.64 1.64 0 0 1 .07-.32c0-.12 0-.1-.08-.06a.41.41 0 0 0-.09.14v-.07a.84.84 0 0 1 .18-.27.4.4 0 0 0 .11-.23c-.06 0-.13 0-.15-.06z" fill="#ab6e29"/><path d="M25.68 25.63s.34.42.44.41.19-.57.2-.68.34.48.46.44a1.11 1.11 0 0 0 0-.29 1.44 1.44 0 0 1-.08-.25c0-.05 0-.13-.07-.26s-.07-.16-.11-.11-.09.25-.1.17a.45.45 0 0 1 0-.23c0-.06.12-.13.13-.21a.85.85 0 0 0 0-.18h-.08c-.1 0-.15 0-.16-.06h-.1v.61a2.64 2.64 0 0 1 0 .41 1.38 1.38 0 0 1-.12.37h-.08a1.21 1.21 0 0 1-.01-.47v-.1c0-.06-.05 0-.09.09a1.35 1.35 0 0 0 0 .2v-.14a.53.53 0 0 1 .07-.22c0-.05.06-.08.06-.13v-.18c0-.04 0 0-.09 0s-.13.19-.13.17a.75.75 0 0 1 .09-.25l.16-.17c.05-.06 0-.17 0-.19a.49.49 0 0 1-.18.11.08.08 0 0 1-.07 0 .42.42 0 0 0-.14.1.65.65 0 0 0 0 .28 2 2 0 0 0 0 .3v.18a2.66 2.66 0 0 0 .15.32zM26.9 25a.71.71 0 0 1-.11-.12s-.08-.1-.1 0a.31.31 0 0 0 0 .09.3.3 0 0 0 .12.08h.1zm0 .31h-.06c-.06-.06-.13-.07-.13 0s.13.09.19 0zm-1.45.36v-.52c0 .01-.06.07-.06 0a1.64 1.64 0 0 1 .07-.32c0-.12 0-.1-.08-.06a.24.24 0 0 0-.05.07 1.19 1.19 0 0 0 0 .33 2 2 0 0 0 .14.5c0 .1.07.25.09 0zm-.2-1 .13-.16a.4.4 0 0 0 .11-.23.2.2 0 0 1-.11 0l-.09.26v.15z" fill="#d2a567"/></g><g fill-rule="evenodd"><path d="M25.17 21.32zm0 0zm0 0zm0 0zm0 0a1.22 1.22 0 0 0 .12-.68s.13 0 .16.47a.73.73 0 0 0 .25-.43c.31.94-.78 1.51-1.18 1.25a1.6 1.6 0 0 1 .21-.26c.15-.13.42-.23.43-.35z" fill="#d2a567"/><path d="M25.14 21.77s0 .09-.21.19a1.08 1.08 0 0 0 .27-.1.19.19 0 0 1-.06-.09z" fill="#202020"/><path d="M25.47 21.1a.44.44 0 0 1-.15.44 4.08 4.08 0 0 1-.52.31 1 1 0 0 0 .51-1.23s.13 0 .16.47z" fill="#914721"/><path d="M25.29 21.36a.86.86 0 0 0 0-.74s.07 0 .11.16a.86.86 0 0 1-.13.58zM25.47 21.41a.55.55 0 0 0 .25-.32.27.27 0 0 1-.25.32z" fill="#202020"/></g><path d="M25.07 22.15a4 4 0 0 0 .62-.19s-.06.21-.53.33a2.75 2.75 0 0 0 .31-.19 2.54 2.54 0 0 1-.41 0z" fill="#202020" fill-rule="evenodd"/><path d="M25.7 22.83h-.06s0-.25-.17-.22c0 0-.05-.09-.11-.11a.34.34 0 0 1 .27.08.29.29 0 0 1 .07.22.26.26 0 0 0 .12-.28h.12a.45.45 0 0 1-.25.28z" fill="#6c4219" fill-rule="evenodd"/><path d="M25.39 22.42c.16-.28.33 0 .37 0s0-.08.07-.1.06 0 0 .06a.13.13 0 0 1-.12.1c-.1 0-.11-.2-.37-.07z" fill="#ab6e29" fill-rule="evenodd"/><path d="M25.39 22.42v-.07h.09c.06 0 .11.05.13.1s-.12-.08-.27 0z" fill="#202020" fill-rule="evenodd"/><path d="M25.89 21.1a.24.24 0 0 0 .15 0s-.09.05-.16 0zm-.39.74.12-.12a1.32 1.32 0 0 0 .28.1h.22-.06a1.56 1.56 0 0 1 .41.24l-.47-.14h-.1a.24.24 0 0 0 .1.08s.06.09.06.11S26 22 25.89 22l-.14.12a1.26 1.26 0 0 0 .1-.2c0-.06 0-.08-.05-.1a.6.6 0 0 0-.22 0zm.24-.28.07-.12a2.1 2.1 0 0 0 .4.1h.08c.02 0 0 0 0 0s-.06 0 .11.07a1 1 0 0 1 .31.17 1.65 1.65 0 0 0-.49-.18 3.66 3.66 0 0 0-.47 0zm.13-.28v-.08a.61.61 0 0 1 .2.06s.1.05.13 0 0 0 0 .05-.08 0-.19 0a.35.35 0 0 0-.21-.05z" fill="#4c2b17" fill-rule="evenodd"/><g fill-rule="evenodd"><path d="M27 21.41a1.18 1.18 0 0 1 .47.64 1.19 1.19 0 0 0 .32.41c0 .28-.36.16-.36.16s0 .21-.12.23-.31-.23-.31-.23 0 .56-.21.61-.29-.32-.29-.32c0 .21-.13.44-.28.45s-.21-.38-.21-.38a.48.48 0 0 1-.47.41.2.2 0 0 1-.12-.08 1.17 1.17 0 0 0 .22-.44.39.39 0 0 0 .2-.16c.06-.09.11 0 .08.05a2.34 2.34 0 0 1-.21.34 1.25 1.25 0 0 0 .3-.33c0-.12 0-.18.15-.2s.13.35.13.35a1.49 1.49 0 0 0 .1-.59h.17c.03 0-.12-.36-.12-.36a.65.65 0 0 0 .34 0 .37.37 0 0 0-.11-.28c.28 0 .33-.2.33-.2z" fill="#dbad6c"/><path d="M27.83 22.47v.12c-.1.09-.3 0-.3 0v-.12a.45.45 0 0 1-.07-.22v-.08.42c0 .13-.16.05-.23 0a.22.22 0 0 1-.12-.23.64.64 0 0 0 0-.24 1.49 1.49 0 0 1-.11-.21.43.43 0 0 0 0-.11 1.78 1.78 0 0 1 .32.46 2.17 2.17 0 0 0-.24-.54c-.14-.19.09 0 .15.05a3.73 3.73 0 0 1 .22.36 1.41 1.41 0 0 0-.22-.46c-.14-.18.12 0 .21.16a4.54 4.54 0 0 0 .29.5c.09.08.13.1.21.11z" fill="#904620"/><path d="M27.83 22.47v.12c-.1.09-.3 0-.3 0v-.12a.45.45 0 0 1-.07-.22v-.12a1 1 0 0 0-.23-.37l-.06-.08c-.14-.18.12 0 .21.16a4.54 4.54 0 0 0 .29.5c.09.08.13.1.21.11z" fill="#4c2b17"/><path d="M27.83 22.45c0 .28-.36.16-.36.16v-.12a.25.25 0 0 0 .35 0z" fill="#875021"/><path d="M27.48 22.61s0 .21-.12.23-.31-.23-.31-.23l-.05-.13v.38c0 .15-.09.18-.09.08s-.06-.4-.07-.48 0-.08-.05 0a.42.42 0 0 0-.08.17v.11a.18.18 0 0 1 0-.16c0-.1.09-.2.08-.25s-.06-.1-.08-.07a.93.93 0 0 0-.13-.32.65.65 0 0 0 .34 0 .36.36 0 0 0 0-.1c.05 0 .06.06.09.15a1.49 1.49 0 0 0 .11.21.64.64 0 0 1 0 .24.22.22 0 0 0 .12.23c.07 0 .21.12.23 0s0-.37 0-.42v.08a.45.45 0 0 0 .07.22v.12zm-2 .7a1.18 1.18 0 0 0 .22-.44.94.94 0 0 1-.23.49zm.71-.77c.11 0 .13.35.13.35a1.49 1.49 0 0 0 .1-.59 1.34 1.34 0 0 1 0 .24 1.45 1.45 0 0 1-.13.52c-.07.15-.11.16-.12.07s0-.27 0-.34 0 0-.05.09 0 0 0-.08a.5.5 0 0 0 0-.26z" fill="#b27129"/><path d="M26.48 21.92a1 1 0 0 0 .29 0 .39.39 0 0 1 0 .37.48.48 0 0 0-.25-.35z" fill="#904620"/><path d="M27 21.41a1.18 1.18 0 0 1 .47.64 1.19 1.19 0 0 0 .32.41c-.09 0-.12 0-.21-.11a4.54 4.54 0 0 1-.29-.5c-.09-.13-.36-.34-.21-.16a1.41 1.41 0 0 1 .22.46 3.76 3.76 0 0 0-.22-.36c-.07-.08-.29-.25-.15-.05a2.17 2.17 0 0 1 .24.54 1.78 1.78 0 0 0-.32-.46.37.37 0 0 0-.1-.18c.28 0 .33-.2.33-.2z" fill="#1e2121"/></g><path d="M25.31 24.08a.53.53 0 0 1-.14 0 5 5 0 0 1 .41-.7.48.48 0 0 0 .47-.41s.06.4.21.38.27-.24.28-.45c0 0 .11.36.28.32.2.09.3-.26.3-.26a1.73 1.73 0 0 1 0 .7 2.07 2.07 0 0 0 .18-.39 1 1 0 0 0 0-.42h.17c.14 0 .16.31.18.41s.18.29.2.36 0 .39-.1.37-.22-.23-.25-.29-.05 0-.1.06-.22.47-.34.47-.24-.3-.24-.3c-.22.32-.41.48-.52.47s-.12-.38-.12-.38a.84.84 0 0 1-.48.32c-.13 0-.11-.32-.11-.32a.23.23 0 0 1-.27.08z" fill="#904620" fill-rule="evenodd"/><path d="M25.31 24.08a1 1 0 0 1 .19-.45c.12-.17.16-.25.21-.23s-.15.6-.18.65a.21.21 0 0 1-.2 0z" fill="#dbad6c" fill-rule="evenodd"/><path d="M26.34 23.32zm0 0a.57.57 0 0 0 .18-.41s.1.34.27.32a.49.49 0 0 1-.25.3.74.74 0 0 1-.21.11c.33-.29.23-.48.23-.48a.25.25 0 0 1-.21.15zm.73.35a2.07 2.07 0 0 0 .18-.39 1 1 0 0 0 0-.42 1.12 1.12 0 0 1-.19 1.25.86.86 0 0 0 .06-.36.35.35 0 0 1-.19.19 1.36 1.36 0 0 0 .13-.27zm.31-.82c.14 0 .16.31.18.41s.18.29.2.36a.69.69 0 0 1 0 .27c-.19-.1-.24-.43-.29-.68a.85.85 0 0 0-.14-.36z" fill="#4c2b17" fill-rule="evenodd"/><path d="M26.31 23.33h.05a.25.25 0 0 0 .21-.15s.1.2-.23.48a.74.74 0 0 0 .21-.11 1.78 1.78 0 0 1-.22.77 1.16 1.16 0 0 0 .49-1.07h.07a3.3 3.3 0 0 1-.09.68c-.22.32-.41.48-.52.47s-.12-.38-.12-.38a.84.84 0 0 1-.48.32c-.13 0-.11-.32-.11-.32s.13-.39.2-.56.29-.31.31-.25 0 .11-.07.19a1.81 1.81 0 0 0-.09.19l-.05.07s.13-.13.17-.11-.11.37-.11.37a.75.75 0 0 0 .13-.19c0-.08 0-.11.06-.11s.06 0 .06.16a1.33 1.33 0 0 0 0 .19 4.27 4.27 0 0 0 .12-.63z" fill="#dbad6c" fill-rule="evenodd"/><path d="M27.48 23.5a1.79 1.79 0 0 0-.08-.5.31.31 0 0 1 0-.17 1.11 1.11 0 0 1 .07.68z" fill="#ab6e29" fill-rule="evenodd"/><g fill-rule="evenodd"><path d="M24.26 22.22a.29.29 0 0 0 .35-.47l-.22.16-.13.32z" fill="#fff6f0"/><path d="M24.29 22.2a.26.26 0 0 0 .31-.42l-.19.14-.12.28z" fill="#f06e22"/><path d="M24.49 21.93a.1.1 0 1 1-.1.1.1.1 0 0 1 .1-.1z" fill="#202020"/><path d="M24.49 22v.07V22z" fill="#d5d3ca"/></g><g fill-rule="evenodd"><path d="M24 22.28a.12.12 0 0 1 0-.19 1.48 1.48 0 0 0 .61-1s.14.08.09.45c0 0 .23-.12.2-.72 0 0 .23.14.1.53a.78.78 0 0 0 .14-.07c0 .12-.28.22-.43.35s-.44.63-.49.66-.24 0-.24 0z" fill="#ab6e29"/><path d="M24 22.28a.12.12 0 0 1 0-.19 1.47 1.47 0 0 0 .6-.93.71.71 0 0 1-.21.58 5.11 5.11 0 0 1-.37.38v.17z" fill="#6c4019"/><path d="m24.31 22.24-.06.08h-.08a.33.33 0 0 1 0-.15c0-.09.25-.3.35-.42a.92.92 0 0 0 .18-.5.6.6 0 0 1 0 .48c-.14.25-.3.51-.3.51z" fill="#dbad6c"/></g><g fill-rule="evenodd"><path d="M24.07 22.3a.62.62 0 0 1 .36.09.41.41 0 0 0 .39.06.6.6 0 0 1 .46 0c.12.06.15.1.16.15s0 0 0 .07v.09A1.17 1.17 0 0 1 25 23c-.26.11-.28.14-.39.16s-.05-.31-.2-.32a.47.47 0 0 0-.38.1.43.43 0 0 0-.15.31.58.58 0 0 0 .16.28v.05a.52.52 0 0 1-.33-.09.61.61 0 0 1-.22-.28.31.31 0 0 1 0-.24.77.77 0 0 1 .12-.2 1.12 1.12 0 0 1 .17-.18h.17c.07 0 .11-.05.06-.06s-.1 0-.11 0a.24.24 0 0 1 .17-.19z" fill="#f9c93a"/><path d="M24.07 22.3a.62.62 0 0 1 .36.09h.08a3.75 3.75 0 0 0-.37.21c-.14.1-.49.35-.26.72 0 0-.32-.06-.3-.35a.67.67 0 0 1 .32-.46c.06 0 .11-.05.06-.06s-.1 0-.11 0a.24.24 0 0 1 .17-.19z" fill="#fbf3d8"/><path d="M24.07 22.3a.62.62 0 0 1 .36.09.41.41 0 0 0 .39.06.6.6 0 0 1 .46 0c.12.06.15.1.16.15s0 0 0 .05a.29.29 0 0 0-.21-.13 1.06 1.06 0 0 0-.42 0 .93.93 0 0 1-.4 0c-.12-.05-.19-.13-.28-.14a.12.12 0 0 0-.13.1h-.09a.24.24 0 0 1 .17-.19z" fill="#fce9ae"/><path d="M24.56 23c0-.07 0-.16-.08-.19a.77.77 0 0 0 .23-.06c.11-.05.31-.09.37 0s0 .13-.15.19l-.36.11z" fill="#bf802c"/><path d="m24.54 22.9.23-.06.19-.08-.1.07-.31.11z" fill="#513625"/></g><g><path d="M24.49 22.82s.48.37.46.73a1.06 1.06 0 0 1-.35.71c-.14.15-.75.63-.9.8a.69.69 0 0 0-.18.75c.14.3.32.36.67.31s.9-.1 1 .37a2.57 2.57 0 0 1 0 1.07l-.17.12-.56-.41.05-.23s.19-.1.15-.23-.37-.1-.52-.08a1.77 1.77 0 0 1-.8-.08 1.07 1.07 0 0 1-.45-.55 2.42 2.42 0 0 1-.07-.88 1.38 1.38 0 0 1 .38-.64c.19-.18.4-.28.63-.47a1.29 1.29 0 0 0 .37-.41c.09-.14 0-.2-.06-.2s-.1-.07-.15-.13l-.08-.13v-.17l.1-.16.12-.06h.32z" fill="#a9ad72" fill-rule="evenodd"/><path d="M25.25 27.22a2.82 2.82 0 0 1-.05.34l-.17.12-.23-.17a3.37 3.37 0 0 0 .45-.29zM22.91 26.1a2.41 2.41 0 0 1-.07-.88 1.38 1.38 0 0 1 .38-.64c.19-.18.4-.28.63-.47a1.69 1.69 0 0 0 .26-.25v.33l-.27-.05v.39a1.92 1.92 0 0 1-.29-.11 1.16 1.16 0 0 0 0 .34 2.6 2.6 0 0 1-.29-.11v.52c0 .04-.25 0-.35-.08a.15.15 0 0 0 0 .14.74.74 0 0 0 .23.34l-.28.19a.57.57 0 0 0 .22.21l-.19.15z" fill="#78732f" fill-rule="evenodd"/><path d="M24.64 24.21c-.14.15-.75.63-.9.8a.69.69 0 0 0-.18.75.78.78 0 0 0 .11.17.39.39 0 0 1-.26 0l-.28.07.21-.26-.18-.13s.2-.13.23-.23a1.57 1.57 0 0 1-.08-.16l.31-.07-.09-.33.33.06v-.3h.37l-.09-.37h.51zM24.69 23a.82.82 0 0 1 .26.53 1 1 0 0 1-.3.66l-.22-.19-.09-.17h-.22l.1-.16v-.16l.07-.19v-.06l.06-.11.33-.17z" fill="#78732f" fill-rule="evenodd"/><path d="M24.51 27.11v-.07a.33.33 0 0 0 .24-.23v.06a.81.81 0 0 1-.14.19l.12.07v.08a.43.43 0 0 0-.24-.13zM24.28 23.68l.08.15a.69.69 0 0 0 .2-.15h-.25zm.33.55h-.05a2.92 2.92 0 0 1-.4 0 .78.78 0 0 0 .11.33h-.36s0 .18.06.28a1.67 1.67 0 0 1-.33-.08s.07.21.11.3h-.3a.33.33 0 0 0 .09.14.91.91 0 0 0-.08.15l-.16.11a.5.5 0 0 0 .11.07 1.07 1.07 0 0 0 0 .17l-.13.13a.46.46 0 0 0 .14 0V26h-.2l-.19.15.17-.11-.22-.15v-.19a.84.84 0 0 0 .29-.13s-.08 0-.18-.23a.69.69 0 0 1-.07-.24V25a.34.34 0 0 0 .33.14 5 5 0 0 1-.08-.51h.05a.62.62 0 0 0 .27.16v-.36a.53.53 0 0 0 .27.14v-.35a1.3 1.3 0 0 0 .2.07v-.28h.17l-.08-.15a.22.22 0 0 0 0-.09H24.48V23.89a1 1 0 0 1-.19.15.48.48 0 0 0 .23.26v.08zm-1.27 1.89v.05a.4.4 0 0 1-.09.09h.11v.08a.45.45 0 0 0-.06.2h.17v.06h-.26a.92.92 0 0 1 .05-.27h-.12l-.05.17a1 1 0 0 0 0-.14s-.1 0-.2-.09v-.05l.25.08a.7.7 0 0 1 .13-.15zm-.09-1.45a2 2 0 0 0 .06.46 1.2 1.2 0 0 0 .29-.06 2.3 2.3 0 0 1-.07-.27.76.76 0 0 1-.27-.12zm-.33 1.1a.59.59 0 0 0 .19.17 1.12 1.12 0 0 0 .17-.24.52.52 0 0 1-.11-.09 1.79 1.79 0 0 1-.26.17zm0-.65a.64.64 0 0 0 .23.42.8.8 0 0 0 .2-.2.36.36 0 0 1-.09-.14.37.37 0 0 1-.34-.08zm.62-.67v.3a1.46 1.46 0 0 0 .27 0v-.21a.83.83 0 0 1-.25-.11zm.33-.28a1.89 1.89 0 0 0 0 .32 1.28 1.28 0 0 0 .3 0 2.18 2.18 0 0 1-.07-.31 1.08 1.08 0 0 1-.22 0zm.28-.26v.25h.34a.71.71 0 0 1-.18-.27zM24.26 23.58a.09.09 0 0 0 0-.05s0-.15.07-.22a.94.94 0 0 1-.34 0 .53.53 0 0 0 .36 0l.06.06-.1.27z" fill="#fff" fill-rule="evenodd"/><path d="M23.64 25.13a.63.63 0 0 0-.12.67c.14.3.32.36.67.31s.9-.1 1 .37a2.14 2.14 0 0 1 0 .74 1.11 1.11 0 0 1-.39.33l-.21-.15.07-.12a.44.44 0 0 0 .06-.44.15.15 0 0 0-.15-.08 1 1 0 0 0-.48 0 2.44 2.44 0 0 1-.48 0 .78.78 0 0 1-.31-.46 1.11 1.11 0 0 1 .08-1 .45.45 0 0 1 .19-.15z" fill="#af7029" fill-rule="evenodd"/><path d="M23.76 26.08a.72.72 0 0 0 .43 0c.35 0 .9-.1 1 .37a1.84 1.84 0 0 1 .05.51 2.62 2.62 0 0 1-.44 0 .43.43 0 0 0 0-.17.15.15 0 0 0-.15-.08.57.57 0 0 0-.3 0l-.3-.33c-.08-.08-.18-.19-.27-.3z" fill="#fcca3d" fill-rule="evenodd"/><path d="m23.5 25.37-.11.1v.05-.05l.14-.12zm0 .27h-.17.09l.08-.05zm0 .13-.09.06h-.12.11l.09-.06zm0 .07-.1.08-.14.07.13-.07.1-.08zm0 .07-.12.13-.12.1.11-.1.13-.13zm.07.09a.46.46 0 0 1-.13.19.53.53 0 0 1-.15.1.5.5 0 0 0 .14-.09.46.46 0 0 0 .13-.19zm.15.1a.57.57 0 0 1-.33.42.55.55 0 0 0 .32-.41zm.11 0a.74.74 0 0 1-.05.33.59.59 0 0 1-.21.21.58.58 0 0 0 .21-.2.73.73 0 0 0 0-.32zm.16 0a1 1 0 0 1 0 .23 1.42 1.42 0 0 1-.09.28v.1-.11a1.37 1.37 0 0 0 .09-.28.92.92 0 0 0 0-.22zm.16 0v.12a1.43 1.43 0 0 1 0 .21v.28-.28a1.46 1.46 0 0 0 0-.21v-.12zm.18 0a1.88 1.88 0 0 1 0 .26c0 .1 0 .22-.06.31v-.05c0-.09 0-.22.06-.31a1.93 1.93 0 0 0 0-.25zm.18 0a2.52 2.52 0 0 1 0 .26 1 1 0 0 1-.09.28v.08-.09a1 1 0 0 0 .09-.28 2.34 2.34 0 0 0 0-.26zm.23 0a1.44 1.44 0 0 1 0 .24 1 1 0 0 1-.08.21l-.11.18a1.42 1.42 0 0 0 .11-.18 1 1 0 0 0 .08-.2 1.54 1.54 0 0 0 0-.25zm.24.11a.36.36 0 0 1-.07.16 4.24 4.24 0 0 1-.29.31s.23-.23.3-.32a.32.32 0 0 0 .07-.15.34.34 0 0 0 0-.07zm.18.34a1.55 1.55 0 0 0-.44.26 1.57 1.57 0 0 1 .45-.26zm0 .29a.75.75 0 0 0-.22 0 .37.37 0 0 0-.2.08.39.39 0 0 1 .21-.08.81.81 0 0 1 .23 0zm0 .32-.19-.11a.72.72 0 0 0-.23-.07.7.7 0 0 1 .24.07l.19.1zm-.19.25-.12-.13a.58.58 0 0 0-.14-.12.6.6 0 0 1 .15.12l.12.14z" fill="#78732f" fill-rule="evenodd"/><path d="M24.49 22.82s.48.37.46.73a1 1 0 0 1-.35.7 2 2 0 0 0 0-.49.65.65 0 0 0-.11-.26A2.91 2.91 0 0 0 24 23l.05-.08.12-.06h.32z" fill="#fcca3d" fill-rule="evenodd"/><path d="M24.89 23.82a1.23 1.23 0 0 1-.29.42 2 2 0 0 0 0-.49.45.45 0 0 0 0-.14.67.67 0 0 1 .31.2z" fill="#af7029" fill-rule="evenodd"/><path d="m24.53 22.85-.38.26.38-.26zm.11.11-.38.26.38-.26zm.15.17-.36.25.37-.25zm.1.17-.35.24.35-.24zm.05.2-.32.22.38-.22zm0 .18-.28.2.29-.2zm-.11.3h-.17z" fill="#78732f" fill-rule="evenodd"/><path d="M24.49 22.82s.48.37.46.73a1.06 1.06 0 0 1-.35.71c-.14.15-.75.63-.9.8a.69.69 0 0 0-.18.75c.14.3.32.36.67.31s.9-.1 1 .37a2.57 2.57 0 0 1 0 1.07l-.17.12-.56-.41.05-.23s.19-.1.15-.23-.37-.1-.52-.08a1.77 1.77 0 0 1-.8-.08 1.07 1.07 0 0 1-.45-.55 2.42 2.42 0 0 1-.07-.88 1.38 1.38 0 0 1 .38-.64c.19-.18.4-.28.63-.47a1.29 1.29 0 0 0 .37-.41c.09-.14 0-.2-.06-.2s-.1-.07-.15-.13l-.08-.13v-.17l.11-.15.11-.07h.32z" fill="none" stroke="#78732f" stroke-miterlimit="2.41" stroke-width=".01"/></g><path d="M24.48 22.81a.81.81 0 0 0-.31 0 .34.34 0 0 0-.2.41s.18.21.18.24-.17-.15-.21-.25c-.13-.31.25-.55.53-.49z" fill="#904620" fill-rule="evenodd"/><g><path d="m25.79 27.69-.24-.17s.17-.16 0-.26a.75.75 0 0 0-.26-.36v.34a.33.33 0 0 1 .06.16 1.09 1.09 0 0 1-.14.16H24.8a.23.23 0 0 0 0-.22.17.17 0 0 0-.19-.08.26.26 0 0 1-.05-.18.19.19 0 0 1 .08-.13.32.32 0 0 0-.22 0 .34.34 0 0 0-.26 0 .43.43 0 0 0-.19.26.27.27 0 0 0-.23.24s-.09 0-.1.08 0 .16 0 .19a.18.18 0 0 0 .08.18.29.29 0 0 0 0 .14.17.17 0 0 0 .1.09s.1-.06.09-.1.24-.09.25-.14a.25.25 0 0 0 .26-.13.68.68 0 0 0 .18.25c.13.1.15.14.22.14h.05a2.31 2.31 0 0 0 .28-.25.16.16 0 0 0 .15.12.27.27 0 0 0 0 .09 3.12 3.12 0 0 0 .5.08l.27-.09-.3-.35z" fill="#fcca3d" stroke="#987c2e" stroke-miterlimit="2.41" stroke-width=".02" fill-rule="evenodd"/><g fill="#987c2e"><path d="m25.32 27.4.08-.07.13-.07-.13.07-.08.06zM25.17 27.85v-.05l.1-.06.09-.05.12-.13-.13.13-.09.06-.09.06zM25.32 28s.19 0 .2-.11a.12.12 0 0 0 0-.09.26.26 0 0 0-.09-.08.29.29 0 0 1 .1.09.14.14 0 0 1 0 .1c0 .09-.22.13-.22.13z"/><path d="M25.54 27.83a.21.21 0 0 0 .14 0 .23.23 0 0 1-.15 0zM25.27 27.46s.13 0 .16.18c0-.17-.1-.17-.14-.17zM25 27.71h.14v-.07.09h-.15zM25.24 27.76h-.14.1l.06.05z"/><path d="M24.91 28.08A.53.53 0 0 0 25 28a.56.56 0 0 0 0-.14.4.4 0 0 0 0-.08.3.3 0 0 0 0-.08.94.94 0 0 0-.13-.14 1 1 0 0 1 .13.15.32.32 0 0 1 0 .08.4.4 0 0 1 0 .09.54.54 0 0 1 0 .12.49.49 0 0 1 0 .13zM24.79 27.5l-.1.11-.09.09H24.39l-.09-.08v-.06a.16.16 0 0 1 0-.08.23.23 0 0 1 .07-.13s-.07.06-.07.12a.14.14 0 0 0 0 .07v.05l.09.08h.19l.09-.09.1-.1zM24.19 27.87l-.07-.07v-.06a.08.08 0 0 1 0-.06.19.19 0 0 1 0-.06h.13-.13v.11l.07.06zM23.94 28a.28.28 0 0 1-.08-.1.2.2 0 0 1 0-.11.18.18 0 0 1 .07-.09.49.49 0 0 1 .14-.08.46.46 0 0 0-.13.08.16.16 0 0 0-.06.08.18.18 0 0 0 0 .1.26.26 0 0 0 .07.1z"/><path d="M24.08 27.68a.27.27 0 0 1-.08-.1.16.16 0 0 1 0-.19.41.41 0 0 1 .11-.1l.16-.08-.16.07a.42.42 0 0 0-.11.09.15.15 0 0 0 0 .18.25.25 0 0 0 .08.1zM23.71 27.88a.22.22 0 0 1 .12-.07.21.21 0 0 0-.11.06z"/><path d="M24 27.45a.29.29 0 0 1 0-.13.39.39 0 0 1 0-.14.38.38 0 0 0 0 .13.29.29 0 0 0 0 .12zM23.83 27.82a.37.37 0 0 1-.06-.11.12.12 0 0 1 .06-.18.55.55 0 0 1 .14-.07.58.58 0 0 0-.14.07.15.15 0 0 0-.06.07.16.16 0 0 0 0 .09.34.34 0 0 0 .06.1zM23.73 27.43a.49.49 0 0 0 0 .11.15.15 0 0 0 0 .06.17.17 0 0 1 0-.07.52.52 0 0 1 0-.11zM23.64 27.7h.12-.1z"/></g><path d="M24.59 27.2a.26.26 0 0 1-.05-.18.19.19 0 0 1 .08-.13.32.32 0 0 0-.22 0c-.21.14-.12.48-.12.48a.51.51 0 0 0 .31-.2z" fill="#202020" fill-rule="evenodd"/><path d="M23.89 28.09c0 .07.18.2.39 0a.35.35 0 0 0 .2-.09.5.5 0 0 0 .17 0 .68.68 0 0 1-.18-.25.25.25 0 0 1-.26.13c0 .05-.2.14-.25.14s0 .06-.05.08z" fill="#202020" stroke="#494037" stroke-miterlimit="2.41" stroke-width=".02" fill-rule="evenodd"/><path d="M24 28a.35.35 0 0 0 .14.08.62.62 0 0 0 .19 0 .6.6 0 0 1-.2 0 .36.36 0 0 1-.15-.09zM24.24 27.86a.26.26 0 0 0 .07.09.35.35 0 0 0 .17.07.37.37 0 0 1-.18-.02.28.28 0 0 1-.07-.1z" fill="#494037"/></g><path d="M27.17 28s0 .62-.14.62-.22-.27-.22-.27-.72.3-.92.18c0 0-.06-.06 0-.19a2.77 2.77 0 0 1-.77-.27s0-.16.41-.12a.17.17 0 0 1 0-.09.45.45 0 0 0 .37.08s-.27-.14-.3-.21a.44.44 0 0 1 .45-.3s-.26-.11-.31-.22-.15-.25-.06-.26a.35.35 0 0 1 .2.05c.06 0 .12.1.19.14s-.61-.55-.46-1.06a5.7 5.7 0 0 0 1.06 1.23 4.71 4.71 0 0 0 .51.68z" fill="#904620" fill-rule="evenodd"/><path d="M27.17 28s0 .62-.14.62-.22-.27-.22-.27a.32.32 0 0 1-.08-.12.75.75 0 0 1-.34.23 1.06 1.06 0 0 1-.49.07c.2.12.92-.18.92-.18s.12.24.22.23.09-.47.09-.63l.05.05zm-1.25.34a2.77 2.77 0 0 1-.77-.27 2.8 2.8 0 0 0 .42.15 1.3 1.3 0 0 0 .28 0 .1.1 0 0 1 .08.05z" fill="#202020" fill-rule="evenodd"/><path d="M25.15 28.11s0-.16.41-.12a1.33 1.33 0 0 0 .32.21 2.49 2.49 0 0 1-.73-.09zm.36-.2a.45.45 0 0 0 .37.08.09.09 0 0 0 .06 0 .36.36 0 0 0 .19.09.71.71 0 0 1-.62-.15zm0 0zm.28-.42a.54.54 0 0 1 .22 0 .49.49 0 0 1 .13.07s.15.29.18.36c-.15 0-.13-.1-.32-.13a2.37 2.37 0 0 0-.32 0s0-.18.24-.27h-.14zm.33-.05a.47.47 0 0 0-.11-.15 1.87 1.87 0 0 1-.28-.16c-.08-.07-.09-.1-.06-.12a.31.31 0 0 1 .23.05l.13.1a.44.44 0 0 0 .05.19v.05zm-.06-.68.27.3a.15.15 0 0 0 0 .06.47.47 0 0 0 0 .32c.07-.18.15-.06.15-.06v.42c0 .03 0 .06-.07.08a6.24 6.24 0 0 1-.25-.6 2 2 0 0 1-.06-.52z" fill="#d2a567" fill-rule="evenodd"/><path d="m26.57 27.28.09.07s.09.15.22.32a1.43 1.43 0 0 0-.06.71s-.1-.07-.18-.44a1.16 1.16 0 0 1-.3.12s.21 0 .21.07-.19.11-.19.11.13 0 0 .08a3.55 3.55 0 0 0-.53.23.2.2 0 0 1 0-.17.05.05 0 0 1 0-.05s.14-.1.13-.15-.08 0-.28-.08a.44.44 0 0 1-.27-.18.71.71 0 0 0 .62.15.36.36 0 0 1-.19-.09.09.09 0 0 1-.06 0s-.27-.14-.3-.21a.43.43 0 0 1 .38-.29c-.29.09-.24.27-.24.27a2.37 2.37 0 0 1 .32 0c.19 0 .17.09.32.13 0-.07-.16-.33-.18-.36s0-.07 0-.13a.44.44 0 0 1-.05-.19A2.24 2.24 0 0 0 26 27a.64.64 0 0 1 0-.24l.07.08a2 2 0 0 0 .06.52 6.24 6.24 0 0 0 .25.6.33.33 0 0 0 .22 0 4.43 4.43 0 0 1-.05-.58zm-.29.19a.47.47 0 0 1 0-.32 1.38 1.38 0 0 0 0 .19s.11 0 .11.07-.08-.12-.15.06z" fill="#a86828" fill-rule="evenodd"/><g fill="#f8c93c" stroke="#987c2e" stroke-miterlimit="2.41" stroke-width=".02" fill-rule="evenodd"><path d="M21.39 24.85s.11-.07.11-.18a1 1 0 0 0 0-.2s0-.15-.13-.17-.14.15-.14.15-.17 0-.18.11a.15.15 0 0 0 .11.15c0 .05 0 .38.25.13z"/><path d="M21.63 24.9s.11-.07.11-.18a1.05 1.05 0 0 0 0-.2s0-.15-.13-.17-.14.15-.14.15-.17 0-.18.12a.15.15 0 0 0 .11.15c0 .05 0 .38.25.13z"/><path d="M21.87 25a.27.27 0 0 1-.09-.21c0-.11.19-.16.19-.16s0-.15-.13-.17-.14.15-.14.15-.17 0-.18.12a.15.15 0 0 0 .11.15s0 .2.08.22.19-.07.16-.1z"/></g></g><path d="M22.35 30.67c-.07.15.11.39.27.49a.39.39 0 0 0 .51-.06c0-.06 0-.22-.14-.33s-.55-.23-.64-.1z" fill="#f8c93c" fill-rule="evenodd"/><path d="M22.63 30.74a.41.41 0 0 1 .33.16c.05.08 0 .14-.06.17s-.18 0-.14 0 .07-.09 0-.12l-.19-.08c-.05 0-.12-.1.06-.11z" fill="#fff" fill-rule="evenodd"/><path d="M24.37 32.74c-.22 0-.37.22-.33.34s.23.18.45.15.32-.17.3-.3-.18-.21-.43-.18z" fill="#f8c93c" fill-rule="evenodd"/><path d="M24.29 32.92c-.06.06-.14.12-.09.18s.15 0 .21-.07.1 0 .13 0a.06.06 0 0 0 .12 0c0-.05.05-.1 0-.16s-.16-.11-.35 0z" fill="#fff" fill-rule="evenodd"/><path d="M30.56 31.72c-.17.11-.23.26-.18.38s.26.12.37 0a1.71 1.71 0 0 0 .26-.23c.06-.06 0-.4-.46-.19z" fill="#f8c93c" fill-rule="evenodd"/><path d="M30.45 32a.24.24 0 0 1 .23-.18c.12 0 .13.12.26 0s-.05.15-.16.13-.17-.17-.33 0z" fill="#fff" fill-rule="evenodd"/><circle cx="30.11" cy="32.73" r=".23" fill="#fff" stroke="#0972a7" stroke-miterlimit="2.41" stroke-width=".08"/><circle cx="24.66" cy="31.02" r=".23" fill="#fff" stroke="#0972a7" stroke-miterlimit="2.41" stroke-width=".08"/><circle cx="23.36" cy="32.09" r=".23" fill="#fff" stroke="#0972a7" stroke-miterlimit="2.41" stroke-width=".08"/><g fill-rule="evenodd"><path d="M27.52 34a1.39 1.39 0 0 1 .57 0c.26 0 .24.16.58.09a1.22 1.22 0 0 0 .63-.45 1.09 1.09 0 0 1 1.28-.2.7.7 0 0 1-.23.22.93.93 0 0 1 .7.12 1.39 1.39 0 0 1-.51.42 1.29 1.29 0 0 1 .58.18 1.28 1.28 0 0 0-.55.14c-.31.15-.95.48-1.23.35a4.44 4.44 0 0 1-.73-.51.75.75 0 0 0-.54-.2h-.52v-.12z" fill="#9ba067"/><path d="m31 34.32.15.08a1.22 1.22 0 0 0-.62 0c-.26.08-.64.27-.85.31a1.08 1.08 0 0 1-.61 0l-.24-.12-.19-.15a.75.75 0 0 0-.54-.2h-.52.58a1.16 1.16 0 0 1 .45.14c.09.05.26.21.37.26a.81.81 0 0 0 .64 0c.39-.08.63-.27.94-.3a1.09 1.09 0 0 1 .44 0zM28.54 34.13h.12a1.22 1.22 0 0 0 .63-.45 1.09 1.09 0 0 1 1.28-.2c-.82-.2-1 .5-1.6.65a1.18 1.18 0 0 1-.44 0z" fill="#717732"/><path d="M27.55 34.2a2.23 2.23 0 0 1 .74.28c.28.18.28.23.29.26s0 .12-.13.11-.14-.09-.19-.14a1.07 1.07 0 0 0-.39-.24l-.32-.12v-.15z" fill="#9ba067"/><path d="M28.58 34.74s0 .12-.13.11-.14-.09-.19-.14a1.07 1.07 0 0 0-.39-.24l-.32-.12.25.09a1.78 1.78 0 0 1 .27.12 2.4 2.4 0 0 1 .21.16h.11a.17.17 0 0 1 .17 0z" fill="#717732"/><path d="M32.61 31.47c0 .17-.06.26-.31.48a2.37 2.37 0 0 0-.54.54 2.76 2.76 0 0 0-.1.47.56.56 0 0 1-.26.34 1.79 1.79 0 0 0-.36.31.35.35 0 0 0-.07.18h.08a1.42 1.42 0 0 1 .36-.34 1.61 1.61 0 0 1 .78-.12 1.88 1.88 0 0 0 .92-.24.9.9 0 0 0 .34-.69.27.27 0 0 1 .1-.18.68.68 0 0 0-.29.06 4.22 4.22 0 0 0 .11-.52s-.12-.05-.36.09a3.57 3.57 0 0 0-.38.24s.15-.44 0-.63z" fill="#9ba067"/><path d="M33.48 32.32a.25.25 0 0 1 0-.07c-.3 0-.33.2-.43.32a1.59 1.59 0 0 1-.5.41 1.84 1.84 0 0 1-.72.25 1.24 1.24 0 0 0-.43.15 2.43 2.43 0 0 0-.33.27.89.89 0 0 0-.1.14 1.44 1.44 0 0 1 .35-.33.84.84 0 0 1 .39-.11 1.91 1.91 0 0 0 1-.41 5.14 5.14 0 0 0 .63-.62zM32.61 31.47c0 .17-.06.26-.31.48a2.37 2.37 0 0 0-.54.54 2.76 2.76 0 0 0-.1.47.51.51 0 0 1-.2.3c.35-.16.23-.36.36-.54s.43-.41.65-.67a.69.69 0 0 0 .14-.57z" fill="#717732"/><path d="M34.37 29.32a1.66 1.66 0 0 0-.73.57.83.83 0 0 0-.06.71 2.63 2.63 0 0 1 .09.62v.2a1.94 1.94 0 0 1-.18.24.65.65 0 0 1-.15.1v.08a.89.89 0 0 0 .17-.12s.24-.31.32-.38a.41.41 0 0 1 .28-.13 1 1 0 0 0 .68-.45c.14-.28.26-.63.34-.77a2.35 2.35 0 0 1 .26-.33s-.25 0-.55.29a3.28 3.28 0 0 0 0-.74s-.2 0-.46.39a.85.85 0 0 1 0-.28z" fill="#9ba067"/><path d="M33.36 31.85a.89.89 0 0 0 .17-.12s.24-.31.32-.38a.48.48 0 0 1 .15-.1 3.39 3.39 0 0 0 .39-.32 2.64 2.64 0 0 0 .39-.67c.26-.53.62-.59.62-.59s-.25 0-.55.29a1 1 0 0 0-.17.22c-.08.13-.34.64-.43.77a1.29 1.29 0 0 1-.31.27 1.36 1.36 0 0 0-.2.22l-.22.29a1.43 1.43 0 0 1-.16.12zM34.37 29.32a1.66 1.66 0 0 0-.73.57.83.83 0 0 0-.06.71 2.63 2.63 0 0 1 .09.62v.15a1.14 1.14 0 0 0 .06-.45 2.51 2.51 0 0 1 .08-.89 3.8 3.8 0 0 1 .55-.72z" fill="#717732"/><path d="M35.29 26.52a2.47 2.47 0 0 1 .25.71.52.52 0 0 1 .14-.3s0 .07.09.21a.84.84 0 0 1 .14.54.82.82 0 0 1-.38.58c-.18.14-.5.35-.56.47s-.16.49-.16.49l-.09.12v-.09a.91.91 0 0 0 .1-.5c0-.36 0-.43-.08-.53a.63.63 0 0 1-.22-.46 3.78 3.78 0 0 1 0-.59.64.64 0 0 0-.12-.3s.29.06.46.65c0 0 .08-.79.38-1z" fill="#9ba067"/><path d="M35.54 27.24a.52.52 0 0 1 .14-.3v.42a1.13 1.13 0 0 1-.09.51 2.51 2.51 0 0 1-.33.4 2.22 2.22 0 0 0-.2.27.67.67 0 0 0-.08.18c-.06.13-.16.49-.16.49l-.09.12a.68.68 0 0 0 .09-.2c0-.14.14-.46.16-.56a1.58 1.58 0 0 0 0-.5 2.06 2.06 0 0 1 0-.55c0-.08.09-.8.38-1a5.8 5.8 0 0 1 0 .68c0 .19-.15.35-.18.54a2.41 2.41 0 0 0 0 .48v.27a2.6 2.6 0 0 0 .16-.26 3.5 3.5 0 0 0 .27-.55 1.51 1.51 0 0 0 0-.45zM34.81 28.64c0-.25 0-.31-.08-.4a.63.63 0 0 1-.22-.46 3.78 3.78 0 0 1 0-.59.64.64 0 0 0-.12-.3.59.59 0 0 1 .22.41v.6c0 .2.15.2.15.36v.4zM30.35 33.69a.93.93 0 0 1 .7.12.83.83 0 0 0-.68.08 3.27 3.27 0 0 1-1 .46 1.27 1.27 0 0 1-.65 0 3.08 3.08 0 0 0 .61-.24 3.8 3.8 0 0 1 1-.38zM33.37 31.78s-.12-.05-.36.09a3.57 3.57 0 0 0-.38.24 3.64 3.64 0 0 0-.81 1 5.57 5.57 0 0 1 .63-.58l.48-.29a1.09 1.09 0 0 0 .27-.33.38.38 0 0 1 .18-.14z" fill="#717732"/><path d="M34.81 29.22s-.2 0-.46.39a2.91 2.91 0 0 0-.49 1.51c0-.08 0-.14.19-.3a1.42 1.42 0 0 0 .41-.8 2.21 2.21 0 0 1 .35-.8z" fill="#717732"/></g><g fill-rule="evenodd"><path d="M26.88 34.21a2.18 2.18 0 0 0-.75.24c-.29.16-.29.21-.31.24s0 .12.13.12.14-.08.2-.13a1.05 1.05 0 0 1 .4-.22l.33-.1v-.16z" fill="#9ba067"/><path d="M25.82 34.69s0 .12.13.12.14-.08.2-.13a1.05 1.05 0 0 1 .4-.22l.33-.1-.26.08a1.63 1.63 0 0 0-.28.11 2.24 2.24 0 0 0-.22.15h-.11a.17.17 0 0 0-.17 0z" fill="#717732"/><path d="M19.79 26.85c-.07.1-.19.24-.14.3s.2-.1.28-.09.1.12 0 .24-.28.16-.34.27-.09.18 0 .13.25-.1.28 0-.13.24-.22.33-.14.15-.13.18.07 0 .09 0 0 .07-.06.15a.52.52 0 0 0 0 .36 2.62 2.62 0 0 1 .12.4 2 2 0 0 1 0 .38.17.17 0 0 0-.1-.05v-.33a1.3 1.3 0 0 0-.14-.43.78.78 0 0 0-.25-.27.34.34 0 0 1-.17-.24 1.65 1.65 0 0 1-.41-.3c-.08-.13-.07-.22 0-.27s.18.07.26.11.12 0 .08-.07-.26-.31-.19-.49.25-.16.25-.09.14.19.15 0 0-.29.07-.38.12-.17.16-.11.09.19.17.08.19-.21.25-.14a.28.28 0 0 1 0 .33z" fill="#9ba067"/><path d="M19.57 29.18v-.09a1.3 1.3 0 0 0-.14-.43.78.78 0 0 0-.25-.27.34.34 0 0 1-.17-.24 1.65 1.65 0 0 1-.41-.3c-.08-.13-.07-.22 0-.27s.18.07.26.11.12 0 .08-.07-.26-.31-.19-.49.25-.13.25-.06.14.19.15 0 0-.29.07-.38.12-.17.16-.11.09.19.17.08.19-.21.25-.14a.29.29 0 0 1-.12.21 1.71 1.71 0 0 1-.26.23c-.08 0-.09 0-.09-.06a.42.42 0 0 0 0-.14V27.05c0 .04.07 0 0 .14s0 .07-.06.14a.61.61 0 0 0 0 .12 4.42 4.42 0 0 0 .44-.21 4.16 4.16 0 0 1-.44.31 3.89 3.89 0 0 1-.33-.33 1 1 0 0 0 .28.41v.26a.65.65 0 0 0 .33-.09.8.8 0 0 1-.32.18 1.16 1.16 0 0 1-.45-.19 1.26 1.26 0 0 0 .45.3v.19a.38.38 0 0 1-.19-.07.31.31 0 0 0 .2.15.42.42 0 0 0 .12-.1.61.61 0 0 1-.08.15s.07.14.12.27a1.32 1.32 0 0 1 .06.49z" fill="#717732"/><path d="M21.39 31.78a1.75 1.75 0 0 1-.33-.24c-.19-.18-.28-.25-.32-.42a3.19 3.19 0 0 1 .15-.77c0-.17-.11 0-.17 0s-.12.07-.1 0a2 2 0 0 0 0-.48.39.39 0 0 0-.15-.32c-.1-.07-.19.09-.22.2s0 .21-.1.2 0-.16 0-.26 0-.26-.1-.29-.14.17-.17.21-.05 0-.08 0-.11-.18-.2-.18-.07.1-.07.13 0 0-.07 0h-.1c-.02 0 .06.13.11.18s0 .09-.06.08-.22 0-.26 0 0 .21.15.27.36.1.46.15.1.07.09.09-.07 0-.16 0-.25-.12-.29-.07a.3.3 0 0 0 .1.36.81.81 0 0 0 .47.11c.09 0 .22 0 .21.08s-.22 0-.32 0-.12.14 0 .19a2.38 2.38 0 0 0 .42.05c.11 0 .31.25.4.35a4.7 4.7 0 0 0 .67.52v-.1z" fill="#9ba067"/><path d="M20.8 31.27a.45.45 0 0 1-.06-.15 3.19 3.19 0 0 1 .15-.77c0-.17-.11 0-.17 0s-.12.07-.1 0a2 2 0 0 0 0-.48.39.39 0 0 0-.15-.32c-.1-.07-.19.09-.22.2s0 .21-.1.2 0-.16 0-.26 0-.26-.1-.29-.14.17-.17.21-.05 0-.08 0-.11-.18-.2-.18a1 1 0 0 0 .27.49.56.56 0 0 0 .15-.27.37.37 0 0 1 0 .23L20 30a.92.92 0 0 1-.43-.06 1.07 1.07 0 0 0 .3.11c.22.06.19.05.25.14l.15.18.21-.58s-.09.66-.12.74a4.11 4.11 0 0 1-.62-.11l.64.2.15.19a2 2 0 0 0 .21-.34 1.5 1.5 0 0 1-.14.39h-.44a2.2 2.2 0 0 0 .46.09.42.42 0 0 0 .2.26z" fill="#717732"/><path d="m23.51 33.71-.29-.27c-.12-.12-.26-.12-.32-.29a1.77 1.77 0 0 1-.06-.42c0-.12-.08-.08-.14 0s-.12.11-.13 0a4.15 4.15 0 0 0 0-.49.46.46 0 0 0-.22-.33c-.09-.06-.14-.06-.16.07s0 .32-.11.28-.08-.16-.08-.33a.44.44 0 0 0-.06-.38c-.08-.12-.16-.1-.15 0s0 .25-.06.23-.08-.06-.1-.15-.05 0-.1 0 0-.06-.06-.13-.09-.09-.1 0a1.65 1.65 0 0 0 0 .3c0 .07 0 .11-.08.1s-.24 0-.22 0 .13.13.25.19.25.14.22.2-.16 0-.25 0-.25-.12-.26 0a.34.34 0 0 0 .13.31.54.54 0 0 0 .39.11c.15 0 .33 0 .34.09s-.09.09-.24.08-.3-.07-.34 0 .06.24.18.33.27.17.4.08.2-.15.26-.08 0 .15 0 .19.08.08.17 0a.41.41 0 0 1 .38-.09 1.13 1.13 0 0 1 .41.18c.15.11.41.36.41.36v-.1a.09.09 0 0 1 0-.09z" fill="#9ba067"/><path d="M23.11 33.35c-.09-.05-.17-.09-.21-.21a1.77 1.77 0 0 1-.06-.42c0-.12-.08-.08-.14 0s-.12.11-.13 0a4.15 4.15 0 0 0 0-.49.46.46 0 0 0-.22-.33c-.09-.06-.14-.06-.16.07s0 .32-.11.28-.08-.15-.08-.32a.44.44 0 0 0-.06-.38c-.08-.12-.16-.1-.15 0s0 .25-.06.23-.08-.06-.1-.15-.05 0-.1 0 0-.06-.06-.13-.06-.08-.09 0a.66.66 0 0 0 .09.33c.05.07.15.15.06.18a.87.87 0 0 1-.24 0 .65.65 0 0 0 .32 0 2.47 2.47 0 0 0 .15.22 2 2 0 0 0 .06-.5 1.64 1.64 0 0 1 0 .58l.07.08s0 .07-.06.07a4.52 4.52 0 0 1-.54 0 1.09 1.09 0 0 0 .4.11H22l.19.22a.94.94 0 0 0 .11-.61 1.17 1.17 0 0 1 0 .68 1.26 1.26 0 0 1-.58.17 1.19 1.19 0 0 0 .61-.07 2 2 0 0 0 .25.18 1.14 1.14 0 0 1-.26.14 1.15 1.15 0 0 0 .33-.1h.06a.86.86 0 0 0 0-.32.61.61 0 0 1 .09.34.71.71 0 0 0 .33.11z" fill="#717732"/><path d="M26.92 34.07s-.07-.12-.38-.12a1.85 1.85 0 0 0-.63.11c-.19.06-.23-.06-.32-.2s-.14-.08-.14 0 0 .2-.07.11-.15-.27-.28-.36a.5.5 0 0 0-.38-.09c-.11 0-.09.09-.06.13l.14.21c0 .07 0 .16-.07.08l-.37-.37a.34.34 0 0 0-.31 0c-.1 0-.05.1 0 .13s.16.12.14.19-.09 0-.15 0-.16-.19-.34-.19-.23 0-.2.14.07.11 0 .12a.59.59 0 0 0-.37.26c-.07.13 0 .11.08.09s.09 0 .11 0h.05c.05 0 0 .1.08.1s.2-.1.3-.12a.22.22 0 0 1 .18 0v.11l-.18.15s-.06.11 0 .14a.56.56 0 0 0 .39-.06 2.41 2.41 0 0 1 .23-.19c.09 0 .16 0 .16.06s-.17.19-.21.24a.13.13 0 0 0 .08.19.47.47 0 0 0 .35-.07 2.1 2.1 0 0 0 .27-.3c.05-.07.18 0 .13.06s-.11.13-.15.21 0 .17.14.14a.74.74 0 0 0 .33-.26.75.75 0 0 1 .22-.24c.1-.08.18 0 .28-.09a1 1 0 0 1 .35-.21c.19-.05.3 0 .36 0a.71.71 0 0 0 .22.14c.07 0 0-.24 0-.24z" fill="#9ba067"/><path d="M25.9 34.06c-.18.05-.23-.06-.31-.2s-.14-.08-.14 0 0 .2-.07.11-.15-.27-.28-.36a.5.5 0 0 0-.38-.09c-.11 0-.09.09-.06.13l.14.21c0 .07 0 .16-.07.08l-.37-.37a.34.34 0 0 0-.31 0c-.1 0-.05.1 0 .13s.16.12.14.19-.09 0-.15 0-.16-.19-.34-.19-.23 0-.2.14.07.11 0 .12a.61.61 0 0 0-.35.23.49.49 0 0 1 .32-.13h.5a.41.41 0 0 1-.21-.25 2.3 2.3 0 0 0 .36.28s.25 0 .22.06a2.82 2.82 0 0 1-.23.28s.31-.23.33-.27h.16a2 2 0 0 0-.24-.43 1.4 1.4 0 0 1 .33.44h.15c.05 0 0 .06 0 .1a2 2 0 0 0-.17.32l.29-.35h.19a1 1 0 0 1-.15-.44 1.86 1.86 0 0 0 .27.43h.15c.05 0 .06 0 0 .09a2.49 2.49 0 0 0-.16.34l.25-.35c.06-.08.13-.08.09-.17a.41.41 0 0 1-.07-.2 1 1 0 0 0 .13.13c.06 0 .06.1.13.09a.22.22 0 0 0 .12 0v-.06z" fill="#717732"/></g><g fill-rule="evenodd"><path d="M26.94 33.83h.6c.06 0 .08 0 .08.1v.52a.49.49 0 0 1-.21.42 4 4 0 0 0-.64.64l-.27-.29s-.14-.07-.48.11a1.59 1.59 0 0 1 .84-.86v-.57s0-.07.08-.07z" fill="#fff"/><path d="M27.4 33.83h.14c.06 0 .08 0 .08.1v.52a.49.49 0 0 1-.21.42 4 4 0 0 0-.64.64l-.17-.19a.87.87 0 0 1 .12-.17 3.18 3.18 0 0 1 .45-.36.57.57 0 0 0 .24-.42v-.54z" fill="#cd202a"/><path d="M26.94 33.83h.14v.68c0 .06 0 .08-.1.13a4.75 4.75 0 0 0-.43.27.61.61 0 0 0-.21.31 1 1 0 0 0-.33.12 1.59 1.59 0 0 1 .84-.86v-.58s0-.07.08-.07z" fill="#016948"/><path d="M27.86 35.54a.57.57 0 0 0-.35-.18.49.49 0 0 1-.35-.29l.22-.2a.49.49 0 0 0 .2-.33.66.66 0 0 0 .33.25 1.25 1.25 0 0 1 .63.47 1.64 1.64 0 0 0-.45 0 .9.9 0 0 0-.24.29z" fill="#fff"/><path d="M27.5 34.76a.46.46 0 0 0 .1-.23.66.66 0 0 0 .33.25 1.25 1.25 0 0 1 .63.47 2.34 2.34 0 0 0-.35 0A.62.62 0 0 0 28 35c-.23-.12-.28-.09-.38-.17l-.11-.11z" fill="#cd202a"/><path d="M27.86 35.54a.57.57 0 0 0-.35-.18.49.49 0 0 1-.35-.29l.15-.14.13.14c.11.11.18.11.37.15a.41.41 0 0 1 .19.11 1.09 1.09 0 0 0-.15.21z" fill="#016948"/></g></g></svg>