<svg xmlns="http://www.w3.org/2000/svg" viewBox="0 0 55 55"><defs><clipPath id="a"><circle cx="27.5" cy="27.5" r="23.32" fill="none"/></clipPath></defs><g fill-rule="evenodd" clip-path="url(#a)"><path d="M62.48 47.49v-3.33h-70v3.33zm0-6.66v-3.34h-70v3.33zm0-6.66v-3.34h-70v3.33zm0-6.66v-3.34h-35v3.33zm0-6.66V17.5h-35v3.33zm0-6.66v-3.35h-35v3.33zm0-6.66V4.18h-35v3.33z" fill="#ee2724"/><path d="M27.5 10.84h35V7.51h-35v3.33zm-35 40h70v-3.35h-70v3.33zm0-6.66h70v-3.35h-70v3.33zm0-6.66h70v-3.36h-70v3.33zm35-6.66h35V27.5h-35v3.33zm0-6.66h35v-3.36h-35v3.33zm0-6.66h35v-3.37h-35v3.33z" fill="#f4f4f5"/><path fill="#214097" d="M-7.48 30.83H27.5V4.18H-7.48v26.65z"/><path d="M17.15 12.95a6.43 6.43 0 1 0 0 11.63 7.42 7.42 0 1 1 0-11.63zm3.35 8.18 2.14 3.09-1.14-3.56 3.3 1.88-2.61-2.72 3.81.3-3.56-1.35L26 17.41l-3.81.3 2.6-2.71-3.3 1.88 1.14-3.56-2.13 3.08-.5-3.69-.6 3.69-2.14-3.09 1.14 3.56L15.11 15l2.61 2.72-3.81-.3 3.56 1.35-3.56 1.35 3.81-.3-2.61 2.72 3.3-1.88-1.14 3.56 2.14-3.09.59 3.69.55-3.69z" fill="#fedd23"/></g></svg>