<svg xmlns="http://www.w3.org/2000/svg" viewBox="0 0 55 55"><path d="M49.121 36.208a23.43 23.43 0 0 1-8.029 10.235A23.285 23.285 0 0 1 27.5 50.8a23.24 23.24 0 0 1-15.97-6.318 26.653 26.653 0 0 1-.517-.5 23.164 23.164 0 0 1-5.137-7.772z" style="fill:#fbe019"/><path d="M49.121 18.787H5.879A23.048 23.048 0 0 1 9.3 12.939c.01-.015.021-.026.031-.041a.237.237 0 0 1 .037-.042.075.075 0 0 1 .031-.042.59.59 0 0 0 .047-.058.1.1 0 0 1 .021-.021.577.577 0 0 1 .052-.063.181.181 0 0 1 .027-.031c.01-.016.026-.031.036-.047s.005-.01.016-.01a.2.2 0 0 1 .036-.053c.262-.308.529-.612.811-.915.005-.01.016-.016.026-.026v-.01a.558.558 0 0 0 .058-.053.143.143 0 0 1 .026-.031c.016-.021.037-.037.052-.058a.061.061 0 0 1 .032-.026.863.863 0 0 1 .1-.1.279.279 0 0 1 .037-.042l.042-.042a.321.321 0 0 1 .041-.042 18.452 18.452 0 0 1 .68-.667c.272-.257.55-.5.827-.743a.189.189 0 0 1 .036-.026l.032-.031c.011-.006.021-.016.031-.021.267-.231.539-.45.811-.659a.152.152 0 0 1 .037-.027.108.108 0 0 1 .036-.026.242.242 0 0 1 .037-.031 22.457 22.457 0 0 1 2.228-1.501.184.184 0 0 1 .047-.026c.11-.068.225-.136.341-.2.025-.016.046-.026.072-.042.074-.042.147-.084.22-.12a.138.138 0 0 1 .042-.021A.347.347 0 0 1 16.4 7a23.156 23.156 0 0 1 8.61-2.667 22.383 22.383 0 0 1 2.3-.131h.372A23.242 23.242 0 0 1 38.6 6.993a24.417 24.417 0 0 1 2.495 1.564 23.342 23.342 0 0 1 8.029 10.23z" style="fill:#007067"/><path d="M50.8 27.5a23.374 23.374 0 0 1-1.151 7.259H5.351a23.485 23.485 0 0 1 0-14.524h44.3A23.392 23.392 0 0 1 50.8 27.5z"/><path d="M49.649 20.235H5.351l.172-.5c.11-.319.231-.633.356-.946h43.242c.131.313.251.627.361.946.057.165.118.333.167.5zM49.649 34.759c-.052.168-.11.34-.167.508q-.165.469-.361.941H5.879a24.674 24.674 0 0 1-.356-.941l-.172-.508z" style="fill:#fff"/><path d="M33.832 27.5 24.3 34.759l-1.9 1.449-10.867 8.274a26.653 26.653 0 0 1-.517-.5 23.164 23.164 0 0 1-5.137-7.772 24.674 24.674 0 0 1-.356-.941l-.172-.508a23.485 23.485 0 0 1 0-14.524l.172-.5c.11-.319.231-.633.356-.946A23.048 23.048 0 0 1 9.3 12.939c.01-.015.021-.026.031-.041a.237.237 0 0 1 .037-.042.075.075 0 0 1 .031-.042.59.59 0 0 0 .047-.058.1.1 0 0 1 .021-.021.577.577 0 0 1 .052-.063.181.181 0 0 1 .027-.031c.01-.016.026-.031.036-.047s.005-.01.016-.01a.2.2 0 0 1 .036-.053c.262-.308.529-.612.811-.915.005-.01.016-.016.026-.026v-.01a.558.558 0 0 0 .058-.053.143.143 0 0 1 .026-.031c.016-.021.037-.037.052-.058a.061.061 0 0 1 .032-.026.863.863 0 0 1 .1-.1.279.279 0 0 1 .037-.042l.042-.042a.321.321 0 0 1 .041-.042 18.452 18.452 0 0 1 .68-.667L22.4 18.787l1.9 1.448z" style="fill:#d11133"/><path style="fill:#fbe019" d="m15.137 18.797 2.161 6.648h6.988l-5.655 4.105 2.161 6.642-5.655-4.105-5.654 4.105 2.16-6.642-5.654-4.105h6.988l2.16-6.648z"/><path style="fill:#fff" d="m11.643 26.726-.831 3.771-.665.894 1.015-4.226.481-.439zM19.113 27.165l1.02 4.226-.67-.894-.832-3.771.482.439zM19.406 30.554l.732.984h-4.054a1.956 1.956 0 0 0-.832-.591 11.175 11.175 0 0 1 4.154-.393z"/><path d="m18.532 26.642.842 3.829a11 11 0 0 0-4.195.418v-4.262c.863-.733 3.102-.063 3.353.015zM15.169 31a1.971 1.971 0 0 1 .837.57 1.292 1.292 0 0 1-1.736 0 1.932 1.932 0 0 1 .836-.57l.031-.01z" style="fill:#fff"/><path d="M10.874 30.554a11.181 11.181 0 0 1 4.153.393 2 2 0 0 0-.836.591h-4.049z" style="fill:#fff"/><path d="M15.1 26.627v4.262a9.054 9.054 0 0 0-3.117-.46c-.528 0-.931.031-1.078.042l.848-3.829c.241-.078 2.479-.748 3.347-.015z" style="fill:#fff"/><path d="m20.028 30.612-.423-1.768-.414-1.71a.026.026 0 0 0-.01-.021l-.581-.533c0-.006-.011-.006-.016-.011a7.983 7.983 0 0 0-2.134-.366 2.724 2.724 0 0 0-.288.01 2.359 2.359 0 0 0-.382.058 1.55 1.55 0 0 0-.413.141 1.119 1.119 0 0 0-.225.147 2.061 2.061 0 0 0-1.312-.359h-.021a8.064 8.064 0 0 0-2.113.366c-.006.005-.011.005-.016.011l-.586.533a.026.026 0 0 0-.01.021l-.371 1.548-.043.162-.01.058-.194.795-.449 1.872v.016a.017.017 0 0 0 .005.01v.008c0 .006.006.006.006.011s.006 0 .011 0a.015.015 0 0 0 .01 0h4.133a1.468 1.468 0 0 0 .931.366 1.548 1.548 0 0 0 .957-.366h4.137a.017.017 0 0 0 .011 0h.015l.006-.011a.017.017 0 0 0 0-.01v-.016zm-.91-3.447.413 1.731.382 1.585.22.915-.67-.9-.157-.7-.136-.638-.539-2.432zm-3.939-.538a1.1 1.1 0 0 1 .241-.152 2.244 2.244 0 0 1 .225-.089 2.588 2.588 0 0 1 .58-.089 7.523 7.523 0 0 1 2.3.345l.57 2.573.1.455.178.8c-.078-.006-.24-.021-.449-.026h-.016a10.026 10.026 0 0 0-3.73.444zm-3.431.015a7.993 7.993 0 0 1 1.967-.35 2.06 2.06 0 0 1 1.38.335v4.262a8.19 8.19 0 0 0-2.589-.45c-.183 0-.361-.01-.523-.01-.094 0-.183 0-.267.005-.136 0-.256 0-.36.011-.131 0-.236.01-.314.015-.058 0-.11 0-.136.011l.261-1.193.016-.063.047-.224.136-.623zM10.576 29.6l.037-.167.131-.534.057-.245.361-1.486.481-.439-.382 1.726-.136.633-.021.073-.041.209-.251 1.13-.67.9zm3.615 1.941h-4.054l.737-.984c.026 0 .074 0 .142-.01s.183-.016.313-.016.267-.01.43-.015c.229-.006.491 0 .768.01a8.2 8.2 0 0 1 2.5.424 2 2 0 0 0-.836.588zm.079.041a1.9 1.9 0 0 1 .836-.582l.031-.01.032.01a1.927 1.927 0 0 1 .837.57 1.3 1.3 0 0 1-1.736.009zm1.814-.041a2.022 2.022 0 0 0-.837-.591 10.252 10.252 0 0 1 3.7-.419h.037c.22.011.366.021.419.026l.732.984z"/><path d="m10.922 28.74 2.536-2.129.084-.167.732-.665.481.534 1.266-1.062-.1-.084-1.135.963-.283-.314 1.313-1.193.11.11 1-.983h.634l.779-.716.068-.586.5.361s.408-.361.476-.136a.536.536 0 0 1 0 .366l3.321-2.312-2.95 2.986-.324-.041-1.773 1.49-.435-.34-.633.56-.031.167-2 1.831-.424-.45-.036.063.245.371s-.914.272-.36.706a5.882 5.882 0 0 0 2.306.518v1.093s-.873.607-3.295-.994a.869.869 0 0 1-.193.162l.24.414L12.4 30l.288 1.119-.518.387s-.387-1.171-.669-1.354c.57-.523.648-.607.648-.607h.272l.251-.293-.146-.209-.22.188.142.11-.048.059-.3.02-1.031.947-.084.256-2.02 2.477a.326.326 0 0 1-.178.11.323.323 0 0 1-.314-.1l-.863-.96a.151.151 0 0 1 .011-.215l1.532-1.328a.558.558 0 0 1 .288-.126l.3-.036.815-.848.252-.01 1.522-1.334.13.047.163-.178.015-.094.926-.81-1.077.8-.121-.053-1.642 1.47h-.126l.079-.738.151-.047z"/><path d="m21.582 32.38-7.93-9.012a.709.709 0 0 0-.194-.627l-.512-.508a.709.709 0 0 0-1.209.555l-.847-.047a.494.494 0 0 0-.408.193l-2.249 3.117 1.308 1.564 2.641-3.3.058-.774.214.209a.684.684 0 0 0 .717.172l7.867 8.944a.358.358 0 0 0 .512.031.359.359 0 0 0 .032-.517z"/></svg>