<svg xmlns="http://www.w3.org/2000/svg" viewBox="0 0 55 55"><path d="M41.433 8.834 4.906 33.185A23.215 23.215 0 0 1 6.59 17.244c.136-.293.288-.586.445-.874q.471-.863 1.02-1.684a24.304 24.304 0 0 1 1.809-2.395c.308-.361.628-.7.957-1.036a23.252 23.252 0 0 1 30.612-2.421z" style="fill:#04357f"/><path d="M50.8 27.5a23.286 23.286 0 0 1-37.227 18.666L50.1 21.815a23.444 23.444 0 0 1 .7 5.685z" style="fill:#009444"/><path d="M43.018 10.136 5.5 35.152c-.23-.644-.424-1.3-.591-1.967L41.433 8.834q.824.62 1.585 1.302zM50.1 21.815 13.573 46.166a25.883 25.883 0 0 1-1.591-1.3l37.526-25.018c.225.644.424 1.303.592 1.967z" style="fill:#fff"/><path d="M49.508 19.848 11.982 44.864A23.31 23.31 0 0 1 5.5 35.152l37.518-25.016a23.343 23.343 0 0 1 6.49 9.712z" style="fill:#d11133"/><path d="m17.929 18.107 3.18-1.214-3.18-1.213 2.144-2.646-3.357.538.533-3.363-2.641 2.145-1.219-3.175-1.213 3.175-1.355-1.1q-.493.5-.957 1.036l.209 1.281L8.97 13.4c-.319.418-.627.847-.915 1.286l.8.994-1.82.69c-.157.288-.309.581-.445.874l2.265.863-2.145 2.641 3.363-.533-.538 3.362 2.641-2.149 1.213 3.18 1.219-3.18 2.641 2.149-.533-3.362 3.357.533zm-4.54 3.467a4.684 4.684 0 1 1 4.686-4.681 4.682 4.682 0 0 1-4.686 4.681z" style="fill:#fecd17"/><path d="M13.394 13.018a3.876 3.876 0 1 0 3.876 3.875 3.874 3.874 0 0 0-3.876-3.875z" style="fill:#fecd17"/></svg>