<svg xmlns="http://www.w3.org/2000/svg" viewBox="0 0 55 55"><defs><clipPath id="a"><path d="M22.654 30.314h9.692L27.5 21.92z" style="fill:#c5a310"/></clipPath><clipPath id="b"><path d="M22.654 30.314h9.692L27.5 21.92z" style="fill:none"/></clipPath></defs><path d="M49.471 35.267a23.309 23.309 0 0 1-43.942 0zM49.471 19.733H5.529a23.312 23.312 0 0 1 43.942 0z" style="fill:#0967c4"/><path d="M50.8 27.5a23.182 23.182 0 0 1-1.329 7.767H5.529a23.361 23.361 0 0 1 0-15.534h43.942A23.182 23.182 0 0 1 50.8 27.5z" style="fill:#fff"/><path d="M20.839 26.5a.159.159 0 0 1 .157.12.143.143 0 0 1 .162-.083l.2.015-.011.152-.209-.016c-.037 0-.063.016-.079.063 0 .021-.01.058-.015.11l-.037.45.288.021-.011.151-.8-.062.053-.628a.471.471 0 0 1 .052-.23.209.209 0 0 1 .2-.068zm0 .152-.048-.006c-.052 0-.083.011-.094.048a.454.454 0 0 0-.021.141l-.036.444.24.021.037-.45a.491.491 0 0 0 0-.125.083.083 0 0 0-.083-.072zM21.561 25.685l-.183.8-.778-.185.188-.79.131.026-.151.644.177.042.147-.612.131.026-.147.617.2.047.152-.643zM21.43 24.608a.207.207 0 0 1 .152.141.445.445 0 0 1-.048.23l-.166.424.261.1-.058.142-.743-.293.22-.56a.64.64 0 0 1 .12-.2.2.2 0 0 1 .215 0zm-.047.146-.058-.026a.083.083 0 0 0-.1.016.84.84 0 0 0-.063.131l-.152.387.231.094.156-.393a.641.641 0 0 0 .037-.115.079.079 0 0 0-.051-.094zM22.167 23.781c.11.068.168.131.168.2a.549.549 0 0 1-.105.267l-.12.2a.588.588 0 0 1-.183.225c-.058.031-.147.01-.257-.058l-.434-.256.079-.131.413.241c.073.047.125.063.152.052a.452.452 0 0 0 .13-.167l.09-.147a.53.53 0 0 0 .083-.193c0-.032-.042-.068-.115-.115l-.413-.241.079-.136zM22.894 23c.063.057.1.11.1.162a.465.465 0 0 1-.136.251l-.393.466-.607-.513.382-.455a.538.538 0 0 1 .179-.152.172.172 0 0 1 .187.037.189.189 0 0 1 .079.167.18.18 0 0 1 .209.037zm-.376-.068c-.047-.042-.094-.031-.147.026l-.319.377.147.125.324-.387c.048-.06.048-.107-.005-.144zm.277.193a.108.108 0 0 0-.084-.036.169.169 0 0 0-.083.068l-.33.387.157.131.3-.356a.45.45 0 0 0 .068-.094.084.084 0 0 0-.023-.103zM23.7 22.6l-.575.513-.529-.6.115-.1.44.5.46-.408zM23.862 22.5l-.125.094-.476-.638.12-.094zM24.611 21.742a.2.2 0 0 1 .036.2.6.6 0 0 1-.23.194l-.184.11a.521.521 0 0 1-.272.1c-.073 0-.146-.068-.214-.188l-.058-.094a.39.39 0 0 1-.083-.283c.015-.068.094-.146.235-.23l.142-.084a.657.657 0 0 1 .282-.115.189.189 0 0 1 .167.1l.022.036-.126.079-.016-.026c-.021-.042-.063-.053-.12-.037-.027.011-.079.042-.168.094l-.089.053c-.109.068-.167.115-.178.151a.374.374 0 0 0 .074.2l.036.057c.047.079.084.121.116.126s.114-.01.224-.078l.1-.063a.774.774 0 0 0 .178-.126.086.086 0 0 0 0-.1l-.016-.026.125-.073zM25.75 21.538l-.162.062-.141-.115-.56.22-.026.183-.157.063.136-.91.183-.073zm-.423-.152-.335-.261h-.011l-.073.423zM27.252 20.968a.323.323 0 0 1-.058.277.5.5 0 0 1-.277.089l-.638.078-.095-.795.623-.073a.467.467 0 0 1 .324.042.388.388 0 0 1 .105.272zm-.157-.006-.011-.068a.335.335 0 0 0-.057-.2.365.365 0 0 0-.236-.016l-.434.052.058.529.439-.053a.382.382 0 0 0 .225-.073.264.264 0 0 0 .021-.171zM28.172 21.329l-.816-.032.027-.8.815.032v.13l-.664-.021v.183l.632.021v.136l-.633-.026v.215l.664.021zM29.747 21.7l-.2-.058-.461-.8-.182.622-.147-.047.219-.764.2.058.466.811.178-.623.146.042zM29.966 21.81l-.141-.058.3-.737.142.057zM31 22.066c-.042.084-.094.131-.152.136a.641.641 0 0 1-.288-.1l-.183-.1a.508.508 0 0 1-.225-.188.325.325 0 0 1 .047-.277l.053-.1c.068-.125.136-.2.2-.214a.455.455 0 0 1 .32.084l.146.078a.661.661 0 0 1 .241.183.177.177 0 0 1 0 .194l-.021.041-.131-.068.016-.026c.021-.042.01-.083-.037-.125a1.458 1.458 0 0 0-.162-.094l-.094-.053a.412.412 0 0 0-.22-.073c-.036.011-.078.068-.131.167l-.031.058c-.047.078-.063.131-.052.162s.073.094.183.152l.1.057a.839.839 0 0 0 .2.089.094.094 0 0 0 .092-.049l.011-.026.13.068zM31.755 22.945l-.135-.105.025-.183-.476-.366-.169.068-.136-.105.858-.345.156.12zm-.089-.44.053-.423-.006-.011-.4.157z" style="fill:#c5a310"/><path d="M32.77 23.279a.163.163 0 0 1-.194.037c.032.057.016.115-.047.173l-.146.141-.105-.115.152-.142a.076.076 0 0 0 .01-.1.4.4 0 0 0-.073-.089l-.3-.329-.215.2-.1-.109.58-.544.434.46a.482.482 0 0 1 .131.193.2.2 0 0 1-.083.194zm-.1-.11.031-.031a.079.079 0 0 0 .031-.1.557.557 0 0 0-.089-.11l-.3-.324-.178.162.309.329a.619.619 0 0 0 .088.084.083.083 0 0 0 .104-.01z" style="fill:#c5a310"/><path d="m33.005 24.555-.094-.146.084-.162-.335-.5-.183.01-.094-.141.92-.052.11.162zm.058-.444.188-.387v-.011l-.434.021zM33.7 25.33a.334.334 0 0 1-.272.031c-.058-.026-.11-.105-.168-.23l-.109-.251a.491.491 0 0 1-.063-.288c.015-.073.083-.136.2-.188l.1-.047a.392.392 0 0 1 .288-.047.459.459 0 0 1 .2.261l.1.22a.482.482 0 0 1 .063.287.251.251 0 0 1-.157.157l-.063-.141a.114.114 0 0 0 .073-.084.381.381 0 0 0-.052-.193l-.073-.167a.407.407 0 0 0-.126-.189c-.036-.015-.1 0-.209.047l-.057.027c-.084.036-.131.078-.142.115s.006.109.053.214l.073.173a.564.564 0 0 0 .11.177c.026.016.073.011.136-.02l-.168-.372.121-.052.23.512zM33.942 26.37a.281.281 0 0 1-.262-.021.579.579 0 0 1-.115-.266l-.058-.225a.633.633 0 0 1-.031-.288c.027-.063.1-.11.225-.141l.486-.126.037.152-.46.115c-.084.026-.131.047-.147.073a.529.529 0 0 0 .026.21l.042.167a.5.5 0 0 0 .084.2c.021.015.073.015.157-.006l.466-.12.036.152zM33.758 27.552l-.015-.172.151-.1-.052-.6-.167-.079-.015-.172.837.4.015.194zm.262-.361.35-.251v-.01l-.387-.188zM21.174 29.765l-.126-.4.11-.037.131.4zM21.765 31.5l-.089-.152.094-.157-.3-.523h-.183l-.083-.146h.92l.1.167zm.083-.445.209-.371v-.011h-.429zM22.711 32.61l-.1-.115.5-.434-.006-.006-.779.1-.078-.084.2-.763-.006-.006-.491.435-.1-.115.6-.529.162.189-.195.718.728-.105.162.189zM23.533 33.253l-.639-.507.492-.623.638.508-.083.1-.518-.413-.115.147.5.392-.084.1-.492-.392-.135.162.523.413zM24.746 33.363a.162.162 0 0 1-.173.094.133.133 0 0 1 .006.178l-.1.178-.13-.079.105-.183a.073.073 0 0 0-.027-.094.559.559 0 0 0-.089-.063l-.392-.225-.147.257-.13-.079.392-.69.55.308a.647.647 0 0 1 .187.147.215.215 0 0 1-.026.214zm-.131-.068.021-.042a.078.078 0 0 0 0-.1.469.469 0 0 0-.12-.078l-.387-.22-.12.21.392.219a.99.99 0 0 0 .11.058.091.091 0 0 0 .104-.042zM24.788 33.933l-.141-.063.319-.727.141.063zM25.918 34.079c-.032.089-.074.142-.131.157a.6.6 0 0 1-.3-.047l-.2-.062a.481.481 0 0 1-.257-.142.32.32 0 0 1 0-.282l.036-.11a.426.426 0 0 1 .152-.246.475.475 0 0 1 .33.026l.157.053a.641.641 0 0 1 .271.136.165.165 0 0 1 .037.188l-.01.047-.141-.047.01-.026c.016-.047-.005-.084-.058-.115a.9.9 0 0 0-.178-.068l-.1-.032a.418.418 0 0 0-.23-.031.323.323 0 0 0-.1.183l-.021.068c-.032.084-.037.141-.021.167.021.042.089.079.2.115l.115.037a.813.813 0 0 0 .214.052.081.081 0 0 0 .073-.068l.011-.026.141.042zM27.069 34.5l-.173-.026-.063-.168-.6-.089-.115.147-.168-.026.576-.722.193.031zm-.293-.34-.163-.4H26.6l-.272.335zM28.737 34.158a.209.209 0 0 1-.052.2.633.633 0 0 1-.293.078l-.209.021a.505.505 0 0 1-.288-.021.33.33 0 0 1-.12-.261l-.011-.11a.4.4 0 0 1 .042-.288.5.5 0 0 1 .309-.115l.167-.016a.686.686 0 0 1 .3.016.171.171 0 0 1 .109.157v.047l-.146.016v-.032c0-.047-.037-.073-.1-.078a.987.987 0 0 0-.189.01l-.1.011a.439.439 0 0 0-.225.063.388.388 0 0 0-.016.214v.063a.323.323 0 0 0 .053.167.362.362 0 0 0 .235.021l.12-.016a.683.683 0 0 0 .215-.042.081.081 0 0 0 .042-.088l-.005-.032.146-.015zM29.731 34.142l-.79.215-.2-.774.79-.21.031.131-.638.173.047.172.613-.162.036.131-.62.162.053.2.637-.167zM30.84 33.666l-.194.089-.873-.314.261.586-.136.063-.329-.722.193-.089.874.314-.262-.586.141-.062zM31.394 32.516l-.324.214.366.554-.13.084-.366-.549-.325.214-.073-.109.774-.518zM32.226 31.951a.153.153 0 0 1 .031.193.138.138 0 0 1 .173.047l.141.152-.114.1-.142-.157a.078.078 0 0 0-.1-.011.444.444 0 0 0-.088.074l-.33.3.194.214-.11.1-.539-.586.46-.424a.588.588 0 0 1 .2-.136.217.217 0 0 1 .194.089zm-.11.1-.031-.031c-.037-.037-.068-.047-.1-.031a.406.406 0 0 0-.116.089l-.324.3.162.177.33-.3a.35.35 0 0 0 .083-.089.082.082 0 0 0-.004-.111zM33.361 31.36l-.11.136-.178-.026-.371.476.068.172-.1.131-.341-.858.121-.151zm-.445.089-.423-.058-.006.011.157.4zM33.79 30.581l-.377.669-.69-.392.073-.131.575.324.3-.538zM33.968 29.419l-.131.4-.115-.036.136-.4zM22.654 30.314h9.692L27.5 21.92z" style="fill:#c5a310"/><g style="clip-path:url(#a)"><path d="M27.246 34.116a5.661 5.661 0 0 1-.518-.037l.764-7.013zm.513 0-.256-7.05.769 7.013c-.172.021-.34.032-.513.037zm-1.543-.11a8.186 8.186 0 0 1-.507-.11l1.778-6.835zm2.573 0-1.276-6.945 1.784 6.83c-.168.042-.335.084-.508.115zm-3.577-.261a8.063 8.063 0 0 1-.492-.189l2.762-6.495zm4.587-.006-2.281-6.678 2.767 6.495a6.13 6.13 0 0 1-.485.183zm-5.55-.4a6.016 6.016 0 0 1-.45-.257l3.677-6.019h.006zm6.507 0-3.238-6.276h.006l3.682 6.019c-.147.087-.298.171-.45.255zm-7.391-.539a6.372 6.372 0 0 1-.408-.319l4.514-5.424zm8.275-.005-4.116-5.738 4.519 5.424a6.632 6.632 0 0 1-.403.312zm-9.069-.659a7.882 7.882 0 0 1-.362-.371l5.252-4.718h.005zm9.864-.005-4.9-5.079h.006l5.251 4.712c-.116.124-.237.25-.357.365zm-10.555-.766a4.839 4.839 0 0 1-.3-.424l5.879-3.9v.005zm11.246 0-5.586-4.32v-.005l5.885 3.9a7.78 7.78 0 0 1-.299.42zM21.3 30.5a10.526 10.526 0 0 1-.235-.46l6.387-3.007zm12.392 0-6.152-3.462 6.392 3a7.39 7.39 0 0 1-.232.462zm-12.831-.936a8.176 8.176 0 0 1-.173-.492l6.758-2.04v.006zm13.275-.006-6.6-2.52a.006.006 0 0 1 .006-.006l6.758 2.03c-.039.164-.1.331-.16.493zm-13.578-.988c-.037-.173-.068-.345-.1-.513l6.983-1.025zm13.876-.011-6.884-1.53 6.983 1.02a8.86 8.86 0 0 1-.095.507zM20.41 27.537a7.877 7.877 0 0 1-.016-.513l7.056-.01v.01zm14.18-.006-7.04-.507v-.01L34.606 27v.016c0 .17-.006.343-.016.515zm-7.14-.523-7.04-.5c.01-.167.031-.345.057-.512L27.45 27zm.1 0 6.983-1.035c.021.172.041.345.057.517zm0 0 6.75-2.055c.053.167.095.335.131.5zm-.1 0-6.894-1.522c.037-.167.084-.34.132-.5L27.45 27zm0 0-6.6-2.516a11.9 11.9 0 0 1 .2-.476L27.456 27zm.094 0 6.387-3.018c.073.157.141.319.2.481zm-.088-.005L21.3 23.541c.084-.152.173-.3.267-.445l5.89 3.9zm.088 0 5.874-3.912c.095.141.189.287.272.439zm-.083-.006-5.592-4.309c.105-.136.215-.272.33-.4l5.262 4.7zm.079 0 5.246-4.723c.115.131.225.262.329.4zm-.074-.01L22.56 21.9c.125-.12.251-.236.387-.345l4.524 5.418zm.068 0 4.509-5.434c.13.11.262.225.387.345zm-.063 0-4.116-5.747c.141-.1.282-.194.429-.283l3.692 6.015zm.053 0 3.676-6.046c.147.089.293.189.435.288zm-.042 0L24.239 20.7c.151-.079.308-.157.47-.225l2.773 6.491zm.036 0v-.005l2.752-6.5c.157.068.319.146.47.224zm0-.005 1.768-6.831c.167.042.335.089.5.146zm-.036 0-2.291-6.674c.167-.058.334-.11.5-.152l1.794 6.826zm0 0L26.2 20.026c.168-.031.34-.057.513-.073l.779 7.014zm.026 0h-.005l.753-7.019c.173.021.345.042.513.073zm-.016 0-.266-7.056c.089 0 .177-.005.266-.005s.168.005.246.005l-.24 7.056z" style="fill:#6fd7f2"/></g><g style="clip-path:url(#b)"><path d="M30.986 28.332h-.068a3.418 3.418 0 1 0-6.836 0h-.068a3.486 3.486 0 1 1 6.972 0z" style="fill:#ff0303"/><path d="M30.918 28.332h-.068a3.35 3.35 0 0 0-6.7 0h-.068a3.418 3.418 0 0 1 6.836 0z" style="fill:#ff6407"/><path d="M30.85 28.332h-.067a3.283 3.283 0 1 0-6.565 0h-.068a3.35 3.35 0 0 1 6.7 0z" style="fill:#fdfe1f"/><path d="M30.783 28.332h-.069a3.214 3.214 0 1 0-6.428 0h-.068a3.283 3.283 0 1 1 6.565 0z" style="fill:#00fe1e"/><path d="M30.714 28.332h-.068a3.146 3.146 0 1 0-6.292 0h-.068a3.214 3.214 0 1 1 6.428 0z" style="fill:#08ccfe"/><path d="M30.646 28.332h-.068a3.078 3.078 0 1 0-6.156 0h-.068a3.146 3.146 0 1 1 6.292 0z" style="fill:#120ffd"/><path d="M30.578 28.332h-.068a3.01 3.01 0 1 0-6.02 0h-.068a3.078 3.078 0 1 1 6.156 0z" style="fill:#810480"/></g><path d="m32.325 30.277.021.037h-.256c.078-.014.141-.026.235-.037z" style="fill:#fff"/><path d="M27.5 29.048c.414 0 .414.079.827.079s.408-.079.821-.079.413.079.821.079.413-.079.827-.079.408.079.821.079h.047l.047.083c-.063 0-.141.011-.241.011-.413 0-.413-.079-.821-.079s-.413.079-.826.079-.408-.079-.821-.079-.413.079-.822.079-.413-.079-.821-.079-.413.079-.826.079-.408-.079-.821-.079-.414.079-.822.079-.413-.079-.826-.079c-.392 0-.408.073-.774.079l.052-.094h.047c.413 0 .413-.079.821-.079s.414.079.827.079.408-.079.821-.079.413.079.821.079.41-.079.821-.079z" style="fill:#0642a1"/><path d="M27.5 29.236c.414 0 .414.079.827.079s.408-.079.821-.079.413.079.821.079.413-.079.827-.079.408.079.821.079c.058 0 .11-.005.152-.005l.041.073a2.421 2.421 0 0 1-.34.026c-.413 0-.413-.078-.821-.078s-.413.078-.826.078-.408-.078-.821-.078-.413.078-.822.078-.413-.078-.821-.078-.413.078-.826.078-.408-.078-.821-.078-.414.078-.822.078-.413-.078-.826-.078-.408.078-.821.078a.268.268 0 0 1-.063 0l.057-.094c.042 0 .095.005.152.005.413 0 .413-.079.821-.079s.414.079.827.079.408-.079.821-.079.413.079.821.079.41-.084.821-.084zM23.386 29.5c.413 0 .413-.073.821-.073s.414.073.827.073.408-.073.821-.073.413.073.821.073.413-.073.821-.073.414.073.827.073.408-.073.821-.073.413.073.821.073.413-.073.827-.073.408.073.821.073c.11 0 .188-.005.256-.011l.037.063a2.014 2.014 0 0 1-.44.042c-.413 0-.413-.078-.821-.078s-.413.078-.826.078-.408-.078-.821-.078-.413.078-.822.078-.413-.078-.821-.078-.413.078-.826.078-.408-.078-.821-.078-.414.078-.822.078-.413-.078-.826-.078-.408.078-.821.078h-.168l.058-.1c.07-.001.146.006.256.006zM23.386 29.686c.413 0 .413-.078.821-.078s.414.078.827.078.408-.078.821-.078.413.078.821.078.413-.078.821-.078.414.078.827.078.408-.078.821-.078.413.078.821.078.413-.078.827-.078.408.078.821.078a1.916 1.916 0 0 0 .356-.026l.031.058a2.365 2.365 0 0 1-.534.062c-.413 0-.413-.078-.821-.078s-.413.078-.826.078-.408-.08-.82-.08-.413.078-.822.078-.413-.078-.821-.078-.413.078-.826.078-.408-.078-.821-.078-.414.078-.822.078-.413-.078-.826-.078-.408.078-.821.078a1.859 1.859 0 0 1-.267-.015l.057-.105a1.916 1.916 0 0 0 .355.028zM23.386 29.874c.413 0 .413-.078.821-.078s.414.078.827.078.408-.078.821-.078.413.078.821.078.413-.078.821-.078.414.078.827.078.408-.078.821-.078.413.078.821.078.413-.078.827-.078.408.078.821.078a2.013 2.013 0 0 0 .45-.047l.042.068a4.23 4.23 0 0 1-.639.074c-.413 0-.413-.079-.821-.079s-.413.079-.826.079-.408-.079-.821-.079-.413.079-.822.079-.413-.079-.821-.079-.413.079-.826.079-.408-.079-.821-.079-.414.079-.822.079-.413-.079-.826-.079-.408.079-.821.079a1.856 1.856 0 0 1-.367-.032l.064-.11a2 2 0 0 0 .449.047zM27.5 29.984c.414 0 .414.079.827.079s.408-.079.821-.079.413.079.821.079.413-.079.827-.079.408.079.821.079a2.869 2.869 0 0 0 .546-.063l.047.078c-.335.011-.361.074-.743.074-.413 0-.413-.074-.821-.074s-.413.074-.826.074-.408-.074-.821-.074-.413.074-.822.074-.413-.074-.821-.074-.413.074-.826.074-.408-.074-.821-.074-.414.074-.822.074-.413-.074-.826-.074-.408.074-.821.074a2.257 2.257 0 0 1-.466-.047l.063-.105a2.879 2.879 0 0 0 .549.063c.413 0 .413-.079.821-.079s.414.079.827.079.408-.079.821-.079.413.079.821.079.413-.079.824-.079zM23.386 30.246c.413 0 .413-.079.821-.079s.414.079.827.079.408-.079.821-.079.413.079.821.079.413-.079.821-.079.414.079.827.079.408-.079.821-.079.413.079.821.079.413-.079.827-.079.408.079.821.079a4.83 4.83 0 0 0 .654-.073l.057.1c-.094.011-.157.026-.235.037h-.659a2.333 2.333 0 0 0-.989 0h-.659a2.339 2.339 0 0 0-.491-.053 2.3 2.3 0 0 0-.492.053h-.659a2.4 2.4 0 0 0-.5-.053 2.35 2.35 0 0 0-.492.053h-.658a2.362 2.362 0 0 0-.491-.049 2.4 2.4 0 0 0-.5.053h-.66a2.3 2.3 0 0 0-.491-.053 2.342 2.342 0 0 0-.492.053H23.2a2.707 2.707 0 0 0-.518-.053l.047-.088a4.718 4.718 0 0 0 .657.073z" style="fill:#02275f"/><path d="M24.061 28.771c.413 0 .413.073.826.073s.408-.073.822-.073.413.073.821.073.413-.073.826-.073.408.073.821.073.409-.073.822-.073.413.073.821.073.413-.073.826-.073.408.073.821.073h.033l.052.094c-.35 0-.371-.078-.758-.078-.414 0-.414.078-.827.078s-.408-.078-.821-.078-.413.078-.821.078-.413-.078-.827-.078-.408.078-.821.078-.408-.078-.821-.078-.413.078-.821.078-.413-.078-.827-.078c-.387 0-.408.073-.758.078l.063-.1a2.512 2.512 0 0 1 .548-.067z" style="fill:#80a0d1"/><path d="M27.356 29.142c.408 0 .408.079.821.079s.409-.079.822-.079.413.079.821.079.413-.079.826-.079.408.079.821.079c.1 0 .178-.006.241-.011l.058.1c-.042 0-.094.005-.152.005-.413 0-.413-.079-.821-.079s-.414.079-.827.079-.408-.079-.821-.079-.413.079-.821.079-.413-.079-.827-.079-.408.079-.821.079-.408-.079-.821-.079-.413.079-.821.079-.413-.079-.827-.079-.408.079-.821.079c-.057 0-.11-.005-.152-.005l.053-.089c.366-.006.382-.079.774-.079.413 0 .413.079.826.079s.408-.079.822-.079.413.079.821.079.413-.079.826-.079zM27.356 29.331c.408 0 .408.078.821.078s.409-.078.822-.078.413.078.821.078.413-.078.826-.078.408.078.821.078a2.421 2.421 0 0 0 .34-.026l.063.1a2.766 2.766 0 0 1-.256.011c-.413 0-.413-.073-.821-.073s-.414.073-.827.073-.408-.073-.821-.073-.413.073-.821.073-.413-.073-.827-.073-.408.073-.821.073-.408-.073-.821-.073-.413.073-.821.073-.413-.073-.827-.073-.408.073-.821.073c-.11 0-.188-.005-.256-.011l.047-.083a.268.268 0 0 0 .063 0c.413 0 .413-.078.821-.078s.413.078.826.078.408-.078.822-.078.413.078.821.078.413-.069.826-.069zM27.356 29.514c.408 0 .408.078.821.078s.409-.078.822-.078.413.078.821.078.413-.078.826-.078.408.078.821.078a2.014 2.014 0 0 0 .44-.042l.063.11a1.916 1.916 0 0 1-.356.026c-.413 0-.413-.078-.821-.078s-.414.078-.827.078-.408-.078-.821-.078-.413.078-.821.078-.413-.078-.827-.078-.408.078-.821.078-.408-.078-.821-.078-.413.078-.821.078-.413-.078-.827-.078-.408.078-.821.078a1.916 1.916 0 0 1-.356-.026l.042-.073h.168c.413 0 .413-.078.821-.078s.413.078.826.078.408-.078.822-.078.413.078.821.078.413-.073.826-.073zM27.356 29.7c.408 0 .408.078.821.078s.409-.078.822-.078.413.078.821.078.413-.078.826-.078.408.078.821.078a2.365 2.365 0 0 0 .533-.06l.063.109a2.013 2.013 0 0 1-.45.047c-.413 0-.413-.078-.821-.078s-.414.078-.827.078-.408-.078-.821-.078-.413.078-.821.078-.413-.078-.827-.078-.408.078-.821.078-.408-.078-.821-.078-.413.078-.821.078-.413-.078-.827-.078-.408.078-.821.078a2 2 0 0 1-.449-.047l.036-.062a1.859 1.859 0 0 0 .267.015c.413 0 .413-.078.821-.078s.413.078.826.078.408-.078.822-.078.413.078.821.078.414-.08.827-.08zM22.873 29.937a1.856 1.856 0 0 0 .367.032c.413 0 .413-.079.821-.079s.413.079.826.079.408-.079.822-.079.413.079.821.079.413-.079.826-.079.408.079.821.079.409-.079.822-.079.413.079.821.079.413-.079.826-.079.408.079.821.079a4.23 4.23 0 0 0 .639-.074l.057.105a2.869 2.869 0 0 1-.549.063c-.413 0-.413-.079-.821-.079s-.414.079-.827.079-.408-.079-.821-.079-.413.079-.821.079-.413-.079-.827-.079-.408.079-.821.079-.408-.079-.821-.079-.413.079-.821.079-.413-.079-.827-.079-.408.079-.821.079a2.879 2.879 0 0 1-.549-.063zM27.356 30.078c.408 0 .408.074.821.074s.409-.074.822-.074.413.074.821.074.413-.074.826-.074.408.074.821.074c.382 0 .408-.063.743-.074l.058.095a4.83 4.83 0 0 1-.654.073c-.413 0-.413-.079-.821-.079s-.414.079-.827.079-.408-.079-.821-.079-.413.079-.821.079-.413-.079-.827-.079-.408.079-.821.079-.408-.079-.821-.079-.413.079-.821.079-.413-.079-.827-.079-.408.079-.821.079a4.718 4.718 0 0 1-.654-.073l.042-.068a2.257 2.257 0 0 0 .466.047c.413 0 .413-.074.821-.074s.413.074.826.074.408-.074.822-.074.413.074.821.074.413-.074.826-.074z" style="fill:#fff"/><path d="m31.263 28.441.063.11a2.351 2.351 0 0 0-.533-.063c-.414 0-.414.079-.827.079s-.408-.079-.821-.079-.413.079-.821.079-.413-.079-.827-.079-.408.079-.821.079-.408-.079-.821-.079-.413.079-.821.079-.413-.079-.827-.079a2.351 2.351 0 0 0-.533.063l.057-.11z" style="fill:#80a0d1"/><path style="fill:#0642a1" d="m31.206 28.342.057.099h-7.532l.063-.099h7.412z"/><path d="M30.934 30.261a2.408 2.408 0 0 1 .5.053h-.989a2.394 2.394 0 0 1 .489-.053z" style="fill:#fff"/><path style="fill:#80a0d1" d="m31.159 28.258.047.084h-7.412l.047-.084h7.318z"/><path d="M27.5 28.86c.414 0 .414.078.827.078s.408-.078.821-.078.413.078.821.078.413-.078.827-.078c.387 0 .408.073.758.078l.052.094h-.136c-.413 0-.413-.078-.821-.078s-.413.078-.826.078-.408-.078-.821-.078-.413.078-.822.078-.413-.078-.821-.078-.413.078-.826.078-.408-.078-.821-.078-.414.078-.822.078-.413-.078-.826-.078a5.728 5.728 0 0 0-.664.073l.052-.089c.35 0 .371-.078.758-.078.414 0 .414.078.827.078s.408-.078.821-.078.413.078.821.078.41-.078.821-.078zM27.5 28.677c.414 0 .414.078.827.078s.408-.078.821-.078.413.078.821.078.413-.078.827-.078a4.558 4.558 0 0 1 .648.073l.058.094h-.032c-.413 0-.413-.073-.821-.073s-.413.073-.826.073-.408-.073-.821-.073-.413.073-.822.073-.413-.073-.821-.073-.413.073-.826.073-.408-.073-.821-.073-.414.073-.822.073-.413-.073-.826-.073a2.512 2.512 0 0 0-.549.063l.047-.084a4.472 4.472 0 0 1 .648-.073c.414 0 .414.078.827.078s.408-.078.821-.078.413.078.821.078.41-.078.821-.078zM31.122 28.196l.037.062h-7.318l.037-.062h7.244z" style="fill:#0642a1"/><path style="fill:#80a0d1" d="m31.097 28.154.025.042h-7.244l.026-.042h7.193z"/><path style="fill:#0642a1" d="m31.08 28.117.017.037h-7.193l.016-.037h7.16z"/><path style="fill:#80a0d1" d="M31.08 28.117h-7.16l.015-.021h7.13l.015.021zM24.061 28.954c.413 0 .413.078.826.078s.408-.078.822-.078.413.078.821.078.413-.078.826-.078.408.078.821.078.409-.078.822-.078.413.078.821.078.413-.078.826-.078.408.078.821.078h.133l.058.095h-.047c-.413 0-.413-.079-.821-.079s-.414.079-.827.079-.408-.079-.821-.079-.413.079-.821.079-.413-.079-.827-.079-.408.079-.821.079-.408-.079-.821-.079-.413.079-.821.079-.413-.079-.827-.079-.408.079-.821.079h-.047l.058-.1a5.728 5.728 0 0 1 .667-.073zM24.061 28.583c.413 0 .413.078.826.078s.408-.078.822-.078.413.078.821.078.413-.078.826-.078.408.078.821.078.409-.078.822-.078.413.078.821.078.413-.078.826-.078c.382 0 .408.068.743.078l.052.089a4.558 4.558 0 0 0-.648-.073c-.414 0-.414.078-.827.078s-.408-.078-.821-.078-.413.078-.821.078-.413-.078-.827-.078-.408.078-.821.078-.408-.078-.821-.078-.413.078-.821.078-.413-.078-.827-.078a4.472 4.472 0 0 0-.648.073l.068-.126a2.066 2.066 0 0 1 .434-.041z"/><path d="M27.5 28.488c.414 0 .414.079.827.079s.408-.079.821-.079.413.079.821.079.413-.079.827-.079a2.351 2.351 0 0 1 .533.063l.063.11c-.335-.01-.361-.078-.743-.078-.413 0-.413.078-.826.078s-.408-.078-.821-.078-.413.078-.822.078-.413-.078-.821-.078-.413.078-.826.078-.408-.078-.821-.078-.414.078-.822.078-.413-.078-.826-.078a2.066 2.066 0 0 0-.434.041l.047-.073a2.351 2.351 0 0 1 .533-.063c.414 0 .414.079.827.079s.408-.079.821-.079.413.079.821.079.41-.079.821-.079z" style="fill:#0642a1"/><path d="M29.292 30.261a2.339 2.339 0 0 1 .491.053H28.8a2.3 2.3 0 0 1 .492-.053zM27.644 30.261a2.4 2.4 0 0 1 .5.053h-.989a2.35 2.35 0 0 1 .489-.053zM26 30.261a2.362 2.362 0 0 1 .493.053h-.989a2.4 2.4 0 0 1 .496-.053zM24.354 30.261a2.3 2.3 0 0 1 .491.053h-.983a2.342 2.342 0 0 1 .492-.053zM23.2 30.314h-.549l.031-.053a2.707 2.707 0 0 1 .518.053z" style="fill:#fff"/><path d="M27.749 26.166a.165.165 0 0 1-.021.079c-.016.026-.042.052-.053.047s0-.016 0-.032c0-.036-.031-.052-.057-.083a.315.315 0 0 1-.058-.168.335.335 0 0 1-.005-.068.521.521 0 0 1 .194.225zM27.884 26.726v.005c-.052.026-.12 0-.177.032a.169.169 0 0 0-.068.083.335.335 0 0 0-.021.073c-.006.011-.006.027-.011.037a.176.176 0 0 1-.063.089h-.02a.017.017 0 0 1-.006-.015c-.01-.016 0-.037.011-.053s.026-.031.036-.047a.461.461 0 0 0 .032-.12.28.28 0 0 1 .026-.063.178.178 0 0 1 .115-.047c.026 0 .058.005.084.005a.2.2 0 0 0 .052-.01.039.039 0 0 1 .01.031z" style="fill:#fb3b3a"/><path d="M27.822 26.768a.16.16 0 0 0-.073.01.135.135 0 0 0-.069.032.111.111 0 0 0-.026.062.1.1 0 0 0-.021.053l-.015-.006a.335.335 0 0 1 .021-.073.169.169 0 0 1 .068-.083c.057-.027.125-.006.177-.032a.039.039 0 0 1-.026.047c-.01-.005-.026-.005-.036-.01z" style="fill:#ff0302"/><path d="M27.858 26.778a.46.46 0 0 1-.109.021.148.148 0 0 0-.095.073.111.111 0 0 1 .026-.062.135.135 0 0 1 .069-.032.16.16 0 0 1 .073-.01c.01.005.026.005.036.01zM27.461 26.888a.807.807 0 0 0 0 .11c0 .01.005.016.005.026a.1.1 0 0 0 .01.037.086.086 0 0 1-.036-.047V27a.96.96 0 0 0 0-.12.257.257 0 0 0-.079-.131.749.749 0 0 0-.141-.079.265.265 0 0 1-.094-.088.281.281 0 0 1 .105.02.373.373 0 0 1 .13.058.258.258 0 0 1 .047.042.249.249 0 0 1 .048.125.521.521 0 0 1 .005.061z" style="fill:#520200"/><path d="M27.414 26.4a.471.471 0 0 1-.016.147.853.853 0 0 1-.037.115.373.373 0 0 0-.13-.058.281.281 0 0 0-.105-.02.108.108 0 0 1-.01-.037.127.127 0 0 1 .026-.105c.062-.1.115-.178.12-.183 0 .005-.073.063-.12.037.015-.042.052-.11.11-.12a.282.282 0 0 0 .162-.068.2.2 0 0 0-.016.078.81.81 0 0 0 0 .11c.002.032.016.069.016.104z" style="fill:#940101"/><path d="M27.628 26.93a.2.2 0 0 1-.057.12.1.1 0 0 1-.1.011.1.1 0 0 1-.01-.037c0-.01-.005-.016-.005-.026a.807.807 0 0 1 0-.11.521.521 0 0 0 0-.063.249.249 0 0 0-.048-.125.258.258 0 0 0-.047-.042.853.853 0 0 0 .037-.115.471.471 0 0 0 .016-.147c0-.031-.011-.068-.011-.1a.81.81 0 0 1 0-.11.2.2 0 0 1 .016-.078.282.282 0 0 1-.162.068c-.058.01-.095.078-.11.12a.089.089 0 0 1-.026-.037c-.032-.094.183-.345.381-.329a.142.142 0 0 1 .063.015.335.335 0 0 0 .005.068.315.315 0 0 0 .058.168c.026.031.057.047.057.083 0 .016-.01.032 0 .032s.037-.021.053-.047a.165.165 0 0 0 .021-.079 1.134 1.134 0 0 1 .12.372.586.586 0 0 1 0 .094c0 .015.005.042 0 .057v.011a.2.2 0 0 1-.052.01c-.026 0-.058-.005-.084-.005a.178.178 0 0 0-.115.047.28.28 0 0 0-.026.063.461.461 0 0 1-.032.12c-.01.016-.025.032-.036.047s-.021.037-.011.053a.017.017 0 0 0 .006.015h.02a.176.176 0 0 0 .063-.089c0-.01 0-.026.011-.037l.015.006-.01-.004z" style="fill:#ff0302"/><g style="clip-path:url(#b)"><path d="M25 27.5a3.033 3.033 0 0 1-.491 1.365c-.257.424-.544.366-.853.4A2.988 2.988 0 0 0 25 27.5z" style="fill:#91bb35"/><path d="M29.9 27.306a2.179 2.179 0 0 1-.157 1.4 2.6 2.6 0 0 1-.172-.141 3.036 3.036 0 0 0 .24-1.125 2.05 2.05 0 0 1-.429.942l-.031-.031a.447.447 0 0 0 .047-.126.325.325 0 0 1-.073.094 1.482 1.482 0 0 1-.057-.068 1.687 1.687 0 0 0 .334-.518 2 2 0 0 0 .094-.256c.021-.063.032-.12.1-.157a.192.192 0 0 1 .104-.014z" style="fill:#ece62b"/><path d="M29.809 27.442a3.036 3.036 0 0 1-.24 1.125 1.333 1.333 0 0 1-.189-.183 2.05 2.05 0 0 0 .429-.942z" style="fill:#c5ca2c"/><path d="M25.489 28.1a2.629 2.629 0 0 0 1 .968c.135-.01.245-.026.245-.026a2.3 2.3 0 0 1-.654-.382 1.879 1.879 0 0 1-.146-.136 4.129 4.129 0 0 0 .266-1.083 3.744 3.744 0 0 1-.4.942l-.1-.131a3.691 3.691 0 0 0 .235-.387l.141-.288c.052-.115.079-.235.2-.251a6.44 6.44 0 0 0 0 .722 1.432 1.432 0 0 0 .078.513.887.887 0 0 0 .366.418 1.761 1.761 0 0 0 .66.225c.125.016.25.026.381.031-.214-.125-.962-.669-1.088-1.15.256.34.655.946 1.25.957a1.761 1.761 0 0 1-.382-.188 1.782 1.782 0 0 1-.272-.194.986.986 0 0 1-.125-.115 1.865 1.865 0 0 0 .277-.894c.011-.126.011-.241.016-.319a.166.166 0 0 1 .1 0c.016 0 .027.005.037.005 0 .34.063 1.82 1.533 1.7a2.256 2.256 0 0 1-.55-.3 2.91 2.91 0 0 0 .157-1.418c.006 0 .006 0 .011.006.141.026.152.177.2.3a3.168 3.168 0 0 0 .141.308 2.247 2.247 0 0 0 .194.314s.02.026.057.068l.026.032.031.031a1.333 1.333 0 0 0 .189.183 2.6 2.6 0 0 0 .172.141 2.179 2.179 0 0 0 .157-1.4.183.183 0 0 1 .136.079c.016.042.026.084.042.125a5.652 5.652 0 0 0 .236.518 1.934 1.934 0 0 0 1.475 1l.209.445a3.593 3.593 0 0 0-1.046-.026 4.579 4.579 0 0 1-.707.115c-.423 0-.486-.136-.9-.115-.272.016-.277.073-.628.1-.125 0-.152 0-.617-.015-.445-.016-.664-.021-.779-.011-.309.037-.314.1-.607.115a4.214 4.214 0 0 1-.555-.021c-.324-.016-.491-.026-.575-.021-.324.021-.33.089-.643.115-.058.006-.068 0-.654-.031-.361-.021-.44-.026-.565-.026a2.208 2.208 0 0 0-.508.052 1.687 1.687 0 0 0-.46.183l.141-.654a1.764 1.764 0 0 0 1.057-.345 3.854 3.854 0 0 0 .556-.584 4.24 4.24 0 0 0 .262-.434c.052-.094.1-.193.141-.288.052-.115.083-.235.2-.251a3.131 3.131 0 0 0 .01.884c.084.3.089.947 1.475 1.025a3.355 3.355 0 0 1-1.099-1.136zm-.978.764A3.033 3.033 0 0 0 25 27.5a2.988 2.988 0 0 1-1.344 1.768c.311-.037.598.021.855-.403z" style="fill:#95c82b"/><path d="M29.323 28.321a.325.325 0 0 0 .073-.094.447.447 0 0 1-.047.126l-.026-.032z" style="fill:#91bb35"/><path d="M28.721 27.327a2.91 2.91 0 0 1-.157 1.418.89.89 0 0 1-.1-.084 1.649 1.649 0 0 1-.141-.131 2.54 2.54 0 0 0 .324-1.088 4.267 4.267 0 0 1-.429.978 2.247 2.247 0 0 1-.052-.067l.058-.131-.084.1a.806.806 0 0 1-.053-.068 4.02 4.02 0 0 0 .23-.387c.053-.094.1-.193.142-.288.058-.131.09-.279.262-.252z" style="fill:#ece62b"/><path d="M28.214 28.42a4.267 4.267 0 0 0 .429-.978 2.54 2.54 0 0 1-.324 1.088 1.533 1.533 0 0 1-.105-.11z" style="fill:#c5ca2c"/><path d="M27.618 27.442s.136 1.428.931 1.454a2.519 2.519 0 0 1-.931-1.454zm.544.911.052.067c.021.026.068.074.105.11a1.649 1.649 0 0 0 .141.131l.1.084a2.256 2.256 0 0 0 .55.3c-1.47.115-1.538-1.365-1.533-1.7.116.047.126.183.168.293a2.946 2.946 0 0 0 .141.308 2.446 2.446 0 0 0 .193.314.806.806 0 0 0 .053.068c.014.004.019.014.03.025z" style="fill:#ece62b"/><path d="m28.22 28.222-.058.131c-.011-.011-.016-.021-.026-.032z" style="fill:#91bb35"/><path d="M27.618 27.442a2.519 2.519 0 0 0 .931 1.454c-.795-.026-.931-1.454-.931-1.454z" style="fill:#c5ca2c"/><path d="M26.347 27.442s.125 1.345.92 1.564a3 3 0 0 1-.92-1.564zm1.417 1.794c-.131 0-.256-.015-.381-.031a1.761 1.761 0 0 1-.66-.225.887.887 0 0 1-.366-.418 1.432 1.432 0 0 1-.078-.513c-.011-.24-.006-.481 0-.722a.171.171 0 0 1 .073.006c.147.026.157.177.2.3a3.216 3.216 0 0 0 .147.308 2.394 2.394 0 0 0 .193.319l.047.058.047.063.031.031a1.069 1.069 0 0 0 .126.136.986.986 0 0 0 .125.115 1.782 1.782 0 0 0 .272.194 1.761 1.761 0 0 0 .382.188c-.595-.011-.994-.617-1.25-.957.128.479.878 1.023 1.092 1.148z" style="fill:#ece62b"/><path d="M27.44 27.333c-.005.078-.005.193-.016.319a3.6 3.6 0 0 1-.4.758l-.031-.031c.01-.037.031-.094.058-.178a.259.259 0 0 1-.1.115l-.047-.058a2.946 2.946 0 0 0 .235-.392c.053-.094.095-.193.141-.288s.066-.209.16-.245z" style="fill:#ece62b"/><path d="M27.424 27.652a1.865 1.865 0 0 1-.277.894 1.069 1.069 0 0 1-.126-.136 3.6 3.6 0 0 0 .403-.758z" style="fill:#c5ca2c"/><path d="M26.943 28.316a.259.259 0 0 0 .1-.115c-.027.084-.048.141-.058.178z" style="fill:#91bb35"/><path d="M26.347 27.442a3 3 0 0 0 .92 1.564c-.795-.219-.92-1.564-.92-1.564z" style="fill:#c5ca2c"/><path d="M26.739 29.043s-.11.016-.245.026a2.629 2.629 0 0 1-1-.968 3.355 3.355 0 0 0 1.093 1.135c-1.386-.078-1.391-.727-1.475-1.025a3.131 3.131 0 0 1-.01-.884.2.2 0 0 1 .078.006c.141.026.152.177.2.3.042.1.089.209.141.308a2.843 2.843 0 0 0 .194.314l.1.131c.042.047.084.094.131.141a1.879 1.879 0 0 0 .146.136 2.3 2.3 0 0 0 .647.38zm-1.261-.476a.783.783 0 0 0 .644.439 2.777 2.777 0 0 1-.952-1.564 3.716 3.716 0 0 0 .308 1.125z" style="fill:#ece62b"/><path d="M26.205 27.442a4.129 4.129 0 0 1-.266 1.083c-.047-.047-.089-.094-.131-.141a3.744 3.744 0 0 0 .397-.942z" style="fill:#91bb35"/><path d="M26.122 29.006a.783.783 0 0 1-.644-.439 3.716 3.716 0 0 1-.308-1.125 2.777 2.777 0 0 0 .952 1.564z" style="fill:#c5ca2c"/></g></svg>