<svg xmlns="http://www.w3.org/2000/svg" viewBox="0 0 55 55"><clipPath id="a"><circle cx="27.5" cy="27.5" r="23.3" fill="none"/></clipPath><g clip-path="url(#a)" fill-rule="evenodd"><path d="M-4.57 50.82H15V33.1H-4.57v17.72zm30.78 0H65.4V33.1H26.22v17.72zM65.4 21.9V4.18H26.22V21.9zM15 4.18H-4.57V21.9H15V4.18z" fill="#ee2724"/><path d="M15 50.82h2.8V30.3H-4.57v2.8H15v17.72zm8.4 0h2.8V33.1h39.2v-2.8h-42v20.52zm42-26.12v-2.8H26.22V4.18h-2.8V24.7zM17.82 4.18H15V21.9H-4.57v2.8h22.39V4.18z" fill="#f4f4f5"/><path fill="#214097" stroke="#f4f4f5" stroke-miterlimit="2.41" stroke-width=".09" d="M-4.57 30.3h22.39v20.52h5.6V30.3H65.4v-5.6H23.42V4.18h-5.6V24.7H-4.57v5.6z"/></g></svg>