<svg xmlns="http://www.w3.org/2000/svg" viewBox="0 0 55 55"><circle cx="27.5" cy="27.5" r="23.3" style="fill:#003893"/><path d="M27.5 48.212A20.712 20.712 0 1 1 48.212 27.5 20.736 20.736 0 0 1 27.5 48.212z" style="fill:#dc143c"/><path style="fill:#fff" d="m32.707 35.775 3.487-1.395-3.487-1.396 2.321-2.949-3.716.534.532-3.717-2.948 2.321-1.396-3.487-1.396 3.487-2.948-2.321.533 3.717-3.717-.534 2.326 2.949-3.486 1.396 3.486 1.395-2.326 2.949 3.717-.533-.533 3.717 2.948-2.321 1.396 3.481 1.396-3.481 2.948 2.321-.532-3.717 3.716.533-2.321-2.949zM27.406 21.99a7.976 7.976 0 0 0 7.977-7.978c0-.057-.005-.115-.005-.172a7.2 7.2 0 0 1-4.25 4.626l-.585-.7 1.594-.716-1.594-.716 1.124-1.333-1.747.047.434-1.694-1.552.8-.345-1.715-1.051 1.4-1.051-1.4-.345 1.715-1.553-.8.434 1.694-1.746-.047 1.124 1.333-1.594.716 1.594.716-.585.7a7.188 7.188 0 0 1-4.25-4.626 1.648 1.648 0 0 0-.006.172 7.977 7.977 0 0 0 7.978 7.978z"/></svg>