<svg xmlns="http://www.w3.org/2000/svg" viewBox="0 0 55 55"><clipPath id="a"><circle cx="27.5" cy="27.5" r="23.3" fill="none"/></clipPath><g clip-path="url(#a)" fill-rule="evenodd"><path fill="#214097" d="M-7.48 4.18h69.96v46.64H-7.48V4.18z"/><path d="M7.12 4.18h1.09v9.25H-7.48V12h7.39l-7.39-4.93V5.26L2.61 12h3.25L-5.85 4.18h2.7L7.12 11V4.18zm4.69 0h1.09V11l10.27-6.82h2.7L14.17 12h3.24L27.5 5.26v1.8L20.12 12h7.38v1.45H11.82V4.18zM27.5 18.25v1.45h-7.38l7.38 4.92v1.8l-10.09-6.73h-3.24l11.71 7.81h-2.7L12.9 20.65v6.85h-1.08v-9.25zM8.21 27.5H7.12v-6.85L-3.15 27.5h-2.7l11.71-7.81H2.61l-10.09 6.73v-1.8L-.1 19.7h-7.38v-1.45H8.21v9.25z" fill="#fff"/><path d="M11.82 4.18v9.25H27.5v4.81H11.82v9.26H8.21v-9.25H-7.48v-4.81H8.21V4.18h3.61zM27.5 26.42l-10.09-6.73h-3.24l11.71 7.81h1.62v-1.08zM17.41 12 27.5 5.26V4.18h-1.62L14.17 12zM5.86 12-5.85 4.18h-1.63v1.08L2.61 12zm-3.25 7.7-10.09 6.72v1.08h1.62l11.72-7.81z" fill="#ee2724"/><path d="m45.64 34.91.45 1.41h1.48l-1.2.87.46 1.41-1.19-.87-1.19.87.46-1.41-1.2-.87h1.48l.45-1.41zm7.66-15.68.45 1.41h1.48L54 21.5l.46 1.4-1.16-.9-1.19.87.46-1.4-1.2-.87h1.48l.45-1.41zm-16.14 2.21.45 1.41h1.48l-1.2.87.46 1.4-1.19-.87-1.16.87.46-1.4-1.2-.87h1.44l.45-1.41zm8.64-8.64.45 1.41h1.48l-1.2.87.46 1.4-1.19-.87-1.19.87.46-1.4-1.2-.87h1.48l.45-1.41z" fill="#ee2724" stroke="#fff" stroke-miterlimit="2.41" stroke-width=".21"/></g></svg>