<svg xmlns="http://www.w3.org/2000/svg" viewBox="0 0 55 55"><g fill="#aa7d51"><path d="M27.5 50.85c-12.875 0-23.35-10.475-23.35-23.352C4.15 14.624 14.625 4.15 27.5 4.15c12.875 0 23.35 10.475 23.35 23.349 0 12.876-10.475 23.351-23.35 23.351m0-46.021c-12.5 0-22.669 10.17-22.669 22.669C4.831 40 15 50.171 27.5 50.171S50.169 40 50.169 27.499c0-12.5-10.169-22.67-22.669-22.67"/><path d="M25.106 15.99a.882.882 0 0 1 0-1.763c.486 0 .882.396.882.882a.883.883 0 0 1-.882.881m0-1.432a.551.551 0 0 0 0 1.102.552.552 0 0 0 .551-.551.552.552 0 0 0-.551-.551m14.935 13.775a.883.883 0 0 1 0-1.763.882.882 0 0 1 0 1.763m0-1.433a.552.552 0 0 0 0 1.103.551.551 0 0 0 0-1.103m-24.77-13.586a.883.883 0 0 1-.882-.88.883.883 0 0 1 1.763 0c0 .484-.396.88-.881.88m0-1.432a.552.552 0 1 0 .55.552.551.551 0 0 0-.55-.552M34.17 40.783a.883.883 0 0 1 0-1.765.883.883 0 0 1 0 1.765m0-1.433a.552.552 0 0 0 0 1.103.552.552 0 0 0 0-1.103m-7.951 1.382a.883.883 0 1 1 .882-.882.883.883 0 0 1-.882.882m0-1.433a.551.551 0 1 0 0 1.103.551.551 0 0 0 0-1.103m7.805-19.705a.883.883 0 0 1 0-1.764.883.883 0 0 1 0 1.764m0-1.432a.551.551 0 1 0 .002 1.102.551.551 0 0 0-.002-1.102m-20.483 7.413a.883.883 0 0 1 0-1.763c.486 0 .882.396.882.882a.883.883 0 0 1-.882.881m0-1.432a.551.551 0 1 0 0 1.103.551.551 0 0 0 0-1.103m26.617-8.157a.882.882 0 0 1 0-1.763.882.882 0 1 1 0 1.763m0-1.432a.551.551 0 1 0 .551.551.552.552 0 0 0-.551-.551m-28.07 21.941a.882.882 0 0 1-.882-.882.883.883 0 1 1 .882.882m0-1.432a.552.552 0 1 0 .55.551.55.55 0 0 0-.55-.551m10.655 8.352a.883.883 0 1 1 .003-1.765.883.883 0 0 1-.003 1.765m0-1.432a.551.551 0 0 0-.551.551.551.551 0 0 0 1.103 0 .552.552 0 0 0-.552-.551m22.065-5.103a.882.882 0 1 1 .002-1.764.882.882 0 0 1-.002 1.764m0-1.432a.551.551 0 1 0 0 1.103.551.551 0 0 0 0-1.103m-25.603-.303a.883.883 0 0 1 0-1.763.883.883 0 0 1 0 1.763m0-1.432a.551.551 0 1 0 0 1.103.551.551 0 0 0 0-1.103m8.435 15.478a.882.882 0 1 1 .002-1.764.882.882 0 0 1-.002 1.764m0-1.432a.551.551 0 1 0 .552.551.552.552 0 0 0-.552-.551"/><path d="M27.507 6.193c-11.71 0-21.236 9.526-21.236 21.235 0 11.43 9.075 20.777 20.397 21.22v-.454C15.67 47.755 6.846 38.731 6.727 27.655h1.247c.122 10.668 8.837 19.311 19.533 19.311 7.417 0 13.88-4.155 17.188-10.261a.711.711 0 0 1-.405-.213 19.222 19.222 0 0 1-6.947 7.283l-.644-1.068c5.175-3.125 8.642-8.804 8.642-15.279 0-4.176-1.443-8.021-3.857-11.064l-.352.284a17.298 17.298 0 0 1 3.667 9.003l-1.244.101c-.841-8.112-7.717-14.458-16.047-14.458a16.06 16.06 0 0 0-10.256 3.688l-.837-.924a17.298 17.298 0 0 1 11.093-4.011c4.641 0 8.863 1.83 11.982 4.805a.71.71 0 0 1 .286-.35 17.855 17.855 0 0 0-2.03-1.668l.701-1.031c4.92 3.455 8.142 9.17 8.142 15.625 0 2.506-.487 4.899-1.369 7.094l.415.187a19.442 19.442 0 0 0 1.408-7.281c0-10.772-8.763-19.535-19.534-19.535a19.43 19.43 0 0 0-11.796 3.976c.121.095.21.226.25.379a18.982 18.982 0 0 1 11.546-3.901c3.904 0 7.538 1.18 10.564 3.201l-.7 1.031a17.737 17.737 0 0 0-9.864-2.984c-9.834 0-17.835 8.001-17.835 17.835 0 2.801.651 5.452 1.806 7.812a.711.711 0 0 1 .36-.297 17.273 17.273 0 0 1-1.713-7.515c0-5.208 2.304-9.888 5.944-13.077l.837.924c-3.389 2.96-5.533 7.31-5.533 12.152 0 6.717 4.125 12.487 9.975 14.914l.164-.423c-5.68-2.36-9.686-7.966-9.686-14.49 0-8.646 7.035-15.681 15.682-15.681l.185.002-.037 1.247a7.303 7.303 0 0 0-.148-.002c-6.772 0-12.467 4.687-14.017 10.987l.051-.003c.143 0 .276.043.388.115 1.499-6.104 7.018-10.646 13.578-10.646 7.708 0 13.981 6.272 13.981 13.981 0 2.825-.843 5.457-2.29 7.658l-1.021-.716a12.648 12.648 0 0 0 1.958-5.319l-.45-.039c-.659 5.085-4.436 9.203-9.345 10.367l-.278-1.216c4.856-1.157 8.478-5.53 8.478-10.735a10.99 10.99 0 0 0-.627-3.665l1.17-.434c.387 1.091.624 2.252.686 3.459a.703.703 0 0 1 .273-.054c.062 0 .123.009.182.025-.349-6.712-5.919-12.065-12.716-12.065-.593 0-1.176.042-1.748.121a.722.722 0 0 1 .045.452 12.414 12.414 0 0 1 1.703-.118c5.174 0 9.612 3.217 11.417 7.756l-1.171.435a11.07 11.07 0 0 0-3.092-4.301.715.715 0 0 1-.325.318 10.56 10.56 0 0 1 3.75 8.072c0 5.835-4.746 10.581-10.58 10.581-2.71 0-5.185-1.024-7.058-2.705l-.318.322a10.984 10.984 0 0 0 7.376 2.836c.722 0 1.428-.07 2.113-.203l.277 1.216c-.624.123-1.264.2-1.917.224l-.005.454c4.108-.148 7.726-2.253 9.948-5.408l1.02.716a14.109 14.109 0 0 1-3.437 3.427l.242.384c3.74-2.611 6.192-6.947 6.192-11.844 0-7.757-6.151-14.104-13.832-14.421l.038-1.246C36.5 12.1 43.19 18.998 43.19 27.43c0 8.647-7.034 15.683-15.68 15.683-1.4 0-2.757-.188-4.049-.534a.708.708 0 0 1-.173.424c1.347.366 2.761.562 4.222.562 8.896 0 16.134-7.238 16.134-16.136 0-.412-.016-.82-.045-1.224l1.243-.101c.033.438.05.88.05 1.326 0 9.585-7.798 17.383-17.381 17.383-6.175 0-11.607-3.236-14.691-8.102l-.39.231c3.164 4.999 8.74 8.325 15.081 8.325 3.198 0 6.202-.847 8.8-2.328l.644 1.068a18.947 18.947 0 0 1-9.444 2.507c-10.522 0-19.082-8.562-19.082-19.084 0-5.401 2.256-10.285 5.875-13.76L14 13.33c-3.661 3.51-5.964 8.426-6.026 13.871H6.727c.123-11.354 9.396-20.554 20.78-20.554 11.459 0 20.782 9.323 20.782 20.782 0 11.007-8.601 20.042-19.433 20.739a.703.703 0 0 1-.06.457c11.112-.669 19.947-9.918 19.947-21.196-.001-11.71-9.528-21.236-21.236-21.236"/><path d="M33.474 40.069a13.907 13.907 0 0 1-5.968 1.341c-2.889 0-5.576-.88-7.807-2.387l.705-1.028a12.653 12.653 0 0 0 5.115 2.011.722.722 0 0 1-.018-.155c0-.107.025-.207.066-.298-4.331-.689-7.916-3.65-9.487-7.622l1.169-.436c.344.863.795 1.673 1.335 2.413a.714.714 0 0 1 .34-.302 10.519 10.519 0 0 1-1.998-6.177c0-5.834 4.746-10.58 10.58-10.58 1.767 0 3.436.437 4.902 1.206l.256-.376a10.966 10.966 0 0 0-5.158-1.283c-6.084 0-11.034 4.95-11.034 11.033 0 1.275.218 2.501.618 3.642l-1.169.435a12.21 12.21 0 0 1-.697-4.077c0-5.38 3.478-9.962 8.303-11.619l-.128-.436c-5.013 1.712-8.628 6.469-8.628 12.055 0 4.232 2.075 7.988 5.261 10.305l-.705 1.028c-3.513-2.542-5.804-6.676-5.804-11.334 0-.381.016-.758.046-1.131l-.451-.05a14.89 14.89 0 0 0-.048 1.182c0 7.959 6.475 14.436 14.434 14.436a14.33 14.33 0 0 0 6.21-1.408.732.732 0 0 1-.24-.388"/><path d="M25.459 18.276h1.088v18.447h-1.088zm2.994 0h1.088v18.447h-1.088z"/><path d="M27.5 35.447c-4.382 0-7.947-3.565-7.947-7.948 0-4.382 3.565-7.947 7.947-7.947s7.947 3.566 7.947 7.947c0 4.382-3.565 7.948-7.947 7.948m0-14.718a6.776 6.776 0 0 0-6.768 6.769c0 3.733 3.037 6.77 6.768 6.77a6.777 6.777 0 0 0 6.769-6.77 6.777 6.777 0 0 0-6.769-6.769"/></g></svg>