<svg xmlns="http://www.w3.org/2000/svg" viewBox="0 0 55 55"><clipPath id="a"><circle cx="27.5" cy="27.5" r="23.3" fill="none"/></clipPath><g clip-path="url(#a)"><path fill="#ee2724" d="m-7.56 4.18 40.6 23.32h29.37v23.32H-7.56l40.6-23.32-40.6-23.32z"/><path fill="#295aa9" d="M-7.56 4.18h69.97V27.5H33.04L-7.56 4.18z"/><path fill="#f1f0f0" d="m33.04 27.5-40.6 23.32V4.18l40.6 23.32z"/><path d="m6.58 17.6.59.54-.28 4.56h.32l.5-4.1.5.46-.74 3.68a4.57 4.57 0 0 1 1.68.69l2.08-3.12h.68l-2.56 3.32.25.21 3-3.43h.8v.8l-3.43 3 .21.25L13.49 22v.68l-3.12 2.07a4.55 4.55 0 0 1 .69 1.68l3.68-.74.46.5-4.1.5v.32l4.56-.28.54.59-.54.59-4.56-.29v.32l4.1.5-.46.5-3.68-.74a4.55 4.55 0 0 1-.69 1.67l3.12 2.08v.68l-3.25-2.54-.21.25 3.43 3v.8h-.8l-3-3.43-.25.21 2.54 3.25h-.68l-2.13-3.08a4.55 4.55 0 0 1-1.68.69l.74 3.68-.5.46-.5-4.1h-.32l.28 4.56-.58.62-.58-.57.28-4.56h-.32l-.5 4.1-.46-.5.74-3.68a4.55 4.55 0 0 1-1.74-.7l-2.06 3.13h-.68l2.54-3.25-.25-.21-3 3.43h-.8v-.8l3.43-3-.21-.25-3.3 2.46v-.68l3.12-2.08a4.56 4.56 0 0 1-.69-1.67l-3.68.74-.46-.5 4.1-.5v-.32l-4.56.29-.54-.59.54-.59L2 27v-.32l-4.1-.5.46-.5 3.68.74a4.59 4.59 0 0 1 .69-1.68l-3.09-2.09v-.68l3.25 2.54.21-.25-3.43-3v-.8h.8l3 3.43.25-.21-2.45-3.3h.68L4 23.48a4.57 4.57 0 0 1 1.68-.69L5 19.11l.5-.46.5 4.1h.32L6 18.14l.59-.54zm19.15 7.28v1.84l1.75.57-1.75.57v1.84l-1.09-1.5-1.75.57L24 27.28l-1.11-1.48 1.75.57 1.08-1.49zM-4.41 41.55l.76 1.68 1.83-.23-1.36 1.24.77 1.68L-4 45l-1.36 1.25.37-1.8-1.6-.91 1.83-.2.37-1.81zm-1-33.24L-4 9.55l1.59-.93-.79 1.68 1.38 1.22-1.83-.19-.74 1.67-.39-1.8-1.83-.2 1.61-.88-.4-1.8z" fill="#fddb38" fill-rule="evenodd"/></g></svg>