<svg xmlns="http://www.w3.org/2000/svg" viewBox="0 0 55 55"><path d="M4.2 27.5a23.319 23.319 0 0 0 12.008 20.378V7.128A23.308 23.308 0 0 0 4.2 27.5z" style="fill:#fff"/><path d="M27.5 4.2a23.094 23.094 0 0 0-11.292 2.928v40.75A23.3 23.3 0 1 0 27.5 4.2z" style="fill:#00401c"/><path d="M37.025 35.378a10.864 10.864 0 0 1-6.639-19.463 11.869 11.869 0 1 0 14.47 16.128 10.832 10.832 0 0 1-7.831 3.335z" style="fill:#fff"/><path style="fill:#fff" d="m43.382 23.94-2.839-.612-1.458 2.515-.298-2.891-2.838-.612 2.655-1.176-.298-2.891 1.939 2.164 2.656-1.176-1.459 2.515 1.94 2.164z"/></svg>