<svg version="1.1" id="Layer_1" xmlns="http://www.w3.org/2000/svg" x="0" y="0" viewBox="0 0 55 55" style="enable-background:new 0 0 55 55" xml:space="preserve"><style>.st1{fill:#fff}</style><path id="Litecoin" d="M27.7 4.2c-13 0-23.5 10.4-23.5 23.3s10.5 23.3 23.5 23.3 23.5-10.4 23.5-23.3S40.7 4.2 27.7 4.2z" style="fill:#2d8efe"/><path class="st1" d="M23.4 31.2V37.6c0 .4-.2.6-.6.6h-4.9c-.4 0-.4-.2-.4-.6V16c0-.4.2-.4.6-.4h8.3c2.8 0 4.9 1.1 6.4 3.5 2.6 3.7 1.1 8.6-1.7 10.8-.9.7-2.1 1.1-3.2 1.3H24c-.5-.2-.6-.2-.6 0zm4.5-8.9c-.2-.7-.8-1.3-1.5-1.3h-2.6c-.2 0-.4 0-.4.4v4.1c0 .4.2.4.4.4h2.6c.8 0 1.3-.4 1.5-1.1.2-.4.2-.9.2-1.3 0-.9 0-1-.2-1.2z"/><path class="st1" d="M26 33.8h13.4c.6 0 .6.2.6.6v3.2c0 .2 0 .4-.4.4H26.1c-.1-1.4-.1-2.7-.1-4.2z"/></svg>