<svg xmlns="http://www.w3.org/2000/svg" viewBox="0 0 55 55"><path d="M49.476 35.267a23.3 23.3 0 0 1-43.953 0z" style="fill:#0738a6"/><path d="M50.8 27.5a23.482 23.482 0 0 1-1.324 7.767H5.523a23.461 23.461 0 0 1 0-15.534h43.953A23.5 23.5 0 0 1 50.8 27.5z" style="fill:#fff"/><path d="M49.476 19.733H5.523A23.267 23.267 0 0 1 27.311 4.2h.377a23.287 23.287 0 0 1 21.788 15.533z" style="fill:#d42b1e"/><path d="M33.07 25.146a5.932 5.932 0 0 0-1.3-1.924 6.05 6.05 0 0 0-6.631-1.3 6.136 6.136 0 0 0-1.925 1.3 6.011 6.011 0 0 0-1.292 1.924 6.071 6.071 0 0 0 0 4.713 6.045 6.045 0 0 0 1.292 1.919 6.059 6.059 0 0 0 6.637 1.3 5.882 5.882 0 0 0 1.919-1.3 6.055 6.055 0 0 0 1.3-6.632zM27.5 33.29a5.787 5.787 0 1 1 5.78-5.79 5.8 5.8 0 0 1-5.78 5.79z"/><path d="M32.1 25.56a5.02 5.02 0 0 0-1.067-1.59 5.006 5.006 0 0 0-7.066 0 5.119 5.119 0 0 0-1.072 1.59 4.973 4.973 0 0 0 1.072 5.47 4.99 4.99 0 0 0 8.133-5.47zm-4.6 6.83a4.888 4.888 0 1 1 4.885-4.89 4.892 4.892 0 0 1-4.885 4.89z"/><path d="M30.957 26.041a3.7 3.7 0 0 0-.806-1.193 3.741 3.741 0 0 0-4.116-.8 3.765 3.765 0 0 0-2 4.921 3.732 3.732 0 0 0 .806 1.193 3.687 3.687 0 0 0 1.192.8 3.763 3.763 0 0 0 4.922-2 3.8 3.8 0 0 0 .292-1.464 3.755 3.755 0 0 0-.29-1.457zm-3.457 5.11a3.648 3.648 0 1 1 3.645-3.651 3.654 3.654 0 0 1-3.645 3.651z"/><path d="m24.205 29.55-.194.11-.1-.167a.091.091 0 0 1-.011-.079.1.1 0 0 1 .058-.063l.1-.057-.125-.215-.147.084a.139.139 0 0 0-.073.094.178.178 0 0 0 .026.131c-.063-.063-.11-.094-.162-.089a.406.406 0 0 0-.152.063c-.089.052-.136.11-.141.173a.458.458 0 0 0 .078.235l.236.413.732-.418zm-.565.324-.094-.167c-.021-.037-.032-.068-.021-.084s.021-.036.052-.057a.4.4 0 0 1 .094-.037c.026 0 .047.021.073.063l.094.162zM23.7 28.353l-.172.052.131.413-.157.047-.121-.377-.152.048.121.381-.147.047-.125-.4-.178.052.2.638.8-.256zM23.656 28.007l-.22.021-.021-.219a.258.258 0 0 0-.351-.283.318.318 0 0 0-.225.094.357.357 0 0 0-.047.251l.047.466.837-.084zm-.649.058-.016-.168a.178.178 0 0 1 0-.052.038.038 0 0 1 .016-.036c0-.011.016-.016.031-.021a.319.319 0 0 1 .053-.011.291.291 0 0 1 .1 0 .148.148 0 0 1 .031.095l.016.167zM23.64 26.71a.285.285 0 0 0-.22-.115l-.56-.073-.031.251.544.063c.052.005.078.021.089.042a.193.193 0 0 1 0 .109.366.366 0 0 1-.026.126.093.093 0 0 1-.089.026l-.555-.063-.025.246.559.068a.274.274 0 0 0 .225-.042.591.591 0 0 0 .11-.334.654.654 0 0 0-.021-.304zM23.776 25.706a.225.225 0 0 0-.136-.016.145.145 0 0 0-.1.105v-.005a.157.157 0 0 0-.021-.136.255.255 0 0 0-.115-.068.206.206 0 0 0-.193.01.482.482 0 0 0-.11.194l-.168.455.795.293.168-.466a.418.418 0 0 0 .042-.225.218.218 0 0 0-.162-.141zm-.382.256-.058.168-.146-.053.068-.2a.119.119 0 0 1 .036-.053.114.114 0 0 1 .058.006.155.155 0 0 1 .058.041.162.162 0 0 1-.016.091zm.3.1-.063.178-.151-.058.066-.182a.233.233 0 0 1 .041-.078.085.085 0 0 1 .074 0 .084.084 0 0 1 .052.052.143.143 0 0 1-.013.088zM24.2 25.089l-.2.329-.554-.334-.132.209.722.439.33-.544zM23.917 24.425l-.157.193.654.534.157-.194zM25.1 24.221l-.078-.105-.021-.016-.189.168.016.021a.091.091 0 0 1 .037.083.259.259 0 0 1-.079.1c-.062.052-.11.068-.151.047a.382.382 0 0 1-.079-.079l-.089-.1a.2.2 0 0 1-.063-.11c0-.031.021-.063.074-.11a.276.276 0 0 1 .078-.057.094.094 0 0 1 .09.016l.02.026.189-.173-.022-.021a.272.272 0 0 0-.23-.115.749.749 0 0 0-.235.162.654.654 0 0 0-.2.257.263.263 0 0 0 .089.271l.146.163a.282.282 0 0 0 .277.125.746.746 0 0 0 .257-.178c.062-.052.1-.089.12-.11a.238.238 0 0 0 .043-.265zM25.355 23.29l-.329.188.172.868.22-.12-.031-.152.292-.162.115.105.215-.126zm0 .617-.078-.377.277.262zM27.29 23.269l-.025-.173a.49.49 0 0 0-.048-.146.261.261 0 0 0-.078-.089.3.3 0 0 0-.126-.042.623.623 0 0 0-.167.011l-.47.068.125.836.5-.078a.429.429 0 0 0 .157-.042.292.292 0 0 0 .094-.073.3.3 0 0 0 .041-.115.782.782 0 0 0-.003-.157zm-.355.2-.215.036-.068-.45.215-.031a.14.14 0 0 1 .1.011.143.143 0 0 1 .042.1l.026.178c.015.092-.017.144-.1.155zM28.127 23l.016-.183-.669-.042-.058.842.68.047.01-.188-.429-.026.011-.168.4.032.011-.162-.4-.027.011-.151zM28.488 23.551l.162-.622-.235-.068-.215.821.612.157.053-.188zM30.182 23.619l-.387-.256-.465.7.2.141.12-.183.183.12a.329.329 0 0 0 .252.084.4.4 0 0 0 .188-.173.34.34 0 0 0 .068-.24.352.352 0 0 0-.159-.193zm-.093.241a.533.533 0 0 1-.027.052c-.031.042-.052.068-.068.073s-.047 0-.089-.031l-.146-.094.131-.194.141.089a.519.519 0 0 1 .047.037.043.043 0 0 1 .016.031.046.046 0 0 1-.005.037zM30.705 24.038l-.794.4.183.178.136-.068.235.236-.068.141.178.172.4-.789zm-.156.6-.168-.162.345-.178zM31.537 25.063l-.256-.4-.711.45.13.209.189-.12.1.162c.021.037.026.063.016.084a.093.093 0 0 1-.052.057l-.1.063.131.209.016-.01.126-.079a.13.13 0 0 0 .067-.094.145.145 0 0 0-.031-.126c.064.058.116.089.162.084a.4.4 0 0 0 .157-.073.235.235 0 0 0 .131-.178.427.427 0 0 0-.075-.238zm-.214.209a.3.3 0 0 1-.089.047c-.026 0-.053-.021-.073-.063l-.105-.157.193-.125.105.162a.127.127 0 0 1 .026.084.117.117 0 0 1-.057.052z"/><path d="m31.882 25.743-.873.021h-.016v.01l.084.235h.157l.11.314-.121.094.084.235.7-.543zm-.4.47L31.406 26l.382-.016zM32.191 26.961a.625.625 0 0 0-.094-.314.281.281 0 0 0-.277-.088l-.214.026a.294.294 0 0 0-.252.141.771.771 0 0 0-.016.329.636.636 0 0 0 .1.325.365.365 0 0 0 .282.047l.147-.016-.047-.418-.157.015.021.173c-.063 0-.105 0-.121-.021a.249.249 0 0 1-.042-.12.286.286 0 0 1 .011-.147.167.167 0 0 1 .136-.057l.136-.016a.258.258 0 0 1 .146 0c.032.021.047.074.058.157a.452.452 0 0 1 0 .11.08.08 0 0 1-.073.058l.032.251c.119-.016.2-.063.219-.147a.843.843 0 0 0 .005-.288zM31.563 27.85a.076.076 0 0 1 .084-.036l.554.063.026-.246-.559-.063a.3.3 0 0 0-.225.042.651.651 0 0 0-.105.335.571.571 0 0 0 .026.3.254.254 0 0 0 .22.115l.56.063.026-.246-.544-.058c-.052 0-.078-.021-.089-.041a.256.256 0 0 1 0-.11.353.353 0 0 1 .026-.118zM31.307 28.342l-.084.241.121.094-.11.314-.151-.006-.083.241.889.016.126-.356zm.1.654.079-.215.3.23zM31.652 29.749l.141-.246h-.638l-.256-.151-.126.214.257.152.3.57.146-.246-.193-.314h.005z"/><path style="fill:#fdde19" d="m27.494 26.172.298.91h.963l-.78.564.299.916-.78-.565-.774.565.298-.916-.779-.564h.962l.293-.91z"/><path d="M28.817 27.061h-1.009L27.5 26.1l-.313.957h-1.01l.816.6-.314.957.821-.591.816.591-.316-.957zm-1.318.91-.737.533.282-.863-.742-.533h.915l.282-.868.278.868h.91l-.738.533.283.863z"/><path d="M29.3 25.078v.027a.229.229 0 0 0-.021.036.32.32 0 0 0-.047-.1.337.337 0 0 0-.058-.068.749.749 0 0 1-.062-.063.551.551 0 0 1-.084-.157.019.019 0 0 0-.026-.01c-.011 0-.015.015-.015.026a.745.745 0 0 0 .093.167c.026.031.047.052.063.068a.558.558 0 0 1 .053.058.294.294 0 0 1 .041.078.868.868 0 0 0-.261-.225h-.006c0-.005-.01-.005-.015-.01s-.006-.011-.006-.016a1.039 1.039 0 0 0-.052-.178c-.021-.052-.042-.094-.057-.125a.6.6 0 0 1-.027-.063c.006 0 .027-.011.147.052a.617.617 0 0 1 .22.173.688.688 0 0 1 .12.252.436.436 0 0 1 0 .078z" style="fill:#009a3c"/><path d="M30.428 27.694a1.079 1.079 0 0 0 .147-.152.987.987 0 0 0 .151-.382 1.075 1.075 0 0 0 .032-.549.028.028 0 0 0-.026-.016c-.021 0-.037.016-.058.042a.646.646 0 0 1-.136.136.24.24 0 0 0 0-.1.271.271 0 0 0-.005-.027.367.367 0 0 1-.021-.146.048.048 0 0 0 0-.026c0-.026.01-.047-.01-.058s-.037-.026-.126.095a.539.539 0 0 0-.047.078c0-.026 0-.047-.011-.073a.5.5 0 0 1 .021-.126.343.343 0 0 0 .027-.094 1.043 1.043 0 0 0 .037-.4.32.32 0 0 0-.011-.074.536.536 0 0 1-.006-.162c.006-.026.006-.047.011-.068.01-.036.01-.063-.011-.073a.038.038 0 0 0-.02 0 .269.269 0 0 0-.084.126.375.375 0 0 0-.016.183c0 .031.005.063.005.1a.877.877 0 0 1-.021.168v-.173a2.631 2.631 0 0 0-.105-.481l-.037-.1a1.124 1.124 0 0 1-.047-.147v-.021c0-.036-.011-.057-.032-.062a.035.035 0 0 0-.026.01.738.738 0 0 0-.114.319l-.153-.136-.141-.12a.116.116 0 0 0-.015-.084.122.122 0 0 0-.089-.063.136.136 0 0 0-.105.006.047.047 0 0 0-.031.015.364.364 0 0 0-.015-.059.606.606 0 0 0-.355-.46c-.084-.042-.168-.079-.2-.042s-.005.057.021.11a1.26 1.26 0 0 1 .058.12 1.273 1.273 0 0 1 .047.157.538.538 0 0 0-.131-.047 1.038 1.038 0 0 0-.126-.006.218.218 0 0 1-.125-.026.191.191 0 0 1-.094-.068c-.021-.015-.037-.036-.058-.021s-.026.037.011.115a1.188 1.188 0 0 0 .083.168c.032.047.058.094.089.131a1.153 1.153 0 0 1-.141.01c-.063 0-.105-.01-.131-.01s-.057-.011-.068.015 0 .047.094.121a1.51 1.51 0 0 0 .22.136 1.089 1.089 0 0 0 .445.135.127.127 0 0 0 .041.084.145.145 0 0 0 .115.047h.011a.119.119 0 0 0 .1-.052.08.08 0 0 0 .021-.037.347.347 0 0 1 .042.047.051.051 0 0 1 .021.027h-.016a.075.075 0 0 0-.01.031.784.784 0 0 0-.016.163.557.557 0 0 0 .037.136c0-.006-.016-.006-.021-.011l-.021-.005c-.079-.037-.115-.052-.136-.026s0 .036.01.057a1.592 1.592 0 0 0 .105.157.692.692 0 0 0 .22.225.308.308 0 0 0 .062.026.175.175 0 0 0 .068.016c.016 0 .032.01.058.016a.3.3 0 0 1 .068.026.52.52 0 0 1 .183.115l.037.083c-.042-.036-.095-.073-.126-.052s-.026.058-.016.126c.011.036.016.078.027.13v.1a.1.1 0 0 1-.042-.021.269.269 0 0 1-.068-.068c-.015-.021-.031-.037-.052-.032s-.027.011-.037.027a.517.517 0 0 0-.016.345.51.51 0 0 0 .126.23.867.867 0 0 1 .121.183.783.783 0 0 1 .078.214.2.2 0 0 0-.078.021.266.266 0 0 0-.058.058.048.048 0 0 0-.021-.011c-.037-.026-.074-.047-.084-.089a.13.13 0 0 1 0-.041c0-.026 0-.053-.026-.058s-.042.016-.063.047h-.005a.513.513 0 0 1-.063.079.274.274 0 0 0-.037.041.294.294 0 0 0 0 .178.917.917 0 0 1 .01.168.282.282 0 0 1-.037.115.281.281 0 0 0-.026.12.346.346 0 0 0 .031.141.5.5 0 0 1 .052.157h.006v.058a.153.153 0 0 0-.031.047.226.226 0 0 0-.016.037v-.016c-.042-.152-.074-.147-.089-.147s-.021.027-.026.042a.341.341 0 0 1-.016.042.231.231 0 0 1-.089.089.243.243 0 0 1-.037.021 1.492 1.492 0 0 0-.157.131.133.133 0 0 0-.01-.115c-.063-.058-.215.015-.3.089a.589.589 0 0 0-.13.167 1.08 1.08 0 0 0-.058.105.414.414 0 0 1-.125.188.25.25 0 0 0-.058.078.33.33 0 0 0-.042.162.2.2 0 0 1-.036.121c-.01.021-.037.036-.183.094-.058.026-.116.047-.173.068a.327.327 0 0 1-.042-.021.913.913 0 0 0-.225-.079.622.622 0 0 0-.261.053 1.31 1.31 0 0 1-.12-.068 5.078 5.078 0 0 1-.32-.2 1.352 1.352 0 0 1-.329-.282 1.642 1.642 0 0 1-.131-.2 1.178 1.178 0 0 0-.22-.3.969.969 0 0 0-.12-.11c-.057-.047-.089-.058-.11-.042s0 .073.063.193a2.194 2.194 0 0 0 .136.23c.026.037.052.079.079.126a1.284 1.284 0 0 1 .13.246.918.918 0 0 1-.423-.372 1.318 1.318 0 0 1-.178-.554 2.117 2.117 0 0 1-.037-.3 1.012 1.012 0 0 0-.068-.377c-.026-.073-.146-.34-.219-.314-.016.006-.021.016-.027.032-.01-.021-.021-.032-.041-.032a.049.049 0 0 0-.042.032.882.882 0 0 1 .042-.178c.01-.037.02-.068.026-.094a.936.936 0 0 0 .063-.356.591.591 0 0 0-.058-.277c-.011-.011-.016-.011-.016-.011-.026 0-.031.027-.031.068a1.322 1.322 0 0 1-.026.142.509.509 0 0 1-.084.167.562.562 0 0 0-.046.089.993.993 0 0 0-.085.6c.011.047.016.089.026.126a1.176 1.176 0 0 1-.125-.434 1.1 1.1 0 0 1 .11-.534 1.708 1.708 0 0 1 .47-.591c.079-.068.152-.136.22-.188.131-.105.173-.141.152-.173s-.042-.031-.225.047a1.386 1.386 0 0 0-.413.278l-.021.026a1.125 1.125 0 0 1 .3-.3 2.905 2.905 0 0 1 .251-.152 4.72 4.72 0 0 1 .162-.079.755.755 0 0 0 .152-.088.51.51 0 0 0 .188-.32.043.043 0 0 0-.01-.026c-.021-.01-.032.006-.047.032a.564.564 0 0 1-.293.235.27.27 0 0 1-.058 0 .661.661 0 0 0-.094.006.058.058 0 0 1-.026.005.5.5 0 0 0-.309.12.405.405 0 0 0-.089.131 2.282 2.282 0 0 1-.13.2l.047-.079a2.575 2.575 0 0 1 .2-.308.486.486 0 0 1 .157-.105 1.123 1.123 0 0 0 .131-.068 2.569 2.569 0 0 0 .507-.408 1.577 1.577 0 0 0 .152-.167 1.642 1.642 0 0 1 .152-.162l.01-.006c.037-.036.063-.062.047-.083 0-.006-.005-.011-.021-.016a1.327 1.327 0 0 0-.5.2 2.092 2.092 0 0 0-.429.345.669.669 0 0 0-.062.073.493.493 0 0 1 .01-.084.362.362 0 0 1 .026-.089l.068-.188a.162.162 0 0 0 .021-.047.8.8 0 0 1 .089-.209.468.468 0 0 1 .063-.079c.01-.015.021-.031.01-.047a.031.031 0 0 0-.036 0c-.084.032-.5.3-.523.638v.084a.576.576 0 0 1-.032.235.356.356 0 0 1-.057.105c-.016.026-.037.058-.058.1a1.918 1.918 0 0 0-.136.335c0 .021-.01.037-.015.058 0-.042.015-.084.02-.115.011-.074.021-.131.032-.23a1.252 1.252 0 0 0 0-.231.363.363 0 0 1 .016-.125.469.469 0 0 1 .1-.173.851.851 0 0 0 .126-.2 1 1 0 0 0 .109-.381.011.011 0 0 0-.01-.011s0-.005-.01-.005-.021.016-.021.026a.758.758 0 0 1-.037.089.367.367 0 0 0-.026.052.958.958 0 0 1-.147.178 1.461 1.461 0 0 0-.3.455.626.626 0 0 0-.047.225 2.3 2.3 0 0 1-.031.246.067.067 0 0 1 0 .031.929.929 0 0 0-.1-.444s-.021-.037-.042-.068c-.041-.063-.052-.079-.073-.068s-.01.031 0 .052a1.224 1.224 0 0 1 .025.528.954.954 0 0 1-.063.262.713.713 0 0 0-.041.23 1.663 1.663 0 0 0 .036.408c0 .01 0 .021.011.031-.021-.042-.032-.084-.047-.115a.459.459 0 0 0-.147-.241 1.816 1.816 0 0 0-.214-.141c-.11-.068-.126-.073-.142-.057-.031.021 0 .068.084.2.068.1.162.251.262.435a2.588 2.588 0 0 1 .177.4 1.95 1.95 0 0 1 .079.246c-.047-.026-.12-.073-.225-.131s-.131-.073-.152-.052.006.042.026.073c.006 0 .011 0 .011.011a.5.5 0 0 1 .078.172c.011.042.027.089.042.131a.974.974 0 0 0 .2.246 2.407 2.407 0 0 1 .288.282 1.209 1.209 0 0 1 .12.162 1.445 1.445 0 0 0 .136.178.588.588 0 0 0 .079.084 1.348 1.348 0 0 0-.194-.11 1.076 1.076 0 0 1-.172-.1 1.431 1.431 0 0 1-.34-.361.026.026 0 0 1-.011-.016c-.037-.052-.052-.078-.078-.068-.006 0-.011.005-.016.016a.916.916 0 0 0 .1.335 1.3 1.3 0 0 0 .492.606.734.734 0 0 0 .162.089 2.731 2.731 0 0 1 .392.183 1.4 1.4 0 0 1 .241.136 1.159 1.159 0 0 1-.67-.125c-.026-.016-.052-.032-.073-.042-.063-.037-.093-.058-.115-.032v.021a.936.936 0 0 0 .3.34c.042.026.084.053.131.079a1.552 1.552 0 0 0 .6.157 1.984 1.984 0 0 0 .257-.006 1.175 1.175 0 0 1 .428.032c.058.021.178.063.21.078l.015.006a.91.91 0 0 1 .105.041c-.11.042-.2.079-.288.115l-.24.084a.114.114 0 0 0-.037.011.267.267 0 0 0-.146.062.068.068 0 0 0-.011.032.067.067 0 0 0 .011.036.228.228 0 0 0 .141.063h.005a.368.368 0 0 0 .073.011.571.571 0 0 0 .189-.042l.031-.016a1.66 1.66 0 0 0 .214-.1 1.207 1.207 0 0 1 .319-.131.547.547 0 0 0 .2.057.366.366 0 0 0 .073-.01.111.111 0 0 0 .042-.026l.079.036.01.006a1.477 1.477 0 0 1 .188.1l.173.094a.628.628 0 0 0 .252.068h.009c.074 0 .126-.026.142-.084a.131.131 0 0 0-.006-.078.145.145 0 0 0-.062-.063l-.157-.078c-.052-.026-.1-.053-.162-.079h.01v-.005a.531.531 0 0 1 .162-.021.646.646 0 0 1 .152.032c.047.01.073.02.094.026a.271.271 0 0 0 .084.015.173.173 0 0 0 .058-.01.4.4 0 0 1 .073-.016.665.665 0 0 1 .094 0H29a.974.974 0 0 0 .251-.026.948.948 0 0 0 .2-.105c.11-.057.126-.078.115-.1s-.031-.021-.063-.016h-.021a.277.277 0 0 1-.067 0 .239.239 0 0 1 .062-.021c.063-.021.105-.037.188-.068a1.09 1.09 0 0 0 .246-.131c.006 0 .142-.11.11-.157-.016-.021-.042-.01-.068 0s-.031.011-.052.016a.381.381 0 0 1-.172 0h-.084a.539.539 0 0 0-.089-.011.475.475 0 0 0 .062-.052.235.235 0 0 0 .058.01.164.164 0 0 0 .157-.2.039.039 0 0 0-.011-.027c.053-.015.1-.026.147-.036l.214-.047a.5.5 0 0 0 .136-.037c.084-.047.147-.152.267-.35s.12-.246.1-.267-.052 0-.151.037l-.011.005c-.031.016-.068.031-.1.047v-.019a.174.174 0 0 0 0-.053.217.217 0 0 1 0-.083.253.253 0 0 1 .047-.068.561.561 0 0 0 .042-.063s.115-.162.068-.209c-.021-.016-.047 0-.079.021a.527.527 0 0 1-.162.073h-.057a.225.225 0 0 0 .083-.052A.158.158 0 0 0 30.4 28a.133.133 0 0 0-.115-.047.148.148 0 0 0-.047 0c.015-.026.026-.052.042-.078a.614.614 0 0 1 .148-.181zm-.015-1.156a.4.4 0 0 1 .062-.068.039.039 0 0 0-.005.026.367.367 0 0 0 .016.162.243.243 0 0 1 0 .026.018.018 0 0 1 0 .011l-.015-.032a.172.172 0 0 0-.053-.052.178.178 0 0 0-.052-.021.249.249 0 0 1 .047-.052zm-.074.094h.011a.1.1 0 0 1 .053.015.175.175 0 0 1 .041.037.191.191 0 0 1 .026.089v.063c-.015.015-.031.026-.052.047a.844.844 0 0 0-.073.068.243.243 0 0 1-.089-.105.229.229 0 0 1-.021-.131.124.124 0 0 1 .026-.057.138.138 0 0 1 .078-.026zm-.068-.413a1.234 1.234 0 0 0 .042-.278.726.726 0 0 0 0-.109.3.3 0 0 1 .016-.163.649.649 0 0 1 .026-.068c0 .016-.005.037-.005.058a.444.444 0 0 0 .005.173.366.366 0 0 1 .01.073 1.062 1.062 0 0 1-.031.382c-.011.041-.021.062-.026.089a.41.41 0 0 0-.026.141.47.47 0 0 0 .01.083.109.109 0 0 0-.052.032.06.06 0 0 0-.021.021.319.319 0 0 1-.021-.136.209.209 0 0 1 0-.058.271.271 0 0 1 .021-.058c.011-.041.031-.093.052-.182zm-.408-.21a1.224 1.224 0 0 1 .079.142c.095.193.078.225.078.225-.021.01-.12-.063-.188-.121a1.717 1.717 0 0 1-.324-.314c-.047-.068-.094-.125-.126-.172a.175.175 0 0 1-.031-.073v-.011H29.377a.7.7 0 0 1 .346.173.648.648 0 0 1 .14.151zm-.026-.1c.006 0 .011 0 .011.01a.005.005 0 0 1 .005.006zm-.271-.664c.031.021.073.057.135.109s.115.1.168.157c-.006.053-.016.1-.021.157-.042-.068-.089-.131-.136-.2a1.068 1.068 0 0 0-.094-.12.02.02 0 0 0-.027 0c-.01.01-.015.021-.005.031.032.042.063.079.094.121.058.078.115.162.163.24a1.062 1.062 0 0 0 0 .126 1.181 1.181 0 0 1-.168-.194.874.874 0 0 1-.13-.261.956.956 0 0 1-.036-.121.106.106 0 0 0 .046-.036.005.005 0 0 0 .011-.013zm-.173-.147a.093.093 0 0 1 .042-.005.1.1 0 0 1 .036.005.091.091 0 0 1 .063.042.085.085 0 0 1 .01.063.1.1 0 0 1-.015.021c-.015.026-.042.026-.053.031a.222.222 0 0 1-.119-.042.068.068 0 0 1-.032-.047c0-.03.036-.061.068-.072zm-.053.183a.1.1 0 0 1 0 .079.078.078 0 0 1-.062.036.079.079 0 0 1-.089-.047.078.078 0 0 1 0-.089.143.143 0 0 1 .031-.026.148.148 0 0 1 .037-.01.022.022 0 0 1 .016.005.1.1 0 0 1 .067.048zm-.439-.57c-.021-.052-.042-.094-.057-.125a.6.6 0 0 1-.027-.063c.006 0 .027-.011.147.052a.564.564 0 0 1 .22.173.573.573 0 0 1 .109.256.2.2 0 0 1 .011.078v.018c0 .016-.016.027-.021.042a.32.32 0 0 0-.047-.1.229.229 0 0 0-.058-.068.37.37 0 0 1-.062-.063.712.712 0 0 1-.084-.157.019.019 0 0 0-.026-.01c-.011 0-.015.015-.015.026a.745.745 0 0 0 .093.167.434.434 0 0 0 .063.068l.057.058a.459.459 0 0 1 .037.078.819.819 0 0 0-.267-.225c0-.005-.01-.005-.015-.01a.019.019 0 0 1-.006-.016.718.718 0 0 0-.053-.183zm-.392.262a.879.879 0 0 1-.094-.194.577.577 0 0 0 .094.068.259.259 0 0 0 .063.021.463.463 0 0 0 .083 0 .841.841 0 0 1 .115.006.68.68 0 0 1 .163.062.034.034 0 0 1 .02.011h.006a.9.9 0 0 1 .266.235.147.147 0 0 0-.062.047l-.011.011a.549.549 0 0 1-.084-.042c-.031-.016-.047-.021-.068-.032a.191.191 0 0 0-.047-.026 1.092 1.092 0 0 0-.156-.068 1.017 1.017 0 0 1-.1-.057.531.531 0 0 1-.115-.121c0-.01-.01-.01-.016-.01h-.01c-.011.01-.016.021-.011.031a.61.61 0 0 0 .126.136.584.584 0 0 0 .11.058c.036.016.084.031.157.068a.376.376 0 0 0 .042.026c.02.01.036.021.068.037l.088.041v.027a.565.565 0 0 1-.13 0 .534.534 0 0 1-.3-.1.341.341 0 0 1-.089-.083h-.006a1.068 1.068 0 0 1-.102-.156zm-.063.261a.935.935 0 0 0 .22.141 1.233 1.233 0 0 0 .261.063.277.277 0 0 0 .064.011l-.017.047a1.056 1.056 0 0 1-.418-.131 1.1 1.1 0 0 1-.288-.194h.016a.637.637 0 0 0 .136.011h.037a.973.973 0 0 0 .136-.011.635.635 0 0 0 .088.084.686.686 0 0 0 .319.105h.058a.4.4 0 0 0 .084-.006c0 .006 0 .011.01.016s0 .011 0 .016a.139.139 0 0 0-.141.026l-.078-.015a1.788 1.788 0 0 1-.257-.068.77.77 0 0 1-.209-.131.017.017 0 0 0-.015-.005.019.019 0 0 0-.016.005c0 .011 0 .027.01.032zm.769.356a.09.09 0 0 1-.073.036.1.1 0 0 1-.089-.031.134.134 0 0 1-.037-.084.1.1 0 0 1 .032-.068.1.1 0 0 1 .062-.026.1.1 0 0 1 .058.016.09.09 0 0 1 .042.036.1.1 0 0 1 .005.117zm.057-.058a.139.139 0 0 0-.026-.083v-.016c0-.005.016.005.026.005h.016a.125.125 0 0 0 .094-.057.12.12 0 0 0 .005-.105.485.485 0 0 0 .089.016.939.939 0 0 0 .037.125 1.1 1.1 0 0 0 .136.277 1.159 1.159 0 0 0 .1.121.743.743 0 0 0-.366-.173l-.031-.047a.809.809 0 0 0-.08-.067zm.482.9a.281.281 0 0 0-.074-.026.3.3 0 0 0-.062-.016.15.15 0 0 1-.063-.016.131.131 0 0 1-.052-.026c-.074-.031-.126-.1-.21-.209a1.421 1.421 0 0 1-.1-.157.836.836 0 0 1 .078.031l.021.011a.343.343 0 0 0 .069.021.665.665 0 0 0 .182.2.374.374 0 0 0 .126.078.368.368 0 0 1 .1.063.792.792 0 0 1 .089.094.657.657 0 0 0-.104-.052zm.2.125a.591.591 0 0 0-.162-.2.507.507 0 0 0-.11-.068.577.577 0 0 1-.114-.074.567.567 0 0 1-.231-.366.2.2 0 0 1 0-.078 1.3 1.3 0 0 0 .141.2 1.71 1.71 0 0 0 .33.324c.105.078.167.131.209.131.011 0 .016-.006.026-.011.026-.021.042-.068-.062-.282a1.3 1.3 0 0 0-.079-.141 1.2 1.2 0 0 1-.01-.3 1.732 1.732 0 0 1 .021-.183 1.266 1.266 0 0 1 .1-.319.02.02 0 0 0 0 .016v.021a1.563 1.563 0 0 0 .047.151l.037.1a2.456 2.456 0 0 1 .1.465 1.48 1.48 0 0 1-.041.5v.011a.261.261 0 0 0-.011.068.441.441 0 0 0 .042.2.286.286 0 0 0 .021.152.3.3 0 0 0 .1.12.818.818 0 0 0-.146.209.635.635 0 0 0-.063.262 1.593 1.593 0 0 1-.02-.162.673.673 0 0 0 .041-.2.69.69 0 0 0-.146-.5zm.021.194a.51.51 0 0 1 .068.35v.084c0 .037.006.073.006.11a2.023 2.023 0 0 0 .042.309.422.422 0 0 0-.011.052.581.581 0 0 0-.041-.126.373.373 0 0 0-.085-.141.19.19 0 0 1-.068-.115.372.372 0 0 1-.01-.167.491.491 0 0 0 .01-.105.636.636 0 0 0 0-.136 2.992 2.992 0 0 0-.017-.131.193.193 0 0 1-.01-.083c.004-.005.062.032.114.095zm-.057.868a.954.954 0 0 0-.126-.188.555.555 0 0 1-.115-.215.446.446 0 0 1 .016-.319l.016.016a.225.225 0 0 0 .073.073.3.3 0 0 0 .068.037.539.539 0 0 0-.011.084.392.392 0 0 0 .006.188.421.421 0 0 0 .073.131.383.383 0 0 1 .083.125.685.685 0 0 1 .058.22l-.031.11c-.006-.006-.011-.011-.016-.011h-.005a.99.99 0 0 0-.091-.255zm-.068.356h.005a.113.113 0 0 1 .047-.063.123.123 0 0 1 .058-.016.037.037 0 0 1 .031.011.071.071 0 0 1 .037.042.148.148 0 0 1 .011.1.08.08 0 0 1-.017.047.075.075 0 0 1-.031.042.11.11 0 0 1-.068-.005.127.127 0 0 1-.073-.084.129.129 0 0 1-.002-.078zm-.314.633a.261.261 0 0 1-.031-.126.2.2 0 0 1 .026-.105.353.353 0 0 0 .031-.125.628.628 0 0 0 0-.178.247.247 0 0 1 0-.152c0-.015.011-.021.021-.031a.741.741 0 0 0 .073-.084.1.1 0 0 1 .016-.021v.011a.21.21 0 0 0 .01.047.218.218 0 0 0 .1.115s.01.005.015.005a.646.646 0 0 0-.057.115.818.818 0 0 0-.031.345 1.2 1.2 0 0 0 .016.126.512.512 0 0 1 0 .126.422.422 0 0 1-.02.1h-.032a.115.115 0 0 0-.078.032c-.006-.016-.006-.027-.011-.037v-.005a.665.665 0 0 0-.05-.166zm.026.3a.162.162 0 0 1 .12-.089h.006a.1.1 0 0 1 .031 0 .056.056 0 0 1 .037.021c.031.042-.027.131-.047.167-.053.084-.116.142-.141.131s-.016-.01-.027-.031a.243.243 0 0 1-.005-.026.268.268 0 0 0 0-.063.309.309 0 0 1 .024-.111zm-.492.251c.016-.016.032-.026.048-.042.088-.078.156-.125.156-.131a.107.107 0 0 0 .037-.021c.052-.036.084-.057.1-.1a.089.089 0 0 0 .015-.042.331.331 0 0 1 .037.1.537.537 0 0 1 .026.1.229.229 0 0 0 .005.063.584.584 0 0 1-.141.324.551.551 0 0 1-.094.094.743.743 0 0 1-.063.063c-.021.026-.042.047-.068.079a.148.148 0 0 1-.021.026.4.4 0 0 1-.073.089 1.073 1.073 0 0 1-.084.078 2.225 2.225 0 0 0-.335.068.538.538 0 0 0 .131-.12.294.294 0 0 0 .052-.11.617.617 0 0 1 .079-.152c.021-.026.036-.042.047-.057a.56.56 0 0 0 .052-.068.883.883 0 0 0 .094-.225zm-3.6-1.376a.178.178 0 0 1 .032-.073c.01 0 .02.026.037.094s.036.157.057.236a2.789 2.789 0 0 1 .015.293 1.445 1.445 0 0 1-.01.156.507.507 0 0 0 .026.278.591.591 0 0 0 .021.057c-.021-.026-.042-.063-.063-.094a1.176 1.176 0 0 1-.146-.471 2.143 2.143 0 0 1-.011-.324c.016-.053.027-.106.042-.153zm-.68-.355a3.077 3.077 0 0 0-.183-.408 3.863 3.863 0 0 0-.261-.445 1.256 1.256 0 0 1-.079-.125c.021.015.058.036.073.047h.006c.12.078.183.115.209.136.068.052.084.1.136.225.021.057.047.12.084.209.005.021.015.037.021.057a1.407 1.407 0 0 0 .073.157c.031.079.062.152.1.23 0 .006.011.011.016.011h.01a.025.025 0 0 0 .011-.031 2.551 2.551 0 0 1-.2-.576 1.57 1.57 0 0 1-.043-.4.593.593 0 0 1 .047-.215 1.092 1.092 0 0 0 .068-.272 1.557 1.557 0 0 0-.01-.46.17.17 0 0 1 .021.031 1.11 1.11 0 0 1 .094.571 2.232 2.232 0 0 1-.021.3 1.092 1.092 0 0 0 0 .324 1.569 1.569 0 0 0 .068.272.019.019 0 0 0 .026.011c.011 0 .016-.016.011-.027a1.84 1.84 0 0 1-.063-.261 1.013 1.013 0 0 1 .005-.314 2.376 2.376 0 0 0 .016-.24c.021-.079.031-.163.047-.241a2.188 2.188 0 0 0 .031-.251.654.654 0 0 1 .047-.209 1.492 1.492 0 0 1 .288-.44 1.247 1.247 0 0 0 .141-.172c-.021.052-.041.115-.068.178a1.06 1.06 0 0 1-.125.193.676.676 0 0 0-.105.188.33.33 0 0 0-.016.136 1.252 1.252 0 0 1 0 .231c-.01.088-.021.151-.031.219s-.027.162-.047.309c-.006.063-.01.12-.016.162-.005.063-.005.084.016.084s.021-.006.026-.063a3.682 3.682 0 0 1 .094-.413 1.662 1.662 0 0 1 .131-.325c.021-.041.042-.073.057-.1a.4.4 0 0 0 .058-.11.532.532 0 0 0 .037-.256v-.073a.868.868 0 0 1 .423-.565c0 .005-.01.016-.016.021a1.471 1.471 0 0 0-.093.219.424.424 0 0 0-.016.053c-.036.094-.058.151-.068.183a.265.265 0 0 0-.032.1.676.676 0 0 0-.015.141 3.258 3.258 0 0 0-.225.325.024.024 0 0 0 .01.031c.011 0 .021 0 .026-.005a2.824 2.824 0 0 1 .225-.33 1.146 1.146 0 0 1 .105-.115 1.828 1.828 0 0 1 .418-.34 1.707 1.707 0 0 1 .45-.193c-.011 0-.016.015-.026.026h-.005a1.3 1.3 0 0 0-.157.167c-.037.042-.068.084-.147.163a2.441 2.441 0 0 1-.5.4c-.052.032-.093.047-.125.068a.514.514 0 0 0-.168.11 1.82 1.82 0 0 0-.209.314c-.042.073-.073.125-.094.167-.037.058-.047.084-.026.1s.042-.006.073-.047a.756.756 0 0 1 .068-.089c.068-.094.105-.157.136-.2a.537.537 0 0 1 .078-.121.5.5 0 0 1 .288-.109c.011 0 .016-.006.021-.006a.768.768 0 0 1 .089 0 .173.173 0 0 0 .068-.01.484.484 0 0 0 .277-.189.57.57 0 0 1-.146.194.656.656 0 0 1-.142.089.9.9 0 0 0-.162.078 3.011 3.011 0 0 0-.261.152 1.438 1.438 0 0 0-.508.7.019.019 0 0 0 .011.02h.005c.016 0 .021-.01.026-.02a1.229 1.229 0 0 1 .246-.356 1.267 1.267 0 0 1 .4-.272.933.933 0 0 1 .162-.058 1.505 1.505 0 0 1-.131.115 3.486 3.486 0 0 0-.224.189 1.8 1.8 0 0 0-.482.606 1.211 1.211 0 0 0-.11.555.988.988 0 0 0 .22.57.033.033 0 0 0 .021.005c.01-.005.015-.01.015-.021a.089.089 0 0 0-.015-.042 1.177 1.177 0 0 1-.058-.214.942.942 0 0 1 .079-.57.573.573 0 0 1 .047-.084A.692.692 0 0 0 25.5 27a.44.44 0 0 0 .02-.131.884.884 0 0 1 .027.2.979.979 0 0 1-.058.34c-.01.031-.021.063-.031.1a1.869 1.869 0 0 0-.073.419v.167c0 .052 0 .115.01.168a1.676 1.676 0 0 0 .063.292l-.063-.078a1.042 1.042 0 0 1-.11-.22 2.182 2.182 0 0 0-.078-.172 1.13 1.13 0 0 0-.272-.34c-.006 0-.006 0-.058-.032a3.38 3.38 0 0 0-.087-.286zm1.847 3.033h-.006a.226.226 0 0 1-.115-.047v-.01a.886.886 0 0 1 .126-.006c.115 0 .146.011.172.027a.1.1 0 0 1 .026.015.3.3 0 0 1-.203.02zm.475-.141c-.068.037-.136.068-.2.1-.009 0-.015.006-.026.006a.164.164 0 0 0-.052-.037.359.359 0 0 0-.193-.031h-.032c.011 0 .021-.006.032-.006a.207.207 0 0 1 .036-.01c.079-.026.157-.058.246-.089s.2-.078.324-.131c.032.011.058.026.084.037a.476.476 0 0 0 .052.031s0 .005.016.005a2.036 2.036 0 0 0-.287.124zm.628-.105a.073.073 0 0 1-.031.016.349.349 0 0 1-.246-.047.38.38 0 0 1-.068-.037c-.016-.01-.032-.015-.052-.026s-.058-.026-.089-.042a1.6 1.6 0 0 0-.152-.057l-.016-.011c-.031-.01-.151-.057-.214-.078a.945.945 0 0 0-.267-.037c-.057 0-.115.006-.172.011-.084.005-.168.005-.252.005a1.446 1.446 0 0 1-.58-.157 1.389 1.389 0 0 1-.126-.078 1.12 1.12 0 0 1-.277-.283.242.242 0 0 1 .047.026c.021.011.047.027.079.042a1.186 1.186 0 0 0 .706.126.034.034 0 0 0 .026-.032c.01-.02-.016-.036-.042-.057a1.865 1.865 0 0 0-.225-.126c-.214-.109-.324-.151-.392-.183a1.2 1.2 0 0 1-.162-.078 1.314 1.314 0 0 1-.476-.591 1.725 1.725 0 0 1-.089-.256s0 .01.01.01.006.011.011.016a1.348 1.348 0 0 0 .356.371.891.891 0 0 0 .178.11 1.4 1.4 0 0 1 .25.152.55.55 0 0 1 .068.052c.068.052.084.063.1.042s0-.037-.016-.042l-.042-.042c-.046-.047-.12-.115-.2-.2a1.942 1.942 0 0 1-.131-.178c-.042-.052-.079-.11-.121-.162a2.563 2.563 0 0 0-.292-.288.773.773 0 0 1-.2-.235c-.016-.037-.026-.078-.042-.12a.549.549 0 0 0-.078-.188.006.006 0 0 1-.006-.006.7.7 0 0 1 .068.037c.142.084.221.131.262.157s.057.031.057.036a.992.992 0 0 1 .268.325c.036.068.057.12.078.167a.827.827 0 0 0 .115.225 1.121 1.121 0 0 0 .141.173c.015.02.026.052.042.078a.843.843 0 0 0 .313.329c.006.006.011 0 .016 0a.018.018 0 0 0 0-.015c0-.011 0-.016-.021-.027a.728.728 0 0 1-.193-.277.55.55 0 0 1-.026-.261 1.479 1.479 0 0 0 .01-.162 2.993 2.993 0 0 0-.015-.3c-.011-.094-.027-.167-.037-.219s-.016-.084-.016-.1a.787.787 0 0 1 .163.283 1.129 1.129 0 0 1 .073.361 2.618 2.618 0 0 0 .032.308 1.4 1.4 0 0 0 .182.57.968.968 0 0 0 .45.387.04.04 0 0 0 .042-.01c.031-.026-.011-.105-.126-.3l-.078-.126a2.62 2.62 0 0 1-.136-.219.6.6 0 0 1-.063-.136.864.864 0 0 1 .162.141 1.2 1.2 0 0 1 .215.293 1.567 1.567 0 0 0 .136.2 1.226 1.226 0 0 0 .339.287 3.375 3.375 0 0 0 .319.2c.048.032.089.053.127.079s.083.036.119.057a.561.561 0 0 1 .079.037l.042.016c.005 0 .015 0 .021.01a.107.107 0 0 1 .052.026c0 .005.01.011 0 .016zm.837.2a.061.061 0 0 1 0 .042c-.016.047-.073.052-.105.052a.586.586 0 0 1-.214-.052.1.1 0 0 1 .042-.031.267.267 0 0 1 .177-.032.357.357 0 0 1 .1.019zm-.2-.125c.047.021.094.047.136.068-.01 0-.021-.006-.031-.006a.348.348 0 0 0-.2.032.481.481 0 0 0-.063.052c-.052-.026-.1-.057-.152-.084a2.115 2.115 0 0 0-.188-.1h-.016c-.026-.011-.052-.021-.072-.032a.063.063 0 0 0-.027-.052.162.162 0 0 0-.063-.037c0-.005-.015-.005-.021-.01s-.026-.011-.042-.016l-.078-.031c-.021-.011-.047-.026-.073-.037a.418.418 0 0 1 .209-.036.489.489 0 0 1 .209.073l.052.015a.006.006 0 0 0 .006.006c.062.031.13.062.2.1.074.025.148.056.215.093zm1.1-.314h.023c-.015.01-.036.021-.073.042a1.14 1.14 0 0 1-.188.1.894.894 0 0 1-.241.026h-.031a.726.726 0 0 0-.1.005c-.042.006-.063.016-.079.016a.139.139 0 0 1-.12 0c-.026 0-.053-.016-.1-.026a.664.664 0 0 0-.157-.032.453.453 0 0 0-.177.026l-.058.016c-.052-.031-.1-.052-.157-.078.047-.011.089-.032.137-.047.157-.063.182-.084.2-.11a.21.21 0 0 0 .042-.141.312.312 0 0 1 .037-.152.485.485 0 0 1 .047-.063.4.4 0 0 0 .089-.1.977.977 0 0 0 .052-.1.362.362 0 0 1 .053-.1.587.587 0 0 1 .12-.157c.089-.073.214-.115.246-.089.015.016 0 .068-.016.141l-.006.026a.878.878 0 0 1-.088.215.485.485 0 0 1-.047.063.4.4 0 0 0-.048.062.574.574 0 0 0-.083.157.362.362 0 0 1-.053.1.429.429 0 0 1-.188.146c-.031.016-.052.031-.042.052s.032.021.115-.005a3.062 3.062 0 0 1 .361-.073h.011c.052-.005.089-.011.12-.011a.256.256 0 0 1 .115.011c.037.01.063.026.094.037.016 0 .026.015.042.02a.29.29 0 0 0 .147.021zm.157-.377a.813.813 0 0 0 .084.011.29.29 0 0 0 .063 0 .355.355 0 0 0 .125 0 .27.27 0 0 1 .058-.016l-.016.016-.042.042c-.01.01-.015.02-.025.026a.755.755 0 0 1-.241.12c-.079.031-.121.052-.178.073l-.121.032-.031-.016a.589.589 0 0 0-.1-.042.129.129 0 0 0-.042-.01.1.1 0 0 0 .021-.016h.011a.25.25 0 0 1 .109-.052.363.363 0 0 1 .136 0h.058a.465.465 0 0 0 .282-.084.024.024 0 0 0 .01-.031.027.027 0 0 0-.02-.011c-.006 0-.006 0-.011.006a.433.433 0 0 1-.256.078l-.058-.005a.441.441 0 0 0-.146 0 .462.462 0 0 0-.131.057 1 1 0 0 1-.094.053h-.053a.324.324 0 0 0 .042-.037l.079-.094a.237.237 0 0 1 .021-.026c.021-.026.037-.047.057-.068a1.154 1.154 0 0 1 .194-.016c.089.003.193.011.214.011zm.079-.141a.121.121 0 0 1-.105 0 .1.1 0 0 1-.057-.079.117.117 0 0 1 .068-.136.123.123 0 0 1 .041-.01.15.15 0 0 1 .1.047.017.017 0 0 1 0 .01c.011.006.016.016.021.037a.122.122 0 0 1-.069.129zm.706-.779c.037-.011.073-.032.115-.047l.01-.006a.843.843 0 0 0 .105-.047c0 .016-.01.068-.105.21a.985.985 0 0 1-.256.34.537.537 0 0 1-.12.031c-.042.01-.11.026-.209.047-.058.01-.11.026-.168.037l-.021-.021a.594.594 0 0 1 .126-.063.368.368 0 0 1 .12-.016.486.486 0 0 0 .136-.015.55.55 0 0 0 .329-.34.02.02 0 0 0-.01-.027.025.025 0 0 0-.031.011.444.444 0 0 1-.079.146.469.469 0 0 1-.22.168.2.2 0 0 1-.12.015.492.492 0 0 0-.141.016.633.633 0 0 0-.141.073.2.2 0 0 1 .042-.057.179.179 0 0 1 .094-.063c.021-.01.052-.021.094-.042.157-.078.387-.193.444-.34zm-.079-.387a.433.433 0 0 0 .178-.084c.011 0 .021 0 .026-.01a.4.4 0 0 1-.068.146.263.263 0 0 1-.047.058.162.162 0 0 0-.047.078.273.273 0 0 0-.01.1.148.148 0 0 1 .005.047c-.01.151-.277.282-.434.355a1.467 1.467 0 0 1-.089.047.247.247 0 0 0-.115.074.254.254 0 0 0-.047.083.135.135 0 0 0-.079.006h-.01a.156.156 0 0 0-.094.183.134.134 0 0 0 .063.094.38.38 0 0 1-.1.073h-.204s.016-.01.021-.015a.551.551 0 0 0 .094-.1.593.593 0 0 0 .142-.277.085.085 0 0 0 .031.021.023.023 0 0 0 .016 0 .1.1 0 0 0 .036-.01.446.446 0 0 0 .136-.147c.032-.047.094-.146.047-.209a.134.134 0 0 0-.042-.036.805.805 0 0 0 .027-.115.53.53 0 0 0-.011-.131c0-.032-.01-.068-.016-.126a.737.737 0 0 1 .032-.324.135.135 0 0 1 .021-.052.05.05 0 0 0 .005.026.181.181 0 0 0 .094.1c0 .063 0 .136-.01.2a1.546 1.546 0 0 1-.068.293c-.021.052-.027.079-.006.089s.037-.01.064-.047a.662.662 0 0 1 .067-.089.609.609 0 0 1 .073-.078.284.284 0 0 0 .053-.058.646.646 0 0 0 .068-.115.093.093 0 0 1 .041-.058.071.071 0 0 1 .064-.01.727.727 0 0 0 .092.016zm-.057-.3c.047 0 .068.015.078.031.032.037.011.11-.026.152a.141.141 0 0 1-.12.031.084.084 0 0 1-.063-.052.123.123 0 0 1 .026-.11l.032-.031a.143.143 0 0 1 .072-.021zm-.1-.011a.269.269 0 0 0-.036.037.14.14 0 0 0-.031.151.121.121 0 0 0 .083.079c-.011 0-.021 0-.031.016a.144.144 0 0 0-.063.084.538.538 0 0 1-.058.1.229.229 0 0 1-.047.052.522.522 0 0 0-.078.079c-.021.021-.032.041-.047.057a1.209 1.209 0 0 0 .063-.267 1.148 1.148 0 0 0 .01-.188h.021a.1.1 0 0 0 .042-.01.145.145 0 0 0 .073-.115.2.2 0 0 0-.016-.136c0-.006 0-.006-.005-.011s.005-.01.005-.021c0 .032.016.053.037.058h.01c.042 0 .079-.073.137-.209a.888.888 0 0 0 .072-.194.317.317 0 0 1 .048-.12.682.682 0 0 1 .1-.121.366.366 0 0 0 .105-.135.485.485 0 0 0 .047-.215.023.023 0 0 0-.021-.021.023.023 0 0 0-.021.021.449.449 0 0 1-.042.194.311.311 0 0 1-.094.125.483.483 0 0 0-.11.131.376.376 0 0 0-.052.131 1.244 1.244 0 0 1-.068.188.822.822 0 0 1-.1.183.249.249 0 0 1-.005-.068v-.078a.838.838 0 0 0 .031-.152c.011-.063.016-.11.021-.152a.686.686 0 0 1 .058-.246.932.932 0 0 1 .24-.3.481.481 0 0 1 .1-.089.517.517 0 0 0 .156-.162h.006l.015-.016a1.285 1.285 0 0 1-.041.508.9.9 0 0 1-.147.366.778.778 0 0 1-.135.146.776.776 0 0 0-.168.194.642.642 0 0 0-.065.126z"/><path d="M30.726 26.642a1.349 1.349 0 0 1-.036.508.983.983 0 0 1-.152.366 1.431 1.431 0 0 1-.135.146.678.678 0 0 0-.163.194.668.668 0 0 0-.058.125.269.269 0 0 0-.036.037.141.141 0 0 0-.031.151.121.121 0 0 0 .083.079.077.077 0 0 0-.041.016.152.152 0 0 0-.063.078.33.33 0 0 1-.058.105.54.54 0 0 1-.047.052.522.522 0 0 0-.078.079.754.754 0 0 1-.047.057 1.209 1.209 0 0 0 .063-.267 1.179 1.179 0 0 0 .01-.193.033.033 0 0 0 .021 0 .1.1 0 0 0 .042-.01.145.145 0 0 0 .073-.11.209.209 0 0 0-.016-.141c0-.006 0-.006-.005-.011a.019.019 0 0 0 .005-.016c0 .032.016.048.037.053h.01c.042 0 .079-.073.137-.209a1.281 1.281 0 0 0 .072-.194.317.317 0 0 1 .048-.12.682.682 0 0 1 .1-.121.375.375 0 0 0 .105-.135.5.5 0 0 0 .047-.215.023.023 0 0 0-.021-.021.023.023 0 0 0-.021.021.489.489 0 0 1-.042.2.283.283 0 0 1-.094.12.744.744 0 0 0-.11.131.376.376 0 0 0-.052.131 1.244 1.244 0 0 1-.068.188.658.658 0 0 1-.1.183.249.249 0 0 1-.005-.068v-.078a.838.838 0 0 0 .031-.152c.011-.063.016-.11.021-.152a.514.514 0 0 1 .058-.246 1.023 1.023 0 0 1 .24-.3.968.968 0 0 1 .1-.084.578.578 0 0 0 .156-.162h.006zM30.648 28.583a.693.693 0 0 1-.105.2.934.934 0 0 1-.256.34.345.345 0 0 1-.12.031c-.042.01-.11.026-.209.047-.058.01-.11.026-.168.037-.01-.006-.015-.016-.026-.021a.594.594 0 0 1 .126-.063.351.351 0 0 1 .12-.016.271.271 0 0 0 .136-.015.55.55 0 0 0 .329-.34.02.02 0 0 0-.01-.027.025.025 0 0 0-.031.011.444.444 0 0 1-.079.146.469.469 0 0 1-.22.168.278.278 0 0 1-.125.015.422.422 0 0 0-.13.016.466.466 0 0 0-.142.073.126.126 0 0 1 .037-.057.179.179 0 0 1 .094-.063c.021-.01.052-.021.094-.042.157-.078.387-.193.444-.34l.011-.005a1.163 1.163 0 0 1 .12-.052v-.006a.757.757 0 0 1 .11-.037zM30.491 26.684v.011l-.015-.032a.26.26 0 0 0-.053-.052.178.178 0 0 0-.052-.021.249.249 0 0 1 .037-.052.571.571 0 0 1 .057-.074v.036a.377.377 0 0 0 .016.162.048.048 0 0 1 .01.022zM30.47 26.773v.063a.433.433 0 0 0-.052.047.844.844 0 0 0-.073.068.214.214 0 0 1-.089-.105.268.268 0 0 1-.021-.131.089.089 0 0 1 .026-.052.114.114 0 0 1 .078-.031.121.121 0 0 1 .064.015.175.175 0 0 1 .041.037.191.191 0 0 1 .026.089z" style="fill:#009a3c"/><path d="M30.36 28.023c.032.037.011.11-.026.152a.156.156 0 0 1-.12.036.114.114 0 0 1-.063-.057.123.123 0 0 1 .026-.11.273.273 0 0 1 .037-.031.112.112 0 0 1 .068-.021c.047 0 .068.015.078.031zM30.36 25.905a1.062 1.062 0 0 1-.031.382c-.011.036-.021.068-.026.089a.41.41 0 0 0-.026.141.419.419 0 0 0 .01.083.109.109 0 0 0-.052.032.06.06 0 0 0-.021.021.422.422 0 0 1-.021-.136v-.063a.251.251 0 0 1 .016-.058c.011-.036.031-.088.052-.177a1.188 1.188 0 0 0 .042-.278v-.109a.3.3 0 0 1 .016-.163.282.282 0 0 1 .031-.068.2.2 0 0 0-.01.058.6.6 0 0 0 .005.173.322.322 0 0 1 .015.073z" style="fill:#009a3c"/><path d="M30.35 28.358c0 .01 0 .026-.011.026a.25.25 0 0 0-.162.115.084.084 0 0 0-.015.057.379.379 0 0 1-.021.084c-.016.047-.037.068-.152.194-.042.042-.084.083-.126.13 0 0-.01.006-.015.006s-.011-.006-.016-.006a.033.033 0 0 1 0-.031c.042-.042.084-.089.126-.131.109-.115.131-.141.146-.178a.657.657 0 0 0 .016-.068.154.154 0 0 1 .015-.078.314.314 0 0 1 .189-.136c.01 0 .026.005.026.016z"/><path d="M30.214 26.862a.286.286 0 0 1-.021-.152.441.441 0 0 1-.042-.2.261.261 0 0 1 .011-.068v-.011a1.48 1.48 0 0 0 .041-.5 2.456 2.456 0 0 0-.1-.465l-.037-.1a1.563 1.563 0 0 1-.047-.151V25.2a.02.02 0 0 1 0-.016 1.266 1.266 0 0 0-.1.319 1.732 1.732 0 0 0-.021.183 1.2 1.2 0 0 0 .01.3 1.3 1.3 0 0 1 .079.141c.1.214.088.261.062.282-.01.005-.015.011-.026.011-.042 0-.1-.053-.209-.131a1.71 1.71 0 0 1-.33-.324 1.3 1.3 0 0 1-.141-.2.2.2 0 0 0 0 .078.567.567 0 0 0 .231.366.577.577 0 0 0 .114.074.507.507 0 0 1 .11.068.591.591 0 0 1 .162.2l.032.032a.69.69 0 0 1 .146.5.673.673 0 0 1-.041.2 1.593 1.593 0 0 0 .02.162.635.635 0 0 1 .063-.262.818.818 0 0 1 .146-.209.3.3 0 0 1-.112-.112zm-.115-.549a.023.023 0 0 1-.021-.021.8.8 0 0 1-.021-.115.748.748 0 0 1-.02-.084.644.644 0 0 1-.022-.12.374.374 0 0 1-.015-.152.232.232 0 0 1 .016-.057.124.124 0 0 0 0-.042.306.306 0 0 0 0-.1c0-.015 0-.036-.01-.057a.761.761 0 0 1-.016-.157.023.023 0 0 1 .021-.021.023.023 0 0 1 .021.021c0 .047.006.1.01.146l.016.058a.406.406 0 0 1 .005.11.162.162 0 0 1-.01.057.091.091 0 0 0-.011.047.4.4 0 0 0 .011.136c.01.053.021.084.026.121s.011.052.021.089.016.073.021.115a.026.026 0 0 1-.021.026z" style="fill:#009a3c"/><path d="M30.12 26.287a.019.019 0 0 1-.021.021c-.01 0-.021-.006-.021-.016a.8.8 0 0 1-.021-.115 1.141 1.141 0 0 1-.02-.084c-.006-.037-.017-.073-.022-.12a.374.374 0 0 1-.015-.152.356.356 0 0 1 .011-.057.2.2 0 0 0 .016-.047.694.694 0 0 0-.011-.095.2.2 0 0 1-.01-.062.681.681 0 0 1-.016-.152.021.021 0 0 1 .042 0 .725.725 0 0 0 .016.146.168.168 0 0 0 .01.058.818.818 0 0 1 .01.11.407.407 0 0 1-.015.057.091.091 0 0 0-.011.047.343.343 0 0 0 .016.136c.005.053.016.084.021.121a.674.674 0 0 0 .021.083.851.851 0 0 0 .02.121z"/><path d="M30.089 27.605a.256.256 0 0 1-.011.052.755.755 0 0 0-.037-.126.529.529 0 0 0-.089-.141.192.192 0 0 1-.068-.11.316.316 0 0 1 0-.172.686.686 0 0 1 .01-.1.693.693 0 0 0-.01-.141.79.79 0 0 0-.022-.131c0-.036-.01-.073-.01-.083.015-.006.073.031.125.094a.54.54 0 0 1 .074.35v.2a2.926 2.926 0 0 0 .038.308zM30.026 27.945a.159.159 0 0 1 .011.109.164.164 0 0 1-.011.042.137.137 0 0 1-.037.042.108.108 0 0 1-.068-.005.127.127 0 0 1-.073-.084.1.1 0 0 1 0-.078.161.161 0 0 1 .052-.063.123.123 0 0 1 .058-.016.065.065 0 0 1 .031.011.071.071 0 0 1 .037.042z" style="fill:#009a3c"/><path d="M30 27.547a.685.685 0 0 1 .058.22l-.031.11c-.006-.006-.011-.011-.016-.011h-.005a.878.878 0 0 0-.215-.434.5.5 0 0 1-.115-.215.446.446 0 0 1 .016-.319l.016.016a.311.311 0 0 0 .073.073.413.413 0 0 0 .063.037c0 .031-.006.057-.006.084a.392.392 0 0 0 .006.188.327.327 0 0 0 .073.131.383.383 0 0 1 .083.12zM29.942 26.151c.095.193.073.225.073.225-.021.01-.115-.063-.183-.121a1.717 1.717 0 0 1-.324-.314 4.658 4.658 0 0 1-.126-.172.175.175 0 0 1-.031-.073v-.011h.016a.726.726 0 0 1 .351.167.8.8 0 0 1 .14.162c.042.048.063.095.084.137zM29.869 25.507a1.439 1.439 0 0 0-.021.157c-.042-.068-.084-.136-.131-.2a1.261 1.261 0 0 0-.1-.12.02.02 0 0 0-.027 0 .025.025 0 0 0-.005.031c.032.042.063.079.094.121a2.6 2.6 0 0 1 .163.245v.121a1.444 1.444 0 0 1-.163-.194.938.938 0 0 1-.13-.261.956.956 0 0 1-.036-.121.107.107 0 0 0 .052-.036h.005c.026.021.068.057.125.109s.121.096.174.148zM29.853 26.48a.657.657 0 0 0-.1-.052.281.281 0 0 0-.074-.026l-.062-.016a.326.326 0 0 1-.063-.01.438.438 0 0 1-.052-.027.721.721 0 0 1-.21-.214 1.421 1.421 0 0 1-.1-.157c.021 0 .047.021.078.031l.021.011a.7.7 0 0 1 .069.026.7.7 0 0 0 .182.2.442.442 0 0 0 .126.078.624.624 0 0 1 .1.063.533.533 0 0 1 .085.093zM29.785 29.32a.134.134 0 0 1-.073.141.141.141 0 0 1-.105-.01.138.138 0 0 1-.063-.079.128.128 0 0 1 .074-.136.123.123 0 0 1 .041-.01.15.15 0 0 1 .1.047.1.1 0 0 1 .026.047zM29.78 27.955s.01.005.015.005a.646.646 0 0 0-.057.115.818.818 0 0 0-.031.345 1.034 1.034 0 0 0 .016.126.338.338 0 0 1 .01.126.988.988 0 0 1-.026.1h-.032a.145.145 0 0 0-.078.026c-.006-.01-.006-.021-.011-.031v-.005a.665.665 0 0 0-.052-.162.261.261 0 0 1-.031-.126.166.166 0 0 1 .026-.1.676.676 0 0 0 .037-.131.907.907 0 0 0-.011-.178.215.215 0 0 1 0-.152.141.141 0 0 1 .021-.031.741.741 0 0 0 .073-.084.1.1 0 0 1 .016-.021v.011a.21.21 0 0 0 .01.047.2.2 0 0 0 .105.12zM29.963 29.587c-.016 0-.037.015-.058.021a.549.549 0 0 1-.125.01c-.021 0-.037 0-.057-.01s-.058-.006-.09-.006a1.132 1.132 0 0 0-.219-.01 1.154 1.154 0 0 0-.194.016c-.02.021-.036.042-.057.068a.237.237 0 0 0-.021.026.6.6 0 0 1-.079.094.324.324 0 0 1-.042.037h.047c.037-.016.068-.032.1-.047v-.006a.462.462 0 0 1 .131-.057.483.483 0 0 1 .152 0c.015 0 .031.005.052.005a.433.433 0 0 0 .256-.078.021.021 0 0 0 .011-.006.027.027 0 0 1 .02.011.024.024 0 0 1-.01.031.488.488 0 0 1-.282.084h-.058a.363.363 0 0 0-.136 0 .324.324 0 0 0-.109.052h-.011a.036.036 0 0 0-.021.011.073.073 0 0 1 .036.01.489.489 0 0 1 .105.042l.031.016a1.117 1.117 0 0 0 .121-.037c.057-.016.1-.037.178-.068a.843.843 0 0 0 .241-.12.682.682 0 0 0 .083-.089zM29.754 28.844c.031.042-.027.131-.047.167-.053.084-.116.142-.141.131s-.022-.01-.027-.031-.005-.016-.005-.032v-.057a.237.237 0 0 1 .031-.115c.021-.031.058-.089.12-.089a.108.108 0 0 1 .037 0 .047.047 0 0 1 .032.026z" style="fill:#009a3c"/><path d="M30.517 28.206a.433.433 0 0 1-.178.084.727.727 0 0 1-.093.005.071.071 0 0 0-.064.01.093.093 0 0 0-.041.058.646.646 0 0 1-.068.115.284.284 0 0 1-.053.058.609.609 0 0 0-.073.078.662.662 0 0 0-.067.089c-.027.037-.043.057-.064.047s-.015-.037.006-.089a1.546 1.546 0 0 0 .068-.293c0-.063.01-.136.01-.2a.181.181 0 0 1-.094-.1.05.05 0 0 1-.005-.026.135.135 0 0 0-.021.052.737.737 0 0 0-.032.324 2.3 2.3 0 0 0 .016.126.53.53 0 0 1 .011.131.805.805 0 0 1-.027.115.134.134 0 0 1 .042.036c.047.063-.015.162-.047.209a.446.446 0 0 1-.136.147.1.1 0 0 1-.036.01.023.023 0 0 1-.016 0 .085.085 0 0 1-.031-.021.593.593 0 0 1-.142.277.551.551 0 0 1-.094.1c0 .005-.016.01-.021.015h.204a.38.38 0 0 0 .1-.073.134.134 0 0 1-.063-.094.156.156 0 0 1 .092-.196h.01a.135.135 0 0 1 .079-.006.254.254 0 0 1 .047-.083.247.247 0 0 1 .115-.074c.021-.01.052-.026.089-.047.157-.073.424-.2.434-.355a.148.148 0 0 0-.005-.047.273.273 0 0 1 .01-.1.162.162 0 0 1 .047-.078.263.263 0 0 0 .047-.058.4.4 0 0 0 .068-.146s-.013-.006-.024 0zm-.183.178a.238.238 0 0 0-.157.115.125.125 0 0 0-.015.057.271.271 0 0 1-.021.089c-.016.042-.037.063-.152.183-.042.048-.084.089-.126.136 0 .006 0 .006-.015.006s-.011 0-.011-.006a.02.02 0 0 1 0-.031c.037-.042.079-.089.121-.131.109-.115.131-.136.146-.172s.011-.058.016-.074a.117.117 0 0 1 .021-.078.263.263 0 0 1 .183-.131.019.019 0 0 1 .026.011c.005.01 0 .021-.016.026zM29.534 25.136a.066.066 0 0 1 .005.063.045.045 0 0 1-.01.021.07.07 0 0 1-.053.026.187.187 0 0 1-.119-.037.068.068 0 0 1-.032-.047c0-.026.036-.057.068-.068a.105.105 0 0 1 .042-.005h.036a.1.1 0 0 1 .063.047z" style="fill:#009a3c"/><path d="M29.487 29.022a.537.537 0 0 0-.026-.1.331.331 0 0 0-.037-.1.089.089 0 0 1-.015.042c-.016.047-.048.068-.1.1a.107.107 0 0 1-.037.021c0 .006-.068.053-.156.131-.016.016-.032.026-.048.042l-.005.021a.883.883 0 0 1-.094.225.56.56 0 0 1-.052.068c-.011.015-.026.031-.047.057a.617.617 0 0 0-.079.152.294.294 0 0 1-.052.11.538.538 0 0 1-.131.12 2.225 2.225 0 0 1 .335-.068 1.073 1.073 0 0 0 .084-.078.4.4 0 0 0 .073-.089.148.148 0 0 0 .021-.026c.026-.032.047-.053.068-.079a.743.743 0 0 0 .063-.063.551.551 0 0 0 .094-.094.584.584 0 0 0 .141-.324.229.229 0 0 1 0-.068zm-.078-.016a.716.716 0 0 1-.157.225.3.3 0 0 1-.048.042.288.288 0 0 0-.088.089.291.291 0 0 0-.027.052.3.3 0 0 1-.036.089c-.021.037-.032.058-.042.073a.268.268 0 0 0-.042.068l-.021.047a.134.134 0 0 1-.031.063.307.307 0 0 1-.1.084h-.01a.017.017 0 0 1-.016-.016c-.01-.01 0-.021.006-.026a.317.317 0 0 0 .089-.073c.01-.016.015-.031.026-.052s.01-.026.021-.053a.475.475 0 0 1 .041-.073c.011-.015.021-.036.042-.068a.464.464 0 0 0 .037-.083.222.222 0 0 1 .026-.058.4.4 0 0 1 .1-.105l.042-.036a.6.6 0 0 0 .152-.215.033.033 0 0 1 .031 0c.005 0 .01.02.005.026z" style="fill:#009a3c"/><path d="M29.476 29.974a.29.29 0 0 1-.146-.032c-.016 0-.026-.015-.042-.02-.031-.011-.057-.027-.094-.037a.256.256 0 0 0-.115-.011c-.031 0-.068.006-.12.011h-.011a3.062 3.062 0 0 0-.361.073c-.083.026-.1.032-.115.005s.011-.036.042-.052a.429.429 0 0 0 .188-.146.362.362 0 0 0 .053-.1.574.574 0 0 1 .083-.157.4.4 0 0 1 .048-.062.485.485 0 0 0 .047-.063.878.878 0 0 0 .088-.215l.006-.026c.021-.073.031-.125.016-.141-.032-.026-.157.016-.246.089a.587.587 0 0 0-.12.157.362.362 0 0 0-.053.1.977.977 0 0 1-.052.1.4.4 0 0 1-.089.1.485.485 0 0 0-.047.063.312.312 0 0 0-.037.152.21.21 0 0 1-.042.141c-.021.026-.046.047-.2.11-.048.015-.09.036-.137.047.053.026.105.047.157.078l.058-.016a.453.453 0 0 1 .177-.026.664.664 0 0 1 .157.032c.047.01.074.021.1.026a.139.139 0 0 0 .12 0c.016 0 .037-.01.079-.016a.726.726 0 0 1 .1-.005H29a.894.894 0 0 0 .241-.026 1.14 1.14 0 0 0 .188-.1c.037-.021.058-.032.073-.042zm-1.019-.074c-.011-.006-.016-.016-.006-.027.021-.047.042-.088.058-.13 0-.021.011-.037.016-.053a.145.145 0 0 1 .031-.073.152.152 0 0 1 .047-.052.12.12 0 0 0 .031-.037.167.167 0 0 0 .037-.089.3.3 0 0 0 .01-.052.456.456 0 0 1 .153-.209.024.024 0 0 1 .031.005.024.024 0 0 1-.006.031.383.383 0 0 0-.136.189c0 .015 0 .026-.01.042a.221.221 0 0 1-.042.109.147.147 0 0 1-.042.042.156.156 0 0 0-.036.042.172.172 0 0 0-.027.063c0 .016-.01.031-.015.052a.908.908 0 0 1-.068.141c-.006.006-.011.011-.015.011s-.006.001-.011-.005zm.69.157a.593.593 0 0 0-.094 0 1.225 1.225 0 0 0-.157.01h-.062a.785.785 0 0 1-.121.006.838.838 0 0 1-.12-.006.022.022 0 0 1-.021-.02.023.023 0 0 1 .026-.021.932.932 0 0 0 .236 0 .2.2 0 0 0 .057-.006c.042 0 .089-.01.162-.015h.094a.019.019 0 0 1 .021.021.023.023 0 0 1-.021.032z" style="fill:#009a3c"/><path d="M29.4 28.975a.025.025 0 0 1 .011.031.728.728 0 0 1-.157.225c-.016.016-.032.026-.048.042a.288.288 0 0 0-.088.089l-.021.052c-.005.015-.016.042-.042.089s-.032.052-.042.073a.2.2 0 0 0-.042.068l-.021.047a.134.134 0 0 1-.031.063.256.256 0 0 1-.1.084h-.01s-.016 0-.016-.011 0-.021.006-.026a.25.25 0 0 0 .089-.073c.01-.016.015-.031.026-.052s.01-.026.021-.047a.268.268 0 0 1 .041-.079c.011-.015.021-.036.042-.068a.464.464 0 0 0 .037-.083.222.222 0 0 1 .026-.058.5.5 0 0 1 .1-.105l.042-.036a.665.665 0 0 0 .152-.215c.002-.01.013-.01.025-.01z"/><path d="M29.34 25.277a.1.1 0 0 1 0 .079.078.078 0 0 1-.062.036.082.082 0 0 1-.089-.047.087.087 0 0 1 0-.094c.01-.005.021-.016.031-.021a.108.108 0 0 1 .037-.01h.021a.116.116 0 0 1 .062.057zM29.21 25.465a.113.113 0 0 1 0 .121.09.09 0 0 1-.073.036.118.118 0 0 1-.094-.031.146.146 0 0 1-.032-.084.1.1 0 0 1 .032-.068.084.084 0 0 1 .062-.021.2.2 0 0 1 .058.011.09.09 0 0 1 .047.036z" style="fill:#009a3c"/><path d="M29.168 30.037a.023.023 0 0 1-.021.021h-.094c-.068 0-.115.01-.157.015a.264.264 0 0 1-.062 0 .785.785 0 0 1-.121.006.838.838 0 0 1-.12-.006.022.022 0 0 1-.021-.02.023.023 0 0 1 .026-.021.932.932 0 0 0 .236 0 .2.2 0 0 0 .057-.006c.042 0 .089-.01.162-.015h.094a.019.019 0 0 1 .021.026z"/><path d="m28.959 24.948-.032-.016a.753.753 0 0 0-.157-.057.841.841 0 0 0-.115-.006.436.436 0 0 1-.083 0 .356.356 0 0 1-.063-.021.381.381 0 0 1-.094-.068 1.009 1.009 0 0 0 .094.2 1.333 1.333 0 0 0 .1.152.753.753 0 0 0 .095.083.616.616 0 0 0 .3.1 1.174 1.174 0 0 0 .13 0v-.027a.694.694 0 0 0-.088-.041.5.5 0 0 0-.068-.037c-.011 0-.021-.016-.042-.026-.073-.037-.121-.052-.157-.068a.584.584 0 0 1-.11-.058.61.61 0 0 1-.126-.136.025.025 0 0 1 .011-.031h.01a.015.015 0 0 1 .016.01.511.511 0 0 0 .115.121.381.381 0 0 0 .1.052l.162.073a.417.417 0 0 0 .041.026c.021.011.037.016.068.032s.058.031.084.042c0-.006 0-.011.011-.016a.24.24 0 0 1 .057-.042.828.828 0 0 0-.259-.241z" style="fill:#009a3c"/><path d="M29.152 25.366c-.005 0-.005-.01-.01-.016a.4.4 0 0 1-.084.006H29a.653.653 0 0 1-.319-.11.406.406 0 0 1-.088-.079.913.913 0 0 1-.136.011h-.037a.637.637 0 0 1-.136-.011h-.016a1.1 1.1 0 0 0 .288.194 1.056 1.056 0 0 0 .424.131.087.087 0 0 1 .011-.042l-.064-.016a1.208 1.208 0 0 1-.261-.068.883.883 0 0 1-.225-.136.023.023 0 0 1 0-.031.019.019 0 0 1 .016-.005.017.017 0 0 1 .015.005.718.718 0 0 0 .215.131 1.137 1.137 0 0 0 .246.062l.083.016a.141.141 0 0 1 .141-.026c0-.005-.005-.011-.005-.016z" style="fill:#009a3c"/><path d="M28.865 29.184a.024.024 0 0 1-.006.031.383.383 0 0 0-.136.189c0 .01 0 .026-.01.042a.205.205 0 0 1-.042.109.272.272 0 0 1-.042.042.094.094 0 0 0-.036.042.172.172 0 0 0-.027.063c0 .016-.01.031-.015.052a.607.607 0 0 1-.068.141c0 .006-.011.011-.015.011a.018.018 0 0 1-.011 0 .026.026 0 0 1-.011-.032.733.733 0 0 0 .063-.125c0-.021.011-.037.016-.053a.145.145 0 0 1 .031-.073.152.152 0 0 1 .047-.052.12.12 0 0 0 .031-.037.154.154 0 0 0 .037-.094.256.256 0 0 0 .01-.047.432.432 0 0 1 .153-.209.024.024 0 0 1 .031 0z"/><path d="M28.577 30.413a.061.061 0 0 1 0 .042c-.016.047-.073.052-.109.052a.586.586 0 0 1-.21-.052.1.1 0 0 1 .042-.031.267.267 0 0 1 .177-.032.712.712 0 0 1 .1.021z" style="fill:#009a3c"/><path d="M28.514 30.356a.057.057 0 0 0-.031-.006.321.321 0 0 0-.2.037.234.234 0 0 0-.063.047c-.047-.026-.1-.052-.152-.084s-.125-.073-.188-.1h-.016c-.026-.011-.052-.021-.072-.032a.061.061 0 0 0-.027-.047.162.162 0 0 0-.063-.037.045.045 0 0 1-.021-.01c-.015 0-.026-.011-.042-.016a.543.543 0 0 1-.078-.036c-.021-.011-.047-.021-.073-.037a.476.476 0 0 1 .209-.031.6.6 0 0 1 .209.068c.016.01.037.015.052.026h.006c.062.031.13.062.2.1.068.031.142.068.209.105a.381.381 0 0 1 .141.053z" style="fill:#009a3c"/><path d="M27.735 30.188a.028.028 0 0 1 .01.016h-.005c0 .011-.016.016-.031.021a.349.349 0 0 1-.246-.047.38.38 0 0 1-.068-.037c-.016-.01-.032-.015-.052-.026s-.058-.026-.089-.042c-.053-.02-.1-.041-.152-.062l-.016-.006c-.031-.01-.151-.057-.214-.078a.945.945 0 0 0-.267-.037c-.057 0-.115.006-.172.011-.084 0-.168.005-.252 0a1.367 1.367 0 0 1-.58-.152 1.389 1.389 0 0 1-.126-.078 1.209 1.209 0 0 1-.277-.283.242.242 0 0 1 .047.026c.021.011.047.027.079.042a1.139 1.139 0 0 0 .706.126c.015-.011.026-.016.026-.032s-.016-.036-.042-.057a1.865 1.865 0 0 0-.225-.126c-.214-.109-.324-.151-.392-.183a.75.75 0 0 1-.162-.078 1.314 1.314 0 0 1-.476-.591 1.725 1.725 0 0 1-.089-.256s0 .01.01.01.006.011.011.016a1.441 1.441 0 0 0 .35.371 1.106 1.106 0 0 0 .184.11 1.462 1.462 0 0 1 .25.152.55.55 0 0 1 .068.052c.068.052.084.063.1.042s0-.032-.016-.047a.289.289 0 0 1-.042-.037c-.046-.047-.12-.115-.2-.2a1.942 1.942 0 0 1-.131-.178 3.402 3.402 0 0 0-.121-.162 3.171 3.171 0 0 0-.292-.288.773.773 0 0 1-.2-.235.842.842 0 0 1-.037-.12.683.683 0 0 0-.083-.188.006.006 0 0 1-.006-.006.7.7 0 0 1 .063.037c.141.084.226.131.267.157a.589.589 0 0 0 .063.036 1.038 1.038 0 0 1 .262.325c.036.068.057.12.078.167a.827.827 0 0 0 .115.225.854.854 0 0 0 .141.167.367.367 0 0 0 .042.084.89.89 0 0 0 .313.329c.006.006.011 0 .016 0a.018.018 0 0 0 0-.015c0-.011 0-.016-.021-.027a.783.783 0 0 1-.2-.277.627.627 0 0 1-.021-.261 1.479 1.479 0 0 0 .01-.162 2.993 2.993 0 0 0-.015-.3c-.011-.088-.027-.167-.037-.219s-.016-.084-.016-.105a.881.881 0 0 1 .163.288.969.969 0 0 1 .067.361c.006.083.016.178.038.308a1.4 1.4 0 0 0 .182.57.938.938 0 0 0 .45.387.054.054 0 0 0 .042-.005c.031-.036-.011-.11-.126-.3a1.3 1.3 0 0 0-.078-.131 2.62 2.62 0 0 1-.136-.219c-.021-.042-.058-.105-.068-.136a.722.722 0 0 1 .167.141 1.2 1.2 0 0 1 .215.293 1.182 1.182 0 0 0 .136.2 1.356 1.356 0 0 0 .339.293c.11.073.22.141.319.2.048.027.089.053.131.074s.073.041.115.062a.561.561 0 0 1 .079.037l.042.016c.005 0 .015 0 .021.01a.107.107 0 0 1 .062.027z" style="fill:#009a3c"/><path d="M27.374 30.183c.01 0 .016.01.021.01a1.763 1.763 0 0 0-.283.126 1.478 1.478 0 0 1-.209.1s-.015.006-.021.006a.316.316 0 0 0-.052-.037.359.359 0 0 0-.193-.031h-.032c.011 0 .021-.006.032-.006a.207.207 0 0 1 .036-.01c.079-.026.157-.058.241-.089s.2-.078.329-.131c.032.016.058.026.084.037a.22.22 0 0 0 .047.025zM26.809 30.424a.1.1 0 0 1 .026.015.3.3 0 0 1-.2.021h-.006a.226.226 0 0 1-.115-.047.017.017 0 0 1 0-.01c.042 0 .084-.006.126-.006.112.003.148.011.169.027zM26.333 25.005a1.974 1.974 0 0 0-.418.34 1.146 1.146 0 0 0-.105.115 2.458 2.458 0 0 0-.225.33c-.005.01-.015.01-.026.005a.019.019 0 0 1-.01-.026 2.458 2.458 0 0 1 .225-.33.676.676 0 0 1 .015-.141.363.363 0 0 1 .026-.1 1.838 1.838 0 0 0 .074-.183.424.424 0 0 1 .016-.053.832.832 0 0 1 .1-.219s.01-.016.015-.021a.858.858 0 0 0-.428.565v.073a.532.532 0 0 1-.037.256.537.537 0 0 1-.058.115.755.755 0 0 0-.057.094 1.662 1.662 0 0 0-.131.325 2.616 2.616 0 0 0-.089.413c-.01.052-.01.063-.031.063-.021 0-.021-.021-.016-.084.006-.042.01-.1.016-.162a2.831 2.831 0 0 1 .047-.309c.01-.068.021-.131.031-.225a1.189 1.189 0 0 0 0-.225.33.33 0 0 1 .016-.136.513.513 0 0 1 .105-.188 1.06 1.06 0 0 0 .125-.193c.027-.063.047-.126.068-.178a1.247 1.247 0 0 1-.141.172 1.4 1.4 0 0 0-.288.44.626.626 0 0 0-.047.209 2.188 2.188 0 0 1-.031.251 1.867 1.867 0 0 1-.047.241c-.006.1-.01.172-.016.235a1.049 1.049 0 0 0-.005.319 1.84 1.84 0 0 0 .063.261.02.02 0 0 1-.011.027c-.01 0-.026 0-.026-.011a1.569 1.569 0 0 1-.068-.272 1.337 1.337 0 0 1 0-.329 2.186 2.186 0 0 0 .021-.3 1.036 1.036 0 0 0-.094-.559c-.006-.011-.016-.026-.021-.037a1.627 1.627 0 0 1 0 .46.946.946 0 0 1-.063.272.8.8 0 0 0-.047.22 1.555 1.555 0 0 0 .043.392 2.551 2.551 0 0 0 .2.576.025.025 0 0 1-.011.031h-.01c-.005 0-.016-.005-.016-.011-.037-.073-.068-.151-.1-.23a1.407 1.407 0 0 1-.073-.157.24.24 0 0 0-.021-.057c-.037-.089-.063-.157-.084-.209a.432.432 0 0 0-.136-.225 2.941 2.941 0 0 0-.209-.136h-.003a.614.614 0 0 0-.073-.047.662.662 0 0 0 .079.125 5.14 5.14 0 0 1 .261.445 3.077 3.077 0 0 1 .183.408c.032.094.063.188.089.287.052.032.052.032.058.032a1.13 1.13 0 0 1 .272.34 1.623 1.623 0 0 1 .078.178 1.183 1.183 0 0 0 .11.214l.063.078a1.676 1.676 0 0 1-.063-.292c0-.053-.01-.11-.01-.168v-.167a1.8 1.8 0 0 1 .073-.419c.01-.036.021-.068.031-.1a.979.979 0 0 0 .058-.34.884.884 0 0 0-.027-.2c0 .037-.01.084-.02.131a.78.78 0 0 1-.089.183.917.917 0 0 0-.047.079.96.96 0 0 0-.079.575.914.914 0 0 0 .058.214.257.257 0 0 1 .01.042c0 .011 0 .016-.01.021a.058.058 0 0 1-.026-.005 1.036 1.036 0 0 1-.215-.57 1.152 1.152 0 0 1 .115-.555 1.691 1.691 0 0 1 .481-.606 2.639 2.639 0 0 1 .22-.189l.131-.115a1.9 1.9 0 0 0-.162.058 1.267 1.267 0 0 0-.4.272 1.229 1.229 0 0 0-.246.356c-.005.01-.01.02-.02.02a.019.019 0 0 1-.016-.005c-.006 0-.011-.01-.011-.015a1.437 1.437 0 0 1 .513-.691 2.474 2.474 0 0 1 .261-.157 1.7 1.7 0 0 1 .162-.083.494.494 0 0 0 .142-.084.57.57 0 0 0 .146-.194.519.519 0 0 1-.272.189.211.211 0 0 1-.073.01.657.657 0 0 0-.084 0c-.01 0-.015.006-.026.006a.507.507 0 0 0-.288.109.634.634 0 0 0-.078.116 1.532 1.532 0 0 1-.136.209c-.021.031-.047.062-.068.089-.037.036-.052.057-.073.047s-.011-.042.026-.1c.021-.042.052-.094.094-.162a1.726 1.726 0 0 1 .209-.319.514.514 0 0 1 .168-.11c.032-.021.073-.036.125-.068a2.441 2.441 0 0 0 .5-.4c.079-.079.11-.121.147-.163a1.82 1.82 0 0 1 .157-.167h.005c.01-.011.021-.016.026-.026a1.707 1.707 0 0 0-.446.19z" style="fill:#009a3c"/></svg>