<svg xmlns="http://www.w3.org/2000/svg" viewBox="0 0 55 55"><path d="M47.677 39.153a23.3 23.3 0 0 1-40.349 0z" style="fill:#1e5f3d"/><path d="M50.8 27.5a23.168 23.168 0 0 1-3.123 11.653H7.328A23.172 23.172 0 0 1 4.2 27.5z" style="fill:#f9d117"/><path d="M50.8 27.5H4.2a23.3 23.3 0 1 1 46.6 0z" style="fill:#08a1dc"/><path d="m36.855 16.166 4.948-.313-4.948-.314 4.7-1.585-4.859.978 4.127-2.74-4.441 2.2 3.274-3.718-3.719 3.279 2.2-4.44-2.737 4.122.973-4.859-1.58 4.7-.314-4.948-.314 4.948-1.579-4.7.978 4.859-2.75-4.126 2.2 4.44L29.3 10.67l3.274 3.718-4.44-2.2 4.126 2.74-4.86-.974 4.7 1.585-4.948.314 4.948.313-4.7 1.585 4.858-.978-4.126 2.741 4.44-2.2L29.3 21.03l3.719-3.274-2.2 4.441 2.741-4.127-.978 4.859 1.579-4.7.314 4.948.314-4.948 1.58 4.7-.969-4.859 2.737 4.13-2.2-4.441 3.719 3.274-3.274-3.718 4.441 2.2-4.127-2.741 4.859.978zm-2.38 2.061a2.375 2.375 0 1 1 2.375-2.374 2.38 2.38 0 0 1-2.375 2.374z" style="fill:#f9d117"/><path d="M36.578 15.853a2.1 2.1 0 1 1-2.1-2.1 2.1 2.1 0 0 1 2.1 2.1z" style="fill:#f9d117"/></svg>