<svg xmlns="http://www.w3.org/2000/svg" viewBox="0 0 55 55"><path d="M50.8 27.5A23.3 23.3 0 1 1 27.5 4.2a23.325 23.325 0 0 1 23.3 23.3z" style="fill:#006b35"/><path d="M40.043 37.4a.624.624 0 0 0-.193-.063 2.906 2.906 0 0 0-.639-.016c-.23-.005-.465-.005-.7-.01L37.1 37.3c-.026 0-.481-.021-.481-.005a.474.474 0 0 0 .005-.084c0-.1.115-.063.173-.2a.3.3 0 0 0-.251-.376.124.124 0 0 1-.063-.006c-.026-.015-.031-.052-.031-.083a.243.243 0 0 0-.393-.157.425.425 0 0 0-.125.429 1.207 1.207 0 0 0 .073.235 1.373 1.373 0 0 1 .063.23l-21.148-.251a2.916 2.916 0 0 0 2.62 1.318H35.99a4.841 4.841 0 0 0 .084.664 1.327 1.327 0 0 0 .12.372.32.32 0 0 0 .377.183.277.277 0 0 0 .194-.2h2.593c.047 0 .1.073.126.1a.677.677 0 0 0 .125.121.757.757 0 0 0 .476.078c.246 0 .528-.22.528-1.2a1.14 1.14 0 0 0-.57-1.068zm-.758 1.4c-.121.12-.816.078-.816.078s-.126-.24-.319-.24a.559.559 0 0 0-.387.214 7.993 7.993 0 0 1-1.056.011.424.424 0 0 1-.021-.466h2.531s.188.28.068.403zM10.705 24.644c-.1-.031-.444.6-.585 1.287a1.86 1.86 0 0 0-.016.9c.037.12.2.706.575.737.314.026.566-.356.654-.617.105-.3.052-.654-.052-.68-.084-.021-.147.157-.356.178a.3.3 0 0 1-.2-.042c-.126-.105-.064-.371-.027-.544.102-.533.107-1.187.007-1.219zM13.331 21.9c.021-.136-.293-.319-.57-.366a1.246 1.246 0 0 0-.727.125 2.986 2.986 0 0 0-1.349 1.376c-.1.151-.11.193-.089.219.13.215 1.793-.915 2.584-1.229.041-.011.14-.053.151-.125zM11.4 16.423c-.132-.152-.372-.424-.32-.623a.325.325 0 0 1 .23-.214c.235-.052.45.2.481.24a1.16 1.16 0 0 1 .073 1.1c-.062.157-.177.345-.245.329s-.084-.287-.089-.355a.853.853 0 0 0-.032-.34.446.446 0 0 0-.098-.137z" style="fill:#fff"/><path d="M10.329 17.469a3.822 3.822 0 0 0 .01 1.108c.126.68-.005.654.136 1.156.105.372.21.738.508.837a.616.616 0 0 0 .449-.031c.346-.178.4-.675.434-.921.053-.408-.052-.528.058-.873.068-.225.2-.481.282-.466a16.881 16.881 0 0 1 .115 1.82c.058.471.121.68.293.79.215.141.476.047.68.256a.617.617 0 0 1 .157.309 8.171 8.171 0 0 1 .089 1.883c.016.837.131.894.167.905.147.047.372-.241.481-.419a2.338 2.338 0 0 0 .21-1.3 8.342 8.342 0 0 0-.089-1.3c-.063-.382-.147-.7.026-.858a.46.46 0 0 1 .309-.1c.235 0 .308.162.543.245a1.091 1.091 0 0 0 .785-.078 1.206 1.206 0 0 0 .554-.486 1.287 1.287 0 0 0 .12-.984 3.993 3.993 0 0 0-.261-.962c-.015-.036-.053-.2-.011-.261.021-.037.089-.011.141-.053.037-.026.058-.078.048-.2a1.039 1.039 0 0 0-.246-.6c-.126-.131-.44-.376-.68-.267s-.256.466-.267.612a2.244 2.244 0 0 0 .345 1.2c.178.309.356.487.3.732a.355.355 0 0 1-.157.241c-.147.068-.34-.063-.481-.167a1.112 1.112 0 0 1-.429-.461c-.131-.308.058-.418.026-.978a1.16 1.16 0 0 0-.282-.815.416.416 0 0 0-.325-.163c-.428.032-.381.576-.35.874a3.1 3.1 0 0 0 .094.523c.021.073.047.146.073.22.094.256.215.5.11.638a.144.144 0 0 1-.11.062c-.094-.01-.141-.2-.183-.392a5.235 5.235 0 0 1-.115-.863 8.368 8.368 0 0 0-.12-.962c-.084-.445-.22-1.156-.513-1.193-.151-.021-.319.152-.387.309-.12.256.021.492.136.936.105.408.017.324.136.983.152.858.33 1.188.126 1.486-.016.021-.12.172-.22.151-.146-.026-.188-.429-.209-.606a6.835 6.835 0 0 1 .031-1.02c.016-.45.006-.591-.094-.727a.5.5 0 0 0-.392-.23c-.193.015-.314.235-.46.517a2.686 2.686 0 0 0-.356 1.057c-.047.434.043.685-.13.811a.313.313 0 0 1-.288.036c-.2-.078-.251-.4-.319-.858a2.8 2.8 0 0 0-.146-.815s-.068-.293-.21-.346a.131.131 0 0 0-.094 0 .077.077 0 0 0-.048.058z" style="fill:#fff"/><path d="M14.324 15.842a.473.473 0 0 0-.01.419.676.676 0 0 0 .319.376.734.734 0 0 0 .575.016.643.643 0 0 0 .4-.262.6.6 0 0 0 .089-.355c0-.079 0-.293-.094-.33a.233.233 0 0 0-.22.12c-.052.079-.031.152-.079.173s-.1-.021-.13-.057c-.079-.089-.026-.189-.089-.236a.181.181 0 0 0-.22.042c-.078.089-.021.23-.067.246-.027.01-.074-.052-.105-.094-.079-.1-.068-.147-.11-.168-.065-.032-.196.026-.259.11zM21.076 20.811c-.042-.094-.225-.115-.361-.084a.38.38 0 0 0-.23.136c-.068.1-.021.178-.1.309-.021.041-.073.125-.13.12s-.053-.147-.152-.256a.459.459 0 0 0-.491-.1c-.084.042-.074.089-.3.429-.1.152-.136.188-.193.22a.36.36 0 0 1-.382-.011c-.11-.1.016-.251-.089-.444a.451.451 0 0 0-.376-.236c-.131 0-.168.1-.236.079-.162-.037-.11-.575-.2-1.323a7.81 7.81 0 0 0-.2-1.24c-.068-.23-.161-.46-.052-.58.131-.131.4.041.507-.079s-.1-.335-.3-.884a2.3 2.3 0 0 0-.444-.978.38.38 0 0 0-.251-.11.357.357 0 0 0-.257.1.52.52 0 0 0-.282.251.59.59 0 0 0 .047.429 5.548 5.548 0 0 1 .183 1.1c.068.387.021.23.225 1.485.058.346.095.6.167 1.12.121.863.142 1.187-.031 1.291a.4.4 0 0 1-.335 0c-.3-.1-.272-.418-.528-.544a.908.908 0 0 0-.753.126 1.372 1.372 0 0 0-.638.675 1.151 1.151 0 0 0 .073 1.156.921.921 0 0 0 .874.282c.251-.068.455-.3.528-.235.026.021.021.073.015.1a1.854 1.854 0 0 1-.235.748 2.234 2.234 0 0 1-.8.69c-.507.3-.811.476-1.182.392a1.156 1.156 0 0 1-.8-.711c-.13-.371.042-.674-.2-1.129-.089-.168-.141-.178-.172-.178-.168 0-.277.549-.319.826a2.094 2.094 0 0 0 .1 1.229 1.834 1.834 0 0 0 .69.816 1.876 1.876 0 0 0 1.2.272 2.2 2.2 0 0 0 1.208-.534 2.443 2.443 0 0 0 .936-1.3c.131-.533-.01-.994.309-1.245.031-.026.142-.109.209-.073.146.068.031.57-.015.79a3.964 3.964 0 0 1-.55 1.4 3.126 3.126 0 0 1-1.035 1.046 2.811 2.811 0 0 1-1.37.387 1.848 1.848 0 0 1-1.48-.5 1.516 1.516 0 0 1-.277-.6 3.216 3.216 0 0 0-.236-1.015c-.089-.162-.141-.167-.157-.162-.177.011-.261.821-.272.9a2.626 2.626 0 0 0 .084 1.213 1.916 1.916 0 0 0 .711 1 2.181 2.181 0 0 0 1.407.241 4.3 4.3 0 0 0 1.731-.408 4.086 4.086 0 0 0 1.093-.748 3.18 3.18 0 0 0 .874-1.271 3.264 3.264 0 0 0 .151-.968c.016-.638-.115-1.464.016-1.537a.161.161 0 0 1 .083-.016c.058 0 .089.052.126.084a.459.459 0 0 0 .235.068.914.914 0 0 0 .387-.016 1.007 1.007 0 0 0 .3-.136c.2-.12.215-.173.335-.209a.81.81 0 0 1 .366.015 3.564 3.564 0 0 0 .58.084.753.753 0 0 0 .518-.4c.22-.408-.068-.821.12-1.188a.174.174 0 0 0 .023-.161zm-5.083 1.532a.288.288 0 0 1-.4-.026.245.245 0 0 1 .288-.4.324.324 0 0 1 .136.23.263.263 0 0 1-.024.196z" style="fill:#fff"/><path d="M19.193 23.666c.188.257.272.23.329.356.115.262-.146.533-.031.649a.222.222 0 0 0 .22 0c.219-.094.215-.5.209-.628a1.046 1.046 0 0 0-.225-.68c-.078-.094-.22-.261-.392-.23a.3.3 0 0 0-.236.246c-.005.047-.005.115.126.287zM29.584 26.208c.016-.146.031-.345-.063-.413s-.24.016-.371.084c-.115.057-.466.235-.429.429a.317.317 0 0 0 .256.209c.1.01.147-.042.189-.011.073.053-.027.194.036.366a.4.4 0 0 0 .209.225c.142.063.278-.015.466-.089.586-.235.857-.136.931-.329a.333.333 0 0 0-.11-.345c-.147-.1-.392-.016-.758.11-.215.073-.33.13-.382.083s.01-.12.026-.319zM20.37 19a.609.609 0 0 0 .031-.2c0-.021-.021-.131-.084-.157-.094-.042-.256.1-.339.236a.641.641 0 0 0-.016.659.609.609 0 0 0 .361.266.6.6 0 0 0 .507-.13c.1-.1.194-.257.151-.309-.031-.031-.088 0-.256 0s-.256.005-.314-.052c-.078-.087-.052-.249-.041-.313zM25.871 20.591c-.063-.042-.178-.089-.245-.047-.111.073-.032.35-.027.366a.727.727 0 0 0 .429.471.64.64 0 0 0 .544-.016.583.583 0 0 0 .246-.3c.088-.2.12-.513-.006-.581a.287.287 0 0 0-.319.121c-.052.073-.052.162-.073.162s-.016-.173-.12-.236a.148.148 0 0 0-.147-.01c-.088.047-.062.209-.115.22s-.062-.082-.167-.15zM21.191 16.182a.553.553 0 0 0-.314-.5.616.616 0 0 0-.738.173.624.624 0 0 0-.041.68c.089.13.261.209.308.376a.269.269 0 0 1 0 .152.225.225 0 0 1-.089.11 5.326 5.326 0 0 1-.957.8c-.423.256-.465.35-.821.549-.089.047-.246.215-.2.3.078.167.669.156 1.062-.006.485-.2.376-.46 1.087-1.025.287-.23.648-.455.6-.674a1.117 1.117 0 0 1-.094-.314.856.856 0 0 1 .047-.236c.087-.267.14-.286.15-.385zm-.434.4c-.068.052-.21 0-.283-.089a.239.239 0 0 1-.021-.3.228.228 0 0 1 .272.052c.1.094.115.277.032.335zM21.593 16.543c-.178.031-.183.821-.136 1.365.068.722.142 1.6.712 1.836a.822.822 0 0 0 .8-.063c.245-.214.1-.539.366-1.182.1-.246.261-.549.334-.528.11.031-.167.664.084 1.328.021.053.309.8.873.884a1.733 1.733 0 0 0 1.13-.45c.23-.188.393-.413.607-.381a.446.446 0 0 1 .24.156c.069.063.612.581 1.062.508a1.014 1.014 0 0 0 .591-.46c.141-.231.136-.445.266-.466a.288.288 0 0 1 .251.162c.063.115.011.209.074.267s.23.01.266 0a.924.924 0 0 0 .466-.591c.042-.131.115-.345.036-.413-.062-.047-.167.015-.413.073a1.136 1.136 0 0 1-.4.063c-.146-.032-.236-.157-.366-.4-.34-.627-.539-.993-.393-1.25.016-.026.121-.2.257-.2.068 0 .094.048.12.037.079-.042.021-.633-.382-1-.1-.089-.34-.308-.585-.246-.33.079-.434.607-.445.879a1.887 1.887 0 0 0 .345.941c.183.335.241.346.3.555.079.256.126.737-.125.889a.538.538 0 0 1-.544-.063c-.267-.172-.319-.5-.392-1a9.361 9.361 0 0 1-.074-1.067 3.068 3.068 0 0 0-.1-.852c-.062-.209-.146-.5-.308-.523-.183-.021-.356.308-.393.382a1.156 1.156 0 0 0-.13.6c.015.319.141.382.23.764a2.467 2.467 0 0 1 .047.674 1.343 1.343 0 0 1-.356.973.693.693 0 0 1-.564.183.731.731 0 0 1-.482-.418c-.136-.257-.078-.424-.057-1.062.031-.947-.084-1.077-.162-1.13a.573.573 0 0 0-.492.016c-.685.282-.852 1.454-.884 1.658-.015.094-.026.141-.047.235-.072.34-.125.576-.246.6s-.261-.168-.319-.246a1.693 1.693 0 0 1-.271-.847c-.063-.513 0-.727-.184-1.01-.044-.07-.128-.196-.207-.18z" style="fill:#fff"/><path d="M22.718 15.34c-.241.058-.387.439-.408.492a.96.96 0 0 0-.073.5c.015.115.036.267.156.324.136.068.3-.047.382-.12s.157-.2.115-.277-.162-.011-.23-.095c-.084-.088-.026-.261-.015-.292.052-.163.157-.178.2-.367.027-.1.011-.136 0-.151-.038-.035-.101-.019-.127-.014zM24.9 15.429a.741.741 0 0 0-.246.57c-.026.256 0 .23-.021.617-.011.22.084.33.131.351s.193-.126.219-.157a1.535 1.535 0 0 0 .236-1.057c0-.151-.006-.272-.079-.308a.278.278 0 0 0-.24-.016zM33.982 23.321a10.522 10.522 0 0 0-1.109-2.021 78.986 78.986 0 0 0-1.166-1.877 36.51 36.51 0 0 0-.157-1.574.226.226 0 0 1 .1-.157c.068-.027.115.026.156 0 .089-.042.011-.351.011-.351a4.534 4.534 0 0 0-.9-1.422c-.073-.095-.177-.278-.292-.262-.157.016-.251.366-.278.591a1.733 1.733 0 0 0 .048.581 4.344 4.344 0 0 0-.387-.555 5.426 5.426 0 0 0-.649-.627c-.4-.319-.5-.3-.549-.283-.105.042-.136.173-.188.392a1.022 1.022 0 0 0 .172 1.036 29.891 29.891 0 0 1 2.114 2.824c.2 2.228.287 5.058.25 5.8-.01.272-.052.926.146.983.168.053.424-.366.55-.564a2.284 2.284 0 0 0 .214-1.637s-.1-1.47-.219-3.029c.214.377.4.733.569 1.062a18.863 18.863 0 0 0 1.543 2.751c.209.065.288-.97.021-1.661zM30.123 17.1c-.011-.015-.042-.062-.027-.089.037-.062.272.063.335 0a.048.048 0 0 0 .011-.031c.057.178.125.3.136.34.041.167.083.366.12.591a22.692 22.692 0 0 0-.575-.811zM32.11 16.1c-.016.194.167.246.355.618a1.762 1.762 0 0 1 .178.528c.052.324-.015.512.043.533s.245-.2.339-.465a1.438 1.438 0 0 0-.12-1.187c-.084-.121-.262-.393-.481-.367a.4.4 0 0 0-.314.34z" style="fill:#fff"/><path d="M32.418 18.713c-.083-.073-.052-.183-.1-.2s-.183.079-.246.2a.535.535 0 0 0 .089.539.692.692 0 0 0 .627.194.717.717 0 0 0 .513-.293.506.506 0 0 0 .042-.549c-.042-.047-.121-.095-.168-.074-.083.032-.041.22-.109.236-.053.015-.126-.068-.157-.121-.068-.1-.047-.167-.089-.183-.058-.02-.157.063-.2.157-.036.068-.026.115-.063.136s-.102-.01-.139-.042zM37.967 19.519c-.11-.052-.094-.167-.183-.23a.364.364 0 0 0-.419.083.483.483 0 0 0-.1.393c.011.1.058.282.649.8.413.371.512.4.58.366.084-.036.105-.151.126-.3.073-.429-.105-.643.031-.8.084-.1.2-.052.309-.2a.434.434 0 0 0 .078-.209.6.6 0 0 0-.246-.638.422.422 0 0 0-.471.063c-.136.183.1.523-.026.628a.384.384 0 0 1-.2.047.336.336 0 0 1-.128-.003zM41.591 26.689c0-.136.125-.167.125-.256.006-.125-.24-.293-.481-.272-.167.016-.35.12-.345.22.006.12.3.125.361.334a.36.36 0 0 1-.026.246c-.105.257-.361.267-.371.429a.269.269 0 0 0 .172.246c.162.063.262-.12.711-.3.225-.089.356-.1.382-.21a.251.251 0 0 0-.12-.245c-.136-.079-.288.041-.371-.042a.17.17 0 0 1-.037-.15zM36.832 23.2s-.12-1.005-.45-3.389c-.094-.707-.24-1.407-.3-2.113.063-.011.131-.006.193-.011s.246.016.3-.042c.078-.083-.079-.266-.115-.34l-.251-.465-.4-.732c-.052-.1-.172-.482-.319-.471-.178.005-.293.732-.329 1.208a5.626 5.626 0 0 0 .146 1.747 33.881 33.881 0 0 1 .858 6.025c.021.523-.094 1.281.089 1.328.141.037.382-.371.508-.653a3.481 3.481 0 0 0 .07-2.092z" style="fill:#fff"/><path d="M33.924 15.774a2.26 2.26 0 0 0-.345 1.067c0 .513.136.612.209 1.417.021.194.021.319.032.44.115 2.578.335 3.64.4 4.66a6.257 6.257 0 0 1 .11 1.584 1.284 1.284 0 0 1-.382.654 11.984 11.984 0 0 1-2.029 1.486c-.073.036-.23.047-.266.136s.151.277.292.36a1.427 1.427 0 0 0 1.2-.052 2.983 2.983 0 0 0 1.455-1.548 4.447 4.447 0 0 0 .4-1.548 16.114 16.114 0 0 0-.38-5.13s-.413-1.548-.146-1.637c.036-.015.094.021.162-.015.1-.053.125-.215.13-.257a.91.91 0 0 0-.157-.549c-.386-.685-.439-1.156-.6-1.14a.185.185 0 0 0-.085.072zM39.494 21.836c.188-.183.2-.874 0-.816-.037.01-1.438.931-1.59 1.083s-.256.256-.256.428-.047.382 0 .424a11.849 11.849 0 0 0 1.846-1.119zM39 22.364c-.093.1-.021.612.047.758a5.365 5.365 0 0 1 .126 1.02c0 .079.084.382.214.251a1.66 1.66 0 0 0 .361-.789 5.629 5.629 0 0 0-.361-1.24c-.034-.073-.287-.094-.387 0zM42.768 17.767c.015.131.041.34.052.591.015.371-.021.549.026.559.068.021.267-.292.329-.648a1.708 1.708 0 0 0-.125-.921c-.089-.261-.162-.47-.34-.512a.325.325 0 0 0-.314.11c-.11.151.011.381.063.486a.919.919 0 0 0 .309.335z" style="fill:#fff"/><path d="M42.119 25.664c.235-.324.387-.4.471-.758a12.469 12.469 0 0 0 .052-1.407c.35.544.669 1.062.931 1.532.345.476.392.55.4.56a2.449 2.449 0 0 0-.078-1.668 17.159 17.159 0 0 0-1.281-1.951 15.765 15.765 0 0 0-.262-2.516c-.34-1.485-.382-1.673-.152-1.673s-.319-1.486-.528-1.862-.476-.251-.554-.173a.482.482 0 0 0-.2.528c.147.816.283 1.653.4 2.511.083.575.151 1.14.214 1.7-.293-.4-.617-.847-.926-1.281a91.332 91.332 0 0 1-.109-1.574c0-.073.246-.11.246-.209a2.93 2.93 0 0 0-.466-.926c-.45-.45-.366-.868-.523-.863s-.293.3-.288.387c.037.46.079 1.109.126 1.757a5.3 5.3 0 0 1-.434-.68c0-.167-.011-.167.094-.167a.278.278 0 0 0 .214-.1c.048-.047-1.511-1.752-1.4-1.2 0 0-.361 1.1.094 1.668.167.2.79 1.005 1.579 2.066a4.764 4.764 0 0 0 .089.528 24.238 24.238 0 0 1 .194 4.723c-.021.183-.2.617-.466.654-.2.031-.392-.178-.533-.324-.377-.408-.408-.685-.659-.764a.5.5 0 0 0-.46.12c-.173.131-.335.3-.586 1-.24.659-.267.989-.491 1.188a.592.592 0 0 1-.492.094c-.439-.079-.586-.926-.643-1.177a2.693 2.693 0 0 1-.026-.968 2.88 2.88 0 0 0 .041 2.375c.314.533.937.957 1.272.8s.512-.674.7-1.6a.642.642 0 0 1 .585-.518c.445-.031.591.738 1.172.884a1.483 1.483 0 0 0 1.271-.518c.256-.272.428-.868.157-3.682a81.951 81.951 0 0 1-.136-1.48c.319.44.643.9.962 1.355.11 1.3.172 2.547.2 3.75-.012.011-.001.178.229-.141z" style="fill:#fff"/><path d="M44.425 17.521c.121-.126.57.188.5-.126s-.884-1.825-1.265-1.762c-.141.021-.277.465-.277.659s.109 1.229.209 1.977.774 6.6.612 7.129a2.707 2.707 0 0 1-.821 1.129c-.257.262-1.443.738-1.443 1.051s.611.283 1.212.074a2.184 2.184 0 0 0 1.612-1.6 27.363 27.363 0 0 0 .083-5.036 31.746 31.746 0 0 1-.422-3.495zM30.949 23.227c-.037-.1-.324-.063-.408-.058a17.65 17.65 0 0 1-3.127-.083c0-.021.219-.026.565-.12a2.934 2.934 0 0 0 1.239-.628 1.563 1.563 0 0 0 .654-1.067 1.233 1.233 0 0 0-.628-1.145 1.151 1.151 0 0 0-1.119.026 1.579 1.579 0 0 0-.544 1.056c-.115.481 0 .549-.125.722-.288.413-.947.031-1.747.408a2.194 2.194 0 0 0-.936.884c-.026-.2-.058-.424-.1-.706-.235-1.5-.486-1.92-.737-2.2-.1-.1-.345-.376-.533-.314-.225.079-.23.6-.23.722a3.917 3.917 0 0 0 .418 1.449 4.009 4.009 0 0 1 .329 1.327 2.859 2.859 0 0 1-.507 1.653 3.465 3.465 0 0 1-1.375 1.2 1.066 1.066 0 0 1-.983.1.652.652 0 0 1-.278-.45.994.994 0 0 0 .1-.068 5.717 5.717 0 0 0 1.093-.879 2.983 2.983 0 0 0 1-1.72 2.3 2.3 0 0 0-.283-1.491c-.01-.016-.13-.152-.1-.193s.2.062.277.01c.084-.078-.042-.408-.214-.649a.962.962 0 0 0-.654-.5.642.642 0 0 0-.575.241c-.215.319.068.779.126.868.151.236.25.194.423.45a1.41 1.41 0 0 1 .23.764 1.487 1.487 0 0 1-.147.669 3.741 3.741 0 0 1-1.385 1.417c-.021-.685.073-1.072-.01-1.093-.1-.031-.4.555-.566 1.2l-.078.319c-.622.392-.617.35-1.2.716-.439.278-1.94 1.224-1.846 1.413.105.209 2.076-.6 2.186-.644.3-.125.554-.24.775-.35a1.316 1.316 0 0 0 .193.481 1.735 1.735 0 0 0 1.438.706 2.275 2.275 0 0 0 1.338-.627 4.543 4.543 0 0 0 1.459-1.648 1.6 1.6 0 0 0 .069-.146 1.462 1.462 0 0 0 .167.481 1.849 1.849 0 0 0 .476.533 4.352 4.352 0 0 0 1.312.8c.319.121.905.335 1.229.136a.639.639 0 0 0 .22-.23.5.5 0 0 0 .036-.356c-.078-.245-.366-.183-.611-.465a.681.681 0 0 1-.178-.534c.052-.183.267-.282.6-.381a14.933 14.933 0 0 1 2.019-.382c.429-.073.691-.136.789-.345.1-.189-.041-.288.074-.56a2.976 2.976 0 0 1 .34-.57c.029-.055.066-.107.05-.149zm-2.683-2.045c.047-.084.215-.1.33-.047s.156.178.209.35c.026.084.021.11 0 .126-.042.063-.194.031-.3-.021-.16-.084-.305-.298-.239-.408zm-2.024 3.8c-.125.257.026.508-.12.6a.387.387 0 0 1-.319-.026 1.214 1.214 0 0 1-.774-.984c-.01-.073-.042-.517.188-.643.152-.084.267.068.628.126.533.089.79-.157 1.025.041a.387.387 0 0 1 .152.314c-.048.276-.597.213-.78.574z" style="fill:#fff"/></svg>