<svg xmlns="http://www.w3.org/2000/svg" viewBox="0 0 55 55"><path d="M47.264 15.178 5.774 35.92a23.279 23.279 0 0 1 2.291-21.26 23.7 23.7 0 0 1 2.212-2.835 23.273 23.273 0 0 1 36.987 3.353z" style="fill:#0951b8"/><path d="M50.8 27.5A23.295 23.295 0 0 1 7.736 39.827l41.49-20.747A23.224 23.224 0 0 1 50.8 27.5z" style="fill:#1f5a33"/><path d="M49.226 19.08 7.736 39.827a22.881 22.881 0 0 1-1.962-3.907l41.49-20.742a22.833 22.833 0 0 1 1.962 3.902z" style="fill:#fbd023"/><path style="fill:#fff" d="m15.612 14.958.69 2.118h2.228l-1.804 1.313.69 2.118-1.804-1.312-1.799 1.312.685-2.118-1.799-1.313h2.228l.685-2.118zM10.743 13.274l.691 2.118-1.8-1.307-1.8 1.307.235-.732a23.7 23.7 0 0 1 2.212-2.835l.042.136h2.223zM21.595 9.848l.691 2.119h2.228l-1.805 1.307.691 2.118-1.805-1.307-1.799 1.307.686-2.118-1.8-1.307h2.228l.685-2.119zM9.629 20.073l.69 2.118h2.228l-1.804 1.308.691 2.118-1.805-1.307-1.799 1.307.69-2.118-1.804-1.308h2.228l.685-2.118zM21.595 20.073l.691 2.118h2.228l-1.805 1.308.691 2.118-1.805-1.307-1.799 1.307.686-2.118-1.8-1.308h2.228l.685-2.118z"/></svg>