<svg xmlns="http://www.w3.org/2000/svg" viewBox="0 0 55 55"><path d="M26.038 4.247 5.455 35.042A23.3 23.3 0 0 1 26.038 4.247z" style="fill:#043f85"/><path d="M50.8 27.5a23.4 23.4 0 0 1-.5 4.8L12.175 45.031a23.373 23.373 0 0 1-3.839-4.294L45.57 12.814A23.156 23.156 0 0 1 50.8 27.5z" style="fill:#d52827"/><path d="M45.57 12.814 8.336 40.737a23.226 23.226 0 0 1-2.881-5.695L26.038 4.247Q26.759 4.2 27.5 4.2a23.26 23.26 0 0 1 18.07 8.614z" style="fill:#fbd759"/><path d="M50.3 32.3a23.214 23.214 0 0 1-4.9 10.1l-30.018 5a23.089 23.089 0 0 1-3.2-2.364z" style="fill:#fff"/><path d="M45.4 42.4a23.264 23.264 0 0 1-30.018 5z" style="fill:#00793d"/></svg>