<svg xmlns="http://www.w3.org/2000/svg" viewBox="0 0 55 55"><defs><clipPath id="a"><circle cx="97.5" cy="27.5" r="23.3" transform="rotate(-69.699 97.5 27.5)" style="fill:none"/></clipPath><clipPath id="b"><path style="fill:none" d="M52.227 3.931h80.426v46.916H52.227z"/></clipPath></defs><path d="M49.467 19.733H5.534a23.3 23.3 0 0 1 43.933 0z" style="fill:#d11133"/><path d="M50.8 27.5a23.188 23.188 0 0 1-1.333 7.767H5.534a23.278 23.278 0 0 1 0-15.534h43.933A23.188 23.188 0 0 1 50.8 27.5z" style="fill:#fff"/><path d="M49.467 35.267a23.31 23.31 0 0 1-43.933 0z"/><path d="m32.3 27.5-10.333 7.767-11.208 8.42a23.273 23.273 0 0 1-5.225-8.42 23.249 23.249 0 0 1 5.225-23.954l11.208 8.42z" style="fill:#00712a"/><g style="clip-path:url(#a)"><g style="clip-path:url(#b)"><path style="fill:#231e60" d="M52.227 3.931h80.426v46.916H52.227z"/><path style="fill:#fff" d="M87.489 3.931 75.626 9.844V3.931h-6.681v5.913L57.079 3.931h-4.852v2.442l8.48 4.258h-8.48v6.704h8.48l-8.48 4.258v2.444h4.852l11.866-5.915v5.915h6.681v-5.915l11.863 5.915h4.897v-2.444l-8.526-4.258h8.526v-6.704H83.86l8.526-4.258V3.931h-4.897z"/><path style="fill:#bc1f34" d="m52.227 5.534 10.192 5.102h3.236L52.227 3.931v1.603zM65.629 17.335l-13.402 6.702h3.207l13.404-6.702h-3.209z"/><path style="fill:#bc1f34" d="M70.368 3.931v8.091H52.227v3.927h18.141v8.088h3.925v-8.088h18.093v-3.927H74.293V3.931h-3.925z"/></g></g></svg>