<svg version="1.1" id="Layer_1" xmlns="http://www.w3.org/2000/svg" x="0" y="0" viewBox="0 0 55 55" style="enable-background:new 0 0 55 55" xml:space="preserve"><style>.st1{fill:#fafdfe}</style><path id="Litecoin_2_" d="M27.7 4.2c-13 0-23.5 10.5-23.5 23.4S14.7 51 27.7 51s23.5-10.5 23.5-23.4c0-12.9-10.5-23.4-23.5-23.4z" style="fill:#05aded"/><path class="st1" d="M42.8 36.9c0 1.1-.6 2.2-1.7 2.6-1.1.6-2.2.4-3.2-.4-.9-.7-1.3-1.7-1.1-3 0-.4 0-.6-.4-.7-2.1-1.3-4.1-2.6-6-3.9-1.5-.9-2.2-2.2-2.2-4.1V18c0-.4 0-.4-.4-.6-1.3-.6-2.1-2.1-1.9-3.4.4-1.5 1.5-2.4 3-2.4s2.6.9 3 2.4c.4 1.3-.4 2.8-1.9 3.4-.4.2-.4.4-.4.6v7.9c0 2.1.9 3.7 2.6 4.9 1.7 1.1 3.2 2.1 4.9 3.2.2.2.4.2.7 0 .9-.7 2.1-.7 3.2-.2 1.2.9 1.8 1.8 1.8 3.1zM30.4 14.8c0-.7-.6-1.5-1.5-1.5-.7 0-1.5.6-1.5 1.5 0 .7.6 1.5 1.5 1.5 1 0 1.5-.5 1.5-1.5zm7.9 21.9c0 .7.6 1.5 1.5 1.5.7 0 1.5-.7 1.5-1.5 0-.7-.6-1.5-1.5-1.5-.8.2-1.5.8-1.5 1.5zM26.9 25.5v2.2c0 1.7-.7 2.8-2.1 3.7-2.1 1.3-4.1 2.6-6.2 3.9-.4.2-.4.4-.4.7.2 1.7-.7 3.2-2.4 3.6-1.5.4-3.2-.7-3.6-2.2-.4-1.7.6-3.2 2.2-3.7.9-.2 1.7 0 2.4.4.2.2.4.2.7 0 1.7-1.1 3.4-2.1 4.9-3.2 1.7-1.1 2.6-2.8 2.6-4.9v-3.4c0-.4 0-.7.4-.9.6-.4 1.1 0 1.1.7.4 1.2.4 2.2.4 3.1zM15.3 38.2c.7 0 1.5-.6 1.5-1.5 0-.7-.6-1.5-1.5-1.5-.7 0-1.5.7-1.5 1.5s.7 1.5 1.5 1.5zM33.6 35.6c0 .6-.6.9-1.1.7-.6-.4-.9-.6-1.5-.9-2.2-1.5-4.5-1.5-6.7 0-.4.4-.9.6-1.3.9-.4.2-.9.2-1.1-.2-.2-.4-.2-.9.4-1.1 1.1-.7 2.2-1.5 3.4-2.1 1.5-.9 3.2-.9 4.7 0 1.1.7 2.1 1.3 3.2 2.1-.2.1 0 .2 0 .6z"/></svg>