<svg xmlns="http://www.w3.org/2000/svg" viewBox="0 0 55 55"><clipPath id="a"><circle cx="27.5" cy="27.5" r="23.3" fill="none"/></clipPath><g clip-path="url(#a)"><path fill="#ed1d24" d="M4.18 27.5h69.96V4.18H4.18V27.5z"/><path d="M4.18 50.82h70V27.5h-70v23.32zM19.45 7.05a8.73 8.73 0 0 1 2.84.47 8.48 8.48 0 0 0-7.85 8.27 8.49 8.49 0 0 0 7.85 8.27 8.75 8.75 0 1 1-2.84-17zm4.62 1.63.47 1.45h1.52l-1.23.87.47 1.45-1.23-.9-1.23.9.47-1.45-1.23-.89h1.52l.47-1.45zm4.67 3.56.47 1.45h1.52l-1.23.89L30 16l-1.23-.9-1.23.9.46-1.42-1.23-.89h1.52l.47-1.45zm-9.34 0 .47 1.45h1.52l-1.23.89.47 1.42-1.23-.9-1.23.9.47-1.45-1.23-.89h1.52l.47-1.45zm1.75 5.49.47 1.45h1.52l-1.23.89.47 1.45-1.23-.9-1.23.9.47-1.45-1.23-.89h1.52l.47-1.45zm5.85 0 .47 1.45H29l-1.23.89.47 1.45-1.24-.9-1.23.9.47-1.45-1.24-.89h1.52l.48-1.45z" fill="#f1f0f0"/></g></svg>