<svg xmlns="http://www.w3.org/2000/svg" viewBox="0 0 55 55"><defs><clipPath id="a"><circle cx="27.5" cy="27.5" r="23.3" transform="rotate(-69.699 27.5 27.5)" style="fill:none"/></clipPath><clipPath id="b"><path style="fill:none" d="M-17.773 3.931h80.426v46.916h-80.426z"/></clipPath></defs><g style="clip-path:url(#a)"><g style="clip-path:url(#b)"><path style="fill:#231e60" d="M-17.773 3.931h80.426v46.916h-80.426z"/><path style="fill:#fff" d="M17.489 3.931 5.626 9.844V3.931h-6.681v5.913l-11.866-5.913h-4.852v2.442l8.48 4.258h-8.48v6.704h8.48l-8.48 4.258v2.444h4.852l11.866-5.915v5.915h6.681v-5.915l11.863 5.915h4.897v-2.444l-8.526-4.258h8.526v-6.704H13.86l8.526-4.258V3.931h-4.897z"/><path style="fill:#bc1f34" d="M19.227 3.931 5.823 10.636h3.21l13.353-6.705h-3.159zM22.386 24.037 9.019 17.335h3.221l10.146 5.103v1.599z"/><path style="fill:#bc1f34" d="M.368 3.931v8.091h-18.141v3.927H.368v8.088h3.925v-8.088h18.093v-3.927H4.293V3.931H.368z"/><g style="clip-path:url(#b)"><path d="M49.183 23.677c-.013 4.562-.733 9.475-6.635 11.815-5.905-2.34-6.622-7.253-6.636-11.815z" style="fill:#9ebfe4"/><path d="m42.548 35.644-.054-.021c-5.886-2.333-6.71-7.121-6.723-11.946v-.141h13.553v.141c-.016 4.825-.839 9.613-6.726 11.946l-.05.021zm-6.494-11.828c.029 4.665.866 9.266 6.494 11.524 5.625-2.258 6.464-6.859 6.494-11.524z" style="fill:#fff"/><path d="M42.548 35.492A9.57 9.57 0 0 0 47.8 31c-.144 0-.445 0-.576-.013-.147-.008-5.662-.563-6.316-.8a9.5 9.5 0 0 0-3.745.539 9.5 9.5 0 0 0 5.388 4.774z" style="fill:#4e68b0"/><path d="M38.421 32.664a.955.955 0 0 1 .33-.011c.08.016.094.024.126-.064s.093-.066.144-.021a.186.186 0 0 0 .232-.053c.05-.07.066-.064.117-.014s.072.038.123.022a.352.352 0 0 0 .181-.152c.042-.08.109-.107.144-.064a.127.127 0 0 0 .122.056c.051-.006.067.045.059.109s.024.08.147-.021c.109.109.144.064.144-.051a2.382 2.382 0 0 0-.072-.6.787.787 0 0 1-.094-.355c-.016-.248-.016-.261-.314-.413 0-.088-.019-.126-.232-.11a.221.221 0 0 0-.072-.154c-.043-.035-.051-.051-.029-.152a.242.242 0 0 0 .234-.08c.048-.072.216-.056.32-.013a.8.8 0 0 0 .427.021 2.465 2.465 0 0 1 .325-.2c.13-.074.168-.1.173-.205a1.493 1.493 0 0 0-.144-.7c-.072-.138-.093-.312-.194-.53a1.621 1.621 0 0 0-.232-.443.224.224 0 0 1-.08-.152.417.417 0 0 0-.126-.269 3.085 3.085 0 0 1-.389-1.328c-.053-.274-.016-.922-.131-1.023a.937.937 0 0 0-.421-.182 3.43 3.43 0 0 1-.226-.623c-.136.021-.232.168-.326.218s-.109.051-.109.181a1.07 1.07 0 0 1-.205.515c-.131.2-.347.147-.528.451-.4-.486-.405-.624-.437-.763s-.093-.168-.317-.362a2.505 2.505 0 0 1-.008-.422c-.168-.138-.291-.117-.371-.016s-.139.256-.261.315a6.822 6.822 0 0 0-.48.613 11.669 11.669 0 0 0 2.45 7.038z" style="fill:#573614"/><path d="M49.183 23.677c.005-1.719-.091-3.388-.048-4.849a18.849 18.849 0 0 0-13.177 0c.045 1.461-.054 3.13-.046 4.849z" style="fill:#f3ea32"/><path d="M49.319 23.813H35.776v-.136c0-.746.016-1.479.032-2.194.021-.938.04-1.826.016-2.649v-.091l.083-.04a18.966 18.966 0 0 1 13.289 0l.085.04v.091c-.027.823-.006 1.711.016 2.649.016.715.032 1.448.029 2.194v.136zm-13.271-.274h13c0-.7-.016-1.381-.032-2.05-.019-.907-.04-1.765-.019-2.573a18.793 18.793 0 0 0-12.9 0c.019.808 0 1.666-.021 2.573-.014.669-.03 1.354-.03 2.05z" style="fill:#fff"/><path d="M36.269 25.663a1.651 1.651 0 0 1 .219.427.925.925 0 0 0 .1-.219c.011-.064.086-.192.059-.261s-.05-.122.027-.072.066.139.048.269c-.048.355-.2.427-.216.667.213.506.053.688.285 1.178.037.024.133-.016.163-.008.122-.088.213-.056.389-.018a.3.3 0 0 1 .269.266.348.348 0 0 0 .035.205c.037.064.109.166.1.238a.186.186 0 0 0 .034.152c.024.037-.008.117-.026.17s-.016.115.069.224a1.92 1.92 0 0 1 .293.834c0 .27.014.392.123.443s.144.093.131.211a7.563 7.563 0 0 0 .064.813c.016.093.05.072.095.122a.225.225 0 0 0 .216.11c.147 0 .286-.019.382-.006a1.618 1.618 0 0 1 .24.581c.029.152.024.36.077.36s.1.008.085-.181a.448.448 0 0 0-.093-.312c-.064-.1-.1-.138-.064-.194a.343.343 0 0 0 .027-.227c-.014-.072-.035-.181.088-.037s.159.181.2.234a.392.392 0 0 1 .043.232c-.009.085.008.123.058.078s.115.029.085.125a.132.132 0 0 0 .1.181c.086.029.123.051.144.115s.1.1.1-.035a1.84 1.84 0 0 0-.088-.493 1.5 1.5 0 0 1-.072-.387c-.008-.109-.029-.136-.08-.157a.149.149 0 0 1-.1-.109.081.081 0 0 0-.085-.07.094.094 0 0 1-.078-.061c-.018-.037-.04-.04-.074-.045s-.093.018-.112-.038a.653.653 0 0 0-.08-.189c-.037-.048-.069-.064-.072-.226s-.008-.184-.059-.243a2.294 2.294 0 0 1-.173-.275c-.037-.066-.072-.13-.072.006s0 .21.085.261.11.051.072.125a.206.206 0 0 0 .016.174c.014.05.043.1 0 .152s-.088.037-.082-.043a.435.435 0 0 0-.056-.24c-.035-.067-.067-.109-.11-.072s-.08-.008-.05-.037a.044.044 0 0 0 0-.072c-.022-.022-.03-.043.008-.088s.034-.064.013-.166a4.5 4.5 0 0 0-.253-.727c-.072-.115-.064-.2.029-.086a.668.668 0 0 1 .181.312.334.334 0 0 0 .059.187c.029.037.051.024.064-.056s.075-.051-.027-.2a1.97 1.97 0 0 1-.365-.863 3.97 3.97 0 0 0-.173-.888.462.462 0 0 1-.1-.267.751.751 0 0 0-.051-.32c-.051-.088-.088-.1-.093.03a1.434 1.434 0 0 0 .042.472c.035.05.014.181.008.253s-.122.144.115.29a.154.154 0 0 1 .067.19c-.016.05-.032.042-.083-.038a.83.83 0 0 0-.149-.189c-.051-.043-.059-.072-.051-.173s.027-.174 0-.211-.045-.008-.059.051a1.5 1.5 0 0 1-.058.261c-.03.043-.046.013-.064-.08a.858.858 0 0 1 .056-.405 1.106 1.106 0 0 0 .037-.56.681.681 0 0 0-.189-.464 1.819 1.819 0 0 1-.438-.581 1.97 1.97 0 0 0-.181-.522 1.168 1.168 0 0 0-.29-.27v-.333c0-.08-.035-.131-.131-.117s-.152.1-.208.2-.1.059-.181.245-.2.283-.2.485z" style="fill:#c16228"/><path d="M36.792 27.791a.179.179 0 0 0 .2.018c.088-.045.192-.17.309-.048a.777.777 0 0 1 .181.488.845.845 0 0 0 .182.624.771.771 0 0 1 .282.56 3.589 3.589 0 0 0 .11.637.593.593 0 0 0 .128.248.711.711 0 0 1 .112.4 2.855 2.855 0 0 0 0 .387c.021.085 0 .16-.067.114a.262.262 0 0 1-.115-.136c-.037-.074-.08-.058-.045.048a.3.3 0 0 0 .24.211.2.2 0 0 1 .181.075c.056.058.064.085.168.085a.517.517 0 0 1 .211.029.153.153 0 0 0 .144 0c.05-.013.1.03.136.126a2.024 2.024 0 0 1 .125.426.348.348 0 0 0 .051.219c.05.072.037.146-.022.1s-.058-.029-.1-.021-.072-.016-.131-.051-.021-.029-.08-.117-.092-.113-.092-.053-.008.147-.053.109-.064-.034-.1 0-.05.064-.093 0a.181.181 0 0 0-.138-.088c-.043-.016-.043-.016-.064-.08a.138.138 0 0 0-.147-.08.083.083 0 0 1-.093-.074.182.182 0 0 0-.072-.094c-.03-.021-.016-.072-.022-.122s-.053-.03-.08-.043-.05-.008-.05-.08-.032-.1-.051-.147 0-.1.013-.157a.144.144 0 0 0-.037-.147c-.043-.05 0-.1-.123-.205s-.173-.013-.21-.25a3.822 3.822 0 0 0-.174-.816c-.066-.077-.109-.136-.175-.16s-.107-.006-.115-.144a.671.671 0 0 0-.139-.4 1.407 1.407 0 0 0-.168-.152c-.042-.035-.056-.1 0-.224a.759.759 0 0 0 .032-.37 1 1 0 0 1-.016-.27.518.518 0 0 0-.016-.253c-.018-.059-.05-.072-.013-.117zM38.541 25.727a1.546 1.546 0 0 1-.339.331c-.133.1-.309.173-.21.339s.173.183.192.309.048.232.144.261.136.008.136.213 0 .28.087.357.078.155.115.339a4.232 4.232 0 0 0 .155.85 3.938 3.938 0 0 1 .349.891c-.029.107-.067.187.048.312a.8.8 0 0 1 .2.416c.01.106.029.144.146.106a.447.447 0 0 0 .213-.128c.038-.048.115-.037.222.022s.272.114.368.056.146-.144.232-.144a.8.8 0 0 0 .213-.358c.029-.058.01-.058-.048-.117s-.029-.154-.038-.251a1.259 1.259 0 0 0-.165-.455 4.108 4.108 0 0 0-.261-.541.559.559 0 0 1-.125-.31c-.011-.077-.1-.146-.155-.2s-.117-.147-.187-.486-.114-.581-.114-.639-.008-.067-.067-.086a.145.145 0 0 1-.069-.165c.019-.048-.019-.1-.037-.155a.3.3 0 0 1 .037-.221.573.573 0 0 0-.008-.36c-.04-.136-.077-.25-.235-.269s-.181-.058-.24-.184-.117-.349-.136-.4-.045-.06-.164.04a.309.309 0 0 0-.155.31.347.347 0 0 0 .059.223.624.624 0 0 1 .077.272c.03.182.192.475-.021.637s-.181.206-.173.32-.056.192-.1.03a.277.277 0 0 1 .117-.339c.115-.077.221-.173.144-.28a1.211 1.211 0 0 1-.117-.474c-.008-.118-.027-.155-.1-.07z" style="fill:#c16228"/><path d="M36.819 28.2a1.126 1.126 0 0 0 .018.235.759.759 0 0 1-.032.37c-.056.123-.042.189 0 .224l.008.005a.172.172 0 0 0 .1-.234.237.237 0 0 1 .016-.219.128.128 0 0 0 .005-.154c-.035-.048-.035-.048.005-.184.032-.12-.053-.118-.122-.043zM38.056 30.07a3.589 3.589 0 0 1-.11-.637.771.771 0 0 0-.282-.56.71.71 0 0 1-.179-.5c-.109-.067-.152-.037-.144.085s.141.192.12.381-.018.142.075.232.125.182.077.219-.053.107.016.131.069.1.062.165.053.083.09.13a.238.238 0 0 1 .005.232c-.037.067-.042.174.024.118s.1-.008.15.085.085.053.136.032a.457.457 0 0 1-.04-.112zM39 31.76c-.045.088-.1.059-.138.016s-.094-.045-.075-.122.016-.1-.043-.139a.068.068 0 0 0-.018-.013.444.444 0 0 0-.067 0c-.1 0-.112-.027-.168-.085a.311.311 0 0 0-.034-.032.309.309 0 0 0 0 .053c0 .08 0 .064-.083.088s-.064-.08-.077-.147a.36.36 0 0 0-.014-.04.312.312 0 0 1-.213-.208c-.035-.106.008-.122.045-.048a.262.262 0 0 0 .115.136c.067.046.088-.029.067-.114a.374.374 0 0 1-.008-.1.146.146 0 0 0-.064-.064c-.118-.051-.083-.064-.075-.16s-.013-.093-.088-.043-.077-.008-.077-.154-.1-.144-.118-.043-.056.037-.1-.109-.1-.182-.109-.043c-.006.117-.038.144-.115.08.014.083.027.163.035.227.037.237.1.149.21.25s.08.155.123.205a.144.144 0 0 1 .037.147c-.013.056-.037.107-.013.157s.051.072.051.147.018.064.05.08c.016.008.04 0 .059.011a.677.677 0 0 1 .056-.078c.088-.088.219.008.261.115s.094.141.16.053.043-.072.117.005.1.067.1.067a.132.132 0 0 1 .125.016c.051.043.08.035.174-.1s-.043-.093-.086-.008zM39.258 27.78c.027-.213.008-.426.1-.5s.2-.232.184.1-.019.309-.088.386-.125.1-.056.222a.435.435 0 0 1 .067.33c-.011.192-.011.269.066.365s.1.107.117.214a.659.659 0 0 0 .174.33.8.8 0 0 1 .192.453c.013.155.146.2.272.3s-.027.184-.126.136-.056 0-.114.066-.078.078-.128-.037a.516.516 0 0 0-.288-.224c-.077-.029-.147-.154-.213-.28a.372.372 0 0 0-.278-.194.409.409 0 0 1 .035.173c-.029.107-.067.187.048.312a.8.8 0 0 1 .2.416c.01.106.029.144.146.106a.447.447 0 0 0 .213-.128c.038-.048.115-.037.222.022s.272.114.368.056.146-.144.232-.144a.8.8 0 0 0 .213-.358c.029-.058.01-.058-.048-.117s-.029-.154-.038-.251a1.259 1.259 0 0 0-.165-.455 4.108 4.108 0 0 0-.261-.541.559.559 0 0 1-.125-.31c-.011-.077-.1-.146-.155-.2s-.117-.147-.187-.486c-.053-.263-.09-.469-.109-.575-.067.112-.117.138-.141.064s-.067-.136-.107-.08-.048-.048-.048-.1-.01-.059-.058-.059-.008-.075-.03-.221-.048-.165-.066.01-.115.28-.078.318.019.117-.018.234a.343.343 0 0 0 .008.261.915.915 0 0 1-.04.347c-.019.125.08.253.109.04zM37.491 26.039c-.075.006-.123.07-.083.288.027.136-.077.107-.115.04a3.4 3.4 0 0 0-.144-.338c-.077-.126-.04.085-.05.2s.069.118.136.213.01.136-.067.136-.037.155-.019.262-.018.125-.077.037-.021-.221-.011-.387.019-.125-.088-.165-.085-.056-.048-.154.078-.144.03-.192-.04-.078.037-.088.051-.067.117-.088.1.01.107-.115c.008-.106.043-.171.12-.139a4.454 4.454 0 0 0 .155.488zM38.464 27.18c0 .2 0 .28.087.357s.078.155.115.339a4.232 4.232 0 0 0 .155.85c.037.083.082.184.133.291a.561.561 0 0 0 .139-.184c.029-.067-.059-.2-.126-.317s.008-.155.078-.3-.011-.155-.115-.192-.109-.136-.165-.294a.35.35 0 0 1-.011-.309c.04-.085.011-.152-.067-.173s-.058-.077-.029-.173.048-.118-.069-.088c-.088.021-.107.04-.133.072a.678.678 0 0 1 .008.122z" style="fill:#4eb648"/><path d="M39.578 27.586c-.013.117-.011.175-.04.213s-.011.1.019.154a.337.337 0 0 1 .021.243.184.184 0 0 0 .077.221c.059.03.085 0 .067.136a.423.423 0 0 0 .125.339.284.284 0 0 1 .107.213c-.008.059.048.117.114.147s.059.037.059.077.029.037.107.056a.445.445 0 0 1 .224.176c.085.107.213.163.194.048s0-.2-.117-.253-.2-.336-.253-.531a1.045 1.045 0 0 0-.291-.5c-.008-.136.011-.2-.077-.269a.293.293 0 0 1-.115-.224.247.247 0 0 0-.085-.176.126.126 0 0 1-.059-.122c0-.059-.069-.051-.077.056z" style="fill:#573614"/><path d="M39.063 32.779a2.706 2.706 0 0 0 .7-.2 1.12 1.12 0 0 0 .408.19.452.452 0 0 1-.32-.016c.021.053.08.133.117.138a.73.73 0 0 1-.4-.1.61.61 0 0 1-.5-.013zM39.375 32.995a4.1 4.1 0 0 0 .411.069c-.1.088-.013.17.154.157-.082.011-.173.043-.111.053a1.652 1.652 0 0 0 .631-.122.728.728 0 0 1-1.085-.157zM39.653 33.437a.581.581 0 0 1 .386.019.509.509 0 0 1-.386-.019z" style="fill:#6fbf5f"/><path d="M39.964 33.432c.15-.027.571.074.718-.016-.048.136-.315.152-.406.122a.957.957 0 0 0-.24-.061c.032-.016-.021-.021-.072-.045z"/><path d="M40.116 33.637a2.137 2.137 0 0 0 .64-.08 2.134 2.134 0 0 0 .445.107.609.609 0 0 1-.434 0 .777.777 0 0 1-.651-.027z" style="fill:#6fbf5f"/><path d="M40.308 33.706a.822.822 0 0 0 .459-.042.753.753 0 0 0 .274.042.674.674 0 0 0 .264.1 1.171 1.171 0 0 1-.53-.037 1.453 1.453 0 0 0-.568.1.208.208 0 0 1 .1-.171z" style="fill:#6fbf5f"/><path d="M40.116 32.888a1.635 1.635 0 0 0 .813-.088c.091-.043.147.029.043.064a1.17 1.17 0 0 1-.893.067c-.085-.046-.093-.088.037-.043z"/><path d="M42.342 32.269a1.972 1.972 0 0 1-1.7.1c-.072-.022-.123 0-.045.05a2.893 2.893 0 0 0 .61.176c.1.006.067.054.005.072s-.08.062 0 .03a1.465 1.465 0 0 1 .741.053c.083.043.1.037.1 0s.034-.054.1-.062.1-.029.05-.045-.053-.029-.018-.048.04-.037-.013-.048-.091-.024-.041-.051a.7.7 0 0 1 .184-.05c.016-.04-.01-.144.032-.182z" style="fill:#6fbf5f"/><path d="M41.415 32.333a1.825 1.825 0 0 0 1.218-.426 1.335 1.335 0 0 0 .344.152c.077.016.149.088.026.088a1.088 1.088 0 0 1-.375-.088 2.127 2.127 0 0 1-1.2.312c-.088-.008-.11-.043-.008-.038z"/><path d="M40.471 30.593a.858.858 0 0 0 .552.186 1.119 1.119 0 0 0 .4.2 1.655 1.655 0 0 0-.394.184c-.078-.074-.173-.064-.2-.1-.072.058-.062.093-.013.122a1.447 1.447 0 0 0 .5.067c.091-.027.115.048.04.075a.686.686 0 0 1-.709-.206c-.13-.21-.242-.29-.6-.1-.04-.1-.04-.128-.109-.128s-.2-.091-.1-.088a1.137 1.137 0 0 0 .624-.213z" style="fill:#6fbf5f"/><path d="M40.559 31.062c-.061.016-.232.109-.293.117s-.171.093-.059.1.256-.12.336-.131.091-.1.016-.082zM40.911 31.427a1.931 1.931 0 0 1-.277.048c-.054 0-.1.011-.1.048s.016.056-.059.051a.212.212 0 0 0-.16.042c-.018.022-.034.046.043.051a.292.292 0 0 0 .2-.027.875.875 0 0 1 .263-.1c.1 0 .19-.128.086-.109z" style="fill:#6fbf5f"/><path d="M40.65 31.654a1.816 1.816 0 0 0 .613.173c.141-.011.114.056.008.08a.882.882 0 0 1-.677-.2c-.091-.074-.006-.1.056-.058z"/><path d="M42.508 31.846a1.437 1.437 0 0 1-.728.029c-.125-.032-.237-.04-.155.04a.692.692 0 0 0 .5.093 1.976 1.976 0 0 1-.816.091 2.741 2.741 0 0 0-.493-.008.458.458 0 0 1-.234-.032c-.048-.03-.064-.083.08-.07s.157-.013.034-.032-.293.032-.125.139.53-.008.762.056a1.324 1.324 0 0 0 1.195-.264c.024-.019.066-.072-.024-.042zM41.033 31.4a.126.126 0 0 1 0 .1c-.01.024-.01.059.038.022s.074-.08.122-.054a.516.516 0 0 0 .222.014c.053-.006.072-.019-.006-.051a.532.532 0 0 0-.2-.04.354.354 0 0 1-.133-.021c-.038-.016-.048-.008-.038.029z" style="fill:#6fbf5f"/><path d="M41.807 31.544a.707.707 0 0 1-.23-.061c-.058-.027-.141-.029-.077.053a.505.505 0 0 0 .424.091c.093-.04.053-.083.146-.024a.573.573 0 0 0 .264.1c.067 0 .094 0 .016-.043s-.112-.053-.117-.09-.021-.059.051-.038.149.062.2.035a.6.6 0 0 1 .248-.1l.021-.053a.5.5 0 0 0-.248.042.318.318 0 0 1-.171.011.67.67 0 0 1-.181-.037c-.024-.016-.024-.032.035-.04s.077-.054 0-.038a1.179 1.179 0 0 1-.405-.029c-.115-.037-.163-.04-.208-.021s-.04.066.029.072a.562.562 0 0 1 .28.069c.053.051.046.053-.016.029s-.176-.013-.058.072z" style="fill:#6fbf5f"/><path d="m42.753 31.414-.021.053a1.5 1.5 0 0 1 .567.1c.1-.08.083-.107.155-.091s.163.04.2.016a.155.155 0 0 1 .114-.008.373.373 0 0 0 .19-.045.6.6 0 0 1 .234-.077c.064 0 .144-.014.024-.032a.934.934 0 0 0-.362.04 1.639 1.639 0 0 1-.355.037 1.491 1.491 0 0 1-.381.021 1.466 1.466 0 0 0-.368-.01z" style="fill:#6fbf5f"/><path d="M44.432 31.347a1.435 1.435 0 0 1-.789.219c-.09.005-.064.032.014.04a1.186 1.186 0 0 0 .829-.219c.034-.037.032-.1-.054-.04z"/><path d="M42.95 31.718a3.4 3.4 0 0 1 .525.125c.08-.008.1-.027.088-.056s-.024-.061.12-.056.477 0 .542 0c.05-.021.162-.109.213-.112-.131.008-.675.038-.744.03a.216.216 0 0 0-.149.024.116.116 0 0 1-.123.016c-.056-.024-.155-.054-.2-.019s-.168 0-.267.043z" style="fill:#6fbf5f"/><path d="M44.225 31.736c.05-.021.162-.109.213-.112a1.018 1.018 0 0 1 .256.04c.048.006.1 0 .066-.042s0-.11.147-.094a1.324 1.324 0 0 0 .368.03c.146-.014.21.1.485-.014-.019.11.032.118.083.094s.106-.014.194.05a2.056 2.056 0 0 0 .741.051c.123-.021.187.045.094.074s-.115.073-.094.1.043.064-.072.051a.2.2 0 0 0-.2.063c-.059.046-.072.059-.232.03a.523.523 0 0 0-.277.008.314.314 0 0 1-.2-.016.833.833 0 0 0-.392-.022.526.526 0 0 1-.3.046c-.1-.03-.109-.016-.045-.08s.083-.059.2-.075.216-.048.128-.1-.114-.043-.232.016-.173.093-.3.021a.324.324 0 0 0-.283-.037.661.661 0 0 1-.354-.083zM44.659 31.955c-.168.024-.211-.083-.384-.062-.059.006-.157.078-.024.067s.28.064.411.051.074-.069 0-.056zM44.467 32.08c.088-.032.269.029.344.016s.149.032.069.056-.272-.045-.36-.021-.173-.006-.053-.051zM42.732 32.549a.765.765 0 0 0 .722-.378c.013-.027.027-.04.08 0a1.309 1.309 0 0 0 .626.189c.107.008.219.062.009.048a2.118 2.118 0 0 1-.656-.141.842.842 0 0 1-.781.325c-.152 0-.115-.045 0-.04z" style="fill:#6fbf5f"/><path d="M43.665 32.056a.753.753 0 0 1-.35.224 1.674 1.674 0 0 1-.429-.043c-.072-.026-.154-.018-.056.051a.753.753 0 0 0 .437.093c.1-.021.214-.053.288-.005s.219.136.3.12a.737.737 0 0 1 .309 0c.053.027.149.1.008.059s-.259-.008-.323-.037c.072.1.235.266.376.266.032 0 .056.056-.013.091a.321.321 0 0 0 .309-.019c-.019.03-.011.048.027.067s.08.043.013.05a.931.931 0 0 1-.256.006 1.311 1.311 0 0 0 .882.162c.07-.013.107-.042-.008-.037-.239 0-.255 0-.3-.024s-.035-.045.035-.067a1.408 1.408 0 0 1 .314-.047c.072 0 .147-.03 0-.03a1.862 1.862 0 0 1-.4-.024c-.075-.026-.128-.059-.051-.109s.155-.037.192-.085c-.24 0-.536-.131-.37-.246.037-.026.024-.029-.038-.037a1.375 1.375 0 0 1-.32-.1c-.074-.043-.024-.08.038-.091a.975.975 0 0 1-.613-.192zM45.8 32.048a.963.963 0 0 1-.483.139c-.107 0-.12.034-.037.048a.75.75 0 0 0 .21.008.14.14 0 0 1 .115.013.433.433 0 0 0 .272.008 1.145 1.145 0 0 1 .336-.045c.069 0 .146.008.008-.032a1.063 1.063 0 0 0-.416 0c-.056.016-.2.006-.125-.021a.589.589 0 0 0 .189-.1c-.029-.008-.048-.013-.069-.021zM45.725 32.331a.806.806 0 0 1-.442.17c.152.056.28.211.378.2a.422.422 0 0 1-.168.08.575.575 0 0 0 .384-.075.8.8 0 0 0 .6-.058.7.7 0 0 1-.389-.115.239.239 0 0 0 .168-.085.875.875 0 0 1-.528-.12z" style="fill:#6fbf5f"/><path d="M45.493 32.784a.422.422 0 0 0 .168-.08 1.35 1.35 0 0 1-.8-.181c-.158-.136-.158-.032-.046.066a.757.757 0 0 0 .677.2zM45.877 33.117a1.256 1.256 0 0 1-.48.037c-.1-.021-.143-.01-.117.03s.035.077-.048.066a.748.748 0 0 0-.293.03c-.061.021-.139.074-.008.053a.89.89 0 0 1 .349-.021 1.648 1.648 0 0 0 .515 0c.069-.029.021-.029-.011-.029s-.048-.021 0-.043a.194.194 0 0 0 .093-.125zM42.86 32.7a3.939 3.939 0 0 1-.683.181.992.992 0 0 1-.333.1.538.538 0 0 0 .325.064.873.873 0 0 1-.181.117 1.137 1.137 0 0 1 .312.022.843.843 0 0 1-.469.1.194.194 0 0 0 .149.1.759.759 0 0 1-.389.008c.034.072.072.118.122.126a.615.615 0 0 1-.386-.038c.1.123.306.166.618.131a1.51 1.51 0 0 0 .645-.232 1.794 1.794 0 0 1-.392.005 2.213 2.213 0 0 0 .616-.269.334.334 0 0 1-.194-.056 1.948 1.948 0 0 0 .565-.072.411.411 0 0 1-.245-.16 2.416 2.416 0 0 0 1.21.035c.059-.013.066-.088-.051-.08a2.081 2.081 0 0 1-.7-.093.707.707 0 0 0 .291.13 1.033 1.033 0 0 1-.834-.122z" style="fill:#6fbf5f"/><path d="M41.988 33.162a.873.873 0 0 0 .181-.117.538.538 0 0 1-.325-.064.992.992 0 0 0 .333-.1 1.521 1.521 0 0 1-.536-.059.6.6 0 0 0-.336-.021c-.064.013-.042.122.235.093a.957.957 0 0 1-.544.08.371.371 0 0 1 .019.24 1.8 1.8 0 0 0 .749.181c-.173-.064-.269-.138-.123-.152a1.619 1.619 0 0 0 .347-.08z" style="fill:#6fbf5f"/><path d="M41.54 33.634a1.933 1.933 0 0 0 1.181-.349c.093-.08.157-.053.067.029a2.03 2.03 0 0 1-1.147.422c-.192 0-.277-.088-.1-.1z"/><path d="M44.142 33.061a1.4 1.4 0 0 1-.405.061.409.409 0 0 0-.235.022c-.059.037-.061.058.019.066a2.3 2.3 0 0 0 .232.011.317.317 0 0 0-.123.109.743.743 0 0 1 .389.056.185.185 0 0 1-.141-.024 1.236 1.236 0 0 0 .872.171.473.473 0 0 1-.128.077.77.77 0 0 0 .536-.085 1.615 1.615 0 0 1-.291-.011.319.319 0 0 1 .141-.082.931.931 0 0 0-.357.021.244.244 0 0 1 .107-.117 2.3 2.3 0 0 1-.758-.072 2.29 2.29 0 0 0 .523-.1.562.562 0 0 1-.376-.1zM43.411 33.221a2.062 2.062 0 0 0-.415.12c-.056.032-.118.051.007.051s.472.013.55.024a4.08 4.08 0 0 0-.5-.035c-.053 0-.109-.005-.013-.035a2.66 2.66 0 0 1 .375-.125zM43.126 33.557a.679.679 0 0 0 .357-.075.79.79 0 0 0 .376.166c.115 0 .1.029.006.04a.7.7 0 0 1-.39-.12.613.613 0 0 1-.349-.011zM41.444 34.535a1.2 1.2 0 0 0 .741.078.669.669 0 0 0 .515.088.719.719 0 0 1 .413.008c.152.05.466.053.552.125a2.865 2.865 0 0 0-.291.013c-.04.011-.019.035.056.075a1.544 1.544 0 0 0-.8.2.457.457 0 0 1 .421-.263 1.235 1.235 0 0 0-.683.032.385.385 0 0 1-.09-.144c-.222.128-.659-.056-.832-.214zM40.865 34.127a.964.964 0 0 0 .531-.2.6.6 0 0 0 .458.021.108.108 0 0 0-.029.128 1.692 1.692 0 0 0-.5.117.719.719 0 0 1-.442.035c-.088-.048-.091-.088-.017-.1z" style="fill:#6fbf5f"/><path d="M41.825 34.074a1.692 1.692 0 0 0-.5.117.5.5 0 0 1 .035.136 3.079 3.079 0 0 1 1.087-.114c-.109.005-.317.117-.432.133a2.132 2.132 0 0 1 .632.053c.072.019.086.072.032.123s-.08.059.035.061a.705.705 0 0 0 .464-.114c-.043-.048-.155-.03-.187-.062a.494.494 0 0 0 .2-.12 2.145 2.145 0 0 1-.334-.021c-.063-.016-.111-.035-.031-.077a.439.439 0 0 0 .141-.109.589.589 0 0 1-.547-.073.619.619 0 0 0 .291-.018.393.393 0 0 0-.165-.056 1 1 0 0 1 .8.005 1.789 1.789 0 0 1 .514.029 2.042 2.042 0 0 1 .248-.231c-.426.037-1.2-.043-1.184-.27a.743.743 0 0 1-.594.254.234.234 0 0 0 .1.189 1.771 1.771 0 0 1-.509.029.394.394 0 0 0 .261.118c-.152 0-.232.029-.352.018z" style="fill:#6fbf5f"/><path d="M42.713 34.583a.705.705 0 0 0 .464-.114c-.043-.048-.155-.03-.187-.062a.494.494 0 0 0 .2-.12 6.2 6.2 0 0 0 .709-.05c.131-.04.464-.019.528-.038-.288.048-.347.072-.363.12s.1.088.166.088a.4.4 0 0 0-.31.184.179.179 0 0 0-.277.059.555.555 0 0 0-.435.083.856.856 0 0 0-.423-.046c.1-.021.08-.088-.067-.1zM44.107 33.736c.1 0 .312.008.389 0a.44.44 0 0 0-.13.093 3.981 3.981 0 0 1 .682-.032.483.483 0 0 0-.3.1c-.064.043-.026.067.056.077s.2.078.043.057a2.849 2.849 0 0 0-.525-.014c-.072.014-.112-.024-.008-.037a.613.613 0 0 0 .229-.083.8.8 0 0 1-.307.008c-.047-.013-.082-.042-.023-.056s.018-.037-.043-.032a.738.738 0 0 0-.307.157 2.079 2.079 0 0 1 .248-.231z" style="fill:#6fbf5f"/><path d="M43 33.9a.622.622 0 0 0 .488.219c.045 0 .133.064.018.069a.577.577 0 0 1-.589-.258c-.029-.04.022-.1.083-.03zM44.819 31.363a1.862 1.862 0 0 0 .733.131c.043 0 .131.045.021.053a1.288 1.288 0 0 1-.773-.147c-.064-.037-.042-.069.019-.04z"/><path d="M44.982 31.358c.247-.006.431 0 .506.069a1.657 1.657 0 0 1 .453-.059c.059.014.126-.013-.008-.045a1.93 1.93 0 0 0-.544-.024 3.16 3.16 0 0 1-.506.016.154.154 0 0 1 .1.043zM45.939 31.456c.117-.061.45 0 .554-.048-.075.088.232.1.5.027a2.678 2.678 0 0 1-.413.115.224.224 0 0 1-.219-.022.83.83 0 0 0-.418-.072z" style="fill:#6fbf5f"/><path d="M46.989 31.435c-.264.069-.571.061-.5-.027-.1.046-.437-.013-.554.048.12-.072.21-.013.3-.162.056.01.181.018.224-.04a.7.7 0 0 1 .251.09c.04.04.1-.01.053-.072.117-.045.043.051.323-.018a2.182 2.182 0 0 1 .245-.043 1.861 1.861 0 0 1-.344.224z" style="fill:#6fbf5f"/><path d="M41.836 30.217c0-.549-.056-5.145-.056-6.206 0-.254-.133-.2-.133 0v6.176c.061.014.141.024.189.03z" style="fill:#f3ea32"/><path d="M41.852 30.238h-.019v-.018l-.061.01-.131-.021-.013-6.195c0-.214.165-.243.165 0 0 .746.027 3.241.042 4.846l.014 1.381zm-.133-6.382c-.022 0-.056.051-.056.155v6.176l.154.022-.017-1.349c-.016-1.608-.043-4.1-.043-4.849 0-.112-.026-.155-.042-.155z"/><path style="fill:#f3ea32" d="m43.857 23.677.226 6.553-.04.051-.133.002-.144-6.606h.091z"/><path d="M43.894 30.302v-.019l-.144-6.624h.107l.242 6.568-.059.024-.202-6.574.091 6.588h.077l-.112.037z"/><path d="M45.765 29.209c-.016-.666-.1-3.756-.133-5.278 0-.2-.125-.168-.123.008.011 1.226.083 4.654.1 5.275.048 0 .128-.008.157 0z" style="fill:#f3ea32"/><path d="m45.667 29.23-.075-.016c-.016-.621-.088-4.049-.1-5.275a.212.212 0 0 1 .042-.147c.067-.019.115.021.115.139.024 1.165.08 3.241.112 4.457l.021.821-.114.021zm-.094-5.419a.144.144 0 0 0-.048.128c.014 1.223.086 4.638.1 5.27l.059-.016.042-.8c-.032-1.213-.088-3.292-.112-4.457 0-.088-.026-.12-.04-.12z"/><path d="m42.742 24.765-1.93-.029c-.109.392.376.384.56.282.211.16.368.147.485.016a.361.361 0 0 0 .467.014c.232.176.472 0 .418-.283z" style="fill:#fff"/><path d="M41.649 25.154a.507.507 0 0 1-.288-.12.49.49 0 0 1-.538-.05.281.281 0 0 1-.029-.251l1.948.016a.314.314 0 0 1-.042.3.275.275 0 0 1-.387.016c-.051.085-.243.17-.466-.016a.222.222 0 0 1-.2.106zm-.285-.149c.224.144.363.152.48.019.258.162.389.09.466.013.168.085.283.083.363-.013a.311.311 0 0 0 .053-.256l-1.914-.014a.291.291 0 0 0 .04.211c.149.2.4.1.512.04z"/><path d="m42.889 25.738-1.976-.008c-.338.328.1.488.48.261a1.444 1.444 0 0 0 .949.016c.206.094.446.123.547-.269z" style="fill:#fff"/><path d="M42.041 26.159a.306.306 0 0 1-.194-.066.4.4 0 0 1-.47-.094c-.189.16-.533.142-.592 0-.023-.053-.021-.144.115-.275h1.989c-.043.251-.155.366-.317.366a.6.6 0 0 1-.238-.062.387.387 0 0 1-.293.136zm-.192-.1a.383.383 0 0 0 .483-.069c.344.12.461.043.541-.261l-1.96.016c-.082.085-.122.17-.095.232.045.122.346.125.567-.006a.408.408 0 0 0 .464.088z"/><path d="m42.83 26.972-1.9-.016c-.037.342.35.3.5.211a.394.394 0 0 0 .589.045.31.31 0 0 0 .443-.024c.21.182.386-.05.37-.216z" style="fill:#fff"/><path d="M41.727 27.34a.356.356 0 0 1-.312-.162.381.381 0 0 1-.448-.011.268.268 0 0 1-.056-.211h1.919a.266.266 0 0 1-.064.245.2.2 0 0 1-.152.075.246.246 0 0 1-.165-.072c-.061.128-.269.141-.44.024a.353.353 0 0 1-.282.114zm-.307-.186a.386.386 0 0 0 .307.152.4.4 0 0 0 .279-.107c.2.1.344.1.44-.021a.36.36 0 0 0 .168.061.174.174 0 0 0 .128-.064.284.284 0 0 0 .072-.2h-1.885a.308.308 0 0 0 .062.168c.122.136.32.069.429.011z"/><path d="m42.923 28.207-2.123-.038c-.117.363.208.43.362.342.051.21.334.138.406-.016a.21.21 0 0 0 .311-.022c.03.2.275.2.464.038.387.269.749-.043.581-.3z" style="fill:#fff"/><path d="M41.327 28.66a.181.181 0 0 1-.184-.147c-.043.1-.269.051-.341-.051a.319.319 0 0 1-.022-.3l2.143.024a.243.243 0 0 1 .027.277.344.344 0 0 1-.309.165.534.534 0 0 1-.309-.106c-.144.168-.44.147-.469-.048-.014.085-.2.139-.307.032a.232.232 0 0 1-.229.152zm-.174-.165a.184.184 0 0 0 .174.127.259.259 0 0 0 .224-.135c.162.082.263.034.314-.025.086.184.293.187.467.035a.639.639 0 0 0 .309.1.31.31 0 0 0 .28-.149.221.221 0 0 0-.011-.232l-2.111-.03a.323.323 0 0 0 .032.256.267.267 0 0 0 .322.054z"/><path d="m44.811 27.7-1.77-.013c.08.363.253.456.538.245a.485.485 0 0 0 .646.03c.383.312.594-.051.586-.262z" style="fill:#fff"/><path d="M44.5 28.1a.471.471 0 0 1-.29-.125c-.062.133-.475.149-.648-.032-.224.221-.459.128-.544-.253l1.789-.006a.389.389 0 0 1-.1.326.277.277 0 0 1-.206.09zm-.293-.149a.588.588 0 0 0 .293.115.239.239 0 0 0 .179-.08.419.419 0 0 0 .121-.286h-1.754c.106.325.261.413.528.213a.543.543 0 0 0 .642.035z"/><path d="m44.63 26.484-1.712-.05c.027.434.44.421.653.232a.348.348 0 0 0 .544 0c.216.218.573.088.515-.182z" style="fill:#fff"/><path d="M43.838 26.815a.354.354 0 0 1-.283-.138.393.393 0 0 1-.306.133c-.2 0-.333-.142-.349-.376l1.73.034a.215.215 0 0 1-.027.222.354.354 0 0 1-.5-.011.28.28 0 0 1-.264.136zm-.28-.162a.365.365 0 0 0 .541 0 .359.359 0 0 0 .477.013.215.215 0 0 0 .038-.178l-1.7-.037a.328.328 0 0 0 .333.322.468.468 0 0 0 .309-.122z"/><path d="M44.854 25.12h-1.842a.42.42 0 0 0 .741.189c.085.349.421.24.565.1.21.269.7-.035.536-.29z" style="fill:#fff"/><path d="M44.011 25.562a.283.283 0 0 1-.277-.248.418.418 0 0 1-.331.163.392.392 0 0 1-.403-.355l1.858-.018a.206.206 0 0 1 .021.237.408.408 0 0 1-.339.192.28.28 0 0 1-.231-.112.371.371 0 0 1-.294.141zm-.272-.267a.342.342 0 0 0 .568.1.339.339 0 0 0 .229.1.365.365 0 0 0 .307-.176.183.183 0 0 0 0-.192l-1.828.008a.4.4 0 0 0 .391.3.49.49 0 0 0 .336-.147z"/><path d="m44.744 24.192-1.645.021a.281.281 0 0 0 .507.168.289.289 0 0 0 .437-.008c.131.2.288.067.339 0 .189.139.394.072.362-.181z" style="fill:#fff"/><path d="M43.385 24.512a.332.332 0 0 1-.24-.1.248.248 0 0 1-.064-.2l1.663-.035a.221.221 0 0 1-.032.226.18.18 0 0 1-.138.059.354.354 0 0 1-.2-.075.2.2 0 0 1-.344 0c-.024.136-.357.144-.434.008a.206.206 0 0 1-.208.123zm1.343-.317-1.629.034a.338.338 0 0 0 .072.157.285.285 0 0 0 .422-.016.311.311 0 0 0 .434-.008c.163.153.28.083.341 0a.525.525 0 0 0 .206.064.145.145 0 0 0 .112-.047.221.221 0 0 0 .042-.184z"/><path d="m46.677 24.794-2.018-.021a.226.226 0 0 0 .341.211c0 .2.283.266.464.106a.4.4 0 0 0 .632-.013c.3.248.616.072.581-.283z" style="fill:#fff"/><path d="M45.787 25.258a.414.414 0 0 1-.336-.157c-.112.165-.469.083-.467-.117-.026.1-.2.056-.274-.024a.258.258 0 0 1-.07-.19l2.037.008a.365.365 0 0 1-.072.334.375.375 0 0 1-.52-.022.306.306 0 0 1-.3.168zm-.334-.178a.422.422 0 0 0 .627-.011c.216.13.392.139.5.019a.385.385 0 0 0 .08-.291l-2-.008a.349.349 0 0 0 .075.147.211.211 0 0 0 .255.032c.049.248.323.234.464.112z"/><path d="m46.648 26.45-1.976-.008a.319.319 0 0 0 .517.224.257.257 0 0 0 .435.13.391.391 0 0 0 .624 0 .3.3 0 0 0 .4-.341z" style="fill:#fff"/><path d="M45.944 26.967a.455.455 0 0 1-.333-.157.256.256 0 0 1-.44-.142c-.088.174-.5.078-.515-.226l1.992-.011a.329.329 0 0 1-.072.3.283.283 0 0 1-.216.1.365.365 0 0 1-.117-.021.338.338 0 0 1-.3.16zm-.333-.181a.409.409 0 0 0 .623-.006c.056.006.091.014.126.014a.26.26 0 0 0 .192-.088.325.325 0 0 0 .077-.253h-1.957a.327.327 0 0 0 .507.2.272.272 0 0 0 .432.133z"/><path d="m46.544 27.937-1.56-.024a.271.271 0 0 0 .472.168.337.337 0 0 0 .517.038.328.328 0 0 0 .571-.182z" style="fill:#fff"/><path d="M46.24 28.241a.428.428 0 0 1-.277-.109c-.088.149-.371.136-.52-.04a.274.274 0 0 1-.475-.179l1.576.006a.3.3 0 0 1-.3.322zm-.28-.133a.544.544 0 0 0 .28.1.288.288 0 0 0 .288-.272h-1.544c.03.264.344.259.461.139.184.162.392.173.515.037zM44.043 30.281a16.2 16.2 0 0 1-2.279-.072A2.54 2.54 0 0 1 40.6 29.8c-.595-.358-.739-.446-1.581-.939-.131-.074-.27.019-.088.139.85.56 1.17.765 1.575 1.031a4.354 4.354 0 0 1 .949.811c.334.378.581.386.736.328a1.059 1.059 0 0 1 .629-.08 2.035 2.035 0 0 0 .725.034.9.9 0 0 0 .7.067 1.094 1.094 0 0 1 .48-.035 1.615 1.615 0 0 0 .485-.016 3.062 3.062 0 0 1 .754-.021 1.708 1.708 0 0 0 .683-.037 1.385 1.385 0 0 1 .573-.006.673.673 0 0 0 .253-.391c.171-.022.229-.046.267-.142.066-.181.133-.36.154-.44h.07l.021-.162-.141-.165.05-.312.152-.035a.7.7 0 0 0-.064-.3c-.914.038-1.812.067-2.452.08a.6.6 0 0 0-.168.3c-.392.067-.624.1-.725.118a.308.308 0 0 0-.24.138c-.131.173-.256.376-.355.507z"/><path d="M43.923 31.248a.594.594 0 0 1-.386-.106 1.881 1.881 0 0 1-.717-.032 1.126 1.126 0 0 0-.622.08c-.226.088-.485-.027-.754-.333a4.33 4.33 0 0 0-.946-.808l-1.576-1.032c-.1-.064-.1-.115-.091-.141l.006-.014.09-.04a.205.205 0 0 1 .1.027c.842.5.986.581 1.58.938a2.512 2.512 0 0 0 1.158.4 10.748 10.748 0 0 0 1.554.08h.722c.035-.059.088-.139.147-.227s.128-.187.194-.274a.314.314 0 0 1 .238-.142c.064-.016.152-.029.274-.048l.464-.072a.509.509 0 0 1 .16-.3 283.13 283.13 0 0 0 2.461-.083.589.589 0 0 1 .085.315l-.168.053-.037.3.138.149-.016.179a1.213 1.213 0 0 0-.226.443c-.04.106-.1.13-.28.152a.614.614 0 0 1-.245.389 1.647 1.647 0 0 0-.582.01 1.627 1.627 0 0 1-.687.035 2.963 2.963 0 0 0-.75.024 1.712 1.712 0 0 1-.493.013 1.119 1.119 0 0 0-.471.038 1.524 1.524 0 0 1-.326.034zm-.378-.136a.823.823 0 0 0 .7.067 1.147 1.147 0 0 1 .488-.037 1.7 1.7 0 0 0 .48-.014 2.969 2.969 0 0 1 .76-.021 1.72 1.72 0 0 0 .674-.037 1.535 1.535 0 0 1 .584-.008.694.694 0 0 0 .232-.379c.189-.034.232-.056.267-.144.066-.181.133-.357.154-.437l.091-.16-.139-.149.048-.328.166-.051a1.084 1.084 0 0 0-.078-.272c-.9.046-1.8.075-2.436.088a.673.673 0 0 0-.152.291l-.477.088c-.123.019-.208.032-.262.042a.316.316 0 0 0-.229.131l-.192.275c-.059.088-.112.17-.162.234a12.884 12.884 0 0 1-2.3-.066 2.509 2.509 0 0 1-1.167-.408c-.595-.355-.742-.443-1.584-.936h-.147c-.005.022.014.059.08.1l1.573 1.029a4.386 4.386 0 0 1 .955.816c.258.291.5.4.714.323a1.139 1.139 0 0 1 .642-.08 2.161 2.161 0 0 0 .718.034z"/><path d="M46.981 29.172c.043-.152.163-.568.378-1.352.035-.131-.09-.181-.138-.013l-.384 1.37h.144z"/><path d="m46.981 29.19-.139-.013.067-.019.072.014.011-.1c.056-.2.168-.6.349-1.261l.008-.093-.04-.006c-.019 0-.053.027-.072.1l-.4 1.362h-.019l.387-1.373c.018-.074.059-.12.1-.12.074.056.08.1.067.144-.182.662-.294 1.059-.352 1.259l-.043.106z"/><path d="M48.4 27.639c-.309.16-.458.221-.6.168a.609.609 0 0 0-.432-.024.159.159 0 0 1-.006.037c-.133.483-.229.824-.293 1.053a.961.961 0 0 0 .715-.008c.093-.1.349-.08.48-.072a.4.4 0 0 0 .1-.309.482.482 0 0 1 .018-.272 1.223 1.223 0 0 0 .021-.573z" style="fill:#fff"/><path d="m42.849 30.291.029-.093h-.232l.027.075-.056-.075-.035.08.032-.08h-.144l.022.069-.024-.069h-.088l-.035.072.035-.072h-.011l.013-.008h-.058l.018.064-.018-.064-.155.011.011.043-.011-.043h-.021l-.221-1-.16-.661.031-.008.049.083-.033-.1.035-.011.029.112h.059l-.008-.021.035-.014.01.035h.088l-.085.013.023.081h.067l-.027-.074.032-.014.459 1.259.907-1.881.032.013-.04.08h.027l.05-.126.032.014-.042.1.037-.006.043-.136.034.014-.04.117.035-.008.019-.08.034.008-.592 2.3.232-.96h-.138l-.045.141.133-.008v.037h-.142l-.04.12.155-.008v.032h-.162l-.051.157.154-.008v.032H43l-.045.141.175-.008v.035h-.184l-.058.181.189-.008v.034h-.2l-.029.093zm-.384-.106v.008l.162-.035-.066-.168-.083.01.08-.006v.035h-.093l-.029.056.026.088h.16l-.157.011zm-.8 0h-.032v-.109h-.163l-.008.077.005-.077-.168.037.006-.037h-.192.053l.024-.146h-.147l-.024.093.022-.093.032-.152.032-.147.032-.149.184-.845.034.008-.005.024.072-.053.035.005-.008.037h.037l.013-.091.035.006-.013.082.066-.008.011-.112h.035l-.011.107h.027l-.014.1h.014l-.011.122h.011l.016 1.33zm-1.144-.442c.013-.112.029-.237.048-.376a3.707 3.707 0 0 1-.267.259c.078-.094.174-.2.275-.312.037-.288.088-.621.136-.957-.405.391-.776.722-1.018.909l-.022-.027a13.851 13.851 0 0 0 1.048-.938c.075-.5.146-.99.192-1.347h.034c-.042.349-.114.826-.189 1.309a20.161 20.161 0 0 0 1.4-1.5 1.422 1.422 0 0 1-.376-.266l.03-.019a1.51 1.51 0 0 0 .368.261 4.659 4.659 0 0 0 .693-1.018 4.166 4.166 0 0 1-.672 1.029 1.369 1.369 0 0 0 .512.2 1.218 1.218 0 0 1-.533-.168 19.953 19.953 0 0 1-1.432 1.538c-.053.338-.106.677-.154.973.08-.091.168-.184.25-.275.139-.152.275-.3.389-.41l.024.024c-.114.112-.248.258-.386.408-.1.1-.192.21-.288.309-.021.144-.045.277-.064.392zm4.311-.133.016-.054-.062-.128h.014l-.075-.184h.011l-.069-.186h.008l-.067-.184-.064-.187-.218-.642.034-.011.03.1.048-.005-.019-.046.032-.013.021.053h.048l-.016-.029.032-.016.019.042.072-.01-.027-.046.03.046h.024l-.006.035.091.152h.021v.032l.09.152h.016v.019l.093.16h.011v.019l.094.154.208-.674.125.008.021-.072.032.008-.019.064.072-.019v.019h.069l-.072.011-.035.17h.1l.027-.152.034.008-.242 1.163.024.042-.037.024-.022.1.019-.1h-.128l-.016.067.018.037-.018-.034-.011.048-.032-.008.019-.088-.008-.019-.144.011-.019.058.027.062-.027-.059-.021.077.021-.08-.024-.056-.128.011-.032.1.011.037-.013-.034-.016.051zm.488-.366.066.112.152-.834-.107.011-.031.167h.1l-.109.011-.035.171h.11l-.112.008-.037.17h.111l-.111.008-.027.131.024.04h.077-.074zm.541-.024c.064-.048.128-.1.192-.146l-.038-.1h.011l-.048-.144h.008l-.043-.144-.131-.471.035-.008.011.042.069-.008-.024-.072.032-.01.027.08.074-.008-.024-.064.024-.008a8.512 8.512 0 0 1-.517-.536.875.875 0 0 1-.461.309l-.008-.035a.974.974 0 0 0 .458-.285 25.533 25.533 0 0 1-1.978-2.655l-.024-.029a1.747 1.747 0 0 1-.447.21l-.009-.034a2.057 2.057 0 0 0 .44-.2l-.317-.467.029-.018.32.466a1.33 1.33 0 0 0 .254-.2.96.96 0 0 1-.24.218l.021.032a27.035 27.035 0 0 0 1.97 2.653.281.281 0 0 0 .029-.051.383.383 0 0 1-.024.059c.2.221.395.432.595.621h.064l.04.1c.115.1.229.2.344.29a4.936 4.936 0 0 0 .44-.485 1.985 1.985 0 0 0-.048-.082 7.211 7.211 0 0 1-1.784-1.8 1.788 1.788 0 0 1-.426.214l-.011-.032a2.176 2.176 0 0 0 .421-.208 6.865 6.865 0 0 1-.466-.741l.029-.019a8.186 8.186 0 0 0 .467.744 1.6 1.6 0 0 0 .33-.28 1.146 1.146 0 0 1-.315.3 7.7 7.7 0 0 0 1.749 1.8 12.294 12.294 0 0 1-.9-2.549l-.083-.295.117.285a11.651 11.651 0 0 0 .928 2.6.076.076 0 0 1 .016.011c.045-.056.088-.115.131-.173l.026.021c-.04.059-.082.115-.128.171l.059.037c-.021-.011-.04-.024-.059-.035l-.016.019c.019.032.04.064.059.1l-.029.019-.054-.086a4.964 4.964 0 0 1-.432.475c.11.082.219.16.331.229a3.477 3.477 0 0 1-.339-.224c-.058.059-.12.115-.184.171l.139.381-.149-.373h-.006l-.016.013c-.024.022-.05.043-.077.064l.019.056.128-.01v.034h-.112l.04.123.131-.011v.035h-.123l.024.067-.026-.067h-.136l.024.072-.027-.072h-.17l.018.077-.04-.077h.016l-.008-.032a3.088 3.088 0 0 1-.194.136zm.384-.874.157.429c.058-.053.114-.109.17-.162a5.9 5.9 0 0 1-.327-.267zm1.234.605a1.287 1.287 0 0 1-.416-.064l.28-1.074a.485.485 0 0 1 .464-.024c.13.05.28-.011.584-.165l.018-.011.005.021a1.228 1.228 0 0 1-.021.581.485.485 0 0 0-.019.262.417.417 0 0 1-.095.325c-.166 0-.4-.016-.483.074a.5.5 0 0 1-.317.075zm.045-1.184a.315.315 0 0 0-.149.03L47.1 28.83a.811.811 0 0 0 .671.024c.1-.1.334-.088.472-.08a.345.345 0 0 0 .1-.282.481.481 0 0 1 .018-.285 1.2 1.2 0 0 0 .024-.541c-.3.154-.445.213-.592.157a.754.754 0 0 0-.269-.054zm-8.376 1.176a15.437 15.437 0 0 0 1.925-3.239c-.043.019-.083.032-.115.043.035-.019.077-.04.125-.07.118-.253.211-.482.275-.666l.032.011a7.864 7.864 0 0 1-.253.629 4.557 4.557 0 0 0 .5-.328l.021.026a3.087 3.087 0 0 1-.538.334 14.163 14.163 0 0 1-1.973 3.26zm1.919-.754-.013-.035a3.385 3.385 0 0 0 .762-.4l-.016-.011.022-.026.024.015a3.287 3.287 0 0 0 .632-.538 2.886 2.886 0 0 1-.6.557 2.449 2.449 0 0 0 .85.429 1.861 1.861 0 0 1-.883-.408 3.4 3.4 0 0 1-.773.414zm5.252-.275a1.482 1.482 0 0 1-.613-.459l.027-.021a1.894 1.894 0 0 0 .586.48zm-3.2-.216a3.065 3.065 0 0 0 .693-.562l.032-.006-.008.03a2.086 2.086 0 0 1-.717.538zm1.6-.021a1.658 1.658 0 0 1-.752-.5l.027-.024a1.849 1.849 0 0 0 .725.523zM41 26.975l-.013-.032a2.079 2.079 0 0 0 .645-.429 1.636 1.636 0 0 1-.632.461zm3.549-.509a1.1 1.1 0 0 1-.469-.307c-.054-.048-.107-.1-.158-.138l.024-.027c.051.043.1.091.158.141a1.674 1.674 0 0 0 .445.331zm-1.533-.011a3.165 3.165 0 0 0 .789-.506l.021.026a2.419 2.419 0 0 1-.81.48zm3.188-.024a1.228 1.228 0 0 1-.541-.474l.032-.016a1.558 1.558 0 0 0 .509.49zm-3.593-.709a1.783 1.783 0 0 1-.837-.362l.021-.03a1.994 1.994 0 0 0 .869.389.3.3 0 0 1-.053 0zm2.044-.618a1.451 1.451 0 0 1-.781-.43l.027-.021a1.811 1.811 0 0 0 .754.451zm.232-.31a1.537 1.537 0 0 0 .613-.394l.024.024a1.21 1.21 0 0 1-.637.37zm1.2-.024c-.147 0-.368-.218-.456-.36l.029-.018a.971.971 0 0 0 .437.378zm-5.1-.016a2.5 2.5 0 0 0 .648-.562l.027.021a1.8 1.8 0 0 1-.675.541zm1.485-.01a1.131 1.131 0 0 1-.706-.488l.029-.019a1.331 1.331 0 0 0 .677.507zm.632-.515-.008-.032a1.157 1.157 0 0 0 .664-.384 1.006 1.006 0 0 1-.656.416zm1.5-.053a1.5 1.5 0 0 1-.76-.4l.024-.027a1.83 1.83 0 0 0 .754.427z"/><path d="M41.559 30.8a.809.809 0 0 1 .807.029.863.863 0 0 1 .851.08.666.666 0 0 1 .84-.034.748.748 0 0 1 .842.013c.259-.123.552-.224.8.043a.671.671 0 0 0-.8.05.629.629 0 0 0-.842.016.549.549 0 0 0-.827.014.732.732 0 0 0-.864-.059.92.92 0 0 0-.807-.152z" style="fill:#4eb648"/><path d="M45.528 30.483a16.847 16.847 0 0 1-4.223-.08c-.186-.045-.136-.114.022-.08a13.342 13.342 0 0 0 2.74.11c.147-.192.373-.518.443-.608s.1-.1.242-.126c.259-.042.406-.066.629-.1v.089c-.019.013-.037.037-.051.045a4.529 4.529 0 0 0 .059.642.474.474 0 0 0 .083-.018c.053-.014.1.117.053.13z" style="fill:#c16228"/><path d="M47.418 30.539h.149a.172.172 0 0 0 .144-.107c.03-.072.12-.341.152-.453l-.117-.176a5.56 5.56 0 0 0 .061-.381l.15-.054a.231.231 0 0 0-.035-.149c-.5.019-1.986.069-2.258.075-.064 0-.1-.006-.12.09a1.677 1.677 0 0 0 .573 1.653c.037.029.083 0 .022-.051a1.825 1.825 0 0 1-.312-.405h.37a3.757 3.757 0 0 0 .141.421c.019.043.062.051.04-.013-.048-.155-.074-.328-.1-.411.1 0 .272 0 .381-.008 0 .139.021.323.024.376s.048.053.048 0v-.376c.122 0 .28-.008.338-.008-.01.077-.024.333-.032.373-.005.059.024.085.04 0s.043-.277.051-.379c.048 0 .179 0 .234-.008a2.861 2.861 0 0 1-.1.376c-.021.061.014.064.037.005a2.343 2.343 0 0 0 .115-.381z" style="fill:#c16228"/><path d="M45.768 30.481a1.8 1.8 0 0 1-.173-.571l.5-.011c.018.158.066.494.09.574-.147 0-.33.008-.413.008zM46.176 29.9c.016.118.077.528.088.574.106-.006.357-.006.4-.011 0-.109-.022-.517-.022-.576l-.466.013zM45.616 29.393a2.327 2.327 0 0 0-.019.421c.126 0 .44 0 .483-.008-.011-.107-.027-.3-.04-.426-.1.005-.357.01-.424.013zM46.133 29.38c0 .1.027.349.035.426.109 0 .376-.011.469-.013-.005-.094-.021-.392-.021-.429l-.483.016zM46.712 29.361c0 .1.013.363.01.429.118 0 .342 0 .408-.01a4.78 4.78 0 0 0 .014-.435l-.432.016zM47.223 29.342c0 .08-.01.363-.013.438.117 0 .376-.014.445-.016.019-.091.054-.336.067-.438-.109 0-.419.016-.5.016zM47.674 29.857l-.469.016c-.013.184-.035.5-.045.573l.453-.013a4.46 4.46 0 0 0 .16-.443c-.032-.051-.059-.08-.1-.133zM46.725 29.886c0 .064.013.531.013.571.086 0 .307-.006.342-.008.016-.182.04-.531.045-.576-.152 0-.3.011-.4.013zM44.8 29.774l-.189.032c-.088.141-.411.576-.451.627.227-.006.579-.014.662-.022-.006-.117-.019-.581-.022-.637zM44.886 29.758c0 .147.016.544.021.651l.4-.027c-.019-.187-.053-.634-.062-.691-.093.019-.277.051-.359.067zM42.937 28.188c.024 0 .026.021 0 .021l-2.143-.026c-.029 0-.024-.022 0-.022z"/><path d="m42.934 28.228-2.143-.028 1.072-.013 1.071.021v.019zm0-.037-1.042-.006 1.045-.013v.019zM44.622 26.474c.024 0 .026.021 0 .021l-1.7-.048c-.029 0-.024-.021 0-.021z"/><path d="m44.622 26.514-1.7-.048.869-.006.832.017v.037zm0-.037-.822-.017.819-.005v.022zM42.827 26.962c.027 0 .03.021 0 .021l-1.9-.013c-.029 0-.024-.022 0-.022z"/><path d="m42.827 27-1.9-.016.951-.019.949.016V27zm0-.035h-.933l.933-.021v.021zM42.886 25.727c.024 0 .027.022 0 .022l-1.986-.011c-.033 0-.027-.021 0-.021z"/><path d="m42.886 25.767-1.988-.01 1.988-.024v.034zm-.975-.034.975-.022v.022zM42.748 24.754c.024 0 .029.024 0 .022l-1.933-.03c-.03 0-.027-.021 0-.021z"/><path d="m42.75 24.794-1.935-.029.965-.013.968.024v-.008.026zm0-.037-.952-.005.952-.014v.019z"/><path d="M44.747 24.184c.027 0 .029.021 0 .021l-1.658.016c-.029 0-.024-.021 0-.021z" style="fill:#fff"/><path d="m43.086 24.24-.035-.029 1.696-.043-.618.027.618-.006-1.661.051zM44.848 25.112c.027 0 .03.021 0 .021h-1.831c-.03 0-.027-.021 0-.021z"/><path d="M44.848 25.149h-1.831l1.831-.032v.032zM46.648 26.434c.026 0 .029.021 0 .021h-1.976c-.026 0-.024-.021 0-.021z"/><path d="M46.648 26.471h-1.976l1.976-.032v.032zm-.968-.027.968-.029v.022l-.968.007zM46.677 24.781c.024 0 .029.021 0 .021l-2.015-.018c-.029 0-.024-.022 0-.022z"/><path d="m46.674 24.821-2.015-.021.986-.016 1.029.018v.019zm0-.037h-1.008l1.008-.016v.019zM44.811 27.684c.024 0 .029.021 0 .021l-1.775-.01c-.027 0-.024-.024 0-.024z"/><path d="m44.811 27.724-1.775-.013 1.775-.022v.016-.01.029zM46.544 27.924c.026 0 .032.024 0 .024l-1.56-.021c-.026 0-.024-.022 0-.022z"/><path d="m46.544 27.964-1.56-.021.781-.019.779.024v.016zm0-.037h-.76l.76-.016v.019z"/><path d="M47.954 28.223a.844.844 0 0 0 .024-.406.314.314 0 0 1-.181-.01l-.094-.032a1.993 1.993 0 0 1-.1.509.789.789 0 0 1-.365-.035c-.027.1-.051.184-.075.264a.951.951 0 0 0 .408 0 .716.716 0 0 1-.123.426.5.5 0 0 0 .331-.072l.013-.013a.98.98 0 0 0 .088-.365.2.2 0 0 0 .144-.038.157.157 0 0 1 .125-.04.457.457 0 0 0 .195-.04.46.46 0 0 1 .029-.157.892.892 0 0 0 .027-.123 1.427 1.427 0 0 1-.448.134z" style="fill:#d91e39"/><path d="M47.477 28.953h-.027a1 1 0 0 0 .1-.442.554.554 0 0 1-.392.018l.051-.248h.019l-.048.237h.178a1.009 1.009 0 0 0 .2-.021.639.639 0 0 1-.082.423.436.436 0 0 0 .282-.064.654.654 0 0 0 .088-.293l.043-.09a.171.171 0 0 0 .115-.035.2.2 0 0 1 .138-.045.453.453 0 0 0 .187-.038.239.239 0 0 1 .021-.146.981.981 0 0 0 .027-.12.942.942 0 0 1-.427.154 1.721 1.721 0 0 0 .016-.328.474.474 0 0 1-.005.318 3.6 3.6 0 0 0 .426-.158.249.249 0 0 1-.005.144.472.472 0 0 0-.029.152.447.447 0 0 1-.2.056.172.172 0 0 0-.122.035.2.2 0 0 1-.139.045.934.934 0 0 1-.088.355.487.487 0 0 1-.333.093zm.042-.64a.98.98 0 0 1-.263-.04 2.272 2.272 0 0 1 .263.006.884.884 0 0 0 .166-.5.236.236 0 0 1 .12.016.307.307 0 0 0 .1.016.109.109 0 0 1 .024.024.278.278 0 0 1-.134-.008.843.843 0 0 0-.093-.03 1.345 1.345 0 0 1-.077.5l-.006.011-.1.01zM41.028 18.77a3.364 3.364 0 0 0-.8.066c-.1.056-.147.08.032.115a2.115 2.115 0 0 1 .64.216.5.5 0 0 1 .253.533A1.672 1.672 0 0 0 42 21.481c.056.026.07.048.056.152a1.107 1.107 0 0 1-.082.322c-.032.046-.045.115.053.083a6.893 6.893 0 0 1-.272.453c-.461-.056-.842.008-.874.493 0 .048.013.123.082 0a.477.477 0 0 1 .355-.267.674.674 0 0 0-.136.446c.019.106.048.167.1.034a.79.79 0 0 1 .242-.33c.038-.03.064-.035.035.048a.422.422 0 0 0 .069.319c.056.059.086.035.07-.064s.008-.3.13-.367a.271.271 0 0 1 .389.077c.07.12.131.005.056-.131s-.154-.229-.282-.24c.109-.194.24-.431.269-.479s.072-.07.109-.041.064.025.1-.053a1.576 1.576 0 0 1 .2-.408.519.519 0 0 0 .152-.056c.123.179.234.379.264.422s.059.064.032.154-.128.384-.144.448c-.344.011-.5.019-.613.211-.046.082.029.114.112.072a.52.52 0 0 1 .258-.072c.059.008.088.04.03.069-.214.1-.344.237-.336.418 0 .067.032.1.082.011a.591.591 0 0 1 .366-.288c-.008.155.024.381.119.43s.1 0 .067-.091a.37.37 0 0 1 .072-.371c.149-.162.485.064.549.123s.123.077.086-.069c-.046-.2-.326-.307-.563-.339a9.522 9.522 0 0 1 .339-1.186c.138.077.248-.123.479-.038a5.743 5.743 0 0 1 1.078.595c.1.083.141.064.191.018s.139 0 .208.014.131.032.043-.147a2 2 0 0 0-.661-.725c.213.019.5.019.5-.037s-.336-.165-.472-.179a.915.915 0 0 0 .426-.213c.059-.064-.01-.077-.207-.083a2.414 2.414 0 0 1-1.224-.189c-.5-.291-.792-.6-1.04-.725a.674.674 0 0 1-.264-.371c-.165-.44-.157-.639-.541-.786a1.089 1.089 0 0 0-1.029.219z"/><path d="M41.052 18.868a3.62 3.62 0 0 0-.45-.011c-.035 0-.08.022.007.033a2.929 2.929 0 0 1 .406.1c.082.029.048.072-.024.053s-.1.011-.04.051c.309.219.341.3.261 1.05a1.222 1.222 0 0 0 .157.094c.048.026.035.061-.018.048s-.107.018-.019.034.125.059.043.056-.182.07-.016.051.226.059.034.061-.12.067-.018.067c.181 0 .128.051.08.051s-.07.061.053.05a1.106 1.106 0 0 1 .208-.008c.042.008.064.043 0 .048s-.064.051.035.051.141.029.05.048c-.034 0-.085.024.019.037.181.027.189.069.131.078s-.067.04.019.047.154.033.087.051-.106.059-.018.064.16.04.093.062-.077.063.005.058.115.045.059.077-.1.054-.136 0-.059-.077-.069-.035-.035.016-.064-.051-.08-.082-.067-.032-.05.059-.112.032a.917.917 0 0 0 1.1.224c.048-.016.056 0 .094.078s.138.242.173.3.064.008.082-.054c.072-.24.128-.418.15-.482s.122-.131.09.1a1.041 1.041 0 0 1 .707-.005 3.411 3.411 0 0 1 .76.405.172.172 0 0 0 .138.038c.072-.006.091-.016-.048-.144s-.08-.19.008-.128.134.026.067-.051a2.385 2.385 0 0 0-.269-.264.225.225 0 0 0-.173-.056c-.115-.008-.363-.008-.435-.008s-.1.008.064.064a3.524 3.524 0 0 1 .56.32c.072.05.123.168-.035.064a6.165 6.165 0 0 0-1-.528c-.759.051-1.362.152-1.812-.341a.7.7 0 0 1 .138-1c-.075-.061-.061-.1-.035-.112s.04-.029.014-.066-.027-.067 0-.083c-.08-.043-.117-.093-.112-.149-.1-.022-.141-.136-.275-.1a.235.235 0 0 1-.234-.024.16.16 0 0 0-.144-.04c-.075.006-.134-.024-.136-.058s.061-.054.16-.011c.208.091.373.133.5-.037s-.037-.331-.28-.376a.6.6 0 0 0-.512.213z" style="fill:#fff"/><path d="m43.145 21.83-.045-.03a5.493 5.493 0 0 1-.176-.306l-.047-.091-.022.024a.944.944 0 0 1-1.122-.229l.12-.024h.1l.159.128.072-.048h-.013l-.109-.074.08-.067a.65.65 0 0 0-.107-.021v-.035c.054.005.131.019.134.056l-.08.064c.117 0 .136.016.144.045-.069.08-.1.1-.126.1l-.2-.13-.006.005-.09.018a.875.875 0 0 0 1.029.176c.08 0 .082.024.112.08s.1.184.146.262l.046.085.034-.088c.072-.237.128-.419.15-.483l.005-.013.072-.059c.056.038.059.094.048.179.045-.088.349-.152.7-.024a3.409 3.409 0 0 1 .762.405.14.14 0 0 0 .1.038c.062-.014.048-.038-.034-.115-.07-.061-.1-.12-.086-.155h.115a.676.676 0 0 0-.224-.282.23.23 0 0 0-.165-.056c-.115-.008-.363-.008-.435-.008a3.927 3.927 0 0 1 .635.354c.037.027.085.083.074.118a.131.131 0 0 1-.13-.024 5.121 5.121 0 0 0-.992-.528l-.208.016a7.18 7.18 0 0 1-.565.029 1.307 1.307 0 0 1-1.048-.392.713.713 0 0 1-.146-.56.628.628 0 0 1 .29-.466.073.073 0 0 1-.064-.072h-.005l.019-.147a.239.239 0 0 1-.094-.173c-.026.008-.059-.014-.088-.038a.2.2 0 0 0-.12-.053c-.229.048-.232.029-.293-.021a.17.17 0 0 0-.117-.038c-.115 0-.166-.032-.168-.074.1-.054.141-.046.181-.027.184.08.368.12.48-.032a.153.153 0 0 0 .032-.16.384.384 0 0 0-.3-.189.779.779 0 0 0-.483.2l-.117.011c-.094-.005-.216-.013-.331-.008.1-.128.237-.032.333-.024.174-.077.326-.219.523-.219.245.04.37.12.408.219a.191.191 0 0 1-.035.194c-.122.166-.328.128-.522.043a.255.255 0 0 0-.094-.024c-.045.043.019.059.075.059a.205.205 0 0 1 .157.045.24.24 0 0 0 .219.021.292.292 0 0 1 .2.051.193.193 0 0 0 .087.051.2.2 0 0 0 .118.152l.042.157-.018.133a.6.6 0 0 0-.275.443.676.676 0 0 0 .139.533 1.285 1.285 0 0 0 1.015.367c.176 0 .365-.014.562-.03l.216-.013a4.9 4.9 0 0 1 1 .53c.083.032.054-.01.016-.034a3.5 3.5 0 0 0-.554-.32c-.123-.043-.136-.056-.131-.075a2.778 2.778 0 0 1 .509-.016.251.251 0 0 1 .168.051 2.284 2.284 0 0 1 .288.274v.112l-.136-.056c-.016.019 0 .062.067.12.09.086.114.118.1.147l-.093.032a.2.2 0 0 1-.125-.045 3.3 3.3 0 0 0-.755-.4.859.859 0 0 0-.69 0 .406.406 0 0 0-.032-.152 2.162 2.162 0 0 0-.2.528c-.021.064-.043.093-.069.093zm-1.36-1.021-.136-.091.091-.048a1.085 1.085 0 0 0-.232 0h-.019l-.09-.045.082-.048a.308.308 0 0 0-.106-.011c-.051 0-.118-.016-.12-.053s.045-.046.138-.046c.072 0 .1-.013.1-.018l-.088-.03-.048.022-.107-.03c0-.034.069-.058.115-.058l-.1-.062h.048l-.013.009c.053 0 .141.024.139.064l-.152.051.12-.011c.056 0 .122.014.122.048s-.045.048-.136.051-.1.016-.1.016c.136.013.23.008.23.059l-.083.05h.229l.107.048-.088.042c.107.008.179.014.181.048l-.08.043zm-.437-.557c-.051-.032-.093-.062-.147-.1.072-.765.04-.837-.261-1.048l.029-.04c.315.243.336.352.259 1.077.051.021.1.051.149.075l-.029.032z"/><path d="M42.27 18.807a.747.747 0 0 0-.27-.173c-.067-.024-.075.042-.037.074-.03.043-.04.149.01.179s.053.069 0 .093c-.072.037-.046.229.064.176.034-.019.064-.013.058.016a.06.06 0 0 0 .04.075c.032.008.027.053.019.072s.006.026.04.029.043.091-.024.12c.08 0 .1-.016.123.051s.109.077.109.16-.016.093-.109.08-.131.013-.158.05-.037.072.035.075.088.037.016.069-.2.011-.213.08 0 .1.056.075.165-.069.21-.1a.076.076 0 0 1 .12.029c.035.059.008.123-.056.072s-.09 0-.125.024a.246.246 0 0 1-.149.048c-.059 0-.1.008-.091.139.022.392.325.682.885.674s.835-.013.917 0a.825.825 0 0 0-.365-.149c-.067.008-.12.019-.091-.032s0-.05-.032-.074-.066-.051-.125.01a.6.6 0 0 1-.264.147c-.069.016-.152.011-.088-.053s.211-.088.254-.118.045-.048.045-.069-.011-.083.072-.037a2.066 2.066 0 0 0 .5.234c.07 0 .115-.032.054-.074s-.08-.1-.062-.118.03-.045.136.016.288.144.355.171.152.019.016-.08-.552-.373-.667-.459-.066.016-.053.051-.08.072-.128.032-.08-.083-.016-.12.08-.04-.019-.128-.125-.08-.1-.008.03.152-.072.115-.151-.088-.088-.128.15-.062.04-.152-.074 0-.1.051-.109.05-.154.01-.07-.08-.038-.112.03-.051.077-.026.118.01.033-.065-.12-.045-.1 0-.051.12-.158.019c-.05-.048-.05-.114 0-.125s.059-.037.021-.093c-.221-.323-.13-.584-.352-.824z" style="fill:#fff"/><path d="M42.809 21.014c-.52 0-.856-.264-.882-.69a.18.18 0 0 1 .026-.131.506.506 0 0 0 .221-.069l.086-.051.09.04-.05-.1c-.08.034-.155.066-.211.093l-.12.013c.011-.144.069-.152.128-.159l.125-.049-.117-.042c.048-.1.08-.131.149-.131l.1.008-.008-.149-.122-.125c.061-.016.08-.006.1.042.077.083.109.11.109.166s0 .1-.075.1l-.1-.008a.109.109 0 0 0-.1.048l.1.088a.273.273 0 0 1-.155.085c-.058.008-.1.016-.1.046a.412.412 0 0 0 .24-.043c.094-.019.12 0 .142.034l-.03.118-.09-.04a.362.362 0 0 1-.224.1.1.1 0 0 0-.075.117c.024.408.349.661.848.661V21l.021-.016.741-.01h.179a1.969 1.969 0 0 0-.357-.115l-.123-.01-.011-.112-.01.016-.115-.006.013.014a.653.653 0 0 1-.274.149l-.128-.019a.342.342 0 0 1 .208-.154l.208-.134a1.922 1.922 0 0 0 .485.23.3.3 0 0 0-.027-.139c.086-.077.12-.064.171-.032.106.059.285.139.349.168a1.184 1.184 0 0 0-.32-.269c-.141-.1-.285-.2-.346-.24l-.12.1c-.091-.045-.123-.077-.12-.112l.09-.085a.714.714 0 0 0-.149-.128c.029-.03.056-.011.107.034s.08.072.077.1l-.091.083.086.074.05-.12.091.024c.061.048.2.144.344.24s.258.176.322.222.086.077.078.1l-.112.008a4.265 4.265 0 0 1-.355-.171.205.205 0 0 0-.093-.037l.037.109-.064.1a1.942 1.942 0 0 1-.506-.234c-.046.05-.051.074-.1.106a.784.784 0 0 0-.25.112.48.48 0 0 0 .325-.114l.146-.016.011.01.029.088a.975.975 0 0 1 .451.157.328.328 0 0 1-.187.027l-.762.008zm.274-.746c-.08-.032-.122-.067-.125-.1l.139-.117-.064-.064-.006.008-.159.085a.132.132 0 0 1-.091-.032l-.059-.087.075-.094-.1.051a.17.17 0 0 1-.112-.053.13.13 0 0 1-.04-.11l.069-.05-.01.04c.045.13.077.138.093.138l.045-.1a.124.124 0 0 1 .128.034v.111l-.106.011.024.1.08.011.074-.021-.005-.051.117-.013c.043.034.062.064.062.09v.011l-.075.064c-.045.056-.016.082.059.112l.066-.1h-.016a.277.277 0 0 1 .027-.04c.027.094.027.134.008.155l-.1.011zm-.463-.589a1.522 1.522 0 0 1-.187-.475.758.758 0 0 0-.176-.384.747.747 0 0 0-.257-.17.4.4 0 0 0-.037.184l.072.106c-.072.069-.082.12-.072.157l.162.123.051.1c.051.064.059.1.04.133l-.133-.288c-.117.014-.147-.016-.157-.061a.134.134 0 0 1 .045-.144l-.045-.122a.213.213 0 0 1 .026-.144l.053-.083a.845.845 0 0 1 .275.179.825.825 0 0 1 .184.4 1.162 1.162 0 0 0 .168.424l-.016.059z"/><path d="M42.308 18.85c-.019.029-.024.029-.062.05s-.053.112.019.1a.142.142 0 0 0 .1-.058.548.548 0 0 0-.058-.093zM42.081 18.668c-.056.054-.064.078-.037.078s.018.005-.006.045.051.056.078.029.034-.04.051 0 .058 0 .087-.029a.718.718 0 0 0-.173-.123zM41.98 18.98c-.072.037-.046.229.064.176.034-.019.064-.013.058.016a.061.061 0 0 0 .006.048.354.354 0 0 0 .12-.088c.069-.075 0-.072-.1-.072s-.134-.019-.035-.077.032-.088-.091-.072c.019.026.011.053-.026.069zM42.4 19.409c-.056-.058-.021-.088.038-.117a.052.052 0 0 0 .029-.024 1.832 1.832 0 0 0-.045-.187c-.032.009-.064.075-.078.11s-.026.077-.077.064-.085.034-.093.088h.029c.021 0 .032.029.024.059.131-.006.155.085.176.146s.053.059.075.022-.024-.107-.078-.166z" style="fill:#c16228"/><path d="M42.436 20.169c-.024.053-.024.048-.1.053a.393.393 0 0 0-.218.062c-.022.026-.155.032-.155.09s0 .11.056.112.067.011.045.056-.037.115.064.123.174-.024.2.032 0 .152.016.187.091.055.2.088a1.817 1.817 0 0 0 .421.023c.08-.007.051-.058-.032-.063s-.141-.019-.16-.08-.037-.094.008-.144.091-.088.064-.174-.069-.184-.165-.21-.067-.16-.163-.174c-.035 0-.067 0-.077.019z" style="fill:#f3ea32"/><path d="M41.967 20.955c.085.009.154.033.087.051s-.106.059-.018.064.16.04.093.062-.077.063.005.058.115.045.059.077-.1.054-.136 0-.059-.077-.069-.035-.035.016-.064-.051-.08-.082-.067-.032-.05.059-.112.032a1.36 1.36 0 0 0 .208.174.494.494 0 0 1 .221 0 .773.773 0 0 1 .211.061c.061.035.1-.024.075-.09s-.027-.043-.062-.008-.04-.014-.037-.091-.037-.045-.053-.005-.048-.027-.03-.067 0-.053-.034-.042-.038 0-.043-.073-.034-.061-.048-.031-.037-.014-.083-.07-.079-.021-.154.008a.1.1 0 0 0 .051.013z" style="fill:#c16228"/><path d="M42.846 21.4a.9.9 0 0 1-.895-.05.475.475 0 0 1 .223 0 .773.773 0 0 1 .211.061c.061.035.1-.024.075-.09.056.069.1.117.16.112a1.156 1.156 0 0 0 .226-.03zM42 19.577c-.021-.08-.045-.1-.09-.1a.186.186 0 0 1-.11-.024c-.05-.018-.111.006-.122.091a.244.244 0 0 1-.136.184.215.215 0 0 0-.115.187.24.24 0 0 1-.066.173c-.024.026-.054.058-.083.093a.856.856 0 0 0 .093.051c.048.026.035.061-.018.048s-.107.018-.019.034.125.059.043.056-.182.07-.016.051.226.059.034.061-.12.067-.018.067c.181 0 .128.051.08.051s-.07.061.053.05a.186.186 0 0 0 .04-.067c.018-.059.04-.227.106-.275a.229.229 0 0 0 .1-.165.746.746 0 0 1 .169-.315.248.248 0 0 0 .075-.251z" style="fill:#f3ea32"/><path d="M41.86 19.583c-.069-.046-.136-.019-.136.069s-.043.109-.1.139a.241.241 0 0 0-.12.17c-.008.067.01.112-.04.163s-.054.1-.019.128a.12.12 0 0 1 .051.077c.013.043.1 0 .1-.053s.018-.048.072-.078.141-.17.119-.208-.069-.071 0-.127.128-.057.128-.11a.111.111 0 0 1 .04-.093c.019-.019-.046-.048-.088-.077z" style="fill:#c16228"/><path d="M41.86 19.511c-.046-.016-.072.077-.011.093s.075-.069.011-.093zM41.847 19.633c-.049.006-.1.07-.022.059s.112-.069.022-.059zM41.753 19.753c-.05.024-.04.091.032.046s.091-.107-.032-.046zM41.676 19.855c-.051.024-.04.09.032.042s.09-.1-.032-.042z"/><path d="M41.572 19.9c-.048.024-.016.09.056.043s.069-.1-.056-.043zM41.636 19.961c-.051.024-.019.091.053.043s.069-.1-.053-.043z"/><path d="M41.551 19.988c-.051.024-.019.09.053.042s.069-.1-.053-.042zM41.6 20.057c-.048.027-.016.091.056.045s.067-.106-.056-.045z"/><path d="M41.519 20.1c-.048.024-.016.09.056.042s.069-.1-.056-.042z"/><path d="M41.527 20.164c-.048.024-.019.09.056.042s.066-.1-.056-.042z"/><path d="M41.487 20.774c-.051.006-.083.078-.019.091s.077.021.077.069.019.115.088.12.125-.072.067-.1-.109-.045-.115-.1a.1.1 0 0 0-.1-.086z" style="fill:#c16228"/><path d="M43.267 20.358c.011.011.022.024.035.035.048.04.139 0 .128-.032s-.064-.139.053-.051.533.363.667.459.048.109-.016.08-.245-.109-.355-.171-.117-.037-.136-.016 0 .062.038.1c-.064.008-.171 0-.2-.075a1.753 1.753 0 0 0-.187-.264.1.1 0 0 1-.027-.064z" style="fill:#f3ea32"/><path d="M46.869 32.248c-.091.061-.211.171-.131.323l.027-.016a8.674 8.674 0 0 0 .92-1.352l.008-.043a1.293 1.293 0 0 1-.326.2c.043.117-.162.269-.271.312a.131.131 0 0 1-.064.2c.021.064-.051.064-.139.1a.357.357 0 0 0-.16.109.241.241 0 0 1 .149-.035c.038.011.046.064-.021.08a.229.229 0 0 0-.131.08c.094-.037.23-.018.139.043z" style="fill:#6fbf5f"/><path d="M42.566 20.225c-.106-.093-.133-.035-.09.021s.008.088-.086.1a2.472 2.472 0 0 1-.293.034c-.059 0-.125.08.011.072a1.979 1.979 0 0 0 .432-.08c.061-.026.112-.072.026-.149z"/><path d="m42.092 20.473-.08-.061.085-.048a2.409 2.409 0 0 0 .291-.032l.1-.03-.03-.045.016-.1a.181.181 0 0 1 .1.054l.051.1c0 .032-.032.059-.083.08a1.884 1.884 0 0 1-.437.08h-.016zm.464-.235c-.059.1-.1.118-.163.128-.1.014-.237.035-.3.035l-.005.053.013-.016a2.02 2.02 0 0 0 .429-.08l.078-.048-.056-.072z"/><path d="M42.777 20.388c-.091-.078-.12-.056-.1 0s-.018.072-.077.088a3.407 3.407 0 0 1-.384.106c-.1.011-.12.08.027.075a1.51 1.51 0 0 0 .456-.141c.032-.022.042-.064.08-.043s.066-.019 0-.085z"/><path d="M42.233 20.676c-.1 0-.112-.032-.112-.048v-.019l.093-.045a2.762 2.762 0 0 0 .368-.1l.054-.016-.027.046a3 3 0 0 1-.389.106l.013.059.011-.016a1.564 1.564 0 0 0 .448-.139l.1-.045-.1-.1c.034-.029.061-.013.1.016l.045.1-.093.029a1.294 1.294 0 0 1-.5.174z"/><path d="M42.841 20.62a1.458 1.458 0 0 1-.291.128c-.066.018-.117.09.019.08a.9.9 0 0 0 .344-.163c.045-.024.067-.045.1-.04s.1-.048-.018-.112-.192-.035-.134.016.016.069-.021.091z"/><path d="m42.542 20.846-.077-.053.08-.061a1.615 1.615 0 0 0 .288-.126l-.006-.12a.2.2 0 0 1 .179.011c.075.04.083.077.075.1l-.139.07a.922.922 0 0 1-.37.178zm.339-.352-.021.136a1.69 1.69 0 0 1-.3.136l-.014.062.027-.019a.724.724 0 0 0 .3-.136l.138-.067c-.059-.1-.1-.112-.125-.112zM41.711 18.794a.161.161 0 1 0-.184.263c.17.115.351-.152.184-.263z"/><path d="m41.489 18.9.054.005a.1.1 0 0 0 .125.115.119.119 0 0 1-.179-.12zM42.177 21.545a2.871 2.871 0 0 0 .3.037c-.032.067-.061.109-.08.157s-.027.051-.032-.021-.043-.12-.08-.045a.939.939 0 0 1-.077.136c-.019.032-.048.045-.038-.035a1.611 1.611 0 0 0 0-.229z" style="fill:#fff"/><path d="m42.548 35.53-.014-.006c-5.827-2.311-6.643-7.059-6.659-11.847h.035a29.628 29.628 0 0 1 0-2.191c.021-.941.04-1.829.016-2.655a17.594 17.594 0 0 1 6.622-1.231 17.957 17.957 0 0 1 6.6 1.194c-.005.861.016 1.749.037 2.69.016.712.032 1.445.03 2.191l-.035.035c.013 4.8-.824 9.512-6.622 11.812l-.013.006zm-6.636-11.818c.048 4.724.859 9.445 6.636 11.743 5.763-2.293 6.582-6.995 6.6-11.743zm6.636-6.038a17.848 17.848 0 0 0-6.574 1.186c.045.8.024 1.685 0 2.629a82.227 82.227 0 0 0-.029 2.188l13.2-.037c0-.73-.013-1.453-.029-2.151a49.989 49.989 0 0 1-.019-2.661 18.182 18.182 0 0 0-6.552-1.154z"/></g></g></g></svg>