<svg xmlns="http://www.w3.org/2000/svg" viewBox="0 0 55 55"><path d="M49.466 19.733H5.533c.184-.517.387-1.025.6-1.527a23.54 23.54 0 0 1 3.854-6.062 23.282 23.282 0 0 1 38.87 6.062c.222.502.421 1.01.609 1.527z"/><path d="M50.8 27.5a23.149 23.149 0 0 1-1.078 7c-.084.256-.167.513-.256.764H5.533a18.009 18.009 0 0 1-.256-.764 23.306 23.306 0 0 1 0-14.006c.078-.256.167-.513.256-.764h43.933c.089.251.172.508.251.764A23 23 0 0 1 50.8 27.5z" style="fill:#d9131a"/><path d="M49.466 35.267c-.188.517-.387 1.03-.607 1.532a23.314 23.314 0 0 1-42.724 0c-.215-.5-.418-1.015-.6-1.532z" style="fill:#028832"/><path d="M49.717 20.5H5.277c.078-.256.167-.513.256-.764.184-.517.387-1.025.6-1.527h42.726c.22.5.419 1.01.607 1.527.089.248.172.505.251.764zM49.722 34.5c-.084.256-.167.513-.256.764-.188.517-.387 1.03-.607 1.532H6.135a24.443 24.443 0 0 1-.856-2.296z" style="fill:#fff"/><path d="m36.558 27.5-12.113 7-1.323.764-2.647 1.536-10.486 6.056A23.411 23.411 0 0 1 6.135 36.8a24.443 24.443 0 0 1-.856-2.296 23.306 23.306 0 0 1 0-14.006c.078-.256.167-.513.256-.764.184-.517.387-1.025.6-1.527a23.54 23.54 0 0 1 3.854-6.062l10.486 6.062 2.647 1.527 1.318.764z" style="fill:#1447ad"/><path style="fill:#fbdc1d" d="m13.431 20.544 3.127 4.294 5.058-1.648-3.123 4.305 3.128 4.299-5.058-1.637-3.117 4.299-.005-5.314-5.057-1.637 5.052-1.647-.005-5.314z"/></svg>