<svg xmlns="http://www.w3.org/2000/svg" viewBox="0 0 55 55"><path d="M48.561 17.537H6.439a22.623 22.623 0 0 1 1.4-2.526 23.294 23.294 0 0 1 40.726 2.526zM48.561 37.463a23.294 23.294 0 0 1-40.726 2.526 23.631 23.631 0 0 1-1.4-2.526z" style="fill:#0bac2f"/><path d="M50.8 27.5a23.1 23.1 0 0 1-2.239 9.963H6.439a23.286 23.286 0 0 1 0-19.926h42.122A23.1 23.1 0 0 1 50.8 27.5z" style="fill:#fecd17"/><path d="m20.337 27.5-9.975 9.963-2.527 2.526a23.631 23.631 0 0 1-1.4-2.526 23.286 23.286 0 0 1 0-19.926 22.623 22.623 0 0 1 1.4-2.526l2.527 2.526z" style="fill:#d11133"/><path d="m27.932 21.464 1.496 4.613h4.848l-3.923 2.846 1.496 4.613-3.917-2.851-3.923 2.851 1.496-4.613-3.923-2.846h4.848l1.502-4.613zM42.745 21.464l1.496 4.613h4.849l-3.923 2.846 1.501 4.613-3.923-2.851-3.923 2.851 1.496-4.613-3.918-2.846h4.844l1.501-4.613z"/></svg>