<svg xmlns="http://www.w3.org/2000/svg" viewBox="0 0 55 55"><path d="M49.472 35.268a23.3 23.3 0 0 1-43.939 0z"/><path d="M50.8 27.5a23.161 23.161 0 0 1-1.328 7.768H5.533a23.3 23.3 0 0 1 0-15.536h43.934A23.04 23.04 0 0 1 50.8 27.5z" style="fill:#fff"/><path d="M49.467 19.732H5.533a23.3 23.3 0 0 1 43.934 0z" style="fill:#cd1225"/><path style="fill:#00793d" d="m17.133 22.905 1.141 3.513h3.69l-2.985 2.169 1.139 3.508-2.985-2.169-2.989 2.169 1.144-3.508-2.99-2.169h3.691l1.144-3.513zM38.128 22.905l1.14 3.513h3.69l-2.985 2.169 1.14 3.508-2.985-2.169-2.99 2.169 1.139-3.508-2.985-2.169h3.691l1.145-3.513z"/></svg>