<svg xmlns="http://www.w3.org/2000/svg" viewBox="0 0 55 55"><path d="M48.948 18.379a22.451 22.451 0 0 0-1.124-2.279 23.317 23.317 0 0 0-40.654 0 22.207 22.207 0 0 0-1.119 2.275A23.333 23.333 0 0 0 7.17 38.9 23.426 23.426 0 0 0 13 45.737 23.316 23.316 0 0 0 47.824 38.9a24.363 24.363 0 0 0 1.124-2.281 23.386 23.386 0 0 0 0-18.242z" style="fill:#3f5eb7"/><path d="M48.948 36.621a24.363 24.363 0 0 1-1.124 2.279H7.17a22.93 22.93 0 0 1-1.119-2.281zM48.948 18.379H6.051A22.207 22.207 0 0 1 7.17 16.1h40.654a22.451 22.451 0 0 1 1.124 2.279z" style="fill:#fed818"/><path d="M50.8 27.5a23.246 23.246 0 0 1-1.852 9.121H6.051a23.4 23.4 0 0 1 0-18.242h42.9A23.246 23.246 0 0 1 50.8 27.5z" style="fill:#b00d0c"/><path style="fill:#fff" d="m42.955 24.89-2.213.79 2.213.79 2.212-.79-2.212-.79z"/><path d="m42.955 24.843-1.476.528-.12.042-.115.042-.01.005-.094.032-.12.047-.084.026-.152.057-.084.027-.084.031.084.031.084.032.152.052.084.031.114.042.095.037h.01l.115.042.125.042 1.476.528 2.337-.837zm-1.465 1.062-.209-.073-.081-.032-.151-.052-.089-.031-.094-.037.094-.037.089-.026.151-.057.079-.027.219-.078.079-.031h.005l.063-.021 1.308-.466 2.081.743-2.081.748-1.313-.471-.063-.021z"/><path d="M41.511 25.947H9.482a.268.268 0 0 1-.267-.267.268.268 0 0 1 .267-.267h32.029a.268.268 0 0 1 .267.267.269.269 0 0 1-.267.267z" style="fill:#fed818"/><path d="M25.141 25.413a.082.082 0 0 0-.016.042h.434v-.042zm-1.47 0v.042h.22a.306.306 0 0 0-.032-.042zm17.976-.01a.259.259 0 0 0-.063-.021h-.005a.138.138 0 0 0-.068-.011H9.482a.309.309 0 0 0 0 .618h32.029a.243.243 0 0 0 .068-.006.28.28 0 0 0 .063-.026.308.308 0 0 0 .177-.277.318.318 0 0 0-.172-.28zm-32.165.5a.225.225 0 1 1 0-.45h32.029a.225.225 0 0 1 0 .45zm14.377-.492h-.188v.042h.22a.306.306 0 0 0-.032-.04zm1.282 0a.082.082 0 0 0-.016.042h.434v-.042z"/><path d="M41.014 25.989v-.084a.225.225 0 0 0 0-.45v-.084a.309.309 0 1 1 0 .618z"/><path d="M40.747 25.989v-.084a.225.225 0 0 0 0-.45v-.084a.309.309 0 1 1 0 .618z"/><path d="M40.475 25.989v-.084a.225.225 0 0 0 0-.45v-.084a.309.309 0 1 1 0 .618z"/><path style="fill:#fff" d="m45.088 23.337-2.212.79 2.212.789 2.213-.789-2.213-.79z"/><path d="m45.088 23.29-1.469.528-.121.042-.115.042h-.015l-.089.031-.126.047-.078.027-.157.057-.084.026-.084.032.084.031.084.031.157.053.078.031.12.042.095.036h.01l.12.042.115.042 1.475.528 2.343-.836zm-1.365 1.1-.089-.037-.209-.073-.079-.031h-.005l-.152-.052-.078-.032-.1-.036.1-.032.078-.031.152-.052h.005l.079-.032.219-.078.079-.032.058-.021 1.307-.465 2.087.743-2.087.748-1.307-.477z"/><path d="M43.645 24.393H11.621a.265.265 0 0 1-.267-.266.265.265 0 0 1 .267-.267h32.024a.267.267 0 0 1 .266.267.267.267 0 0 1-.266.266z" style="fill:#fed818"/><path d="M43.781 23.849a.338.338 0 0 0-.058-.021.173.173 0 0 0-.073-.01H11.621a.309.309 0 0 0 0 .617h32.024a.22.22 0 0 0 .136-.031.3.3 0 0 0 .172-.277.31.31 0 0 0-.172-.278zm-32.16.5a.223.223 0 0 1-.225-.224.226.226 0 0 1 .225-.225h32.024a.227.227 0 0 1 .225.225.223.223 0 0 1-.225.224z"/><path d="M43.148 24.435v-.084a.223.223 0 0 0 .225-.224.227.227 0 0 0-.225-.225v-.084a.314.314 0 0 1 .314.309.31.31 0 0 1-.314.308z"/><path d="M42.881 24.435v-.084a.223.223 0 0 0 .225-.224.226.226 0 0 0-.225-.225v-.084a.309.309 0 0 1 .309.309.306.306 0 0 1-.309.308z"/><path d="M42.614 24.435v-.084a.223.223 0 0 0 .225-.224.226.226 0 0 0-.225-.225v-.084a.309.309 0 0 1 .309.309.306.306 0 0 1-.309.308z"/><path d="M49.215 27.913H5.784a.411.411 0 0 1-.413-.413.411.411 0 0 1 .413-.413h43.431a.414.414 0 0 1 .413.413.414.414 0 0 1-.413.413z" style="fill:#fed818"/><path d="m7.416 27.871.037.006v-.006zm41.8-.826H5.779a.455.455 0 1 0 0 .91h43.436a.455.455 0 0 0 0-.91zm0 .826H5.779a.371.371 0 0 1 0-.742h43.436a.371.371 0 1 1 0 .742zm-41.8 0 .037.006v-.006z"/><path d="M27.975 33.368c-.292-.068-.774-.146-.878-.429a.343.343 0 0 1 0-.235c.068-.115.24-.136.345-.147a8.731 8.731 0 0 0 .894-.214c.471-.11.785-.183.816-.34.021-.12-.125-.24-.256-.345a3.763 3.763 0 0 0-1.072-.471c-.382-.146-.487-.2-.534-.319a.52.52 0 0 1 .089-.471c.105-.146.22-.146.4-.256a1.422 1.422 0 0 0 .533-.6c.162-.324.032-.4.194-.858a1.333 1.333 0 0 1 .345-.617c.246-.22.492-.188.6-.429a.426.426 0 0 0 .021-.3c-.047-.162-.188-.225-.319-.324a1.807 1.807 0 0 1-.471-.534c-.188-.334-.078-.632-.13-1.558a.59.59 0 0 0-.11-.351c-.115-.125-.225-.083-.314-.2-.12-.147.021-.293-.089-.487a1.08 1.08 0 0 0-.512-.4c-.356-.178-.455-.115-.6-.257s-.12-.292-.2-.653c-.131-.586-.3-.617-.346-.973a1.835 1.835 0 0 1 .346-1.135 3.835 3.835 0 0 1 .564-.811c-7.06.147-12.85 7.835-12.85 7.835s5.9 7.835 13.054 7.835a10.574 10.574 0 0 0 2.668-.351 1.72 1.72 0 0 0-.33-.633 3.737 3.737 0 0 0-1.858-.972z"/><path d="M40.549 27.5s-5.9-7.835-13.05-7.835h-.2a3.835 3.835 0 0 0-.564.811 1.835 1.835 0 0 0-.346 1.135c.048.356.215.387.346.973.078.361.052.507.2.653s.241.079.6.257a1.08 1.08 0 0 1 .512.4c.11.194-.031.34.089.487.089.115.2.073.314.2a.59.59 0 0 1 .11.351c.052.926-.058 1.224.13 1.558a1.807 1.807 0 0 0 .471.534c.131.1.272.162.319.324a.426.426 0 0 1-.021.3c-.1.241-.35.209-.6.429a1.333 1.333 0 0 0-.345.617c-.162.455-.032.534-.194.858a1.422 1.422 0 0 1-.533.6c-.183.11-.3.11-.4.256a.52.52 0 0 0-.089.471c.047.115.152.173.534.319a3.763 3.763 0 0 1 1.072.471c.131.105.277.225.256.345-.031.157-.345.23-.816.34a8.731 8.731 0 0 1-.894.214c-.105.011-.277.032-.345.147a.343.343 0 0 0 0 .235c.1.283.586.361.878.429a3.737 3.737 0 0 1 1.862.983 1.72 1.72 0 0 1 .33.633c5.886-1.533 10.374-7.495 10.374-7.495z" style="fill:#fff"/><path d="M40.585 27.474c-.005 0-.1-.131-.272-.345a.415.415 0 0 1-.042-.042.254.254 0 0 0-.031-.042 20.291 20.291 0 0 0-.931-1.056.55.55 0 0 1-.037-.042.146.146 0 0 1-.036-.042c-.141-.141-.283-.293-.434-.45a.277.277 0 0 1-.042-.042l-.041-.042a27.06 27.06 0 0 0-.969-.936.347.347 0 0 1-.047-.042.455.455 0 0 0-.047-.042c-.162-.146-.329-.3-.507-.449a1997970460473.852 1997970460473.852 0 0 1-.094-.084c-.11-.089-.215-.178-.319-.267a20.066 20.066 0 0 0-4.163-2.7 11.805 11.805 0 0 0-5.273-1.227 12.033 12.033 0 0 0-5.005 1.291A20.013 20.013 0 0 0 18.2 23.6c-.083.073-.167.141-.251.214-.016.01-.031.026-.052.042a.229.229 0 0 0-.041.042c-.179.151-.346.3-.514.449a1507902234317.341 1507902234317.341 0 0 1-.094.084c-.35.324-.674.638-.962.936a.444.444 0 0 0-.047.042.277.277 0 0 1-.042.042c-.152.157-.293.309-.429.45a.313.313 0 0 1-.036.042l-.042.042c-.4.428-.711.794-.931 1.056l-.032.042c-.011.016-.026.026-.036.042-.178.214-.267.34-.272.345l-.021.026.021.026s.094.126.272.345a.313.313 0 0 1 .036.042.255.255 0 0 0 .032.042 27.632 27.632 0 0 0 3.509 3.494 19.863 19.863 0 0 0 4.158 2.7 12.016 12.016 0 0 0 5.074 1.237 10.67 10.67 0 0 0 2.678-.356 18.743 18.743 0 0 0 7.422-4.32 28.635 28.635 0 0 0 2.641-2.751.232.232 0 0 1 .037-.042.146.146 0 0 1 .036-.042l.272-.345.014-.026zm-.424.439a.254.254 0 0 1-.03.042 27.09 27.09 0 0 1-2.59 2.683 18.506 18.506 0 0 1-7.385 4.3 10.411 10.411 0 0 1-2.652.351c-3.682 0-7.024-2.124-9.184-3.907a27.409 27.409 0 0 1-3.446-3.431c-.011-.016-.026-.026-.037-.042a.269.269 0 0 0-.036-.042c-.157-.188-.257-.319-.3-.371.042-.052.142-.183.3-.371a.269.269 0 0 0 .036-.042.263.263 0 0 1 .037-.042c.219-.267.539-.633.936-1.056.01-.016.026-.027.037-.042a.329.329 0 0 0 .041-.042c.131-.141.278-.293.429-.45l.042-.042a.571.571 0 0 1 .047-.042c.293-.3.617-.612.973-.936a.277.277 0 0 1 .042-.042.3.3 0 0 0 .047-.042c.167-.146.335-.3.512-.449a.278.278 0 0 0 .042-.042.218.218 0 0 0 .053-.042c.062-.047.12-.1.183-.152 2.113-1.752 5.381-3.87 9.006-3.954H27.5c3.682 0 7.024 2.124 9.18 3.907.083.068.161.136.24.2a.383.383 0 0 0 .052.042.432.432 0 0 0 .047.042c.178.151.345.3.513.449a.258.258 0 0 0 .047.042l.042.042c.355.324.685.638.978.936l.042.042a.274.274 0 0 0 .041.042c.152.157.3.309.434.45.016.016.027.031.037.042l.042.042c.4.423.711.789.937 1.056.01.016.025.026.036.042s.021.026.031.042c.157.188.262.319.3.371-.043.052-.142.183-.3.371a.232.232 0 0 1-.038.045z"/><path style="fill:#fff" d="M19.241 24.707h.643v2.092h-.643zM20.507 24.707h.639v2.092h-.639zM21.767 24.707h.643v2.092h-.643zM23.033 24.707h.638v2.092h-.638zM24.293 24.707h.643v2.092h-.643zM25.559 24.707h.638v2.092h-.638zM19.241 28.201h.643v2.092h-.643zM20.507 28.201h.639v2.092h-.639zM21.767 28.201h.643v2.092h-.643zM23.033 28.201h.638v2.092h-.638zM24.293 28.201h.643v2.092h-.643zM25.559 28.201h.638v2.092h-.638z"/><path d="M28.797 24.707h.643v2.092h-.643zM30.057 24.707h.643v2.092h-.643zM31.323 24.707h.643v2.092h-.643zM32.583 24.707h.644v2.092h-.644zM33.849 24.707h.643v2.092h-.643zM35.114 24.707h.638v2.092h-.638zM28.797 28.201h.643v2.092h-.643zM30.057 28.201h.643v2.092h-.643zM31.323 28.201h.643v2.092h-.643zM32.583 28.201h.644v2.092h-.644zM33.849 28.201h.643v2.092h-.643zM35.114 28.201h.638v2.092h-.638z"/><path d="M23.164 21.177a4 4 0 0 0-1.752 2.359c.366-.215.3-.215.429-.267a1.645 1.645 0 0 0-.136 1.208c.146-.214.339-.361.308-.361a1.946 1.946 0 0 0 .607 1.046 1.3 1.3 0 0 1 .214-.387 1.985 1.985 0 0 0 .685.769 1.623 1.623 0 0 1 .267-.235 1.792 1.792 0 0 0 1.24.8 1.9 1.9 0 0 1 .193-.889.919.919 0 0 0 0-.518l.439.2a.935.935 0 0 1-.162-.622 1.525 1.525 0 0 1 .382.214 2.29 2.29 0 0 0-.6-1.412 5.7 5.7 0 0 1 .79.4s.021-2.149-2.84-2.071a.451.451 0 0 1-.064-.234z" style="fill:#3d5da5"/><path d="M22.808 22.584a.918.918 0 0 1 .2.46.662.662 0 0 1 0 .251c-.016.084-.042.162-.063.241s-.052.157-.084.235-.068.146-.1.22a1.905 1.905 0 0 1-.283.387.012.012 0 0 1-.02 0c-.006 0-.011-.016-.006-.021a3.187 3.187 0 0 0 .147-.439l.047-.22c.016-.073.021-.146.026-.22a1.53 1.53 0 0 0-.005-.214 1.555 1.555 0 0 1 .01-.215 2.087 2.087 0 0 1 .105-.465c0-.011.015-.016.026-.011a.005.005 0 0 1 0 .011zM23.682 22.123a1.661 1.661 0 0 1 .251.068c.073.032.146.063.219.1a1.654 1.654 0 0 1 .194.115c.062.042.12.089.183.131s.136.073.2.109.136.068.209.1c.146.063.293.115.45.167.01 0 .015.011.01.021s-.01.011-.015.011a2.616 2.616 0 0 1-.492-.021 4.109 4.109 0 0 1-.245-.053 1.825 1.825 0 0 1-.242-.068 1.6 1.6 0 0 1-.24-.094 1.033 1.033 0 0 1-.2-.146 1.2 1.2 0 0 1-.3-.413.02.02 0 0 1 .01-.027zM23.425 23.713a.464.464 0 0 1 .157.115.479.479 0 0 1 .105.147.381.381 0 0 1 .036.173 1.647 1.647 0 0 1 0 .172c0 .058 0 .115-.01.173s-.016.115-.026.167a1.528 1.528 0 0 1-.116.319.019.019 0 0 1-.02.011c-.006-.006-.011-.011-.011-.016a2.984 2.984 0 0 0-.026-.319 1.374 1.374 0 0 0-.026-.152c-.011-.052-.021-.1-.036-.152a.81.81 0 0 0-.053-.141.426.426 0 0 1-.037-.141.821.821 0 0 1 0-.157.86.86 0 0 1 .037-.183c.005-.01.016-.021.026-.016zM24.179 24.77a.517.517 0 0 1 .151.084.62.62 0 0 1 .105.1.3.3 0 0 1 .058.115.933.933 0 0 0 .036.136l.1.256.105.262a.013.013 0 0 1-.011.021c-.005.005-.01 0-.015 0a1.9 1.9 0 0 1-.22-.189c-.031-.036-.068-.068-.1-.1l-.1-.11c-.031-.037-.068-.073-.1-.11a.351.351 0 0 1-.067-.125.681.681 0 0 1-.017-.152.405.405 0 0 1 .037-.167.024.024 0 0 1 .038-.021zM24.351 23.342a1.181 1.181 0 0 1 .178.089.97.97 0 0 1 .141.089.6.6 0 0 1 .115.115.725.725 0 0 0 .105.125c.041.037.083.074.126.11s.088.068.14.1a2.007 2.007 0 0 0 .309.162.024.024 0 0 1 0 .026.011.011 0 0 1-.01.01 1.774 1.774 0 0 1-.372-.041c-.062-.016-.12-.037-.183-.058s-.115-.052-.172-.084l-.173-.094a.5.5 0 0 1-.141-.136.753.753 0 0 1-.083-.183.541.541 0 0 1-.016-.209c0-.016.016-.021.026-.021z" style="fill:#b00d0c"/><path d="M7.405 27.516v.308a.812.812 0 0 0-.737.413 4.061 4.061 0 0 0-.659 1.439c.173-.157.256-.157.256-.157a3.637 3.637 0 0 0 .089.9l.325-.371a9.345 9.345 0 0 0 .256 1.13l.131-.617s.3.031.339.544a1.153 1.153 0 0 0 .561.883l.2-.188a1.359 1.359 0 0 0 .539.188c.015-.2.643-.711.842-.768l.1.224a2.447 2.447 0 0 1 .439-1.108l.058.3a4.1 4.1 0 0 0 0-1.7l.188.126a1.686 1.686 0 0 0-.131-1.182 1.127 1.127 0 0 0-1.182-.256 1.787 1.787 0 0 1-1.182-.272l.016.387-.214-.074z" style="fill:#3d5da5"/><path d="M10.3 27.955a.2.2 0 0 1-.026-.042.306.306 0 0 0-.032-.042s-.005-.01-.005-.015a1.179 1.179 0 0 0-1.229-.272 1.77 1.77 0 0 1-1.145-.262l-.074-.063.016.419-.151-.047-.288-.2v.35a.8.8 0 0 0-.366.09 1.28 1.28 0 0 0-.073.042.246.246 0 0 0-.058.042.981.981 0 0 0-.241.262 4.027 4.027 0 0 0-.664 1.453l-.031.131.1-.094a1.071 1.071 0 0 1 .184-.131 3.323 3.323 0 0 0 .088.858l.027.068.313-.361a7.64 7.64 0 0 0 .255 1.051l.052.121.147-.7c.073.031.235.131.267.492a1.125 1.125 0 0 0 .528.878c.016.011.026.026.042.037l.032.021.2-.189a1.435 1.435 0 0 0 .529.178h.046v-.041c.016-.173.56-.628.774-.722l.147.324.021-.141a2.663 2.663 0 0 1 .372-1.03l.083.423.042-.2a4.289 4.289 0 0 0 .032-1.605l.14.1.016-.063a1.859 1.859 0 0 0-.07-1.12zm-.23.879.031.115a3.7 3.7 0 0 1 .042 1.443l-.026-.141-.057.047a2.083 2.083 0 0 0-.43 1l-.057-.131-.036.011a2.064 2.064 0 0 0-.864.763 1.588 1.588 0 0 1-.486-.172l-.026-.021-.2.183-.016-.016a1.045 1.045 0 0 1-.491-.816c-.048-.538-.372-.58-.382-.58h-.043l-.1.491c-.095-.329-.2-.962-.21-.967l-.015-.089-.335.382a3.963 3.963 0 0 1-.058-.816v-.042h-.046a.358.358 0 0 0-.182.084 4.046 4.046 0 0 1 .616-1.3 1 1 0 0 1 .325-.309.711.711 0 0 1 .094-.042.568.568 0 0 1 .157-.042.6.6 0 0 1 .125 0h.016l.037.006v-.283l.156.11.283.1-.011-.361a1.908 1.908 0 0 0 1.141.225h.01l.005-.005a1.1 1.1 0 0 1 1.093.209.215.215 0 0 1 .037.037c.01.016.021.026.031.042A1.672 1.672 0 0 1 10.3 29z"/><path d="M7.536 28.441a.568.568 0 0 1 .058.22.7.7 0 0 1-.016.215.547.547 0 0 1-.078.2c-.037.058-.079.115-.115.173s-.079.115-.121.172-.089.105-.135.157a2.5 2.5 0 0 1-.309.272l-.026-.026a3.732 3.732 0 0 0 .193-.345 1.134 1.134 0 0 0 .079-.178 1.788 1.788 0 0 0 .073-.178 1.871 1.871 0 0 0 .052-.183.711.711 0 0 1 .063-.172c.032-.058.068-.11.1-.168a1.077 1.077 0 0 1 .147-.162zM7.84 29.524a.549.549 0 0 1 .083.178.722.722 0 0 1 .026.183.425.425 0 0 1-.041.173c-.021.052-.053.1-.074.162s-.052.1-.078.157-.058.1-.089.146a2.288 2.288 0 0 1-.214.277l-.032-.021c.032-.11.063-.214.089-.324l.031-.157c.011-.052.021-.1.032-.162s0-.105.01-.157a.543.543 0 0 1 .026-.157c.021-.047.048-.1.074-.146a.754.754 0 0 1 .12-.157zM8.336 30.288a.457.457 0 0 1 .11.146.562.562 0 0 1 .053.152.331.331 0 0 1-.01.157c-.017.052-.037.1-.048.151s-.031.1-.047.147-.042.1-.062.146a1.789 1.789 0 0 1-.152.262l-.032-.011c.005-.1.016-.2.016-.293.005-.052.005-.1.005-.146v-.141a1.164 1.164 0 0 0-.016-.142.294.294 0 0 1 .006-.135.7.7 0 0 1 .047-.142.934.934 0 0 1 .094-.146zM8.708 29.4a1.12 1.12 0 0 1 .136.125 1.034 1.034 0 0 1 .094.115.411.411 0 0 1 .057.131.737.737 0 0 0 .048.136 1.364 1.364 0 0 0 .068.131c.026.042.052.083.083.125a1.5 1.5 0 0 0 .2.236l-.02.031a1.3 1.3 0 0 1-.3-.141 2.57 2.57 0 0 1-.141-.105 1.236 1.236 0 0 1-.12-.12c-.037-.047-.084-.089-.12-.136a.4.4 0 0 1-.079-.157.664.664 0 0 1-.011-.178.564.564 0 0 1 .063-.188zM8.446 28.269a.878.878 0 0 1 .2.084 1.113 1.113 0 0 1 .156.1.421.421 0 0 1 .125.131 1.651 1.651 0 0 0 .116.146c.041.047.083.094.126.136s.088.089.13.136c.089.089.188.173.282.257l-.015.031a3.154 3.154 0 0 1-.367-.152 1.328 1.328 0 0 1-.172-.094c-.052-.031-.11-.068-.168-.1s-.109-.074-.167-.116a.589.589 0 0 1-.141-.141.69.69 0 0 1-.089-.178.589.589 0 0 1-.042-.219z" style="fill:#b00d0c"/><path d="M46.662 27.176a3.754 3.754 0 0 0-1.992 2.51 4.752 4.752 0 0 1 .471-.345 1.574 1.574 0 0 0 .011 1.14 2.144 2.144 0 0 1 .255.826.805.805 0 0 0 .544-.523 10.546 10.546 0 0 0 1.423 1.6 4.315 4.315 0 0 1 .57-1.025l.157.266a3.689 3.689 0 0 1 .246-.711.963.963 0 0 0 .324.272 2.97 2.97 0 0 0 0-.91l.23.34a3.292 3.292 0 0 1 0-.957 1.475 1.475 0 0 0 .34.272 3.738 3.738 0 0 1-.157-.942.912.912 0 0 1 .246.288s.141-1.794-2.626-1.836a4.778 4.778 0 0 0-.042-.265z" style="fill:#3d5da5"/><path d="M48.943 28.164a1.729 1.729 0 0 0-.225-.209.474.474 0 0 0-.052-.042c-.021-.016-.042-.026-.063-.042a3.476 3.476 0 0 0-1.862-.481l-.037-.219-.005-.042v-.011l-.026.011-.021.01a3.555 3.555 0 0 0-1.015.732.333.333 0 0 0-.042.042.238.238 0 0 1-.042.042 3.776 3.776 0 0 0-.919 1.721l-.032.12.094-.078c.183-.142.3-.225.371-.272a1.5 1.5 0 0 0 .052 1.056 2.162 2.162 0 0 1 .251.8v.058l.053-.01a.847.847 0 0 0 .538-.466 12.657 12.657 0 0 0 1.308 1.438l.141.136.011-.078a3.947 3.947 0 0 1 .523-.952l.177.3.027-.1a4.854 4.854 0 0 1 .2-.649.965.965 0 0 0 .309.231l.052.026.005-.058a3.8 3.8 0 0 0 .031-.727l.225.324-.026-.177a3.765 3.765 0 0 1-.016-.869 1.226 1.226 0 0 0 .3.231l.084.031-.026-.084a5.013 5.013 0 0 1-.162-.837.824.824 0 0 1 .167.21l.068.157.016-.173a1.589 1.589 0 0 0-.432-1.1zm.172.79-.057-.047-.016.073a3.2 3.2 0 0 0 .131.853 3.059 3.059 0 0 1-.246-.2l-.052-.053-.016.068a2.75 2.75 0 0 0-.021.8l-.3-.45.089.287a2.743 2.743 0 0 1 .01.832.789.789 0 0 1-.256-.225l-.026-.042-.042.032a2.274 2.274 0 0 0-.225.632l-.141-.235-.037.052a5.078 5.078 0 0 0-.559.968l-.032-.026a10.047 10.047 0 0 1-1.333-1.506l-.047-.11-.032.115a.736.736 0 0 1-.46.481 2.5 2.5 0 0 0-.256-.785 1.573 1.573 0 0 1-.016-1.108l.042-.1-.1.047a4.322 4.322 0 0 0-.377.272 3.727 3.727 0 0 1 .926-1.621.416.416 0 0 0 .042-.042.355.355 0 0 1 .047-.042 3.532 3.532 0 0 1 .873-.633c.011.058.026.147.031.2l.006.037h.035a3.535 3.535 0 0 1 1.731.392.331.331 0 0 1 .074.042c.026.016.047.032.062.042a1.627 1.627 0 0 1 .309.267 1.6 1.6 0 0 1 .4.9 1.651 1.651 0 0 0-.161-.167z"/><path d="M46.035 29.289a.5.5 0 0 1 .047.188.542.542 0 0 1-.016.183.393.393 0 0 1-.073.162c-.031.047-.073.094-.109.141a1.341 1.341 0 0 1-.111.136 1.358 1.358 0 0 1-.13.121 1.668 1.668 0 0 1-.282.188l-.022-.021c.068-.089.136-.178.194-.267l.078-.141a.924.924 0 0 0 .068-.141 1.209 1.209 0 0 0 .053-.147.522.522 0 0 1 .057-.141c.026-.042.058-.089.089-.131a1.1 1.1 0 0 1 .122-.136zM46.49 30.324a.3.3 0 0 1 .1.1.278.278 0 0 1 .053.1.224.224 0 0 1 0 .115c-.011.037-.026.073-.037.11l-.031.11c-.016.037-.027.068-.042.105a1.18 1.18 0 0 1-.115.188h-.026c-.006-.074-.006-.147-.006-.215 0-.036 0-.068-.01-.1a.623.623 0 0 0-.011-.1.352.352 0 0 0-.021-.1.151.151 0 0 1 0-.094.5.5 0 0 1 .037-.1.642.642 0 0 1 .079-.11zM47.1 30.35a.667.667 0 0 1 .131.136.766.766 0 0 1 .078.157.44.44 0 0 1 .026.162c0 .058-.005.115-.005.173a1.463 1.463 0 0 1-.011.167c0 .058-.01.11-.015.168-.021.11-.037.219-.062.324h-.027c-.026-.11-.042-.214-.063-.319a1.5 1.5 0 0 0-.031-.162 1.359 1.359 0 0 0-.03-.156.724.724 0 0 0-.047-.152.532.532 0 0 1-.026-.151.8.8 0 0 1 .011-.162.578.578 0 0 1 .041-.178zM47.374 29.718c.036.036.063.073.089.1s.042.058.057.084a.257.257 0 0 1 .021.089.513.513 0 0 0 .016.094c.016.026.026.057.042.089a.825.825 0 0 0 .057.089.737.737 0 0 0 .152.162l-.016.026a.7.7 0 0 1-.235-.078.69.69 0 0 1-.1-.068.774.774 0 0 1-.1-.1 1.055 1.055 0 0 1-.089-.109.24.24 0 0 1-.042-.131.292.292 0 0 1 .115-.262zM47.212 28.834a.816.816 0 0 1 .146.031.535.535 0 0 1 .11.047.276.276 0 0 1 .089.063.42.42 0 0 0 .078.084c.032.02.063.047.094.068s.068.041.1.057a1.124 1.124 0 0 0 .23.1v.032a.88.88 0 0 1-.262.016 1.339 1.339 0 0 1-.136-.021 1.255 1.255 0 0 1-.131-.042c-.047-.016-.088-.026-.136-.047a.308.308 0 0 1-.115-.084.49.49 0 0 1-.068-.126.31.31 0 0 1-.015-.156z" style="fill:#b00d0c"/></svg>