<svg xmlns="http://www.w3.org/2000/svg" viewBox="0 0 55 55"><path d="M48.546 17.516H6.449c.272-.565.565-1.125.879-1.663a23.286 23.286 0 0 1 40.344 0c.314.538.608 1.098.874 1.663z" style="fill:#cb0201"/><path d="M48.546 37.484c-.266.57-.56 1.125-.874 1.663a23.286 23.286 0 0 1-40.344 0q-.471-.807-.879-1.663z" style="fill:#006506"/><path d="M50.8 27.5a23.041 23.041 0 0 1-2.254 9.984H6.449a23.286 23.286 0 0 1 0-19.968h42.1A23.041 23.041 0 0 1 50.8 27.5z" style="fill:#fff"/><path d="M33.849 36.485a22.6 22.6 0 0 0-12.7 0l-.325-1.041a23.632 23.632 0 0 1 13.348 0zM27.918 33.3c0-.8-.418-.952-.418-.952s-.418.152-.418.952c-.246-.167-.691 0-.691 0 0 .46.5.837 1.109.837s1.109-.377 1.109-.837c0 0-.445-.167-.691 0zM23.954 33.478c-.173-.779-.617-.837-.617-.837s-.377.241-.2 1.02c-.272-.11-.675.152-.675.152a1.008 1.008 0 0 0 1.266.575c.6-.136 1-.607.905-1.056-.004 0-.475-.068-.679.146zM31.046 33.478c.173-.779.617-.837.617-.837s.377.241.2 1.02c.272-.11.675.152.675.152a1.011 1.011 0 0 1-1.266.575c-.6-.136-1-.607-.905-1.056.004 0 .475-.068.679.146zM27.5 18.515l.356 1.093h1.145l-.931.669.356 1.088-.926-.669-.925.669.355-1.088-.93-.669h1.144l.356-1.093zM19.425 23.154l.355 1.088h1.146l-.926.674.356 1.088-.931-.674-.926.674.356-1.088-.926-.674h1.145l.351-1.088zM35.575 23.154l.351 1.088h1.145l-.925.674.355 1.088-.926-.674-.931.674.356-1.088-.926-.674h1.146l.355-1.088zM36.826 27.829l.355 1.088h1.145l-.925.67.35 1.093-.925-.675-.926.675.355-1.093-.926-.67h1.141l.356-1.088zM18.175 27.829l.355 1.088h1.141l-.926.67.355 1.093-.925-.675-.926.675.35-1.093-.925-.67h1.145l.356-1.088zM22.824 19.78l.351 1.088h1.145l-.926.67.357 1.093-.927-.675-.931.675.356-1.093-.926-.67h1.146l.355-1.088zM32.176 19.78l.355 1.088h1.146l-.926.67.356 1.093-.931-.675-.926.675.356-1.093-.926-.67h1.145l.351-1.088z" style="fill:#f7c215"/><path d="M36.02 32.034c-2.605 1.167-3.5-.313-3.954-1.161-2.7 1.716-3.781-.214-4.148-1.26a2.965 2.965 0 0 1-.162-.973v-1.731a1.2 1.2 0 0 1 1.318-.434l.382.125-.047-.392a2.087 2.087 0 0 0-1.344-1.9 1.674 1.674 0 0 0-1.13 0 2.087 2.087 0 0 0-1.344 1.9l-.047.392.377-.125a1.2 1.2 0 0 1 1.323.434v1.731a2.965 2.965 0 0 1-.162.973c-.367 1.046-1.444 2.976-4.143 1.26-.46.848-1.354 2.328-3.959 1.161-.11 1.146 2.913 2.929 4.132-.292 0 0 2.547 2.677 4.388-1.062 1.836 3.739 4.388 1.062 4.388 1.062 1.219 3.221 4.242 1.438 4.132.292zm-9.728-6.129h-.131a1.46 1.46 0 0 1 .947-1.119 1.125 1.125 0 0 1 .784 0 1.475 1.475 0 0 1 .952 1.119 1.717 1.717 0 0 0-1.344.518 1.724 1.724 0 0 0-1.208-.518z" style="fill:#f7c215"/></svg>