<svg xmlns="http://www.w3.org/2000/svg" viewBox="0 0 55 55"><circle cx="27.5" cy="27.5" r="23.3" style="fill:#e60313"/><path d="M39.189 27.5A11.687 11.687 0 1 1 27.5 15.816 11.691 11.691 0 0 1 39.189 27.5z" style="fill:#fff"/><path d="M30.685 34.529a7.027 7.027 0 1 1 4.691-12.254 8.743 8.743 0 1 0 0 10.455 7.012 7.012 0 0 1-4.691 1.799z" style="fill:#e60313"/><path style="fill:#e60313" d="m29.074 22.563 2.223 3.044 3.583-1.177-2.207 3.054 2.228 3.044-3.588-1.156-2.207 3.06-.011-3.771-3.588-1.151 3.578-1.176-.011-3.771z"/></svg>