<svg xmlns="http://www.w3.org/2000/svg" viewBox="0 0 55 55"><path d="M50.8 27.5a23.241 23.241 0 0 1-1.6 8.488L15.966 7.265A23.286 23.286 0 0 1 50.8 27.5zM39.034 47.735A23.295 23.295 0 0 1 5.8 19.012z" style="fill:#d91b34"/><path d="M49.2 35.988a23.842 23.842 0 0 1-1.119 2.422L13.733 8.714a22.684 22.684 0 0 1 2.233-1.449zM41.267 46.281a21.852 21.852 0 0 1-2.233 1.454L5.8 19.012a23.62 23.62 0 0 1 1.119-2.422z" style="fill:#fff"/><path d="M48.081 38.41a23.4 23.4 0 0 1-6.814 7.871L6.919 16.59a23.466 23.466 0 0 1 6.814-7.876z"/></svg>