<svg xmlns="http://www.w3.org/2000/svg" viewBox="0 0 55 55"><path d="M39.6 7.594 4.472 31.041A23.294 23.294 0 0 1 39.6 7.594z" style="fill:#19b43d"/><path d="M50.8 27.5a23.291 23.291 0 0 1-35.408 19.9l35.136-23.441A23.251 23.251 0 0 1 50.8 27.5z" style="fill:#07a3dc"/><path d="M49.874 20.989 12.908 45.648a23.356 23.356 0 0 1-7.782-11.637L42.092 9.346a23.372 23.372 0 0 1 7.782 11.643z"/><path d="M42.092 9.346 5.126 34.011a22.358 22.358 0 0 1-.654-2.97L39.6 7.594a23.089 23.089 0 0 1 2.492 1.752zM50.528 23.959 15.392 47.4a22.482 22.482 0 0 1-2.484-1.752l36.966-24.659a22.358 22.358 0 0 1 .654 2.97z" style="fill:#fbd023"/></svg>