<svg xmlns="http://www.w3.org/2000/svg" viewBox="0 0 55 55"><defs><clipPath id="a"><circle cx="27.5" cy="27.5" r="23.32" fill="none"/></clipPath></defs><g fill-rule="evenodd" clip-path="url(#a)"><path d="M62.48 7.77v3.59H28V7.77zm0 7.17v3.59H28v-3.59zm0 7.17v3.59H28v-3.58zm0 7.17v3.59h-70v-3.58zm0 7.18v3.59h-70v-3.58zm0 7.17v3.59h-70v-3.58z" fill="#f4f4f5"/><path d="M-7.48 4.18h70v3.59h-70V4.18zm0 43h70v3.59h-70v-3.54zm0-7.17h70v3.59h-70v-3.54zm0-7.17h70v3.59h-70v-3.55zm0-7.18h70v3.59h-70v-3.54zm0-7.17h70v3.59h-70v-3.55zm0-7.17h70v3.59h-70v-3.55z" fill="#ee2724"/><path fill="#214097" d="M-7.48 4.18h35.45v25.11H-7.48V4.18z"/><path d="m25 5.43.32 1h1l-.79.57.32 1-.85-.59-.83.59.32-1-.85-.61h1l.32-1zm-29.54 10 .32 1h1L-4 17l.32 1-.84-.62-.84.62.36-1-.85-.61h1l.32-1zm3 2.5.32 1h1l-.85.61.33 1-.84-.62-.84.62.33-1-.85-.61h1l.32-1zm23.63 0 .32 1h1l-.85.61.32 1-.84-.62-.84.62.33-1-.85-.61h1l.32-1zm-5.91 0 .32 1h1l-.85.61.33 1-.84-.62-.84.62.33-1-.85-.61h1l.32-1zm-5.91 0 .32 1h1l-.85.61.32 1-.84-.62-.84.62.32-1-.85-.61h1l.32-1zm-5.91 0 .32 1h1l-.85.61.32 1-.84-.62-.84.62.32-1-.79-.6h1l.32-1zm-3-2.5.32 1h1L1.9 17l.32 1-.84-.62-.84.62.33-1-.87-.57h1l.32-1zm17.72 0 .32 1h1l-.85.61.45.96-.84-.62-.84.62.32-1-.85-.61h1l.32-1zm5.91 0 .32 1h1l-.85.61.32 1-.78-.62-.84.62.32-1-.85-.61h1l.32-1zm0 5 .32 1h1l-.85.61.32 1-.78-.61-.84.62.32-1-.85-.61h1l.32-1zm-5.91 0 .32 1h1l-.85.61.45.96-.84-.62-.84.62.32-1-.85-.61h1l.32-1zm-17.72 0 .32 1h1L1.9 22l.32 1-.84-.62-.84.62.33-1-.87-.56h1l.32-1zm-3 2.5.32 1h1l-.85.61.33 1-.84-.62-.84.62.33-1-.85-.61h1l.32-1zm23.63 0 .32 1h1l-.85.61.32 1-.84-.62-.84.62.33-1-.85-.61h1l.32-1zm-5.91 0 .32 1h1l-.85.61.33 1-.84-.62-.84.62.33-1-.85-.61h1l.32-1zm-5.91 0 .32 1h1l-.85.61.32 1-.84-.62-.84.62.32-1-.85-.61h1l.32-1zm-5.91 0 .32 1h1l-.85.61.32 1-.84-.62-.84.62.32-1-.69-.6h1l.32-1zm-8.86-2.5.32 1h1L-4 22l.32 1-.84-.62-.84.62.36-1-.85-.61h1l.32-1zm0 5 .32 1h1l-.85.61.32 1-.84-.62-.84.62.32-1-.85-.61h1l.32-1zm5.91 0 .32 1h1l-.85.61.32 1-.84-.62-.72.58.33-1-.87-.56h1l.32-1zm17.72 0 .32 1h1l-.85.61.5.96-.84-.62-.84.62.32-1-.85-.61h1l.32-1zm5.91 0 .32 1h1l-.85.61.32 1-.73-.61-.84.62.32-1-.85-.61h1l.32-1zM-1.57 12.94l.32 1h1l-.85.61.33 1-.84-.62-.84.62.33-1-.85-.61h1l.32-1zm0-5 .32 1h1l-.85.61.33 1-.84-.62-.84.62.33-1-.85-.61h1l.32-1zm23.63 0 .32 1h1l-.85.61.32 1-.84-.62-.84.62.33-1-.85-.61h1l.32-1zm-5.91 0 .32 1h1l-.85.61.33 1-.84-.62-.84.62.33-1-.85-.61h1l.32-1zm-5.91 0 .32 1h1l-.85.61.32 1-.84-.62-.84.62.32-1-.85-.61h1l.32-1zm-5.91 0 .32 1h1l-.85.61.32 1-.84-.62-.84.62.32-1L3 8.92h1l.32-1zm-8.86 2.5.32 1h1L-4 12l.32 1-.84-.62-.84.62.36-1-.85-.61h1l.32-1zm26.58 2.5.32 1h1l-.85.61.32 1-.84-.62-.84.62.33-1-.85-.61h1l.32-1zm-5.91 0 .32 1h1l-.85.61.33 1-.84-.62-.84.62.33-1-.85-.61h1l.32-1zm-5.91 0 .32 1h1l-.85.61.32 1-.84-.62-.84.62.32-1-.85-.61h1l.32-1zm-5.91 0 .32 1h1l-.85.61.32 1-.84-.62-.84.62.32-1-.75-.62h1l.32-1zm-3-2.5.32 1h1L1.9 12l.32 1-.84-.62-.84.62.33-1-.87-.57h1l.32-1zm0-5 .32 1h1L1.9 7l.32 1-.84-.62L.54 8l.32-1L0 6.42h1l.32-1zm-5.91 0 .32 1h1L-4 7l.32 1-.84-.62-.85.62.37-1-.85-.61h1l.32-1zm11.82 20 .32 1h1l-.85.61.32 1-.84-.62-.73.57.32-1-.85-.61H7l.32-1zm0-5 .32 1h1l-.74.56.32 1-.84-.62-.84.62.32-1-.85-.61H7l.32-1zm0-5 .32 1h1l-.74.56.32 1-.84-.62-.84.62.32-1-.85-.61H7l.32-1zm0-5 .32 1h1l-.74.56.32 1-.84-.62-.84.62.32-1-.85-.61H7l.32-1zm0-5 .32 1h1L7.81 7l.32 1-.84-.62-.84.62.32-1-.85-.61H7l.32-1zm5.91 20 .32 1h1l-.85.61.39.95-.84-.62-.84.62.32-1-.85-.61h1l.32-1zm0-5 .32 1h1l-.85.61.39.95-.84-.62-.84.62.32-1-.85-.61h1l.32-1zm0-5 .32 1h1l-.85.61.39.95-.84-.62-.84.62.32-1-.85-.61h1l.32-1zm0-5 .32 1h1l-.85.61.39.95-.84-.62-.84.62.32-1-.85-.61h1l.32-1zm0-5 .32 1h1l-.74.56.28 1-.84-.62-.8.62.32-1-.85-.61h1l.32-1zm5.91 5 .32 1h1l-.85.61.48.95-.84-.62-.84.62.32-1-.85-.61h1l.32-1zm0-5 .32 1h1l-.74.56.37 1-.84-.62-.9.62.32-1-.85-.61h1l.32-1zm5.91 5 .32 1h1l-.85.61.32 1-.75-.63-.84.62.32-1-.85-.61h1l.32-1z" fill="#f4f4f5"/></g></svg>