<svg xmlns="http://www.w3.org/2000/svg" viewBox="0 0 55 55"><path d="M49.466 35.265a22.66 22.66 0 0 1-1.794 3.886c-.256.44-.523.874-.8 1.292H8.133a18.253 18.253 0 0 1-.8-1.292 22.736 22.736 0 0 1-1.794-3.886z" style="fill:#fff"/><path d="M50.654 30.092a22.719 22.719 0 0 1-1.188 5.173H5.534a22.725 22.725 0 0 1-1.193-5.173zM46.867 40.443a23.54 23.54 0 0 1-4.749 5.184H12.877a23.4 23.4 0 0 1-4.744-5.184z" style="fill:#0738a6"/><path d="M42.118 45.627a23.248 23.248 0 0 1-29.241 0zM49.466 19.73H5.534a22.865 22.865 0 0 1 1.794-3.881c.251-.44.523-.874.8-1.292h38.739c.282.418.549.852.8 1.292a22.787 22.787 0 0 1 1.799 3.881zM50.8 27.5a22.468 22.468 0 0 1-.146 2.595H4.341a23.895 23.895 0 0 1 0-5.184h46.313A22.439 22.439 0 0 1 50.8 27.5z" style="fill:#fff"/><path d="M46.867 14.557H8.133c.136-.2.272-.4.408-.591.063-.094.131-.183.2-.272a22.182 22.182 0 0 1 2.139-2.506c.094-.1.2-.209.3-.308a21.841 21.841 0 0 1 1.69-1.507h29.248a23.428 23.428 0 0 1 4.749 5.184z" style="fill:#0738a6"/><path d="M42.118 9.373H12.877c.12-.1.236-.193.355-.282.136-.11.272-.215.414-.314A23.169 23.169 0 0 1 27.5 4.2a23.619 23.619 0 0 1 2.589.141 23.162 23.162 0 0 1 12.029 5.032z" style="fill:#fff"/><path d="M50.654 24.908H4.341a22.829 22.829 0 0 1 1.193-5.178h43.932a22.822 22.822 0 0 1 1.188 5.178z" style="fill:#0738a6"/><path d="M30.089 4.341v25.751H4.341a23.895 23.895 0 0 1 0-5.184 23.256 23.256 0 0 1 2.987-9.059 22.856 22.856 0 0 1 1.208-1.883c.063-.094.131-.183.2-.272a22.182 22.182 0 0 1 2.139-2.506c.094-.1.2-.209.3-.308a21.841 21.841 0 0 1 1.69-1.507c.12-.1.236-.193.355-.282.136-.11.272-.215.414-.314A23.169 23.169 0 0 1 27.5 4.2a23.619 23.619 0 0 1 2.589.141z" style="fill:#fff"/><path d="M13.646 10.576c.094.162.214.382.376.691a3.7 3.7 0 0 1 .429 1.673 1.5 1.5 0 0 1-.011.2l1.407.978a11.4 11.4 0 0 0-.6-1.6 8.837 8.837 0 0 0-1.308-2.045l-.036-.053a2.557 2.557 0 0 1-.534-1.213c0 .016-.005.037-.005.052a1.693 1.693 0 0 0-.016.581 1.9 1.9 0 0 0 .298.736z" style="fill:#fbd023"/><path d="M14.069 10.383a9.085 9.085 0 0 1 1.331 2.071 11.965 11.965 0 0 1 .554 1.449l.209-1.146a6.286 6.286 0 0 0-1.041-1.83 4.825 4.825 0 0 0-1.14-.958A1.036 1.036 0 0 1 13.6 9.5c-.006-.011-.011-.026-.016-.037a2.557 2.557 0 0 0 .445.863c.014.02.03.036.04.057zM16.339 14.039a3.019 3.019 0 0 1 .722-.105V8.688l-.978 5.429a2.168 2.168 0 0 1 .256-.078zM18.206 14.117l-.983-5.429v5.246c.078.005.157.005.231.016a2.854 2.854 0 0 1 .752.167zM19.069 12.532a7.691 7.691 0 0 0 .471-2c.016-.131.036-.272.063-.429a2.5 2.5 0 0 1 .481-1.234 1.947 1.947 0 0 0-.466.429 1.241 1.241 0 0 0-.146.251 4.381 4.381 0 0 0-.157.481c-.052.178-.12.424-.225.753a3.538 3.538 0 0 1-1.025 1.617l.3 1.684a11.928 11.928 0 0 0 .704-1.552z" style="fill:#fbd023"/><path d="M19.984 9.425a1.085 1.085 0 0 1 .074-.23 2.825 2.825 0 0 0-.3.926c-.02.157-.041.3-.062.429a7.776 7.776 0 0 1-.471 2.04 10.953 10.953 0 0 1-.633 1.417l.957-.664a6.382 6.382 0 0 0 .56-2.029 4.909 4.909 0 0 0-.131-1.481 1.071 1.071 0 0 1 .006-.408zM18.53 14.248a3.223 3.223 0 0 1 .822.57l3.713-3.708-3.421 2.369zM21.533 16.157a6.381 6.381 0 0 0 1.726-.957c.031-.026.067-.052.1-.078a4.7 4.7 0 0 0 .957-1.141 1.141 1.141 0 0 1 .507-.4 2.771 2.771 0 0 0-.863.444 9.228 9.228 0 0 1-2.123 1.366c-.309.141-.565.245-.795.334l-.277.1-.382.125 1.151.2z" style="fill:#fbd023"/><path d="m21.145 14.442-.972 1.407c.183-.058.355-.115.538-.178a11.281 11.281 0 0 0 1.052-.424 9.167 9.167 0 0 0 2.1-1.349 2.5 2.5 0 0 1 1.213-.529c-.015 0-.031 0-.052-.01a1.824 1.824 0 0 0-.581-.016 1.962 1.962 0 0 0-.732.3c-.162.089-.382.214-.69.371a3.6 3.6 0 0 1-1.876.428zM20.037 15.755l3.143-4.53-3.708 3.708a3.294 3.294 0 0 1 .565.822zM20.35 17.062h5.25l-5.423-.983a3.278 3.278 0 0 1 .173.983zM20.173 18.208l5.423-.984H20.35a3.284 3.284 0 0 1-.177.984zM24.99 19.62a1.835 1.835 0 0 0-.733-.3l-.748-.225a3.567 3.567 0 0 1-1.626-1.031l-1.683.306a12.513 12.513 0 0 0 1.553.7 8.2 8.2 0 0 0 2.181.491c.079.011.167.027.256.037a2.5 2.5 0 0 1 1.229.487 1.597 1.597 0 0 0-.1-.142 1.617 1.617 0 0 0-.329-.323z" style="fill:#fbd023"/><path d="M23.907 19.725a8.258 8.258 0 0 1-2.212-.5 10.967 10.967 0 0 1-1.417-.632l.663.957a6.293 6.293 0 0 0 2.03.554 4.69 4.69 0 0 0 1.48-.125 1.1 1.1 0 0 1 .413 0 1.183 1.183 0 0 1 .225.073 2.622 2.622 0 0 0-.926-.3c-.089-.001-.172-.017-.256-.027zM20.037 18.532c-.011.026-.026.047-.037.073a3.4 3.4 0 0 1-.528.748l3.708 3.709-2.375-3.421zM18.53 20.038l4.535 3.139-3.713-3.709a3.2 3.2 0 0 1-.822.57zM20.638 23.71a37.515 37.515 0 0 1-.371-.69 3.506 3.506 0 0 1-.419-1.873l-1.406-.978a11.411 11.411 0 0 0 .57 1.533l.031.063a9.247 9.247 0 0 0 1.344 2.1 2.467 2.467 0 0 1 .528 1.214.167.167 0 0 0 .011-.053 1.656 1.656 0 0 0-.288-1.313z" style="fill:#fbd023"/><path d="m18.891 21.833-.025-.058c-.126-.277-.226-.518-.3-.737s-.157-.44-.225-.654l-.209 1.145a6.32 6.32 0 0 0 1.04 1.831 4.806 4.806 0 0 0 1.135.957 1.019 1.019 0 0 1 .382.471l.016.037a2.516 2.516 0 0 0-.445-.864 9.255 9.255 0 0 1-1.369-2.128zM17.223 20.352V25.6l.983-5.43a3.106 3.106 0 0 1-.983.182zM17.061 25.6v-5.248a3.1 3.1 0 0 1-.978-.183zM15.22 21.754a6.255 6.255 0 0 0-.387 1.465c-.042.251-.084.559-.147.967a2.506 2.506 0 0 1-.481 1.235c.047-.032.094-.068.136-.1a1.607 1.607 0 0 0 .633-1.061c.047-.178.12-.424.225-.754a3.772 3.772 0 0 1 .565-1.119 2.939 2.939 0 0 1 .46-.5l-.3-1.684a11.218 11.218 0 0 0-.704 1.551z" style="fill:#fbd023"/><path d="M14.3 24.866a.823.823 0 0 1-.073.225 2.6 2.6 0 0 0 .3-.926c.062-.408.1-.721.146-.972a6.507 6.507 0 0 1 .392-1.5 11.038 11.038 0 0 1 .633-1.418l-.957.664a6.4 6.4 0 0 0-.56 2.025 4.564 4.564 0 0 0 .131 1.485.984.984 0 0 1-.012.417zM14.932 19.468l-3.708 3.709 4.529-3.139a3.3 3.3 0 0 1-.821-.57zM14.252 18.532 13.165 20.1l-2.056 2.966 3.708-3.709a3.307 3.307 0 0 1-.565-.825zM12.945 19.84h.193l.978-1.407c-.183.057-.355.115-.538.178-.3.1-.628.23-1.057.423a9.325 9.325 0 0 0-2.1 1.35 2.477 2.477 0 0 1-1.214.528 2.008 2.008 0 0 0 .633.026 1.877 1.877 0 0 0 .732-.3c.163-.089.387-.214.691-.371a3.652 3.652 0 0 1 1.682-.427z" style="fill:#fbd023"/><path d="M10.926 19.165a4.4 4.4 0 0 0-.858.994 4.908 4.908 0 0 1-.1.146 1.089 1.089 0 0 1-.508.4 2.777 2.777 0 0 0 .869-.445 9.16 9.16 0 0 1 2.123-1.365 10.836 10.836 0 0 1 1.072-.434l.377-.126-1.146-.2a6.505 6.505 0 0 0-1.829 1.03zM13.944 16.916a3.271 3.271 0 0 1 .172-.837l-5.423.983h5.245a1.188 1.188 0 0 1 .006-.146zM14.116 18.208a3.136 3.136 0 0 1-.178-.984H8.693l3.776.686zM12.59 15.064a12.642 12.642 0 0 1 1.418.628l-.665-.957a6.307 6.307 0 0 0-2.029-.555 4.7 4.7 0 0 0-1.48.126 1.076 1.076 0 0 1-.413-.006.972.972 0 0 1-.225-.073 2.548 2.548 0 0 0 .926.3 9.092 9.092 0 0 1 2.468.537z" style="fill:#fbd023"/><path d="M9.3 14.667a1.8 1.8 0 0 0 .728.3c.177.052.423.125.752.225a3.531 3.531 0 0 1 1.622 1.03l1.684-.308a11.74 11.74 0 0 0-1.548-.7 9.308 9.308 0 0 0-2.437-.529 2.525 2.525 0 0 1-1.236-.485c.016.026.037.047.053.073a1.626 1.626 0 0 0 .382.394zM14.252 15.755a.465.465 0 0 1 .037-.074 3.4 3.4 0 0 1 .528-.748l-3.708-3.708 3.033 4.375zM15.753 14.248l-4.529-3.138 3.708 3.708a3.422 3.422 0 0 1 .821-.57zM18.682 16.152a.243.243 0 0 1-.026-.005c.026.094.094.4-.094.512a.017.017 0 0 1-.016.006 1.154 1.154 0 0 0 .34-.142.719.719 0 0 0-.02-.287 2.728 2.728 0 0 0-.184-.084zM15.728 16.659c-.194-.115-.121-.418-.1-.512-.01 0-.016.005-.026.005a1.629 1.629 0 0 0-.188.084.788.788 0 0 0-.016.287 1.154 1.154 0 0 0 .34.142.016.016 0 0 1-.01-.006z" style="fill:#fbd023"/><path d="M20.188 17.062A3.009 3.009 0 0 0 20 16.1c0-.016 0-.027-.01-.042l-.006-.006-.015-.052a.113.113 0 0 1-.021-.047.127.127 0 0 1-.021-.042.213.213 0 0 0-.021-.047 3.01 3.01 0 0 0-.554-.816.629.629 0 0 0-.058-.057.318.318 0 0 0-.058-.058 2.7 2.7 0 0 0-.486-.376 2.4 2.4 0 0 0-.4-.21l-.016-.01c-.016 0-.037-.01-.052-.016a2.953 2.953 0 0 0-.848-.209 2.859 2.859 0 0 0-.293-.01 3.073 3.073 0 0 0-.763.094 2.6 2.6 0 0 0-.335.1s0 .006-.01.006a.022.022 0 0 1-.016.005l-.017.009a.282.282 0 0 1-.052.021l-.026.016c-.011.006-.011.005-.016.005a3.409 3.409 0 0 0-.371.2 2.85 2.85 0 0 0-.549.434 3.076 3.076 0 0 0-.555.764 1.5 1.5 0 0 0-.094.2c0 .011-.01.026-.016.037s0 .01 0 .01l-.015.047a2.982 2.982 0 0 0-.2.884V17.227a3.157 3.157 0 0 0 .183.968.281.281 0 0 0 .015.037l.021.057c.011.016.011.032.021.047s.011.026.016.042a.162.162 0 0 1 .021.047 3.091 3.091 0 0 0 .559.816.558.558 0 0 0 .053.058c.021.021.041.036.062.057a2.647 2.647 0 0 0 .492.377 2.539 2.539 0 0 0 .324.178c.017 0 .026.015.042.021l.042.015a.2.2 0 0 0 .052.021.27.27 0 0 0 .042.021l.048.016a3.009 3.009 0 0 0 .967.188h.167A3.047 3.047 0 0 0 18.2 20a.253.253 0 0 0 .036-.016h.006l.047-.021a.2.2 0 0 0 .052-.021l.037-.015c.015-.006.031-.016.047-.021a2.547 2.547 0 0 0 .319-.178 2.609 2.609 0 0 0 .5-.377.629.629 0 0 0 .058-.057l.058-.058a2.79 2.79 0 0 0 .5-.706 1.092 1.092 0 0 0 .052-.11.194.194 0 0 0 .021-.047.138.138 0 0 1 .021-.042.175.175 0 0 1 .021-.047l.015-.047.01-.045a3.02 3.02 0 0 0 .188-.968v-.162zm-2.594.293a.457.457 0 0 1 .262.387.788.788 0 0 1 .214.094.77.77 0 0 1 .178.162c-.005-.01-.037-.02-.052-.026a.374.374 0 0 1-.053-.026 2.658 2.658 0 0 1-.114-.047.848.848 0 0 0-.534-.047.494.494 0 0 1-.7 0 1.1 1.1 0 0 0-.261-.021.978.978 0 0 0-.272.068 2.264 2.264 0 0 0-.115.047c-.016.011-.037.016-.052.026s-.011.006-.022.006a.088.088 0 0 1-.026.01 1.121 1.121 0 0 1 .167-.152.825.825 0 0 1 .22-.094c.058-.324.256-.387.256-.387-.308.466.126.372.173.319-.01.162.173.178.251.173h.063c.078 0 .261-.011.246-.173.051.053.485.147.171-.319zm-.408 1.7H17.1a1.352 1.352 0 0 1-.544-.089 2.684 2.684 0 0 0-.654-.319 1.449 1.449 0 0 1 .146.01 2.211 2.211 0 0 1 .586.152 2.249 2.249 0 0 0 1.015 0 2.236 2.236 0 0 1 .58-.152c.094-.01.147-.01.147-.01a2.759 2.759 0 0 0-.649.319 1.364 1.364 0 0 1-.541.084zm.272.356h-.026a.22.22 0 0 0-.073-.011c-.058 0-.136-.01-.215-.01h-.115a.72.72 0 0 1-.1 0 .445.445 0 0 0-.105.011.577.577 0 0 1 .1-.042.826.826 0 0 1 .1-.021.2.2 0 0 1 .058-.011h.062a.785.785 0 0 1 .121.006.184.184 0 0 0 .052.01.18.18 0 0 1 .047.016.33.33 0 0 1 .073.031zm.769-.832a2.361 2.361 0 0 1-.659-.005 1.8 1.8 0 0 0-.392.026.134.134 0 0 1-.063 0 1.835 1.835 0 0 0-.392-.026 2.377 2.377 0 0 1-.659.005c-.073-.005-.157-.016-.256-.026a3.773 3.773 0 0 0 .669-.147 1.124 1.124 0 0 1 .544-.036l.078.021a.266.266 0 0 0 .089 0l.079-.016a1.085 1.085 0 0 1 .549.031 3.773 3.773 0 0 0 .669.147c-.099.005-.183.016-.256.021zm-3.321-2.605c-.037 0-.084-.026-.052-.068 0 0 .005 0 .005-.01s.032-.021.047-.032l.288-.162a1.15 1.15 0 0 1 .889-.188 1.63 1.63 0 0 1 .648.423c.026.027.1.115.032.126s-.173-.115-.22-.147a1.317 1.317 0 0 0-.826-.188 1.723 1.723 0 0 0-.424.089c-.063.026-.131.047-.193.079a.481.481 0 0 1-.194.073zm.4.486a.722.722 0 0 1 .068.048.618.618 0 0 1 0-.136.259.259 0 0 1 .021-.063c0-.011.011-.058.022-.063-.052.021-.1.052-.147.073s-.084.047-.126.068c-.021.011-.057.037-.078.032s-.015-.011-.005-.021a1.541 1.541 0 0 1 .755-.398.819.819 0 0 1 .669.173c.142.12.095.22.095.22a1.686 1.686 0 0 0-.3-.22.557.557 0 0 1-.063.262.55.55 0 0 1-.319.256.542.542 0 0 0 .325-.073.842.842 0 0 0 .167-.121.22.22 0 0 1 .047-.026.105.105 0 0 1 .042 0 .047.047 0 0 1 .021.021.066.066 0 0 1 0 .053.318.318 0 0 1-.094.089.676.676 0 0 1-.241.109.8.8 0 0 1-.617-.083c-.318-.168-.281-.231-.248-.205zm.225 2.26a.089.089 0 0 0-.005-.021.217.217 0 0 1 0-.057.716.716 0 0 1 .026-.084.322.322 0 0 0 .022-.042c.01-.01.015-.026.025-.037a.872.872 0 0 1 .068-.068l.068-.052a.526.526 0 0 0 .053-.026.06.06 0 0 0 .021 0l-.016.015a.55.55 0 0 0-.037.042.117.117 0 0 0-.025.032c-.011.005-.017.021-.027.026s-.021.026-.031.036a.084.084 0 0 0-.027.032.436.436 0 0 0-.052.073.64.64 0 0 0-.036.063.316.316 0 0 0-.03.063zm3.238-.021a.089.089 0 0 0 0 .021.316.316 0 0 0-.027-.073 1.086 1.086 0 0 1-.036-.063.39.39 0 0 0-.053-.073c-.01-.011-.015-.026-.026-.032s-.021-.026-.031-.036-.016-.021-.026-.026a.146.146 0 0 1-.026-.032.373.373 0 0 1-.036-.042l-.017-.015a.06.06 0 0 0 .021 0 .526.526 0 0 0 .053.026l.068.052c.02.021.041.042.062.068a.132.132 0 0 1 .026.037.307.307 0 0 0 .027.042.716.716 0 0 1 .026.084zm.46-2.28c-.026 0-.063-.021-.084-.032l-.125-.068c-.047-.026-.089-.052-.141-.073.01 0 .021.052.021.063a.259.259 0 0 1 .021.063.618.618 0 0 1 0 .136.824.824 0 0 1 .067-.048c.032-.026.074.037-.235.21a.807.807 0 0 1-.622.083.694.694 0 0 1-.236-.109.276.276 0 0 1-.094-.089.066.066 0 0 1 0-.053.043.043 0 0 1 .021-.021.105.105 0 0 1 .042 0 .119.119 0 0 1 .042.026.977.977 0 0 0 .167.121.566.566 0 0 0 .33.073.549.549 0 0 1-.325-.256.633.633 0 0 1-.057-.262h-.006a1.929 1.929 0 0 0-.3.22s-.041-.1.1-.22a.815.815 0 0 1 .653-.183 1.515 1.515 0 0 1 .758.393c.01.007.016.021 0 .021zm.157-.445a.455.455 0 0 1-.194-.078 1.944 1.944 0 0 0-.2-.079 1.694 1.694 0 0 0-.419-.089 1.317 1.317 0 0 0-.826.188c-.047.032-.157.163-.22.147s0-.1.032-.126a1.63 1.63 0 0 1 .648-.423 1.143 1.143 0 0 1 .884.188c.1.052.2.11.293.162.016.011.037.016.047.032s0 .005 0 .01c.03.037-.011.063-.048.063z" style="fill:#fbd023"/><path d="M25.445 19.845a2.431 2.431 0 0 0-.094-.115 1.7 1.7 0 0 0-.267-.246 2.128 2.128 0 0 0-.779-.33c-.178-.047-.418-.12-.748-.219a3.456 3.456 0 0 1-1.481-.9l4.891-.889-5.12-.926a6.943 6.943 0 0 0 1.506-.884c.036-.026.073-.058.109-.084a3.287 3.287 0 0 0 .649-.69c.105-.142.214-.3.34-.482.345-.5 1-.444 1.428-.407l.345.02-.293-.177a2.706 2.706 0 0 0-.884-.309 2.016 2.016 0 0 0-.633-.021 1.973 1.973 0 0 0-.779.324c-.162.089-.387.21-.69.367a3.509 3.509 0 0 1-1.69.413l2.835-4.091-4.273 2.961a7.178 7.178 0 0 0 .455-1.82 4.824 4.824 0 0 0-.131-1.533.891.891 0 0 1 .006-.35.512.512 0 0 1 .02-.084 2.031 2.031 0 0 1 .691-.868l.267-.225-.335.084a2.527 2.527 0 0 0-1.3.837 1.126 1.126 0 0 0-.11.172 1.166 1.166 0 0 0-.058.11 4.343 4.343 0 0 0-.162.5c-.052.178-.12.424-.225.748a3.524 3.524 0 0 1-.9 1.485l-.513-2.84-.131-.711-.241-1.345-.25 1.342-.125.711-.555 3.065a7.114 7.114 0 0 0-.968-1.611 4.891 4.891 0 0 0-1.177-.994.9.9 0 0 1-.324-.4c-.005-.021-.016-.042-.021-.063a1.627 1.627 0 0 1-.083-.6c-.142.1-.278.2-.414.314l-.031.146c-.005.047-.016.094-.016.136a1.589 1.589 0 0 0 0 .5 2.073 2.073 0 0 0 .319.785c.089.162.21.381.372.69a3.458 3.458 0 0 1 .408 1.684l-3.1-2.149c-.1.1-.209.2-.3.308l2.275 3.285a7.062 7.062 0 0 0-1.82-.46 5.168 5.168 0 0 0-1.532.13.781.781 0 0 1-.351-.005 1.414 1.414 0 0 1-.711-.444 2.67 2.67 0 0 0-.2.272 2.743 2.743 0 0 0 .241.4 1.893 1.893 0 0 0 .156.194 1.657 1.657 0 0 0 .257.244 2.064 2.064 0 0 0 .784.324c.173.052.419.12.748.225a3.521 3.521 0 0 1 1.48.905l-3.551.646-1.344.241 5.126.931a6.742 6.742 0 0 0-1.616.967 3.446 3.446 0 0 0-.654.691c-.073.1-.152.214-.236.335-.031.047-.067.1-.1.146-.34.5-.994.445-1.423.413l-.345-.031.293.183a2.5 2.5 0 0 0 .826.3 2.181 2.181 0 0 0 .445.047 1.834 1.834 0 0 0 .241-.015 2.122 2.122 0 0 0 .784-.325c.162-.089.387-.209.69-.366a3.486 3.486 0 0 1 1.69-.408l-2.84 4.085 4.278-2.971a6.931 6.931 0 0 0-.455 1.831 4.788 4.788 0 0 0 .131 1.527.886.886 0 0 1-.006.356.438.438 0 0 1-.021.073 2.006 2.006 0 0 1-.7.874l-.261.225.334-.084a2.71 2.71 0 0 0 .947-.476 1.772 1.772 0 0 0 .355-.361 1.4 1.4 0 0 0 .115-.178 2.846 2.846 0 0 0 .215-.6c.052-.178.12-.419.225-.748a3.468 3.468 0 0 1 .9-1.486l.513 2.835.37 2.061.372-2.061.554-3.06a6.244 6.244 0 0 0 .4.785 7.983 7.983 0 0 0 .57.826 4.846 4.846 0 0 0 1.177.994.914.914 0 0 1 .324.4.219.219 0 0 0 .021.057 2.391 2.391 0 0 1 .062.973l-.026.345.178-.3a2.538 2.538 0 0 0 .314-.879 1.352 1.352 0 0 0 .016-.141 1.55 1.55 0 0 0 0-.491 2.073 2.073 0 0 0-.319-.785 15.474 15.474 0 0 1-.372-.685 3.5 3.5 0 0 1-.408-1.69l4.085 2.835-2.965-4.278a6.963 6.963 0 0 0 1.825.455 4.864 4.864 0 0 0 1.532-.126.882.882 0 0 1 .351 0 1.887 1.887 0 0 1 .946.717l.225.261-.078-.335a2.794 2.794 0 0 0-.477-.944zm-5.272-1.637a3.187 3.187 0 0 0 .177-.984h5.25zM20 18.192l-.016.047-.015.047a.175.175 0 0 0-.021.047.138.138 0 0 0-.021.042.194.194 0 0 1-.021.047 1.092 1.092 0 0 1-.052.11 2.79 2.79 0 0 1-.5.706l-.058.058a.629.629 0 0 1-.058.057 2.609 2.609 0 0 1-.5.377 2.547 2.547 0 0 1-.319.178c-.016 0-.032.015-.047.021l-.037.015a.2.2 0 0 1-.052.021l-.047.021h-.006a.253.253 0 0 1-.03.014 3.047 3.047 0 0 1-.968.188h-.167a3.009 3.009 0 0 1-.971-.188l-.048-.016a.27.27 0 0 1-.046-.019.2.2 0 0 1-.052-.021l-.042-.015c-.016-.006-.025-.016-.042-.021a2.539 2.539 0 0 1-.324-.178 2.647 2.647 0 0 1-.492-.377c-.021-.021-.041-.036-.062-.057a.558.558 0 0 1-.053-.058 3.091 3.091 0 0 1-.559-.816.162.162 0 0 0-.021-.047c0-.016-.011-.026-.016-.042s-.01-.031-.021-.047l-.021-.057a.281.281 0 0 1-.015-.037 3.157 3.157 0 0 1-.183-.968V16.931a2.982 2.982 0 0 1 .2-.884L14.32 16v-.01c0-.005.011-.026.016-.037a1.5 1.5 0 0 1 .094-.2 3.076 3.076 0 0 1 .555-.764 2.85 2.85 0 0 1 .549-.434 3.409 3.409 0 0 1 .371-.2s.011-.005.016-.005.016-.011.026-.016a.282.282 0 0 0 .053-.018l.016-.005a.022.022 0 0 0 .016-.005s0-.006.01-.006a2.6 2.6 0 0 1 .335-.1 3.073 3.073 0 0 1 .763-.094 2.859 2.859 0 0 1 .293.01 2.953 2.953 0 0 1 .848.209c.015.006.036.011.052.016l.016.01a2.4 2.4 0 0 1 .4.21 2.7 2.7 0 0 1 .486.376.318.318 0 0 1 .058.058.629.629 0 0 1 .058.057 3.01 3.01 0 0 1 .554.816.213.213 0 0 1 .021.047.127.127 0 0 0 .021.042.113.113 0 0 0 .021.047l.015.047.006.006c.005.015.005.026.01.042a3.009 3.009 0 0 1 .188.967v.162a3.02 3.02 0 0 1-.187.964zm5.6-1.13h-5.25a3.129 3.129 0 0 0-.177-.983zm-1.281-3.081c-.152.22-.283.408-.408.576a3.068 3.068 0 0 1-.549.559c-.032.032-.068.058-.1.084a6.248 6.248 0 0 1-1.726.957l-1.151-.2.382-.125.272-.1c.235-.089.491-.193.795-.334a.857.857 0 0 0 .136-.063l.125-.058a1.167 1.167 0 0 1 .126-.057c.073-.042.141-.079.209-.115l.1-.058c.084-.052.173-.11.267-.167.037-.026.068-.053.11-.079a.35.35 0 0 1 .042-.026 1.108 1.108 0 0 0 .094-.068c.037-.026.084-.057.125-.089s.053-.036.079-.057c.193-.142.424-.309.711-.529a2.771 2.771 0 0 1 .863-.444 1.114 1.114 0 0 0-.506.393zm-1.3.037c.308-.162.528-.282.69-.371a1.962 1.962 0 0 1 .732-.3 1.827 1.827 0 0 1 .581.016c.016.005.037.005.052.01a2.5 2.5 0 0 0-1.213.529c-.382.287-.659.5-.884.659a6.438 6.438 0 0 1-.586.376c-.026.016-.047.026-.072.042a4.74 4.74 0 0 1-.215.11c-.053.026-.105.052-.163.078s-.109.058-.172.084a13.95 13.95 0 0 1-1.062.429c-.178.058-.35.115-.533.167l.894-1.286.078-.115h.006a3.6 3.6 0 0 0 1.866-.428zm-2.15.539-.831 1.2a3.185 3.185 0 0 0-.57-.822l.381-.376 3.327-3.332zm2.191-3.447-3.708 3.708c-.042-.042-.079-.073-.12-.11-.006-.005-.011-.005-.016-.01l-.021-.016c-.005-.005-.006-.005-.006-.01l-.13-.1a.063.063 0 0 1-.021-.015c0-.006 0-.006-.011-.006-.036-.031-.073-.057-.109-.083s-.069-.042-.1-.063h-.016V14.4a.4.4 0 0 1-.073-.042s-.01-.006-.016-.006c-.057-.036-.12-.062-.183-.094l1.114-.774zm-3.081-1.277a4.928 4.928 0 0 1 .131 1.486 6.505 6.505 0 0 1-.56 2.029l-.957.659a11.843 11.843 0 0 0 .633-1.417 7.9 7.9 0 0 0 .476-2.04c.016-.131.037-.272.057-.429.011-.073.027-.146.042-.214a1.221 1.221 0 0 1 .047-.194 1.854 1.854 0 0 1 .058-.178 1.021 1.021 0 0 1 .052-.131c0-.01.006-.015.011-.026a1.738 1.738 0 0 1 .089-.178 1.271 1.271 0 0 0-.058.173l-.016.052a1.071 1.071 0 0 0-.005.408zm-.889.942c.105-.33.173-.57.225-.748a4.381 4.381 0 0 1 .157-.481.789.789 0 0 1 .094-.173c.016-.026.032-.047.052-.078a2.055 2.055 0 0 1 .466-.429 2.191 2.191 0 0 0-.293.507c-.021.047-.036.1-.052.147s-.042.12-.058.177a2.88 2.88 0 0 0-.078.4c-.027.157-.047.3-.063.429a7.691 7.691 0 0 1-.471 2 11.293 11.293 0 0 1-.7 1.554l-.3-1.684a3.534 3.534 0 0 0 1.021-1.621zm-1.862-2.082.121.68.857 4.744a3.129 3.129 0 0 0-.752-.167l-.226-.016zm-.288.68.121-.68v5.241a3.355 3.355 0 0 0-.722.105 2.168 2.168 0 0 0-.256.078zm-2.955.6a4.772 4.772 0 0 1 1.135.958 6.286 6.286 0 0 1 1.041 1.83l-.209 1.139a11.965 11.965 0 0 0-.554-1.449 8.911 8.911 0 0 0-1.329-2.071.352.352 0 0 0-.042-.058 2.641 2.641 0 0 1-.439-.863c0 .016.005.021.016.037a1.041 1.041 0 0 0 .381.473zm.037 1.3c-.162-.309-.288-.529-.371-.691a1.817 1.817 0 0 1-.3-.732 1.174 1.174 0 0 1-.021-.235 1.354 1.354 0 0 1 .011-.136.751.751 0 0 1 .01-.1 1.007 1.007 0 0 1 .016-.11.167.167 0 0 1 .011-.052 1.1 1.1 0 0 0 .02.126c0 .01.006.026.006.036a.647.647 0 0 0 .026.115 1.385 1.385 0 0 0 .094.277c.021.046.042.1.068.157s.058.1.089.162c0 .006.005.011.005.016.026.037.047.079.073.12l.037.053c.037.052.068.1.105.151a.379.379 0 0 1 .041.053 8.837 8.837 0 0 1 1.308 2.045 11.4 11.4 0 0 1 .6 1.6l-1.407-.978a1.5 1.5 0 0 0 .011-.2 3.7 3.7 0 0 0-.432-1.683zm1.731 2.981c-.073.037-.146.079-.219.12s-.11.068-.163.1l-.005.005a.737.737 0 0 0-.109.078.006.006 0 0 0-.006.006.076.076 0 0 0-.021.015 1.178 1.178 0 0 0-.13.1l-.011.01-.016.016c-.005 0-.01 0-.015.01-.042.037-.084.068-.126.11l-.261-.261-3.447-3.453zm-4.644-3.023 3.331 3.332.377.376a3.283 3.283 0 0 0-.528.748c-.011.021-.026.047-.037.074l-.11-.157-.727-1.041zM9.425 14.3a1.049 1.049 0 0 0 .408.006 4.755 4.755 0 0 1 1.485-.126c.1.011.2.026.3.042.073.01.141.026.215.037a.031.031 0 0 0 .021 0 .751.751 0 0 0 .094.021l.094.015c.021.006.036.006.057.011a.369.369 0 0 1 .079.021 1.783 1.783 0 0 1 .2.052h.031a.145.145 0 0 0 .042.011c.079.026.157.047.23.068s.157.052.236.083v.006a3.078 3.078 0 0 1 .423.183l.665.952c-.2-.1-.4-.2-.623-.3s-.481-.2-.795-.324a6.2 6.2 0 0 0-.988-.3c-.152-.032-.319-.058-.528-.094-.042-.006-.089-.016-.142-.021-.036-.006-.072-.016-.115-.021a2.021 2.021 0 0 0-.209-.026c-.084-.016-.178-.027-.277-.042l-.209-.032a2.548 2.548 0 0 1-.926-.3.972.972 0 0 0 .232.078zm1.354.9c-.329-.11-.575-.178-.752-.23a1.868 1.868 0 0 1-.728-.3.681.681 0 0 1-.094-.074c-.015-.01-.026-.026-.042-.036a2.667 2.667 0 0 1-.245-.283.671.671 0 0 0-.053-.073c.037.026.068.052.105.078a1.23 1.23 0 0 1 .1.068 1.578 1.578 0 0 0 .168.089c.036.016.078.037.125.053s.1.042.157.062l.005.006c.042.01.089.026.132.036l.114.032c.1.021.209.042.325.062a9.308 9.308 0 0 1 2.437.529 12.582 12.582 0 0 1 1.548.7l-1.684.308a3.5 3.5 0 0 0-1.618-1.027zm3.337.879a3.265 3.265 0 0 0-.172.842 1.07 1.07 0 0 0-.006.141H8.693zm-5.423 1.145h5.245a3.188 3.188 0 0 0 .178.984l-1.647-.3zm1.282 3.081a1.5 1.5 0 0 1 .093-.141c.11-.162.215-.3.314-.434a2.537 2.537 0 0 1 .22-.256.91.91 0 0 1 .105-.11 1.8 1.8 0 0 1 .219-.2 6.306 6.306 0 0 1 1.83-1.036l1.146.2-.377.126a10.836 10.836 0 0 0-1.072.434l-.293.136c-.057.031-.11.057-.157.078-.005 0-.005.006-.005.006l-.173.094a1.33 1.33 0 0 0-.151.089c-.047.031-.094.057-.141.094a.346.346 0 0 0-.074.047.105.105 0 0 0-.026.016c-.042.026-.078.052-.12.078-.083.063-.178.126-.277.2s-.2.146-.309.23c-.031.021-.063.047-.094.068a8.815 8.815 0 0 0-.3.23 2.673 2.673 0 0 1-.869.445 1.094 1.094 0 0 0 .511-.394zm2.97-.465a3.652 3.652 0 0 0-1.679.429c-.3.157-.528.282-.685.371a1.931 1.931 0 0 1-.738.3 2.008 2.008 0 0 1-.633-.026 2.509 2.509 0 0 0 1.219-.528c.162-.126.309-.23.435-.324a.914.914 0 0 1 .093-.062 1.339 1.339 0 0 1 .11-.084.721.721 0 0 1 .073-.052l.068-.053c.022-.015.047-.031.068-.047l.037-.031c.162-.11.293-.2.418-.277.037-.027.074-.042.105-.063a3.651 3.651 0 0 1 .35-.188l.157-.079a3.92 3.92 0 0 0 .178-.084 11.261 11.261 0 0 1 1.057-.423c.183-.063.355-.121.538-.178l-.894 1.292-.084.115a2.34 2.34 0 0 0-.193-.008zm.22.256.256-.366.831-1.2a3.154 3.154 0 0 0 .565.821l-.377.377-3.331 3.332zm-1.935 3.081 3.441-3.447.266-.262c.058.058.121.11.183.162a1.036 1.036 0 0 0 .131.1h.011a.9.9 0 0 0 .109.084c.032.021.063.042.1.063h.016a.309.309 0 0 1 .073.042c.063.036.13.068.193.1zm3.08 1.276a4.545 4.545 0 0 1-.131-1.48 6.4 6.4 0 0 1 .56-2.03l.957-.664a11.038 11.038 0 0 0-.633 1.418 6.507 6.507 0 0 0-.392 1.5c-.042.251-.084.564-.146.972-.006.058-.017.116-.027.173s-.026.115-.042.173v.015l-.031.095c-.005.026-.016.047-.021.068-.026.078-.058.151-.084.219s-.063.126-.094.183a.96.96 0 0 0 .063-.183l.016-.047a1.181 1.181 0 0 0 .005-.412zm1.454-2.071a4.027 4.027 0 0 0-.565 1.124c-.105.33-.178.576-.23.754-.011.041-.021.083-.032.115v.026c-.016.042-.026.084-.036.12a.02.02 0 0 0-.005.016l-.032.084a.6.6 0 0 0-.026.083 1.152 1.152 0 0 1-.11.2.845.845 0 0 1-.058.084 1.564 1.564 0 0 1-.324.329 1.721 1.721 0 0 1-.141.1 1.153 1.153 0 0 0 .152-.225 1.1 1.1 0 0 0 .073-.131 1.09 1.09 0 0 0 .073-.157c.016-.047.037-.094.052-.146a1.754 1.754 0 0 0 .058-.173 3.934 3.934 0 0 0 .078-.4c.063-.414.105-.722.147-.973a6.255 6.255 0 0 1 .387-1.465 11.556 11.556 0 0 1 .7-1.553l.3 1.684a2.839 2.839 0 0 0-.461.504zm1.3 3.217-.121-.691-.862-4.734a3.147 3.147 0 0 0 .983.173zm.288-.691-.121.691v-5.252a3.091 3.091 0 0 0 .978-.173zm2.954-.591a4.806 4.806 0 0 1-1.135-.957 6.32 6.32 0 0 1-1.04-1.831l.209-1.145a10.136 10.136 0 0 0 .529 1.391l.025.058a9.255 9.255 0 0 0 1.365 2.128 2.516 2.516 0 0 1 .445.864c0-.011-.011-.027-.016-.037a1.019 1.019 0 0 0-.388-.471zm-.036-1.3c.162.309.282.528.371.69a1.916 1.916 0 0 1 .3.733.951.951 0 0 1 .021.225 1.265 1.265 0 0 1-.01.146v.016a.349.349 0 0 1-.011.078.882.882 0 0 1-.015.115.167.167 0 0 1-.011.053 1.143 1.143 0 0 0-.021-.131v-.037c-.01-.036-.016-.073-.026-.115a1.256 1.256 0 0 1-.037-.125c-.021-.053-.036-.1-.057-.147l-.073-.157a1.138 1.138 0 0 0-.084-.162l-.058-.089s0-.01-.01-.016 0-.005 0-.01a.026.026 0 0 0-.011-.021l-.041-.057c0-.006-.006-.011-.006-.016-.031-.042-.063-.084-.094-.131a9.5 9.5 0 0 1-1.349-2.1.28.28 0 0 0-.026-.063 11.636 11.636 0 0 1-.57-1.528l1.406.973a3.506 3.506 0 0 0 .409 1.879zm-1.74-2.984a2.33 2.33 0 0 0 .2-.1.309.309 0 0 1 .073-.042h.016c.031-.021.068-.042.1-.063s.073-.053.109-.084h.011a2.478 2.478 0 0 0 .314-.262l.261.262 3.447 3.447zm4.645 3.029-3.327-3.332-.381-.377a3.259 3.259 0 0 0 .533-.748c.011-.026.026-.047.037-.073l.768 1.109.063.089zm1.689-3.076a1.1 1.1 0 0 0-.413 0 4.69 4.69 0 0 1-1.48.125c-.105-.01-.2-.026-.3-.041-.074-.011-.146-.027-.215-.037a1.093 1.093 0 0 1-.134-.033c-.073-.016-.141-.032-.214-.047s-.173-.042-.256-.068-.136-.037-.2-.058l-.094-.031c-.068-.021-.126-.042-.189-.063h-.005a3.859 3.859 0 0 1-.424-.178l-.663-.957c.2.1.4.2.622.3s.481.209.8.324a8.258 8.258 0 0 0 2.212.5h.052l.2.031a2.587 2.587 0 0 1 .926.3 1.078 1.078 0 0 0-.225-.067zm.45.021c-.032-.021-.068-.047-.105-.068a1.213 1.213 0 0 0-.157-.084.512.512 0 0 0-.11-.052c-.015-.005-.031-.016-.047-.021l-.125-.047h-.011c-.052-.016-.11-.032-.167-.047s-.105-.026-.157-.042c-.079-.016-.157-.031-.241-.042s-.177-.026-.256-.037a8.2 8.2 0 0 1-2.181-.491 11.359 11.359 0 0 1-1.548-.706l1.684-.3a3.539 3.539 0 0 0 1.621 1.031c.33.1.576.172.748.225a1.8 1.8 0 0 1 .733.3 1.287 1.287 0 0 1 .136.11c.026.026.047.047.073.078a1.555 1.555 0 0 1 .12.136 1.2 1.2 0 0 1 .1.142 1.285 1.285 0 0 0-.11-.085z"/><path d="M18.74 18.553a.1.1 0 0 1-.021-.042c-.01-.01-.021-.026-.032-.037a.47.47 0 0 0-.062-.068.659.659 0 0 0-.068-.047.248.248 0 0 0-.053-.026.032.032 0 0 0-.021-.01l.017.015a.155.155 0 0 0 .036.042l.026.032.026.026c.011.011.021.026.031.036s.016.021.026.032a.39.39 0 0 1 .053.073.4.4 0 0 1 .036.063.316.316 0 0 1 .027.073.089.089 0 0 1 0-.021v-.057a.716.716 0 0 0-.021-.084zM17.1 19.05h.083a1.364 1.364 0 0 0 .544-.089 2.518 2.518 0 0 1 .654-.314s-.058 0-.152.005a2.236 2.236 0 0 0-.58.152 1.631 1.631 0 0 1-.508.058 1.6 1.6 0 0 1-.507-.058 2.236 2.236 0 0 0-.58-.152c-.095-.005-.152-.005-.152-.005a2.5 2.5 0 0 1 .654.314 1.364 1.364 0 0 0 .544.089zM19.226 16.393a1.515 1.515 0 0 0-.758-.393.815.815 0 0 0-.665.173c-.14.12-.1.22-.1.22a1.929 1.929 0 0 1 .3-.22h.006a.633.633 0 0 0 .057.262.549.549 0 0 0 .325.256.566.566 0 0 1-.33-.073.977.977 0 0 1-.161-.118.119.119 0 0 0-.042-.026.105.105 0 0 0-.042 0 .043.043 0 0 0-.021.021.066.066 0 0 0 0 .053.276.276 0 0 0 .094.089.694.694 0 0 0 .236.109.807.807 0 0 0 .622-.083c.309-.173.267-.236.235-.21a.824.824 0 0 0-.067.048.618.618 0 0 0 0-.136.259.259 0 0 0-.015-.065c0-.011-.011-.058-.021-.063.052.021.094.052.141.073s.089.047.125.068.058.037.084.032.007-.01-.003-.017zm-.34.125a1.147 1.147 0 0 1-.34.147c.006 0 .011-.006.016-.006.188-.115.12-.418.094-.512a.041.041 0 0 0 .021.005 1.71 1.71 0 0 1 .189.084.8.8 0 0 1 .02.282z"/><path d="M17.526 16.058c.063.016.168-.115.22-.147a1.317 1.317 0 0 1 .826-.188 1.694 1.694 0 0 1 .419.089c.068.026.136.052.2.079a.528.528 0 0 0 .194.078c.037 0 .078-.026.052-.068v-.01a.261.261 0 0 0-.047-.032c-.094-.052-.194-.11-.293-.162a1.2 1.2 0 0 0-.897-.197 1.732 1.732 0 0 0-.643.429c-.026.03-.103.118-.031.129zM16.721 18.569a1.835 1.835 0 0 1 .392.026.134.134 0 0 0 .063 0 1.8 1.8 0 0 1 .392-.026 2.361 2.361 0 0 0 .659.005c.073-.005.157-.016.256-.026a3.773 3.773 0 0 1-.669-.147 1.085 1.085 0 0 0-.549-.031l-.079.016a.265.265 0 0 1-.089 0l-.078-.016a1.088 1.088 0 0 0-.549.031 3.668 3.668 0 0 1-.664.147c.1.01.183.021.256.026a2.363 2.363 0 0 0 .659-.005zM17.432 19.4a.082.082 0 0 0 .026.006.069.069 0 0 0-.021-.016c-.015 0-.042-.016-.073-.026a.18.18 0 0 0-.047-.016.235.235 0 0 1-.052-.01.785.785 0 0 0-.121-.006h-.062a.237.237 0 0 0-.058.011c-.036 0-.073.015-.1.021a.631.631 0 0 0-.094.042s.041-.006.105-.011H17.15c.079 0 .157 0 .215.01.025-.005.051-.005.067-.005zM16.689 17.355s-.2.063-.256.387a.825.825 0 0 0-.22.094 1.08 1.08 0 0 0-.177.162c.01-.015.042-.02.058-.026s.036-.015.052-.026c.036-.016.073-.031.115-.047a.978.978 0 0 1 .272-.068.876.876 0 0 1 .261.021.485.485 0 0 0 .35.146.5.5 0 0 0 .351-.146.854.854 0 0 1 .256-.021 1.047 1.047 0 0 1 .278.068c.036.016.073.031.114.047a.374.374 0 0 0 .053.026c.01.006.047.011.057.026a1.047 1.047 0 0 0-.178-.162.984.984 0 0 0-.219-.094c-.058-.324-.257-.387-.257-.387.309.466-.125.372-.177.319.015.162-.168.173-.246.173h-.063c-.078 0-.261-.011-.251-.173-.047.053-.481.147-.173-.319zM15.732 18.359a.308.308 0 0 0-.068.047.419.419 0 0 0-.062.068c-.011.011-.021.027-.031.037a.352.352 0 0 0-.022.042.308.308 0 0 0-.026.084.217.217 0 0 0 0 .057.031.031 0 0 0 .005.021.316.316 0 0 1 .027-.073.338.338 0 0 1 .036-.063.436.436 0 0 1 .052-.073.153.153 0 0 1 .027-.032c.01-.01.02-.026.031-.036s.016-.021.027-.026.015-.021.025-.032a.558.558 0 0 0 .037-.042l.016-.015a.032.032 0 0 0-.021.01.171.171 0 0 0-.053.026zM16.213 16.435a.557.557 0 0 0 .063-.262 1.686 1.686 0 0 1 .3.22s.047-.1-.095-.22a.819.819 0 0 0-.665-.173 1.541 1.541 0 0 0-.758.393c-.01.01-.01.021.005.021s.057-.021.078-.032c.042-.021.084-.042.126-.068s.1-.052.147-.073c-.011 0-.022.052-.022.063a.259.259 0 0 0-.021.063.618.618 0 0 0 0 .136.722.722 0 0 0-.068-.048c-.036-.026-.073.037.236.21a.8.8 0 0 0 .617.083.676.676 0 0 0 .241-.109.318.318 0 0 0 .094-.089.066.066 0 0 0 0-.053.047.047 0 0 0-.021-.021.105.105 0 0 0-.042 0 .22.22 0 0 0-.047.026.842.842 0 0 1-.167.121.542.542 0 0 1-.325.073.55.55 0 0 0 .324-.261zm-.81.083a.766.766 0 0 1 .016-.282c.073-.037.146-.068.188-.084a.048.048 0 0 0 .026-.005c-.026.094-.1.4.1.512l.01.006a1.172 1.172 0 0 1-.343-.147z"/><path d="M15.293 15.812a1.685 1.685 0 0 1 .424-.089 1.317 1.317 0 0 1 .826.188c.047.032.157.163.22.147s-.006-.1-.032-.126a1.71 1.71 0 0 0-.648-.429 1.207 1.207 0 0 0-.889.194l-.288.162c-.021.011-.037.016-.047.032s-.005.005-.005.01c-.026.042.015.068.052.068a.494.494 0 0 0 .188-.078z"/></svg>