<svg xmlns="http://www.w3.org/2000/svg" viewBox="0 0 55 55"><path d="M49.231 19.1H5.769a23.3 23.3 0 0 1 43.462 0z" style="fill:#0398b4"/><path d="M49.231 35.9a23.3 23.3 0 0 1-43.462 0z" style="fill:#19b43d"/><path d="M50.8 27.5a23.148 23.148 0 0 1-1.119 7.134H5.319a23.284 23.284 0 0 1 0-14.263h44.362A23.135 23.135 0 0 1 50.8 27.5z" style="fill:#fff"/><path d="M49.681 20.366H5.319c.136-.429.283-.852.45-1.271h43.462c.162.419.314.842.45 1.271zM49.681 34.629a22.03 22.03 0 0 1-.45 1.271H5.769a18.81 18.81 0 0 1-.45-1.271z" style="fill:#cd1225"/><path d="M21.915 17.636a4.7 4.7 0 0 1 0-9.409h.1a5.132 5.132 0 0 0-1.632-.277 4.977 4.977 0 0 0 0 9.953 5.132 5.132 0 0 0 1.632-.277.706.706 0 0 1-.1.01zM30.889 15.685l.235.732h.769l-.622.45.24.727-.622-.45-.622.45.24-.727-.622-.45h.769l.235-.732zM27.04 15.685l.235.732h.769l-.622.45.24.727-.622-.45-.617.45.235-.727-.622-.45h.768l.236-.732zM23.19 15.685l.242.732h.763l-.618.45.236.727-.623-.45-.617.45.236-.727-.623-.45h.769l.235-.732zM34.738 15.685l.236.732h.769l-.623.45.236.727-.618-.45-.622.45.235-.727-.616-.45h.763l.24-.732zM38.583 15.685l.24.732h.764l-.617.45.235.727-.622-.45-.618.45.236-.727-.617-.45h.763l.236-.732zM30.889 11.82l.235.732h.769l-.622.45.24.727-.622-.45-.622.45.24-.727-.622-.45h.769l.235-.732zM27.04 11.82l.235.732h.769l-.622.45.24.727-.622-.45-.617.45.235-.727-.622-.45h.768l.236-.732zM34.738 11.82l.236.732h.769l-.623.45.236.727-.618-.45-.622.45.235-.727-.616-.45h.763l.24-.732zM38.583 11.82l.24.732h.764l-.617.45.235.727-.622-.45-.618.45.236-.727-.617-.45h.763l.236-.732zM30.889 7.955l.235.732h.769l-.622.45.24.727-.622-.45-.622.45.24-.727-.622-.45h.769l.235-.732zM34.738 7.955l.236.732h.769l-.623.45.236.727-.618-.45-.622.45.235-.727-.616-.45h.763l.24-.732zM38.583 7.955l.24.732h.764l-.617.45.235.727-.622-.45-.618.45.236-.727-.617-.45h.763l.236-.732z" style="fill:#fff"/></svg>