<svg xmlns="http://www.w3.org/2000/svg" viewBox="0 0 55 55"><path d="M31.773 27.5 7.756 39.864a16.342 16.342 0 0 1-.428-.717 23.248 23.248 0 0 1 0-23.294c.136-.246.282-.482.428-.717z" style="fill:#fff"/><path d="M50.418 31.705A23.285 23.285 0 0 1 11.271 44.2l24.262-12.5z" style="fill:#009444"/><path d="M50.418 23.3H35.533L11.271 10.8a23.3 23.3 0 0 1 39.147 12.5z" style="fill:#d11133"/><path d="M31.773 27.5 7.756 39.864a16.342 16.342 0 0 1-.428-.717 23.248 23.248 0 0 1 0-23.294c.136-.246.282-.482.428-.717z" style="fill:#fff"/><path d="M34.812 28.734h15.957a23.138 23.138 0 0 1-.351 2.971H35.533L11.271 44.2a23.229 23.229 0 0 1-2.061-2.286l24.331-12.526zM33.541 25.612 9.21 13.086a23.229 23.229 0 0 1 2.061-2.286l24.262 12.5h14.885a23.138 23.138 0 0 1 .351 2.971H34.812z"/><path d="M50.8 27.5c0 .413-.01.826-.031 1.234H34.812l-1.271.654L9.21 41.914a21.815 21.815 0 0 1-1.454-2.05L31.773 27.5 7.756 15.136a21.815 21.815 0 0 1 1.454-2.05l24.331 12.526 1.271.654h15.957c.021.408.031.821.031 1.234z" style="fill:#fccd1f"/><path d="M31.773 27.5 7.756 39.864a16.342 16.342 0 0 1-.428-.717 23.248 23.248 0 0 1 0-23.294c.136-.246.282-.482.428-.717z" style="fill:#fff"/><path d="M31.773 27.5 7.756 39.864a16.342 16.342 0 0 1-.428-.717 23.248 23.248 0 0 1 0-23.294c.136-.246.282-.482.428-.717z"/><path d="M12.019 31.977v2.667a14.081 14.081 0 0 0 1.81-.334 7.146 7.146 0 0 0 3.263-2.061 7.849 7.849 0 0 0 1.229-8.028 6.32 6.32 0 0 0-3.493-3.395 5.992 5.992 0 0 0-4.294-.073 5.883 5.883 0 0 0-3.7 3.761 5.278 5.278 0 0 0 1.234 5.13 4.32 4.32 0 0 0 .623.534c1.914 1.37 5.371 1.4 6.532-.978a3.705 3.705 0 0 0 .418-1.58v-.606a3.025 3.025 0 0 1-.889 1.841 3.634 3.634 0 0 1-3 1.135 3.78 3.78 0 0 1-3.273-2.631 4.034 4.034 0 0 1 2.463-4.608 4.231 4.231 0 0 1 4.534 1.281l.079.1a4.728 4.728 0 0 1 .978 2.913 5.061 5.061 0 0 1-4.273 4.906c-.079.01-.16.021-.241.026z" style="fill:#fccd1f"/><path d="M14.7 28.515s-.121-.194-.319-.482a.148.148 0 0 1 .013-.033 1.345 1.345 0 0 0 .105-.7.343.343 0 0 0-.069-.209c-.1-.094-.162.074-.178.147a3.233 3.233 0 0 0-.031.549v.01c-.042-.052-.079-.109-.12-.167a.057.057 0 0 0 .015-.031 1.327 1.327 0 0 0 .105-.7.32.32 0 0 0-.068-.2c-.1-.1-.162.073-.177.146a3.016 3.016 0 0 0-.032.544.034.034 0 0 1-.006.021l-.115-.162a.384.384 0 0 0 .016-.052 1.194 1.194 0 0 0 .016-.649.3.3 0 0 0-.089-.177c-.1-.079-.141.083-.147.151a3.208 3.208 0 0 0 .037.5v.011h-.005c-.058-.074-.11-.147-.173-.215a.133.133 0 0 0 .016-.042 1.189 1.189 0 0 0 .016-.648.343.343 0 0 0-.089-.178c-.1-.079-.142.084-.147.152a3.469 3.469 0 0 0 .037.507c-.063-.073-.131-.147-.194-.22a1.129 1.129 0 0 0 .011-.591.288.288 0 0 0-.084-.167c-.094-.073-.125.078-.131.141a2.386 2.386 0 0 0 .026.424c-.041-.042-.078-.084-.12-.126a.843.843 0 0 0-.068-.063 1.126 1.126 0 0 0 .005-.559.315.315 0 0 0-.083-.162c-.094-.074-.126.073-.131.141a1.638 1.638 0 0 0 .021.4l-.256-.225a1.127 1.127 0 0 0 0-.507.3.3 0 0 0-.074-.152c-.088-.067-.12.068-.125.131a1.819 1.819 0 0 0 .026.382c-.041-.031-.078-.063-.115-.094a.2.2 0 0 1 0-.037 1.081 1.081 0 0 0-.088-.544.306.306 0 0 0-.105-.136c-.094-.047-.1.1-.094.152a2.805 2.805 0 0 0 .1.413.02.02 0 0 1 .005.016l-.2-.152a1.058 1.058 0 0 0-.089-.533.277.277 0 0 0-.1-.131c-.1-.052-.1.089-.1.146a1.882 1.882 0 0 0 .1.377l-.151-.1a.307.307 0 0 1 .005-.036.941.941 0 0 0-.109-.471.274.274 0 0 0-.1-.115c-.089-.037-.084.089-.079.136a2.156 2.156 0 0 0 .121.361.022.022 0 0 0 0 .016c-.089-.058-.162-.11-.23-.157v-.032a.867.867 0 0 0-.142-.465.221.221 0 0 0-.1-.105c-.089-.031-.079.089-.068.141a1.491 1.491 0 0 0 .084.22c-.079-.068-.241-.2-.33-.282-.12-.11-.225-.11-.2-.016s.125.183.193.251a.943.943 0 0 0 .2.152c.015.01.031.015.047.026-.11-.011-.257-.021-.346-.032-.162-.02-.245.042-.177.11a.632.632 0 0 0 .3.089 1.29 1.29 0 0 0 .256.005l.131-.015c.016 0 .063-.016.089-.021a1.9 1.9 0 0 0 .2.141c.01.011.021.016.031.026-.1-.015-.261-.031-.361-.047-.146-.021-.225.037-.157.105a.545.545 0 0 0 .283.1.874.874 0 0 0 .235.011l.12-.016a.644.644 0 0 1 .068-.011c.042.032.089.063.131.1a5.182 5.182 0 0 1-.34-.042c-.172-.021-.256.042-.183.12a.571.571 0 0 0 .32.11 1.128 1.128 0 0 0 .266.011 1.352 1.352 0 0 0 .141-.016h.011c.052.042.105.089.157.136a11.15 11.15 0 0 0-.33-.042c-.167-.026-.256.042-.178.12a.669.669 0 0 0 .319.11 1.127 1.127 0 0 0 .267.011l.131-.016c.068.063.136.131.209.193-.058-.021-.115-.041-.162-.062-.173-.068-.283-.021-.225.083a.682.682 0 0 0 .314.2 1.068 1.068 0 0 0 .287.084l.121.015c.052.047.1.095.151.147l-.219-.084c-.173-.073-.288-.026-.225.079a.6.6 0 0 0 .313.2 1.107 1.107 0 0 0 .283.084 1.292 1.292 0 0 0 .152.021.6.6 0 0 0 .068.063l.156.172a9.847 9.847 0 0 1-.366-.151c-.172-.079-.287-.037-.229.068a.646.646 0 0 0 .308.214 1.222 1.222 0 0 0 .277.094c.052.011.1.016.152.026h.057c.052.074.105.142.157.22-.114-.047-.246-.105-.335-.141-.167-.079-.282-.037-.225.068a.639.639 0 0 0 .3.214 1.28 1.28 0 0 0 .282.094c.047.011.1.016.152.027.042.062.084.13.126.193-.121-.047-.325-.136-.445-.188-.173-.073-.283-.032-.225.073s.2.162.3.214a1.169 1.169 0 0 0 .282.1c.047.01.1.015.146.026h.073c.027.047.058.094.084.136-.12-.047-.324-.131-.439-.183-.173-.074-.283-.032-.225.073s.2.162.3.214a.966.966 0 0 0 .283.089 1.242 1.242 0 0 0 .146.026.177.177 0 0 0 .063.006c.157.266.256.455.256.455z" style="fill:#fccd1f"/><path d="M9.9 28.515s.12-.194.319-.482A.148.148 0 0 0 10.2 28a1.324 1.324 0 0 1-.1-.7.33.33 0 0 1 .068-.209c.1-.094.162.074.177.147a3.233 3.233 0 0 1 .032.549.015.015 0 0 0 0 .01c.037-.052.073-.109.115-.167a.061.061 0 0 1-.016-.031 1.316 1.316 0 0 1-.1-.7.314.314 0 0 1 .068-.2c.1-.1.162.073.178.146a3.209 3.209 0 0 1 .031.544.039.039 0 0 0 .005.021l.115-.162a.314.314 0 0 0-.015-.052 1.184 1.184 0 0 1-.016-.649.3.3 0 0 1 .089-.177c.1-.079.141.083.146.151a3.208 3.208 0 0 1-.036.5v.011c.057-.074.115-.147.172-.215 0-.021-.015-.037-.015-.042a1.179 1.179 0 0 1-.016-.648.343.343 0 0 1 .089-.178c.1-.079.141.084.146.152a2.8 2.8 0 0 1-.036.507c.063-.073.131-.147.193-.22a1.139 1.139 0 0 1-.01-.591.281.281 0 0 1 .083-.167c.095-.073.126.078.131.141a1.871 1.871 0 0 1-.026.424c.042-.042.079-.084.121-.126a.686.686 0 0 1 .067-.063 1.126 1.126 0 0 1-.005-.559.325.325 0 0 1 .084-.162c.094-.074.125.073.131.141a1.746 1.746 0 0 1-.021.4c.084-.078.167-.151.256-.225a1.048 1.048 0 0 1 0-.507.272.272 0 0 1 .078-.152c.084-.067.115.068.121.131a1.964 1.964 0 0 1-.026.382c.041-.031.078-.063.115-.094a.165.165 0 0 0-.006-.037 1.093 1.093 0 0 1 .089-.544.306.306 0 0 1 .1-.136c.094-.047.1.1.094.152a2.808 2.808 0 0 1-.105.413.02.02 0 0 0-.005.016l.2-.152a1.037 1.037 0 0 1 .089-.533.305.305 0 0 1 .1-.131c.1-.052.1.089.1.146a2.19 2.19 0 0 1-.095.377c.048-.037.1-.073.147-.1a.307.307 0 0 0 0-.036.936.936 0 0 1 .115-.471.226.226 0 0 1 .094-.115c.089-.037.084.089.078.136a2.15 2.15 0 0 1-.119.361v.016l.224-.157v-.032a.859.859 0 0 1 .142-.465c.025-.037.057-.089.1-.105.089-.031.078.089.068.141a1.612 1.612 0 0 1-.084.22c.078-.068.241-.2.33-.282.12-.11.224-.11.2-.016s-.125.183-.193.251a.994.994 0 0 1-.2.152c-.015.01-.031.015-.047.026.11-.011.256-.021.346-.032.161-.02.245.042.177.11a.632.632 0 0 1-.3.089 1.3 1.3 0 0 1-.257.005l-.13-.015a.747.747 0 0 0-.089-.021 2.014 2.014 0 0 1-.2.141c-.011.011-.021.016-.031.026.1-.015.266-.031.361-.047.146-.021.224.037.157.105a.53.53 0 0 1-.283.1.874.874 0 0 1-.235.011l-.121-.016a.564.564 0 0 0-.068-.011l-.13.1c.115-.011.251-.026.345-.042.167-.021.256.042.178.12a.574.574 0 0 1-.32.11 1.117 1.117 0 0 1-.266.011 1.352 1.352 0 0 1-.141-.016h-.011a3.806 3.806 0 0 0-.157.136c.111-.016.241-.032.33-.042.167-.026.256.042.177.12a.665.665 0 0 1-.319.11 1.117 1.117 0 0 1-.266.011l-.125-.016c-.074.063-.142.131-.215.193.063-.021.115-.041.162-.062.172-.068.282-.021.225.083a.688.688 0 0 1-.314.2 1.075 1.075 0 0 1-.288.084l-.12.015c-.052.047-.1.095-.152.147.084-.032.162-.063.22-.084.173-.073.288-.026.225.079a.6.6 0 0 1-.314.2 1.1 1.1 0 0 1-.282.084 1.353 1.353 0 0 1-.152.021l-.063.063c-.052.052-.1.11-.157.172.115-.047.267-.109.361-.151.173-.079.288-.037.23.068a.656.656 0 0 1-.3.214 1.374 1.374 0 0 1-.282.094c-.053.011-.1.016-.152.026h-.058c-.052.074-.1.142-.157.22.116-.047.246-.105.335-.141.168-.079.283-.037.225.068s-.2.167-.3.214a1.271 1.271 0 0 1-.288.09c-.047.011-.1.016-.151.027-.042.062-.084.13-.126.193.12-.047.33-.136.445-.188.172-.073.282-.032.23.073s-.209.162-.309.214a1.184 1.184 0 0 1-.282.1c-.047.01-.1.015-.147.026h-.073c-.026.047-.057.094-.084.136.121-.047.325-.131.44-.183.172-.074.282-.032.225.073s-.2.162-.3.214a.959.959 0 0 1-.282.089 1.222 1.222 0 0 1-.147.026.168.168 0 0 1-.062.006c-.157.266-.257.455-.257.455z" style="fill:#fccd1f"/></svg>