<svg xmlns="http://www.w3.org/2000/svg" viewBox="0 0 55 55"><path d="M27.5 4.2v23.3H4.2a23.145 23.145 0 0 1 3.243-11.846A23.509 23.509 0 0 1 14.66 8.07q.857-.57 1.768-1.07A23.2 23.2 0 0 1 27.5 4.2z" style="fill:#042b7d"/><path d="M27.5 4.2v23.3H4.2A23.3 23.3 0 1 0 27.5 4.2z" style="fill:#cd1225"/><path d="m16.815 8.2.612 1.883-1.606-1.165-1.605 1.161.612-1.879-.168-.13q.857-.57 1.768-1.07l.006.026h1.981zM9.7 14.022l.612 1.883L8.7 14.739l-1.26.915a23.483 23.483 0 0 1 1.95-2.8h1.9zM23.112 9.958l.586 1.799h1.893l-1.532 1.114.586 1.805-1.533-1.114-1.532 1.114.585-1.805-1.537-1.114h1.898l.586-1.799zM15.821 20.319l.774 2.385h2.506l-2.025 1.47.775 2.385-2.03-1.475-2.024 1.475.774-2.385-2.029-1.47h2.505l.774-2.385zM19.388 15.952l.387 1.203h1.266l-1.02.748.388 1.203-1.021-.748-1.025.748.392-1.203-1.025-.748h1.266l.392-1.203z" style="fill:#fff"/></svg>