<svg xmlns="http://www.w3.org/2000/svg" viewBox="0 0 55 55"><path d="M50.8 27.5H4.2a23.163 23.163 0 0 1 3.127-11.653h40.345A23.164 23.164 0 0 1 50.8 27.5z" style="fill:#fff"/><path d="M47.672 15.847H7.332a23.431 23.431 0 0 1 5.042-6.056c.371-.319.748-.622 1.14-.915q.833-.628 1.721-1.177a20.5 20.5 0 0 1 1.3-.753 23.317 23.317 0 0 1 16.791-2.009 23.375 23.375 0 0 1 14.346 10.91z" style="fill:#043080"/><path d="M50.8 27.5a23.177 23.177 0 0 1-3.128 11.647H7.327A23.176 23.176 0 0 1 4.2 27.5z" style="fill:#25962b"/><path d="M47.672 39.147a23.284 23.284 0 0 1-40.345 0z" style="fill:#fecd17"/><path d="M33.326 4.937v45.126a23.38 23.38 0 0 1-11.648 0V4.937a23.38 23.38 0 0 1 11.648 0z" style="fill:#d11133"/><path d="m17.876 11.072 1.156 3.552L16 12.427l-3.017 2.2 1.15-3.552-1.759-1.284c.371-.319.748-.622 1.14-.915h1.339l.382-1.176a20.5 20.5 0 0 1 1.3-.753l.628 1.93H20.9z" style="fill:#fecd17"/></svg>