<svg xmlns="http://www.w3.org/2000/svg" viewBox="0 0 55 55"><path d="M45.2 12.379a19.619 19.619 0 0 1 2.271 3.114 22.479 22.479 0 0 1 3.133 8.985 22.768 22.768 0 0 1-4.464 16.964 22.631 22.631 0 0 1-14.211 8.9 22.352 22.352 0 0 1-15.109-2.183A22.525 22.525 0 0 1 4.662 31.877a22.453 22.453 0 0 1 5.305-19.664 22.34 22.34 0 0 1 13.516-7.647 22.888 22.888 0 0 1 17.046 3.619c.065.043.124.095.186.143a.473.473 0 0 1 .1.071c.04.129-.054.137-.137.155a.588.588 0 0 1-.132-.022c-.092-.025-.184-.046-.276-.071a17.079 17.079 0 0 0-4-1.242 19.565 19.565 0 0 0-6.632.151c-.321.061-.644.108-.961.191a1.553 1.553 0 0 1-.246.024c-1.048-.141-2.089-.313-3.147-.4a19.873 19.873 0 0 0-3.628.175c-.449.045-.885.169-1.333.224a3.355 3.355 0 0 0-.384.057 7.788 7.788 0 0 0-.82.091 12.691 12.691 0 0 0-6.544 2.415A12.85 12.85 0 0 0 7.639 18.6a19.539 19.539 0 0 0 .345 7.868 2.268 2.268 0 0 1 .131.788 15.972 15.972 0 0 0-.644 3.238 16.448 16.448 0 0 0 .429 6.374 14.361 14.361 0 0 0 9.363 10.2 18.732 18.732 0 0 0 9.861.617 8.716 8.716 0 0 1 1.242-.214 19.5 19.5 0 0 0 5.242.463 14.637 14.637 0 0 0 9.25-3.683 15.4 15.4 0 0 0 5.035-10.344 20.611 20.611 0 0 0-.361-6.435 2.293 2.293 0 0 1-.076-.315 28.857 28.857 0 0 0 .229-3.425 21.627 21.627 0 0 0-.346-3.129c-.008-.229-.1-.446-.1-.676-.065-.364.153-.734-.026-1.1a.915.915 0 0 1-.123-.251 13.841 13.841 0 0 0-1.929-5.728.537.537 0 0 1-.11-.353c.02-.071.056-.132.149-.116z" style="fill:#97c949"/><path d="M42.871 10.006a2.846 2.846 0 0 1 .935.839.085.085 0 0 1 .028.08c-.006.028-.013.042-.02.042a1.644 1.644 0 0 1-.968-.9z" style="fill:#e0edca"/><path d="M40.62 8.5c.075-.01.152-.018.192-.1a2.1 2.1 0 0 1 .56.379c.03.093-.028.125-.1.147-.272-.063-.558-.094-.652-.426z" style="fill:#a9d169"/><path d="m45.2 12.379-.11.121c-.337-.087-.449-.376-.574-.654a.206.206 0 0 1 .065-.113l.062-.023a4.055 4.055 0 0 1 .557.669z" style="fill:#a9d16b"/><path d="m41.264 8.881.108-.1a2.58 2.58 0 0 1 .606.465.187.187 0 0 1-.121.071c-.266-.051-.512-.127-.593-.436z" style="fill:#b9d885"/><path d="M44.084 11.128a2.541 2.541 0 0 1 .561.582l-.013.043c-.044 0-.087.007-.131.008a.743.743 0 0 1-.472-.515.2.2 0 0 1 .055-.118z" style="fill:#c2dd93"/><path d="M42.4 9.541a1.3 1.3 0 0 1 .476.465l-.006.007c-.318.112-.412-.121-.515-.341a.167.167 0 0 1 .045-.131z" style="fill:#e0edca"/><path d="m41.831 9.257.146-.015a.5.5 0 0 1 .33.294l-.053.04c-.218-.002-.386-.071-.423-.319z" style="fill:#c9e1a1"/><path d="M44.084 11.128v.114c-.206.019-.3-.075-.28-.284v-.113a.677.677 0 0 1 .28.283z" style="fill:#d5e7b5"/><path d="M40.812 8.4a.1.1 0 0 1-.1-.071.088.088 0 0 1 .1.071z" style="fill:#a9d169"/><path d="m42.4 9.541.009.118c-.077 0-.121-.035-.1-.121a.175.175 0 0 1 .091.003z" style="fill:#c1dd94"/><path d="M47.445 20.522a16.785 16.785 0 0 1 .342 4.576c-.041.7-.117 1.4-.221 2.1a1.037 1.037 0 0 1 .023.221 7.638 7.638 0 0 1-.349 1.843 23.417 23.417 0 0 1-2.209 5.472 29.147 29.147 0 0 1-2.791 4.079 27.162 27.162 0 0 1-4.808 4.534 26.706 26.706 0 0 1-7.365 3.853c-.222.076-.45.128-.673.2a2.785 2.785 0 0 1-1 .177c-.842.15-1.675.351-2.526.452a17.29 17.29 0 0 1-11.883-2.418 14.481 14.481 0 0 1-6.476-9.921 18.78 18.78 0 0 1 .37-8.1c.035-.136.09-.267.135-.4.278.15.249.44.307.69a23.35 23.35 0 0 0-.371 3.563A15.293 15.293 0 0 0 8.3 34.9a12.273 12.273 0 0 0 3.323 6.181 12.9 12.9 0 0 0 6.586 3.446 27.1 27.1 0 0 0 3.66.384c.095 0 .191 0 .286-.013.815-.12 1.641-.116 2.459-.242a24.529 24.529 0 0 0 6.3-1.888 28.339 28.339 0 0 0 7.6-5.024 27.5 27.5 0 0 0 6.066-7.8 21.877 21.877 0 0 0 2.12-5.807 20.726 20.726 0 0 0 .428-3.2.761.761 0 0 1 .093-.405.148.148 0 0 1 .224-.01z" style="fill:#fff"/><path d="M46.794 24.239a12.641 12.641 0 0 1-.65 2.4 18.509 18.509 0 0 1-1.466 3.342c-.2-.106-.187-.316-.223-.492a27.727 27.727 0 0 0-6.068-12.35 28.5 28.5 0 0 0-7.575-6.439 20.429 20.429 0 0 0-3.5-1.665 11.1 11.1 0 0 0-1.72-.567 17.64 17.64 0 0 0-3.838-.7c-.4-.023-.8-.1-1.2-.108-.12 0-.294.006-.292-.206.692-.094 1.372-.261 2.068-.338a18.468 18.468 0 0 1 3.954 0c.743.077 1.475.218 2.209.352a.408.408 0 0 0 .265.013 10.386 10.386 0 0 1 2.4.643c.248.084.491.185.738.275a24.413 24.413 0 0 1 5.726 3.26A27.429 27.429 0 0 1 46 22.084a7.592 7.592 0 0 1 .794 2.155z" style="fill:#111a42"/><path d="M20.255 7.461c.106.177.279.1.423.107a19.151 19.151 0 0 1 4.828.734 1.2 1.2 0 0 1 .129.053c-.1.258-.366.265-.57.347a29.235 29.235 0 0 0-8.381 5.3c-.105.093-.2.2-.3.3-.424.4-.9.751-1.282 1.194a1.673 1.673 0 0 0-.141.185 1.051 1.051 0 0 1-.1.129 1.016 1.016 0 0 1-.072.075l-.037.036a1.223 1.223 0 0 1-.073.071l-.036.036a1.19 1.19 0 0 1-.07.072l-.036.037c-.023.026-.048.051-.072.075l-.112.117c-.037.039-.077.086-.117.128a4.728 4.728 0 0 0-.448.5.835.835 0 0 1-.079.1 1.81 1.81 0 0 1-.087.088 5.455 5.455 0 0 0-.392.479 1.516 1.516 0 0 1-.149.193l-.041.044a1.849 1.849 0 0 0-.336.411 3.165 3.165 0 0 0-.248.336.861.861 0 0 1-.072.1 2.287 2.287 0 0 0-.31.377c-.2.328-.454.612-.646.942-.266.4-.539.8-.769 1.227a23.7 23.7 0 0 0-1.373 2.63c-.072.169-.087.466-.408.41a4.834 4.834 0 0 1-.131-1.4 22.167 22.167 0 0 1 .391-3.66 15.5 15.5 0 0 1 4.514-8.274 14.154 14.154 0 0 1 5.756-3.315 2.267 2.267 0 0 0 .536-.089c.076-.122.196-.099.311-.095z" style="fill:#97c949"/><path d="M28.392 47.573a4.638 4.638 0 0 1 1.021-.279c.842-.111 1.674.115 2.514.084a13.231 13.231 0 0 0 7.973-2.687 12.662 12.662 0 0 0 4.333-6.632c.312-1.079.373-2.2.667-3.284.3-.617.617-1.229.9-1.854a21.746 21.746 0 0 0 1.667-5.27 1.511 1.511 0 0 1 .072-.222q.047-.061.093 0A13.046 13.046 0 0 1 48 29.615a19.236 19.236 0 0 1 0 4.531c-.707 5.6-3.326 9.9-8.436 12.442a15.354 15.354 0 0 1-7.392 1.492 16.409 16.409 0 0 1-3.78-.507z" style="fill:#111a42"/><path d="M46.794 24.239c-.349-.771-.624-1.574-1-2.335A26.719 26.719 0 0 0 32.117 8.633c-.084-.036-.183-.048-.243-.132a2.736 2.736 0 0 1 1.552-.1 17.212 17.212 0 0 1 5.762 1.486 14.673 14.673 0 0 1 6.346 5.538 13.2 13.2 0 0 1 1.634 3.641 1.624 1.624 0 0 0 .066.392c.019.061.075-.038.024 0-.079-.215-.158-.429.014-.638.108.014.272.064.2.171-.188.29-.078.6-.126.9-.127.2.086.443-.071.641a19.345 19.345 0 0 1-.389 3.4c-.02.101-.06.203-.092.307z" style="fill:#97c949"/><path d="M19.477 7.731a14.691 14.691 0 0 0-5.146 2.8 15.088 15.088 0 0 0-4.948 8.2 17.73 17.73 0 0 0-.46 5.623c.165.193.087.434.128.651a28.13 28.13 0 0 0 .749 4.034 26.3 26.3 0 0 0 4.985 9.6 1.27 1.27 0 0 1 .352.6.174.174 0 0 1-.121.161c-.271 0-.409-.214-.56-.384a31.431 31.431 0 0 1-4.521-6.53 26.992 26.992 0 0 1-1.567-3.743 1.864 1.864 0 0 1-.135-.782l-.218-.78a25.514 25.514 0 0 1-.644-3.577 16.152 16.152 0 0 1 1.8-9.782 12.034 12.034 0 0 1 8.348-5.982 8.41 8.41 0 0 1 1.572-.214c.139-.003.314-.143.386.105z" style="fill:#111a42"/><path d="M47.086 19.092a14.854 14.854 0 0 0-3.052-5.475 15 15 0 0 0-8.268-4.739 14.423 14.423 0 0 0-3.891-.378c-.725-.234-1.448-.475-2.176-.7-.342-.106-.692-.182-1.038-.272-.038-.017-.05-.033-.037-.048a.051.051 0 0 1 .039-.022 14.667 14.667 0 0 1 2.473-.465 18.3 18.3 0 0 1 3.033-.114 14.9 14.9 0 0 1 5.963 1.4c.1.046.2.084.3.125.05.058.138.039.188.1a3.506 3.506 0 0 0 .644.385l.567.376c.146.114.266.273.473.281a.164.164 0 0 0 .1.121c.124.157.238.328.461.354a6.391 6.391 0 0 0 .937.945.721.721 0 0 0 .28.284 2.126 2.126 0 0 0 .419.473.087.087 0 0 1 .074.088 3.715 3.715 0 0 0 .517.7 13.654 13.654 0 0 1 1.653 3.663 11.869 11.869 0 0 1 .441 2.446c0 .157.148.357-.1.472z" style="fill:#fff"/><path d="M47.086 19.092c.158-.134.032-.33.1-.483l.086.206v.812a1.022 1.022 0 0 1-.186-.535z" style="fill:#dbeac1"/><path d="M19.477 7.731c-.1-.139-.264-.043-.386-.1a1.868 1.868 0 0 1 .853-.067.7.7 0 0 1-.467.167z" style="fill:#405c50"/><path d="M47.277 20.524c0-.217-.088-.443.071-.641-.026.222.136.415.1.639z" style="fill:#e1edc9"/><path d="M40.621 8.5a.2.2 0 0 1-.188-.1.174.174 0 0 1 .188.1z" style="fill:#a9d169"/><path d="M47.637 27.429h-.093l.022-.23a.235.235 0 0 1 .071.23z" style="fill:#364757"/><path d="M28.663 7.458a.105.105 0 0 1 0 .07.136.136 0 0 1-.175-.055z" style="fill:#9498a2"/><path d="m44.575 11.8-.074-.087.131.037a.126.126 0 0 1-.057.05z" style="fill:#a2ce5b"/><path d="M15.1 39.245c-.754-.964-1.51-1.925-2.174-2.957a25.518 25.518 0 0 1-3.7-9.22c-.12-.649-.179-1.31-.267-1.966a13.739 13.739 0 0 1 1.395-3.321c.088-.166.191-.324.266-.5.262-.413.5-.842.77-1.247.206-.327.428-.643.657-.953.084-.174.234-.3.331-.462a1.777 1.777 0 0 1 .273-.32 4.422 4.422 0 0 1 .386-.537v.006l.1-.1c.13-.217.35-.356.482-.571a.9.9 0 0 1 .082-.094 4.35 4.35 0 0 1 .58-.625c.038-.042.079-.08.118-.12a.519.519 0 0 0 .1-.119.3.3 0 0 1 .049-.09l-.007.008c.035-.033.068-.067.1-.1l-.007.007.1-.1-.007.007c.053-.045.128-.058.171-.118a.561.561 0 0 0 .1-.129.934.934 0 0 1 .102-.124c.388-.459.891-.792 1.3-1.224a26.83 26.83 0 0 1 8.433-4.756 19.259 19.259 0 0 1 1.974-.568 1.091 1.091 0 0 1 .553-.005 12.4 12.4 0 0 1 2.1.894 28.123 28.123 0 0 1 9.264 7.519 28.206 28.206 0 0 1 5.306 9.909c.264.891.449 1.8.644 2.709a16.772 16.772 0 0 1-1.449 2.48 29.079 29.079 0 0 1-14.44 11.284 21.363 21.363 0 0 1-6.538 1.251 9.3 9.3 0 0 1-1.82-1.034 7 7 0 0 1-.934-.652 1.72 1.72 0 0 1-.378-.29.674.674 0 0 1-.11-.036c-.112-.074-.173-.208-.3-.262a.218.218 0 0 1-.105-.047 1.656 1.656 0 0 0-.311-.268c-.046-.036-.1-.061-.141-.1a.058.058 0 0 1-.037-.057c-.011.007-.01.021.006.037a.454.454 0 0 0 .066.054.39.39 0 0 1 .1.056 3.89 3.89 0 0 1 .362.315.35.35 0 0 1 .112.04c.094.074.164.175.262.245a.338.338 0 0 1 .112.038 1.485 1.485 0 0 0 .332.259 10.951 10.951 0 0 0 .915.647q.656.41 1.308.821c.085.054.215.08.181.233a14.054 14.054 0 0 1-10.132-3.632 11.754 11.754 0 0 1-3.072-4.74 15.635 15.635 0 0 1-.433-8.656 29.092 29.092 0 0 0 2.27 5.324 30.488 30.488 0 0 0 4.244 5.855c.074.08.158.15.238.224.528.27.792.822 1.233 1.185.134.149.286.281.421.429a.422.422 0 0 0 .1.058 1.117 1.117 0 0 1 .124.114 1.153 1.153 0 0 0 .124.118.705.705 0 0 1 .139.1c.093.091.181.187.274.273l.006.029v-.034a4.186 4.186 0 0 1-.308-.3.4.4 0 0 0-.1-.06 1.072 1.072 0 0 1-.127-.115 1.394 1.394 0 0 0-.124-.119.712.712 0 0 1-.14-.105c-.115-.117-.232-.23-.343-.35a7.312 7.312 0 0 1-1.161-1.345zM44.9 34.775a13.909 13.909 0 0 1-.816 4.155 12.148 12.148 0 0 1-9.653 8.3 14.33 14.33 0 0 1-5.021.061c.657-.236 1.324-.448 1.97-.711a26.889 26.889 0 0 0 13.386-11.62c.042-.06.092-.122.134-.185z" style="fill:#97c949"/><path d="M21.864 45c-.513-.334-1.052-.629-1.536-1.008-.011-.087 0-.144.109-.1.563.322 1.126.642 1.686.967a.615.615 0 0 1 .124.134.826.826 0 0 1-.383.007z" style="fill:#283b4c"/><path d="M27.36 8.947a25.534 25.534 0 0 0-9.56 4.387c-.465.341-.917.7-1.376 1.049-.109.023-.153-.021-.133-.132a25.684 25.684 0 0 1 3.529-2.845 27.583 27.583 0 0 1 5.817-3.051 8.514 8.514 0 0 1 1.723.592z" style="fill:#fff"/><path d="M10.7 21.3a30.742 30.742 0 0 0-1.644 3.646.792.792 0 0 1-.1.157 2.83 2.83 0 0 1-.032-.752c.384-.728.685-1.5 1.1-2.211a8.657 8.657 0 0 1 .571-.959c.091-.016.147.007.105.119z" style="fill:#f5f9f1"/><path d="m16.289 14.251.133.132c-.427.426-.883.819-1.344 1.207l-.038-.012-.028-.028-.012-.038a8.831 8.831 0 0 1 1.289-1.261z" style="fill:#edf4e0"/><path d="m10.7 21.3-.111-.119a7.851 7.851 0 0 1 .763-1.224c.084-.012.14 0 .093.106A14.081 14.081 0 0 1 10.7 21.3z" style="fill:#e9f2da"/><path d="m11.448 20.062-.093-.106a8.076 8.076 0 0 1 .658-.943c.079-.019.128-.01.082.089z" style="fill:#ddebc4"/><path d="M14.335 16.352a2.5 2.5 0 0 1-.655.667 1.489 1.489 0 0 1 .532-.669.094.094 0 0 1 .123.002z" style="fill:#c5de98"/><path d="M13.675 17.1a1.8 1.8 0 0 1-.555.577c.056-.295.317-.439.475-.658a.875.875 0 0 1 .08.081z" style="fill:#aad16b"/><path d="M13.03 17.77c-.037.251-.237.391-.376.573a.082.082 0 0 1-.005-.126.748.748 0 0 1 .381-.447z" style="fill:#b9d884"/><path d="m12.1 19.1-.082-.089a.733.733 0 0 1 .361-.39c-.009.215-.168.336-.279.479z" style="fill:#cde2a6"/><path d="m12.649 18.217.005.126c-.077.113-.13.249-.283.284-.002-.202.154-.295.278-.41z" style="fill:#c9e19f"/><path d="m15.078 15.59-.107.094a.061.061 0 0 1-.106-.006.251.251 0 0 1 .135-.166l.015.02.041.042z" style="fill:#f3f8eb"/><path d="M14.335 16.352h-.123a.16.16 0 0 1 .118-.093.048.048 0 0 1 .08 0z" style="fill:#e0edc7"/><path d="M14.41 16.253h-.08a.093.093 0 0 1 .094-.1.044.044 0 0 1 .076 0z" style="fill:#e5f0d2"/><path d="M14.875 15.78c-.034.071-.076.127-.167.1a.082.082 0 0 1 .062-.11.092.092 0 0 1 .105.01z" style="fill:#f3f8ea"/><path d="m14.875 15.78-.105-.007a.126.126 0 0 1 .1-.095l.106.006z" style="fill:#f3f8eb"/><path d="M14.5 16.162h-.076a.094.094 0 0 1 .1-.1z" style="fill:#e9f2da"/><path d="m13.124 17.676-.1.1z" style="fill:#b6d781"/><path d="M14.621 15.971c0 .073-.029.107-.1.1 0-.065.03-.103.1-.1z" style="fill:#ecf4df"/><path d="M14.715 15.876c.005.074-.028.108-.1.1-.003-.068.029-.103.1-.1z" style="fill:#eef5e3"/><path d="m13.675 17.1-.08-.081a.192.192 0 0 1 .089-.007.261.261 0 0 1-.009.088z" style="fill:#c0dc91"/><path d="m15.1 39.245 1.24 1.34a.1.1 0 0 1-.142.014 9.889 9.889 0 0 1-1.215-1.232z" style="fill:#253c4a"/><path d="M23.164 39.953V33.99a10.367 10.367 0 0 0 1.707.707 9.878 9.878 0 0 0 1.739.32 57.093 57.093 0 0 1-3.446 4.936zM31.857 33.554l.45 5.844a47.776 47.776 0 0 1-3.8-4.462 12.641 12.641 0 0 0 1.731-.514 11.912 11.912 0 0 0 1.619-.868zM19.052 27.831l-5.314-2.572.007-.092 5.671-1.032a8.884 8.884 0 0 0-.364 3.696zM38.74 33.32l-4.227-.731c-.412-.072-.824-.146-1.323-.235a8.8 8.8 0 0 0 1.765-3.1.37.37 0 0 1 .071-.024.062.062 0 0 1 .043.01c.158.15.32.3.472.453q1.7 1.752 3.4 3.509c.011.184-.1.141-.201.118zM15.91 34.143l3.625-4.406a8.853 8.853 0 0 0 2.054 3.07l-5.565 1.447c-.098.026-.124-.021-.114-.111zM26.749 13.169l1.988 5.471a8.951 8.951 0 0 0-3.63.122l1.537-5.589zM35.313 27.142a8.455 8.455 0 0 0-.591-3.529 46.069 46.069 0 0 1 5.661.542zM20.357 22.133l-2.381-5.3.064-.07 4.93 2.856c-.3.316-.67.486-.967.749a8.633 8.633 0 0 0-.848.808c-.263.301-.516.616-.798.957z" style="fill:#fff"/><path d="m26.2 27.616-3.4 4.13a4.586 4.586 0 0 1-1.077-1.158 5.8 5.8 0 0 1-.719-1.371c-.1-.292-.108-.3.185-.384.643-.176 1.291-.339 1.936-.508l3.009-.786z" style="fill:#ffc114"/><path d="m35.554 16.233-1.944 5.459a8.756 8.756 0 0 0-2.761-2.3l4.631-3.22z" style="fill:#fff"/><path d="M27.208 25.5c-.227-.612-.446-1.191-.658-1.772q-.542-1.481-1.075-2.963c-.148-.413-.134-.431.286-.535a5.629 5.629 0 0 1 2.49-.068c.345.068.468.053.337.519-.438 1.554-.85 3.115-1.275 4.673-.013.04-.051.072-.105.146zM25.79 26.87a2.006 2.006 0 0 1-.706.169c-1.325.248-2.656.468-3.98.721-.425.081-.473.043-.531-.415a6.614 6.614 0 0 1 .269-2.553c.088-.337.12-.347.411-.207q2.168 1.043 4.331 2.1c.077.034.181.049.206.185zM26.868 28.13c.131.1.079.234.08.351q.009 2.269.01 4.539c0 .41-.006.4-.41.388a5.953 5.953 0 0 1-2.487-.73c-.317-.164-.329-.212-.132-.492.649-.923 1.3-1.842 1.957-2.762l.76-1.075c.061-.086.096-.2.222-.219zM26.019 25.842c-.637-.362-1.276-.72-1.91-1.086-.771-.445-1.54-.891-2.3-1.346-.268-.16-.273-.193-.106-.426a7.4 7.4 0 0 1 1.978-1.916c.279-.181.3-.179.441.134q.819 1.8 1.625 3.61c.135.3.261.605.392.908.018.1-.03.131-.12.122zM28.206 26a4.078 4.078 0 0 1 .27-.911c.464-1.318.938-2.632 1.41-3.947.144-.4.156-.41.515-.21a6.644 6.644 0 0 1 2 1.74c.2.252.19.29-.081.478-.807.56-1.619 1.114-2.427 1.673-.548.377-1.093.763-1.687 1.177zM28.531 26.779a9.313 9.313 0 0 1 1.1-.67q1.651-.981 3.31-1.949c.245-.144.268-.138.365.119a6.921 6.921 0 0 1 .48 2.721c-.012.327-.024.347-.359.331-.357-.017-.712-.059-1.067-.095l-3.8-.4c-.006.005-.011-.018-.029-.057zM28.193 27.5c.711.12 1.337.222 1.962.332 1.009.178 2.017.363 3.026.542.365.065.382.075.279.407a6.278 6.278 0 0 1-1.375 2.442c-.138.148-.239.158-.376 0-1.078-1.223-2.27-2.34-3.391-3.523a1.886 1.886 0 0 1-.125-.2zM27.676 28.021c.584.7 1.138 1.352 1.69 2.011q.693.828 1.383 1.658c.071.085.143.167.214.25.119.141.08.249-.061.349a6.8 6.8 0 0 1-1.144.635 7.1 7.1 0 0 1-1.469.448c-.189.04-.288-.013-.3-.23-.054-.784-.121-1.566-.183-2.349-.06-.767-.125-1.534-.18-2.3a.767.767 0 0 1 .05-.472z" style="fill:#ffc114"/><path d="m20.437 43.893-.109.1a6.69 6.69 0 0 1-.935-.661c-.02-.082-.007-.13.091-.087z" style="fill:#314b4d"/><path d="m16.2 40.6.142-.014a1.164 1.164 0 0 1 .344.358.078.078 0 0 1 0 .1 1.586 1.586 0 0 1-.486-.444z" style="fill:#3d5a50"/><path d="M17.045 41.26a1.433 1.433 0 0 1 .475.467c-.032.039-.064.041-.1 0a1.035 1.035 0 0 1-.374-.355.08.08 0 0 1-.024-.074c.009-.025.016-.038.023-.038z" style="fill:#648a4d"/><path d="M18.179 42.382a.773.773 0 0 1-.351-.337.378.378 0 0 1 .344.239.063.063 0 0 1 .026.064c-.006.023-.012.034-.019.034z" style="fill:#77a149"/><path d="M18.267 42.389a.477.477 0 0 1 .375.249.072.072 0 0 1 .03.074c-.008.026-.015.039-.024.039a.759.759 0 0 1-.383-.36z" style="fill:#5d804e"/><path d="m19.484 43.241-.091.087a.623.623 0 0 1-.291-.236.071.071 0 0 1 0-.118 1.026 1.026 0 0 1 .382.267z" style="fill:#466551"/><path d="M19.02 43.038a.5.5 0 0 1-.29-.25q-.036-.031-.024-.063c.007-.021.015-.031.023-.031a.547.547 0 0 1 .289.223.094.094 0 0 1 .002.121z" style="fill:#4e6e50"/><path d="M38.74 33.32c.071-.03.165-.019.2-.114.075.025.138.073.108.154-.01.028-.1.039-.155.031a.537.537 0 0 1-.153-.071z" style="fill:#cee3a7"/><path d="m15.91 34.143.114.111c-.054.063-.137.12-.2.056s.014-.132.086-.167z" style="fill:#c9e09f"/><path d="M17.423 41.728h.1c.065.028.163.1.117.136-.123.081-.164-.057-.217-.136z" style="fill:#79a448"/><path d="m26.019 25.842.116-.122c.069.062.13.148.047.217-.061.05-.122-.037-.163-.095z" style="fill:#d3c72c"/><path d="M16.679 41.046v-.1a.124.124 0 0 1 .088.121z" style="fill:#30494d"/><path d="M16.77 41.064a.082.082 0 0 1 .093.095c-.064 0-.1-.026-.095-.093z" style="fill:#37524e"/><path d="M16.957 41.253c-.063 0-.1-.028-.094-.094.063 0 .1.03.092.1z" style="fill:#3d5b4f"/><path d="M17.045 41.26v.113c-.05-.026-.093-.056-.092-.12z" style="fill:#3d5c4e"/><path d="M18.729 42.694a.722.722 0 0 0 0 .093.208.208 0 0 1-.082-.036l-.006-.113z" style="fill:#3e5b4e"/><path d="M19.02 43.038v-.121l.085.057v.118z" style="fill:#2d474b"/><path d="m18.179 42.382-.007-.1a.122.122 0 0 1 .095.1h-.044z" style="fill:#567c4e"/><path d="M15.056 15.574a.041.041 0 0 1-.041-.042l.033.008z" style="fill:#f7faf3"/></svg>