<svg xmlns="http://www.w3.org/2000/svg" viewBox="0 0 55 55"><defs><clipPath id="a"><circle cx="27.5" cy="27.5" r="23.3" style="fill:none"/></clipPath><clipPath id="b"><ellipse cx="27.5" cy="27.5" rx="10.997" ry="10.762" style="fill:none"/></clipPath></defs><g style="clip-path:url(#a)"><path style="fill:#cd2028" d="M-16.43 3.094h87.86v48.811h-87.86z"/><path style="fill:#fff" d="M-16.43 15.297h87.86v24.406h-87.86z"/><g style="clip-path:url(#b)"><path d="m24.591 26.282-1.867-.051v-.7l1.867.754zM24.583 26.077l-1.859-.9V24a.162.162 0 0 1-.187-.205c.01-.488 1.366.891 2.062 1.341l-.016.937zM16.531 29.132l3.92.029v-2.315l-4.48-.2.56 2.49zM16.344 25.938l4.17.381-.031-1.641-4.077-1.523-.062 2.783zM17.184 22.658l3.2 1.465.458-.45s-.3-.191-.28-.367.3-.205.3-.4-.33-.2-.333-.378c-.022-.193.258-.4.258-.4l-2.887-2.37-.716 2.9zM38.219 29.161h-4.138l-.031-2.256 4.543-.322-.374 2.578zM38.321 25.9a10.31 10.31 0 0 0-.2-1.091 10.7 10.7 0 0 0-.456-1.415c-.014-.034-.034-.065-.048-.1l-3.539 1.411.032 1.67 4.208-.476zM35.9 20.48l-2.118 1.525c0 .146.157.258.2.4.1.2-.1.369-.217.508-.1.127.112.193.182.268.154.15.02.386-.144.473a.768.768 0 0 1 .341.531l3.17-1.572A10.3 10.3 0 0 0 35.9 20.48zM30.006 26.333l1.773-.073.031-.674-1.8.747zM30 25.967v-.761s1.68-1.428 2.038-1.692a.887.887 0 0 1-.195.52v1.113l-1.843.82zM19.115 19.552c.031.03 1.885 1.97 1.885 1.97.052-.184.48-.212.915-.183s.783-.027.783.266-.221.251-.221.456.331.188.331.452-.24.209-.241.414c0 .168.25.177.25.177l1.766 1.612.008-1.722-3.641-5.375-1.835 1.933zM22.028 17.517c.027.078 2.466 4.748 2.466 4.748s.027-4.383.443-4.618l-.693-1.2-2.216 1.07zM29.986 17.013l-.92 3.032a5.319 5.319 0 0 0 .865.026c.259.021.057.253.071.39v1.864l2.6-4.378a13.112 13.112 0 0 0-1.872-.721q-.366-.121-.742-.213zM33.225 18.28l-3.219 4.713v1.815l2.152-1.947c.135-.183-.431-.273-.148-.5a.29.29 0 0 0 .03-.548c-.222-.311.2-.475.468-.441a5.091 5.091 0 0 1 1.118.021c.2.182.384-.275.58-.378.388-.372.777-.744 1.16-1.12a10.224 10.224 0 0 0-2.137-1.62z" style="fill:#f89b1c"/><path d="M24.923 36.58a4 4 0 0 0-1.95.824 11.089 11.089 0 0 0 2.126.64 22.551 22.551 0 0 0 3.6.191c.2-.023.39-.05.58-.08l2.53-.812a4.83 4.83 0 0 0-2.182-.732c-.964.033-1.616.932-2.394.865s-1.089-.9-2.209-.9h-.1zM20.328 35.958l14.376.058A4.565 4.565 0 0 0 32 34.727c-1.463-.029-1.058.586-2.178.674s-1.4-.644-2.427-.615-1.618.615-2.4.645-1.774-.733-2.365-.7a17.167 17.167 0 0 0-2.707.879l.4.352zM18.492 34.346l17.737.059c.28-.381-.872-1.29-1.93-1.377-.871.029-1.493.849-2.209.878s-1.525-.849-2.334-.82-1.649.82-2.458.82-1.4-.849-2.427-.849-1.493.937-2.271.879S21.137 33 20.39 33s-1.991 1.055-2.24 1 .311.44.342.352zM25.349 32.73h3.959a2.54 2.54 0 0 0-1.978-1.2 2.593 2.593 0 0 0-1.981 1.2zM37.975 32.64h-5.418a2.823 2.823 0 0 0 .892-.75c.351.18.255.36.956.39s1.371-.75 2.04-.72 1.53 1.11 1.53 1.08zM16.624 32.64h5.418a2.823 2.823 0 0 1-.892-.75c-.351.18-.255.36-.956.39s-1.371-.75-2.04-.72-1.53 1.11-1.53 1.08zM17.029 31.036l3.859.03a3.12 3.12 0 0 1-.28-1.113c-1-.323-1.8.7-2.521.732a2.439 2.439 0 0 1-1.462-.732l.4 1.083zM37.629 31.036l-3.859.03a3.12 3.12 0 0 0 .28-1.113c1-.323 1.8.7 2.521.732a2.439 2.439 0 0 0 1.462-.732l-.4 1.083zM26.333 31.066l1.96-.059s.031-.556-1-.556-.934.644-.965.615z" style="fill:#1f4395;stroke:#1f4395;stroke-width:.100000001490116px"/><path d="m25.306 25.059 4.076 1.026v-5.479c-1.867.088-3.423-3.339-.124-3.574-3.236-.439-3.61.352-3.983 1.2l.031 6.825zM26.211 30.011c-.886 1.383-3.257.973-3.811.008-.166-.045-.068-5.955-.068-5.955s-.265-.114-.277-.3.36-.2.36-.435-.38-.142-.387-.379.405-.2.387-.4c-.021-.236-.452-.2-.471-.418-.014-.172.309-.322.4-.4h-.3l-.679.013c-.482 0 .009.1 0 .361 0 .171-.245.285-.266.434s.343.26.348.443c0 .164-.345.175-.333.327.022.257.309.314.3.47s-.387.215-.388.339c.013.24.055 6.078.055 6.078.61 2.974 4.129 3.73 5.126-.183zM28.531 30.011c.887 1.383 3.257.973 3.811.008.166-.045.068-5.955.068-5.955s.265-.114.277-.3-.337-.2-.337-.435.357-.142.365-.379-.375-.209-.357-.418c.021-.235.314-.208.331-.425.014-.186-.184-.3-.273-.378h.285l.679.013c.482 0-.008.1 0 .361 0 .171.244.285.266.434.007.153-.344.26-.348.443 0 .164.345.175.332.327-.021.257-.309.314-.3.47s.387.215.388.339c-.013.24-.055 6.078-.055 6.078-.61 2.974-4.128 3.73-5.126-.183z" style="fill:#cd2028;stroke:#630b12;stroke-linejoin:round;stroke-width:.100000001490116px"/><path d="M25.151 30.274a1.778 1.778 0 0 0 .871-.762l-1.338.029a3.989 3.989 0 0 0-.933.733zM29.475 30.274a1.778 1.778 0 0 1-.871-.762l1.338.029a3.989 3.989 0 0 1 .933.733zM22.723 29.044l9.211.029M23.159 26.964l1.089 1.377M23.159 28.341l1.182-1.348M23.781 26.875l-.031.85M24.9 26.964l1.089 1.377M24.9 28.341l1.183-1.348M25.524 26.875l-.031.85M26.675 26.964l1.089 1.377M26.675 28.341l1.183-1.348M27.3 26.875l-.032.85M28.511 26.964l1.089 1.377M28.511 28.341l1.182-1.348M29.133 26.875l-.031.85M30.285 26.964l1.089 1.377M30.285 28.341l1.182-1.348M30.907 26.875l-.031.85" style="fill:#630b12;stroke:#630b12;stroke-linecap:round;stroke-width:.100000001490116px"/></g></g></svg>