<svg xmlns="http://www.w3.org/2000/svg" viewBox="0 0 55 55"><clipPath id="a"><circle cx="27.5" cy="27.5" r="23.3" fill="none"/></clipPath><g clip-path="url(#a)"><path fill="#f4f4f5" fill-rule="evenodd" d="M-7.48 4.18h69.95v46.61H-7.48V4.18z"/><path fill="#ee2724" d="M29.99 19.71 6.75 4.18l55.71.02.02 15.51H29.99z"/><path fill="#ffcf32" d="M-7.48 45.19v-3.73l20.83-13.98-20.83-13.9v-3.8l26.35 17.7-26.35 17.71z"/><path fill="#0c8542" d="M-7.48 9.78v-5.6l8.56.01 27.69 18.66 33.71-.02-.02 9.33-33.64-.02L1.07 50.78h-8.55v-5.59l26.35-17.71-26.35-17.7z"/><path fill="#214097" d="m6.75 50.78 23.21-15.56 32.49.05.03 15.55-55.73-.04z"/><path d="m-7.48 13.58 20.83 13.9-20.83 13.98V13.58z"/></g></svg>